<svg xmlns="http://www.w3.org/2000/svg" xmlns:svg="http://www.w3.org/2000/svg" xmlns:xlink="http://www.w3.org/1999/xlink" id="svg3294" width="48" height="48" version="1.1"><defs id="defs3296"><linearGradient id="linearGradient8838"><stop id="stop8840" offset="0" stop-color="#7f7f7f" stop-opacity="1"/><stop id="stop8842" offset="1" stop-color="gray" stop-opacity="0"/></linearGradient><radialGradient id="radialGradient2759" cx="62.625" cy="4.625" r="10.625" fx="62.625" fy="4.625" gradientTransform="matrix(1,0,0,0.341176,0,3.047059)" gradientUnits="userSpaceOnUse" xlink:href="#linearGradient8838"/><linearGradient id="linearGradient3277-442"><stop id="stop3378" offset="0" stop-color="#575757" stop-opacity="1"/><stop id="stop3380" offset="1" stop-color="#333" stop-opacity="1"/></linearGradient><linearGradient id="linearGradient2782" x1="32.893" x2="31.364" y1="27.988" y2="29.484" gradientTransform="matrix(1.0113456,0,0,1.0013346,-0.1475723,1.8143278)" gradientUnits="userSpaceOnUse" xlink:href="#linearGradient3277-442"/><linearGradient id="linearGradient11114-516"><stop id="stop3372" offset="0" stop-color="#242424" stop-opacity=".992"/><stop id="stop3374" offset="1" stop-color="#656565" stop-opacity="1"/></linearGradient><linearGradient id="linearGradient2780" x1="-172.653" x2="-164.718" y1="99.667" y2="91.973" gradientTransform="matrix(0.3936567,0,0,0.38976,101.37812,-4.2393119)" gradientUnits="userSpaceOnUse" xlink:href="#linearGradient11114-516"/><linearGradient id="linearGradient12093-170"><stop id="stop3384" offset="0" stop-color="#fff" stop-opacity="1"/><stop id="stop3386" offset="1" stop-color="#fff" stop-opacity="0"/></linearGradient><linearGradient id="linearGradient2778" x1="277.573" x2="201.871" y1="146.151" y2="67.35" gradientTransform="matrix(0.3936567,0,0,0.38976,-50.208746,-0.4726547)" gradientUnits="userSpaceOnUse" xlink:href="#linearGradient12093-170"/><linearGradient id="linearGradient4454-600"><stop id="stop3408" offset="0" stop-color="#a1a1a1" stop-opacity=".208"/><stop id="stop3410" offset="1" stop-color="#a1a1a1" stop-opacity=".678"/></linearGradient><radialGradient id="radialGradient2776" cx="18.241" cy="21.818" r="8.309" fx="18.241" fy="21.818" gradientUnits="userSpaceOnUse" xlink:href="#linearGradient4454-600"/><linearGradient id="linearGradient4467-402"><stop id="stop3390" offset="0" stop-color="#fff" stop-opacity="1"/><stop id="stop3392" offset="1" stop-color="#fff" stop-opacity=".248"/></linearGradient><radialGradient id="radialGradient2774" cx="15.414" cy="13.078" r="6.656" fx="15.414" fy="13.078" gradientTransform="matrix(3.0710057,0,0,2.3628614,-33.010584,-21.34546)" gradientUnits="userSpaceOnUse" xlink:href="#linearGradient4467-402"/><linearGradient id="linearGradient11104-770"><stop id="stop3402" offset="0" stop-color="#333" stop-opacity="1"/><stop id="stop3404" offset="1" stop-color="#333" stop-opacity=".612"/></linearGradient><linearGradient id="linearGradient2772" x1="41.542" x2="41.485" y1="68.292" y2="4.536" gradientTransform="matrix(0.4037708,0,0,0.399774,0.5399201,2.6759154)" gradientUnits="userSpaceOnUse" xlink:href="#linearGradient11104-770"/><linearGradient id="linearGradient2300-465"><stop id="stop3396" offset="0" stop-color="#343434" stop-opacity=".976"/><stop id="stop3398" offset="1" stop-color="#929292" stop-opacity="1"/></linearGradient><linearGradient id="linearGradient2770" x1="173.096" x2="173.096" y1="75.319" y2="11.949" gradientTransform="matrix(0.4037708,0,0,0.399774,-51.833663,-0.3327449)" gradientUnits="userSpaceOnUse" xlink:href="#linearGradient2300-465"/><linearGradient id="linearGradient6209-717"><stop id="stop3366" offset="0" stop-color="#979797" stop-opacity="1"/><stop id="stop3368" offset="1" stop-color="#000" stop-opacity=".341"/></linearGradient><linearGradient id="linearGradient2768" x1="173.096" x2="173.096" y1="75.319" y2="11.949" gradientTransform="matrix(0.3845313,0,0,0.3807249,-48.396976,0.258476)" gradientUnits="userSpaceOnUse" xlink:href="#linearGradient6209-717"/></defs><metadata id="metadata3299"/><g id="layer1"><path id="path8836" fill="url(#radialGradient2759)" fill-opacity="1" fill-rule="evenodd" stroke="none" stroke-width="1" d="m 73.25,4.625 a 10.625,3.625 0 1 1 -21.25,0 10.625,3.625 0 1 1 21.25,0 z" display="inline" opacity=".3" overflow="visible" transform="matrix(2.149872,0,0,1.6619216,-110.63573,34.289147)" visibility="visible" style="marker:none"/><path id="path11112" fill="url(#linearGradient2780)" fill-opacity="1" fill-rule="evenodd" stroke="url(#linearGradient2782)" stroke-dasharray="none" stroke-linecap="round" stroke-linejoin="round" stroke-miterlimit="4" stroke-opacity="1" stroke-width="1.258" d="m 28.183928,24.771802 17.601461,16.2194 -2.439808,3.278384 -17.537714,-17.545053 2.376061,-1.952731 z" display="inline"/><path id="path11122" fill="url(#linearGradient2778)" fill-opacity="1" fill-rule="evenodd" stroke="none" d="M 43.375247,43.204937 29.259227,25.777711 46.337872,40.616736 43.375247,43.204937 z" display="inline"/><path id="path13082" fill="#3e3e3e" fill-opacity="1" stroke="none" d="m 247.90924,110.29199 a 4.86685,2.6562012 0 1 1 -9.7337,0 4.86685,2.6562012 0 1 1 9.7337,0 z" display="inline" transform="matrix(0.3701926,-0.4150383,0.4745098,0.3092893,-97.502604,109.5756)"/><path id="path4452" fill="url(#radialGradient2776)" fill-opacity="1" fill-rule="evenodd" stroke="none" stroke-width=".882" d="m 25.897786,18.478292 a 8.3085051,8.3085051 0 1 1 -16.61701,0 8.3085051,8.3085051 0 1 1 16.61701,0 z" display="inline" transform="matrix(1.4889549,0,0,1.4383688,-7.506469,-10.003202)" visibility="visible" style="marker:none"/><path id="path4462" fill="url(#radialGradient2774)" fill-opacity="1" fill-rule="evenodd" stroke="none" stroke-width="1" d="m 18.173574,6.2875092 c -6.167668,0 -11.1620724,4.4243448 -11.1620724,9.8880428 0,1.577938 0.1382919,3.207765 0.8807217,4.531967 1.4832709,0.484315 3.4184287,0.635856 5.0907577,0.635856 7.308643,0 13.594949,-5.367693 14.045982,-11.7419735 C 24.978875,7.4552716 21.59337,6.2875092 18.173574,6.2875092 z" display="inline" opacity=".834" overflow="visible" visibility="visible" style="marker:none"/><path id="path2298" fill="url(#linearGradient2770)" fill-opacity="1" stroke="url(#linearGradient2772)" stroke-dasharray="none" stroke-linecap="round" stroke-linejoin="round" stroke-miterlimit="4" stroke-opacity="1" stroke-width="1.29" d="m 18.411216,4.6414839 c -7.597567,0 -13.7660654,5.6316951 -13.7660613,12.5678951 0,6.9362 6.1684943,12.567893 13.7660613,12.567894 7.59756,0 13.766059,-5.631694 13.766059,-12.567894 0,-6.9362 -6.168495,-12.5678951 -13.766059,-12.5678951 z m 0.16403,0.824534 c 6.799869,0 12.327628,5.0356991 12.327628,11.2436431 0,6.207944 -5.527759,11.243643 -12.327628,11.243643 -6.799871,1e-6 -12.3150081,-5.035698 -12.3150081,-11.243643 0,-6.207944 5.5151371,-11.2436431 12.3150081,-11.2436431 z" display="inline"/><path id="path4267" fill="url(#linearGradient2768)" fill-opacity="1" stroke="none" d="m 18.49954,5.0037791 c -7.235544,0 -13.0973151,5.3625389 -13.0973151,11.9682339 0,6.605694 5.8617671,11.968234 13.0973151,11.968233 7.235544,0 13.109932,-5.36254 13.109932,-11.968233 0,-6.605695 -5.874392,-11.9682339 -13.109932,-11.9682339 z m 0.07571,0.4622387 c 6.799867,0 11.788366,5.0356992 11.788366,11.2436432 0,6.207944 -4.988499,10.70972 -11.788366,10.70972 -6.799872,10e-7 -11.8656244,-4.501775 -11.8656244,-10.70972 0,-6.207944 5.0657524,-11.2436432 11.8656244,-11.2436432 z" display="inline"/></g></svg>