<svg xmlns="http://www.w3.org/2000/svg" xmlns:svg="http://www.w3.org/2000/svg" xmlns:xlink="http://www.w3.org/1999/xlink" id="svg2732" width="48" height="48" version="1.1"><defs id="defs2734"><linearGradient id="linearGradient8838"><stop id="stop8840" offset="0" stop-color="#7f7f7f" stop-opacity="1"/><stop id="stop8842" offset="1" stop-color="gray" stop-opacity="0"/></linearGradient><radialGradient id="radialGradient2759" cx="62.625" cy="4.625" r="10.625" fx="62.625" fy="4.625" gradientTransform="matrix(1,0,0,0.341176,0,3.047059)" gradientUnits="userSpaceOnUse" xlink:href="#linearGradient8838"/><linearGradient id="linearGradient3277-442"><stop id="stop3378" offset="0" stop-color="#575757" stop-opacity="1"/><stop id="stop3380" offset="1" stop-color="#333" stop-opacity="1"/></linearGradient><linearGradient id="linearGradient2782" x1="32.893" x2="31.364" y1="27.988" y2="29.484" gradientTransform="matrix(1.0113456,0,0,1.0013346,-0.1475723,1.8143278)" gradientUnits="userSpaceOnUse" xlink:href="#linearGradient3277-442"/><linearGradient id="linearGradient11114-516"><stop id="stop3372" offset="0" stop-color="#242424" stop-opacity=".992"/><stop id="stop3374" offset="1" stop-color="#656565" stop-opacity="1"/></linearGradient><linearGradient id="linearGradient2780" x1="-172.653" x2="-164.718" y1="99.667" y2="91.973" gradientTransform="matrix(0.3936567,0,0,0.38976,101.37812,-4.2393119)" gradientUnits="userSpaceOnUse" xlink:href="#linearGradient11114-516"/><linearGradient id="linearGradient12093-170"><stop id="stop3384" offset="0" stop-color="#fff" stop-opacity="1"/><stop id="stop3386" offset="1" stop-color="#fff" stop-opacity="0"/></linearGradient><linearGradient id="linearGradient2778" x1="277.573" x2="201.871" y1="146.151" y2="67.35" gradientTransform="matrix(0.3936567,0,0,0.38976,-50.208746,-0.4726547)" gradientUnits="userSpaceOnUse" xlink:href="#linearGradient12093-170"/><linearGradient id="linearGradient4454-600"><stop id="stop3408" offset="0" stop-color="#a1a1a1" stop-opacity=".208"/><stop id="stop3410" offset="1" stop-color="#a1a1a1" stop-opacity=".678"/></linearGradient><radialGradient id="radialGradient2776" cx="18.241" cy="21.818" r="8.309" fx="18.241" fy="21.818" gradientUnits="userSpaceOnUse" xlink:href="#linearGradient4454-600"/><linearGradient id="linearGradient4467-402"><stop id="stop3390" offset="0" stop-color="#fff" stop-opacity="1"/><stop id="stop3392" offset="1" stop-color="#fff" stop-opacity=".248"/></linearGradient><radialGradient id="radialGradient2774" cx="15.414" cy="13.078" r="6.656" fx="15.414" fy="13.078" gradientTransform="matrix(3.0710057,0,0,2.3628614,-33.010584,-21.34546)" gradientUnits="userSpaceOnUse" xlink:href="#linearGradient4467-402"/><linearGradient id="linearGradient11104-770"><stop id="stop3402" offset="0" stop-color="#333" stop-opacity="1"/><stop id="stop3404" offset="1" stop-color="#333" stop-opacity=".612"/></linearGradient><linearGradient id="linearGradient2772" x1="41.542" x2="41.485" y1="68.292" y2="4.536" gradientTransform="matrix(0.4037708,0,0,0.399774,0.5399201,2.6759154)" gradientUnits="userSpaceOnUse" xlink:href="#linearGradient11104-770"/><linearGradient id="linearGradient2300-465"><stop id="stop3396" offset="0" stop-color="#343434" stop-opacity=".976"/><stop id="stop3398" offset="1" stop-color="#929292" stop-opacity="1"/></linearGradient><linearGradient id="linearGradient2770" x1="173.096" x2="173.096" y1="75.319" y2="11.949" gradientTransform="matrix(0.4037708,0,0,0.399774,-51.833663,-0.3327449)" gradientUnits="userSpaceOnUse" xlink:href="#linearGradient2300-465"/><linearGradient id="linearGradient6209-717"><stop id="stop3366" offset="0" stop-color="#979797" stop-opacity="1"/><stop id="stop3368" offset="1" stop-color="#000" stop-opacity=".341"/></linearGradient><linearGradient id="linearGradient2768" x1="173.096" x2="173.096" y1="75.319" y2="11.949" gradientTransform="matrix(0.3845313,0,0,0.3807249,-48.396976,0.258476)" gradientUnits="userSpaceOnUse" xlink:href="#linearGradient6209-717"/><linearGradient id="linearGradient3191-577"><stop id="stop2613" offset="0" stop-color="#dbce48" stop-opacity="1"/><stop id="stop2615" offset="1" stop-color="#c5b625" stop-opacity="1"/></linearGradient><linearGradient id="linearGradient2728" x1="5.518" x2="9.522" y1="37.372" y2="41.392" gradientTransform="matrix(0.5603647,0.02418622,0.02415646,0.5596736,-1.3918045,-1.4448192)" gradientUnits="userSpaceOnUse" xlink:href="#linearGradient3191-577"/><linearGradient id="linearGradient3290-678"><stop id="stop2607" offset="0" stop-color="#ece5a5" stop-opacity="1"/><stop id="stop2609" offset="1" stop-color="#fcfbf2" stop-opacity="1"/></linearGradient><linearGradient id="linearGradient2726" x1="9" x2="9" y1="29.057" y2="26.03" gradientTransform="matrix(0.6380091,-0.6411367,0.8596263,0.8553493,-24.599696,2.1816867)" gradientUnits="userSpaceOnUse" xlink:href="#linearGradient3290-678"/><linearGradient id="linearGradient3223-699"><stop id="stop2599" offset="0" stop-color="#b1b1b1" stop-opacity="1"/><stop id="stop2601" offset=".5" stop-color="#fff" stop-opacity="1"/><stop id="stop2603" offset="1" stop-color="#8f8f8f" stop-opacity="1"/></linearGradient><linearGradient id="linearGradient2724" x1="30.038" x2="30.038" y1="24.99" y2="30" gradientTransform="matrix(0.6380091,-0.6411367,0.8596262,0.8553492,-23.267138,0.8426001)" gradientUnits="userSpaceOnUse" xlink:href="#linearGradient3223-699"/><linearGradient id="linearGradient3240-907"><stop id="stop2616" offset="0" stop-color="#565656" stop-opacity="1"/><stop id="stop2593" offset=".5" stop-color="#9a9a9a" stop-opacity="1"/><stop id="stop2595" offset="1" stop-color="#545454" stop-opacity="1"/></linearGradient><linearGradient id="linearGradient2722" x1="30.038" x2="30.038" y1="24.99" y2="30" gradientTransform="matrix(0.6380091,-0.6411367,0.8596262,0.8553492,-23.084421,0.6589858)" gradientUnits="userSpaceOnUse" xlink:href="#linearGradient3240-907"/><linearGradient id="linearGradient3223-768"><stop id="stop2583" offset="0" stop-color="#b1b1b1" stop-opacity="1"/><stop id="stop2585" offset=".5" stop-color="#fff" stop-opacity="1"/><stop id="stop2587" offset="1" stop-color="#8f8f8f" stop-opacity="1"/></linearGradient><linearGradient id="linearGradient2720" x1="30.038" x2="30.038" y1="24.99" y2="30" gradientTransform="matrix(0.6380091,-0.6411367,0.8596262,0.8553492,-23.905148,1.4837352)" gradientUnits="userSpaceOnUse" xlink:href="#linearGradient3223-768"/><linearGradient id="linearGradient3240-686"><stop id="stop2627" offset="0" stop-color="#565656" stop-opacity="1"/><stop id="stop2629" offset=".5" stop-color="#9a9a9a" stop-opacity="1"/><stop id="stop2579" offset="1" stop-color="#545454" stop-opacity="1"/></linearGradient><linearGradient id="linearGradient2718" x1="30.038" x2="30.038" y1="24.99" y2="30" gradientTransform="matrix(0.6380091,-0.6411367,0.8596262,0.8553492,-23.72243,1.3001231)" gradientUnits="userSpaceOnUse" xlink:href="#linearGradient3240-686"/><linearGradient id="linearGradient3223-789"><stop id="stop2567" offset="0" stop-color="#b1b1b1" stop-opacity="1"/><stop id="stop2569" offset=".5" stop-color="#fff" stop-opacity="1"/><stop id="stop2571" offset="1" stop-color="#8f8f8f" stop-opacity="1"/></linearGradient><linearGradient id="linearGradient2716" x1="30.038" x2="30.038" y1="24.99" y2="30" gradientTransform="matrix(0.6380091,-0.6411367,0.8596262,0.8553492,-24.540087,2.1217894)" gradientUnits="userSpaceOnUse" xlink:href="#linearGradient3223-789"/><linearGradient id="linearGradient3240-279"><stop id="stop2559" offset="0" stop-color="#565656" stop-opacity="1"/><stop id="stop2640" offset=".5" stop-color="#9a9a9a" stop-opacity="1"/><stop id="stop2642" offset="1" stop-color="#545454" stop-opacity="1"/></linearGradient><linearGradient id="linearGradient2714" x1="30.038" x2="30.038" y1="24.99" y2="30" gradientTransform="matrix(0.6380091,-0.6411367,0.8596262,0.8553492,-24.35737,1.9381758)" gradientUnits="userSpaceOnUse" xlink:href="#linearGradient3240-279"/><linearGradient id="linearGradient3155-40"><stop id="stop2646" offset="0" stop-color="#181818" stop-opacity="1"/><stop id="stop2543" offset=".135" stop-color="#dbdbdb" stop-opacity="1"/><stop id="stop2545" offset=".202" stop-color="#a4a4a4" stop-opacity="1"/><stop id="stop2650" offset=".27" stop-color="#fff" stop-opacity="1"/><stop id="stop2652" offset=".447" stop-color="#8d8d8d" stop-opacity="1"/><stop id="stop2551" offset=".571" stop-color="#959595" stop-opacity="1"/><stop id="stop2553" offset=".72" stop-color="#cecece" stop-opacity="1"/><stop id="stop2555" offset="1" stop-color="#181818" stop-opacity="1"/></linearGradient><linearGradient id="linearGradient2712" x1="23.576" x2="23.576" y1="25.357" y2="31.211" gradientTransform="matrix(0.6565695,-0.659788,0.7345237,0.7308691,-21.951313,5.3142621)" gradientUnits="userSpaceOnUse" spreadMethod="pad" xlink:href="#linearGradient3155-40"/></defs><metadata id="metadata2737"/><g id="layer1"><path id="path8836" fill="url(#radialGradient2759)" fill-opacity="1" fill-rule="evenodd" stroke="none" stroke-width="1" d="m 73.25,4.625 a 10.625,3.625 0 1 1 -21.25,0 10.625,3.625 0 1 1 21.25,0 z" display="inline" opacity=".3" overflow="visible" transform="matrix(2.149872,0,0,1.6619216,-110.63573,34.289147)" visibility="visible" style="marker:none"/><path id="path11112" fill="url(#linearGradient2780)" fill-opacity="1" fill-rule="evenodd" stroke="url(#linearGradient2782)" stroke-dasharray="none" stroke-linecap="round" stroke-linejoin="round" stroke-miterlimit="4" stroke-opacity="1" stroke-width="1.258" d="m 28.183928,24.771802 17.601461,16.2194 -2.439808,3.278384 -17.537714,-17.545053 2.376061,-1.952731 z" display="inline"/><path id="path11122" fill="url(#linearGradient2778)" fill-opacity="1" fill-rule="evenodd" stroke="none" d="M 43.375247,43.204937 29.259227,25.777711 46.337872,40.616736 43.375247,43.204937 z" display="inline"/><path id="path13082" fill="#3e3e3e" fill-opacity="1" stroke="none" d="m 247.90924,110.29199 a 4.86685,2.6562012 0 1 1 -9.7337,0 4.86685,2.6562012 0 1 1 9.7337,0 z" display="inline" transform="matrix(0.3701926,-0.4150383,0.4745098,0.3092893,-97.502604,109.5756)"/><path id="path4452" fill="url(#radialGradient2776)" fill-opacity="1" fill-rule="evenodd" stroke="none" stroke-width=".882" d="m 25.897786,18.478292 a 8.3085051,8.3085051 0 1 1 -16.61701,0 8.3085051,8.3085051 0 1 1 16.61701,0 z" display="inline" transform="matrix(1.4889549,0,0,1.4383688,-7.506469,-10.003202)" visibility="visible" style="marker:none"/><path id="path4462" fill="url(#radialGradient2774)" fill-opacity="1" fill-rule="evenodd" stroke="none" stroke-width="1" d="m 18.173574,6.2875092 c -6.167668,0 -11.1620724,4.4243448 -11.1620724,9.8880428 0,1.577938 0.1382919,3.207765 0.8807217,4.531967 1.4832709,0.484315 3.4184287,0.635856 5.0907577,0.635856 7.308643,0 13.594949,-5.367693 14.045982,-11.7419735 C 24.978875,7.4552716 21.59337,6.2875092 18.173574,6.2875092 z" display="inline" opacity=".834" overflow="visible" visibility="visible" style="marker:none"/><path id="path2298" fill="url(#linearGradient2770)" fill-opacity="1" stroke="url(#linearGradient2772)" stroke-dasharray="none" stroke-linecap="round" stroke-linejoin="round" stroke-miterlimit="4" stroke-opacity="1" stroke-width="1.29" d="m 18.411216,4.6414839 c -7.597567,0 -13.7660654,5.6316951 -13.7660613,12.5678951 0,6.9362 6.1684943,12.567893 13.7660613,12.567894 7.59756,0 13.766059,-5.631694 13.766059,-12.567894 0,-6.9362 -6.168495,-12.5678951 -13.766059,-12.5678951 z m 0.16403,0.824534 c 6.799869,0 12.327628,5.0356991 12.327628,11.2436431 0,6.207944 -5.527759,11.243643 -12.327628,11.243643 -6.799871,1e-6 -12.3150081,-5.035698 -12.3150081,-11.243643 0,-6.207944 5.5151371,-11.2436431 12.3150081,-11.2436431 z" display="inline"/><path id="path4267" fill="url(#linearGradient2768)" fill-opacity="1" stroke="none" d="m 18.49954,5.0037791 c -7.235544,0 -13.0973151,5.3625389 -13.0973151,11.9682339 0,6.605694 5.8617671,11.968234 13.0973151,11.968233 7.235544,0 13.109932,-5.36254 13.109932,-11.968233 0,-6.605695 -5.874392,-11.9682339 -13.109932,-11.9682339 z m 0.07571,0.4622387 c 6.799867,0 11.788366,5.0356992 11.788366,11.2436432 0,6.207944 -4.988499,10.70972 -11.788366,10.70972 -6.799872,10e-7 -11.8656244,-4.501775 -11.8656244,-10.70972 0,-6.207944 5.0657524,-11.2436432 11.8656244,-11.2436432 z" display="inline"/><g id="g3872" display="inline" transform="matrix(1.2427773,0,0,1.2427773,17.392438,12.812963)"><path id="rect2383" fill="url(#linearGradient2712)" fill-opacity="1" stroke="#0c0c0c" stroke-dasharray="none" stroke-dashoffset="0" stroke-linecap="butt" stroke-linejoin="round" stroke-miterlimit="4" stroke-opacity="1" stroke-width=".402" d="m 3.9957406,16.479538 c 0.4459215,-0.334616 1.6971047,0.293067 2.8468883,1.43713 1.1470341,1.141326 1.7514206,2.362602 1.4243802,2.812888 -0.00124,0.0017 0.028135,0.02504 0.026864,0.02673 L 24.303914,4.6677597 C 24.710396,4.2592847 24.078831,2.9684536 22.892545,1.7880718 21.706263,0.60768985 20.412266,-0.01746372 20.005781,0.39101316 L 3.9957406,16.479538 z"/><path id="rect3175" fill="#ffb6ed" fill-opacity="1" stroke="#e28ccd" stroke-dasharray="none" stroke-dashoffset="0" stroke-linecap="butt" stroke-linejoin="round" stroke-miterlimit="4" stroke-opacity="1" stroke-width=".402" d="m 18.05188,2.3544945 c 0.445921,-0.3346166 1.697105,0.2930675 2.846888,1.4371298 1.147033,1.141325 1.75142,2.3626014 1.424379,2.8128865 -0.0012,0.00171 0.02814,0.025041 0.02686,0.02673 l 1.953903,-1.9634813 0.03988,-0.040071 c 0.0013,-0.00169 -0.02811,-0.025017 -0.02686,-0.02673 C 24.643966,4.1506735 24.039578,2.9293969 22.892545,1.7880718 21.742763,0.64401014 20.49158,0.01632502 20.045658,0.35094175 l -0.03988,0.0400714 -1.953901,1.96348135 z" opacity=".8"/><path id="path3208" fill="#0c0c0c" fill-opacity="1" stroke="none" d="m 3.9957406,16.479536 c 0.4459215,-0.334616 1.697105,0.293068 2.8468878,1.43713 1.1470339,1.141326 1.7514205,2.362602 1.4243801,2.812888 -0.00124,0.0017 0.028135,0.02504 0.026864,0.02673 L 19.319465,9.6766412 l 0.03988,-0.040071 c 0.0013,-0.00169 -0.02811,-0.025017 -0.02686,-0.026729 C 19.659519,9.1595523 19.055132,7.9382769 17.908099,6.7969513 16.758316,5.6528892 15.507131,5.0252053 15.06121,5.3598223 L 15.02133,5.3998923 3.9957406,16.479536 z" opacity=".6"/><path id="path3233" fill="url(#linearGradient2714)" fill-opacity="1" stroke="none" d="m 15.861791,4.5553174 c 0.44592,-0.3346171 1.697106,0.2930672 2.846888,1.4371295 1.147033,1.141325 1.751421,2.3626016 1.424379,2.8128878 -0.0012,0.00171 0.02814,0.025039 0.02686,0.026729 l 0.199378,-0.2003563 c 0.0013,-0.00169 -0.02811,-0.025017 -0.02686,-0.026729 C 20.659478,8.1546923 20.05509,6.9334154 18.908056,5.7920918 17.758274,4.6480286 16.507089,4.0203445 16.061169,4.3549614 l -0.199378,0.200356 z"/><path id="path3216" fill="url(#linearGradient2716)" fill-opacity="1" stroke="none" d="m 15.679073,4.7389302 c 0.445922,-0.334617 1.697107,0.2930672 2.846888,1.4371291 1.147035,1.1413256 1.751422,2.3626005 1.42438,2.8128864 -0.0012,0.00171 0.02813,0.025041 0.02686,0.026731 l 0.199377,-0.2003563 c 0.0013,-0.00169 -0.02811,-0.025018 -0.02686,-0.02673 C 20.476762,8.3383053 19.872374,7.1170288 18.725339,5.9757039 17.575557,4.8316417 16.324373,4.2039569 15.87845,4.538574 l -0.199377,0.2003562 z"/><path id="path3248" fill="url(#linearGradient2718)" fill-opacity="1" stroke="none" d="m 16.496731,3.9172644 c 0.445921,-0.3346173 1.697105,0.2930665 2.846888,1.4371297 1.147033,1.1413248 1.751421,2.3626003 1.42438,2.8128865 -0.0012,0.00171 0.02813,0.02504 0.02686,0.026729 l 0.199378,-0.200355 c 0.0013,-0.00169 -0.02811,-0.025017 -0.02686,-0.026729 C 21.294418,7.5166398 20.690031,6.2953633 19.542996,5.1540389 18.393214,4.009976 17.142032,3.3822918 16.696108,3.716909 l -0.199377,0.2003554 z"/><path id="path3250" fill="url(#linearGradient2720)" fill-opacity="1" stroke="none" d="m 16.314013,4.1008772 c 0.445923,-0.3346174 1.697107,0.2930668 2.846888,1.4371289 1.147035,1.1413262 1.751422,2.3626013 1.424381,2.8128873 -0.0012,0.00171 0.02814,0.02504 0.02686,0.02673 l 0.199377,-0.2003568 c 0.0013,-0.00169 -0.02811,-0.025016 -0.02686,-0.026729 C 21.111701,7.7002523 20.507314,6.478975 19.36028,5.337652 18.210499,4.1935892 16.959314,3.5659043 16.513391,3.9005218 l -0.199378,0.2003554 z"/><path id="path3256" fill="url(#linearGradient2722)" fill-opacity="1" stroke="none" d="m 17.134741,3.2761275 c 0.44592,-0.3346167 1.697104,0.2930671 2.846887,1.4371299 1.147033,1.1413247 1.751421,2.362601 1.42438,2.8128865 -0.0012,0.00171 0.02813,0.025041 0.02686,0.026731 l 0.199376,-0.200356 c 0.0013,-0.00169 -0.02811,-0.025018 -0.02686,-0.02673 0.327042,-0.450285 -0.277346,-1.6715621 -1.42438,-2.8128872 -1.14978,-1.144062 -2.400965,-1.7717462 -2.846887,-1.4371291 l -0.199377,0.200355 z"/><path id="path3258" fill="url(#linearGradient2724)" fill-opacity="1" stroke="none" d="m 16.952024,3.4597401 c 0.445919,-0.3346173 1.697105,0.2930673 2.846887,1.4371305 1.147033,1.141324 1.751422,2.3626007 1.424379,2.8128853 -0.0012,0.00171 0.02814,0.025041 0.02686,0.02673 l 0.199378,-0.2003543 c 0.0013,-0.00169 -0.02811,-0.025019 -0.02686,-0.02673 C 21.74971,7.0591151 21.145322,5.8378393 19.998289,4.6965146 18.848507,3.5524523 17.597322,2.9247675 17.151401,3.2593854 l -0.199377,0.2003547 z"/><path id="path3270" fill="url(#linearGradient2726)" fill-opacity="1" fill-rule="evenodd" stroke="url(#linearGradient2728)" stroke-dasharray="none" stroke-linecap="butt" stroke-linejoin="miter" stroke-miterlimit="4" stroke-opacity="1" stroke-width=".402" d="m 0.92763987,23.761444 7.28373453,-2.970838 0.062055,-0.06205 C 8.6004704,20.278267 7.988201,19.056896 6.841167,17.915568 5.6913841,16.771506 4.4416795,16.147291 3.9957576,16.481908 l -3.06811773,7.279536 z"/><path id="path3281" fill="#0c0c0c" fill-opacity="1" fill-rule="evenodd" stroke="#0c0c0c" stroke-dasharray="none" stroke-linecap="butt" stroke-linejoin="miter" stroke-miterlimit="4" stroke-opacity="1" stroke-width=".402" d="M 1.7587091,21.789843 0.92719297,23.753653 2.9138318,22.939219 C 2.7546056,22.748495 2.6076136,22.554776 2.4164414,22.364555 2.1963503,22.145558 1.9798704,21.967868 1.7587091,21.789843 z"/></g></g></svg>