<svg xmlns="http://www.w3.org/2000/svg" xmlns:svg="http://www.w3.org/2000/svg" xmlns:xlink="http://www.w3.org/1999/xlink" id="svg2395" width="48" height="48" version="1.1"><defs id="defs2397"><linearGradient id="linearGradient5105"><stop id="stop5107" offset="0" stop-color="#000" stop-opacity="1"/><stop id="stop5109" offset="1" stop-color="#000" stop-opacity="0"/></linearGradient><radialGradient id="radialGradient5855" cx="11.25" cy="19.031" r="8.063" fx="11.25" fy="19.031" gradientTransform="matrix(1,0,0,0.282946,0,13.64644)" gradientUnits="userSpaceOnUse" xlink:href="#linearGradient5105"/><linearGradient id="linearGradient3169" x1="25" x2="25" y1="9" y2="37" gradientUnits="userSpaceOnUse" xlink:href="#linearGradient2867-449-88-871-390-598-476-591-434-148-57-177"/><linearGradient id="linearGradient5113"><stop id="stop5115" offset="0" stop-color="#fff" stop-opacity="1"/><stop id="stop5117" offset="1" stop-color="#fff" stop-opacity="0"/></linearGradient><linearGradient id="linearGradient5862" x1="58.749" x2="105.324" y1="2.048" y2="58.048" gradientTransform="matrix(1.004639,0,0,1,-55.021331,-3.04779)" gradientUnits="userSpaceOnUse" xlink:href="#linearGradient5113"/><linearGradient id="linearGradient2867-449-88-871-390-598-476-591-434-148-57-177"><stop id="stop3750" offset="0" stop-color="#90dbec" stop-opacity="1"/><stop id="stop3752" offset=".262" stop-color="#55c1ec" stop-opacity="1"/><stop id="stop3754" offset=".705" stop-color="#3689e6" stop-opacity="1"/><stop id="stop3756" offset="1" stop-color="#2b63a0" stop-opacity="1"/></linearGradient></defs><metadata id="metadata2400"/><g id="layer1" transform="translate(1.4642454e-6,0)"><path id="path4346" fill="url(#radialGradient5855)" fill-opacity="1" fill-rule="nonzero" stroke="none" stroke-width="1" d="m 19.3125,19.03125 a 8.0625,2.28125 0 1 1 -16.125,0 8.0625,2.28125 0 1 1 16.125,0 z" color="#000" display="inline" opacity=".163" overflow="visible" transform="matrix(2.5121226,0,0,2.410961,-4.51537,-13.87225)" visibility="visible" style="marker:none"/><path id="path4972" fill="url(#linearGradient3169)" fill-opacity="1" fill-rule="nonzero" stroke="#00537d" stroke-dasharray="none" stroke-dashoffset="0" stroke-linecap="butt" stroke-linejoin="round" stroke-miterlimit="4" stroke-opacity=".498" stroke-width="1" d="M 42.5,25.52548 30.46475,39.5 18.48982,25.52548 l 6.09179,0 c 2.0473,-5.48597 -2.1567,-8.9778 -7.03107,-8.9778 -3.46376,0 -8.16323,1.90496 -9.75068,6.6414 C 6.9742,25.6526 5.51992,24.5734 5.57612,22.43234 5.79365,14.17053 11.919,7.56333 21.06314,7.56333 c 9.14414,0 15.93686,7.09859 15.42377,17.96215 l 6.01309,0 z" color="#000" display="inline" overflow="visible" visibility="visible" style="marker:none"/><path id="path4980" fill="none" stroke="url(#linearGradient5862)" stroke-dasharray="none" stroke-dashoffset="0" stroke-linecap="butt" stroke-linejoin="miter" stroke-miterlimit="4" stroke-opacity="1" stroke-width="1" d="m 40.38215,26.52548 -9.9174,11.5424 -9.85707,-11.5424 4.69895,0 C 27.78439,21 24.20791,15.62862 18,15.52859 14.10075,15.46576 12.05305,16.76164 9.3376,19 7.84959,20.22658 7.08988,22.63896 6.73938,23.51309 6.25882,23.53771 6.54136,20.83259 7,19.15015 8.67191,13.01699 13.84662,8.49937 21.18388,8.48567 c 7.33726,-0.0137 15.30137,5.0245 14.30303,18.03981 l 4.89524,0 z" color="#000" display="inline" enable-background="accumulate" opacity=".354" overflow="visible" visibility="visible" style="marker:none"/></g></svg>