<svg xmlns="http://www.w3.org/2000/svg" xmlns:svg="http://www.w3.org/2000/svg" xmlns:xlink="http://www.w3.org/1999/xlink" id="svg4031" width="48" height="48" version="1.1"><defs id="defs4033"><linearGradient id="linearGradient4011"><stop id="stop4013" offset="0" stop-color="#fff" stop-opacity="1"/><stop id="stop4015" offset=".508" stop-color="#fff" stop-opacity=".235"/><stop id="stop4017" offset=".835" stop-color="#fff" stop-opacity=".157"/><stop id="stop4019" offset="1" stop-color="#fff" stop-opacity=".392"/></linearGradient><linearGradient id="linearGradient3820-7-2-1"><stop id="stop3822-2-6-3" offset="0" stop-color="#3d3d3d" stop-opacity="1"/><stop id="stop3864-8-7-7" offset=".5" stop-color="#686868" stop-opacity=".498"/><stop id="stop3824-1-2-5" offset="1" stop-color="#686868" stop-opacity="0"/></linearGradient><linearGradient id="linearGradient3019" x1="71.204" x2="71.204" y1="6.238" y2="44.341" gradientTransform="matrix(1.054054,0,0,1.054054,-51.611001,-2.7279009)" gradientUnits="userSpaceOnUse" xlink:href="#linearGradient4011"/><radialGradient id="radialGradient3025" cx="99.157" cy="186.171" r="62.769" fx="99.157" fy="186.171" gradientTransform="matrix(0.27083381,0,0,0.08762273,-2.855072,25.187228)" gradientUnits="userSpaceOnUse" xlink:href="#linearGradient3820-7-2-1"/><linearGradient id="linearGradient11527-6-5" x1="2035.165" x2="2035.165" y1="3208.074" y2="3241.997" gradientTransform="matrix(1.5712555,0,0,1.1746645,-3179.5055,-3763.7759)" gradientUnits="userSpaceOnUse" xlink:href="#linearGradient947"/><linearGradient id="linearGradient947"><stop id="stop943" offset="0" stop-color="#64baff" stop-opacity="1"/><stop id="stop945" offset="1" stop-color="#3689e6" stop-opacity="1"/></linearGradient></defs><metadata id="metadata4036"/><path id="path3818-0-5" fill="url(#radialGradient3025)" fill-opacity="1" stroke="none" d="m 40.999999,41.499999 a 17,5.4999999 0 1 1 -33.999999,0 17,5.4999999 0 1 1 33.999999,0 z"/><path id="path2555-7-8-5-0-9" fill="url(#linearGradient11527-6-5)" fill-opacity="1" fill-rule="nonzero" stroke="none" stroke-width="1" d="m 24.000001,3.499999 c -11.311198,0 -20.5000012,9.188802 -20.5000012,20.499999 0,11.311198 9.1888032,20.500001 20.5000012,20.500001 11.311196,0 20.500018,-9.188803 20.499999,-20.500001 C 44.5,12.688801 35.311197,3.499999 24.000001,3.499999 Z" color="#000" display="inline" enable-background="accumulate" opacity=".99" overflow="visible" visibility="visible" style="marker:none"/><path id="path8655" fill="none" stroke="url(#linearGradient3019)" stroke-dasharray="none" stroke-dashoffset="0" stroke-linecap="round" stroke-linejoin="round" stroke-miterlimit="4" stroke-opacity="1" stroke-width="1" d="m 43.5,23.999308 c 0,10.7699 -8.73109,19.50069 -19.499753,19.50069 -10.769649,0 -19.5002474,-8.730889 -19.5002474,-19.50069 0,-10.769402 8.7305984,-19.4993078 19.5002474,-19.4993078 C 34.76891,4.5000002 43.5,13.229906 43.5,23.999308 l 0,0 z" color="#000" display="inline" enable-background="accumulate" opacity=".5" overflow="visible" visibility="visible" style="marker:none"/><path clip-rule="nonzero" style="marker:none;isolation:auto;mix-blend-mode:normal;solid-color:#000;solid-opacity:1;filter-blend-mode:normal;filter-gaussianBlur-deviation:0" id="path2555-6" fill="none" fill-opacity="1" fill-rule="nonzero" stroke="#002e99" stroke-dasharray="none" stroke-dashoffset="0" stroke-linecap="round" stroke-linejoin="round" stroke-miterlimit="4" stroke-opacity="1" stroke-width="1" d="m 24.000003,3.499998 c -11.311193,0 -20.5000034,9.188806 -20.5000034,20.5 0,11.311194 9.1888104,20.500005 20.5000034,20.500002 11.311188,0 20.500008,-9.188808 20.499997,-20.500002 0,-11.311194 -9.188809,-20.5 -20.499997,-20.5 z" color="#000" color-interpolation="sRGB" color-interpolation-filters="linearRGB" color-rendering="auto" display="inline" enable-background="accumulate" image-rendering="auto" opacity=".5" overflow="visible" shape-rendering="auto" text-rendering="auto" visibility="visible"/><path color-interpolation="sRGB" style="isolation:auto;mix-blend-mode:normal;solid-color:#000;solid-opacity:1;marker:none" id="path3078" fill="#002e99" fill-opacity="1" fill-rule="nonzero" stroke="none" stroke-dasharray="none" stroke-dashoffset="0" stroke-linecap="butt" stroke-linejoin="miter" stroke-miterlimit="4" stroke-opacity="1" stroke-width="1" d="m 22.6875,11.062438 c -3.092424,0.29622 -6.192657,1.598535 -7.34375,4.28125 -0.448317,1.001963 -0.464177,2.176923 -0.03125,3.25 0.432927,1.073077 1.522614,2.0625 2.96875,2.0625 1.663298,0 2.758707,-1.250813 2.90625,-2.40625 0.112515,-0.881129 -0.206701,-1.545807 -0.3125,-1.90625 0.07722,0.263092 0.0098,0.04465 0.15625,-0.1875 0.146435,-0.232152 0.396615,-0.466516 0.5625,-0.5625 0.423116,-0.244825 0.840037,-0.360295 1.03125,-0.40625 1.645148,-0.395372 3.402537,0.5858 4.03125,1.5625 0.227685,0.353707 0.284001,0.869079 0.03125,1.65625 -0.252751,0.787171 -0.802134,1.753523 -1.46875,2.71875 -1.402694,2.03103 -3.100745,4.462369 -3.09375,7.3125 0,0.885145 -0.05528,1.19708 0.03125,1.75 0.04674,0.298751 0.205054,0.544349 0.375,0.6875 0.169946,0.143151 0.334711,0.205147 0.46875,0.25 0.268079,0.08971 0.490821,0.117483 0.71875,0.125 0.455858,0.01503 0.934427,-0.04351 1.375,-0.125 a 0.99460951,0.99460951 0 0 0 0.8125,-1 c -0.06145,-2.193495 0.349485,-4.000232 2.28125,-5.40625 a 0.99460951,0.99460951 0 0 0 0.03125,-0.03125 c 1.214408,-0.94639 2.424353,-2.013797 3.34375,-3.28125 0.907505,-1.25106 1.530903,-2.749018 1.40625,-4.375 -4.19e-4,-0.02089 7.12e-4,-0.04169 0,-0.0625 l -0.03125,0 c -0.05994,-1.651285 -1.020612,-3.045671 -2.34375,-4.03125 -1.334681,-0.994176 -3.04095,-1.645343 -4.84375,-1.8125 -0.01016,-0.0014 -0.02108,0.0014 -0.03125,0 -0.987081,-0.134407 -2.005006,-0.160803 -3.03125,-0.0625 z m 1.25,21.28125 c -1.372344,-0.04952 -2.566448,0.698819 -3.1875,1.71875 -0.614569,1.009283 -0.634336,2.403603 0.1875,3.46875 l -0.03125,0.03125 c 0.01392,0.02069 0.04821,0.01104 0.0625,0.03125 0.004,0.0057 -0.004,0.02562 0,0.03125 0.814464,1.135583 2.207471,1.509189 3.4375,1.34375 1.23585,-0.166222 2.486928,-0.909119 2.90625,-2.25 0.0027,-0.0088 -0.0027,-0.02243 0,-0.03125 0.0046,-0.01521 0.02686,-0.01588 0.03125,-0.03125 l -0.03125,0 c 0.755006,-2.114176 -1.032787,-4.303926 -3.3125,-4.3125 -0.02121,-8e-5 -0.04121,-3.01e-4 -0.0625,0 z" clip-rule="nonzero" color="#000" color-interpolation-filters="linearRGB" color-rendering="auto" display="inline" enable-background="accumulate" font-family="Standard Symbols L" font-size="72" font-style="normal" font-weight="bold" image-rendering="auto" opacity=".05" overflow="visible" shape-rendering="auto" text-rendering="auto" visibility="visible"/><path color-interpolation="sRGB" style="isolation:auto;mix-blend-mode:normal;solid-color:#000;solid-opacity:1;marker:none" id="path3298-2" fill="#002e99" fill-opacity="1" fill-rule="nonzero" stroke="none" stroke-dasharray="none" stroke-dashoffset="0" stroke-linecap="butt" stroke-linejoin="miter" stroke-miterlimit="4" stroke-opacity="1" stroke-width="1" d="m 24.910438,30.163486 c -0.06608,-2.358762 0.462374,-4.648617 2.690869,-6.270608 2.35386,-1.834368 4.620815,-4.129412 4.381246,-6.83475 -0.05231,-2.609055 -3.092241,-4.653533 -6.367546,-4.947493 -3.684186,-0.510386 -8.142028,0.751736 -9.376574,3.628942 -0.626134,1.399375 -0.0455,3.910017 2.055795,3.910017 1.229052,0 1.793562,-0.793934 1.886302,-1.520198 0.07017,-0.549514 -0.155434,-1.040224 -0.288666,-1.494127 -0.15181,-0.517192 0.496254,-1.519566 1.202084,-1.927971 0.589802,-0.341274 1.206886,-0.455708 1.297847,-0.477569 2.118145,-0.509045 4.22963,0.615366 5.110579,1.983913 0.88095,1.368546 -0.08871,3.444365 -1.482855,5.463019 -1.394147,2.018654 -2.890315,4.311433 -2.884338,6.74674 0,0.927123 -0.08261,1.242088 -0.02391,1.617179 0.04689,0.299687 1.039226,0.263471 1.799169,0.122906 z m -0.966655,3.174767 c -2.025281,-0.109945 -3.427057,2.185998 -2.210368,3.648826 1.086561,1.615107 4.133026,1.216405 4.655189,-0.612542 0.542861,-1.422241 -0.763542,-3.060025 -2.44482,-3.036285 l -1e-6,1e-6 z" clip-rule="nonzero" color="#000" color-interpolation-filters="linearRGB" color-rendering="auto" display="inline" enable-background="accumulate" font-family="Standard Symbols L" font-size="72" font-style="normal" font-weight="bold" image-rendering="auto" opacity=".15" overflow="visible" shape-rendering="auto" text-rendering="auto" visibility="visible"/><path id="path3298" fill="#fff" fill-opacity="1" stroke="none" d="m 24.910438,29.163486 c -0.06608,-2.358762 0.462374,-4.648617 2.690869,-6.270608 2.35386,-1.834368 4.620815,-4.129412 4.381246,-6.83475 -0.05231,-2.609055 -3.092241,-4.653533 -6.367546,-4.947493 -3.684186,-0.510386 -8.142028,0.751736 -9.376574,3.628942 -0.626134,1.399375 -0.0455,3.910017 2.055795,3.910017 1.229052,0 1.793562,-0.793934 1.886302,-1.520198 0.07017,-0.549514 -0.155434,-1.040224 -0.288666,-1.494127 -0.15181,-0.517192 0.496254,-1.519566 1.202084,-1.927971 0.589802,-0.341274 1.206886,-0.455708 1.297847,-0.477569 2.118145,-0.509045 4.22963,0.615366 5.110579,1.983913 0.88095,1.368546 -0.08871,3.444365 -1.482855,5.463019 -1.394147,2.018654 -2.890315,4.311433 -2.884338,6.74674 0,0.927123 -0.08261,1.242088 -0.02391,1.617179 0.04689,0.299687 1.039226,0.263471 1.799169,0.122906 z m -0.966655,3.174767 c -2.025281,-0.109945 -3.427057,2.185998 -2.210368,3.648826 1.086561,1.615107 4.133026,1.216405 4.655189,-0.612542 0.542861,-1.422241 -0.763542,-3.060025 -2.44482,-3.036285 l -1e-6,1e-6 z" font-family="Standard Symbols L" font-size="72" font-style="normal" font-weight="bold"/></svg>