<svg xmlns="http://www.w3.org/2000/svg" xmlns:svg="http://www.w3.org/2000/svg" xmlns:xlink="http://www.w3.org/1999/xlink" id="svg4279" width="48" height="48" version="1.1"><defs id="defs4281"><linearGradient id="linearGradient854"><stop id="stop850" offset="0" stop-color="#cd9ef7" stop-opacity="1"/><stop id="stop852" offset="1" stop-color="#a56de2" stop-opacity="1"/></linearGradient><linearGradient id="linearGradient3221" x1="71.204" x2="71.204" y1="15.369" y2="40.496" gradientTransform="matrix(1.5920714,0,0,1.5920721,-90.909525,-20.366112)" gradientUnits="userSpaceOnUse" xlink:href="#linearGradient4806-9"/><linearGradient id="linearGradient4806-9"><stop id="stop4808-49" offset="0" stop-color="#fff" stop-opacity="1"/><stop id="stop4810-05" offset=".424" stop-color="#fff" stop-opacity=".235"/><stop id="stop4812-6" offset=".821" stop-color="#fff" stop-opacity=".157"/><stop id="stop4814-7" offset="1" stop-color="#fff" stop-opacity=".392"/></linearGradient><linearGradient id="linearGradient3820-7-2-2"><stop id="stop3822-2-6-36" offset="0" stop-color="#3d3d3d" stop-opacity="1"/><stop id="stop3864-8-7-6" offset=".5" stop-color="#686868" stop-opacity=".498"/><stop id="stop3824-1-2-4" offset="1" stop-color="#686868" stop-opacity="0"/></linearGradient><radialGradient id="radialGradient4277" cx="99.157" cy="186.171" r="62.769" fx="99.157" fy="186.171" gradientTransform="matrix(0.23897101,0,0,0.07603625,0.30434835,28.071012)" gradientUnits="userSpaceOnUse" xlink:href="#linearGradient3820-7-2-2"/><radialGradient id="radialGradient3343" cx="65.598" cy="48.745" r="31" fx="65.598" fy="48.745" gradientTransform="matrix(0,0.95936489,-1.0436697,0,87.757589,-35.865792)" gradientUnits="userSpaceOnUse" xlink:href="#linearGradient3242-7-3-8-0-4-58-06"/><linearGradient id="linearGradient3242-7-3-8-0-4-58-06"><stop id="stop3244-5-8-5-6-4-3-8" offset="0" stop-color="#cdf87e" stop-opacity="1"/><stop id="stop3246-9-5-1-5-3-0-7" offset=".262" stop-color="#a2e34f" stop-opacity="1"/><stop id="stop3248-7-2-0-7-5-35-9" offset=".661" stop-color="#68b723" stop-opacity="1"/><stop id="stop3250-8-2-8-5-6-40-4" offset="1" stop-color="#1d7e0d" stop-opacity="1"/></linearGradient><linearGradient id="linearGradient3030-44" x1="24.139" x2="24.139" y1="9.712" y2="36.594" gradientTransform="matrix(0.70448868,0,0,0.59520312,21.241407,23.219131)" gradientUnits="userSpaceOnUse" xlink:href="#linearGradient4154"/><linearGradient id="linearGradient4154"><stop id="stop4156" offset="0" stop-color="#fff" stop-opacity="1"/><stop id="stop4158" offset="0" stop-color="#fff" stop-opacity=".235"/><stop id="stop4160" offset="1" stop-color="#fff" stop-opacity=".157"/><stop id="stop4162" offset="1" stop-color="#fff" stop-opacity=".392"/></linearGradient><linearGradient id="linearGradient3030-1" x1="24.139" x2="24.139" y1="20.271" y2="26.006" gradientTransform="matrix(0.60015241,0,0,0.69748032,23.556108,20.861165)" gradientUnits="userSpaceOnUse" xlink:href="#linearGradient4154"/><linearGradient id="linearGradient856" x1="3" x2="45" y1="24" y2="24" gradientTransform="rotate(90,23.999999,24.000001)" gradientUnits="userSpaceOnUse" xlink:href="#linearGradient854"/></defs><metadata id="metadata4284"/><path id="path3818-0-2" fill="url(#radialGradient4277)" fill-opacity="1" stroke="none" d="m 39,42.226722 a 15,4.7727271 0 1 1 -29.9999998,0 15,4.7727271 0 1 1 29.9999998,0 z"/><path d="M 44.499998,24.000001 C 44.499998,12.688809 35.311192,3.500002 23.999999,3.500002 12.688808,3.500002 3.499998,12.688809 3.5,24.000001 3.5,35.311192 12.688808,44.500008 23.999999,44.5 35.311192,44.5 44.499998,35.311192 44.499998,24.000001 Z" style="marker:none" id="path2555-7-65-3" fill="url(#linearGradient856)" fill-opacity="1" fill-rule="nonzero" stroke="#7239b3" stroke-opacity=".498" stroke-width="1" color="#000" display="inline" enable-background="accumulate" overflow="visible" visibility="visible"/><path id="path3421" fill="none" stroke="url(#linearGradient3221)" stroke-dasharray="none" stroke-dashoffset="0" stroke-linecap="round" stroke-linejoin="round" stroke-miterlimit="4" stroke-opacity="1" stroke-width="1" d="m 43.499999,23.999999 c 0,10.769554 -8.730468,19.5 -19.5,19.5 -10.769532,0 -19.4999991,-8.730446 -19.4999991,-19.5 C 4.4999999,13.230449 13.230467,4.5 23.999999,4.5 c 10.769532,0 19.5,8.730449 19.5,19.499999 z" color="#000" display="inline" enable-background="accumulate" opacity=".5" overflow="visible" visibility="visible" style="marker:none"/><g id="g4429"><path id="path2262" fill="url(#radialGradient3343)" fill-opacity="1" fill-rule="nonzero" stroke="none" stroke-dasharray="none" stroke-dashoffset="0" stroke-linecap="round" stroke-linejoin="round" stroke-miterlimit="4" stroke-opacity="1" stroke-width=".985" d="m 33.500001,33.5 0,-6.02737 7,0 0,6.02737 6.007286,0 0,7 -6.007286,0 0,6.007286 -7,0 0,-6.007286 -6.007287,0 0,-7 6.007287,0 z" color="#000" display="inline" enable-background="accumulate" overflow="visible" visibility="visible" style="marker:none"/><path id="path2272-4" fill="none" stroke="url(#linearGradient3030-44)" stroke-dasharray="none" stroke-linecap="butt" stroke-linejoin="miter" stroke-miterlimit="4" stroke-opacity="1" stroke-width="1" d="m 34.500001,35.459225 0,-6.959225 5,0 0,6.949866 m 0,3.095588 0,6.954546 -5,0 0,-6.954546" display="inline" opacity=".5"/><path id="path2272-2" fill="none" stroke="url(#linearGradient3030-1)" stroke-dasharray="none" stroke-linecap="butt" stroke-linejoin="miter" stroke-miterlimit="4" stroke-opacity="1" stroke-width="1" d="m 40,34.519929 5.499798,-0.01811 0,4.980302 L 40,39.500231 m -6,0 -5.500203,-0.01811 0,-4.980302 L 34,34.519929" display="inline" opacity=".5"/><path clip-rule="nonzero" style="isolation:auto;mix-blend-mode:normal;solid-color:#000;solid-opacity:1;marker:none" id="path2262-2" fill="none" fill-opacity="1" fill-rule="nonzero" stroke="#0f5a00" stroke-dasharray="none" stroke-dashoffset="0" stroke-linecap="round" stroke-linejoin="round" stroke-miterlimit="4" stroke-opacity="1" stroke-width="1" d="m 33.500001,33.5 0,-6.02737 7,0 0,6.02737 6.007286,0 0,7 -6.007286,0 0,6.007286 -7,0 0,-6.007286 -6.007287,0 0,-7 6.007287,0 z" color="#000" color-interpolation="sRGB" color-interpolation-filters="linearRGB" color-rendering="auto" display="inline" enable-background="accumulate" image-rendering="auto" opacity=".5" overflow="visible" shape-rendering="auto" text-rendering="auto" visibility="visible"/></g></svg>