<svg xmlns="http://www.w3.org/2000/svg" xmlns:svg="http://www.w3.org/2000/svg" xmlns:xlink="http://www.w3.org/1999/xlink" id="svg3047" width="48" height="48" version="1.1"><defs id="defs3049"><linearGradient id="linearGradient3403" x1="71.204" x2="71.204" y1="6.238" y2="44.341" gradientTransform="translate(-47.733515,-0.3572398)" gradientUnits="userSpaceOnUse"><stop id="stop4013" offset="0" stop-color="#fff" stop-opacity="1"/><stop id="stop4015" offset=".508" stop-color="#fff" stop-opacity=".235"/><stop id="stop4017" offset=".835" stop-color="#fff" stop-opacity=".157"/><stop id="stop4019" offset="1" stop-color="#fff" stop-opacity=".392"/></linearGradient><radialGradient id="radialGradient3045" cx="62.625" cy="4.625" r="10.625" gradientTransform="matrix(2.1647059,0,0,0.7529402,-111.56471,36.517647)" gradientUnits="userSpaceOnUse"><stop id="stop8840" offset="0" stop-color="#000" stop-opacity="1"/><stop id="stop8842" offset="1" stop-color="#000" stop-opacity="0"/></radialGradient><linearGradient id="linearGradient3081" x1="71.204" x2="71.204" y1="6.238" y2="44.341" gradientTransform="matrix(0.45945944,0,0,-0.45945944,-8.9590483,36.651293)" gradientUnits="userSpaceOnUse"><stop id="stop4013-2" offset="0" stop-color="#fff" stop-opacity="1"/><stop id="stop4015-4" offset=".508" stop-color="#fff" stop-opacity=".235"/><stop id="stop4017-9" offset=".835" stop-color="#fff" stop-opacity=".157"/><stop id="stop4019-0" offset="1" stop-color="#fff" stop-opacity=".392"/></linearGradient><radialGradient id="radialGradient3084" cx="23.896" cy="3.99" r="20.397" gradientTransform="matrix(0,0.87965498,-1.161129,0,28.632502,-4.0838548)" gradientUnits="userSpaceOnUse"><stop id="stop3244-4" offset="0" stop-color="#f8b17e" stop-opacity="1"/><stop id="stop3246-5" offset=".262" stop-color="#e35d4f" stop-opacity="1"/><stop id="stop3248-0" offset=".661" stop-color="#c6262e" stop-opacity="1"/><stop id="stop3250-3" offset="1" stop-color="#690b54" stop-opacity="1"/></radialGradient><linearGradient id="linearGradient3086" x1="7.078" x2="7.078" y1="3.082" y2="45.369" gradientTransform="matrix(0.36857196,0,0,0.36857202,15.153867,16.154407)" gradientUnits="userSpaceOnUse"><stop id="stop2492-0" offset="0" stop-color="#791235" stop-opacity="1"/><stop id="stop2494-6" offset="1" stop-color="#c7321f" stop-opacity="1"/></linearGradient><linearGradient id="linearGradient3089" x1="71.204" x2="71.204" y1="6.238" y2="44.341" gradientTransform="matrix(0.35135131,0,0,0.35135131,-1.204072,16.091108)" gradientUnits="userSpaceOnUse"><stop id="stop4013-3" offset="0" stop-color="#fff" stop-opacity="1"/><stop id="stop4015-6" offset=".508" stop-color="#fff" stop-opacity=".235"/><stop id="stop4017-1" offset=".835" stop-color="#fff" stop-opacity=".157"/><stop id="stop4019-2" offset="1" stop-color="#fff" stop-opacity=".392"/></linearGradient><radialGradient id="radialGradient3092" cx="23.896" cy="3.99" r="20.397" gradientTransform="matrix(0,2.2874387,-3.0193786,0,36.046923,-50.628782)" gradientUnits="userSpaceOnUse"><stop id="stop3244-3" offset="0" stop-color="#fff" stop-opacity="1"/><stop id="stop3246-1" offset=".262" stop-color="#ddd" stop-opacity="1"/><stop id="stop3248-9" offset=".661" stop-color="#abacae" stop-opacity="1"/><stop id="stop3250-4" offset="1" stop-color="#89898b" stop-opacity="1"/></radialGradient><linearGradient id="linearGradient3094" x1="18.379" x2="18.379" y1="44.98" y2="3.082" gradientTransform="matrix(0.95842778,0,0,0.95842792,0.99732406,1.9984282)" gradientUnits="userSpaceOnUse"><stop id="stop2492-8" offset="0" stop-color="#505050" stop-opacity="1"/><stop id="stop2494-4" offset="1" stop-color="#aaa" stop-opacity="1"/></linearGradient><linearGradient id="linearGradient3990"><stop id="stop3992" offset="0" stop-color="#fff" stop-opacity="1"/><stop id="stop3994" offset="1" stop-color="#fff" stop-opacity="0"/></linearGradient><linearGradient id="linearGradient3101" x1="68.313" x2="68.313" y1="52.925" y2="65.922" gradientUnits="userSpaceOnUse" xlink:href="#linearGradient3990"/><linearGradient id="linearGradient3028" x1="71.204" x2="71.204" y1="6.238" y2="44.341" gradientTransform="translate(-47.733515,-0.3572398)" gradientUnits="userSpaceOnUse" xlink:href="#linearGradient3403"/><linearGradient id="linearGradient3031" x1="71.204" x2="71.204" y1="6.238" y2="44.341" gradientTransform="matrix(0.35135131,0,0,0.35135131,-1.204072,16.091108)" gradientUnits="userSpaceOnUse" xlink:href="#linearGradient3089"/><linearGradient id="linearGradient3034" x1="71.204" x2="71.204" y1="6.238" y2="44.341" gradientTransform="matrix(0.45945944,0,0,-0.45945944,-8.9590483,36.651293)" gradientUnits="userSpaceOnUse" xlink:href="#linearGradient3081"/><radialGradient id="radialGradient3037" cx="23.896" cy="3.99" r="20.397" gradientTransform="matrix(0,0.87965498,-1.161129,0,28.632502,-4.0838548)" gradientUnits="userSpaceOnUse" xlink:href="#radialGradient3084"/><linearGradient id="linearGradient3039" x1="7.078" x2="7.078" y1="3.082" y2="45.369" gradientTransform="matrix(0.36857196,0,0,0.36857202,15.153867,16.154407)" gradientUnits="userSpaceOnUse" xlink:href="#linearGradient3086"/><radialGradient id="radialGradient3042" cx="23.896" cy="3.99" r="20.397" gradientTransform="matrix(0,2.2874387,-3.0193786,0,36.046923,-50.628782)" gradientUnits="userSpaceOnUse" xlink:href="#radialGradient3092"/><linearGradient id="linearGradient3044" x1="18.379" x2="18.379" y1="44.98" y2="3.082" gradientTransform="matrix(0.95842778,0,0,0.95842792,0.99732406,1.9984282)" gradientUnits="userSpaceOnUse" xlink:href="#linearGradient3094"/><radialGradient id="radialGradient3047" cx="62.625" cy="4.625" r="10.625" gradientTransform="matrix(2.1647059,0,0,0.7529402,-111.56471,36.517647)" gradientUnits="userSpaceOnUse" xlink:href="#radialGradient3045"/></defs><metadata id="metadata3052"/><path id="path8836" fill="url(#radialGradient3047)" fill-rule="evenodd" d="m 47,40 c 0,4.4183 -10.297,8 -23,8 -12.703,0 -23,-3.5817 -23,-8 0,-4.4183 10.297,-8 23,-8 12.703,0 23,3.5817 23,8 z" opacity=".3"/><path id="path2555-1" fill="url(#radialGradient3042)" stroke="url(#linearGradient3044)" stroke-dasharray="none" stroke-dashoffset="0" stroke-linecap="round" stroke-linejoin="round" stroke-miterlimit="4" stroke-width="1.004" d="m 24,5.5026 c -10.758,0 -19.498,8.7396 -19.498,19.498 0,10.7584 8.7396,19.498 19.498,19.498 10.7584,0 19.498,-8.7396 19.498,-19.498 C 43.498,14.2422 34.7584,5.5026 24,5.5026 z"/><path id="path2555-3" fill="url(#radialGradient3037)" stroke="url(#linearGradient3039)" stroke-dasharray="none" stroke-dashoffset="0" stroke-linecap="round" stroke-linejoin="round" stroke-miterlimit="4" stroke-width="1.004" d="m 24,17.502 c -4.1372,0 -7.4982,3.361 -7.4982,7.4982 0,4.1372 3.361,7.4982 7.4982,7.4982 4.1372,0 7.4982,-3.361 7.4982,-7.4982 0,-4.1372 -3.361,-7.4982 -7.4982,-7.4982 z"/><path id="path8655-6-1" fill="none" stroke="url(#linearGradient3034)" stroke-dasharray="none" stroke-dashoffset="0" stroke-linecap="round" stroke-linejoin="round" stroke-miterlimit="4" stroke-width="1" d="m 32.5,25.001 c 0,-4.6946 -3.8059,-8.5003 -8.4999,-8.5003 -4.6945,0 -8.5001,3.8058 -8.5001,8.5003 0,4.6944 3.8056,8.4997 8.5001,8.4997 4.6941,0 8.4999,-3.8054 8.4999,-8.4997 z" color="#000" enable-background="accumulate" opacity=".5"/><path id="path8655-6" fill="none" stroke="url(#linearGradient3031)" stroke-dasharray="none" stroke-dashoffset="0" stroke-linecap="round" stroke-linejoin="round" stroke-miterlimit="4" stroke-width="1" d="m 30.5,25 c 0,3.5896 -2.9104,6.5 -6.5,6.5 -3.5898,0 -6.5,-2.9104 -6.5,-6.5 0,-3.59 2.9102,-6.5 6.5,-6.5 3.5896,0 6.5,2.91 6.5,6.5 z" color="#000" enable-background="accumulate" opacity=".5"/><path id="path8655" fill="none" stroke="url(#linearGradient3028)" stroke-dasharray="none" stroke-dashoffset="0" stroke-linecap="round" stroke-linejoin="round" stroke-miterlimit="4" stroke-width="1" d="M 42.5,24.999 C 42.5,35.217 34.217,43.5 24,43.5 13.783,43.5 5.5,35.217 5.5,24.999 5.5,14.782 13.7829,6.5 24,6.5 c 10.216,0 18.5,8.2822 18.5,18.499 z" color="#000" enable-background="accumulate" opacity=".8"/><path display="inline" style="marker:none" id="path3220" fill="url(#linearGradient3101)" fill-opacity="1" stroke="none" stroke-width="1" d="m 78.338799,64.349724 a 11.424408,11.424408 0 1 1 -22.848816,0 11.424408,11.424408 0 1 1 22.848816,0 z" color="#000" enable-background="accumulate" opacity=".4" overflow="visible" transform="matrix(0.35012755,0,0,0.35012755,0.57142834,0.46938889)" visibility="visible"/></svg>