<svg xmlns="http://www.w3.org/2000/svg" xmlns:svg="http://www.w3.org/2000/svg" xmlns:xlink="http://www.w3.org/1999/xlink" id="svg4031" width="48" height="48" version="1.1"><defs id="defs4033"><linearGradient id="linearGradient4011"><stop id="stop4013" offset="0" stop-color="#fff" stop-opacity="1"/><stop id="stop4015" offset=".508" stop-color="#fff" stop-opacity=".235"/><stop id="stop4017" offset=".835" stop-color="#fff" stop-opacity=".157"/><stop id="stop4019" offset="1" stop-color="#fff" stop-opacity=".392"/></linearGradient><linearGradient id="linearGradient3820-7-2-1"><stop id="stop3822-2-6-3" offset="0" stop-color="#3d3d3d" stop-opacity="1"/><stop id="stop3864-8-7-7" offset=".5" stop-color="#686868" stop-opacity=".498"/><stop id="stop3824-1-2-5" offset="1" stop-color="#686868" stop-opacity="0"/></linearGradient><linearGradient id="linearGradient3019" x1="71.204" x2="71.204" y1="6.238" y2="44.341" gradientTransform="matrix(1.054054,0,0,1.054054,-51.611001,-2.7279009)" gradientUnits="userSpaceOnUse" xlink:href="#linearGradient4011"/><radialGradient id="radialGradient3025" cx="99.157" cy="186.171" r="62.769" fx="99.157" fy="186.171" gradientTransform="matrix(0.27083381,0,0,0.08762273,-2.855072,25.187228)" gradientUnits="userSpaceOnUse" xlink:href="#linearGradient3820-7-2-1"/><linearGradient id="linearGradient11527-6-5" x1="2035.165" x2="2035.165" y1="3208.074" y2="3241.997" gradientTransform="matrix(1.5712555,0,0,1.1746645,-3179.5055,-3763.7759)" gradientUnits="userSpaceOnUse" xlink:href="#linearGradient947"/><linearGradient id="linearGradient947"><stop id="stop943" offset="0" stop-color="#ed5353" stop-opacity="1"/><stop id="stop945" offset="1" stop-color="#c6262e" stop-opacity="1"/></linearGradient></defs><metadata id="metadata4036"/><path id="path3818-0-5" fill="url(#radialGradient3025)" fill-opacity="1" stroke="none" d="m 40.999999,41.499999 a 17,5.4999999 0 1 1 -33.999999,0 17,5.4999999 0 1 1 33.999999,0 z"/><path id="path2555-7-8-5-0-9" fill="url(#linearGradient11527-6-5)" fill-opacity="1" fill-rule="nonzero" stroke="none" stroke-width="1" d="m 24,3.499999 c -11.311197,0 -20.5000003,9.188802 -20.5000003,20.5 0,11.311197 9.1888033,20.5 20.5000003,20.5 11.311197,0 20.500019,-9.188803 20.5,-20.5 0,-11.311198 -9.188803,-20.5 -20.5,-20.5 z" color="#000" display="inline" enable-background="accumulate" opacity=".99" overflow="visible" visibility="visible" style="marker:none"/><path id="path8655" fill="none" stroke="url(#linearGradient3019)" stroke-dasharray="none" stroke-dashoffset="0" stroke-linecap="round" stroke-linejoin="round" stroke-miterlimit="4" stroke-opacity="1" stroke-width="1" d="m 43.5,23.999308 c 0,10.7699 -8.73109,19.50069 -19.499753,19.50069 -10.769649,0 -19.5002474,-8.730889 -19.5002474,-19.50069 0,-10.769402 8.7305984,-19.4993078 19.5002474,-19.4993078 C 34.76891,4.5000002 43.5,13.229906 43.5,23.999308 l 0,0 z" color="#000" display="inline" enable-background="accumulate" opacity=".4" overflow="visible" visibility="visible" style="marker:none"/><path clip-rule="nonzero" style="marker:none;isolation:auto;mix-blend-mode:normal;solid-color:#000;solid-opacity:1;filter-blend-mode:normal;filter-gaussianBlur-deviation:0" id="path2555-6" fill="none" fill-opacity="1" fill-rule="nonzero" stroke="#7a0000" stroke-dasharray="none" stroke-dashoffset="0" stroke-linecap="round" stroke-linejoin="round" stroke-miterlimit="4" stroke-opacity="1" stroke-width="1" d="m 24.000003,3.499998 c -11.311193,0 -20.5000034,9.188806 -20.5000034,20.5 0,11.311194 9.1888104,20.500005 20.5000034,20.500002 11.311188,0 20.500008,-9.188808 20.499997,-20.500002 0,-11.311194 -9.188809,-20.5 -20.499997,-20.5 z" color="#000" color-interpolation="sRGB" color-interpolation-filters="linearRGB" color-rendering="auto" display="inline" enable-background="accumulate" image-rendering="auto" opacity=".5" overflow="visible" shape-rendering="auto" text-rendering="auto" visibility="visible"/><path id="rect968-5-6" fill="#7a0000" fill-opacity="1" stroke="none" stroke-dasharray="none" stroke-dashoffset="0" stroke-linecap="butt" stroke-linejoin="miter" stroke-miterlimit="4" stroke-opacity="1" stroke-width=".842" d="m 17.366937,15.499999 c -0.73776,0 -1.476751,0.291645 -2.031766,0.846292 -1.11356,1.112844 -1.113561,2.948576 0,4.061419 l 4.599341,4.598901 -4.599341,4.596948 c -1.113559,1.112843 -1.113558,2.948574 0,4.061418 1.114081,1.113365 2.951406,1.113364 4.065489,0 l 4.599341,-4.596947 4.599341,4.596947 c 1.114081,1.113363 2.951407,1.113363 4.065489,0 1.113557,-1.112844 1.113558,-2.948575 0,-4.061418 L 28.06549,25.006611 32.664831,20.40771 c 1.113561,-1.112843 1.11356,-2.948575 0,-4.061419 -1.114082,-1.113362 -2.951408,-1.113362 -4.065489,0 l -4.599341,4.596947 -4.599341,-4.596947 c -0.556275,-0.555917 -1.295973,-0.846292 -2.033723,-0.846292 z" opacity=".05" style="marker:none"/><path id="rect968-5" fill="#7a0000" fill-opacity="1" stroke="none" stroke-dasharray="none" stroke-dashoffset="0" stroke-linecap="butt" stroke-linejoin="miter" stroke-miterlimit="4" stroke-opacity="1" stroke-width=".843" d="m 17.375464,16.499999 c -0.479005,0 -0.957869,0.185602 -1.324906,0.552586 -0.734077,0.733987 -0.734077,1.915502 0,2.649488 l 5.299628,5.298974 -5.299628,5.298975 c -0.734077,0.733987 -0.734077,1.9155 0,2.649488 0.734076,0.733986 1.915735,0.733986 2.649813,0 l 5.299627,-5.298975 5.29963,5.298975 c 0.734078,0.733986 1.915737,0.733986 2.649815,0 0.734077,-0.733988 0.734077,-1.915501 0,-2.649488 l -5.299629,-5.298975 5.299629,-5.298974 c 0.734077,-0.733986 0.734077,-1.915501 0,-2.649488 -0.734078,-0.733986 -1.915737,-0.733986 -2.649815,0 l -5.29963,5.298975 -5.299627,-5.298975 c -0.367037,-0.366992 -0.845902,-0.552586 -1.324907,-0.552586 z" opacity=".15" style="marker:none"/><path id="rect968" fill="#fff" fill-opacity="1" stroke="none" stroke-dasharray="none" stroke-dashoffset="0" stroke-linecap="butt" stroke-linejoin="miter" stroke-miterlimit="4" stroke-opacity="1" stroke-width=".843" d="m 17.375464,15.499999 c -0.479005,0 -0.957869,0.185602 -1.324906,0.552586 -0.734078,0.733987 -0.734078,1.915502 0,2.649488 l 5.299628,5.298974 -5.299628,5.298975 c -0.734078,0.733987 -0.734078,1.9155 0,2.649488 0.734076,0.733986 1.915735,0.733986 2.649813,0 l 5.299627,-5.298975 5.299629,5.298975 c 0.734078,0.733986 1.915737,0.733986 2.649815,0 0.734078,-0.733988 0.734078,-1.915501 0,-2.649488 l -5.299629,-5.298975 5.299629,-5.298974 c 0.734078,-0.733986 0.734078,-1.915501 0,-2.649488 -0.734078,-0.733986 -1.915737,-0.733986 -2.649815,0 l -5.299629,5.298975 -5.299627,-5.298975 c -0.367038,-0.366992 -0.845902,-0.552586 -1.324907,-0.552586 z" opacity="1" style="marker:none"/></svg>