<svg xmlns="http://www.w3.org/2000/svg" xmlns:svg="http://www.w3.org/2000/svg" xmlns:xlink="http://www.w3.org/1999/xlink" id="svg4031" width="48" height="48" version="1.1"><defs id="defs4033"><linearGradient id="linearGradient3820-7-2-1"><stop id="stop3822-2-6-3" offset="0" stop-color="#3d3d3d" stop-opacity="1"/><stop id="stop3864-8-7-7" offset=".5" stop-color="#686868" stop-opacity=".498"/><stop id="stop3824-1-2-5" offset="1" stop-color="#686868" stop-opacity="0"/></linearGradient><radialGradient id="radialGradient3018" cx="99.157" cy="186.171" r="62.769" fx="99.157" fy="186.171" gradientTransform="matrix(0.27083381,0,0,0.08762273,-2.855072,25.187228)" gradientUnits="userSpaceOnUse" xlink:href="#linearGradient3820-7-2-1"/><linearGradient id="linearGradient4011-8"><stop id="stop4013-9" offset="0" stop-color="#fff" stop-opacity="1"/><stop id="stop4015-2" offset=".508" stop-color="#fff" stop-opacity=".235"/><stop id="stop4017-28" offset=".835" stop-color="#fff" stop-opacity=".157"/><stop id="stop4019-23" offset="1" stop-color="#fff" stop-opacity=".392"/></linearGradient><linearGradient id="linearGradient3540" x1="71.204" x2="71.204" y1="6.238" y2="44.341" gradientTransform="matrix(1.054054,0,0,1.054054,-51.611004,-2.7279013)" gradientUnits="userSpaceOnUse" xlink:href="#linearGradient4011-8"/><radialGradient id="radialGradient3092" cx=".965" cy="8.45" r="20" fx=".965" fy="8.45" gradientTransform="matrix(0,6.7155205,-7.1042197,-1.8878129e-7,84.029119,-23.48282)" gradientUnits="userSpaceOnUse" xlink:href="#linearGradient2867-449-88-871-390-598-476-591-434-148-57-177-8-3-3-6-4-8-8-8-5"/><linearGradient id="linearGradient2867-449-88-871-390-598-476-591-434-148-57-177-8-3-3-6-4-8-8-8-5"><stop id="stop3750-1-0-7-6-6-1-3-9-3" offset="0" stop-color="#919caf" stop-opacity="1"/><stop id="stop3752-3-7-4-0-32-8-923-0-7" offset=".262" stop-color="#68758e" stop-opacity="1"/><stop id="stop3754-1-8-5-2-7-6-7-1-9" offset=".705" stop-color="#485a6c" stop-opacity="1"/><stop id="stop3756-1-6-2-6-6-1-96-6-0" offset="1" stop-color="#444c5c" stop-opacity="1"/></linearGradient></defs><metadata id="metadata4036"/><path id="path3818-0-5" fill="url(#radialGradient3018)" fill-opacity="1" stroke="none" d="m 40.999999,41.499999 a 17,5.4999999 0 1 1 -33.999999,0 17,5.4999999 0 1 1 33.999999,0 z"/><path id="path2555-3" fill="url(#radialGradient3092)" fill-opacity="1" fill-rule="nonzero" stroke="none" stroke-width="1" d="M 24.000003,3.4999982 C 12.68881,3.4999982 3.5,12.688804 3.5,23.999997 3.5,35.311193 12.68881,44.500003 24.000003,44.5 35.311192,44.5 44.50001,35.311193 44.5,23.999997 44.5,12.688804 35.311192,3.4999982 24.000003,3.4999982 Z" color="#000" display="inline" enable-background="accumulate" overflow="visible" visibility="visible" style="marker:none"/><path id="path8655-4" fill="none" stroke="url(#linearGradient3540)" stroke-dasharray="none" stroke-dashoffset="0" stroke-linecap="round" stroke-linejoin="round" stroke-miterlimit="4" stroke-opacity="1" stroke-width="1" d="m 43.5,23.999308 c 0,10.7699 -8.73109,19.50069 -19.499753,19.50069 C 13.230598,43.499998 4.5,34.769109 4.5,23.999308 4.5,13.229906 13.230598,4.4999998 24.000247,4.4999998 34.76891,4.4999998 43.5,13.229906 43.5,23.999308 l 0,0 z" color="#000" display="inline" enable-background="accumulate" opacity=".3" overflow="visible" visibility="visible" style="marker:none"/><path id="path2555-6-0" fill="none" fill-opacity="1" fill-rule="nonzero" stroke="#1c2c38" stroke-dasharray="none" stroke-dashoffset="0" stroke-linecap="round" stroke-linejoin="round" stroke-miterlimit="4" stroke-opacity="1" stroke-width="1" d="M 24.000003,3.4999976 C 12.68881,3.4999976 3.5,12.688804 3.5,23.999998 3.5,35.311192 12.68881,44.500003 24.000003,44.5 35.311191,44.5 44.500011,35.311192 44.5,23.999998 44.5,12.688804 35.311191,3.4999976 24.000003,3.4999976 z" clip-rule="nonzero" color="#000" color-interpolation="sRGB" color-interpolation-filters="linearRGB" color-rendering="auto" display="inline" enable-background="accumulate" image-rendering="auto" opacity=".5" overflow="visible" shape-rendering="auto" text-rendering="auto" visibility="visible" style="marker:none;isolation:auto;mix-blend-mode:normal;solid-color:#000;solid-opacity:1;filter-blend-mode:normal;filter-gaussianBlur-deviation:0"/><path id="path4235" fill="#1c2c38" fill-opacity="1" fill-rule="nonzero" stroke="none" stroke-dasharray="none" stroke-dashoffset="0" stroke-linecap="butt" stroke-linejoin="miter" stroke-miterlimit="4" stroke-opacity="1" stroke-width="1" d="m 24,8.9941406 c -1.64777,0 -3.005859,1.3580894 -3.005859,3.0058594 l 0,12 c 0,1.64777 1.358089,3.005859 3.005859,3.005859 1.64777,0 3.005859,-1.358089 3.005859,-3.005859 l 0,-12 C 27.005859,10.35223 25.64777,8.9941406 24,8.9941406 Z m -6.375,4.8750004 c -0.578529,0 -1.010347,0.206577 -1.304688,0.345703 a 1.0058156,1.0058156 0 0 0 -0.08789,0.04687 l -0.625,0.375 a 1.0058156,1.0058156 0 0 0 -0.03711,0.02344 c -3.160252,2.084462 -5.401086,5.297913 -6.1874995,9.050782 -1.368e-4,1.34e-4 -0.00391,0.0039 -0.00391,0.0039 -3.96e-5,5.4e-5 -0.1816299,0.419862 -0.1816406,0.419922 a 1.0058156,1.0058156 0 0 0 -0.00195,0.0098 c -0.071077,0.421695 -0.033573,0.539749 -0.00391,0.335938 l 0.00195,-0.0039 C 9.1012675,25.090839 8.9941406,25.755625 8.9941406,26.5 c 0,8.019503 6.7497564,14.505859 15.0058594,14.505859 8.256103,0 15.005859,-6.486356 15.005859,-14.505859 0,-0.634029 -0.05616,-1.237369 -0.132812,-1.818359 a 1.0058156,1.0058156 0 0 0 -0.002,-0.002 c -0.04887,-0.364897 -0.130153,-0.537005 -0.13086,-0.541016 -0.694779,-3.944024 -3.026633,-7.312489 -6.310546,-9.478516 a 1.0058156,1.0058156 0 0 0 -0.03711,-0.02344 l -0.625,-0.375 a 1.0058156,1.0058156 0 0 0 -0.08789,-0.04687 C 31.385347,14.075718 30.953529,13.869141 30.375,13.869141 c -1.682629,0 -3.068359,1.38573 -3.068359,3.068359 0,1.0049 0.502123,1.853769 1.185547,2.40625 0.197266,0.159491 0.433436,0.327268 0.740234,0.457031 l -0.164063,-0.08789 c 1.738502,1.156837 3.021945,2.882266 3.589844,4.875 0.115724,0.406962 0.152912,0.45998 0.05859,0.113281 0.18458,0.678087 0.277344,1.367369 0.277344,2.111328 0,4.761945 -3.993242,8.619141 -8.994141,8.619141 -5.000899,0 -8.994141,-3.857196 -8.994141,-8.619141 0,-0.743957 0.09276,-1.433238 0.277344,-2.111328 a 1.0058156,1.0058156 0 0 0 0,-0.002 c -0.09089,0.336766 -0.05993,0.304439 0.05859,-0.111328 0.567899,-1.992734 1.851342,-3.718163 3.589844,-4.875 l -0.164063,0.08789 c 0.306799,-0.129766 0.542987,-0.297566 0.740234,-0.457031 0.683424,-0.552481 1.185547,-1.40135 1.185547,-2.40625 0,-1.682629 -1.38573,-3.068359 -3.068359,-3.068359 z" clip-rule="nonzero" color="#000" color-interpolation="sRGB" color-interpolation-filters="linearRGB" color-rendering="auto" display="inline" enable-background="accumulate" image-rendering="auto" opacity=".15" overflow="visible" shape-rendering="auto" text-rendering="auto" transform="translate(-1.406e-4,-0.999859)" visibility="visible" style="isolation:auto;mix-blend-mode:normal;solid-color:#000;solid-opacity:1;marker:none"/><path clip-rule="nonzero" style="isolation:auto;mix-blend-mode:normal;solid-color:#000;solid-opacity:1;marker:none" id="path3782-7" fill="#1c2c38" fill-opacity="1" fill-rule="nonzero" stroke="none" stroke-dasharray="none" stroke-dashoffset="0" stroke-linecap="butt" stroke-linejoin="miter" stroke-miterlimit="4" stroke-opacity="1" stroke-width="1.414" d="m 17.624859,13.875141 c -0.31487,0 -0.608048,0.12382 -0.875,0.25 l -0.625,0.375 c -3.067692,2.02341 -5.22986,5.15026 -5.875,8.8125 -6.88e-4,0.004 -0.06182,-0.0038 -0.0625,0 -0.017,0.10086 0.0148,0.210824 0,0.3125 -0.0926,0.617666 -0.1874996,1.229142 -0.1874996,1.875 0,7.455844 6.2680136,13.5 13.9999996,13.5 7.731986,0 14,-6.044156 14,-13.5 0,-0.573518 -0.05176,-1.132366 -0.125,-1.6875 -0.02312,-0.17264 -0.095,-0.329736 -0.125,-0.5 -0.64514,-3.66224 -2.807308,-6.78909 -5.875,-8.8125 l -0.625,-0.375 c -0.266952,-0.12618 -0.56013,-0.25 -0.875,-0.25 -1.138892,0 -2.0625,0.923608 -2.0625,2.0625 0,0.648164 0.344864,1.246962 0.8125,1.625 0.14862,0.12016 0.321496,0.237 0.5,0.3125 1.932542,1.285956 3.364682,3.208196 4,5.4375 0.012,0.04254 0.0509,0.08236 0.0625,0.125 0.207862,0.763616 0.3125,1.546374 0.3125,2.375 0,5.325604 -4.477152,9.625 -10,9.625 -5.522848,0 -10,-4.299396 -10,-9.625 0,-0.828626 0.10464,-1.611384 0.3125,-2.375 0.012,-0.04446 0.0499,-0.0808 0.0625,-0.125 0.635318,-2.229304 2.067458,-4.151544 4,-5.4375 0.1785,-0.0755 0.35137,-0.19234 0.5,-0.3125 0.467636,-0.378038 0.8125,-0.976836 0.8125,-1.625 0,-1.138892 -0.923608,-2.0625 -2.0625,-2.0625 z m 6.375,-4.875 c 1.108,0 2,0.892 2,2 l 0,12 c 0,1.108 -0.892,2 -2,2 -1.108,0 -2,-0.892 -2,-2 l 0,-12 c 0,-1.108 0.892,-2 2,-2 z" color="#000" color-interpolation="sRGB" color-interpolation-filters="linearRGB" color-rendering="auto" display="inline" enable-background="accumulate" image-rendering="auto" opacity=".3" overflow="visible" shape-rendering="auto" text-rendering="auto" visibility="visible"/><path clip-rule="nonzero" style="isolation:auto;mix-blend-mode:normal;solid-color:#000;solid-opacity:1;marker:none" id="path3782" fill="#fff" fill-opacity="1" fill-rule="nonzero" stroke="none" stroke-dasharray="none" stroke-dashoffset="0" stroke-linecap="round" stroke-linejoin="round" stroke-miterlimit="4" stroke-opacity="1" stroke-width="1" d="m 17.624859,12.875141 c -0.31487,0 -0.608048,0.12382 -0.875,0.25 l -0.625,0.375 c -3.067692,2.02341 -5.22986,5.15026 -5.875,8.8125 -6.88e-4,0.004 -0.06182,-0.0038 -0.0625,0 -0.017,0.10086 0.0148,0.210824 0,0.3125 -0.0926,0.617666 -0.1874996,1.229142 -0.1874996,1.875 0,7.455844 6.2680136,13.5 13.9999996,13.5 7.731986,0 14,-6.044156 14,-13.5 0,-0.573518 -0.05176,-1.132366 -0.125,-1.6875 -0.02312,-0.17264 -0.095,-0.329736 -0.125,-0.5 -0.64514,-3.66224 -2.807308,-6.78909 -5.875,-8.8125 l -0.625,-0.375 c -0.266952,-0.12618 -0.56013,-0.25 -0.875,-0.25 -1.138892,0 -2.0625,0.923608 -2.0625,2.0625 0,0.648164 0.344864,1.246962 0.8125,1.625 0.14862,0.12016 0.321496,0.237 0.5,0.3125 1.932542,1.285956 3.364682,3.208196 4,5.4375 0.012,0.04254 0.0509,0.08236 0.0625,0.125 0.207862,0.763616 0.3125,1.546374 0.3125,2.375 0,5.325604 -4.477152,9.625 -10,9.625 -5.522848,0 -10,-4.299396 -10,-9.625 0,-0.828626 0.10464,-1.611384 0.3125,-2.375 0.012,-0.04446 0.0499,-0.0808 0.0625,-0.125 0.635318,-2.229304 2.067458,-4.151544 4,-5.4375 0.1785,-0.0755 0.35137,-0.19234 0.5,-0.3125 0.467636,-0.378038 0.8125,-0.976836 0.8125,-1.625 0,-1.138892 -0.923608,-2.0625 -2.0625,-2.0625 z m 6.375,-4.875 c 1.108,0 2,0.892 2,2 l 0,12 c 0,1.108 -0.892,2 -2,2 -1.108,0 -2,-0.892 -2,-2 l 0,-12 c 0,-1.108 0.892,-2 2,-2 z" color="#000" color-interpolation="sRGB" color-interpolation-filters="linearRGB" color-rendering="auto" display="inline" enable-background="accumulate" image-rendering="auto" opacity="1" overflow="visible" shape-rendering="auto" text-rendering="auto" visibility="visible"/></svg>