<svg xmlns="http://www.w3.org/2000/svg" xmlns:svg="http://www.w3.org/2000/svg" xmlns:xlink="http://www.w3.org/1999/xlink" id="svg3199" width="48" height="48" version="1.0"><metadata id="metadata21"/><defs id="defs3201"><linearGradient id="linearGradient2091"><stop id="stop2093" offset="0" stop-color="#000" stop-opacity="1"/><stop id="stop2095" offset="1" stop-color="#000" stop-opacity="0"/></linearGradient><radialGradient id="radialGradient2177" cx="23.071" cy="35.127" r="10.319" fx="23.071" fy="35.127" gradientTransform="matrix(0.914812,0.01265023,-0.00821502,0.213562,2.253914,27.18889)" gradientUnits="userSpaceOnUse" xlink:href="#linearGradient2091"/><linearGradient id="linearGradient3175"><stop id="stop3177" offset="0" stop-color="#797a78" stop-opacity="1"/><stop id="stop3179" offset="1" stop-color="#555754" stop-opacity="1"/></linearGradient><linearGradient id="linearGradient3189" x1="23.946" x2="23.946" y1="7.509" y2="42.576" gradientUnits="userSpaceOnUse" xlink:href="#linearGradient3175"/><linearGradient id="linearGradient7916"><stop id="stop7918" offset="0" stop-color="#fff" stop-opacity="1"/><stop id="stop7920" offset="1" stop-color="#fff" stop-opacity=".34"/></linearGradient><linearGradient id="linearGradient2181" x1="31.865" x2="16.145" y1="17.13" y2="32.85" gradientTransform="matrix(1.0317991,-1.0287411,1.0317991,1.0287411,-26.552863,23.963668)" gradientUnits="userSpaceOnUse" xlink:href="#linearGradient7916"/><linearGradient id="linearGradient2397" x1="31.865" x2="16.145" y1="17.13" y2="32.85" gradientTransform="matrix(1.0317991,-1.0287411,1.0317991,1.0287411,-26.552863,26.472819)" gradientUnits="userSpaceOnUse" xlink:href="#linearGradient7916"/><linearGradient id="linearGradient2400" x1="23.946" x2="23.946" y1="7.509" y2="42.576" gradientTransform="translate(0,2.5091507)" gradientUnits="userSpaceOnUse" xlink:href="#linearGradient3175"/><radialGradient id="radialGradient2403" cx="23.071" cy="35.127" r="10.319" fx="23.071" fy="35.127" gradientTransform="matrix(2.1051704,0.0242764,-0.01890445,0.4098357,-23.646352,28.671497)" gradientUnits="userSpaceOnUse" xlink:href="#linearGradient2091"/></defs><path id="path1361" fill="url(#radialGradient2403)" fill-opacity="1" stroke="none" d="M 47.746933,43.547437 C 47.746933,46.00652 37.115074,48 24.000012,48 10.884949,48 0.25308956,46.00652 0.25308956,43.547437 c 0,-2.459083 10.63185944,-4.452563 23.74692244,-4.452563 13.115062,0 23.746921,1.99348 23.746921,4.452563 z" opacity=".256"/><path id="text1314" fill="url(#linearGradient2400)" fill-opacity="1" stroke="#4d4d4d" stroke-dasharray="none" stroke-linecap="butt" stroke-linejoin="round" stroke-miterlimit="4" stroke-opacity="1" stroke-width=".982" d="M 41.892473,37.519904 31.5,27.502967 l 10,-10.493816 -7.208617,-6.5 -10.291383,10 -10.5,-10 L 6,17.248232 16.5,27.460224 6,37.509151 l 7.5,7 10.487815,-10.5 10.512185,10.5 7.392473,-6.989247 z" font-family="Bitstream Vera Sans" font-size="59.901" font-stretch="normal" font-style="normal" font-variant="normal" font-weight="bold" text-anchor="start" writing-mode="lr-tb" style="text-align:start;line-height:125%"/><path font-family="Bitstream Vera Sans" style="text-align:start;line-height:125%" id="path3191" fill="none" stroke="url(#linearGradient2397)" stroke-dasharray="none" stroke-linecap="butt" stroke-linejoin="miter" stroke-miterlimit="4" stroke-opacity="1" stroke-width=".982" d="M 40,17.009151 34.349879,11.877677 24,22.009151 13.442361,11.893873 7.5,17.278597 M 18,27.453812 7.5,37.509151 m 32.942361,0 -10.442361,-10" font-size="59.901" font-stretch="normal" font-style="normal" font-variant="normal" font-weight="bold" opacity=".4" text-anchor="start" writing-mode="lr-tb"/></svg>