<svg xmlns="http://www.w3.org/2000/svg" xmlns:svg="http://www.w3.org/2000/svg" xmlns:xlink="http://www.w3.org/1999/xlink" id="svg4310" width="128" height="128" version="1.1"><defs id="defs4312"><linearGradient id="linearGradient4194" x1="20.286" x2="41.827" y1="20.924" y2="20.924" gradientTransform="matrix(0,1.6605053,1.7839628,0,23.10096,23.393481)" gradientUnits="userSpaceOnUse" xlink:href="#linearGradient4087"/><linearGradient id="linearGradient4087"><stop id="stop4089" offset="0" stop-color="#fff" stop-opacity="1"/><stop id="stop4091" offset=".496" stop-color="#fff" stop-opacity=".235"/><stop id="stop4093" offset=".692" stop-color="#fff" stop-opacity=".157"/><stop id="stop4095" offset="1" stop-color="#fff" stop-opacity=".392"/></linearGradient><linearGradient id="linearGradient4197" x1="26.738" x2="26.738" y1="32.49" y2="3.158" gradientTransform="matrix(1.5319428,0,0,-1.4159339,20.01116,100.28251)" gradientUnits="userSpaceOnUse" xlink:href="#linearGradient4220"/><radialGradient id="radialGradient4185" cx="24.837" cy="36.421" r="15.645" fx="24.837" fy="36.421" gradientTransform="matrix(-1.2828288,0,0,-0.77807574,84.921349,112.63797)" gradientUnits="userSpaceOnUse" xlink:href="#linearGradient8662"/><linearGradient id="linearGradient8662"><stop id="stop8664" offset="0" stop-color="#000" stop-opacity="1"/><stop id="stop8666" offset="1" stop-color="#000" stop-opacity="0"/></linearGradient><linearGradient id="linearGradient3245" x1="302.857" x2="302.857" y1="366.648" y2="609.505" gradientTransform="matrix(0.1327515,0,0,0.02058823,31.96981,104.45141)" gradientUnits="userSpaceOnUse" xlink:href="#linearGradient5048"/><linearGradient id="linearGradient5048"><stop id="stop5050" offset="0" stop-color="#000" stop-opacity="0"/><stop id="stop5056" offset=".5" stop-color="#000" stop-opacity="1"/><stop id="stop5052" offset="1" stop-color="#000" stop-opacity="0"/></linearGradient><radialGradient id="radialGradient3242" cx="605.714" cy="486.648" r="117.143" fx="605.714" fy="486.648" gradientTransform="matrix(-0.03132632,0,0,0.02058823,66.77914,104.45141)" gradientUnits="userSpaceOnUse" xlink:href="#linearGradient5060"/><linearGradient id="linearGradient5060"><stop id="stop5062" offset="0" stop-color="#000" stop-opacity="1"/><stop id="stop5064" offset="1" stop-color="#000" stop-opacity="0"/></linearGradient><radialGradient id="radialGradient3239" cx="605.714" cy="486.648" r="117.143" fx="605.714" fy="486.648" gradientTransform="matrix(0.03132633,0,0,0.02058823,93.12086,104.45141)" gradientUnits="userSpaceOnUse" xlink:href="#linearGradient5060"/><linearGradient id="linearGradient3249" x1="25.132" x2="25.132" y1=".985" y2="47.013" gradientTransform="matrix(1.9142835,0,0,1.825174,34.05718,25.895671)" gradientUnits="userSpaceOnUse" xlink:href="#linearGradient3600-9"/><linearGradient id="linearGradient3600-9"><stop id="stop3602-3" offset="0" stop-color="#f4f4f4" stop-opacity="1"/><stop id="stop3604-7" offset="1" stop-color="#dbdbdb" stop-opacity="1"/></linearGradient><linearGradient id="linearGradient3253" x1="24" x2="24" y1="5.564" y2="43" gradientTransform="matrix(1.7567567,0,0,2.2162105,37.83785,19.310886)" gradientUnits="userSpaceOnUse" xlink:href="#linearGradient3977-4"/><linearGradient id="linearGradient3977-4"><stop id="stop3979-7" offset="0" stop-color="#fff" stop-opacity="1"/><stop id="stop3981-6" offset=".036" stop-color="#fff" stop-opacity=".235"/><stop id="stop3983-5" offset=".951" stop-color="#fff" stop-opacity=".157"/><stop id="stop3985-6" offset="1" stop-color="#fff" stop-opacity=".392"/></linearGradient><linearGradient id="linearGradient4220"><stop id="stop4222" offset="0" stop-color="#cdf87e" stop-opacity="1"/><stop id="stop4224" offset=".262" stop-color="#a2e34f" stop-opacity="1"/><stop id="stop4226" offset=".746" stop-color="#68b723" stop-opacity="1"/><stop id="stop4228" offset="1" stop-color="#1d7e0d" stop-opacity="1"/></linearGradient><linearGradient id="linearGradient5021" x1="25.5" x2="26" y1="-13.625" y2="-39.125" gradientTransform="matrix(2.4666673,0,0,2.8750001,-10.933341,11.937504)" gradientUnits="userSpaceOnUse" xlink:href="#linearGradient5772-1"/><linearGradient id="linearGradient5772-1"><stop id="stop5774-8" offset="0" stop-color="#e2b369" stop-opacity="1"/><stop id="stop5776-7" offset="1" stop-color="#c79b55" stop-opacity="1"/></linearGradient><linearGradient id="linearGradient4342" x1="302.857" x2="302.857" y1="366.648" y2="609.505" gradientTransform="matrix(0.06732488,0,0,0.01470022,9.789393,3.040146)" gradientUnits="userSpaceOnUse" xlink:href="#linearGradient5048"/><radialGradient id="radialGradient4344" cx="605.714" cy="486.648" r="117.143" fx="605.714" fy="486.648" gradientTransform="matrix(-0.02303994,0,0,0.01470022,31.753642,3.040176)" gradientUnits="userSpaceOnUse" xlink:href="#linearGradient8662"/><radialGradient id="radialGradient4346" cx="605.714" cy="486.648" r="117.143" fx="605.714" fy="486.648" gradientTransform="matrix(0.02303995,0,0,0.01470022,27.491414,3.040176)" gradientUnits="userSpaceOnUse" xlink:href="#linearGradient8662"/><linearGradient id="linearGradient5025" x1="15" x2="15" y1="-9" y2="-40" gradientTransform="matrix(2.5714275,0,0,2.9999994,-13.49999,14.99999)" gradientUnits="userSpaceOnUse" xlink:href="#linearGradient4455"/><linearGradient id="linearGradient4455"><stop id="stop4457" offset="0" stop-color="#fff" stop-opacity="1"/><stop id="stop4459" offset=".049" stop-color="#fff" stop-opacity=".235"/><stop id="stop4461" offset=".968" stop-color="#fff" stop-opacity=".157"/><stop id="stop4463" offset="1" stop-color="#fff" stop-opacity=".392"/></linearGradient><linearGradient id="linearGradient4997" x1="25.088" x2="25" y1="-.828" y2="14" gradientTransform="translate(23,5.000001)" gradientUnits="userSpaceOnUse" xlink:href="#radialGradient4536"/><radialGradient id="radialGradient4536" cx="23.896" cy="3.99" r="20.397" gradientTransform="matrix(0,1.2316483,-1.625754,0,18.486966,-28.721977)" gradientUnits="userSpaceOnUse"><stop id="stop4538" offset="0" stop-color="#fff" stop-opacity="1"/><stop id="stop4540" offset=".137" stop-color="#ddd" stop-opacity="1"/><stop id="stop4542" offset=".661" stop-color="#abacae" stop-opacity="1"/><stop id="stop4544" offset="1" stop-color="#89898b" stop-opacity="1"/></radialGradient><linearGradient id="linearGradient5001" x1="24" x2="24.498" y1="1" y2="8" gradientTransform="translate(23,7.000001)" gradientUnits="userSpaceOnUse" xlink:href="#linearGradient5071-3-1-8"/><linearGradient id="linearGradient5071-3-1-8"><stop id="stop5073-3-6-8" offset="0" stop-color="#fff" stop-opacity="1"/><stop id="stop5075-6-9-9" offset="1" stop-color="#fff" stop-opacity="0"/></linearGradient><linearGradient id="linearGradient4365" x1="20" x2="20" y1="3" y2="7" gradientTransform="translate(27,7)" gradientUnits="userSpaceOnUse" xlink:href="#linearGradient5071-3-1-8"/><linearGradient id="linearGradient4492" x1="302.857" x2="302.857" y1="366.648" y2="609.505" gradientTransform="matrix(0.1327515,0,0,0.02058823,31.96981,104.45141)" gradientUnits="userSpaceOnUse" xlink:href="#linearGradient5048"/><radialGradient id="radialGradient4494" cx="605.714" cy="486.648" r="117.143" fx="605.714" fy="486.648" gradientTransform="matrix(-0.03132632,0,0,0.02058823,66.77914,104.45141)" gradientUnits="userSpaceOnUse" xlink:href="#linearGradient5060"/><radialGradient id="radialGradient4496" cx="605.714" cy="486.648" r="117.143" fx="605.714" fy="486.648" gradientTransform="matrix(0.03132633,0,0,0.02058823,93.12086,104.45141)" gradientUnits="userSpaceOnUse" xlink:href="#linearGradient5060"/></defs><metadata id="metadata4315"/><g id="g4484" transform="translate(-33,-10)"><rect id="rect4486" width="64.1" height="5" x="47.9" y="112" fill="url(#linearGradient4492)" fill-opacity="1" fill-rule="nonzero" stroke="none" stroke-width="1" display="inline" opacity=".3" overflow="visible" visibility="visible" style="marker:none"/><path d="m 47.9,112.00021 c 0,0 0,4.9997 0,4.9997 -1.61323,0.01 -3.9,-1.1202 -3.9,-2.5002 0,-1.38 1.80024,-2.4995 3.9,-2.4995 z" style="marker:none" id="path4488" fill="url(#radialGradient4494)" fill-opacity="1" fill-rule="nonzero" stroke="none" stroke-width="1" display="inline" opacity=".3" overflow="visible" visibility="visible"/><path d="m 112,112.00021 c 0,0 0,4.9997 0,4.9997 1.61323,0.01 3.9,-1.1202 3.9,-2.5002 0,-1.38 -1.80024,-2.4995 -3.9,-2.4995 z" style="marker:none" id="path4490" fill="url(#radialGradient4496)" fill-opacity="1" fill-rule="nonzero" stroke="none" stroke-width="1" display="inline" opacity=".3" overflow="visible" visibility="visible"/></g><rect id="rect4613" width="74" height="92" x="12.5" y="-104.5" fill="url(#linearGradient5021)" fill-opacity="1" fill-rule="nonzero" stroke="#66430b" stroke-dasharray="none" stroke-dashoffset="0" stroke-linecap="butt" stroke-linejoin="miter" stroke-miterlimit="4" stroke-opacity=".498" stroke-width="1" color="#000" display="block" enable-background="accumulate" overflow="visible" rx="3" ry="3" transform="scale(1,-1)" visibility="visible" style="marker:none"/><rect stroke-opacity="1" style="marker:none" id="rect5786" width="72" height="90" x="13.5" y="-103.5" fill="none" stroke="url(#linearGradient5025)" stroke-dasharray="none" stroke-dashoffset="0" stroke-linecap="butt" stroke-linejoin="miter" stroke-miterlimit="4" stroke-width="1" color="#000" display="block" enable-background="accumulate" opacity=".5" overflow="visible" rx="2" ry="2" transform="scale(1,-1)" visibility="visible"/><g id="g4348" transform="translate(20,9)"><path id="rect4336" fill="url(#linearGradient4342)" fill-opacity="1" fill-rule="nonzero" stroke="none" stroke-width="1" d="m 17.86838,8.4299469 23.5083,0 0,3.5700531 -23.5083,0 z" display="inline" opacity=".3" overflow="visible" visibility="visible" style="marker:none"/><path d="m 17.868379,8.430102 c 0,0 0,3.569856 0,3.569856 C 16.681879,12.006658 15,11.200135 15,10.2148 15,9.229467 16.324045,8.430103 17.868379,8.430102 Z" style="marker:none" id="path4338" fill="url(#radialGradient4344)" fill-opacity="1" fill-rule="nonzero" stroke="none" stroke-width="1" display="inline" opacity=".3" overflow="visible" visibility="visible"/><path d="m 41.37668,8.430102 c 0,0 0,3.569856 0,3.569856 1.1865,0.0067 2.86838,-0.799823 2.86838,-1.785158 0,-0.985333 -1.324045,-1.784697 -2.86838,-1.784698 z" style="marker:none" id="path4340" fill="url(#radialGradient4346)" fill-opacity="1" fill-rule="nonzero" stroke="none" stroke-width="1" display="inline" opacity=".3" overflow="visible" visibility="visible"/></g><path id="path5584" fill="url(#linearGradient4997)" fill-opacity="1" fill-rule="nonzero" stroke="#000" stroke-dasharray="none" stroke-dashoffset="0" stroke-linecap="butt" stroke-linejoin="miter" stroke-miterlimit="4" stroke-opacity=".345" stroke-width="1" d="m 61.5,19.5 c 1.955239,-0.01198 2,-2 2,-2 l -3,-3 7e-5,-5 c 0,0 -0.0304,-1.955806 -2,-2 l -18,0.03108 c -2.0963,0 -2.00906,2.001117 -2.00906,2.001117 l 0.009,4.967803 -3,3 c 0,0 0.07699,1.92772 1.99999,1.999999 z" color="#000" display="block" enable-background="accumulate" overflow="visible" visibility="visible" style="marker:none"/><path id="path5377" fill="url(#linearGradient5001)" fill-opacity="1" fill-rule="nonzero" stroke="none" stroke-width="1" d="m 40,15.000001 0,-5 c -0.0394,-0.631556 0.20798,-1.033615 1,-1 l 17,0 c 0.46307,0.07386 0.94201,0.11598 1,1 l 0,5 -1,-5 -17,0 z" color="#000" display="inline" enable-background="accumulate" overflow="visible" visibility="visible" style="marker:none"/><path id="path4353" fill="none" fill-rule="evenodd" stroke="#fff" stroke-linecap="round" stroke-linejoin="miter" stroke-opacity="1" stroke-width="1" d="m 37.007121,18.5 25,0" opacity=".4"/><path id="rect4357" fill="none" fill-opacity="1" stroke="url(#linearGradient4365)" stroke-dasharray="none" stroke-linecap="round" stroke-linejoin="miter" stroke-miterlimit="4" stroke-opacity="1" stroke-width="1" d="m 40.5,8.5 18,0 c 0.554,0 1,0.446 1,1 l 0,5 c 0,0.554 0.554,1 0,1 l -19,0 c -0.554,0 -1,-0.446 -1,-1 l 0,-5 c 0,-0.554 0.446,-1 1,-1 z" opacity=".6"/><path id="path4453" fill="none" fill-rule="evenodd" stroke="#000" stroke-linecap="round" stroke-linejoin="miter" stroke-opacity="1" stroke-width="1" d="m 36.507121,17.5 26,0" opacity=".1"/><path id="path4160-3-9-6" fill="#000" fill-opacity="1" stroke="none" d="m 45,29.000004 c 8.47858,0 40,0.0044 40,0.0044 l 4e-5,73.995606 -40.00004,0 0,-73.999815 z" display="inline" opacity=".05"/><g id="g4479"><rect id="rect2879" width="64.1" height="5" x="47.9" y="112" fill="url(#linearGradient3245)" fill-opacity="1" fill-rule="nonzero" stroke="none" stroke-width="1" display="inline" opacity=".3" overflow="visible" visibility="visible" style="marker:none"/><path id="path2881" fill="url(#radialGradient3242)" fill-opacity="1" fill-rule="nonzero" stroke="none" stroke-width="1" d="m 47.9,112.00021 c 0,0 0,4.9997 0,4.9997 -1.61323,0.01 -3.9,-1.1202 -3.9,-2.5002 0,-1.38 1.80024,-2.4995 3.9,-2.4995 z" display="inline" opacity=".3" overflow="visible" visibility="visible" style="marker:none"/><path id="path2883" fill="url(#radialGradient3239)" fill-opacity="1" fill-rule="nonzero" stroke="none" stroke-width="1" d="m 112,112.00021 c 0,0 0,4.9997 0,4.9997 1.61323,0.01 3.9,-1.1202 3.9,-2.5002 0,-1.38 -1.80024,-2.4995 -3.9,-2.4995 z" display="inline" opacity=".3" overflow="visible" visibility="visible" style="marker:none"/></g><path id="path4160-6" fill="url(#linearGradient3249)" fill-opacity="1" stroke="#000" stroke-dasharray="none" stroke-dashoffset="0" stroke-linecap="butt" stroke-linejoin="round" stroke-miterlimit="4" stroke-opacity=".345" stroke-width="1" d="m 46.49996,30.500021 c 15.35312,0 67.00001,0.0057 67.00001,0.0057 l 7e-5,83.994319 c 0,0 -44.66671,0 -67.00008,0 0,-28.000022 0,-55.999762 0,-83.999658 z" display="inline"/><path id="rect6741-1-8" fill="none" stroke="url(#linearGradient3253)" stroke-dasharray="none" stroke-dashoffset="0" stroke-linecap="round" stroke-linejoin="miter" stroke-miterlimit="4" stroke-opacity="1" stroke-width="1" d="m 112.5,113.5 -65,0 0,-81.999996 65,0 z"/><path id="path3501" fill="url(#radialGradient4185)" fill-opacity="1" fill-rule="evenodd" stroke="none" stroke-width="1" d="m 32.990049,84.299559 a 20.06952,12.172796 0 1 1 40.139039,0 20.06952,12.172796 0 0 1 -40.139039,0 z" display="inline" opacity=".141" overflow="visible" visibility="visible" style="marker:none"/><path id="path3503" fill="url(#linearGradient4197)" fill-opacity="1" fill-rule="nonzero" stroke="none" stroke-dasharray="none" stroke-dashoffset="0" stroke-linecap="butt" stroke-linejoin="round" stroke-miterlimit="7" stroke-opacity="1" stroke-width="1" d="M 43.46318,45.500004 C 24.01149,58.539408 34.8185,82.486655 56.5,82.290096 l 0,12.209908 26,-19.986851 -26,-19.986824 0,12.183554 C 42.51631,67.248425 35.41915,54.598557 45.41608,45.500004 Z" display="block" overflow="visible" visibility="visible" style="marker:none"/><path stroke-opacity="1" style="marker:none" id="path3505" fill="none" stroke="url(#linearGradient4194)" stroke-dasharray="none" stroke-dashoffset="0" stroke-linecap="butt" stroke-linejoin="miter" stroke-miterlimit="7" stroke-width=".964" d="M 42.19372,47.700366 C 25.27622,61.254545 38.15359,82.007512 57.5,81.358578 l 0,11.031 L 80.816621,74.575377 57.5,56.590197 l 0,11.176675 C 37.44247,68.224965 37.83507,51.269697 42.19372,47.700366 Z" display="block" opacity=".7" overflow="visible" visibility="visible"/><path id="path3503-7" fill="none" fill-opacity="1" fill-rule="nonzero" stroke="#0f5a00" stroke-dasharray="none" stroke-dashoffset="0" stroke-linecap="round" stroke-linejoin="miter" stroke-miterlimit="4" stroke-opacity="1" stroke-width="1" d="M 43.46318,45.500004 C 24.01149,58.539408 34.8185,82.486655 56.5,82.290096 l 0,12.209908 26,-19.986851 -26,-19.986824 0,12.183554 C 42.51631,67.248425 35.41915,54.598557 45.41608,45.500004 Z" clip-rule="nonzero" color="#000" color-interpolation="sRGB" color-interpolation-filters="linearRGB" color-rendering="auto" display="inline" enable-background="accumulate" image-rendering="auto" opacity=".5" overflow="visible" shape-rendering="auto" text-rendering="auto" visibility="visible" style="isolation:auto;mix-blend-mode:normal;solid-color:#000;solid-opacity:1;marker:none"/></svg>