<svg xmlns="http://www.w3.org/2000/svg" xmlns:svg="http://www.w3.org/2000/svg" xmlns:xlink="http://www.w3.org/1999/xlink" id="svg3049" width="128" height="128" version="1.1"><defs id="defs3051"><linearGradient id="linearGradient3924"><stop id="stop3926" offset="0" stop-color="#fff" stop-opacity="1"/><stop id="stop3928" offset=".063" stop-color="#fff" stop-opacity=".235"/><stop id="stop3930" offset=".951" stop-color="#fff" stop-opacity=".157"/><stop id="stop3932" offset="1" stop-color="#fff" stop-opacity=".392"/></linearGradient><radialGradient id="radialGradient4093" cx="4.993" cy="43.5" r="2.5" fx="4.993" fy="43.5" gradientTransform="matrix(2.003784,0,0,1.4,27.98813,-17.4)" gradientUnits="userSpaceOnUse" xlink:href="#linearGradient3688-166-749-5"/><linearGradient id="linearGradient3688-166-749-5"><stop id="stop2883-0" offset="0" stop-color="#181818" stop-opacity="1"/><stop id="stop2885-5" offset="1" stop-color="#181818" stop-opacity="0"/></linearGradient><radialGradient id="radialGradient4095" cx="4.993" cy="43.5" r="2.5" fx="4.993" fy="43.5" gradientTransform="matrix(2.003784,0,0,1.4,-20.01187,-104.4)" gradientUnits="userSpaceOnUse" xlink:href="#linearGradient3688-464-309-8"/><linearGradient id="linearGradient3688-464-309-8"><stop id="stop2889-9" offset="0" stop-color="#181818" stop-opacity="1"/><stop id="stop2891-4" offset="1" stop-color="#181818" stop-opacity="0"/></linearGradient><linearGradient id="linearGradient4097" x1="25.058" x2="25.058" y1="47.028" y2="39.999" gradientUnits="userSpaceOnUse" xlink:href="#linearGradient3702-501-757-0"/><linearGradient id="linearGradient3702-501-757-0"><stop id="stop2895-0" offset="0" stop-color="#181818" stop-opacity="0"/><stop id="stop2897-2" offset=".5" stop-color="#181818" stop-opacity="1"/><stop id="stop2899-6" offset="1" stop-color="#181818" stop-opacity="0"/></linearGradient><linearGradient id="linearGradient3811"><stop id="stop3813" offset="0" stop-color="#000" stop-opacity="1"/><stop id="stop3815" offset="1" stop-color="#000" stop-opacity="0"/></linearGradient><linearGradient id="linearGradient3242-7-3-8-0-4-58-06"><stop id="stop3244-5-8-5-6-4-3-8" offset="0" stop-color="#cdf87e" stop-opacity="1"/><stop id="stop3246-9-5-1-5-3-0-7" offset=".262" stop-color="#a2e34f" stop-opacity="1"/><stop id="stop3248-7-2-0-7-5-35-9" offset=".661" stop-color="#68b723" stop-opacity="1"/><stop id="stop3250-8-2-8-5-6-40-4" offset="1" stop-color="#1d7e0d" stop-opacity="1"/></linearGradient><linearGradient id="linearGradient3510-2"><stop id="stop3512-7" offset="0" stop-color="#000" stop-opacity="1"/><stop id="stop3514-6" offset="1" stop-color="#000" stop-opacity="0"/></linearGradient><linearGradient id="linearGradient3202" x1="24" x2="24" y1="5" y2="43" gradientTransform="matrix(2.7297298,0,0,2.7297298,-1.5135175,1.488319)" gradientUnits="userSpaceOnUse" xlink:href="#linearGradient3924"/><radialGradient id="radialGradient3213" cx="-4.029" cy="93.468" r="35.338" fx="-4.029" fy="93.468" gradientTransform="matrix(1.5563924,0,0,0.16978827,70.270355,102.1321)" gradientUnits="userSpaceOnUse" xlink:href="#linearGradient3811"/><linearGradient id="linearGradient3278" x1="24.17" x2="24.17" y1="-12.242" y2="48.934" gradientTransform="matrix(1.8727272,0,0,1.9230769,4.0727278,6.8461539)" gradientUnits="userSpaceOnUse" xlink:href="#linearGradient3242-7-3-8-0-4-58-06"/><linearGradient id="linearGradient3285" x1="23.954" x2="23.954" y1="15.999" y2="19.963" gradientTransform="matrix(2.6000001,0,0,0.75,1.6000032,29.000002)" gradientUnits="userSpaceOnUse" xlink:href="#linearGradient3510-2"/><linearGradient id="linearGradient3288-4" x1="25.132" x2="25.132" y1="15.5" y2="48.396" gradientTransform="matrix(2.3698469,0,0,2.2723986,7.1236823,6.2711497)" gradientUnits="userSpaceOnUse" xlink:href="#linearGradient4658-2"/><linearGradient id="linearGradient4658-2"><stop id="stop4660-2" offset="0" stop-color="#fafafa" stop-opacity="1"/><stop id="stop4662-0" offset="1" stop-color="#e2e1de" stop-opacity="1"/></linearGradient><linearGradient id="linearGradient3924-7"><stop id="stop3926-3" offset="0" stop-color="#fff" stop-opacity="1"/><stop id="stop3928-2" offset=".063" stop-color="#fff" stop-opacity=".235"/><stop id="stop3930-0" offset=".951" stop-color="#fff" stop-opacity=".157"/><stop id="stop3932-9" offset="1" stop-color="#fff" stop-opacity=".392"/></linearGradient><linearGradient id="linearGradient4148" x1="24" x2="24" y1="5" y2="43" gradientTransform="matrix(2.7297298,0,0,2.7297298,-1.513517,1.488321)" gradientUnits="userSpaceOnUse" xlink:href="#linearGradient3924-7"/><radialGradient id="radialGradient3381" cx="66.127" cy="48.768" r="31" fx="66.127" fy="48.768" gradientTransform="matrix(0,2.4235253,-2.6392787,0,226.37632,-84.89547)" gradientUnits="userSpaceOnUse" xlink:href="#linearGradient3242-7-3-8-0-4-58-06"/><linearGradient id="linearGradient3030" x1="24.139" x2="24.139" y1="9.176" y2="37.13" gradientTransform="matrix(2.1134672,0,0,1.645562,50.731498,61.892656)" gradientUnits="userSpaceOnUse" xlink:href="#linearGradient4361"/><linearGradient id="linearGradient4361"><stop id="stop4363" offset="0" stop-color="#fff" stop-opacity="1"/><stop id="stop4365" offset="0" stop-color="#fff" stop-opacity=".235"/><stop id="stop4367" offset="1" stop-color="#fff" stop-opacity=".157"/><stop id="stop4369" offset="1" stop-color="#fff" stop-opacity=".392"/></linearGradient><linearGradient id="linearGradient3030-1" x1="24.139" x2="24.139" y1="19.795" y2="26.485" gradientTransform="matrix(1.6592445,0,0,2.0928522,60.83944,51.564499)" gradientUnits="userSpaceOnUse" xlink:href="#linearGradient4351"/><linearGradient id="linearGradient4351"><stop id="stop4353" offset="0" stop-color="#fff" stop-opacity="1"/><stop id="stop4355" offset="0" stop-color="#fff" stop-opacity=".235"/><stop id="stop4357" offset="1" stop-color="#fff" stop-opacity=".157"/><stop id="stop4359" offset="1" stop-color="#fff" stop-opacity=".392"/></linearGradient></defs><metadata id="metadata3054"/><path id="path3041" fill="url(#radialGradient3213)" fill-opacity="1" fill-rule="nonzero" stroke="none" stroke-width="1" d="m 119,118.00181 a 55,6 0 0 1 -109.9999975,0 55,6 0 1 1 109.9999975,0 z" color="#000" display="inline" enable-background="accumulate" opacity=".2" overflow="visible" visibility="visible" style="marker:none"/><g id="g2036" display="inline" transform="matrix(2.6999989,0,0,0.55555607,-0.8000075,94.890689)"><g id="g3712" opacity=".4" transform="matrix(1.052632,0,0,1.285713,-1.263158,-13.42854)"><rect id="rect2801" width="5" height="7" x="38" y="40" fill="url(#radialGradient4093)" fill-opacity="1" stroke="none"/><rect id="rect3696" width="5" height="7" x="-10" y="-47" fill="url(#radialGradient4095)" fill-opacity="1" stroke="none" transform="scale(-1,-1)"/><rect id="rect3700" width="28" height="7" x="10" y="40" fill="url(#linearGradient4097)" fill-opacity="1" stroke="none"/></g></g><rect id="rect5505-21-3" width="102" height="102" x="13" y="16" fill="url(#linearGradient3288-4)" fill-opacity="1" fill-rule="nonzero" stroke="none" stroke-width="1" color="#000" display="inline" enable-background="accumulate" overflow="visible" rx="5" ry="5" visibility="visible" style="marker:none"/><rect id="rect3508" width="104" height="3" x="12" y="41" fill="url(#linearGradient3285)" fill-opacity="1" fill-rule="nonzero" stroke="none" stroke-width="1" display="inline" enable-background="accumulate" opacity=".15" overflow="visible" rx="0" ry="0" visibility="visible" style="marker:none"/><path id="rect4567" fill="none" stroke="#000" stroke-dasharray="none" stroke-miterlimit="4" stroke-width="1" d="m 12.5,40.237863 0,72.643787 c 0,3.11257 2.505709,5.61835 5.618181,5.61835 l 91.763629,0 c 3.11248,0 5.61819,-2.50578 5.61819,-5.61835 l 0,-72.643787" opacity=".3"/><path id="rect4188-6-4-0" fill="none" stroke="#fff" stroke-dasharray="none" stroke-dashoffset="0" stroke-linecap="butt" stroke-linejoin="miter" stroke-miterlimit="4" stroke-opacity="1" stroke-width="1" d="m 102.5,91.5 -76.999991,0 z m -0.0567,-35.923473 -76.943289,-0.05745 0,48.980923 76.999989,0 z M 102.5,80.5 25.500009,80.5 M 102.5,68.5 25.500009,68.5 M 40.552163,55.627642 40.447837,104.5 M 55.51002,55.840378 55.489979,104.5 M 70.48923,55.670188 70.51077,104.5 m 14.950335,-49 0.07779,49" color="#000" display="inline" enable-background="accumulate" opacity=".2" overflow="visible" visibility="visible" style="marker:none"/><rect id="rect6741-7" width="101" height="101" x="13.5" y="16.502" fill="none" stroke="url(#linearGradient3202)" stroke-dasharray="none" stroke-dashoffset="0" stroke-linecap="round" stroke-linejoin="round" stroke-miterlimit="4" stroke-opacity="1" stroke-width="1" rx="5" ry="5"/><path d="M 18.118181,15.5 C 15.005709,15.5 12.5,18.073077 12.5,21.269231 l 0,19.230769 103,0 0,-19.230769 C 115.5,18.073077 112.99429,15.5 109.88181,15.5 z" style="marker:none" id="rect5505-21-3-8-5-2-6-1" fill="url(#linearGradient3278)" fill-opacity="1" fill-rule="nonzero" stroke="none" stroke-width="1" color="#000" display="inline" enable-background="accumulate" overflow="visible" visibility="visible"/><path id="rect5505-21-3-8-9-1-1-7-8" fill="none" stroke="#126400" stroke-dasharray="none" stroke-dashoffset="0" stroke-linecap="round" stroke-linejoin="miter" stroke-miterlimit="4" stroke-opacity="1" stroke-width="1" d="m 18.118181,15.500001 c -3.112472,0 -5.618181,2.573078 -5.618181,5.769232 l 0,19.230769 103,0 0,-19.230769 c 0,-3.196154 -2.50571,-5.769232 -5.61819,-5.769232 z" color="#000" display="inline" enable-background="accumulate" opacity=".4" overflow="visible" visibility="visible" style="marker:none"/><path id="path4682-6" fill="#fff" fill-opacity="1" fill-rule="nonzero" stroke="none" stroke-width="1.074" d="m 11.464567,11.472441 a 1.1023622,1.0472441 0 1 1 -2.2047246,0 1.1023622,1.0472441 0 1 1 2.2047246,0 z" color="#000" display="inline" enable-background="accumulate" opacity=".3" overflow="visible" transform="matrix(2.2678572,0,0,2.387218,3.9999998,1.6127831)" visibility="visible" style="marker:none"/><path id="path4682-6-1" fill="#126400" fill-opacity="1" fill-rule="nonzero" stroke="none" stroke-width="1.074" d="m 11.464567,11.472441 a 1.1023622,1.0472441 0 1 1 -2.2047246,0 1.1023622,1.0472441 0 1 1 2.2047246,0 z" color="#000" display="inline" enable-background="accumulate" opacity=".4" overflow="visible" transform="matrix(2.2678572,0,0,2.387218,3.9999998,0.61278301)" visibility="visible" style="marker:none"/><path id="rect6741-7-0" fill="none" stroke="url(#linearGradient4148)" stroke-dasharray="none" stroke-dashoffset="0" stroke-linecap="round" stroke-linejoin="round" stroke-miterlimit="4" stroke-opacity="1" stroke-width="1" d="m 18.5,16.5 c -2.77,0 -5,2.23 -5,5 l 0,18 101,0 0,-18 c 0,-2.77 -2.23,-5 -5,-5 z" opacity=".5"/><path id="path4682-6-4" fill="#fff" fill-opacity="1" fill-rule="nonzero" stroke="none" stroke-width="1.074" d="m 11.464567,11.472441 a 1.1023622,1.0472441 0 1 1 -2.2047246,0 1.1023622,1.0472441 0 1 1 2.2047246,0 z" color="#000" display="inline" enable-background="accumulate" opacity=".3" overflow="visible" transform="matrix(2.2678572,0,0,2.387218,77,1.6127829)" visibility="visible" style="marker:none"/><path id="path4682-6-1-0" fill="#126400" fill-opacity="1" fill-rule="nonzero" stroke="none" stroke-width="1.074" d="m 11.464567,11.472441 a 1.1023622,1.0472441 0 1 1 -2.2047246,0 1.1023622,1.0472441 0 1 1 2.2047246,0 z" color="#000" display="inline" enable-background="accumulate" opacity=".4" overflow="visible" transform="matrix(2.2678572,0,0,2.387218,77,0.61278291)" visibility="visible" style="marker:none"/><path id="rect4188-6-4-0-1" fill="none" stroke="#5e553c" stroke-dasharray="none" stroke-miterlimit="4" stroke-opacity="1" stroke-width="1" d="m 102.5,90.5 -76.999991,0 z m -0.0567,-35.923473 -76.943289,-0.05745 0,48.980923 76.999989,0 z M 102.5,79.5 25.500009,79.5 M 102.5,67.5 25.500009,67.5 M 40.552163,54.627642 40.447837,103.5 M 55.51002,54.840378 55.489979,103.5 M 70.48923,54.670188 70.51077,103.5 m 14.950335,-49 0.07779,49" opacity=".25"/><path id="path2262" fill="url(#radialGradient3381)" fill-opacity="1" fill-rule="nonzero" stroke="none" stroke-dasharray="none" stroke-dashoffset="0" stroke-linecap="round" stroke-linejoin="round" stroke-miterlimit="4" stroke-opacity="1" stroke-width=".985" d="M 89.507286,91.492702 V 75.485415 h 17.000004 v 16.007287 h 16.00729 V 108.49271 H 106.50729 V 124.5 H 89.507286 V 108.49271 H 73.5 V 91.492702 Z" color="#000" display="inline" enable-background="accumulate" overflow="visible" visibility="visible" style="marker:none"/><path id="path2272-4" fill="none" stroke="url(#linearGradient3030)" stroke-dasharray="none" stroke-linecap="butt" stroke-linejoin="miter" stroke-miterlimit="4" stroke-opacity="1" stroke-width="1" d="M 90.50729,93.005648 V 76.492711 h 15 v 16.487061 m 0,14.012938 v 16.5 h -15 v -16.5" display="inline" opacity=".5"/><path id="path2272-2" fill="none" stroke="url(#linearGradient3030-1)" stroke-dasharray="none" stroke-linecap="butt" stroke-linejoin="miter" stroke-miterlimit="4" stroke-opacity="1" stroke-width="1" d="m 106.00729,92.548844 15.5,-0.05434 v 14.943816 l -15.5,0.0544 m -16.000004,0 -15.5,-0.0544 V 92.494504 l 15.5,0.05434" display="inline" opacity=".5"/><path clip-rule="nonzero" style="isolation:auto;mix-blend-mode:normal;solid-color:#000;solid-opacity:1;marker:none" id="path2262-8" fill="none" fill-opacity="1" fill-rule="nonzero" stroke="#0f5a00" stroke-dasharray="none" stroke-dashoffset="0" stroke-linecap="round" stroke-linejoin="round" stroke-miterlimit="4" stroke-opacity="1" stroke-width="1" d="M 89.507286,91.492702 V 75.485415 h 17.000004 v 16.007287 h 16.00729 V 108.49271 H 106.50729 V 124.5 H 89.507286 V 108.49271 H 73.5 V 91.492702 Z" color="#000" color-interpolation="sRGB" color-interpolation-filters="linearRGB" color-rendering="auto" display="inline" enable-background="accumulate" image-rendering="auto" opacity=".5" overflow="visible" shape-rendering="auto" text-rendering="auto" visibility="visible"/></svg>