<svg xmlns="http://www.w3.org/2000/svg" xmlns:svg="http://www.w3.org/2000/svg" xmlns:xlink="http://www.w3.org/1999/xlink" id="svg26392" width="128" height="128" version="1.1"><defs id="defs26394"><linearGradient id="linearGradient5891" x1="97.539" x2="97.539" y1="16.962" y2="44.261" gradientTransform="matrix(2.6658408,0,0,2.7170994,-143.33283,-5.198823)" gradientUnits="userSpaceOnUse" xlink:href="#linearGradient8272"/><linearGradient id="linearGradient8272"><stop id="stop8274" offset="0" stop-color="#fff" stop-opacity="1"/><stop id="stop8276" offset=".022" stop-color="#fff" stop-opacity=".235"/><stop id="stop8278" offset=".979" stop-color="#fff" stop-opacity=".157"/><stop id="stop8280" offset="1" stop-color="#fff" stop-opacity=".392"/></linearGradient><linearGradient id="linearGradient5887" x1="22.935" x2="22.935" y1="49.629" y2="36.599" gradientTransform="matrix(3.036796,0,0,2.6909701,-8.8831134,-1.364613)" gradientUnits="userSpaceOnUse" xlink:href="#linearGradient6129-963-697-142-998-580-273"/><linearGradient id="linearGradient6129-963-697-142-998-580-273"><stop id="stop2661" offset="0" stop-color="#0a0a0a" stop-opacity=".498"/><stop id="stop2663" offset="1" stop-color="#0a0a0a" stop-opacity="0"/></linearGradient><linearGradient id="linearGradient5883" x1="-91" x2="-91" y1="44" y2="119.06" gradientTransform="matrix(1,0,0,1.0266674,147,-6.186593)" gradientUnits="userSpaceOnUse" xlink:href="#linearGradient4632-0-6-4"/><linearGradient id="linearGradient4632-0-6-4"><stop id="stop4634-4-4-7" offset="0" stop-color="#b4cee1" stop-opacity="1"/><stop id="stop4636-3-1-5" offset="1" stop-color="#5d9fcd" stop-opacity="1"/></linearGradient><linearGradient id="linearGradient5875" x1="302.857" x2="302.857" y1="366.648" y2="609.505" gradientTransform="matrix(0.2134205,0,0,0.06641689,-13.147881,75.518568)" gradientUnits="userSpaceOnUse" xlink:href="#linearGradient5048-585"/><linearGradient id="linearGradient5048-585"><stop id="stop2667" offset="0" stop-color="#000" stop-opacity="0"/><stop id="stop2669" offset=".5" stop-color="#000" stop-opacity="1"/><stop id="stop2671" offset="1" stop-color="#000" stop-opacity="0"/></linearGradient><radialGradient id="radialGradient5877" cx="605.714" cy="486.648" r="117.143" fx="605.714" fy="486.648" gradientTransform="matrix(0.08277507,0,0,0.06641689,65.628912,75.518568)" gradientUnits="userSpaceOnUse" xlink:href="#linearGradient5060-179"/><linearGradient id="linearGradient5060-179"><stop id="stop2675" offset="0" stop-color="#000" stop-opacity="1"/><stop id="stop2677" offset="1" stop-color="#000" stop-opacity="0"/></linearGradient><radialGradient id="radialGradient5879" cx="605.714" cy="486.648" r="117.143" fx="605.714" fy="486.648" gradientTransform="matrix(-0.08277505,0,0,0.06641689,62.347829,75.518568)" gradientUnits="userSpaceOnUse" xlink:href="#linearGradient5060-820"/><linearGradient id="linearGradient5060-820"><stop id="stop2681" offset="0" stop-color="#000" stop-opacity="1"/><stop id="stop2683" offset="1" stop-color="#000" stop-opacity="0"/></linearGradient><linearGradient id="linearGradient5873" x1="97.539" x2="97.539" y1="8.81" y2="44.261" gradientTransform="matrix(2.6658408,0,0,2.6469079,-143.33283,-2.049513)" gradientUnits="userSpaceOnUse" xlink:href="#linearGradient9235"/><linearGradient id="linearGradient9235"><stop id="stop9237" offset="0" stop-color="#fff" stop-opacity="1"/><stop id="stop9239" offset=".109" stop-color="#fff" stop-opacity=".235"/><stop id="stop9241" offset=".979" stop-color="#fff" stop-opacity=".157"/><stop id="stop9243" offset="1" stop-color="#fff" stop-opacity=".392"/></linearGradient><linearGradient id="linearGradient5869" x1="-51.786" x2="-51.786" y1="53.514" y2="3.634" gradientTransform="matrix(2.1683519,0,0,2.2464645,141.9485,-4.590473)" gradientUnits="userSpaceOnUse" xlink:href="#linearGradient3104-8-8-97-4-6-11-5-5-1-0"/><linearGradient id="linearGradient3104-8-8-97-4-6-11-5-5-1-0"><stop id="stop3106-5-4-3-5-0-2-1-0-1-2" offset="0" stop-color="#000" stop-opacity=".322"/><stop id="stop3108-4-3-7-8-2-0-7-9-4-9" offset="1" stop-color="#000" stop-opacity=".278"/></linearGradient><linearGradient id="linearGradient6404-7-5"><stop id="stop6406-1-8" offset="0" stop-color="#f9f9f9" stop-opacity="1"/><stop id="stop6408-9-6" offset="1" stop-color="#c9c9c9" stop-opacity="1"/></linearGradient><linearGradient id="linearGradient26390" x1="62.989" x2="62.989" y1="14.091" y2="16.998" gradientTransform="matrix(2.7209303,0,0,2.6722576,-117.2202,-2.213873)" gradientUnits="userSpaceOnUse" xlink:href="#linearGradient6404-7-5"/><radialGradient id="radialGradient3381" cx="66.127" cy="48.768" r="31" fx="66.127" fy="48.768" gradientTransform="matrix(0,2.4235253,-2.6392787,0,226.36903,-84.88818)" gradientUnits="userSpaceOnUse" xlink:href="#linearGradient3242-7-3-8-0-4-58-06"/><linearGradient id="linearGradient3242-7-3-8-0-4-58-06"><stop id="stop3244-5-8-5-6-4-3-8" offset="0" stop-color="#cdf87e" stop-opacity="1"/><stop id="stop3246-9-5-1-5-3-0-7" offset=".262" stop-color="#a2e34f" stop-opacity="1"/><stop id="stop3248-7-2-0-7-5-35-9" offset=".661" stop-color="#68b723" stop-opacity="1"/><stop id="stop3250-8-2-8-5-6-40-4" offset="1" stop-color="#1d7e0d" stop-opacity="1"/></linearGradient><linearGradient id="linearGradient3030-3" x1="24.139" x2="24.139" y1="9.176" y2="37.13" gradientTransform="matrix(2.1134672,0,0,1.645562,50.724212,61.899946)" gradientUnits="userSpaceOnUse" xlink:href="#linearGradient4361"/><linearGradient id="linearGradient4361"><stop id="stop4363" offset="0" stop-color="#fff" stop-opacity="1"/><stop id="stop4365" offset="0" stop-color="#fff" stop-opacity=".235"/><stop id="stop4367" offset="1" stop-color="#fff" stop-opacity=".157"/><stop id="stop4369" offset="1" stop-color="#fff" stop-opacity=".392"/></linearGradient><linearGradient id="linearGradient3030-1" x1="24.139" x2="24.139" y1="19.795" y2="26.485" gradientTransform="matrix(1.6592445,0,0,2.0928522,60.832154,51.571789)" gradientUnits="userSpaceOnUse" xlink:href="#linearGradient4351"/><linearGradient id="linearGradient4351"><stop id="stop4353" offset="0" stop-color="#fff" stop-opacity="1"/><stop id="stop4355" offset="0" stop-color="#fff" stop-opacity=".235"/><stop id="stop4357" offset="1" stop-color="#fff" stop-opacity=".157"/><stop id="stop4359" offset="1" stop-color="#fff" stop-opacity=".392"/></linearGradient></defs><metadata id="metadata26397"/><path id="rect8678-4" fill="url(#linearGradient26390)" fill-opacity="1" fill-rule="nonzero" stroke="none" stroke-width="1" d="m 12.999997,21.031407 c -1.108,0 -2,0.892 -2,2 l 0,5.96875 -3.0000004,0 c -1.108,0 -2,0.892 -2,2 l 0,11 c 0,1.108 0.892,2 2,2 l 112.0000034,0 c 1.108,0 2,-0.892 2,-2 l 0,-11 c 0,-1.108 -0.892,-2 -2,-2 l -62.999999,0 0,-5.96875 c 0,-1.108 -0.892,-2 -2,-2 l -42.000004,0 z" color="#000" display="inline" enable-background="accumulate" overflow="visible" visibility="visible" style="marker:none"/><path id="path3468" fill="none" stroke="url(#linearGradient5869)" stroke-dasharray="none" stroke-dashoffset="0" stroke-linecap="butt" stroke-linejoin="miter" stroke-miterlimit="4" stroke-opacity="1" stroke-width="1" d="m 13.662787,20.500317 c -1.87818,0.0205 -3.16279,0.9143 -3.16279,2.67225 l 0,5.32743 c -0.9606004,0 -1.4771004,-0.003 -2.1044004,0 -1.67856,0.008 -2.87762,0.94491 -2.87762,2.83298 0.0936,27.49765 -0.018,28.92194 -0.018,31.25655 3.90581,0 117.0000034,-9.88664 117.0000034,-14.1423 l 0,-17.14209 c 0,-1.75796 -1.15786,-2.82564 -3.03605,-2.80514 l -61.963949,0 0,-5.19887 c 0,-1.75795 -1.18743,-2.80081 -2.94827,-2.80081 l -40.888944,0 z" color="#000" display="inline" enable-background="accumulate" opacity=".8" overflow="visible" visibility="visible" style="marker:none"/><path id="rect8678" fill="none" stroke="url(#linearGradient5873)" stroke-dasharray="none" stroke-dashoffset="0" stroke-linecap="round" stroke-linejoin="round" stroke-miterlimit="4" stroke-opacity="1" stroke-width="1" d="m 13.499997,21.500157 c -1.108,0 -2,0.892 -2,2 l 0,6 -3.0000004,0 c -1.108,0 -2,0.892 -2,2 l 0,11 c 0,1.108 0.892,2 2,2 l 111.0000034,0 c 1.108,0 2,-0.892 2,-2 l 0,-11 c 0,-1.108 -0.892,-2 -2,-2 l -62.999999,0 0,-6 c 0,-1.108 -0.892,-2 -2,-2 l -41.000004,0 z" color="#000" display="inline" enable-background="accumulate" overflow="visible" visibility="visible" style="marker:none"/><g id="g2479" transform="matrix(1.0027339,0,0,0.9919518,-0.16331336,6.933597)"><rect id="rect4173" width="103.052" height="16.13" x="12.463" y="99.87" fill="url(#linearGradient5875)" fill-opacity="1" fill-rule="nonzero" stroke="none" stroke-width="1" display="inline" opacity=".3" overflow="visible" visibility="visible" style="marker:none"/><path id="path5058" fill="url(#radialGradient5877)" fill-opacity="1" fill-rule="nonzero" stroke="none" stroke-width="1" d="m 115.51417,99.870734 c 0,0 0,16.128926 0,16.128926 4.26271,0.0304 10.30516,-3.61367 10.30516,-8.0655 0,-4.45183 -4.75687,-8.063426 -10.30516,-8.063426 z" display="inline" opacity=".3" overflow="visible" visibility="visible" style="marker:none"/><path id="path5018" fill="url(#radialGradient5879)" fill-opacity="1" fill-rule="nonzero" stroke="none" stroke-width="1" d="m 12.462574,99.870734 c 0,0 0,16.128926 0,16.128926 -4.2627113,0.0304 -10.3051588,-3.61367 -10.3051588,-8.0655 0,-4.45183 4.7568636,-8.063426 10.3051588,-8.063426 z" display="inline" opacity=".3" overflow="visible" visibility="visible" style="marker:none"/></g><path id="path3369" fill="url(#linearGradient5883)" fill-opacity="1" fill-rule="nonzero" stroke="none" stroke-width="1" d="m 6.2499966,39.499947 115.4999934,10e-4 c 1.66861,0 2.75001,1.18375 2.75001,2.65543 l -2.71648,71.780683 c 0.0386,1.86211 -0.55015,2.60044 -2.48884,2.56139 L 9.3616366,116.45175 c -1.66859,0 -3.35116,-1.09895 -3.35116,-2.57064 l -2.51048,-71.724693 c 0,-1.47169 1.0814,-2.65647 2.75,-2.65647 z" display="inline" enable-background="accumulate" overflow="visible" visibility="visible" style="marker:none"/><path id="path6127" fill="url(#linearGradient5887)" fill-opacity="1" stroke="none" d="m 5.7727166,38.999937 116.4545434,10e-4 c 1.6824,0 2.77274,1.19912 2.77274,2.68993 l -2.73893,72.712903 c 0.0389,1.88629 -0.5547,2.63421 -2.50941,2.59465 L 8.9100766,116.95102 c -1.68238,0 -3.37885,-1.11323 -3.37885,-2.60404 l -2.53123,-72.656073 c 0,-1.4908 1.09034,-2.69097 2.77272,-2.69097 z" opacity=".4"/><path id="path8263" fill="none" stroke="url(#linearGradient5891)" stroke-dasharray="none" stroke-dashoffset="0" stroke-linecap="round" stroke-linejoin="round" stroke-miterlimit="4" stroke-opacity="1" stroke-width="1" d="m 6.2499966,40.500147 c -2.84882,0.29656 -1.40933,3.76689 -1.63989,5.72017 0.78584,22.54795 1.57466,45.09583 2.35864,67.643813 1.18868,2.48974 4.4300904,1.28205 6.6383204,1.57433 35.235146,0.0205 70.470294,0.0412 105.705433,0.0617 2.566,-0.16531 1.15721,-3.81803 1.65357,-5.65555 0.85465,-22.569493 2.54292,-67.571353 2.54292,-67.571353 0,-1.16209 -0.77992,-1.7731 -2.20738,-1.7731 -37.089309,0 -77.962299,0 -115.0516134,0 z" display="inline" enable-background="accumulate" opacity=".5" overflow="visible" visibility="visible" style="marker:none"/><path id="path3369-7" fill="none" stroke="#000" stroke-dasharray="none" stroke-dashoffset="0" stroke-linecap="round" stroke-linejoin="round" stroke-miterlimit="4" stroke-opacity="1" stroke-width="1" d="m 6.2499966,39.499947 115.4999934,10e-4 c 1.66861,0 2.75001,1.18375 2.75001,2.65543 l -2.71648,71.780683 c 0.0386,1.86211 -0.55015,2.60044 -2.48884,2.56139 L 9.3616366,116.45175 c -1.66859,0 -3.35116,-1.09895 -3.35116,-2.57064 l -2.51048,-71.724693 c 0,-1.47169 1.0814,-2.65647 2.75,-2.65647 z" display="inline" enable-background="accumulate" opacity=".3" overflow="visible" visibility="visible" style="marker:none"/><g id="g4390"><path id="path2262" fill="url(#radialGradient3381)" fill-opacity="1" fill-rule="nonzero" stroke="none" stroke-dasharray="none" stroke-dashoffset="0" stroke-linecap="round" stroke-linejoin="round" stroke-miterlimit="4" stroke-opacity="1" stroke-width=".985" d="m 89.5,91.499992 0,-16.007287 17,0 0,16.007287 16.00729,0 0,17.000008 -16.00729,0 0,16.00729 -17,0 0,-16.00729 -16.007286,0 0,-17.000008 16.007286,0 z" color="#000" display="inline" enable-background="accumulate" overflow="visible" visibility="visible" style="marker:none"/><path id="path2272-4" fill="none" stroke="url(#linearGradient3030-3)" stroke-dasharray="none" stroke-linecap="butt" stroke-linejoin="miter" stroke-miterlimit="4" stroke-opacity="1" stroke-width="1" d="m 90.500004,93.012938 0,-16.512937 14.999996,0 0,16.487061 m 0,14.012938 0,16.5 -14.999996,0 0,-16.5" display="inline" opacity=".5"/><path id="path2272-2" fill="none" stroke="url(#linearGradient3030-1)" stroke-dasharray="none" stroke-linecap="butt" stroke-linejoin="miter" stroke-miterlimit="4" stroke-opacity="1" stroke-width="1" d="m 106,92.556134 15.5,-0.05434 0,14.943816 -15.5,0.0544 m -16,0 -15.5,-0.0544 0,-14.943816 15.5,0.05434" display="inline" opacity=".5"/><path clip-rule="nonzero" style="isolation:auto;mix-blend-mode:normal;solid-color:#000;solid-opacity:1;marker:none" id="path2262-8" fill="none" fill-opacity="1" fill-rule="nonzero" stroke="#0f5a00" stroke-dasharray="none" stroke-dashoffset="0" stroke-linecap="round" stroke-linejoin="round" stroke-miterlimit="4" stroke-opacity="1" stroke-width="1" d="m 89.5,91.499992 0,-16.007287 17,0 0,16.007287 16.00729,0 0,17.000008 -16.00729,0 0,16.00729 -17,0 0,-16.00729 -16.007286,0 0,-17.000008 16.007286,0 z" color="#000" color-interpolation="sRGB" color-interpolation-filters="linearRGB" color-rendering="auto" display="inline" enable-background="accumulate" image-rendering="auto" opacity=".5" overflow="visible" shape-rendering="auto" text-rendering="auto" visibility="visible"/></g></svg>