<svg xmlns="http://www.w3.org/2000/svg" xmlns:svg="http://www.w3.org/2000/svg" xmlns:xlink="http://www.w3.org/1999/xlink" id="svg3767" width="128" height="128" version="1.1"><defs id="defs3769"><linearGradient id="linearGradient2673"><stop id="stop2669" offset="0" stop-color="#fff" stop-opacity="1"/><stop id="stop2671" offset="1" stop-color="#fff" stop-opacity="0"/></linearGradient><radialGradient id="radialGradient3381" cx="66.127" cy="48.768" r="31" fx="66.127" fy="48.768" gradientTransform="matrix(0,2.4235253,-2.6392787,0,226.36903,-84.88818)" gradientUnits="userSpaceOnUse" xlink:href="#linearGradient3242-7-3-8-0-4-58-06"/><linearGradient id="linearGradient3242-7-3-8-0-4-58-06"><stop id="stop3244-5-8-5-6-4-3-8" offset="0" stop-color="#cdf87e" stop-opacity="1"/><stop id="stop3246-9-5-1-5-3-0-7" offset=".262" stop-color="#a2e34f" stop-opacity="1"/><stop id="stop3248-7-2-0-7-5-35-9" offset=".661" stop-color="#68b723" stop-opacity="1"/><stop id="stop3250-8-2-8-5-6-40-4" offset="1" stop-color="#1d7e0d" stop-opacity="1"/></linearGradient><linearGradient id="linearGradient3030" x1="24.139" x2="24.139" y1="9.176" y2="37.13" gradientTransform="matrix(2.1134672,0,0,1.645562,50.724212,61.899946)" gradientUnits="userSpaceOnUse" xlink:href="#linearGradient4361"/><linearGradient id="linearGradient4361"><stop id="stop4363" offset="0" stop-color="#fff" stop-opacity="1"/><stop id="stop4365" offset="0" stop-color="#fff" stop-opacity=".235"/><stop id="stop4367" offset="1" stop-color="#fff" stop-opacity=".157"/><stop id="stop4369" offset="1" stop-color="#fff" stop-opacity=".392"/></linearGradient><linearGradient id="linearGradient3030-1" x1="24.139" x2="24.139" y1="19.795" y2="26.485" gradientTransform="matrix(1.6592445,0,0,2.0928522,60.832154,51.571789)" gradientUnits="userSpaceOnUse" xlink:href="#linearGradient4351"/><linearGradient id="linearGradient4351"><stop id="stop4353" offset="0" stop-color="#fff" stop-opacity="1"/><stop id="stop4355" offset="0" stop-color="#fff" stop-opacity=".235"/><stop id="stop4357" offset="1" stop-color="#fff" stop-opacity=".157"/><stop id="stop4359" offset="1" stop-color="#fff" stop-opacity=".392"/></linearGradient><linearGradient id="linearGradient2002" x1="106.5" x2="163.5" y1="139" y2="139" gradientTransform="translate(-17.603891,-90.449122)" gradientUnits="userSpaceOnUse" xlink:href="#linearGradient1893"/><linearGradient id="linearGradient1893"><stop id="stop1889" offset="0" stop-color="#000" stop-opacity="1"/><stop id="stop1891" offset="1" stop-color="#fff" stop-opacity="1"/></linearGradient><linearGradient id="linearGradient2006" x1="106.5" x2="163.5" y1="139" y2="139" gradientTransform="translate(-91.603891,-90.449122)" gradientUnits="userSpaceOnUse" xlink:href="#linearGradient1893"/><linearGradient id="linearGradient2016" x1="80" x2="107" y1="139" y2="139" gradientTransform="translate(-17.603891,-90.449122)" gradientUnits="userSpaceOnUse" xlink:href="#linearGradient1893"/><linearGradient id="linearGradient2675" x1="118.58" x2="78.982" y1="10.367" y2="49.965" gradientUnits="userSpaceOnUse" xlink:href="#linearGradient2673"/><linearGradient id="linearGradient2677" x1="89.589" x2="117.873" y1="49.258" y2="20.974" gradientUnits="userSpaceOnUse" xlink:href="#linearGradient2673"/><linearGradient id="linearGradient2679" x1="80.396" x2="52.112" y1="20.267" y2="48.551" gradientUnits="userSpaceOnUse" xlink:href="#linearGradient2673"/><linearGradient id="linearGradient2681" x1="80.396" x2="40.798" y1="45.722" y2="85.32" gradientUnits="userSpaceOnUse" xlink:href="#linearGradient2673"/><linearGradient id="linearGradient2683" x1="43.627" x2="71.911" y1="76.835" y2="48.551" gradientUnits="userSpaceOnUse" xlink:href="#linearGradient2673"/><radialGradient id="radialGradient3300-4-6" cx="99.189" cy="185.297" r="62.769" fx="99.189" fy="185.297" gradientTransform="matrix(0.1911768,7.5557405e-8,0,0.11152219,1.0372874,35.333972)" gradientUnits="userSpaceOnUse" xlink:href="#linearGradient3820-7-2"/><linearGradient id="linearGradient3820-7-2"><stop id="stop3822-2-6" offset="0" stop-color="#000" stop-opacity="1"/><stop id="stop3824-1-2" offset="1" stop-color="#000" stop-opacity="0"/></linearGradient><radialGradient id="radialGradient4192-7" cx="99.189" cy="185.297" r="62.769" fx="99.189" fy="185.297" gradientTransform="matrix(0.1274512,5.3979431e-8,0,0.07967326,7.3581915,43.235667)" gradientUnits="userSpaceOnUse" xlink:href="#linearGradient3820-7-2"/></defs><metadata id="metadata3772"/><g id="g312" stroke-width=".5" transform="matrix(2,0,0,2,-8.0000004,-5.3597202e-4)"><path id="path3818-0" fill="url(#radialGradient3300-4-6)" fill-opacity="1" stroke="none" stroke-width=".5" d="m 32,56.000268 a 12,6.9987222 0 1 1 -23.9999996,0 12,6.9987222 0 1 1 23.9999996,0 z" opacity=".2"/><path id="path4190" fill="url(#radialGradient4192-7)" fill-opacity="1" stroke="none" stroke-width=".5" d="m 28,58.000002 a 8,5.0000002 0 1 1 -16,0 8,5.0000002 0 1 1 16,0 z" opacity=".4"/></g><g id="g4390" transform="translate(0.007286,-0.00729)"><path id="path2262" fill="url(#radialGradient3381)" fill-opacity="1" fill-rule="nonzero" stroke="none" stroke-dasharray="none" stroke-dashoffset="0" stroke-linecap="round" stroke-linejoin="round" stroke-miterlimit="4" stroke-opacity="1" stroke-width=".985" d="m 89.5,91.499992 0,-16.007287 17,0 0,16.007287 16.00729,0 0,17.000008 -16.00729,0 0,16.00729 -17,0 0,-16.00729 -16.007286,0 0,-17.000008 16.007286,0 z" color="#000" display="inline" enable-background="accumulate" overflow="visible" visibility="visible" style="marker:none"/><path id="path2272-4" fill="none" stroke="url(#linearGradient3030)" stroke-dasharray="none" stroke-linecap="butt" stroke-linejoin="miter" stroke-miterlimit="4" stroke-opacity="1" stroke-width="1" d="m 90.500004,93.012938 0,-16.512937 14.999996,0 0,16.487061 m 0,14.012938 0,16.5 -14.999996,0 0,-16.5" display="inline" opacity=".5"/><path id="path2272-2" fill="none" stroke="url(#linearGradient3030-1)" stroke-dasharray="none" stroke-linecap="butt" stroke-linejoin="miter" stroke-miterlimit="4" stroke-opacity="1" stroke-width="1" d="m 106,92.556134 15.5,-0.05434 0,14.943816 -15.5,0.0544 m -16,0 -15.5,-0.0544 0,-14.943816 15.5,0.05434" display="inline" opacity=".5"/><path clip-rule="nonzero" style="isolation:auto;mix-blend-mode:normal;solid-color:#000;solid-opacity:1;marker:none" id="path2262-8" fill="none" fill-opacity="1" fill-rule="nonzero" stroke="#0f5a00" stroke-dasharray="none" stroke-dashoffset="0" stroke-linecap="round" stroke-linejoin="round" stroke-miterlimit="4" stroke-opacity="1" stroke-width="1" d="m 89.5,91.499992 0,-16.007287 17,0 0,16.007287 16.00729,0 0,17.000008 -16.00729,0 0,16.00729 -17,0 0,-16.00729 -16.007286,0 0,-17.000008 16.007286,0 z" color="#000" color-interpolation="sRGB" color-interpolation-filters="linearRGB" color-rendering="auto" display="inline" enable-background="accumulate" image-rendering="auto" opacity=".5" overflow="visible" shape-rendering="auto" text-rendering="auto" visibility="visible"/></g><g id="g2120" transform="rotate(-45,90.847046,76.067397)"><path id="rect1962" fill="#d4d4d4" fill-opacity="1" stroke="#000" stroke-linecap="round" stroke-linejoin="bevel" stroke-opacity=".427" stroke-width="1" d="m 28.896109,28.050877 c -7.756,0 -14,6.244 -14,14 v 13 c 0,7.756 6.244,14 14,14 h 28.999996 c 7.756,0 14,-6.244 14,-14 v -13 c 0,-7.756 -6.244,-14 -14,-14 z m 1,10 h 26.999996 c 2.77,0 5,2.23 5,5 v 11 c 0,2.77 -2.23,5 -5,5 H 29.896109 c -2.77,0 -5,-2.23 -5,-5 v -11 c 0,-2.77 2.23,-5 5,-5 z" opacity="1"/><path id="rect1972" fill="#d4d4d4" fill-opacity="1" stroke="#000" stroke-linecap="round" stroke-linejoin="bevel" stroke-opacity=".427" stroke-width="1" d="m 102.89611,28.050877 c -7.756005,0 -14.000005,6.244 -14.000005,14 v 13 c 0,7.756 6.244,14 14.000005,14 h 29 c 7.756,0 14,-6.244 14,-14 v -13 c 0,-7.756 -6.244,-14 -14,-14 z m 1,10 h 27 c 2.77,0 5,2.23 5,5 v 11 c 0,2.77 -2.23,5 -5,5 h -27 c -2.77,0 -5.000005,-2.23 -5.000005,-5 v -11 c 0,-2.77 2.230005,-5 5.000005,-5 z" opacity="1"/><path id="path1994" fill="url(#linearGradient2002)" fill-opacity="1" stroke="none" stroke-linecap="round" stroke-linejoin="bevel" stroke-opacity=".427" stroke-width="1" d="m 102.89611,28.050877 c -7.756005,0 -14.000005,6.244 -14.000005,14 v 13 c 0,7.756 6.244,14 14.000005,14 h 29 c 7.756,0 14,-6.244 14,-14 v -13 c 0,-7.756 -6.244,-14 -14,-14 z m 1,10 h 27 c 2.77,0 5,2.23 5,5 v 11 c 0,2.77 -2.23,5 -5,5 h -27 c -2.77,0 -5.000005,-2.23 -5.000005,-5 v -11 c 0,-2.77 2.230005,-5 5.000005,-5 z" opacity=".2"/><path id="path2004" fill="url(#linearGradient2006)" fill-opacity="1" stroke="none" stroke-linecap="round" stroke-linejoin="bevel" stroke-opacity=".427" stroke-width="1" d="m 28.896109,28.050877 c -7.756,0 -14,6.244 -14,14 v 13 c 0,7.756 6.244,14 14,14 h 28.999996 c 7.756,0 14,-6.244 14,-14 v -13 c 0,-7.756 -6.244,-14 -14,-14 z m 1,10 h 26.999996 c 2.77,0 5,2.23 5,5 v 11 c 0,2.77 -2.23,5 -5,5 H 29.896109 c -2.77,0 -5,-2.23 -5,-5 v -11 c 0,-2.77 2.23,-5 5,-5 z" opacity=".2"/><rect id="rect2018" width="55" height="39" x="89.896" y="29.051" fill="none" fill-opacity="1" stroke="url(#linearGradient2675)" stroke-linecap="round" stroke-linejoin="bevel" stroke-opacity="1" stroke-width="1" opacity=".4" rx="13" ry="13"/><rect id="rect2020" width="39" height="23" x="97.896" y="37.051" fill="none" fill-opacity="1" stroke="url(#linearGradient2677)" stroke-linecap="round" stroke-linejoin="bevel" stroke-opacity="1" stroke-width="1" opacity=".4" rx="6" ry="6"/><rect id="rect2022" width="55" height="39" x="15.896" y="29.051" fill="none" fill-opacity="1" stroke="url(#linearGradient2681)" stroke-linecap="round" stroke-linejoin="bevel" stroke-opacity="1" stroke-width="1" opacity=".4" rx="13" ry="13"/><rect id="rect2024" width="39" height="23" x="23.896" y="37.051" fill="none" fill-opacity="1" stroke="url(#linearGradient2683)" stroke-linecap="round" stroke-linejoin="bevel" stroke-opacity="1" stroke-width="1" opacity=".4" rx="6" ry="6"/><rect id="rect1970" width="55" height="11" x="52.896" y="43.051" fill="#d4d4d4" fill-opacity="1" stroke="#000" stroke-linecap="round" stroke-linejoin="bevel" stroke-opacity=".427" stroke-width="1" opacity="1" rx="6" ry="6"/><rect id="rect2008" width="55" height="11" x="52.896" y="43.051" fill="url(#linearGradient2016)" fill-opacity="1" stroke="none" stroke-linecap="round" stroke-linejoin="bevel" stroke-opacity=".427" stroke-width="1" opacity=".2" rx="6" ry="6"/><rect id="rect2026" width="53" height="9" x="53.896" y="44.051" fill="none" fill-opacity="1" stroke="url(#linearGradient2679)" stroke-linecap="round" stroke-linejoin="bevel" stroke-opacity="1" stroke-width="1" opacity=".4" rx="5" ry="5"/></g></svg>