<svg xmlns="http://www.w3.org/2000/svg" xmlns:svg="http://www.w3.org/2000/svg" xmlns:xlink="http://www.w3.org/1999/xlink" id="svg5157" width="128" height="128" version="1.1"><defs id="defs5159"><linearGradient id="linearGradient862"><stop id="stop858" offset="0" stop-color="#cd9ef7" stop-opacity="1"/><stop id="stop860" offset="1" stop-color="#a56de2" stop-opacity="1"/></linearGradient><linearGradient id="linearGradient3820-7-2-8-6"><stop id="stop3822-2-6-5-0" offset="0" stop-color="#3d3d3d" stop-opacity="1"/><stop id="stop3864-8-7-4-1" offset=".5" stop-color="#686868" stop-opacity=".498"/><stop id="stop3824-1-2-6-7" offset="1" stop-color="#686868" stop-opacity="0"/></linearGradient><linearGradient id="linearGradient4806"><stop id="stop4808" offset="0" stop-color="#fff" stop-opacity="1"/><stop id="stop4810" offset=".424" stop-color="#fff" stop-opacity=".235"/><stop id="stop4812" offset=".821" stop-color="#fff" stop-opacity=".157"/><stop id="stop4814" offset="1" stop-color="#fff" stop-opacity=".392"/></linearGradient><linearGradient id="linearGradient3118" x1="71.204" x2="71.204" y1="15.369" y2="40.496" gradientTransform="matrix(4.16388,0,0,4.16388,-236.03265,-50.534426)" gradientUnits="userSpaceOnUse" xlink:href="#linearGradient4806"/><radialGradient id="radialGradient3163" cx="99.157" cy="186.171" r="62.769" fx="99.157" fy="186.171" gradientTransform="matrix(0.6869404,0,0,0.21461693,-4.02174,68.573331)" gradientUnits="userSpaceOnUse" xlink:href="#linearGradient3820-7-2-8-6"/><linearGradient id="linearGradient3242-7-3-8-0-4-58-06"><stop id="stop3244-5-8-5-6-4-3-8" offset="0" stop-color="#cdf87e" stop-opacity="1"/><stop id="stop3246-9-5-1-5-3-0-7" offset=".262" stop-color="#a2e34f" stop-opacity="1"/><stop id="stop3248-7-2-0-7-5-35-9" offset=".661" stop-color="#68b723" stop-opacity="1"/><stop id="stop3250-8-2-8-5-6-40-4" offset="1" stop-color="#1d7e0d" stop-opacity="1"/></linearGradient><radialGradient id="radialGradient3381" cx="66.127" cy="48.768" r="31" fx="66.127" fy="48.768" gradientTransform="matrix(0,2.4235253,-2.6392787,0,226.36903,-84.88818)" gradientUnits="userSpaceOnUse" xlink:href="#linearGradient3242-7-3-8-0-4-58-06"/><linearGradient id="linearGradient3030" x1="24.139" x2="24.139" y1="9.176" y2="37.13" gradientTransform="matrix(2.1134672,0,0,1.645562,50.724212,61.899946)" gradientUnits="userSpaceOnUse" xlink:href="#linearGradient4361"/><linearGradient id="linearGradient4361"><stop id="stop4363" offset="0" stop-color="#fff" stop-opacity="1"/><stop id="stop4365" offset="0" stop-color="#fff" stop-opacity=".235"/><stop id="stop4367" offset="1" stop-color="#fff" stop-opacity=".157"/><stop id="stop4369" offset="1" stop-color="#fff" stop-opacity=".392"/></linearGradient><linearGradient id="linearGradient3030-1" x1="24.139" x2="24.139" y1="19.795" y2="26.485" gradientTransform="matrix(1.6592445,0,0,2.0928522,60.832154,51.571789)" gradientUnits="userSpaceOnUse" xlink:href="#linearGradient4351"/><linearGradient id="linearGradient4351"><stop id="stop4353" offset="0" stop-color="#fff" stop-opacity="1"/><stop id="stop4355" offset="0" stop-color="#fff" stop-opacity=".235"/><stop id="stop4357" offset="1" stop-color="#fff" stop-opacity=".157"/><stop id="stop4359" offset="1" stop-color="#fff" stop-opacity=".392"/></linearGradient><linearGradient id="linearGradient864" x1="12" x2="117" y1="65.5" y2="65.5" gradientTransform="rotate(90,64.5,65.499999)" gradientUnits="userSpaceOnUse" xlink:href="#linearGradient862"/></defs><metadata id="metadata5162"/><path id="path3818-0-5-0" fill="url(#radialGradient3163)" fill-opacity="1" stroke="none" d="m 107.21186,108.52868 c 0.005,7.44114 -19.301247,13.47421 -43.118643,13.47421 -23.817396,0 -43.123773,-6.03307 -43.118643,-13.47421 -0.0051,-7.44114 19.801244,-13.474207 43.61864,-13.474207 23.817396,0 42.623776,6.033067 42.618646,13.474207 z"/><path d="M 116.5,65.499996 C 116.5,94.191808 93.191812,117.5 64.499997,117.5 35.808189,117.5 12.499988,94.191808 12.499998,65.499996 c 0,-28.691807 23.308191,-52.000017 51.999999,-51.999997 28.691815,0 52.000003,23.30819 52.000003,51.999997 z" style="marker:none" id="path2555-7-65-3" fill="url(#linearGradient864)" fill-opacity="1" fill-rule="nonzero" stroke="#7239b3" stroke-opacity=".498" stroke-width="1" color="#000" display="inline" enable-background="accumulate" overflow="visible" visibility="visible"/><path id="path3019" fill="none" stroke="url(#linearGradient3118)" stroke-dasharray="none" stroke-dashoffset="0" stroke-linecap="round" stroke-linejoin="round" stroke-miterlimit="4" stroke-opacity="1" stroke-width="1" d="m 115.5,65.500001 c 0,28.166516 -22.833502,50.999989 -51.000026,50.999989 -28.166487,0 -50.999973,-22.833473 -50.999973,-50.999989 0,-28.166517 22.833486,-50.999991 50.999973,-50.999991 28.166524,0 51.000026,22.833474 51.000026,50.999991 z" color="#000" display="inline" enable-background="accumulate" opacity=".7" overflow="visible" visibility="visible" style="marker:none"/><g id="g4390" transform="translate(0.007286,-0.00729)"><path id="path2262" fill="url(#radialGradient3381)" fill-opacity="1" fill-rule="nonzero" stroke="none" stroke-dasharray="none" stroke-dashoffset="0" stroke-linecap="round" stroke-linejoin="round" stroke-miterlimit="4" stroke-opacity="1" stroke-width=".985" d="m 89.5,91.499992 0,-16.007287 17,0 0,16.007287 16.00729,0 0,17.000008 -16.00729,0 0,16.00729 -17,0 0,-16.00729 -16.007286,0 0,-17.000008 16.007286,0 z" color="#000" display="inline" enable-background="accumulate" overflow="visible" visibility="visible" style="marker:none"/><path id="path2272-4" fill="none" stroke="url(#linearGradient3030)" stroke-dasharray="none" stroke-linecap="butt" stroke-linejoin="miter" stroke-miterlimit="4" stroke-opacity="1" stroke-width="1" d="m 90.500004,93.012938 0,-16.512937 14.999996,0 0,16.487061 m 0,14.012938 0,16.5 -14.999996,0 0,-16.5" display="inline" opacity=".5"/><path id="path2272-2" fill="none" stroke="url(#linearGradient3030-1)" stroke-dasharray="none" stroke-linecap="butt" stroke-linejoin="miter" stroke-miterlimit="4" stroke-opacity="1" stroke-width="1" d="m 106,92.556134 15.5,-0.05434 0,14.943816 -15.5,0.0544 m -16,0 -15.5,-0.0544 0,-14.943816 15.5,0.05434" display="inline" opacity=".5"/><path clip-rule="nonzero" style="isolation:auto;mix-blend-mode:normal;solid-color:#000;solid-opacity:1;marker:none" id="path2262-8" fill="none" fill-opacity="1" fill-rule="nonzero" stroke="#0f5a00" stroke-dasharray="none" stroke-dashoffset="0" stroke-linecap="round" stroke-linejoin="round" stroke-miterlimit="4" stroke-opacity="1" stroke-width="1" d="m 89.5,91.499992 0,-16.007287 17,0 0,16.007287 16.00729,0 0,17.000008 -16.00729,0 0,16.00729 -17,0 0,-16.00729 -16.007286,0 0,-17.000008 16.007286,0 z" color="#000" color-interpolation="sRGB" color-interpolation-filters="linearRGB" color-rendering="auto" display="inline" enable-background="accumulate" image-rendering="auto" opacity=".5" overflow="visible" shape-rendering="auto" text-rendering="auto" visibility="visible"/></g></svg>