<svg xmlns="http://www.w3.org/2000/svg" xmlns:svg="http://www.w3.org/2000/svg" xmlns:xlink="http://www.w3.org/1999/xlink" id="svg5157" width="128" height="128" version="1.1"><defs id="defs5159"><linearGradient id="linearGradient3820-7-2-8-6"><stop id="stop3822-2-6-5-0" offset="0" stop-color="#3d3d3d" stop-opacity="1"/><stop id="stop3864-8-7-4-1" offset=".5" stop-color="#686868" stop-opacity=".498"/><stop id="stop3824-1-2-6-7" offset="1" stop-color="#686868" stop-opacity="0"/></linearGradient><linearGradient id="linearGradient4806"><stop id="stop4808" offset="0" stop-color="#fff" stop-opacity="1"/><stop id="stop4810" offset=".424" stop-color="#fff" stop-opacity=".235"/><stop id="stop4812" offset=".821" stop-color="#fff" stop-opacity=".157"/><stop id="stop4814" offset="1" stop-color="#fff" stop-opacity=".392"/></linearGradient><linearGradient id="linearGradient3118" x1="71.204" x2="71.204" y1="15.369" y2="40.496" gradientTransform="matrix(4.16388,0,0,4.16388,-236.03265,-50.534426)" gradientUnits="userSpaceOnUse" xlink:href="#linearGradient4806"/><radialGradient id="radialGradient3163" cx="99.157" cy="186.171" r="62.769" fx="99.157" fy="186.171" gradientTransform="matrix(0.6869404,0,0,0.21461693,-4.02174,68.573331)" gradientUnits="userSpaceOnUse" xlink:href="#linearGradient3820-7-2-8-6"/><radialGradient id="radialGradient3022" cx="21.995" cy="4.038" r="20.397" fx="21.995" fy="4.038" gradientTransform="matrix(0,7.3851891,-9.7483181,0,103.39581,-165.08013)" gradientUnits="userSpaceOnUse" xlink:href="#linearGradient3242-7-3-8-0-4-58-06"/><linearGradient id="linearGradient3242-7-3-8-0-4-58-06"><stop id="stop3244-5-8-5-6-4-3-8" offset="0" stop-color="#cdf87e" stop-opacity="1"/><stop id="stop3246-9-5-1-5-3-0-7" offset=".262" stop-color="#a2e34f" stop-opacity="1"/><stop id="stop3248-7-2-0-7-5-35-9" offset=".661" stop-color="#68b723" stop-opacity="1"/><stop id="stop3250-8-2-8-5-6-40-4" offset="1" stop-color="#1d7e0d" stop-opacity="1"/></linearGradient></defs><metadata id="metadata5162"/><path id="path3818-0-5-0" fill="url(#radialGradient3163)" fill-opacity="1" stroke="none" d="m 107.21186,108.52868 c 0.005,7.44114 -19.301247,13.47421 -43.118643,13.47421 -23.817396,0 -43.123773,-6.03307 -43.118643,-13.47421 -0.0051,-7.44114 19.801244,-13.474207 43.61864,-13.474207 23.817396,0 42.623776,6.033067 42.618646,13.474207 z"/><path id="path2555-9" fill="url(#radialGradient3022)" fill-opacity="1" stroke="none" stroke-dasharray="none" stroke-dashoffset="0" stroke-linecap="round" stroke-linejoin="round" stroke-miterlimit="4" stroke-opacity="1" stroke-width="1.004" d="m 64.499999,13.5 c -28.691804,0 -52.000005,23.308193 -52.000005,51.999998 0,28.69181 23.308201,52.000022 52.000005,52.000002 C 93.191796,117.5 116.50002,94.191808 116.5,65.499998 116.5,36.808193 93.191796,13.5 64.499999,13.5 Z"/><path id="path2555-7-1" fill="none" fill-opacity="1" fill-rule="nonzero" stroke="#0f5a00" stroke-dasharray="none" stroke-dashoffset="0" stroke-linecap="round" stroke-linejoin="round" stroke-miterlimit="4" stroke-opacity="1" stroke-width="1" d="m 64.5,13.499999 c -28.691806,0 -52.000001,23.308189 -52.000001,51.999997 0,28.691808 23.308195,52.000014 52.000001,52.000004 28.691802,0 52.00002,-23.308196 52,-52.000004 0,-28.691808 -23.308198,-51.999997 -52,-51.999997 z" clip-rule="nonzero" color="#000" color-interpolation="sRGB" color-interpolation-filters="linearRGB" color-rendering="auto" display="inline" enable-background="accumulate" image-rendering="auto" opacity=".5" overflow="visible" shape-rendering="auto" text-rendering="auto" visibility="visible" style="isolation:auto;mix-blend-mode:normal;solid-color:#000;solid-opacity:1;marker:none"/><path id="path3019" fill="none" stroke="url(#linearGradient3118)" stroke-dasharray="none" stroke-dashoffset="0" stroke-linecap="round" stroke-linejoin="round" stroke-miterlimit="4" stroke-opacity="1" stroke-width="1" d="m 115.5,65.500001 c 0,28.166516 -22.833502,50.999989 -51.000026,50.999989 -28.166487,0 -50.999973,-22.833473 -50.999973,-50.999989 0,-28.166517 22.833486,-50.999991 50.999973,-50.999991 28.166524,0 51.000026,22.833474 51.000026,50.999991 z" color="#000" display="inline" enable-background="accumulate" opacity=".7" overflow="visible" visibility="visible" style="marker:none"/><path id="path4306" fill="#206612" fill-opacity="1" fill-rule="evenodd" stroke="none" stroke-dasharray="none" stroke-dashoffset="0" stroke-linecap="butt" stroke-linejoin="miter" stroke-miterlimit="4" stroke-opacity="1" stroke-width="1" d="M 57.999997,36.957031 C 57.424224,36.957617 56.957614,37.424227 56.957028,38 l 0,21.958984 -21.957028,0 c -0.575773,5.86e-4 -1.042383,0.467196 -1.042969,1.042969 l 0,12 c 5.86e-4,0.575773 0.467196,1.042383 1.042969,1.042969 l 21.957028,0 0,21.955078 c 5.86e-4,0.575773 0.467196,1.042383 1.042969,1.042969 l 13,0 C 71.57577,97.042383 72.04238,96.575773 72.042966,96 l 0,-21.955078 20.957034,0 c 0.575773,-5.86e-4 1.042383,-0.467196 1.042969,-1.042969 l 0,-12 C 94.042383,60.42618 93.575773,59.95957 93,59.958984 l -20.957034,0 0,-21.958984 C 72.04238,37.424227 71.57577,36.957617 70.999997,36.957031 Z" clip-rule="nonzero" color="#000" color-interpolation="sRGB" color-interpolation-filters="linearRGB" color-rendering="auto" display="inline" enable-background="accumulate" image-rendering="auto" opacity=".15" overflow="visible" shape-rendering="auto" text-rendering="auto" visibility="visible" style="isolation:auto;mix-blend-mode:normal;solid-color:#000;solid-opacity:1;marker:none"/><path clip-rule="nonzero" style="isolation:auto;mix-blend-mode:normal;solid-color:#000;solid-opacity:1;marker:none" id="rect3007-2" fill="#206612" fill-opacity="1" fill-rule="evenodd" stroke="none" stroke-dasharray="none" stroke-dashoffset="0" stroke-linecap="butt" stroke-linejoin="miter" stroke-miterlimit="4" stroke-opacity="1" stroke-width="1" d="m 58,38.000001 0,23.001819 -23,0 0,12 23,0 L 58,96 l 13,0 0,-22.99818 22,0 0,-12 -22,0 0,-23.001819 z" color="#000" color-interpolation="sRGB" color-interpolation-filters="linearRGB" color-rendering="auto" display="inline" enable-background="accumulate" image-rendering="auto" opacity=".3" overflow="visible" shape-rendering="auto" text-rendering="auto" visibility="visible"/><path id="rect3007" fill="#fff" fill-opacity="1" fill-rule="evenodd" stroke="none" stroke-width="1" d="M 58,36.998181 58,60 l -23,0 0,12 23,0 0,22.99818 13,0 L 71,72 93,72 93,60 71,60 71,36.998181 Z" color="#000" display="inline" enable-background="accumulate" overflow="visible" visibility="visible" style="marker:none"/></svg>