<svg xmlns="http://www.w3.org/2000/svg" xmlns:svg="http://www.w3.org/2000/svg" xmlns:xlink="http://www.w3.org/1999/xlink" id="svg4143" width="128" height="128" version="1.1"><defs id="defs4145"><linearGradient id="linearGradient853"><stop id="stop849" offset="0" stop-color="#cd9ef7" stop-opacity="1"/><stop id="stop851" offset="1" stop-color="#a56de2" stop-opacity="1"/></linearGradient><linearGradient id="linearGradient3234" x1="23.732" x2="23.732" y1="4.418" y2="42.04" gradientTransform="matrix(-2.8314011,0,0,2.6285596,152.26,2.2796055)" gradientUnits="userSpaceOnUse" xlink:href="#linearGradient2867-449-88-871-390-598-476-591-434-148-57-177-3"/><linearGradient id="linearGradient2867-449-88-871-390-598-476-591-434-148-57-177-3"><stop id="stop3750-8" offset="0" stop-color="#90dbec" stop-opacity="1"/><stop id="stop3752-5" offset=".262" stop-color="#55c1ec" stop-opacity="1"/><stop id="stop3754-6" offset=".705" stop-color="#3689e6" stop-opacity="1"/><stop id="stop3756-1" offset="1" stop-color="#2b63a0" stop-opacity="1"/></linearGradient><linearGradient id="linearGradient3238" x1="38.941" x2="20.576" y1="15.991" y2="15.991" gradientTransform="matrix(0,-3.0804774,-3.3181932,0,147.21217,144.48761)" gradientUnits="userSpaceOnUse" xlink:href="#linearGradient4087-8"/><linearGradient id="linearGradient4087-8"><stop id="stop4089-85" offset="0" stop-color="#fff" stop-opacity="1"/><stop id="stop4091-0" offset=".512" stop-color="#fff" stop-opacity=".235"/><stop id="stop4093-9" offset=".585" stop-color="#fff" stop-opacity=".157"/><stop id="stop4095-6" offset="1" stop-color="#fff" stop-opacity=".392"/></linearGradient><radialGradient id="radialGradient3140" cx="24.837" cy="36.421" r="15.645" fx="24.837" fy="36.421" gradientTransform="matrix(1,0,0,0.536723,0,16.87306)" gradientUnits="userSpaceOnUse" xlink:href="#linearGradient8662"/><linearGradient id="linearGradient8662"><stop id="stop8664" offset="0" stop-color="#000" stop-opacity="1"/><stop id="stop8666" offset="1" stop-color="#000" stop-opacity="0"/></linearGradient><radialGradient id="radialGradient4195" cx="24.837" cy="36.421" r="15.645" fx="24.837" fy="36.421" gradientTransform="matrix(1,0,0,0.536723,0,16.87306)" gradientUnits="userSpaceOnUse" xlink:href="#linearGradient8662-7"/><linearGradient id="linearGradient8662-7"><stop id="stop8664-0" offset="0" stop-color="#000" stop-opacity="1"/><stop id="stop8666-1" offset="1" stop-color="#000" stop-opacity="0"/></linearGradient><linearGradient id="linearGradient3269-3" x1="38.941" x2="20.576" y1="15.991" y2="15.991" gradientTransform="matrix(0,-3.0804774,-3.3181932,0,114.21217,144.48761)" gradientUnits="userSpaceOnUse" xlink:href="#linearGradient4087-8"/><linearGradient id="linearGradient855" x1="51.488" x2="51.488" y1="15.206" y2="103.617" gradientUnits="userSpaceOnUse" xlink:href="#linearGradient853"/></defs><metadata id="metadata4148"/><path id="path3503-0-5-5" fill="url(#linearGradient855)" fill-opacity="1" fill-rule="nonzero" stroke="none" stroke-dasharray="none" stroke-dashoffset="0" stroke-linecap="butt" stroke-linejoin="round" stroke-miterlimit="7" stroke-opacity="1" stroke-width=".964" d="M 74.903216,103.51805 C 110.85466,79.311508 90.572654,34.763305 50.499997,35.127999 l 0,-20.646051 -48.0180311,35.573889 48.0180311,35.396912 0,-20.646052 c 25.845255,-0.999749 41.586727,21.820858 23.109982,38.711353 z" display="block" overflow="visible" visibility="visible" style="marker:none"/><path stroke-opacity="1" style="marker:none" id="path3505-4-9-8" fill="none" stroke="url(#linearGradient3269-3)" stroke-dasharray="none" stroke-dashoffset="0" stroke-linecap="butt" stroke-linejoin="miter" stroke-miterlimit="7" stroke-width=".964" d="M 78.791578,99.698868 C 106.192,74.840895 89.942414,35.985328 49.500001,35.985328 l 0,-19.462637 -45.2343381,33.533146 45.2343381,33.450678 0,-19.794246 c 31.84665,-0.727875 38.277093,23.305505 29.291577,35.986599 z" display="block" opacity=".53" overflow="visible" visibility="visible"/><path clip-rule="nonzero" style="isolation:auto;mix-blend-mode:normal;solid-color:#000;solid-opacity:1;marker:none" id="path3503-0-5-6" fill="none" fill-opacity="1" fill-rule="nonzero" stroke="#7239b3" stroke-dasharray="none" stroke-dashoffset="0" stroke-linecap="butt" stroke-linejoin="round" stroke-miterlimit="4" stroke-opacity="1" stroke-width="1" d="M 74.903216,103.51805 C 110.85466,79.311511 90.572654,34.763308 50.499997,35.128002 l 0,-20.646051 -48.0180311,35.573889 48.0180311,35.396912 0,-20.646052 c 25.845255,-0.999749 41.586727,21.820858 23.109982,38.71135 z" color="#000" color-interpolation="sRGB" color-interpolation-filters="linearRGB" color-rendering="auto" display="inline" enable-background="accumulate" image-rendering="auto" opacity=".5" overflow="visible" shape-rendering="auto" text-rendering="auto" visibility="visible"/><g id="layer1-6" transform="matrix(5.3333333,0,0,5.3333333,0,-42.66667)"><path d="m 40.481863,36.421127 a 15.644737,8.3968954 0 1 1 -31.2894745,0 15.644737,8.3968954 0 1 1 31.2894745,0 z" style="marker:none" id="path3501" fill="url(#radialGradient3140)" fill-opacity="1" fill-rule="evenodd" stroke="none" stroke-width="1" display="inline" opacity=".141" overflow="visible" transform="matrix(0.52995454,0,0,-0.65783905,0.487385,48.935435)" visibility="visible"/><g id="g4190" transform="translate(-2,0)"><path d="m 40.481863,36.421127 a 15.644737,8.3968954 0 1 1 -31.2894745,0 15.644737,8.3968954 0 1 1 31.2894745,0 z" style="marker:none" id="path3501-0" fill="url(#radialGradient4195)" fill-opacity="1" fill-rule="evenodd" stroke="none" stroke-width="1" display="inline" opacity=".141" overflow="visible" transform="matrix(0.52995454,0,0,-0.65783905,0.487385,48.935435)" visibility="visible"/></g></g><path id="path3503-0" fill="url(#linearGradient3234)" fill-opacity="1" fill-rule="nonzero" stroke="none" stroke-dasharray="none" stroke-dashoffset="0" stroke-linecap="butt" stroke-linejoin="round" stroke-miterlimit="7" stroke-opacity="1" stroke-width=".964" d="M 107.90321,103.51805 C 143.85466,79.311513 123.57265,34.763311 83.499995,35.128005 l 0,-20.646052 -48.01803,35.57389 48.01803,35.396911 0,-20.646051 C 109.34525,63.806954 125.08672,86.62756 106.60998,103.51805 Z" display="block" overflow="visible" visibility="visible" style="marker:none"/><path stroke-opacity="1" style="marker:none" id="path3505-4" fill="none" stroke="url(#linearGradient3238)" stroke-dasharray="none" stroke-dashoffset="0" stroke-linecap="butt" stroke-linejoin="miter" stroke-miterlimit="7" stroke-width=".964" d="M 111.79158,99.698874 C 139.192,74.8409 122.94241,35.985334 82.5,35.985334 L 82.5,16.522697 37.265661,50.055843 82.5,83.50652 l 0,-19.794245 c 31.84665,-0.727875 38.27709,23.305504 29.29158,35.986599 z" display="block" opacity=".53" overflow="visible" visibility="visible"/><path id="path3503-0-0" fill="#000" fill-opacity="0" fill-rule="nonzero" stroke="#00537d" stroke-dasharray="none" stroke-dashoffset="0" stroke-linecap="round" stroke-linejoin="round" stroke-miterlimit="4" stroke-opacity="1" stroke-width="1" d="M 107.90321,103.51805 C 143.85466,79.311515 123.57265,34.763313 83.499995,35.128007 l 0,-20.646052 -48.01803,35.57389 48.01803,35.396911 0,-20.646051 c 25.845255,-0.999749 41.586725,21.820857 23.109985,38.711345 z" clip-rule="nonzero" color="#000" color-interpolation="sRGB" color-interpolation-filters="linearRGB" color-rendering="auto" display="inline" enable-background="accumulate" image-rendering="auto" opacity=".5" overflow="visible" shape-rendering="auto" text-rendering="auto" visibility="visible" style="marker:none;isolation:auto;mix-blend-mode:normal;solid-color:#000;solid-opacity:1;filter-blend-mode:normal;filter-gaussianBlur-deviation:0"/></svg>