<svg xmlns="http://www.w3.org/2000/svg" xmlns:svg="http://www.w3.org/2000/svg" xmlns:xlink="http://www.w3.org/1999/xlink" id="svg3342" width="128" height="128" version="1.1"><defs id="defs3344"><linearGradient id="linearGradient2865" x1="17.592" x2="17.592" y1="7" y2="-.025" gradientTransform="matrix(5.3333333,0,0,5.3333333,-5.333333,5.330407)" gradientUnits="userSpaceOnUse" xlink:href="#linearGradient3251"/><linearGradient id="linearGradient3251"><stop id="stop3253" offset="0" stop-color="#917f6e" stop-opacity="1"/><stop id="stop3255" offset="1" stop-color="#cbbaa9" stop-opacity="1"/></linearGradient><linearGradient id="linearGradient2868" x1="40.007" x2="40.007" y1="12.911" y2="7.092" gradientTransform="matrix(3.7348495,0,0,3.7348365,-68.919239,5.147402)" gradientUnits="userSpaceOnUse" xlink:href="#linearGradient4222"/><linearGradient id="linearGradient4222"><stop id="stop4224" offset="0" stop-color="#fff" stop-opacity="1"/><stop id="stop4226" offset="1" stop-color="#fff" stop-opacity="0"/></linearGradient><linearGradient id="linearGradient2871" x1="38.382" x2="38.382" y1="5.906" y2="22.698" gradientTransform="matrix(5.835569,0,0,5.8355808,-151.25687,-17.850163)" gradientUnits="userSpaceOnUse" xlink:href="#linearGradient4222"/><linearGradient id="linearGradient2874" x1="39.906" x2="39.906" y1="6.123" y2="24.034" gradientTransform="matrix(5.3333333,0,0,5.3333333,-132.83333,-10.833332)" gradientUnits="userSpaceOnUse" xlink:href="#linearGradient3243"/><linearGradient id="linearGradient3243"><stop id="stop3245" offset="0" stop-color="#fff4e9" stop-opacity="1"/><stop id="stop3247" offset="1" stop-color="#e7d6c5" stop-opacity="1"/></linearGradient><linearGradient id="linearGradient2876" x1="32.016" x2="32.016" y1="24.011" y2="5" gradientTransform="matrix(5.3333333,0,0,5.3333333,-132.83333,-10.833332)" gradientUnits="userSpaceOnUse" xlink:href="#linearGradient3251"/><linearGradient id="linearGradient3283"><stop id="stop3285" offset="0" stop-color="#000" stop-opacity="1"/><stop id="stop3287" offset="1" stop-color="#000" stop-opacity="0"/></linearGradient><radialGradient id="radialGradient3340" cx="10.471" cy="20.147" r="9.215" fx="10.471" fy="20.147" gradientTransform="matrix(5.2090906,0,0,1.7363636,-6.5454513,66.348348)" gradientUnits="userSpaceOnUse" xlink:href="#linearGradient3283"/><radialGradient id="radialGradient3381" cx="66.127" cy="48.768" r="31" fx="66.127" fy="48.768" gradientTransform="matrix(0,2.4235253,-2.6392787,0,226.36903,-84.88818)" gradientUnits="userSpaceOnUse" xlink:href="#linearGradient3242-7-3-8-0-4-58-06"/><linearGradient id="linearGradient3242-7-3-8-0-4-58-06"><stop id="stop3244-5-8-5-6-4-3-8" offset="0" stop-color="#cdf87e" stop-opacity="1"/><stop id="stop3246-9-5-1-5-3-0-7" offset=".262" stop-color="#a2e34f" stop-opacity="1"/><stop id="stop3248-7-2-0-7-5-35-9" offset=".661" stop-color="#68b723" stop-opacity="1"/><stop id="stop3250-8-2-8-5-6-40-4" offset="1" stop-color="#1d7e0d" stop-opacity="1"/></linearGradient><linearGradient id="linearGradient3030" x1="24.139" x2="24.139" y1="9.176" y2="37.13" gradientTransform="matrix(2.1134672,0,0,1.645562,50.724212,61.899946)" gradientUnits="userSpaceOnUse" xlink:href="#linearGradient4361"/><linearGradient id="linearGradient4361"><stop id="stop4363" offset="0" stop-color="#fff" stop-opacity="1"/><stop id="stop4365" offset="0" stop-color="#fff" stop-opacity=".235"/><stop id="stop4367" offset="1" stop-color="#fff" stop-opacity=".157"/><stop id="stop4369" offset="1" stop-color="#fff" stop-opacity=".392"/></linearGradient><linearGradient id="linearGradient3030-1" x1="24.139" x2="24.139" y1="19.795" y2="26.485" gradientTransform="matrix(1.6592445,0,0,2.0928522,60.832154,51.571789)" gradientUnits="userSpaceOnUse" xlink:href="#linearGradient4351"/><linearGradient id="linearGradient4351"><stop id="stop4353" offset="0" stop-color="#fff" stop-opacity="1"/><stop id="stop4355" offset="0" stop-color="#fff" stop-opacity=".235"/><stop id="stop4357" offset="1" stop-color="#fff" stop-opacity=".157"/><stop id="stop4359" offset="1" stop-color="#fff" stop-opacity=".392"/></linearGradient></defs><metadata id="metadata3347"/><path id="path3281" fill="url(#radialGradient3340)" fill-opacity="1" fill-rule="evenodd" stroke="none" stroke-width="1" d="m 95.999994,101.33017 a 47.999998,16 0 1 1 -95.99999329999998,0 47.999998,16 0 1 1 95.99999329999998,0 z" display="inline" enable-background="accumulate" opacity=".3" overflow="visible" visibility="visible" style="marker:none"/><path id="path2463" fill="url(#linearGradient2874)" fill-opacity="1" fill-rule="evenodd" stroke="url(#linearGradient2876)" stroke-linecap="butt" stroke-linejoin="miter" stroke-opacity="1" stroke-width="1" d="M 59.166665,18.5 8.4999997,71 52.5,114.5 l 52,-50.666667 0,-45.333333 -45.333335,0 z m 21.333334,16 c 4.416,0 8,3.584 8,8 0,4.416 -3.584,8 -8,8 -4.416,0 -8,-3.584 -8,-8 0,-4.416 3.584,-8 8,-8 z"/><path id="path3265" fill="none" stroke="url(#linearGradient2871)" stroke-linecap="butt" stroke-linejoin="miter" stroke-opacity="1" stroke-width="1" d="m 59.629672,19.5 c 0,0 -49.67726,51.47043 -49.67726,51.47043 0,0 42.53615,41.98714 42.53615,41.98714 0,0 51.011438,-49.664547 51.011438,-49.664547 0,0 0,-43.793023 0,-43.793023 0,0 -43.870328,0 -43.870328,0 z" opacity=".6"/><path id="path3294" fill="none" stroke="url(#linearGradient2868)" stroke-linecap="butt" stroke-linejoin="miter" stroke-opacity="1" stroke-width="1" d="m 80.474738,33.508817 c 5.651902,-0.199253 10.312165,5.803162 8.703503,11.229981 -1.194552,5.325199 -7.751738,8.394113 -12.595882,5.856203 -4.986015,-2.20239 -6.72403,-9.214169 -3.30661,-13.472475 1.660116,-2.24646 4.402068,-3.635344 7.198989,-3.613709 z" opacity=".6"/><path id="path3298" fill="none" stroke="url(#linearGradient2865)" stroke-linecap="butt" stroke-linejoin="miter" stroke-opacity="1" stroke-width="1" d="m 82.666666,39.997073 c 5.914763,-3.131834 13.621462,-4.091301 20.943314,-4.254607 3.29145,-0.07339 6.61837,0.5968 9.84816,-0.171414 4.11063,-0.97776 6.91191,-3.989402 6.50213,-6.742661 -0.55008,-3.695808 -5.51476,-6.424128 -10.17099,-8.376528 -4.13018,-1.731819 -7.30904,-4.817877 -8.98899,-8.077947 -0.848781,-1.647109 0.63352,-3.376591 3.01116,-3.90752 2.15998,-0.482325 4.4223,-0.672975 6.62024,-0.183232 3.34529,0.745396 7.2943,1.654775 8.85051,4.024854"/><g id="g4390"><path id="path2262" fill="url(#radialGradient3381)" fill-opacity="1" fill-rule="nonzero" stroke="none" stroke-dasharray="none" stroke-dashoffset="0" stroke-linecap="round" stroke-linejoin="round" stroke-miterlimit="4" stroke-opacity="1" stroke-width=".985" d="m 89.5,91.499992 0,-16.007287 17,0 0,16.007287 16.00729,0 0,17.000008 -16.00729,0 0,16.00729 -17,0 0,-16.00729 -16.007286,0 0,-17.000008 16.007286,0 z" color="#000" display="inline" enable-background="accumulate" overflow="visible" visibility="visible" style="marker:none"/><path id="path2272-4" fill="none" stroke="url(#linearGradient3030)" stroke-dasharray="none" stroke-linecap="butt" stroke-linejoin="miter" stroke-miterlimit="4" stroke-opacity="1" stroke-width="1" d="m 90.500004,93.012938 0,-16.512937 14.999996,0 0,16.487061 m 0,14.012938 0,16.5 -14.999996,0 0,-16.5" display="inline" opacity=".5"/><path id="path2272-2" fill="none" stroke="url(#linearGradient3030-1)" stroke-dasharray="none" stroke-linecap="butt" stroke-linejoin="miter" stroke-miterlimit="4" stroke-opacity="1" stroke-width="1" d="m 106,92.556134 15.5,-0.05434 0,14.943816 -15.5,0.0544 m -16,0 -15.5,-0.0544 0,-14.943816 15.5,0.05434" display="inline" opacity=".5"/><path id="path2262-8" fill="none" fill-opacity="1" fill-rule="nonzero" stroke="#0f5a00" stroke-dasharray="none" stroke-dashoffset="0" stroke-linecap="round" stroke-linejoin="round" stroke-miterlimit="4" stroke-opacity="1" stroke-width="1" d="m 89.5,91.499992 0,-16.007287 17,0 0,16.007287 16.00729,0 0,17.000008 -16.00729,0 0,16.00729 -17,0 0,-16.00729 -16.007286,0 0,-17.000008 16.007286,0 z" clip-rule="nonzero" color="#000" color-interpolation="sRGB" color-interpolation-filters="linearRGB" color-rendering="auto" display="inline" enable-background="accumulate" image-rendering="auto" opacity=".5" overflow="visible" shape-rendering="auto" text-rendering="auto" visibility="visible" style="isolation:auto;mix-blend-mode:normal;solid-color:#000;solid-opacity:1;marker:none"/></g></svg>