<svg xmlns="http://www.w3.org/2000/svg" xmlns:svg="http://www.w3.org/2000/svg" xmlns:xlink="http://www.w3.org/1999/xlink" id="svg4379" width="128" height="128" version="1.1"><defs id="defs4381"><linearGradient id="linearGradient3159" x1="24" x2="24" y1="5" y2="43" gradientTransform="matrix(2.7297298,0,0,2.7297298,-1.5135124,1.486514)" gradientUnits="userSpaceOnUse" xlink:href="#linearGradient3924-776"/><linearGradient id="linearGradient3924-776"><stop id="stop3124" offset="0" stop-color="#fff" stop-opacity="1"/><stop id="stop3126" offset=".063" stop-color="#fff" stop-opacity=".235"/><stop id="stop3128" offset=".951" stop-color="#fff" stop-opacity=".157"/><stop id="stop3130" offset="1" stop-color="#fff" stop-opacity=".392"/></linearGradient><radialGradient id="radialGradient2455-1" cx="4.993" cy="43.5" r="2.5" fx="4.993" fy="43.5" gradientTransform="matrix(2.003784,0,0,1.4,29.395371,-17.4)" gradientUnits="userSpaceOnUse" xlink:href="#linearGradient3688-166-749-5"/><linearGradient id="linearGradient3688-166-749-5"><stop id="stop2883-0" offset="0" stop-color="#181818" stop-opacity="1"/><stop id="stop2885-5" offset="1" stop-color="#181818" stop-opacity="0"/></linearGradient><radialGradient id="radialGradient2457-5" cx="4.993" cy="43.5" r="2.5" fx="4.993" fy="43.5" gradientTransform="matrix(2.003784,0,0,1.4,-18.604463,-104.4)" gradientUnits="userSpaceOnUse" xlink:href="#linearGradient3688-464-309-8"/><linearGradient id="linearGradient3688-464-309-8"><stop id="stop2889-9" offset="0" stop-color="#181818" stop-opacity="1"/><stop id="stop2891-4" offset="1" stop-color="#181818" stop-opacity="0"/></linearGradient><linearGradient id="linearGradient2459-7" x1="25.058" x2="25.058" y1="47.028" y2="39.999" gradientTransform="matrix(1.1005298,0,0,1,-2.4127136,0)" gradientUnits="userSpaceOnUse" xlink:href="#linearGradient3702-501-757-0"/><linearGradient id="linearGradient3702-501-757-0"><stop id="stop2895-0" offset="0" stop-color="#181818" stop-opacity="0"/><stop id="stop2897-2" offset=".5" stop-color="#181818" stop-opacity="1"/><stop id="stop2899-6" offset="1" stop-color="#181818" stop-opacity="0"/></linearGradient><linearGradient id="linearGradient3811"><stop id="stop3813" offset="0" stop-color="#000" stop-opacity="1"/><stop id="stop3815" offset="1" stop-color="#000" stop-opacity="0"/></linearGradient><radialGradient id="radialGradient4377" cx="-4.029" cy="93.468" r="35.338" fx="-4.029" fy="93.468" gradientTransform="matrix(1.5563924,0,0,0.16978827,70.270358,102.13029)" gradientUnits="userSpaceOnUse" xlink:href="#linearGradient3811"/><radialGradient id="radialGradient3044" cx="32.067" cy="2.28" r="27.5" fx="32.067" fy="2.28" gradientTransform="matrix(1.8994991e-8,4.3639682,-4.363968,1.8994991e-8,69.947989,-139.94014)" gradientUnits="userSpaceOnUse" xlink:href="#linearGradient4632-92-3-0-8-1-9"/><linearGradient id="linearGradient4632-92-3-0-8-1-9"><stop id="stop4634-68-8-0-2-9-4" offset="0" stop-color="#fafafa" stop-opacity="1"/><stop id="stop4636-8-21-7-1-4-8" offset="1" stop-color="#e1e1e1" stop-opacity="1"/></linearGradient><radialGradient id="radialGradient3381" cx="66.127" cy="48.768" r="31" fx="66.127" fy="48.768" gradientTransform="matrix(0,2.4235253,-2.6392787,0,226.36903,-84.88818)" gradientUnits="userSpaceOnUse" xlink:href="#linearGradient3242-7-3-8-0-4-58-06"/><linearGradient id="linearGradient3242-7-3-8-0-4-58-06"><stop id="stop3244-5-8-5-6-4-3-8" offset="0" stop-color="#cdf87e" stop-opacity="1"/><stop id="stop3246-9-5-1-5-3-0-7" offset=".262" stop-color="#a2e34f" stop-opacity="1"/><stop id="stop3248-7-2-0-7-5-35-9" offset=".661" stop-color="#68b723" stop-opacity="1"/><stop id="stop3250-8-2-8-5-6-40-4" offset="1" stop-color="#1d7e0d" stop-opacity="1"/></linearGradient><linearGradient id="linearGradient3030" x1="24.139" x2="24.139" y1="9.176" y2="37.13" gradientTransform="matrix(2.1134672,0,0,1.645562,50.724212,61.899946)" gradientUnits="userSpaceOnUse" xlink:href="#linearGradient4361"/><linearGradient id="linearGradient4361"><stop id="stop4363" offset="0" stop-color="#fff" stop-opacity="1"/><stop id="stop4365" offset="0" stop-color="#fff" stop-opacity=".235"/><stop id="stop4367" offset="1" stop-color="#fff" stop-opacity=".157"/><stop id="stop4369" offset="1" stop-color="#fff" stop-opacity=".392"/></linearGradient><linearGradient id="linearGradient3030-1" x1="24.139" x2="24.139" y1="19.795" y2="26.485" gradientTransform="matrix(1.6592445,0,0,2.0928522,60.832154,51.571789)" gradientUnits="userSpaceOnUse" xlink:href="#linearGradient4351"/><linearGradient id="linearGradient4351"><stop id="stop4353" offset="0" stop-color="#fff" stop-opacity="1"/><stop id="stop4355" offset="0" stop-color="#fff" stop-opacity=".235"/><stop id="stop4357" offset="1" stop-color="#fff" stop-opacity=".157"/><stop id="stop4359" offset="1" stop-color="#fff" stop-opacity=".392"/></linearGradient><linearGradient id="linearGradient4327" x1="42.5" x2="42.5" y1="27.5" y2="38.5" gradientTransform="translate(-2.5,-6.5)" gradientUnits="userSpaceOnUse" xlink:href="#linearGradient4197"/><linearGradient id="linearGradient4197" x1="83.24" x2="83.24" y1="42.457" y2="57.61" gradientTransform="matrix(0.40394,0,0,0.42567,4.5497,-4.793)" gradientUnits="userSpaceOnUse"><stop id="stop4199" offset="0" stop-color="#e5e5e5" stop-opacity="1"/><stop id="stop4201" offset="1" stop-color="#d4d4d4" stop-opacity="1"/></linearGradient></defs><metadata id="metadata4384"/><path id="path3041" fill="url(#radialGradient4377)" fill-opacity="1" fill-rule="nonzero" stroke="none" stroke-width="1" d="M 119,118 A 55,6 0 0 1 9.0000016,118 55,6 0 1 1 119,118 Z" color="#000" display="inline" enable-background="accumulate" opacity=".2" overflow="visible" visibility="visible" style="marker:none"/><g id="g2036" display="inline" transform="matrix(2.6999989,0,0,0.55555607,-0.8000019,94.888882)"><g id="g3712" opacity=".4" transform="matrix(1.052632,0,0,1.285713,-1.263158,-13.42854)"><rect id="rect2801" width="5" height="7" x="39.407" y="40" fill="url(#radialGradient2455-1)" fill-opacity="1" stroke="none"/><rect id="rect3696" width="5" height="7" x="-8.593" y="-47" fill="url(#radialGradient2457-5)" fill-opacity="1" stroke="none" transform="scale(-1,-1)"/><rect id="rect3700" width="30.815" height="7" x="8.593" y="40" fill="url(#linearGradient2459-7)" fill-opacity="1" stroke="none"/></g></g><rect clip-rule="nonzero" style="isolation:auto;mix-blend-mode:normal;solid-color:#000;solid-opacity:1;marker:none" id="rect5505-21-3" width="110" height="98.5" x="9" y="19.5" fill="url(#radialGradient3044)" fill-opacity="1" fill-rule="nonzero" stroke="none" stroke-dasharray="none" stroke-dashoffset="0" stroke-linecap="butt" stroke-linejoin="miter" stroke-miterlimit="4" stroke-opacity="1" stroke-width="1" color="#000" color-interpolation="sRGB" color-interpolation-filters="linearRGB" color-rendering="auto" display="inline" enable-background="accumulate" image-rendering="auto" opacity="1" overflow="visible" rx="5.5" ry="5.5" shape-rendering="auto" text-rendering="auto" visibility="visible"/><path id="rect4179" fill="url(#linearGradient4327)" fill-opacity="1" fill-rule="nonzero" stroke="none" stroke-dasharray="none" stroke-dashoffset="0" stroke-linecap="round" stroke-linejoin="round" stroke-miterlimit="4" stroke-opacity=".291" stroke-width="1" d="M 14.554688,19.5 C 11.200472,19.5 8.5,22.200472 8.5,25.554688 L 8.5,38 l 111,0 0,-12.445312 C 119.5,22.200472 116.79953,19.5 113.44531,19.5 l -98.890622,0 z" clip-rule="nonzero" color="#000" color-interpolation="sRGB" color-interpolation-filters="linearRGB" color-rendering="auto" display="inline" enable-background="accumulate" image-rendering="auto" opacity="1" overflow="visible" shape-rendering="auto" text-rendering="auto" visibility="visible" style="isolation:auto;mix-blend-mode:normal;solid-color:#000;solid-opacity:1;marker:none"/><rect id="rect5505-21-6" width="111" height="99" x="8.5" y="19.5" fill="none" stroke="#0e141f" stroke-dasharray="none" stroke-dashoffset="0" stroke-linecap="round" stroke-linejoin="round" stroke-miterlimit="4" stroke-opacity="1" stroke-width="1" color="#000" display="inline" enable-background="accumulate" opacity=".3" overflow="visible" rx="6" ry="6" visibility="visible" style="marker:none"/><rect id="rect6741-7" width="109" height="97" x="9.5" y="20.5" fill="none" stroke="url(#linearGradient3159)" stroke-dasharray="none" stroke-dashoffset="0" stroke-linecap="round" stroke-linejoin="round" stroke-miterlimit="4" stroke-opacity="1" stroke-width="1" opacity="1" rx="5" ry="5"/><path id="path4184" fill="none" fill-rule="evenodd" stroke="#000" stroke-linecap="butt" stroke-linejoin="miter" stroke-opacity="1" stroke-width="1" d="m 9,37.5 110,0" opacity=".2"/><path id="path2262" fill="url(#radialGradient3381)" fill-opacity="1" fill-rule="nonzero" stroke="none" stroke-dasharray="none" stroke-dashoffset="0" stroke-linecap="round" stroke-linejoin="round" stroke-miterlimit="4" stroke-opacity="1" stroke-width=".985" d="M 89.5,91.499992 89.5,75.5 l 17,0 0,15.999992 16,0 0,17.000008 -16,0 0,16 -17,0 0,-16 -16,0 0,-17.000008 z" color="#000" display="inline" enable-background="accumulate" overflow="visible" visibility="visible" style="marker:none"/><path id="path2272-4" fill="none" stroke="url(#linearGradient3030)" stroke-dasharray="none" stroke-linecap="butt" stroke-linejoin="miter" stroke-miterlimit="4" stroke-opacity="1" stroke-width="1" d="m 90.500004,93 0,-16.499999 14.999996,0 L 105.5,93 m 0,14 0,16.5 -14.999996,0 0,-16.5" display="inline" opacity=".5"/><path id="path2272-2" fill="none" stroke="url(#linearGradient3030-1)" stroke-dasharray="none" stroke-linecap="butt" stroke-linejoin="miter" stroke-miterlimit="4" stroke-opacity="1" stroke-width="1" d="m 106,92.5 15.5,0 0,15 -15.5,1e-5 m -16,0 -15.5,-1e-5 0,-15 15.5,0" display="inline" opacity=".5"/><path clip-rule="nonzero" style="isolation:auto;mix-blend-mode:normal;solid-color:#000;solid-opacity:1;marker:none" id="path2262-8" fill="none" fill-opacity="1" fill-rule="nonzero" stroke="#0f5a00" stroke-dasharray="none" stroke-dashoffset="0" stroke-linecap="round" stroke-linejoin="round" stroke-miterlimit="4" stroke-opacity="1" stroke-width="1" d="M 89.5,91.499992 89.5,75.5 l 17,0 0,15.999992 16,0 0,17.000008 -16,0 0,16 -17,0 0,-16 -16,0 0,-17.000008 z" color="#000" color-interpolation="sRGB" color-interpolation-filters="linearRGB" color-rendering="auto" display="inline" enable-background="accumulate" image-rendering="auto" opacity=".5" overflow="visible" shape-rendering="auto" text-rendering="auto" visibility="visible"/><path style="marker:none" id="path4267" fill="#fff" fill-opacity="1" stroke="none" stroke-opacity="1" d="M 19.97,28.556 22.5,26 24,27.5 21.402,29.987 24,32.5 22.5,34 19.988,31.401 17.5,34 16,32.5 18.586,30 16,27.5 17.5,26 Z" color="#bebebe" opacity=".25" overflow="visible"/><path id="path6" fill="#8a8a8a" d="M 19.97,27.556 22.5,25 24,26.5 21.402,28.987 24,31.5 22.5,33 19.988,30.401 17.5,33 16,31.5 18.586,29 16,26.5 17.5,25 Z" color="#bebebe" overflow="visible" style="marker:none"/><path style="marker:none" id="path4214" fill="#fff" fill-opacity="1" d="m 106.5,24 2.0625,2.03775 -1.57117,1.571167 -0.0248,0.02475 c -0.34833,0.385 -0.3465,0.979 0.0248,1.351166 a 0.98083333,0.98083333 0 0 0 1.35025,0.04858 L 108.53867,28.83725 109.96225,27.4375 112,29.5 112,24 Z m -5.5,5.5 0,5.5 5.5,0 -2.0625,-2.0625 1.57208,-1.571167 0.0238,-0.02475 c 0.34925,-0.385 0.34833,-0.979 -0.0238,-1.35025 -0.37216,-0.372166 -0.99,-0.397833 -1.375,-0.0495 l -0.17233,0.196167 -1.42358,1.4245 z" color="#bebebe" opacity=".25" overflow="visible"/><path id="path6-5" fill="#8a8a8a" d="m 106.5,23 2.0625,2.03775 -1.57117,1.571167 -0.0248,0.02475 c -0.34833,0.385 -0.3465,0.979 0.0248,1.351166 a 0.98083333,0.98083333 0 0 0 1.35025,0.04858 L 108.53867,27.83725 109.96225,26.4375 112,28.5 112,23 Z m -5.5,5.5 0,5.5 5.5,0 -2.0625,-2.0625 1.57208,-1.571167 0.0238,-0.02475 c 0.34925,-0.385 0.34833,-0.979 -0.0238,-1.35025 -0.37216,-0.372166 -0.99,-0.397833 -1.375,-0.0495 l -0.17233,0.196167 -1.42358,1.4245 z" color="#bebebe" overflow="visible" style="marker:none"/><path id="path4271" fill="none" fill-opacity="1" fill-rule="evenodd" stroke="#fff" stroke-linecap="butt" stroke-linejoin="miter" stroke-opacity="1" stroke-width="1" d="m 52,29.5 24,0" opacity=".25"/><path id="path4265" fill="none" fill-rule="evenodd" stroke="#8a8a8a" stroke-linecap="butt" stroke-linejoin="miter" stroke-opacity="1" stroke-width="2" d="m 52,28 24,0" opacity=".7"/></svg>