<svg xmlns="http://www.w3.org/2000/svg" xmlns:svg="http://www.w3.org/2000/svg" xmlns:xlink="http://www.w3.org/1999/xlink" id="svg2453" width="128" height="128" version="1.0"><metadata id="metadata35"/><defs id="defs2455"><linearGradient id="linearGradient3104-6"><stop id="stop3106-3" offset="0" stop-color="#000" stop-opacity=".318"/><stop id="stop3108-9" offset="1" stop-color="#000" stop-opacity=".24"/></linearGradient><linearGradient id="linearGradient3977-4"><stop id="stop3979-7" offset="0" stop-color="#fff" stop-opacity="1"/><stop id="stop3981-6" offset=".004" stop-color="#fff" stop-opacity=".235"/><stop id="stop3983-5" offset="1" stop-color="#fff" stop-opacity=".157"/><stop id="stop3985-6" offset="1" stop-color="#fff" stop-opacity=".392"/></linearGradient><linearGradient id="linearGradient3600-9"><stop id="stop3602-3" offset="0" stop-color="#f4f4f4" stop-opacity="1"/><stop id="stop3604-7" offset="1" stop-color="#dbdbdb" stop-opacity="1"/></linearGradient><linearGradient id="linearGradient3163" x1="-51.786" x2="-51.786" y1="50.786" y2="2.906" gradientTransform="matrix(2.6993422,0,0,1.8911044,182.37115,16.150211)" gradientUnits="userSpaceOnUse" xlink:href="#linearGradient3104-6"/><linearGradient id="linearGradient3166" x1="24" x2="24" y1="5.703" y2="42.297" gradientTransform="matrix(3.1081081,0,0,2.4594529,-10.594575,10.973049)" gradientUnits="userSpaceOnUse" xlink:href="#linearGradient3977-4"/><linearGradient id="linearGradient3169" x1="25.132" x2="25.132" y1=".985" y2="47.013" gradientTransform="matrix(3.3142782,0,0,1.9989954,-15.542692,18.957175)" gradientUnits="userSpaceOnUse" xlink:href="#linearGradient3600-9"/><linearGradient id="linearGradient3077-9" x1="164.28" x2="164.28" y1="241.651" y2="156.784" gradientTransform="matrix(1.2569307,0,0,0.97123067,-146.4808,-123.32904)" gradientUnits="userSpaceOnUse" xlink:href="#linearGradient4785-3-8"/><linearGradient id="linearGradient4785-3-8"><stop id="stop4787-5-5" offset="0" stop-color="#262626" stop-opacity="1"/><stop id="stop4789-1-1" offset="1" stop-color="#4d4d4d" stop-opacity="1"/></linearGradient><linearGradient id="linearGradient3079-1" x1="30.306" x2="30.306" y1="6.942" y2="36.269" gradientTransform="matrix(2.8534369,0,0,2.8373541,7.4439669,9.0728193)" gradientUnits="userSpaceOnUse" xlink:href="#linearGradient3610-302-9-7-6"/><linearGradient id="linearGradient3610-302-9-7-6"><stop id="stop3796-3-8-6" offset="0" stop-color="#1d1d1d" stop-opacity="1"/><stop id="stop3798-1-9-9" offset="1" stop-color="#000" stop-opacity="1"/></linearGradient><linearGradient id="linearGradient3242-59-5"><stop id="stop3244-9-4" offset="0" stop-color="#f8b17e" stop-opacity="1"/><stop id="stop3246-7-4" offset=".262" stop-color="#e35d4f" stop-opacity="1"/><stop id="stop3248-87-0" offset=".661" stop-color="#c6262e" stop-opacity="1"/><stop id="stop3250-2-0" offset="1" stop-color="#690b54" stop-opacity="1"/></linearGradient><linearGradient id="linearGradient3239" x1="229.01" x2="229.01" y1="600.009" y2="635.009" gradientTransform="matrix(-1,0,0,-1,456.02,1228.029)" gradientUnits="userSpaceOnUse" xlink:href="#linearGradient3242-59-5"/><linearGradient id="linearGradient3241" x1="229.01" x2="229.01" y1="600.009" y2="635.009" gradientTransform="matrix(-1,0,0,-1,456.02,1228.029)" gradientUnits="userSpaceOnUse" xlink:href="#linearGradient3242-59-5"/><linearGradient id="linearGradient3243" x1="229.01" x2="229.01" y1="600.009" y2="635.009" gradientTransform="matrix(-1,0,0,-1,456.02,1228.029)" gradientUnits="userSpaceOnUse" xlink:href="#linearGradient3242-59-5"/><linearGradient id="linearGradient3702-501-757-0"><stop id="stop2895-0" offset="0" stop-color="#181818" stop-opacity="0"/><stop id="stop2897-2" offset=".5" stop-color="#181818" stop-opacity="1"/><stop id="stop2899-6" offset="1" stop-color="#181818" stop-opacity="0"/></linearGradient><linearGradient id="linearGradient3688-464-309-8"><stop id="stop2889-9" offset="0" stop-color="#181818" stop-opacity="1"/><stop id="stop2891-4" offset="1" stop-color="#181818" stop-opacity="0"/></linearGradient><radialGradient id="radialGradient5448-5" cx="-4.029" cy="93.468" r="35.338" fx="-4.029" fy="93.468" gradientTransform="matrix(1.7403296,0,0,0.16978827,71.011391,100.33998)" gradientUnits="userSpaceOnUse" xlink:href="#linearGradient3688-464-309-8"/><radialGradient id="radialGradient4093-8" cx="4.993" cy="43.5" r="2.5" fx="4.993" fy="43.5" gradientTransform="matrix(2.003784,0,0,1.4,27.98813,-17.4)" gradientUnits="userSpaceOnUse" xlink:href="#linearGradient3688-464-309-8"/><radialGradient id="radialGradient4095-5" cx="4.993" cy="43.5" r="2.5" fx="4.993" fy="43.5" gradientTransform="matrix(2.003784,0,0,1.4,-20.01187,-104.4)" gradientUnits="userSpaceOnUse" xlink:href="#linearGradient3688-464-309-8"/><linearGradient id="linearGradient4097-9" x1="25.058" x2="25.058" y1="47.028" y2="39.999" gradientUnits="userSpaceOnUse" xlink:href="#linearGradient3702-501-757-0"/></defs><path id="path3041" fill="url(#radialGradient5448-5)" fill-opacity="1" fill-rule="nonzero" stroke="none" stroke-width="1" d="m 125.5,116.20969 a 61.500002,6.0000004 0 0 1 -122.9999995,0 61.500002,6.0000004 0 1 1 122.9999995,0 z" color="#000" display="inline" enable-background="accumulate" opacity=".2" overflow="visible" visibility="visible" style="marker:none"/><g id="g2036" display="inline" transform="matrix(3.0249988,0,0,0.55555607,-8.6000014,93.098572)"><g id="g3712" opacity=".4" transform="matrix(1.052632,0,0,1.285713,-1.263158,-13.42854)"><rect id="rect2801-5" width="5" height="7" x="38" y="40" fill="url(#radialGradient4093-8)" fill-opacity="1" stroke="none"/><rect id="rect3696-7" width="5" height="7" x="-10" y="-47" fill="url(#radialGradient4095-5)" fill-opacity="1" stroke="none" transform="scale(-1,-1)"/><rect id="rect3700-7" width="28" height="7" x="10" y="40" fill="url(#linearGradient4097-9)" fill-opacity="1" stroke="none"/></g></g><path id="path4160-6" fill="url(#linearGradient3169)" fill-opacity="1" stroke="none" d="m 5.9999856,24.000032 c 26.5814884,0 115.9998644,0.0064 115.9998644,0.0064 l 1.4e-4,91.993658 c 0,0 -77.333336,0 -116.0000044,0 0,-30.6667 0,-61.332924 0,-91.999494 z" display="inline"/><rect id="rect3180" width="107" height="83" x="10.5" y="28.5" fill="url(#linearGradient3077-9)" fill-opacity="1" fill-rule="nonzero" stroke="url(#linearGradient3079-1)" stroke-dasharray="none" stroke-dashoffset="0" stroke-linecap="round" stroke-linejoin="miter" stroke-miterlimit="4" stroke-opacity="1" stroke-width="1" color="#000" display="inline" enable-background="accumulate" overflow="visible" visibility="visible" style="marker:none"/><path id="rect6741-1-8" fill="none" stroke="url(#linearGradient3166)" stroke-dasharray="none" stroke-dashoffset="0" stroke-linecap="round" stroke-linejoin="miter" stroke-miterlimit="4" stroke-opacity="1" stroke-width="1" d="m 121.5,115.5 -115.0000002,0 0,-91.000001 115.0000002,0 z"/><path id="path4160-6-1" fill="none" stroke="url(#linearGradient3163)" stroke-dasharray="none" stroke-dashoffset="0" stroke-linecap="butt" stroke-linejoin="round" stroke-miterlimit="4" stroke-opacity="1" stroke-width="1" d="m 5.4999611,23.499962 c 26.8106309,0 116.9999489,0.0063 116.9999489,0.0063 l 1.3e-4,92.993748 c 0,0 -78.000053,0 -117.0000791,0 0,-31.000113 0,-61.99991 0,-92.999659 z" display="inline"/><path id="path3492" fill="#000" fill-opacity="1" fill-rule="nonzero" stroke="none" stroke-dasharray="none" stroke-dashoffset="0" stroke-linecap="butt" stroke-linejoin="miter" stroke-miterlimit="4" stroke-opacity="1" stroke-width="1" d="m 64,51.998047 c -11.014776,0 -20.001953,9.056654 -20.001953,20.044922 0,10.988249 8.992401,19.958984 20.001953,19.958984 11.009294,0 20.001953,-8.970717 20.001953,-19.958984 0,-10.988251 -8.98692,-20.044922 -20.001953,-20.044922 z m 0,7.494141 c 2.270913,0 4.319863,0.701857 6.150391,1.740234 L 53.199219,78.214844 c -1.062956,-1.827123 -1.78125,-3.880549 -1.78125,-6.171875 0,-6.974523 5.588112,-12.550781 12.582031,-12.550781 z m 11.224609,7.128906 c 0.805468,1.652844 1.357422,3.450591 1.357422,5.421875 0,6.974522 -5.580494,12.464843 -12.582031,12.464843 -1.939413,0 -3.709632,-0.524006 -5.341797,-1.289062 L 75.224609,66.621094 Z" clip-rule="nonzero" color="#000" color-interpolation="sRGB" color-interpolation-filters="linearRGB" color-rendering="auto" display="inline" enable-background="accumulate" image-rendering="auto" opacity=".15" overflow="visible" shape-rendering="auto" text-rendering="auto" transform="matrix(-1,0,0,1,128,0)" visibility="visible" style="text-indent:0;text-transform:none;block-progression:tb;isolation:auto;mix-blend-mode:normal;solid-color:#000;solid-opacity:1;marker:none"/><g id="layer12-33" fill="#000" fill-opacity="1" fill-rule="nonzero" stroke="none" stroke-width="1.002" color="#000" display="inline" opacity=".3" transform="matrix(2.711458,0,0,-2.71642,-554.23954,1739.9212)" visibility="visible" style="marker:none"><path id="path4222-8" fill="#000" fill-opacity="1" fill-rule="nonzero" stroke="none" stroke-width="1.002" d="m 228.01,607.02 c -3.86,0 -7.0073,3.166 -7.0073,7.0103 0,3.8443 3.1472,6.9787 7.0073,6.9787 3.86,0 7.0073,-3.1344 7.0073,-6.9787 0,-3.8443 -3.1472,-7.0103 -7.0073,-7.0103 z m 0,2.021 c 2.7769,0 5.0097,2.2237 5.0097,4.9893 0,2.7656 -2.2328,4.9577 -5.0097,4.9577 -2.777,0 -5.0097,-2.1921 -5.0097,-4.9577 0,-2.7656 2.2328,-4.9893 5.0097,-4.9893 z" color="#000" display="inline" enable-background="accumulate" overflow="visible" visibility="visible" style="text-indent:0;text-transform:none;block-progression:tb;marker:none"/><path id="path4992-3" fill="#000" fill-opacity="1" fill-rule="nonzero" stroke="none" stroke-width="1.002" d="m 231.41,609.44 -8,8 1.4062,1.4062 8,-8 -1.4062,-1.4062 z" color="#000" display="inline" enable-background="accumulate" overflow="visible" visibility="visible" style="text-indent:0;text-transform:none;block-progression:tb;marker:none"/></g><g id="layer12" fill="url(#linearGradient3243)" fill-opacity="1" fill-rule="nonzero" stroke="none" color="#000" display="inline" transform="matrix(2.711458,0,0,-2.71642,-554.23954,1738.9212)" visibility="visible" style="marker:none"><path id="path4222" fill="url(#linearGradient3239)" fill-opacity="1" fill-rule="nonzero" stroke="none" d="m 228.01,607.02 c -3.86,0 -7.0073,3.166 -7.0073,7.0103 0,3.8443 3.1472,6.9787 7.0073,6.9787 3.86,0 7.0073,-3.1344 7.0073,-6.9787 0,-3.8443 -3.1472,-7.0103 -7.0073,-7.0103 z m 0,2.021 c 2.7769,0 5.0097,2.2237 5.0097,4.9893 0,2.7656 -2.2328,4.9577 -5.0097,4.9577 -2.777,0 -5.0097,-2.1921 -5.0097,-4.9577 0,-2.7656 2.2328,-4.9893 5.0097,-4.9893 z" color="#000" display="inline" enable-background="accumulate" overflow="visible" visibility="visible" style="text-indent:0;text-transform:none;block-progression:tb;marker:none"/><path id="path4992" fill="url(#linearGradient3241)" fill-opacity="1" fill-rule="nonzero" stroke="none" d="m 231.41,609.44 -8,8 1.4062,1.4062 8,-8 -1.4062,-1.4062 z" color="#000" display="inline" enable-background="accumulate" overflow="visible" visibility="visible" style="text-indent:0;text-transform:none;block-progression:tb;marker:none"/></g></svg>