<svg xmlns="http://www.w3.org/2000/svg" xmlns:svg="http://www.w3.org/2000/svg" xmlns:xlink="http://www.w3.org/1999/xlink" id="svg4061" width="48" height="48" version="1.1"><defs id="defs4063"><linearGradient id="linearGradient3177" x1="71.204" x2="71.204" y1="15.369" y2="40.496" gradientTransform="matrix(1.6169806,0,0,1.6169806,-92.707374,-21.060237)" gradientUnits="userSpaceOnUse" xlink:href="#linearGradient4806-2"/><linearGradient id="linearGradient4806-2"><stop id="stop4808-4" offset="0" stop-color="#fff" stop-opacity="1"/><stop id="stop4810-0" offset=".424" stop-color="#fff" stop-opacity=".235"/><stop id="stop4812-8" offset=".821" stop-color="#fff" stop-opacity=".157"/><stop id="stop4814-0" offset="1" stop-color="#fff" stop-opacity=".392"/></linearGradient><radialGradient id="radialGradient4013" cx="15.026" cy="8.626" r="20" fx="4.459" fy="8.509" gradientTransform="matrix(-3.4973212e-8,1.8854921,-1.7764068,-5.4722636e-8,39.140041,-7.993163)" gradientUnits="userSpaceOnUse" xlink:href="#linearGradient3846"/><linearGradient id="linearGradient3846"><stop id="stop3848" offset="0" stop-color="#fff3cb" stop-opacity="1"/><stop id="stop3850" offset=".262" stop-color="#fdde76" stop-opacity="1"/><stop id="stop3852" offset=".661" stop-color="#f9c440" stop-opacity="1"/><stop id="stop3854" offset="1" stop-color="#e48b20" stop-opacity="1"/></linearGradient><linearGradient id="linearGradient3820-7-2-1"><stop id="stop3822-2-6-3" offset="0" stop-color="#3d3d3d" stop-opacity="1"/><stop id="stop3864-8-7-7" offset=".5" stop-color="#686868" stop-opacity=".498"/><stop id="stop3824-1-2-5" offset="1" stop-color="#686868" stop-opacity="0"/></linearGradient><radialGradient id="radialGradient4059" cx="99.157" cy="186.171" r="62.769" fx="99.157" fy="186.171" gradientTransform="matrix(0.27083381,0,0,0.08762273,-2.85507,25.187228)" gradientUnits="userSpaceOnUse" xlink:href="#linearGradient3820-7-2-1"/></defs><metadata id="metadata4066"/><path id="path3818-0-5" fill="url(#radialGradient4059)" fill-opacity="1" stroke="none" d="m 41,41.5 a 17,5.4999999 0 0 1 -34,0 17,5.4999999 0 1 1 34,0 z"/><path id="path2555-7-65" fill="url(#radialGradient4013)" fill-opacity="1" fill-rule="nonzero" stroke="none" stroke-width="1" d="M 24,3.5000003 C 12.688809,3.5000003 3.5000005,12.688809 3.5000005,24 3.5000005,35.311193 12.688809,44.500004 24,44.500001 35.311191,44.500001 44.500008,35.311193 44.500001,24 44.500001,12.688809 35.311191,3.5000004 24,3.5000004 Z" color="#000" display="inline" enable-background="accumulate" overflow="visible" visibility="visible" style="marker:none"/><path id="path4176" fill="none" stroke="url(#linearGradient3177)" stroke-dasharray="none" stroke-dashoffset="0" stroke-linecap="round" stroke-linejoin="round" stroke-miterlimit="4" stroke-opacity="1" stroke-width="1" d="M 43.5,24.000001 C 43.5,34.76955 34.76954,43.5 23.99999,43.5 13.23045,43.5 4.5,34.76955 4.5,24.000001 4.5,13.23045 13.23045,4.5000019 23.99999,4.5000019 34.76954,4.5000019 43.5,13.23045 43.5,24.000001 Z" color="#000" display="inline" enable-background="accumulate" opacity=".8" overflow="visible" visibility="visible" style="marker:none"/><path id="path2555-7-1-7" fill="none" stroke="#985800" stroke-dasharray="none" stroke-dashoffset="0" stroke-linecap="round" stroke-linejoin="round" stroke-miterlimit="4" stroke-opacity="1" stroke-width="1" d="m 24,3.500115 c -11.31113,0 -20.499885,9.188754 -20.499885,20.499884 0,11.311131 9.188755,20.499891 20.499885,20.499887 11.31113,0 20.4999,-9.188756 20.499886,-20.499887 C 44.499886,12.688869 35.31113,3.5001149 24,3.5001149 Z" color="#000" display="inline" enable-background="accumulate" opacity=".5" overflow="visible" visibility="visible" style="marker:none"/><path d="m 29,11 -12,17 7,0 -5,12 12,-17 -5,0 z" style="marker:none" id="path8107" fill="#fff" fill-opacity="1" fill-rule="nonzero" stroke="none" stroke-width="1" display="inline" enable-background="accumulate" opacity=".2" overflow="visible" visibility="visible"/><path id="path3172" fill="#333" fill-opacity="1" fill-rule="nonzero" stroke="none" stroke-width="1" d="m 29,10 -12,17 7,0 -5,12 12,-17 -5,0 z" display="inline" enable-background="accumulate" overflow="visible" visibility="visible" style="marker:none"/></svg>