<svg xmlns="http://www.w3.org/2000/svg" xmlns:svg="http://www.w3.org/2000/svg" xmlns:xlink="http://www.w3.org/1999/xlink" id="svg4505" width="32" height="32" version="1.1"><defs id="defs4507"><linearGradient id="linearGradient5032"><stop id="stop5028" offset="0" stop-color="#fff" stop-opacity="1"/><stop id="stop5030" offset="1" stop-color="#fff" stop-opacity="0"/></linearGradient><linearGradient id="linearGradient4718"><stop id="stop4720" offset="0" stop-color="#fdecc4" stop-opacity="1"/><stop id="stop1140-6" offset=".603" stop-color="#e89843" stop-opacity="1"/><stop id="stop4722" offset="1" stop-color="#b45c15" stop-opacity="1"/></linearGradient><linearGradient id="linearGradient3688-464-309-604"><stop id="stop3094" offset="0" stop-color="#181818" stop-opacity="1"/><stop id="stop3096" offset="1" stop-color="#181818" stop-opacity="0"/></linearGradient><linearGradient id="linearGradient5428-2"><stop id="stop5426-0" offset="0" stop-color="#2f2f2f" stop-opacity="1"/><stop id="stop5424-2" offset="1" stop-color="#3f3f3f" stop-opacity="1"/></linearGradient><radialGradient id="radialGradient3043" cx="99.157" cy="186.171" r="62.769" fx="99.157" fy="186.171" gradientTransform="matrix(0.17524541,0,0,0.05575992,78.62319,195.11915)" gradientUnits="userSpaceOnUse" xlink:href="#linearGradient3820-7-2-1"/><linearGradient id="linearGradient3820-7-2-1"><stop id="stop3822-2-6-3" offset="0" stop-color="#3d3d3d" stop-opacity="1"/><stop id="stop3864-8-7-7" offset=".5" stop-color="#686868" stop-opacity=".498"/><stop id="stop3824-1-2-5" offset="1" stop-color="#686868" stop-opacity="0"/></linearGradient><linearGradient id="linearGradient5035" x1="86.943" x2="107" y1="184.907" y2="204" gradientUnits="userSpaceOnUse" xlink:href="#linearGradient4365-7"/><linearGradient id="linearGradient4365-7"><stop id="stop4367-5" offset="0" stop-color="#fff" stop-opacity="1"/><stop id="stop904" offset=".129" stop-color="#e4e4e4" stop-opacity="1"/><stop id="stop4373-3" offset=".532" stop-color="#e7e7e7" stop-opacity="1"/><stop id="stop4369-5" offset="1" stop-color="#acacac" stop-opacity="1"/></linearGradient><linearGradient id="linearGradient5430-9" x1="7" x2="25" y1="16" y2="16" gradientTransform="matrix(0,-0.94117666,-0.94117666,0,111.05883,209.05883)" gradientUnits="userSpaceOnUse" xlink:href="#linearGradient5428-2"/><linearGradient id="linearGradient4608" x1="8" x2="40" y1="25" y2="25" gradientTransform="matrix(0,-0.74193564,-0.7419354,0,114.54838,211.80645)" gradientUnits="userSpaceOnUse" xlink:href="#linearGradient5032"/><linearGradient id="linearGradient4604" x1="8" x2="40" y1="25" y2="25" gradientTransform="matrix(0,0.5483873,-0.54838712,0,109.70968,180.8387)" gradientUnits="userSpaceOnUse" xlink:href="#linearGradient3688-464-309-604"/><linearGradient id="linearGradient4582" x1="8" x2="40" y1="25" y2="25" gradientTransform="matrix(0,0.67741952,-0.6774193,0,112.93548,177.74193)" gradientUnits="userSpaceOnUse" xlink:href="#linearGradient3688-464-309-604"/><radialGradient id="radialGradient4652-37" cx="16" cy="20.382" r="12" fx="16" fy="20.382" gradientTransform="matrix(0.94443506,-5.3362465e-8,5.3362189e-8,0.94443977,80.889141,177.77775)" gradientUnits="userSpaceOnUse" xlink:href="#linearGradient4718"/><radialGradient id="radialGradient5059" cx="32" cy="33" r="8" fx="32" fy="33" gradientTransform="matrix(0.49999999,0,0,0.5096154,79.999997,175.92629)" gradientUnits="userSpaceOnUse" xlink:href="#linearGradient4417"/><linearGradient id="linearGradient4417"><stop id="stop4419" offset="0" stop-color="#6e3003" stop-opacity="1"/><stop id="stop4425" offset=".607" stop-color="#a54805" stop-opacity="1"/><stop id="stop4421" offset="1" stop-color="#6e3003" stop-opacity="0"/></linearGradient><radialGradient id="radialGradient5043" cx="48.01" cy="10.317" r="3" fx="48.01" fy="10.317" gradientTransform="matrix(0,2.3180795,-1.6943737,0,113.51934,79.537644)" gradientUnits="userSpaceOnUse" xlink:href="#linearGradient4283-3"/><linearGradient id="linearGradient4283-3"><stop id="stop4285-6" offset="0" stop-color="#6d6d6d" stop-opacity="1"/><stop id="stop5511" offset=".852" stop-color="#272727" stop-opacity="1"/><stop id="stop4287-0" offset="1" stop-color="#000" stop-opacity="1"/></linearGradient><radialGradient id="radialGradient5047" cx="32" cy="31" r="3" fx="32" fy="31" gradientTransform="matrix(0.66666665,0,0,0.6794872,74.666661,171.89743)" gradientUnits="userSpaceOnUse" xlink:href="#linearGradient5032"/><linearGradient id="linearGradient5045" x1="71.204" x2="71.204" y1="22.129" y2="28.509" gradientTransform="matrix(0.70829449,0,0,0.70829446,45.191552,176.0396)" gradientUnits="userSpaceOnUse" xlink:href="#linearGradient4011"/><linearGradient id="linearGradient4011"><stop id="stop4013" offset="0" stop-color="#fff" stop-opacity="1"/><stop id="stop4015" offset=".508" stop-color="#fff" stop-opacity=".235"/><stop id="stop4017" offset=".835" stop-color="#fff" stop-opacity=".157"/><stop id="stop4019" offset="1" stop-color="#fff" stop-opacity=".392"/></linearGradient><linearGradient id="linearGradient5078" x1="98" x2="98" y1="181" y2="207" gradientUnits="userSpaceOnUse" xlink:href="#linearGradient4011"/></defs><metadata id="metadata4510"/><g id="g5769" display="inline" transform="translate(-80,-178)"><path id="path3818-0-2" fill="url(#radialGradient3043)" fill-opacity="1" stroke="none" d="m 107,205.5 a 11,3.4999999 0 1 1 -22,0 11,3.4999999 0 1 1 22,0 z"/><path id="path4984" fill="url(#linearGradient5035)" fill-opacity="1" stroke="#000" stroke-dasharray="none" stroke-dashoffset="0" stroke-linecap="round" stroke-linejoin="round" stroke-miterlimit="4" stroke-opacity=".498" stroke-width="1" d="M 96,180.5 A 13.5,13.5 0 0 0 87.980469,183.1582 2,2 0 0 0 86.5,182.5 a 2,2 0 0 0 -2,2 2,2 0 0 0 0.658203,1.48047 A 13.5,13.5 0 0 0 82.5,194 13.5,13.5 0 0 0 85.158203,202.01953 2,2 0 0 0 84.5,203.5 a 2,2 0 0 0 2,2 2,2 0 0 0 1.480469,-0.6582 A 13.5,13.5 0 0 0 96,207.5 a 13.5,13.5 0 0 0 8.01953,-2.6582 2,2 0 0 0 1.48047,0.6582 2,2 0 0 0 2,-2 2,2 0 0 0 -0.6582,-1.48047 A 13.5,13.5 0 0 0 109.5,194 13.5,13.5 0 0 0 106.8418,185.98047 2,2 0 0 0 107.5,184.5 a 2,2 0 0 0 -2,-2 2,2 0 0 0 -1.48047,0.6582 A 13.5,13.5 0 0 0 96,180.5 Z" opacity="1"/><path id="path2555-36-4-2-1-26" fill="none" stroke="url(#linearGradient5430-9)" stroke-dasharray="none" stroke-miterlimit="4" stroke-opacity="1" stroke-width="6" d="m 104,194 c 0,4.41433 -3.58603,8 -7.999989,8 -4.414314,0 -8.000007,-3.58606 -8.000007,-8 0,-4.41432 3.586039,-8 8.000007,-8 C 100.41433,186 104,189.58604 104,194 Z" color="#000" display="inline" enable-background="accumulate" opacity="1" overflow="visible" visibility="visible" style="marker:none"/><path id="path4606" fill="none" stroke="url(#linearGradient4608)" stroke-dasharray="none" stroke-miterlimit="4" stroke-opacity="1" stroke-width="1" d="m 96.000005,182.5 c -6.345601,0 -11.500001,5.15492 -11.500001,11.49999 0,6.34557 5.154951,11.50001 11.500001,11.50001 C 102.34559,205.5 107.5,200.34506 107.5,193.99999 107.5,187.65439 102.34506,182.5 96.000005,182.5 Z" color="#000" display="inline" enable-background="accumulate" opacity=".2" overflow="visible" visibility="visible" style="marker:none"/><path id="path4602" fill="none" stroke="url(#linearGradient4604)" stroke-dasharray="none" stroke-miterlimit="4" stroke-opacity="1" stroke-width="1" d="m 96.000006,202.5 c -4.690228,0 -8.500002,-3.81017 -8.500002,-8.49999 0,-4.69021 3.810181,-8.50001 8.500002,-8.50001 4.690214,0 8.499994,3.81016 8.499994,8.50001 0,4.69022 -3.81017,8.49999 -8.499994,8.49999 z" color="#000" display="inline" enable-background="accumulate" opacity=".2" overflow="visible" visibility="visible" style="marker:none"/><g id="g5009" stroke-width="1.546" transform="matrix(0.6464504,0,0,0.64724912,-45.380785,81.558315)"><ellipse id="ellipse5005" cx="204" cy="159.009" fill="#000" fill-opacity=".117" stroke="none" stroke-dasharray="none" stroke-dashoffset="0" stroke-linecap="butt" stroke-linejoin="round" stroke-miterlimit="4" stroke-opacity="1" stroke-width="3.092" opacity="1" rx="1" ry=".991"/><path id="path5007" fill="none" fill-rule="evenodd" stroke="#000" stroke-dasharray="none" stroke-linecap="butt" stroke-linejoin="miter" stroke-miterlimit="4" stroke-opacity="1" stroke-width=".773" d="m 203.23413,158.27242 1.45923,1.40117" opacity=".2"/></g><g id="g5015" stroke-width="1.546" transform="matrix(-0.6464504,0,0,0.64724912,237.34929,81.558315)"><ellipse id="ellipse5011" cx="204" cy="159.009" fill="#000" fill-opacity=".117" stroke="none" stroke-dasharray="none" stroke-dashoffset="0" stroke-linecap="butt" stroke-linejoin="round" stroke-miterlimit="4" stroke-opacity="1" stroke-width="3.092" opacity="1" rx="1" ry=".991"/><path id="path5013" fill="none" fill-rule="evenodd" stroke="#000" stroke-dasharray="none" stroke-linecap="butt" stroke-linejoin="miter" stroke-miterlimit="4" stroke-opacity="1" stroke-width=".773" d="m 203.23413,158.27242 1.45923,1.40117" opacity=".2"/></g><g id="g5021" stroke-width="1.546" transform="matrix(-0.6464504,0,0,-0.64724912,237.34929,306.37942)"><ellipse id="ellipse5017" cx="204" cy="159.009" fill="#000" fill-opacity=".117" stroke="none" stroke-dasharray="none" stroke-dashoffset="0" stroke-linecap="butt" stroke-linejoin="round" stroke-miterlimit="4" stroke-opacity="1" stroke-width="3.092" opacity="1" rx="1" ry=".991"/><path id="path5019" fill="none" fill-rule="evenodd" stroke="#000" stroke-dasharray="none" stroke-linecap="butt" stroke-linejoin="miter" stroke-miterlimit="4" stroke-opacity="1" stroke-width=".773" d="m 203.23413,158.27242 1.45923,1.40117" opacity=".2"/></g><g id="g5027" stroke-width="1.546" transform="matrix(0.6464504,0,0,-0.64724912,-45.380781,306.37942)"><ellipse id="ellipse5023" cx="204" cy="159.009" fill="#000" fill-opacity=".117" stroke="none" stroke-dasharray="none" stroke-dashoffset="0" stroke-linecap="butt" stroke-linejoin="round" stroke-miterlimit="4" stroke-opacity="1" stroke-width="3.092" opacity="1" rx="1" ry=".991"/><path id="path5025" fill="none" fill-rule="evenodd" stroke="#000" stroke-dasharray="none" stroke-linecap="butt" stroke-linejoin="miter" stroke-miterlimit="4" stroke-opacity="1" stroke-width=".773" d="m 203.23413,158.27242 1.45923,1.40117" opacity=".2"/></g><path id="path4580" fill="none" stroke="url(#linearGradient4582)" stroke-dasharray="none" stroke-miterlimit="4" stroke-opacity="1" stroke-width="1" d="m 96.000006,204.5 c -5.79381,0 -10.500002,-4.70668 -10.500002,-10.49999 0,-5.79379 4.706695,-10.50001 10.500002,-10.50001 5.793794,0 10.499994,4.70667 10.499994,10.50001 0,5.7938 -4.70668,10.49999 -10.499994,10.49999 z" color="#000" display="inline" enable-background="accumulate" opacity=".2" overflow="visible" visibility="visible" style="marker:none"/><path id="path2555-36-4-4-1" fill="url(#radialGradient4652-37)" fill-opacity="1" fill-rule="nonzero" stroke="none" stroke-width="1" d="m 96.000013,186 c -4.414339,0 -8.000009,3.58606 -8.000009,8 0,4.41432 3.586063,8 8.000009,8 C 100.41432,202 104,198.41394 104,194 c 0,-4.41433 -3.58606,-8 -7.999987,-8 z" color="#000" display="inline" enable-background="accumulate" overflow="visible" visibility="visible" style="marker:none"/><ellipse id="circle5057" cx="96" cy="192.744" fill="url(#radialGradient5059)" fill-opacity="1" stroke="none" stroke-dasharray="none" stroke-dashoffset="0" stroke-linecap="round" stroke-linejoin="round" stroke-miterlimit="4" stroke-opacity="1" stroke-width="1.125" opacity=".5" rx="4" ry="4.077"/><circle id="circle5037" cx="96" cy="194" r="3.5" fill="url(#radialGradient5043)" fill-opacity="1" stroke="#000" stroke-dasharray="none" stroke-dashoffset="0" stroke-linecap="round" stroke-linejoin="round" stroke-miterlimit="4" stroke-opacity=".498" stroke-width="1" opacity="1"/><ellipse id="circle5041" cx="96" cy="192.962" fill="url(#radialGradient5047)" fill-opacity="1" stroke="none" stroke-dasharray="none" stroke-dashoffset="0" stroke-linecap="round" stroke-linejoin="round" stroke-miterlimit="4" stroke-opacity=".498" stroke-width="2" opacity=".4" rx="2" ry="2.038"/><circle id="circle5039" cx="96" cy="194" r="2.5" fill="none" fill-opacity="1" fill-rule="nonzero" stroke="url(#linearGradient5045)" stroke-dasharray="none" stroke-dashoffset="0" stroke-linecap="round" stroke-linejoin="round" stroke-miterlimit="4" stroke-opacity="1" stroke-width="1" clip-rule="nonzero" color="#000" color-interpolation="sRGB" color-interpolation-filters="linearRGB" color-rendering="auto" display="inline" enable-background="accumulate" image-rendering="auto" opacity=".1" overflow="visible" shape-rendering="auto" text-rendering="auto" visibility="visible" style="isolation:auto;mix-blend-mode:normal;solid-color:#000;solid-opacity:1;marker:none"/><path id="path5061" fill="none" fill-opacity="1" stroke="url(#linearGradient5078)" stroke-dasharray="none" stroke-dashoffset="0" stroke-linecap="butt" stroke-linejoin="round" stroke-miterlimit="4" stroke-opacity="1" stroke-width="1" d="M 96,181.5 A 12.5,12.5 0 0 0 87.394531,184.94141 1,1 0 0 0 87.5,184.5 a 1,1 0 0 0 -1,-1 1,1 0 0 0 -1,1 1,1 0 0 0 1,1 1,1 0 0 0 0.462891,-0.11523 A 12.5,12.5 0 0 0 83.5,194 12.5,12.5 0 0 0 86.941406,202.60547 1,1 0 0 0 86.5,202.5 a 1,1 0 0 0 -1,1 1,1 0 0 0 1,1 1,1 0 0 0 1,-1 1,1 0 0 0 -0.115234,-0.46289 A 12.5,12.5 0 0 0 96,206.5 12.5,12.5 0 0 0 104.60547,203.05859 1,1 0 0 0 104.5,203.5 a 1,1 0 0 0 1,1 1,1 0 0 0 1,-1 1,1 0 0 0 -1,-1 1,1 0 0 0 -0.46289,0.11523 A 12.5,12.5 0 0 0 108.5,194 12.5,12.5 0 0 0 105.05859,185.39453 1,1 0 0 0 105.5,185.5 a 1,1 0 0 0 1,-1 1,1 0 0 0 -1,-1 1,1 0 0 0 -1,1 1,1 0 0 0 0.11523,0.46289 A 12.5,12.5 0 0 0 96,181.5 Z" opacity="1"/></g></svg>