<svg xmlns="http://www.w3.org/2000/svg" xmlns:svg="http://www.w3.org/2000/svg" xmlns:xlink="http://www.w3.org/1999/xlink" id="SVGRoot" width="32" height="32" version="1.1" viewBox="0 0 32 32"><defs id="defs4265"><linearGradient id="linearGradient5067"><stop id="stop5063" offset="0" stop-color="#000" stop-opacity=".239"/><stop id="stop5065" offset="1" stop-color="#000" stop-opacity=".318"/></linearGradient><linearGradient id="linearGradient3043" x1="24" x2="24" y1="37" y2="39" gradientTransform="matrix(0.68000006,0,0,0.67441862,-0.31999967,1.5116278)" gradientUnits="userSpaceOnUse" xlink:href="#linearGradient3260"/><linearGradient id="linearGradient3260"><stop id="stop3262" offset="0" stop-color="#3c3c3c" stop-opacity="1"/><stop id="stop3264" offset="1" stop-color="#505050" stop-opacity="1"/></linearGradient><linearGradient id="linearGradient3054" x1="25.132" x2="25.132" y1="2.911" y2="48.137" gradientTransform="matrix(0.47379065,0,0,0.62113994,4.594044,-0.87183318)" gradientUnits="userSpaceOnUse" xlink:href="#linearGradient3600"/><linearGradient id="linearGradient3600"><stop id="stop3602" offset="0" stop-color="#f4f4f4" stop-opacity="1"/><stop id="stop3604" offset="1" stop-color="#dbdbdb" stop-opacity="1"/></linearGradient><linearGradient id="linearGradient4020" x1="15" x2="15" y1="24.619" y2="2" gradientTransform="matrix(0.35000008,0,0,0.86956523,8.6499994,11.956521)" gradientUnits="userSpaceOnUse" xlink:href="#outerBackgroundGradient-5-0"/><linearGradient id="outerBackgroundGradient-5-0"><stop id="stop3864-8-6-4" offset="0" stop-color="#261e2b" stop-opacity="1"/><stop id="stop3866-9-1-86" offset="1" stop-color="#352f39" stop-opacity="1"/></linearGradient><linearGradient id="linearGradient3887" x1="10" x2="20" y1="-3" y2="12" gradientTransform="matrix(0.40000005,0,0,1.5030072,7.5999988,13.024057)" gradientUnits="userSpaceOnUse" xlink:href="#linearGradient3208"/><linearGradient id="linearGradient3208"><stop id="stop3210" offset="0" stop-color="#fff" stop-opacity="1"/><stop id="stop3212" offset="1" stop-color="#fff" stop-opacity="0"/></linearGradient><linearGradient id="linearGradient3916" x1="24" x2="24" y1="6.185" y2="41.815" gradientTransform="matrix(0.40540547,0,0,0.72972965,6.2702674,-2.5135052)" gradientUnits="userSpaceOnUse" xlink:href="#linearGradient4630"/><linearGradient id="linearGradient4630"><stop id="stop4622" offset="0" stop-color="#fff" stop-opacity="1"/><stop id="stop4624" offset=".022" stop-color="#fff" stop-opacity=".235"/><stop id="stop4626" offset=".98" stop-color="#fff" stop-opacity=".157"/><stop id="stop4628" offset="1" stop-color="#fff" stop-opacity=".392"/></linearGradient><linearGradient id="linearGradient5069" x1="27.075" x2="27.075" y1="1.093" y2="44.832" gradientTransform="matrix(0.68000002,0,0,0.6744186,-0.3199996,-0.51162796)" gradientUnits="userSpaceOnUse" xlink:href="#linearGradient5067"/><linearGradient id="linearGradient3688-166-749-6"><stop id="stop2883-8" offset="0" stop-color="#181818" stop-opacity="1"/><stop id="stop2885-3" offset="1" stop-color="#181818" stop-opacity="0"/></linearGradient><linearGradient id="linearGradient3702-501-757-3"><stop id="stop2895-3" offset="0" stop-color="#181818" stop-opacity="0"/><stop id="stop2897-28" offset=".5" stop-color="#181818" stop-opacity="1"/><stop id="stop2899-8" offset="1" stop-color="#181818" stop-opacity="0"/></linearGradient><linearGradient id="linearGradient2980-3" x1="25.058" x2="25.058" y1="47.028" y2="39.999" gradientTransform="matrix(0.42857142,0,0,0.42857134,5.7142856,10.857146)" gradientUnits="userSpaceOnUse" xlink:href="#linearGradient3702-501-757-3"/><radialGradient id="radialGradient2978-3" cx="4.993" cy="43.5" r="2.5" fx="4.993" fy="43.5" gradientTransform="matrix(1.2022705,0,0,0.59999988,-16.007123,-55.599994)" gradientUnits="userSpaceOnUse" xlink:href="#linearGradient3688-166-749-6"/><radialGradient id="radialGradient2976-2" cx="4.993" cy="43.5" r="2.5" fx="4.993" fy="43.5" gradientTransform="matrix(1.2022705,0,0,0.59999988,15.992879,3.4000048)" gradientUnits="userSpaceOnUse" xlink:href="#linearGradient3688-166-749-6"/></defs><metadata id="metadata4268"/><rect id="rect2801-0-9" width="3" height="3" x="22" y="28" fill="url(#radialGradient2976-2)" fill-opacity="1" stroke="none" opacity=".3"/><rect id="rect3696-2-1" width="3" height="3" x="-10" y="-31" fill="url(#radialGradient2978-3)" fill-opacity="1" stroke="none" opacity=".3" transform="scale(-1,-1)"/><rect id="rect3700-1-2" width="12" height="3" x="10" y="28" fill="url(#linearGradient2980-3)" fill-opacity="1" stroke="none" opacity=".3"/><rect id="rect3258" width="1.36" height="1.349" x="15.32" y="26.465" fill="url(#linearGradient3043)" fill-opacity="1" fill-rule="nonzero" stroke="none" stroke-width="1" display="inline" enable-background="accumulate" overflow="visible" visibility="visible" style="marker:none"/><rect id="rect2722-7-3" width="16" height="28" x="8" y="1" fill="url(#linearGradient3054)" fill-opacity="1" stroke="none" stroke-dasharray="none" stroke-dashoffset="0" stroke-linecap="butt" stroke-linejoin="miter" stroke-miterlimit="4" stroke-opacity="1" stroke-width="1" opacity="1" rx="1.5" ry="1.5"/><path id="rect3233" fill="#333" fill-opacity="1" fill-rule="nonzero" stroke="none" stroke-width="1" d="M 12.499999,3 A 0.50000014,0.50000001 0 0 0 12,3.5 0.50000014,0.50000001 0 0 0 12.499999,4 a 0.50000014,0.50000001 0 0 0 0.5,-0.5 0.50000014,0.50000001 0 0 0 -0.5,-0.5 z m 1.5,0 0,1 L 20,4 20,3 Z" display="inline" enable-background="accumulate" overflow="visible" visibility="visible" style="marker:none"/><path id="rect2722-0" fill="url(#linearGradient4020)" fill-opacity="1" stroke="none" stroke-width="1" d="M 9,5 23,5 23,25 9,25 Z" display="inline"/><path id="path3942" fill="#000" fill-opacity="1" stroke="none" d="m 9,5 0,20 14,0 0,-20 z m 1,1 12,0 0,18 -12,0 z" display="inline" opacity=".2"/><path id="rect3872" fill="url(#linearGradient3887)" fill-opacity="1" stroke="none" stroke-width="1" d="M 9,1 C 8.4460001,1 8,1.4414442 8,1.9897852 L 8,27.724201 C 8,27.820828 8.0184265,27.911846 8.0442725,28 L 24,8.3267307 24,1.9897852 C 24,1.4414442 23.554,1 23,1 Z" display="inline" opacity=".2"/><rect id="rect6741" width="15" height="27" x="8.5" y="1.5" fill="none" stroke="url(#linearGradient3916)" stroke-dasharray="none" stroke-dashoffset="0" stroke-linecap="round" stroke-linejoin="round" stroke-miterlimit="4" stroke-opacity="1" stroke-width="1" opacity="1" rx="1" ry="1"/><rect id="rect2722-7-3-2" width="17" height="29" x="7.5" y=".5" fill="none" fill-opacity="1" stroke="url(#linearGradient5069)" stroke-dasharray="none" stroke-dashoffset="0" stroke-linecap="butt" stroke-linejoin="miter" stroke-miterlimit="4" stroke-opacity="1" stroke-width="1" opacity="1" rx="2" ry="2"/><path id="path3942-6" fill="#fff" fill-opacity="1" stroke="none" d="m 9,25 0,1 14,0 0,-1 z" display="inline" opacity=".5"/><ellipse id="path4649" cx="16" cy="27.14" fill="none" fill-opacity="1" fill-rule="nonzero" stroke="#9b946d" stroke-dasharray="none" stroke-dashoffset="0" stroke-linecap="butt" stroke-linejoin="miter" stroke-miterlimit="4" stroke-opacity="1" stroke-width="1" clip-rule="nonzero" color="#000" color-interpolation="sRGB" color-interpolation-filters="linearRGB" color-rendering="auto" display="inline" enable-background="accumulate" image-rendering="auto" opacity=".5" overflow="visible" rx="1.02" ry="1.012" shape-rendering="auto" text-rendering="auto" visibility="visible" style="isolation:auto;mix-blend-mode:normal;solid-color:#000;solid-opacity:1;marker:none"/><path id="rect3233-2" fill="#fff" fill-opacity="1" fill-rule="nonzero" stroke="none" stroke-dasharray="none" stroke-dashoffset="0" stroke-linecap="butt" stroke-linejoin="miter" stroke-miterlimit="4" stroke-opacity="1" stroke-width="1" d="m 12.499999,3.2093024 a 0.50000013,0.5 0 0 0 -0.499999,0.5 0.50000013,0.5 0 0 0 0.499999,0.5 0.50000013,0.5 0 0 0 0.5,-0.5 0.50000013,0.5 0 0 0 -0.5,-0.5 z m 1.5,0 0,1 6.000001,0 0,-1 z" display="inline" enable-background="accumulate" opacity=".7" overflow="visible" visibility="visible" style="marker:none"/></svg>