<svg xmlns="http://www.w3.org/2000/svg" xmlns:svg="http://www.w3.org/2000/svg" xmlns:xlink="http://www.w3.org/1999/xlink" id="svg6955" width="32" height="32" version="1.1"><defs id="defs6957"><linearGradient id="linearGradient4566"><stop id="stop4568" offset="0" stop-color="#000" stop-opacity="1"/><stop id="stop4570" offset="1" stop-color="#000" stop-opacity="0"/></linearGradient><linearGradient id="linearGradient4223"><stop id="stop4225" offset="0" stop-color="#d1ff82" stop-opacity="1"/><stop id="stop4227" offset=".262" stop-color="#9bdb4d" stop-opacity="1"/><stop id="stop4229" offset=".661" stop-color="#68b723" stop-opacity="1"/><stop id="stop4231" offset="1" stop-color="#3a9104" stop-opacity="1"/></linearGradient><linearGradient id="linearGradient4546"><stop id="stop4548" offset="0" stop-color="#fff" stop-opacity="1"/><stop id="stop4550" offset=".333" stop-color="#fff" stop-opacity=".235"/><stop id="stop4552" offset=".951" stop-color="#fff" stop-opacity=".157"/><stop id="stop4554" offset="1" stop-color="#fff" stop-opacity=".392"/></linearGradient><radialGradient id="radialGradient4572" cx="26" cy="38" r="18" fx="26" fy="38" gradientTransform="matrix(1,0,0,0.33333333,0,25.333333)" gradientUnits="userSpaceOnUse" xlink:href="#linearGradient4566"/><linearGradient id="linearGradient4129"><stop id="stop4131" offset="0" stop-color="#8cd5ff" stop-opacity="1"/><stop id="stop4133" offset=".262" stop-color="#64baff" stop-opacity="1"/><stop id="stop4135" offset=".705" stop-color="#3689e6" stop-opacity="1"/><stop id="stop4137" offset="1" stop-color="#0d52bf" stop-opacity="1"/></linearGradient><radialGradient id="radialGradient3835" cx="18" cy="9.188" r="13.5" fx="18" fy="9.188" gradientTransform="matrix(-4.0747474,0,0,-3.9792511,91.345455,50.559369)" gradientUnits="userSpaceOnUse" xlink:href="#linearGradient4129"/><clipPath id="clipPath3858" clipPathUnits="userSpaceOnUse"><path id="path3860" fill="#8c8c8c" fill-opacity="1" stroke="none" d="m 11,14 c -3.3326486,0 -6,2.667351 -6,6 l 0,2 c 0,3.332649 2.6673514,6 6,6 l 13,0 c 0.259481,0 0.513076,-0.0276 0.78125,-0.0625 L 25.0625,27.90625 25.25,28.125 c 1.056448,1.365618 2.962771,1.79377 4.5,0.90625 0.09957,-0.05749 0.18882,-0.14629 0.28125,-0.21875 C 29.317927,28.296324 28.600709,27.729911 28.0625,27 l -0.25,-0.34375 0.3125,-0.3125 C 29.277198,25.25082 30,23.722169 30,22 l 0,-2 c 0,-3.332649 -2.667351,-6 -6,-6 l -13,0 z"/></clipPath><linearGradient id="linearGradient3868" x1="18" x2="18" y1="14" y2="28" gradientUnits="userSpaceOnUse" xlink:href="#linearGradient4546"/><radialGradient id="radialGradient3872" cx="18" cy="9.188" r="13.5" fx="18" fy="9.188" gradientTransform="matrix(4.0747474,0,0,-3.9692072,-59.345205,39.467091)" gradientUnits="userSpaceOnUse" xlink:href="#linearGradient4223"/><linearGradient id="linearGradient3876" x1="18" x2="18" y1="14" y2="28" gradientUnits="userSpaceOnUse" xlink:href="#linearGradient4546"/></defs><metadata id="metadata6960"/><path id="path3870" fill="url(#radialGradient3872)" fill-opacity="1" stroke="#206b00" stroke-opacity=".498" stroke-width="1" d="m 21.00025,2.5 c 3.601,0 6.5,2.899 6.5,6.5 l 0,2 c 0,3.601 -2.899,6.5 -6.5,6.5 l -13,0 C 7.71067,17.5 7.435858,17.47385 7.1565,17.4375 5.950917,18.995898 3.753989,19.481272 2.00025,18.46875 1.700648,18.295774 1.454989,18.075336 1.219,17.84375 2.098632,17.311485 2.893744,16.583665 3.5315,15.71875 2.284423,14.535821 1.50025,12.862512 1.50025,11 l 0,-2 c 0,-3.601 2.899,-6.5 6.5,-6.5 l 13,0 z"/><path id="path3874" fill="none" stroke="url(#linearGradient3876)" stroke-dasharray="none" stroke-miterlimit="4" stroke-opacity=".498" stroke-width="2" d="m 11,14 c -3.3326486,0 -6,2.667351 -6,6 l 0,2 c 0,3.332649 2.6673514,6 6,6 l 13,0 c 0.259481,0 0.513076,-0.0276 0.78125,-0.0625 L 25.0625,27.90625 25.25,28.125 c 1.056448,1.365618 2.962771,1.79377 4.5,0.90625 0.09957,-0.05749 0.18882,-0.14629 0.28125,-0.21875 C 29.317927,28.296324 28.600709,27.729911 28.0625,27 l -0.25,-0.34375 0.3125,-0.3125 C 29.277198,25.25082 30,23.722169 30,22 l 0,-2 c 0,-3.332649 -2.667351,-6 -6,-6 l -13,0 z" clip-path="url(#clipPath3858)" transform="matrix(-1,0,0,1,32,-11)"/><path id="path4564" fill="url(#radialGradient4572)" fill-opacity="1" stroke="none" d="M 44,38 A 18,6 0 1 1 8,38 18,6 0 1 1 44,38 z" opacity=".2" transform="matrix(0.72222222,0,0,0.66666667,-0.77777776,2.6666665)"/><path id="rect3059" fill="url(#radialGradient3835)" fill-opacity="1" stroke="#002e99" stroke-opacity=".498" stroke-width="1" d="M 11 13.5 C 7.399 13.5 4.5 16.399 4.5 20 L 4.5 22 C 4.5 25.601 7.399 28.5 11 28.5 L 24 28.5 C 24.28958 28.5 24.564392 28.473852 24.84375 28.4375 C 26.049333 29.995898 28.246261 30.481272 30 29.46875 C 30.299602 29.295774 30.545261 29.075336 30.78125 28.84375 C 29.901618 28.311485 29.106506 27.583665 28.46875 26.71875 C 29.715827 25.535821 30.5 23.862512 30.5 22 L 30.5 20 C 30.5 16.399 27.601 13.5 24 13.5 L 11 13.5 z"/><g id="g3878"><path id="path3963" fill="#fff" fill-opacity=".498" stroke="none" d="m 9,24 0,2 2,0 0,-2 -2,0 z m 3,0 0,2 2,0 0,-2 -2,0 z m 3,0 0,2 2,0 0,-2 -2,0 z" opacity=".4"/><path id="rect3956" fill="#002e99" fill-opacity=".498" stroke="none" d="m 9,23 0,2 2,0 0,-2 -2,0 z m 3,0 0,2 2,0 0,-2 -2,0 z m 3,0 0,2 2,0 0,-2 -2,0 z"/></g><path id="path3856" fill="none" fill-opacity="1" stroke="url(#linearGradient3868)" stroke-dasharray="none" stroke-miterlimit="4" stroke-opacity=".498" stroke-width="2" d="M 11 14 C 7.6673514 14 5 16.667351 5 20 L 5 22 C 5 25.332649 7.6673514 28 11 28 L 24 28 C 24.259481 28 24.513076 27.972397 24.78125 27.9375 L 25.0625 27.90625 L 25.25 28.125 C 26.306448 29.490618 28.212771 29.91877 29.75 29.03125 C 29.849569 28.973764 29.93882 28.88496 30.03125 28.8125 C 29.317927 28.296324 28.600709 27.729911 28.0625 27 L 27.8125 26.65625 L 28.125 26.34375 C 29.277198 25.25082 30 23.722169 30 22 L 30 20 C 30 16.667351 27.332649 14 24 14 L 11 14 z" clip-path="url(#clipPath3858)"/></svg>