<svg xmlns="http://www.w3.org/2000/svg" xmlns:svg="http://www.w3.org/2000/svg" xmlns:xlink="http://www.w3.org/1999/xlink" id="svg4715" width="32" height="32" version="1.1"><defs id="defs4717"><linearGradient id="linearGradient909"><stop id="stop905" offset="0" stop-color="#fafafa" stop-opacity="1"/><stop id="stop907" offset="1" stop-color="#d4d4d4" stop-opacity="1"/></linearGradient><linearGradient id="linearGradient3924"><stop id="stop3926" offset="0" stop-color="#fff" stop-opacity="1"/><stop id="stop3928" offset=".04" stop-color="#fff" stop-opacity=".235"/><stop id="stop3930" offset=".958" stop-color="#fff" stop-opacity=".157"/><stop id="stop3932" offset="1" stop-color="#fff" stop-opacity=".392"/></linearGradient><radialGradient id="radialGradient3163" cx="4.993" cy="43.5" r="2.5" fx="4.993" fy="43.5" gradientTransform="matrix(2.003784,0,0,1.4,27.98813,-17.4)" gradientUnits="userSpaceOnUse" xlink:href="#linearGradient3688-166-749"/><linearGradient id="linearGradient3688-166-749"><stop id="stop2883" offset="0" stop-color="#181818" stop-opacity="1"/><stop id="stop2885" offset="1" stop-color="#181818" stop-opacity="0"/></linearGradient><radialGradient id="radialGradient3165" cx="4.993" cy="43.5" r="2.5" fx="4.993" fy="43.5" gradientTransform="matrix(2.003784,0,0,1.4,-20.01187,-104.4)" gradientUnits="userSpaceOnUse" xlink:href="#linearGradient3688-464-309"/><linearGradient id="linearGradient3688-464-309"><stop id="stop2889" offset="0" stop-color="#181818" stop-opacity="1"/><stop id="stop2891" offset="1" stop-color="#181818" stop-opacity="0"/></linearGradient><linearGradient id="linearGradient3167" x1="25.058" x2="25.058" y1="47.028" y2="39.999" gradientUnits="userSpaceOnUse" xlink:href="#linearGradient3702-501-757"/><linearGradient id="linearGradient3702-501-757"><stop id="stop2895" offset="0" stop-color="#181818" stop-opacity="0"/><stop id="stop2897" offset=".5" stop-color="#181818" stop-opacity="1"/><stop id="stop2899" offset="1" stop-color="#181818" stop-opacity="0"/></linearGradient><linearGradient id="linearGradient3027" x1="24" x2="24" y1="6.24" y2="41.76" gradientTransform="matrix(0.67567568,0,0,0.67567567,-0.2162133,-0.21620877)" gradientUnits="userSpaceOnUse" xlink:href="#linearGradient3924"/><linearGradient id="linearGradient903" x1="14.33" x2="14.33" y1="32.022" y2="-.07" gradientTransform="translate(0,-32)" gradientUnits="userSpaceOnUse" xlink:href="#linearGradient909"/><linearGradient id="linearGradient4967" x1="44.2" x2="53.8" y1="1037.505" y2="1037.505" gradientTransform="matrix(0.41666668,0,0,0.58333335,-0.4167,-628.2113)" gradientUnits="userSpaceOnUse" xlink:href="#linearGradient12739"/><linearGradient id="linearGradient12739"><stop id="stop12741" offset="0" stop-color="#fff" stop-opacity="1"/><stop id="stop12743" offset="1" stop-color="#fff" stop-opacity="0"/></linearGradient><linearGradient id="linearGradient5031" x1="32.14" x2="65.26" y1="29.5" y2="29.5" gradientTransform="matrix(0,0.37815125,0.37815125,0,18.727151,1.4664)" gradientUnits="userSpaceOnUse" xlink:href="#linearGradient3688-166-749"/><radialGradient id="radialGradient4973" cx="51.91" cy="38.188" r="27.5" fx="51.91" fy="38.188" gradientTransform="matrix(0,0.2105263,-0.21052635,0,31.039586,11.0712)" gradientUnits="userSpaceOnUse" spreadMethod="pad" xlink:href="#linearGradient12727"/><linearGradient id="linearGradient12727"><stop id="stop12729" offset="0" stop-color="#181818" stop-opacity="0"/><stop id="stop12745" offset=".538" stop-color="#181818" stop-opacity="0"/><stop id="stop12731" offset="1" stop-color="#181818" stop-opacity="1"/></linearGradient><clipPath id="clipPath5549"><rect id="rect5551" width="11" height="11" x="17.5" y="1037.862" fill="url(#linearGradient5553)" fill-opacity="1" fill-rule="nonzero" stroke="none" stroke-width="1" color="#000" display="inline" enable-background="accumulate" overflow="visible" rx="25" ry="25" visibility="visible" style="marker:none"/></clipPath><linearGradient id="linearGradient4975" x1="30.5" x2="49.5" y1="30" y2="30" gradientTransform="matrix(0.57894738,0,0,0.57894738,-0.1578993,4.6312)" gradientUnits="userSpaceOnUse" xlink:href="#linearGradient4632-92-3-0-8-1-7-6"/><linearGradient id="linearGradient4632-92-3-0-8-1-7-6"><stop id="stop4634-68-8-0-2-9-4-8" offset="0" stop-color="#fafafa" stop-opacity="1"/><stop id="stop4636-8-21-7-1-4-0-7" offset="1" stop-color="#e1e1e1" stop-opacity="1"/></linearGradient><linearGradient id="linearGradient4977" x1="33.244" x2="66.732" y1="42.379" y2="42.379" gradientTransform="matrix(0,0.40372668,-0.40372667,0,40.110976,1.8185)" gradientUnits="userSpaceOnUse" xlink:href="#linearGradient3878"/><linearGradient id="linearGradient3878"><stop id="stop3880" offset="0" stop-color="#fff" stop-opacity="1"/><stop id="stop3882" offset=".077" stop-color="#fff" stop-opacity=".235"/><stop id="stop3884" offset=".923" stop-color="#fff" stop-opacity=".157"/><stop id="stop3886" offset="1" stop-color="#fff" stop-opacity=".392"/></linearGradient><linearGradient id="linearGradient4985" x1="79.457" x2="79.457" y1="22.857" y2="50.057" gradientTransform="matrix(0.57189537,0,0,0.57189537,-22.441174,1.153)" gradientUnits="userSpaceOnUse" xlink:href="#linearGradient4220-7"/><linearGradient id="linearGradient4220-7"><stop id="stop4222-7" offset="0" stop-color="#7a8498" stop-opacity="1"/><stop id="stop4224-0" offset="1" stop-color="#34405c" stop-opacity="1"/></linearGradient><linearGradient id="linearGradient5545" x1="38.068" x2="53.632" y1="26.55" y2="26.55" gradientTransform="matrix(0,-1.1564626,1.1564626,0,-7.7040808,75.0238)" gradientUnits="userSpaceOnUse" xlink:href="#linearGradient3688-166-749"/></defs><metadata id="metadata4720"/><g id="g2036" display="inline" transform="matrix(0.6999997,0,0,0.44444486,-0.8000003,10.111104)"><g id="g3712" opacity=".4" transform="matrix(1.052632,0,0,1.285713,-1.263158,-13.42854)"><rect id="rect2801" width="5" height="7" x="38" y="40" fill="url(#radialGradient3163)" fill-opacity="1" stroke="none"/><rect id="rect3696" width="5" height="7" x="-10" y="-47" fill="url(#radialGradient3165)" fill-opacity="1" stroke="none" transform="scale(-1,-1)"/><rect id="rect3700" width="28" height="7" x="10" y="40" fill="url(#linearGradient3167)" fill-opacity="1" stroke="none"/></g></g><rect id="rect5505" width="26" height="26" x="3" y="-29" fill="url(#linearGradient903)" fill-opacity="1" fill-rule="nonzero" stroke="none" stroke-width="1" color="#000" display="inline" enable-background="accumulate" overflow="visible" rx="1.615" ry="1.615" transform="scale(1,-1)" visibility="visible" style="marker:none"/><rect id="rect5505-6-6" width="27" height="27" x="2.5" y="2.5" fill="none" stroke="#555761" stroke-dasharray="none" stroke-dashoffset="0" stroke-linecap="round" stroke-linejoin="round" stroke-miterlimit="4" stroke-opacity="1" stroke-width="1" color="#000" display="inline" enable-background="accumulate" opacity=".5" overflow="visible" rx="2.16" ry="2.16" visibility="visible" style="marker:none"/><rect id="rect6741-7" width="25" height="25" x="3.5" y="3.5" fill="none" stroke="url(#linearGradient3027)" stroke-dasharray="none" stroke-dashoffset="0" stroke-linecap="round" stroke-linejoin="round" stroke-miterlimit="4" stroke-opacity="1" stroke-width="1" rx="1.087" ry="1.19"/><path id="path5035" fill="none" stroke="url(#linearGradient5545)" stroke-dasharray="none" stroke-miterlimit="4" stroke-opacity="1" stroke-width="1" d="m 23,13.499992 a 8.5,8.5 0 1 1 0,16.999999 8.5,8.5 0 1 1 0,-16.999999 z" opacity=".15"/><g font-variant="normal" style="line-height:125%;-inkscape-font-specification:'Open Sans Bold';text-align:center" id="text7620" fill="#000" fill-opacity="1" stroke="none" font-family="Open Sans" font-size="16" font-stretch="normal" font-style="normal" font-weight="bold" letter-spacing="0" opacity=".6" text-anchor="middle" transform="translate(0,-1021.3622)" word-spacing="0"><path id="path7921" d="m 14.683594,1043.0184 -0.828125,-2.7187 H 9.6914063 l -0.828125,2.7187 H 6.2539062 l 4.0312498,-11.4687 h 2.960938 l 4.046875,11.4687 h -2.609375 m -1.40625,-4.75 c -0.765632,-2.4635 -1.197923,-3.8567 -1.296875,-4.1797 -0.09376,-0.3229 -0.161464,-0.5781 -0.203125,-0.7656 -0.171881,0.6667 -0.664068,2.3151 -1.476563,4.9453 h 2.976563"/><path id="path7923" d="m 24.082031,1043.0184 -0.460937,-1.1875 h -0.0625 c -0.401048,0.5052 -0.81511,0.8568 -1.242188,1.0547 -0.421879,0.1927 -0.973962,0.2891 -1.65625,0.2891 -0.838544,0 -1.500002,-0.2396 -1.984375,-0.7188 -0.479167,-0.4791 -0.71875,-1.1614 -0.71875,-2.0468 0,-0.9271 0.322916,-1.6094 0.96875,-2.0469 0.65104,-0.4427 1.630205,-0.6875 2.9375,-0.7344 l 1.515625,-0.047 v -0.3828 c -6e-6,-0.8854 -0.45313,-1.3281 -1.359375,-1.3281 -0.69792,0 -1.518232,0.2109 -2.460937,0.6328 l -0.789063,-1.6094 c 1.005206,-0.526 2.119788,-0.789 3.34375,-0.789 1.171869,0 2.070306,0.2552 2.695313,0.7656 0.624992,0.5104 0.937491,1.2865 0.9375,2.3281 v 5.8203 h -1.664063 m -0.703125,-4.0468 -0.921875,0.031 c -0.692713,0.021 -1.208337,0.1458 -1.546875,0.375 -0.338545,0.2292 -0.507815,0.5781 -0.507812,1.0469 -3e-6,0.6719 0.385413,1.0078 1.15625,1.0078 0.552078,0 0.992182,-0.1589 1.320312,-0.4766 0.333328,-0.3177 0.499994,-0.7395 0.5,-1.2656 v -0.7187"/></g><path id="path4218" fill="url(#linearGradient4985)" fill-opacity="1" fill-rule="nonzero" stroke="none" stroke-width=".791" d="m 30.5,22.0027 a 7.5,7.5 0 0 1 -14.999999,0 7.5,7.5 0 1 1 14.999999,0 z" color="#000" display="inline" enable-background="accumulate" overflow="visible" visibility="visible" style="marker:none"/><path id="path7624" fill="none" stroke="#000" stroke-dasharray="none" stroke-miterlimit="4" stroke-opacity="1" stroke-width="1" d="m 30.499999,22.0043 a 7.4999994,7.4993877 0 0 1 -14.999997,0 7.5000001,7.4993877 0 1 1 14.999997,0 z" opacity=".3"/><path id="path7681" fill="none" stroke="url(#linearGradient4977)" stroke-dasharray="none" stroke-miterlimit="4" stroke-opacity="1" stroke-width="1" d="m 22.999999,28.5 a 6.5,6.5 0 1 1 0,-13 6.5,6.5 0 0 1 0,13 z" opacity=".3"/><rect id="rect8115" width="11" height="11" x="17.5" y="16.5" fill="url(#linearGradient4975)" fill-opacity="1" fill-rule="nonzero" stroke="none" stroke-width="1" color="#000" display="inline" enable-background="accumulate" overflow="visible" rx="25" ry="25" visibility="visible" style="marker:none"/><g id="text4993" fill="#000" fill-opacity="1" stroke="none" clip-path="url(#clipPath5549)" font-family="Open Sans" font-size="18" font-stretch="normal" font-style="normal" font-variant="normal" font-weight="bold" letter-spacing="0" opacity=".6" text-anchor="middle" transform="translate(0,-1021.3622)" word-spacing="0" style="line-height:125%;-inkscape-font-specification:'Open Sans Bold';text-align:center"><path id="path7862" d="m 14.519043,1043.7255 -0.931641,-3.0586 h -4.68457 l -0.9316406,3.0586 H 5.0356445 l 4.5351563,-12.9024 h 3.3310542 l 4.552735,12.9024 h -2.935547 m -1.582031,-5.3438 c -0.861335,-2.7715 -1.347663,-4.3388 -1.458985,-4.7021 -0.105475,-0.3633 -0.181647,-0.6504 -0.228515,-0.8614 -0.193366,0.75 -0.747076,2.6045 -1.6611331,5.5635 h 3.3486331"/><path id="path7864" d="m 25.092285,1043.7255 -0.518555,-1.336 h -0.07031 c -0.451179,0.5684 -0.916998,0.9639 -1.397461,1.1865 -0.474615,0.2168 -1.095708,0.3252 -1.863281,0.3252 -0.943362,0 -1.687502,-0.2695 -2.232422,-0.8085 -0.539064,-0.5391 -0.808595,-1.3067 -0.808594,-2.3028 -10e-7,-1.0429 0.36328,-1.8105 1.089844,-2.3027 0.732419,-0.4981 1.833981,-0.7734 3.304687,-0.8262 l 1.705079,-0.053 v -0.4307 c -7e-6,-0.9961 -0.509772,-1.4941 -1.529297,-1.4941 -0.785161,0 -1.708012,0.2373 -2.768555,0.7119 l -0.887695,-1.8106 c 1.130856,-0.5917 2.384761,-0.8876 3.761718,-0.8877 1.318353,10e-5 2.329094,0.2872 3.032227,0.8614 0.703116,0.5742 1.054678,1.4472 1.054687,2.6191 v 6.5479 h -1.87207 m -0.791015,-4.5528 -1.03711,0.035 c -0.779302,0.023 -1.359379,0.1641 -1.740234,0.4219 -0.380863,0.2578 -0.571293,0.6504 -0.571289,1.1777 -4e-6,0.7559 0.43359,1.1338 1.300781,1.1338 0.621088,0 1.116205,-0.1787 1.485352,-0.5361 0.374993,-0.3575 0.562493,-0.8321 0.5625,-1.4239 v -0.8086"/></g><rect id="rect12723" width="11" height="11" x="17.5" y="16.5" fill="url(#radialGradient4973)" fill-opacity="1" fill-rule="nonzero" stroke="none" stroke-width="1" color="#000" display="inline" enable-background="accumulate" opacity=".4" overflow="visible" rx="25" ry="25" visibility="visible" style="marker:none"/><path id="path8113" fill="none" stroke="#000" stroke-dasharray="none" stroke-miterlimit="4" stroke-opacity="1" stroke-width="1" d="m 28.5,22.0029 a 5.4999995,5.4995141 0 0 1 -10.999998,0 5.5,5.4995145 0 1 1 10.999998,0 z" opacity=".3"/><path id="path8123" fill="none" stroke="url(#linearGradient5031)" stroke-dasharray="none" stroke-miterlimit="4" stroke-opacity="1" stroke-width="1" d="m 23.000949,26.5 a 4.5000001,4.5000001 0 0 0 0,-9 4.5000001,4.5000001 0 1 0 0,9 z" opacity=".15"/><rect id="rect12733" width="4" height="6" x="18" y="-26" fill="url(#linearGradient4967)" fill-opacity="1" fill-rule="nonzero" stroke="none" stroke-width="1" color="#000" display="inline" enable-background="accumulate" opacity=".5" overflow="visible" rx="25" ry="25" transform="rotate(90)" visibility="visible" style="marker:none"/></svg>