<svg xmlns="http://www.w3.org/2000/svg" xmlns:svg="http://www.w3.org/2000/svg" xmlns:xlink="http://www.w3.org/1999/xlink" id="svg3749" width="24" height="24" version="1.1"><metadata id="metadata148432"/><defs id="defs3751"><linearGradient id="linearGradient3820-7-2-2"><stop id="stop3822-2-6-36" offset="0" stop-color="#3d3d3d" stop-opacity="1"/><stop id="stop3864-8-7-6" offset=".5" stop-color="#686868" stop-opacity=".498"/><stop id="stop3824-1-2-4" offset="1" stop-color="#686868" stop-opacity="0"/></linearGradient><linearGradient id="linearGradient4806-9"><stop id="stop4808-49" offset="0" stop-color="#fff" stop-opacity="1"/><stop id="stop4810-05" offset=".424" stop-color="#fff" stop-opacity=".235"/><stop id="stop4812-6" offset=".821" stop-color="#fff" stop-opacity=".157"/><stop id="stop4814-7" offset="1" stop-color="#fff" stop-opacity=".392"/></linearGradient><linearGradient id="linearGradient3097" x1="71.204" x2="71.204" y1="15.369" y2="40.496" gradientTransform="matrix(0.77562456,0,0,0.77562491,-43.981566,-9.6142608)" gradientUnits="userSpaceOnUse" xlink:href="#linearGradient4806-9"/><radialGradient id="radialGradient3108" cx="99.157" cy="186.171" r="62.769" fx="99.157" fy="186.171" gradientTransform="matrix(0.11151981,0,0,0.03548359,0.942029,15.166729)" gradientUnits="userSpaceOnUse" xlink:href="#linearGradient3820-7-2-2"/><linearGradient id="linearGradient27416-1-2-0-1"><stop id="stop27420-2-0-8-7" offset="0" stop-color="#55c1ec" stop-opacity="1"/><stop id="stop27422-3-5-3-3" offset="1" stop-color="#3689e6" stop-opacity="1"/></linearGradient><linearGradient id="linearGradient4043" x1="30.271" x2="30.271" y1="10.029" y2="55.053" gradientTransform="matrix(0.34708839,0,0,0.63180093,30.549197,-24.659026)" gradientUnits="userSpaceOnUse" xlink:href="#linearGradient27416-1-2-0-1"/></defs><path id="path3818-0-2" fill="url(#radialGradient3108)" fill-opacity="1" stroke="none" d="m 19,21.772727 a 7,2.2272727 0 0 1 -14,0 7,2.2272727 0 1 1 14,0 z"/><path d="M 22.5,12 A 10.5,10.499999 0 0 1 1.5000004,12 10.5,10.499999 0 1 1 22.5,12 z" style="marker:none" id="path3029" fill="url(#linearGradient4043)" fill-opacity="1" fill-rule="nonzero" stroke="none" stroke-width="1.546" color="#000" display="inline" enable-background="accumulate" overflow="visible" visibility="visible"/><path id="path4100" fill="#000" fill-opacity="1" fill-rule="nonzero" stroke="none" stroke-width="2" d="m 12,6.15625 c -2.8103572,0 -5.15625,2.2348172 -5.15625,5 0,1.697435 0.9514114,3.099476 2.28125,4 -1.6306,0.438147 -3.0568081,1.379026 -3.8125,2.875 a 1.0212743,1.0212743 0 0 0 0.15625,1.15625 c 1.6332815,1.742116 3.9618924,2.84375 6.53125,2.84375 2.569357,0 4.897969,-1.101634 6.53125,-2.84375 a 1.0212743,1.0212743 0 0 0 0.15625,-1.15625 c -0.755691,-1.495974 -2.1819,-2.436853 -3.8125,-2.875 1.329839,-0.900524 2.28125,-2.302565 2.28125,-4 0,-2.7651828 -2.345893,-5 -5.15625,-5 z" color="#000" display="inline" enable-background="accumulate" opacity=".07" overflow="visible" visibility="visible" style="marker:none"/><path id="rect3049-2" fill="#000" fill-opacity="1" fill-rule="nonzero" stroke="none" stroke-width="2" d="m 12,7.18691 c -2.279859,0 -4.12805,1.7771067 -4.12805,3.969279 0,2.192172 1.848191,3.969279 4.12805,3.969279 2.279859,0 4.12805,-1.777107 4.12805,-3.969279 C 16.12805,8.9640167 14.279859,7.18691 12,7.18691 z m -1.513288,8.603412 c -1.8583202,0 -3.4657136,1.093283 -4.2768975,2.699109 C 7.6582054,20.034336 9.7152269,21 12,21 c 2.284773,0 4.341795,-0.965664 5.790185,-2.510569 -0.811183,-1.605826 -2.418577,-2.699109 -4.276897,-2.699109 l -3.026576,0 z" color="#000" display="inline" enable-background="accumulate" opacity=".15" overflow="visible" visibility="visible" style="marker:none"/><path d="m 12,6.1254683 c -2.279859,0 -4.12805,1.7771067 -4.12805,3.9692787 0,2.192172 1.848191,3.969279 4.12805,3.969279 2.279859,0 4.12805,-1.777107 4.12805,-3.969279 C 16.12805,7.902575 14.279859,6.1254683 12,6.1254683 z M 10.486712,14.72888 c -1.8583202,0 -3.4657136,1.093283 -4.2768975,2.699109 1.4483909,1.544905 3.5054124,2.510569 5.7901855,2.510569 2.284773,0 4.341795,-0.965664 5.790186,-2.510569 -0.811184,-1.605826 -2.418578,-2.699109 -4.276898,-2.699109 l -3.026576,0 z" style="marker:none" id="rect3049" fill="#fff" fill-opacity="1" fill-rule="nonzero" stroke="none" stroke-width="2" color="#000" display="inline" enable-background="accumulate" overflow="visible" visibility="visible"/><path id="path2555-7-1-7" fill="#000" fill-opacity="0" fill-rule="nonzero" stroke="#003651" stroke-dasharray="none" stroke-dashoffset="0" stroke-linecap="round" stroke-linejoin="round" stroke-miterlimit="4" stroke-opacity="1" stroke-width="1" d="M 12,1.5000001 C 6.206462,1.5000001 1.5,6.2064618 1.5,11.999999 1.5,17.793538 6.206462,22.500002 12,22.5 17.793538,22.5 22.500007,17.793538 22.5,11.999999 22.5,6.2064618 17.793538,1.5000001 12,1.5000001 z" color="#000" display="inline" enable-background="accumulate" opacity=".5" overflow="visible" visibility="visible" style="marker:none"/><path id="path3421" fill="none" stroke="url(#linearGradient3097)" stroke-dasharray="none" stroke-dashoffset="0" stroke-linecap="round" stroke-linejoin="round" stroke-miterlimit="4" stroke-opacity="1" stroke-width="1" d="m 21.500001,12 c 0,5.246706 -4.253305,9.5 -9.500001,9.5 -5.246695,0 -9.5,-4.253294 -9.5,-9.5 0,-5.2467042 4.253305,-9.5000003 9.5,-9.5000003 5.246696,0 9.500001,4.2532961 9.500001,9.5000003 z" color="#000" display="inline" enable-background="accumulate" opacity=".5" overflow="visible" visibility="visible" style="marker:none"/></svg>