<svg xmlns="http://www.w3.org/2000/svg" width="24" height="24"><g transform="translate(-713 255)"><path fill="#666" d="M718-248c-.554 0-1 2.23-1 5s.446 5 1 5h14c.411 0 .76-1.235.914-3h1.584c.278 0 .502-.892.502-2s-.224-2-.502-2h-1.584c-.154-1.765-.503-3-.914-3zm.512 1h12.977c.283 0 .511 1.784.511 4s-.228 4-.511 4h-12.977c-.283 0-.512-1.784-.512-4s.229-4 .512-4zm14.447 3h.932c.06 0 .11.446.11 1s-.05 1-.11 1h-.932c.014-.334.041-.645.041-1s-.027-.666-.04-1z" color="#bebebe" overflow="visible" style="isolation:auto;mix-blend-mode:normal;marker:none"/><rect width="3" height="6" x="719" y="-246" fill="#fbc02d" class="warning" style="isolation:auto;mix-blend-mode:normal;marker:none" color="#bebebe" overflow="visible" rx=".253" ry="3"/></g></svg>