<svg xmlns="http://www.w3.org/2000/svg" xmlns:svg="http://www.w3.org/2000/svg" id="svg6" width="24" height="24" version="1.1"><metadata id="metadata12"/><g id="g4" transform="translate(-673.9996,175)"><path id="path2" fill="#666" d="m 685.51,-170 c -0.277,0 -0.5,0.222 -0.5,0.5 v 4.874 l -1.719,-1.5 c -0.313,-0.273 -0.758,-0.219 -1.031,0.094 a 0.753,0.753 0 0 0 0.062,1.063 l 2.25,1.968 -2.25,1.97 a 0.753,0.753 0 0 0 -0.062,1.062 c 0.273,0.312 0.718,0.367 1.031,0.093 l 1.719,-1.5 v 4.875 c 0,0.277 0.223,0.5 0.5,0.5 0.282,0 0.437,-0.02 0.656,-0.187 l 3.531,-3.156 a 0.78,0.78 0 0 0 0.22,-0.375 0.745,0.745 0 0 0 0.03,-0.282 0.723,0.723 0 0 0 -0.03,-0.156 0.78,0.78 0 0 0 -0.22,-0.375 l -2.812,-2.469 2.812,-2.468 a 0.78,0.78 0 0 0 0.22,-0.375 0.712,0.712 0 0 0 0,-0.438 0.78,0.78 0 0 0 -0.22,-0.375 l -3.53,-3.156 c -0.2,-0.161 -0.428,-0.188 -0.657,-0.188 z m 0.5,2.062 2.094,1.875 -2.094,1.812 z m 0,6.187 2.094,1.813 -2.094,1.875 z m 8.049,4.75 a 2,2 0 0 0 -2.059,2 2,2 0 1 0 4,0 2,2 0 0 0 -1.941,-2 z" color="#bebebe" overflow="visible" style="marker:none"/></g></svg>