<svg xmlns="http://www.w3.org/2000/svg" xmlns:svg="http://www.w3.org/2000/svg" xmlns:xlink="http://www.w3.org/1999/xlink" id="svg12303" width="24" height="24" version="1.1"><defs id="defs12305"><linearGradient id="linearGradient4011-2"><stop id="stop4013-7" offset="0" stop-color="#fff" stop-opacity="1"/><stop id="stop4015-9" offset=".508" stop-color="#fff" stop-opacity=".235"/><stop id="stop4017-5" offset=".835" stop-color="#fff" stop-opacity=".157"/><stop id="stop4019-6" offset="1" stop-color="#fff" stop-opacity=".392"/></linearGradient><linearGradient id="linearGradient8838"><stop id="stop8840" offset="0" stop-color="#000" stop-opacity="1"/><stop id="stop8842" offset="1" stop-color="#000" stop-opacity="0"/></linearGradient><radialGradient id="radialGradient12301" cx="62.625" cy="4.625" r="10.625" fx="62.625" fy="4.625" gradientTransform="matrix(1.0352941,0,0,0.2823525,-52.83529,19.69412)" gradientUnits="userSpaceOnUse" xlink:href="#linearGradient8838"/><linearGradient id="linearGradient3881"><stop id="stop3883" offset="0" stop-color="#2d2d2d" stop-opacity="1"/><stop id="stop3885" offset="1" stop-color="#3f3f3f" stop-opacity="1"/></linearGradient><clipPath id="clipPath3865" clipPathUnits="userSpaceOnUse"><path id="path3867" fill="#000" fill-opacity="1" stroke="none" d="m 32,24 a 8,8 0 1 1 -16,0 8,8 0 1 1 16,0 z" opacity=".2"/></clipPath><linearGradient id="outerBackgroundGradient-0"><stop id="stop3864-8-6-3" offset="0" stop-color="#c3c3c3" stop-opacity="1"/><stop id="stop3866-9-1-7" offset="1" stop-color="#ebebeb" stop-opacity="1"/></linearGradient><linearGradient id="linearGradient3907"><stop id="stop3909" offset="0" stop-color="#fff" stop-opacity="1"/><stop id="stop3911" offset="1" stop-color="#b6b6b6" stop-opacity="1"/></linearGradient><linearGradient id="linearGradient3111" x1="71.204" x2="71.204" y1="6.238" y2="44.341" gradientTransform="matrix(0.51351351,0,0,0.51351346,-24.836129,-1.0212839)" gradientUnits="userSpaceOnUse" xlink:href="#linearGradient4011-2"/><linearGradient id="linearGradient3916" x1="24" x2="24" y1="14" y2="33" gradientTransform="matrix(0.66666665,0,0,0.54545454,-4,-1.090909)" gradientUnits="userSpaceOnUse" xlink:href="#linearGradient3881"/><linearGradient id="linearGradient3926" x1="9" x2="37" y1="23" y2="23" gradientTransform="matrix(0,0.49999992,-0.49999997,0,23.5,0.5000018)" gradientUnits="userSpaceOnUse" xlink:href="#outerBackgroundGradient-0"/><linearGradient id="linearGradient3932" x1="9" x2="37" y1="23" y2="23" gradientTransform="matrix(0,0.71428561,-0.71428567,0,28.428571,-4.4285695)" gradientUnits="userSpaceOnUse" xlink:href="#linearGradient3907"/><linearGradient id="linearGradient3953" x1="71.204" x2="71.204" y1="6.238" y2="44.341" gradientTransform="matrix(0.4054054,0,0,-0.40540537,-17.081155,22.279961)" gradientUnits="userSpaceOnUse" xlink:href="#linearGradient4011-2"/><linearGradient id="linearGradient3993" x1="71.204" x2="71.204" y1="6.238" y2="44.341" gradientTransform="matrix(0.24324323,0,0,-0.24324321,-5.4486922,18.167978)" gradientUnits="userSpaceOnUse" xlink:href="#linearGradient4011-2"/></defs><metadata id="metadata12308"/><path d="m 23,21 c 0,1.65685 -4.92486,3 -11,3 -6.07514,0 -11,-1.34315 -11,-3 0,-1.65685 4.92486,-3 11,-3 6.07514,0 11,1.34315 11,3 l 0,0 z" style="marker:none" id="path8836" fill="url(#radialGradient12301)" fill-opacity="1" fill-rule="evenodd" stroke="none" stroke-width="1" display="inline" opacity=".3" overflow="visible" visibility="visible"/><path id="path3902" fill="url(#linearGradient3932)" fill-opacity="1" fill-rule="nonzero" stroke="none" d="M 12.000353,2.0000015 C 6.477332,2.0000015 2,6.4774835 2,11.999873 2,17.52277 6.4773794,21.999998 12.000353,21.999998 17.523126,21.999998 22,17.52277 22,11.999873 22,6.4774835 17.523126,2.0000015 12.000353,2.0000015 l 0,0 z"/><path id="path3824" fill="url(#linearGradient3926)" fill-opacity="1" fill-rule="nonzero" stroke="none" d="M 12.00025,5.0000021 C 8.1341296,5.0000021 5,8.1342392 5,11.999913 5,15.86594 8.1341643,19 12.00025,19 15.866189,19 19,15.86594 19,11.999913 19,8.1342392 15.866189,5.0000021 12.00025,5.0000021 l 0,0 z"/><path id="path3857" fill="#000" fill-opacity="1" stroke="none" d="m 16,12.001898 a 4,3.9999997 0 0 1 -7.9999995,0 4,3.9999997 0 1 1 7.9999995,0 z" opacity=".1"/><path id="path3859" fill="none" stroke="#000" stroke-dasharray="none" stroke-miterlimit="4" stroke-opacity="1" stroke-width="4" d="m 32,24 a 8,8 0 1 1 -16,0 8,8 0 1 1 16,0 z" clip-path="url(#clipPath3865)" opacity=".1" transform="matrix(0.5,0,0,0.49999995,0,1.6596046e-6)"/><path id="path8655" fill="none" stroke="url(#linearGradient3111)" stroke-dasharray="none" stroke-dashoffset="0" stroke-linecap="round" stroke-linejoin="round" stroke-miterlimit="4" stroke-opacity="1" stroke-width="1" d="m 21.5,11.999663 c 0,5.246875 -4.253608,9.500336 -9.499879,9.500336 C 6.753368,21.499999 2.5,17.246489 2.5,11.999663 2.5,6.7530323 6.753368,2.5000012 12.000121,2.5000012 17.246392,2.5000012 21.5,6.7530323 21.5,11.999663 l 0,0 z" color="#000" display="inline" enable-background="accumulate" opacity="1" overflow="visible" visibility="visible" style="marker:none"/><path id="path2555-6" fill="none" stroke="#000" stroke-dasharray="none" stroke-dashoffset="0" stroke-linecap="round" stroke-linejoin="round" stroke-miterlimit="4" stroke-opacity="1" stroke-width="1" d="M 12.000002,1.4998699 C 6.206391,1.4998699 1.499869,6.2063893 1.499869,12 c 0,5.79361 4.706522,10.500132 10.500133,10.50013 5.793607,0 10.500134,-4.70652 10.500129,-10.50013 0,-5.7936107 -4.706522,-10.5001301 -10.500129,-10.5001301 z" color="#000" display="inline" enable-background="accumulate" opacity=".3" overflow="visible" visibility="visible" style="marker:none"/><path id="path8655-1" fill="none" stroke="url(#linearGradient3953)" stroke-dasharray="none" stroke-dashoffset="0" stroke-linecap="round" stroke-linejoin="round" stroke-miterlimit="4" stroke-opacity="1" stroke-width="1" d="M 19.5,12.000266 C 19.5,7.8579984 16.14189,4.5000022 12.000095,4.5000022 7.8579216,4.5000022 4.5,7.8580362 4.5,12.000266 4.5,16.142344 7.8579216,19.5 12.000095,19.5 16.14189,19.5 19.5,16.142344 19.5,12.000266 l 0,0 z" color="#000" display="inline" enable-background="accumulate" overflow="visible" visibility="visible" style="marker:none"/><path id="path8655-1-6" fill="none" stroke="url(#linearGradient3993)" stroke-dasharray="none" stroke-dashoffset="0" stroke-linecap="round" stroke-linejoin="round" stroke-miterlimit="4" stroke-opacity="1" stroke-width="1" d="M 16.5,12.00016 C 16.5,9.5147994 14.485133,7.5000021 12.000057,7.5000021 9.5147529,7.5000021 7.5,9.5148226 7.5,12.00016 7.5,14.485407 9.5147529,16.5 12.000057,16.5 14.485133,16.5 16.5,14.485407 16.5,12.00016 l 0,0 z" color="#000" display="inline" enable-background="accumulate" opacity=".5" overflow="visible" visibility="visible" style="marker:none"/><path id="rect3030-53" fill="#fff" fill-opacity="1" fill-rule="nonzero" stroke="none" stroke-dasharray="none" stroke-dashoffset="0" stroke-linecap="butt" stroke-linejoin="miter" stroke-miterlimit="4" stroke-opacity="1" stroke-width="1" d="m 10,7 4,0 0,6.499999 L 12.666666,14.5 14,15.500001 14,19 l -4,0 0,-6.499998 1.333332,-1.000001 -1.333332,-1 z" clip-rule="nonzero" color="#000" color-interpolation="sRGB" color-interpolation-filters="linearRGB" color-rendering="auto" display="inline" enable-background="accumulate" image-rendering="auto" opacity=".5" overflow="visible" shape-rendering="auto" text-rendering="auto" visibility="visible" style="isolation:auto;mix-blend-mode:normal;solid-color:#000;solid-opacity:1"/><path id="rect3030" fill="url(#linearGradient3916)" fill-opacity="1" stroke="none" d="m 10,6 4,0 0,6.499999 L 12.666666,13.5 14,14.500001 14,18 10,18 10,11.500002 11.333332,10.500001 10,9.5000009 Z"/><path id="rect3030-2" fill="none" stroke="#000" stroke-opacity="1" stroke-width="1" d="m 10.500001,6.5 3,0 0,5.737934 -1.686612,1.277754 1.686612,1.248671 0,2.735641 -3,0 0,-5.751361 1.637813,-1.268771 -1.637813,-1.2115922 z" opacity=".3"/></svg>