<svg xmlns="http://www.w3.org/2000/svg" xmlns:svg="http://www.w3.org/2000/svg" xmlns:xlink="http://www.w3.org/1999/xlink" id="svg2" width="24" height="24" version="1.0"><metadata id="metadata47"/><defs id="defs4"><linearGradient id="linearGradient3610-302"><stop id="stop3796" offset="0" stop-color="#333" stop-opacity="1"/><stop id="stop3798" offset="1" stop-color="#292929" stop-opacity="1"/></linearGradient><linearGradient id="linearGradient2523" x1="-24.032" x2="-24.098" y1="-13.091" y2="-40.164" gradientTransform="matrix(0.54285731,0,0,0.55555562,1.0357211,3.0040011)" gradientUnits="userSpaceOnUse" xlink:href="#linearGradient3610-302"/><linearGradient id="linearGradient4157-401-351"><stop id="stop3790" offset="0" stop-color="#262626" stop-opacity="1"/><stop id="stop3792" offset="1" stop-color="#828282" stop-opacity="1"/></linearGradient><linearGradient id="linearGradient2521" x1="28.938" x2="105.365" y1="17.333" y2="92.824" gradientTransform="matrix(0.23912711,0,0,0.19016761,-28.24796,-22.920365)" gradientUnits="userSpaceOnUse" xlink:href="#linearGradient4157-401-351"/><linearGradient id="linearGradient259-942"><stop id="stop3802" offset="0" stop-color="#fff" stop-opacity="1"/><stop id="stop3804" offset="1" stop-color="#e0e0e0" stop-opacity="1"/></linearGradient><linearGradient id="linearGradient2526" x1="108.265" x2="25.818" y1="110.281" y2="14.029" gradientTransform="matrix(0.2476888,0,0,0.17562419,-28.788682,-23.293467)" gradientUnits="userSpaceOnUse" xlink:href="#linearGradient259-942"/><radialGradient id="radialGradient2518" cx="605.714" cy="486.648" r="117.143" fx="605.714" fy="486.648" gradientTransform="matrix(-0.03142725,0,0,0.01508077,-2.812712,20.02493)" gradientUnits="userSpaceOnUse" xlink:href="#linearGradient5060"/><linearGradient id="linearGradient5060"><stop id="stop5062" offset="0" stop-color="#000" stop-opacity="1"/><stop id="stop5064" offset="1" stop-color="#000" stop-opacity="0"/></linearGradient><radialGradient id="radialGradient2516" cx="605.714" cy="486.648" r="117.143" fx="605.714" fy="486.648" gradientTransform="matrix(0.03142725,0,0,0.01508077,-24.517756,20.02493)" gradientUnits="userSpaceOnUse" xlink:href="#linearGradient5060"/><linearGradient id="linearGradient5048"><stop id="stop5050" offset="0" stop-color="#000" stop-opacity="0"/><stop id="stop5056" offset=".5" stop-color="#000" stop-opacity="1"/><stop id="stop5052" offset="1" stop-color="#000" stop-opacity="0"/></linearGradient><linearGradient id="linearGradient2514" x1="302.857" x2="302.857" y1="366.648" y2="609.505" gradientTransform="matrix(0.03345303,0,0,0.01508077,-25.772132,20.02493)" gradientUnits="userSpaceOnUse" xlink:href="#linearGradient5048"/><linearGradient id="linearGradient4425" x1="229.01" x2="229.01" y1="600.009" y2="635.009" gradientUnits="userSpaceOnUse" xlink:href="#linearGradient3242-59-5"/><linearGradient id="linearGradient3242-59-5"><stop id="stop3244-9-4" offset="0" stop-color="#f8b17e" stop-opacity="1"/><stop id="stop3246-7-4" offset=".262" stop-color="#e35d4f" stop-opacity="1"/><stop id="stop3248-87-0" offset=".661" stop-color="#c6262e" stop-opacity="1"/><stop id="stop3250-2-0" offset="1" stop-color="#690b54" stop-opacity="1"/></linearGradient><linearGradient id="linearGradient3424" x1="229.01" x2="229.01" y1="600.009" y2="635.009" gradientUnits="userSpaceOnUse" xlink:href="#linearGradient3242-59-5"/><linearGradient id="linearGradient3426" x1="229.01" x2="229.01" y1="600.009" y2="635.009" gradientTransform="translate(-0.1031,-0.1286)" gradientUnits="userSpaceOnUse" xlink:href="#linearGradient3242-59-5"/></defs><g id="g2509" transform="translate(25.665236,-6.216738)"><rect id="rect4173" width="16.153" height="3.662" x="-21.758" y="25.554" fill="url(#linearGradient2514)" fill-opacity="1" fill-rule="nonzero" stroke="none" stroke-width="1" display="inline" opacity=".402" overflow="visible" visibility="visible" style="marker:none"/><path id="path5058" fill="url(#radialGradient2516)" fill-opacity="1" fill-rule="nonzero" stroke="none" stroke-width="1" d="m -5.577801,25.55439 c 0,0 0,3.662272 0,3.662272 1.618426,0.0069 3.912566,-0.820529 3.912565,-1.831372 0,-1.010842 -1.806041,-1.8309 -3.912565,-1.8309 z" display="inline" opacity=".402" overflow="visible" visibility="visible" style="marker:none"/><path id="path5018" fill="url(#radialGradient2518)" fill-opacity="1" fill-rule="nonzero" stroke="none" stroke-width="1" d="m -21.752671,25.55439 c 0,0 0,3.662272 0,3.662272 -1.618426,0.0069 -3.912565,-0.820529 -3.912565,-1.831372 0,-1.010842 1.806041,-1.8309 3.912565,-1.8309 z" display="inline" opacity=".402" overflow="visible" visibility="visible" style="marker:none"/></g><rect id="rect3580" width="21.983" height="17.961" x="-22.98" y="-21.002" fill="url(#linearGradient2526)" fill-opacity="1" stroke="none" stroke-dasharray="none" stroke-linecap="round" stroke-linejoin="round" stroke-miterlimit="4" stroke-opacity=".229" stroke-width="1" transform="matrix(-0.99999843,0.00177256,-9.3918094e-4,-0.99999956,0,0)"/><rect id="rect3582" width="18.965" height="14.927" x="-21.511" y="-19.51" fill="url(#linearGradient2521)" fill-opacity="1" stroke="url(#linearGradient2523)" stroke-dasharray="none" stroke-linecap="round" stroke-linejoin="miter" stroke-miterlimit="4" stroke-opacity="1" stroke-width="1" rx="0" ry="0" transform="matrix(-0.99999257,0.00385405,0.00237835,-0.99999717,0,0)"/><path id="path4567" fill="#000" fill-opacity="1" fill-rule="nonzero" stroke="none" stroke-width="1" d="m 12.033898,6.9830544 c 3.301525,0 6,2.710197 6,5.9999996 0,3.289786 -2.698418,6 -6,6 -3.3015247,0 -5.9999997,-2.710197 -5.9999997,-6 0,-3.2897856 2.698418,-5.9999996 5.9999997,-5.9999996 z m 0,3.4374996 c -0.08014,0 -0.140508,0.05521 -0.21875,0.0625 l 2.71875,2.71875 c 0.0086,-0.08095 0.09375,-0.136247 0.09375,-0.21875 0,-1.436365 -1.139351,-2.5625 -2.59375,-2.5625 z m -2.5624997,2.625 c 0.03863,1.364578 1.0914897,2.415651 2.4687497,2.46875 l -2.4687497,-2.46875 z" color="#000" display="inline" enable-background="accumulate" opacity=".15" overflow="visible" visibility="visible" style="text-indent:0;text-transform:none;block-progression:tb;marker:none"/><g id="layer12-9" fill="#000" fill-opacity="1" fill-rule="nonzero" stroke="none" stroke-width=".979" color="#000" display="inline" opacity=".3" transform="matrix(-0.71484738,0,0,0.71484738,175.02625,-425.94361)" visibility="visible" style="marker:none"><path id="path4222-68" fill="#000" fill-opacity="1" fill-rule="nonzero" stroke="none" stroke-width=".979" d="m 228.01,607.02 c -3.86,0 -7.0073,3.166 -7.0073,7.0103 0,3.8443 3.1472,6.9787 7.0073,6.9787 3.86,0 7.0073,-3.1344 7.0073,-6.9787 0,-3.8443 -3.1472,-7.0103 -7.0073,-7.0103 z m 0,2.021 c 2.7769,0 5.0097,2.2237 5.0097,4.9893 0,2.7656 -2.2328,4.9577 -5.0097,4.9577 -2.777,0 -5.0097,-2.1921 -5.0097,-4.9577 0,-2.7656 2.2328,-4.9893 5.0097,-4.9893 z" color="#000" display="inline" enable-background="accumulate" overflow="visible" visibility="visible" style="text-indent:0;text-transform:none;block-progression:tb;marker:none"/><path id="path4992-7" fill="#000" fill-opacity="1" fill-rule="nonzero" stroke="none" stroke-width=".979" d="m 231.3069,609.3114 -8,8 1.4062,1.4062 8,-8 -1.4062,-1.4062 z" color="#000" display="inline" enable-background="accumulate" overflow="visible" visibility="visible" style="text-indent:0;text-transform:none;block-progression:tb;marker:none"/></g><g id="layer12" fill="url(#linearGradient4425)" fill-opacity="1" fill-rule="nonzero" stroke="none" color="#000" display="inline" transform="matrix(-0.71484738,0,0,0.71484738,175.02625,-426.94361)" visibility="visible" style="marker:none"><path id="path4222" fill="url(#linearGradient3424)" fill-opacity="1" fill-rule="nonzero" stroke="none" d="m 228.01,607.02 c -3.86,0 -7.0073,3.166 -7.0073,7.0103 0,3.8443 3.1472,6.9787 7.0073,6.9787 3.86,0 7.0073,-3.1344 7.0073,-6.9787 0,-3.8443 -3.1472,-7.0103 -7.0073,-7.0103 z m 0,2.021 c 2.7769,0 5.0097,2.2237 5.0097,4.9893 0,2.7656 -2.2328,4.9577 -5.0097,4.9577 -2.777,0 -5.0097,-2.1921 -5.0097,-4.9577 0,-2.7656 2.2328,-4.9893 5.0097,-4.9893 z" color="#000" display="inline" enable-background="accumulate" overflow="visible" visibility="visible" style="text-indent:0;text-transform:none;block-progression:tb;marker:none"/><path id="path4992" fill="url(#linearGradient3426)" fill-opacity="1" fill-rule="nonzero" stroke="none" d="m 231.3069,609.3114 -8,8 1.4062,1.4062 8,-8 -1.4062,-1.4062 z" color="#000" display="inline" enable-background="accumulate" overflow="visible" visibility="visible" style="text-indent:0;text-transform:none;block-progression:tb;marker:none"/></g><rect id="rect4202" width="22.982" height="18.959" x="-23.48" y="-21.501" fill="none" fill-opacity="1" stroke="#000" stroke-dasharray="none" stroke-linecap="round" stroke-linejoin="round" stroke-miterlimit="4" stroke-opacity=".498" stroke-width="1" transform="matrix(-0.9999984,0.00178969,-9.3019356e-4,-0.99999957,0,0)"/></svg>