<svg xmlns="http://www.w3.org/2000/svg" xmlns:svg="http://www.w3.org/2000/svg" id="svg3773" width="24" height="24" version="1.1"><metadata id="metadata3778"/><path id="path3943" fill="#4d4d4d" fill-opacity="1" fill-rule="nonzero" stroke="none" stroke-width="2" d="M 11.84375,5.8125 C 8.6877052,5.8529536 5.8523974,7.1266534 3.71875,9.125 L 3,9.8125 A 0.18899527,0.18899527 0 0 0 2.96875,9.84375 0.18899527,0.18899527 0 0 0 2.9375,9.875 a 0.18899527,0.18899527 0 0 0 0,0.03125 0.18899527,0.18899527 0 0 0 0,0.0625 0.18899527,0.18899527 0 0 0 0,0.03125 0.18899527,0.18899527 0 0 0 0.03125,0.03125 A 0.18899527,0.18899527 0 0 0 3,10.0625 l 8.875,9.75 a 0.18899527,0.18899527 0 0 0 0.03125,0.03125 0.18899527,0.18899527 0 0 0 0.0625,0.03125 0.18899527,0.18899527 0 0 0 0.03125,0 0.18899527,0.18899527 0 0 0 0.0625,0 0.18899527,0.18899527 0 0 0 0.03125,-0.03125 0.18899527,0.18899527 0 0 0 0.03125,-0.03125 l 8.90625,-9.75 a 0.18899527,0.18899527 0 0 0 0.03125,-0.03125 0.18899527,0.18899527 0 0 0 0.03125,-0.0625 0.18899527,0.18899527 0 0 0 0,-0.03125 0.18899527,0.18899527 0 0 0 0,-0.0625 A 0.18899527,0.18899527 0 0 0 21.0625,9.84375 0.18899527,0.18899527 0 0 0 21.03125,9.8125 l -0.75,-0.6875 C 18.070246,7.0568304 15.112544,5.7706015 11.84375,5.8125 z m 0,1.375 C 14.694293,7.1509625 17.295867,8.2233487 19.25,10 L 12,17.9375 4.75,10 C 6.6274812,8.2919486 9.100583,7.2226612 11.84375,7.1875 z" color="#000" display="inline" enable-background="accumulate" opacity=".8" overflow="visible" visibility="visible" style="marker:none"/></svg>