<svg xmlns="http://www.w3.org/2000/svg" xmlns:svg="http://www.w3.org/2000/svg" xmlns:xlink="http://www.w3.org/1999/xlink" id="svg2" width="24" height="24" version="1.2"><defs id="defs4"><linearGradient id="linearGradient4011"><stop id="stop4013" offset="0" stop-color="#fff" stop-opacity="1"/><stop id="stop4015-3" offset=".508" stop-color="#fff" stop-opacity=".235"/><stop id="stop4017-2" offset=".835" stop-color="#fff" stop-opacity=".157"/><stop id="stop4019" offset="1" stop-color="#fff" stop-opacity=".392"/></linearGradient><linearGradient id="linearGradient27416-1-5"><stop id="stop27420-2-2" offset="0" stop-color="#9bdb4d" stop-opacity="1"/><stop id="stop27422-3-2" offset="1" stop-color="#68b723" stop-opacity="1"/></linearGradient><linearGradient id="linearGradient12398-3" x1="71.204" x2="71.204" y1="6.238" y2="44.341" gradientTransform="matrix(0.5135135,0,0,0.5135135,-24.83614,-1.0212801)" gradientUnits="userSpaceOnUse" xlink:href="#linearGradient4011"/><linearGradient id="linearGradient11527-6-5" x1="2035.165" x2="2035.165" y1="3208.074" y2="3241.997" gradientTransform="matrix(0.8047894,0,0,0.60165743,-1628.8199,-1928.0804)" gradientUnits="userSpaceOnUse" xlink:href="#linearGradient27416-1-5"/></defs><metadata id="metadata7"/><path id="path2555-7-8-5-0-9" fill="url(#linearGradient11527-6-5)" fill-opacity="1" fill-rule="nonzero" stroke="none" stroke-width="1" d="M 12,1.4999999 C 6.2064599,1.4999999 1.4999999,6.2064599 1.4999999,12 1.4999999,17.79354 6.2064599,22.5 12,22.5 17.79354,22.5 22.50001,17.79354 22.5,12 22.5,6.2064599 17.79354,1.4999999 12,1.4999999 Z" color="#000" display="inline" enable-background="accumulate" opacity=".99" overflow="visible" visibility="visible" style="marker:none"/><path id="path2555-7-8-5-1" fill="none" stroke="#206b00" stroke-dasharray="none" stroke-dashoffset="0" stroke-linecap="round" stroke-linejoin="round" stroke-miterlimit="4" stroke-opacity="1" stroke-width="1" d="M 12,1.4999999 C 6.2064599,1.4999999 1.4999999,6.2064599 1.4999999,12 1.4999999,17.79354 6.2064599,22.5 12,22.5 17.79354,22.5 22.50001,17.79354 22.5,12 22.5,6.2064599 17.79354,1.4999999 12,1.4999999 Z" color="#000" display="inline" enable-background="accumulate" opacity=".5" overflow="visible" visibility="visible" style="marker:none"/><path id="path2922-6-6-0-9-7" fill="#fff" fill-opacity="1" fill-rule="nonzero" stroke="none" stroke-width=".843" d="m 15.98656,7.6243199 2.01342,1.81209 -6.76511,8.9395901 -5.2348901,-4.51006 1.73154,-2.29531 3.0604001,2.65772 z" color="#000" display="inline" enable-background="accumulate" opacity=".5" overflow="visible" visibility="visible" style="marker:none"/><path id="path8655-6-0-9-5-0" fill="none" stroke="url(#linearGradient12398-3)" stroke-dasharray="none" stroke-dashoffset="0" stroke-linecap="round" stroke-linejoin="round" stroke-miterlimit="4" stroke-opacity="1" stroke-width="1" d="m 21.49999,11.99966 c 0,5.24688 -4.25361,9.50034 -9.49988,9.50034 -5.2467501,0 -9.5001101,-4.25351 -9.5001101,-9.50034 0,-5.2466301 4.25336,-9.4996601 9.5001101,-9.4996601 5.24627,0 9.49988,4.25303 9.49988,9.4996601 z" color="#000" display="inline" enable-background="accumulate" opacity=".5" overflow="visible" visibility="visible" style="marker:none"/><path id="path2922-6-6-0-9-4-2" fill="#206b00" fill-opacity="1" fill-rule="nonzero" stroke="none" stroke-width=".843" d="m 15.98656,6.6246799 2.01342,1.81209 -6.76511,8.9395901 -5.2348901,-4.51006 1.73154,-2.29531 3.0604001,2.65772 z" color="#000" display="inline" enable-background="accumulate" opacity="1" overflow="visible" visibility="visible" style="marker:none"/></svg>