<svg xmlns="http://www.w3.org/2000/svg" width="24" height="24"><g transform="translate(-753 -25)"><rect style="marker:none" width="1" height="5" x="764.5" y="29" fill="#666" color="#000" overflow="visible" rx=".5" ry=".5"/><rect width="1" height="5" x="-37.5" y="757" fill="#666" color="#000" opacity=".578" style="marker:none" overflow="visible" rx=".5" ry=".5" transform="rotate(-90)"/><rect width="1" height="5" x="-765.5" y="-45" fill="#666" color="#000" opacity=".335" style="marker:none" overflow="visible" rx=".5" ry=".5" transform="scale(-1)"/><rect width="1" height="5" x="36.5" y="-773" fill="#666" color="#000" opacity=".19" style="marker:none" overflow="visible" rx=".5" ry=".5" transform="rotate(90)"/><rect width="1" height="5" x="643.51" y="406.543" fill="#666" color="#000" opacity=".833" style="marker:none" overflow="visible" rx=".5" ry=".5" transform="rotate(-30)"/><rect width="1" height="5" x="349.957" y="673.01" fill="#666" color="#000" opacity=".694" style="marker:none" overflow="visible" rx=".5" ry=".5" transform="rotate(-60)"/><rect width="1" height="5" x="-415.043" y="636.01" fill="#666" color="#000" opacity=".482" style="marker:none" overflow="visible" rx=".5" ry=".5" transform="rotate(-120)"/><rect width="1" height="5" x="-681.51" y="342.457" fill="#666" color="#000" opacity=".402" style="marker:none" overflow="visible" rx=".5" ry=".5" transform="rotate(-150)"/><rect width="1" height="5" x="-644.51" y="-422.543" fill="#666" color="#000" opacity=".28" style="marker:none" overflow="visible" rx=".5" ry=".5" transform="rotate(150)"/><rect width="1" height="5" x="-350.957" y="-689.01" fill="#666" color="#000" opacity=".23" style="marker:none" overflow="visible" rx=".5" ry=".5" transform="rotate(120)"/><rect width="1" height="5" x="414.043" y="-652.01" fill="#666" color="#000" opacity=".16" style="marker:none" overflow="visible" rx=".5" ry=".5" transform="rotate(60)"/><rect width="1" height="5" x="680.51" y="-358.457" fill="#666" color="#000" opacity=".13" style="marker:none" overflow="visible" rx=".5" ry=".5" transform="rotate(30)"/></g></svg>