<svg xmlns="http://www.w3.org/2000/svg" xmlns:svg="http://www.w3.org/2000/svg" xmlns:xlink="http://www.w3.org/1999/xlink" id="svg23034" width="64" height="64" version="1.1"><defs id="defs23036"><linearGradient id="linearGradient5458" x1="97.539" x2="97.539" y1="16.962" y2="44.261" gradientTransform="matrix(1.3210282,0,0,1.2679796,-70.729881,0.1738106)" gradientUnits="userSpaceOnUse" xlink:href="#linearGradient8272-8-8"/><linearGradient id="linearGradient8272-8-8"><stop id="stop8274-4" offset="0" stop-color="#fff" stop-opacity="1"/><stop id="stop8276-5" offset=".022" stop-color="#fff" stop-opacity=".235"/><stop id="stop8278-0" offset=".979" stop-color="#fff" stop-opacity=".157"/><stop id="stop8280-5-9" offset="1" stop-color="#fff" stop-opacity=".392"/></linearGradient><linearGradient id="linearGradient5462" x1="22.935" x2="22.809" y1="49.629" y2="36.658" gradientTransform="matrix(1.5432898,0,0,1.3103449,-5.0382913,0.3448306)" gradientUnits="userSpaceOnUse" xlink:href="#linearGradient6129-963-697-142-998-580-273-9"/><linearGradient id="linearGradient6129-963-697-142-998-580-273-9"><stop id="stop2661-3" offset="0" stop-color="#0a0a0a" stop-opacity=".498"/><stop id="stop2663-33" offset="1" stop-color="#0a0a0a" stop-opacity="0"/></linearGradient><linearGradient id="linearGradient5466" x1="-91" x2="-91" y1="44" y2="119.06" gradientTransform="matrix(0.50413225,0,0,0.49333391,73.843636,-1.4532904)" gradientUnits="userSpaceOnUse" xlink:href="#linearGradient4632-0-6-4-4-4"/><linearGradient id="linearGradient4632-0-6-4-4-4"><stop id="stop4634-4-4-7-4" offset="0" stop-color="#b4cee1" stop-opacity="1"/><stop id="stop4636-3-1-5-9" offset="1" stop-color="#5d9fcd" stop-opacity="1"/></linearGradient><radialGradient id="radialGradient5472" cx="605.714" cy="486.648" r="117.143" fx="605.714" fy="486.648" gradientTransform="matrix(-0.04016195,0,0,0.0329426,30.204676,40.92132)" gradientUnits="userSpaceOnUse" xlink:href="#linearGradient5060-820-8"/><linearGradient id="linearGradient5060-820-8"><stop id="stop2681-37" offset="0" stop-color="#000" stop-opacity="1"/><stop id="stop2683-05" offset="1" stop-color="#000" stop-opacity="0"/></linearGradient><linearGradient id="linearGradient5476" x1="302.857" x2="302.857" y1="366.648" y2="609.505" gradientTransform="matrix(0.1076923,0,0,0.03294117,-6.9224113,40.92219)" gradientUnits="userSpaceOnUse" xlink:href="#linearGradient5048-585-1"/><linearGradient id="linearGradient5048-585-1"><stop id="stop2667-0" offset="0" stop-color="#000" stop-opacity="0"/><stop id="stop2669-91" offset=".5" stop-color="#000" stop-opacity="1"/><stop id="stop2671-6" offset="1" stop-color="#000" stop-opacity="0"/></linearGradient><radialGradient id="radialGradient5480" cx="605.714" cy="486.648" r="117.143" fx="605.714" fy="486.648" gradientTransform="matrix(0.04016195,0,0,0.0329426,33.796646,40.92132)" gradientUnits="userSpaceOnUse" xlink:href="#linearGradient5060-820-8"/><linearGradient id="linearGradient5484" x1="97.539" x2="97.539" y1="8.81" y2="44.261" gradientTransform="matrix(1.2749674,0,0,1.218292,-67.158521,-0.3392094)" gradientUnits="userSpaceOnUse" xlink:href="#linearGradient9235-9"/><linearGradient id="linearGradient9235-9"><stop id="stop9237-7" offset="0" stop-color="#fff" stop-opacity="1"/><stop id="stop9239-2-3" offset=".109" stop-color="#fff" stop-opacity=".235"/><stop id="stop9241-1" offset=".979" stop-color="#fff" stop-opacity=".157"/><stop id="stop9243-5" offset="1" stop-color="#fff" stop-opacity=".392"/></linearGradient><linearGradient id="linearGradient5488" x1="-51.786" x2="-51.786" y1="53.514" y2="3.634" gradientTransform="matrix(1.0563766,0,0,1.0770552,69.975816,-2.5296504)" gradientUnits="userSpaceOnUse" xlink:href="#linearGradient3104-8-8-97-4-6-11-5-5-1-0-5"/><linearGradient id="linearGradient3104-8-8-97-4-6-11-5-5-1-0-5"><stop id="stop3106-5-4-3-5-0-2-1-0-1-2-7" offset="0" stop-color="#000" stop-opacity=".322"/><stop id="stop3108-4-3-7-8-2-0-7-9-4-9-4-5" offset="1" stop-color="#000" stop-opacity=".278"/></linearGradient><linearGradient id="linearGradient6404-7-5-7"><stop id="stop6406-1-8-2" offset="0" stop-color="#f9f9f9" stop-opacity="1"/><stop id="stop6408-9-6-4" offset="1" stop-color="#c9c9c9" stop-opacity="1"/></linearGradient><linearGradient id="linearGradient23032" x1="62.989" x2="62.989" y1="14.091" y2="16.998" gradientTransform="matrix(1.3135526,0,0,1.2900554,-55.484951,-1.2218604)" gradientUnits="userSpaceOnUse" xlink:href="#linearGradient6404-7-5-7"/></defs><metadata id="metadata23039"/><g id="g8226"><path id="use10406" fill="url(#linearGradient23032)" fill-opacity="1" fill-rule="nonzero" stroke="none" stroke-width="1" d="m 7.5006657,10.000001 c -0.277,0 -0.5,0.223 -0.5,0.5 l 0,3.5 -2.5,0 c -0.277,0 -0.5,0.223 -0.5,0.5 l 0,9.499999 c 0,0.277 0.223,0.5 0.5,0.5 l 55.0000003,0 c 0.277,0 0.5,-0.223 0.5,-0.5 l 0,-9.499999 c 0,-0.277 -0.223,-0.5 -0.5,-0.5 l -31.5,0 0,-3.5 c 0,-0.277 -0.223,-0.5 -0.5,-0.5 l -20.0000003,0 z" color="#000" display="inline" enable-background="accumulate" overflow="visible" visibility="visible" style="marker:none"/><path id="use10408" fill="none" stroke="url(#linearGradient5488)" stroke-dasharray="none" stroke-dashoffset="0" stroke-linecap="butt" stroke-linejoin="miter" stroke-miterlimit="4" stroke-opacity="1" stroke-width="1" d="m 8.0006657,9.5001606 c -0.91501,0.0102 -1.5,0.45618 -1.5,1.3332904 l 0,2.66655 -1.506,0 c -0.99492,0 -1.494,0.47358 -1.494,1.34217 0.0456,13.719579 0,14.493009 0,15.657829 1.90283,0 56.9999903,-4.9328 56.9999903,-7.05611 l 0,-8.443889 c 0,-1.00007 -0.49994,-1.5 -1.49999,-1.5 l -30.5,0 0,-2.66655 c 0,-0.8771104 -0.22453,-1.3435104 -1.13954,-1.3332904 z" color="#000" display="inline" enable-background="accumulate" opacity=".8" overflow="visible" visibility="visible" style="marker:none"/><path id="use10410" fill="none" stroke="url(#linearGradient5484)" stroke-dasharray="none" stroke-dashoffset="0" stroke-linecap="round" stroke-linejoin="round" stroke-miterlimit="4" stroke-opacity="1" stroke-width="1" d="m 7.5006657,10.500001 0,4 -3,0 0,9.999999 55.0000003,0 0,-9.999999 -32,0 0,-4 -20.0000003,0 z" color="#000" display="inline" enable-background="accumulate" overflow="visible" visibility="visible" style="marker:none"/><path id="use10412" fill="url(#radialGradient5480)" fill-opacity="1" fill-rule="nonzero" stroke="none" stroke-width="1" d="m 58.000666,52.99993 c 0,0 0,7.99991 0,7.99991 2.06824,0.0151 5,-1.79238 5,-4.00047 0,-2.2081 -2.308,-3.99944 -5,-3.99944 z" display="inline" opacity=".3" overflow="visible" visibility="visible" style="marker:none"/><rect id="use10414" width="52" height="8" x="6.001" y="53" fill="url(#linearGradient5476)" fill-opacity="1" fill-rule="nonzero" stroke="none" stroke-width="1" display="inline" opacity=".3" overflow="visible" visibility="visible" style="marker:none"/><path id="use10416" fill="url(#radialGradient5472)" fill-opacity="1" fill-rule="nonzero" stroke="none" stroke-width="1" d="m 6.0006657,52.99993 c 0,0 0,7.99991 0,7.99991 -2.06825,0.0151 -5,-1.79238 -5,-4.00047 0,-2.2081 2.308,-3.99944 5,-3.99944 z" display="inline" opacity=".3" overflow="visible" visibility="visible" style="marker:none"/><path id="use10418" fill="url(#linearGradient5466)" fill-opacity="1" fill-rule="nonzero" stroke="none" stroke-width="1" d="m 2.5042057,20.53211 c -1.44043,0.16346 -0.87122,1.85289 -0.98607,2.8029 0.5271,11.19318 1.25951,21.80885 1.78336,33.0021 0,1.18996 1.19486,1.13653 1.86516,1.13653 0,0 36.7742103,0 54.4905103,0 1.46281,-0.14093 0.85463,-1.86024 1.0604,-2.8442 0.52711,-11.19317 1.25992,-21.56889 1.78376,-32.76214 0.0178,-0.7521 -0.50074,-1.33519 -1.21534,-1.33519 0,0 -39.86255,0 -58.7817803,0 z" color="#000" display="inline" enable-background="accumulate" overflow="visible" visibility="visible" style="marker:none"/><path id="use10420" fill="url(#linearGradient5462)" fill-opacity="1" stroke="none" d="m 2.4097557,20 59.1818103,5.3e-4 c 0.85499,0 1.4091,0.5839 1.4091,1.30984 l -1.6775,35.37929 c 0,0.72593 -0.68831,1.31034 -1.54329,1.31034 L 4.2214357,58 c -0.85498,0 -1.54329,-0.58441 -1.54329,-1.31034 l -1.67748,-35.37931 c 0,-0.72594 0.5541,-1.31035 1.40909,-1.31035 z" opacity=".4"/><path id="use10422" fill="none" stroke="url(#linearGradient5458)" stroke-dasharray="none" stroke-dashoffset="0" stroke-linecap="round" stroke-linejoin="round" stroke-miterlimit="4" stroke-opacity="1" stroke-width="1" d="M 61.069096,21.5 3.9511557,21.5313 c -1.70924,0 -1.43419,0.0338 -1.43419,1.07579 l 1.62114,32.91358 c 0.0163,0.94321 -0.0656,0.9793 1.0726,0.9793 0,0 36.7779503,0 54.4396603,0 0.53983,-11.58225 1.25805,-22.68226 1.81479,-34.32182 0.0519,-0.55489 0.0134,-0.67818 -0.39606,-0.67818 z" color="#000" display="inline" enable-background="accumulate" opacity=".5" overflow="visible" visibility="visible" style="marker:none"/><path id="use10418-9" fill="none" stroke="#000" stroke-dasharray="none" stroke-dashoffset="0" stroke-linecap="round" stroke-linejoin="round" stroke-miterlimit="4" stroke-opacity="1" stroke-width="1" d="m 2.5042057,20.53211 c -1.44043,0.16346 -0.87122,1.85289 -0.98607,2.8029 0.5271,11.19318 1.25951,21.80885 1.78336,33.0021 0,1.18996 1.19486,1.13653 1.86516,1.13653 0,0 36.7742103,0 54.4905103,0 1.46281,-0.14093 0.85463,-1.86024 1.0604,-2.8442 0.52711,-11.19317 1.25992,-21.56889 1.78376,-32.76214 0.0178,-0.7521 -0.50074,-1.33519 -1.21534,-1.33519 0,0 -39.86255,0 -58.7817803,0 z" color="#000" display="inline" enable-background="accumulate" opacity=".3" overflow="visible" visibility="visible" style="marker:none"/><path font-stretch="normal" style="line-height:normal;-inkscape-font-specification:Sans;text-indent:0;text-align:start;text-decoration-line:none;text-transform:none;block-progression:tb;marker:none" id="path4048" fill="#fff" fill-opacity="1" stroke="none" stroke-width="5" d="m 44.001007,29 0,4.992472 0,15.698871 0,2.308657 -2.308657,0 -18.46926,0 -6.291092,0 4.790465,-4.069009 18.469259,-15.698871 z m -5,10 -9,8 9,0 z" baseline-shift="baseline" color="#000" direction="ltr" display="inline" enable-background="accumulate" font-family="Sans" font-size="medium" font-style="normal" font-variant="normal" font-weight="normal" letter-spacing="normal" opacity=".3" overflow="visible" text-anchor="start" text-decoration="none" visibility="visible" word-spacing="normal" writing-mode="lr-tb"/><path id="path181" fill="#175785" fill-opacity=".553" stroke="none" stroke-width="5" d="m 44.001007,28 0,4.992472 0,15.698871 0,2.308657 -2.308657,0 -18.46926,0 -6.291092,0 4.790465,-4.069009 18.469259,-15.698871 z m -5,10 -9,8 9,0 z" baseline-shift="baseline" color="#000" direction="ltr" display="inline" enable-background="accumulate" font-family="Sans" font-size="medium" font-stretch="normal" font-style="normal" font-variant="normal" font-weight="normal" letter-spacing="normal" overflow="visible" text-anchor="start" text-decoration="none" visibility="visible" word-spacing="normal" writing-mode="lr-tb" style="line-height:normal;-inkscape-font-specification:Sans;text-indent:0;text-align:start;text-decoration-line:none;text-transform:none;block-progression:tb;marker:none"/></g></svg>