<svg xmlns="http://www.w3.org/2000/svg" xmlns:svg="http://www.w3.org/2000/svg" xmlns:xlink="http://www.w3.org/1999/xlink" id="svg26114" width="64" height="64" version="1.1"><defs id="defs26116"><linearGradient id="linearGradient3483" x1="97.539" x2="97.539" y1="17.568" y2="43.776" gradientTransform="matrix(1.3191659,0,0,1.0439448,-70.596186,10.53389)" gradientUnits="userSpaceOnUse" xlink:href="#linearGradient3485"/><linearGradient id="linearGradient3485"><stop id="stop3487" offset="0" stop-color="#fff" stop-opacity="1"/><stop id="stop3489" offset=".017" stop-color="#fff" stop-opacity=".235"/><stop id="stop3491" offset=".979" stop-color="#fff" stop-opacity=".157"/><stop id="stop3493" offset="1" stop-color="#fff" stop-opacity=".392"/></linearGradient><linearGradient id="linearGradient3262" x1="22.935" x2="22.809" y1="49.629" y2="36.658" gradientTransform="matrix(1.5266702,0,0,1.0689655,-4.640106,10.96552)" gradientUnits="userSpaceOnUse" xlink:href="#linearGradient6129-963-697-142-998"/><linearGradient id="linearGradient6129-963-697-142-998"><stop id="stop4661" offset="0" stop-color="#000" stop-opacity=".498"/><stop id="stop4663" offset="1" stop-color="#000" stop-opacity="0"/></linearGradient><linearGradient id="linearGradient6563-1" x1="26.357" x2="26.357" y1="46.255" y2="117.413" gradientTransform="matrix(0.50136333,0,0,0.40680228,1.81771,9.1270703)" gradientUnits="userSpaceOnUse" xlink:href="#linearGradient4632-0-6-4-6-7"/><linearGradient id="linearGradient4632-0-6-4-6-7"><stop id="stop4634-4-4-7-1-8" offset="0" stop-color="#b4cee1" stop-opacity="1"/><stop id="stop4636-3-1-5-7-5" offset="1" stop-color="#5d9fcd" stop-opacity="1"/></linearGradient><radialGradient id="radialGradient3270" cx="605.714" cy="486.648" r="117.143" fx="605.714" fy="486.648" gradientTransform="matrix(-0.04016195,0,0,0.0329426,30.20402,40.92132)" gradientUnits="userSpaceOnUse" xlink:href="#linearGradient5060-820-86"/><linearGradient id="linearGradient5060-820-86"><stop id="stop2681-2" offset="0" stop-color="#000" stop-opacity="1"/><stop id="stop2683-6" offset="1" stop-color="#000" stop-opacity="0"/></linearGradient><linearGradient id="linearGradient3273" x1="302.857" x2="302.857" y1="366.648" y2="609.505" gradientTransform="matrix(0.1076923,0,0,0.03294117,-6.923076,40.92219)" gradientUnits="userSpaceOnUse" xlink:href="#linearGradient5048-585-2"/><linearGradient id="linearGradient5048-585-2"><stop id="stop2667-5" offset="0" stop-color="#000" stop-opacity="0"/><stop id="stop2669-5" offset=".5" stop-color="#000" stop-opacity="1"/><stop id="stop2671-7" offset="1" stop-color="#000" stop-opacity="0"/></linearGradient><radialGradient id="radialGradient3281" cx="605.714" cy="486.648" r="117.143" fx="605.714" fy="486.648" gradientTransform="matrix(0.04016195,0,0,0.0329426,33.79598,40.92132)" gradientUnits="userSpaceOnUse" xlink:href="#linearGradient5060-820-86"/><linearGradient id="linearGradient3295" x1="97.539" x2="97.539" y1="8.81" y2="44.261" gradientTransform="matrix(1.2749674,0,0,1.218292,-67.159176,-0.33920965)" gradientUnits="userSpaceOnUse" xlink:href="#linearGradient9235-9-6"/><linearGradient id="linearGradient9235-9-6"><stop id="stop9237-7-5" offset="0" stop-color="#fff" stop-opacity="1"/><stop id="stop9239-2-3-1" offset=".109" stop-color="#fff" stop-opacity=".235"/><stop id="stop9241-1-7" offset=".979" stop-color="#fff" stop-opacity=".157"/><stop id="stop9243-5-4" offset="1" stop-color="#fff" stop-opacity=".392"/></linearGradient><linearGradient id="linearGradient3298" x1="-51.786" x2="-51.786" y1="53.514" y2="3.634" gradientTransform="matrix(1.0563766,0,0,1.0770552,69.97515,-2.5296497)" gradientUnits="userSpaceOnUse" xlink:href="#linearGradient3104-8-8-97-4-6-11-5-5-1-0-5-3"/><linearGradient id="linearGradient3104-8-8-97-4-6-11-5-5-1-0-5-3"><stop id="stop3106-5-4-3-5-0-2-1-0-1-2-7-8" offset="0" stop-color="#000" stop-opacity=".322"/><stop id="stop3108-4-3-7-8-2-0-7-9-4-9-4-5-3" offset="1" stop-color="#000" stop-opacity=".278"/></linearGradient><linearGradient id="linearGradient4646-6-1-3-5-8-8-7-2"><stop id="stop4648-2-1-9-37-1-22-2-7" offset="0" stop-color="#f9f9f9" stop-opacity="1"/><stop id="stop4650-3-28-6-7-5-9-4-2" offset="1" stop-color="#d8d8d8" stop-opacity="1"/></linearGradient><linearGradient id="linearGradient26112" x1="63.412" x2="63.412" y1="19.664" y2="21.216" gradientTransform="matrix(1.3847178,0,0,1.3814113,-70.621166,-2.6566197)" gradientUnits="userSpaceOnUse" xlink:href="#linearGradient4646-6-1-3-5-8-8-7-2"/></defs><metadata id="metadata26119"/><g id="layer1"><path d="m 7.50001,10 c -0.277,0 -0.5,0.223 -0.5,0.5 l 0,3.5 -2.5,0 c -0.277,0 -0.5,0.223 -0.5,0.5 l 0,15.5 L 60,30 60,14.5 C 60,14.223 59.777,14 59.5,14 L 28,14 28,10.5 C 28,10.223 27.777,10 27.5,10 z" style="marker:none" id="rect3340-3-4" fill="url(#linearGradient26112)" fill-opacity="1" fill-rule="nonzero" stroke="none" stroke-width="1" color="#000" display="inline" enable-background="accumulate" overflow="visible" visibility="visible"/><path id="path2558-2" fill="none" stroke="url(#linearGradient3298)" stroke-dasharray="none" stroke-dashoffset="0" stroke-linecap="butt" stroke-linejoin="miter" stroke-miterlimit="4" stroke-opacity="1" stroke-width="1" d="m 8.00001,9.5001603 c -0.91501,0.0102 -1.5,0.45618 -1.5,1.3332897 l 0,2.66655 -1.506,0 c -0.99492,0 -1.494,0.47358 -1.494,1.34217 0.0456,13.71958 0,14.49301 0,15.65783 L 60.5,29.44389 60.5,15 c 0,-1.00007 -0.49995,-1.5 -1.5,-1.5 l -30.5,0 0,-2.66655 c 0,-0.8771097 -0.22452,-1.3435097 -1.13954,-1.3332897 z" color="#000" display="inline" enable-background="accumulate" opacity=".8" overflow="visible" visibility="visible" style="marker:none"/><path id="rect3340-6" fill="none" stroke="url(#linearGradient3295)" stroke-dasharray="none" stroke-dashoffset="0" stroke-linecap="round" stroke-linejoin="round" stroke-miterlimit="4" stroke-opacity="1" stroke-width="1" d="m 7.50001,10.5 0,4 -3,0 0,16 54.99999,0 0,-16 -32,0 0,-4 z" color="#000" display="inline" enable-background="accumulate" overflow="visible" visibility="visible" style="marker:none"/><path id="path3411-3" fill="url(#radialGradient3281)" fill-opacity="1" fill-rule="nonzero" stroke="none" stroke-width="1" d="m 58,52.99993 c 0,0 0,7.9999 0,7.9999 2.06824,0.0151 5,-1.79237 5,-4.00046 0,-2.2081 -2.308,-3.99944 -5,-3.99944 z" display="inline" opacity=".3" overflow="visible" visibility="visible" style="marker:none"/><rect id="rect4173-5" width="52" height="8" x="6" y="53" fill="url(#linearGradient3273)" fill-opacity="1" fill-rule="nonzero" stroke="none" stroke-width="1" display="inline" opacity=".3" overflow="visible" visibility="visible" style="marker:none"/><path id="path5018-5" fill="url(#radialGradient3270)" fill-opacity="1" fill-rule="nonzero" stroke="none" stroke-width="1" d="m 6,52.99993 c 0,0 0,7.9999 0,7.9999 -2.06824,0.0151 -5,-1.79237 -5,-4.00046 0,-2.2081 2.308,-3.99944 5,-3.99944 z" display="inline" opacity=".3" overflow="visible" visibility="visible" style="marker:none"/><path d="M 1.38464,27.5255 C -0.04730997,27.65952 0.71790003,28.52473 0.60373003,29.30362 1.00481,30.91856 3.24205,55.09259 3.5128,56.83455 c 0.45632,1.04628 2.1284,0.51048 3.18789,0.6433 17.612,0 35.224,0 52.836,0 1.45421,-0.11556 0.84961,-1.52516 1.05418,-2.33188 0.0829,-1.17381 2.27808,-18.86115 2.90913,-26.83224 -0.33529,-1.03394 -1.98599,-0.78823 -3.02087,-0.78823 -18.80785,0 -40.28664,0 -59.09449,0 l 0,0 z" style="marker:none" id="path7314" fill="url(#linearGradient6563-1)" fill-opacity="1" fill-rule="nonzero" stroke="none" stroke-width="1" color="#000" display="inline" enable-background="accumulate" overflow="visible" visibility="visible"/><path id="path2541" fill="url(#linearGradient3262)" fill-opacity="1" stroke="none" d="m 1.39371,27 61.21258,4.3e-4 C 63.45207,27.00043 64,27.47678 64,28.06898 L 61.00671,56.93103 C 61.00671,57.52324 60.32581,58 59.48004,58 L 4.51991,58 C 3.67413,58 2.99324,57.52324 2.99324,56.93103 L 2.8630083e-8,28.06897 C 2.8630083e-8,27.47676 0.54793003,27 1.39371,27 l 0,0 z" opacity=".4"/><path id="path3437" fill="none" stroke="url(#linearGradient3483)" stroke-dasharray="none" stroke-dashoffset="0" stroke-linecap="round" stroke-linejoin="round" stroke-miterlimit="4" stroke-opacity="1" stroke-width="1" d="m 1.5,28.5221 c 1.15181,9.26788 1.92343,18.59416 2.93149,27.88442 l 55.13702,0.031 2.81796,-26.74073 c 0.2758,-1.42895 -0.40867,-1.13669 -0.79631,-1.17474 -20.19652,-9e-5 -39.89244,6e-5 -60.09016,0 z" color="#000" display="inline" enable-background="accumulate" opacity=".5" overflow="visible" visibility="visible" style="marker:none"/><path id="path7314-5" fill="none" stroke="#000" stroke-dasharray="none" stroke-dashoffset="0" stroke-linecap="round" stroke-linejoin="round" stroke-miterlimit="4" stroke-opacity="1" stroke-width="1" d="M 1.38464,27.5255 C -0.04730997,27.65952 0.71790003,28.52473 0.60373003,29.30362 1.00481,30.91856 3.24205,55.09259 3.5128,56.83455 c 0.45632,1.04628 2.1284,0.51048 3.18789,0.6433 17.612,0 35.224,0 52.836,0 1.45421,-0.11556 0.84961,-1.52516 1.05418,-2.33188 0.0829,-1.17381 2.27808,-18.86115 2.90913,-26.83224 -0.33529,-1.03394 -1.98599,-0.78823 -3.02087,-0.78823 -18.80785,0 -40.28664,0 -59.09449,0 l 0,0 z" color="#000" display="inline" enable-background="accumulate" opacity=".3" overflow="visible" visibility="visible" style="marker:none"/></g></svg>