<svg xmlns="http://www.w3.org/2000/svg" xmlns:svg="http://www.w3.org/2000/svg" xmlns:xlink="http://www.w3.org/1999/xlink" id="svg3695" width="64" height="64" version="1.0"><metadata id="metadata11265"/><defs id="defs3697"><linearGradient id="linearGradient3892"><stop id="stop3894" offset="0" stop-color="#424242" stop-opacity="1"/><stop id="stop3896" offset="1" stop-color="#dbdbdb" stop-opacity="1"/></linearGradient><linearGradient id="linearGradient3835"><stop id="stop3837" offset="0" stop-color="#000" stop-opacity="1"/><stop id="stop3839" offset="1" stop-color="#000" stop-opacity="0"/></linearGradient><linearGradient id="linearGradient3825"><stop id="stop3827" offset="0" stop-color="#000" stop-opacity="1"/><stop id="stop3829" offset="1" stop-color="#000" stop-opacity="0"/></linearGradient><linearGradient id="linearGradient3815"><stop id="stop3817" offset="0" stop-color="#000" stop-opacity="1"/><stop id="stop3819" offset="1" stop-color="#000" stop-opacity="0"/></linearGradient><linearGradient id="linearGradient5060"><stop id="stop5062" offset="0" stop-color="#000" stop-opacity="1"/><stop id="stop5064" offset="1" stop-color="#000" stop-opacity="0"/></linearGradient><radialGradient id="radialGradient3269" cx="62.712" cy="108.025" r="47.383" fx="62.712" fy="108.025" gradientTransform="matrix(0.3587806,0,0,0.2110472,1.5000008,15.20272)" gradientUnits="userSpaceOnUse" xlink:href="#linearGradient5060"/><linearGradient id="linearGradient3384"><stop id="stop3386" offset="0" stop-color="#6e6e6e" stop-opacity="1"/><stop id="stop3388" offset="1" stop-color="#9f9fa1" stop-opacity="1"/></linearGradient><linearGradient id="linearGradient3266" x1="31.048" x2="31.048" y1="45" y2="5.5" gradientTransform="translate(0,2)" gradientUnits="userSpaceOnUse" xlink:href="#linearGradient3384"/><linearGradient id="linearGradient2793-2-0-403"><stop id="stop4645" offset="0" stop-color="#8d909a" stop-opacity="1"/><stop id="stop4647" offset="1" stop-color="#d9d9d9" stop-opacity="1"/></linearGradient><linearGradient id="linearGradient3264" x1="11.931" x2="21.515" y1="26.411" y2="26.411" gradientTransform="matrix(1.2083478,0,0,1.5198788,-1.979478,-15.055094)" gradientUnits="userSpaceOnUse" spreadMethod="reflect" xlink:href="#linearGradient2793-2-0-403"/><radialGradient id="radialGradient3258" cx="19.308" cy="21.029" r="14.5" fx="19.308" fy="21.029" gradientTransform="matrix(0,1.679283,-1.6454754,0,48.823182,-18.496093)" gradientUnits="userSpaceOnUse" spreadMethod="pad" xlink:href="#linearGradient3254-8-457"/><linearGradient id="linearGradient3355-273"><stop id="stop4657" offset="0" stop-color="#f0f0f0" stop-opacity="1"/><stop id="stop3619" offset=".45" stop-color="#777779" stop-opacity="1"/><stop id="stop4659" offset="1" stop-color="#6c6c70" stop-opacity="1"/></linearGradient><linearGradient id="linearGradient3255" x1="24" x2="24" y1="9.373" y2="2.097" gradientTransform="matrix(1.1598658,0,0,1.3742464,-3.8367541,-0.9326014)" gradientUnits="userSpaceOnUse" xlink:href="#linearGradient3355-273"/><linearGradient id="linearGradient3320"><stop id="stop3323" offset="0" stop-color="#4e4e4e" stop-opacity="1"/><stop id="stop3325" offset="1" stop-color="#b9bac2" stop-opacity="1"/></linearGradient><linearGradient id="linearGradient3253" x1="9" x2="24" y1="8" y2="8" gradientUnits="userSpaceOnUse" spreadMethod="reflect" xlink:href="#linearGradient3320"/><linearGradient id="linearGradient3627"><stop id="stop3629" offset="0" stop-color="#000" stop-opacity="0"/><stop id="stop3190" offset=".5" stop-color="#000" stop-opacity="0"/><stop id="stop3631" offset="1" stop-color="#000" stop-opacity="1"/></linearGradient><radialGradient id="radialGradient3250" cx="24" cy="7.792" r="14.508" fx="24" fy="7.792" gradientTransform="matrix(-3.2042761e-8,0.6892888,-3.1574826,0,48.603098,-13.542931)" gradientUnits="userSpaceOnUse" spreadMethod="pad" xlink:href="#linearGradient3627"/><linearGradient id="linearGradient3254-8-457"><stop id="stop4669" offset="0" stop-color="#fff" stop-opacity="1"/><stop id="stop4671" offset="1" stop-color="#fff" stop-opacity="0"/></linearGradient><linearGradient id="linearGradient3247" x1="23.5" x2="23.5" y1="10.996" y2="39.851" gradientTransform="matrix(1.2227969,0,0,1.9458981,-4.735753,-31.362975)" gradientUnits="userSpaceOnUse" xlink:href="#linearGradient3254-8-457"/><linearGradient id="linearGradient3254-3-182"><stop id="stop4663" offset="0" stop-color="#fff" stop-opacity="1"/><stop id="stop4665" offset="1" stop-color="#fff" stop-opacity="0"/></linearGradient><linearGradient id="linearGradient3261" x1="12.25" x2="17.125" y1="20.231" y2="34.174" gradientTransform="matrix(0.8965013,0,0,1.365896,4.7251825,-8.808688)" gradientUnits="userSpaceOnUse" xlink:href="#linearGradient3254-3-182"/><linearGradient id="linearGradient3389" x1="24" x2="24" y1="13.506" y2="43" gradientTransform="matrix(1,0.3684052,0,1,0,-4.9734702)" gradientUnits="userSpaceOnUse" xlink:href="#linearGradient3205"/><linearGradient id="linearGradient3205"><stop id="stop3207" offset="0" stop-color="#000" stop-opacity="1"/><stop id="stop3209" offset="1" stop-color="#000" stop-opacity="0"/></linearGradient><linearGradient id="linearGradient3373" x1="24" x2="24" y1="15.502" y2="45" gradientTransform="matrix(1,0.04605065,0,1,0,-0.9440383)" gradientUnits="userSpaceOnUse" xlink:href="#linearGradient3205"/><linearGradient id="linearGradient3032" x1="24" x2="24" y1="15.502" y2="45" gradientTransform="matrix(1.3446684,0.06174712,0,1.3408524,3.7449637,-1.1154458)" gradientUnits="userSpaceOnUse" xlink:href="#linearGradient3205"/><linearGradient id="linearGradient3035" x1="24" x2="24" y1="13.506" y2="43" gradientTransform="matrix(1.3446684,0.49397698,0,1.3408524,0.72796073,-6.5183192)" gradientUnits="userSpaceOnUse" xlink:href="#linearGradient3205"/><linearGradient id="linearGradient3038" x1="12.25" x2="17.125" y1="20.231" y2="34.174" gradientTransform="matrix(1.2054969,0,0,1.7882299,7.0817639,-9.9178739)" gradientUnits="userSpaceOnUse" xlink:href="#linearGradient3254-3-182"/><linearGradient id="linearGradient3041" x1="23.5" x2="23.5" y1="10.996" y2="39.851" gradientTransform="matrix(1.6442563,0,0,2.6091619,-6.6400562,-41.902748)" gradientUnits="userSpaceOnUse" xlink:href="#linearGradient3254-8-457"/><radialGradient id="radialGradient3052" cx="19.308" cy="21.029" r="14.5" fx="19.308" fy="21.029" gradientTransform="matrix(0,2.2516706,-2.2126187,0,66.378947,-24.65016)" gradientUnits="userSpaceOnUse" spreadMethod="pad" xlink:href="#linearGradient3254-8-457"/><linearGradient id="linearGradient3055" x1="11.931" x2="21.515" y1="26.411" y2="26.411" gradientTransform="matrix(1.624827,0,0,1.9343912,-1.9337805,-15.842847)" gradientUnits="userSpaceOnUse" spreadMethod="reflect" xlink:href="#linearGradient2793-2-0-403"/><linearGradient id="linearGradient3057" x1="31.048" x2="31.048" y1="45" y2="5.5" gradientTransform="matrix(1.3446683,0,0,1.2727273,0.72796083,5.8636367)" gradientUnits="userSpaceOnUse" xlink:href="#linearGradient3384"/><radialGradient id="radialGradient3060" cx="62.712" cy="108.025" r="47.383" fx="62.712" fy="108.025" gradientTransform="matrix(0.45375193,0,0,0.19589447,4.0441191,32.839593)" gradientUnits="userSpaceOnUse" xlink:href="#linearGradient5060"/><linearGradient id="linearGradient5339" x1="24" x2="24" y1="15.502" y2="45" gradientTransform="matrix(1.3446684,0.06174712,0,1.3408524,-2.2550363,-1.1154458)" gradientUnits="userSpaceOnUse" xlink:href="#linearGradient3205"/><linearGradient id="linearGradient5341" x1="23.5" x2="23.5" y1="10.996" y2="39.851" gradientTransform="matrix(1.6442563,0,0,2.6091619,-5.6400561,-41.902748)" gradientUnits="userSpaceOnUse" xlink:href="#linearGradient3254-8-457"/><linearGradient id="linearGradient3821" x1="34.44" x2="34.44" y1="18.596" y2="46.219" gradientUnits="userSpaceOnUse" xlink:href="#linearGradient3815"/><linearGradient id="linearGradient3831" x1="35.095" x2="35.095" y1="19.21" y2="42.53" gradientUnits="userSpaceOnUse" xlink:href="#linearGradient3825"/><linearGradient id="linearGradient3841" x1="41.25" x2="41.25" y1="19.833" y2="40.715" gradientUnits="userSpaceOnUse" xlink:href="#linearGradient3835"/><linearGradient id="linearGradient3083" x1="32.181" x2="32.181" y1="13.829" y2="28.903" gradientTransform="matrix(0.72972969,0,0,0.72972969,3.516668,-7.0913942)" gradientUnits="userSpaceOnUse" xlink:href="#linearGradient4404-5-5-1"/><linearGradient id="linearGradient4404-5-5-1"><stop id="stop4406-9-1-0" offset="0" stop-color="#fff" stop-opacity="1"/><stop id="stop4408-7-4-4" offset=".091" stop-color="#fff" stop-opacity=".235"/><stop id="stop4410-6-4-0" offset=".818" stop-color="#fff" stop-opacity=".157"/><stop id="stop4412-1-5-5" offset="1" stop-color="#fff" stop-opacity=".392"/></linearGradient><linearGradient id="linearGradient3081" x1="34.613" x2="19.314" y1="26.411" y2="26.411" gradientTransform="matrix(0.45754817,0,0,0.47298439,-1.837284,-3.6558699)" gradientUnits="userSpaceOnUse" spreadMethod="reflect" xlink:href="#linearGradient4238-0"/><linearGradient id="linearGradient4238-0"><stop id="stop4240-2" offset="0" stop-color="#8d909a" stop-opacity="1"/><stop id="stop4242-27" offset="1" stop-color="#e5e5e5" stop-opacity="1"/></linearGradient><linearGradient id="linearGradient3076" x1="34.613" x2="19.314" y1="26.411" y2="26.411" gradientTransform="matrix(0.45754817,0,0,0.47298439,-1.837284,-3.6558699)" gradientUnits="userSpaceOnUse" spreadMethod="reflect" xlink:href="#linearGradient4238-0"/><radialGradient id="radialGradient3898" cx="32" cy="16" r="7" fx="32" fy="16" gradientTransform="matrix(1,0,0,1.1428571,-22,-25.285714)" gradientUnits="userSpaceOnUse" xlink:href="#linearGradient3892"/><radialGradient id="radialGradient3910" cx="32" cy="13.583" r="7.5" fx="32" fy="13.583" gradientTransform="matrix(1,0,0,0.66666671,0,1.9444437)" gradientUnits="userSpaceOnUse" xlink:href="#linearGradient3892"/><radialGradient id="radialGradient3922" cx="25.72" cy="3.129" r="7" fx="25.72" fy="3.129" gradientTransform="matrix(1.104536,1.2272618,-0.19999996,0.88888892,-2.3073407,-30.84599)" gradientUnits="userSpaceOnUse" xlink:href="#linearGradient4238-0"/></defs><path id="path12941" fill="url(#radialGradient3060)" fill-opacity="1" fill-rule="evenodd" stroke="none" stroke-width="1.055" d="M 54,54.001101 C 53.998689,59.52352 44.373196,63 32.5,63 20.626803,63 11.00131,59.52352 11,54.001101 10.998691,48.477823 20.624952,44 32.5,44 44.375048,44 54.001309,48.477823 54,54.001101 z" display="inline" overflow="visible" visibility="visible" style="marker:none"/><path id="path2230" fill="url(#linearGradient3055)" fill-opacity="1" fill-rule="nonzero" stroke="url(#linearGradient3057)" stroke-opacity="1" stroke-width="1" d="m 13.5,13.5 0,40.727274 C 13.5,57.96452 19.429068,61.5 33.000002,61.5 46.570935,61.5 51.5,57.96452 51.5,54.227274 L 51.5,13.5 z" display="inline" overflow="visible" visibility="visible" style="marker:none"/><path id="path3212" fill="url(#radialGradient3052)" fill-opacity="1" fill-rule="nonzero" stroke="none" stroke-width="1" d="m 14.174644,12.218041 0,41.566423 c 0,3.783888 8.433761,8.045118 18.825358,8.045114 10.391597,0 18.825355,-4.261226 18.825355,-8.045114 l 0,-41.566423 c 0,0 -37.650713,0 -37.650713,0 z" display="inline" opacity=".4" overflow="visible" visibility="visible" style="marker:none"/><path id="path2206" fill="none" stroke="url(#linearGradient5341)" stroke-dasharray="none" stroke-dashoffset="0" stroke-linecap="round" stroke-linejoin="round" stroke-miterlimit="4" stroke-opacity="1" stroke-width="1" d="m 14.5,10.623206 c 0,2.592624 0,41.026119 0,44.013041 0,3.600644 14.268766,6.379086 18.499967,6.522904 C 37.231168,61.302969 50.5,58.236891 50.5,54.636247 50.5,51.872584 50.42291,13.385796 50.5,10.623206 50.571909,8.0463686 43.949214,4.5 32.999967,4.5 22.05072,4.5 14.5,8.0305819 14.5,10.623206 z" display="inline" opacity=".15" overflow="visible" visibility="visible" style="marker:none"/><path id="rect3244" fill="url(#linearGradient3038)" fill-opacity="1" fill-rule="nonzero" stroke="none" stroke-width="1" d="m 22.753223,17.556825 6.027485,1.136984 0,43.476351 -6.027485,-1.452938 0,-43.160397 0,0 z" display="inline" opacity=".2" overflow="visible" visibility="visible" style="marker:none"/><path id="path3287" fill="url(#linearGradient3035)" fill-opacity="1" fill-rule="nonzero" stroke="none" stroke-width="1" d="m 18.5,18.259953 c 1.11742,0.410494 1.5,1.637996 1.5,2.752243 l 0,35.524512 c 0,1.114249 -0.38258,1.680808 -1.5,1.270313 C 17.38258,57.396525 17,56.169025 17,55.054776 l 0,-35.52451 c 0,-1.114249 0.38258,-1.680808 1.5,-1.270313 z M 46.5,18.5 C 45.382581,18.910496 45,20.085751 45,21.2 l 0,35.005533 c 0,1.114249 0.382581,1.680808 1.5,1.270314 C 47.617419,57.065352 48,55.83785 48,54.723603 L 48,19.7 c 0,-1.114249 -0.382581,-1.610495 -1.5,-1.2 z" display="inline" enable-background="accumulate" opacity=".15" overflow="visible" visibility="visible" style="marker:none"/><path id="path3293" fill="url(#linearGradient3032)" fill-opacity="1" fill-rule="nonzero" stroke="none" stroke-width="1" d="m 39.5,20.941658 c -1.117419,0.05132 -1.517003,0.989651 -1.517003,2.103898 l 0,35.524512 c 0,1.114249 0.399584,1.96997 1.517003,1.918657 1.11742,-0.05132 1.5,-0.98965 1.5,-2.103898 l 0,-35.524512 c 0,-1.114249 -0.38258,-1.96997 -1.5,-1.918657 z" display="inline" enable-background="accumulate" opacity=".3" overflow="visible" visibility="visible" style="marker:none"/><path id="path5337" fill="url(#linearGradient5339)" fill-opacity="1" fill-rule="nonzero" stroke="none" stroke-width="1" d="m 25.5,20.941658 c 1.117421,0.05132 1.5,0.989651 1.5,2.103898 l 0,35.524512 c 0,1.114249 -0.382579,1.96997 -1.5,1.918657 -1.117419,-0.05131 -1.517003,-0.98965 -1.517003,-2.103898 l 0,-35.524512 c 0,-1.114249 0.399584,-1.96997 1.517003,-1.918657 z m 7,0.999808 c -1.117419,0.05132 -1.500003,0.989651 -1.500003,2.103898 l 0,35.524512 c 0,1.114249 0.382584,1.969971 1.500003,1.918658 1.11742,-0.05132 1.534,-0.98965 1.534,-2.103898 l 0,-35.524513 c 0,-1.114249 -0.41658,-1.969969 -1.534,-1.918657 z" display="inline" enable-background="accumulate" opacity=".3" overflow="visible" visibility="visible" style="marker:none"/><path id="path3045" fill="none" stroke="url(#linearGradient3821)" stroke-dasharray="none" stroke-miterlimit="4" stroke-opacity="1" stroke-width=".5" d="m 18.5,18.5 c 1.11742,0.410494 1.5,1.397949 1.5,2.512196 l 0,35.524512 c 0,1.114249 -0.38258,1.680808 -1.5,1.270313 C 17.38258,57.396525 17,56.169025 17,55.054776 l 0,-35.52451 C 17,18.416017 17.38258,18.089505 18.5,18.5 z m 28,0 C 45.382581,18.910496 45,20.085751 45,21.2 l 0,35.005533 c 0,1.114249 0.382581,1.680808 1.5,1.270314 C 47.617419,57.065352 48,55.83785 48,54.723603 L 48,19.7 c 0,-1.114249 -0.382581,-1.610495 -1.5,-1.2 z" display="inline" enable-background="accumulate" opacity=".351" overflow="visible" visibility="visible" style="marker:none"/><path stroke-width=".5" style="marker:none" id="path3823" fill="none" fill-opacity="1" fill-rule="nonzero" stroke="url(#linearGradient3831)" stroke-dasharray="none" stroke-miterlimit="4" stroke-opacity="1" d="m 25.5,20.941658 c 1.117421,0.05132 1.5,0.989651 1.5,2.103898 l 0,35.524512 c 0,1.114249 -0.382579,1.96997 -1.5,1.918657 -1.117419,-0.05131 -1.517003,-0.98965 -1.517003,-2.103898 l 0,-35.524512 c 0,-1.114249 0.399584,-1.96997 1.517003,-1.918657 z m 7,0.999808 c -1.117419,0.05132 -1.500003,0.989651 -1.500003,2.103898 l 0,35.524512 c 0,1.114249 0.382584,1.969971 1.500003,1.918658 1.11742,-0.05132 1.534,-0.98965 1.534,-2.103898 l 0,-35.524513 c 0,-1.114249 -0.41658,-1.969969 -1.534,-1.918657 z" display="inline" enable-background="accumulate" opacity=".433" overflow="visible" visibility="visible"/><path id="path3833" fill="none" fill-opacity="1" fill-rule="nonzero" stroke="url(#linearGradient3841)" stroke-dasharray="none" stroke-miterlimit="4" stroke-opacity="1" stroke-width=".5" d="m 39.5,20.941658 c -1.117419,0.05132 -1.517003,0.989651 -1.517003,2.103898 l 0,35.524512 c 0,1.114249 0.399584,1.96997 1.517003,1.918657 1.11742,-0.05132 1.5,-0.98965 1.5,-2.103898 l 0,-35.524512 c 0,-1.114249 -0.38258,-1.96997 -1.5,-1.918657 z" display="inline" enable-background="accumulate" opacity=".463" overflow="visible" visibility="visible" style="marker:none"/><path id="path5418" fill="url(#linearGradient3076)" fill-opacity="1" fill-rule="nonzero" stroke="none" stroke-width="1.039" d="m 8,1.46875 c -1.7572026,0 -3.3544793,0.2196475 -4.46875,0.5625 -0.5571353,0.1714263 -0.9846671,0.3694792 -1.25,0.5625 C 2.0159171,2.7867708 1.96875,2.9230812 1.96875,3 l 0,2 c 0,0.076919 0.047167,0.2132292 0.3125,0.40625 0.2653329,0.1930208 0.6928647,0.3910737 1.25,0.5625 1.1142707,0.3428525 2.7115474,0.5625 4.46875,0.5625 1.7572027,0 3.354479,-0.2196475 4.46875,-0.5625 0.557135,-0.1714263 0.984667,-0.3694792 1.25,-0.5625 C 13.984083,5.2132292 14.03125,5.0769189 14.03125,5 l 0,-2 c 0,-0.076919 -0.04717,-0.2132292 -0.3125,-0.40625 -0.265333,-0.1930208 -0.692865,-0.3910737 -1.25,-0.5625 C 11.354479,1.6883975 9.7572027,1.46875 8,1.46875 z" color="#000" display="inline" enable-background="accumulate" overflow="visible" transform="matrix(3.3989637,0,0,2.962963,5.3082902,3.6481479)" visibility="visible" style="marker:none"/><path id="path5019-9" fill="none" stroke="#161b28" stroke-dasharray="none" stroke-dashoffset="0" stroke-linecap="butt" stroke-linejoin="miter" stroke-miterlimit="4" stroke-opacity="1" stroke-width="1" d="m 32.5,7.4999999 c -11.597978,0 -21,2.3878138 -21,5.3333341 l 0,5.333333 c 0,2.945519 9.402022,5.333333 21,5.333333 11.597978,0 21,-2.387814 21,-5.333333 l 0,-5.333333 c 0,-2.9455203 -9.402022,-5.3333341 -21,-5.3333341 z" color="#000" display="inline" enable-background="accumulate" opacity=".5" overflow="visible" visibility="visible" style="marker:none"/><path id="path4564-1-6" fill="none" stroke="url(#linearGradient3083)" stroke-dasharray="none" stroke-dashoffset="0" stroke-linecap="round" stroke-linejoin="round" stroke-miterlimit="4" stroke-opacity="1" stroke-width=".522" d="m 33,3.5 a 7,3.5 0 1 1 -14,0 7,3.5 0 1 1 14,0 z" color="#000" display="inline" enable-background="accumulate" opacity=".7" overflow="visible" transform="matrix(2.8571429,0,0,-1.2857143,-41.785714,17.5)" visibility="visible" style="marker:none"/><path id="path3914" fill="url(#radialGradient3922)" fill-opacity="1" stroke="none" stroke-dasharray="none" stroke-dashoffset="0" stroke-linecap="round" stroke-linejoin="round" stroke-miterlimit="4" stroke-opacity="1" stroke-width=".522" d="m 33,3.5 a 7,3.5 0 1 1 -14,0 7,3.5 0 1 1 14,0 z" color="#000" display="inline" enable-background="accumulate" opacity=".7" overflow="visible" transform="matrix(2.8571429,0,0,-1.2857143,-41.785714,17.5)" visibility="visible" style="marker:none"/><path id="path3116" fill="#161b28" fill-opacity="1" stroke="none" d="m 26.103026,12.872584 a 1.5100925,0.21572749 0 1 1 -3.020185,0 1.5100925,0.21572749 0 1 1 3.020185,0 z" opacity=".2" transform="matrix(1.9866333,0,0,6.9532167,-22.85714,-77.005868)"/><path id="path3912" fill="#161b28" fill-opacity="1" stroke="none" d="m 26.103026,12.872584 a 1.5100925,0.21572749 0 1 1 -3.020185,0 1.5100925,0.21572749 0 1 1 3.020185,0 z" opacity=".2" transform="matrix(1.9866333,0,0,6.9532167,-10.85714,-77.005868)"/><path id="path3902" fill="url(#radialGradient3910)" fill-opacity="1" stroke="none" d="m 24.5,11.728572 0,-4.1430006 C 24.5,6.557 26.642857,4.4998572 28.785714,4.4998572 l 6.428572,0 C 37.357143,4.4998572 39.5,6.557 39.5,7.5855714 l 0,4.1430006 c 0,1.028571 -3,1.028571 -3,0 l 0,-3.1144292 c 0,-1.0285714 -2.357143,-1.1142862 -2.357143,-1.1142862 l -4.285714,0 c 0,0 -2.357143,0.085715 -2.357143,1.1142862 l 0,3.1144292 c 0,1.028571 -3,1.028571 -3,0 z"/><path id="path3900" fill="none" stroke="#161b28" stroke-dasharray="none" stroke-miterlimit="4" stroke-opacity="1" stroke-width="1" d="m 24.5,11.728572 0,-4.1430006 C 24.5,6.557 26.642857,4.4998572 28.785714,4.4998572 l 6.428572,0 C 37.357143,4.4998572 39.5,6.557 39.5,7.5855714 l 0,4.1430006 c 0,1.028571 -3,1.028571 -3,0 l 0,-3.1144292 c 0,-1.0285714 -2.357143,-1.1142862 -2.357143,-1.1142862 l -4.285714,0 c 0,0 -2.357143,0.085715 -2.357143,1.1142862 l 0,3.1144292 c 0,1.028571 -3,1.028571 -3,0 z" opacity=".35"/></svg>