<svg xmlns="http://www.w3.org/2000/svg" xmlns:svg="http://www.w3.org/2000/svg" xmlns:xlink="http://www.w3.org/1999/xlink" id="svg24942" width="64" height="64" version="1.1"><defs id="defs24944"><linearGradient id="linearGradient22622" x1="97.539" x2="97.539" y1="16.962" y2="44.261" gradientTransform="matrix(1.3210282,0,0,1.2679796,-70.729885,0.17381059)" gradientUnits="userSpaceOnUse" xlink:href="#linearGradient8272-8-8"/><linearGradient id="linearGradient8272-8-8"><stop id="stop8274-4" offset="0" stop-color="#fff" stop-opacity="1"/><stop id="stop8276-5" offset=".022" stop-color="#fff" stop-opacity=".235"/><stop id="stop8278-0" offset=".979" stop-color="#fff" stop-opacity=".157"/><stop id="stop8280-5-9" offset="1" stop-color="#fff" stop-opacity=".392"/></linearGradient><linearGradient id="linearGradient22618" x1="22.935" x2="22.809" y1="49.629" y2="36.658" gradientTransform="matrix(1.5432898,0,0,1.3103449,-5.0382943,0.34483059)" gradientUnits="userSpaceOnUse" xlink:href="#linearGradient6129-963-697-142-998-580-273-9"/><linearGradient id="linearGradient6129-963-697-142-998-580-273-9"><stop id="stop2661-3" offset="0" stop-color="#0a0a0a" stop-opacity=".498"/><stop id="stop2663-33" offset="1" stop-color="#0a0a0a" stop-opacity="0"/></linearGradient><linearGradient id="linearGradient22614" x1="-91" x2="-91" y1="44" y2="119.06" gradientTransform="matrix(0.50413225,0,0,0.49333391,73.843637,-1.4532894)" gradientUnits="userSpaceOnUse" xlink:href="#linearGradient4632-0-6-4-4-4"/><linearGradient id="linearGradient4632-0-6-4-4-4"><stop id="stop4634-4-4-7-4" offset="0" stop-color="#b4cee1" stop-opacity="1"/><stop id="stop4636-3-1-5-9" offset="1" stop-color="#5d9fcd" stop-opacity="1"/></linearGradient><radialGradient id="radialGradient22610" cx="605.714" cy="486.648" r="117.143" fx="605.714" fy="486.648" gradientTransform="matrix(-0.04016195,0,0,0.0329426,30.204677,40.92132)" gradientUnits="userSpaceOnUse" xlink:href="#linearGradient5060-820-8"/><linearGradient id="linearGradient5060-820-8"><stop id="stop2681-37" offset="0" stop-color="#000" stop-opacity="1"/><stop id="stop2683-05" offset="1" stop-color="#000" stop-opacity="0"/></linearGradient><linearGradient id="linearGradient22606" x1="302.857" x2="302.857" y1="366.648" y2="609.505" gradientTransform="matrix(0.1076923,0,0,0.03294117,-6.9224143,40.92219)" gradientUnits="userSpaceOnUse" xlink:href="#linearGradient5048-585-1"/><linearGradient id="linearGradient5048-585-1"><stop id="stop2667-0" offset="0" stop-color="#000" stop-opacity="0"/><stop id="stop2669-91" offset=".5" stop-color="#000" stop-opacity="1"/><stop id="stop2671-6" offset="1" stop-color="#000" stop-opacity="0"/></linearGradient><radialGradient id="radialGradient22602" cx="605.714" cy="486.648" r="117.143" fx="605.714" fy="486.648" gradientTransform="matrix(0.04016195,0,0,0.0329426,33.796647,40.92132)" gradientUnits="userSpaceOnUse" xlink:href="#linearGradient5060-820-8"/><linearGradient id="linearGradient22598" x1="97.539" x2="97.539" y1="8.81" y2="44.261" gradientTransform="matrix(1.2749674,0,0,1.218292,-67.158525,-0.33920941)" gradientUnits="userSpaceOnUse" xlink:href="#linearGradient9235-9"/><linearGradient id="linearGradient9235-9"><stop id="stop9237-7" offset="0" stop-color="#fff" stop-opacity="1"/><stop id="stop9239-2-3" offset=".109" stop-color="#fff" stop-opacity=".235"/><stop id="stop9241-1" offset=".979" stop-color="#fff" stop-opacity=".157"/><stop id="stop9243-5" offset="1" stop-color="#fff" stop-opacity=".392"/></linearGradient><linearGradient id="linearGradient22594" x1="-51.786" x2="-51.786" y1="53.514" y2="3.634" gradientTransform="matrix(1.0563766,0,0,1.0770552,69.975817,-2.5296494)" gradientUnits="userSpaceOnUse" xlink:href="#linearGradient3104-8-8-97-4-6-11-5-5-1-0-5"/><linearGradient id="linearGradient3104-8-8-97-4-6-11-5-5-1-0-5"><stop id="stop3106-5-4-3-5-0-2-1-0-1-2-7" offset="0" stop-color="#000" stop-opacity=".322"/><stop id="stop3108-4-3-7-8-2-0-7-9-4-9-4-5" offset="1" stop-color="#000" stop-opacity=".278"/></linearGradient><linearGradient id="linearGradient6404-7-5-7"><stop id="stop6406-1-8-2" offset="0" stop-color="#f9f9f9" stop-opacity="1"/><stop id="stop6408-9-6-4" offset="1" stop-color="#c9c9c9" stop-opacity="1"/></linearGradient><linearGradient id="linearGradient24940" x1="62.989" x2="62.989" y1="14.091" y2="16.998" gradientTransform="matrix(1.3135526,0,0,1.2900554,-55.484955,-1.2218594)" gradientUnits="userSpaceOnUse" xlink:href="#linearGradient6404-7-5-7"/></defs><metadata id="metadata24947"/><g id="layer1"><path d="m 7.5006657,10.000001 c -0.277,0 -0.5,0.223 -0.5,0.5 l 0,3.5 -2.5,0 c -0.277,0 -0.5,0.223 -0.5,0.5 l 0,9.5 c 0,0.277 0.223,0.5 0.5,0.5 l 55.0000013,0 c 0.277,0 0.5,-0.223 0.5,-0.5 l 0,-9.5 c 0,-0.277 -0.223,-0.5 -0.5,-0.5 l -31.5,0 0,-3.5 c 0,-0.277 -0.223,-0.5 -0.5,-0.5 l -20.0000013,0 z" style="marker:none" id="use6500" fill="url(#linearGradient24940)" fill-opacity="1" fill-rule="nonzero" stroke="none" stroke-width="1" color="#000" display="inline" enable-background="accumulate" overflow="visible" visibility="visible"/><path id="use6502" fill="none" stroke="url(#linearGradient22594)" stroke-dasharray="none" stroke-dashoffset="0" stroke-linecap="butt" stroke-linejoin="miter" stroke-miterlimit="4" stroke-opacity="1" stroke-width="1" d="m 8.0006657,9.5001606 c -0.91501,0.0102 -1.5,0.45618 -1.5,1.3332904 l 0,2.66655 -1.506,0 c -0.99492,0 -1.494,0.47358 -1.494,1.34217 0.0456,13.71958 0,14.49301 0,15.65783 1.90283,0 56.9999913,-4.9328 56.9999913,-7.05611 l 0,-8.44389 c 0,-1.00007 -0.49994,-1.5 -1.49999,-1.5 l -30.5,0 0,-2.66655 c 0,-0.8771104 -0.22453,-1.3435104 -1.13954,-1.3332904 z" color="#000" display="inline" enable-background="accumulate" opacity=".8" overflow="visible" visibility="visible" style="marker:none"/><path id="use6504" fill="none" stroke="url(#linearGradient22598)" stroke-dasharray="none" stroke-dashoffset="0" stroke-linecap="round" stroke-linejoin="round" stroke-miterlimit="4" stroke-opacity="1" stroke-width="1" d="m 7.5006657,10.500001 0,4 -3,0 0,10 55.0000013,0 0,-10 -32,0 0,-4 -20.0000013,0 z" color="#000" display="inline" enable-background="accumulate" overflow="visible" visibility="visible" style="marker:none"/><path id="use6506" fill="url(#radialGradient22602)" fill-opacity="1" fill-rule="nonzero" stroke="none" stroke-width="1" d="m 58.000667,52.99993 c 0,0 0,7.999911 0,7.999911 2.06824,0.0151 5,-1.79238 5,-4.000471 0,-2.2081 -2.308,-3.99944 -5,-3.99944 z" display="inline" opacity=".3" overflow="visible" visibility="visible" style="marker:none"/><rect id="use6508" width="52" height="8" x="6.001" y="53" fill="url(#linearGradient22606)" fill-opacity="1" fill-rule="nonzero" stroke="none" stroke-width="1" display="inline" opacity=".3" overflow="visible" visibility="visible" style="marker:none"/><path id="use6510" fill="url(#radialGradient22610)" fill-opacity="1" fill-rule="nonzero" stroke="none" stroke-width="1" d="m 6.0006657,52.99993 c 0,0 0,7.999911 0,7.999911 -2.06825,0.0151 -5,-1.79238 -5,-4.000471 0,-2.2081 2.308,-3.99944 5,-3.99944 z" display="inline" opacity=".3" overflow="visible" visibility="visible" style="marker:none"/><path d="m 2.5042057,20.532111 c -1.44043,0.16346 -0.87122,1.85289 -0.98607,2.8029 0.5271,11.19318 1.25951,21.808849 1.78336,33.002099 0,1.189961 1.19486,1.136531 1.86516,1.136531 0,0 36.7742113,0 54.4905113,0 1.46281,-0.140931 0.85463,-1.860241 1.0604,-2.844201 0.52711,-11.19317 1.25992,-21.568889 1.78376,-32.762139 0.0178,-0.7521 -0.50074,-1.33519 -1.21534,-1.33519 0,0 -39.86255,0 -58.7817813,0 z" style="marker:none" id="use6512" fill="url(#linearGradient22614)" fill-opacity="1" fill-rule="nonzero" stroke="none" stroke-width="1" color="#000" display="inline" enable-background="accumulate" overflow="visible" visibility="visible"/><path id="use6514" fill="url(#linearGradient22618)" fill-opacity="1" stroke="none" d="m 2.4097557,20.000001 59.1818113,5.3e-4 c 0.85499,0 1.4091,0.5839 1.4091,1.30984 l -1.6775,35.379289 c 0,0.725931 -0.68831,1.310341 -1.54329,1.310341 l -55.5584413,0 c -0.85498,0 -1.54329,-0.58441 -1.54329,-1.310341 l -1.67748,-35.379309 c 0,-0.72594 0.5541,-1.31035 1.40909,-1.31035 z" opacity=".4"/><path id="use6516" fill="none" stroke="url(#linearGradient22622)" stroke-dasharray="none" stroke-dashoffset="0" stroke-linecap="round" stroke-linejoin="round" stroke-miterlimit="4" stroke-opacity="1" stroke-width="1" d="m 61.069097,21.500001 -57.1179413,0.0313 c -1.70924,0 -1.43419,0.0338 -1.43419,1.07579 l 1.62114,32.913579 c 0.0163,0.94321 -0.0656,0.9793 1.0726,0.9793 0,0 36.7779513,0 54.4396613,0 0.53983,-11.58225 1.25805,-22.682259 1.81479,-34.321819 0.0519,-0.55489 0.0134,-0.67818 -0.39606,-0.67818 z" color="#000" display="inline" enable-background="accumulate" opacity=".5" overflow="visible" visibility="visible" style="marker:none"/><path id="path2998-4-3-7" fill="#fff" fill-opacity="1" fill-rule="nonzero" stroke="none" stroke-width="1.7" d="m 31.999997,30.000001 -12.1875,12.187499 2.375,2.34375 1.8125,-1.78125 0,9.25 6,0 0,-5 c 0,-1.10457 0.89543,-2 2,-2 1.10457,0 2,0.89543 2,2 l 0,5 6,0 0,-9.25 1.8125,1.78125 2.375,-2.34375 -3.40625,-3.375 0,-0.0312 -6.34375,-6.343799 -2.4375,-2.4375 z m 5,1 0,1.21875 3,2.96875 0,-4.1875 -3,0 z" color="#000" display="inline" enable-background="accumulate" opacity=".3" overflow="visible" visibility="visible" style="marker:none"/><path d="m 31.999997,29.000001 -12.1875,12.187499 2.375,2.34375 1.8125,-1.78125 0,9.25 6,0 0,-5 c 0,-1.10457 0.89543,-2 2,-2 1.10457,0 2,0.89543 2,2 l 0,5 6,0 0,-9.25 1.8125,1.78125 2.375,-2.34375 -3.40625,-3.375 0,-0.0312 -6.34375,-6.343799 -2.4375,-2.4375 z m 5,1 0,1.21875 3,2.96875 0,-4.1875 -3,0 z" style="marker:none" id="path2998-4-3" fill="#175785" fill-opacity=".552" fill-rule="nonzero" stroke="none" stroke-width="1.7" color="#000" display="inline" enable-background="accumulate" overflow="visible" visibility="visible"/><path id="use6512-8" fill="none" stroke="#000" stroke-opacity="1" stroke-width="1" d="m 2.5042057,20.532111 c -1.44043,0.16346 -0.87122,1.85289 -0.98607,2.8029 0.5271,11.19318 1.25951,21.808849 1.78336,33.002099 0,1.189961 1.19486,1.136531 1.86516,1.136531 0,0 36.7742113,0 54.4905113,0 1.46281,-0.140931 0.85463,-1.860241 1.0604,-2.844201 0.52711,-11.19317 1.25992,-21.568889 1.78376,-32.762139 0.0178,-0.7521 -0.50074,-1.33519 -1.21534,-1.33519 0,0 -39.86255,0 -58.7817813,0 z" color="#000" display="inline" enable-background="accumulate" opacity=".3" overflow="visible" visibility="visible" style="marker:none"/></g></svg>