<svg xmlns="http://www.w3.org/2000/svg" xmlns:svg="http://www.w3.org/2000/svg" xmlns:xlink="http://www.w3.org/1999/xlink" id="svg4031" width="48" height="48" version="1.1"><defs id="defs4033"><linearGradient id="linearGradient4168"><stop id="stop4170" offset="0" stop-color="#f8b17e" stop-opacity="1"/><stop id="stop4172" offset=".232" stop-color="#e35d4f" stop-opacity="1"/><stop id="stop4174" offset=".591" stop-color="#c6262e" stop-opacity="1"/><stop id="stop4176" offset="1" stop-color="#690b54" stop-opacity="1"/></linearGradient><linearGradient id="linearGradient3957"><stop id="stop3959" offset="0" stop-color="#fff" stop-opacity="1"/><stop id="stop3961" offset="1" stop-color="#c1c1c1" stop-opacity="1"/></linearGradient><linearGradient id="linearGradient4011"><stop id="stop4013" offset="0" stop-color="#fff" stop-opacity="1"/><stop id="stop4015" offset=".508" stop-color="#fff" stop-opacity=".235"/><stop id="stop4017" offset=".835" stop-color="#fff" stop-opacity=".157"/><stop id="stop4019" offset="1" stop-color="#fff" stop-opacity=".392"/></linearGradient><linearGradient id="linearGradient2867-449-88-871-390-598-476-591-434-148-57-177-3-8"><stop id="stop3750-8-9" offset="0" stop-color="#90dbec" stop-opacity="1"/><stop id="stop3752-3-2" offset=".262" stop-color="#42baea" stop-opacity="1"/><stop id="stop3754-7-2" offset=".705" stop-color="#3689e6" stop-opacity="1"/><stop id="stop3756-9-3" offset="1" stop-color="#2b63a0" stop-opacity="1"/></linearGradient><linearGradient id="linearGradient3820-7-2-1"><stop id="stop3822-2-6-3" offset="0" stop-color="#3d3d3d" stop-opacity="1"/><stop id="stop3864-8-7-7" offset=".5" stop-color="#686868" stop-opacity=".498"/><stop id="stop3824-1-2-5" offset="1" stop-color="#686868" stop-opacity="0"/></linearGradient><linearGradient id="linearGradient3012" x1="71.204" x2="71.204" y1="6.238" y2="44.341" gradientTransform="matrix(1.054054,0,0,1.054054,-51.611001,-2.7279009)" gradientUnits="userSpaceOnUse" xlink:href="#linearGradient4011"/><radialGradient id="radialGradient3015" cx="3.972" cy="8.45" r="20" fx="3.972" fy="8.45" gradientTransform="matrix(0,2.4988347,-2.6434689,-6.8014435e-8,46.336814,-12.180468)" gradientUnits="userSpaceOnUse" xlink:href="#linearGradient2867-449-88-871-390-598-476-591-434-148-57-177-3-8"/><radialGradient id="radialGradient3018" cx="99.157" cy="186.171" r="62.769" fx="99.157" fy="186.171" gradientTransform="matrix(0.27083381,0,0,0.08762273,-2.855072,25.187228)" gradientUnits="userSpaceOnUse" xlink:href="#linearGradient3820-7-2-1"/><linearGradient id="linearGradient3951" x1="27.925" x2="33.448" y1="15.149" y2="22.986" gradientUnits="userSpaceOnUse" xlink:href="#linearGradient4168"/><linearGradient id="linearGradient3963" x1="24" x2="24" y1="22" y2="26" gradientUnits="userSpaceOnUse" xlink:href="#linearGradient3957"/><linearGradient id="linearGradient3963-7" x1="21.014" x2="22.806" y1="25.434" y2="27.344" gradientUnits="userSpaceOnUse" xlink:href="#linearGradient3957-2"/><linearGradient id="linearGradient3957-2"><stop id="stop3959-62" offset="0" stop-color="#fff" stop-opacity="1"/><stop id="stop3961-5" offset="1" stop-color="#c1c1c1" stop-opacity="1"/></linearGradient><linearGradient id="linearGradient2995" x1="30.271" x2="30.271" y1="10.029" y2="55.053" gradientTransform="matrix(2.1155865,0,0,3.8509774,177.06178,-159.44552)" gradientUnits="userSpaceOnUse" xlink:href="#linearGradient27416-1-2-0-1"/><linearGradient id="linearGradient27416-1-2-0-1"><stop id="stop27420-2-0-8-7" offset="0" stop-color="#55c1ec" stop-opacity="1"/><stop id="stop27422-3-5-3-3" offset="1" stop-color="#3689e6" stop-opacity="1"/></linearGradient><linearGradient id="linearGradient3052" x1="30.271" x2="30.271" y1="10.029" y2="55.053" gradientTransform="matrix(2.1155865,0,0,3.8509774,61.40076,-219.77227)" gradientUnits="userSpaceOnUse" xlink:href="#linearGradient27416-1-2-0-1"/><linearGradient id="linearGradient3060" x1="30.271" x2="30.271" y1="10.029" y2="55.053" gradientTransform="matrix(2.1155865,0,0,3.8509774,61.40076,-219.77227)" gradientUnits="userSpaceOnUse" xlink:href="#linearGradient27416-1-2-0-1"/><linearGradient id="linearGradient3066" x1="30.271" x2="30.271" y1="10.029" y2="55.053" gradientTransform="matrix(0.67764878,0,0,1.2335161,60.2151,-47.569187)" gradientUnits="userSpaceOnUse" xlink:href="#linearGradient27416-1-2-0-1"/></defs><metadata id="metadata4036"/><path id="path3818-0-5" fill="url(#radialGradient3018)" fill-opacity="1" stroke="none" d="m 40.999999,41.499999 a 17,5.4999999 0 1 1 -33.999999,0 17,5.4999999 0 1 1 33.999999,0 z"/><path id="path3029" fill="url(#linearGradient3066)" fill-opacity="1" fill-rule="nonzero" stroke="none" stroke-width="1.546" d="m 44.5,24.003202 a 20.5,20.5 0 0 1 -40.9999995,0 20.5,20.5 0 1 1 40.9999995,0 z" color="#000" display="inline" enable-background="accumulate" overflow="visible" visibility="visible" style="marker:none"/><path id="path3070" fill="#000" fill-opacity="1" fill-rule="nonzero" stroke="none" stroke-width="2" d="m 24,12.864627 c -4.711679,0 -8.531249,3.672664 -8.531249,8.203125 0,4.53046 3.81957,8.203124 8.531249,8.203124 4.711679,0 8.53125,-3.672664 8.53125,-8.203124 0,-4.530461 -3.819571,-8.203125 -8.53125,-8.203125 z M 20.872559,30.6449 c -3.840505,0 -7.162431,2.259439 -8.838867,5.578125 2.993323,3.19278 7.244474,5.188476 11.966308,5.188476 4.721835,0 8.972986,-1.995696 11.966309,-5.188476 C 34.289872,32.904339 30.967947,30.6449 27.127442,30.6449 l -6.254883,0 z" color="#000" display="inline" enable-background="accumulate" opacity=".15" overflow="visible" visibility="visible" style="marker:none"/><path stroke-width="2" style="marker:none" id="path3840" fill="#000" fill-opacity="1" fill-rule="nonzero" stroke="#000" stroke-dasharray="none" stroke-miterlimit="4" stroke-opacity="1" d="m 24,12.864627 c -4.711679,0 -8.531249,3.672664 -8.531249,8.203125 0,4.53046 3.81957,8.203124 8.531249,8.203124 4.711679,0 8.53125,-3.672664 8.53125,-8.203124 0,-4.530461 -3.819571,-8.203125 -8.53125,-8.203125 z M 20.872559,30.6449 c -3.840505,0 -7.162431,2.259439 -8.838867,5.578125 2.993323,3.19278 7.244474,5.188476 11.966308,5.188476 4.721835,0 8.972986,-1.995696 11.966309,-5.188476 C 34.289872,32.904339 30.967947,30.6449 27.127442,30.6449 l -6.254883,0 z" color="#000" display="inline" enable-background="accumulate" opacity=".07" overflow="visible" visibility="visible"/><path id="rect3049" fill="#fff" fill-opacity="1" fill-rule="nonzero" stroke="none" stroke-width="2" d="m 24,11.864627 c -4.711679,0 -8.531249,3.672664 -8.531249,8.203125 0,4.53046 3.81957,8.203124 8.531249,8.203124 4.711679,0 8.53125,-3.672664 8.53125,-8.203124 0,-4.530461 -3.819571,-8.203125 -8.53125,-8.203125 z M 20.872559,29.6449 c -3.840505,0 -7.162431,2.259439 -8.838867,5.578125 2.993323,3.19278 7.244474,5.188476 11.966308,5.188476 4.721835,0 8.972986,-1.995696 11.966309,-5.188476 C 34.289872,31.904339 30.967947,29.6449 27.127442,29.6449 l -6.254883,0 z" color="#000" display="inline" enable-background="accumulate" overflow="visible" visibility="visible" style="marker:none"/><path id="path8655" fill="none" stroke="url(#linearGradient3012)" stroke-dasharray="none" stroke-dashoffset="0" stroke-linecap="round" stroke-linejoin="round" stroke-miterlimit="4" stroke-opacity="1" stroke-width="1" d="m 43.5,23.999308 c 0,10.7699 -8.73109,19.50069 -19.499753,19.50069 -10.769649,0 -19.5002474,-8.730889 -19.5002474,-19.50069 0,-10.769402 8.7305984,-19.4993078 19.5002474,-19.4993078 C 34.76891,4.5000002 43.5,13.229906 43.5,23.999308 l 0,0 z" color="#000" display="inline" enable-background="accumulate" opacity=".5" overflow="visible" visibility="visible" style="marker:none"/><path id="path2555-6" fill="#000" fill-opacity="0" fill-rule="nonzero" stroke="#003651" stroke-dasharray="none" stroke-dashoffset="0" stroke-linecap="round" stroke-linejoin="round" stroke-miterlimit="4" stroke-opacity="1" stroke-width="1" d="m 24.000003,3.499998 c -11.311193,0 -20.5000034,9.188806 -20.5000034,20.5 0,11.311194 9.1888104,20.500005 20.5000034,20.500002 11.311188,0 20.500008,-9.188808 20.499997,-20.500002 0,-11.311194 -9.188809,-20.5 -20.499997,-20.5 z" color="#000" display="inline" enable-background="accumulate" opacity=".5" overflow="visible" visibility="visible" style="marker:none"/></svg>