<svg xmlns="http://www.w3.org/2000/svg" xmlns:svg="http://www.w3.org/2000/svg" xmlns:xlink="http://www.w3.org/1999/xlink" id="svg2485" width="48" height="48" version="1.0"><metadata id="metadata71"/><defs id="defs2487"><linearGradient id="linearGradient5126"><stop id="stop5128" offset="0" stop-color="#fff" stop-opacity="1"/><stop id="stop5130" offset="1" stop-color="#fff" stop-opacity="0"/></linearGradient><linearGradient id="linearGradient5118"><stop id="stop5120" offset="0" stop-color="#9d9d9d" stop-opacity="1"/><stop id="stop5122" offset="1" stop-color="#fff" stop-opacity="1"/></linearGradient><linearGradient id="linearGradient4762"><stop id="stop4764" offset="0" stop-color="#fff" stop-opacity="1"/><stop id="stop4766" offset=".028" stop-color="#fff" stop-opacity=".235"/><stop id="stop4768" offset=".972" stop-color="#fff" stop-opacity=".157"/><stop id="stop4770" offset="1" stop-color="#fff" stop-opacity=".392"/></linearGradient><linearGradient id="linearGradient3254-3-182-8-5"><stop id="stop4663-8-7" offset="0" stop-color="#fff" stop-opacity="1"/><stop id="stop4665-7-6" offset="1" stop-color="#fff" stop-opacity="0"/></linearGradient><linearGradient id="linearGradient4760" x1="30" x2="30" y1="7" y2="43" gradientUnits="userSpaceOnUse" xlink:href="#linearGradient4762"/><linearGradient id="linearGradient3457-7-6" x1="-20.447" x2="-48.479" y1="-93.092" y2="-93.092" gradientTransform="matrix(0.1783638,0,0,0.1558618,28.646957,19.509417)" gradientUnits="userSpaceOnUse" spreadMethod="reflect" xlink:href="#linearGradient2793-2-0-669-94-2"/><linearGradient id="linearGradient2793-2-0-669-94-2"><stop id="stop4681-3-1" offset="0" stop-color="#b4b4b4" stop-opacity="1"/><stop id="stop4683-67-4" offset="1" stop-color="#fff" stop-opacity="1"/></linearGradient><linearGradient id="linearGradient5066-8" x1="-17.121" x2="-45.762" y1="-93.092" y2="-93.092" gradientTransform="matrix(0.61425314,0,0,0.1558618,40.07214,19.732487)" gradientUnits="userSpaceOnUse" spreadMethod="reflect" xlink:href="#linearGradient5118"/><radialGradient id="radialGradient5132" cx="16.5" cy="7.5" r="3.5" fx="16.5" fy="7.5" gradientTransform="matrix(1,0,0,0.42857143,0,4.2857143)" gradientUnits="userSpaceOnUse" xlink:href="#linearGradient5126"/><linearGradient id="linearGradient3820-7-2-1-2-6"><stop id="stop3822-2-6-3-3-7" offset="0" stop-color="#3d3d3d" stop-opacity="1"/><stop id="stop3864-8-7-7-9-1" offset=".5" stop-color="#686868" stop-opacity=".498"/><stop id="stop3824-1-2-5-0-3" offset="1" stop-color="#686868" stop-opacity="0"/></linearGradient><radialGradient id="radialGradient5362" cx="99.157" cy="186.171" r="62.769" fx="99.157" fy="186.171" gradientTransform="matrix(0.2549024,0,0,0.07169133,-1.275361,29.153187)" gradientUnits="userSpaceOnUse" xlink:href="#linearGradient3820-7-2-1-2-6"/><linearGradient id="linearGradient5508" x1="13.682" x2="17.773" y1="17.458" y2="35.717" gradientTransform="matrix(1.4666658,0,0,2.0811612,-6.0666553,-30.333874)" gradientUnits="userSpaceOnUse" xlink:href="#linearGradient3254-3-182-8-5"/><linearGradient id="linearGradient5510" x1="25.273" x2="27.318" y1="17.458" y2="35.717" gradientTransform="matrix(1.4666658,0,0,2.0811612,-6.0666553,-30.333874)" gradientUnits="userSpaceOnUse" xlink:href="#linearGradient3254-3-182-8-5"/><linearGradient id="linearGradient8838"><stop id="stop8840" offset="0" stop-color="#000" stop-opacity="1"/><stop id="stop8842" offset="1" stop-color="#000" stop-opacity="0"/></linearGradient><linearGradient id="linearGradient3117-8"><stop id="stop3119-9" offset="0" stop-color="#fff" stop-opacity="1"/><stop id="stop3121-9" offset=".569" stop-color="#fff" stop-opacity=".235"/><stop id="stop3123-6" offset=".933" stop-color="#fff" stop-opacity=".157"/><stop id="stop3125-3" offset="1" stop-color="#fff" stop-opacity=".392"/></linearGradient><linearGradient id="linearGradient3457-7-6-1" x1="-19.599" x2="-19.599" y1="161.181" y2="127.335" gradientTransform="matrix(0.1783638,0,0,0.1558618,28.646957,19.509417)" gradientUnits="userSpaceOnUse" spreadMethod="reflect" xlink:href="#linearGradient2793-2-0-669-94-2-3"/><linearGradient id="linearGradient2793-2-0-669-94-2-3"><stop id="stop4681-3-1-7" offset="0" stop-color="#a4a4a4" stop-opacity="1"/><stop id="stop4683-67-4-6" offset="1" stop-color="#e2e2e2" stop-opacity="1"/></linearGradient><linearGradient id="linearGradient3821"><stop id="stop3823" offset="0" stop-color="#000" stop-opacity="1"/><stop id="stop3825" offset="1" stop-color="#000" stop-opacity="0"/></linearGradient><linearGradient id="linearGradient3975" x1="12.029" x2="36.609" y1="25" y2="25" gradientTransform="translate(-48,0)" gradientUnits="userSpaceOnUse" xlink:href="#linearGradient3821"/><linearGradient id="linearGradient3091" x1="29.127" x2="29.291" y1="19.788" y2="57.567" gradientTransform="matrix(0.49373581,0,-0.00214922,0.51518426,21.661617,16.574027)" gradientUnits="userSpaceOnUse" xlink:href="#linearGradient3117-8"/><linearGradient id="linearGradient3094" x1="24" x2="24" y1="2.011" y2="44.532" gradientTransform="matrix(0.48890916,0,0,0.48839827,24.266182,24.742322)" gradientUnits="userSpaceOnUse" xlink:href="#linearGradient4171"/><linearGradient id="linearGradient4171"><stop id="stop4173" offset="0" stop-color="#ffe16b" stop-opacity="1"/><stop id="stop4175" offset="1" stop-color="#f9c440" stop-opacity="1"/></linearGradient><radialGradient id="radialGradient2415" cx="62.625" cy="4.625" r="10.625" fx="62.625" fy="4.625" gradientTransform="matrix(1.1294118,0,0,0.12941156,-34.729414,46.026471)" gradientUnits="userSpaceOnUse" xlink:href="#linearGradient8838"/></defs><rect id="rect3268-4" width="25" height="39" x="-36.5" y="5.5" fill="url(#linearGradient3975)" fill-opacity="1" stroke="none" stroke-width="1" color="#000" display="block" enable-background="accumulate" opacity=".1" overflow="visible" rx="13.5" ry="1.5" transform="scale(-1,1)" visibility="visible" style="marker:none"/><path id="path3818-0-5" fill="url(#radialGradient5362)" fill-opacity="1" stroke="none" d="M 40,42.5 A 16,4.5 0 0 1 7.9999998,42.5 16,4.5 0 1 1 40,42.5 z"/><rect id="rect3268-0-1" width="25" height="5" x="11.5" y="39.5" fill="url(#linearGradient3457-7-6-1)" fill-opacity="1" fill-rule="nonzero" stroke="none" stroke-width="1" color="#000" display="inline" enable-background="accumulate" overflow="visible" rx="13.5" ry="1.5" visibility="visible" style="marker:none"/><path d="M 24,5.5 C 17.075,5.5 11.5,6.169 11.5,7 l 0,2 c 0,-0.831 5.575,-1.5 12.5,-1.5 6.925,0 12.5,0.669 12.5,1.5 l 0,-2 C 36.5,6.169 30.925,5.5 24,5.5 z" style="marker:none" id="rect3268-6-4" fill="url(#linearGradient5066-8)" fill-opacity="1" fill-rule="nonzero" stroke="none" stroke-width="1" color="#000" display="inline" enable-background="accumulate" overflow="visible" visibility="visible"/><path id="rect3268-6" fill="none" stroke="#000" stroke-dasharray="none" stroke-dashoffset="0" stroke-linecap="butt" stroke-linejoin="miter" stroke-miterlimit="7" stroke-opacity="1" stroke-width="1" d="M 11.5,9 C 11.5,8.169 17.075,7.5 24,7.5 30.925,7.5 36.5,8.169 36.5,9" color="#000" display="block" enable-background="accumulate" opacity=".3" overflow="visible" visibility="visible" style="marker:none"/><path d="m 27.5,5.5625 0,-1.21875 C 27.5,3.8749017 25.939,3.5 24,3.5 c -1.939,0 -3.5,0.3749017 -3.5,0.84375 l 0,1.21875" style="marker:none" id="rect3268-3-9" fill="url(#linearGradient3457-7-6)" fill-opacity="1" fill-rule="nonzero" stroke="none" stroke-width="1" color="#000" display="inline" enable-background="accumulate" overflow="visible" visibility="visible"/><path id="rect3268-3" fill="none" stroke="#000" stroke-dasharray="none" stroke-dashoffset="0" stroke-linecap="butt" stroke-linejoin="miter" stroke-miterlimit="7" stroke-opacity="1" stroke-width="1" d="m 27.5,5.5625 0,-1.21875 C 27.5,3.8749017 25.939,3.5 24,3.5 c -1.939,0 -3.5,0.3749017 -3.5,0.84375 l 0,1.21875" color="#000" display="block" enable-background="accumulate" opacity=".3" overflow="visible" visibility="visible" style="marker:none"/><path id="path4752" fill="none" stroke="url(#linearGradient4760)" stroke-dasharray="none" stroke-dashoffset="0" stroke-linecap="butt" stroke-linejoin="miter" stroke-miterlimit="7" stroke-opacity="1" stroke-width="1.043" d="m 24,6.5 c -3.709888,0 -7.052717,0.1725241 -9.4375,0.4375 -1.192392,0.132488 -2.155165,0.2807189 -2.75,0.4375 C 11.64892,7.418115 11.599316,7.431865 11.5,7.46875 l 0,35.0625 c 0.09932,0.03688 0.14892,0.05063 0.3125,0.09375 0.594835,0.156781 1.557608,0.305012 2.75,0.4375 C 16.947283,43.327476 20.290112,43.5 24,43.5 c 3.709888,0 7.052717,-0.172524 9.4375,-0.4375 1.192392,-0.132488 2.155165,-0.280719 2.75,-0.4375 0.16358,-0.04312 0.213184,-0.05687 0.3125,-0.09375 l 0,-35.0625 C 36.400684,7.4318648 36.35108,7.4181148 36.1875,7.375 35.592665,7.2182189 34.629892,7.069988 33.4375,6.9375 31.052717,6.6725241 27.709888,6.5 24,6.5 z" color="#000" display="block" enable-background="accumulate" opacity=".8" overflow="visible" transform="matrix(0.92,0,0,1,1.92,0)" visibility="visible" style="marker:none"/><path id="rect3268" fill="none" stroke="#000" stroke-dashoffset="0" stroke-linecap="butt" stroke-linejoin="miter" stroke-miterlimit="7" stroke-opacity="1" stroke-width="1" d="m 24,5.5 c 6.925,0 12.5,0.669 12.5,1.5 l 0,36 c 0,0.831 -5.575,1.5 -12.5,1.5 -6.925,0 -12.5,-0.669 -12.5,-1.5 l 0,-36 C 11.5,6.169 17.075,5.5 24,5.5 z M 36.5,41 c 0,-0.831 -5.575,-1.5 -12.5,-1.5 -6.925,0 -12.5,0.669 -12.5,1.5" color="#000" display="block" enable-background="accumulate" opacity=".3" overflow="visible" visibility="visible" style="marker:none"/><path id="path5194" fill="url(#linearGradient5508)" fill-opacity="1" fill-rule="nonzero" stroke="none" stroke-width="1" d="M 20,5.59375 C 16.787316,5.7149057 15.492733,5.9541603 14,6.3125 l 0,37.375 c 1.492733,0.35834 2.787316,0.597594 6,0.71875 z" display="inline" opacity=".3" overflow="visible" visibility="visible" style="marker:none"/><path id="rect3244" fill="url(#linearGradient5510)" fill-opacity="1" fill-rule="nonzero" stroke="none" stroke-width="1" d="m 31,5.875 0,38.25 c 1.136673,-0.123654 2.304289,-0.27049 3,-0.4375 L 34,6.3125 C 33.304289,6.1454904 32.136673,5.9986542 31,5.875 z" display="inline" opacity=".1" overflow="visible" visibility="visible" style="marker:none"/><path id="path5124" fill="url(#radialGradient5132)" fill-opacity="1" fill-rule="nonzero" stroke="none" stroke-width="1" d="m 20,7.5 a 3.5,1.5 0 1 1 -7,0 3.5,1.5 0 1 1 7,0 z" color="#000" display="inline" enable-background="accumulate" opacity=".2" overflow="visible" transform="matrix(0.90865815,0,0,2.0656555,1.5071413,-8.7383745)" visibility="visible" style="marker:none"/><path id="rect3268-0-7" fill="none" stroke="#fff" stroke-dasharray="none" stroke-dashoffset="0" stroke-linecap="butt" stroke-linejoin="miter" stroke-miterlimit="7" stroke-opacity="1" stroke-width="1" d="M 35.969003,41.564 C 34.420917,40.946725 29.661637,40.499557 24,40.499557 c -5.64267,0 -10.38902,0.444177 -11.953337,1.058245" color="#000" display="block" enable-background="accumulate" opacity=".2" overflow="visible" visibility="visible" style="marker:none"/><path d="M 48,46.625 C 48,47.384391 42.627417,48 36,48 29.372583,48 24,47.384391 24,46.625 c 0,-0.759391 5.372583,-1.375 12,-1.375 6.627417,0 12,0.615609 12,1.375 z" style="marker:none" id="path8836" fill="url(#radialGradient2415)" fill-opacity="1" fill-rule="evenodd" stroke="none" stroke-width="1" display="inline" opacity=".3" overflow="visible" visibility="visible"/><path id="path11155-5" fill="url(#linearGradient3094)" fill-opacity="1" fill-rule="nonzero" stroke="none" d="M 46.843441,44.277765 37.294944,26.277682 c -0.274455,-0.5 -0.771065,-0.77778 -1.324145,-0.77778 -0.553075,0 -1.052235,0.33333 -1.330855,0.833335 l -9.477397,18.000088 c -0.223085,0.444445 -0.225635,1.05556 0.04905,1.500005 0.27468,0.44445 0.716215,0.66667 1.269296,0.66667 l 19.025888,0 c 0.55308,0 1.052005,-0.27778 1.275095,-0.722225 0.278385,-0.444445 0.280705,-1.000005 0.06156,-1.50001 z"/><path id="path11159-4" fill="none" stroke="url(#linearGradient3091)" stroke-dasharray="none" stroke-miterlimit="4" stroke-opacity="1" stroke-width="1" d="M 45.554469,43.506436 37.009293,27.915852 C 36.64536,27.222466 36.514831,26.5 35.961755,26.5 c -0.475681,0 -0.724576,0.823993 -1.068333,1.478495 l -8.450324,15.57762 c -0.490695,0.902951 -0.543267,1.138323 -0.307081,1.535746 0.236181,0.397428 0.539433,0.375782 1.659914,0.401703 l 16.60861,0 c 1.043148,0.01297 1.278124,-0.06692 1.470057,-0.464346 0.2395,-0.397427 0.137629,-0.712731 -0.320129,-1.522782 z" opacity=".6"/><path clip-rule="nonzero" style="isolation:auto;mix-blend-mode:normal;solid-color:#000;solid-opacity:1;marker:none" id="path11155-8" fill="none" fill-opacity="1" fill-rule="nonzero" stroke="#ad5f00" stroke-dasharray="none" stroke-dashoffset="0" stroke-linecap="butt" stroke-linejoin="miter" stroke-miterlimit="4" stroke-opacity="1" stroke-width="1" d="M 46.843441,44.277775 37.294944,26.277777 C 37.020489,25.777779 36.523879,25.5 35.970799,25.5 c -0.553075,0 -1.052235,0.333329 -1.330855,0.833332 l -9.477397,18.000003 c -0.223085,0.444443 -0.225635,1.055555 0.04905,1.499998 C 25.486277,46.277781 25.927812,46.5 26.480892,46.5 l 19.025889,0 c 0.55308,0 1.052005,-0.277779 1.275095,-0.722222 0.278385,-0.444443 0.280705,-1 0.06156,-1.500003 z" color="#000" color-interpolation="sRGB" color-interpolation-filters="linearRGB" color-rendering="auto" display="inline" enable-background="accumulate" image-rendering="auto" opacity=".5" overflow="visible" shape-rendering="auto" text-rendering="auto" visibility="visible"/><path id="path4159-3-3" fill="#fff" fill-opacity="1" stroke="none" stroke-dasharray="none" stroke-linejoin="round" stroke-miterlimit="4" stroke-opacity=".498" stroke-width="1" d="m 36,33 c -0.717969,0 -1.3,0.596955 -1.3,1.333333 0,1.333334 0.433332,3.111111 0.866667,6.666667 l 0.866665,0 C 36.866667,37.444444 37.3,35.666667 37.3,34.333333 37.3,33.596955 36.717969,33 36,33 Z m 0,9.333333 c -0.717969,0 -1.3,0.596955 -1.3,1.333334 C 34.7,44.403045 35.282031,45 36,45 c 0.717969,0 1.3,-0.596955 1.3,-1.333333 0,-0.736379 -0.582031,-1.333334 -1.3,-1.333334 z" opacity=".3"/><path id="path4159-3" fill="#7a0000" fill-opacity="1" stroke="none" stroke-dasharray="none" stroke-linejoin="round" stroke-miterlimit="4" stroke-opacity=".498" stroke-width="1" d="m 36,32 c -0.717969,0 -1.3,0.596955 -1.3,1.333333 0,1.333334 0.433332,3.111111 0.866667,6.666667 l 0.866665,0 C 36.866667,36.444444 37.3,34.666667 37.3,33.333333 37.3,32.596955 36.717969,32 36,32 Z m 0,9.333333 c -0.717969,0 -1.3,0.596955 -1.3,1.333334 C 34.7,43.403045 35.282031,44 36,44 c 0.717969,0 1.3,-0.596955 1.3,-1.333333 0,-0.736379 -0.582031,-1.333334 -1.3,-1.333334 z" opacity="1"/></svg>