<svg xmlns="http://www.w3.org/2000/svg" xmlns:svg="http://www.w3.org/2000/svg" xmlns:xlink="http://www.w3.org/1999/xlink" id="svg4031" width="48" height="48" version="1.1"><defs id="defs4033"><linearGradient id="linearGradient4011"><stop id="stop4013" offset="0" stop-color="#fff" stop-opacity="1"/><stop id="stop4015" offset=".508" stop-color="#fff" stop-opacity=".235"/><stop id="stop4017" offset=".835" stop-color="#fff" stop-opacity=".157"/><stop id="stop4019" offset="1" stop-color="#fff" stop-opacity=".392"/></linearGradient><linearGradient id="linearGradient3820-7-2-1"><stop id="stop3822-2-6-3" offset="0" stop-color="#3d3d3d" stop-opacity="1"/><stop id="stop3864-8-7-7" offset=".5" stop-color="#686868" stop-opacity=".498"/><stop id="stop3824-1-2-5" offset="1" stop-color="#686868" stop-opacity="0"/></linearGradient><linearGradient id="linearGradient3019" x1="71.204" x2="71.204" y1="6.238" y2="44.341" gradientTransform="matrix(1.054054,0,0,1.054054,-51.611001,-2.7279009)" gradientUnits="userSpaceOnUse" xlink:href="#linearGradient4011"/><radialGradient id="radialGradient3025" cx="99.157" cy="186.171" r="62.769" fx="99.157" fy="186.171" gradientTransform="matrix(0.27083381,0,0,0.08762273,-2.855072,25.187228)" gradientUnits="userSpaceOnUse" xlink:href="#linearGradient3820-7-2-1"/><linearGradient id="linearGradient11527-6-5" x1="2035.165" x2="2035.165" y1="3208.074" y2="3241.997" gradientTransform="matrix(1.5712555,0,0,1.1746645,-3179.5055,-3763.7759)" gradientUnits="userSpaceOnUse" xlink:href="#linearGradient947"/><linearGradient id="linearGradient947"><stop id="stop943" offset="0" stop-color="#64baff" stop-opacity="1"/><stop id="stop945" offset="1" stop-color="#3689e6" stop-opacity="1"/></linearGradient></defs><metadata id="metadata4036"/><path id="path3818-0-5" fill="url(#radialGradient3025)" fill-opacity="1" stroke="none" d="m 40.999999,41.499999 a 17,5.4999999 0 1 1 -33.999999,0 17,5.4999999 0 1 1 33.999999,0 z"/><path id="path2555-7-8-5-0-9" fill="url(#linearGradient11527-6-5)" fill-opacity="1" fill-rule="nonzero" stroke="none" stroke-width="1" d="m 24.000001,3.499999 c -11.311198,0 -20.5000012,9.188802 -20.5000012,20.499999 0,11.311198 9.1888032,20.500001 20.5000012,20.500001 11.311196,0 20.500018,-9.188803 20.499999,-20.500001 C 44.5,12.688801 35.311197,3.499999 24.000001,3.499999 Z" color="#000" display="inline" enable-background="accumulate" opacity=".99" overflow="visible" visibility="visible" style="marker:none"/><path id="path8655" fill="none" stroke="url(#linearGradient3019)" stroke-dasharray="none" stroke-dashoffset="0" stroke-linecap="round" stroke-linejoin="round" stroke-miterlimit="4" stroke-opacity="1" stroke-width="1" d="m 43.5,23.999308 c 0,10.7699 -8.73109,19.50069 -19.499753,19.50069 -10.769649,0 -19.5002474,-8.730889 -19.5002474,-19.50069 0,-10.769402 8.7305984,-19.4993078 19.5002474,-19.4993078 C 34.76891,4.5000002 43.5,13.229906 43.5,23.999308 l 0,0 z" color="#000" display="inline" enable-background="accumulate" opacity=".5" overflow="visible" visibility="visible" style="marker:none"/><path id="path2555-6" fill="none" fill-opacity="1" fill-rule="nonzero" stroke="#002e99" stroke-dasharray="none" stroke-dashoffset="0" stroke-linecap="round" stroke-linejoin="round" stroke-miterlimit="4" stroke-opacity="1" stroke-width="1" d="m 24.000003,3.499998 c -11.311193,0 -20.5000034,9.188806 -20.5000034,20.5 0,11.311194 9.1888104,20.500005 20.5000034,20.500002 11.311188,0 20.500008,-9.188808 20.499997,-20.500002 0,-11.311194 -9.188809,-20.5 -20.499997,-20.5 z" clip-rule="nonzero" color="#000" color-interpolation="sRGB" color-interpolation-filters="linearRGB" color-rendering="auto" display="inline" enable-background="accumulate" image-rendering="auto" opacity=".5" overflow="visible" shape-rendering="auto" text-rendering="auto" visibility="visible" style="marker:none;isolation:auto;mix-blend-mode:normal;solid-color:#000;solid-opacity:1;filter-blend-mode:normal;filter-gaussianBlur-deviation:0"/><path color-rendering="auto" style="line-height:100%;-inkscape-font-specification:'URW Palladio L Bold';text-align:start;isolation:auto;mix-blend-mode:normal;solid-color:#000;solid-opacity:1;marker:none" id="path3099" fill="#000" fill-opacity="1" fill-rule="nonzero" stroke="none" stroke-dasharray="none" stroke-dashoffset="0" stroke-linecap="butt" stroke-linejoin="miter" stroke-miterlimit="4" stroke-opacity="1" stroke-width="1" d="m 26.8125,10.000115 c -0.02554,-0.0014 -0.03716,0.032 -0.0625,0.03125 -0.01065,1.93e-4 -0.02057,-3.08e-4 -0.03125,0 -1.695719,-0.033129 -2.951568,1.225824 -3.375,2.625 -0.21622,0.714473 -0.241928,1.505337 0,2.25 0.241928,0.744663 0.77758,1.433636 1.59375,1.8125 A 1.0088545,1.0088545 0 0 0 25,16.750115 c 2.612229,1.0713 5.334,-1.44893 4.75,-4.125 l 0.03125,0 c -0.0035,-0.02431 -0.02724,-0.03834 -0.03125,-0.0625 -0.236494,-1.422996 -1.433611,-2.526282 -2.9375,-2.53125 l 0,-0.03125 z m -1,8.53125 C 25.20806,18.481703 24.588091,18.738426 24,19.125115 l -0.03125,-0.0625 c -0.07107,0.03095 -0.117241,0.09305 -0.1875,0.125 -2.440557,1.109678 -4.418667,2.789866 -6.375,4.21875 a 1.0088545,1.0088545 0 0 0 -0.34375,1.15625 c 0.138876,0.377528 0.18181,0.831887 0.78125,1.28125 0.29972,0.224681 0.854729,0.305976 1.25,0.15625 0.263514,-0.09982 0.402194,-0.274052 0.5625,-0.4375 l 0.03125,0.03125 c 0.397726,-0.236637 0.928731,-0.571232 1.40625,-0.84375 -0.781894,3.344239 -1.715864,6.66698 -2.4375,10.09375 l 0.0625,0 c -0.454001,1.291451 -0.19678,2.630284 0.6875,3.4375 0.875545,0.799242 2.314335,0.911883 3.53125,0.1875 l 0,0.03125 c 0.05769,-0.02378 0.09911,-0.06926 0.15625,-0.09375 0.0086,-0.0037 0.02266,0.0037 0.03125,0 2.099497,-0.904742 3.870476,-2.283169 5.5625,-3.46875 a 1.0088545,1.0088545 0 0 0 0.34375,-1.1875 C 28.94516,33.538991 28.914751,33.167364 28.5,32.656365 c -0.207375,-0.255499 -0.753442,-0.594328 -1.25,-0.5 -0.316281,0.06008 -0.446494,0.247208 -0.625,0.40625 -0.611806,0.277691 -1.094894,0.633774 -1.53125,0.90625 0.733747,-3.453043 1.83481,-6.873562 2.65625,-10.46875 0.01499,-0.06562 0.04775,-0.121767 0.0625,-0.1875 0.335007,-0.863398 0.379871,-1.770049 0.09375,-2.5625 -0.307007,-0.8503 -1.061102,-1.633905 -2.09375,-1.71875 z" clip-rule="nonzero" color="#000" color-interpolation="sRGB" color-interpolation-filters="linearRGB" display="inline" enable-background="accumulate" font-family="URW Palladio L" font-size="40" font-stretch="normal" font-style="normal" font-variant="normal" font-weight="bold" image-rendering="auto" opacity=".05" overflow="visible" shape-rendering="auto" text-anchor="start" text-rendering="auto" visibility="visible" writing-mode="lr-tb"/><path id="path3536-7" fill="#000" fill-opacity="1" fill-rule="nonzero" stroke="none" stroke-width="1" d="m 18,24.213358 c 0.258151,0.701773 0.548718,1.270613 1.167657,0.492802 0.767347,-0.456552 3.33844,-2.457757 3.081171,-0.497532 -0.823263,3.627282 -1.825356,7.216418 -2.59157,10.854872 -0.801185,1.992218 1.01815,3.794264 2.917669,2.498714 2.019065,-0.832341 3.756466,-2.188081 5.531417,-3.431768 -0.24218,-0.593933 -0.403597,-1.447113 -1.072765,-0.670385 -0.878653,0.398809 -2.797726,2.279047 -3.154255,0.728272 0.73806,-3.927689 2.105519,-7.709984 2.979622,-11.606358 C 27.663347,20.790432 26.349601,18.526752 24.383074,20.00874 22.027124,21.034833 20.056932,22.710997 18,24.213358 Z m 8.74369,-13.210166 c -2.403766,-0.127564 -3.660538,3.747372 -1.376255,4.807729 1.853222,0.760024 3.871049,-1.140692 3.418314,-3.039945 -0.140499,-0.988957 -1.028394,-1.801049 -2.042058,-1.767784 l -10e-7,0 z" color="#000" display="inline" enable-background="accumulate" font-family="URW Palladio L" font-size="40" font-stretch="normal" font-style="normal" font-variant="normal" font-weight="bold" opacity=".15" overflow="visible" text-anchor="start" visibility="visible" writing-mode="lr-tb" style="line-height:100%;-inkscape-font-specification:'URW Palladio L Bold';text-align:start;marker:none"/><path id="path3536" fill="#fff" fill-opacity="1" stroke="none" d="m 18,23.213358 c 0.258151,0.701773 0.548718,1.270613 1.167657,0.492802 0.767347,-0.456552 3.33844,-2.457757 3.081171,-0.497532 -0.823263,3.627282 -1.825356,7.216418 -2.59157,10.854872 -0.801185,1.992218 1.01815,3.794264 2.917669,2.498714 2.019065,-0.832341 3.756466,-2.188081 5.531417,-3.431768 -0.24218,-0.593933 -0.403597,-1.447113 -1.072765,-0.670385 -0.878653,0.398809 -2.797726,2.279047 -3.154255,0.728272 0.73806,-3.927689 2.105519,-7.709984 2.979622,-11.606358 C 27.663347,19.790432 26.349601,17.526752 24.383074,19.00874 22.027124,20.034833 20.056932,21.710997 18,23.213358 Z m 8.74369,-13.210166 c -2.403766,-0.1275625 -3.660538,3.747372 -1.376255,4.807729 1.853222,0.760024 3.871049,-1.140692 3.418314,-3.039945 -0.140499,-0.988957 -1.028394,-1.8010475 -2.042058,-1.767784 l -10e-7,0 z" font-family="URW Palladio L" font-size="40" font-stretch="normal" font-style="normal" font-variant="normal" font-weight="bold" text-anchor="start" writing-mode="lr-tb" style="line-height:100%;-inkscape-font-specification:'URW Palladio L Bold';text-align:start"/></svg>