<svg xmlns="http://www.w3.org/2000/svg" xmlns:svg="http://www.w3.org/2000/svg" xmlns:xlink="http://www.w3.org/1999/xlink" id="svg3468" width="48" height="48" version="1.1"><defs id="defs3470"><linearGradient id="linearGradient4011"><stop id="stop4013" offset="0" stop-color="#fff" stop-opacity="1"/><stop id="stop4015" offset=".508" stop-color="#fff" stop-opacity=".235"/><stop id="stop4017" offset=".835" stop-color="#fff" stop-opacity=".157"/><stop id="stop4019" offset="1" stop-color="#fff" stop-opacity=".392"/></linearGradient><linearGradient id="linearGradient3820-7-2-2"><stop id="stop3822-2-6-36" offset="0" stop-color="#3d3d3d" stop-opacity="1"/><stop id="stop3864-8-7-6" offset=".5" stop-color="#686868" stop-opacity=".498"/><stop id="stop3824-1-2-4" offset="1" stop-color="#686868" stop-opacity="0"/></linearGradient><linearGradient id="linearGradient947"><stop id="stop943" offset="0" stop-color="#ed5353" stop-opacity="1"/><stop id="stop945" offset="1" stop-color="#c6262e" stop-opacity="1"/></linearGradient><radialGradient id="radialGradient3025" cx="99.157" cy="186.171" r="62.769" fx="99.157" fy="186.171" gradientTransform="matrix(0.27083381,0,0,0.08762273,-2.855072,25.187228)" gradientUnits="userSpaceOnUse" xlink:href="#linearGradient3820-7-2-2"/><linearGradient id="linearGradient11527-6-5-3" x1="2035.165" x2="2035.165" y1="3208.074" y2="3241.997" gradientTransform="matrix(1.5712555,0,0,1.1746645,-3179.5055,-3763.7759)" gradientUnits="userSpaceOnUse" xlink:href="#linearGradient947"/><linearGradient id="linearGradient3019" x1="71.204" x2="71.204" y1="6.238" y2="44.341" gradientTransform="matrix(1.054054,0,0,1.054054,-51.611001,-2.727901)" gradientUnits="userSpaceOnUse" xlink:href="#linearGradient4011"/></defs><metadata id="metadata3473"/><path id="path3818-0-5" fill="url(#radialGradient3025)" fill-opacity="1" stroke="none" d="m 40.999999,41.499999 a 17,5.4999999 0 1 1 -33.999999,0 17,5.4999999 0 1 1 33.999999,0 z"/><path id="path2555-7-8-5-0-9" fill="url(#linearGradient11527-6-5-3)" fill-opacity="1" fill-rule="nonzero" stroke="none" stroke-width="1" d="m 24,3.4999989 c -11.311197,0 -20.5000003,9.1888021 -20.5000003,20.5000001 0,11.311197 9.1888033,20.5 20.5000003,20.5 11.311197,0 20.500019,-9.188803 20.5,-20.5 C 44.5,12.688801 35.311197,3.4999989 24,3.4999989 Z" color="#000" display="inline" enable-background="accumulate" opacity=".99" overflow="visible" visibility="visible" style="marker:none"/><path id="path8655" fill="none" stroke="url(#linearGradient3019)" stroke-dasharray="none" stroke-dashoffset="0" stroke-linecap="round" stroke-linejoin="round" stroke-miterlimit="4" stroke-opacity="1" stroke-width="1" d="m 43.5,23.999308 c 0,10.7699 -8.73109,19.50069 -19.499753,19.50069 -10.769649,0 -19.5002474,-8.730889 -19.5002474,-19.50069 0,-10.769402 8.7305984,-19.4993079 19.5002474,-19.4993079 C 34.76891,4.5000001 43.5,13.229906 43.5,23.999308 l 0,0 z" color="#000" display="inline" enable-background="accumulate" opacity=".4" overflow="visible" visibility="visible" style="marker:none"/><path id="path2555-6" fill="none" fill-opacity="1" fill-rule="nonzero" stroke="#7a0000" stroke-dasharray="none" stroke-dashoffset="0" stroke-linecap="round" stroke-linejoin="round" stroke-miterlimit="4" stroke-opacity="1" stroke-width="1" d="M 24.000003,3.4999979 C 12.68881,3.4999979 3.4999996,12.688804 3.4999996,23.999998 3.4999996,35.311192 12.68881,44.500003 24.000003,44.5 35.311191,44.5 44.500011,35.311192 44.5,23.999998 44.5,12.688804 35.311191,3.4999979 24.000003,3.4999979 Z" clip-rule="nonzero" color="#000" color-interpolation="sRGB" color-interpolation-filters="linearRGB" color-rendering="auto" display="inline" enable-background="accumulate" image-rendering="auto" opacity=".5" overflow="visible" shape-rendering="auto" text-rendering="auto" visibility="visible" style="isolation:auto;mix-blend-mode:normal;solid-color:#000;solid-opacity:1;marker:none"/><path id="path4159-7-3" fill="#7a0000" fill-opacity="1" stroke="none" stroke-dasharray="none" stroke-dashoffset="0" stroke-linecap="butt" stroke-linejoin="miter" stroke-miterlimit="4" stroke-opacity="1" stroke-width=".837" d="m 24,10.855455 c -2.197926,0 -4,1.802074 -4,4 0,3.238442 1.017769,7.210006 2.019665,15.225174 a 0.98016537,0.98016537 0 0 0 0.973452,0.857424 l 2.013766,0 a 0.98016537,0.98016537 0 0 0 0.973452,-0.857424 C 26.982231,22.065461 28,18.093897 28,14.855455 c 0,-2.197926 -1.802074,-4 -4,-4 z M 24,32 c -2.197926,0 -4,1.802074 -4,4 0,2.197926 1.802074,4 4,4 2.197926,0 4,-1.802074 4,-4 0,-2.197926 -1.802074,-4 -4,-4 z" opacity=".05" style="marker:none"/><path id="path4159-7" fill="#7a0000" fill-opacity="1" stroke="none" stroke-dasharray="none" stroke-dashoffset="0" stroke-linecap="butt" stroke-linejoin="miter" stroke-miterlimit="4" stroke-opacity="1" stroke-width=".843" d="m 24,12 c -1.656854,0 -3,1.343147 -3,3 0,3 1,7 2,15 l 2,0 c 1,-8 2,-12 2,-14.999999 0,-1.656854 -1.343146,-3 -3,-3 z m 0,21 c -1.656854,0 -3,1.343146 -3,3 0,1.656854 1.343146,3 3,3 1.656854,0 3,-1.343146 3,-3 0,-1.656854 -1.343146,-3 -3,-3 z" opacity=".15" style="marker:none"/><path id="path4159" fill="#fff" fill-opacity="1" stroke="none" stroke-dasharray="none" stroke-dashoffset="0" stroke-linecap="butt" stroke-linejoin="round" stroke-miterlimit="4" stroke-opacity=".498" stroke-width="1" d="m 24,11 c -1.656854,0 -3,1.343147 -3,3 0,3 1,7 2,15 l 2,0 C 26,21 27,17 27,14.000001 27,12.343147 25.656854,11 24,11 Z m 0,21 c -1.656854,0 -3,1.343146 -3,3 0,1.656854 1.343146,3 3,3 1.656854,0 3,-1.343146 3,-3 0,-1.656854 -1.343146,-3 -3,-3 z" opacity="1"/></svg>