<svg xmlns="http://www.w3.org/2000/svg" xmlns:svg="http://www.w3.org/2000/svg" xmlns:xlink="http://www.w3.org/1999/xlink" id="svg3964" width="48" height="48" version="1.1"><defs id="defs3966"><linearGradient id="linearGradient3130" x1="29.127" x2="29.291" y1="19.788" y2="57.567" gradientTransform="matrix(1.0368452,0,-0.00451336,1.0845986,-6.11049,-18.449436)" gradientUnits="userSpaceOnUse" xlink:href="#linearGradient3117-8"/><linearGradient id="linearGradient3117-8"><stop id="stop3119-9" offset="0" stop-color="#fff" stop-opacity="1"/><stop id="stop3121-9" offset=".569" stop-color="#fff" stop-opacity=".235"/><stop id="stop3123-6" offset=".933" stop-color="#fff" stop-opacity=".157"/><stop id="stop3125-3" offset="1" stop-color="#fff" stop-opacity=".392"/></linearGradient><linearGradient id="linearGradient3133" x1="24" x2="24" y1="1.638" y2="44.988" gradientTransform="matrix(0.97781815,0,0,0.97679637,0.53247,0.9846339)" gradientUnits="userSpaceOnUse" xlink:href="#linearGradient4171"/><radialGradient id="radialGradient3136" cx="605.714" cy="486.648" r="117.143" fx="605.714" fy="486.648" gradientTransform="matrix(0.02409728,0,0,0.01544124,28.97772,36.588514)" gradientUnits="userSpaceOnUse" xlink:href="#linearGradient5060-6"/><linearGradient id="linearGradient5060-6"><stop id="stop5062-0" offset="0" stop-color="#000" stop-opacity="1"/><stop id="stop5064-0" offset="1" stop-color="#000" stop-opacity="0"/></linearGradient><radialGradient id="radialGradient3139" cx="605.714" cy="486.648" r="117.143" fx="605.714" fy="486.648" gradientTransform="matrix(-0.02409728,0,0,0.01544124,19.0225,36.588514)" gradientUnits="userSpaceOnUse" xlink:href="#linearGradient5060-6"/><linearGradient id="linearGradient5048-2"><stop id="stop5050-6" offset="0" stop-color="#000" stop-opacity="0"/><stop id="stop5056-4" offset=".5" stop-color="#000" stop-opacity="1"/><stop id="stop5052-5" offset="1" stop-color="#000" stop-opacity="0"/></linearGradient><linearGradient id="linearGradient3962" x1="302.857" x2="302.857" y1="366.648" y2="609.505" gradientTransform="matrix(0.0807696,0,0,0.01544124,-5.19233,36.588514)" gradientUnits="userSpaceOnUse" xlink:href="#linearGradient5048-2"/><linearGradient id="linearGradient4171"><stop id="stop4173" offset="0" stop-color="#ffe16b" stop-opacity="1"/><stop id="stop4175" offset="1" stop-color="#f9c440" stop-opacity="1"/></linearGradient></defs><metadata id="metadata3969"/><rect id="rect2879-1" width="39" height="3.75" x="4.5" y="42.25" fill="url(#linearGradient3962)" fill-opacity="1" fill-rule="nonzero" stroke="none" stroke-width="1" display="inline" opacity=".3" overflow="visible" visibility="visible" style="marker:none"/><path d="m 4.50002,42.250134 c 0,0 0,3.7498 0,3.7498 -1.24095,0.007 -3.00001,-0.84016 -3.00001,-1.87516 0,-1.03501 1.3848,-1.87464 3.00001,-1.87464 z" style="marker:none" id="path2881-5" fill="url(#radialGradient3139)" fill-opacity="1" fill-rule="nonzero" stroke="none" stroke-width="1" display="inline" opacity=".3" overflow="visible" visibility="visible"/><path d="m 43.5002,42.250134 c 0,0 0,3.7498 0,3.7498 1.24094,0.007 3.00001,-0.84016 3.00001,-1.87516 0,-1.03501 -1.38481,-1.87464 -3.00001,-1.87464 z" style="marker:none" id="path2883-9" fill="url(#radialGradient3136)" fill-opacity="1" fill-rule="nonzero" stroke="none" stroke-width="1" display="inline" opacity=".3" overflow="visible" visibility="visible"/><path id="path11155-5" fill="url(#linearGradient3133)" fill-opacity="1" fill-rule="nonzero" stroke="none" d="M 45.68698,40.055514 26.58999,4.0553539 c -0.54891,-1 -1.54213,-1.55556 -2.64829,-1.55556 -1.10615,0 -2.10447,0.66666 -2.66171,1.66667 L 2.3252,40.166634 c -0.44617,0.88889 -0.45127,2.11112 0.0981,3.00001 0.54936,0.8889 1.43243,1.33334 2.53859,1.33334 l 38.05177,0 c 1.10616,0 2.10401,-0.55556 2.55019,-1.44445 0.55677,-0.88889 0.56141,-2.00001 0.12312,-3.00002 z"/><path id="path11159-4" fill="none" stroke="url(#linearGradient3130)" stroke-dasharray="none" stroke-miterlimit="4" stroke-opacity="1" stroke-width="1" d="M 44.0645,39.313844 26.11963,5.4280939 c -0.76426,-1.45976 -1.03837,-1.92811 -2.19983,-1.92811 -0.99893,0 -1.52161,0.68209 -2.2435,2.05999 L 3.93062,39.418434 c -1.03046,1.90095 -1.14086,2.39647 -0.64487,3.23315 0.49598,0.83669 1.13281,0.79112 3.48582,0.84569 l 34.87808,0 c 2.19061,0.0273 2.68406,-0.14089 3.08712,-0.97757 0.50295,-0.83669 0.28902,-1.50049 -0.67227,-3.20586 z" opacity=".6"/><path clip-rule="nonzero" style="isolation:auto;mix-blend-mode:normal;solid-color:#000;solid-opacity:1;marker:none;filter-blend-mode:normal;filter-gaussianBlur-deviation:0" id="path11155-8" fill="none" fill-opacity="1" fill-rule="nonzero" stroke="#ad5f00" stroke-dasharray="none" stroke-dashoffset="0" stroke-linecap="butt" stroke-linejoin="miter" stroke-miterlimit="4" stroke-opacity="1" stroke-width="1" d="M 45.68698,40.055514 26.58999,4.0553539 c -0.54891,-1 -1.54213,-1.55556 -2.64829,-1.55556 -1.10615,0 -2.10447,0.66666 -2.66171,1.66667 L 2.3252,40.166634 c -0.44617,0.88889 -0.45127,2.11112 0.0981,3.00001 0.54936,0.8889 1.43243,1.33334 2.53859,1.33334 l 38.05177,0 c 1.10616,0 2.10401,-0.55556 2.55019,-1.44445 0.55677,-0.88889 0.56141,-2.00001 0.12312,-3.00002 z" color="#000" color-interpolation="sRGB" color-interpolation-filters="linearRGB" color-rendering="auto" display="inline" enable-background="accumulate" image-rendering="auto" opacity=".5" overflow="visible" shape-rendering="auto" text-rendering="auto" visibility="visible"/><path id="path4192" fill="#fff" fill-opacity="1" stroke="none" stroke-dasharray="none" stroke-linejoin="round" stroke-miterlimit="4" stroke-opacity=".498" stroke-width="1" d="m 24,14 c -1.656854,0 -3,1.343146 -3,3 0,3 1,7 2,15 l 2,0 c 1,-8 2,-12 2,-15 0,-1.656854 -1.343146,-3 -3,-3 z m 0,21 c -1.656854,0 -3,1.343146 -3,3 0,1.656854 1.343146,3 3,3 1.656854,0 3,-1.343146 3,-3 0,-1.656854 -1.343146,-3 -3,-3 z" opacity=".3"/><path id="path4159" fill="#7a0000" fill-opacity="1" fill-rule="nonzero" stroke="none" stroke-dasharray="none" stroke-dashoffset="0" stroke-linecap="butt" stroke-linejoin="round" stroke-miterlimit="4" stroke-opacity=".498" stroke-width="1" d="m 24,13 c -1.656854,0 -3,1.343146 -3,3 0,3 1,7 2,15 l 2,0 c 1,-8 2,-12 2,-15 0,-1.656854 -1.343146,-3 -3,-3 z m 0,21 c -1.656854,0 -3,1.343146 -3,3 0,1.656854 1.343146,3 3,3 1.656854,0 3,-1.343146 3,-3 0,-1.656854 -1.343146,-3 -3,-3 z" clip-rule="nonzero" color="#000" color-interpolation="sRGB" color-interpolation-filters="linearRGB" color-rendering="auto" display="inline" enable-background="accumulate" image-rendering="auto" opacity="1" overflow="visible" shape-rendering="auto" text-rendering="auto" visibility="visible" style="isolation:auto;mix-blend-mode:normal;solid-color:#000;solid-opacity:1;filter-blend-mode:normal;filter-gaussianBlur-deviation:0"/></svg>