<svg xmlns="http://www.w3.org/2000/svg" xmlns:svg="http://www.w3.org/2000/svg" xmlns:xlink="http://www.w3.org/1999/xlink" id="svg4493" width="48" height="48" version="1.1"><defs id="defs4495"><linearGradient id="linearGradient4011"><stop id="stop4013" offset="0" stop-color="#fff" stop-opacity="1"/><stop id="stop4015" offset=".508" stop-color="#fff" stop-opacity=".235"/><stop id="stop4017" offset=".835" stop-color="#fff" stop-opacity=".157"/><stop id="stop4019" offset="1" stop-color="#fff" stop-opacity=".392"/></linearGradient><linearGradient id="linearGradient3820-7-2-1"><stop id="stop3822-2-6-3" offset="0" stop-color="#3d3d3d" stop-opacity="1"/><stop id="stop3864-8-7-7" offset=".5" stop-color="#686868" stop-opacity=".498"/><stop id="stop3824-1-2-5" offset="1" stop-color="#686868" stop-opacity="0"/></linearGradient><linearGradient id="linearGradient3881"><stop id="stop3883" offset="0" stop-color="#2d2d2d" stop-opacity="1"/><stop id="stop3885" offset="1" stop-color="#3f3f3f" stop-opacity="1"/></linearGradient><clipPath id="clipPath3865" clipPathUnits="userSpaceOnUse"><path id="path3867" fill="#000" fill-opacity="1" stroke="none" d="m 32,24 a 8,8 0 1 1 -16,0 8,8 0 1 1 16,0 z" opacity=".2"/></clipPath><linearGradient id="outerBackgroundGradient-0"><stop id="stop3864-8-6-3" offset="0" stop-color="#c3c3c3" stop-opacity="1"/><stop id="stop3866-9-1-7" offset="1" stop-color="#ebebeb" stop-opacity="1"/></linearGradient><linearGradient id="linearGradient3907"><stop id="stop3909" offset="0" stop-color="#fff" stop-opacity="1"/><stop id="stop3911" offset="1" stop-color="#b6b6b6" stop-opacity="1"/></linearGradient><linearGradient id="linearGradient3111" x1="71.204" x2="71.204" y1="6.238" y2="44.341" gradientTransform="matrix(1.054054,0,0,1.054054,-51.611001,-2.7279009)" gradientUnits="userSpaceOnUse" xlink:href="#linearGradient4011"/><radialGradient id="radialGradient3117" cx="99.157" cy="186.171" r="62.769" fx="99.157" fy="186.171" gradientTransform="matrix(0.27083381,0,0,0.08762273,-2.855072,25.187228)" gradientUnits="userSpaceOnUse" xlink:href="#linearGradient3820-7-2-1"/><linearGradient id="linearGradient3916" x1="24" x2="24" y1="14" y2="33" gradientTransform="matrix(0.99999963,0,0,1.0909091,8.89e-6,-2.1818185)" gradientUnits="userSpaceOnUse" xlink:href="#linearGradient3881"/><linearGradient id="linearGradient3926" x1="9" x2="37" y1="23" y2="23" gradientTransform="matrix(0,1.0714284,-1.0714284,0,48.642855,-0.64285625)" gradientUnits="userSpaceOnUse" xlink:href="#outerBackgroundGradient-0"/><linearGradient id="linearGradient3932" x1="9" x2="37" y1="23" y2="23" gradientTransform="matrix(0,1.4696132,-1.4696132,0,57.801105,-9.8011059)" gradientUnits="userSpaceOnUse" xlink:href="#linearGradient3907"/><linearGradient id="linearGradient4011-6"><stop id="stop4013-5" offset="0" stop-color="#fff" stop-opacity="1"/><stop id="stop4015-4" offset=".508" stop-color="#fff" stop-opacity=".235"/><stop id="stop4017-7" offset=".835" stop-color="#fff" stop-opacity=".157"/><stop id="stop4019-0" offset="1" stop-color="#fff" stop-opacity=".392"/></linearGradient><linearGradient id="linearGradient3953" x1="71.204" x2="71.204" y1="6.238" y2="44.341" gradientTransform="matrix(0.83783779,0,0,-0.83783779,-36.101051,45.245252)" gradientUnits="userSpaceOnUse" xlink:href="#linearGradient4011-6"/><linearGradient id="linearGradient4011-6-9"><stop id="stop4013-5-4" offset="0" stop-color="#fff" stop-opacity="1"/><stop id="stop4015-4-8" offset=".508" stop-color="#fff" stop-opacity=".235"/><stop id="stop4017-7-8" offset=".835" stop-color="#fff" stop-opacity=".157"/><stop id="stop4019-0-4" offset="1" stop-color="#fff" stop-opacity=".392"/></linearGradient><linearGradient id="linearGradient3993" x1="71.204" x2="71.204" y1="6.238" y2="44.341" gradientTransform="matrix(0.51351345,0,0,-0.51351345,-12.836126,37.021283)" gradientUnits="userSpaceOnUse" xlink:href="#linearGradient4011-6-9"/></defs><metadata id="metadata4498"/><path id="path3818-0-5" fill="url(#radialGradient3117)" fill-opacity="1" stroke="none" d="m 40.999999,41.499999 a 17,5.4999999 0 1 1 -33.999999,0 17,5.4999999 0 1 1 33.999999,0 z"/><path id="path3902" fill="url(#linearGradient3932)" fill-opacity="1" fill-rule="nonzero" stroke="none" d="m 24.000725,3.4254142 c -11.363387,0 -20.575311,9.2122348 -20.575311,20.5743258 0,11.363132 9.212022,20.574844 20.575311,20.574844 11.362877,0 20.573861,-9.211712 20.573861,-20.574844 0,-11.362091 -9.210984,-20.5743258 -20.573861,-20.5743258 l 0,0 z"/><path id="path3824" fill="url(#linearGradient3926)" fill-opacity="1" fill-rule="nonzero" stroke="none" d="m 24.000535,9.0000007 c -8.284542,0 -15.0005352,6.7162233 -15.0005352,14.9998103 0,8.284345 6.7160672,15.000187 15.0005352,15.000187 C 32.284689,38.999998 39,32.284156 39,23.999811 39,15.716224 32.284689,9.0000007 24.000535,9.0000007 l 0,0 z"/><path id="path3857" fill="#000" fill-opacity="1" stroke="none" d="m 32,24 a 8,8 0 1 1 -16,0 8,8 0 1 1 16,0 z" opacity=".1" transform="matrix(1.125,0,0,1.125,-3.0000002,-3.000001)"/><path id="path3859" fill="none" stroke="#000" stroke-dasharray="none" stroke-miterlimit="4" stroke-opacity="1" stroke-width="1.778" d="m 32,24 a 8,8 0 1 1 -16,0 8,8 0 1 1 16,0 z" clip-path="url(#clipPath3865)" opacity=".1" transform="matrix(1.1249893,0,0,1.1249893,-2.9997434,-2.9997442)"/><path id="path8655" fill="none" stroke="url(#linearGradient3111)" stroke-dasharray="none" stroke-dashoffset="0" stroke-linecap="round" stroke-linejoin="round" stroke-miterlimit="4" stroke-opacity="1" stroke-width="1" d="m 43.5,23.999308 c 0,10.7699 -8.73109,19.50069 -19.499753,19.50069 -10.769649,0 -19.5002474,-8.730889 -19.5002474,-19.50069 0,-10.769402 8.7305984,-19.4993078 19.5002474,-19.4993078 C 34.76891,4.5000002 43.5,13.229906 43.5,23.999308 l 0,0 z" color="#000" display="inline" enable-background="accumulate" opacity="1" overflow="visible" visibility="visible" style="marker:none"/><path id="path2555-6" fill="none" stroke="#000" stroke-dasharray="none" stroke-dashoffset="0" stroke-linecap="round" stroke-linejoin="round" stroke-miterlimit="4" stroke-opacity="1" stroke-width="1" d="m 24.000003,3.499998 c -11.311193,0 -20.5000034,9.188806 -20.5000034,20.5 0,11.311194 9.1888104,20.500005 20.5000034,20.500002 11.311188,0 20.500008,-9.188808 20.499997,-20.500002 0,-11.311194 -9.188809,-20.5 -20.499997,-20.5 z" color="#000" display="inline" enable-background="accumulate" opacity=".3" overflow="visible" visibility="visible" style="marker:none"/><path id="path8655-1" fill="none" stroke="url(#linearGradient3953)" stroke-dasharray="none" stroke-dashoffset="0" stroke-linecap="round" stroke-linejoin="round" stroke-miterlimit="4" stroke-opacity="1" stroke-width="1" d="m 39.5,24.000548 c 0,-8.560689 -6.940097,-15.5005479 -15.499803,-15.5005479 -8.560491,0 -15.5001972,6.9399369 -15.5001972,15.5005479 0,8.560294 6.9397062,15.49945 15.5001972,15.49945 8.559706,0 15.499803,-6.939156 15.499803,-15.49945 l 0,0 z" color="#000" display="inline" enable-background="accumulate" overflow="visible" visibility="visible" style="marker:none"/><path id="path8655-1-6" fill="none" stroke="url(#linearGradient3993)" stroke-dasharray="none" stroke-dashoffset="0" stroke-linecap="round" stroke-linejoin="round" stroke-miterlimit="4" stroke-opacity="1" stroke-width="1" d="M 33.499999,24.000336 C 33.499999,18.753463 29.246392,14.5 24.000121,14.5 18.753369,14.5 14.5,18.75351 14.5,24.000336 c 0,5.246631 4.253369,9.499662 9.500121,9.499662 5.246271,0 9.499878,-4.253031 9.499878,-9.499662 l 0,0 z" color="#000" display="inline" enable-background="accumulate" opacity=".5" overflow="visible" visibility="visible" style="marker:none"/><path id="rect3030-5" fill="#fff" fill-opacity="1" stroke="none" d="m 21,13 6,0 0,13.000001 -2.000001,2 2.000001,2 L 27,37 l -6,0 0,-12.999999 1.999999,-2 -1.999999,-2 z" opacity=".5"/><path id="rect3030" fill="url(#linearGradient3916)" fill-opacity="1" stroke="none" d="m 21,11.999999 6,0 L 27,25 24.999999,27 27,29 l 0,6.999999 -6,0 L 21,23 22.999999,21 21,19 z"/><path id="rect3030-2" fill="none" stroke="#000" stroke-opacity="1" d="m 21.5,12.5 5,0 0,12.27541 L 24.237978,27 26.5,29.212112 26.5,35.5 l -5,0 0,-12.27541 L 23.774498,21 21.5,18.787888 z" opacity=".3"/></svg>