<svg xmlns="http://www.w3.org/2000/svg" xmlns:svg="http://www.w3.org/2000/svg" id="svg6396" width="48" height="48" version="1.0"><metadata id="metadata8"/><path id="path2387" fill="none" stroke="#fff" stroke-dasharray="none" stroke-linecap="butt" stroke-linejoin="miter" stroke-miterlimit="4" stroke-opacity="1" stroke-width="2" d="m 41,46 c 4,0 4,0 4,-4 M 45,8 C 45,4 45,4.0000002 41,4.0000002 M 3,42 c 0,4 0,4 4,4 M 7,4 C 2.9999998,4 3,4 3,8" opacity=".3"/><path id="path2385" fill="#fff" fill-opacity="1" fill-rule="evenodd" stroke="none" d="m 24.65625,18.5 -1,0 -0.999999,7 4.999999,4 1e-6,-1 -3,-4 -1e-6,-6 z M 24,14 c -6.072,0 -11,4.928 -11,11 0,6.072 4.928,11 11,11 6.072,0 11,-4.928 11,-11 0,-6.072 -4.928,-11 -11,-11 z m 0,2 c 4.968,0 9,4.032 9,9 0,4.968 -4.032,9 -9,9 -4.968,0 -9,-4.032 -9,-9 0,-4.968 4.032,-9 9,-9 z m 20,12 2,0 0,8 -2,0 0,-8 z m 0,-14 2,0 0,8 -2,0 0,-8 z m -23,31 0,2 -8,0 0,-2 8,0 z m 14,0 0,2 -8,0 0,-2 8,0 z M 4.0000005,22 l -2,0 0,-8 2,0 0,8 z m 0,14 -2,0 0,-8 2,0 0,8 z M 27,5.0000005 l 0,-2 8,0 0,2 -8,0 z m -14,0 0,-2 8,0 0,2 -8,0 z" opacity=".3"/><path id="path3318" fill="#000" fill-opacity="1" fill-rule="evenodd" stroke="none" d="m 24.65625,17.5 -1,0 -0.999999,7 4.999999,4 1e-6,-1 -3,-4 -1e-6,-6 z M 24,13 c -6.072,0 -11,4.928 -11,11 0,6.072 4.928,11 11,11 6.072,0 11,-4.928 11,-11 0,-6.072 -4.928,-11 -11,-11 z m 0,2 c 4.968,0 9,4.032 9,9 0,4.968 -4.032,9 -9,9 -4.968,0 -9,-4.032 -9,-9 0,-4.968 4.032,-9 9,-9 z m 20,12 2,0 0,8 -2,0 0,-8 z m 0,-14 2,0 0,8 -2,0 0,-8 z m -23,31 0,2 -8,0 0,-2 8,0 z m 14,0 0,2 -8,0 0,-2 8,0 z M 4.0000005,21 l -2,0 0,-8 2,0 0,8 z m 0,14 -2,0 0,-8 2,0 0,8 z M 27,4.0000005 l 0,-2 8,0 0,2 -8,0 z m -14,0 0,-2 8,0 0,2 -8,0 z" opacity=".5"/><path id="path6300" fill="none" stroke="#000" stroke-dasharray="none" stroke-linecap="butt" stroke-linejoin="miter" stroke-miterlimit="4" stroke-opacity="1" stroke-width="2" d="m 41,45 c 4,0 4,0 4,-4 M 45,7 C 45,3 45,3.0000002 41,3.0000002 M 3,41 c 0,4 0,4 4,4 M 7,3 C 2.9999998,3 3,3 3,7" opacity=".5"/></svg>