<svg xmlns="http://www.w3.org/2000/svg" xmlns:svg="http://www.w3.org/2000/svg" xmlns:xlink="http://www.w3.org/1999/xlink" id="svg2453" width="48" height="48" version="1.0"><metadata id="metadata35"/><defs id="defs2455"><radialGradient id="radialGradient19613" cx="605.714" cy="486.648" r="117.143" fx="605.714" fy="486.648" gradientTransform="matrix(0.02891661,0,0,0.01235294,26.973101,38.470848)" gradientUnits="userSpaceOnUse" xlink:href="#linearGradient5060"/><linearGradient id="linearGradient5060"><stop id="stop5062" offset="0" stop-color="#000" stop-opacity="1"/><stop id="stop5064" offset="1" stop-color="#000" stop-opacity="0"/></linearGradient><radialGradient id="radialGradient19616" cx="605.714" cy="486.648" r="117.143" fx="605.714" fy="486.648" gradientTransform="matrix(-0.0289166,0,0,0.01235294,21.026894,38.470848)" gradientUnits="userSpaceOnUse" xlink:href="#linearGradient5060"/><linearGradient id="linearGradient5048"><stop id="stop5050" offset="0" stop-color="#000" stop-opacity="0"/><stop id="stop5056" offset=".5" stop-color="#000" stop-opacity="1"/><stop id="stop5052" offset="1" stop-color="#000" stop-opacity="0"/></linearGradient><linearGradient id="linearGradient19619" x1="302.857" x2="302.857" y1="366.648" y2="609.505" gradientTransform="matrix(0.08449704,0,0,0.01235294,-6.5396456,38.470822)" gradientUnits="userSpaceOnUse" xlink:href="#linearGradient5048"/><linearGradient id="linearGradient3600"><stop id="stop3602" offset="0" stop-color="#f4f4f4" stop-opacity="1"/><stop id="stop3604" offset="1" stop-color="#dbdbdb" stop-opacity="1"/></linearGradient><linearGradient id="linearGradient3977"><stop id="stop3979" offset="0" stop-color="#fff" stop-opacity="1"/><stop id="stop3981" offset=".036" stop-color="#fff" stop-opacity=".235"/><stop id="stop3983" offset=".951" stop-color="#fff" stop-opacity=".157"/><stop id="stop3985" offset="1" stop-color="#fff" stop-opacity=".392"/></linearGradient><linearGradient id="linearGradient3138" x1="24" x2="24" y1="5.564" y2="43" gradientTransform="matrix(1.1621622,0,0,0.91891889,-3.8918883,4.4459543)" gradientUnits="userSpaceOnUse" xlink:href="#linearGradient3977"/><linearGradient id="linearGradient3141" x1="25.132" x2="25.132" y1=".985" y2="47.013" gradientTransform="matrix(1.2571399,0,0,0.76049252,-6.1713598,7.0815133)" gradientUnits="userSpaceOnUse" xlink:href="#linearGradient3600"/><linearGradient id="linearGradient4785-3"><stop id="stop4787-5" offset="0" stop-color="#262626" stop-opacity="1"/><stop id="stop4789-1" offset="1" stop-color="#4d4d4d" stop-opacity="1"/></linearGradient><linearGradient id="linearGradient3610-302-9-7"><stop id="stop3796-3-8" offset="0" stop-color="#1d1d1d" stop-opacity="1"/><stop id="stop3798-1-9" offset="1" stop-color="#000" stop-opacity="1"/></linearGradient><linearGradient id="linearGradient3104-6"><stop id="stop3106-3" offset="0" stop-color="#000" stop-opacity=".318"/><stop id="stop3108-9" offset="1" stop-color="#000" stop-opacity=".24"/></linearGradient><linearGradient id="linearGradient3144" x1="-51.786" x2="-51.786" y1="50.786" y2="2.906" gradientTransform="matrix(1.0382097,0,0,0.73204138,69.527413,5.6548677)" gradientUnits="userSpaceOnUse" xlink:href="#linearGradient3104-6"/><linearGradient id="linearGradient4002" x1="45.414" x2="45.567" y1="15.27" y2="96.253" gradientTransform="matrix(-0.48995989,6.9868352e-4,0.00181362,-0.38149037,57.128707,48.266601)" gradientUnits="userSpaceOnUse" xlink:href="#linearGradient4785-3"/><linearGradient id="linearGradient4004" x1="-24.032" x2="-24.098" y1="-13.091" y2="-40.164" gradientTransform="matrix(-1.1122886,0.00158613,0.00529831,-1.1144864,-2.6249379,-3.6540545)" gradientUnits="userSpaceOnUse" xlink:href="#linearGradient3610-302-9-7"/><linearGradient id="linearGradient3242-59-5"><stop id="stop3244-9-4" offset="0" stop-color="#f8b17e" stop-opacity="1"/><stop id="stop3246-7-4" offset=".262" stop-color="#e35d4f" stop-opacity="1"/><stop id="stop3248-87-0" offset=".661" stop-color="#c6262e" stop-opacity="1"/><stop id="stop3250-2-0" offset="1" stop-color="#690b54" stop-opacity="1"/></linearGradient><linearGradient id="linearGradient4160" x1="229.01" x2="229.01" y1="600.009" y2="635.009" gradientTransform="matrix(1.0010428,0,0,0.9992142,-0.23778279,1.4871625)" gradientUnits="userSpaceOnUse" xlink:href="#linearGradient3242-59-5"/><linearGradient id="linearGradient4438" x1="229.01" x2="229.01" y1="600.009" y2="635.009" gradientTransform="matrix(1.0010428,0,0,0.9992142,-0.23778279,1.4871625)" gradientUnits="userSpaceOnUse" xlink:href="#linearGradient3242-59-5"/><linearGradient id="linearGradient4440" x1="229.01" x2="229.01" y1="600.009" y2="635.009" gradientTransform="matrix(1.0010428,0,0,0.9992142,-0.23778279,1.4871625)" gradientUnits="userSpaceOnUse" xlink:href="#linearGradient3242-59-5"/></defs><g id="g3257" opacity=".4"><rect id="rect2879" width="40.8" height="3" x="3.6" y="43" fill="url(#linearGradient19619)" fill-opacity="1" fill-rule="nonzero" stroke="none" stroke-width="1" display="inline" overflow="visible" visibility="visible" style="marker:none"/><path id="path2881" fill="url(#radialGradient19616)" fill-opacity="1" fill-rule="nonzero" stroke="none" stroke-width="1" d="m 3.6,43.00013 c 0,0 0,2.999835 0,2.999835 C 2.1108662,46.005612 0,45.327854 0,44.499854 0,43.671856 1.6617608,43.000131 3.6,43.00013 z" display="inline" overflow="visible" visibility="visible" style="marker:none"/><path id="path2883" fill="url(#radialGradient19613)" fill-opacity="1" fill-rule="nonzero" stroke="none" stroke-width="1" d="m 44.4,43.00013 c 0,0 0,2.999835 0,2.999835 1.489133,0.0056 3.6,-0.672111 3.6,-1.500111 0,-0.827998 -1.661761,-1.499723 -3.6,-1.499724 z" display="inline" overflow="visible" visibility="visible" style="marker:none"/></g><path id="path4160" fill="url(#linearGradient3141)" fill-opacity="1" stroke="none" d="m 2,9.0000015 c 10.082633,0 43.999947,0.00223 43.999947,0.00223 L 46,44 C 46,44 16.666668,44 2,44 2,32.333334 2,20.666667 2,9 z" display="inline"/><path id="rect6741-1" fill="none" stroke="url(#linearGradient3138)" stroke-dasharray="none" stroke-dashoffset="0" stroke-linecap="round" stroke-linejoin="round" stroke-miterlimit="4" stroke-opacity="1" stroke-width="1" d="m 45.499997,43.499999 -43.0000003,0 0,-34.0000001 43.0000003,0 z"/><path id="rect3582-50-4" fill="url(#linearGradient4002)" fill-opacity="1" stroke="url(#linearGradient4004)" stroke-dasharray="none" stroke-linecap="round" stroke-linejoin="miter" stroke-miterlimit="4" stroke-opacity="1" stroke-width="1" d="m 43.424794,41.575206 -39.0000019,0 2.3e-6,-30 38.9999966,3e-6 z"/><path id="path4160-6-1" fill="none" stroke="url(#linearGradient3144)" stroke-dasharray="none" stroke-dashoffset="0" stroke-linecap="butt" stroke-linejoin="round" stroke-miterlimit="4" stroke-opacity="1" stroke-width="1" d="m 1.4999552,8.4999357 c 10.3117928,0 45.0000318,0.0025 45.0000318,0.0025 l 4.7e-5,35.9976273 c 0,0 -30.000052,0 -45.0000788,0 0,-12.000058 0,-23.999996 0,-35.9999143 z" display="inline"/><g id="g4442" fill="#000" fill-opacity="1" fill-rule="nonzero" stroke="none" color="#000" display="inline" opacity=".3" transform="matrix(0.99895823,0,0,1.0007864,-203.77247,-587.49735)" visibility="visible" style="marker:none"><path id="path4444" fill="#000" fill-opacity="1" fill-rule="nonzero" stroke="none" d="m 228.01,607.02 c 3.86,0 7.0073,3.166 7.0073,7.0103 0,3.8443 -3.1472,6.9787 -7.0073,6.9787 -3.86,0 -7.0073,-3.1344 -7.0073,-6.9787 0,-3.8443 3.1472,-7.0103 7.0073,-7.0103 z m 0,2.021 c -2.7769,0 -5.0097,2.2237 -5.0097,4.9893 0,2.7656 2.2328,4.9577 5.0097,4.9577 2.777,0 5.0097,-2.1921 5.0097,-4.9577 0,-2.7656 -2.2328,-4.9893 -5.0097,-4.9893 z" color="#000" display="inline" enable-background="accumulate" overflow="visible" visibility="visible" style="text-indent:0;text-transform:none;block-progression:tb;marker:none"/><path id="path4446" fill="#000" fill-opacity="1" fill-rule="nonzero" stroke="none" d="m 224.7131,609.3114 8,8 -1.4062,1.4062 -8,-8 1.4062,-1.4062 z" color="#000" display="inline" enable-background="accumulate" overflow="visible" visibility="visible" style="text-indent:0;text-transform:none;block-progression:tb;marker:none"/></g><g stroke-opacity="1" style="marker:none" id="g4454" fill="#000" fill-opacity="1" fill-rule="nonzero" stroke="#000" stroke-dasharray="none" stroke-miterlimit="4" stroke-width="2" color="#000" display="inline" opacity=".15" transform="matrix(0.99895823,0,0,1.0007864,-203.77247,-587.49735)" visibility="visible"><path id="path4456" fill="#000" fill-opacity="1" fill-rule="nonzero" stroke="#000" stroke-dasharray="none" stroke-miterlimit="4" stroke-opacity="1" stroke-width="2" d="m 228.01,607.02 c 3.86,0 7.0073,3.166 7.0073,7.0103 0,3.8443 -3.1472,6.9787 -7.0073,6.9787 -3.86,0 -7.0073,-3.1344 -7.0073,-6.9787 0,-3.8443 3.1472,-7.0103 7.0073,-7.0103 z m 0,2.021 c -2.7769,0 -5.0097,2.2237 -5.0097,4.9893 0,2.7656 2.2328,4.9577 5.0097,4.9577 2.777,0 5.0097,-2.1921 5.0097,-4.9577 0,-2.7656 -2.2328,-4.9893 -5.0097,-4.9893 z" color="#000" display="inline" enable-background="accumulate" overflow="visible" visibility="visible" style="text-indent:0;text-transform:none;block-progression:tb;marker:none"/><path id="path4458" fill="#000" fill-opacity="1" fill-rule="nonzero" stroke="#000" stroke-dasharray="none" stroke-miterlimit="4" stroke-opacity="1" stroke-width="2" d="m 224.7131,609.3114 8,8 -1.4062,1.4062 -8,-8 1.4062,-1.4062 z" color="#000" display="inline" enable-background="accumulate" overflow="visible" visibility="visible" style="text-indent:0;text-transform:none;block-progression:tb;marker:none"/></g><g id="layer12" fill="url(#linearGradient4160)" fill-opacity="1" fill-rule="nonzero" stroke="none" color="#000" display="inline" transform="matrix(0.99895823,0,0,1.0007864,-203.77247,-588.49735)" visibility="visible" style="marker:none"><path id="path4222" fill="url(#linearGradient4440)" fill-opacity="1" fill-rule="nonzero" stroke="none" d="m 228.01,607.02 c 3.86,0 7.0073,3.166 7.0073,7.0103 0,3.8443 -3.1472,6.9787 -7.0073,6.9787 -3.86,0 -7.0073,-3.1344 -7.0073,-6.9787 0,-3.8443 3.1472,-7.0103 7.0073,-7.0103 z m 0,2.021 c -2.7769,0 -5.0097,2.2237 -5.0097,4.9893 0,2.7656 2.2328,4.9577 5.0097,4.9577 2.777,0 5.0097,-2.1921 5.0097,-4.9577 0,-2.7656 -2.2328,-4.9893 -5.0097,-4.9893 z" color="#000" display="inline" enable-background="accumulate" overflow="visible" visibility="visible" style="text-indent:0;text-transform:none;block-progression:tb;marker:none"/><path id="path4992" fill="url(#linearGradient4438)" fill-opacity="1" fill-rule="nonzero" stroke="none" d="m 224.7131,609.3114 8,8 -1.4062,1.4062 -8,-8 1.4062,-1.4062 z" color="#000" display="inline" enable-background="accumulate" overflow="visible" visibility="visible" style="text-indent:0;text-transform:none;block-progression:tb;marker:none"/></g></svg>