<svg xmlns="http://www.w3.org/2000/svg" xmlns:svg="http://www.w3.org/2000/svg" xmlns:xlink="http://www.w3.org/1999/xlink" id="svg7384" width="48" height="48" version="1.1"><title id="title9167">elementary Symbolic Icon Theme</title><defs id="defs11"><linearGradient id="linearGradient895"><stop id="stop891" offset="0" stop-color="#64baff" stop-opacity="1"/><stop id="stop893" offset="1" stop-color="#3689e6" stop-opacity="1"/></linearGradient><linearGradient id="linearGradient4449"><stop id="stop4451" offset="0" stop-color="#fff" stop-opacity="1"/><stop id="stop4453" offset=".567" stop-color="#fff" stop-opacity=".235"/><stop id="stop4455" offset=".867" stop-color="#fff" stop-opacity=".157"/><stop id="stop4457" offset="1" stop-color="#fff" stop-opacity=".392"/></linearGradient><linearGradient id="linearGradient4399"><stop id="stop4401" offset="0" stop-color="#fff" stop-opacity="1"/><stop id="stop4403" offset=".233" stop-color="#fff" stop-opacity=".235"/><stop id="stop4405" offset=".733" stop-color="#fff" stop-opacity=".157"/><stop id="stop4407" offset="1" stop-color="#fff" stop-opacity=".392"/></linearGradient><linearGradient id="linearGradient3778"><stop id="stop3780" offset="0" stop-color="#499119" stop-opacity="1"/><stop id="stop3782" offset="1" stop-color="#8fd625" stop-opacity="1"/></linearGradient><linearGradient id="linearGradient5010"><stop id="stop5012" offset="0" stop-color="#000" stop-opacity="1"/><stop id="stop5014" offset="1" stop-color="#000" stop-opacity="0"/></linearGradient><linearGradient id="ButtonShadow" x1="45.448" x2="45.448" y1="92.54" y2="7.017" gradientTransform="scale(1.0058652,0.994169)" gradientUnits="userSpaceOnUse"><stop id="stop3750" offset="0" stop-color="#000" stop-opacity="1"/><stop id="stop3752" offset="1" stop-color="#000" stop-opacity=".588"/></linearGradient><linearGradient id="linearGradient3737"><stop id="stop3739" offset="0" stop-color="#fff" stop-opacity="1"/><stop id="stop3741" offset="1" stop-color="#fff" stop-opacity="0"/></linearGradient><filter id="filter3174" color-interpolation-filters="sRGB"><feGaussianBlur id="feGaussianBlur3176" stdDeviation="1.71"/></filter><linearGradient id="linearGradient3832" x1="65.263" x2="65.263" y1="64.205" y2="50.069" gradientTransform="matrix(0.625,0,0,0.625,28.5,31.25)" gradientUnits="userSpaceOnUse" xlink:href="#linearGradient3737"/><linearGradient id="linearGradient3773" x1="56" x2="88" y1="72" y2="72" gradientTransform="matrix(0.9375,0,0,0.9375,-140.5,3.5)" gradientUnits="userSpaceOnUse" xlink:href="#linearGradient3778"/><linearGradient id="linearGradient3788" x1="70" x2="70" y1="54" y2="75.095" gradientTransform="translate(0,4)" gradientUnits="userSpaceOnUse" xlink:href="#linearGradient3737"/><filter id="filter3806" color-interpolation-filters="sRGB"><feGaussianBlur id="feGaussianBlur3808" stdDeviation="1.2"/></filter><linearGradient id="linearGradient3812" x1="65.263" x2="65.263" y1="64.205" y2="50.069" gradientTransform="matrix(0.625,0,0,0.625,78.5,32.25)" gradientUnits="userSpaceOnUse" xlink:href="#linearGradient5010"/><clipPath id="clipPath3823"><path id="path3825" fill="#fff" fill-opacity="1" stroke="none" d="M 108.8125,58 C 107.25437,58 106,59.254375 106,60.8125 l 0,24.375 C 106,86.745625 107.25437,88 108.8125,88 l 24.375,0 C 134.74562,88 136,86.745625 136,85.1875 l 0,-24.375 C 136,59.254375 134.74562,58 133.1875,58 l -24.375,0 z m 7.1875,4.5 10,0 0,8.75 5,0 -10,13.75 -10,-13.75 5,0 0,-8.75 z"/></clipPath><filter id="filter3831" color-interpolation-filters="sRGB"><feGaussianBlur id="feGaussianBlur3833" stdDeviation=".637"/></filter><linearGradient id="linearGradient8838"><stop id="stop8840" offset="0" stop-color="#000" stop-opacity="1"/><stop id="stop8842" offset="1" stop-color="#000" stop-opacity="0"/></linearGradient><radialGradient id="radialGradient3389" cx="62.625" cy="4.625" r="10.625" fx="62.625" fy="4.625" gradientTransform="matrix(-2.0703833,0,0,0.84697382,153.65776,33.083631)" gradientUnits="userSpaceOnUse" xlink:href="#linearGradient8838"/><linearGradient id="linearGradient3392-5" x1="61.748" x2="28.332" y1="87.465" y2="87.465" gradientTransform="matrix(0,-0.89777469,0.96425314,0,-63.33874,62.436014)" gradientUnits="userSpaceOnUse" xlink:href="#linearGradient4399"/><linearGradient id="linearGradient4426" x1="28.31" x2="61.726" y1="78.153" y2="78.153" gradientTransform="matrix(0,-0.89777469,0.96425314,0,-63.33874,62.436014)" gradientUnits="userSpaceOnUse" xlink:href="#linearGradient4449"/><linearGradient id="linearGradient897" x1="19.628" x2="19.628" y1="5.181" y2="42.928" gradientUnits="userSpaceOnUse" xlink:href="#linearGradient895"/></defs><metadata id="metadata90"/><path id="path8836" fill="url(#radialGradient3389)" fill-opacity="1" fill-rule="evenodd" stroke="none" stroke-width="1" d="m 2.0021765,37.00089 a 21.997823,8.9991102 0 0 0 43.9956465,0 21.997823,8.9991102 0 1 0 -43.9956465,0 z" display="inline" opacity=".1" overflow="visible" visibility="visible" style="marker:none"/><g id="layer2" display="none" transform="translate(-192.20351,-21.686655)"><path id="rect3745" fill="url(#ButtonShadow)" fill-opacity="1" fill-rule="nonzero" stroke="none" d="M 11,7 48,5 85,7 c 3.324,0 6,2.676 6,6 l 0,73 c 0,3.324 -2.676,6 -6,6 L 11,92 C 7.676,92 5,89.324 5,86 L 5,13 C 5,9.676 7.676,7 11,7 z" filter="url(#filter3174)" opacity=".9"/></g><g id="layer4" display="none" transform="translate(-192.20351,-21.686655)"><rect id="rect3790" width="30" height="30" x="-86" y="56" fill="#000" fill-opacity="1" stroke="none" filter="url(#filter3806)" opacity=".6" rx="2.813" ry="2.813" transform="matrix(0,-1,1,0,0,4)"/><rect id="rect2993" width="30" height="30" x="-88" y="56" fill="url(#linearGradient3773)" fill-opacity="1" stroke="none" rx="2.813" ry="2.813" transform="matrix(0,-1,1,0,0,0)"/><path id="rect3775" fill="url(#linearGradient3788)" fill-opacity="1" stroke="none" d="M 58.8125,58 C 57.254375,58 56,59.254375 56,60.8125 l 0,24.375 c 0,0.873066 0.410816,1.641163 1.03125,2.15625 C 57.02841,87.289908 57,87.242129 57,87.1875 l 0,-24.375 C 57,61.254375 58.17075,60 59.625,60 l 22.75,0 C 83.82925,60 85,61.254375 85,62.8125 l 0,24.375 c 0,0.05463 -0.02841,0.102408 -0.03125,0.15625 C 85.589184,86.828663 86,86.060566 86,85.1875 l 0,-24.375 C 86,59.254375 84.745625,58 83.1875,58 l -24.375,0 z" opacity=".5"/><path id="path3810" fill="url(#linearGradient3812)" fill-opacity="1" fill-rule="nonzero" stroke="none" d="m 116,63.5 0,8.75 -5,0 10,13.75 10,-13.75 -5,0 0,-8.75 -10,0 z" clip-path="url(#clipPath3823)" display="inline" filter="url(#filter3831)" opacity=".6" transform="translate(-50,0)"/><path id="path4278" fill="url(#linearGradient3832)" fill-opacity="1" fill-rule="nonzero" stroke="none" d="m 66,62.5 0,8.75 -5,0 10,13.75 10,-13.75 -5,0 0,-8.75 -10,0 z" display="inline"/></g><path id="path3437-4" fill="url(#linearGradient897)" fill-opacity="1" fill-rule="nonzero" stroke="none" stroke-width=".964" d="M 18.5 5.03125 L 18.5 10.53125 L 16 10.53125 C 8.5205223 10.53125 2.5 16.551772 2.5 24.03125 C 2.5 31.340608 8.2578063 37.234664 15.5 37.5 L 15.5 32.375 C 11.51221 31.669572 8.5 28.227776 8.5 24.03125 C 8.5 19.321772 12.290522 15.53125 17 15.53125 L 18.5 15.53125 L 18.5 21.03125 L 30 13.03125 L 18.5 5.03125 z M 32.5 10.53125 L 32.5 15.65625 C 36.48779 16.361678 39.5 19.803474 39.5 24 C 39.5 28.709478 35.709478 32.5 31 32.5 L 29.5 32.5 L 29.5 27 L 18 35 L 29.5 43 L 29.5 37.5 L 32 37.5 C 39.479478 37.5 45.5 31.479478 45.5 24 C 45.5 16.690642 39.742194 10.796586 32.5 10.53125 z" color="#000" display="block" enable-background="accumulate" overflow="visible" visibility="visible" style="marker:none"/><path id="path3437" fill="none" fill-opacity="1" fill-rule="nonzero" stroke="#002e99" stroke-dasharray="none" stroke-dashoffset="0" stroke-linecap="round" stroke-linejoin="round" stroke-miterlimit="4" stroke-opacity="1" stroke-width="1" d="m 18.5,5.03125 0,5.5 -2.5,0 c -7.4794777,0 -13.5,6.020522 -13.5,13.5 0,7.309358 5.7578063,13.203414 13,13.46875 l 0,-5.125 c -3.98779,-0.705428 -7,-4.147224 -7,-8.34375 0,-4.709478 3.790522,-8.5 8.5,-8.5 l 1.5,0 0,5.5 11.5,-8 -11.5,-8 z" color="#000" display="inline" enable-background="accumulate" opacity=".5" overflow="visible" visibility="visible" style="marker:none"/><path id="path4327" fill="none" stroke="url(#linearGradient3392-5)" stroke-dasharray="none" stroke-dashoffset="0" stroke-linecap="butt" stroke-linejoin="miter" stroke-miterlimit="7" stroke-opacity="1" stroke-width=".964" d="m 19.5,6.9375 0,3.59375 a 0.9879274,0.9879274 0 0 1 -1,1 l -2.5,0 c -6.9493833,0 -12.5,5.550616 -12.5,12.5 0,6.418719 4.7984306,11.45857 11,12.21875 l 0,-3.1875 c -4.015574,-1.101387 -7,-4.666868 -7,-9.03125 0,-5.239528 4.260472,-9.5 9.5,-9.5 l 1.5,0 a 0.9879274,0.9879274 0 0 1 1,1 l 0,3.59375 8.78125,-6.09375 L 19.5,6.9375 z" color="#000" display="block" enable-background="accumulate" opacity=".401" overflow="visible" visibility="visible" style="marker:none"/><path id="rect3251-67" fill="none" stroke="#002e99" stroke-dasharray="none" stroke-dashoffset="0" stroke-linecap="round" stroke-linejoin="round" stroke-miterlimit="4" stroke-opacity="1" stroke-width="1" d="m 32.5,10.53125 0,5.125 c 3.98779,0.705428 7,4.147224 7,8.34375 0,4.709478 -3.790522,8.5 -8.5,8.5 l -1.5,0 0,-5.5 -11.5,8 11.5,8 0,-5.5 2.5,0 c 7.479478,0 13.5,-6.020522 13.5,-13.5 0,-7.309358 -5.757806,-13.203414 -13,-13.46875 z" color="#000" display="inline" enable-background="accumulate" opacity=".5" overflow="visible" visibility="visible" style="marker:none"/><path id="path4327-2" fill="none" stroke="url(#linearGradient4426)" stroke-dasharray="none" stroke-dashoffset="0" stroke-linecap="butt" stroke-linejoin="miter" stroke-miterlimit="7" stroke-opacity="1" stroke-width=".964" d="m 19.5,6.9375 0,3.59375 a 0.9879274,0.9879274 0 0 1 -1,1 l -2.5,0 c -6.9493833,0 -12.5,5.550616 -12.5,12.5 0,6.418719 4.7984306,11.45857 11,12.21875 l 0,-3.1875 c -4.015574,-1.101387 -7,-4.666868 -7,-9.03125 0,-5.239528 4.260472,-9.5 9.5,-9.5 l 1.5,0 a 0.9879274,0.9879274 0 0 1 1,1 l 0,3.59375 8.78125,-6.09375 L 19.5,6.9375 z" color="#000" display="block" enable-background="accumulate" opacity=".401" overflow="visible" transform="matrix(-1,0,0,-1,48.021015,48.019989)" visibility="visible" style="marker:none"/></svg>