<svg xmlns="http://www.w3.org/2000/svg" xmlns:svg="http://www.w3.org/2000/svg" xmlns:xlink="http://www.w3.org/1999/xlink" id="svg4117" width="48" height="48" version="1.1"><defs id="defs4119"><linearGradient id="linearGradient3924"><stop id="stop3926" offset="0" stop-color="#fff" stop-opacity="1"/><stop id="stop3928" offset=".027" stop-color="#fff" stop-opacity=".235"/><stop id="stop3930" offset=".972" stop-color="#fff" stop-opacity=".157"/><stop id="stop3932" offset="1" stop-color="#fff" stop-opacity=".392"/></linearGradient><radialGradient id="radialGradient2873-966-168" cx="4.993" cy="43.5" r="2.5" fx="4.993" fy="43.5" gradientTransform="matrix(2.003784,0,0,1.4,27.98813,-17.4)" gradientUnits="userSpaceOnUse" xlink:href="#linearGradient3688-166-749"/><linearGradient id="linearGradient3688-166-749"><stop id="stop2883" offset="0" stop-color="#181818" stop-opacity="1"/><stop id="stop2885" offset="1" stop-color="#181818" stop-opacity="0"/></linearGradient><radialGradient id="radialGradient2875-742-326" cx="4.993" cy="43.5" r="2.5" fx="4.993" fy="43.5" gradientTransform="matrix(2.003784,0,0,1.4,-20.01187,-104.4)" gradientUnits="userSpaceOnUse" xlink:href="#linearGradient3688-464-309"/><linearGradient id="linearGradient3688-464-309"><stop id="stop2889" offset="0" stop-color="#181818" stop-opacity="1"/><stop id="stop2891" offset="1" stop-color="#181818" stop-opacity="0"/></linearGradient><linearGradient id="linearGradient2877-634-617" x1="25.058" x2="25.058" y1="47.028" y2="39.999" gradientUnits="userSpaceOnUse" xlink:href="#linearGradient3702-501-757"/><linearGradient id="linearGradient3702-501-757"><stop id="stop2895" offset="0" stop-color="#181818" stop-opacity="0"/><stop id="stop2897" offset=".5" stop-color="#181818" stop-opacity="1"/><stop id="stop2899" offset="1" stop-color="#181818" stop-opacity="0"/></linearGradient><filter id="filter3831" color-interpolation-filters="sRGB"><feGaussianBlur id="feGaussianBlur3833" stdDeviation=".637"/></filter><clipPath id="clipPath3823"><path id="path3825" fill="#fff" fill-opacity="1" stroke="none" d="M 108.8125,58 C 107.25437,58 106,59.254375 106,60.8125 l 0,24.375 C 106,86.745625 107.25437,88 108.8125,88 l 24.375,0 C 134.74562,88 136,86.745625 136,85.1875 l 0,-24.375 C 136,59.254375 134.74562,58 133.1875,58 l -24.375,0 z m 7.1875,4.5 10,0 0,8.75 5,0 -10,13.75 -10,-13.75 5,0 0,-8.75 z"/></clipPath><linearGradient id="linearGradient3812" x1="65.263" x2="65.263" y1="64.205" y2="50.069" gradientTransform="matrix(0.625,0,0,0.625,78.5,32.25)" gradientUnits="userSpaceOnUse" xlink:href="#linearGradient5010"/><filter id="filter3806" color-interpolation-filters="sRGB"><feGaussianBlur id="feGaussianBlur3808" stdDeviation="1.2"/></filter><linearGradient id="linearGradient3788" x1="70" x2="70" y1="54" y2="75.095" gradientTransform="translate(0,4)" gradientUnits="userSpaceOnUse" xlink:href="#linearGradient3737"/><linearGradient id="linearGradient3773" x1="56" x2="88" y1="72" y2="72" gradientTransform="matrix(0.9375,0,0,0.9375,-140.5,3.5)" gradientUnits="userSpaceOnUse" xlink:href="#linearGradient3778"/><linearGradient id="linearGradient3832" x1="65.263" x2="65.263" y1="64.205" y2="50.069" gradientTransform="matrix(0.625,0,0,0.625,28.5,31.25)" gradientUnits="userSpaceOnUse" xlink:href="#linearGradient3737"/><filter id="filter3174" color-interpolation-filters="sRGB"><feGaussianBlur id="feGaussianBlur3176" stdDeviation="1.71"/></filter><linearGradient id="linearGradient3737"><stop id="stop3739" offset="0" stop-color="#fff" stop-opacity="1"/><stop id="stop3741" offset="1" stop-color="#fff" stop-opacity="0"/></linearGradient><linearGradient id="ButtonShadow" x1="45.448" x2="45.448" y1="92.54" y2="7.017" gradientTransform="scale(1.0058652,0.994169)" gradientUnits="userSpaceOnUse"><stop id="stop3750" offset="0" stop-color="#000" stop-opacity="1"/><stop id="stop3752" offset="1" stop-color="#000" stop-opacity=".588"/></linearGradient><linearGradient id="linearGradient5010"><stop id="stop5012" offset="0" stop-color="#000" stop-opacity="1"/><stop id="stop5014" offset="1" stop-color="#000" stop-opacity="0"/></linearGradient><linearGradient id="linearGradient3778"><stop id="stop3780" offset="0" stop-color="#499119" stop-opacity="1"/><stop id="stop3782" offset="1" stop-color="#8fd625" stop-opacity="1"/></linearGradient><linearGradient id="linearGradient3084" x1="24" x2="24" y1="6.033" y2="42.033" gradientTransform="translate(2.4e-6,0.9674489)" gradientUnits="userSpaceOnUse" xlink:href="#linearGradient3924"/><linearGradient id="linearGradient5455-1"><stop id="stop5457-8" offset="0" stop-color="#dcc383" stop-opacity="0"/><stop id="stop5469-5" offset=".172" stop-color="#dcc383" stop-opacity="1"/><stop id="stop5467-6" offset=".279" stop-color="#856101" stop-opacity="1"/><stop id="stop5465-87" offset=".657" stop-color="#fef3b1" stop-opacity="1"/><stop id="stop5463-81" offset=".833" stop-color="#fff4b0" stop-opacity="1"/><stop id="stop5459-95" offset="1" stop-color="#7d5a00" stop-opacity="1"/></linearGradient><linearGradient id="linearGradient3881-1-3"><stop id="stop3883-6-7" offset="0" stop-color="#2d2d2d" stop-opacity="1"/><stop id="stop3885-2-3" offset="1" stop-color="#3f3f3f" stop-opacity="1"/></linearGradient><linearGradient id="linearGradient4172" x1="44.45" x2="44.45" y1="13.714" y2="16.699" gradientTransform="matrix(1,0,0,1.1666667,-27.750771,2.5021582)" gradientUnits="userSpaceOnUse" xlink:href="#linearGradient5455-1"/><linearGradient id="linearGradient4180" x1="24" x2="24" y1="19.114" y2="28.975" gradientTransform="matrix(1.571428,0,0,1.6859504,-12.932148,-15.224838)" gradientUnits="userSpaceOnUse" xlink:href="#linearGradient3881-1-3"/><linearGradient id="linearGradient5455-1-63"><stop id="stop5457-8-46" offset="0" stop-color="#dcc383" stop-opacity="0"/><stop id="stop5469-5-8" offset=".172" stop-color="#dcc383" stop-opacity="1"/><stop id="stop5467-6-7" offset=".279" stop-color="#856101" stop-opacity="1"/><stop id="stop5465-87-1" offset=".657" stop-color="#fef3b1" stop-opacity="1"/><stop id="stop5463-81-1" offset=".833" stop-color="#fff4b0" stop-opacity="1"/><stop id="stop5459-95-9" offset="1" stop-color="#7d5a00" stop-opacity="1"/></linearGradient><linearGradient id="linearGradient4241" x1="44.45" x2="44.45" y1="13.714" y2="16.699" gradientTransform="matrix(1,0,0,1.1666667,-24.750771,2.502158)" gradientUnits="userSpaceOnUse" xlink:href="#linearGradient5455-1-63"/><linearGradient id="linearGradient4241-67" x1="44.45" x2="44.45" y1="13.714" y2="16.699" gradientTransform="matrix(1,0,0,1.1666667,-18.750771,2.502158)" gradientUnits="userSpaceOnUse" xlink:href="#linearGradient5455-1-63-5"/><linearGradient id="linearGradient5455-1-63-5"><stop id="stop5457-8-46-7" offset="0" stop-color="#dcc383" stop-opacity="0"/><stop id="stop5469-5-8-5" offset=".172" stop-color="#dcc383" stop-opacity="1"/><stop id="stop5467-6-7-5" offset=".279" stop-color="#856101" stop-opacity="1"/><stop id="stop5465-87-1-5" offset=".657" stop-color="#fef3b1" stop-opacity="1"/><stop id="stop5463-81-1-7" offset=".833" stop-color="#fff4b0" stop-opacity="1"/><stop id="stop5459-95-9-4" offset="1" stop-color="#7d5a00" stop-opacity="1"/></linearGradient><linearGradient id="linearGradient5455-1-61"><stop id="stop5457-8-33" offset="0" stop-color="#dcc383" stop-opacity="0"/><stop id="stop5469-5-3" offset=".172" stop-color="#dcc383" stop-opacity="1"/><stop id="stop5467-6-56" offset=".279" stop-color="#856101" stop-opacity="1"/><stop id="stop5465-87-65" offset=".657" stop-color="#fef3b1" stop-opacity="1"/><stop id="stop5463-81-8" offset=".833" stop-color="#fff4b0" stop-opacity="1"/><stop id="stop5459-95-72" offset="1" stop-color="#7d5a00" stop-opacity="1"/></linearGradient><linearGradient id="linearGradient4346" x1="44.45" x2="44.45" y1="13.714" y2="16.699" gradientTransform="matrix(1,0,0,1.1666667,-21.750771,2.502158)" gradientUnits="userSpaceOnUse" xlink:href="#linearGradient5455-1-61"/><linearGradient id="linearGradient4241-8" x1="44.45" x2="44.45" y1="13.714" y2="16.699" gradientTransform="matrix(1,0,0,1.1666667,-12.750771,2.502158)" gradientUnits="userSpaceOnUse" xlink:href="#linearGradient5455-1-63-0"/><linearGradient id="linearGradient5455-1-63-0"><stop id="stop5457-8-46-8" offset="0" stop-color="#dcc383" stop-opacity="0"/><stop id="stop5469-5-8-3" offset=".172" stop-color="#dcc383" stop-opacity="1"/><stop id="stop5467-6-7-9" offset=".279" stop-color="#856101" stop-opacity="1"/><stop id="stop5465-87-1-2" offset=".657" stop-color="#fef3b1" stop-opacity="1"/><stop id="stop5463-81-1-0" offset=".833" stop-color="#fff4b0" stop-opacity="1"/><stop id="stop5459-95-9-8" offset="1" stop-color="#7d5a00" stop-opacity="1"/></linearGradient><linearGradient id="linearGradient5455-1-9"><stop id="stop5457-8-5" offset="0" stop-color="#dcc383" stop-opacity="0"/><stop id="stop5469-5-56" offset=".172" stop-color="#dcc383" stop-opacity="1"/><stop id="stop5467-6-2" offset=".279" stop-color="#856101" stop-opacity="1"/><stop id="stop5465-87-99" offset=".657" stop-color="#fef3b1" stop-opacity="1"/><stop id="stop5463-81-82" offset=".833" stop-color="#fff4b0" stop-opacity="1"/><stop id="stop5459-95-4" offset="1" stop-color="#7d5a00" stop-opacity="1"/></linearGradient><linearGradient id="linearGradient4346-1" x1="44.45" x2="44.45" y1="13.714" y2="16.699" gradientTransform="matrix(1,0,0,1.1666667,-15.750771,2.502158)" gradientUnits="userSpaceOnUse" xlink:href="#linearGradient5455-1-9"/><linearGradient id="linearGradient909"><stop id="stop905" offset="0" stop-color="#fafafa" stop-opacity="1"/><stop id="stop907" offset="1" stop-color="#d4d4d4" stop-opacity="1"/></linearGradient><linearGradient id="linearGradient903" x1="14.33" x2="14.33" y1="32.022" y2="-.07" gradientTransform="matrix(1.4615385,0,0,1.4615385,0.61538514,-48.352052)" gradientUnits="userSpaceOnUse" xlink:href="#linearGradient909"/><linearGradient id="linearGradient3091" x1="29.127" x2="29.291" y1="19.788" y2="57.567" gradientTransform="matrix(0.49373581,0,-0.00214922,0.51518426,21.661617,16.574027)" gradientUnits="userSpaceOnUse" xlink:href="#linearGradient3117-8"/><linearGradient id="linearGradient3117-8"><stop id="stop3119-9" offset="0" stop-color="#fff" stop-opacity="1"/><stop id="stop3121-9" offset=".569" stop-color="#fff" stop-opacity=".235"/><stop id="stop3123-6" offset=".933" stop-color="#fff" stop-opacity=".157"/><stop id="stop3125-3" offset="1" stop-color="#fff" stop-opacity=".392"/></linearGradient><linearGradient id="linearGradient3094" x1="24" x2="24" y1="2.011" y2="44.532" gradientTransform="matrix(0.48890916,0,0,0.48839827,24.266182,24.742322)" gradientUnits="userSpaceOnUse" xlink:href="#linearGradient4171"/><linearGradient id="linearGradient4171"><stop id="stop4173" offset="0" stop-color="#ffe16b" stop-opacity="1"/><stop id="stop4175" offset="1" stop-color="#f9c440" stop-opacity="1"/></linearGradient><radialGradient id="radialGradient2415" cx="62.625" cy="4.625" r="10.625" fx="62.625" fy="4.625" gradientTransform="matrix(1.1294118,0,0,0.12941156,-34.729414,46.026471)" gradientUnits="userSpaceOnUse" xlink:href="#linearGradient5010"/></defs><metadata id="metadata4122"/><g id="g2036" display="inline" transform="matrix(1.1,0,0,0.4444449,-2.4000022,25.11107)"><g id="g3712" opacity=".4" transform="matrix(1.052632,0,0,1.285713,-1.263158,-13.42854)"><rect id="rect2801" width="5" height="7" x="38" y="40" fill="url(#radialGradient2873-966-168)" fill-opacity="1" stroke="none"/><rect id="rect3696" width="5" height="7" x="-10" y="-47" fill="url(#radialGradient2875-742-326)" fill-opacity="1" stroke="none" transform="scale(-1,-1)"/><rect id="rect3700" width="28" height="7" x="10" y="40" fill="url(#linearGradient2877-634-617)" fill-opacity="1" stroke="none"/></g></g><rect id="rect5505-6" width="38" height="38" x="5" y="-43.967" fill="url(#linearGradient903)" fill-opacity="1" fill-rule="nonzero" stroke="none" stroke-width="1" color="#000" display="inline" enable-background="accumulate" overflow="visible" rx="1.5" ry="1.5" transform="scale(1,-1)" visibility="visible" style="marker:none"/><rect stroke-miterlimit="4" style="marker:none;font-variant-east_asian:normal" id="rect5505-21" width="39" height="39" x="4.5" y="5.467" fill="none" fill-opacity="1" fill-rule="nonzero" stroke="#555761" stroke-dasharray="none" stroke-dashoffset="0" stroke-linecap="round" stroke-linejoin="round" stroke-opacity="1" stroke-width="1" color="#000" display="inline" enable-background="accumulate" opacity=".5" overflow="visible" rx="2" ry="2" vector-effect="none" visibility="visible"/><rect id="rect6741-2" width="37" height="37" x="5.5" y="6.467" fill="none" stroke="url(#linearGradient3084)" stroke-dasharray="none" stroke-dashoffset="0" stroke-linecap="round" stroke-linejoin="round" stroke-miterlimit="4" stroke-opacity="1" stroke-width="1" rx="1" ry="1"/><g id="layer2" display="none" transform="translate(-135.85714,-31.05041)"><path id="rect3745" fill="url(#ButtonShadow)" fill-opacity="1" fill-rule="nonzero" stroke="none" d="M 11,7 48,5 85,7 c 3.324,0 6,2.676 6,6 l 0,73 c 0,3.324 -2.676,6 -6,6 L 11,92 C 7.676,92 5,89.324 5,86 L 5,13 C 5,9.676 7.676,7 11,7 z" filter="url(#filter3174)" opacity=".9"/></g><g id="layer4" display="none" transform="translate(-135.85714,-31.05041)"><rect id="rect3790" width="30" height="30" x="-86" y="56" fill="#000" fill-opacity="1" stroke="none" filter="url(#filter3806)" opacity=".6" rx="2.813" ry="2.813" transform="matrix(0,-1,1,0,0,4)"/><rect id="rect2993" width="30" height="30" x="-88" y="56" fill="url(#linearGradient3773)" fill-opacity="1" stroke="none" rx="2.813" ry="2.813" transform="matrix(0,-1,1,0,0,0)"/><path id="rect3775" fill="url(#linearGradient3788)" fill-opacity="1" stroke="none" d="M 58.8125,58 C 57.254375,58 56,59.254375 56,60.8125 l 0,24.375 c 0,0.873066 0.410816,1.641163 1.03125,2.15625 C 57.02841,87.289908 57,87.242129 57,87.1875 l 0,-24.375 C 57,61.254375 58.17075,60 59.625,60 l 22.75,0 C 83.82925,60 85,61.254375 85,62.8125 l 0,24.375 c 0,0.05463 -0.02841,0.102408 -0.03125,0.15625 C 85.589184,86.828663 86,86.060566 86,85.1875 l 0,-24.375 C 86,59.254375 84.745625,58 83.1875,58 l -24.375,0 z" opacity=".5"/><path id="path3810" fill="url(#linearGradient3812)" fill-opacity="1" fill-rule="nonzero" stroke="none" d="m 116,63.5 0,8.75 -5,0 10,13.75 10,-13.75 -5,0 0,-8.75 -10,0 z" clip-path="url(#clipPath3823)" display="inline" filter="url(#filter3831)" opacity=".6" transform="translate(-50,0)"/><path id="path4278" fill="url(#linearGradient3832)" fill-opacity="1" fill-rule="nonzero" stroke="none" d="m 66,62.5 0,8.75 -5,0 10,13.75 10,-13.75 -5,0 0,-8.75 -10,0 z" display="inline"/></g><path id="rect4488-7" fill="#fff" fill-opacity="1" fill-rule="nonzero" stroke="none" stroke-width="3" d="m 13,18 0,14 4,0 0,1.454545 2,0 L 19,35 l 10,0 0,-1.545455 2,0 L 31,32 l 4,0 0,-14 z" color="#000" display="inline" enable-background="accumulate" opacity=".5" overflow="visible" visibility="visible" style="marker:none"/><path id="rect4488" fill="url(#linearGradient4180)" fill-opacity="1" fill-rule="nonzero" stroke="none" stroke-width="3" d="m 13,17 0,14 4,0 0,1.454545 2,0 L 19,34 l 10,0 0,-1.545455 2,0 L 31,31 l 4,0 0,-14 z" color="#000" display="inline" enable-background="accumulate" overflow="visible" visibility="visible" style="marker:none"/><path id="rect4488-0" fill="none" stroke="#000" stroke-dasharray="none" stroke-dashoffset="0" stroke-linecap="butt" stroke-linejoin="miter" stroke-miterlimit="4" stroke-opacity="1" stroke-width="1" d="m 13.5,17.5 0,13 4,0 0,1.5 2,0 0,1.5 9,0 0,-1.5 2,0 0,-1.5 4,0 0,-13 z" color="#000" display="inline" enable-background="accumulate" opacity=".3" overflow="visible" visibility="visible" style="marker:none"/><rect id="rect5264-2-7" width="1" height="3.5" x="16" y="18.5" fill="url(#linearGradient4172)" fill-opacity="1" fill-rule="nonzero" stroke="none" stroke-width="3" color="#000" display="inline" enable-background="accumulate" overflow="visible" visibility="visible" style="marker:none"/><rect id="rect5264-2-7-0" width="1" height="3.5" x="19" y="18.5" fill="url(#linearGradient4241)" fill-opacity="1" fill-rule="nonzero" stroke="none" stroke-width="3" color="#000" display="inline" enable-background="accumulate" overflow="visible" visibility="visible" style="marker:none"/><rect id="rect5264-2-7-05" width="1" height="3.5" x="22" y="18.5" fill="url(#linearGradient4346)" fill-opacity="1" fill-rule="nonzero" stroke="none" stroke-width="3" color="#000" display="inline" enable-background="accumulate" overflow="visible" visibility="visible" style="marker:none"/><rect id="rect5264-2-7-0-5" width="1" height="3.5" x="25" y="18.5" fill="url(#linearGradient4241-67)" fill-opacity="1" fill-rule="nonzero" stroke="none" stroke-width="3" color="#000" display="inline" enable-background="accumulate" overflow="visible" visibility="visible" style="marker:none"/><rect id="rect5264-2-7-8" width="1" height="3.5" x="28" y="18.5" fill="url(#linearGradient4346-1)" fill-opacity="1" fill-rule="nonzero" stroke="none" stroke-width="3" color="#000" display="inline" enable-background="accumulate" overflow="visible" visibility="visible" style="marker:none"/><rect id="rect5264-2-7-0-1" width="1" height="3.5" x="31" y="18.5" fill="url(#linearGradient4241-8)" fill-opacity="1" fill-rule="nonzero" stroke="none" stroke-width="3" color="#000" display="inline" enable-background="accumulate" overflow="visible" visibility="visible" style="marker:none"/><path d="M 48,46.625 C 48,47.384391 42.627417,48 36,48 29.372583,48 24,47.384391 24,46.625 c 0,-0.759391 5.372583,-1.375 12,-1.375 6.627417,0 12,0.615609 12,1.375 z" style="marker:none" id="path8836" fill="url(#radialGradient2415)" fill-opacity="1" fill-rule="evenodd" stroke="none" stroke-width="1" display="inline" opacity=".3" overflow="visible" visibility="visible"/><path id="path11155-5" fill="url(#linearGradient3094)" fill-opacity="1" fill-rule="nonzero" stroke="none" d="M 46.843441,44.277765 37.294944,26.277682 c -0.274455,-0.5 -0.771065,-0.77778 -1.324145,-0.77778 -0.553075,0 -1.052235,0.33333 -1.330855,0.833335 l -9.477397,18.000088 c -0.223085,0.444445 -0.225635,1.05556 0.04905,1.500005 0.27468,0.44445 0.716215,0.66667 1.269296,0.66667 h 19.025888 c 0.55308,0 1.052005,-0.27778 1.275095,-0.722225 0.278385,-0.444445 0.280705,-1.000005 0.06156,-1.50001 z"/><path id="path11159-4" fill="none" stroke="url(#linearGradient3091)" stroke-dasharray="none" stroke-miterlimit="4" stroke-opacity="1" stroke-width="1" d="M 45.554469,43.506436 37.009293,27.915852 C 36.64536,27.222466 36.514831,26.5 35.961755,26.5 c -0.475681,0 -0.724576,0.823993 -1.068333,1.478495 l -8.450324,15.57762 c -0.490695,0.902951 -0.543267,1.138323 -0.307081,1.535746 0.236181,0.397428 0.539433,0.375782 1.659914,0.401703 h 16.60861 c 1.043148,0.01297 1.278124,-0.06692 1.470057,-0.464346 0.2395,-0.397427 0.137629,-0.712731 -0.320129,-1.522782 z" opacity=".6"/><path clip-rule="nonzero" style="isolation:auto;mix-blend-mode:normal;solid-color:#000;solid-opacity:1;marker:none" id="path11155-8" fill="none" fill-opacity="1" fill-rule="nonzero" stroke="#ad5f00" stroke-dasharray="none" stroke-dashoffset="0" stroke-linecap="butt" stroke-linejoin="miter" stroke-miterlimit="4" stroke-opacity="1" stroke-width="1" d="M 46.843441,44.277775 37.294944,26.277777 C 37.020489,25.777779 36.523879,25.5 35.970799,25.5 c -0.553075,0 -1.052235,0.333329 -1.330855,0.833332 l -9.477397,18.000003 c -0.223085,0.444443 -0.225635,1.055555 0.04905,1.499998 C 25.486277,46.277781 25.927812,46.5 26.480892,46.5 h 19.025889 c 0.55308,0 1.052005,-0.277779 1.275095,-0.722222 0.278385,-0.444443 0.280705,-1 0.06156,-1.500003 z" color="#000" color-interpolation="sRGB" color-interpolation-filters="linearRGB" color-rendering="auto" display="inline" enable-background="accumulate" image-rendering="auto" opacity=".5" overflow="visible" shape-rendering="auto" text-rendering="auto" visibility="visible"/><path id="path4159-3-3" fill="#fff" fill-opacity="1" stroke="none" stroke-dasharray="none" stroke-linejoin="round" stroke-miterlimit="4" stroke-opacity=".498" stroke-width="1" d="m 36,33 c -0.717969,0 -1.3,0.596955 -1.3,1.333333 0,1.333334 0.433332,3.111111 0.866667,6.666667 h 0.866665 C 36.866667,37.444444 37.3,35.666667 37.3,34.333333 37.3,33.596955 36.717969,33 36,33 Z m 0,9.333333 c -0.717969,0 -1.3,0.596955 -1.3,1.333334 C 34.7,44.403045 35.282031,45 36,45 c 0.717969,0 1.3,-0.596955 1.3,-1.333333 0,-0.736379 -0.582031,-1.333334 -1.3,-1.333334 z" opacity=".3"/><path id="path4159-3" fill="#7a0000" fill-opacity="1" stroke="none" stroke-dasharray="none" stroke-linejoin="round" stroke-miterlimit="4" stroke-opacity=".498" stroke-width="1" d="m 36,32 c -0.717969,0 -1.3,0.596955 -1.3,1.333333 0,1.333334 0.433332,3.111111 0.866667,6.666667 h 0.866665 C 36.866667,36.444444 37.3,34.666667 37.3,33.333333 37.3,32.596955 36.717969,32 36,32 Z m 0,9.333333 c -0.717969,0 -1.3,0.596955 -1.3,1.333334 C 34.7,43.403045 35.282031,44 36,44 c 0.717969,0 1.3,-0.596955 1.3,-1.333333 0,-0.736379 -0.582031,-1.333334 -1.3,-1.333334 z" opacity="1"/></svg>