<svg xmlns="http://www.w3.org/2000/svg" xmlns:osb="http://www.openswatchbook.org/uri/2009/osb" xmlns:svg="http://www.w3.org/2000/svg" xmlns:xlink="http://www.w3.org/1999/xlink" id="svg4460" width="48" height="48" version="1.1"><defs id="defs4462"><linearGradient id="linearGradient917"><stop id="stop913" offset="0" stop-color="#cd9ef7" stop-opacity="1"/><stop id="stop915" offset="1" stop-color="#a56de2" stop-opacity="1"/></linearGradient><linearGradient id="linearGradient4952"><stop id="stop4954" offset="0" stop-color="#fff" stop-opacity="0"/><stop id="stop4960" offset=".448" stop-color="#fff" stop-opacity=".273"/><stop id="stop4962" offset=".55" stop-color="#fff" stop-opacity="1"/><stop id="stop4964" offset=".721" stop-color="#fff" stop-opacity=".229"/><stop id="stop4966" offset="1" stop-color="#fff" stop-opacity="0"/></linearGradient><linearGradient id="linearGradient4914"><stop id="stop4916" offset="0" stop-color="#fff" stop-opacity="0"/><stop id="stop4918" offset=".143" stop-color="#fff" stop-opacity=".851"/><stop id="stop4920" offset=".346" stop-color="#fff" stop-opacity=".127"/><stop id="stop4922" offset=".645" stop-color="#fff" stop-opacity=".273"/><stop id="stop4924" offset=".728" stop-color="#fff" stop-opacity="1"/><stop id="stop4932" offset=".809" stop-color="#fff" stop-opacity=".229"/><stop id="stop4926" offset="1" stop-color="#fff" stop-opacity="0"/></linearGradient><linearGradient id="linearGradient4878"><stop id="stop4880" offset="0" stop-color="#fff" stop-opacity="1"/><stop id="stop4882" offset="1" stop-color="#fff" stop-opacity="0"/></linearGradient><linearGradient id="linearGradient4834"><stop id="stop4836" offset="0" stop-color="#fff" stop-opacity="0"/><stop id="stop4838" offset=".168" stop-color="#fff" stop-opacity=".851"/><stop id="stop4840" offset=".457" stop-color="#fff" stop-opacity=".127"/><stop id="stop4842" offset=".608" stop-color="#fff" stop-opacity=".273"/><stop id="stop4844" offset=".693" stop-color="#fff" stop-opacity="1"/><stop id="stop4846" offset="1" stop-color="#fff" stop-opacity="0"/></linearGradient><linearGradient id="linearGradient4820"><stop id="stop4822" offset="0" stop-color="#fff" stop-opacity="0"/><stop id="stop4824" offset=".143" stop-color="#fff" stop-opacity=".851"/><stop id="stop4826" offset=".346" stop-color="#fff" stop-opacity=".127"/><stop id="stop4928" offset=".436" stop-color="#fff" stop-opacity="1"/><stop id="stop4930" offset=".581" stop-color="#fff" stop-opacity=".205"/><stop id="stop4828" offset=".725" stop-color="#fff" stop-opacity=".273"/><stop id="stop4830" offset=".84" stop-color="#fff" stop-opacity="1"/><stop id="stop4832" offset="1" stop-color="#fff" stop-opacity="0"/></linearGradient><linearGradient id="linearGradient4804"><stop id="stop4806" offset="0" stop-color="#fff" stop-opacity="0"/><stop id="stop4808" offset=".292" stop-color="#fff" stop-opacity=".851"/><stop id="stop4812" offset=".457" stop-color="#fff" stop-opacity=".127"/><stop id="stop4818" offset=".725" stop-color="#fff" stop-opacity=".273"/><stop id="stop4816" offset=".84" stop-color="#fff" stop-opacity="1"/><stop id="stop4810" offset="1" stop-color="#fff" stop-opacity="0"/></linearGradient><linearGradient id="linearGradient4344" x1="4.49" x2="47.5" y1="23" y2="23" gradientTransform="matrix(0.91421579,0,0,-0.91421579,0.7038908,45.027255)" gradientUnits="userSpaceOnUse" xlink:href="#linearGradient4834"/><linearGradient id="linearGradient4355" x1="47.1" x2="4.287" y1="27.262" y2="27.243" gradientTransform="matrix(0.64644818,0.64644818,-0.64644818,0.64644818,22.400273,-7.35245)" gradientUnits="userSpaceOnUse" xlink:href="#linearGradient4820"/><linearGradient id="linearGradient4362" x1="3.5" x2="47.5" y1="23" y2="23" gradientTransform="matrix(0,0.91421579,0.91421579,0,2.9894266,0.6877848)" gradientUnits="userSpaceOnUse" xlink:href="#linearGradient4804"/><linearGradient id="linearGradient4338-5-6" x1="71.204" x2="71.204" y1="15.369" y2="40.496" gradientTransform="matrix(1.6169806,0,0,1.6169806,-92.70737,-21.060237)" gradientUnits="userSpaceOnUse" xlink:href="#linearGradient4806-2"/><linearGradient id="linearGradient4806-2"><stop id="stop4808-4" offset="0" stop-color="#fff" stop-opacity="1"/><stop id="stop4810-0" offset=".424" stop-color="#fff" stop-opacity=".235"/><stop id="stop4812-8" offset=".821" stop-color="#fff" stop-opacity=".157"/><stop id="stop4814-0" offset="1" stop-color="#fff" stop-opacity=".392"/></linearGradient><linearGradient id="linearGradient3820-7-2-1"><stop id="stop3822-2-6-3" offset="0" stop-color="#3d3d3d" stop-opacity="1"/><stop id="stop3864-8-7-7" offset=".5" stop-color="#686868" stop-opacity=".498"/><stop id="stop3824-1-2-5" offset="1" stop-color="#686868" stop-opacity="0"/></linearGradient><radialGradient id="radialGradient4458" cx="99.157" cy="186.171" r="62.769" fx="99.157" fy="186.171" gradientTransform="matrix(0.27083381,0,0,0.08762273,-2.855072,25.187228)" gradientUnits="userSpaceOnUse" xlink:href="#linearGradient3820-7-2-1"/><linearGradient id="linearGradient4526" osb:paint="solid"><stop id="stop4528" offset="0" stop-color="#fff" stop-opacity="1"/></linearGradient><radialGradient id="radialGradient4884" cx="32.704" cy="20.069" r="2.5" fx="32.704" fy="20.069" gradientTransform="translate(1.0625,-3.1249992)" gradientUnits="userSpaceOnUse" xlink:href="#linearGradient4878"/><radialGradient id="radialGradient4894" cx="32.704" cy="20.069" r="2.5" fx="32.704" fy="20.069" gradientTransform="translate(-21.141189,-2.194281)" gradientUnits="userSpaceOnUse" xlink:href="#linearGradient4878"/><linearGradient id="linearGradient4898" x1="5.551" x2="44.629" y1="58.276" y2="22.18" gradientTransform="matrix(0,0.91421579,0.91421579,0,-8.9347959,0.6877848)" gradientUnits="userSpaceOnUse" xlink:href="#linearGradient4914"/><radialGradient id="radialGradient4938" cx="32.704" cy="20.069" r="2.5" fx="32.704" fy="20.069" gradientTransform="translate(-13.4375,12.000001)" gradientUnits="userSpaceOnUse" xlink:href="#linearGradient4878"/><linearGradient id="linearGradient4946" x1="5.551" x2="44.629" y1="58.276" y2="22.18" gradientTransform="matrix(0,-0.91421579,-0.91421579,0,40.205157,48.447713)" gradientUnits="userSpaceOnUse" xlink:href="#linearGradient4914"/><linearGradient id="linearGradient4950" x1="25.177" x2="40.761" y1="48.221" y2="17.055" gradientTransform="matrix(0,0.91421579,0.91421579,0,1.161839,5.6121823)" gradientUnits="userSpaceOnUse" xlink:href="#linearGradient4952"/><linearGradient id="linearGradient8838"><stop id="stop8840" offset="0" stop-color="#000" stop-opacity="1"/><stop id="stop8842" offset="1" stop-color="#000" stop-opacity="0"/></linearGradient><linearGradient id="linearGradient3117-8"><stop id="stop3119-9" offset="0" stop-color="#fff" stop-opacity="1"/><stop id="stop3121-9" offset=".569" stop-color="#fff" stop-opacity=".235"/><stop id="stop3123-6" offset=".933" stop-color="#fff" stop-opacity=".157"/><stop id="stop3125-3" offset="1" stop-color="#fff" stop-opacity=".392"/></linearGradient><linearGradient id="linearGradient3091" x1="29.127" x2="29.291" y1="19.788" y2="57.567" gradientTransform="matrix(0.49373581,0,-0.00214922,0.51518426,21.661617,16.574027)" gradientUnits="userSpaceOnUse" xlink:href="#linearGradient3117-8"/><linearGradient id="linearGradient3094" x1="24" x2="24" y1="2.011" y2="44.532" gradientTransform="matrix(0.48890916,0,0,0.48839827,24.266182,24.742322)" gradientUnits="userSpaceOnUse" xlink:href="#linearGradient4171"/><linearGradient id="linearGradient4171"><stop id="stop4173" offset="0" stop-color="#ffe16b" stop-opacity="1"/><stop id="stop4175" offset="1" stop-color="#f9c440" stop-opacity="1"/></linearGradient><radialGradient id="radialGradient2415-3" cx="62.625" cy="4.625" r="10.625" fx="62.625" fy="4.625" gradientTransform="matrix(1.1294118,0,0,0.12941156,-34.729414,46.026471)" gradientUnits="userSpaceOnUse" xlink:href="#linearGradient8838"/><linearGradient id="linearGradient919" x1="24.826" x2="24.826" y1="3.703" y2="44.434" gradientUnits="userSpaceOnUse" xlink:href="#linearGradient917"/></defs><metadata id="metadata4465"/><path id="path3818-0-5" fill="url(#radialGradient4458)" fill-opacity="1" stroke="none" d="m 40.999999,41.499999 a 17,5.4999999 0 1 1 -33.999999,0 17,5.4999999 0 1 1 33.999999,0 z"/><path id="path2555" fill="url(#linearGradient919)" fill-opacity="1" fill-rule="nonzero" stroke="none" stroke-width="1" d="M 24.000003,3.4999985 C 12.68881,3.4999985 3.5,12.688804 3.5,23.999997 3.5,35.311193 12.68881,44.500003 24.000003,44.5 35.311192,44.5 44.50001,35.311193 44.5,23.999997 44.5,12.688804 35.311192,3.4999985 24.000003,3.4999985 Z" color="#000" display="inline" enable-background="accumulate" overflow="visible" visibility="visible" style="marker:none"/><path id="path3871" fill="none" fill-opacity="1" fill-rule="nonzero" stroke="#7239b3" stroke-dasharray="none" stroke-dashoffset="0" stroke-linecap="butt" stroke-linejoin="miter" stroke-miterlimit="4" stroke-opacity="1" stroke-width="1" d="m 24,3.5 c -11.311193,0 -20.5,9.188806 -20.5,20.499999 0,11.311193 9.188807,20.500004 20.5,20.5 11.311191,0 20.500007,-9.188807 20.5,-20.5 C 44.5,12.688806 35.311191,3.5 24,3.5 Z" clip-rule="nonzero" color="#000" color-interpolation="sRGB" color-interpolation-filters="linearRGB" color-rendering="auto" display="inline" enable-background="accumulate" image-rendering="auto" opacity=".5" overflow="visible" shape-rendering="auto" text-rendering="auto" visibility="visible" style="marker:none;isolation:auto;mix-blend-mode:normal;solid-color:#000;solid-opacity:1;filter-blend-mode:normal;filter-gaussianBlur-deviation:0"/><path id="path3026" fill="none" stroke="url(#linearGradient4338-5-6)" stroke-dasharray="none" stroke-dashoffset="0" stroke-linecap="round" stroke-linejoin="round" stroke-miterlimit="4" stroke-opacity="1" stroke-width="1" d="M 43.5,24.000001 C 43.5,34.769552 34.769544,43.499997 23.999991,43.499997 13.230451,43.499997 4.5,34.769552 4.5,24.000001 4.5,13.23045 13.230451,4.500002 23.999991,4.500002 34.769544,4.500002 43.5,13.23045 43.5,24.000001 Z" color="#000" display="inline" enable-background="accumulate" opacity=".5" overflow="visible" visibility="visible" style="marker:none"/><path id="path3609" fill="none" stroke="url(#linearGradient4362)" stroke-dasharray="none" stroke-dashoffset="0" stroke-linecap="round" stroke-linejoin="round" stroke-miterlimit="4" stroke-opacity="1" stroke-width="1" d="M 25.66237,44.280289 C 39.865018,30.291724 34.395322,3.3288351 23.995534,4.3447046" opacity="1"/><path id="path3611" fill="none" stroke="url(#linearGradient4355)" stroke-dasharray="none" stroke-dashoffset="0" stroke-linecap="round" stroke-linejoin="round" stroke-miterlimit="4" stroke-opacity="1" stroke-width="1" d="M 37.91503,37.898924 C 30.473392,45.091113 3.5493277,24.34139 13.157885,7.451834" opacity="1"/><path id="path2835" fill="none" stroke="url(#linearGradient4344)" stroke-dasharray="none" stroke-dashoffset="0" stroke-linecap="round" stroke-linejoin="round" stroke-miterlimit="4" stroke-opacity="1" stroke-width="1" d="M 43.232557,20.156589 C 32.592196,12.514232 3.4326978,15.443472 4.3822544,24.406406"/><path id="path3781-5-4" fill="url(#radialGradient4884)" fill-opacity="1" fill-rule="nonzero" stroke="none" stroke-dasharray="none" stroke-dashoffset="0" stroke-linecap="round" stroke-linejoin="round" stroke-miterlimit="4" stroke-opacity=".521" stroke-width="1" d="m 36.266189,16.944282 a 2.5,2.4999999 0 0 1 -5,0 2.5,2.4999999 0 1 1 5,0 z" color="#000" display="inline" enable-background="accumulate" opacity="1" overflow="visible" visibility="visible" style="marker:none"/><path id="path4892" fill="url(#radialGradient4894)" fill-opacity="1" fill-rule="nonzero" stroke="none" stroke-dasharray="none" stroke-dashoffset="0" stroke-linecap="round" stroke-linejoin="round" stroke-miterlimit="4" stroke-opacity=".521" stroke-width="1" d="m 14.0625,17.875 a 2.5,2.4999999 0 0 1 -5,0 2.5,2.4999999 0 1 1 5,0 z" color="#000" display="inline" enable-background="accumulate" opacity="1" overflow="visible" visibility="visible" style="marker:none"/><path id="path4896" fill="none" stroke="url(#linearGradient4898)" stroke-dasharray="none" stroke-dashoffset="0" stroke-linecap="round" stroke-linejoin="round" stroke-miterlimit="4" stroke-opacity="1" stroke-width="1" d="M 8.238148,36.030289 C 22.34765,33.555365 33.2211,19.828835 33.821312,16.469705" opacity="1"/><path id="path4936" fill="url(#radialGradient4938)" fill-opacity="1" fill-rule="nonzero" stroke="none" stroke-dasharray="none" stroke-dashoffset="0" stroke-linecap="round" stroke-linejoin="round" stroke-miterlimit="4" stroke-opacity=".521" stroke-width="1" d="m 21.766189,32.069282 a 2.5,2.4999999 0 0 1 -5,0 2.5,2.4999999 0 1 1 5,0 z" color="#000" display="inline" enable-background="accumulate" opacity="1" overflow="visible" visibility="visible" style="marker:none"/><path id="path4944" fill="none" stroke="url(#linearGradient4946)" stroke-dasharray="none" stroke-dashoffset="0" stroke-linecap="round" stroke-linejoin="round" stroke-miterlimit="4" stroke-opacity="1" stroke-width="1" d="M 26.037417,4.6199276 C 10.470502,7.8235577 4.6070276,32.922071 7.3485435,35.936162" opacity="1"/><path id="path4948" fill="none" stroke="url(#linearGradient4950)" stroke-dasharray="none" stroke-dashoffset="0" stroke-linecap="round" stroke-linejoin="round" stroke-miterlimit="4" stroke-opacity="1" stroke-width="1" d="M 15.520443,41.863065 C 19.674695,42.65856 39.530776,38.908349 43.555064,24.681791" opacity="1"/><path id="path8836" fill="url(#radialGradient2415-3)" fill-opacity="1" fill-rule="evenodd" stroke="none" stroke-width="1" d="M 48,46.625 C 48,47.384391 42.627417,48 36,48 29.372583,48 24,47.384391 24,46.625 c 0,-0.759391 5.372583,-1.375 12,-1.375 6.627417,0 12,0.615609 12,1.375 z" display="inline" opacity=".3" overflow="visible" visibility="visible" style="marker:none"/><path id="path11155-5" fill="url(#linearGradient3094)" fill-opacity="1" fill-rule="nonzero" stroke="none" d="M 46.843441,44.277765 37.294944,26.277682 c -0.274455,-0.5 -0.771065,-0.77778 -1.324145,-0.77778 -0.553075,0 -1.052235,0.33333 -1.330855,0.833335 l -9.477397,18.000088 c -0.223085,0.444445 -0.225635,1.05556 0.04905,1.500005 0.27468,0.44445 0.716215,0.66667 1.269296,0.66667 l 19.025888,0 c 0.55308,0 1.052005,-0.27778 1.275095,-0.722225 0.278385,-0.444445 0.280705,-1.000005 0.06156,-1.50001 z"/><path id="path11159-4" fill="none" stroke="url(#linearGradient3091)" stroke-dasharray="none" stroke-miterlimit="4" stroke-opacity="1" stroke-width="1" d="M 45.554469,43.506436 37.009293,27.915852 C 36.64536,27.222466 36.514831,26.5 35.961755,26.5 c -0.475681,0 -0.724576,0.823993 -1.068333,1.478495 l -8.450324,15.57762 c -0.490695,0.902951 -0.543267,1.138323 -0.307081,1.535746 0.236181,0.397428 0.539433,0.375782 1.659914,0.401703 l 16.60861,0 c 1.043148,0.01297 1.278124,-0.06692 1.470057,-0.464346 0.2395,-0.397427 0.137629,-0.712731 -0.320129,-1.522782 z" opacity=".6"/><path id="path11155-8" fill="none" fill-opacity="1" fill-rule="nonzero" stroke="#ad5f00" stroke-dasharray="none" stroke-dashoffset="0" stroke-linecap="butt" stroke-linejoin="miter" stroke-miterlimit="4" stroke-opacity="1" stroke-width="1" d="M 46.843441,44.277775 37.294944,26.277777 C 37.020489,25.777779 36.523879,25.5 35.970799,25.5 c -0.553075,0 -1.052235,0.333329 -1.330855,0.833332 l -9.477397,18.000003 c -0.223085,0.444443 -0.225635,1.055555 0.04905,1.499998 C 25.486277,46.277781 25.927812,46.5 26.480892,46.5 l 19.025889,0 c 0.55308,0 1.052005,-0.277779 1.275095,-0.722222 0.278385,-0.444443 0.280705,-1 0.06156,-1.500003 z" clip-rule="nonzero" color="#000" color-interpolation="sRGB" color-interpolation-filters="linearRGB" color-rendering="auto" display="inline" enable-background="accumulate" image-rendering="auto" opacity=".5" overflow="visible" shape-rendering="auto" text-rendering="auto" visibility="visible" style="isolation:auto;mix-blend-mode:normal;solid-color:#000;solid-opacity:1;marker:none"/><path id="path4159-3-3" fill="#fff" fill-opacity="1" stroke="none" stroke-dasharray="none" stroke-linejoin="round" stroke-miterlimit="4" stroke-opacity=".498" stroke-width="1" d="m 36,33 c -0.717969,0 -1.3,0.596955 -1.3,1.333333 0,1.333334 0.433332,3.111111 0.866667,6.666667 l 0.866665,0 C 36.866667,37.444444 37.3,35.666667 37.3,34.333333 37.3,33.596955 36.717969,33 36,33 Z m 0,9.333333 c -0.717969,0 -1.3,0.596955 -1.3,1.333334 C 34.7,44.403045 35.282031,45 36,45 c 0.717969,0 1.3,-0.596955 1.3,-1.333333 0,-0.736379 -0.582031,-1.333334 -1.3,-1.333334 z" opacity=".3"/><path id="path4159-3" fill="#7a0000" fill-opacity="1" stroke="none" stroke-dasharray="none" stroke-linejoin="round" stroke-miterlimit="4" stroke-opacity=".498" stroke-width="1" d="m 36,32 c -0.717969,0 -1.3,0.596955 -1.3,1.333333 0,1.333334 0.433332,3.111111 0.866667,6.666667 l 0.866665,0 C 36.866667,36.444444 37.3,34.666667 37.3,33.333333 37.3,32.596955 36.717969,32 36,32 Z m 0,9.333333 c -0.717969,0 -1.3,0.596955 -1.3,1.333334 C 34.7,43.403045 35.282031,44 36,44 c 0.717969,0 1.3,-0.596955 1.3,-1.333333 0,-0.736379 -0.582031,-1.333334 -1.3,-1.333334 z" opacity="1"/></svg>