<svg xmlns="http://www.w3.org/2000/svg" xmlns:svg="http://www.w3.org/2000/svg" id="svg4031" width="48" height="48" version="1.1"><defs id="defs4033"><filter id="filter3174" color-interpolation-filters="sRGB"><feGaussianBlur id="feGaussianBlur3176" stdDeviation="1.71"/></filter><filter id="filter3174-4" color-interpolation-filters="sRGB"><feGaussianBlur id="feGaussianBlur3176-5" stdDeviation="1.71"/></filter></defs><metadata id="metadata4036"/><path id="path2555-7-8-5-0-9-2-7" fill="#666" fill-opacity="1" fill-rule="nonzero" stroke="none" stroke-dasharray="none" stroke-dashoffset="0" stroke-linecap="butt" stroke-linejoin="miter" stroke-miterlimit="4" stroke-opacity="1" stroke-width="1" d="M 23.5 9 C 23.223 9 23 9.223 23 9.5 L 23 12.5 C 23 12.777 23.223 13 23.5 13 L 24.5 13 C 24.777 13 25 12.777 25 12.5 L 25 9.5 C 25 9.223 24.777 9 24.5 9 L 23.5 9 z M 14.099609 12.892578 C 13.9718 12.892578 13.844028 12.941128 13.746094 13.039062 L 13.039062 13.746094 C 12.843193 13.941962 12.843193 14.257257 13.039062 14.453125 L 15.162109 16.576172 C 15.357978 16.77204 15.673272 16.77204 15.869141 16.576172 L 16.576172 15.869141 C 16.77204 15.673272 16.77204 15.357978 16.576172 15.162109 L 14.453125 13.039062 C 14.355191 12.941129 14.227419 12.892578 14.099609 12.892578 z M 33.900391 12.892578 C 33.772581 12.892578 33.644809 12.941128 33.546875 13.039062 L 31.423828 15.162109 C 31.22796 15.357978 31.22796 15.673272 31.423828 15.869141 L 32.130859 16.576172 C 32.326728 16.77204 32.642022 16.77204 32.837891 16.576172 L 34.960938 14.453125 C 35.156807 14.257257 35.156807 13.941962 34.960938 13.746094 L 34.253906 13.039062 C 34.155972 12.941129 34.0282 12.892578 33.900391 12.892578 z M 24 15 C 19.034104 15 15 19.03411 15 24 C 15 28.965892 19.034104 33 24 33 C 28.965886 33 33.000011 28.965892 33 24 C 33 19.03411 28.965886 15 24 15 z M 23.837891 16.738281 C 23.883791 16.737847 23.930662 16.737847 23.976562 16.738281 L 23.988281 16.738281 C 22.455171 17.882688 21.549913 19.680615 21.546875 21.59375 C 21.545375 24.948991 24.265852 27.671725 27.621094 27.671875 C 28.708138 27.669175 29.774529 27.373756 30.708984 26.818359 C 28.48844 32.1678 21.216732 32.914983 17.955078 28.128906 C 14.693424 23.342829 18.046931 16.84858 23.837891 16.738281 z M 9.5 23 C 9.223 23 9 23.223 9 23.5 L 9 24.5 C 9 24.777 9.223 25 9.5 25 L 12.5 25 C 12.777 25 13 24.777 13 24.5 L 13 23.5 C 13 23.223 12.777 23 12.5 23 L 9.5 23 z M 35.5 23 C 35.223 23 35 23.223 35 23.5 L 35 24.5 C 35 24.777 35.223 25 35.5 25 L 38.5 25 C 38.777 25 39 24.777 39 24.5 L 39 23.5 C 39 23.223 38.777 23 38.5 23 L 35.5 23 z M 15.515625 31.277344 C 15.387815 31.277344 15.260044 31.325894 15.162109 31.423828 L 13.039062 33.546875 C 12.843193 33.742743 12.843193 34.058038 13.039062 34.253906 L 13.746094 34.960938 C 13.941962 35.156807 14.257257 35.156807 14.453125 34.960938 L 16.576172 32.837891 C 16.77204 32.642022 16.77204 32.326728 16.576172 32.130859 L 15.869141 31.423828 C 15.771206 31.325894 15.643435 31.277344 15.515625 31.277344 z M 32.484375 31.277344 C 32.356566 31.277344 32.228794 31.325894 32.130859 31.423828 L 31.423828 32.130859 C 31.22796 32.326728 31.22796 32.642022 31.423828 32.837891 L 33.546875 34.960938 C 33.742743 35.156807 34.058038 35.156807 34.253906 34.960938 L 34.960938 34.253906 C 35.156807 34.058038 35.156807 33.742743 34.960938 33.546875 L 32.837891 31.423828 C 32.739956 31.325894 32.612184 31.277344 32.484375 31.277344 z M 23.5 35 C 23.223 35 23 35.223 23 35.5 L 23 38.5 C 23 38.777 23.223 39 23.5 39 L 24.5 39 C 24.777 39 25 38.777 25 38.5 L 25 35.5 C 25 35.223 24.777 35 24.5 35 L 23.5 35 z" color="#000" display="inline" enable-background="accumulate" opacity="1" overflow="visible" vector-effect="none" visibility="visible" style="marker:none;font-variant-east_asian:normal"/><rect id="rect3745" width="86" height="85" x="881.273" y="-22.045" fill="#ffb380" fill-opacity="1" fill-rule="nonzero" stroke="none" filter="url(#filter3174)" opacity=".9" rx="6" ry="6"/><rect id="rect3745-5" width="86" height="85" x="878" y="-22.409" fill="#ffb380" fill-opacity="1" fill-rule="nonzero" stroke="none" filter="url(#filter3174-4)" opacity=".9" rx="6" ry="6"/></svg>