<svg xmlns="http://www.w3.org/2000/svg" xmlns:svg="http://www.w3.org/2000/svg" id="svg2" width="48" height="48" version="1.1"><metadata id="metadata7"/><path id="path4138" fill="#4d4d4d" fill-opacity="1" fill-rule="nonzero" stroke="none" stroke-width="1" d="M 24 11.84375 C 18.293156 11.84375 13.063358 14.036579 9 17.689453 L 11.591797 20.607422 C 15.215229 17.430527 19.027154 15.84375 24 15.84375 C 28.972846 15.84375 32.667886 17.338302 36.464844 20.671875 L 39 17.689453 C 34.936642 14.036579 29.706842 11.84375 24 11.84375 z M 24 19.84375 C 20.304224 19.84375 16.991149 21.317056 14.269531 23.566406 L 16.919922 26.392578 C 18.732662 25.094233 21.552354 23.84375 23.892578 23.84375 C 26.289412 23.84375 29.245524 25.124 31.083984 26.480469 L 33.8125 23.525391 C 31.090882 21.276041 27.695776 19.84375 24 19.84375 z" color="#000" display="inline" enable-background="accumulate" opacity=".4" overflow="visible" visibility="visible" style="marker:none"/><path id="path4136" fill="#4d4d4d" fill-opacity="1" fill-rule="nonzero" stroke="none" stroke-width="1" d="m 24,27.84375 c -1.767568,0 -3.515934,0.925321 -4.236328,1.720703 L 24,34.171875 28.277344,29.607422 C 27.55695,28.770916 25.767568,27.84375 24,27.84375 Z" color="#000" display="inline" enable-background="accumulate" overflow="visible" visibility="visible" style="marker:none"/></svg>