<svg xmlns="http://www.w3.org/2000/svg" xmlns:svg="http://www.w3.org/2000/svg" id="svg2" width="48" height="48" version="1.1"><metadata id="metadata7"/><path id="path4138" fill="#4d4d4d" fill-opacity="1" fill-rule="nonzero" stroke="none" stroke-width="1" d="m 24.00003,11.843768 c -5.706844,0 -10.936642,2.19268 -15.0000003,5.845554 l 2.5918333,2.918725 c 3.623432,-3.176895 7.435321,-4.764281 12.408167,-4.764281 4.972846,0 8.668762,1.494998 12.46572,4.828571 l 2.53428,-2.983015 c -4.063358,-3.652874 -9.293158,-5.845554 -15,-5.845554 z" color="#000" display="inline" enable-background="accumulate" opacity=".4" overflow="visible" visibility="visible" style="marker:none"/><path id="path4136" fill="#4d4d4d" fill-opacity="1" fill-rule="nonzero" stroke="none" stroke-width="1" d="M 24 19.84375 C 20.304224 19.84375 16.991149 21.317056 14.269531 23.566406 L 16.919922 26.392578 C 18.732662 25.094233 21.552354 23.84375 23.892578 23.84375 C 26.289412 23.84375 29.245524 25.124 31.083984 26.480469 L 33.8125 23.525391 C 31.090882 21.276041 27.695776 19.84375 24 19.84375 z M 24 27.84375 C 22.232432 27.84375 20.484066 28.769071 19.763672 29.564453 L 24 34.171875 L 28.277344 29.607422 C 27.55695 28.770916 25.767568 27.84375 24 27.84375 z" color="#000" display="inline" enable-background="accumulate" overflow="visible" visibility="visible" style="marker:none"/></svg>