<svg xmlns="http://www.w3.org/2000/svg" xmlns:svg="http://www.w3.org/2000/svg" id="svg4073" width="48" height="48" version="1.0"><metadata id="metadata18"/><path d="m 18,11 0,10 4,0 0,2 -14,0 0,2 6,0 0,2 -4,0 0,10 12,0 0,-10 -4,0 0,-2 12,0 0,2 -4,0 0,10 12,0 0,-10 -4,0 0,-2 6,0 0,-2 -14,0 0,-2 4,0 0,-10 z m 2,2 8,0 0,6 -8,0 z m -8,16 8,0 0,6 -8,0 z m 16,0 8,0 0,6 -8,0 z" style="marker:none" id="rect2986" fill="#4d4d4d" fill-opacity="1" fill-rule="nonzero" stroke="none" stroke-width="1" color="#000" display="inline" enable-background="accumulate" overflow="visible" visibility="visible"/></svg>