<svg xmlns="http://www.w3.org/2000/svg" xmlns:svg="http://www.w3.org/2000/svg" xmlns:xlink="http://www.w3.org/1999/xlink" id="svg2" width="48" height="48" version="1.1"><defs id="defs4"><linearGradient id="ButtonShadow-9" x1="45.448" x2="45.448" y1="92.54" y2="7.017" gradientTransform="scale(1.0058652,0.994169)" gradientUnits="userSpaceOnUse"><stop id="stop3750-3" offset="0" stop-color="#000" stop-opacity="1"/><stop id="stop3752-1" offset="1" stop-color="#000" stop-opacity=".588"/></linearGradient><filter id="filter3174-4" color-interpolation-filters="sRGB"><feGaussianBlur id="feGaussianBlur3176-5" stdDeviation="1.71"/></filter><linearGradient id="ButtonShadow" x1="45.448" x2="45.448" y1="92.54" y2="7.017" gradientTransform="scale(1.0058652,0.994169)" gradientUnits="userSpaceOnUse"><stop id="stop3750-9" offset="0" stop-color="#000" stop-opacity="1"/><stop id="stop3752-7" offset="1" stop-color="#000" stop-opacity=".588"/></linearGradient><filter id="filter3174" color-interpolation-filters="sRGB"><feGaussianBlur id="feGaussianBlur3176" stdDeviation="1.71"/></filter><linearGradient id="linearGradient6176" x1="45.448" x2="45.448" y1="92.54" y2="7.017" gradientTransform="scale(1.0058652,0.994169)" gradientUnits="userSpaceOnUse" xlink:href="#ButtonShadow-9"/><linearGradient id="linearGradient6178" x1="45.448" x2="45.448" y1="92.54" y2="7.017" gradientTransform="scale(1.0058652,0.994169)" gradientUnits="userSpaceOnUse" xlink:href="#ButtonShadow"/></defs><metadata id="metadata7"/><g id="layer1" transform="translate(473.00006,-641.36218)"><g id="layer2" display="none" transform="translate(403.27272,612.31676)"><rect id="rect3745" width="86" height="85" x="5" y="7" fill="url(#linearGradient6178)" fill-opacity="1" fill-rule="nonzero" stroke="none" filter="url(#filter3174)" opacity=".9" rx="6" ry="6"/></g><g id="layer2-4" display="none" transform="translate(400,611.95312)"><rect id="rect3745-5" width="86" height="85" x="5" y="7" fill="url(#linearGradient6176)" fill-opacity="1" fill-rule="nonzero" stroke="none" filter="url(#filter3174-4)" opacity=".9" rx="6" ry="6"/></g><path id="path6945-2" fill="#4d4d4d" fill-opacity="1" fill-rule="nonzero" stroke="none" stroke-width="1.823" d="m -434.00005,665.36218 c 0,-6.44934 -2.40943,-11.96372 -5.89201,-14.49898 l -2.3106,2.07954 c 2.99882,2.12352 5.08331,6.90528 5.08331,12.41944 0,5.51414 -2.08449,10.29594 -5.08331,12.41944 l 2.3106,2.07954 c 3.48258,-2.53528 5.89201,-8.04966 5.89201,-14.49898 z" color="#bebebe" display="inline" enable-background="accumulate" opacity=".4" overflow="visible" visibility="visible" style="marker:none"/><path id="path6943-6" fill="#4d4d4d" fill-opacity="1" fill-rule="nonzero" stroke="none" stroke-width="1.823" d="m -440.12312,665.36218 c 0,-4.36152 -1.65753,-8.16926 -4.15907,-10.57098 l -2.1373,1.90624 c 1.93073,2.05332 3.17707,5.1655 3.17707,8.66474 0,3.49924 -1.24634,6.6114 -3.17707,8.66472 l 2.1373,1.90624 c 2.50154,-2.4017 4.15907,-6.20946 4.15907,-10.57096 z" color="#bebebe" display="inline" enable-background="accumulate" opacity=".4" overflow="visible" visibility="visible" style="marker:none"/><path id="path6941-5" fill="#4d4d4d" fill-opacity="1" fill-rule="nonzero" stroke="none" stroke-width="1.823" d="M 19 13.25 L 12.3125 20 L 9 20 L 9 28 L 12.3125 28 L 19 34.75 L 19 13.25 z M 24.6875 17 L 22.46875 18.96875 C 23.3334 20.41419 23.875 22.15076 23.875 24 C 23.875 25.84922 23.3334 27.58579 22.46875 29.03125 L 24.6875 31 C 26.11935 29.09438 27 26.65142 27 24 C 27 21.34858 26.11935 18.90562 24.6875 17 z" color="#bebebe" display="inline" enable-background="accumulate" overflow="visible" transform="translate(-473.00006,641.36218)" visibility="visible" style="marker:none"/></g></svg>