<svg xmlns="http://www.w3.org/2000/svg" xmlns:svg="http://www.w3.org/2000/svg" xmlns:xlink="http://www.w3.org/1999/xlink" id="svg2" width="48" height="48" version="1.2"><defs id="defs4"><linearGradient id="ButtonShadow-9" x1="45.448" x2="45.448" y1="92.54" y2="7.017" gradientTransform="scale(1.0058652,0.994169)" gradientUnits="userSpaceOnUse"><stop id="stop3750-3" offset="0" stop-color="#000" stop-opacity="1"/><stop id="stop3752-1" offset="1" stop-color="#000" stop-opacity=".588"/></linearGradient><filter id="filter3174-4" color-interpolation-filters="sRGB"><feGaussianBlur id="feGaussianBlur3176-5" stdDeviation="1.71"/></filter><linearGradient id="ButtonShadow" x1="45.448" x2="45.448" y1="92.54" y2="7.017" gradientTransform="scale(1.0058652,0.994169)" gradientUnits="userSpaceOnUse"><stop id="stop3750-9" offset="0" stop-color="#000" stop-opacity="1"/><stop id="stop3752-7" offset="1" stop-color="#000" stop-opacity=".588"/></linearGradient><filter id="filter3174" color-interpolation-filters="sRGB"><feGaussianBlur id="feGaussianBlur3176" stdDeviation="1.71"/></filter><linearGradient id="linearGradient6176" x1="45.448" x2="45.448" y1="92.54" y2="7.017" gradientTransform="scale(1.0058652,0.994169)" gradientUnits="userSpaceOnUse" xlink:href="#ButtonShadow-9"/><linearGradient id="linearGradient6178" x1="45.448" x2="45.448" y1="92.54" y2="7.017" gradientTransform="scale(1.0058652,0.994169)" gradientUnits="userSpaceOnUse" xlink:href="#ButtonShadow"/></defs><metadata id="metadata7"/><g id="layer1" transform="translate(473.00006,-641.36218)"><g id="layer2" display="none" transform="translate(403.27272,612.31676)"><rect id="rect3745" width="86" height="85" x="5" y="7" fill="url(#linearGradient6178)" fill-opacity="1" fill-rule="nonzero" stroke="none" filter="url(#filter3174)" opacity=".9" rx="6" ry="6"/></g><g id="layer2-4" display="none" transform="translate(400,611.95312)"><rect id="rect3745-5" width="86" height="85" x="5" y="7" fill="url(#linearGradient6176)" fill-opacity="1" fill-rule="nonzero" stroke="none" filter="url(#filter3174-4)" opacity=".9" rx="6" ry="6"/></g><path id="path6945-2" fill="#4d4d4d" fill-opacity="1" fill-rule="nonzero" stroke="none" stroke-width="1.823" d="M 33.09375,9.5 30.8125,11.59375 C 33.81132,13.71727 35.875,18.48584 35.875,24 c 0,5.51414 -2.06368,10.28275 -5.0625,12.40625 L 33.09375,38.5 C 36.57633,35.96472 39,30.44932 39,24 39,17.55066 36.57633,12.03526 33.09375,9.5 z M 19,13.25 12.3125,20 9,20 9,28 12.3125,28 19,34.75 19,13.25 z m 9.71875,0.1875 -2.125,1.90625 C 28.52448,17.39707 29.75,20.50076 29.75,24 c 0,3.49924 -1.22552,6.60293 -3.15625,8.65625 l 2.125,1.90625 C 31.22029,32.1608 32.875,28.3615 32.875,24 c 0,-4.36152 -1.65471,-8.16078 -4.15625,-10.5625 z M 24.6875,17 22.46875,18.96875 C 23.3334,20.41419 23.875,22.15076 23.875,24 c 0,1.84922 -0.5416,3.58579 -1.40625,5.03125 L 24.6875,31 C 26.11935,29.09438 27,26.65142 27,24 27,21.34858 26.11935,18.90562 24.6875,17 z" color="#bebebe" display="inline" enable-background="accumulate" overflow="visible" transform="translate(-473.00006,641.36218)" visibility="visible" style="marker:none"/></g></svg>