<svg xmlns="http://www.w3.org/2000/svg" xmlns:svg="http://www.w3.org/2000/svg" xmlns:xlink="http://www.w3.org/1999/xlink" id="svg11300" width="48" height="48" version="1.0"><metadata id="metadata99"/><defs id="defs3"><linearGradient id="linearGradient3512"><stop id="stop3514" offset="0" stop-color="#fff" stop-opacity="1"/><stop id="stop3516" offset=".034" stop-color="#fff" stop-opacity=".235"/><stop id="stop3518" offset="1" stop-color="#fff" stop-opacity=".157"/><stop id="stop3520" offset="1" stop-color="#fff" stop-opacity=".392"/></linearGradient><linearGradient id="linearGradient3688-464-309-7"><stop id="stop2889-0" offset="0" stop-color="#181818" stop-opacity="1"/><stop id="stop2891-66" offset="1" stop-color="#181818" stop-opacity="0"/></linearGradient><linearGradient id="linearGradient3702-501-757-3"><stop id="stop2895-3" offset="0" stop-color="#181818" stop-opacity="0"/><stop id="stop2897-28" offset=".5" stop-color="#181818" stop-opacity="1"/><stop id="stop2899-8" offset="1" stop-color="#181818" stop-opacity="0"/></linearGradient><linearGradient id="linearGradient2867-449-88-871-390-598-476-591-434-148-57-177-8-3-3-6-4-8-8-8-5-9-4-5"><stop id="stop3750-1-0-7-6-6-1-3-9-3-3-3-6" offset="0" stop-color="#505050" stop-opacity="1"/><stop id="stop3752-3-7-4-0-32-8-923-0-7-1-1-4" offset=".262" stop-color="#2b2b2b" stop-opacity="1"/><stop id="stop3754-1-8-5-2-7-6-7-1-9-8-6-2" offset=".705" stop-color="#0a0a0a" stop-opacity="1"/><stop id="stop3756-1-6-2-6-6-1-96-6-0-0-6-2" offset="1" stop-color="#000" stop-opacity="1"/></linearGradient><linearGradient id="linearGradient3924-0-9-4"><stop id="stop3926-6-0-8" offset="0" stop-color="#fff" stop-opacity="1"/><stop id="stop3928-3-5-9" offset=".063" stop-color="#fff" stop-opacity=".235"/><stop id="stop3930-2-1-9" offset=".951" stop-color="#fff" stop-opacity=".157"/><stop id="stop3932-62-5-8" offset="1" stop-color="#fff" stop-opacity=".392"/></linearGradient><linearGradient id="linearGradient3600-4-3"><stop id="stop3602-7-9" offset="0" stop-color="#f4f4f4" stop-opacity="1"/><stop id="stop3604-6-6" offset="1" stop-color="#dbdbdb" stop-opacity="1"/></linearGradient><linearGradient id="linearGradient3977-6"><stop id="stop3979-5" offset="0" stop-color="#fff" stop-opacity="1"/><stop id="stop3981-9" offset=".036" stop-color="#fff" stop-opacity=".235"/><stop id="stop3983-2" offset=".951" stop-color="#fff" stop-opacity=".157"/><stop id="stop3985-4" offset="1" stop-color="#fff" stop-opacity=".392"/></linearGradient><linearGradient id="linearGradient3977"><stop id="stop3979" offset="0" stop-color="#fff" stop-opacity="1"/><stop id="stop3981" offset=".036" stop-color="#fff" stop-opacity=".235"/><stop id="stop3983" offset=".951" stop-color="#fff" stop-opacity=".157"/><stop id="stop3985" offset="1" stop-color="#fff" stop-opacity=".392"/></linearGradient><linearGradient id="linearGradient3600-4"><stop id="stop3602-7" offset="0" stop-color="#f4f4f4" stop-opacity="1"/><stop id="stop3604-6" offset="1" stop-color="#dbdbdb" stop-opacity="1"/></linearGradient><linearGradient id="linearGradient4251-1"><stop id="stop4253-8" offset="0" stop-color="#000" stop-opacity="1"/><stop id="stop4255-2" offset="1" stop-color="#000" stop-opacity="0"/></linearGradient><linearGradient id="linearGradient3471" x1="25.058" x2="25.058" y1="47.028" y2="39.999" gradientTransform="matrix(0.84210526,0,0,0.42857134,-1.1257809,20.857146)" gradientUnits="userSpaceOnUse" xlink:href="#linearGradient3702-501-757-3"/><radialGradient id="radialGradient3473" cx="4.993" cy="43.5" r="2.5" fx="4.993" fy="43.5" gradientTransform="matrix(-1.687397,0,0,-0.59999988,15.72632,65.599994)" gradientUnits="userSpaceOnUse" xlink:href="#linearGradient3688-464-309-7"/><linearGradient id="linearGradient3739" x1="17" x2="17" y1="14" y2="10" gradientTransform="matrix(1.3,0,0,1.6666666,3.199998,-2.6666663)" gradientUnits="userSpaceOnUse" xlink:href="#linearGradient4251-1"/><linearGradient id="linearGradient3743" x1="24" x2="24" y1="5.564" y2="43" gradientTransform="matrix(0.62162161,0,0,1.042471,9.081084,1.7664208)" gradientUnits="userSpaceOnUse" xlink:href="#linearGradient3977-6"/><linearGradient id="linearGradient3746" x1="25.132" x2="25.132" y1=".985" y2="62.706" gradientTransform="matrix(0.68571268,0,0,0.19108172,7.542894,6.5179604)" gradientUnits="userSpaceOnUse" xlink:href="#linearGradient3600-4-3"/><linearGradient id="linearGradient3749" x1="24" x2="24" y1="10.125" y2="37.875" gradientTransform="matrix(0.99277432,0,0,0.10810811,0.173416,15.905407)" gradientUnits="userSpaceOnUse" xlink:href="#linearGradient3924-0-9-4"/><linearGradient id="linearGradient3755" x1="24" x2="24" y1="5.564" y2="43" gradientTransform="matrix(0.62162161,0,0,1.042471,9.081085,-0.80500837)" gradientUnits="userSpaceOnUse" xlink:href="#linearGradient3977"/><linearGradient id="linearGradient3758" x1="33.211" x2="33.211" y1="46.354" y2="11.289" gradientTransform="matrix(0.68571268,0,0,0.30867042,7.542894,29.015438)" gradientUnits="userSpaceOnUse" xlink:href="#linearGradient3600-4"/><linearGradient id="linearGradient3764" x1="24" x2="24" y1="6.656" y2="41.344" gradientTransform="matrix(0.99999999,0,0,0.43243241,0,20.12163)" gradientUnits="userSpaceOnUse" xlink:href="#linearGradient3512"/><radialGradient id="radialGradient3767" cx="7.118" cy="9.957" r="12.672" fx="7.118" fy="9.957" gradientTransform="matrix(0,7.8046631,-11.214713,0,136.04426,-56.530174)" gradientUnits="userSpaceOnUse" xlink:href="#linearGradient2867-449-88-871-390-598-476-591-434-148-57-177-8-3-3-6-4-8-8-8-5-9-4-5"/><linearGradient id="linearGradient3117-8"><stop id="stop3119-9" offset="0" stop-color="#fff" stop-opacity="1"/><stop id="stop3121-9" offset=".569" stop-color="#fff" stop-opacity=".235"/><stop id="stop3123-6" offset=".933" stop-color="#fff" stop-opacity=".157"/><stop id="stop3125-3" offset="1" stop-color="#fff" stop-opacity=".392"/></linearGradient><linearGradient id="linearGradient3091-3" x1="29.127" x2="29.291" y1="19.788" y2="57.567" gradientTransform="matrix(0.49373581,0,-0.00214922,0.51518426,21.661617,16.574027)" gradientUnits="userSpaceOnUse" xlink:href="#linearGradient3117-8"/><linearGradient id="linearGradient3094-5" x1="24" x2="24" y1="2.011" y2="44.532" gradientTransform="matrix(0.48890916,0,0,0.48839827,24.266182,24.742322)" gradientUnits="userSpaceOnUse" xlink:href="#linearGradient4171"/><linearGradient id="linearGradient4171"><stop id="stop4173" offset="0" stop-color="#ffe16b" stop-opacity="1"/><stop id="stop4175" offset="1" stop-color="#f9c440" stop-opacity="1"/></linearGradient><radialGradient id="radialGradient2415-6" cx="62.625" cy="4.625" r="10.625" fx="62.625" fy="4.625" gradientTransform="matrix(1.1294118,0,0,0.12941156,-34.729414,46.026471)" gradientUnits="userSpaceOnUse" xlink:href="#linearGradient4251-1"/></defs><path id="rect3696-2" fill="url(#radialGradient3473)" fill-opacity="1" stroke="none" d="m 7.2952717,40.999999 -4.2105263,0 0,-2.999999 4.2105263,0 z" opacity=".4"/><path id="rect3700-1" fill="url(#linearGradient3471)" fill-opacity="1" stroke="none" d="m 7.2952717,38 34.5721453,0 0,2.999999 -34.5721453,0 z" opacity=".4"/><path id="rect5505-21-9" fill="url(#radialGradient3767)" fill-opacity="1" fill-rule="nonzero" stroke="none" stroke-width="1" d="m 7.210907,15.5 c 12.096344,0 21.504609,0 33.600952,0 1.743341,0 2.688076,4.428543 2.688076,6.660257 0,5.565649 0,10.419455 0,15.985104 0.01388,1.284323 -1.389269,1.423756 -2.369187,1.332051 -11.754627,0 -23.509253,0 -35.263879,0 -1.295881,0.01376 -1.43657,-1.376878 -1.344038,-2.348055 l 0,-14.9691 c 0,0 0.637953,-6.660257 2.688076,-6.660257 z" color="#000" display="inline" enable-background="accumulate" opacity=".9" overflow="visible" visibility="visible" style="marker:none"/><rect id="rect6741-7-4-4" width="37" height="16" x="5.5" y="22.5" fill="none" stroke="url(#linearGradient3764)" stroke-dasharray="none" stroke-dashoffset="0" stroke-linecap="round" stroke-linejoin="round" stroke-miterlimit="4" stroke-opacity="1" stroke-width="1" opacity=".25"/><path id="rect5505-6-9" fill="none" stroke="#000" stroke-dasharray="none" stroke-dashoffset="0" stroke-linecap="round" stroke-linejoin="round" stroke-miterlimit="4" stroke-opacity="1" stroke-width="1" d="m 7.210906,15.499999 c 0,0 21.504609,0 33.600952,0 1.947903,0 2.688075,6.660527 2.688075,6.660527 0,0 0,10.259812 0,15.984746 0.01102,1.306008 -1.42111,1.419954 -2.410157,1.332105 -11.74097,0 -23.48194,0 -35.22291,0 -1.317707,0.01092 -1.432675,-1.408495 -1.344038,-2.38876 l 0,-14.928091 c 0,0 0.708193,-6.660527 2.688078,-6.660527 z" color="#000" display="inline" enable-background="accumulate" opacity=".7" overflow="visible" visibility="visible" style="marker:none"/><rect id="rect3957-0" width="38" height="1" x="5" y="-22" fill="#000" fill-opacity="1" fill-rule="nonzero" stroke="none" stroke-width="1" color="#000" display="inline" enable-background="accumulate" opacity=".4" overflow="visible" rx="0" ry="0" transform="scale(1,-1)" visibility="visible" style="marker:none"/><path id="path4160-3" fill="url(#linearGradient3758)" fill-opacity="1" stroke="none" d="m 12,32.5 c 5.499618,0 23.99997,9.06e-4 23.99997,9.06e-4 L 36,44 c 0,0 -16.000001,0 -24,0 0,-4.735294 0,-6.764705 0,-11.5 z" display="inline"/><path id="rect6741-1" fill="none" stroke="url(#linearGradient3755)" stroke-dasharray="none" stroke-dashoffset="0" stroke-linecap="round" stroke-linejoin="round" stroke-miterlimit="4" stroke-opacity="1" stroke-width="1" d="m 35.5,43.5 -23,0 0,-10 23,0 z"/><path id="path4160-3-4" fill="none" stroke="#000" stroke-dasharray="none" stroke-dashoffset="0" stroke-linecap="butt" stroke-linejoin="round" stroke-miterlimit="4" stroke-opacity="1" stroke-width="1" d="m 11.499961,32.499961 c 5.728787,0 25.000048,7.63e-4 25.000048,7.63e-4 l 3e-5,11.999315 c 0,0 -16.666717,0 -25.000078,0 0,-4.000026 0,-8.000052 0,-12.000077 z" display="inline" opacity=".3"/><rect id="rect4124-5-6" width="26" height="1" x="11" y="32" fill="#000" fill-opacity="1" fill-rule="nonzero" stroke="none" stroke-width="1" color="#000" display="inline" enable-background="accumulate" opacity=".15" overflow="visible" visibility="visible" style="marker:none"/><path id="rect6741-7-4-2-7" fill="none" stroke="url(#linearGradient3749)" stroke-dasharray="none" stroke-dashoffset="0" stroke-linecap="round" stroke-linejoin="round" stroke-miterlimit="4" stroke-opacity="1" stroke-width="1" d="m 7.674381,16.5 32.651243,0 c 1.137104,0 2.040702,4 2.040702,4 -12.244217,0 -36.73265,0 -36.73265,0 0,0 0.788956,-4 2.040705,-4 z" opacity=".1"/><path id="path4160-3-8" fill="url(#linearGradient3746)" fill-opacity="1" stroke="none" d="m 12,7.0000001 c 5.499618,0 23.99997,5.61e-4 23.99997,5.61e-4 L 36,18.5 c 0,0 -16.000001,0 -24,0 0,-2.931373 0,-8.5686269 0,-11.4999999 z" display="inline"/><path id="rect6741-1-8" fill="none" stroke="url(#linearGradient3743)" stroke-dasharray="none" stroke-dashoffset="0" stroke-linecap="round" stroke-linejoin="round" stroke-miterlimit="4" stroke-opacity="1" stroke-width="1" d="m 35.499999,17.5 -23,0 0,-9.9999999 23,0 z"/><path id="path4160-3-4-7" fill="none" stroke="#000" stroke-dasharray="none" stroke-dashoffset="0" stroke-linecap="butt" stroke-linejoin="round" stroke-miterlimit="4" stroke-opacity="1" stroke-width="1" d="m 11.499961,6.4999402 25.000048,0.0026 3e-5,11.9974988 -25.000078,0 z" display="inline" opacity=".3"/><rect id="rect4249-5" width="26" height="5" x="11" y="14" fill="url(#linearGradient3739)" fill-opacity="1" fill-rule="nonzero" stroke="none" stroke-width="1" color="#000" display="inline" enable-background="accumulate" opacity=".3" overflow="visible" visibility="visible" style="marker:none"/><path id="rect4731" fill="#000" fill-opacity="1" stroke="none" d="m 16,36 0,1 16,0 0,-1 -16,0 z m 0,2 0,1 9,0 0,-1 -9,0 z m 11,0 0,1 3,0 0,-1 -3,0 z m -11,2 0,1 4,0 0,-1 -4,0 z m 5,0 0,1 10,0 0,-1 -10,0 z" opacity=".1"/><path d="m 39,25 2,0 0,2 -2,0 z" style="marker:none" id="rect3991" fill="#0cceff" fill-opacity="1" fill-rule="nonzero" stroke="none" stroke-width="1" color="#000" display="inline" enable-background="accumulate" overflow="visible" visibility="visible"/><path d="M 48,46.625 C 48,47.384391 42.627417,48 36,48 29.372583,48 24,47.384391 24,46.625 c 0,-0.759391 5.372583,-1.375 12,-1.375 6.627417,0 12,0.615609 12,1.375 z" style="marker:none" id="path8836" fill="url(#radialGradient2415-6)" fill-opacity="1" fill-rule="evenodd" stroke="none" stroke-width="1" display="inline" opacity=".3" overflow="visible" visibility="visible"/><path id="path11155-5" fill="url(#linearGradient3094-5)" fill-opacity="1" fill-rule="nonzero" stroke="none" d="M 46.843441,44.277765 37.294944,26.277682 c -0.274455,-0.5 -0.771065,-0.77778 -1.324145,-0.77778 -0.553075,0 -1.052235,0.33333 -1.330855,0.833335 l -9.477397,18.000088 c -0.223085,0.444445 -0.225635,1.05556 0.04905,1.500005 0.27468,0.44445 0.716215,0.66667 1.269296,0.66667 l 19.025888,0 c 0.55308,0 1.052005,-0.27778 1.275095,-0.722225 0.278385,-0.444445 0.280705,-1.000005 0.06156,-1.50001 z"/><path id="path11159-4" fill="none" stroke="url(#linearGradient3091-3)" stroke-dasharray="none" stroke-miterlimit="4" stroke-opacity="1" stroke-width="1" d="M 45.554469,43.506436 37.009293,27.915852 C 36.64536,27.222466 36.514831,26.5 35.961755,26.5 c -0.475681,0 -0.724576,0.823993 -1.068333,1.478495 l -8.450324,15.57762 c -0.490695,0.902951 -0.543267,1.138323 -0.307081,1.535746 0.236181,0.397428 0.539433,0.375782 1.659914,0.401703 l 16.60861,0 c 1.043148,0.01297 1.278124,-0.06692 1.470057,-0.464346 0.2395,-0.397427 0.137629,-0.712731 -0.320129,-1.522782 z" opacity=".6"/><path clip-rule="nonzero" style="isolation:auto;mix-blend-mode:normal;solid-color:#000;solid-opacity:1;marker:none" id="path11155-8" fill="none" fill-opacity="1" fill-rule="nonzero" stroke="#ad5f00" stroke-dasharray="none" stroke-dashoffset="0" stroke-linecap="butt" stroke-linejoin="miter" stroke-miterlimit="4" stroke-opacity="1" stroke-width="1" d="M 46.843441,44.277775 37.294944,26.277777 C 37.020489,25.777779 36.523879,25.5 35.970799,25.5 c -0.553075,0 -1.052235,0.333329 -1.330855,0.833332 l -9.477397,18.000003 c -0.223085,0.444443 -0.225635,1.055555 0.04905,1.499998 C 25.486277,46.277781 25.927812,46.5 26.480892,46.5 l 19.025889,0 c 0.55308,0 1.052005,-0.277779 1.275095,-0.722222 0.278385,-0.444443 0.280705,-1 0.06156,-1.500003 z" color="#000" color-interpolation="sRGB" color-interpolation-filters="linearRGB" color-rendering="auto" display="inline" enable-background="accumulate" image-rendering="auto" opacity=".5" overflow="visible" shape-rendering="auto" text-rendering="auto" visibility="visible"/><path id="path4159-3-3" fill="#fff" fill-opacity="1" stroke="none" stroke-dasharray="none" stroke-linejoin="round" stroke-miterlimit="4" stroke-opacity=".498" stroke-width="1" d="m 36,33 c -0.717969,0 -1.3,0.596955 -1.3,1.333333 0,1.333334 0.433332,3.111111 0.866667,6.666667 l 0.866665,0 C 36.866667,37.444444 37.3,35.666667 37.3,34.333333 37.3,33.596955 36.717969,33 36,33 Z m 0,9.333333 c -0.717969,0 -1.3,0.596955 -1.3,1.333334 C 34.7,44.403045 35.282031,45 36,45 c 0.717969,0 1.3,-0.596955 1.3,-1.333333 0,-0.736379 -0.582031,-1.333334 -1.3,-1.333334 z" opacity=".3"/><path id="path4159-3" fill="#7a0000" fill-opacity="1" stroke="none" stroke-dasharray="none" stroke-linejoin="round" stroke-miterlimit="4" stroke-opacity=".498" stroke-width="1" d="m 36,32 c -0.717969,0 -1.3,0.596955 -1.3,1.333333 0,1.333334 0.433332,3.111111 0.866667,6.666667 l 0.866665,0 C 36.866667,36.444444 37.3,34.666667 37.3,33.333333 37.3,32.596955 36.717969,32 36,32 Z m 0,9.333333 c -0.717969,0 -1.3,0.596955 -1.3,1.333334 C 34.7,43.403045 35.282031,44 36,44 c 0.717969,0 1.3,-0.596955 1.3,-1.333333 0,-0.736379 -0.582031,-1.333334 -1.3,-1.333334 z" opacity="1"/></svg>