<svg xmlns="http://www.w3.org/2000/svg" xmlns:svg="http://www.w3.org/2000/svg" xmlns:xlink="http://www.w3.org/1999/xlink" id="svg4414" width="64" height="64" version="1.1"><defs id="defs4416"><linearGradient id="linearGradient3162" x1="23.971" x2="23.971" y1="9.245" y2="17.595" gradientTransform="matrix(0.71418038,0,0,0.31251655,15.015443,7.3491061)" gradientUnits="userSpaceOnUse" xlink:href="#linearGradient4649-1"/><linearGradient id="linearGradient4649-1"><stop id="stop4651-20" offset="0" stop-color="#fff" stop-opacity="1"/><stop id="stop4653-32" offset=".43" stop-color="#fff" stop-opacity=".235"/><stop id="stop4655-88" offset=".816" stop-color="#fff" stop-opacity=".157"/><stop id="stop4657-5" offset="1" stop-color="#fff" stop-opacity=".392"/></linearGradient><radialGradient id="radialGradient3165" cx="1.279" cy="24.345" r="20" fx="1.279" fy="24.345" gradientTransform="matrix(0,0.37599519,-0.46955163,0,43.376077,8.9874556)" gradientUnits="userSpaceOnUse" xlink:href="#linearGradient2867-449-88-871-390-598-476-591-434-148-57-177-641-289-620-227-114-444-680-744-4-8-69-791-3-3-638-9-0"/><linearGradient id="linearGradient2867-449-88-871-390-598-476-591-434-148-57-177-641-289-620-227-114-444-680-744-4-8-69-791-3-3-638-9-0"><stop id="stop17829-4-4" offset="0" stop-color="#959595" stop-opacity="1"/><stop id="stop17831-1-9" offset=".262" stop-color="#5d5d5d" stop-opacity="1"/><stop id="stop17833-0-67" offset=".705" stop-color="#242424" stop-opacity="1"/><stop id="stop17835-8-7" offset="1" stop-color="#181818" stop-opacity="1"/></linearGradient><linearGradient id="linearGradient3167" x1="-3.812" x2="-5.438" y1="14.568" y2="8.804" gradientTransform="matrix(1.5319679,0,0,0.99434896,51.267855,0.2833896)" gradientUnits="userSpaceOnUse" xlink:href="#linearGradient3707-319-631-407-324-616-674-812-821-107-178-392-400-6-3-549-901-1-9-100-4-2"/><linearGradient id="linearGradient3707-319-631-407-324-616-674-812-821-107-178-392-400-6-3-549-901-1-9-100-4-2"><stop id="stop17839-7-3" offset="0" stop-color="#000" stop-opacity="1"/><stop id="stop17841-4-8" offset="1" stop-color="#161616" stop-opacity="1"/></linearGradient><linearGradient id="linearGradient3170" x1="23.971" x2="23.971" y1="9.245" y2="17.595" gradientTransform="matrix(1.5241215,0,0,1.3338677,-4.5047082,-1.0879066)" gradientUnits="userSpaceOnUse" xlink:href="#linearGradient4649"/><linearGradient id="linearGradient4649"><stop id="stop4651" offset="0" stop-color="#fff" stop-opacity="1"/><stop id="stop4653" offset=".43" stop-color="#fff" stop-opacity=".235"/><stop id="stop4655" offset=".816" stop-color="#fff" stop-opacity=".157"/><stop id="stop4657" offset="1" stop-color="#fff" stop-opacity=".392"/></linearGradient><radialGradient id="radialGradient3173" cx="8.704" cy="24.345" r="20" fx="8.704" fy="24.345" gradientTransform="matrix(0,0.3658215,-0.88060095,0,53.107864,13.625268)" gradientUnits="userSpaceOnUse" xlink:href="#linearGradient2867-449-88-871-390-598-476-591-434-148-57-177-641-289-620-227-114-444-680-744-4-8-69-791-3-3-638-9"/><linearGradient id="linearGradient2867-449-88-871-390-598-476-591-434-148-57-177-641-289-620-227-114-444-680-744-4-8-69-791-3-3-638-9"><stop id="stop17829-4" offset="0" stop-color="#959595" stop-opacity="1"/><stop id="stop17831-1" offset=".262" stop-color="#5d5d5d" stop-opacity="1"/><stop id="stop17833-0" offset=".705" stop-color="#242424" stop-opacity="1"/><stop id="stop17835-8" offset="1" stop-color="#181818" stop-opacity="1"/></linearGradient><linearGradient id="linearGradient3175" x1="-3.812" x2="-5.438" y1="14.568" y2="8.804" gradientTransform="matrix(2.8730649,0,0,2.4756854,67.908167,-10.934851)" gradientUnits="userSpaceOnUse" xlink:href="#linearGradient3707-319-631-407-324-616-674-812-821-107-178-392-400-6-3-549-901-1-9-100-4"/><linearGradient id="linearGradient3707-319-631-407-324-616-674-812-821-107-178-392-400-6-3-549-901-1-9-100-4"><stop id="stop17839-7" offset="0" stop-color="#000" stop-opacity="1"/><stop id="stop17841-4" offset="1" stop-color="#161616" stop-opacity="1"/></linearGradient><linearGradient id="linearGradient3185" x1="19.835" x2="19.835" y1="18.121" y2="40.325" gradientTransform="matrix(-1.4057547,0,0,1.4057608,65.840836,-3.0563558)" gradientUnits="userSpaceOnUse" xlink:href="#linearGradient4168-81"/><linearGradient id="linearGradient4168-81"><stop id="stop4170-6" offset="0" stop-color="#fff" stop-opacity="1"/><stop id="stop4172-0" offset=".11" stop-color="#fff" stop-opacity=".235"/><stop id="stop4174-5" offset=".675" stop-color="#fff" stop-opacity=".157"/><stop id="stop4176-5" offset="1" stop-color="#fff" stop-opacity=".392"/></linearGradient><radialGradient id="radialGradient3188" cx="23.438" cy="22.842" r="9.033" fx="23.438" fy="22.842" gradientTransform="matrix(3.3080698,-1.7573284e-7,-2.4140621e-7,-4.5443726,-44.644025,129.00856)" gradientUnits="userSpaceOnUse" xlink:href="#linearGradient3242-2-5"/><linearGradient id="linearGradient3242-2-5"><stop id="stop3244-46" offset="0" stop-color="#f8b17e" stop-opacity="1"/><stop id="stop3246-9-1" offset=".312" stop-color="#e35d4f" stop-opacity="1"/><stop id="stop3248-3-5" offset=".571" stop-color="#c6262e" stop-opacity="1"/><stop id="stop3250-9-5" offset="1" stop-color="#690b54" stop-opacity="1"/></linearGradient><linearGradient id="linearGradient3190" x1="17.551" x2="17.551" y1="41.766" y2="8.964" gradientTransform="matrix(-1.4057547,0,0,1.4057608,65.840836,-3.0563558)" gradientUnits="userSpaceOnUse" xlink:href="#linearGradient2490-0-4"/><linearGradient id="linearGradient2490-0-4"><stop id="stop2492-8-6" offset="0" stop-color="#791235" stop-opacity="1"/><stop id="stop2494-8-15" offset="1" stop-color="#dd3b27" stop-opacity="1"/></linearGradient><linearGradient id="linearGradient3200" x1="19.835" x2="19.835" y1="18.121" y2="40.325" gradientTransform="matrix(1.4201008,0,0,1.3989071,-1.5498822,-2.7622935)" gradientUnits="userSpaceOnUse" xlink:href="#linearGradient4168"/><linearGradient id="linearGradient4168"><stop id="stop4170" offset="0" stop-color="#fff" stop-opacity="1"/><stop id="stop4172" offset=".11" stop-color="#fff" stop-opacity=".235"/><stop id="stop4174" offset=".675" stop-color="#fff" stop-opacity=".157"/><stop id="stop4176" offset="1" stop-color="#fff" stop-opacity=".392"/></linearGradient><radialGradient id="radialGradient3203" cx="23.438" cy="22.842" r="9.033" fx="23.438" fy="22.842" gradientTransform="matrix(-3.3080698,-1.7573284e-7,2.4140621e-7,-4.5443726,108.86774,129.00856)" gradientUnits="userSpaceOnUse" xlink:href="#linearGradient3242-2"/><linearGradient id="linearGradient3242-2"><stop id="stop3244" offset="0" stop-color="#f8b17e" stop-opacity="1"/><stop id="stop3246-9" offset=".312" stop-color="#e35d4f" stop-opacity="1"/><stop id="stop3248-3" offset=".571" stop-color="#c6262e" stop-opacity="1"/><stop id="stop3250-9" offset="1" stop-color="#690b54" stop-opacity="1"/></linearGradient><linearGradient id="linearGradient3205" x1="17.551" x2="17.551" y1="41.766" y2="8.964" gradientTransform="matrix(1.4057547,0,0,1.4057608,-1.617114,-3.0563558)" gradientUnits="userSpaceOnUse" xlink:href="#linearGradient2490-0"/><linearGradient id="linearGradient2490-0"><stop id="stop2492-8" offset="0" stop-color="#791235" stop-opacity="1"/><stop id="stop2494-8" offset="1" stop-color="#dd3b27" stop-opacity="1"/></linearGradient><linearGradient id="linearGradient3208" x1="23.713" x2="23.971" y1="31.306" y2="39.311" gradientTransform="matrix(1.9169383,0,0,1.4057608,-13.885519,-6.027552)" gradientUnits="userSpaceOnUse" xlink:href="#linearGradient5068-5"/><linearGradient id="linearGradient5068-5"><stop id="stop5070-0" offset="0" stop-color="#fff" stop-opacity="1"/><stop id="stop5072-6" offset=".354" stop-color="#fff" stop-opacity=".235"/><stop id="stop5074-3" offset=".687" stop-color="#fff" stop-opacity=".157"/><stop id="stop5076-3" offset="1" stop-color="#fff" stop-opacity=".392"/></linearGradient><linearGradient id="linearGradient3211" x1="23.713" x2="23.971" y1="31.306" y2="39.311" gradientTransform="matrix(1.9169383,0,0,0.9096099,-13.885519,4.5704083)" gradientUnits="userSpaceOnUse" xlink:href="#linearGradient5068-5-4"/><linearGradient id="linearGradient5068-5-4"><stop id="stop5070-0-9" offset="0" stop-color="#fff" stop-opacity="1"/><stop id="stop5072-6-6" offset=".354" stop-color="#fff" stop-opacity=".235"/><stop id="stop5074-3-3" offset=".687" stop-color="#fff" stop-opacity=".157"/><stop id="stop5076-3-4" offset="1" stop-color="#fff" stop-opacity=".392"/></linearGradient><linearGradient id="linearGradient3214" x1="-9.301" x2="-9.301" y1="26.605" y2="14.112" gradientTransform="matrix(3.6765892,0,0,2.2491227,78.071785,-19.560466)" gradientUnits="userSpaceOnUse" xlink:href="#linearGradient3707-319-631-407-324-616-674-812-821-107-178-392-400-6-3-549-901-1-9-100-4-6-3"/><linearGradient id="linearGradient3707-319-631-407-324-616-674-812-821-107-178-392-400-6-3-549-901-1-9-100-4-6-3"><stop id="stop17839-7-9-1" offset="0" stop-color="#000" stop-opacity="1"/><stop id="stop17841-4-3-1" offset="1" stop-color="#161616" stop-opacity="1"/></linearGradient><radialGradient id="radialGradient3217" cx="60.112" cy="23.612" r="20" fx="60.112" fy="23.612" gradientTransform="matrix(-2.4426506e-8,1.2562415,-1.5102979,-2.286332e-8,68.185311,-49.997605)" gradientUnits="userSpaceOnUse" xlink:href="#linearGradient2867-449-88-871-390-598-476-591-434-148-57-177-641-289-620-227-114-444-680-744-4-8-69-791-3-3-638-9-5"/><linearGradient id="linearGradient2867-449-88-871-390-598-476-591-434-148-57-177-641-289-620-227-114-444-680-744-4-8-69-791-3-3-638-9-5"><stop id="stop17829-4-7" offset="0" stop-color="#959595" stop-opacity="1"/><stop id="stop17831-1-1" offset=".262" stop-color="#5d5d5d" stop-opacity="1"/><stop id="stop17833-0-4" offset=".705" stop-color="#242424" stop-opacity="1"/><stop id="stop17835-8-77" offset="1" stop-color="#181818" stop-opacity="1"/></linearGradient><linearGradient id="linearGradient3219" x1="-9.301" x2="-9.301" y1="26.605" y2="14.112" gradientTransform="matrix(3.6765892,0,0,2.2491227,78.071785,-8.560464)" gradientUnits="userSpaceOnUse" xlink:href="#linearGradient3707-319-631-407-324-616-674-812-821-107-178-392-400-6-3-549-901-1-9-100-4-6"/><linearGradient id="linearGradient3707-319-631-407-324-616-674-812-821-107-178-392-400-6-3-549-901-1-9-100-4-6"><stop id="stop17839-7-9" offset="0" stop-color="#000" stop-opacity="1"/><stop id="stop17841-4-3" offset="1" stop-color="#161616" stop-opacity="1"/></linearGradient><radialGradient id="radialGradient3225" cx="7.496" cy="8.45" r="20" fx="7.496" fy="8.45" gradientTransform="matrix(2.7311659e-8,3.2852489,-3.4753865,-6.0526824e-8,61.487372,-19.130948)" gradientUnits="userSpaceOnUse" xlink:href="#linearGradient3242-7-3-8-1-4"/><linearGradient id="linearGradient3242-7-3-8-1-4"><stop id="stop3244-5-8-5-3-7" offset="0" stop-color="#eef87e" stop-opacity="1"/><stop id="stop3246-9-5-1-0-4" offset=".262" stop-color="#cde34f" stop-opacity="1"/><stop id="stop3248-7-2-0-9-9" offset=".661" stop-color="#93b723" stop-opacity="1"/><stop id="stop3250-8-2-8-7-1" offset="1" stop-color="#5a7e0d" stop-opacity="1"/></linearGradient><linearGradient id="linearGradient3227" x1="24" x2="24" y1="44" y2="3.899" gradientTransform="matrix(1.4057547,0,0,1.4057608,-1.617101,-1.6505951)" gradientUnits="userSpaceOnUse" xlink:href="#linearGradient2490-3-4-6-9-4"/><linearGradient id="linearGradient2490-3-4-6-9-4"><stop id="stop2492-3-9-3-4-0" offset="0" stop-color="#3f7010" stop-opacity="1"/><stop id="stop2494-8-8-5-9-8" offset="1" stop-color="#84a718" stop-opacity="1"/></linearGradient><radialGradient id="radialGradient3230" cx="62.625" cy="4.625" r="10.625" fx="62.625" fy="4.625" gradientTransform="matrix(1.9845948,0,0,0.79384041,-92.164258,42.473757)" gradientUnits="userSpaceOnUse" xlink:href="#linearGradient8838"/><linearGradient id="linearGradient8838"><stop id="stop8840" offset="0" stop-color="#000" stop-opacity="1"/><stop id="stop8842" offset="1" stop-color="#000" stop-opacity="0"/></linearGradient><linearGradient id="linearGradient3233" x1="24" x2="24" y1="5" y2="43" gradientTransform="matrix(1.4057547,0,0,1.4057608,-1.617097,-1.650581)" gradientUnits="userSpaceOnUse" xlink:href="#linearGradient3924-803-8"/><linearGradient id="linearGradient3924-803-8"><stop id="stop3252-0" offset="0" stop-color="#fff" stop-opacity="1"/><stop id="stop3254-6" offset=".063" stop-color="#fff" stop-opacity=".235"/><stop id="stop3256-4" offset=".951" stop-color="#fff" stop-opacity=".157"/><stop id="stop3258-1" offset="1" stop-color="#fff" stop-opacity=".392"/></linearGradient><linearGradient id="linearGradient3107-996" x1="24" x2="24" y1="5" y2="43" gradientTransform="matrix(1.4324324,0,0,1.4362832,-2.3783747,-2.4707823)" gradientUnits="userSpaceOnUse" xlink:href="#linearGradient3924-45"/><linearGradient id="linearGradient3924-45"><stop id="stop3124" offset="0" stop-color="#fff" stop-opacity="1"/><stop id="stop3126" offset=".063" stop-color="#fff" stop-opacity=".235"/><stop id="stop3128" offset=".951" stop-color="#fff" stop-opacity=".157"/><stop id="stop3130" offset="1" stop-color="#fff" stop-opacity=".392"/></linearGradient><radialGradient id="radialGradient3413-7" cx="7.496" cy="8.45" r="20" fx="7.496" fy="8.45" gradientTransform="matrix(2.7311659e-8,3.2852489,-3.4753865,-6.0526824e-8,61.487372,-19.130948)" gradientUnits="userSpaceOnUse" xlink:href="#linearGradient3242-7-3-8-0"/><linearGradient id="linearGradient3242-7-3-8-0"><stop id="stop3244-5-8-5-6" offset="0" stop-color="#eef87e" stop-opacity="1"/><stop id="stop3246-9-5-1-5" offset=".262" stop-color="#cde34f" stop-opacity="1"/><stop id="stop3248-7-2-0-7" offset=".661" stop-color="#93b723" stop-opacity="1"/><stop id="stop3250-8-2-8-5" offset="1" stop-color="#5a7e0d" stop-opacity="1"/></linearGradient><linearGradient id="linearGradient3415-9" x1="24" x2="24" y1="44" y2="3.899" gradientTransform="matrix(1.4057547,0,0,1.4057608,-1.617101,-1.6505951)" gradientUnits="userSpaceOnUse" xlink:href="#linearGradient2490-3-4-6-5"/><linearGradient id="linearGradient2490-3-4-6-5"><stop id="stop2492-3-9-3-5" offset="0" stop-color="#3f7010" stop-opacity="1"/><stop id="stop2494-8-8-5-0" offset="1" stop-color="#84a718" stop-opacity="1"/></linearGradient><radialGradient id="radialGradient2873-966-168-714" cx="4.993" cy="43.5" r="2.5" fx="4.993" fy="43.5" gradientTransform="matrix(2.003784,0,0,1.4,27.98813,-17.4)" gradientUnits="userSpaceOnUse" xlink:href="#linearGradient3688-166-749-654"/><linearGradient id="linearGradient3688-166-749-654"><stop id="stop3088" offset="0" stop-color="#181818" stop-opacity="1"/><stop id="stop3090" offset="1" stop-color="#181818" stop-opacity="0"/></linearGradient><radialGradient id="radialGradient2875-742-326-419" cx="4.993" cy="43.5" r="2.5" fx="4.993" fy="43.5" gradientTransform="matrix(2.003784,0,0,1.4,-20.01187,-104.4)" gradientUnits="userSpaceOnUse" xlink:href="#linearGradient3688-464-309-604"/><linearGradient id="linearGradient3688-464-309-604"><stop id="stop3094" offset="0" stop-color="#181818" stop-opacity="1"/><stop id="stop3096" offset="1" stop-color="#181818" stop-opacity="0"/></linearGradient><linearGradient id="linearGradient2877-634-617-908" x1="25.058" x2="25.058" y1="47.028" y2="39.999" gradientUnits="userSpaceOnUse" xlink:href="#linearGradient3702-501-757-795"/><linearGradient id="linearGradient3702-501-757-795"><stop id="stop3100" offset="0" stop-color="#181818" stop-opacity="0"/><stop id="stop3102" offset=".5" stop-color="#181818" stop-opacity="1"/><stop id="stop3104" offset="1" stop-color="#181818" stop-opacity="0"/></linearGradient></defs><metadata id="metadata4419"/><g id="layer1"><g id="g2036" display="inline" transform="matrix(1.5000021,0,0,0.5555561,-4.0000114,35.888881)"><g id="g3712" opacity=".4" transform="matrix(1.052632,0,0,1.285713,-1.263158,-13.42854)"><rect id="rect2801" width="5" height="7" x="38" y="40" fill="url(#radialGradient2873-966-168-714)" fill-opacity="1" stroke="none"/><rect id="rect3696" width="5" height="7" x="-10" y="-47" fill="url(#radialGradient2875-742-326-419)" fill-opacity="1" stroke="none" transform="scale(-1,-1)"/><rect id="rect3700" width="28" height="7" x="10" y="40" fill="url(#linearGradient2877-634-617-908)" fill-opacity="1" stroke="none"/></g></g><rect id="rect5505-21" width="55" height="55" x="4.5" y="4.5" fill="url(#radialGradient3413-7)" fill-opacity="1" fill-rule="nonzero" stroke="url(#linearGradient3415-9)" stroke-dasharray="none" stroke-dashoffset="0" stroke-linecap="round" stroke-linejoin="round" stroke-miterlimit="4" stroke-opacity="1" stroke-width="1" color="#000" display="inline" enable-background="accumulate" overflow="visible" rx="3" ry="3" visibility="visible" style="marker:none"/><rect id="rect6741" width="53" height="53.142" x="5.5" y="5.429" fill="none" stroke="url(#linearGradient3107-996)" stroke-dasharray="none" stroke-dashoffset="0" stroke-linecap="round" stroke-linejoin="round" stroke-miterlimit="4" stroke-opacity="1" stroke-width="1" opacity=".8" rx="2" ry="2"/><path id="path5183-2" fill="none" stroke="url(#linearGradient3233)" stroke-dasharray="none" stroke-dashoffset="0" stroke-linecap="round" stroke-linejoin="round" stroke-miterlimit="4" stroke-opacity="1" stroke-width="1" d="m 58.997915,59.291946 c 0,0 -12.929352,-10.009866 -13.207403,-13.068434 M 4.639025,38.020985 c 0,0 4.170758,4.448828 10.287871,7.09032 M 4.639025,23.423264 c 0,0 1.946354,0.69513 7.229315,-0.973182 M 4.5,16.054893 c 0,0 9.314693,8.619605 16.683034,12.234278 M 46.346613,5.9060012 c 0,0 4.309783,7.3683728 13.068377,9.5927868" color="#000" display="inline" enable-background="accumulate" opacity=".8" overflow="visible" visibility="visible" style="marker:none"/><path id="path8836" fill="url(#radialGradient3230)" fill-opacity="1" fill-rule="evenodd" stroke="none" stroke-width="1" d="m 53.20732,46.145272 c 0,4.658283 -9.44067,8.434565 -21.08632,8.434565 -11.64565,0 -22.492075,-3.776282 -22.492075,-8.434565 0,-4.658282 10.846425,-8.434565 22.492075,-8.434565 11.64565,0 21.08632,3.776283 21.08632,8.434565 l 0,0 z" display="inline" opacity=".5" overflow="visible" visibility="visible" style="marker:none"/><path id="path5183" fill="url(#radialGradient3225)" fill-opacity="1" fill-rule="nonzero" stroke="url(#linearGradient3227)" stroke-dasharray="none" stroke-dashoffset="0" stroke-linecap="round" stroke-linejoin="round" stroke-miterlimit="4" stroke-opacity="1" stroke-width="1" d="m 58.997915,57.885945 c 0,0 -12.929352,-10.009866 -13.207403,-13.068434 M 4.639025,36.614983 c 0,0 4.170758,4.448829 10.287871,7.090321 M 4.639025,22.017262 c 0,0 1.946354,0.695131 7.229315,-0.973181 M 4.5,14.648891 c 0,0 9.314693,8.619605 16.683034,12.234279 M 46.346613,4.5 c 0,0 4.309783,7.368372 13.068377,9.592786" color="#000" display="inline" enable-background="accumulate" opacity=".3" overflow="visible" visibility="visible" style="marker:none"/><rect id="rect4659" width="23.898" height="26.709" x="20.172" y="23.791" fill="url(#radialGradient3217)" fill-opacity="1" fill-rule="nonzero" stroke="url(#linearGradient3219)" stroke-dasharray="none" stroke-dashoffset="0" stroke-linecap="round" stroke-linejoin="round" stroke-miterlimit="4" stroke-opacity="1" stroke-width="1" color="#000" display="inline" enable-background="accumulate" overflow="visible" rx="11.949" ry="11.949" visibility="visible" style="marker:none"/><rect id="rect4659-3" width="23.898" height="26.709" x="20.172" y="12.791" fill="none" stroke="url(#linearGradient3214)" stroke-dasharray="none" stroke-dashoffset="0" stroke-linecap="round" stroke-linejoin="round" stroke-miterlimit="4" stroke-opacity="1" stroke-width="1" color="#000" display="inline" enable-background="accumulate" opacity=".5" overflow="visible" rx="11.949" ry="11.949" visibility="visible" style="marker:none"/><rect id="rect4659-6-7" width="21.086" height="15.463" x="21.578" y="25.037" fill="none" stroke="url(#linearGradient3211)" stroke-dasharray="none" stroke-dashoffset="0" stroke-linecap="butt" stroke-linejoin="miter" stroke-miterlimit="4" stroke-opacity="1" stroke-width="1" color="#000" display="inline" enable-background="accumulate" opacity=".3" overflow="visible" rx="10.543" ry="7.732" visibility="visible" style="marker:none"/><rect id="rect4659-6" width="21.086" height="23.898" x="21.578" y="25.602" fill="none" stroke="url(#linearGradient3208)" stroke-dasharray="none" stroke-dashoffset="0" stroke-linecap="butt" stroke-linejoin="miter" stroke-miterlimit="4" stroke-opacity="1" stroke-width="1" color="#000" display="inline" enable-background="accumulate" opacity=".5" overflow="visible" rx="10.543" ry="10.543" visibility="visible" style="marker:none"/><path id="path3899" fill="url(#radialGradient3203)" fill-opacity="1" stroke="url(#linearGradient3205)" stroke-linecap="butt" stroke-linejoin="miter" stroke-opacity="1" stroke-width="1" d="m 17.755943,19.655466 c -5.085673,3.183251 -9.796353,8.272849 -9.796353,16.25411 0,17.056649 11.158178,19.28528 11.158178,19.28528 0,0 4.953267,-18.771213 12.827512,-29.916347 l -0.17572,-1.09825 C 25.582432,24.112469 20.294111,22.279052 17.755943,19.655466 z"/><path id="path4157" fill="none" stroke="url(#linearGradient3200)" stroke-linecap="butt" stroke-linejoin="miter" stroke-opacity="1" stroke-width="1" d="m 18.020882,21.5 c -4.063971,2.590867 -7.444363,6.590487 -8.2453903,11.399845 -0.5716943,3.682813 -0.2240068,7.493934 0.7689313,11.078057 1.168223,4.047528 3.906401,7.90353 7.964619,9.522098 2.526937,-8.794706 5.834896,-17.436082 10.535915,-25.339781 0.319804,-0.824352 1.688001,-2.132542 1.420623,-2.608545 C 26.090905,25.257806 21.509153,24.267139 18.020882,21.5 z" opacity=".5"/><path id="path4178" fill="#fff" stroke="none" d="m 18.000001,37 a 2,1.998002 0 1 0 3.999998,0 2,1.998002 0 1 0 -3.999998,0 z" opacity=".3"/><path id="path4178-6" fill="#fff" stroke="none" d="m 15,28.499993 a 1.5,1.5000065 0 0 0 3,0 1.5,1.5000065 0 1 0 -3,0 z" opacity=".3"/><path id="path4178-6-9" fill="#fff" stroke="none" d="m 14,44.499993 a 1.5,1.5000065 0 0 0 3,0 1.5,1.5000065 0 1 0 -3,0 z" opacity=".3"/><path id="path4216" fill="#ff932e" fill-opacity="1" stroke="none" d="M 20.187339,49.831052 18.639458,54.4845 c 0,0 -8.349026,-2.051598 -9.818391,-15.289 4.055546,10.381956 11.366272,10.635552 11.366272,10.635552 z" opacity=".3"/><path id="path4178-0" fill="#1a1a1a" stroke="none" d="m 18.000001,36 a 2,1.998002 0 1 0 3.999998,0 2,1.998002 0 1 0 -3.999998,0 z"/><path id="path4178-6-4" fill="#1a1a1a" stroke="none" d="m 15,27.5 a 1.5,1.5 0 0 0 3,0 1.5,1.5 0 1 0 -3,0 z"/><path id="path4178-6-9-8" fill="#1a1a1a" stroke="none" d="m 14,43.499993 a 1.5,1.5000065 0 0 0 3,0 1.5,1.5000065 0 1 0 -3,0 z"/><path id="path3899-9" fill="url(#radialGradient3188)" fill-opacity="1" stroke="url(#linearGradient3190)" stroke-linecap="butt" stroke-linejoin="miter" stroke-opacity="1" stroke-width="1" d="m 46.46778,19.655466 c 5.085674,3.183251 9.796353,8.272849 9.796353,16.25411 0,17.056649 -11.158178,19.28528 -11.158178,19.28528 0,0 -4.953266,-18.771213 -12.827512,-29.916347 l 0.17572,-1.09825 c 6.187128,-0.06779 11.47545,-1.901207 14.013617,-4.524793 z"/><path id="path4157-1" fill="none" stroke="url(#linearGradient3185)" stroke-linecap="butt" stroke-linejoin="miter" stroke-opacity="1" stroke-width="1" d="m 46.46778,21.324807 c 4.022917,2.603561 7.369158,6.622776 8.162094,11.455697 0.565919,3.700856 0.221744,7.530649 -0.761163,11.132332 -1.156421,4.067358 -3.866938,7.942252 -7.884159,9.56875 -2.50141,-8.837794 -5.775951,-17.521507 -10.429478,-25.463929 -0.316575,-0.828391 -1.670949,-2.14299 -1.406272,-2.621325 4.33048,-0.295308 8.865947,-1.290829 12.318978,-4.071525 z" opacity=".5"/><path id="path4216-4" fill="#ff932e" fill-opacity="1" stroke="none" d="m 44.036386,49.831052 1.547881,4.653448 c 0,0 8.349027,-2.051598 9.818392,-15.289 -4.055547,10.381956 -11.366273,10.635552 -11.366273,10.635552 z" opacity=".3"/><path id="path4485" fill="url(#radialGradient3173)" fill-opacity="1" fill-rule="nonzero" stroke="url(#linearGradient3175)" stroke-dasharray="none" stroke-dashoffset="0" stroke-linecap="round" stroke-linejoin="round" stroke-miterlimit="4" stroke-opacity="1" stroke-width="1" d="M 31.999999,10.5 C 25.512418,10.5 19.933785,14.635345 17.5,20.557471 20.221052,22.905958 25.686379,24.5 31.999999,24.5 c 6.313621,0 11.778948,-1.594042 14.5,-3.942529 C 44.066214,14.635345 38.487581,10.5 31.999999,10.5 z" color="#000" display="inline" enable-background="accumulate" overflow="visible" visibility="visible" style="marker:none"/><path id="path4599" fill="none" stroke="url(#linearGradient3170)" stroke-dasharray="none" stroke-dashoffset="0" stroke-linecap="butt" stroke-linejoin="miter" stroke-miterlimit="4" stroke-opacity="1" stroke-width="1" d="m 32.074208,11.500471 c -4.475309,-0.03756 -8.669212,2.175562 -11.27867,5.275622 -0.923341,1.071788 -1.688686,2.245741 -2.295537,3.477885 3.329281,2.117755 7.505401,2.924843 11.544737,3.193651 4.89761,0.247411 9.998533,-0.351041 14.334395,-2.454882 1.10597,-0.349312 1.503903,-0.988431 0.687973,-1.817804 -2.112953,-3.667624 -5.976545,-6.755344 -10.694561,-7.492721 -0.757758,-0.121139 -1.528055,-0.181843 -2.298337,-0.181751 z" color="#000" display="inline" enable-background="accumulate" opacity=".5" overflow="visible" visibility="visible" style="marker:none"/><path id="path4485-9" fill="url(#radialGradient3165)" fill-opacity="1" fill-rule="nonzero" stroke="url(#linearGradient3167)" stroke-dasharray="none" stroke-dashoffset="0" stroke-linecap="round" stroke-linejoin="round" stroke-miterlimit="4" stroke-opacity="1" stroke-width="1" d="m 32.120999,8.8926103 c -3.45929,0 -6.433913,1.6609447 -7.731651,4.0395417 1.450912,0.94326 4.36512,1.583501 7.731651,1.583501 3.366531,0 6.280739,-0.640241 7.731651,-1.583501 -1.297738,-2.378597 -4.272359,-4.0395417 -7.731651,-4.0395417 z" color="#000" display="inline" enable-background="accumulate" overflow="visible" visibility="visible" style="marker:none"/><path id="path4599-9" fill="none" stroke="url(#linearGradient3162)" stroke-dasharray="none" stroke-dashoffset="0" stroke-linecap="butt" stroke-linejoin="miter" stroke-miterlimit="4" stroke-opacity="1" stroke-width="1" d="m 32.155772,10.298481 c -2.097063,-0.0089 -4.062263,0.50972 -5.285015,1.236044 -0.432665,0.251113 -0.791293,0.526163 -1.075654,0.814845 1.560052,0.496178 3.516918,0.685274 5.40969,0.748253 2.294946,0.05796 4.685161,-0.08225 6.716881,-0.575163 0.51824,-0.08184 0.704705,-0.231583 0.322374,-0.425899 -0.990099,-0.859302 -2.80052,-1.582735 -5.011309,-1.755497 -0.355076,-0.02838 -0.716026,-0.04261 -1.076967,-0.04258 z" color="#000" display="inline" enable-background="accumulate" opacity=".3" overflow="visible" visibility="visible" style="marker:none"/><path id="path5155" fill="#0b0b0b" fill-opacity="1" stroke="none" stroke-width="1.724" d="m 27.903737,8.18973 a 1.4057561,1.4057622 0 0 1 -2.811512,0 1.4057561,1.4057622 0 1 1 2.811512,0 z" color="#000" display="inline" enable-background="accumulate" overflow="visible" visibility="visible" style="marker:none"/><path id="path5155-5" fill="#0b0b0b" fill-opacity="1" stroke="none" stroke-width="1.724" d="m 39.149775,8.18973 a 1.4057561,1.4057622 0 0 1 -2.811512,0 1.4057561,1.4057622 0 1 1 2.811512,0 z" color="#000" display="inline" enable-background="accumulate" overflow="visible" visibility="visible" style="marker:none"/><path id="path4178-5" fill="#fff" stroke="none" d="m 45.999999,37 a 2,1.998002 0 1 1 -3.999998,0 2,1.998002 0 1 1 3.999998,0 z" opacity=".3"/><path id="path4178-6-7" fill="#fff" stroke="none" d="m 49,28.499993 a 1.5,1.5000065 0 0 1 -3,0 1.5,1.5000065 0 1 1 3,0 z" opacity=".3"/><path id="path4178-6-9-1" fill="#fff" stroke="none" d="m 50,44.499993 a 1.5,1.5000065 0 0 1 -3,0 1.5,1.5000065 0 1 1 3,0 z" opacity=".3"/><path id="path4178-0-1" fill="#1a1a1a" stroke="none" d="m 45.999999,36 a 2,1.998002 0 1 1 -3.999998,0 2,1.998002 0 1 1 3.999998,0 z"/><path id="path4178-6-4-9" fill="#1a1a1a" stroke="none" d="m 49,27.5 a 1.5,1.5 0 0 1 -3,0 1.5,1.5 0 1 1 3,0 z"/><path id="path4178-6-9-8-0" fill="#1a1a1a" stroke="none" d="m 50,43.499993 a 1.5,1.5000065 0 0 1 -3,0 1.5,1.5000065 0 1 1 3,0 z"/></g></svg>