<svg xmlns="http://www.w3.org/2000/svg" xmlns:svg="http://www.w3.org/2000/svg" xmlns:xlink="http://www.w3.org/1999/xlink" id="svg3207" width="32" height="32" version="1.1"><defs id="defs3209"><linearGradient id="linearGradient3013" x1="24" x2="24" y1="5.564" y2="41.815" gradientTransform="matrix(0.56756757,0,0,0.72972971,2.378382,-2.5135063)" gradientUnits="userSpaceOnUse" xlink:href="#linearGradient3977"/><linearGradient id="linearGradient3977"><stop id="stop3979" offset="0" stop-color="#fff" stop-opacity="1"/><stop id="stop3981" offset=".036" stop-color="#fff" stop-opacity=".235"/><stop id="stop3983" offset="1" stop-color="#fff" stop-opacity=".157"/><stop id="stop3985" offset="1" stop-color="#fff" stop-opacity=".392"/></linearGradient><linearGradient id="linearGradient3016" x1="25.132" x2="25.132" y1=".985" y2="47.013" gradientTransform="matrix(0.62856997,0,0,0.60839392,0.91431981,-0.53479048)" gradientUnits="userSpaceOnUse" xlink:href="#linearGradient3600-4"/><linearGradient id="linearGradient3600-4"><stop id="stop3602-7" offset="0" stop-color="#f4f4f4" stop-opacity="1"/><stop id="stop3604-6" offset="1" stop-color="#dbdbdb" stop-opacity="1"/></linearGradient><radialGradient id="radialGradient3021" cx="605.714" cy="486.648" r="117.143" fx="605.714" fy="486.648" gradientTransform="matrix(0.01566318,0,0,0.00823529,17.610433,25.980565)" gradientUnits="userSpaceOnUse" xlink:href="#linearGradient5060"/><linearGradient id="linearGradient5060"><stop id="stop5062" offset="0" stop-color="#000" stop-opacity="1"/><stop id="stop5064" offset="1" stop-color="#000" stop-opacity="0"/></linearGradient><radialGradient id="radialGradient3024" cx="605.714" cy="486.648" r="117.143" fx="605.714" fy="486.648" gradientTransform="matrix(-0.01566318,0,0,0.00823529,14.389566,25.980565)" gradientUnits="userSpaceOnUse" xlink:href="#linearGradient5060"/><linearGradient id="linearGradient5048"><stop id="stop5050" offset="0" stop-color="#000" stop-opacity="0"/><stop id="stop5056" offset=".5" stop-color="#000" stop-opacity="1"/><stop id="stop5052" offset="1" stop-color="#000" stop-opacity="0"/></linearGradient><linearGradient id="linearGradient3205" x1="302.857" x2="302.857" y1="366.648" y2="609.505" gradientTransform="matrix(0.04576928,0,0,0.00823529,-0.5423243,25.980548)" gradientUnits="userSpaceOnUse" xlink:href="#linearGradient5048"/><linearGradient id="linearGradient3874" x1="21.478" x2="21.478" y1=".537" y2="6.575" gradientTransform="matrix(0.60000005,0,0,0.40000002,1.2999979,0.80000025)" gradientUnits="userSpaceOnUse" xlink:href="#linearGradient6451"/><linearGradient id="linearGradient6451"><stop id="stop6453" offset="0" stop-color="#eeeeec" stop-opacity="1"/><stop id="stop6455" offset="1" stop-color="#fff" stop-opacity="1"/></linearGradient></defs><metadata id="metadata3212"/><rect id="rect2879" width="22.1" height="2" x="4.95" y="29" fill="url(#linearGradient3205)" fill-opacity="1" fill-rule="nonzero" stroke="none" stroke-width="1" display="inline" opacity=".15" overflow="visible" visibility="visible" style="marker:none"/><path d="m 4.9499887,29.000086 c 0,0 0,1.99989 0,1.99989 -0.806615,0.0038 -1.950002,-0.448074 -1.950002,-1.000074 0,-0.552 0.900121,-0.999816 1.950002,-0.999816 z" style="marker:none" id="path2881" fill="url(#radialGradient3024)" fill-opacity="1" fill-rule="nonzero" stroke="none" stroke-width="1" display="inline" opacity=".15" overflow="visible" visibility="visible"/><path d="m 27.050011,29.000086 c 0,0 0,1.99989 0,1.99989 0.806614,0.0038 1.950002,-0.448074 1.950002,-1.000074 0,-0.552 -0.900122,-0.999816 -1.950002,-0.999816 z" style="marker:none" id="path2883" fill="url(#radialGradient3021)" fill-opacity="1" fill-rule="nonzero" stroke="none" stroke-width="1" display="inline" opacity=".15" overflow="visible" visibility="visible"/><path id="path4160-3" fill="url(#linearGradient3016)" fill-opacity="1" stroke="none" stroke-width="1" d="m 5,1 c 5.041316,0 21.999973,0.00179 21.999973,0.00179 L 27,29 C 27,29 12.333334,29 5,29 5,19.666667 5,10.333336 5,1.0000041 Z" display="inline"/><path id="rect6741-1" fill="none" stroke="url(#linearGradient3013)" stroke-dasharray="none" stroke-dashoffset="0" stroke-linecap="round" stroke-linejoin="miter" stroke-miterlimit="4" stroke-opacity="1" stroke-width="1" d="m 26.5,28.5 h -21 v -27 h 21 z"/><path id="path3288-2-2-3" fill="#7e8087" fill-opacity="1" fill-rule="nonzero" stroke="none" stroke-dasharray="none" stroke-dashoffset="0" stroke-linecap="round" stroke-linejoin="round" stroke-miterlimit="4" stroke-opacity="1" stroke-width="1" d="M 22,15 15.999999,22 10,15 h 4 V 9 h 4 v 6 z" color="#000" display="inline" enable-background="accumulate" overflow="visible" visibility="visible" style="marker:none"/><path id="rect5480-5" fill="none" stroke="#000" stroke-dasharray="none" stroke-dashoffset="0" stroke-linecap="butt" stroke-linejoin="miter" stroke-miterlimit="4" stroke-opacity="1" stroke-width="1" d="M 4.4999999,0.5 H 27.5 c 0.554,0 1,0.446 1,1 v 3 c 0,0.554 -0.446,1 -1,1 H 4.4999999 C 3.946,5.5 3.5,5.054 3.5,4.5 v -3 c 0,-0.554 0.446,-1 0.9999999,-1 z m -3.24e-5,-3.907e-5 c 5.270482,0 23.0000375,0.00185 23.0000375,0.00185 l 2.8e-5,28.99822807 c 0,0 -15.333376,0 -23.0000655,0 0,-9.666692 0,-19.333383 0,-29.00007387 z" display="inline" opacity=".3"/><rect id="rect5480" width="24" height="4" x="4" y="1" fill="url(#linearGradient3874)" fill-opacity="1" stroke="none" stroke-width="1" display="inline" rx=".5" ry=".5"/><rect id="rect6467" width="8" height="2" x="5" y="2" fill="#d4d4d4" fill-opacity="1" stroke="none" stroke-width="1" display="inline"/><rect id="rect6469" width="1" height="3" x="14" y="1.5" fill="#969696" fill-opacity="1" stroke="none" stroke-width="1" display="inline"/></svg>