<svg xmlns="http://www.w3.org/2000/svg" xmlns:svg="http://www.w3.org/2000/svg" xmlns:xlink="http://www.w3.org/1999/xlink" id="svg4082" width="32" height="32" version="1.1"><defs id="defs4084"><linearGradient id="linearGradient855"><stop id="stop851" offset="0" stop-color="#fafafa" stop-opacity="1"/><stop id="stop853" offset="1" stop-color="#d4d4d4" stop-opacity="1"/></linearGradient><linearGradient id="linearGradient4015" x1="20.154" x2="20.154" y1="3.022" y2="26.667" gradientTransform="translate(0,2)" gradientUnits="userSpaceOnUse" xlink:href="#linearGradient4017"/><linearGradient id="linearGradient4017"><stop id="stop4019" offset="0" stop-color="#fff" stop-opacity="1"/><stop id="stop4021" offset=".496" stop-color="#fff" stop-opacity=".235"/><stop id="stop4023" offset=".88" stop-color="#fff" stop-opacity=".157"/><stop id="stop4025" offset="1" stop-color="#fff" stop-opacity=".392"/></linearGradient><radialGradient id="radialGradient3182" cx="680.566" cy="365.658" r="12.053" fx="681.326" fy="354.216" gradientTransform="matrix(0.44678297,0,0,0.44287961,-294.96947,-148.64601)" gradientUnits="userSpaceOnUse" xlink:href="#linearGradient9165-5-1"/><linearGradient id="linearGradient9165-5-1"><stop id="stop9167-7-12" offset="0" stop-color="#acb9bf" stop-opacity="1"/><stop id="stop9169-0-4" offset="1" stop-color="#acb9bf" stop-opacity="0"/></linearGradient><radialGradient id="radialGradient3164" cx="680.566" cy="365.658" r="12.053" fx="680.602" fy="355.258" gradientTransform="matrix(0.59927171,0,0,0.59403611,-389.15478,-205.61691)" gradientUnits="userSpaceOnUse" xlink:href="#linearGradient9165-59"/><linearGradient id="linearGradient9165-59"><stop id="stop9167-6" offset="0" stop-color="#b6c5cc" stop-opacity="1"/><stop id="stop9169-9" offset="1" stop-color="#e5f0f6" stop-opacity="0"/></linearGradient><radialGradient id="radialGradient3176" cx="4.993" cy="43.5" r="2.5" fx="4.993" fy="43.5" gradientTransform="matrix(2.003784,0,0,1.4,27.98813,-17.4)" gradientUnits="userSpaceOnUse" xlink:href="#linearGradient3688-5"/><linearGradient id="linearGradient3688-5"><stop id="stop3690-8" offset="0" stop-color="#000" stop-opacity="1"/><stop id="stop3692-6" offset="1" stop-color="#000" stop-opacity="0"/></linearGradient><radialGradient id="radialGradient3178" cx="4.993" cy="43.5" r="2.5" fx="4.993" fy="43.5" gradientTransform="matrix(2.003784,0,0,1.4,-20.01187,-104.4)" gradientUnits="userSpaceOnUse" xlink:href="#linearGradient3688-5"/><linearGradient id="linearGradient3180" x1="25.058" x2="25.058" y1="47.028" y2="39.999" gradientUnits="userSpaceOnUse" xlink:href="#linearGradient3702-4-7"/><linearGradient id="linearGradient3702-4-7"><stop id="stop3704-7-8" offset="0" stop-color="#000" stop-opacity="0"/><stop id="stop3710-0-0" offset=".5" stop-color="#000" stop-opacity="1"/><stop id="stop3706-7-2" offset="1" stop-color="#000" stop-opacity="0"/></linearGradient><linearGradient id="linearGradient857" x1="19.83" x2="19.83" y1="6.203" y2="32.322" gradientUnits="userSpaceOnUse" xlink:href="#linearGradient855"/><linearGradient id="linearGradient3149-7" x1="34.875" x2="34.875" y1="67.731" y2="47.816" gradientTransform="matrix(0.58616166,0,0,-0.62956577,-1.8306153,60.103534)" gradientUnits="userSpaceOnUse" xlink:href="#linearGradient4297"/><linearGradient id="linearGradient4297"><stop id="stop4299" offset="0" stop-color="#fff" stop-opacity="1"/><stop id="stop4301" offset=".525" stop-color="#fff" stop-opacity=".235"/><stop id="stop4303" offset="1" stop-color="#fff" stop-opacity=".157"/><stop id="stop4305" offset="1" stop-color="#fff" stop-opacity=".392"/></linearGradient><linearGradient id="linearGradient901" x1="24" x2="46.511" y1="21.483" y2="21.483" gradientTransform="matrix(0,0.65290508,-0.65290508,0,31.984903,1.1399389)" gradientUnits="userSpaceOnUse" xlink:href="#linearGradient899"/><linearGradient id="linearGradient899"><stop id="stop895" offset="0" stop-color="#cd9ef7" stop-opacity="1"/><stop id="stop897" offset="1" stop-color="#a56de2" stop-opacity="1"/></linearGradient><radialGradient id="radialGradient3129" cx="24.837" cy="36.421" r="15.645" fx="24.837" fy="36.421" gradientTransform="matrix(-0.36918929,0,0,-0.39646533,25.155924,39.221394)" gradientUnits="userSpaceOnUse" xlink:href="#linearGradient3688-5"/></defs><metadata id="metadata4087"/><g id="g3712-3-7" opacity=".24" transform="matrix(0.71051963,0,0,0.58319692,-1.0526103,3.5897444)"><rect id="rect2801-5" width="5" height="7" x="38" y="40" fill="url(#radialGradient3176)" fill-opacity="1" stroke="none"/><rect id="rect3696-8" width="5" height="7" x="-10" y="-47" fill="url(#radialGradient3178)" fill-opacity="1" stroke="none" transform="scale(-1)"/><rect id="rect3700-8" width="28" height="7" x="10" y="40" fill="url(#linearGradient3180)" fill-opacity="1" stroke="none"/></g><path id="rect4519" fill="url(#linearGradient857)" fill-opacity="1" fill-rule="nonzero" stroke="none" stroke-width="1" d="m 18.63832,4.5000015 c -2.936436,0 -5.479497,1.7226776 -6.740027,4.2229831 C 11.081297,8.1911724 10.114154,7.878404 9.0744882,7.878404 c -2.9141734,0 -5.276589,2.420034 -5.276589,5.4054 0,0.47463 0.073276,0.933817 0.1855016,1.372435 -2.1047212,1.45423 -3.4833861,3.928221 -3.4833861,6.735623 0,4.491888 3.5300431,8.108138 7.9148882,8.108138 H 23.585131 c 4.38485,0 7.914883,-3.61625 7.914883,-8.108138 0,-3.586954 -2.260456,-6.611095 -5.400274,-7.685803 0.08519,-0.466183 0.123669,-0.944245 0.123669,-1.435762 0,-4.2914474 -3.39595,-7.7702955 -7.585089,-7.7702955 z" color="#000" display="inline" enable-background="accumulate" overflow="visible" visibility="visible" style="marker:none"/><path id="rect4519-6" fill="none" stroke="#555761" stroke-dasharray="none" stroke-dashoffset="0" stroke-linecap="round" stroke-linejoin="round" stroke-miterlimit="4" stroke-opacity="1" stroke-width="1" d="m 18.638298,4.500001 c -2.93643,0 -5.479491,1.7226713 -6.740025,4.2229843 C 11.081277,8.1911668 10.11414,7.8784024 9.0744733,7.8784024 c -2.9141797,0 -5.2766004,2.4200346 -5.2766004,5.4054006 0,0.47463 0.073297,0.933824 0.1855067,1.372442 C 1.8786638,16.110463 0.5,18.58446 0.5,21.391872 c 0,4.49189 3.5300377,8.108129 7.9148922,8.108129 H 23.585115 c 4.384845,0 7.914884,-3.616239 7.914884,-8.108129 0,-3.58696 -2.260462,-6.6111 -5.400268,-7.685809 0.08519,-0.466188 0.123663,-0.94425 0.123663,-1.43576 0,-4.2914475 -3.395954,-7.770302 -7.585096,-7.770302 z" color="#000" display="inline" enable-background="accumulate" opacity=".5" overflow="visible" visibility="visible" style="marker:none"/><path id="path9151" fill="url(#radialGradient3164)" fill-opacity="1" fill-rule="nonzero" stroke="none" stroke-width="1.879" d="m 18.681213,5.0299104 c -2.77652,0 -5.139586,1.6977024 -6.124242,4.0994928 1.358638,1.0441718 2.234997,2.6821148 2.234997,4.5181628 0,0.976996 -0.232326,1.899881 -0.668738,2.70392 1.18835,1.121983 2.787288,1.814246 4.557983,1.814246 3.658075,0 6.634597,-2.950517 6.634597,-6.576633 0,-3.6261145 -2.976522,-6.5591886 -6.634597,-6.5591886 z" color="#000" display="inline" enable-background="accumulate" opacity=".15" overflow="visible" visibility="visible" style="marker:none"/><path id="path9151-6" fill="url(#radialGradient3182)" fill-opacity="1" fill-rule="nonzero" stroke="none" stroke-width=".523" d="m 14.033866,13.296418 a 4.9381291,4.8949867 0 1 1 -9.8762579,0 4.9381291,4.8949867 0 1 1 9.8762579,0 z" color="#000" display="inline" enable-background="accumulate" opacity=".15" overflow="visible" visibility="visible" style="marker:none"/><path id="path4007" fill="none" stroke="url(#linearGradient4015)" stroke-dasharray="none" stroke-dashoffset="0" stroke-linecap="round" stroke-linejoin="round" stroke-miterlimit="4" stroke-opacity="1" stroke-width="1" d="m 18.625,5.5 c -2.54424,0 -4.711234,1.4718499 -5.8125,3.65625 A 1.0053509,1.0053509 0 0 1 11.34375,9.5625 C 10.686391,9.1345964 9.9010967,8.875 9.0625,8.875 c -2.3574547,0 -4.25,1.945239 -4.25,4.40625 0,0.412446 0.039123,0.789313 0.125,1.125 a 1.0053509,1.0053509 0 0 1 -0.40625,1.0625 C 2.700649,16.733573 1.5,18.924451 1.5,21.40625 1.5,25.372766 4.5718921,28.5 8.40625,28.5 h 15.1875 c 3.834347,0 6.90625,-3.127236 6.90625,-7.09375 0,-3.163511 -1.98567,-5.814507 -4.71875,-6.75 a 1.0053509,1.0053509 0 0 1 -0.6875,-1.125 c 0.07322,-0.400684 0.125,-0.81277 0.125,-1.25 C 25.21875,8.5214775 22.255853,5.5 18.625,5.5 Z" color="#000" display="inline" enable-background="accumulate" opacity=".8" overflow="visible" visibility="visible" style="marker:none"/><path d="m 10.210454,24.781672 a 5.7758694,6.2025988 0 1 1 11.551738,0 5.7758694,6.2025988 0 0 1 -11.551738,0 z" style="marker:none" id="path3501" fill="url(#radialGradient3129)" fill-opacity="1" fill-rule="evenodd" stroke="none" stroke-width="1" display="inline" opacity=".141" overflow="visible" visibility="visible"/><path id="path3288-2-2" fill="url(#linearGradient901)" fill-opacity="1" fill-rule="nonzero" stroke="none" stroke-width=".964" d="M 9.7974022,24.5 16,17 22.202598,24.5 H 18.5 v 7 h -5 v -7 z" color="#000" display="block" enable-background="accumulate" overflow="visible" visibility="visible" style="marker:none"/><path clip-rule="nonzero" style="isolation:auto;mix-blend-mode:normal;solid-color:#000;solid-opacity:1;marker:none" id="path3288-2-2-7" fill="none" fill-opacity="1" fill-rule="nonzero" stroke="#7239b3" stroke-dasharray="none" stroke-dashoffset="0" stroke-linecap="butt" stroke-linejoin="round" stroke-miterlimit="4" stroke-opacity="1" stroke-width="1" d="M 9.7974022,24.5 15.994752,17 22.202598,24.5 H 18.5 v 7 h -5 v -7 z" color="#000" color-interpolation="sRGB" color-interpolation-filters="linearRGB" color-rendering="auto" display="inline" enable-background="accumulate" image-rendering="auto" opacity=".5" overflow="visible" shape-rendering="auto" text-rendering="auto" visibility="visible"/><path id="path3288-2-2-8" fill="none" stroke="url(#linearGradient3149-7)" stroke-dasharray="none" stroke-dashoffset="0" stroke-linecap="butt" stroke-linejoin="miter" stroke-miterlimit="7" stroke-opacity="1" stroke-width=".964" d="M 11.885714,23.5 16,18.5 l 4.090655,5 H 17.5 v 7 h -3 v -7 z" color="#000" display="block" enable-background="accumulate" opacity=".401" overflow="visible" visibility="visible" style="marker:none"/></svg>