<svg xmlns="http://www.w3.org/2000/svg" xmlns:svg="http://www.w3.org/2000/svg" xmlns:xlink="http://www.w3.org/1999/xlink" id="svg55" width="32" height="32" version="1.1"><metadata id="metadata59"/><defs id="defs47"><linearGradient id="a"><stop id="stop2" offset="0" stop-color="#90dbec"/><stop id="stop4" offset=".262" stop-color="#55c1ec"/><stop id="stop6" offset=".705" stop-color="#3689e6"/><stop id="stop8" offset="1" stop-color="#2b63a0"/></linearGradient><linearGradient id="c"><stop id="stop20" offset="0"/><stop id="stop22" offset="1" stop-opacity="0"/></linearGradient><linearGradient id="h" x1="25" x2="25" y1="11.923" y2="40.322" gradientTransform="matrix(.8179 0 0 .81725 -3.387 -3.323)" gradientUnits="userSpaceOnUse" xlink:href="#a"/><linearGradient id="i" x1="58.749" x2="105.324" y1="2.048" y2="58.048" gradientTransform="matrix(.89764 0 0 .89244 -54.771 -8.33)" gradientUnits="userSpaceOnUse" xlink:href="#f"/><linearGradient id="f"><stop id="stop41" offset="0" stop-color="#fff"/><stop id="stop43" offset="1" stop-color="#fff" stop-opacity="0"/></linearGradient><radialGradient id="g" cx="11.25" cy="19.031" r="8.063" fx="11.25" fy="19.031" gradientTransform="matrix(1.9845 0 0 .54877 -6.326 17.445)" gradientUnits="userSpaceOnUse" xlink:href="#c"/></defs><path id="path49" fill="url(#g)" d="M32 27.889c.001 5.9-31.999 5.9-32 0-.001-5.9 31.999-5.9 32 0z" opacity=".163" overflow="visible" style="marker:none"/><path id="path51" fill="url(#h)" stroke="#00537d" stroke-linejoin="round" stroke-opacity=".498" d="M31.374 17.538l-9.844 11.42-9.794-11.42h4.982c1.675-4.484-1.764-6.963-5.75-6.963-2.833 0-6.677 1.995-7.975 5.866-.676 2.013-1.865 1.131-1.82-.619C1.353 9.07 6.363 3.67 13.842 3.67c7.479 0 13.034 4.99 12.615 13.868z" overflow="visible" style="marker:none"/><path id="path53" fill="none" stroke="url(#i)" d="M29.132 18.62l-7.521 8.678-7.475-8.677h3.192c2.8-6.228-1.308-9.072-6.855-9.186C7.556 9.375 4 12 2 15.812c1-6 4.424-11.126 11.256-11.14 6.903-.012 13.176 3.9 12.156 13.949z" opacity=".354" overflow="visible" style="marker:none"/></svg>