<svg xmlns="http://www.w3.org/2000/svg" xmlns:svg="http://www.w3.org/2000/svg" xmlns:xlink="http://www.w3.org/1999/xlink" id="svg3946" width="32" height="32" version="1.1"><defs id="defs3948"><linearGradient id="linearGradient1893"><stop id="stop1889" offset="0" stop-color="#000" stop-opacity="1"/><stop id="stop1891" offset="1" stop-color="#fff" stop-opacity="1"/></linearGradient><linearGradient id="linearGradient3242-7-3-8-0-4-58-06"><stop id="stop3244-5-8-5-6-4-3-8" offset="0" stop-color="#cdf87e" stop-opacity="1"/><stop id="stop3246-9-5-1-5-3-0-7" offset=".262" stop-color="#a2e34f" stop-opacity="1"/><stop id="stop3248-7-2-0-7-5-35-9" offset=".661" stop-color="#68b723" stop-opacity="1"/><stop id="stop3250-8-2-8-5-6-40-4" offset="1" stop-color="#1d7e0d" stop-opacity="1"/></linearGradient><linearGradient id="linearGradient4154"><stop id="stop4156" offset="0" stop-color="#fff" stop-opacity="1"/><stop id="stop4158" offset="0" stop-color="#fff" stop-opacity=".235"/><stop id="stop4160" offset="1" stop-color="#fff" stop-opacity=".157"/><stop id="stop4162" offset="1" stop-color="#fff" stop-opacity=".392"/></linearGradient><radialGradient id="radialGradient3343-7" cx="65.325" cy="48.709" r="31" fx="65.325" fy="48.709" gradientTransform="matrix(0,0.68597915,-0.7462606,0,60.288383,-27.737493)" gradientUnits="userSpaceOnUse" xlink:href="#linearGradient3242-7-3-8-0-4-58-06"/><linearGradient id="linearGradient3030-2" x1="24.139" x2="24.139" y1="10.171" y2="36.136" gradientTransform="matrix(0.42269325,0,0,0.38513145,14.544843,15.082967)" gradientUnits="userSpaceOnUse" xlink:href="#linearGradient4154"/><linearGradient id="linearGradient3030-1-1" x1="24.139" x2="24.139" y1="20.749" y2="25.528" gradientTransform="matrix(0.38833389,0,0,0.41842122,15.301011,14.318351)" gradientUnits="userSpaceOnUse" xlink:href="#linearGradient4333-8"/><linearGradient id="linearGradient4333-8"><stop id="stop4335-7" offset="0" stop-color="#fff" stop-opacity="1"/><stop id="stop4337-9" offset="0" stop-color="#fff" stop-opacity=".235"/><stop id="stop4339-2" offset="1" stop-color="#fff" stop-opacity=".157"/><stop id="stop4341-0" offset="1" stop-color="#fff" stop-opacity=".392"/></linearGradient><linearGradient id="linearGradient1895" x1="72.5" x2="86" y1="2.75" y2="2.75" gradientUnits="userSpaceOnUse" xlink:href="#linearGradient1893"/><linearGradient id="linearGradient1899" x1="72.5" x2="86" y1="2.75" y2="2.75" gradientTransform="translate(18.5)" gradientUnits="userSpaceOnUse" xlink:href="#linearGradient1893"/><linearGradient id="linearGradient1909" x1="83" x2="91" y1="2.75" y2="2.75" gradientUnits="userSpaceOnUse" xlink:href="#linearGradient1893"/><radialGradient id="radialGradient4277" cx="99.157" cy="186.171" r="62.769" fx="99.157" fy="186.171" gradientTransform="matrix(0.0876227,0,0,0.05575992,-0.68840565,18.118812)" gradientUnits="userSpaceOnUse" xlink:href="#linearGradient3820-7-2-2"/><linearGradient id="linearGradient3820-7-2-2"><stop id="stop3822-2-6-36" offset="0" stop-color="#3d3d3d" stop-opacity="1"/><stop id="stop3864-8-7-6" offset=".5" stop-color="#686868" stop-opacity=".498"/><stop id="stop3824-1-2-4" offset="1" stop-color="#686868" stop-opacity="0"/></linearGradient></defs><metadata id="metadata3951"/><path id="path3818-0-2" fill="url(#radialGradient4277)" fill-opacity="1" stroke="none" stroke-width="1" d="m 13.5,28.499666 a 5.5,3.4999999 0 1 1 -11,0 5.5,3.4999999 0 1 1 11,0 z"/><g id="g1939" transform="rotate(-45,68.244165,96.890242)"><path id="rect1871" fill="#d4d4d4" fill-opacity="1" stroke="#000" stroke-linecap="round" stroke-linejoin="bevel" stroke-opacity=".427" stroke-width="1" d="m 76,-2 c -1.939,0 -3.5,1.56100002 -3.5,3.5 V 4 c 0,1.939 1.561,3.5 3.5,3.5 h 6.5 C 84.439,7.5 86,5.939 86,4 V 1.5 C 86,-0.43899998 84.439,-2 82.5,-2 Z m 0.25,2.5 h 6 c 0.6925,0 1.25,0.5575 1.25,1.25 v 2 C 83.5,4.4425 82.9425,5 82.25,5 h -6 C 75.5575,5 75,4.4425 75,3.75 v -2 C 75,1.0575 75.5575,0.5 76.25,0.5 Z" opacity="1"/><path id="rect1875" fill="#d4d4d4" fill-opacity="1" stroke="#000" stroke-linecap="round" stroke-linejoin="bevel" stroke-opacity=".427" stroke-width="1" d="M 94.5,-2 C 92.561,-2 91,-0.43899998 91,1.5 V 4 c 0,1.939 1.561,3.5 3.5,3.5 h 6.5 c 1.939,0 3.5,-1.561 3.5,-3.5 V 1.5 c 0,-1.93899998 -1.561,-3.5 -3.5,-3.5 z m 0.25,2.5 h 6 c 0.6925,0 1.25,0.5575 1.25,1.25 v 2 C 102,4.4425 101.4425,5 100.75,5 h -6 C 94.0575,5 93.5,4.4425 93.5,3.75 v -2 c 0,-0.6925 0.5575,-1.25 1.25,-1.25 z" opacity="1"/><path id="path1887" fill="url(#linearGradient1895)" fill-opacity="1" stroke="none" stroke-linecap="round" stroke-linejoin="bevel" stroke-opacity=".427" stroke-width="1" d="m 76,-2 c -1.939,0 -3.5,1.56100002 -3.5,3.5 V 4 c 0,1.939 1.561,3.5 3.5,3.5 h 6.5 C 84.439,7.5 86,5.939 86,4 V 1.5 C 86,-0.43899998 84.439,-2 82.5,-2 Z m 0.25,2.5 h 6 c 0.6925,0 1.25,0.5575 1.25,1.25 v 2 C 83.5,4.4425 82.9425,5 82.25,5 h -6 C 75.5575,5 75,4.4425 75,3.75 v -2 C 75,1.0575 75.5575,0.5 76.25,0.5 Z" opacity=".2"/><path id="path1897" fill="url(#linearGradient1899)" fill-opacity="1" stroke="none" stroke-linecap="round" stroke-linejoin="bevel" stroke-opacity=".427" stroke-width="1" d="M 94.5,-2 C 92.561,-2 91,-0.43899998 91,1.5 V 4 c 0,1.939 1.561,3.5 3.5,3.5 h 6.5 c 1.939,0 3.5,-1.561 3.5,-3.5 V 1.5 c 0,-1.93899998 -1.561,-3.5 -3.5,-3.5 z m 0.25,2.5 h 6 c 0.6925,0 1.25,0.5575 1.25,1.25 v 2 C 102,4.4425 101.4425,5 100.75,5 h -6 C 94.0575,5 93.5,4.4425 93.5,3.75 v -2 c 0,-0.6925 0.5575,-1.25 1.25,-1.25 z" opacity=".2"/><path id="rect1915" fill="none" fill-opacity="1" stroke="#fff" stroke-linecap="round" stroke-linejoin="round" stroke-opacity="1" stroke-width="1" d="m 94.5,-1 h 6.5 c 1.385,0 2.5,1.115 2.5,2.5 V 4" opacity=".4"/><path id="rect1918" fill="none" fill-opacity="1" stroke="#fff" stroke-linecap="round" stroke-linejoin="bevel" stroke-opacity="1" stroke-width="1" d="m 100.75,6 h -6 C 93.5035,6 92.5,4.9965 92.5,3.75" opacity=".4"/><path id="path1921" fill="none" fill-opacity="1" stroke="#fff" stroke-linecap="round" stroke-linejoin="round" stroke-opacity="1" stroke-width="1" d="M 82.5,6.5 H 76 C 74.615,6.5 73.5,5.385 73.5,4 V 1.5" opacity=".4"/><path id="path1923" fill="none" fill-opacity="1" stroke="#fff" stroke-linecap="round" stroke-linejoin="bevel" stroke-opacity="1" stroke-width="1" d="m 76.25,-0.5 h 6 c 1.2465,0 2.25,1.0035 2.25,2.25" opacity=".4"/><rect id="rect1879" width="13" height="2.5" x="82" y="1.5" fill="#d4d4d4" fill-opacity="1" stroke="#000" stroke-linecap="round" stroke-linejoin="bevel" stroke-opacity=".427" stroke-width="1" opacity="1" rx="1.5" ry="1.5"/><rect id="rect1901" width="13" height="2.5" x="82" y="1.5" fill="url(#linearGradient1909)" fill-opacity="1" stroke="none" stroke-linecap="round" stroke-linejoin="bevel" stroke-opacity=".427" stroke-width="1" opacity=".2" rx="1.5" ry="1.5"/><path id="rect1925" fill="none" fill-opacity="1" stroke="#fff" stroke-linecap="round" stroke-linejoin="bevel" stroke-opacity="1" stroke-width="1" d="M 83,2.75 C 83,2.6115 83.669,2.5 84.5,2.5 h 8 c 0.831,0 1.5,0.1115 1.5,0.25" opacity=".4"/></g><g id="g4374" transform="translate(0,0.006868)"><path id="path2262" fill="url(#radialGradient3343-7)" fill-opacity="1" fill-rule="nonzero" stroke="none" stroke-dasharray="none" stroke-dashoffset="0" stroke-linecap="round" stroke-linejoin="round" stroke-miterlimit="4" stroke-opacity="1" stroke-width=".985" d="m 21.5,21.5 v -4.021022 h 5 V 21.5 h 4.007287 v 5 H 26.5 v 4.007286 h -5 V 26.5 h -4.007286 v -5 z" color="#000" display="inline" enable-background="accumulate" overflow="visible" visibility="visible" style="marker:none"/><path id="path2272-4" fill="none" stroke="url(#linearGradient3030-2)" stroke-dasharray="none" stroke-linecap="butt" stroke-linejoin="miter" stroke-miterlimit="4" stroke-opacity="1" stroke-width="1" d="M 22.5,23.003028 V 18.5 h 3 v 4.496972 M 25.5,25 v 4.5 h -3 V 25" display="inline" opacity=".5"/><path id="path2272-2" fill="none" stroke="url(#linearGradient3030-1-1)" stroke-dasharray="none" stroke-linecap="butt" stroke-linejoin="miter" stroke-miterlimit="4" stroke-opacity="1" stroke-width="1" d="m 26,22.512298 3.499869,-0.01086 v 2.987703 L 26,25.500001 m -4,0 -3.500131,-0.01086 V 22.501438 L 22,22.512298" display="inline" opacity=".5"/><path clip-rule="nonzero" style="isolation:auto;mix-blend-mode:normal;solid-color:#000;solid-opacity:1;marker:none" id="path2262-9" fill="none" fill-opacity="1" fill-rule="nonzero" stroke="#0f5a00" stroke-dasharray="none" stroke-dashoffset="0" stroke-linecap="round" stroke-linejoin="round" stroke-miterlimit="4" stroke-opacity="1" stroke-width="1" d="m 21.5,21.5 v -4.021022 h 5 V 21.5 h 4.007287 v 5 H 26.5 v 4.007286 h -5 V 26.5 h -4.007286 v -5 z" color="#000" color-interpolation="sRGB" color-interpolation-filters="linearRGB" color-rendering="auto" display="inline" enable-background="accumulate" image-rendering="auto" opacity=".5" overflow="visible" shape-rendering="auto" text-rendering="auto" visibility="visible"/></g></svg>