<svg xmlns="http://www.w3.org/2000/svg" xmlns:svg="http://www.w3.org/2000/svg" xmlns:xlink="http://www.w3.org/1999/xlink" id="svg4279" width="32" height="32" version="1.1"><defs id="defs4281"><linearGradient id="linearGradient851"><stop id="stop847" offset="0" stop-color="#cd9ef7" stop-opacity="1"/><stop id="stop849" offset="1" stop-color="#a56de2" stop-opacity="1"/></linearGradient><linearGradient id="linearGradient3339" x1="23.732" x2="23.732" y1="4.418" y2="42.04" gradientTransform="matrix(-0.72265023,0,0,0.67321315,38.280959,0.2708587)" gradientUnits="userSpaceOnUse" xlink:href="#linearGradient2867-449-88-871-390-598-476-591-434-148-57-177"/><linearGradient id="linearGradient2867-449-88-871-390-598-476-591-434-148-57-177"><stop id="stop3750" offset="0" stop-color="#90dbec" stop-opacity="1"/><stop id="stop3752" offset=".262" stop-color="#55c1ec" stop-opacity="1"/><stop id="stop3754" offset=".705" stop-color="#3689e6" stop-opacity="1"/><stop id="stop3756" offset="1" stop-color="#2b63a0" stop-opacity="1"/></linearGradient><linearGradient id="linearGradient3343" x1="38.941" x2="20.576" y1="15.991" y2="15.991" gradientTransform="matrix(0,-0.78895601,-0.84689274,0,36.992617,36.692439)" gradientUnits="userSpaceOnUse" xlink:href="#linearGradient4087"/><linearGradient id="linearGradient4087"><stop id="stop4089" offset="0" stop-color="#fff" stop-opacity="1"/><stop id="stop4091" offset=".512" stop-color="#fff" stop-opacity=".235"/><stop id="stop4093" offset=".585" stop-color="#fff" stop-opacity=".157"/><stop id="stop4095" offset="1" stop-color="#fff" stop-opacity=".392"/></linearGradient><radialGradient id="radialGradient3449" cx="24.837" cy="36.421" r="15.645" fx="24.837" fy="36.421" gradientTransform="matrix(0.70660609,0,0,-0.47076982,-2.0168205,39.780906)" gradientUnits="userSpaceOnUse" xlink:href="#linearGradient8662-7"/><linearGradient id="linearGradient8662-7"><stop id="stop8664-0" offset="0" stop-color="#000" stop-opacity="1"/><stop id="stop8666-1" offset="1" stop-color="#000" stop-opacity="0"/></linearGradient><radialGradient id="radialGradient3353" cx="24.837" cy="36.421" r="15.645" fx="24.837" fy="36.421" gradientTransform="matrix(0.70660609,0,0,-0.47076982,0.6498463,39.780906)" gradientUnits="userSpaceOnUse" xlink:href="#linearGradient8662"/><linearGradient id="linearGradient8662"><stop id="stop8664" offset="0" stop-color="#000" stop-opacity="1"/><stop id="stop8666" offset="1" stop-color="#000" stop-opacity="0"/></linearGradient><linearGradient id="linearGradient3855" x1="38.941" x2="20.576" y1="15.991" y2="15.991" gradientTransform="matrix(0,-0.78895601,-0.84689274,0,28.992212,36.692439)" gradientUnits="userSpaceOnUse" xlink:href="#linearGradient4087"/><linearGradient id="linearGradient853" x1="13.544" x2="13.544" y1="3.312" y2="26.329" gradientUnits="userSpaceOnUse" xlink:href="#linearGradient851"/></defs><metadata id="metadata4284"/><path id="path3501-0" fill="url(#radialGradient3449)" fill-opacity="1" fill-rule="evenodd" stroke="none" stroke-width="1" d="m 26.587911,22.63493 a 11.054667,7.365074 0 1 0 -22.1093338,0 11.054667,7.365074 0 0 0 22.1093338,0 z" display="inline" opacity=".141" overflow="visible" visibility="visible" style="marker:none"/><path id="path3503-80-2" fill="url(#linearGradient853)" fill-opacity="1" fill-rule="nonzero" stroke="none" stroke-dasharray="none" stroke-dashoffset="0" stroke-linecap="butt" stroke-linejoin="round" stroke-miterlimit="7" stroke-opacity="1" stroke-width=".964" d="M 19.217729,26.317467 C 26.72097,19.777783 23.832929,9.1111163 12.499594,8.8254195 l 0,-5.5246984 -11.77862519,9.2063419 11.77862519,9.206341 0,-5.480261 c 6.596408,-0.25605 10.512679,5.758419 5.796913,10.084324 z" display="block" overflow="visible" visibility="visible" style="marker:none"/><path stroke-opacity="1" style="marker:none" id="path3505-2-5" fill="none" stroke="url(#linearGradient3855)" stroke-dasharray="none" stroke-dashoffset="0" stroke-linecap="butt" stroke-linejoin="miter" stroke-miterlimit="7" stroke-width=".964" d="M 20.980325,23.110481 C 24.31833,18.5613 22.241455,9.1686821 11.499595,9.9031482 l 0,-4.5547218 -9.1286196,7.1586366 9.1286196,7.15138 0,-4.324975 c 8.762555,-0.841601 10.447691,6.244542 9.48073,7.777013 z" display="block" opacity=".53" overflow="visible" visibility="visible"/><path id="path3503-80-1" fill="none" fill-opacity="1" fill-rule="nonzero" stroke="#7239b3" stroke-dasharray="none" stroke-dashoffset="0" stroke-linecap="butt" stroke-linejoin="round" stroke-miterlimit="4" stroke-opacity="1" stroke-width="1" d="M 19.217729,26.317467 C 26.72097,19.777783 23.832929,9.1111167 12.499594,8.8254199 l 0,-5.5246984 -11.77862519,9.2063415 11.77862519,9.206341 0,-5.480261 c 6.596408,-0.25605 10.512679,5.758419 5.796913,10.084324 z" clip-rule="nonzero" color="#000" color-interpolation="sRGB" color-interpolation-filters="linearRGB" color-rendering="auto" display="inline" enable-background="accumulate" image-rendering="auto" opacity=".5" overflow="visible" shape-rendering="auto" text-rendering="auto" visibility="visible" style="isolation:auto;mix-blend-mode:normal;solid-color:#000;solid-opacity:1;marker:none"/><path id="path3501" fill="url(#radialGradient3353)" fill-opacity="1" fill-rule="evenodd" stroke="none" stroke-width="1" d="m 29.254578,22.63493 a 11.054667,7.3650738 0 1 0 -22.109334,0 11.054667,7.3650738 0 0 0 22.109334,0 z" display="inline" opacity=".141" overflow="visible" visibility="visible" style="marker:none"/><path id="path3503" fill="url(#linearGradient3339)" fill-opacity="1" fill-rule="nonzero" stroke="none" stroke-dasharray="none" stroke-dashoffset="0" stroke-linecap="butt" stroke-linejoin="round" stroke-miterlimit="7" stroke-opacity="1" stroke-width=".964" d="m 27.218134,26.317467 c 7.503241,-6.539684 4.6152,-17.2063503 -6.718135,-17.4920471 l 0,-5.5246984 -11.7786251,9.2063415 11.7786251,9.20634 0,-5.48026 c 6.596408,-0.25605 10.512679,5.758419 5.796913,10.084324 z" display="block" overflow="visible" visibility="visible" style="marker:none"/><path stroke-opacity="1" style="marker:none" id="path3505" fill="none" stroke="url(#linearGradient3343)" stroke-dasharray="none" stroke-dashoffset="0" stroke-linecap="butt" stroke-linejoin="miter" stroke-miterlimit="7" stroke-width=".964" d="M 28.98073,23.11048 C 32.318735,18.5613 30.24186,9.1686825 19.5,9.9031486 l 0,-4.5547218 -9.12862,7.1586362 9.12862,7.15138 0,-4.324975 c 8.762555,-0.841601 10.447691,6.244542 9.48073,7.777012 z" display="block" opacity=".53" overflow="visible" visibility="visible"/><path clip-rule="nonzero" style="marker:none;isolation:auto;mix-blend-mode:normal;solid-color:#000;solid-opacity:1;filter-blend-mode:normal;filter-gaussianBlur-deviation:0" id="path3503-4" fill="#000" fill-opacity="0" fill-rule="nonzero" stroke="#00537d" stroke-dasharray="none" stroke-dashoffset="0" stroke-linecap="round" stroke-linejoin="round" stroke-miterlimit="4" stroke-opacity="1" stroke-width="1" d="m 27.218134,26.317467 c 7.503241,-6.539684 4.6152,-17.20635 -6.718135,-17.4920468 l 0,-5.5246984 -11.7786251,9.2063412 11.7786251,9.20634 0,-5.48026 c 6.596408,-0.25605 10.512679,5.758419 5.796913,10.084324 z" color="#000" color-interpolation="sRGB" color-interpolation-filters="linearRGB" color-rendering="auto" display="inline" enable-background="accumulate" image-rendering="auto" opacity=".5" overflow="visible" shape-rendering="auto" text-rendering="auto" visibility="visible"/></svg>