<svg xmlns="http://www.w3.org/2000/svg" xmlns:svg="http://www.w3.org/2000/svg" xmlns:xlink="http://www.w3.org/1999/xlink" id="svg4064" width="32" height="32" version="1.1"><defs id="defs4066"><linearGradient id="linearGradient3205" x1="71.204" x2="71.204" y1="6.238" y2="44.341" gradientTransform="matrix(0.35135134,0,0,-0.35135134,-9.203668,24.909301)" gradientUnits="userSpaceOnUse"><stop id="stop4013-2" offset="0" stop-color="#fff" stop-opacity="1"/><stop id="stop4015-4" offset=".508" stop-color="#fff" stop-opacity=".235"/><stop id="stop4017-9" offset=".835" stop-color="#fff" stop-opacity=".157"/><stop id="stop4019-0" offset="1" stop-color="#fff" stop-opacity=".392"/></linearGradient><radialGradient id="radialGradient3037" cx="23.896" cy="3.99" r="20.397" gradientTransform="matrix(0,0.64502634,-0.85142336,0,19.397182,-5.3264752)" gradientUnits="userSpaceOnUse"><stop id="stop3244-4" offset="0" stop-color="#f8b17e" stop-opacity="1"/><stop id="stop3246-5" offset=".262" stop-color="#e35d4f" stop-opacity="1"/><stop id="stop3248-0" offset=".661" stop-color="#c6262e" stop-opacity="1"/><stop id="stop3250-3" offset="1" stop-color="#690b54" stop-opacity="1"/></radialGradient><linearGradient id="linearGradient3039" x1="7.078" x2="7.078" y1="3.082" y2="45.369" gradientTransform="matrix(0.27026349,0,0,0.27026353,9.5136756,9.5136758)" gradientUnits="userSpaceOnUse"><stop id="stop2492-0" offset="0" stop-color="#791235" stop-opacity="1"/><stop id="stop2494-6" offset="1" stop-color="#c7321f" stop-opacity="1"/></linearGradient><linearGradient id="linearGradient3524" x1="71.204" x2="71.204" y1="6.238" y2="44.341" gradientTransform="matrix(0.67567564,0,0,0.67567563,-32.468591,-1.1332679)" gradientUnits="userSpaceOnUse"><stop id="stop4013" offset="0" stop-color="#fff" stop-opacity="1"/><stop id="stop4015" offset=".508" stop-color="#fff" stop-opacity=".235"/><stop id="stop4017" offset=".835" stop-color="#fff" stop-opacity=".157"/><stop id="stop4019" offset="1" stop-color="#fff" stop-opacity=".392"/></linearGradient><radialGradient id="radialGradient3013" cx="23.896" cy="3.99" r="20.397" gradientTransform="matrix(0,1.5835582,-2.0902688,0,24.340178,-36.357109)" gradientUnits="userSpaceOnUse"><stop id="stop3244" offset="0" stop-color="#fff" stop-opacity="1"/><stop id="stop3246" offset=".262" stop-color="#ddd" stop-opacity="1"/><stop id="stop3248" offset=".661" stop-color="#abacae" stop-opacity="1"/><stop id="stop3250" offset="1" stop-color="#89898b" stop-opacity="1"/></radialGradient><linearGradient id="linearGradient3015" x1="18.379" x2="18.379" y1="44.98" y2="3.082" gradientTransform="matrix(0.66350462,0,0,0.66350472,0.07588745,0.0758879)" gradientUnits="userSpaceOnUse"><stop id="stop2492" offset="0" stop-color="#505050" stop-opacity="1"/><stop id="stop2494" offset="1" stop-color="#aaa" stop-opacity="1"/></linearGradient><radialGradient id="radialGradient4053" cx="62.625" cy="4.625" r="10.625" gradientTransform="matrix(1.5058824,0,0,0.37647,-78.305888,26.258824)" gradientUnits="userSpaceOnUse"><stop id="stop8840" offset="0" stop-color="#000" stop-opacity="1"/><stop id="stop8842" offset="1" stop-color="#000" stop-opacity="0"/></radialGradient><linearGradient id="linearGradient3018" x1="71.204" x2="71.204" y1="6.238" y2="44.341" gradientTransform="matrix(0.35135134,0,0,-0.35135134,-9.203668,24.909301)" gradientUnits="userSpaceOnUse" xlink:href="#linearGradient3205"/><radialGradient id="radialGradient3021" cx="23.896" cy="3.99" r="20.397" gradientTransform="matrix(0,0.64502634,-0.85142336,0,19.397182,-5.3264752)" gradientUnits="userSpaceOnUse" xlink:href="#radialGradient3037"/><linearGradient id="linearGradient3023" x1="7.078" x2="7.078" y1="3.082" y2="45.369" gradientTransform="matrix(0.27026349,0,0,0.27026353,9.5136756,9.5136758)" gradientUnits="userSpaceOnUse" xlink:href="#linearGradient3039"/><linearGradient id="linearGradient3026" x1="71.204" x2="71.204" y1="6.238" y2="44.341" gradientTransform="matrix(0.67567564,0,0,0.67567563,-32.468591,-1.1332679)" gradientUnits="userSpaceOnUse" xlink:href="#linearGradient3524"/><radialGradient id="radialGradient3029" cx="23.896" cy="3.99" r="20.397" gradientTransform="matrix(0,1.5835582,-2.0902688,0,24.340178,-36.357109)" gradientUnits="userSpaceOnUse" xlink:href="#radialGradient3013"/><linearGradient id="linearGradient3031" x1="18.379" x2="18.379" y1="44.98" y2="3.082" gradientTransform="matrix(0.66350462,0,0,0.66350472,0.07588745,0.0758879)" gradientUnits="userSpaceOnUse" xlink:href="#linearGradient3015"/><radialGradient id="radialGradient3034" cx="62.625" cy="4.625" r="10.625" gradientTransform="matrix(1.5058824,0,0,0.37647,-78.305888,26.258824)" gradientUnits="userSpaceOnUse" xlink:href="#radialGradient4053"/><linearGradient id="linearGradient3524-6" x1="71.204" x2="71.204" y1="6.238" y2="44.341" gradientTransform="matrix(0.67567564,0,0,0.67567563,-32.468591,-1.1332679)" gradientUnits="userSpaceOnUse"><stop id="stop4013-1" offset="0" stop-color="#fff" stop-opacity="1"/><stop id="stop4015-2" offset=".508" stop-color="#fff" stop-opacity=".235"/><stop id="stop4017-93" offset=".835" stop-color="#fff" stop-opacity=".157"/><stop id="stop4019-1" offset="1" stop-color="#fff" stop-opacity=".392"/></linearGradient><linearGradient id="linearGradient3053" x1="71.204" x2="71.204" y1="6.238" y2="44.341" gradientTransform="matrix(0.24324324,0,0,0.24324324,-1.4486925,9.8320237)" gradientUnits="userSpaceOnUse" xlink:href="#linearGradient3524-6"/><linearGradient id="linearGradient3990"><stop id="stop3992" offset="0" stop-color="#fff" stop-opacity="1"/><stop id="stop3994" offset="1" stop-color="#fff" stop-opacity="0"/></linearGradient><linearGradient id="linearGradient3175" x1="68.313" x2="68.313" y1="52.925" y2="65.922" gradientUnits="userSpaceOnUse" xlink:href="#linearGradient3990"/></defs><metadata id="metadata4069"/><path id="path8836" fill="url(#radialGradient3034)" fill-rule="evenodd" d="m 32,28 c 0,2.2091 -7.1634,4 -16,4 -8.8366,0 -16,-1.791 -16,-4 0,-2.2091 7.1634,-4 16,-4 8.8366,0 16,1.7909 16,4 z" opacity=".3"/><path id="path2555" fill="url(#radialGradient3029)" stroke="url(#linearGradient3031)" stroke-dasharray="none" stroke-dashoffset="0" stroke-linecap="round" stroke-linejoin="round" stroke-miterlimit="4" stroke-width="1.004" d="m 16,2.5018 c -7.4478,0 -13.498,6.0503 -13.498,13.498 0,7.4478 6.0503,13.498 13.498,13.498 7.4478,0 13.498,-6.0503 13.498,-13.498 C 29.498,8.552 23.4477,2.5018 16,2.5018 z"/><path id="path8655-6" fill="none" stroke="url(#linearGradient3026)" stroke-dasharray="none" stroke-dashoffset="0" stroke-linecap="round" stroke-linejoin="round" stroke-miterlimit="4" stroke-width="1" d="M 28.5,16 C 28.5,22.903 22.903,28.5 16,28.5 9.0965,28.5 3.5,22.903 3.5,16 3.5,9.0961 9.0965,3.5 16,3.5 22.903,3.5 28.5,9.0961 28.5,16 z" color="#000" enable-background="accumulate" opacity=".8"/><path id="path2555-3" fill="url(#radialGradient3021)" stroke="url(#linearGradient3023)" stroke-dasharray="none" stroke-dashoffset="0" stroke-linecap="round" stroke-linejoin="round" stroke-miterlimit="4" stroke-width="1.004" d="m 16,10.502 c -3.0337,0 -5.4982,2.4645 -5.4982,5.4982 0,3.0337 2.4645,5.4982 5.4982,5.4982 3.0337,0 5.4982,-2.4645 5.4982,-5.4982 0,-3.0337 -2.4645,-5.4982 -5.4982,-5.4982 z"/><path id="path8655-6-1" fill="none" stroke="url(#linearGradient3018)" stroke-dasharray="none" stroke-dashoffset="0" stroke-linecap="round" stroke-linejoin="round" stroke-miterlimit="4" stroke-width="1" d="M 22.5,16 C 22.5,12.41 19.5896,9.4998 16.0001,9.4998 12.4102,9.4998 9.5,12.4101 9.5,16 c 0,3.5898 2.9102,6.4998 6.5001,6.4998 3.5896,0 6.4999,-2.91 6.4999,-6.4998 z" color="#000" enable-background="accumulate" opacity=".5"/><path id="path8655-6-9" fill="none" stroke="url(#linearGradient3053)" stroke-dasharray="none" stroke-dashoffset="0" stroke-linecap="round" stroke-linejoin="round" stroke-miterlimit="4" stroke-width="1" d="m 20.500001,16 c 0,2.485081 -2.01492,4.500001 -4.5,4.500001 C 13.514741,20.500001 11.5,18.485081 11.5,16 c 0,-2.485403 2.014741,-4.5 4.500001,-4.5 2.48508,0 4.5,2.014597 4.5,4.5 z" color="#000" enable-background="accumulate" opacity=".5"/><path display="inline" style="marker:none" id="path3220" fill="url(#linearGradient3175)" fill-opacity="1" stroke="none" stroke-width="1" d="m 78.338799,64.349724 a 11.424408,11.424408 0 1 1 -22.848816,0 11.424408,11.424408 0 1 1 22.848816,0 z" color="#000" enable-background="accumulate" opacity=".4" overflow="visible" transform="matrix(0.26259566,0,0,0.26259566,-1.5714286,-1.8979581)" visibility="visible"/></svg>