<svg xmlns="http://www.w3.org/2000/svg" xmlns:svg="http://www.w3.org/2000/svg" xmlns:xlink="http://www.w3.org/1999/xlink" id="svg3658" width="32" height="32" version="1.1"><defs id="defs3660"><linearGradient id="linearGradient4011"><stop id="stop4013" offset="0" stop-color="#fff" stop-opacity="1"/><stop id="stop4015" offset=".508" stop-color="#fff" stop-opacity=".235"/><stop id="stop4017" offset=".835" stop-color="#fff" stop-opacity=".157"/><stop id="stop4019" offset="1" stop-color="#fff" stop-opacity=".392"/></linearGradient><linearGradient id="linearGradient3820-7-2-2"><stop id="stop3822-2-6-36" offset="0" stop-color="#3d3d3d" stop-opacity="1"/><stop id="stop3864-8-7-6" offset=".5" stop-color="#686868" stop-opacity=".498"/><stop id="stop3824-1-2-4" offset="1" stop-color="#686868" stop-opacity="0"/></linearGradient><radialGradient id="radialGradient4048" cx="99.157" cy="186.171" r="62.769" fx="99.157" fy="186.171" gradientTransform="matrix(0.17524541,0,0,0.05575992,-1.3768101,18.11895)" gradientUnits="userSpaceOnUse" xlink:href="#linearGradient3820-7-2-2"/><linearGradient id="linearGradient12398-3" x1="71.204" x2="71.204" y1="6.238" y2="44.341" gradientTransform="matrix(0.72973007,0,0,0.72973007,-36.346113,-2.5039328)" gradientUnits="userSpaceOnUse" xlink:href="#linearGradient4011"/><linearGradient id="linearGradient11527-6-5" x1="2035.165" x2="2035.165" y1="3208.074" y2="3241.997" gradientTransform="matrix(1.1113759,0,0,0.83086027,-2249.8942,-2663.1587)" gradientUnits="userSpaceOnUse" xlink:href="#linearGradient947"/><linearGradient id="linearGradient947"><stop id="stop943" offset="0" stop-color="#ed5353" stop-opacity="1"/><stop id="stop945" offset="1" stop-color="#c6262e" stop-opacity="1"/></linearGradient></defs><metadata id="metadata3663"/><path id="path3818-0-2" fill="url(#radialGradient4048)" fill-opacity="1" stroke="none" d="m 27.000001,28.499804 a 11,3.4999999 0 1 1 -21.9999997,0 11,3.4999999 0 1 1 21.9999997,0 z"/><path id="path2555-7-8-5-0-9" fill="url(#linearGradient11527-6-5)" fill-opacity="1" fill-rule="nonzero" stroke="none" stroke-width="1" d="m 15.999999,1.4999997 c -8.000603,0 -14.5,6.4993973 -14.5,14.5000003 0,8.000603 6.499397,14.5 14.5,14.5 C 24.000603,30.5 30.500014,24.000603 30.5,16 30.5,7.999397 24.000603,1.4999997 15.999999,1.4999997 Z" color="#000" display="inline" enable-background="accumulate" opacity=".99" overflow="visible" visibility="visible" style="marker:none"/><path id="path8655-6-0-9-5-0" fill="none" stroke="url(#linearGradient12398-3)" stroke-dasharray="none" stroke-dashoffset="0" stroke-linecap="round" stroke-linejoin="round" stroke-miterlimit="4" stroke-opacity="1" stroke-width="1" d="m 29.5,15.999517 c 0,7.456096 -6.044607,13.500489 -13.499837,13.500489 -7.455912,0 -13.5001626,-6.044464 -13.5001626,-13.500489 0,-7.4557408 6.0442506,-13.4995231 13.5001626,-13.4995231 7.45523,0 13.499837,6.0437824 13.499837,13.4995231 z" color="#000" display="inline" enable-background="accumulate" opacity=".4" overflow="visible" visibility="visible" style="marker:none"/><path id="path2555-4" fill="none" fill-opacity="1" stroke="#7a0000" stroke-dasharray="none" stroke-dashoffset="0" stroke-linecap="round" stroke-linejoin="round" stroke-miterlimit="4" stroke-opacity="1" stroke-width="1" d="m 16.000001,1.5017981 c -7.9996071,0 -14.4982031,6.4985937 -14.4982031,14.4982009 0,7.999609 6.498596,14.498206 14.4982031,14.498203 7.999605,0 14.498209,-6.498594 14.498201,-14.498203 0,-7.9996072 -6.498596,-14.4982009 -14.498201,-14.4982009 z" color="#000" display="inline" enable-background="accumulate" opacity=".5" overflow="visible" vector-effect="none" visibility="visible" style="marker:none;font-variant-east_asian:normal"/><path id="rect968-61-3" fill="#7a0000" fill-opacity="1" stroke="none" stroke-dasharray="none" stroke-dashoffset="0" stroke-linecap="butt" stroke-linejoin="miter" stroke-miterlimit="4" stroke-opacity="1" stroke-width=".844" d="m 11.128906,9.7363281 c -0.614157,0 -1.2300461,0.2418318 -1.691406,0.7031249 -0.9243234,0.924206 -0.9243223,2.456653 0,3.380859 L 12.617188,17 9.4375,20.179688 c -0.9251864,0.92507 -0.9251842,2.457741 0,3.382812 0.92508,0.924963 2.457733,0.924964 3.382812,0 L 16,20.382812 19.179688,23.5625 c 0.925078,0.924962 2.457732,0.924961 3.382812,0 0.925182,-0.925072 0.925184,-2.457742 0,-3.382812 L 19.382812,17 22.5625,13.820312 c 0.92432,-0.924206 0.924321,-2.456653 0,-3.380859 -0.925079,-0.9249625 -2.457734,-0.9249636 -3.382812,0 L 16,13.619141 12.820312,10.439453 C 12.358947,9.9781477 11.743052,9.7363281 11.128906,9.7363281 Z" opacity=".05" transform="matrix(0.99911966,0,0,0.99862984,0.01408625,0.02701228)" vector-effect="none" style="marker:none;font-variant-east_asian:normal"/><path id="rect968-61" fill="#7a0000" fill-opacity="1" stroke="none" stroke-dasharray="none" stroke-dashoffset="0" stroke-linecap="butt" stroke-linejoin="miter" stroke-miterlimit="4" stroke-opacity="1" stroke-width=".843" d="m 11.129019,10.750001 c -0.35221,0 -0.704316,0.136473 -0.974196,0.406314 -0.5397637,0.539695 -0.5397637,1.408457 0,1.948153 l 3.896784,3.896303 -3.896784,3.896305 c -0.5397637,0.539696 -0.5397637,1.408455 0,1.948153 0.539763,0.539695 1.408631,0.539695 1.948393,0 l 3.896783,-3.896305 3.896786,3.896305 c 0.539763,0.539695 1.40863,0.539695 1.948394,0 0.539762,-0.539698 0.539762,-1.408457 0,-1.948153 l -3.896786,-3.896305 3.896786,-3.896303 c 0.539762,-0.539696 0.539762,-1.408458 0,-1.948153 -0.539764,-0.539696 -1.408631,-0.539696 -1.948394,0 l -3.896786,3.896304 -3.896783,-3.896304 c -0.269882,-0.269847 -0.621987,-0.406314 -0.974197,-0.406314 z" opacity=".15" vector-effect="none" style="marker:none"/><path id="rect968" fill="#fff" fill-opacity="1" stroke="none" stroke-dasharray="none" stroke-dashoffset="0" stroke-linecap="butt" stroke-linejoin="miter" stroke-miterlimit="4" stroke-opacity="1" stroke-width=".843" d="m 11.129018,9.7500005 c -0.35221,0 -0.704316,0.1364583 -0.974196,0.4063145 -0.5397627,0.539695 -0.5397627,1.408455 0,1.948151 l 3.896784,3.896305 -3.896784,3.896305 c -0.5397627,0.539696 -0.5397627,1.408455 0,1.948152 0.539763,0.539696 1.408629,0.539696 1.948392,0 l 3.896784,-3.896305 3.896786,3.896305 c 0.539763,0.539696 1.40863,0.539696 1.948394,0 0.539762,-0.539697 0.539762,-1.408456 0,-1.948152 l -3.896786,-3.896305 3.896786,-3.896305 c 0.539762,-0.539696 0.539762,-1.408456 0,-1.948151 -0.539764,-0.5396964 -1.408631,-0.5396964 -1.948394,0 l -3.896786,3.896304 -3.896784,-3.896304 C 11.833333,9.8864657 11.481228,9.7500005 11.129018,9.7500005 Z" opacity="1" vector-effect="none" style="marker:none"/></svg>