<svg xmlns="http://www.w3.org/2000/svg" xmlns:svg="http://www.w3.org/2000/svg" xmlns:xlink="http://www.w3.org/1999/xlink" id="svg4248" width="32" height="32" version="1.1"><defs id="defs4250"><linearGradient id="linearGradient4011-4"><stop id="stop4013-8" offset="0" stop-color="#fff" stop-opacity="1"/><stop id="stop4015-5" offset=".508" stop-color="#fff" stop-opacity=".235"/><stop id="stop4017-6" offset=".835" stop-color="#fff" stop-opacity=".157"/><stop id="stop4019-1" offset="1" stop-color="#fff" stop-opacity=".392"/></linearGradient><linearGradient id="linearGradient3089" x1="71.204" x2="71.204" y1="6.238" y2="44.341" gradientTransform="matrix(0.72972969,0,0,0.72972969,-36.346075,-2.5039314)" gradientUnits="userSpaceOnUse" xlink:href="#linearGradient4011-4"/><radialGradient id="radialGradient3092" cx=".965" cy="8.45" r="20" fx=".965" fy="8.45" gradientTransform="matrix(0,4.7500023,-5.0249359,-1.3352823e-7,58.459621,-17.585409)" gradientUnits="userSpaceOnUse" xlink:href="#linearGradient2867-449-88-871-390-598-476-591-434-148-57-177-8-3-3-6-4-8-8-8-5"/><linearGradient id="linearGradient3820-7-2-2"><stop id="stop3822-2-6-36" offset="0" stop-color="#3d3d3d" stop-opacity="1"/><stop id="stop3864-8-7-6" offset=".5" stop-color="#686868" stop-opacity=".498"/><stop id="stop3824-1-2-4" offset="1" stop-color="#686868" stop-opacity="0"/></linearGradient><radialGradient id="radialGradient3315" cx="99.157" cy="186.171" r="62.769" fx="99.157" fy="186.171" gradientTransform="matrix(0.17524541,0,0,0.05575992,-1.3768101,18.118568)" gradientUnits="userSpaceOnUse" xlink:href="#linearGradient3820-7-2-2"/><linearGradient id="linearGradient2867-449-88-871-390-598-476-591-434-148-57-177-8-3-3-6-4-8-8-8-5"><stop id="stop3750-1-0-7-6-6-1-3-9-3" offset="0" stop-color="#919caf" stop-opacity="1"/><stop id="stop3752-3-7-4-0-32-8-923-0-7" offset=".262" stop-color="#68758e" stop-opacity="1"/><stop id="stop3754-1-8-5-2-7-6-7-1-9" offset=".705" stop-color="#485a6c" stop-opacity="1"/><stop id="stop3756-1-6-2-6-6-1-96-6-0" offset="1" stop-color="#444c5c" stop-opacity="1"/></linearGradient></defs><metadata id="metadata4253"/><path id="path3818-0-2" fill="url(#radialGradient3315)" fill-opacity="1" stroke="none" d="m 27.000001,28.499422 a 11,3.4999999 0 1 1 -21.9999997,0 11,3.4999999 0 1 1 21.9999997,0 z"/><path id="path2555" fill="url(#radialGradient3092)" fill-opacity="1" fill-rule="nonzero" stroke="none" stroke-width="1" d="M 16.000002,1.4999989 C 7.9994024,1.4999989 1.5,7.9993978 1.5,15.999998 1.5,24.0006 7.9994024,30.500002 16.000002,30.5 24.000599,30.5 30.500007,24.0006 30.5,15.999998 30.5,7.9993978 24.000599,1.4999989 16.000002,1.4999989 z" color="#000" display="inline" enable-background="accumulate" overflow="visible" visibility="visible" style="marker:none"/><path id="path2555-6" fill="none" fill-opacity="1" fill-rule="nonzero" stroke="#1c2c38" stroke-dasharray="none" stroke-dashoffset="0" stroke-linecap="round" stroke-linejoin="round" stroke-miterlimit="4" stroke-opacity="1" stroke-width="1" d="M 16.000002,1.4999989 C 7.999402,1.4999989 1.5,7.9993981 1.5,15.999999 1.5,24.000599 7.999402,30.500002 16.000002,30.5 24.000598,30.5 30.500008,24.000599 30.5,15.999999 30.5,7.9993981 24.000598,1.4999989 16.000002,1.4999989 z" clip-rule="nonzero" color="#000" color-interpolation="sRGB" color-interpolation-filters="linearRGB" color-rendering="auto" display="inline" enable-background="accumulate" image-rendering="auto" opacity=".5" overflow="visible" shape-rendering="auto" text-rendering="auto" visibility="visible" style="marker:none;isolation:auto;mix-blend-mode:normal;solid-color:#000;solid-opacity:1;filter-blend-mode:normal;filter-gaussianBlur-deviation:0"/><path id="path8655" fill="none" stroke="url(#linearGradient3089)" stroke-dasharray="none" stroke-dashoffset="0" stroke-linecap="round" stroke-linejoin="round" stroke-miterlimit="4" stroke-opacity="1" stroke-width="1" d="m 29.5,15.999521 c 0,7.456085 -6.044601,13.500478 -13.499829,13.500478 C 8.54426,29.499999 2.5,23.455537 2.5,15.999521 2.5,8.5437808 8.54426,2.5000002 16.000171,2.5000002 23.455399,2.5000002 29.5,8.5437808 29.5,15.999521 l 0,0 z" color="#000" display="inline" enable-background="accumulate" opacity=".3" overflow="visible" visibility="visible" style="marker:none"/><path clip-rule="nonzero" style="isolation:auto;mix-blend-mode:normal;solid-color:#000;solid-opacity:1;marker:none;filter-blend-mode:normal;filter-gaussianBlur-deviation:0" id="path4789" fill="#1c2c38" fill-opacity="1" fill-rule="nonzero" stroke="none" stroke-dasharray="none" stroke-dashoffset="0" stroke-linecap="butt" stroke-linejoin="miter" stroke-miterlimit="4" stroke-opacity="1" stroke-width="1" d="M 16,6.4707031 C 10.196976,6.4707031 5.4707031,11.196976 5.4707031,17 5.4707031,22.803024 10.196976,27.529297 16,27.529297 21.803024,27.529297 26.529297,22.803024 26.529297,17 26.529297,11.196976 21.803024,6.4707031 16,6.4707031 Z m 0,4.0585939 c 2.861162,0 5.180151,1.883245 6.041016,4.441406 l -12.0820316,0 C 10.819849,12.412542 13.138838,10.529297 16,10.529297 Z m -6.0410156,8.5 12.0820316,0 C 21.180151,21.587458 18.861162,23.470703 16,23.470703 c -2.861162,0 -5.180151,-1.883245 -6.0410156,-4.441406 z" color="#000" color-interpolation="sRGB" color-interpolation-filters="linearRGB" color-rendering="auto" display="inline" enable-background="accumulate" image-rendering="auto" opacity=".15" overflow="visible" shape-rendering="auto" text-rendering="auto" visibility="visible"/><path clip-rule="nonzero" style="marker:none;isolation:auto;mix-blend-mode:normal;solid-color:#000;solid-opacity:1;filter-blend-mode:normal;filter-gaussianBlur-deviation:0" id="path3168-9" fill="#1c2c38" fill-opacity="1" fill-rule="nonzero" stroke="none" stroke-dasharray="none" stroke-dashoffset="0" stroke-linecap="butt" stroke-linejoin="miter" stroke-miterlimit="4" stroke-opacity="1" stroke-width="1" d="m 16,7.5 c -5.246705,0 -9.5,4.253295 -9.5,9.5 0,5.246705 4.253295,9.5 9.5,9.5 5.246705,0 9.5,-4.253295 9.5,-9.5 0,-5.246705 -4.253295,-9.5 -9.5,-9.5 z m 0,2 c 3.804875,0 6.950887,2.828113 7.4375,6.5 L 8.5625,16 C 9.0491134,12.328113 12.195125,9.5 16,9.5 Z M 8.5625,18 23.4375,18 C 22.950887,21.671887 19.804875,24.5 16,24.5 12.195125,24.5 9.0491134,21.671887 8.5625,18 Z" color="#000" color-interpolation="sRGB" color-interpolation-filters="linearRGB" color-rendering="auto" display="inline" enable-background="accumulate" image-rendering="auto" opacity=".3" overflow="visible" shape-rendering="auto" text-rendering="auto" visibility="visible"/><path id="path3168" fill="#fff" fill-opacity="1" fill-rule="nonzero" stroke="none" stroke-width="1" d="m 16,6.5 c -5.246705,0 -9.5,4.253295 -9.5,9.5 0,5.246705 4.253295,9.5 9.5,9.5 5.246705,0 9.5,-4.253295 9.5,-9.5 0,-5.246705 -4.253295,-9.5 -9.5,-9.5 z m 0,2 c 3.804875,0 6.950887,2.828113 7.4375,6.5 L 8.5625,15 C 9.0491134,11.328113 12.195125,8.5 16,8.5 Z M 8.5625,17 23.4375,17 C 22.950887,20.671887 19.804875,23.5 16,23.5 12.195125,23.5 9.0491134,20.671887 8.5625,17 Z" color="#000" display="inline" enable-background="accumulate" opacity="1" overflow="visible" visibility="visible" style="marker:none"/></svg>