<svg xmlns="http://www.w3.org/2000/svg" xmlns:svg="http://www.w3.org/2000/svg" xmlns:xlink="http://www.w3.org/1999/xlink" id="svg4248" width="32" height="32" version="1.1"><defs id="defs4250"><linearGradient id="linearGradient4011-4"><stop id="stop4013-8" offset="0" stop-color="#fff" stop-opacity="1"/><stop id="stop4015-5" offset=".508" stop-color="#fff" stop-opacity=".235"/><stop id="stop4017-6" offset=".835" stop-color="#fff" stop-opacity=".157"/><stop id="stop4019-1" offset="1" stop-color="#fff" stop-opacity=".392"/></linearGradient><linearGradient id="linearGradient3089" x1="71.204" x2="71.204" y1="6.238" y2="44.341" gradientTransform="matrix(0.72972969,0,0,0.72972969,-36.346075,-2.5039314)" gradientUnits="userSpaceOnUse" xlink:href="#linearGradient4011-4"/><radialGradient id="radialGradient3092" cx=".965" cy="8.45" r="20" fx=".965" fy="8.45" gradientTransform="matrix(0,4.7500023,-5.0249359,-1.3352823e-7,58.459621,-17.585409)" gradientUnits="userSpaceOnUse" xlink:href="#linearGradient2867-449-88-871-390-598-476-591-434-148-57-177-8-3-3-6-4-8-8-8"/><linearGradient id="linearGradient3820-7-2-2"><stop id="stop3822-2-6-36" offset="0" stop-color="#3d3d3d" stop-opacity="1"/><stop id="stop3864-8-7-6" offset=".5" stop-color="#686868" stop-opacity=".498"/><stop id="stop3824-1-2-4" offset="1" stop-color="#686868" stop-opacity="0"/></linearGradient><radialGradient id="radialGradient3315" cx="99.157" cy="186.171" r="62.769" fx="99.157" fy="186.171" gradientTransform="matrix(0.17524541,0,0,0.05575992,-1.3768101,18.118568)" gradientUnits="userSpaceOnUse" xlink:href="#linearGradient3820-7-2-2"/><linearGradient id="linearGradient3702-501-757-3"><stop id="stop2895-3" offset="0" stop-color="#181818" stop-opacity="0"/><stop id="stop2897-28" offset=".5" stop-color="#181818" stop-opacity="1"/><stop id="stop2899-8" offset="1" stop-color="#181818" stop-opacity="0"/></linearGradient><linearGradient id="linearGradient2980" x1="25.058" x2="25.058" y1="47.028" y2="39.999" gradientUnits="userSpaceOnUse" xlink:href="#linearGradient3702-501-757-3"/><linearGradient id="linearGradient3688-464-309-7"><stop id="stop2889-0" offset="0" stop-color="#181818" stop-opacity="1"/><stop id="stop2891-66" offset="1" stop-color="#181818" stop-opacity="0"/></linearGradient><radialGradient id="radialGradient2978" cx="4.993" cy="43.5" r="2.5" fx="4.993" fy="43.5" gradientTransform="matrix(2.003784,0,0,1.4,-20.01187,-104.4)" gradientUnits="userSpaceOnUse" xlink:href="#linearGradient3688-464-309-7"/><linearGradient id="linearGradient3688-166-749-6"><stop id="stop2883-8" offset="0" stop-color="#181818" stop-opacity="1"/><stop id="stop2885-3" offset="1" stop-color="#181818" stop-opacity="0"/></linearGradient><radialGradient id="radialGradient2976" cx="4.993" cy="43.5" r="2.5" fx="4.993" fy="43.5" gradientTransform="matrix(2.003784,0,0,1.4,27.98813,-17.4)" gradientUnits="userSpaceOnUse" xlink:href="#linearGradient3688-166-749-6"/><linearGradient id="linearGradient2867-449-88-871-390-598-476-591-434-148-57-177-8-3-3-6-4-8-8-8"><stop id="stop3750-1-0-7-6-6-1-3-9" offset="0" stop-color="#ffcd7d" stop-opacity="1"/><stop id="stop3752-3-7-4-0-32-8-923-0" offset=".262" stop-color="#fc8f36" stop-opacity="1"/><stop id="stop3754-1-8-5-2-7-6-7-1" offset=".705" stop-color="#e23a0e" stop-opacity="1"/><stop id="stop3756-1-6-2-6-6-1-96-6" offset="1" stop-color="#ac441f" stop-opacity="1"/></linearGradient><linearGradient id="linearGradient3924-0"><stop id="stop3926-6" offset="0" stop-color="#fff" stop-opacity="1"/><stop id="stop3928-3" offset=".063" stop-color="#fff" stop-opacity=".235"/><stop id="stop3930-2" offset=".951" stop-color="#fff" stop-opacity=".157"/><stop id="stop3932-62" offset="1" stop-color="#fff" stop-opacity=".392"/></linearGradient><linearGradient id="linearGradient5803-0"><stop id="stop5805-3" offset="0" stop-color="#fff5ef" stop-opacity="1"/><stop id="stop5807-4" offset="1" stop-color="#fef8dd" stop-opacity="1"/></linearGradient><linearGradient id="linearGradient3945" x1="167.983" x2="167.983" y1="8.508" y2="54.78" gradientTransform="matrix(0.42210105,0,0,0.42210105,-91.477411,-14.111184)" gradientUnits="userSpaceOnUse" xlink:href="#linearGradient5803-0"/><linearGradient id="linearGradient3950" x1="24" x2="24" y1="5" y2="43" gradientTransform="matrix(0.62162164,0,0,0.62162164,-52.613836,7.3607515)" gradientUnits="userSpaceOnUse" xlink:href="#linearGradient3924-0"/><radialGradient id="radialGradient3954" cx="6.73" cy="9.957" r="12.672" fx="6.2" fy="9.957" gradientTransform="matrix(0,6.0881746,-7.4743333,0,37.260565,-44.490194)" gradientUnits="userSpaceOnUse" xlink:href="#linearGradient2867-449-88-871-390-598-476-591-434-148-57-177-8-3-3-6-4-8-8-8"/></defs><metadata id="metadata4253"/><path id="path3818-0-2" fill="url(#radialGradient3315)" fill-opacity="1" stroke="none" d="m 27.000001,28.499422 a 11,3.4999999 0 1 1 -21.9999997,0 11,3.4999999 0 1 1 21.9999997,0 z"/><path d="M 16.000002,1.4999989 C 7.9994024,1.4999989 1.5,7.9993978 1.5,15.999998 1.5,24.0006 7.9994024,30.500002 16.000002,30.5 24.000599,30.5 30.500007,24.0006 30.5,15.999998 30.5,7.9993978 24.000599,1.4999989 16.000002,1.4999989 z" style="marker:none" id="path2555" fill="url(#radialGradient3092)" fill-opacity="1" fill-rule="nonzero" stroke="none" stroke-width="1" color="#000" display="inline" enable-background="accumulate" overflow="visible" visibility="visible"/><path id="path2555-6" fill="none" stroke="#640000" stroke-dasharray="none" stroke-dashoffset="0" stroke-linecap="round" stroke-linejoin="round" stroke-miterlimit="4" stroke-opacity="1" stroke-width="1" d="M 16.000002,1.4999989 C 7.999402,1.4999989 1.5,7.9993981 1.5,15.999999 1.5,24.000599 7.999402,30.500002 16.000002,30.5 24.000598,30.5 30.500008,24.000599 30.5,15.999999 30.5,7.9993981 24.000598,1.4999989 16.000002,1.4999989 z" color="#000" display="inline" enable-background="accumulate" opacity=".4" overflow="visible" visibility="visible" style="marker:none"/><path id="path8655" fill="none" stroke="url(#linearGradient3089)" stroke-dasharray="none" stroke-dashoffset="0" stroke-linecap="round" stroke-linejoin="round" stroke-miterlimit="4" stroke-opacity="1" stroke-width="1" d="m 29.5,15.999521 c 0,7.456085 -6.044601,13.500478 -13.499829,13.500478 C 8.54426,29.499999 2.5,23.455537 2.5,15.999521 2.5,8.5437808 8.54426,2.5000002 16.000171,2.5000002 23.455399,2.5000002 29.5,8.5437808 29.5,15.999521 l 0,0 z" color="#000" display="inline" enable-background="accumulate" opacity=".5" overflow="visible" visibility="visible" style="marker:none"/><path id="path4026" fill="#ae2109" fill-opacity="1" fill-rule="nonzero" stroke="none" stroke-width="1" d="m 14.875,9.03125 a 0.97549411,0.97549411 0 0 0 -0.53125,0.25 l -8,7.03125 a 0.97549411,0.97549411 0 0 0 0,1.46875 l 8,6.96875 a 0.97549411,0.97549411 0 0 0 1.625,-0.75 l 0,-4.03125 8.03125,0 A 0.97549411,0.97549411 0 0 0 24.96875,19 l 0,-3.9375 A 0.97549411,0.97549411 0 0 0 24,14.09375 l -8.03125,0 0,-4.09375 A 0.97549411,0.97549411 0 0 0 14.875,9.03125 z" color="#000" display="inline" enable-background="accumulate" opacity=".15" overflow="visible" transform="matrix(-1,0,0,1,31.97875,0)" visibility="visible" style="marker:none"/><path id="path4348-5" fill="#ae2109" fill-opacity="1" fill-rule="nonzero" stroke="none" stroke-width="1" d="M 17,10 25,17.027124 17,24 l 0,-5 -9,0 0,-3.927874 9,0 z" color="#000" display="inline" enable-background="accumulate" opacity=".3" overflow="visible" visibility="visible" style="marker:none"/><path id="path4348" fill="#fff" fill-opacity="1" fill-rule="nonzero" stroke="none" stroke-width="1" d="M 17,9 25,16.027124 17,23 l 0,-5 -9,0 0,-3.927874 9,0 z" display="inline" overflow="visible" visibility="visible" style="marker:none"/></svg>