<svg xmlns="http://www.w3.org/2000/svg" xmlns:svg="http://www.w3.org/2000/svg" xmlns:xlink="http://www.w3.org/1999/xlink" id="svg3286" width="32" height="32" version="1.0"><metadata id="metadata37"/><defs id="defs3288"><radialGradient id="radialGradient3813-6" cx="16.202" cy="-19.005" r="20" fx="16.202" fy="-19.005" gradientTransform="matrix(0,2.5714294,2.6127862,0,65.156831,-44.914911)" gradientUnits="userSpaceOnUse" xlink:href="#linearGradient2867-449-88-871-390-598-476-591-434-148-57-177-641-289-620-227-114-444-680-744-4-1-5-6-9"/><linearGradient id="linearGradient2867-449-88-871-390-598-476-591-434-148-57-177-641-289-620-227-114-444-680-744-4-1-5-6-9"><stop id="stop5430-5-0-9-4-2" offset="0" stop-color="#737373" stop-opacity="1"/><stop id="stop5432-2-0-0-4-4" offset=".262" stop-color="#636363" stop-opacity="1"/><stop id="stop5434-9-6-8-5-0" offset=".705" stop-color="#4b4b4b" stop-opacity="1"/><stop id="stop5436-2-7-0-0-5" offset="1" stop-color="#3f3f3f" stop-opacity="1"/></linearGradient><clipPath id="clipPath4213" clipPathUnits="userSpaceOnUse"><path id="path4215" fill="url(#radialGradient4217)" fill-opacity="1" fill-rule="nonzero" stroke="none" stroke-width="1" d="M 16.796875,3.0377993 C 16.345006,3.0377993 16,3.41763 16,3.8815493 L 16,6 C 9.9248678,6 5,10.924868 5,17 c 0,6.075132 4.9248678,11 11,11 6.075132,0 11,-4.924868 11,-11 l -5,0 c 0,3.313708 -2.686292,6 -6,6 -3.313708,0 -6,-2.686292 -6,-6 0,-3.313708 2.686292,-6 6,-6 l 0,2.180185 c 0,0.463919 0.345006,0.84375 0.796875,0.84375 0.11298,0 0.230239,-0.0044 0.328125,-0.04687 L 24.484375,9.4824219 C 24.778033,9.354897 25,9.0334863 25,8.6855469 25,8.3376075 24.778033,8.0161908 24.484375,7.8886719 L 17.125,3.0846743 c -0.09789,-0.042504 -0.215151,-0.046875 -0.328125,-0.046875 z" color="#000" display="inline" enable-background="accumulate" overflow="visible" visibility="visible" style="marker:none"/></clipPath><radialGradient id="radialGradient4217" cx="16.202" cy="-19.005" r="20" fx="16.202" fy="-19.005" gradientTransform="matrix(0,2.5714294,2.6127862,0,65.156831,-44.914911)" gradientUnits="userSpaceOnUse" xlink:href="#linearGradient2867-449-88-871-390-598-476-591-434-148-57-177-641-289-620-227-114-444-680-744-4-1-5-6-9"/></defs><path id="path3003" fill="url(#radialGradient3813-6)" fill-opacity="1" fill-rule="nonzero" stroke="none" stroke-width="1" d="M 16.796875,3.0377993 C 16.345006,3.0377993 16,3.41763 16,3.8815493 L 16,6 C 9.9248678,6 5,10.924868 5,17 c 0,6.075132 4.9248678,11 11,11 6.075132,0 11,-4.924868 11,-11 l -5,0 c 0,3.313708 -2.686292,6 -6,6 -3.313708,0 -6,-2.686292 -6,-6 0,-3.313708 2.686292,-6 6,-6 l 0,2.180185 c 0,0.463919 0.345006,0.84375 0.796875,0.84375 0.11298,0 0.230239,-0.0044 0.328125,-0.04687 L 24.484375,9.4824219 C 24.778033,9.354897 25,9.0334863 25,8.6855469 25,8.3376075 24.778033,8.0161908 24.484375,7.8886719 L 17.125,3.0846743 c -0.09789,-0.042504 -0.215151,-0.046875 -0.328125,-0.046875 z" color="#000" display="inline" enable-background="accumulate" overflow="visible" visibility="visible" style="marker:none"/><path id="path4211" fill="none" fill-opacity="1" fill-rule="nonzero" stroke="#000" stroke-dasharray="none" stroke-miterlimit="4" stroke-opacity="1" stroke-width="2" d="M 16.796875,3.0377993 C 16.345006,3.0377993 16,3.41763 16,3.8815493 L 16,6 C 9.9248678,6 5,10.924868 5,17 c 0,6.075132 4.9248678,11 11,11 6.075132,0 11,-4.924868 11,-11 l -5,0 c 0,3.313708 -2.686292,6 -6,6 -3.313708,0 -6,-2.686292 -6,-6 0,-3.313708 2.686292,-6 6,-6 l 0,2.180185 c 0,0.463919 0.345006,0.84375 0.796875,0.84375 0.11298,0 0.230239,-0.0044 0.328125,-0.04687 L 24.484375,9.4824219 C 24.778033,9.354897 25,9.0334863 25,8.6855469 25,8.3376075 24.778033,8.0161908 24.484375,7.8886719 L 17.125,3.0846743 c -0.09789,-0.042504 -0.215151,-0.046875 -0.328125,-0.046875 z" clip-path="url(#clipPath4213)" color="#000" display="inline" enable-background="accumulate" opacity=".1" overflow="visible" visibility="visible" style="marker:none"/></svg>