<svg xmlns="http://www.w3.org/2000/svg" xmlns:osb="http://www.openswatchbook.org/uri/2009/osb" xmlns:svg="http://www.w3.org/2000/svg" xmlns:xlink="http://www.w3.org/1999/xlink" id="svg6649" width="48" height="48" version="1.1"><defs id="defs6651"><linearGradient id="linearGradient4566"><stop id="stop4568" offset="0" stop-color="#000" stop-opacity="1"/><stop id="stop4570" offset="1" stop-color="#000" stop-opacity="0"/></linearGradient><linearGradient id="linearGradient4546"><stop id="stop4548" offset="0" stop-color="#fff" stop-opacity="1"/><stop id="stop4550" offset=".333" stop-color="#fff" stop-opacity=".235"/><stop id="stop4552" offset=".951" stop-color="#fff" stop-opacity=".157"/><stop id="stop4554" offset="1" stop-color="#fff" stop-opacity=".392"/></linearGradient><linearGradient id="linearGradient4526" osb:paint="solid"><stop id="stop4528" offset="0" stop-color="#fff" stop-opacity="1"/></linearGradient><linearGradient id="linearGradient4223"><stop id="stop4225" offset="0" stop-color="#d1ff82" stop-opacity="1"/><stop id="stop4227" offset=".262" stop-color="#9bdb4d" stop-opacity="1"/><stop id="stop4229" offset=".661" stop-color="#68b723" stop-opacity="1"/><stop id="stop4231" offset="1" stop-color="#3a9104" stop-opacity="1"/></linearGradient><linearGradient id="linearGradient4129"><stop id="stop4131" offset="0" stop-color="#8cd5ff" stop-opacity="1"/><stop id="stop4133" offset=".262" stop-color="#64baff" stop-opacity="1"/><stop id="stop4135" offset=".705" stop-color="#3689e6" stop-opacity="1"/><stop id="stop4137" offset="1" stop-color="#0d52bf" stop-opacity="1"/></linearGradient><radialGradient id="radialGradient4572" cx="26" cy="38" r="18" fx="26" fy="38" gradientTransform="matrix(1,0,0,0.33333333,0,25.333333)" gradientUnits="userSpaceOnUse" xlink:href="#linearGradient4566"/><clipPath id="clipPath4631" clipPathUnits="userSpaceOnUse"><path id="path4633" fill="#b84747" fill-opacity="1" stroke="none" d="m 18,21 c -4.994649,0 -9,4.005351 -9,9 l 0,2 c 0,4.994649 4.005351,9 9,9 l 18,0 c 0.291005,0 0.595612,-0.03033 0.90625,-0.0625 0.164957,-0.01665 0.343572,-0.0382 0.5,-0.0625 0.199113,-0.03129 0.353176,-0.07756 0.5625,-0.125 0.0355,-0.008 0.03758,0.002 0.0625,0 0.218054,-0.05088 0.442966,-0.09019 0.65625,-0.15625 L 38.96875,40.5 39.1875,40.71875 c 1.321675,1.292865 3.339421,1.62433 5.0625,0.8125 -0.854684,-0.590174 -1.70835,-1.221522 -2.375,-2.0625 l -0.28125,-0.375 0.34375,-0.3125 c 0.12104,-0.106162 0.277237,-0.245985 0.4375,-0.40625 0.208233,-0.208236 0.400103,-0.398273 0.5625,-0.59375 0.07931,-0.09546 0.10524,-0.11495 0.0625,-0.0625 0.15692,-0.192563 0.297542,-0.432061 0.46875,-0.6875 0.09522,-0.141184 0.16811,-0.269097 0.25,-0.40625 0.05562,-0.09374 0.1253,-0.228314 0.21875,-0.40625 0.103006,-0.194932 0.17576,-0.34428 0.21875,-0.4375 0.06734,-0.146884 0.1409,-0.32834 0.21875,-0.53125 0.06354,-0.164982 0.13073,-0.2679 0.15625,-0.34375 0.01249,-0.03725 0.03148,-0.118206 0.0625,-0.21875 0.07714,-0.249066 0.14052,-0.47772 0.1875,-0.6875 0.01928,-0.08779 0.03966,-0.218312 0.0625,-0.34375 0.03827,-0.205597 0.06782,-0.42249 0.09375,-0.65625 -0.0082,0.07577 -0.01322,0.03973 0,-0.09375 C 44.9696,32.588254 45,32.298353 45,32 l 0,-2 c 0,-4.994649 -4.005351,-9 -9,-9 l -18,0 z"/></clipPath><linearGradient id="linearGradient4644" x1="28" x2="28" y1="20" y2="40" gradientUnits="userSpaceOnUse" xlink:href="#linearGradient4546"/><radialGradient id="radialGradient4649" cx="24" cy="-1" r="19" fx="24" fy="-1" gradientTransform="matrix(3.9999999,0,0,-3.2105264,-69,23.789555)" gradientUnits="userSpaceOnUse" xlink:href="#linearGradient4129"/><radialGradient id="radialGradient4665" cx="26" cy="38" r="18" fx="26" fy="38" gradientTransform="matrix(1,0,0,0.33333333,0,25.333333)" gradientUnits="userSpaceOnUse" xlink:href="#linearGradient4566"/><radialGradient id="radialGradient4667" cx="24" cy="-1" r="19" fx="24" fy="-1" gradientTransform="matrix(-3.9999999,0,0,-3.2105264,117.98632,7.789555)" gradientUnits="userSpaceOnUse" xlink:href="#linearGradient4223"/><linearGradient id="linearGradient4669" x1="28" x2="28" y1="20" y2="40" gradientUnits="userSpaceOnUse" xlink:href="#linearGradient4546"/><linearGradient id="linearGradient3924-1-3"><stop id="stop3926-3-1" offset="0" stop-color="#fff" stop-opacity="1"/><stop id="stop3928-91-8" offset=".063" stop-color="#fff" stop-opacity=".235"/><stop id="stop3930-6-9" offset=".951" stop-color="#fff" stop-opacity=".157"/><stop id="stop3932-6-2" offset="1" stop-color="#fff" stop-opacity=".392"/></linearGradient><linearGradient id="linearGradient4658-9"><stop id="stop4660-7" offset="0" stop-color="#fafafa" stop-opacity="1"/><stop id="stop4662-3" offset="1" stop-color="#e2e1de" stop-opacity="1"/></linearGradient><linearGradient id="linearGradient3510-2"><stop id="stop3512-7" offset="0" stop-color="#000" stop-opacity="1"/><stop id="stop3514-6" offset="1" stop-color="#000" stop-opacity="0"/></linearGradient><linearGradient id="linearGradient3242-7-3-8-0-4-58-06"><stop id="stop3244-5-8-5-6-4-3-8" offset="0" stop-color="#cdf87e" stop-opacity="1"/><stop id="stop3246-9-5-1-5-3-0-7" offset=".262" stop-color="#a2e34f" stop-opacity="1"/><stop id="stop3248-7-2-0-7-5-35-9" offset=".661" stop-color="#68b723" stop-opacity="1"/><stop id="stop3250-8-2-8-5-6-40-4" offset="1" stop-color="#1d7e0d" stop-opacity="1"/></linearGradient><linearGradient id="linearGradient3109" x1="25.058" x2="25.058" y1="47.028" y2="39.999" gradientUnits="userSpaceOnUse" xlink:href="#linearGradient3702-501-757-5"/><linearGradient id="linearGradient3702-501-757-5"><stop id="stop2895-5" offset="0" stop-color="#181818" stop-opacity="0"/><stop id="stop2897-5" offset=".5" stop-color="#181818" stop-opacity="1"/><stop id="stop2899-0" offset="1" stop-color="#181818" stop-opacity="0"/></linearGradient><linearGradient id="linearGradient3688-464-309-0"><stop id="stop2889-4" offset="0" stop-color="#181818" stop-opacity="1"/><stop id="stop2891-4" offset="1" stop-color="#181818" stop-opacity="0"/></linearGradient><radialGradient id="radialGradient3015-8" cx="4.993" cy="43.5" r="2.5" fx="4.993" fy="43.5" gradientTransform="matrix(2.003784,0,0,1.4,-20.01187,-104.4)" gradientUnits="userSpaceOnUse" xlink:href="#linearGradient3688-464-309-0"/><linearGradient id="linearGradient3688-166-749-1"><stop id="stop2883-5" offset="0" stop-color="#181818" stop-opacity="1"/><stop id="stop2885-6" offset="1" stop-color="#181818" stop-opacity="0"/></linearGradient><radialGradient id="radialGradient3013-2" cx="4.993" cy="43.5" r="2.5" fx="4.993" fy="43.5" gradientTransform="matrix(2.003784,0,0,1.4,27.98813,-17.4)" gradientUnits="userSpaceOnUse" xlink:href="#linearGradient3688-166-749-1"/><linearGradient id="linearGradient3924-1-4"><stop id="stop3926-3-5" offset="0" stop-color="#fff" stop-opacity="1"/><stop id="stop3928-91-5" offset=".063" stop-color="#fff" stop-opacity=".235"/><stop id="stop3930-6-0" offset=".951" stop-color="#fff" stop-opacity=".157"/><stop id="stop3932-6-1" offset="1" stop-color="#fff" stop-opacity=".392"/></linearGradient><linearGradient id="linearGradient3231" x1="24" x2="24" y1="5" y2="43" gradientTransform="translate(-49.215754,3.375006)" gradientUnits="userSpaceOnUse" xlink:href="#linearGradient3924-1-3"/><linearGradient id="linearGradient3238" x1="24.17" x2="24.17" y1="-12.242" y2="48.934" gradientTransform="matrix(0.70909089,0,0,0.70909089,-47.906654,4.6840923)" gradientUnits="userSpaceOnUse" xlink:href="#linearGradient3242-7-3-8-0-4-58-06"/><linearGradient id="linearGradient3242" x1="23.954" x2="23.954" y1="15.999" y2="19.963" gradientTransform="matrix(0.99999997,0,0,0.37500001,-49.215756,11.375001)" gradientUnits="userSpaceOnUse" xlink:href="#linearGradient3510-2"/><linearGradient id="linearGradient3245" x1="24" x2="24" y1="5" y2="43" gradientTransform="translate(-49.215754,3.3750062)" gradientUnits="userSpaceOnUse" xlink:href="#linearGradient3924-1-4"/><linearGradient id="linearGradient3248" x1="25.132" x2="25.132" y1="15.5" y2="48.396" gradientTransform="matrix(0.89153988,0,0,0.8548797,-46.612714,4.0415388)" gradientUnits="userSpaceOnUse" xlink:href="#linearGradient4658-9"/></defs><metadata id="metadata6654"/><path id="path4651" fill="url(#radialGradient4665)" fill-opacity="1" stroke="none" d="M 44,38 A 18,6 0 1 1 8,38 18,6 0 1 1 44,38 z" opacity=".2" transform="matrix(-1.1111111,0,0,1,49.875214,-11)"/><path id="path4653" fill="url(#radialGradient4667)" fill-opacity="1" stroke="none" stroke-opacity=".498" d="m 30.986325,7.5 c 4.470157,-0.09711 8.65412,3.397744 9.352141,7.814101 0.214701,1.775557 0.216054,3.596222 0,5.371798 C 39.636946,25.134052 35.398045,28.640027 30.897483,28.5 24.76496,28.48752 18.631259,28.52508 12.499478,28.481 11.087455,28.266613 9.912781,27.862731 8.825029,28.990836 7.272582,29.755423 5.256296,29.693442 3.861325,28.625 4.739409,27.886882 7.406729,26.678365 6.114532,25.566122 4.196027,23.613044 3.327751,20.8173 3.486325,18.111581 3.320767,15.413652 4.059141,12.605598 5.948547,10.605947 7.934221,8.34788 11.003406,7.300313 13.963586,7.5 c 5.674246,0 11.348493,0 17.022739,0 z"/><path id="path4663" fill="none" stroke="url(#linearGradient4669)" stroke-dasharray="none" stroke-miterlimit="4" stroke-opacity=".498" stroke-width="2" d="m 18,21 c -4.235595,-0.09523 -8.203492,3.213645 -8.8601996,7.400582 -0.206798,1.644758 -0.1859501,3.326382 -0.036676,4.975593 0.5506562,4.199216 4.4292816,7.607478 8.6634876,7.620903 6.226185,-0.0059 12.453758,0.02643 18.679151,-0.01626 0.89513,0.193522 2.022757,-0.731329 2.741737,-0.262064 1.297648,1.301482 3.420655,1.615749 5.0625,0.8125 -0.995853,-0.677361 -1.966729,-1.436022 -2.65625,-2.4375 2.294802,-1.814309 3.557042,-4.768833 3.40625,-7.67704 0.08766,-2.17048 -0.155901,-4.436301 -1.411893,-6.27828 C 41.853203,22.33627 38.509168,20.769109 35.250061,21 29.500041,21 23.75002,21 18,21 z" clip-path="url(#clipPath4631)" transform="matrix(-1,0,0,1,48.986325,-13)"/><path id="path4564" fill="url(#radialGradient4572)" fill-opacity="1" stroke="none" d="M 44,38 A 18,6 0 1 1 8,38 18,6 0 1 1 44,38 z" opacity=".2" transform="matrix(1.1111111,0,0,1,-0.88888889,5)"/><path id="path4653-0" fill="none" fill-opacity="1" stroke="#206b00" stroke-dasharray="none" stroke-dashoffset="0" stroke-linecap="round" stroke-linejoin="miter" stroke-miterlimit="4" stroke-opacity="1" stroke-width="1" d="m 30.986325,7.4999995 c 4.470157,-0.09711 8.65412,3.3977445 9.352141,7.8141015 0.214701,1.775557 0.216054,3.596222 0,5.371798 C 39.636946,25.134052 35.398045,28.640027 30.897483,28.5 24.76496,28.48752 18.631259,28.52508 12.499478,28.481 11.087455,28.266613 9.912781,27.862731 8.825029,28.990836 7.272582,29.755423 5.256296,29.693442 3.861325,28.625 4.739409,27.886882 7.406729,26.678365 6.114532,25.566122 4.196027,23.613044 3.327751,20.8173 3.486325,18.111581 3.320767,15.413652 4.059141,12.605598 5.948547,10.605947 7.934221,8.3478795 11.003406,7.3003125 13.963586,7.4999995 c 5.674246,0 11.348493,0 17.022739,0 z" color="#000" display="inline" enable-background="accumulate" opacity=".4" overflow="visible" visibility="visible" style="marker:none"/><path id="path4556" fill="url(#radialGradient4649)" fill-opacity="1" stroke="#002e99" stroke-opacity=".498" d="m 18,23.5 c -4.470157,-0.09711 -8.65412,3.397744 -9.3521411,7.814101 -0.214701,1.775557 -0.2160545,3.596222 0,5.371798 0.7015193,4.448153 4.9404211,7.954128 9.4409831,7.814101 6.132523,-0.01248 12.266224,0.02508 18.398005,-0.019 1.412023,-0.214387 2.586697,-0.618269 3.674449,0.509836 C 41.713743,45.755423 43.730029,45.693442 45.125,44.625 44.246916,43.886882 41.579596,42.678365 42.871793,41.566122 44.790298,39.613044 45.658574,36.8173 45.5,34.111581 45.665558,31.413652 44.927184,28.605598 43.037778,26.605947 41.052104,24.34788 37.982919,23.300313 35.022739,23.5 29.348493,23.5 23.674246,23.5 18,23.5 z"/><path id="path3876" fill="#fff" fill-opacity="1" stroke="none" d="m 16,38 c -0.554,0 -1,0.446 -1,1 l 0,1 c 0,0.554 0.446,1 1,1 l 1,0 c 0.554,0 1,-0.446 1,-1 l 0,-1 c 0,-0.554 -0.446,-1 -1,-1 l -1,0 z m 5,0 c -0.554,0 -1,0.446 -1,1 l 0,1 c 0,0.554 0.446,1 1,1 l 1,0 c 0.554,0 1,-0.446 1,-1 l 0,-1 c 0,-0.554 -0.446,-1 -1,-1 l -1,0 z m 5,0 c -0.554,0 -1,0.446 -1,1 l 0,1 c 0,0.554 0.446,1 1,1 l 1,0 c 0.554,0 1,-0.446 1,-1 l 0,-1 c 0,-0.554 -0.446,-1 -1,-1 l -1,0 z" opacity=".3"/><path id="rect3868" fill="#002e99" fill-opacity=".498" stroke="none" d="M 16 37 C 15.446 37 15 37.446 15 38 L 15 39 C 15 39.554 15.446 40 16 40 L 17 40 C 17.554 40 18 39.554 18 39 L 18 38 C 18 37.446 17.554 37 17 37 L 16 37 z M 21 37 C 20.446 37 20 37.446 20 38 L 20 39 C 20 39.554 20.446 40 21 40 L 22 40 C 22.554 40 23 39.554 23 39 L 23 38 C 23 37.446 22.554 37 22 37 L 21 37 z M 26 37 C 25.446 37 25 37.446 25 38 L 25 39 C 25 39.554 25.446 40 26 40 L 27 40 C 27.554 40 28 39.554 28 39 L 28 38 C 28 37.446 27.554 37 27 37 L 26 37 z"/><path id="path4621" fill="none" stroke="url(#linearGradient4644)" stroke-dasharray="none" stroke-miterlimit="4" stroke-opacity=".498" stroke-width="2" d="m 18,21 c -4.235595,-0.09523 -8.203492,3.213645 -8.8601996,7.400582 -0.206798,1.644758 -0.1859501,3.326382 -0.036676,4.975593 0.5506562,4.199216 4.4292816,7.607478 8.6634876,7.620903 6.226185,-0.0059 12.453758,0.02643 18.679151,-0.01626 0.89513,0.193522 2.022757,-0.731329 2.741737,-0.262064 1.297648,1.301482 3.420655,1.615749 5.0625,0.8125 -0.995853,-0.677361 -1.966729,-1.436022 -2.65625,-2.4375 2.294802,-1.814309 3.557042,-4.768833 3.40625,-7.67704 0.08766,-2.17048 -0.155901,-4.436301 -1.411893,-6.27828 C 41.853203,22.33627 38.509168,20.769109 35.250061,21 29.500041,21 23.75002,21 18,21 z" clip-path="url(#clipPath4631)" transform="translate(0,3)"/></svg>