<svg xmlns="http://www.w3.org/2000/svg" xmlns:svg="http://www.w3.org/2000/svg" xmlns:xlink="http://www.w3.org/1999/xlink" id="svg4296" width="48" height="48" version="1.1"><defs id="defs4298"><linearGradient id="linearGradient3895"><stop id="stop3897" offset="0" stop-color="#fff" stop-opacity="1"/><stop id="stop3899" offset=".053" stop-color="#fff" stop-opacity=".235"/><stop id="stop3901" offset=".951" stop-color="#fff" stop-opacity=".157"/><stop id="stop3903" offset="1" stop-color="#fff" stop-opacity=".392"/></linearGradient><linearGradient id="linearGradient3688-166-749"><stop id="stop2883" offset="0" stop-color="#181818" stop-opacity="1"/><stop id="stop2885" offset="1" stop-color="#181818" stop-opacity="0"/></linearGradient><linearGradient id="linearGradient3688-464-309"><stop id="stop2889" offset="0" stop-color="#181818" stop-opacity="1"/><stop id="stop2891" offset="1" stop-color="#181818" stop-opacity="0"/></linearGradient><linearGradient id="linearGradient3702-501-757"><stop id="stop2895" offset="0" stop-color="#181818" stop-opacity="0"/><stop id="stop2897" offset=".5" stop-color="#181818" stop-opacity="1"/><stop id="stop2899" offset="1" stop-color="#181818" stop-opacity="0"/></linearGradient><linearGradient id="linearGradient3024" x1="24" x2="24" y1="5" y2="43" gradientTransform="translate(50.000004,1.0000062)" gradientUnits="userSpaceOnUse" xlink:href="#linearGradient3895"/><radialGradient id="radialGradient3038" cx="4.993" cy="43.5" r="2.5" fx="4.993" fy="43.5" gradientTransform="matrix(2.003784,0,0,1.4,27.98813,-17.4)" gradientUnits="userSpaceOnUse" xlink:href="#linearGradient3688-166-749"/><radialGradient id="radialGradient3040" cx="4.993" cy="43.5" r="2.5" fx="4.993" fy="43.5" gradientTransform="matrix(2.003784,0,0,1.4,-20.01187,-104.4)" gradientUnits="userSpaceOnUse" xlink:href="#linearGradient3688-464-309"/><linearGradient id="linearGradient3042" x1="25.058" x2="25.058" y1="47.028" y2="39.999" gradientUnits="userSpaceOnUse" xlink:href="#linearGradient3702-501-757"/><radialGradient id="radialGradient3054-6" cx="7.118" cy="9.957" r="12.672" fx="7.118" fy="9.957" gradientTransform="matrix(0,9.1402449,-11.221301,0,186.56278,-77.887535)" gradientUnits="userSpaceOnUse" xlink:href="#linearGradient2867-449-88-871-390-598-476-591-434-148-57-177-8-3-3-6-4-8-8-8-5"/><linearGradient id="linearGradient2867-449-88-871-390-598-476-591-434-148-57-177-8-3-3-6-4-8-8-8-5"><stop id="stop3750-1-0-7-6-6-1-3-9-3" offset="0" stop-color="#919caf" stop-opacity="1"/><stop id="stop3752-3-7-4-0-32-8-923-0-7" offset=".262" stop-color="#68758e" stop-opacity="1"/><stop id="stop3754-1-8-5-2-7-6-7-1-9" offset=".705" stop-color="#485a6c" stop-opacity="1"/><stop id="stop3756-1-6-2-6-6-1-96-6-0" offset="1" stop-color="#444c5c" stop-opacity="1"/></linearGradient><linearGradient id="linearGradient3018-5" x1="61.041" x2="61.041" y1="42.403" y2="4.338" gradientTransform="translate(-32.172838,-13.166413)" gradientUnits="userSpaceOnUse" xlink:href="#linearGradient3680-6-6-6-3-7"/><linearGradient id="linearGradient3680-6-6-6-3-7"><stop id="stop3682-4-6-1-3-7" offset="0" stop-color="#dcdcdc" stop-opacity="1"/><stop id="stop3684-8-5-8-0-2" offset="1" stop-color="#fff" stop-opacity="1"/></linearGradient><linearGradient id="linearGradient3018-5-0" x1="20" x2="20" y1="26" y2="13" gradientTransform="matrix(1,0,0,0.75,-33.981315,9.749994)" gradientUnits="userSpaceOnUse" xlink:href="#linearGradient3680-6-6-6-3-7-4"/><linearGradient id="linearGradient3680-6-6-6-3-7-4"><stop id="stop3682-4-6-1-3-7-0" offset="0" stop-color="#dcdcdc" stop-opacity="1"/><stop id="stop3684-8-5-8-0-2-5" offset="1" stop-color="#fff" stop-opacity="1"/></linearGradient><linearGradient id="linearGradient3462"><stop id="stop3464" offset="0" stop-color="#fff" stop-opacity="1"/><stop id="stop3466" offset=".035" stop-color="#fff" stop-opacity=".235"/><stop id="stop3468" offset=".964" stop-color="#fff" stop-opacity=".157"/><stop id="stop3470" offset="1" stop-color="#fff" stop-opacity=".392"/></linearGradient><linearGradient id="linearGradient2867-449-88-871-390-598-476-591-434-148-57-177-8-3-3-6-4-8-8-8-5-7"><stop id="stop3750-1-0-7-6-6-1-3-9-3-9" offset="0" stop-color="#505050" stop-opacity="1"/><stop id="stop3752-3-7-4-0-32-8-923-0-7-0" offset=".262" stop-color="#2b2b2b" stop-opacity="1"/><stop id="stop3754-1-8-5-2-7-6-7-1-9-1" offset=".705" stop-color="#0a0a0a" stop-opacity="1"/><stop id="stop3756-1-6-2-6-6-1-96-6-0-1" offset="1" stop-color="#000" stop-opacity="1"/></linearGradient><linearGradient id="linearGradient19619" x1="302.857" x2="302.857" y1="366.648" y2="609.505" gradientTransform="matrix(0.08449704,0,0,0.01235294,-6.5396456,38.470822)" gradientUnits="userSpaceOnUse" xlink:href="#linearGradient5048"/><linearGradient id="linearGradient5048"><stop id="stop5050" offset="0" stop-color="#000" stop-opacity="0"/><stop id="stop5056" offset=".5" stop-color="#000" stop-opacity="1"/><stop id="stop5052" offset="1" stop-color="#000" stop-opacity="0"/></linearGradient><radialGradient id="radialGradient19616" cx="605.714" cy="486.648" r="117.143" fx="605.714" fy="486.648" gradientTransform="matrix(-0.0289166,0,0,0.01235294,21.026894,38.470848)" gradientUnits="userSpaceOnUse" xlink:href="#linearGradient5060"/><linearGradient id="linearGradient5060"><stop id="stop5062" offset="0" stop-color="#000" stop-opacity="1"/><stop id="stop5064" offset="1" stop-color="#000" stop-opacity="0"/></linearGradient><radialGradient id="radialGradient19613" cx="605.714" cy="486.648" r="117.143" fx="605.714" fy="486.648" gradientTransform="matrix(0.02891661,0,0,0.01235294,26.973101,38.470848)" gradientUnits="userSpaceOnUse" xlink:href="#linearGradient5060"/><linearGradient id="linearGradient4088" x1="40.29" x2="40.29" y1="5.414" y2="42.438" gradientTransform="matrix(1.1621621,0,0,0.91891888,-3.8918941,4.4459492)" gradientUnits="userSpaceOnUse" xlink:href="#linearGradient3462"/><radialGradient id="radialGradient4091" cx="7.118" cy="9.957" r="12.672" fx="7.118" fy="9.957" gradientTransform="matrix(0,8.4371492,-12.947656,0,153.88012,-68.473106)" gradientUnits="userSpaceOnUse" xlink:href="#linearGradient2867-449-88-871-390-598-476-591-434-148-57-177-8-3-3-6-4-8-8-8-5"/><linearGradient id="linearGradient4115" x1="59.485" x2="59.485" y1="37.292" y2="1.741" gradientTransform="matrix(1,0,0,0.75,-33.981315,8.2499944)" gradientUnits="userSpaceOnUse" xlink:href="#linearGradient3680-6-6-6-3-7-4"/></defs><metadata id="metadata4301"/><g id="g3257" opacity=".4"><rect id="rect2879" width="40.8" height="3" x="3.6" y="43" fill="url(#linearGradient19619)" fill-opacity="1" fill-rule="nonzero" stroke="none" stroke-width="1" display="inline" overflow="visible" visibility="visible" style="marker:none"/><path id="path2881" fill="url(#radialGradient19616)" fill-opacity="1" fill-rule="nonzero" stroke="none" stroke-width="1" d="m 3.6,43.00013 c 0,0 0,2.999835 0,2.999835 C 2.1108662,46.005612 0,45.327854 0,44.499854 0,43.671856 1.6617608,43.000131 3.6,43.00013 z" display="inline" overflow="visible" visibility="visible" style="marker:none"/><path id="path2883" fill="url(#radialGradient19613)" fill-opacity="1" fill-rule="nonzero" stroke="none" stroke-width="1" d="m 44.4,43.00013 c 0,0 0,2.999835 0,2.999835 1.489133,0.0056 3.6,-0.672111 3.6,-1.500111 0,-0.827998 -1.661761,-1.499723 -3.6,-1.499724 z" display="inline" overflow="visible" visibility="visible" style="marker:none"/></g><rect id="rect5505-21-3-8-5-2" width="45" height="36" x="1.5" y="8.5" fill="url(#radialGradient4091)" fill-opacity="1" fill-rule="nonzero" stroke="none" stroke-width="1" color="#000" display="inline" enable-background="accumulate" opacity="1" overflow="visible" rx="1.5" ry="1.5" visibility="visible" style="marker:none"/><path id="path4192" fill="#000" fill-opacity="1" fill-rule="nonzero" stroke="none" stroke-width="1" d="M 9.90625,17.9375 A 1.0550506,1.0550506 0 0 0 8.9375,19 l 0,3 a 1.0550506,1.0550506 0 0 0 0.75,1 1.0550506,1.0550506 0 0 0 -0.75,1 l 0,3 a 1.0550506,1.0550506 0 0 0 0.75,1 1.0550506,1.0550506 0 0 0 -0.75,1 l 0,3 A 1.0550506,1.0550506 0 0 0 10,33.0625 l 4,0 a 1.0550506,1.0550506 0 0 0 1,-0.75 1.0550506,1.0550506 0 0 0 0.6875,0.6875 1.0550506,1.0550506 0 0 0 -0.75,1 l 0,3 A 1.0550506,1.0550506 0 0 0 16,38.0625 l 16,0 A 1.0550506,1.0550506 0 0 0 33.0625,37 l 0,-3 a 1.0550506,1.0550506 0 0 0 -0.75,-1 1.0550506,1.0550506 0 0 0 0.6875,-0.6875 1.0550506,1.0550506 0 0 0 1,0.75 l 4,0 A 1.0550506,1.0550506 0 0 0 39.0625,32 l 0,-3 a 1.0550506,1.0550506 0 0 0 -0.75,-1 1.0550506,1.0550506 0 0 0 0.75,-1 l 0,-3 a 1.0550506,1.0550506 0 0 0 -0.75,-1 1.0550506,1.0550506 0 0 0 0.75,-1 l 0,-3 A 1.0550506,1.0550506 0 0 0 38,17.9375 l -4,0 a 1.0550506,1.0550506 0 0 0 -1,0.75 1.0550506,1.0550506 0 0 0 -1,-0.75 l -4,0 a 1.0550506,1.0550506 0 0 0 -1,0.75 1.0550506,1.0550506 0 0 0 -1,-0.75 l -4,0 a 1.0550506,1.0550506 0 0 0 -1,0.75 1.0550506,1.0550506 0 0 0 -1,-0.75 l -4,0 a 1.0550506,1.0550506 0 0 0 -1,0.75 1.0550506,1.0550506 0 0 0 -1,-0.75 l -4,0 a 1.0550506,1.0550506 0 0 0 -0.09375,0 z M 15,22.3125 A 1.0550506,1.0550506 0 0 0 15.6875,23 1.0550506,1.0550506 0 0 0 15,23.6875 1.0550506,1.0550506 0 0 0 14.3125,23 1.0550506,1.0550506 0 0 0 15,22.3125 z m 6,0 A 1.0550506,1.0550506 0 0 0 21.6875,23 1.0550506,1.0550506 0 0 0 21,23.6875 1.0550506,1.0550506 0 0 0 20.3125,23 1.0550506,1.0550506 0 0 0 21,22.3125 z m 6,0 A 1.0550506,1.0550506 0 0 0 27.6875,23 1.0550506,1.0550506 0 0 0 27,23.6875 1.0550506,1.0550506 0 0 0 26.3125,23 1.0550506,1.0550506 0 0 0 27,22.3125 z m 6,0 A 1.0550506,1.0550506 0 0 0 33.6875,23 1.0550506,1.0550506 0 0 0 33,23.6875 1.0550506,1.0550506 0 0 0 32.3125,23 1.0550506,1.0550506 0 0 0 33,22.3125 z m -18,5 A 1.0550506,1.0550506 0 0 0 15.6875,28 1.0550506,1.0550506 0 0 0 15,28.6875 1.0550506,1.0550506 0 0 0 14.3125,28 1.0550506,1.0550506 0 0 0 15,27.3125 z m 6,0 A 1.0550506,1.0550506 0 0 0 21.6875,28 1.0550506,1.0550506 0 0 0 21,28.6875 1.0550506,1.0550506 0 0 0 20.3125,28 1.0550506,1.0550506 0 0 0 21,27.3125 z m 6,0 A 1.0550506,1.0550506 0 0 0 27.6875,28 1.0550506,1.0550506 0 0 0 27,28.6875 1.0550506,1.0550506 0 0 0 26.3125,28 1.0550506,1.0550506 0 0 0 27,27.3125 z m 6,0 A 1.0550506,1.0550506 0 0 0 33.6875,28 1.0550506,1.0550506 0 0 0 33,28.6875 1.0550506,1.0550506 0 0 0 32.3125,28 1.0550506,1.0550506 0 0 0 33,27.3125 z m -12,5 a 1.0550506,1.0550506 0 0 0 0.53125,0.625 l -1.03125,0 a 1.0550506,1.0550506 0 0 0 0.5,-0.625 z m 6,0 a 1.0550506,1.0550506 0 0 0 0.53125,0.625 l -1.03125,0 a 1.0550506,1.0550506 0 0 0 0.5,-0.625 z" color="#000" display="inline" enable-background="accumulate" opacity=".07" overflow="visible" visibility="visible" style="marker:none"/><rect id="rect6741-5-0-2-3" width="43" height="34" x="2.5" y="9.5" fill="none" stroke="url(#linearGradient4088)" stroke-dasharray="none" stroke-dashoffset="0" stroke-linecap="round" stroke-linejoin="round" stroke-miterlimit="4" stroke-opacity="1" stroke-width="1" opacity=".3" rx=".75" ry=".75"/><rect id="rect5505-21-3-8-9-1-1" width="45" height="36" x="1.5" y="8.5" fill="none" stroke="#1c2c38" stroke-dasharray="none" stroke-dashoffset="0" stroke-linecap="round" stroke-linejoin="round" stroke-miterlimit="4" stroke-opacity="1" stroke-width="1" color="#000" display="inline" enable-background="accumulate" opacity=".5" overflow="visible" rx="1.5" ry="1.5" visibility="visible" style="marker:none"/><path id="rect3834-8" fill="#000" fill-opacity="1" fill-rule="nonzero" stroke="none" stroke-width="1" d="m 10,19 0,3 4,0 0,-3 -4,0 z m 6,0 0,3 4,0 0,-3 -4,0 z m 6,0 0,3 4,0 0,-3 -4,0 z m 6,0 0,3 4,0 0,-3 -4,0 z m 6,0 0,3 4,0 0,-3 -4,0 z m -24,5 0,3 4,0 0,-3 -4,0 z m 6,0 0,3 4,0 0,-3 -4,0 z m 6,0 0,3 4,0 0,-3 -4,0 z m 6,0 0,3 4,0 0,-3 -4,0 z m 6,0 0,3 4,0 0,-3 -4,0 z m -24,5 0,3 4,0 0,-3 -4,0 z m 6,0 0,3 4,0 0,-3 -4,0 z m 6,0 0,3 4,0 0,-3 -4,0 z m 6,0 0,3 4,0 0,-3 -4,0 z m 6,0 0,3 4,0 0,-3 -4,0 z m -18,5 0,3 16,0 0,-3 -16,0 z" color="#000" display="inline" enable-background="accumulate" opacity=".15" overflow="visible" visibility="visible" style="marker:none"/><path id="rect3834" fill="url(#linearGradient4115)" fill-opacity="1" fill-rule="nonzero" stroke="none" stroke-width="1" d="M 10 18 L 10 21 L 14 21 L 14 18 L 10 18 z M 16 18 L 16 21 L 20 21 L 20 18 L 16 18 z M 22 18 L 22 21 L 26 21 L 26 18 L 22 18 z M 28 18 L 28 21 L 32 21 L 32 18 L 28 18 z M 34 18 L 34 21 L 38 21 L 38 18 L 34 18 z M 10 23 L 10 26 L 14 26 L 14 23 L 10 23 z M 16 23 L 16 26 L 20 26 L 20 23 L 16 23 z M 22 23 L 22 26 L 26 26 L 26 23 L 22 23 z M 28 23 L 28 26 L 32 26 L 32 23 L 28 23 z M 34 23 L 34 26 L 38 26 L 38 23 L 34 23 z M 10 28 L 10 31 L 14 31 L 14 28 L 10 28 z M 16 28 L 16 31 L 20 31 L 20 28 L 16 28 z M 22 28 L 22 31 L 26 31 L 26 28 L 22 28 z M 28 28 L 28 31 L 32 31 L 32 28 L 28 28 z M 34 28 L 34 31 L 38 31 L 38 28 L 34 28 z M 16 33 L 16 36 L 32 36 L 32 33 L 16 33 z" color="#000" display="inline" enable-background="accumulate" overflow="visible" visibility="visible" style="marker:none"/></svg>