<svg xmlns="http://www.w3.org/2000/svg" xmlns:svg="http://www.w3.org/2000/svg" xmlns:xlink="http://www.w3.org/1999/xlink" id="svg4117" width="48" height="48" version="1.1"><defs id="defs4119"><linearGradient id="linearGradient3924"><stop id="stop3926" offset="0" stop-color="#fff" stop-opacity="1"/><stop id="stop3928" offset=".027" stop-color="#fff" stop-opacity=".235"/><stop id="stop3930" offset=".972" stop-color="#fff" stop-opacity=".157"/><stop id="stop3932" offset="1" stop-color="#fff" stop-opacity=".392"/></linearGradient><radialGradient id="radialGradient2873-966-168" cx="4.993" cy="43.5" r="2.5" fx="4.993" fy="43.5" gradientTransform="matrix(2.003784,0,0,1.4,27.98813,-17.4)" gradientUnits="userSpaceOnUse" xlink:href="#linearGradient3688-166-749"/><linearGradient id="linearGradient3688-166-749"><stop id="stop2883" offset="0" stop-color="#181818" stop-opacity="1"/><stop id="stop2885" offset="1" stop-color="#181818" stop-opacity="0"/></linearGradient><radialGradient id="radialGradient2875-742-326" cx="4.993" cy="43.5" r="2.5" fx="4.993" fy="43.5" gradientTransform="matrix(2.003784,0,0,1.4,-20.01187,-104.4)" gradientUnits="userSpaceOnUse" xlink:href="#linearGradient3688-464-309"/><linearGradient id="linearGradient3688-464-309"><stop id="stop2889" offset="0" stop-color="#181818" stop-opacity="1"/><stop id="stop2891" offset="1" stop-color="#181818" stop-opacity="0"/></linearGradient><linearGradient id="linearGradient2877-634-617" x1="25.058" x2="25.058" y1="47.028" y2="39.999" gradientUnits="userSpaceOnUse" xlink:href="#linearGradient3702-501-757"/><linearGradient id="linearGradient3702-501-757"><stop id="stop2895" offset="0" stop-color="#181818" stop-opacity="0"/><stop id="stop2897" offset=".5" stop-color="#181818" stop-opacity="1"/><stop id="stop2899" offset="1" stop-color="#181818" stop-opacity="0"/></linearGradient><filter id="filter3831" color-interpolation-filters="sRGB"><feGaussianBlur id="feGaussianBlur3833" stdDeviation=".637"/></filter><clipPath id="clipPath3823"><path id="path3825" fill="#fff" fill-opacity="1" stroke="none" d="M 108.8125,58 C 107.25437,58 106,59.254375 106,60.8125 l 0,24.375 C 106,86.745625 107.25437,88 108.8125,88 l 24.375,0 C 134.74562,88 136,86.745625 136,85.1875 l 0,-24.375 C 136,59.254375 134.74562,58 133.1875,58 l -24.375,0 z m 7.1875,4.5 10,0 0,8.75 5,0 -10,13.75 -10,-13.75 5,0 0,-8.75 z"/></clipPath><linearGradient id="linearGradient3812" x1="65.263" x2="65.263" y1="64.205" y2="50.069" gradientTransform="matrix(0.625,0,0,0.625,78.5,32.25)" gradientUnits="userSpaceOnUse" xlink:href="#linearGradient5010"/><filter id="filter3806" color-interpolation-filters="sRGB"><feGaussianBlur id="feGaussianBlur3808" stdDeviation="1.2"/></filter><linearGradient id="linearGradient3788" x1="70" x2="70" y1="54" y2="75.095" gradientTransform="translate(0,4)" gradientUnits="userSpaceOnUse" xlink:href="#linearGradient3737"/><linearGradient id="linearGradient3773" x1="56" x2="88" y1="72" y2="72" gradientTransform="matrix(0.9375,0,0,0.9375,-140.5,3.5)" gradientUnits="userSpaceOnUse" xlink:href="#linearGradient3778"/><linearGradient id="linearGradient3832" x1="65.263" x2="65.263" y1="64.205" y2="50.069" gradientTransform="matrix(0.625,0,0,0.625,28.5,31.25)" gradientUnits="userSpaceOnUse" xlink:href="#linearGradient3737"/><filter id="filter3174" color-interpolation-filters="sRGB"><feGaussianBlur id="feGaussianBlur3176" stdDeviation="1.71"/></filter><linearGradient id="linearGradient3737"><stop id="stop3739" offset="0" stop-color="#fff" stop-opacity="1"/><stop id="stop3741" offset="1" stop-color="#fff" stop-opacity="0"/></linearGradient><linearGradient id="ButtonShadow" x1="45.448" x2="45.448" y1="92.54" y2="7.017" gradientTransform="scale(1.0058652,0.994169)" gradientUnits="userSpaceOnUse"><stop id="stop3750" offset="0" stop-color="#000" stop-opacity="1"/><stop id="stop3752" offset="1" stop-color="#000" stop-opacity=".588"/></linearGradient><linearGradient id="linearGradient5010"><stop id="stop5012" offset="0" stop-color="#000" stop-opacity="1"/><stop id="stop5014" offset="1" stop-color="#000" stop-opacity="0"/></linearGradient><linearGradient id="linearGradient3778"><stop id="stop3780" offset="0" stop-color="#499119" stop-opacity="1"/><stop id="stop3782" offset="1" stop-color="#8fd625" stop-opacity="1"/></linearGradient><linearGradient id="linearGradient3084" x1="24" x2="24" y1="6.033" y2="42.033" gradientTransform="translate(2.4e-6,0.9674489)" gradientUnits="userSpaceOnUse" xlink:href="#linearGradient3924"/><linearGradient id="linearGradient909"><stop id="stop905" offset="0" stop-color="#fafafa" stop-opacity="1"/><stop id="stop907" offset="1" stop-color="#d4d4d4" stop-opacity="1"/></linearGradient><linearGradient id="linearGradient903" x1="14.33" x2="14.33" y1="32.022" y2="-.07" gradientTransform="matrix(1.4615385,0,0,1.4615385,0.61538514,-48.352052)" gradientUnits="userSpaceOnUse" xlink:href="#linearGradient909"/><linearGradient id="linearGradient3590" x1="71.204" x2="71.204" y1="6.238" y2="44.341" gradientTransform="matrix(-0.29729724,0,0,0.29729724,52.326181,17.461356)" gradientUnits="userSpaceOnUse" xlink:href="#linearGradient4011-9-9-70-61-7"/><linearGradient id="linearGradient4011-9-9-70-61-7"><stop id="stop4013-5-4-3-8-3" offset="0" stop-color="#fff" stop-opacity="1"/><stop id="stop4015-1-5-70-9-5" offset=".508" stop-color="#fff" stop-opacity=".235"/><stop id="stop4017-7-0-13-0-1" offset=".835" stop-color="#fff" stop-opacity=".157"/><stop id="stop4019-1-12-7-0-7" offset="1" stop-color="#fff" stop-opacity=".392"/></linearGradient><linearGradient id="linearGradient3593" x1="38.977" x2="38.977" y1="59.968" y2="8.093" gradientTransform="matrix(-0.25490196,0,0,0.25490196,39.156863,16.333328)" gradientUnits="userSpaceOnUse" xlink:href="#linearGradient4215-8-4-07-7"/><linearGradient id="linearGradient4215-8-4-07-7"><stop id="stop4217-1-2-1-2" offset="0" stop-color="#e9e9e9" stop-opacity="1"/><stop id="stop4219-3-4-0-96" offset="1" stop-color="#fff" stop-opacity="1"/></linearGradient><linearGradient id="linearGradient3853" x1="30.271" x2="30.271" y1="10.029" y2="55.053" gradientTransform="matrix(0.78787871,0,0,0.88636364,-1.212111,-3.3636418)" gradientUnits="userSpaceOnUse" xlink:href="#linearGradient27416-1-2-2"/><linearGradient id="linearGradient27416-1-2-2"><stop id="stop27420-2-0-2" offset="0" stop-color="#55c1ec" stop-opacity="1"/><stop id="stop27422-3-5-1" offset="1" stop-color="#3689e6" stop-opacity="1"/></linearGradient></defs><metadata id="metadata4122"/><g id="g2036" display="inline" transform="matrix(1.1,0,0,0.4444449,-2.4000022,25.11107)"><g id="g3712" opacity=".4" transform="matrix(1.052632,0,0,1.285713,-1.263158,-13.42854)"><rect id="rect2801" width="5" height="7" x="38" y="40" fill="url(#radialGradient2873-966-168)" fill-opacity="1" stroke="none"/><rect id="rect3696" width="5" height="7" x="-10" y="-47" fill="url(#radialGradient2875-742-326)" fill-opacity="1" stroke="none" transform="scale(-1,-1)"/><rect id="rect3700" width="28" height="7" x="10" y="40" fill="url(#linearGradient2877-634-617)" fill-opacity="1" stroke="none"/></g></g><rect id="rect5505-6" width="38" height="38" x="5" y="-43.967" fill="url(#linearGradient903)" fill-opacity="1" fill-rule="nonzero" stroke="none" stroke-width="1" color="#000" display="inline" enable-background="accumulate" overflow="visible" rx="1.5" ry="1.5" transform="scale(1,-1)" visibility="visible" style="marker:none"/><rect stroke-miterlimit="4" style="marker:none;font-variant-east_asian:normal" id="rect5505-21" width="39" height="39" x="4.5" y="5.467" fill="none" fill-opacity="1" fill-rule="nonzero" stroke="#555761" stroke-dasharray="none" stroke-dashoffset="0" stroke-linecap="round" stroke-linejoin="round" stroke-opacity="1" stroke-width="1" color="#000" display="inline" enable-background="accumulate" opacity=".5" overflow="visible" rx="2" ry="2" vector-effect="none" visibility="visible"/><rect id="rect6741-2" width="37" height="37" x="5.5" y="6.467" fill="none" stroke="url(#linearGradient3084)" stroke-dasharray="none" stroke-dashoffset="0" stroke-linecap="round" stroke-linejoin="round" stroke-miterlimit="4" stroke-opacity="1" stroke-width="1" rx="1" ry="1"/><g id="layer2" display="none" transform="translate(-135.85714,-31.05041)"><path id="rect3745" fill="url(#ButtonShadow)" fill-opacity="1" fill-rule="nonzero" stroke="none" d="M 11,7 48,5 85,7 c 3.324,0 6,2.676 6,6 l 0,73 c 0,3.324 -2.676,6 -6,6 L 11,92 C 7.676,92 5,89.324 5,86 L 5,13 C 5,9.676 7.676,7 11,7 z" filter="url(#filter3174)" opacity=".9"/></g><g id="layer4" display="none" transform="translate(-135.85714,-31.05041)"><rect id="rect3790" width="30" height="30" x="-86" y="56" fill="#000" fill-opacity="1" stroke="none" filter="url(#filter3806)" opacity=".6" rx="2.813" ry="2.813" transform="matrix(0,-1,1,0,0,4)"/><rect id="rect2993" width="30" height="30" x="-88" y="56" fill="url(#linearGradient3773)" fill-opacity="1" stroke="none" rx="2.813" ry="2.813" transform="matrix(0,-1,1,0,0,0)"/><path id="rect3775" fill="url(#linearGradient3788)" fill-opacity="1" stroke="none" d="M 58.8125,58 C 57.254375,58 56,59.254375 56,60.8125 l 0,24.375 c 0,0.873066 0.410816,1.641163 1.03125,2.15625 C 57.02841,87.289908 57,87.242129 57,87.1875 l 0,-24.375 C 57,61.254375 58.17075,60 59.625,60 l 22.75,0 C 83.82925,60 85,61.254375 85,62.8125 l 0,24.375 c 0,0.05463 -0.02841,0.102408 -0.03125,0.15625 C 85.589184,86.828663 86,86.060566 86,85.1875 l 0,-24.375 C 86,59.254375 84.745625,58 83.1875,58 l -24.375,0 z" opacity=".5"/><path id="path3810" fill="url(#linearGradient3812)" fill-opacity="1" fill-rule="nonzero" stroke="none" d="m 116,63.5 0,8.75 -5,0 10,13.75 10,-13.75 -5,0 0,-8.75 -10,0 z" clip-path="url(#clipPath3823)" display="inline" filter="url(#filter3831)" opacity=".6" transform="translate(-50,0)"/><path id="path4278" fill="url(#linearGradient3832)" fill-opacity="1" fill-rule="nonzero" stroke="none" d="m 66,62.5 0,8.75 -5,0 10,13.75 10,-13.75 -5,0 0,-8.75 -10,0 z" display="inline"/></g><rect id="rect3990-2" width="28" height="14" x="10" y="19" fill="#fff" fill-opacity="1" fill-rule="nonzero" stroke="none" stroke-width="2" color="#000" display="inline" enable-background="accumulate" opacity=".2" overflow="visible" rx="7" ry="7" visibility="visible" style="marker:none"/><rect id="rect3990" width="28" height="14" x="10" y="18" fill="url(#linearGradient3853)" fill-opacity="1" fill-rule="nonzero" stroke="none" stroke-width="2" color="#000" display="inline" enable-background="accumulate" overflow="visible" rx="7" ry="7" visibility="visible" style="marker:none"/><path id="path4356-7-9" fill="#fff" fill-opacity="1" fill-rule="evenodd" stroke="none" stroke-width=".338" d="m 9.084746,10 a 1,1 0 0 1 -2,0 1,1 0 1 1 2,0 z" color="#000" display="inline" enable-background="accumulate" overflow="visible" visibility="visible" style="marker:none"/><path id="path4356-9" fill="#000" fill-opacity="1" fill-rule="evenodd" stroke="none" stroke-width=".338" d="m 9.084746,9.0000004 a 1,1 0 0 1 -2,0 1,1 0 1 1 2,0 z" color="#000" display="inline" enable-background="accumulate" opacity=".3" overflow="visible" visibility="visible" style="marker:none"/><path id="path4356-7-6-7" fill="#fff" fill-opacity="1" fill-rule="evenodd" stroke="none" stroke-width=".338" d="m 41.084746,10 a 1,1 0 0 1 -2,0 1,1 0 1 1 2,0 z" color="#000" display="inline" enable-background="accumulate" overflow="visible" visibility="visible" style="marker:none"/><path id="path4356-8-9" fill="#000" fill-opacity="1" fill-rule="evenodd" stroke="none" stroke-width=".338" d="m 41.084746,9.0000004 a 1,1 0 0 1 -2,0 1,1 0 1 1 2,0 z" color="#000" display="inline" enable-background="accumulate" opacity=".3" overflow="visible" visibility="visible" style="marker:none"/><path id="path4356-7-9-1" fill="#fff" fill-opacity="1" fill-rule="evenodd" stroke="none" stroke-width=".338" d="m 9.084746,42 a 1,1 0 0 1 -2,0 1,1 0 1 1 2,0 z" color="#000" display="inline" enable-background="accumulate" overflow="visible" visibility="visible" style="marker:none"/><path id="path4356-9-4" fill="#000" fill-opacity="1" fill-rule="evenodd" stroke="none" stroke-width=".338" d="m 9.084746,41 a 1,1 0 0 1 -2,0 1,1 0 1 1 2,0 z" color="#000" display="inline" enable-background="accumulate" opacity=".3" overflow="visible" visibility="visible" style="marker:none"/><path id="path4356-7-6-7-5" fill="#fff" fill-opacity="1" fill-rule="evenodd" stroke="none" stroke-width=".338" d="m 41.084746,42 a 1,1 0 0 1 -2,0 1,1 0 1 1 2,0 z" color="#000" display="inline" enable-background="accumulate" overflow="visible" visibility="visible" style="marker:none"/><path id="path4356-8-9-6" fill="#000" fill-opacity="1" fill-rule="evenodd" stroke="none" stroke-width=".338" d="m 41.084746,41 a 1,1 0 0 1 -2,0 1,1 0 1 1 2,0 z" color="#000" display="inline" enable-background="accumulate" opacity=".3" overflow="visible" visibility="visible" style="marker:none"/><path id="rect3990-5" fill="#0e4774" fill-opacity="1" fill-rule="nonzero" stroke="none" stroke-width="2.409" d="m 17,18 c -3.878,0 -7,3.122 -7,7 0,0.168748 0.01962,0.33431 0.03125,0.5 C 10.286844,21.857963 13.290748,19 17,19 h 14 c 3.709252,0 6.713156,2.857963 6.96875,6.5 C 37.98038,25.33431 38,25.168748 38,25 38,21.122 34.878,18 31,18 Z" color="#000" display="inline" enable-background="accumulate" opacity=".3" overflow="visible" visibility="visible" style="marker:none"/><path id="rect3990-1" fill="#0e4774" fill-opacity="1" fill-rule="nonzero" stroke="none" stroke-width="2.71" d="m 17,19 c -3.709252,0 -6.713156,2.857963 -6.96875,6.5 0.226734,3.230802 2.621542,5.826238 5.75,6.375 C 13.042227,31.317352 11,28.9085 11,26 c 0,-3.324 2.676,-6 6,-6 h 14 c 3.324,0 6,2.676 6,6 0,2.9085 -2.042227,5.317352 -4.78125,5.875 3.128458,-0.548762 5.523266,-3.144198 5.75,-6.375 C 37.713156,21.857963 34.709252,19 31,19 Z" color="#000" display="inline" enable-background="accumulate" opacity=".15" overflow="visible" visibility="visible" style="marker:none"/><path id="path2555-7-1-9-4-9-1" fill="#000" fill-opacity="1" fill-rule="nonzero" stroke="none" stroke-width="2" d="m 31.000002,18.500001 c 4.138242,0 7.499999,3.361757 7.499999,7.500001 0,4.138241 -3.361757,7.499998 -7.499999,7.499998 -4.138244,0 -7.500009,-3.361757 -7.500001,-7.499998 0,-4.138244 3.361757,-7.500001 7.500001,-7.500001 z" color="#000" display="inline" enable-background="accumulate" opacity=".07" overflow="visible" visibility="visible" style="marker:none"/><path id="path2555-7-1-9-4-9" fill="#000" fill-opacity="1" fill-rule="nonzero" stroke="none" stroke-width="2" d="m 31.000001,19.500001 c 3.586477,0 6.5,2.913523 6.5,6.5 0,3.586476 -2.913523,6.499999 -6.5,6.499999 -3.586477,0 -6.500006,-2.913523 -6.5,-6.499999 0,-3.586477 2.913523,-6.5 6.5,-6.5 z" color="#000" display="inline" enable-background="accumulate" opacity=".15" overflow="visible" visibility="visible" style="marker:none"/><path id="path13859-2" fill="#0e4774" fill-opacity="1" fill-rule="nonzero" stroke="none" stroke-width="2.127" d="M 37.000001,26 A 6.0000005,6.0000005 0 0 1 25,26 6.0000005,6.0000005 0 1 1 37.000001,26 Z" color="#000" display="inline" enable-background="accumulate" opacity=".15" overflow="visible" visibility="visible" style="marker:none"/><path id="path2555-7-1-9-4" fill="url(#linearGradient3593)" fill-opacity="1" fill-rule="nonzero" stroke="none" stroke-width="1" d="m 31.000001,18.499995 c 3.586477,0 6.5,2.913522 6.5,6.5 0,3.586476 -2.913523,6.499999 -6.5,6.499999 -3.586477,0 -6.500006,-2.913522 -6.5,-6.499999 0,-3.586478 2.913523,-6.5 6.5,-6.5 z" color="#000" display="inline" enable-background="accumulate" overflow="visible" visibility="visible" style="marker:none"/><path id="path8655-6-0-5-2" fill="none" stroke="url(#linearGradient3590)" stroke-dasharray="none" stroke-dashoffset="0" stroke-linecap="round" stroke-linejoin="round" stroke-miterlimit="4" stroke-opacity="1" stroke-width="1" d="m 25.500001,24.999798 c 0,3.037668 2.462616,5.500196 5.49993,5.500196 3.037592,0 5.50007,-2.462559 5.50007,-5.500196 0,-3.037523 -2.462478,-5.499803 -5.50007,-5.499803 -3.037314,0 -5.499929,2.46228 -5.49993,5.499803 z" color="#000" display="inline" enable-background="accumulate" overflow="visible" visibility="visible" style="marker:none"/><path id="path2555-7-1-9-9-41" fill="none" stroke="#656565" stroke-dasharray="none" stroke-dashoffset="0" stroke-linecap="round" stroke-linejoin="round" stroke-miterlimit="4" stroke-opacity="1" stroke-width="1" d="m 31.000001,18.499995 c 3.586477,0 6.5,2.913523 6.5,6.5 0,3.586477 -2.913523,6.499999 -6.5,6.499999 -3.586477,0 -6.500006,-2.913522 -6.5,-6.499999 0,-3.586477 2.913523,-6.5 6.5,-6.5 z" color="#000" display="inline" enable-background="accumulate" opacity=".5" overflow="visible" visibility="visible" style="marker:none"/></svg>