<svg xmlns="http://www.w3.org/2000/svg" xmlns:svg="http://www.w3.org/2000/svg" xmlns:xlink="http://www.w3.org/1999/xlink" id="svg3489" width="64" height="64" version="1.1"><defs id="defs3491"><linearGradient id="linearGradient4806"><stop id="stop4808" offset="0" stop-color="#fff" stop-opacity="1"/><stop id="stop4810" offset=".424" stop-color="#fff" stop-opacity=".235"/><stop id="stop4812" offset=".821" stop-color="#fff" stop-opacity=".157"/><stop id="stop4814" offset="1" stop-color="#fff" stop-opacity=".392"/></linearGradient><linearGradient id="linearGradient3820-7-2"><stop id="stop3822-2-6" offset="0" stop-color="#000" stop-opacity="1"/><stop id="stop3824-1-2" offset="1" stop-color="#000" stop-opacity="0"/></linearGradient><linearGradient id="linearGradient3957-2"><stop id="stop3959-62" offset="0" stop-color="#fff" stop-opacity="1"/><stop id="stop3961-5" offset="1" stop-color="#c1c1c1" stop-opacity="1"/></linearGradient><linearGradient id="linearGradient2867-449-88-871-390-598-476-591-434-148-57-177-3-8"><stop id="stop3750-8-9" offset="0" stop-color="#90dbec" stop-opacity="1"/><stop id="stop3752-3-2" offset=".262" stop-color="#42baea" stop-opacity="1"/><stop id="stop3754-7-2" offset=".705" stop-color="#3689e6" stop-opacity="1"/><stop id="stop3756-9-3" offset="1" stop-color="#2b63a0" stop-opacity="1"/></linearGradient><linearGradient id="linearGradient3957"><stop id="stop3959" offset="0" stop-color="#fff" stop-opacity="1"/><stop id="stop3961" offset="1" stop-color="#c1c1c1" stop-opacity="1"/></linearGradient><linearGradient id="linearGradient4168"><stop id="stop4170" offset="0" stop-color="#f8b17e" stop-opacity="1"/><stop id="stop4172" offset=".232" stop-color="#e35d4f" stop-opacity="1"/><stop id="stop4174" offset=".591" stop-color="#c6262e" stop-opacity="1"/><stop id="stop4176" offset="1" stop-color="#690b54" stop-opacity="1"/></linearGradient><linearGradient id="linearGradient3293" x1="71.204" x2="71.204" y1="15.369" y2="40.496" gradientTransform="matrix(2.3268746,0,0,2.3268746,-135.94475,-32.842783)" gradientUnits="userSpaceOnUse" xlink:href="#linearGradient4806"/><radialGradient id="radialGradient3300" cx="99.189" cy="185.297" r="62.769" fx="99.189" fy="185.297" gradientTransform="matrix(0.3823536,7.5555777e-8,-1.8372241e-8,0.1115198,-5.9254271,36.335849)" gradientUnits="userSpaceOnUse" xlink:href="#linearGradient3820-7-2"/><linearGradient id="linearGradient4131" x1="24" x2="24" y1="22" y2="26" gradientTransform="translate(8.0000046,8.0000026)" gradientUnits="userSpaceOnUse" xlink:href="#linearGradient3957"/><linearGradient id="linearGradient4137" x1="21.014" x2="22.806" y1="25.434" y2="27.344" gradientTransform="matrix(1.4390244,0,0,1.4390244,-2.536585,-2.5365857)" gradientUnits="userSpaceOnUse" xlink:href="#linearGradient3957-2"/><linearGradient id="linearGradient4140" x1="27.925" x2="33.448" y1="15.149" y2="22.986" gradientTransform="matrix(1.4390244,0,0,1.4390244,-2.536585,-2.5365857)" gradientUnits="userSpaceOnUse" xlink:href="#linearGradient4168"/><radialGradient id="radialGradient4145" cx="3.972" cy="8.45" r="20" fx="3.972" fy="8.45" gradientTransform="matrix(0,3.5958841,-3.8040162,-9.7874431e-8,64.14322,-20.064576)" gradientUnits="userSpaceOnUse" xlink:href="#linearGradient27416-1-2-0-1"/><radialGradient id="radialGradient4192" cx="99.189" cy="185.297" r="62.769" fx="99.189" fy="185.297" gradientTransform="matrix(0.2549024,5.3967361e-8,-1.2248161e-8,0.07965545,6.7163816,44.240666)" gradientUnits="userSpaceOnUse" xlink:href="#linearGradient3820-7-2"/><linearGradient id="linearGradient3217" x1="71.204" x2="71.204" y1="6.238" y2="44.341" gradientTransform="matrix(1.3243246,0,0,1.3243246,4.8803675,12.801774)" gradientUnits="userSpaceOnUse" xlink:href="#linearGradient4011-0"/><linearGradient id="linearGradient4011-0"><stop id="stop4013-9" offset="0" stop-color="#fff" stop-opacity="1"/><stop id="stop4015-9" offset=".508" stop-color="#fff" stop-opacity=".235"/><stop id="stop4017-0" offset=".835" stop-color="#fff" stop-opacity=".157"/><stop id="stop4019-81" offset="1" stop-color="#fff" stop-opacity=".392"/></linearGradient><linearGradient id="linearGradient3163" x1="30.271" x2="30.271" y1="10.029" y2="55.053" gradientTransform="matrix(0.84292897,0,0,1.5343737,144.92688,-42.641562)" gradientUnits="userSpaceOnUse" xlink:href="#linearGradient27416-1-2-0-1"/><linearGradient id="linearGradient27416-1-2-0-1"><stop id="stop27420-2-0-8-7" offset="0" stop-color="#55c1ec" stop-opacity="1"/><stop id="stop27422-3-5-3-3" offset="1" stop-color="#3689e6" stop-opacity="1"/></linearGradient><radialGradient id="radialGradient3300-6" cx="99.189" cy="185.297" r="62.769" fx="99.189" fy="185.297" gradientTransform="matrix(0.3823536,7.5555777e-8,-1.8372241e-8,0.1115198,-5.9254271,36.335849)" gradientUnits="userSpaceOnUse" xlink:href="#linearGradient3820-7-2"/></defs><metadata id="metadata3494"/><g id="g4198"><path id="path3818-0" fill="url(#radialGradient3300)" fill-opacity="1" stroke="none" d="m 55.999998,57.0017 a 24,6.9985714 0 1 1 -47.9999991,0 24,6.9985714 0 1 1 47.9999991,0 z" opacity=".2"/><path id="path4190" fill="url(#radialGradient4192)" fill-opacity="1" stroke="none" d="m 47.999998,59.0017 a 16,4.9988822 0 1 1 -31.999999,0 16,4.9988822 0 1 1 31.999999,0 z" opacity=".4"/></g><path d="M 32.000004,2.4999968 C 15.722922,2.4999968 2.5,15.722913 2.5,31.999997 2.5,48.277081 15.722922,61.500004 32.000004,61.5 48.27708,61.5 61.500016,48.277081 61.5,31.999997 61.5,15.722913 48.27708,2.4999968 32.000004,2.4999968 z" style="marker:none" id="path2555" fill="url(#radialGradient4145)" fill-opacity="1" fill-rule="nonzero" stroke="none" stroke-width="1" color="#000" display="inline" enable-background="accumulate" overflow="visible" visibility="visible"/><path id="path2555-7-1" fill="#000" fill-opacity="0" fill-rule="nonzero" stroke="#003651" stroke-dasharray="none" stroke-dashoffset="0" stroke-linecap="round" stroke-linejoin="round" stroke-miterlimit="4" stroke-opacity="1" stroke-width="1" d="m 32,2.499999 c -16.277082,0 -29.5,13.222915 -29.5,29.499998 0,16.277083 13.222918,29.500005 29.5,29.5 16.27708,0 29.50001,-13.222917 29.5,-29.5 C 61.5,15.722914 48.27708,2.499999 32,2.499999 z" color="#000" display="inline" enable-background="accumulate" opacity=".5" overflow="visible" visibility="visible" style="marker:none"/><path id="path3019" fill="none" stroke="url(#linearGradient3293)" stroke-dasharray="none" stroke-dashoffset="0" stroke-linecap="round" stroke-linejoin="round" stroke-miterlimit="4" stroke-opacity="1" stroke-width="1" d="m 60.50001,31.999999 c 0,15.740115 -12.7599,28.499999 -28.50002,28.499999 -15.740099,0 -28.499991,-12.759884 -28.499991,-28.499999 0,-15.740116 12.759892,-28.5000013 28.499991,-28.5000013 15.74012,0 28.50002,12.7598853 28.50002,28.5000013 z" color="#000" display="inline" enable-background="accumulate" opacity=".5" overflow="visible" visibility="visible" style="marker:none"/><path id="path4321" fill="#000" fill-opacity="1" fill-rule="nonzero" stroke="none" stroke-width="2" d="m 32.000002,15 c -6.892513,0 -12.4875,5.372581 -12.4875,12 0,6.627419 5.594987,12 12.4875,12 6.892519,0 12.487495,-5.372581 12.487495,-12 0,-6.627419 -5.594976,-12 -12.487495,-12 z m -4.5375,27.046447 c -5.564604,0 -10.358471,3.645027 -12.7875,8.453553 4.337101,4.626099 10.483418,7.5 17.325,7.5 6.841591,0 12.987895,-2.873901 17.324996,-7.5 -2.429028,-4.808526 -7.222896,-8.453553 -12.787501,-8.453553 z" color="#000" display="inline" enable-background="accumulate" opacity=".15" overflow="visible" visibility="visible" style="marker:none"/><path d="m 32.000002,15 c -6.892513,0 -12.4875,5.372581 -12.4875,12 0,6.627419 5.594987,12 12.4875,12 6.892519,0 12.487495,-5.372581 12.487495,-12 0,-6.627419 -5.594976,-12 -12.487495,-12 z m -4.5375,27.046447 c -5.564604,0 -10.358471,3.645027 -12.7875,8.453553 4.337101,4.626099 10.483418,7.5 17.325,7.5 6.841591,0 12.987895,-2.873901 17.324996,-7.5 -2.429028,-4.808526 -7.222896,-8.453553 -12.787501,-8.453553 z" style="marker:none" id="path4323" fill="#000" fill-opacity="1" fill-rule="nonzero" stroke="#000" stroke-linejoin="round" stroke-opacity="1" stroke-width="2" color="#000" display="inline" enable-background="accumulate" opacity=".05" overflow="visible" visibility="visible"/><path id="path3224" fill="#fff" fill-opacity="1" fill-rule="nonzero" stroke="none" stroke-width="2" d="m 32.000002,14 c -6.892513,0 -12.4875,5.372581 -12.4875,12 0,6.627419 5.594987,12 12.4875,12 6.892519,0 12.487495,-5.372581 12.487495,-12 0,-6.627419 -5.594976,-12 -12.487495,-12 z m -4.5375,27.046447 c -5.564604,0 -10.358471,3.645027 -12.7875,8.453553 4.337101,4.626099 10.483418,7.5 17.325,7.5 6.841591,0 12.987895,-2.873901 17.324996,-7.5 -2.429028,-4.808526 -7.222896,-8.453553 -12.787501,-8.453553 z" color="#000" display="inline" enable-background="accumulate" overflow="visible" visibility="visible" style="marker:none"/></svg>