<svg xmlns="http://www.w3.org/2000/svg" xmlns:svg="http://www.w3.org/2000/svg" xmlns:xlink="http://www.w3.org/1999/xlink" id="svg3489" width="64" height="64" version="1.1"><defs id="defs3491"><linearGradient id="linearGradient3820-7-2"><stop id="stop3822-2-6" offset="0" stop-color="#000" stop-opacity="1"/><stop id="stop3824-1-2" offset="1" stop-color="#000" stop-opacity="0"/></linearGradient><radialGradient id="radialGradient3300" cx="99.189" cy="185.297" r="62.769" fx="99.189" fy="185.297" gradientTransform="matrix(0.3823536,7.5555777e-8,-1.8372241e-8,0.1115198,-5.9254271,36.335849)" gradientUnits="userSpaceOnUse" xlink:href="#linearGradient3820-7-2"/><radialGradient id="radialGradient4192" cx="99.189" cy="185.297" r="62.769" fx="99.189" fy="185.297" gradientTransform="matrix(0.2549024,5.3967361e-8,-1.2248161e-8,0.07965545,6.7163816,44.240666)" gradientUnits="userSpaceOnUse" xlink:href="#linearGradient3820-7-2"/><linearGradient id="linearGradient4011"><stop id="stop4013" offset="0" stop-color="#fff" stop-opacity="1"/><stop id="stop4015" offset=".508" stop-color="#fff" stop-opacity=".235"/><stop id="stop4017" offset=".835" stop-color="#fff" stop-opacity=".157"/><stop id="stop4019" offset="1" stop-color="#fff" stop-opacity=".392"/></linearGradient><linearGradient id="linearGradient12398-3" x1="71.204" x2="71.204" y1="6.238" y2="44.341" gradientTransform="matrix(1.5405412,0,0,1.5405412,-78.508458,-7.0638606)" gradientUnits="userSpaceOnUse" xlink:href="#linearGradient4011"/><linearGradient id="linearGradient11527-6-5" x1="2035.165" x2="2035.165" y1="3208.074" y2="3241.997" gradientTransform="matrix(2.2610751,0,0,1.6903709,-4577.9225,-5418.7024)" gradientUnits="userSpaceOnUse" xlink:href="#linearGradient947"/><linearGradient id="linearGradient947"><stop id="stop943" offset="0" stop-color="#ed5353" stop-opacity="1"/><stop id="stop945" offset="1" stop-color="#c6262e" stop-opacity="1"/></linearGradient></defs><metadata id="metadata3494"/><g id="g4198"><path id="path3818-0" fill="url(#radialGradient3300)" fill-opacity="1" stroke="none" d="m 55.999998,57.0017 a 24,6.9985714 0 1 1 -47.9999991,0 24,6.9985714 0 1 1 47.9999991,0 z" opacity=".2"/><path id="path4190" fill="url(#radialGradient4192)" fill-opacity="1" stroke="none" d="m 47.999998,59.0017 a 16,4.9988822 0 1 1 -31.999999,0 16,4.9988822 0 1 1 31.999999,0 z" opacity=".4"/></g><path id="path2555-7-8-5-0-9" fill="url(#linearGradient11527-6-5)" fill-opacity="1" fill-rule="nonzero" stroke="none" stroke-width="1" d="m 32.000007,2.4999979 c -16.277096,0 -29.500006,13.2229111 -29.500006,29.5000001 0,16.277089 13.22291,29.5 29.500006,29.5 16.277071,0 29.500011,-13.222911 29.499991,-29.5 0,-16.277089 -13.22292,-29.5000001 -29.499991,-29.5000001 z" color="#000" display="inline" enable-background="accumulate" opacity=".99" overflow="visible" visibility="visible" style="marker:none"/><path id="path8655-6-0-9-5-0" fill="none" stroke="url(#linearGradient12398-3)" stroke-dasharray="none" stroke-dashoffset="0" stroke-linecap="round" stroke-linejoin="round" stroke-miterlimit="4" stroke-opacity="1" stroke-width="1" d="m 60.499998,31.998979 c 0,15.740647 -12.760843,28.501031 -28.499653,28.501031 C 16.260084,60.50001 3.5,47.739475 3.5,31.998979 3.5,16.259081 16.260084,3.4999855 32.000345,3.4999855 c 15.73881,0 28.499653,12.7590955 28.499653,28.4989935 z" color="#000" display="inline" enable-background="accumulate" opacity=".4" overflow="visible" visibility="visible" style="marker:none"/><path id="path2555-4" fill="none" fill-opacity="1" stroke="#7a0000" stroke-dasharray="none" stroke-dashoffset="0" stroke-linecap="round" stroke-linejoin="round" stroke-miterlimit="4" stroke-opacity="1" stroke-width="1" d="m 32.000006,2.4999977 c -16.277082,0 -29.500003,13.2229173 -29.500003,29.4999983 0,16.277085 13.222921,29.500008 29.500003,29.500002 16.27708,0 29.50001,-13.222917 29.49999,-29.500002 0,-16.277081 -13.22291,-29.4999983 -29.49999,-29.4999983 z" color="#000" display="inline" enable-background="accumulate" opacity=".5" overflow="visible" vector-effect="none" visibility="visible" style="marker:none"/><path id="path4159-3-3-6" fill="#7a0000" fill-opacity="1" stroke="none" stroke-dasharray="none" stroke-dashoffset="0" stroke-linecap="butt" stroke-linejoin="miter" stroke-miterlimit="4" stroke-opacity="1" stroke-width=".843" d="m 32,12 c -2.749579,0 -5,2.250421 -5,5 0,4.222113 1.341763,13.46847 2.673828,24.125 A 1.0001,1.0001 0 0 0 30.666016,42 h 2.667968 a 1.0001,1.0001 0 0 0 0.992188,-0.875 C 35.658237,30.46847 37,21.222113 37,17 37,14.250421 34.749579,12 32,12 Z m 0,32 c -2.749579,0 -5,2.250421 -5,5 0,2.749579 2.250421,5 5,5 2.749579,0 5,-2.250421 5,-5 0,-2.749579 -2.250421,-5 -5,-5 z" opacity=".05" vector-effect="none" style="marker:none;font-variant-east_asian:normal"/><path id="path4159-3-3" fill="#7a0000" fill-opacity="1" stroke="none" stroke-dasharray="none" stroke-dashoffset="0" stroke-linecap="butt" stroke-linejoin="miter" stroke-miterlimit="4" stroke-opacity="1" stroke-width=".843" d="m 32,12.999999 c -2.209138,0 -4,1.790862 -4,4 C 28,20.999998 29.333334,30.333332 30.666666,41 h 2.666668 C 34.666666,30.333332 36,20.999998 36,16.999999 c 0,-2.209138 -1.790862,-4 -4,-4 z M 32,45 c -2.209138,0 -4,1.790862 -4,4 0,2.209138 1.790862,4 4,4 2.209138,0 4,-1.790862 4,-4 0,-2.209138 -1.790862,-4 -4,-4 z" opacity=".15" vector-effect="none" style="font-variant-east_asian:normal;marker:none"/><path id="path4159-3" fill="#fff" fill-opacity="1" stroke="none" stroke-dasharray="none" stroke-linejoin="round" stroke-miterlimit="4" stroke-opacity=".498" stroke-width="1" d="m 32,12 c -2.209138,0 -4,1.790862 -4,4 0,3.999999 1.333334,13.333333 2.666666,24.000001 h 2.666668 C 34.666666,29.333333 36,19.999999 36,16 36,13.790862 34.209138,12 32,12 Z m 0,32.000001 c -2.209138,0 -4,1.790862 -4,4 0,2.209138 1.790862,4 4,4 2.209138,0 4,-1.790862 4,-4 0,-2.209138 -1.790862,-4 -4,-4 z" opacity="1"/></svg>