<svg xmlns="http://www.w3.org/2000/svg" xmlns:svg="http://www.w3.org/2000/svg" xmlns:xlink="http://www.w3.org/1999/xlink" id="svg3598" width="64" height="64" version="1.1"><defs id="defs3600"><linearGradient id="linearGradient3151" x1="9" x2="9" y1="29.057" y2="26.03" gradientTransform="matrix(0.85064445,-0.85481442,1.1461221,1.1404197,-6.5479896,22.97572)" gradientUnits="userSpaceOnUse" xlink:href="#linearGradient3290-678"/><linearGradient id="linearGradient3290-678"><stop id="stop2607" offset="0" stop-color="#ece5a5" stop-opacity="1"/><stop id="stop2609" offset="1" stop-color="#fcfbf2" stop-opacity="1"/></linearGradient><linearGradient id="linearGradient3153" x1="5.518" x2="9.522" y1="37.372" y2="41.392" gradientTransform="matrix(0.74712277,0.03224699,0.03220731,0.74620134,24.394615,18.140574)" gradientUnits="userSpaceOnUse" xlink:href="#linearGradient3191-577"/><linearGradient id="linearGradient3191-577"><stop id="stop2613" offset="0" stop-color="#dbce48" stop-opacity="1"/><stop id="stop2615" offset="1" stop-color="#c5b625" stop-opacity="1"/></linearGradient><linearGradient id="linearGradient3156" x1="30.038" x2="30.038" y1="24.99" y2="30" gradientTransform="matrix(0.85064445,-0.85481442,1.146122,1.1404196,-4.7713176,21.190343)" gradientUnits="userSpaceOnUse" xlink:href="#linearGradient3223-699"/><linearGradient id="linearGradient3223-699"><stop id="stop2599" offset="0" stop-color="#b1b1b1" stop-opacity="1"/><stop id="stop2601" offset=".5" stop-color="#fff" stop-opacity="1"/><stop id="stop2603" offset="1" stop-color="#8f8f8f" stop-opacity="1"/></linearGradient><linearGradient id="linearGradient3159" x1="30.038" x2="30.038" y1="24.99" y2="30" gradientTransform="matrix(0.85064445,-0.85481442,1.146122,1.1404196,-4.5277046,20.945534)" gradientUnits="userSpaceOnUse" xlink:href="#linearGradient3240-907"/><linearGradient id="linearGradient3240-907"><stop id="stop2591" offset="0" stop-color="#565656" stop-opacity="1"/><stop id="stop2593" offset=".5" stop-color="#9a9a9a" stop-opacity="1"/><stop id="stop2595" offset="1" stop-color="#545454" stop-opacity="1"/></linearGradient><linearGradient id="linearGradient3162" x1="30.038" x2="30.038" y1="24.99" y2="30" gradientTransform="matrix(0.85064445,-0.85481442,1.146122,1.1404196,-5.6219636,22.045155)" gradientUnits="userSpaceOnUse" xlink:href="#linearGradient3223-768"/><linearGradient id="linearGradient3223-768"><stop id="stop2583" offset="0" stop-color="#b1b1b1" stop-opacity="1"/><stop id="stop2585" offset=".5" stop-color="#fff" stop-opacity="1"/><stop id="stop2587" offset="1" stop-color="#8f8f8f" stop-opacity="1"/></linearGradient><linearGradient id="linearGradient3165" x1="30.038" x2="30.038" y1="24.99" y2="30" gradientTransform="matrix(0.85064445,-0.85481442,1.146122,1.1404196,-5.3783496,21.800349)" gradientUnits="userSpaceOnUse" xlink:href="#linearGradient3240-686"/><linearGradient id="linearGradient3240-686"><stop id="stop2575" offset="0" stop-color="#565656" stop-opacity="1"/><stop id="stop2577" offset=".5" stop-color="#9a9a9a" stop-opacity="1"/><stop id="stop2579" offset="1" stop-color="#545454" stop-opacity="1"/></linearGradient><linearGradient id="linearGradient3168" x1="30.038" x2="30.038" y1="24.99" y2="30" gradientTransform="matrix(0.85064445,-0.85481442,1.146122,1.1404196,-6.4685146,22.89586)" gradientUnits="userSpaceOnUse" xlink:href="#linearGradient3223-789"/><linearGradient id="linearGradient3223-789"><stop id="stop2567" offset="0" stop-color="#b1b1b1" stop-opacity="1"/><stop id="stop2569" offset=".5" stop-color="#fff" stop-opacity="1"/><stop id="stop2571" offset="1" stop-color="#8f8f8f" stop-opacity="1"/></linearGradient><linearGradient id="linearGradient3171" x1="30.038" x2="30.038" y1="24.99" y2="30" gradientTransform="matrix(0.85064445,-0.85481442,1.146122,1.1404196,-6.2249016,22.651052)" gradientUnits="userSpaceOnUse" xlink:href="#linearGradient3240-279"/><linearGradient id="linearGradient3240-279"><stop id="stop2559" offset="0" stop-color="#565656" stop-opacity="1"/><stop id="stop2561" offset=".5" stop-color="#9a9a9a" stop-opacity="1"/><stop id="stop2563" offset="1" stop-color="#545454" stop-opacity="1"/></linearGradient><linearGradient id="linearGradient3176" x1="23.576" x2="23.576" y1="25.357" y2="31.211" gradientTransform="matrix(0.87539065,-0.87968181,0.97932539,0.97445279,-3.0169552,27.152318)" gradientUnits="userSpaceOnUse" spreadMethod="pad" xlink:href="#linearGradient3155-40"/><linearGradient id="linearGradient3155-40"><stop id="stop2541" offset="0" stop-color="#181818" stop-opacity="1"/><stop id="stop2543" offset=".135" stop-color="#dbdbdb" stop-opacity="1"/><stop id="stop2545" offset=".202" stop-color="#a4a4a4" stop-opacity="1"/><stop id="stop2547" offset=".27" stop-color="#fff" stop-opacity="1"/><stop id="stop2549" offset=".447" stop-color="#8d8d8d" stop-opacity="1"/><stop id="stop2551" offset=".571" stop-color="#959595" stop-opacity="1"/><stop id="stop2553" offset=".72" stop-color="#cecece" stop-opacity="1"/><stop id="stop2555" offset="1" stop-color="#181818" stop-opacity="1"/></linearGradient><linearGradient id="linearGradient3302" x1="22.004" x2="22.004" y1="44.854" y2="3.072" gradientTransform="matrix(1.3332795,0,0,1.3332795,-0.1663167,1.1690644)" gradientUnits="userSpaceOnUse" xlink:href="#linearGradient3104"/><linearGradient id="linearGradient3104"><stop id="stop3106" offset="0" stop-color="#a0a0a0" stop-opacity="1"/><stop id="stop3108" offset="1" stop-color="#c8c8c8" stop-opacity="1"/></linearGradient><linearGradient id="linearGradient3245-0" x1="68.437" x2="68.437" y1="4.411" y2="40.928" gradientTransform="matrix(1.2162162,0,0,1.4378355,-59.087486,0.390193)" gradientUnits="userSpaceOnUse" xlink:href="#linearGradient3454"/><linearGradient id="linearGradient3454"><stop id="stop3456" offset="0" stop-color="#fff" stop-opacity="1"/><stop id="stop3458" offset=".01" stop-color="#fff" stop-opacity=".235"/><stop id="stop3460" offset=".99" stop-color="#fff" stop-opacity=".157"/><stop id="stop3462" offset="1" stop-color="#fff" stop-opacity=".392"/></linearGradient><linearGradient id="linearGradient3250-3" x1="-51.786" x2="-51.786" y1="53.514" y2="3.634" gradientTransform="matrix(1.0843525,0,0,1.1183944,79.550865,1.1533356)" gradientUnits="userSpaceOnUse" xlink:href="#linearGradient3104-8-8"/><linearGradient id="linearGradient3104-8-8"><stop id="stop3106-5-4" offset="0" stop-color="#a0a0a0" stop-opacity="1"/><stop id="stop3108-4-3" offset="1" stop-color="#bebebe" stop-opacity="1"/></linearGradient><linearGradient id="linearGradient3359" x1="302.857" x2="302.857" y1="366.648" y2="609.505" gradientTransform="matrix(0.08918772,0,0,0.01646992,-1.9026808,51.961501)" gradientUnits="userSpaceOnUse" xlink:href="#linearGradient5048"/><linearGradient id="linearGradient5048"><stop id="stop5050" offset="0" stop-color="#000" stop-opacity="0"/><stop id="stop5056" offset=".5" stop-color="#000" stop-opacity="1"/><stop id="stop5052" offset="1" stop-color="#000" stop-opacity="0"/></linearGradient><radialGradient id="radialGradient3361" cx="605.714" cy="486.648" r="117.143" fx="605.714" fy="486.648" gradientTransform="matrix(-0.03052185,0,0,0.01646992,27.194158,51.961535)" gradientUnits="userSpaceOnUse" xlink:href="#linearGradient5060"/><linearGradient id="linearGradient5060"><stop id="stop5062" offset="0" stop-color="#000" stop-opacity="1"/><stop id="stop5064" offset="1" stop-color="#000" stop-opacity="0"/></linearGradient><radialGradient id="radialGradient3596" cx="605.714" cy="486.648" r="117.143" fx="605.714" fy="486.648" gradientTransform="matrix(0.03052185,0,0,0.01646992,33.470457,51.961535)" gradientUnits="userSpaceOnUse" xlink:href="#linearGradient5060"/><linearGradient id="linearGradient3600-9-2-6"><stop id="stop3602-3-2-9" offset="0" stop-color="#f4f4f4" stop-opacity="1"/><stop id="stop3604-7-9-5" offset="1" stop-color="#dbdbdb" stop-opacity="1"/></linearGradient><linearGradient id="linearGradient3115" x1="25.132" x2="25.132" y1="2.346" y2="48.545" gradientTransform="matrix(1.3142853,0,0,1.1733701,0.45715159,3.0379567)" gradientUnits="userSpaceOnUse" xlink:href="#linearGradient3600-9-2-6"/><linearGradient id="linearGradient3104-8-8-97"><stop id="stop3106-5-4-3" offset="0" stop-color="#000" stop-opacity=".322"/><stop id="stop3108-4-3-7" offset="1" stop-color="#000" stop-opacity=".278"/></linearGradient><linearGradient id="linearGradient3929" x1="-51.786" x2="-51.786" y1="53.514" y2="3.634" gradientTransform="matrix(1.0843525,0,0,1.1183944,79.550826,1.1533356)" gradientUnits="userSpaceOnUse" xlink:href="#linearGradient3104-8-8-97"/><radialGradient id="radialGradient3949" cx="605.714" cy="486.648" r="117.143" fx="605.714" fy="486.648" gradientTransform="matrix(0.03052185,0,0,0.01646992,35.138147,51.961535)" gradientUnits="userSpaceOnUse" xlink:href="#linearGradient5060"/><radialGradient id="radialGradient3952" cx="605.714" cy="486.648" r="117.143" fx="605.714" fy="486.648" gradientTransform="matrix(-0.03052185,0,0,0.01646992,28.861848,51.961535)" gradientUnits="userSpaceOnUse" xlink:href="#linearGradient5060"/><linearGradient id="linearGradient3955" x1="302.857" x2="302.857" y1="366.648" y2="609.505" gradientTransform="matrix(0.08918772,0,0,0.01646992,-0.2349912,51.961501)" gradientUnits="userSpaceOnUse" xlink:href="#linearGradient5048"/></defs><metadata id="metadata3603"/><g id="layer1"><rect id="rect3706" width="43.065" height="4" x="10.468" y="58" fill="url(#linearGradient3955)" fill-opacity="1" fill-rule="nonzero" stroke="none" stroke-width="1.046" display="inline" opacity=".2" overflow="visible" visibility="visible" style="marker:none"/><path id="path3708" fill="url(#radialGradient3952)" fill-opacity="1" fill-rule="nonzero" stroke="none" stroke-width="1.046" d="m 10.467536,58.000334 c 0,0 0,3.999617 0,3.999617 -1.5718,0.0075 -3.7998466,-0.896111 -3.7998466,-2.000066 0,-1.103954 1.7540101,-1.99955 3.7998466,-1.999551 z" display="inline" opacity=".2" overflow="visible" visibility="visible" style="marker:none"/><path id="path3710" fill="url(#radialGradient3949)" fill-opacity="1" fill-rule="nonzero" stroke="none" stroke-width="1.046" d="m 53.532464,58.000334 c 0,0 0,3.999617 0,3.999617 1.571799,0.0075 3.799847,-0.896111 3.799847,-2.000066 0,-1.103954 -1.754011,-1.99955 -3.799847,-1.999551 z" display="inline" opacity=".2" overflow="visible" visibility="visible" style="marker:none"/><path id="path2855-8" fill="none" stroke="url(#linearGradient3929)" stroke-dasharray="none" stroke-dashoffset="0" stroke-linecap="butt" stroke-linejoin="round" stroke-miterlimit="4" stroke-opacity="1" stroke-width="1" d="m 9.8428479,5.5019899 44.3152521,0 L 55.499961,60.5 8.4999609,60.47167 z" color="#000" display="inline" enable-background="accumulate" overflow="visible" visibility="visible" style="marker:none"/><path d="M 10.314314,6 53.68669,6 55,60 9,59.972184 z" style="marker:none" id="path2855-7" fill="url(#linearGradient3115)" fill-opacity="1" fill-rule="nonzero" stroke="none" stroke-width="1" color="#000" display="inline" enable-background="accumulate" overflow="visible" visibility="visible"/><path id="path2855-3" fill="none" stroke="url(#linearGradient3245-0)" stroke-dasharray="none" stroke-dashoffset="0" stroke-linecap="round" stroke-linejoin="miter" stroke-miterlimit="4" stroke-opacity="1" stroke-width="1" d="m 10.785705,6.4999612 42.429571,0 1.284763,53.0000778 -45.0000781,-0.0273 z" color="#000" display="inline" enable-background="accumulate" overflow="visible" visibility="visible" style="marker:none"/><path id="path5685" fill="#80b3ff" fill-rule="evenodd" stroke="#f6abab" stroke-dasharray="none" stroke-linecap="round" stroke-linejoin="round" stroke-miterlimit="4" stroke-opacity="1" stroke-width=".5" d="M 16.749772,6.8353523 16.166357,59.500041" display="inline" opacity=".591"/><path id="path6656" fill="#80b3ff" fill-rule="evenodd" stroke="#80b3ff" stroke-dasharray="none" stroke-linecap="round" stroke-linejoin="round" stroke-miterlimit="4" stroke-opacity="1" stroke-width=".25" d="M 53.241446,14.335197 10.336128,14.089165" display="inline" opacity=".437"/><path id="path6658" fill="#80b3ff" fill-rule="evenodd" stroke="#80b3ff" stroke-dasharray="none" stroke-linecap="round" stroke-linejoin="round" stroke-miterlimit="4" stroke-opacity="1" stroke-width=".25" d="M 53.340122,17.001757 10.324655,16.75572" display="inline" opacity=".437"/><path id="path6660" fill="#80b3ff" fill-rule="evenodd" stroke="#80b3ff" stroke-dasharray="none" stroke-linecap="round" stroke-linejoin="round" stroke-miterlimit="4" stroke-opacity="1" stroke-width=".25" d="M 53.450274,19.668316 10.214503,19.422284" display="inline" opacity=".437"/><path id="path6662" fill="#80b3ff" fill-rule="evenodd" stroke="#80b3ff" stroke-dasharray="none" stroke-linecap="round" stroke-linejoin="round" stroke-miterlimit="4" stroke-opacity="1" stroke-width=".25" d="M 53.560426,22.334875 10.104354,22.088841" display="inline" opacity=".437"/><path id="path6664" fill="#80b3ff" fill-rule="evenodd" stroke="#80b3ff" stroke-dasharray="none" stroke-linecap="round" stroke-linejoin="round" stroke-miterlimit="4" stroke-opacity="1" stroke-width=".25" d="M 53.560427,25.001434 10.104354,24.7554" display="inline" opacity=".437"/><path id="path6666" fill="#80b3ff" fill-rule="evenodd" stroke="#80b3ff" stroke-dasharray="none" stroke-linecap="round" stroke-linejoin="round" stroke-miterlimit="4" stroke-opacity="1" stroke-width=".25" d="M 53.670579,27.667993 9.9942028,27.421957" display="inline" opacity=".437"/><path id="path7637" fill="#80b3ff" fill-opacity="1" fill-rule="evenodd" stroke="#80b3ff" stroke-dasharray="none" stroke-dashoffset="0" stroke-linecap="round" stroke-linejoin="round" stroke-miterlimit="4" stroke-opacity="1" stroke-width=".25" d="M 53.670579,30.334552 9.9942029,30.088519" display="inline" enable-background="accumulate" opacity=".437" overflow="visible" visibility="visible" style="marker:none"/><path id="path7639" fill="#80b3ff" fill-opacity="1" fill-rule="evenodd" stroke="#80b3ff" stroke-dasharray="none" stroke-dashoffset="0" stroke-linecap="round" stroke-linejoin="round" stroke-miterlimit="4" stroke-opacity="1" stroke-width=".25" d="M 53.780725,33.001111 9.8840522,32.755077" display="inline" enable-background="accumulate" opacity=".437" overflow="visible" visibility="visible" style="marker:none"/><path id="path7641" fill="#80b3ff" fill-opacity="1" fill-rule="evenodd" stroke="#80b3ff" stroke-dasharray="none" stroke-dashoffset="0" stroke-linecap="round" stroke-linejoin="round" stroke-miterlimit="4" stroke-opacity="1" stroke-width=".25" d="M 53.780722,35.66767 9.8840536,35.421636" display="inline" enable-background="accumulate" opacity=".437" overflow="visible" visibility="visible" style="marker:none"/><path id="path7645" fill="#80b3ff" fill-opacity="1" fill-rule="evenodd" stroke="#80b3ff" stroke-dasharray="none" stroke-dashoffset="0" stroke-linecap="round" stroke-linejoin="round" stroke-miterlimit="4" stroke-opacity="1" stroke-width=".25" d="M 54.001027,38.334229 9.6637532,38.088199" display="inline" enable-background="accumulate" opacity=".437" overflow="visible" visibility="visible" style="marker:none"/><path id="path7647" fill="#80b3ff" fill-opacity="1" fill-rule="evenodd" stroke="#80b3ff" stroke-dasharray="none" stroke-dashoffset="0" stroke-linecap="round" stroke-linejoin="round" stroke-miterlimit="4" stroke-opacity="1" stroke-width=".25" d="M 54.001027,40.986298 9.6637527,40.740262" display="inline" enable-background="accumulate" opacity=".437" overflow="visible" visibility="visible" style="marker:none"/><path id="path7649" fill="#80b3ff" fill-opacity="1" fill-rule="evenodd" stroke="#80b3ff" stroke-dasharray="none" stroke-dashoffset="0" stroke-linecap="round" stroke-linejoin="round" stroke-miterlimit="4" stroke-opacity="1" stroke-width=".25" d="M 54.331478,43.667347 9.3333011,43.421313" display="inline" enable-background="accumulate" opacity=".437" overflow="visible" visibility="visible" style="marker:none"/><path id="path7651" fill="#80b3ff" fill-opacity="1" fill-rule="evenodd" stroke="#80b3ff" stroke-dasharray="none" stroke-dashoffset="0" stroke-linecap="round" stroke-linejoin="round" stroke-miterlimit="4" stroke-opacity="1" stroke-width=".25" d="M 54.331478,46.27448 9.3333011,46.028445" display="inline" enable-background="accumulate" opacity=".437" overflow="visible" visibility="visible" style="marker:none"/><path id="path7653" fill="#80b3ff" fill-opacity="1" fill-rule="evenodd" stroke="#80b3ff" stroke-dasharray="none" stroke-dashoffset="0" stroke-linecap="round" stroke-linejoin="round" stroke-miterlimit="4" stroke-opacity="1" stroke-width=".25" d="M 54.331476,48.918571 9.333302,48.672538" display="inline" enable-background="accumulate" opacity=".437" overflow="visible" visibility="visible" style="marker:none"/><path id="path7655" fill="#80b3ff" fill-opacity="1" fill-rule="evenodd" stroke="#80b3ff" stroke-dasharray="none" stroke-dashoffset="0" stroke-linecap="round" stroke-linejoin="round" stroke-miterlimit="4" stroke-opacity="1" stroke-width=".25" d="M 54.331478,51.562661 9.3333009,51.316623" display="inline" enable-background="accumulate" opacity=".437" overflow="visible" visibility="visible" style="marker:none"/><path id="path7657" fill="#80b3ff" fill-opacity="1" fill-rule="evenodd" stroke="#80b3ff" stroke-dasharray="none" stroke-dashoffset="0" stroke-linecap="round" stroke-linejoin="round" stroke-miterlimit="4" stroke-opacity="1" stroke-width=".25" d="M 54.331476,54.206753 9.3333021,53.960718" display="inline" enable-background="accumulate" opacity=".437" overflow="visible" visibility="visible" style="marker:none"/><path id="path7659" fill="#80b3ff" fill-opacity="1" fill-rule="evenodd" stroke="#80b3ff" stroke-dasharray="none" stroke-dashoffset="0" stroke-linecap="round" stroke-linejoin="round" stroke-miterlimit="4" stroke-opacity="1" stroke-width=".25" d="M 54.331476,57.000142 9.3333019,56.754108" display="inline" enable-background="accumulate" opacity=".437" overflow="visible" visibility="visible" style="marker:none"/><path id="path7671" fill="none" stroke="#b9d5ff" stroke-dasharray="none" stroke-linecap="round" stroke-linejoin="round" stroke-miterlimit="4" stroke-opacity="1" stroke-width=".5" d="M 46.831786,6.7252029 48.231073,59.389891" display="inline" opacity=".591"/><path id="path3715" fill="none" stroke="url(#linearGradient3302)" stroke-linecap="butt" stroke-linejoin="miter" stroke-opacity="1" stroke-width="1" d="m 17.164896,16.5 3.1305,0 m 0.447215,0 2.906893,0 m 0.467923,0 2.593843,0 m 0.426507,0 1.118035,0 m 0.447215,0 2.5044,0 m 0.491936,0 6.574051,0 m 0.447217,0 5.0088,0 m 0.447215,0 1.520528,0 m -28.532278,3 4.85398,0 m 0.564726,0 2.319342,0 m 0.428752,0 1.144554,0 m 0.465677,0 2.136455,0 m 0.447216,0 2.191039,0 m 0.413597,0 3.440449,0 m 0.447217,0 4.53876,0 m -23.391764,2.986685 4.108403,0 m 0.431588,0 6.766176,0 m 0.41469,0 3.281449,0 m 0.420587,0 3.069756,0 m 0.440223,0 2.614989,0 m 0.420589,0 4.112718,0.02663 M 17.164896,25.5 l 5.712238,0 m 0.448559,0 6.173855,0 m 0.426507,0 2.426115,0 m 0.447216,0 5.774602,0 m 0.388667,0 3.957889,0 m 0.447216,0 1.566482,0 m 0.447216,0 0.866487,0 m -29.083049,3 2.132227,0 m 0.655099,0 7.895013,0 m -10.682339,13 4.85398,0 m 0.564726,0 2.319342,0 m 0.428752,0 1.144554,0 m 0.465677,0 2.136455,0 m 0.447216,0 2.191039,0 m 0.413597,0 3.440449,0 m -18.405787,3.959095 4.108403,0 m 0.431588,0 6.766176,0 m 0.41469,0 3.281449,0 m 11.59593,0.08181 6.70226,0 M 17.164896,38.5 l 5.712238,0 m 0.448559,0 6.173855,0 m 0.426507,0 2.426115,0 m 0.447216,0 5.774602,0 m -21.409092,-6 3.1305,0 m 0.447215,0 2.906893,0 m 0.467923,0 2.593843,0 m 0.426507,0 1.118035,0 m 0.447215,0 2.5044,0 m 0.491936,0 6.574051,0 m 0.447217,0 5.0088,0 m -26.564535,3 5.272165,0 m 0.414708,0 5.598375,0 m 0.426507,0 2.189153,0 m 0.413364,0 5.266826,0 m 0.422519,0 5.752031,0 m -25.755648,13.000488 4.926743,0 m 0.528863,0 2.172067,0 m 0.508746,0 1.083366,0 m 0.344859,0 2.138627,0 m 0.283921,0 11.322321,0 m 0.53276,0 3.022388,0 m 0.406393,0 0.763135,0 M 22.777657,51.5 l 1.607122,0 m -7.219883,0 5.1423,0 m 2.488609,0 3.739246,0 m 0.395544,0 5.488981,0 m 0.426507,0 3.72366,0 m 0.374837,0 0.767317,0 m 0.419558,0 4.7284,0 m 0.483405,0 2.475554,0 m -25.041157,3 2.269174,0 m -7.881935,0 5.1423,0 m 3.231399,0 3.190227,0"/><path id="path2422" fill="#0c0c0c" fill-opacity="1" fill-rule="evenodd" stroke="none" d="m 49.623605,32.593851 c -0.231,-0.13598 -0.40974,-0.10061 -0.527823,-0.02495 l -15.727509,10.014828 -2.894616,1.848398 -0.08912,0.0374 -3.427059,7.72242 8.49318,0.255815 0.0705,-0.04718 2.913229,-1.838602 15.72359,-10.1012 c 0.472343,-0.302645 -0.274679,-2.308458 -1.675739,-4.507318 -1.050799,-1.649136 -2.165636,-2.951672 -2.85864,-3.359609 l 0,0 z" opacity=".15"/><path id="rect2383" fill="url(#linearGradient3176)" fill-opacity="1" stroke="#0c0c0c" stroke-dasharray="none" stroke-dashoffset="0" stroke-linecap="butt" stroke-linejoin="round" stroke-miterlimit="4" stroke-opacity="1" stroke-width=".5" d="m 31.57772,42.038752 c 0.594537,-0.446137 2.262714,0.39074 3.795697,1.916096 1.529317,1.521706 2.335133,3.150009 1.899097,3.750366 -0.0016,0.0023 0.03752,0.03339 0.03581,0.03564 L 58.654191,26.29035 c 0.541954,-0.544611 -0.300099,-2.265649 -1.88175,-3.839428 -1.581645,-1.57378 -3.306905,-2.407285 -3.848863,-1.862671 L 31.57772,42.038752 z"/><path id="rect3175" fill="#ffb6ed" fill-opacity="1" stroke="#e28ccd" stroke-dasharray="none" stroke-dashoffset="0" stroke-linecap="butt" stroke-linejoin="round" stroke-miterlimit="4" stroke-opacity="1" stroke-width=".5" d="m 50.318482,23.20612 c 0.594537,-0.446136 2.262715,0.390742 3.795697,1.916096 1.529316,1.521706 2.335133,3.150009 1.899096,3.750365 -0.0016,0.0023 0.03752,0.03338 0.03581,0.03564 l 2.605098,-2.61787 0.05317,-0.05342 c 0.0017,-0.0023 -0.03748,-0.03336 -0.03581,-0.03564 0.43603,-0.600356 -0.369788,-2.228658 -1.899104,-3.750363 -1.53298,-1.525355 -3.201157,-2.362234 -3.795696,-1.916096 l -0.05317,0.05342 -2.605096,2.617869 4e-6,0 z" opacity=".8"/><path id="path3208" fill="#0c0c0c" fill-opacity="1" stroke="none" d="m 31.57772,42.038749 c 0.594537,-0.446136 2.262715,0.390742 3.795696,1.916096 1.529317,1.521707 2.335134,3.150009 1.899097,3.750366 -0.0016,0.0023 0.03752,0.03339 0.03583,0.03564 l 14.700196,-14.772261 0.05317,-0.05343 c 0.0017,-0.0023 -0.03748,-0.03336 -0.03581,-0.03564 0.436028,-0.600361 -0.369789,-2.228662 -1.899105,-3.750369 -1.532982,-1.525354 -3.201161,-2.362232 -3.795698,-1.916094 l -0.05317,0.05342 -14.700191,14.772262 -7e-6,0 z" opacity=".6"/><path id="path3233" fill="url(#linearGradient3171)" fill-opacity="1" stroke="none" d="m 47.398481,26.140433 c 0.594536,-0.446138 2.262717,0.390741 3.795698,1.916096 1.529315,1.521705 2.335133,3.150007 1.899095,3.750365 -0.0016,0.0023 0.03752,0.03339 0.03581,0.03564 L 53.394912,31.5754 c 0.0017,-0.0023 -0.03748,-0.03336 -0.03581,-0.03564 0.436038,-0.600357 -0.36978,-2.22866 -1.899097,-3.750363 -1.532981,-1.525356 -3.20116,-2.362234 -3.795696,-1.916097 l -0.265827,0.26713 0,2e-6 z"/><path id="path3216" fill="url(#linearGradient3168)" fill-opacity="1" stroke="none" d="m 47.154867,26.38524 c 0.594539,-0.446138 2.262718,0.39074 3.795697,1.916095 1.529319,1.521706 2.335136,3.150007 1.899097,3.750364 -0.0016,0.0023 0.03751,0.03339 0.03581,0.03564 l 0.265825,-0.267132 c 0.0017,-0.0023 -0.03748,-0.03336 -0.03581,-0.03564 0.436041,-0.600355 -0.369777,-2.228658 -1.899095,-3.750363 C 49.68341,26.50885 48.015232,25.67197 47.420692,26.118108 l -0.265825,0.267131 0,1e-6 z"/><path id="path3248" fill="url(#linearGradient3165)" fill-opacity="1" stroke="none" d="m 48.245034,25.28973 c 0.594537,-0.446138 2.262715,0.39074 3.795697,1.916096 1.529316,1.521705 2.335134,3.150006 1.899097,3.750364 -0.0016,0.0023 0.03751,0.03338 0.03581,0.03564 l 0.265826,-0.26713 c 0.0017,-0.0023 -0.03748,-0.03336 -0.03581,-0.03564 C 54.641691,30.088704 53.835875,28.4604 52.306556,26.938696 50.773576,25.413341 49.1054,24.576462 48.510859,25.0226 l -0.265825,0.26713 0,0 z"/><path id="path3250" fill="url(#linearGradient3162)" fill-opacity="1" stroke="none" d="m 48.00142,25.534537 c 0.59454,-0.446138 2.262718,0.39074 3.795697,1.916095 1.529318,1.521706 2.335135,3.150007 1.899098,3.750364 -0.0016,0.0023 0.03752,0.03339 0.03581,0.03564 l 0.265825,-0.267131 c 0.0017,-0.0023 -0.03748,-0.03336 -0.03581,-0.03564 0.436039,-0.600357 -0.369778,-2.228661 -1.899095,-3.750364 -1.53298,-1.525355 -3.201159,-2.362235 -3.795699,-1.916096 l -0.265826,0.267131 z"/><path id="path3256" fill="url(#linearGradient3159)" fill-opacity="1" stroke="none" d="m 49.095679,24.434915 c 0.594536,-0.446137 2.262714,0.390741 3.795696,1.916096 1.529316,1.521705 2.335134,3.150007 1.899097,3.750364 -0.0016,0.0023 0.0375,0.03339 0.03581,0.03564 l 0.265824,-0.267131 c 0.0017,-0.0023 -0.03748,-0.03336 -0.03581,-0.03564 0.436038,-0.600356 -0.36978,-2.22866 -1.899097,-3.750365 -1.532978,-1.525354 -3.201157,-2.362234 -3.795696,-1.916094 l -0.265825,0.267129 10e-7,0 z"/><path id="path3258" fill="url(#linearGradient3156)" fill-opacity="1" stroke="none" d="m 48.852067,24.679722 c 0.594534,-0.446138 2.262715,0.39074 3.795696,1.916097 1.529315,1.521704 2.335135,3.150007 1.899095,3.750362 -0.0016,0.0023 0.03752,0.03339 0.03581,0.03564 l 0.265826,-0.267128 c 0.0017,-0.0023 -0.03748,-0.03336 -0.03581,-0.03564 0.436038,-0.600359 -0.36978,-2.228661 -1.899096,-3.750365 -1.532981,-1.525356 -3.20116,-2.362235 -3.795697,-1.916096 l -0.265825,0.267129 0,0 z"/><path id="path3270" fill="url(#linearGradient3151)" fill-opacity="1" fill-rule="evenodd" stroke="url(#linearGradient3153)" stroke-dasharray="none" stroke-linecap="butt" stroke-linejoin="miter" stroke-miterlimit="4" stroke-opacity="1" stroke-width=".5" d="m 27.487084,51.747568 9.711253,-3.960957 0.08274,-0.08273 c 0.436037,-0.600362 -0.380288,-2.22879 -1.909605,-3.7505 -1.532982,-1.525354 -3.199188,-2.357607 -3.793726,-1.911469 l -4.090658,9.705656 -7e-6,0 z"/><path id="path3281" fill="#0c0c0c" fill-opacity="1" fill-rule="evenodd" stroke="#0c0c0c" stroke-dasharray="none" stroke-linecap="butt" stroke-linejoin="miter" stroke-miterlimit="4" stroke-opacity="1" stroke-width=".5" d="m 28.595131,49.118873 -1.108643,2.618307 2.648745,-1.085868 C 29.92294,50.397024 29.726959,50.138742 29.472072,49.885124 29.178629,49.59314 28.890001,49.35623 28.595131,49.118873 z"/></g></svg>