<svg xmlns="http://www.w3.org/2000/svg" xmlns:svg="http://www.w3.org/2000/svg" xmlns:xlink="http://www.w3.org/1999/xlink" id="svg6955" width="64" height="64" version="1.1"><defs id="defs6957"><linearGradient id="linearGradient4566"><stop id="stop4568" offset="0" stop-color="#000" stop-opacity="1"/><stop id="stop4570" offset="1" stop-color="#000" stop-opacity="0"/></linearGradient><linearGradient id="linearGradient4223"><stop id="stop4225" offset="0" stop-color="#d1ff82" stop-opacity="1"/><stop id="stop4227" offset=".262" stop-color="#9bdb4d" stop-opacity="1"/><stop id="stop4229" offset=".661" stop-color="#68b723" stop-opacity="1"/><stop id="stop4231" offset="1" stop-color="#3a9104" stop-opacity="1"/></linearGradient><linearGradient id="linearGradient4546"><stop id="stop4548" offset="0" stop-color="#fff" stop-opacity="1"/><stop id="stop4550" offset=".333" stop-color="#fff" stop-opacity=".235"/><stop id="stop4552" offset=".951" stop-color="#fff" stop-opacity=".157"/><stop id="stop4554" offset="1" stop-color="#fff" stop-opacity=".392"/></linearGradient><linearGradient id="linearGradient4129"><stop id="stop4131" offset="0" stop-color="#8cd5ff" stop-opacity="1"/><stop id="stop4133" offset=".262" stop-color="#64baff" stop-opacity="1"/><stop id="stop4135" offset=".705" stop-color="#3689e6" stop-opacity="1"/><stop id="stop4137" offset="1" stop-color="#0d52bf" stop-opacity="1"/></linearGradient><radialGradient id="radialGradient3997" cx="26" cy="38" r="18" fx="26" fy="38" gradientTransform="matrix(1,0,0,0.33333333,0,25.333333)" gradientUnits="userSpaceOnUse" xlink:href="#linearGradient4566"/><radialGradient id="radialGradient3863" cx="34.801" cy="19.74" r="26.5" fx="34.801" fy="19.74" gradientTransform="matrix(1.4637833e-7,4.5283018,-6.3396227,1.5427113e-7,157.14323,-133.58902)" gradientUnits="userSpaceOnUse" xlink:href="#linearGradient4129"/><clipPath id="clipPath3875" clipPathUnits="userSpaceOnUse"><path id="path3877" fill="#804d4d" fill-opacity="1" stroke="none" d="m 23,27 c -7.210649,0 -13,5.78935 -13,13 l 0,3 c 0,7.21065 5.789351,13 13,13 l 25,0 c 1.456363,0 2.85662,-0.221514 4.15625,-0.65625 L 52.4375,55.25 52.625,55.4375 c 2.026948,1.744171 5.01199,2.091294 7.46875,0.6875 -1.169748,-0.862286 -2.320702,-1.787499 -3.25,-2.96875 l -0.28125,-0.375 0.34375,-0.3125 C 59.42544,50.100387 61,46.750004 61,43 l 0,-3 C 61,32.78935 55.210649,27 48,27 l -25,0 z"/></clipPath><linearGradient id="linearGradient3885" x1="36" x2="36" y1="28" y2="56" gradientUnits="userSpaceOnUse" xlink:href="#linearGradient4546"/><radialGradient id="radialGradient3895" cx="36" cy="19.019" r="26.5" fx="36" fy="19.019" gradientTransform="matrix(-1.1314701e-7,5.1320756,6.037736,1.3311414e-7,-86.830262,-176.75472)" gradientUnits="userSpaceOnUse" xlink:href="#linearGradient4223"/><linearGradient id="linearGradient3897" x1="36" x2="36" y1="28" y2="56" gradientUnits="userSpaceOnUse" xlink:href="#linearGradient4546"/><radialGradient id="radialGradient3901" cx="26" cy="38" r="18" fx="26" fy="38" gradientTransform="matrix(1,0,0,0.33333333,0,25.333333)" gradientUnits="userSpaceOnUse" xlink:href="#linearGradient4566"/></defs><metadata id="metadata6960"/><path id="path3899" fill="url(#radialGradient3901)" fill-opacity="1" stroke="none" d="M 44,38 A 18,6 0 1 1 8,38 18,6 0 1 1 44,38 z" opacity=".2" transform="matrix(1.4444444,0,0,1.3333333,-9.0555555,-16.166667)"/><path id="path3887" fill="url(#radialGradient3895)" fill-opacity="1" stroke="#206b00" stroke-opacity=".498" stroke-width="1" d="m 41,6.5000004 c 7.479,0 13.5,6.0209986 13.5,13.4999996 l 0,3 c 0,7.479001 -6.021,13.5 -13.5,13.5 l -25,0 c -1.508329,0 -2.960202,-0.235146 -4.3125,-0.6875 -2.1919151,1.886124 -5.4164201,2.277714 -8.0625001,0.75 -0.182011,-0.105084 -0.36239,-0.225315 -0.53125,-0.34375 1.356763,-0.917691 2.607943,-2.042474 3.65625,-3.375 -2.6157,-2.459095 -4.25,-5.953705 -4.25,-9.84375 l 0,-3 c 0,-7.479001 6.021,-13.4999996 13.5000001,-13.4999996 l 25,0 z"/><path id="path3889" fill="none" stroke="url(#linearGradient3897)" stroke-dasharray="none" stroke-miterlimit="4" stroke-opacity=".498" stroke-width="2" d="m 23,27 c -7.210649,0 -13,5.78935 -13,13 l 0,3 c 0,7.21065 5.789351,13 13,13 l 25,0 c 1.456363,0 2.85662,-0.221514 4.15625,-0.65625 L 52.4375,55.25 52.625,55.4375 c 2.026948,1.744171 5.01199,2.091294 7.46875,0.6875 -1.169748,-0.862286 -2.320702,-1.787499 -3.25,-2.96875 l -0.28125,-0.375 0.34375,-0.3125 C 59.42544,50.100387 61,46.750004 61,43 l 0,-3 C 61,32.78935 55.210649,27 48,27 l -25,0 z" clip-path="url(#clipPath3875)" transform="matrix(-1,0,0,1,64,-20)"/><path id="path4564" fill="url(#radialGradient3997)" fill-opacity="1" stroke="none" d="M 44,38 A 18,6 0 1 1 8,38 18,6 0 1 1 44,38 z" opacity=".2" transform="matrix(1.4444444,0,0,1.3333333,-1.0555555,2.833333)"/><path id="rect3064" fill="url(#radialGradient3863)" fill-opacity="1" stroke="#002e99" stroke-opacity=".498" stroke-width="1" d="M 23 26.5 C 15.521 26.5 9.5 32.520999 9.5 40 L 9.5 43 C 9.5 50.479001 15.521 56.5 23 56.5 L 48 56.5 C 49.508329 56.5 50.960202 56.264854 52.3125 55.8125 C 54.504415 57.698624 57.72892 58.090214 60.375 56.5625 C 60.557011 56.457416 60.73739 56.337185 60.90625 56.21875 C 59.549487 55.301059 58.298307 54.176276 57.25 52.84375 C 59.8657 50.384655 61.5 46.890045 61.5 43 L 61.5 40 C 61.5 32.520999 55.479 26.5 48 26.5 L 23 26.5 z"/><path id="path3873" fill="none" fill-opacity="1" stroke="url(#linearGradient3885)" stroke-dasharray="none" stroke-miterlimit="4" stroke-opacity=".498" stroke-width="2" d="M 23 27 C 15.789351 27 10 32.78935 10 40 L 10 43 C 10 50.21065 15.789351 56 23 56 L 48 56 C 49.456363 56 50.85662 55.778486 52.15625 55.34375 L 52.4375 55.25 L 52.625 55.4375 C 54.651948 57.181671 57.63699 57.528794 60.09375 56.125 C 58.924002 55.262714 57.773048 54.337501 56.84375 53.15625 L 56.5625 52.78125 L 56.90625 52.46875 C 59.42544 50.100387 61 46.750004 61 43 L 61 40 C 61 32.78935 55.210649 27 48 27 L 23 27 z" clip-path="url(#clipPath3875)"/><path id="path4027" fill="#fff" fill-opacity="1" stroke="none" d="M 18.0625,48.5 C 18.021396,48.659759 18,48.827411 18,49 c 0,1.104569 0.895431,2 2,2 1.104569,0 2,-0.895431 2,-2 0,-0.172589 -0.0214,-0.340241 -0.0625,-0.5 C 21.715537,49.362699 20.93198,50 20,50 19.06802,50 18.284463,49.362699 18.0625,48.5 z m 6,0 C 24.021396,48.659759 24,48.827411 24,49 c 0,1.104569 0.895431,2 2,2 1.104569,0 2,-0.895431 2,-2 0,-0.172589 -0.0214,-0.340241 -0.0625,-0.5 C 27.715537,49.362699 26.93198,50 26,50 25.06802,50 24.284463,49.362699 24.0625,48.5 z m 6,0 C 30.021396,48.659759 30,48.827411 30,49 c 0,1.104569 0.895431,2 2,2 1.104569,0 2,-0.895431 2,-2 0,-0.172589 -0.0214,-0.340241 -0.0625,-0.5 C 33.715537,49.362699 32.93198,50 32,50 31.06802,50 30.284463,49.362699 30.0625,48.5 z" opacity=".5"/><path id="path4038" fill="#002e99" fill-opacity="1" stroke="none" d="m 20,46 c -1.104569,0 -2,0.895431 -2,2 0,1.104569 0.895431,2 2,2 1.104569,0 2,-0.895431 2,-2 0,-1.104569 -0.895431,-2 -2,-2 z m 6,0 c -1.104569,0 -2,0.895431 -2,2 0,1.104569 0.895431,2 2,2 1.104569,0 2,-0.895431 2,-2 0,-1.104569 -0.895431,-2 -2,-2 z m 6,0 c -1.104569,0 -2,0.895431 -2,2 0,1.104569 0.895431,2 2,2 1.104569,0 2,-0.895431 2,-2 0,-1.104569 -0.895431,-2 -2,-2 z" opacity=".4"/></svg>