<svg xmlns="http://www.w3.org/2000/svg" xmlns:svg="http://www.w3.org/2000/svg" xmlns:xlink="http://www.w3.org/1999/xlink" id="svg3823" width="64" height="64" version="1.1" viewBox="0 0 64 64"><defs id="defs3825"><linearGradient id="linearGradient5701" x1="38.851" x2="34.131" y1="41.608" y2="37.81" gradientTransform="matrix(0.17122132,0,0,0.17911682,39.858233,39.69816)" gradientUnits="userSpaceOnUse" xlink:href="#linearGradient6455-7-3-3"/><linearGradient id="linearGradient6455-7-3-3"><stop id="stop6457-5-1-10" offset="0" stop-color="#fbac9b" stop-opacity="1"/><stop id="stop6459-8-9-7" offset="1" stop-color="#fcfafc" stop-opacity="1"/></linearGradient><linearGradient id="linearGradient5699" x1="38.851" x2="34.131" y1="41.608" y2="37.81" gradientTransform="matrix(0.24481963,0,0,0.25610897,36.733401,36.18149)" gradientUnits="userSpaceOnUse" xlink:href="#linearGradient6413-0-0-0"/><linearGradient id="linearGradient6413-0-0-0"><stop id="stop6415-1-7-3" offset="0" stop-color="#feffff" stop-opacity="1"/><stop id="stop6417-4-9-2" offset="1" stop-color="#fe70ca" stop-opacity="1"/></linearGradient><radialGradient id="radialGradient5697" cx="36.491" cy="39.709" r="3.159" fx="36.491" fy="39.709" gradientTransform="matrix(0.24481963,0,0,0.25610897,38.787203,37.42457)" gradientUnits="userSpaceOnUse" xlink:href="#linearGradient6303-33-0-2-0"/><linearGradient id="linearGradient6303-33-0-2-0"><stop id="stop6305-1-0-2-0" offset="0" stop-color="#fff" stop-opacity="1"/><stop id="stop6307-5-0-6-1" offset="1" stop-color="#fff" stop-opacity="0"/></linearGradient><radialGradient id="radialGradient5695" cx="36.491" cy="39.709" r="3.159" fx="36.491" fy="39.709" gradientTransform="matrix(0.85823344,-0.49549901,0.28192316,0.48830295,2.5070009,43.37054)" gradientUnits="userSpaceOnUse" xlink:href="#linearGradient6303-3-2-1-4"/><linearGradient id="linearGradient6303-3-2-1-4"><stop id="stop6305-3-0-9-0" offset="0" stop-color="#fff" stop-opacity="1"/><stop id="stop6307-1-0-1-2" offset="1" stop-color="#fff" stop-opacity="0"/></linearGradient><radialGradient id="radialGradient5693" cx="36.491" cy="39.709" r="3.159" fx="36.491" fy="39.709" gradientTransform="matrix(1.0665354,-0.61576165,0.35034877,0.60681909,-2.5157791,49.42708)" gradientUnits="userSpaceOnUse" xlink:href="#linearGradient6303-4-8-5"/><linearGradient id="linearGradient6303-4-8-5"><stop id="stop6305-33-3-3" offset="0" stop-color="#fff" stop-opacity="1"/><stop id="stop6307-9-3-4" offset="1" stop-color="#fff" stop-opacity="0"/></linearGradient><radialGradient id="radialGradient5691" cx="32.373" cy="31.405" r="3.857" fx="32.373" fy="31.405" gradientTransform="matrix(-0.68205696,-0.6820538,0.68205696,-0.6820538,48.659339,90.606058)" gradientUnits="userSpaceOnUse" xlink:href="#linearGradient6088-6-1-0-06"/><linearGradient id="linearGradient6088-6-1-0-06"><stop id="stop6090-2-0-4-9" offset="0" stop-color="#ff54d2" stop-opacity="0"/><stop id="stop6257-4-6-1-76" offset=".324" stop-color="#ff54d2" stop-opacity="0"/><stop id="stop6255-3-6-7-23" offset=".561" stop-color="#ff54d2" stop-opacity=".252"/><stop id="stop6092-9-6-8-9" offset="1" stop-color="#ff54d2" stop-opacity=".478"/></linearGradient><radialGradient id="radialGradient5689" cx="32.373" cy="31.405" r="3.857" fx="32.373" fy="31.405" gradientTransform="matrix(0.58388843,0.8107929,-0.78273251,0.56367563,53.678599,4.0440924)" gradientUnits="userSpaceOnUse" xlink:href="#linearGradient6191-8-3-4-5"/><linearGradient id="linearGradient6191-8-3-4-5"><stop id="stop6193-75-7-6-4" offset="0" stop-color="#fff" stop-opacity="0"/><stop id="stop6197-3-4-1-4" offset=".405" stop-color="#fff" stop-opacity="0"/><stop id="stop6195-7-2-5-7" offset="1" stop-color="#fff" stop-opacity=".478"/></linearGradient><radialGradient id="radialGradient5687" cx="32.373" cy="31.405" r="3.857" fx="32.373" fy="31.405" gradientTransform="matrix(0,0.99915347,-0.9645742,-2.659264e-8,78.295145,15.649478)" gradientUnits="userSpaceOnUse" xlink:href="#linearGradient6191-7-9-4-9"/><linearGradient id="linearGradient6191-7-9-4-9"><stop id="stop6193-7-3-6-0" offset="0" stop-color="#fff" stop-opacity="0"/><stop id="stop6197-2-2-0-4" offset=".405" stop-color="#fff" stop-opacity="0"/><stop id="stop6195-2-1-9-1" offset="1" stop-color="#fff" stop-opacity=".478"/></linearGradient><radialGradient id="radialGradient5685" cx="32.373" cy="31.405" r="3.857" fx="32.373" fy="31.405" gradientTransform="matrix(0.96511264,0.25859995,-0.24965018,0.9317028,24.592033,10.363923)" gradientUnits="userSpaceOnUse" xlink:href="#linearGradient6191-9-9-5"/><linearGradient id="linearGradient6191-9-9-5"><stop id="stop6193-8-1-3" offset="0" stop-color="#fff" stop-opacity="0"/><stop id="stop6197-8-8-7" offset=".405" stop-color="#fff" stop-opacity="0"/><stop id="stop6195-9-3-6" offset="1" stop-color="#fff" stop-opacity=".478"/></linearGradient><linearGradient id="linearGradient5713" x1="68.313" x2="68.313" y1="52.925" y2="65.922" gradientTransform="matrix(0.07463855,0,0,0.05597866,43.005043,43.75842)" gradientUnits="userSpaceOnUse" xlink:href="#linearGradient3990-3-1-7-0"/><linearGradient id="linearGradient3990-3-1-7-0"><stop id="stop3992-0-0-1-0" offset="0" stop-color="#fff" stop-opacity="1"/><stop id="stop3994-2-1-8-6" offset="1" stop-color="#fff" stop-opacity="0"/></linearGradient><linearGradient id="linearGradient5735" x1="92.696" x2="92.696" y1="16.555" y2="48.984" gradientTransform="matrix(0.15597147,0,0,0.15597147,33.636811,42.91979)" gradientUnits="userSpaceOnUse" xlink:href="#linearGradient4316-4-6-6-4-5"/><linearGradient id="linearGradient4316-4-6-6-4-5"><stop id="stop4318-4-4-6-5-3" offset="0" stop-color="#fff" stop-opacity="1"/><stop id="stop4320-2-2-6-59-35" offset=".338" stop-color="#fff" stop-opacity=".235"/><stop id="stop4322-4-5-5-0-1" offset=".62" stop-color="#fff" stop-opacity=".157"/><stop id="stop4324-4-1-5-5-42" offset="1" stop-color="#fff" stop-opacity=".392"/></linearGradient><radialGradient id="radialGradient5679" cx="32.373" cy="31.405" r="3.857" fx="32.373" fy="31.405" gradientTransform="matrix(-0.96457422,0,0,-0.96456974,79.229709,78.297051)" gradientUnits="userSpaceOnUse" xlink:href="#linearGradient6088-74-4-8"/><linearGradient id="linearGradient6088-74-4-8"><stop id="stop6090-5-66-7" offset="0" stop-color="#ff54d2" stop-opacity="0"/><stop id="stop6257-5-4-6" offset=".324" stop-color="#f62b68" stop-opacity="1"/><stop id="stop6255-6-7-9" offset=".561" stop-color="#ff0105" stop-opacity="1"/><stop id="stop6092-0-22-2" offset="1" stop-color="#ff54d2" stop-opacity=".478"/></linearGradient><linearGradient id="linearGradient5677" x1="92.696" x2="92.696" y1="16.555" y2="48.984" gradientTransform="matrix(0.34314468,0,0,-0.34314308,16.400821,59.17667)" gradientUnits="userSpaceOnUse" xlink:href="#linearGradient4316-4-0-7-5"/><linearGradient id="linearGradient4316-4-0-7-5"><stop id="stop4318-4-5-3-2" offset="0" stop-color="#fff" stop-opacity="1"/><stop id="stop4320-2-9-4-1" offset=".338" stop-color="#fff" stop-opacity=".235"/><stop id="stop4322-4-1-3-4" offset=".62" stop-color="#fff" stop-opacity=".157"/><stop id="stop4324-4-8-66-2" offset="1" stop-color="#fff" stop-opacity=".392"/></linearGradient><radialGradient id="radialGradient5720" cx="95.838" cy="95.388" r="9.498" fx="95.838" fy="95.388" gradientTransform="matrix(0.27003063,-4.0264969e-8,3.7832161e-8,0.25371301,22.078391,23.69919)" gradientUnits="userSpaceOnUse" xlink:href="#linearGradient4278-3-5-5"/><linearGradient id="linearGradient4278-3-5-5"><stop id="stop4280-6-90-6" offset="0" stop-color="#000" stop-opacity="0"/><stop id="stop4286-1-9-5" offset=".5" stop-color="#000" stop-opacity="0"/><stop id="stop4282-24-4-0" offset="1" stop-color="#000" stop-opacity="1"/></linearGradient><radialGradient id="radialGradient5723" cx="23.896" cy="3.99" r="20.397" gradientTransform="matrix(0,0.29307391,-0.38685417,0,49.543113,38.31002)" gradientUnits="userSpaceOnUse" xlink:href="#linearGradient2867-449-88-871-390-598-476-591-434-148-57-177-691-4-22-1"/><linearGradient id="linearGradient2867-449-88-871-390-598-476-591-434-148-57-177-691-4-22-1"><stop id="stop7191-4-6-8" offset="0" stop-color="#612f91" stop-opacity="1"/><stop id="stop7197-2-8-6" offset="1" stop-color="#1a4aa2" stop-opacity="1"/></linearGradient><linearGradient id="linearGradient5726" x1="7.078" x2="7.078" y1="3.082" y2="45.369" gradientTransform="matrix(0.12279738,0,0,0.12279684,45.052413,45.05279)" gradientUnits="userSpaceOnUse" xlink:href="#linearGradient3087-408-5-3-7"/><linearGradient id="linearGradient3087-408-5-3-7" x1="7.078" x2="7.078" y1="3.082" y2="45.369" gradientTransform="matrix(0.22110724,0,0,0.22110728,6.6934256,6.693263)" gradientUnits="userSpaceOnUse"><stop id="stop7201-5-71-3" offset="0" stop-color="#170418" stop-opacity="1"/><stop id="stop7203-2-8-8" offset="1" stop-color="#50386b" stop-opacity="1"/></linearGradient><radialGradient id="radialGradient5731" cx="32" cy="21.239" r="10.498" fx="32" fy="21.239" gradientTransform="matrix(0,0.92987664,-2.1420157,0,93.494423,13.26953)" gradientUnits="userSpaceOnUse" xlink:href="#linearGradient6042-1-7-8"/><linearGradient id="linearGradient6042-1-7-8"><stop id="stop6044-9-6-3" offset="0" stop-color="#07132d" stop-opacity="1"/><stop id="stop6046-9-5-1" offset="1" stop-color="#425479" stop-opacity="1"/></linearGradient><radialGradient id="radialGradient5441" cx="91.35" cy="16.448" r="15.639" fx="91.35" fy="16.448" gradientTransform="matrix(0,0.82309009,-0.82309393,0,61.537592,-33.522444)" gradientUnits="userSpaceOnUse" xlink:href="#linearGradient4507-6-5-9"/><linearGradient id="linearGradient4507-6-5-9"><stop id="stop4509-3-8-8" offset="0" stop-color="#2d3955" stop-opacity="1"/><stop id="stop5959-4-45-4" offset=".725" stop-color="#2b3853" stop-opacity="1"/><stop id="stop5961-1-7-2" offset=".75" stop-color="#192640" stop-opacity="1"/><stop id="stop4511-1-0-8" offset="1" stop-color="#08142e" stop-opacity="1"/></linearGradient><linearGradient id="linearGradient5411" x1="92.696" x2="92.696" y1="16.555" y2="48.984" gradientTransform="matrix(0.53030546,0,0,0.53030301,-0.83400907,30.72728)" gradientUnits="userSpaceOnUse" xlink:href="#linearGradient4316-5-3-5"/><linearGradient id="linearGradient4316-5-3-5"><stop id="stop4318-1-6-2" offset="0" stop-color="#fff" stop-opacity="1"/><stop id="stop4320-9-8-9" offset=".338" stop-color="#fff" stop-opacity=".235"/><stop id="stop4322-42-31-5" offset=".62" stop-color="#fff" stop-opacity=".157"/><stop id="stop4324-9-9-3" offset="1" stop-color="#fff" stop-opacity=".392"/></linearGradient><linearGradient id="linearGradient5407" x1="91.566" x2="91.566" y1="16.543" y2="48.631" gradientTransform="matrix(0.60828875,0,0,0.60828875,-8.0151591,28.18718)" gradientUnits="userSpaceOnUse" xlink:href="#linearGradient4220-7-2-0"/><linearGradient id="linearGradient4220-7-2-0"><stop id="stop4222-7-5-5" offset="0" stop-color="#7a8498" stop-opacity="1"/><stop id="stop4224-0-5-2" offset="1" stop-color="#34405c" stop-opacity="1"/></linearGradient><linearGradient id="linearGradient5397" x1="51.2" x2="51.2" y1="8.114" y2="56.115" gradientTransform="matrix(0.50000232,0,0,0.5,22.342291,32.00001)" gradientUnits="userSpaceOnUse" xlink:href="#linearGradient4164-9-2"/><linearGradient id="linearGradient4164-9-2"><stop id="stop4166-3-2" offset="0" stop-color="#b6b6b6" stop-opacity="1"/><stop id="stop4216-6-7" offset=".331" stop-color="#a4a4a4" stop-opacity="1"/><stop id="stop4168-0-3" offset="1" stop-color="#c5c5c5" stop-opacity="1"/></linearGradient><linearGradient id="linearGradient5400" x1="71.204" x2="71.204" y1="15.369" y2="40.496" gradientTransform="matrix(1.1194484,0,0,1.1194484,-32.797889,16.80445)" gradientUnits="userSpaceOnUse" xlink:href="#linearGradient4806-2-9"/><linearGradient id="linearGradient4806-2-9"><stop id="stop4808-4-6" offset="0" stop-color="#fff" stop-opacity="1"/><stop id="stop4810-0-9" offset=".424" stop-color="#fff" stop-opacity=".235"/><stop id="stop4812-8-7" offset=".821" stop-color="#fff" stop-opacity=".157"/><stop id="stop4814-0-7" offset="1" stop-color="#fff" stop-opacity=".392"/></linearGradient><radialGradient id="radialGradient5403" cx="23.896" cy="3.99" r="20.397" fx="23.896" fy="3.99" gradientTransform="matrix(0,2.0430803,-2.6968298,0,58.760173,-15.622165)" gradientUnits="userSpaceOnUse" xlink:href="#radialGradient3093-0-3-6-6-0"/><radialGradient id="radialGradient3093-0-3-6-6-0" cx="23.896" cy="3.99" r="20.397" gradientTransform="matrix(0,1.2316483,-1.625754,0,18.486966,-28.721977)" gradientUnits="userSpaceOnUse"><stop id="stop3244-9-33-7-0-9-5" offset="0" stop-color="#fff" stop-opacity="1"/><stop id="stop3246-3-5-0-8-5-0" offset=".262" stop-color="#ddd" stop-opacity="1"/><stop id="stop3248-1-7-8-8-1-0" offset=".661" stop-color="#abacae" stop-opacity="1"/><stop id="stop3250-9-3-0-5-1-2" offset="1" stop-color="#89898b" stop-opacity="1"/></radialGradient><radialGradient id="radialGradient4269" cx="62.625" cy="4.625" r="10.625" gradientTransform="matrix(1.1204461,0,0,0.3034536,-22.297449,58.62433)" gradientUnits="userSpaceOnUse" xlink:href="#radialGradient3109-470-9"/><radialGradient id="radialGradient3109-470-9" cx="62.625" cy="4.625" r="10.625" gradientTransform="matrix(1.1294118,0,0,0.2823525,-58.729414,19.694118)" gradientUnits="userSpaceOnUse"><stop id="stop5165-6" offset="0" stop-color="#000" stop-opacity="1"/><stop id="stop5167-3" offset="1" stop-color="#000" stop-opacity="0"/></radialGradient><linearGradient id="linearGradient6374" x1="61.998" x2="67.635" y1="138.732" y2="121.532" gradientTransform="matrix(0.50000049,0,0,0.50000049,-1.0005291,-33.000046)" gradientUnits="userSpaceOnUse" spreadMethod="reflect" xlink:href="#linearGradient6272-5-0"/><linearGradient id="linearGradient6272-5-0"><stop id="stop6274-4-0" offset="0" stop-color="#fff" stop-opacity="1"/><stop id="stop6276-8-0" offset="1" stop-color="#fff" stop-opacity=".543"/></linearGradient><linearGradient id="linearGradient4580" x1="-184.924" x2="-175.253" y1="113.979" y2="88.801" gradientTransform="matrix(0.20237007,0,0,0.20237007,53.927333,29.75225)" gradientUnits="userSpaceOnUse" xlink:href="#linearGradient4574"/><linearGradient id="linearGradient4574"><stop id="stop4576" offset="0" stop-color="#7a0f01" stop-opacity="1"/><stop id="stop4578" offset="1" stop-color="#d31807" stop-opacity="1"/></linearGradient><linearGradient id="linearGradient4478" x1="-211.289" x2="-208.497" y1="88.75" y2="75.191" gradientTransform="matrix(0.2049302,0.01589093,-0.01689942,0.19364622,62.976363,34.06045)" gradientUnits="userSpaceOnUse" xlink:href="#linearGradient4470"/><linearGradient id="linearGradient4470"><stop id="stop4472" offset="0" stop-color="#ec4502" stop-opacity="1"/><stop id="stop4474" offset="1" stop-color="#fe7617" stop-opacity="1"/></linearGradient><linearGradient id="linearGradient4444" x1="-107.456" x2="-107.456" y1="-37.385" y2="38.561" gradientTransform="matrix(0.31576418,0,0,0.31578948,73.086443,25.926304)" gradientUnits="userSpaceOnUse" xlink:href="#linearGradient3871-6-7"/><linearGradient id="linearGradient3871-6-7"><stop id="stop3873-3-2" offset="0" stop-color="#0b85e9" stop-opacity="1"/><stop id="stop3875-4-0" offset="1" stop-color="#69d1ef" stop-opacity="1"/></linearGradient><linearGradient id="linearGradient4442" x1="-96.557" x2="-96.557" y1="110.925" y2="39.992" gradientTransform="matrix(0.31576418,0,0,0.31578948,73.086443,25.926303)" gradientUnits="userSpaceOnUse" xlink:href="#linearGradient3825-5-8"/><linearGradient id="linearGradient3825-5-8"><stop id="stop3827-2-3" offset="0" stop-color="#e89c42" stop-opacity="1"/><stop id="stop3829-5-0" offset="1" stop-color="#faca67" stop-opacity="1"/></linearGradient><linearGradient id="linearGradient4277" x1="41.195" x2="41.195" y1="5.54" y2="42.376" gradientTransform="matrix(1.4324324,0,0,1.135135,-2.3788191,10.25677)" gradientUnits="userSpaceOnUse" xlink:href="#linearGradient3977-7-7"/><linearGradient id="linearGradient3977-7-7"><stop id="stop3979-6-5" offset="0" stop-color="#fff" stop-opacity="1"/><stop id="stop3981-3-2" offset=".005" stop-color="#fff" stop-opacity=".235"/><stop id="stop3983-8-2" offset=".991" stop-color="#fff" stop-opacity=".157"/><stop id="stop3985-2-1" offset="1" stop-color="#fff" stop-opacity=".392"/></linearGradient><linearGradient id="linearGradient4285" x1="25.132" x2="25.132" y1=".985" y2="47.013" gradientTransform="matrix(1.5428538,0,0,0.93431845,-5.0289391,13.643)" gradientUnits="userSpaceOnUse" xlink:href="#linearGradient3600-9-8"/><linearGradient id="linearGradient3600-9-8"><stop id="stop3602-0-0" offset="0" stop-color="#f4f4f4" stop-opacity="1"/><stop id="stop3604-9-1" offset="1" stop-color="#dbdbdb" stop-opacity="1"/></linearGradient><linearGradient id="linearGradient4288" x1="-76.835" x2="-76.844" y1="6.681" y2="52.888" gradientTransform="matrix(1.3372048,7.4776901e-4,2.7406382e-4,0.95576794,162.2388,9.2910297)" gradientUnits="userSpaceOnUse" xlink:href="#linearGradient4623-7-4"/><linearGradient id="linearGradient4623-7-4"><stop id="stop4625-3-2" offset="0" stop-color="#000" stop-opacity=".271"/><stop id="stop4627-1-5" offset="1" stop-color="#000" stop-opacity=".368"/></linearGradient><radialGradient id="radialGradient4291" cx="19.534" cy="40.43" r="23.93" fx="19.534" fy="40.43" gradientTransform="matrix(1.3372494,0,0,0.0835781,5.8771045,56.6209)" gradientUnits="userSpaceOnUse" xlink:href="#linearGradient5071-7-3-1"/><linearGradient id="linearGradient5071-7-3-1"><stop id="stop5073-2-9-0" offset="0" stop-color="#000" stop-opacity="1"/><stop id="stop5075-2-1-6" offset="1" stop-color="#000" stop-opacity="0"/></linearGradient><linearGradient id="linearGradient4294" x1="41.141" x2="41.195" y1="5.992" y2="41.923" gradientTransform="matrix(1.351649,0.35944737,-0.28700521,1.0630562,6.448101,-0.76061006)" gradientUnits="userSpaceOnUse" xlink:href="#linearGradient3977-7-6-9"/><linearGradient id="linearGradient3977-7-6-9"><stop id="stop3979-6-1-8" offset="0" stop-color="#fff" stop-opacity="1"/><stop id="stop3981-3-0-0" offset=".005" stop-color="#fff" stop-opacity=".235"/><stop id="stop3983-8-3-1" offset=".991" stop-color="#fff" stop-opacity=".157"/><stop id="stop3985-2-6-1" offset="1" stop-color="#fff" stop-opacity=".392"/></linearGradient><linearGradient id="linearGradient4298" x1="25.132" x2="25.132" y1=".985" y2="47.013" gradientTransform="matrix(1.4558431,0.38715596,-0.23623115,0.87499113,3.0912709,1.7455999)" gradientUnits="userSpaceOnUse" xlink:href="#linearGradient3600-9-3-2"/><linearGradient id="linearGradient3600-9-3-2"><stop id="stop3602-0-2-4" offset="0" stop-color="#f4f4f4" stop-opacity="1"/><stop id="stop3604-9-0-8" offset="1" stop-color="#dbdbdb" stop-opacity="1"/></linearGradient><linearGradient id="linearGradient4623-7-9-2"><stop id="stop4625-3-1-1" offset="0" stop-color="#000" stop-opacity=".271"/><stop id="stop4627-1-4-5" offset="1" stop-color="#000" stop-opacity=".368"/></linearGradient><linearGradient id="linearGradient3821" x1="-76.835" x2="-76.844" y1="6.681" y2="52.888" gradientTransform="matrix(1.2616028,0.33625172,-0.24139579,0.89514739,162.02613,39.64329)" gradientUnits="userSpaceOnUse" xlink:href="#linearGradient4623-7-9-2"/></defs><metadata id="metadata3828"/><path id="rect6741-1-2-0-6-5" fill="none" stroke="url(#linearGradient3821)" stroke-dasharray="none" stroke-dashoffset="0" stroke-linecap="butt" stroke-linejoin="round" stroke-miterlimit="4" stroke-opacity="1" stroke-width="1" d="M 52.386253,60.88327 0.48796093,47.08182 11.612851,5.8756599 63.511143,19.6771 Z" color="#000" display="inline" enable-background="accumulate" overflow="visible" visibility="visible" style="marker:none"/><path id="path4160-9-4-5" fill="url(#linearGradient4298)" fill-opacity="1" stroke="none" d="m 11.958261,6.4694299 c 11.67629,3.1051 50.953882,13.5530001 50.953882,13.5530001 l -10.8713,40.26707 c 0,0 -33.969742,-9.03366 -50.9546121,-13.55049 3.624,-13.42318 7.24801,-26.84636 10.8720201,-40.2695501 z" display="inline"/><path id="rect6741-1-2-8-7" fill="none" stroke="url(#linearGradient4294)" stroke-dasharray="none" stroke-dashoffset="0" stroke-linecap="round" stroke-linejoin="miter" stroke-miterlimit="4" stroke-opacity="1" stroke-width="1" d="M 51.695463,59.69578 1.6844509,46.39623 12.303641,7.0631495 62.314653,20.3627 Z"/><path id="path4160-62-9-5" fill="#3c92bb" fill-opacity="1" fill-rule="nonzero" stroke="#2a6683" stroke-dasharray="none" stroke-dashoffset="0" stroke-linecap="butt" stroke-linejoin="miter" stroke-miterlimit="4" stroke-opacity="1" stroke-width="1" d="m 14.375941,10.62546 c 10.16269,2.70259 44.348762,11.79608 44.348762,11.79608 l -9.10154,33.71193 c 0,0 -29.566252,-7.86263 -44.3493921,-11.79394 3.03406,-11.23802 6.0681101,-22.47604 9.1021601,-33.71406 z" color="#000" display="inline" enable-background="accumulate" overflow="visible" visibility="visible" style="marker:none"/><path id="path5050-1" fill="url(#radialGradient4291)" fill-opacity="1" fill-rule="nonzero" stroke="none" stroke-width="1" d="M 63.999549,60 A 31.999999,2.0000002 0 0 1 -4.4906983e-4,60 31.999999,2.0000002 0 1 1 63.999549,60 Z" color="#000" display="inline" enable-background="accumulate" opacity=".2" overflow="visible" visibility="visible" style="marker:none"/><path id="rect6741-1-2-0-9" fill="none" stroke="url(#linearGradient4288)" stroke-dasharray="none" stroke-dashoffset="0" stroke-linecap="butt" stroke-linejoin="round" stroke-miterlimit="4" stroke-opacity="1" stroke-width="1" d="M 59.499593,59.50004 H 4.4995109 V 15.49996 H 59.499593 Z" color="#000" display="inline" enable-background="accumulate" overflow="visible" visibility="visible" style="marker:none"/><path id="path4160-9-48" fill="url(#linearGradient4285)" fill-opacity="1" stroke="none" d="m 4.9995509,16 c 12.3741401,0 53.9999421,0.003 53.9999421,0.003 l 6e-5,42.997 c 0,0 -36.000002,0 -54.0000021,0 0,-14.33332 0,-28.66664 0,-42.99996 z" display="inline"/><path id="rect6741-1-2-3" fill="none" stroke="url(#linearGradient4277)" stroke-dasharray="none" stroke-dashoffset="0" stroke-linecap="round" stroke-linejoin="miter" stroke-miterlimit="4" stroke-opacity="1" stroke-width="1" d="M 58.499553,58.5 H 5.4995509 v -42 H 58.499553 Z"/><path id="rect3055-2-9" fill="url(#linearGradient4442)" fill-opacity="1" fill-rule="nonzero" stroke="none" stroke-width="10" d="M 7.9995509,19 V 56 H 55.999553 V 19 Z" color="#000" display="inline" enable-background="accumulate" overflow="visible" visibility="visible" style="marker:none"/><path id="path4084-9" fill="#000" fill-opacity="1" fill-rule="nonzero" stroke="none" stroke-width="10" d="m 7.9995509,20.118182 v 21.472727 c 1.1091,0.275618 2.4896301,0.490909 4.1181801,0.490909 2.21562,0 3.37749,-0.401307 4.22727,-0.763636 0.84979,-0.362329 1.33138,-0.654546 3.02728,-0.654546 1.61864,0 2.93183,0.531881 4.55454,1.118182 1.62272,0.586302 3.53196,1.2 6.13637,1.2 3.23507,0 5.33014,-1.017883 7.06363,-1.963636 1.733482,-0.945753 3.070422,-1.772727 5.236372,-1.772727 1.71059,0 2.47759,0.411154 3.54545,0.927272 1.06785,0.516118 2.41273,1.118182 4.63636,1.118182 2.79767,0 4.07507,-1.019534 5.45455,-1.663636 V 20.118182 Z" color="#000" display="inline" enable-background="accumulate" opacity=".03" overflow="visible" visibility="visible" style="marker:none"/><path id="rect3055-2-6-9-0" fill="#000" fill-opacity="1" fill-rule="nonzero" stroke="none" stroke-width="10" d="m 7.9995509,20.118182 v 20.5184 c 1.07213,0.285081 2.4624401,0.518182 4.1181801,0.518182 4.2216,0 3.61928,-1.418182 7.25455,-1.418182 3.63526,0 5.77649,2.318182 10.69091,2.318182 6.08709,0 7.48396,-3.736364 12.300002,-3.736364 3.76063,0 4.04297,2.045455 8.18181,2.045455 2.79598,0 3.72452,-1.074556 5.45455,-1.772728 V 20.118182 Z" color="#000" display="inline" enable-background="accumulate" opacity=".1" overflow="visible" visibility="visible" style="marker:none"/><path id="path3867-3-5" fill="url(#linearGradient4444)" fill-opacity="1" stroke="none" d="m 7.9995509,19 v 18.881818 c 0.71273,0.328647 1.61527,0.627273 2.5909101,0.627273 2.22807,0 4.40698,-1.8 8.12727,-1.8 3.72029,0 6.51842,2.263636 11.20909,2.263636 4.69067,0 5.74636,-3.272727 11.727282,-3.272727 5.9809,0 5.4185,2.072727 9.16363,2.072727 2.57972,0 3.68142,-0.901002 5.18182,-1.472727 V 19 Z"/><path id="path4213-1" fill="#fff" fill-opacity="1" fill-rule="nonzero" stroke="none" stroke-width="10" d="m 41.654103,34.009091 c -3.14194,0 -5.118322,0.889668 -6.736372,1.718182 -1.61805,0.828514 -2.83872,1.554545 -4.99091,1.554545 -2.21174,0 -3.95978,-0.528452 -5.7,-1.090909 -1.74022,-0.562457 -3.48051,-1.172727 -5.50909,-1.172727 -1.99408,0 -3.59726,0.469043 -4.90909,0.927273 -1.31183,0.458229 -2.32779,0.872727 -3.21818,0.872727 -0.8061801,0 -1.5920101,-0.275611 -2.2363601,-0.572727 a 0.83056107,0.83056107 0 0 0 -0.35455,-0.08182 v 3.572728 c 1.10438,0.276354 2.4897501,0.490909 4.1181801,0.490909 2.2038,0 3.32501,-0.402186 4.17273,-0.763637 0.84772,-0.36145 1.37218,-0.654545 3.08182,-0.654545 1.6411,0 2.9612,0.532643 4.58182,1.118182 1.6206,0.585539 3.52129,1.2 6.10909,1.2 3.21346,0 5.30529,-1.0192 7.03636,-1.963637 1.731072,-0.944436 3.070382,-1.772727 5.263642,-1.772727 1.72974,0 2.53324,0.438964 3.6,0.954546 1.06674,0.515582 2.37558,1.090909 4.58181,1.090909 2.80959,0 4.04107,-1.042431 5.45455,-1.690909 V 34.60909 a 0.83056107,0.83056107 0 0 0 -0.3,0.05454 c -1.64529,0.626935 -2.49547,1.418182 -4.88182,1.418182 -1.71936,0 -2.25596,-0.411926 -3.38182,-0.954545 -1.12586,-0.542619 -2.69543,-1.118182 -5.78181,-1.118182 z" color="#000" display="inline" enable-background="accumulate" opacity=".1" overflow="visible" visibility="visible" style="marker:none"/><path id="rect3055-2-6-94-0" fill="#fff" fill-opacity="1" fill-rule="nonzero" stroke="none" stroke-width="10" d="m 41.654103,34.827491 c -5.980922,0 -7.036612,3.272727 -11.727282,3.272727 -4.69067,0 -7.4888,-2.263636 -11.20909,-2.263636 -3.72029,0 -5.8992,1.8 -8.12727,1.8 -0.9756401,0 -1.8781801,-0.298626 -2.5909101,-0.627273 v 1.881818 c 1.07213,0.285081 2.4624401,0.518182 4.1181801,0.518182 4.2216,0 3.61928,-1.418182 7.25455,-1.418182 3.63526,0 5.77649,2.318182 10.69091,2.318182 6.08709,0 7.48396,-3.736364 12.300002,-3.736364 3.76063,0 4.04297,2.045455 8.18181,2.045455 2.79598,0 3.72452,-1.074555 5.45455,-1.772727 v -1.418182 c -1.5004,0.571725 -2.6021,1.472727 -5.18182,1.472727 -3.74513,0 -3.18273,-2.072727 -9.16363,-2.072727 z" color="#000" display="inline" enable-background="accumulate" opacity=".3" overflow="visible" visibility="visible" style="marker:none"/><path id="rect3055-2-6-8" fill="#fff" fill-opacity="1" fill-rule="nonzero" stroke="none" stroke-width="10" d="m 41.654103,35.7 c -5.980922,0 -7.036612,3.272727 -11.727282,3.272727 -4.69067,0 -7.4888,-2.263636 -11.20909,-2.263636 -3.72029,0 -5.8992,1.8 -8.12727,1.8 -0.9756401,0 -1.8781801,-0.298626 -2.5909101,-0.627273 v 1.881818 c 1.07213,0.285081 2.4624401,0.518182 4.1181801,0.518182 4.2216,0 3.61928,-1.418182 7.25455,-1.418182 3.63526,0 5.77649,2.318182 10.69091,2.318182 6.08709,0 7.48396,-3.736363 12.300002,-3.736363 3.76063,0 4.04297,2.045454 8.18181,2.045454 2.79598,0 3.72452,-1.074555 5.45455,-1.772727 V 36.3 c -1.5004,0.571725 -2.6021,1.472727 -5.18182,1.472727 -3.74513,0 -3.18273,-2.072727 -9.16363,-2.072727 z" color="#000" display="inline" enable-background="accumulate" overflow="visible" visibility="visible" style="marker:none"/><path id="path4160-62-91" fill="none" stroke="#000" stroke-dasharray="none" stroke-dashoffset="0" stroke-linecap="butt" stroke-linejoin="miter" stroke-miterlimit="4" stroke-opacity="1" stroke-width="1" d="m 8.4995509,19.5 c 10.7700901,0 46.9999521,0.0023 46.9999521,0.0023 l 5e-5,35.9977 c 0,0 -31.333332,0 -47.0000021,0 0,-11.999999 0,-23.999993 0,-35.999986 z" color="#000" display="inline" enable-background="accumulate" opacity=".3" overflow="visible" visibility="visible" style="marker:none"/><path id="path5640-1" fill="#000" fill-opacity="1" fill-rule="nonzero" stroke="none" stroke-width="8.869" d="m 16.773759,41.971166 c -0.147198,-0.01108 -0.316743,0.0046 -0.482351,0.06007 -0.647479,0.216826 -0.733471,0.649589 -0.799112,0.882356 -0.06564,0.232766 -0.08334,0.43377 -0.09546,0.650576 -0.02425,0.433612 -0.0024,0.91828 0.01943,1.402757 0.02187,0.484478 0.05084,0.962519 0.05296,1.313972 2.66e-4,0.04329 -0.0015,0.05836 -0.0021,0.09732 -0.03044,0.0081 -0.03946,0.01044 -0.07256,0.01874 -0.347868,0.08723 -0.833887,0.183969 -1.321016,0.287478 -0.48713,0.103509 -0.971566,0.209702 -1.396743,0.342529 -0.212589,0.06641 -0.406631,0.13033 -0.628387,0.255893 -0.110878,0.06278 -0.236506,0.142942 -0.37381,0.293911 -0.137303,0.150969 -0.300914,0.424891 -0.29174,0.757204 0.01794,0.64979 0.434408,0.857973 0.648735,0.988534 0.214328,0.130561 0.411445,0.208646 0.626215,0.286162 0.429538,0.155032 0.919354,0.28505 1.41451,0.414305 0.495156,0.129256 0.986974,0.253785 1.341886,0.359935 0.04222,0.01263 0.05602,0.01958 0.09395,0.03165 -0.0012,0.02809 0.0024,0.03685 5.85e-4,0.06706 -0.01976,0.339948 -0.07139,0.806176 -0.117825,1.276359 -0.04642,0.470184 -0.08905,0.940698 -0.0868,1.364058 0.0011,0.211682 0.0085,0.406823 0.06623,0.644837 0.02888,0.119007 0.06655,0.251864 0.175951,0.421834 0.109402,0.16997 0.334687,0.402473 0.6723,0.496877 0.658863,0.184232 0.999392,-0.120675 1.197227,-0.272707 0.197834,-0.152031 0.334699,-0.299672 0.479309,-0.468501 0.289219,-0.33766 0.577199,-0.741162 0.860774,-1.14564 0.283574,-0.404478 0.555936,-0.811856 0.772767,-1.097632 0.02641,-0.03481 0.04008,-0.04326 0.0645,-0.0742 0.02881,0.01003 0.03793,0.01236 0.06886,0.02361 0.335632,0.122136 0.787584,0.31266 1.245959,0.498714 0.458375,0.186054 0.916539,0.366058 1.343076,0.49406 0.213268,0.064 0.413526,0.122218 0.67091,0.14341 0.128694,0.01056 0.275031,0.01626 0.47971,-0.02982 0.204679,-0.04607 0.504333,-0.177347 0.703452,-0.451121 0.389001,-0.534849 0.18702,-0.937665 0.095,-1.162373 -0.09203,-0.224709 -0.198592,-0.391651 -0.323907,-0.573432 -0.250629,-0.363563 -0.568934,-0.744036 -0.88846,-1.122879 -0.319526,-0.378842 -0.643281,-0.753295 -0.863833,-1.035675 -0.02448,-0.03134 -0.03005,-0.04213 -0.05183,-0.07104 0.01949,-0.02337 0.02221,-0.03254 0.0437,-0.05754 0.227136,-0.264047 0.554827,-0.618586 0.884411,-0.97322 0.329584,-0.354633 0.655701,-0.706058 0.916892,-1.049902 0.130597,-0.171921 0.250529,-0.332873 0.35169,-0.557599 0.05058,-0.112362 0.09882,-0.243612 0.115929,-0.441847 0.01711,-0.198236 -0.02135,-0.510025 -0.235506,-0.773719 -0.418238,-0.514982 -0.87984,-0.460458 -1.134383,-0.447415 -0.254543,0.01304 -0.458786,0.06159 -0.68081,0.117795 -0.444046,0.112399 -0.931553,0.281368 -1.412652,0.450959 -0.481099,0.16959 -0.956393,0.342163 -1.30966,0.452852 -0.04085,0.0128 -0.05503,0.01232 -0.0923,0.02331 -0.01614,-0.02288 -0.02364,-0.02708 -0.0406,-0.05189 -0.195031,-0.285162 -0.442994,-0.690739 -0.697394,-1.095878 -0.254399,-0.405139 -0.511522,-0.810166 -0.776422,-1.150745 -0.132451,-0.17029 -0.25911,-0.325767 -0.454033,-0.486044 -0.09746,-0.08014 -0.209862,-0.168067 -0.404185,-0.244576 -0.09716,-0.03825 -0.225891,-0.07267 -0.373087,-0.08376 z" color="#000" display="inline" enable-background="accumulate" opacity=".05" overflow="visible" visibility="visible" style="marker:none"/><path id="path5640" fill="#000" fill-opacity="1" fill-rule="nonzero" stroke="none" stroke-width="8.869" d="m 16.642321,42.960126 c -0.491565,0.164615 0.08222,3.705181 -0.228919,4.100709 -0.300416,0.381902 -3.996641,0.769079 -3.983513,1.244666 0.0136,0.492556 3.760994,1.064829 4.062833,1.466508 0.291441,0.387841 -0.461511,3.83281 0.02123,3.967796 0.499969,0.139802 2.237481,-3.046279 2.735162,-3.193556 0.480537,-0.142203 3.710659,1.591505 3.995884,1.199343 0.2954,-0.406153 -2.37502,-2.944359 -2.369275,-3.43706 0.0055,-0.475728 2.753973,-2.844599 2.447507,-3.221954 -0.3174,-0.390819 -3.70567,1.220629 -4.1998,1.0634 -0.477107,-0.151812 -2.006481,-3.348795 -2.481113,-3.189852 z" color="#000" display="inline" enable-background="accumulate" opacity=".15" overflow="visible" visibility="visible" style="marker:none"/><path id="path4468" fill="url(#linearGradient4478)" fill-opacity="1" stroke="none" stroke-width="1.999" d="m 16.640096,42.071289 c 0.474633,-0.158943 2.008405,3.04137 2.485514,3.193182 0.49413,0.157229 3.87925,-1.457809 4.196649,-1.06699 0.306466,0.377355 -2.441296,2.745863 -2.446846,3.221591 -0.0057,0.492701 2.664578,3.035082 2.369176,3.441234 -0.285225,0.392162 -3.517209,-1.344331 -3.997746,-1.202128 -0.497681,0.147277 -2.232451,3.333593 -2.73242,3.193791 -0.482745,-0.134986 0.267542,-3.576707 -0.0239,-3.964548 -0.301839,-0.401678 -4.044308,-0.974808 -4.057903,-1.467364 -0.01313,-0.475588 3.68256,-0.866194 3.982976,-1.248096 0.311135,-0.395528 -0.267068,-3.936057 0.224496,-4.100672 z" color="#000" display="inline" enable-background="accumulate" overflow="visible" visibility="visible" style="marker:none"/><path id="path4480" fill="#9d0f06" fill-opacity="1" stroke="none" d="m 16.672261,42.06521 -0.13913,0.1328 c -0.001,0.003 -0.005,0.004 -0.006,0.006 -0.27931,0.67089 0.16814,3.60675 -0.11383,3.96519 -0.0118,0.015 -0.0288,0.0356 -0.0506,0.0506 l 0.11384,0.0759 c 2.28071,0.67805 0.28445,-4.08963 0.22766,-4.22447 -0.0109,-0.002 -0.0215,-0.007 -0.0316,-0.006 z" opacity=".5"/><path id="path4517" fill="url(#linearGradient4580)" fill-opacity="1" stroke="none" d="m 13.156081,47.33948 c -0.44866,0.004 -0.70829,0.0253 -0.70829,0.0253 v 0.006 0.10119 c 0.26315,0.48009 3.75011,1.02938 4.04107,1.41659 0.29144,0.38784 -0.45744,3.8302 0.0253,3.96518 0.49997,0.13981 2.23432,-3.04637 2.732,-3.19365 0.47753,-0.14131 3.67066,1.57132 3.99049,1.2079 l -0.006,-0.006 c -2.69262,-3.27643 -8.13042,-3.53888 -10.0746,-3.52251 z" opacity=".75"/><path id="path6314-4" fill="url(#linearGradient6374)" fill-opacity="1" stroke="none" d="m 23.296371,19 -0.76563,0.26563 a 0.42953949,0.42953949 0 0 0 -0.0312,0.0156 l -8.48438,3.51563 -5.9687601,-0.71875 a 0.42953949,0.42953949 0 0 0 -0.0469,0 v 2.3125 a 0.42953949,0.42953949 0 0 0 0.21875,-0.0625 c 0.0122,-0.007 0.48573,-0.12338 1.04688,-0.14063 0.56114,-0.0172 1.2553601,0.0117 1.9218701,0.0469 1.20309,0.0635 2.1048,0.1507 2.3125,0.17188 l 0.98438,2.10938 -1.92188,0.92187 a 0.42953949,0.42953949 0 0 0 -0.21875,0.23438 l -0.79687,2.04687 h -0.75 a 0.42953949,0.42953949 0 0 0 -0.39063,0.25 l -0.3125,0.71875 -2.0625001,-0.15625 a 0.42953949,0.42953949 0 0 0 -0.0312,0 v 1.87501 l 4.7343801,0.1875 a 0.42953949,0.42953949 0 0 0 0.26562,-0.0781 l 0.87501,-0.625 9.4375,-0.34375 a 0.42953949,0.42953949 0 0 0 0.0312,0 l 2.65626,-0.32813 2.48437,0.73438 a 0.42953949,0.42953949 0 0 0 0.46875,-0.14063 l 0.15625,-0.1875 c 0.0305,-0.0107 0.0536,-0.0358 0.15625,-0.0625 0.14173,-0.0369 0.33122,-0.0672 0.54688,-0.10938 0.4313,-0.0843 0.97533,-0.18594 1.5,-0.26562 1.02559,-0.15575 1.94099,-0.27577 1.98438,-0.28125 0.006,0 0.0401,-1.4e-4 0.0469,0 0.32247,0.007 1.3051,0.1728 2.17187,0.34375 0.74383,0.14669 1.21102,0.25375 1.40626,0.29688 0.15798,0.55101 0.34024,1.51461 0.48437,2.5 0.15681,1.07194 0.27697,2.08313 0.3125,2.39062 a 0.42953949,0.42953949 0 0 0 0.0156,0.0781 c 0.808132,-0.26692 1.727242,-0.46499 2.828142,-0.54688 a 0.42953949,0.42953949 0 0 0 -0.0937,-0.23437 c -0.45638,-0.51733 -1.1169,-1.77762 -1.03125,-4.54688 l 1.625,-0.0625 a 0.42953949,0.42953949 0 0 0 0.17188,-0.0312 c 0,0 1.35832,-0.66752 2.875,-1.39063 1.51667,-0.72311 3.21731,-1.50898 3.79688,-1.73437 0.19849,-0.0772 0.79906,-0.1686 1.51562,-0.21875 0.71656,-0.0502 1.56809,-0.0791 2.42187,-0.10938 0.85378,-0.0302 1.70377,-0.0637 2.40625,-0.125 0.70249,-0.0612 1.21221,-0.10535 1.625,-0.35937 a 0.42953949,0.42953949 0 0 0 0.125,-0.10938 v -1.5625 c -0.0164,-0.0132 -0.0469,-0.0312 -0.0469,-0.0312 a 0.42953949,0.42953949 0 0 0 -0.64062,0.21875 c -0.024,0.0134 0.0103,-0.001 -0.0937,0.0312 -0.19259,0.0608 -0.53422,0.12829 -1.0625,0.20312 -1.05656,0.14967 -2.89163,0.31226 -6.00001,0.39063 a 0.42953949,0.42953949 0 0 0 -0.15627,0.0312 c 0,0 -1.77485,0.7878 -3.57813,1.60938 -0.90165,0.41078 -1.80993,0.82038 -2.51563,1.15625 -0.35285,0.16793 -0.64825,0.32132 -0.875,0.4375 -0.11337,0.0581 -0.20438,0.11228 -0.28125,0.15625 -0.0161,0.009 -0.0333,0.0243 -0.0468,0.0312 l -1.01563,0.0469 1.07813,-1.45313 4.46875,-2.40625 a 0.42953949,0.42953949 0 0 0 0.14063,-0.625 l -2.90625,-3.92188 6.57813,-0.4375 a 0.42953949,0.42953949 0 0 0 0.14062,-0.0312 l 3.29688,-1.5 a 0.42953949,0.42953949 0 0 0 0.0937,-0.0625 0.42953949,0.42953949 0 0 0 0.0156,0 0.42953949,0.42953949 0 0 0 0.21875,0.0937 l 2.59375,0.17187 a 0.42953949,0.42953949 0 0 0 0.45313,-0.5 l -0.0156,-0.0937 h -6.79688 l -0.70313,0.25 -5.45313,0.25 -0.59375,-0.5 h -3.03125 a 0.42953949,0.42953949 0 0 0 0.0312,0.17187 c 0.0402,0.095 0.0585,0.16404 0.0781,0.23438 -0.37825,0.13315 -2.082992,0.74083 -3.390622,0.75 l -1.29688,-0.21875 a 0.42953949,0.42953949 0 0 0 -0.0625,0 c -0.44682,0 -1.63902,-0.24085 -2.8125,-0.53125 -0.54375,-0.13457 -1.08198,-0.27176 -1.57813,-0.40625 h -6.93751 z m 3.04688,0.59375 0.65625,0.375 a 0.42953949,0.42953949 0 0 0 0.125,0.0469 l 8.87501,1.95316 a 0.42953949,0.42953949 0 0 0 0.21875,-0.0156 l 3.312502,-1.04688 0.98437,0.59375 2.81251,3.73438 -3.65626,1.79688 a 0.42953949,0.42953949 0 0 0 -0.14062,0.10937 l -2.109382,2.5 -3.8125,-0.26562 a 0.42953949,0.42953949 0 0 0 -0.125,0 l -5.00001,1.03125 -2.26562,-0.73438 a 0.42953949,0.42953949 0 0 0 -0.14063,-0.0156 l -12.45314,0.45308 c 0.26747,-0.65459 0.67079,-1.06132 1.125,-1.23438 0.58111,-0.2214 1.125,-0.1875 1.125,-0.1875 a 0.42953949,0.42953949 0 0 0 0.45313,-0.51562 l -0.84375,-4.06251 10.85939,-4.51563 z" opacity=".07"/><path id="path8836-2" fill="url(#radialGradient4269)" fill-rule="evenodd" d="m 59.775243,60.0278 c 0,1.78073 -5.32995,3.2242 -11.90474,3.2242 -6.57479,0 -11.904742,-1.44336 -11.904742,-3.2242 0,-1.78083 5.329952,-3.2242 11.904742,-3.2242 6.57479,0 11.90474,1.44348 11.90474,3.2242 z" opacity=".6"/><path id="path2555-7-2" fill="url(#radialGradient5403)" fill-opacity="1" fill-rule="nonzero" stroke="none" stroke-width="1" d="m 47.999553,33.50016 c -8.00052,0 -14.499852,6.49933 -14.499852,14.49985 0,8.00052 6.499332,14.49985 14.499852,14.49985 8.00052,0 14.49986,-6.49933 14.49985,-14.49985 0,-8.00052 -6.49933,-14.49985 -14.49985,-14.49985 z" color="#000" display="inline" enable-background="accumulate" overflow="visible" visibility="visible" style="marker:none"/><path id="path4176" fill="none" stroke="url(#linearGradient5400)" stroke-dasharray="none" stroke-dashoffset="0" stroke-linecap="round" stroke-linejoin="round" stroke-miterlimit="4" stroke-opacity="1" stroke-width="1" d="m 61.499553,48.00001 c 0,7.45585 -6.04416,13.5 -13.50001,13.5 -7.45584,0 -13.499992,-6.04415 -13.499992,-13.5 0,-7.45585 6.044152,-13.5 13.499992,-13.5 7.45585,0 13.50001,6.04415 13.50001,13.5 z" color="#000" display="inline" enable-background="accumulate" opacity=".8" overflow="visible" visibility="visible" style="marker:none"/><path id="path2555-36-4-4" fill="url(#linearGradient5397)" fill-opacity="1" fill-rule="nonzero" stroke="none" stroke-width="1" d="m 47.999563,36.00001 c -6.62154,0 -12.000072,5.37909 -12.000072,12 0,6.62148 5.379122,12 12.000072,12 6.6215,0 12.00005,-5.37909 12.00005,-12 0,-6.62149 -5.37912,-12 -12.00005,-12 z" color="#000" display="inline" enable-background="accumulate" overflow="visible" visibility="visible" style="marker:none"/><path id="path2555-36-4-2-1" fill="none" stroke="#000" stroke-opacity="1" stroke-width="1" d="m 47.999553,36.50001 c -6.3456,0 -11.500002,5.37906 -11.500002,11.99999 0,6.62147 5.154952,12.00001 11.500002,12.00001 6.34558,0 11.5,-5.37906 11.5,-12.00001 0,-6.62149 -5.15494,-11.99999 -11.5,-11.99999 z" color="#000" display="inline" enable-background="accumulate" opacity=".05" overflow="visible" visibility="visible" style="marker:none"/><path id="path4218-6" fill="url(#linearGradient5407)" fill-opacity="1" fill-rule="nonzero" stroke="none" stroke-width=".481" d="m 57.749547,48.000014 a 9.7500006,9.7500006 0 1 1 -19.500001,0 9.7500006,9.7500006 0 1 1 19.500001,0 z" color="#000" display="inline" enable-background="accumulate" overflow="visible" visibility="visible" style="marker:none"/><path id="path4218-4-3" fill="none" stroke="#000" stroke-dasharray="none" stroke-dashoffset="0" stroke-linecap="butt" stroke-linejoin="miter" stroke-miterlimit="4" stroke-opacity="1" stroke-width="1" d="m 57.499551,48.000013 a 9.5000004,9.4999563 0 1 1 -19,0 9.5000004,9.4999563 0 1 1 19,0 z" color="#000" display="inline" enable-background="accumulate" opacity=".3" overflow="visible" visibility="visible" style="marker:none"/><path id="path4218-4-9-82" fill="none" stroke="url(#linearGradient5411)" stroke-dasharray="none" stroke-dashoffset="0" stroke-linecap="butt" stroke-linejoin="miter" stroke-miterlimit="4" stroke-opacity="1" stroke-width="1" d="m 56.499589,48.000007 a 8.5000398,8.5000005 0 1 1 -17.000079,0 8.5000398,8.5000005 0 1 1 17.000079,0 z" color="#000" display="inline" enable-background="accumulate" opacity=".3" overflow="visible" visibility="visible" style="marker:none"/><path id="path4326-5-7-8" fill="url(#radialGradient5441)" fill-opacity="1" stroke="none" stroke-width=".481" d="m 54.499546,48.000005 a 6.5,6.4999697 0 1 1 -12.999999,0 6.5,6.4999697 0 1 1 12.999999,0 z" color="#000" display="inline" enable-background="accumulate" overflow="visible" visibility="visible" style="marker:none"/><path id="path4326-5-9" fill="none" stroke="#000" stroke-dasharray="none" stroke-dashoffset="0" stroke-linecap="butt" stroke-linejoin="miter" stroke-miterlimit="4" stroke-opacity="1" stroke-width="1" d="m 54.499582,48.000007 a 6.5000302,6.4999999 0 1 1 -13.000059,0 6.5000302,6.4999999 0 1 1 13.000059,0 z" color="#000" display="inline" enable-background="accumulate" opacity=".3" overflow="visible" visibility="visible" style="marker:none"/><path id="path3871" fill="none" stroke="#000" stroke-opacity="1" stroke-width="1" d="m 47.999553,33.50016 c -8.00052,0 -14.499852,6.49933 -14.499852,14.49985 0,8.00052 6.499332,14.49985 14.499852,14.49985 8.00052,0 14.49986,-6.49933 14.49985,-14.49985 0,-8.00052 -6.49933,-14.49985 -14.49985,-14.49985 z" color="#000" display="inline" enable-background="accumulate" opacity=".3" overflow="visible" visibility="visible" style="marker:none"/><path id="path2555-3-5-2-2" fill="url(#radialGradient5731)" fill-opacity="1" stroke="none" d="m 47.999553,43.14696 c -2.67768,0 -4.85305,2.17525 -4.85305,4.85304 0,2.67769 2.17537,4.85305 4.85305,4.85305 2.67769,0 4.85305,-2.17525 4.85305,-4.85305 0,-2.67768 -2.17525,-4.85304 -4.85305,-4.85304 z"/><path id="path2555-3-5-0" fill="none" stroke="#000" stroke-dasharray="none" stroke-dashoffset="0" stroke-linecap="round" stroke-linejoin="round" stroke-miterlimit="4" stroke-opacity="1" stroke-width="1.004" d="m 47.999543,43.50185 c -2.48188,0 -4.49817,2.01619 -4.49817,4.49815 0,2.48187 2.01629,4.49816 4.49817,4.49816 2.48189,0 4.49818,-2.01618 4.49818,-4.49816 0,-2.48187 -2.01619,-4.49815 -4.49818,-4.49815 z" opacity=".3"/><path id="path2555-3-5-3-3-8" fill="#2f3b55" fill-opacity="1" stroke="none" d="m 47.999453,44.17488 c -2.11064,0 -3.82532,1.71458 -3.82532,3.82529 0,2.11061 1.71468,3.82528 3.82532,3.82528 2.11062,0 3.82531,-1.71458 3.82531,-3.82528 0,-2.11063 -1.71461,-3.82529 -3.82531,-3.82529 z"/><path id="path2555-3-9-2" fill="url(#radialGradient5723)" fill-opacity="1" stroke="url(#linearGradient5726)" stroke-dasharray="none" stroke-dashoffset="0" stroke-linecap="round" stroke-linejoin="round" stroke-miterlimit="4" stroke-width="1.004" d="m 47.999553,45.50183 c -1.37839,0 -2.49819,1.11974 -2.49819,2.49817 0,1.37838 1.1198,2.49818 2.49819,2.49818 1.37838,0 2.49819,-1.11974 2.49819,-2.49818 0,-1.37837 -1.11976,-2.49817 -2.49819,-2.49817 z"/><path id="path2555-3-3-5-8" fill="url(#radialGradient5720)" fill-opacity="1" stroke="none" d="m 47.999563,46.00001 c -1.10353,0 -2.00001,0.89645 -2.00001,1.99999 0,1.10351 0.89648,2.00001 2.00001,2.00001 1.10351,0 2,-0.89645 2,-2.00001 0,-1.10349 -0.89645,-1.99999 -2,-1.99999 z" opacity=".5"/><path id="path4218-4-9-8-8" fill="none" stroke="url(#linearGradient5677)" stroke-dasharray="none" stroke-dashoffset="0" stroke-linecap="butt" stroke-linejoin="miter" stroke-miterlimit="4" stroke-opacity="1" stroke-width="1" d="m 53.499664,48.000009 a 5.5001196,5.5000939 0 1 0 -11.000239,0 5.5001196,5.5000939 0 1 0 11.000239,0 z" color="#000" display="inline" enable-background="accumulate" opacity=".3" overflow="visible" visibility="visible" style="marker:none"/><path id="path2555-3-5-3-7" fill="none" stroke="#000" stroke-dasharray="none" stroke-dashoffset="0" stroke-linecap="round" stroke-linejoin="round" stroke-miterlimit="4" stroke-opacity="1" stroke-width="1.004" d="m 47.999553,44.50183 c -1.93013,0 -3.49818,1.56797 -3.49818,3.49817 0,1.93014 1.56805,3.49818 3.49818,3.49818 1.93013,0 3.49818,-1.56796 3.49818,-3.49818 0,-1.93013 -1.56797,-3.49817 -3.49818,-3.49817 z" opacity=".3"/><path id="path6086-15" fill="url(#radialGradient5679)" fill-opacity="1" fill-rule="nonzero" stroke="none" stroke-width=".467" d="m 44.464442,47.313594 a 3.6010642,3.6010475 0 0 1 2.602984,-2.791771 l 0.932024,3.478344 z" color="#000" display="inline" enable-background="accumulate" opacity=".4" overflow="visible" visibility="visible" style="marker:none"/><path id="path4218-4-9-8-2-7" fill="none" stroke="url(#linearGradient5735)" stroke-dasharray="none" stroke-dashoffset="0" stroke-linecap="butt" stroke-linejoin="miter" stroke-miterlimit="4" stroke-opacity="1" stroke-width="1" d="m 50.499556,48.000004 a 2.5000001,2.5000001 0 1 1 -5,0 2.5000001,2.5000001 0 1 1 5,0 z" color="#000" display="inline" enable-background="accumulate" opacity=".3" overflow="visible" visibility="visible" style="marker:none"/><path id="path3220-6" fill="url(#linearGradient5713)" fill-opacity="1" stroke="none" stroke-width="1" d="m 48.852153,47.36064 a 0.85270614,0.6395266 0 0 1 -1.70541,0 0.85270614,0.6395266 0 1 1 1.70541,0 z" color="#000" display="inline" enable-background="accumulate" opacity=".5" overflow="visible" visibility="visible" style="marker:none"/><path id="path6086-1-8" fill="url(#radialGradient5685)" fill-opacity="1" fill-rule="nonzero" stroke="none" stroke-width=".467" d="m 51.600509,48.000163 a 3.6010642,3.6010475 0 0 1 -0.227373,1.259306 l -3.373692,-1.259306 z" color="#000" display="inline" enable-background="accumulate" opacity=".4" overflow="visible" visibility="visible" style="marker:none"/><path id="path6086-1-5-6" fill="url(#radialGradient5687)" fill-opacity="1" fill-rule="nonzero" stroke="none" stroke-width=".467" d="m 48.323125,51.586642 a 3.6010642,3.6010474 0.09291903 0 1 -1.151132,-0.08178 l 0.82745,-3.504693 z" color="#000" display="inline" enable-background="accumulate" opacity=".4" overflow="visible" visibility="visible" style="marker:none"/><path id="path6086-1-50-1" fill="url(#radialGradient5689)" fill-opacity="1" fill-rule="nonzero" stroke="none" stroke-width=".467" d="m 51.057906,49.90107 a 3.6010642,3.6010474 0.02217233 0 1 -1.681834,1.426621 L 47.999447,48.00016 Z" color="#000" display="inline" enable-background="accumulate" opacity=".4" overflow="visible" visibility="visible" style="marker:none"/><path id="path6086-3-3" fill="url(#radialGradient5691)" fill-opacity="1" fill-rule="nonzero" stroke="none" stroke-width=".467" d="m 45.453105,44.553576 a 3.6010641,3.6010474 0 0 1 5.092674,0 l -2.546337,2.546325 z" color="#000" display="inline" enable-background="accumulate" opacity=".5" overflow="visible" visibility="visible" style="marker:none"/><path id="path6301-3" fill="url(#radialGradient5693)" fill-opacity="1" fill-rule="nonzero" stroke="none" stroke-width=".929" d="m 53.684321,49.108267 a 2.2134459,3.8903077 60.000224 1 1 -6.738218,3.890294 2.2134459,3.8903077 60.000224 1 1 6.738218,-3.890294 z" color="#000" display="inline" enable-background="accumulate" opacity=".2" overflow="visible" visibility="visible" style="marker:none"/><path id="path6301-5-8" fill="url(#radialGradient5695)" fill-opacity="1" fill-rule="nonzero" stroke="none" stroke-width=".748" d="m 47.730821,43.113991 a 1.781144,3.1305029 60.000226 1 1 -5.422196,3.130492 1.781144,3.1305029 60.000226 1 1 5.422196,-3.130492 z" color="#000" display="inline" enable-background="accumulate" opacity=".4" overflow="visible" visibility="visible" style="marker:none"/><path id="path6301-1-9" fill="url(#radialGradient5697)" fill-opacity="1" fill-rule="nonzero" stroke="none" stroke-width=".25" d="m 48.494301,47.594382 a 0.773368,0.80903023 0 1 1 -1.546736,0 0.773368,0.80903023 0 1 1 1.546736,0 z" color="#000" display="inline" enable-background="accumulate" opacity=".8" overflow="visible" visibility="visible" style="marker:none"/><path id="path6301-1-8-21" fill="url(#linearGradient5699)" fill-opacity="1" fill-rule="nonzero" stroke="none" stroke-width=".25" d="m 46.440499,46.351302 a 0.773368,0.80903023 0 1 1 -1.546736,0 0.773368,0.80903023 0 1 1 1.546736,0 z" color="#000" display="inline" enable-background="accumulate" opacity=".4" overflow="visible" visibility="visible" style="marker:none"/><path id="path6301-1-8-2-6" fill="url(#linearGradient5701)" fill-opacity="1" fill-rule="nonzero" stroke="none" stroke-width=".175" d="m 46.647158,46.810697 a 0.540876,0.56581733 0 1 1 -1.081752,0 0.540876,0.56581733 0 1 1 1.081752,0 z" color="#000" display="inline" enable-background="accumulate" opacity=".4" overflow="visible" visibility="visible" style="marker:none"/></svg>