<svg xmlns="http://www.w3.org/2000/svg" xmlns:svg="http://www.w3.org/2000/svg" xmlns:xlink="http://www.w3.org/1999/xlink" id="svg2453" width="64" height="64" version="1.0"><metadata id="metadata35"/><defs id="defs2455"><linearGradient id="linearGradient3462"><stop id="stop3464" offset="0" stop-color="#fff" stop-opacity="1"/><stop id="stop3466" offset=".035" stop-color="#fff" stop-opacity=".235"/><stop id="stop3468" offset=".964" stop-color="#fff" stop-opacity=".157"/><stop id="stop3470" offset="1" stop-color="#fff" stop-opacity=".392"/></linearGradient><linearGradient id="linearGradient5060-2"><stop id="stop5062-3" offset="0" stop-color="#000" stop-opacity="1"/><stop id="stop5064-1" offset="1" stop-color="#000" stop-opacity="0"/></linearGradient><linearGradient id="linearGradient5048-8"><stop id="stop5050-4" offset="0" stop-color="#000" stop-opacity="0"/><stop id="stop5056-5" offset=".5" stop-color="#000" stop-opacity="1"/><stop id="stop5052-1" offset="1" stop-color="#000" stop-opacity="0"/></linearGradient><radialGradient id="radialGradient3172" cx="605.714" cy="486.648" r="117.143" fx="605.714" fy="486.648" gradientTransform="matrix(0.03212956,0,0,0.02058823,40.136784,48.451416)" gradientUnits="userSpaceOnUse" xlink:href="#linearGradient5060-2"/><radialGradient id="radialGradient3175" cx="605.714" cy="486.648" r="117.143" fx="605.714" fy="486.648" gradientTransform="matrix(-0.03212956,0,0,0.02058823,23.863217,48.451416)" gradientUnits="userSpaceOnUse" xlink:href="#linearGradient5060-2"/><linearGradient id="linearGradient3178" x1="302.857" x2="302.857" y1="366.648" y2="609.505" gradientTransform="matrix(0.11390532,0,0,0.02058823,-9.1686406,48.451416)" gradientUnits="userSpaceOnUse" xlink:href="#linearGradient5048-8"/><linearGradient id="linearGradient3133" x1="40.29" x2="40.29" y1="5.414" y2="42.438" gradientTransform="matrix(1.5405405,0,0,1.2162162,-4.9729751,5.8820652)" gradientUnits="userSpaceOnUse" xlink:href="#linearGradient3462"/><radialGradient id="radialGradient3136" cx="7.118" cy="9.957" r="12.672" fx="7.118" fy="9.957" gradientTransform="matrix(0,11.015167,-16.975815,0,202.28727,-88.992668)" gradientUnits="userSpaceOnUse" xlink:href="#linearGradient2867-449-88-871-390-598-476-591-434-148-57-177-8-3-3-6-4-8-8-8-5"/><linearGradient id="linearGradient3680-6-6-6-3-7-1-8"><stop id="stop3682-4-6-1-3-7-7-4" offset="0" stop-color="#dcdcdc" stop-opacity="1"/><stop id="stop3684-8-5-8-0-2-6-8" offset="1" stop-color="#fff" stop-opacity="1"/></linearGradient><linearGradient id="linearGradient2867-449-88-871-390-598-476-591-434-148-57-177-8-3-3-6-4-8-8-8-5"><stop id="stop3750-1-0-7-6-6-1-3-9-3" offset="0" stop-color="#919caf" stop-opacity="1"/><stop id="stop3752-3-7-4-0-32-8-923-0-7" offset=".262" stop-color="#68758e" stop-opacity="1"/><stop id="stop3754-1-8-5-2-7-6-7-1-9" offset=".705" stop-color="#485a6c" stop-opacity="1"/><stop id="stop3756-1-6-2-6-6-1-96-6-0" offset="1" stop-color="#444c5c" stop-opacity="1"/></linearGradient><linearGradient id="linearGradient4565" x1="59.485" x2="59.485" y1="35" y2="-1" gradientTransform="matrix(1.4249998,0,0,0.95454575,-49.705617,12.870897)" gradientUnits="userSpaceOnUse" xlink:href="#linearGradient3680-6-6-6-3-7-1-8"/></defs><rect id="rect2879-0" width="55" height="5" x="4.5" y="56" fill="url(#linearGradient3178)" fill-opacity="1" fill-rule="nonzero" stroke="none" stroke-width="1" display="inline" opacity=".3" overflow="visible" visibility="visible" style="marker:none"/><path id="path2881-4" fill="url(#radialGradient3175)" fill-opacity="1" fill-rule="nonzero" stroke="none" stroke-width="1" d="m 4.5,56.000216 c 0,0 0,4.9997 0,4.9997 -1.654593,0.01 -4,-1.1202 -4,-2.5002 0,-1.38 1.8464008,-2.4995 4,-2.4995 z" display="inline" opacity=".3" overflow="visible" visibility="visible" style="marker:none"/><path id="path2883-6" fill="url(#radialGradient3172)" fill-opacity="1" fill-rule="nonzero" stroke="none" stroke-width="1" d="m 59.5,56.000216 c 0,0 0,4.9997 0,4.9997 1.654592,0.01 4,-1.1202 4,-2.5002 0,-1.38 -1.846401,-2.4995 -4,-2.4995 z" display="inline" opacity=".3" overflow="visible" visibility="visible" style="marker:none"/><rect id="rect5505-21-3-8-5-2" width="59" height="47" x="2.5" y="11.5" fill="url(#radialGradient3136)" fill-opacity="1" fill-rule="nonzero" stroke="none" stroke-width="1" color="#000" display="inline" enable-background="accumulate" opacity=".9" overflow="visible" rx="2" ry="2" visibility="visible" style="marker:none"/><rect id="rect6741-5-0-2-3" width="57" height="45" x="3.5" y="12.571" fill="none" stroke="url(#linearGradient3133)" stroke-dasharray="none" stroke-dashoffset="0" stroke-linecap="round" stroke-linejoin="round" stroke-miterlimit="4" stroke-opacity="1" stroke-width="1" opacity=".3" rx="1" ry="1"/><rect id="rect5505-21-3-8-9-1-1" width="59" height="47" x="2.5" y="11.5" fill="none" fill-opacity="1" fill-rule="nonzero" stroke="#1c2c38" stroke-dasharray="none" stroke-dashoffset="0" stroke-linecap="round" stroke-linejoin="round" stroke-miterlimit="4" stroke-opacity="1" stroke-width="1" clip-rule="nonzero" color="#000" color-interpolation="sRGB" color-interpolation-filters="linearRGB" color-rendering="auto" display="inline" enable-background="accumulate" image-rendering="auto" opacity=".5" overflow="visible" rx="2" ry="2" shape-rendering="auto" text-rendering="auto" visibility="visible" style="marker:none;isolation:auto;mix-blend-mode:normal;solid-color:#000;solid-opacity:1;filter-blend-mode:normal;filter-gaussianBlur-deviation:0"/><path id="path4441" fill="#000" fill-opacity="1" fill-rule="nonzero" stroke="none" stroke-dasharray="none" stroke-dashoffset="0" stroke-linecap="butt" stroke-linejoin="miter" stroke-miterlimit="4" stroke-opacity="1" stroke-width="1" d="M 12.966797,25.005859 A 0.9950415,0.9950415 0 0 0 11.972656,26 l 0,4 a 0.9950415,0.9950415 0 0 0 0.994141,0.994141 l 6.033203,0 A 0.9950415,0.9950415 0 0 0 19.994141,30 l 0,-4 A 0.9950415,0.9950415 0 0 0 19,25.005859 l -6.033203,0 z m 8.033203,0 A 0.9950415,0.9950415 0 0 0 20.005859,26 l 0,4 A 0.9950415,0.9950415 0 0 0 21,30.994141 l 6,0 A 0.9950415,0.9950415 0 0 0 27.994141,30 l 0,-4 A 0.9950415,0.9950415 0 0 0 27,25.005859 l -6,0 z m 8,0 A 0.9950415,0.9950415 0 0 0 28.005859,26 l 0,4 A 0.9950415,0.9950415 0 0 0 29,30.994141 l 6,0 A 0.9950415,0.9950415 0 0 0 35.994141,30 l 0,-4 A 0.9950415,0.9950415 0 0 0 35,25.005859 l -6,0 z m 8,0 A 0.9950415,0.9950415 0 0 0 36.005859,26 l 0,4 A 0.9950415,0.9950415 0 0 0 37,30.994141 l 6,0 A 0.9950415,0.9950415 0 0 0 43.994141,30 l 0,-4 A 0.9950415,0.9950415 0 0 0 43,25.005859 l -6,0 z m 8,0 A 0.9950415,0.9950415 0 0 0 44.005859,26 l 0,4 A 0.9950415,0.9950415 0 0 0 45,30.994141 l 5.966797,0 A 0.9950415,0.9950415 0 0 0 51.960938,30 l 0,-4 a 0.9950415,0.9950415 0 0 0 -0.994141,-0.994141 l -5.966797,0 z m -32.033203,6 A 0.9950415,0.9950415 0 0 0 11.972656,32 l 0,4 a 0.9950415,0.9950415 0 0 0 0.994141,0.994141 l 6.033203,0 A 0.9950415,0.9950415 0 0 0 19.994141,36 l 0,-4 A 0.9950415,0.9950415 0 0 0 19,31.005859 l -6.033203,0 z m 8.033203,0 A 0.9950415,0.9950415 0 0 0 20.005859,32 l 0,4 A 0.9950415,0.9950415 0 0 0 21,36.994141 l 6,0 A 0.9950415,0.9950415 0 0 0 27.994141,36 l 0,-4 A 0.9950415,0.9950415 0 0 0 27,31.005859 l -6,0 z m 8,0 A 0.9950415,0.9950415 0 0 0 28.005859,32 l 0,4 A 0.9950415,0.9950415 0 0 0 29,36.994141 l 6,0 A 0.9950415,0.9950415 0 0 0 35.994141,36 l 0,-4 A 0.9950415,0.9950415 0 0 0 35,31.005859 l -6,0 z m 8,0 A 0.9950415,0.9950415 0 0 0 36.005859,32 l 0,4 A 0.9950415,0.9950415 0 0 0 37,36.994141 l 6,0 A 0.9950415,0.9950415 0 0 0 43.994141,36 l 0,-4 A 0.9950415,0.9950415 0 0 0 43,31.005859 l -6,0 z m 8,0 A 0.9950415,0.9950415 0 0 0 44.005859,32 l 0,4 A 0.9950415,0.9950415 0 0 0 45,36.994141 l 5.966797,0 A 0.9950415,0.9950415 0 0 0 51.960938,36 l 0,-4 a 0.9950415,0.9950415 0 0 0 -0.994141,-0.994141 l -5.966797,0 z m -32.033203,6 A 0.9950415,0.9950415 0 0 0 11.972656,38 l 0,4 a 0.9950415,0.9950415 0 0 0 0.994141,0.994141 l 6.033203,0 A 0.9950415,0.9950415 0 0 0 19.994141,42 l 0,-4 A 0.9950415,0.9950415 0 0 0 19,37.005859 l -6.033203,0 z m 8.033203,0 A 0.9950415,0.9950415 0 0 0 20.005859,38 l 0,4 A 0.9950415,0.9950415 0 0 0 21,42.994141 l 6,0 A 0.9950415,0.9950415 0 0 0 27.994141,42 l 0,-4 A 0.9950415,0.9950415 0 0 0 27,37.005859 l -6,0 z m 8,0 A 0.9950415,0.9950415 0 0 0 28.005859,38 l 0,4 A 0.9950415,0.9950415 0 0 0 29,42.994141 l 6,0 A 0.9950415,0.9950415 0 0 0 35.994141,42 l 0,-4 A 0.9950415,0.9950415 0 0 0 35,37.005859 l -6,0 z m 8,0 A 0.9950415,0.9950415 0 0 0 36.005859,38 l 0,4 A 0.9950415,0.9950415 0 0 0 37,42.994141 l 6,0 A 0.9950415,0.9950415 0 0 0 43.994141,42 l 0,-4 A 0.9950415,0.9950415 0 0 0 43,37.005859 l -6,0 z m 8,0 A 0.9950415,0.9950415 0 0 0 44.005859,38 l 0,4 A 0.9950415,0.9950415 0 0 0 45,42.994141 l 5.966797,0 A 0.9950415,0.9950415 0 0 0 51.960938,42 l 0,-4 a 0.9950415,0.9950415 0 0 0 -0.994141,-0.994141 l -5.966797,0 z m -24,6 A 0.9950415,0.9950415 0 0 0 20.005859,44 l 0,4 A 0.9950415,0.9950415 0 0 0 21,48.994141 l 22,0 A 0.9950415,0.9950415 0 0 0 43.994141,48 l 0,-4 A 0.9950415,0.9950415 0 0 0 43,43.005859 l -22,0 z" clip-rule="nonzero" color="#000" color-interpolation="sRGB" color-interpolation-filters="linearRGB" color-rendering="auto" display="inline" enable-background="accumulate" image-rendering="auto" opacity=".07" overflow="visible" shape-rendering="auto" text-rendering="auto" visibility="visible" style="isolation:auto;mix-blend-mode:normal;solid-color:#000;solid-opacity:1;marker:none"/><path id="path4239-6" fill="#000" fill-opacity="1" fill-rule="nonzero" stroke="none" stroke-dasharray="none" stroke-dashoffset="0" stroke-linecap="butt" stroke-linejoin="miter" stroke-miterlimit="4" stroke-opacity="1" stroke-width="1" d="m 12.967747,26 0,4 L 19,30 19,26 Z M 21,26 l 0,4 6,0 0,-4 z m 8,0 0,4 6,0 0,-4 z m 8,0 0,4 6,0 0,-4 z m 8,0 0,4 5.967747,0 0,-4 z m -32.032253,6 0,4 L 19,36 19,32 Z M 21,32 l 0,4 6,0 0,-4 z m 8,0 0,4 6,0 0,-4 z m 8,0 0,4 6,0 0,-4 z m 8,0 0,4 5.967747,0 0,-4 z m -32.032253,6 0,4 L 19,42 19,38 Z M 21,38 l 0,4 6,0 0,-4 z m 8,0 0,4 6,0 0,-4 z m 8,0 0,4 6,0 0,-4 z m 8,0 0,4 5.967747,0 0,-4 z m -24,6 0,4 22,0 0,-4 z" clip-rule="nonzero" color="#000" color-interpolation="sRGB" color-interpolation-filters="linearRGB" color-rendering="auto" display="inline" enable-background="accumulate" image-rendering="auto" opacity=".15" overflow="visible" shape-rendering="auto" text-rendering="auto" visibility="visible" style="marker:none;isolation:auto;mix-blend-mode:normal;solid-color:#000;solid-opacity:1;filter-blend-mode:normal;filter-gaussianBlur-deviation:0"/><path id="path4239" fill="url(#linearGradient4565)" fill-opacity="1" fill-rule="nonzero" stroke="none" stroke-width="1" d="m 13,25 0,4 6,0 0,-4 z m 8,0 0,4 6,0 0,-4 z m 8,0 0,4 6,0 0,-4 z m 8,0 0,4 6,0 0,-4 z m 8,0 0,4 5.967747,0 0,-4 z m -32,6 0,4 6,0 0,-4 z m 8,0 0,4 6,0 0,-4 z m 8,0 0,4 6,0 0,-4 z m 8,0 0,4 6,0 0,-4 z m 8,0 0,4 5.967747,0 0,-4 z m -32,6 0,4 6,0 0,-4 z m 8,0 0,4 6,0 0,-4 z m 8,0 0,4 6,0 0,-4 z m 8,0 0,4 6,0 0,-4 z m 8,0 0,4 5.967747,0 0,-4 z m -24,6 0,4 22,0 0,-4 z" color="#000" display="inline" enable-background="accumulate" overflow="visible" visibility="visible" style="marker:none"/></svg>