<svg xmlns="http://www.w3.org/2000/svg" xmlns:svg="http://www.w3.org/2000/svg" xmlns:xlink="http://www.w3.org/1999/xlink" id="svg13986" width="64" height="64" version="1.1"><defs id="defs13988"><linearGradient id="linearGradient27416-1-2"><stop id="stop27420-2-0" offset="0" stop-color="#55c1ec" stop-opacity="1"/><stop id="stop27422-3-5" offset="1" stop-color="#3689e6" stop-opacity="1"/></linearGradient><linearGradient id="linearGradient3924-2-2-5-8"><stop id="stop3926-9-4-9-6" offset="0" stop-color="#fff" stop-opacity="1"/><stop id="stop3928-9-8-6-5" offset=".063" stop-color="#fff" stop-opacity=".235"/><stop id="stop3930-3-5-1-7" offset=".951" stop-color="#fff" stop-opacity=".157"/><stop id="stop3932-8-0-4-8" offset="1" stop-color="#fff" stop-opacity=".392"/></linearGradient><radialGradient id="radialGradient3337-2-2" cx="4.993" cy="43.5" r="2.5" fx="4.993" fy="43.5" gradientTransform="matrix(2.003784,0,0,1.4,27.98813,-17.4)" gradientUnits="userSpaceOnUse" xlink:href="#linearGradient3688-166-749-4-0-3-8"/><linearGradient id="linearGradient3688-166-749-4-0-3-8"><stop id="stop2883-4-0-1-8" offset="0" stop-color="#181818" stop-opacity="1"/><stop id="stop2885-9-2-9-6" offset="1" stop-color="#181818" stop-opacity="0"/></linearGradient><radialGradient id="radialGradient3339-1-4" cx="4.993" cy="43.5" r="2.5" fx="4.993" fy="43.5" gradientTransform="matrix(2.003784,0,0,1.4,-20.01187,-104.4)" gradientUnits="userSpaceOnUse" xlink:href="#linearGradient3688-464-309-9-2-4-2"/><linearGradient id="linearGradient3688-464-309-9-2-4-2"><stop id="stop2889-7-9-6-9" offset="0" stop-color="#181818" stop-opacity="1"/><stop id="stop2891-6-6-1-7" offset="1" stop-color="#181818" stop-opacity="0"/></linearGradient><linearGradient id="linearGradient3702-501-757-8-4-1-1"><stop id="stop2895-8-9-9-1" offset="0" stop-color="#181818" stop-opacity="0"/><stop id="stop2897-7-8-7-7" offset=".5" stop-color="#181818" stop-opacity="1"/><stop id="stop2899-4-5-1-5" offset="1" stop-color="#181818" stop-opacity="0"/></linearGradient><linearGradient id="linearGradient13984" x1="25.058" x2="25.058" y1="47.028" y2="39.999" gradientUnits="userSpaceOnUse" xlink:href="#linearGradient3702-501-757-8-4-1-1"/><linearGradient id="linearGradient4632-92-3-0-8-1"><stop id="stop4634-68-8-0-2-9" offset="0" stop-color="#fafafa" stop-opacity="1"/><stop id="stop4636-8-21-7-1-4" offset="1" stop-color="#e1e1e1" stop-opacity="1"/></linearGradient><linearGradient id="linearGradient4215-8-4-07-7"><stop id="stop4217-1-2-1-2" offset="0" stop-color="#e9e9e9" stop-opacity="1"/><stop id="stop4219-3-4-0-96" offset="1" stop-color="#fff" stop-opacity="1"/></linearGradient><linearGradient id="linearGradient4011-9-9-70-61-7"><stop id="stop4013-5-4-3-8-3" offset="0" stop-color="#fff" stop-opacity="1"/><stop id="stop4015-1-5-70-9-5" offset=".508" stop-color="#fff" stop-opacity=".235"/><stop id="stop4017-7-0-13-0-1" offset=".835" stop-color="#fff" stop-opacity=".157"/><stop id="stop4019-1-12-7-0-7" offset="1" stop-color="#fff" stop-opacity=".392"/></linearGradient><linearGradient id="linearGradient3643" x1="30.271" x2="30.271" y1="10.029" y2="55.053" gradientTransform="matrix(1.111111,0,0,1.25,-3.5555565,-7.9999992)" gradientUnits="userSpaceOnUse" xlink:href="#linearGradient27416-1-2"/><linearGradient id="linearGradient3647" x1="24" x2="24" y1="5" y2="43" gradientTransform="matrix(1.4324324,0,0,1.4362832,-2.378381,-2.4707781)" gradientUnits="userSpaceOnUse" xlink:href="#linearGradient3924-2-2-5-8"/><radialGradient id="radialGradient3651" cx="32" cy="4.342" r="27.5" fx="32" fy="4.342" gradientTransform="matrix(1.0056172e-8,2.3103361,-2.310336,1.0056172e-8,42.031285,-69.085963)" gradientUnits="userSpaceOnUse" xlink:href="#linearGradient4632-92-3-0-8-1"/><linearGradient id="linearGradient3659" x1="71.204" x2="71.204" y1="6.238" y2="44.341" gradientTransform="matrix(-0.45945942,0,0,0.45945942,74.958504,20.349516)" gradientUnits="userSpaceOnUse" xlink:href="#linearGradient4011-9-9-70-61-7"/><linearGradient id="linearGradient3662" x1="38.977" x2="38.977" y1="59.968" y2="8.093" gradientTransform="matrix(-0.37254354,0,0,0.37254354,53.921253,19.33366)" gradientUnits="userSpaceOnUse" xlink:href="#linearGradient4215-8-4-07-7"/></defs><metadata id="metadata13991"/><g id="g3712-8-2-4-4" opacity=".4" transform="matrix(1.5789502,0,0,0.7142857,-5.894751,27.928572)"><rect id="rect2801-5-5-7-9" width="5" height="7" x="38" y="40" fill="url(#radialGradient3337-2-2)" fill-opacity="1" stroke="none"/><rect id="rect3696-3-0-3-7" width="5" height="7" x="-10" y="-47" fill="url(#radialGradient3339-1-4)" fill-opacity="1" stroke="none" transform="scale(-1,-1)"/><rect id="rect3700-5-6-8-4" width="28" height="7" x="10" y="40" fill="url(#linearGradient13984)" fill-opacity="1" stroke="none"/></g><rect id="rect5505-21-3-8-5-2" width="54" height="54" x="5" y="5" fill="url(#radialGradient3651)" fill-opacity="1" fill-rule="nonzero" stroke="none" stroke-width="1" color="#000" display="inline" enable-background="accumulate" overflow="visible" rx="2.5" ry="2.5" visibility="visible" style="marker:none"/><path id="rect13708-6" fill="#fff" fill-opacity="1" stroke="none" stroke-width="2" d="m 21.999999,23 c -5.54,0 -10,4.46 -10,10 0,5.54 4.46,10 10,10 l 20,0 c 5.54,0 10,-4.46 10,-10 0,-5.54 -4.46,-10 -10,-10 z" color="#000" display="inline" enable-background="accumulate" opacity=".2" overflow="visible" visibility="visible" style="marker:none"/><rect id="rect6741-5-0-2-3" width="53" height="53.142" x="5.5" y="5.429" fill="none" stroke="url(#linearGradient3647)" stroke-dasharray="none" stroke-dashoffset="0" stroke-linecap="round" stroke-linejoin="round" stroke-miterlimit="4" stroke-opacity="1" stroke-width="1" rx="2" ry="2"/><rect id="rect5505-21-3-8-9-1-1" width="55" height="55" x="4.5" y="4.5" fill="none" stroke="#000" stroke-dasharray="none" stroke-dashoffset="0" stroke-linecap="butt" stroke-linejoin="miter" stroke-miterlimit="4" stroke-opacity="1" stroke-width="1" color="#000" display="inline" enable-background="accumulate" opacity=".3" overflow="visible" rx="3" ry="3" visibility="visible" style="marker:none"/><path id="rect13708" fill="url(#linearGradient3643)" fill-opacity="1" stroke="none" stroke-width="2" d="m 21.999999,22.000002 c -5.54,0 -10,4.46 -10,10 0,5.54 4.46,10 10,10 l 20,0 c 5.54,0 10,-4.46 10,-10 0,-5.54 -4.46,-10 -10,-10 z" color="#000" display="inline" enable-background="accumulate" overflow="visible" visibility="visible" style="marker:none"/><path id="rect13708-7" fill="#0e4774" fill-opacity="1" fill-rule="nonzero" stroke="none" stroke-width="2.409" d="m 21.999999,22.000002 c -5.54,0 -10,4.46 -10,10 0,0.167898 0.02315,0.33418 0.03125,0.5 0.259131,-5.305614 4.596648,-9.5 9.96875,-9.5 l 20,0 c 5.372102,0 9.709619,4.194386 9.96875,9.5 0.0081,-0.16582 0.03125,-0.332102 0.03125,-0.5 0,-5.54 -4.46,-10 -10,-10 l -20,0 z" color="#000" display="inline" enable-background="accumulate" opacity=".3" overflow="visible" visibility="visible" style="marker:none"/><path id="rect3136" fill="#0e4774" fill-opacity="1" fill-rule="nonzero" stroke="none" stroke-width="2.71" d="m 22.062499,23.000002 c -5.4028,0 -9.770333,4.194386 -10.03125,9.5 0.259131,5.305614 4.596648,9.5 9.96875,9.5 l 1.0625,0 c -5.571657,0 -10.0625,-4.014 -10.0625,-9 0,-4.986 4.490843,-9 10.0625,-9 l 17.875,0 c 5.571657,0 10.0625,4.014 10.0625,9 0,4.986 -4.490843,9 -10.0625,9 l 1.0625,0 c 5.372102,0 9.709619,-4.194386 9.96875,-9.5 -0.260917,-5.305614 -4.62845,-9.5 -10.03125,-9.5 l -19.875,0 z" color="#000" display="inline" enable-background="accumulate" opacity=".15" overflow="visible" visibility="visible" style="marker:none"/><path d="m 10,10 a 1,1 0 0 1 -2,0 1,1 0 1 1 2,0 z" style="marker:none" id="path4356-7-9" fill="#fff" fill-opacity="1" fill-rule="evenodd" stroke="none" stroke-width=".338" color="#000" display="inline" enable-background="accumulate" overflow="visible" visibility="visible"/><path id="path4356-9" fill="#000" fill-opacity="1" fill-rule="evenodd" stroke="none" stroke-width=".338" d="M 10,9 A 1,1 0 0 1 8,9 1,1 0 1 1 10,9 z" color="#000" display="inline" enable-background="accumulate" opacity=".3" overflow="visible" visibility="visible" style="marker:none"/><path d="m 56,10 a 1,1 0 0 1 -2,0 1,1 0 1 1 2,0 z" style="marker:none" id="path4356-7-6-7" fill="#fff" fill-opacity="1" fill-rule="evenodd" stroke="none" stroke-width=".338" color="#000" display="inline" enable-background="accumulate" overflow="visible" visibility="visible"/><path id="path4356-8-9" fill="#000" fill-opacity="1" fill-rule="evenodd" stroke="none" stroke-width=".338" d="m 56,9 a 1,1 0 0 1 -2,0 1,1 0 1 1 2,0 z" color="#000" display="inline" enable-background="accumulate" opacity=".3" overflow="visible" visibility="visible" style="marker:none"/><path d="m 10,56 a 1,1 0 0 1 -2,0 1,1 0 1 1 2,0 z" style="marker:none" id="path4356-7-9-3" fill="#fff" fill-opacity="1" fill-rule="evenodd" stroke="none" stroke-width=".338" color="#000" display="inline" enable-background="accumulate" overflow="visible" visibility="visible"/><path id="path4356-9-1" fill="#000" fill-opacity="1" fill-rule="evenodd" stroke="none" stroke-width=".338" d="m 10,55 a 1,1 0 0 1 -2,0 1,1 0 1 1 2,0 z" color="#000" display="inline" enable-background="accumulate" opacity=".3" overflow="visible" visibility="visible" style="marker:none"/><path d="m 56,56 a 1,1 0 0 1 -2,0 1,1 0 1 1 2,0 z" style="marker:none" id="path4356-7-6-7-1" fill="#fff" fill-opacity="1" fill-rule="evenodd" stroke="none" stroke-width=".338" color="#000" display="inline" enable-background="accumulate" overflow="visible" visibility="visible"/><path id="path4356-8-9-8" fill="#000" fill-opacity="1" fill-rule="evenodd" stroke="none" stroke-width=".338" d="m 56,55 a 1,1 0 0 1 -2,0 1,1 0 1 1 2,0 z" color="#000" display="inline" enable-background="accumulate" opacity=".3" overflow="visible" visibility="visible" style="marker:none"/><path id="path2555-7-1-9-4-9-1" fill="#000" fill-opacity="1" fill-rule="nonzero" stroke="none" stroke-width="2" d="m 41.999862,22.500001 c 5.793539,0 10.499999,4.70646 10.499999,10.500001 0,5.793538 -4.70646,10.499998 -10.499999,10.499998 -5.793541,0 -10.500011,-4.70646 -10.500001,-10.499998 0,-5.793541 4.70646,-10.500001 10.500001,-10.500001 z" color="#000" display="inline" enable-background="accumulate" opacity=".07" overflow="visible" visibility="visible" style="marker:none"/><path id="path2555-7-1-9-4-9" fill="#000" fill-opacity="1" fill-rule="nonzero" stroke="none" stroke-width="2" d="m 41.999861,23.50028 c 5.241697,0 9.49986,4.258163 9.49986,9.499861 0,5.241696 -4.258163,9.499859 -9.49986,9.499859 -5.241698,0 -9.49987,-4.258163 -9.499861,-9.499859 0,-5.241698 4.258163,-9.499861 9.499861,-9.499861 z" color="#000" display="inline" enable-background="accumulate" opacity=".15" overflow="visible" visibility="visible" style="marker:none"/><path id="path2555-7-1-9-4" fill="url(#linearGradient3662)" fill-opacity="1" fill-rule="nonzero" stroke="none" stroke-width="1" d="m 41.999861,22.50028 c 5.241697,0 9.49986,4.258163 9.49986,9.499861 0,5.241696 -4.258163,9.499859 -9.49986,9.499859 -5.241698,0 -9.49987,-4.258163 -9.499861,-9.499859 0,-5.241698 4.258163,-9.499861 9.499861,-9.499861 z" color="#000" display="inline" enable-background="accumulate" overflow="visible" visibility="visible" style="marker:none"/><path id="path8655-6-0-5-2" fill="none" stroke="url(#linearGradient3659)" stroke-dasharray="none" stroke-dashoffset="0" stroke-linecap="round" stroke-linejoin="round" stroke-miterlimit="4" stroke-opacity="1" stroke-width="1" d="m 33.49986,31.999836 c 0,4.694578 3.805862,8.500304 8.499893,8.500304 4.694461,0 8.500107,-3.805772 8.500107,-8.500304 0,-4.694354 -3.805646,-8.499696 -8.500107,-8.499696 -4.694031,0 -8.499893,3.805342 -8.499893,8.499696 l 0,0 z" color="#000" display="inline" enable-background="accumulate" overflow="visible" visibility="visible" style="marker:none"/><path id="path2555-7-1-9-9-41" fill="none" stroke="#656565" stroke-dasharray="none" stroke-dashoffset="0" stroke-linecap="round" stroke-linejoin="round" stroke-miterlimit="4" stroke-opacity="1" stroke-width="1" d="m 41.999861,22.50028 c 5.241697,0 9.49986,4.258163 9.49986,9.499861 0,5.241696 -4.258163,9.499859 -9.49986,9.499859 -5.241698,0 -9.49987,-4.258163 -9.499861,-9.499859 0,-5.241698 4.258163,-9.499861 9.499861,-9.499861 z" color="#000" display="inline" enable-background="accumulate" opacity=".5" overflow="visible" visibility="visible" style="marker:none"/></svg>