<svg xmlns="http://www.w3.org/2000/svg" xmlns:svg="http://www.w3.org/2000/svg" xmlns:xlink="http://www.w3.org/1999/xlink" id="svg4332" width="64" height="64" version="1.1"><defs id="defs4334"><linearGradient id="linearGradient4318"><stop id="stop4320" offset="0" stop-color="#00547b" stop-opacity="1"/><stop id="stop4322" offset="1" stop-color="#11415b" stop-opacity="0"/></linearGradient><linearGradient id="linearGradient4221"><stop id="stop4223" offset="0" stop-color="#5c86c9" stop-opacity="1"/><stop id="stop4225" offset="1" stop-color="#70fcc5" stop-opacity="1"/></linearGradient><linearGradient id="linearGradient3904" x1="24" x2="24" y1="5.909" y2="42.092" gradientTransform="matrix(1.4324324,0,0,1.4362832,-2.3783747,-2.4707827)" gradientUnits="userSpaceOnUse" xlink:href="#linearGradient4270"/><linearGradient id="linearGradient4270"><stop id="stop4272" offset="0" stop-color="#fff" stop-opacity="1"/><stop id="stop4274" offset=".035" stop-color="#fff" stop-opacity=".235"/><stop id="stop4276" offset=".962" stop-color="#fff" stop-opacity=".157"/><stop id="stop4278" offset="1" stop-color="#fff" stop-opacity=".392"/></linearGradient><radialGradient id="radialGradient4147" cx="6.73" cy="9.957" r="12.672" fx="6.2" fy="9.957" gradientTransform="matrix(0,6.5807054,-8.0790037,0,113.61553,-69.037492)" gradientUnits="userSpaceOnUse" xlink:href="#linearGradient2867-449-88-871-390-598-476-591-434-148-57-177-8-3-3-6-4-8-8-8-5"/><linearGradient id="linearGradient2867-449-88-871-390-598-476-591-434-148-57-177-8-3-3-6-4-8-8-8-5"><stop id="stop3750-1-0-7-6-6-1-3-9-3" offset="0" stop-color="#1d1d34" stop-opacity="1"/><stop id="stop4207" offset=".355" stop-color="#1d1d34" stop-opacity="1"/><stop id="stop3756-1-6-2-6-6-1-96-6-0" offset="1" stop-color="#1b3545" stop-opacity="1"/></linearGradient><radialGradient id="radialGradient2873-966-168-714" cx="4.993" cy="43.5" r="2.5" fx="4.993" fy="43.5" gradientTransform="matrix(2.003784,0,0,1.4,27.98813,-17.4)" gradientUnits="userSpaceOnUse" xlink:href="#linearGradient3688-166-749-654"/><linearGradient id="linearGradient3688-166-749-654"><stop id="stop3088" offset="0" stop-color="#181818" stop-opacity="1"/><stop id="stop3090" offset="1" stop-color="#181818" stop-opacity="0"/></linearGradient><radialGradient id="radialGradient2875-742-326-419" cx="4.993" cy="43.5" r="2.5" fx="4.993" fy="43.5" gradientTransform="matrix(2.003784,0,0,1.4,-20.01187,-104.4)" gradientUnits="userSpaceOnUse" xlink:href="#linearGradient3688-464-309-604"/><linearGradient id="linearGradient3688-464-309-604"><stop id="stop3094" offset="0" stop-color="#181818" stop-opacity="1"/><stop id="stop3096" offset="1" stop-color="#181818" stop-opacity="0"/></linearGradient><linearGradient id="linearGradient2877-634-617-908" x1="25.058" x2="25.058" y1="47.028" y2="39.999" gradientUnits="userSpaceOnUse" xlink:href="#linearGradient3702-501-757-795"/><linearGradient id="linearGradient3702-501-757-795"><stop id="stop3100" offset="0" stop-color="#181818" stop-opacity="0"/><stop id="stop3102" offset=".5" stop-color="#181818" stop-opacity="1"/><stop id="stop3104" offset="1" stop-color="#181818" stop-opacity="0"/></linearGradient><linearGradient id="linearGradient4227" x1="29.625" x2="29.625" y1="43.125" y2="15.25" gradientTransform="matrix(1.1041405,0,0,1,-0.46863237,0.24306796)" gradientUnits="userSpaceOnUse" xlink:href="#linearGradient4221"/><linearGradient id="linearGradient4324" x1="29" x2="29" y1="33.133" y2="53.18" gradientUnits="userSpaceOnUse" xlink:href="#linearGradient4318"/></defs><metadata id="metadata4337"/><g id="g3712" opacity=".5" transform="matrix(1.5789502,0,0,0.7142857,-5.8947511,28.428574)"><rect id="rect2801" width="5" height="7" x="38" y="40" fill="url(#radialGradient2873-966-168-714)" fill-opacity="1" stroke="none"/><rect id="rect3696" width="5" height="7" x="-10" y="-47" fill="url(#radialGradient2875-742-326-419)" fill-opacity="1" stroke="none" transform="scale(-1,-1)"/><rect id="rect3700" width="28" height="7" x="10" y="40" fill="url(#linearGradient2877-634-617-908)" fill-opacity="1" stroke="none"/></g><rect id="rect5505-21-3-8-5-2-9" width="55" height="55" x="4.5" y="4.5" fill="url(#radialGradient4147)" fill-opacity="1" fill-rule="nonzero" stroke="none" stroke-width="1" color="#000" display="inline" enable-background="accumulate" overflow="visible" rx="3" ry="3" visibility="visible" style="marker:none"/><path id="path4213-2" fill="url(#linearGradient4324)" fill-opacity="1" fill-rule="evenodd" stroke="none" stroke-dasharray="none" stroke-linecap="butt" stroke-linejoin="round" stroke-miterlimit="4" stroke-opacity="1" stroke-width="1" d="M 28.158203 15.992188 C 27.332839 15.992188 27.969174 31.857686 25.984375 38.566406 C 25.984375 36.201392 23 35.863281 23 35.863281 C 19.486778 35.863281 18.857422 32.111328 18.857422 32.111328 C 18.857422 36.60386 16.025391 36.554687 16.025391 36.554688 L 4.5 36.554688 L 4.5 56.5 C 4.5 58.162 5.838 59.5 7.5 59.5 L 56.5 59.5 C 58.162 59.5 59.5 58.162 59.5 56.5 L 59.5 36.742188 C 57.740276 36.742188 56.152344 35.117188 56.152344 35.117188 C 55.117212 34.085938 54.756164 33.304688 53.841797 33.304688 C 52.927431 33.304688 52.632813 34.429688 52.632812 34.429688 C 52.632812 34.429688 52.107542 36.476562 50.304688 36.476562 C 48.501832 36.476562 47.492187 33.648438 47.492188 33.648438 C 47.492188 33.648438 46.258249 30.539062 44.058594 30.539062 C 41.858938 30.539062 40.591797 33.679688 40.591797 33.679688 C 39.660179 37.710938 34.65625 36.179688 34.65625 36.179688 C 31.550855 35.867188 31.824612 39.255178 30.792969 42.742188 C 29.102253 28.898438 28.983567 15.992188 28.158203 15.992188 z"/><path id="path4213-9" fill="none" fill-rule="evenodd" stroke="#000" stroke-dasharray="none" stroke-linecap="butt" stroke-linejoin="round" stroke-miterlimit="4" stroke-opacity="1" stroke-width="1" d="m 4.4999999,37.564164 11.8453831,0 c 0,0 2.90233,-0.617196 2.90233,-2.909155 0,0 0.606407,2.216016 3.798712,2.216016 0,0 2.159415,0.04012 2.182337,2.473899 0.60683,0.283532 1.491731,0.08732 1.491731,0.08732 2.733553,-9.456941 0.591,-19.749103 1.392648,-19.840323 0.819876,-0.09329 -3.57e-4,13.287848 1.94568,24.068052 0.02928,-0.09896 1.522078,0.05349 1.553146,-0.04421 1.444956,-4.543905 0.715289,-7.05115 3.549168,-6.289066 0,0 5.278209,1.00403 6.209827,-3.02722 0,0 1.245113,-2.750941 2.619554,-2.750941 1.970429,0 3.20396,3.774132 3.20396,3.774132 0,0 1.238479,2.140445 3.041334,2.140445 1.802855,0 2.925036,-1.771803 2.925036,-1.771803 0,0 0.384977,-1.400072 0.657509,-1.400072 0.478837,0 1.16205,0.987554 2.197182,2.018804 0,0 1.724738,1.441619 3.484462,1.441619" opacity=".15"/><path id="path4213" fill="none" fill-rule="evenodd" stroke="url(#linearGradient4227)" stroke-dasharray="none" stroke-linecap="butt" stroke-linejoin="round" stroke-miterlimit="4" stroke-opacity="1" stroke-width="1" d="m 4.4999999,36.555568 11.5244661,0 c 0,0 2.833563,0.04756 2.833563,-4.444972 0,0 0.629329,3.751833 4.142551,3.751833 0,0 2.984629,0.338111 2.984629,2.703125 1.984799,-6.70872 1.348413,-22.572486 2.173777,-22.572486 0.825364,0 0.942644,12.90625 2.63336,26.75 1.031643,-3.487009 0.759096,-6.875 3.864491,-6.5625 0,0 5.003137,1.53125 5.934755,-2.5 0,0 1.268036,-3.140625 3.467692,-3.140625 2.199655,0 3.433187,3.109375 3.433187,3.109375 0,0 1.009252,2.828125 2.812107,2.828125 1.802855,0 2.329047,-2.046875 2.329047,-2.046875 0,0 0.293287,-1.125 1.207653,-1.125 0.914367,0 1.276663,0.78125 2.311795,1.8125 0,0 1.587202,1.625 3.346926,1.625"/><rect id="rect5505-21-9" width="55" height="55" x="4.5" y="4.5" fill="none" stroke="#000" stroke-dasharray="none" stroke-dashoffset="0" stroke-linecap="round" stroke-linejoin="round" stroke-miterlimit="4" stroke-opacity="1" stroke-width="1" color="#000" display="inline" enable-background="accumulate" opacity=".5" overflow="visible" rx="3" ry="3" visibility="visible" style="marker:none"/><rect id="rect6741" width="53" height="53.142" x="5.5" y="5.429" fill="none" stroke="url(#linearGradient3904)" stroke-dasharray="none" stroke-dashoffset="0" stroke-linecap="round" stroke-linejoin="round" stroke-miterlimit="4" stroke-opacity="1" stroke-width="1" opacity=".3" rx="2" ry="2"/></svg>