<svg xmlns="http://www.w3.org/2000/svg" xmlns:svg="http://www.w3.org/2000/svg" xmlns:xlink="http://www.w3.org/1999/xlink" id="svg4372" width="16" height="16" version="1.1"><defs id="defs4374"><linearGradient id="linearGradient3304" x1="24" x2="24" y1="7.182" y2="40.818" gradientTransform="matrix(0.2972973,0,0,0.2972973,0.86486906,0.8648672)" gradientUnits="userSpaceOnUse" xlink:href="#linearGradient3924-4-8"/><linearGradient id="linearGradient3924-4-8"><stop id="stop3926-0-4" offset="0" stop-color="#fff" stop-opacity="1"/><stop id="stop3928-6-8" offset="0" stop-color="#fff" stop-opacity=".235"/><stop id="stop3930-2-1" offset="1" stop-color="#fff" stop-opacity=".157"/><stop id="stop3932-9-0" offset="1" stop-color="#fff" stop-opacity=".392"/></linearGradient><linearGradient id="linearGradient909"><stop id="stop905" offset="0" stop-color="#fafafa" stop-opacity="1"/><stop id="stop907" offset="1" stop-color="#d4d4d4" stop-opacity="1"/></linearGradient><linearGradient id="linearGradient903" x1="14.33" x2="14.33" y1="32.022" y2="-.07" gradientTransform="matrix(0.46153846,0,0,0.46153846,0.61538478,-15.384615)" gradientUnits="userSpaceOnUse" xlink:href="#linearGradient909"/></defs><metadata id="metadata4377"/><rect id="rect5505" width="12" height="12" x="2" y="-14" fill="url(#linearGradient903)" fill-opacity="1" fill-rule="nonzero" stroke="none" stroke-width="1" color="#000" display="inline" enable-background="accumulate" overflow="visible" rx=".5" ry=".5" transform="scale(1,-1)" visibility="visible" style="marker:none"/><rect id="rect6741-0-3-5" width="11" height="11" x="2.5" y="2.5" fill="none" stroke="url(#linearGradient3304)" stroke-dasharray="none" stroke-dashoffset="0" stroke-linecap="round" stroke-linejoin="round" stroke-miterlimit="4" stroke-opacity="1" stroke-width="1" opacity="1"/><rect id="rect5505-21-2-8" width="13" height="13" x="1.5" y="1.5" fill="none" fill-opacity="1" stroke="#555761" stroke-dasharray="none" stroke-dashoffset="0" stroke-linecap="round" stroke-linejoin="round" stroke-miterlimit="4" stroke-opacity="1" stroke-width="1" color="#000" display="inline" enable-background="accumulate" opacity=".5" overflow="visible" rx="1" ry="1" vector-effect="none" visibility="visible" style="marker:none;font-variant-east_asian:normal"/><path id="path2502" fill="#fff" fill-opacity="1" fill-rule="nonzero" stroke="none" stroke-width="1.7" d="m 7.25,4.999999 c -0.1385,0 -0.25,0.1115 -0.25,0.25 v 0.9375 C 6.90391,6.221988 6.810021,6.268763 6.71875,6.312499 L 6.0625,5.656249 C 6.01353,5.607282 5.938905,5.562499 5.875,5.562499 c -0.06391,0 -0.138533,0.044783 -0.1875,0.09375 l -1.03125,1.03125 c -0.09793,0.097934 -0.09793,0.2770659 0,0.375 L 5.3125,7.718749 C 5.26876,7.810019 5.22199,7.9039128 5.1875,7.999999 H 4.25 c -0.1385,0 -0.25,0.1115 -0.25,0.25 v 1.5 c 0,0.1385 0.1115,0.25 0.25,0.25 h 0.9375 c 0.03449,0.096091 0.08126,0.189979 0.125,0.281251 L 4.65625,10.9375 c -0.09793,0.09793 -0.09793,0.277065 0,0.375 l 1.03125,1.03125 c 0.09793,0.09793 0.277066,0.09793 0.375,0 L 6.71875,11.6875 C 6.81002,11.73124 6.903914,11.77801 7,11.8125 V 12.75 C 7,12.8885 7.1115,13 7.25,13 h 1.5 C 8.8885,13 9,12.8885 9,12.75 v -0.9375 c 0.096086,-0.03449 0.1899795,-0.08126 0.28125,-0.125 l 0.65625,0.65625 c 0.097934,0.09793 0.277065,0.09793 0.375,0 l 1.03125,-1.03125 c 0.09793,-0.09793 0.09793,-0.277066 0,-0.375 L 10.6875,10.28125 c 0.04374,-0.09127 0.09051,-0.185165 0.125,-0.281251 H 11.75 c 0.1385,0 0.25,-0.1115 0.25,-0.25 v -1.5 c 0,-0.1385 -0.1115,-0.25 -0.25,-0.25 H 10.8125 C 10.77801,7.903913 10.73124,7.8100195 10.6875,7.718749 l 0.65625,-0.65625 c 0.09793,-0.097934 0.09793,-0.2770656 0,-0.375 L 10.3125,5.656249 c -0.09793,-0.097934 -0.277066,-0.097935 -0.375,0 L 9.28125,6.312499 C 9.189979,6.268763 9.0960862,6.221988 9,6.187499 v -0.9375 c 0,-0.1385 -0.1115,-0.25 -0.25,-0.25 z m 0.75,3 c 0.552,0 1,0.448 1,1 0,0.552 -0.448,1 -1,1 -0.552,0 -1,-0.448 -1,-1 0,-0.552 0.448,-1 1,-1 z" display="inline" enable-background="accumulate" opacity=".1" overflow="visible" visibility="visible" style="marker:none"/><path stroke-opacity="1" style="marker:none;font-variant-east_asian:normal" id="rect2484" fill="#bcbcbc" fill-opacity="1" fill-rule="nonzero" stroke="none" stroke-dasharray="none" stroke-dashoffset="0" stroke-linecap="butt" stroke-linejoin="miter" stroke-miterlimit="4" stroke-width="1" d="m 7.25,3.999999 c -0.1385,0 -0.25,0.1115 -0.25,0.25 v 0.9375 C 6.90391,5.221988 6.810021,5.268763 6.71875,5.312499 L 6.0625,4.656249 C 6.01353,4.607282 5.938905,4.562499 5.875,4.562499 c -0.06391,0 -0.138533,0.044783 -0.1875,0.09375 l -1.03125,1.03125 c -0.09793,0.097934 -0.09793,0.2770659 0,0.375 L 5.3125,6.718749 C 5.26876,6.810019 5.22199,6.9039128 5.1875,6.999999 H 4.25 c -0.1385,0 -0.25,0.1115 -0.25,0.25 v 1.5 c 0,0.1385 0.1115,0.25 0.25,0.25 h 0.9375 c 0.03449,0.096086 0.08126,0.1899795 0.125,0.28125 l -0.65625,0.65625 c -0.09793,0.097937 -0.09793,0.277066 0,0.375001 l 1.03125,1.03125 c 0.09793,0.09793 0.277066,0.09793 0.375,0 L 6.71875,10.6875 C 6.81002,10.73124 6.903914,10.77801 7,10.8125 V 11.75 C 7,11.8885 7.1115,12 7.25,12 h 1.5 C 8.8885,12 9,11.8885 9,11.75 v -0.9375 c 0.096086,-0.03449 0.1899795,-0.08126 0.28125,-0.125 l 0.65625,0.65625 c 0.097934,0.09793 0.277065,0.09793 0.375,0 l 1.03125,-1.03125 c 0.09793,-0.09793 0.09793,-0.277066 0,-0.375001 L 10.6875,9.281249 c 0.04374,-0.091271 0.09051,-0.1851638 0.125,-0.28125 H 11.75 c 0.1385,0 0.25,-0.1115 0.25,-0.25 v -1.5 c 0,-0.1385 -0.1115,-0.25 -0.25,-0.25 H 10.8125 C 10.77801,6.903913 10.73124,6.8100195 10.6875,6.718749 l 0.65625,-0.65625 c 0.09793,-0.097934 0.09793,-0.2770656 0,-0.375 L 10.3125,4.656249 c -0.09793,-0.097934 -0.277066,-0.097935 -0.375,0 L 9.28125,5.312499 C 9.189979,5.268763 9.0960862,5.221988 9,5.187499 v -0.9375 c 0,-0.1385 -0.1115,-0.25 -0.25,-0.25 z m 0.75,3 c 0.552,0 1,0.448 1,1 0,0.552 -0.448,1 -1,1 -0.552,0 -1,-0.448 -1,-1 0,-0.552 0.448,-1 1,-1 z" color="#000" display="inline" enable-background="accumulate" opacity="1" overflow="visible" vector-effect="none" visibility="visible"/></svg>