<svg xmlns="http://www.w3.org/2000/svg" xmlns:svg="http://www.w3.org/2000/svg" xmlns:xlink="http://www.w3.org/1999/xlink" id="svg3295" width="16" height="16" version="1.0"><metadata id="metadata712"/><defs id="defs3297"><linearGradient id="linearGradient4806-9"><stop id="stop4808-49" offset="0" stop-color="#fff" stop-opacity="1"/><stop id="stop4810-05" offset=".424" stop-color="#fff" stop-opacity=".235"/><stop id="stop4812-6" offset=".821" stop-color="#fff" stop-opacity=".157"/><stop id="stop4814-7" offset="1" stop-color="#fff" stop-opacity=".392"/></linearGradient><linearGradient id="linearGradient3143" x1="71.204" x2="71.204" y1="15.369" y2="40.496" gradientTransform="matrix(0.53069049,0,0,0.53069073,-30.303177,-6.7887052)" gradientUnits="userSpaceOnUse" xlink:href="#linearGradient4806-9"/><radialGradient id="radialGradient3154" cx="15.43" cy="8.483" r="20" fx=".707" fy="8.483" gradientTransform="matrix(-1.6150325e-8,0.71285874,-0.67272677,-1.5241106e-8,13.735895,-4.0510894)" gradientUnits="userSpaceOnUse" xlink:href="#linearGradient3846"/><linearGradient id="linearGradient3846"><stop id="stop3848" offset="0" stop-color="#fff3cb" stop-opacity="1"/><stop id="stop3850" offset=".262" stop-color="#fdde76" stop-opacity="1"/><stop id="stop3852" offset=".661" stop-color="#f9c440" stop-opacity="1"/><stop id="stop3854" offset="1" stop-color="#e48b20" stop-opacity="1"/></linearGradient></defs><path id="path2555-7-65" fill="url(#radialGradient3154)" fill-opacity="1" fill-rule="nonzero" stroke="none" stroke-width="1" d="m 7.9999995,0.5 c -4.138241,0 -7.5,3.3617588 -7.5,7.5000001 0,4.1382419 3.361759,7.5000009 7.5,7.4999999 C 12.13824,15.5 15.500002,12.138242 15.5,8.0000001 15.5,3.8617588 12.13824,0.5 7.9999995,0.5 z" color="#000" display="inline" enable-background="accumulate" overflow="visible" visibility="visible" style="marker:none"/><path id="path2555-7-1-7" fill="none" stroke="#985800" stroke-dasharray="none" stroke-dashoffset="0" stroke-linecap="round" stroke-linejoin="round" stroke-miterlimit="4" stroke-opacity="1" stroke-width="1" d="m 8,0.50000015 c -4.138241,0 -7.5,3.36175825 -7.5,7.49999925 C 0.5,12.138242 3.861759,15.500001 8,15.5 c 4.138242,0 7.500005,-3.361758 7.5,-7.5000006 0,-4.138241 -3.361758,-7.49999925 -7.5,-7.49999925 z" color="#000" display="inline" enable-background="accumulate" opacity=".5" overflow="visible" visibility="visible" style="marker:none"/><path id="path3421" fill="none" stroke="url(#linearGradient3143)" stroke-dasharray="none" stroke-dashoffset="0" stroke-linecap="round" stroke-linejoin="round" stroke-miterlimit="4" stroke-opacity="1" stroke-width="1" d="M 14.500001,8.0000001 C 14.500001,11.589851 11.589845,14.5 8,14.5 4.410156,14.5 1.5,11.589851 1.5,8.0000001 1.5,4.4101498 4.410156,1.4999998 8,1.4999998 c 3.589845,0 6.500001,2.91015 6.500001,6.5000003 z" color="#000" display="inline" enable-background="accumulate" opacity=".8" overflow="visible" visibility="visible" style="marker:none"/><path id="path3172" fill="#333" fill-opacity="1" fill-rule="nonzero" stroke="none" stroke-width="1" d="M 9.5,3 5.625,9 7.7,9 6.5,13 10.375,7 8.4375,7 Z" display="inline" enable-background="accumulate" overflow="visible" visibility="visible" style="marker:none"/></svg>