<svg xmlns="http://www.w3.org/2000/svg" xmlns:svg="http://www.w3.org/2000/svg" xmlns:xlink="http://www.w3.org/1999/xlink" id="svg7357" width="16" height="16" version="1.1"><defs id="defs7359"><linearGradient id="linearGradient3924-4-8"><stop id="stop3926-0-4" offset="0" stop-color="#fff" stop-opacity="1"/><stop id="stop3928-6-8" offset=".063" stop-color="#fff" stop-opacity=".235"/><stop id="stop3930-2-1" offset=".951" stop-color="#fff" stop-opacity=".157"/><stop id="stop3932-9-0" offset="1" stop-color="#fff" stop-opacity=".392"/></linearGradient><linearGradient id="linearGradient3007" x1="24" x2="24" y1="5" y2="43" gradientTransform="matrix(0.2972973,0,0,0.2972973,0.86486973,0.86486734)" gradientUnits="userSpaceOnUse" xlink:href="#linearGradient3924-4-8"/><radialGradient id="radialGradient3015" cx="8.124" cy="10.028" r="12.672" fx="7.594" fy="10.028" gradientTransform="matrix(0,1.5284937,-1.8150432,0,26.201945,-13.417945)" gradientUnits="userSpaceOnUse" xlink:href="#linearGradient3846"/><linearGradient id="linearGradient3846"><stop id="stop3848" offset="0" stop-color="#fff3cb" stop-opacity="1"/><stop id="stop3850" offset=".262" stop-color="#fdde76" stop-opacity="1"/><stop id="stop3852" offset=".661" stop-color="#f9c440" stop-opacity="1"/><stop id="stop3854" offset="1" stop-color="#e48b20" stop-opacity="1"/></linearGradient></defs><metadata id="metadata7362"/><rect id="rect5505-21-2" width="13" height="13" x="1.5" y="1.5" fill="url(#radialGradient3015)" fill-opacity="1" fill-rule="nonzero" stroke="none" stroke-width="1" color="#000" display="inline" enable-background="accumulate" overflow="visible" rx="1" ry="1" visibility="visible" style="marker:none"/><rect id="rect6741-0-3" width="11" height="11" x="2.5" y="2.5" fill="none" stroke="url(#linearGradient3007)" stroke-dasharray="none" stroke-dashoffset="0" stroke-linecap="round" stroke-linejoin="round" stroke-miterlimit="4" stroke-opacity="1" stroke-width="1" opacity=".5"/><rect id="rect5505-21-2-8" width="13" height="13" x="1.5" y="1.5" fill="none" stroke="#915f00" stroke-dasharray="none" stroke-dashoffset="0" stroke-linecap="round" stroke-linejoin="round" stroke-miterlimit="4" stroke-opacity="1" stroke-width="1" color="#000" display="inline" enable-background="accumulate" opacity=".5" overflow="visible" rx="1" ry="1" visibility="visible" style="marker:none"/><path id="rect24788" fill="#333" fill-opacity="1" stroke="none" stroke-dasharray="none" stroke-dashoffset="0" stroke-linecap="round" stroke-linejoin="round" stroke-miterlimit="4" stroke-opacity="1" stroke-width="2" d="M 5,4 5,6 7,6 7,4 Z M 5.5,7 C 5.223,7 5,7.223 5,7.5 L 5,7.8789064 3.6464845,9.232422 C 3.1556712,9.7036765 3.8822609,10.430267 4.3535157,9.9394536 L 5,9.2929688 5,11.5 5,13 l 2,0 0,-2 0,-1.625 1.9999996,1.5 0,0.125 0,1.5 0,0.5 0.4999998,0 0.9999996,0 0.5,0 0,-0.5 0,-0.441406 0.777344,0.388672 c 0.608738,0.335133 1.079658,-0.610838 0.445312,-0.894532 l -1.222656,-0.611328 0,-0.441406 c 0,-0.277 -0.223,-0.5000004 -0.5,-0.5000004 l -0.9999996,0 L 7,8.125 7,7.5 C 7,7.223 6.777,7 6.5,7 Z m 3.4999996,0 0,2 1.9999994,0 0,-2 z" opacity="1"/></svg>