<svg xmlns="http://www.w3.org/2000/svg" xmlns:svg="http://www.w3.org/2000/svg" xmlns:xlink="http://www.w3.org/1999/xlink" id="svg4045" width="48" height="48" version="1.1"><defs id="defs4047"><linearGradient id="linearGradient3731"><stop id="stop3733" offset="0" stop-color="#fff" stop-opacity="1"/><stop id="stop3735" offset=".027" stop-color="#fff" stop-opacity=".235"/><stop id="stop3737" offset=".974" stop-color="#fff" stop-opacity=".157"/><stop id="stop3739" offset="1" stop-color="#fff" stop-opacity=".392"/></linearGradient><linearGradient id="linearGradient2867-449-88-871-390-598-476-591-434-148-57-177-641-289-620-227-114-444-680-744-8"><stop id="stop5430-8" offset="0" stop-color="#5f5f5f" stop-opacity="1"/><stop id="stop5432-3" offset=".262" stop-color="#4f4f4f" stop-opacity="1"/><stop id="stop5434-1" offset=".705" stop-color="#3b3b3b" stop-opacity="1"/><stop id="stop5436-8" offset="1" stop-color="#2b2b2b" stop-opacity="1"/></linearGradient><linearGradient id="linearGradient3707-319-631-407-324-616-674-812-821-107-178-392-400-6"><stop id="stop5440-4" offset="0" stop-color="#272727" stop-opacity="1"/><stop id="stop5442-3" offset="1" stop-color="#454545" stop-opacity="1"/></linearGradient><linearGradient id="linearGradient8967"><stop id="stop8969" offset="0" stop-color="#ffbd5d" stop-opacity="1"/><stop id="stop8971" offset="1" stop-color="#d17b01" stop-opacity="1"/></linearGradient><linearGradient id="linearGradient3319"><stop id="stop3321" offset="0" stop-color="#fc9501" stop-opacity="1"/><stop id="stop3323" offset="1" stop-color="#6b440d" stop-opacity="1"/></linearGradient><linearGradient id="linearGradient2346"><stop id="stop2348" offset="0" stop-color="#eee" stop-opacity="1"/><stop id="stop2350" offset="1" stop-color="#d9d9da" stop-opacity="1"/></linearGradient><linearGradient id="linearGradient3707-319-631-407-324-616-674-812-821-107-178-392-400-6-2"><stop id="stop5440-4-8" offset="0" stop-color="#272727" stop-opacity="1"/><stop id="stop5442-3-8" offset="1" stop-color="#454545" stop-opacity="1"/></linearGradient><radialGradient id="radialGradient3013" cx="4.993" cy="43.5" r="2.5" fx="4.993" fy="43.5" gradientTransform="matrix(2.003784,0,0,1.4,27.98813,-17.4)" gradientUnits="userSpaceOnUse" xlink:href="#linearGradient3688-166-749"/><linearGradient id="linearGradient3688-166-749"><stop id="stop2883" offset="0" stop-color="#181818" stop-opacity="1"/><stop id="stop2885" offset="1" stop-color="#181818" stop-opacity="0"/></linearGradient><radialGradient id="radialGradient3015" cx="4.993" cy="43.5" r="2.5" fx="4.993" fy="43.5" gradientTransform="matrix(2.003784,0,0,1.4,-20.01187,-104.4)" gradientUnits="userSpaceOnUse" xlink:href="#linearGradient3688-464-309"/><linearGradient id="linearGradient3688-464-309"><stop id="stop2889" offset="0" stop-color="#181818" stop-opacity="1"/><stop id="stop2891" offset="1" stop-color="#181818" stop-opacity="0"/></linearGradient><linearGradient id="linearGradient3702-501-757"><stop id="stop2895" offset="0" stop-color="#181818" stop-opacity="0"/><stop id="stop2897" offset=".5" stop-color="#181818" stop-opacity="1"/><stop id="stop2899" offset="1" stop-color="#181818" stop-opacity="0"/></linearGradient><linearGradient id="linearGradient4043" x1="25.058" x2="25.058" y1="47.028" y2="39.999" gradientUnits="userSpaceOnUse" xlink:href="#linearGradient3702-501-757"/><linearGradient id="linearGradient3072" x1="24" x2="24" y1="5" y2="43" gradientTransform="matrix(0.89189189,0,0,1.0540541,2.5945964,-1.2972859)" gradientUnits="userSpaceOnUse" xlink:href="#linearGradient3731"/><radialGradient id="radialGradient3075" cx="7.496" cy="8.45" r="20" fx="7.496" fy="8.45" gradientTransform="matrix(1.9428467e-8,2.4568358,-2.4722567,-4.5264291e-8,46.890103,-14.303252)" gradientUnits="userSpaceOnUse" xlink:href="#linearGradient2867-449-88-871-390-598-476-591-434-148-57-177-641-289-620-227-114-444-680-744-8"/><linearGradient id="linearGradient3077" x1="24" x2="24" y1="44" y2="3.899" gradientTransform="matrix(1,0,0,1.0512821,2.0000013,-1.2307699)" gradientUnits="userSpaceOnUse" xlink:href="#linearGradient3707-319-631-407-324-616-674-812-821-107-178-392-400-6"/><radialGradient id="radialGradient3080" cx="24.502" cy="6.648" r="17.498" fx="24.502" fy="6.648" gradientTransform="matrix(0,2.744544,-3.1834145,0,45.663735,-64.070829)" gradientUnits="userSpaceOnUse" xlink:href="#linearGradient8967"/><linearGradient id="linearGradient3082" x1="32.901" x2="32.901" y1="4.648" y2="61.482" gradientTransform="matrix(0.7007108,0,0,0.73712869,2.0789348,-0.12442511)" gradientUnits="userSpaceOnUse" xlink:href="#linearGradient3319"/><linearGradient id="linearGradient3085" x1="10.654" x2="10.654" y1="1" y2="3" gradientUnits="userSpaceOnUse" xlink:href="#linearGradient2346"/><linearGradient id="linearGradient3087" x1="24" x2="24" y1="44" y2="3.899" gradientTransform="matrix(1,0,0,0.10256346,2.0002611,0.03848905)" gradientUnits="userSpaceOnUse" xlink:href="#linearGradient3707-319-631-407-324-616-674-812-821-107-178-392-400-6-2"/><linearGradient id="linearGradient3090" x1="24.627" x2="24.64" y1="3.123" y2="4.883" gradientTransform="matrix(1.0040453,0,0,1.5380658,1.2232785,-4.0400179)" gradientUnits="userSpaceOnUse" xlink:href="#linearGradient2346"/><linearGradient id="linearGradient3092" x1="5.212" x2="54.887" y1=".065" y2=".065" gradientTransform="matrix(0.7162781,0,0,0.7471593,2.1541503,-0.05165168)" gradientUnits="userSpaceOnUse" xlink:href="#linearGradient3319"/></defs><metadata id="metadata4050"/><g id="g3712" opacity=".4" transform="matrix(1.0526316,0,0,0.57142859,-1.2631579,19.142856)"><rect id="rect2801" width="5" height="7" x="38" y="40" fill="url(#radialGradient3013)" fill-opacity="1" stroke="none"/><rect id="rect3696" width="5" height="7" x="-10" y="-47" fill="url(#radialGradient3015)" fill-opacity="1" stroke="none" transform="scale(-1,-1)"/><rect id="rect3700" width="28" height="7" x="10" y="40" fill="url(#linearGradient4043)" fill-opacity="1" stroke="none"/></g><path id="path2723" fill="url(#linearGradient3090)" fill-opacity="1" stroke="url(#linearGradient3092)" stroke-dasharray="none" stroke-dashoffset="0" stroke-linecap="butt" stroke-linejoin="round" stroke-miterlimit="0" stroke-opacity="1" stroke-width="1.017" d="M 40.838991,3.217154 C 40.543588,2.2259354 40.727705,1.4453462 40.56455,0.49999976 l -30.239763,0 0.178478,3.00000004" display="inline"/><path id="rect5505-21-3-9" fill="url(#linearGradient3085)" fill-opacity="1" fill-rule="nonzero" stroke="url(#linearGradient3087)" stroke-dasharray="none" stroke-dashoffset="0" stroke-linecap="round" stroke-linejoin="round" stroke-miterlimit="4" stroke-opacity="1" stroke-width="1" d="m 11.50026,4.4999996 -4.0000002,0 c -0.5708481,0 -1,-0.042333 -1,-0.09756 l 0,-2.7964211 c 0,-0.88791952 0.5590322,-1.10599346 1.2908943,-1.10599346 l 3.7091059,0" color="#000" display="inline" enable-background="accumulate" overflow="visible" visibility="visible" style="marker:none"/><rect id="rect2719" width="33.978" height="40.981" x="7.513" y="3.51" fill="url(#radialGradient3080)" fill-opacity="1" stroke="url(#linearGradient3082)" stroke-dasharray="none" stroke-dashoffset="0" stroke-linecap="round" stroke-linejoin="round" stroke-miterlimit="0" stroke-opacity="1" stroke-width="1.019" display="inline" rx="1" ry="1"/><path id="rect5505-21-3" fill="url(#radialGradient3075)" fill-opacity="1" fill-rule="nonzero" stroke="url(#linearGradient3077)" stroke-dasharray="none" stroke-dashoffset="0" stroke-linecap="round" stroke-linejoin="round" stroke-miterlimit="4" stroke-opacity="1" stroke-width="1" d="m 11.5,3.4999998 c 0,0 0,28.5091172 0,41.0000002 l -4,0 c -0.5708481,0 -1,-0.43395 -1,-1 l 0,-40.0000002 z" color="#000" display="inline" enable-background="accumulate" overflow="visible" visibility="visible" style="marker:none"/><rect id="rect6741-0" width="33" height="39" x="7.5" y="4.5" fill="none" stroke="url(#linearGradient3072)" stroke-dasharray="none" stroke-dashoffset="0" stroke-linecap="round" stroke-linejoin="round" stroke-miterlimit="4" stroke-opacity="1" stroke-width="1" opacity=".5"/><path id="path4095-2" fill="#000" fill-opacity="1" stroke="none" d="m 25.391456,11.031048 c -0.261334,0.0093 -0.328272,0.03447 -0.358057,0.06349 -0.06148,0.05995 -0.03256,0.843454 -0.03256,13.309456 0,10.657239 -0.0075,13.502352 0.03256,13.541492 0.0746,0.07276 3.966601,0.05417 3.966601,0.05417 0,0 0,-0.324815 0,-0.70471 0,-0.442621 0,-0.57093 0,-0.57093 0,0 0.105518,0.158526 0.232438,0.300842 0.479551,0.537721 1.381798,0.945172 2.00903,1.111105 C 32.71838,38.363108 34.622925,37.620778 35,36.35819 c 0.07192,-0.258086 0.09766,-0.457016 0.09766,-9.192307 0,-8.735293 -0.02572,-9.297421 -0.09766,-9.555508 -0.881818,-1.705941 -2.246085,-1.918367 -3.986386,-1.746025 -0.598257,0.208556 -1.362732,0.615782 -1.813727,1.142852 -0.149554,0.17478 -0.149595,0.317459 -0.167954,0.317459 -0.01836,0 -0.0651,-1.054237 -0.0651,-2.896809 0,-3.269028 0.01638,-3.322479 -0.0651,-3.365063 -0.05378,-0.02808 -0.859165,-0.03175 -2.012932,-0.03175 -0.786493,0 -1.23599,-0.0093 -1.497325,0 z m 4.680556,8.176422 c 0.498571,-0.002 0.829531,0.305542 0.911415,0.920631 0.0554,0.416218 0.05559,13.728234 0,14.144663 -0.0228,0.17131 -0.0735,0.418868 -0.130202,0.53968 -0.378018,0.393169 -0.816245,0.252066 -1.3604,0.18068 -0.299027,-0.17045 -0.45306,-0.372551 -0.499981,-0.666664 l 0.0052,-7.065333 c -0.0081,-5.086552 -0.02947,-7.116557 0.002,-7.261473 0.0965,-0.444539 0.626265,-0.790286 1.072012,-0.792184 z" opacity=".2"/><path id="path4095" fill="#fff" fill-opacity="1" stroke="none" d="m 25.391456,10.031394 c -0.261334,0.0093 -0.328272,0.03447 -0.358057,0.06349 -0.06148,0.05995 -0.03256,0.843454 -0.03256,13.309456 0,10.657239 -0.0075,13.502352 0.03256,13.541492 C 25.107999,37.018592 29,37 29,37 c 0,0 0,-0.324815 0,-0.70471 0,-0.442621 0,-0.57093 0,-0.57093 0,0 0.105518,0.158526 0.232438,0.300842 0.479551,0.537721 1.381798,0.945172 2.00903,1.111105 1.476912,0.227145 3.381457,-0.515185 3.758532,-1.777773 0.07192,-0.258086 0.09766,-0.457016 0.09766,-9.192307 0,-8.735293 -0.02572,-9.297421 -0.09766,-9.555508 -0.881818,-1.705941 -2.260318,-2.027162 -3.986386,-1.746025 -0.625327,0.101851 -1.362732,0.615782 -1.813727,1.142852 -0.149554,0.17478 -0.149595,0.317459 -0.167954,0.317459 -0.01836,0 -0.0651,-1.054237 -0.0651,-2.896809 0,-3.269028 0.01638,-3.322479 -0.0651,-3.365063 -0.05378,-0.02808 -0.859165,-0.03175 -2.012932,-0.03175 -0.786493,0 -1.23599,-0.0093 -1.497325,0 z m 4.680556,8.176422 c 0.498571,-0.002 0.829531,0.305542 0.911415,0.920631 0.0554,0.416218 0.05559,13.728234 0,14.144663 -0.0228,0.17131 -0.0735,0.418868 -0.130202,0.53968 -0.378018,0.393169 -0.816245,0.252066 -1.3604,0.18068 -0.299027,-0.17045 -0.45306,-0.372551 -0.499981,-0.666664 l 0.0052,-7.065333 C 28.989957,21.174921 28.96857,19.144916 29,19 c 0.0965,-0.444539 0.626265,-0.790286 1.072012,-0.792184 z"/><path id="path4071-2" fill="#000" fill-opacity="1" stroke="none" d="m 22.029121,11.021821 c -1.121421,3.8e-5 -1.817739,0.03923 -2.227836,0.142476 -0.83833,0.211058 -1.494917,0.72072 -1.728245,1.496001 C 18.00767,12.877492 18,13.136501 18,14.690586 l 0,1.309068 -0.990213,0.0075 -0.0098,2.9925 1,0 0,9.632297 c 0.006,5.275101 0,9.367703 0,9.367703 l 4,0 0,-9.347709 0,-9.65277 0.503936,0 C 22.896041,18.990775 23,18.999654 23,18.999654 c 0,0 0.008,-0.530994 0,-1.532101 l 0,-1.467899 -0.459542,0.0075 L 22,15.999654 l 0,-0.248 c -0.01282,-0.772388 -0.04687,-1.284549 0.102194,-1.452893 0.129137,-0.145835 0.300514,-0.256373 0.693917,-0.284953 L 23,13.978178 23.03654,12.553415 C 23.04464,11.534377 23.03514,11.134199 23,11.093033 c -0.03908,-0.04593 -0.140943,-0.07127 -0.97085,-0.07124 z" opacity=".2"/><path id="path4071" fill="#fff" fill-opacity="1" stroke="none" d="m 22.029121,10.022167 c -1.121421,3.8e-5 -1.817739,0.03923 -2.227836,0.142476 -0.83833,0.211058 -1.494917,0.72072 -1.728245,1.496001 C 18.00767,11.877838 18,12.136847 18,13.690932 L 18,15 17.009787,15.0075 17,18 l 1,0 0,9.632297 C 18.006,32.907398 18,37 18,37 l 4,0 0,-9.347709 0,-9.65277 0.503936,0 C 22.896041,17.991121 23,18 23,18 c 0,0 0.008,-0.530994 0,-1.532101 L 23,15 22.540458,15.0075 22,15 22,14.752 c -0.01282,-0.772388 -0.04687,-1.284549 0.102194,-1.452893 0.129137,-0.145835 0.175706,-0.256373 0.569109,-0.284953 L 23,12.978524 23.03654,11.553761 C 23.04464,10.534723 23.03514,10.134545 23,10.093379 c -0.03908,-0.04593 -0.140943,-0.07127 -0.97085,-0.07124 z"/></svg>