<svg xmlns="http://www.w3.org/2000/svg" xmlns:svg="http://www.w3.org/2000/svg" xmlns:xlink="http://www.w3.org/1999/xlink" id="svg3901" width="48" height="48" version="1.1"><defs id="defs3903"><linearGradient id="linearGradient853"><stop id="stop849" offset="0" stop-color="#a56de2" stop-opacity="1"/><stop id="stop851" offset="1" stop-color="#7239b3" stop-opacity="1"/></linearGradient><linearGradient id="linearGradient3490"><stop id="stop3492" offset="0" stop-color="#fff" stop-opacity="1"/><stop id="stop3494" offset="0" stop-color="#fff" stop-opacity=".235"/><stop id="stop3496" offset="1" stop-color="#fff" stop-opacity=".157"/><stop id="stop3498" offset="1" stop-color="#fff" stop-opacity=".392"/></linearGradient><linearGradient id="linearGradient3600"><stop id="stop3602" offset="0" stop-color="#f4f4f4" stop-opacity="1"/><stop id="stop3604" offset="1" stop-color="#dbdbdb" stop-opacity="1"/></linearGradient><linearGradient id="linearGradient5060"><stop id="stop5062" offset="0" stop-color="#000" stop-opacity="1"/><stop id="stop5064" offset="1" stop-color="#000" stop-opacity="0"/></linearGradient><linearGradient id="linearGradient5048"><stop id="stop5050" offset="0" stop-color="#000" stop-opacity="0"/><stop id="stop5056" offset=".5" stop-color="#000" stop-opacity="1"/><stop id="stop5052" offset="1" stop-color="#000" stop-opacity="0"/></linearGradient><linearGradient id="linearGradient3104-6"><stop id="stop3106-3" offset="0" stop-color="#000" stop-opacity=".318"/><stop id="stop3108-9" offset="1" stop-color="#000" stop-opacity=".24"/></linearGradient><linearGradient id="linearGradient3106" x1="24" x2="24" y1="5.94" y2="42.111" gradientTransform="matrix(0.89189189,0,0,1.1351351,2.5945999,-4.7432314)" gradientUnits="userSpaceOnUse" xlink:href="#linearGradient3490"/><linearGradient id="linearGradient3109" x1="25.132" x2="25.132" y1=".985" y2="47.013" gradientTransform="matrix(0.97142632,0,0,0.93431938,0.68576678,-1.3569996)" gradientUnits="userSpaceOnUse" xlink:href="#linearGradient3600"/><radialGradient id="radialGradient3112" cx="605.714" cy="486.648" r="117.143" fx="605.714" fy="486.648" gradientTransform="matrix(0.02303995,0,0,0.01470022,26.360882,37.040176)" gradientUnits="userSpaceOnUse" xlink:href="#linearGradient5060"/><radialGradient id="radialGradient3115" cx="605.714" cy="486.648" r="117.143" fx="605.714" fy="486.648" gradientTransform="matrix(-0.02303994,0,0,0.01470022,21.62311,37.040176)" gradientUnits="userSpaceOnUse" xlink:href="#linearGradient5060"/><linearGradient id="linearGradient3118" x1="302.857" x2="302.857" y1="366.648" y2="609.505" gradientTransform="matrix(0.06732488,0,0,0.01470022,-0.3411391,37.040146)" gradientUnits="userSpaceOnUse" xlink:href="#linearGradient5048"/><linearGradient id="linearGradient3170" x1="-51.786" x2="-51.786" y1="50.786" y2="2.906" gradientTransform="matrix(0.80749686,0,0,0.89471714,59.410232,-2.9773433)" gradientUnits="userSpaceOnUse" xlink:href="#linearGradient3104-6"/><linearGradient id="linearGradient855" x1="25.023" x2="25.023" y1=".661" y2="44.306" gradientUnits="userSpaceOnUse" xlink:href="#linearGradient853"/></defs><metadata id="metadata3906"/><rect id="rect2879" width="32.508" height="3.57" x="7.738" y="42.43" fill="url(#linearGradient3118)" fill-opacity="1" fill-rule="nonzero" stroke="none" stroke-width="1" display="inline" opacity=".3" overflow="visible" visibility="visible" style="marker:none"/><path d="m 7.7378475,42.430102 0,3.569856 C 6.5513473,46.006658 4.869468,45.200135 4.869468,44.2148 c 0,-0.985333 1.3240446,-1.784697 2.8683795,-1.784698 z" style="marker:none" id="path2881" fill="url(#radialGradient3115)" fill-opacity="1" fill-rule="nonzero" stroke="none" stroke-width="1" display="inline" opacity=".3" overflow="visible" visibility="visible"/><path d="m 40.246148,42.430102 0,3.569856 c 1.1865,0.0067 2.86838,-0.799823 2.86838,-1.785158 0,-0.985333 -1.324045,-1.784697 -2.86838,-1.784698 z" style="marker:none" id="path2883" fill="url(#radialGradient3112)" fill-opacity="1" fill-rule="nonzero" stroke="none" stroke-width="1" display="inline" opacity=".3" overflow="visible" visibility="visible"/><path id="path4160" fill="url(#linearGradient3109)" fill-opacity="1" stroke="none" d="m 7,1.0000001 c 7.791126,0 33.999959,0.00274 33.999959,0.00274 L 41,44 7,44 Z" display="inline"/><path id="rect6741-1" fill="none" stroke="url(#linearGradient3106)" stroke-dasharray="none" stroke-dashoffset="0" stroke-linecap="round" stroke-linejoin="miter" stroke-miterlimit="4" stroke-opacity="1" stroke-width="1" d="m 40.5,43.5 -33,0 0,-41.9999998 33,0 z"/><path id="path4160-6-1" fill="none" stroke="url(#linearGradient3170)" stroke-dasharray="none" stroke-dashoffset="0" stroke-linecap="butt" stroke-linejoin="round" stroke-miterlimit="4" stroke-opacity="1" stroke-width="1" d="m 6.4999605,0.4999623 c 8.0202885,0 35.0000415,0.00298 35.0000415,0.00298 l 3.7e-5,43.9970957 -35.0000785,0 0,-43.9998923 z" display="inline"/><path color-rendering="auto" style="line-height:125%;-inkscape-font-specification:'Loma Bold';isolation:auto;mix-blend-mode:normal;solid-color:#000;solid-opacity:1;marker:none" id="path4306" fill="url(#linearGradient855)" fill-opacity="1" fill-rule="nonzero" stroke="none" stroke-dasharray="none" stroke-dashoffset="0" stroke-linecap="butt" stroke-linejoin="round" stroke-miterlimit="4" stroke-opacity="1" stroke-width="1" d="m 24.101562,17.058594 c -0.706948,0 -1.514914,0.162088 -2.099609,0.486328 -0.57938,0.32424 -1.033725,0.764146 -1.363281,1.322266 -0.32424,0.558116 -0.486328,1.172054 -0.486328,1.841796 l 0.05469,0.341797 1.853516,-0.02734 0.0059,-0.314454 c 0,-0.382709 0.04416,-0.926008 0.4375,-1.367187 0.398656,-0.441175 1.148022,-0.529297 1.621094,-0.529297 0.170093,0 0.347164,0.02693 0.533203,0.08008 0.191355,0.04784 0.387858,0.126657 0.589844,0.238281 0.201985,0.106308 0.368524,0.268396 0.496094,0.486329 0.132888,0.212617 0.199218,0.465465 0.199218,0.757812 0,0.138201 -0.01444,0.270868 -0.04102,0.398438 -0.02658,0.122254 -0.07847,0.279348 -0.158203,0.470703 -0.07973,0.191355 -0.216848,0.405337 -0.408203,0.644531 -0.18604,0.233878 -0.424449,0.486726 -0.716797,0.757812 -0.19667,0.180724 -0.353765,0.332824 -0.470703,0.455078 -0.111624,0.11694 -0.246788,0.286519 -0.40625,0.509766 -0.159463,0.217932 -0.28464,0.436365 -0.375,0.654297 -0.08505,0.217932 -0.158867,0.495207 -0.222657,0.830078 -0.05401,0.279024 -0.07961,0.58336 -0.08789,0.904297 l 1.923828,0 c 0.0098,-0.217202 0.02235,-0.434017 0.06836,-0.634766 0.05847,-0.255139 0.122306,-0.466625 0.191406,-0.636718 0.0691,-0.175409 0.179294,-0.369415 0.328125,-0.582032 0.148832,-0.212616 0.26456,-0.36721 0.34961,-0.46289 0.09036,-0.100993 0.232473,-0.253093 0.423828,-0.455078 0.196669,-0.207301 0.326835,-0.344963 0.390625,-0.414063 0.749473,-0.829204 1.123047,-1.632153 1.123047,-2.408203 0,-1.004613 -0.353598,-1.812556 -1.060547,-2.423828 -0.701635,-0.616588 -1.598384,-0.923828 -2.69336,-0.923828 z M 18,17.5 11,21.666016 11,23.333984 18,27.5 18,25.833984 12.554688,22.503906 18,19.166016 18,17.5 Z m 12,0 0,1.666016 5.445312,3.33789 L 30,25.833984 30,27.5 37,23.333984 37,21.666016 30,17.5 Z m -7,10.5 0,2 2,0 0,-2 -2,0 z" clip-rule="nonzero" color="#000" color-interpolation="sRGB" color-interpolation-filters="linearRGB" display="inline" enable-background="accumulate" font-family="Loma" font-size="medium" font-stretch="normal" font-style="normal" font-variant="normal" font-weight="bold" image-rendering="auto" letter-spacing=".816" opacity="1" overflow="visible" shape-rendering="auto" text-rendering="auto" visibility="visible" word-spacing="0"/></svg>