<svg xmlns="http://www.w3.org/2000/svg" xmlns:svg="http://www.w3.org/2000/svg" xmlns:xlink="http://www.w3.org/1999/xlink" id="svg3901" width="48" height="48" version="1.1"><defs id="defs3903"><linearGradient id="linearGradient3403"><stop id="stop3405" offset="0" stop-color="#fff" stop-opacity="1"/><stop id="stop3407" offset="0" stop-color="#fff" stop-opacity=".235"/><stop id="stop3409" offset="1" stop-color="#fff" stop-opacity=".157"/><stop id="stop3411" offset="1" stop-color="#fff" stop-opacity=".392"/></linearGradient><linearGradient id="linearGradient3600"><stop id="stop3602" offset="0" stop-color="#f4f4f4" stop-opacity="1"/><stop id="stop3604" offset="1" stop-color="#dbdbdb" stop-opacity="1"/></linearGradient><linearGradient id="linearGradient5060"><stop id="stop5062" offset="0" stop-color="#000" stop-opacity="1"/><stop id="stop5064" offset="1" stop-color="#000" stop-opacity="0"/></linearGradient><linearGradient id="linearGradient5048"><stop id="stop5050" offset="0" stop-color="#000" stop-opacity="0"/><stop id="stop5056" offset=".5" stop-color="#000" stop-opacity="1"/><stop id="stop5052" offset="1" stop-color="#000" stop-opacity="0"/></linearGradient><linearGradient id="linearGradient3104-6"><stop id="stop3106-3" offset="0" stop-color="#000" stop-opacity=".318"/><stop id="stop3108-9" offset="1" stop-color="#000" stop-opacity=".24"/></linearGradient><linearGradient id="linearGradient3106" x1="24" x2="24" y1="5.94" y2="42.111" gradientTransform="matrix(0.89189189,0,0,1.1351351,2.5945999,-4.7432314)" gradientUnits="userSpaceOnUse" xlink:href="#linearGradient3403"/><linearGradient id="linearGradient3109" x1="25.132" x2="25.132" y1=".985" y2="47.013" gradientTransform="matrix(0.97142632,0,0,0.93431938,0.68576678,-1.3569996)" gradientUnits="userSpaceOnUse" xlink:href="#linearGradient3600"/><radialGradient id="radialGradient3112" cx="605.714" cy="486.648" r="117.143" fx="605.714" fy="486.648" gradientTransform="matrix(0.02303995,0,0,0.01470022,26.360882,37.040176)" gradientUnits="userSpaceOnUse" xlink:href="#linearGradient5060"/><radialGradient id="radialGradient3115" cx="605.714" cy="486.648" r="117.143" fx="605.714" fy="486.648" gradientTransform="matrix(-0.02303994,0,0,0.01470022,21.62311,37.040176)" gradientUnits="userSpaceOnUse" xlink:href="#linearGradient5060"/><linearGradient id="linearGradient3118" x1="302.857" x2="302.857" y1="366.648" y2="609.505" gradientTransform="matrix(0.06732488,0,0,0.01470022,-0.3411391,37.040146)" gradientUnits="userSpaceOnUse" xlink:href="#linearGradient5048"/><linearGradient id="linearGradient3170" x1="-51.786" x2="-51.786" y1="50.786" y2="2.906" gradientTransform="matrix(0.80749686,0,0,0.89471714,59.410232,-2.9773433)" gradientUnits="userSpaceOnUse" xlink:href="#linearGradient3104-6"/><linearGradient id="linearGradient1063" x1="-17.375" x2="-17.375" y1="-6.125" y2="37.725" gradientTransform="matrix(0.73913045,0,0,0.74477236,34.279982,4.8839498)" gradientUnits="userSpaceOnUse" xlink:href="#linearGradient1061"/><linearGradient id="linearGradient1061"><stop id="stop1057" offset="0" stop-color="#4d4d4d" stop-opacity="1"/><stop id="stop1059" offset="1" stop-color="#333" stop-opacity="1"/></linearGradient><linearGradient id="linearGradient1071" x1="44" x2="44" y1="0" y2="44.5" gradientTransform="matrix(0.73913043,0,0,0.73913043,0.80112621,0.26087012)" gradientUnits="userSpaceOnUse" xlink:href="#linearGradient1069"/><linearGradient id="linearGradient1069"><stop id="stop1065" offset="0" stop-color="#ed5353" stop-opacity="1"/><stop id="stop1067" offset="1" stop-color="#c6262e" stop-opacity="1"/></linearGradient></defs><metadata id="metadata3906"/><rect id="rect2879" width="32.508" height="3.57" x="7.738" y="42.43" fill="url(#linearGradient3118)" fill-opacity="1" fill-rule="nonzero" stroke="none" stroke-width="1" display="inline" opacity=".3" overflow="visible" visibility="visible" style="marker:none"/><path id="path2881" fill="url(#radialGradient3115)" fill-opacity="1" fill-rule="nonzero" stroke="none" stroke-width="1" d="m 7.7378475,42.430102 c 0,0 0,3.569856 0,3.569856 -1.1865002,0.0067 -2.8683795,-0.799823 -2.8683795,-1.785158 0,-0.985333 1.3240446,-1.784697 2.8683795,-1.784698 z" display="inline" opacity=".3" overflow="visible" visibility="visible" style="marker:none"/><path id="path2883" fill="url(#radialGradient3112)" fill-opacity="1" fill-rule="nonzero" stroke="none" stroke-width="1" d="m 40.246148,42.430102 c 0,0 0,3.569856 0,3.569856 1.1865,0.0067 2.86838,-0.799823 2.86838,-1.785158 0,-0.985333 -1.324045,-1.784697 -2.86838,-1.784698 z" display="inline" opacity=".3" overflow="visible" visibility="visible" style="marker:none"/><path id="path4160" fill="url(#linearGradient3109)" fill-opacity="1" stroke="none" d="m 7,1.0000001 c 7.791126,0 33.999959,0.00274 33.999959,0.00274 L 41,44 C 41,44 18.333334,44 7,44 7,29.666666 7,15.333333 7,1 z" display="inline"/><path id="rect6741-1" fill="none" stroke="url(#linearGradient3106)" stroke-dasharray="none" stroke-dashoffset="0" stroke-linecap="round" stroke-linejoin="miter" stroke-miterlimit="4" stroke-opacity="1" stroke-width="1" d="m 40.5,43.5 -33,0 0,-41.9999998 33,0 z"/><path id="path4160-6-1" fill="none" stroke="url(#linearGradient3170)" stroke-dasharray="none" stroke-dashoffset="0" stroke-linecap="butt" stroke-linejoin="round" stroke-miterlimit="4" stroke-opacity="1" stroke-width="1" d="m 6.4999605,0.4999623 c 8.0202885,0 35.0000415,0.00298 35.0000415,0.00298 l 3.7e-5,43.9970957 c 0,0 -23.333385,0 -35.0000785,0 0,-14.666738 0,-29.333326 0,-43.9998923 z" display="inline"/><path font-family="sans-serif" style="line-height:1.25" id="text942" fill="url(#linearGradient1071)" fill-opacity="1" stroke="none" stroke-width="1" d="m 30.761893,17.855639 c -1.616847,0 -2.997905,0.553385 -4.143172,1.660156 -1.145267,1.106771 -2.025872,2.507077 -2.641814,4.200917 -0.279098,0.769928 -0.486016,1.544668 -0.620754,2.324219 -0.134737,0.769928 -0.202106,1.544667 -0.202106,2.324219 0,0.769927 0.110677,1.45805 0.332031,2.064368 0.615943,1.684216 1.799706,2.526325 3.551291,2.526325 1.751585,0 3.238508,-0.914289 4.460768,-2.742867 0.115489,0.875792 0.42346,1.554291 0.923913,2.035496 0.500452,0.471581 1.140455,0.707371 1.920006,0.707371 0.789177,0 1.438803,-0.279099 1.94888,-0.837297 0.288722,-0.327219 0.640002,-1.044214 1.053838,-2.150985 -0.173234,0.08662 -0.389776,0.129926 -0.649626,0.129926 -0.808424,0 -1.212636,-0.336844 -1.212636,-1.01053 0,-0.356092 0.04331,-0.702559 0.129925,-1.039402 L 37.73455,18 h -4.258662 l -0.317595,1.57354 v -0.216542 c 0,-0.433085 -0.187669,-0.789176 -0.56301,-1.068275 C 32.219943,18 31.608814,17.855639 30.761893,17.855639 Z m 0.793988,1.83339 c 0.548573,0 0.904665,0.144362 1.068275,0.433084 0.173233,0.279099 0.25985,0.510077 0.25985,0.692935 l -1.414741,6.669497 c -0.182858,0.808424 -0.51489,1.448427 -0.996094,1.920007 -0.481205,0.461957 -1.015342,0.692935 -1.602412,0.692935 -0.317595,0 -0.582258,-0.105866 -0.793988,-0.317595 -0.365715,-0.346468 -0.548573,-0.957598 -0.548573,-1.83339 0,-0.452333 0.02406,-0.880605 0.07218,-1.284817 0.317596,-2.646626 1.101959,-4.67731 2.353091,-6.092052 0.519701,-0.587069 1.053839,-0.880604 1.602412,-0.880604 z" font-size="40" font-style="normal" font-weight="normal" letter-spacing="0" word-spacing="0"/><path id="text80" fill="url(#linearGradient1063)" fill-opacity="1" stroke="none" stroke-dasharray="none" stroke-dashoffset="0" stroke-linecap="butt" stroke-linejoin="miter" stroke-miterlimit="4" stroke-opacity="1" stroke-width="1" d="m 17.859375,13 -7.054687,20 h 4.566406 l 1.449218,-5 h 7.28711 l 1.449219,5 h 4.566406 L 23.041016,13 Z m 2.611328,3.091797 2.625,8.908203 h -5.208984 c 1.421875,-4.586739 2.583984,-8.908203 2.583984,-8.908203 z" font-family="Open Sans" font-size="27.951" font-stretch="normal" font-style="normal" font-variant="normal" font-weight="bold" letter-spacing="0" opacity="1" vector-effect="none" word-spacing="0" style="line-height:1.25;-inkscape-font-specification:'Open Sans Bold'"/></svg>