<svg xmlns="http://www.w3.org/2000/svg" xmlns:svg="http://www.w3.org/2000/svg" xmlns:xlink="http://www.w3.org/1999/xlink" id="svg3901" width="48" height="48" version="1.1"><defs id="defs3903"><linearGradient id="linearGradient3403"><stop id="stop3405" offset="0" stop-color="#fff" stop-opacity="1"/><stop id="stop3407" offset="0" stop-color="#fff" stop-opacity=".235"/><stop id="stop3409" offset="1" stop-color="#fff" stop-opacity=".157"/><stop id="stop3411" offset="1" stop-color="#fff" stop-opacity=".392"/></linearGradient><linearGradient id="linearGradient3600"><stop id="stop3602" offset="0" stop-color="#f4f4f4" stop-opacity="1"/><stop id="stop3604" offset="1" stop-color="#dbdbdb" stop-opacity="1"/></linearGradient><linearGradient id="linearGradient5060"><stop id="stop5062" offset="0" stop-color="#000" stop-opacity="1"/><stop id="stop5064" offset="1" stop-color="#000" stop-opacity="0"/></linearGradient><linearGradient id="linearGradient5048"><stop id="stop5050" offset="0" stop-color="#000" stop-opacity="0"/><stop id="stop5056" offset=".5" stop-color="#000" stop-opacity="1"/><stop id="stop5052" offset="1" stop-color="#000" stop-opacity="0"/></linearGradient><linearGradient id="linearGradient3104-6"><stop id="stop3106-3" offset="0" stop-color="#000" stop-opacity=".318"/><stop id="stop3108-9" offset="1" stop-color="#000" stop-opacity=".24"/></linearGradient><linearGradient id="linearGradient3106" x1="24" x2="24" y1="5.94" y2="42.111" gradientTransform="matrix(0.89189189,0,0,1.1351351,2.5945999,-4.7432314)" gradientUnits="userSpaceOnUse" xlink:href="#linearGradient3403"/><linearGradient id="linearGradient3109" x1="25.132" x2="25.132" y1=".985" y2="47.013" gradientTransform="matrix(0.97142632,0,0,0.93431938,0.68576678,-1.3569996)" gradientUnits="userSpaceOnUse" xlink:href="#linearGradient3600"/><radialGradient id="radialGradient3112" cx="605.714" cy="486.648" r="117.143" fx="605.714" fy="486.648" gradientTransform="matrix(0.02303995,0,0,0.01470022,26.360882,37.040176)" gradientUnits="userSpaceOnUse" xlink:href="#linearGradient5060"/><radialGradient id="radialGradient3115" cx="605.714" cy="486.648" r="117.143" fx="605.714" fy="486.648" gradientTransform="matrix(-0.02303994,0,0,0.01470022,21.62311,37.040176)" gradientUnits="userSpaceOnUse" xlink:href="#linearGradient5060"/><linearGradient id="linearGradient3118" x1="302.857" x2="302.857" y1="366.648" y2="609.505" gradientTransform="matrix(0.06732488,0,0,0.01470022,-0.3411391,37.040146)" gradientUnits="userSpaceOnUse" xlink:href="#linearGradient5048"/><linearGradient id="linearGradient3170" x1="-51.786" x2="-51.786" y1="50.786" y2="2.906" gradientTransform="matrix(0.80749686,0,0,0.89471714,59.410232,-2.9773433)" gradientUnits="userSpaceOnUse" xlink:href="#linearGradient3104-6"/><linearGradient id="linearGradient4521" x1="32.999" x2="32.999" y1="1.999" y2="57.999" gradientTransform="matrix(0.80026528,0,0,0.80026528,-1.258067,-1.6080126)" gradientUnits="userSpaceOnUse" xlink:href="#linearGradient4515"/><linearGradient id="linearGradient4515"><stop id="stop4517" offset="0" stop-color="#67614f" stop-opacity="1"/><stop id="stop4519" offset="1" stop-color="#4b473a" stop-opacity="1"/></linearGradient></defs><metadata id="metadata3906"/><rect id="rect2879" width="32.508" height="3.57" x="7.738" y="42.43" fill="url(#linearGradient3118)" fill-opacity="1" fill-rule="nonzero" stroke="none" stroke-width="1" display="inline" opacity=".3" overflow="visible" visibility="visible" style="marker:none"/><path id="path2881" fill="url(#radialGradient3115)" fill-opacity="1" fill-rule="nonzero" stroke="none" stroke-width="1" d="m 7.7378475,42.430102 c 0,0 0,3.569856 0,3.569856 -1.1865002,0.0067 -2.8683795,-0.799823 -2.8683795,-1.785158 0,-0.985333 1.3240446,-1.784697 2.8683795,-1.784698 z" display="inline" opacity=".3" overflow="visible" visibility="visible" style="marker:none"/><path id="path2883" fill="url(#radialGradient3112)" fill-opacity="1" fill-rule="nonzero" stroke="none" stroke-width="1" d="m 40.246148,42.430102 c 0,0 0,3.569856 0,3.569856 1.1865,0.0067 2.86838,-0.799823 2.86838,-1.785158 0,-0.985333 -1.324045,-1.784697 -2.86838,-1.784698 z" display="inline" opacity=".3" overflow="visible" visibility="visible" style="marker:none"/><path id="path4160" fill="url(#linearGradient3109)" fill-opacity="1" stroke="none" d="m 7,1.0000001 c 7.791126,0 33.999959,0.00274 33.999959,0.00274 L 41,44 C 41,44 18.333334,44 7,44 7,29.666666 7,15.333333 7,1 z" display="inline"/><path id="rect6741-1" fill="none" stroke="url(#linearGradient3106)" stroke-dasharray="none" stroke-dashoffset="0" stroke-linecap="round" stroke-linejoin="miter" stroke-miterlimit="4" stroke-opacity="1" stroke-width="1" d="m 40.5,43.5 -33,0 0,-41.9999998 33,0 z"/><path id="path4160-6-1" fill="none" stroke="url(#linearGradient3170)" stroke-dasharray="none" stroke-dashoffset="0" stroke-linecap="butt" stroke-linejoin="round" stroke-miterlimit="4" stroke-opacity="1" stroke-width="1" d="m 6.4999605,0.4999623 c 8.0202885,0 35.0000415,0.00298 35.0000415,0.00298 l 3.7e-5,43.9970957 c 0,0 -23.333385,0 -35.0000785,0 0,-14.666738 0,-29.333326 0,-43.9998923 z" display="inline"/><path id="path4323-9" fill="url(#linearGradient4521)" fill-opacity="1" fill-rule="nonzero" stroke="none" stroke-dasharray="none" stroke-dashoffset="0" stroke-linecap="butt" stroke-linejoin="miter" stroke-miterlimit="4" stroke-opacity="1" stroke-width="1" d="m 34.120847,13.937765 c -0.03846,-0.01344 -0.07867,-0.01187 -0.118789,0.0078 -0.09628,0.04724 -0.180982,0.201058 -0.26415,0.45015 -0.196371,0.588146 -1.453406,4.247281 -7.872922,5.232984 a 3.1911289,3.1920179 0 0 1 1.736513,2.840004 3.1911289,3.1920179 0 0 1 -3.191683,3.191683 3.1911289,3.1920179 0 0 1 -2.904088,-1.875622 2.5326419,2.5333474 0 0 1 -2.128831,1.166012 2.5326419,2.5333474 0 0 1 -2.514896,-2.246058 c -0.08106,0.162892 -0.178143,0.328398 -0.315729,0.49704 -0.04913,-0.07664 -0.07891,-0.16293 -0.132857,-0.237578 -0.325275,-0.450026 -0.706889,-0.829268 -1.112869,-1.111306 -0.466473,-0.324063 -0.9514,-0.537778 -1.430161,-0.608014 -0.551962,-0.08098 -1.085799,0.03842 -1.509876,0.343864 -0.424206,0.305532 -0.671961,0.773629 -0.769004,1.322313 -0.08413,0.475661 -0.05461,0.99087 0.106284,1.534884 0.140049,0.47352 0.364162,0.950423 0.689291,1.400464 0.343478,0.475436 0.770457,0.897391 1.217592,1.19102 0.504276,0.331152 1.039017,0.524645 1.563018,0.554871 0.162151,0.0094 0.32773,-0.03061 0.47672,-0.05315 3.393927,2.686152 10.131733,5.19296 14.597026,2.327333 0.09659,0.03282 0.193629,0.07279 0.290721,0.106286 0.0024,0.04588 -0.01206,0.09198 0,0.132856 l 0.212571,-0.07971 c 0.03771,0.01196 0.06621,0.04186 0.104723,0.05315 0.0082,0.0025 0.01827,-0.0024 0.02657,0 l 0.07972,0.07815 2.013167,0.7143 c -0.08259,0.697898 0.263543,1.491015 1.13944,1.825605 1.577403,0.602529 3.046325,1.373863 3.046325,1.373863 -0.752437,-2.549936 -1.026817,-4.595689 -2.99318,-4.415526 -0.36586,0.03352 -0.641792,0.18361 -0.847156,0.397007 l -1.775588,-1.137877 -0.07972,0 -0.02657,-0.02657 c 2.390015,-2.348255 3.787289,-6.761365 2.940038,-14.439162 -0.03677,-0.287763 -0.136271,-0.470784 -0.251647,-0.511107 z m -17.018141,2.33515 -0.106285,4.760953 c 0,0 0.04133,0.146277 0.07503,0.343864 a 2.5326419,2.5333474 0 0 1 2.305451,-1.492682 2.5326419,2.5333474 0 0 1 2.156966,1.209776 3.1911289,3.1920179 0 0 1 1.051911,-1.239474 c -3.835033,-0.202423 -5.483073,-3.582437 -5.483073,-3.582437 z m 2.666509,4.726567 a 1.7733433,1.7395654 0 0 0 -0.5283,0.07971 0.87806322,0.86133824 0 0 1 0.511107,0.78151 0.87806322,0.86133824 0 0 1 -0.878416,0.861223 0.87806322,0.86133824 0 0 1 -0.79714,-0.500166 1.7733433,1.7395654 0 0 0 -0.08128,0.517359 1.7733433,1.7395654 0 0 0 1.774025,1.739639 1.7733433,1.7395654 0 0 0 1.772462,-1.739639 1.7733433,1.7395654 0 0 0 -1.772462,-1.73964 z m 5.336144,0.337612 a 1.7733433,1.7395654 0 0 0 -0.5283,0.07971 0.87806322,0.86133824 0 0 1 0.511107,0.78151 0.87806322,0.86133824 0 0 1 -0.878416,0.861223 0.87806322,0.86133824 0 0 1 -0.795577,-0.500166 1.7733433,1.7395654 0 0 0 -0.08128,0.517359 1.7733433,1.7395654 0 0 0 1.772462,1.739639 1.7733433,1.7395654 0 0 0 1.774025,-1.739639 1.7733433,1.7395654 0 0 0 -1.774025,-1.739639 z m -11.544452,1.047222 a 0.92178284,1.0302279 0 0 1 0.922181,1.030029 0.92178284,1.0302279 0 0 1 -0.922181,1.030029 0.92178284,1.0302279 0 0 1 -0.922181,-1.030029 0.92178284,1.0302279 0 0 1 0.922181,-1.030029 z" clip-rule="nonzero" color="#000" color-interpolation="sRGB" color-interpolation-filters="linearRGB" color-rendering="auto" display="inline" enable-background="accumulate" image-rendering="auto" opacity="1" overflow="visible" shape-rendering="auto" text-rendering="auto" visibility="visible" style="isolation:auto;mix-blend-mode:normal;solid-color:#000;solid-opacity:1;marker:none"/></svg>