<svg xmlns="http://www.w3.org/2000/svg" xmlns:svg="http://www.w3.org/2000/svg" xmlns:xlink="http://www.w3.org/1999/xlink" id="svg3901" width="48" height="48" version="1.1"><defs id="defs3903"><linearGradient id="linearGradient3029"><stop id="stop3031" offset="0" stop-color="#fff" stop-opacity="1"/><stop id="stop3033" offset=".015" stop-color="#fff" stop-opacity=".235"/><stop id="stop3035" offset=".985" stop-color="#fff" stop-opacity=".157"/><stop id="stop3037" offset="1" stop-color="#fff" stop-opacity=".392"/></linearGradient><linearGradient id="linearGradient3600"><stop id="stop3602" offset="0" stop-color="#f4f4f4" stop-opacity="1"/><stop id="stop3604" offset="1" stop-color="#dbdbdb" stop-opacity="1"/></linearGradient><linearGradient id="linearGradient5060"><stop id="stop5062" offset="0" stop-color="#000" stop-opacity="1"/><stop id="stop5064" offset="1" stop-color="#000" stop-opacity="0"/></linearGradient><linearGradient id="linearGradient5048"><stop id="stop5050" offset="0" stop-color="#000" stop-opacity="0"/><stop id="stop5056" offset=".5" stop-color="#000" stop-opacity="1"/><stop id="stop5052" offset="1" stop-color="#000" stop-opacity="0"/></linearGradient><linearGradient id="linearGradient3104-6"><stop id="stop3106-3" offset="0" stop-color="#000" stop-opacity=".318"/><stop id="stop3108-9" offset="1" stop-color="#000" stop-opacity=".24"/></linearGradient><linearGradient id="linearGradient3106" x1="24" x2="24" y1="5.564" y2="42.111" gradientTransform="matrix(0.89189189,0,0,1.1351351,2.5945999,-4.7432314)" gradientUnits="userSpaceOnUse" xlink:href="#linearGradient3029"/><linearGradient id="linearGradient3109" x1="25.132" x2="25.132" y1=".985" y2="47.013" gradientTransform="matrix(0.97142632,0,0,0.93431938,0.68576678,-1.3569996)" gradientUnits="userSpaceOnUse" xlink:href="#linearGradient3600"/><radialGradient id="radialGradient3112" cx="605.714" cy="486.648" r="117.143" fx="605.714" fy="486.648" gradientTransform="matrix(0.02303995,0,0,0.01470022,26.360882,37.040176)" gradientUnits="userSpaceOnUse" xlink:href="#linearGradient5060"/><radialGradient id="radialGradient3115" cx="605.714" cy="486.648" r="117.143" fx="605.714" fy="486.648" gradientTransform="matrix(-0.02303994,0,0,0.01470022,21.62311,37.040176)" gradientUnits="userSpaceOnUse" xlink:href="#linearGradient5060"/><linearGradient id="linearGradient3118" x1="302.857" x2="302.857" y1="366.648" y2="609.505" gradientTransform="matrix(0.06732488,0,0,0.01470022,-0.3411391,37.040146)" gradientUnits="userSpaceOnUse" xlink:href="#linearGradient5048"/><linearGradient id="linearGradient3170" x1="-51.786" x2="-51.786" y1="50.786" y2="2.906" gradientTransform="matrix(0.80749686,0,0,0.89471714,59.410232,-2.9773433)" gradientUnits="userSpaceOnUse" xlink:href="#linearGradient3104-6"/></defs><metadata id="metadata3906"/><rect id="rect2879" width="32.508" height="3.57" x="7.738" y="42.43" fill="url(#linearGradient3118)" fill-opacity="1" fill-rule="nonzero" stroke="none" stroke-width="1" display="inline" opacity=".3" overflow="visible" visibility="visible" style="marker:none"/><path id="path2881" fill="url(#radialGradient3115)" fill-opacity="1" fill-rule="nonzero" stroke="none" stroke-width="1" d="m 7.7378475,42.430102 c 0,0 0,3.569856 0,3.569856 -1.1865002,0.0067 -2.8683795,-0.799823 -2.8683795,-1.785158 0,-0.985333 1.3240446,-1.784697 2.8683795,-1.784698 z" display="inline" opacity=".3" overflow="visible" visibility="visible" style="marker:none"/><path id="path2883" fill="url(#radialGradient3112)" fill-opacity="1" fill-rule="nonzero" stroke="none" stroke-width="1" d="m 40.246148,42.430102 c 0,0 0,3.569856 0,3.569856 1.1865,0.0067 2.86838,-0.799823 2.86838,-1.785158 0,-0.985333 -1.324045,-1.784697 -2.86838,-1.784698 z" display="inline" opacity=".3" overflow="visible" visibility="visible" style="marker:none"/><path id="path4160" fill="url(#linearGradient3109)" fill-opacity="1" stroke="none" d="m 7,1.0000001 c 7.791126,0 33.999959,0.00274 33.999959,0.00274 L 41,44 C 41,44 18.333334,44 7,44 7,29.666666 7,15.333333 7,1 z" display="inline"/><path id="rect6741-1" fill="none" stroke="url(#linearGradient3106)" stroke-dasharray="none" stroke-dashoffset="0" stroke-linecap="round" stroke-linejoin="miter" stroke-miterlimit="4" stroke-opacity="1" stroke-width="1" d="m 40.5,43.5 -33,0 0,-41.9999998 33,0 z"/><path id="path4160-6-1" fill="none" stroke="url(#linearGradient3170)" stroke-dasharray="none" stroke-dashoffset="0" stroke-linecap="butt" stroke-linejoin="round" stroke-miterlimit="4" stroke-opacity="1" stroke-width="1" d="m 6.4999605,0.4999623 c 8.0202885,0 35.0000415,0.00298 35.0000415,0.00298 l 3.7e-5,43.9970957 c 0,0 -23.333385,0 -35.0000785,0 0,-14.666738 0,-29.333326 0,-43.9998923 z" display="inline"/><path id="path4194" fill="#7e8087" fill-opacity="1" stroke="none" stroke-dasharray="none" stroke-miterlimit="4" stroke-opacity="1" stroke-width="2" d="M 17.75 15 C 17.3345 15 17 15.3345 17 15.75 L 17 29.25 C 17 29.6655 17.3345 30 17.75 30 L 30.25 30 C 30.6655 30 31 29.6655 31 29.25 L 31 15.75 C 31 15.3345 30.6655 15 30.25 15 L 17.75 15 z M 18 16 L 19 16 L 19 17 L 18 17 L 18 16 z M 20.5 16 L 27.5 16 C 27.777 16 28 16.223 28 16.5 L 28 21.5 C 28 21.777 27.777 22 27.5 22 L 20.5 22 C 20.223 22 20 21.777 20 21.5 L 20 16.5 C 20 16.223 20.223 16 20.5 16 z M 29 16 L 30 16 L 30 17 L 29 17 L 29 16 z M 18 18 L 19 18 L 19 19 L 18 19 L 18 18 z M 29 18 L 30 18 L 30 19 L 29 19 L 29 18 z M 18 20 L 19 20 L 19 21 L 18 21 L 18 20 z M 29 20 L 30 20 L 30 21 L 29 21 L 29 20 z M 18 22 L 19 22 L 19 23 L 18 23 L 18 22 z M 29 22 L 30 22 L 30 23 L 29 23 L 29 22 z M 20.5 23 L 27.5 23 C 27.777 23 28 23.223 28 23.5 L 28 28.5 C 28 28.777 27.777 29 27.5 29 L 20.5 29 C 20.223 29 20 28.777 20 28.5 L 20 23.5 C 20 23.223 20.223 23 20.5 23 z M 18 24 L 19 24 L 19 25 L 18 25 L 18 24 z M 29 24 L 30 24 L 30 25 L 29 25 L 29 24 z M 18 26 L 19 26 L 19 27 L 18 27 L 18 26 z M 29 26 L 30 26 L 30 27 L 29 27 L 29 26 z M 18 28 L 19 28 L 19 29 L 18 29 L 18 28 z M 29 28 L 30 28 L 30 29 L 29 29 L 29 28 z M 14.5 37 A 1.5 1.5 0 0 0 13 38.5 A 1.5 1.5 0 0 0 14.5 40 A 1.5 1.5 0 0 0 16 38.5 A 1.5 1.5 0 0 0 14.5 37 z M 19.5 37 A 1.5 1.5 0 0 0 18 38.5 A 1.5 1.5 0 0 0 19.5 40 A 1.5 1.5 0 0 0 21 38.5 A 1.5 1.5 0 0 0 19.5 37 z M 24.5 37 A 1.5 1.5 0 0 0 23 38.5 A 1.5 1.5 0 0 0 24.5 40 A 1.5 1.5 0 0 0 26 38.5 A 1.5 1.5 0 0 0 24.5 37 z M 29.5 37 A 1.5 1.5 0 0 0 28 38.5 A 1.5 1.5 0 0 0 29.5 40 A 1.5 1.5 0 0 0 31 38.5 A 1.5 1.5 0 0 0 29.5 37 z M 34.5 37 A 1.5 1.5 0 0 0 33 38.5 A 1.5 1.5 0 0 0 34.5 40 A 1.5 1.5 0 0 0 36 38.5 A 1.5 1.5 0 0 0 34.5 37 z" opacity="1"/></svg>