<svg xmlns="http://www.w3.org/2000/svg" xmlns:svg="http://www.w3.org/2000/svg" xmlns:xlink="http://www.w3.org/1999/xlink" id="svg3901" width="48" height="48" version="1.1"><defs id="defs3903"><linearGradient id="linearGradient3403"><stop id="stop3405" offset="0" stop-color="#fff" stop-opacity="1"/><stop id="stop3407" offset="0" stop-color="#fff" stop-opacity=".235"/><stop id="stop3409" offset="1" stop-color="#fff" stop-opacity=".157"/><stop id="stop3411" offset="1" stop-color="#fff" stop-opacity=".392"/></linearGradient><linearGradient id="linearGradient3600"><stop id="stop3602" offset="0" stop-color="#f4f4f4" stop-opacity="1"/><stop id="stop3604" offset="1" stop-color="#dbdbdb" stop-opacity="1"/></linearGradient><linearGradient id="linearGradient5060"><stop id="stop5062" offset="0" stop-color="#000" stop-opacity="1"/><stop id="stop5064" offset="1" stop-color="#000" stop-opacity="0"/></linearGradient><linearGradient id="linearGradient5048"><stop id="stop5050" offset="0" stop-color="#000" stop-opacity="0"/><stop id="stop5056" offset=".5" stop-color="#000" stop-opacity="1"/><stop id="stop5052" offset="1" stop-color="#000" stop-opacity="0"/></linearGradient><linearGradient id="linearGradient3104-6"><stop id="stop3106-3" offset="0" stop-color="#000" stop-opacity=".318"/><stop id="stop3108-9" offset="1" stop-color="#000" stop-opacity=".24"/></linearGradient><linearGradient id="linearGradient3106" x1="24" x2="24" y1="5.94" y2="42.111" gradientTransform="matrix(0.89189189,0,0,1.1351351,2.5945999,-4.7432314)" gradientUnits="userSpaceOnUse" xlink:href="#linearGradient3403"/><linearGradient id="linearGradient3109" x1="25.132" x2="25.132" y1=".985" y2="47.013" gradientTransform="matrix(0.97142632,0,0,0.93431938,0.68576678,-1.3569996)" gradientUnits="userSpaceOnUse" xlink:href="#linearGradient3600"/><radialGradient id="radialGradient3112" cx="605.714" cy="486.648" r="117.143" fx="605.714" fy="486.648" gradientTransform="matrix(0.02303995,0,0,0.01470022,26.360882,37.040176)" gradientUnits="userSpaceOnUse" xlink:href="#linearGradient5060"/><radialGradient id="radialGradient3115" cx="605.714" cy="486.648" r="117.143" fx="605.714" fy="486.648" gradientTransform="matrix(-0.02303994,0,0,0.01470022,21.62311,37.040176)" gradientUnits="userSpaceOnUse" xlink:href="#linearGradient5060"/><linearGradient id="linearGradient3118" x1="302.857" x2="302.857" y1="366.648" y2="609.505" gradientTransform="matrix(0.06732488,0,0,0.01470022,-0.3411391,37.040146)" gradientUnits="userSpaceOnUse" xlink:href="#linearGradient5048"/><linearGradient id="linearGradient3170" x1="-51.786" x2="-51.786" y1="50.786" y2="2.906" gradientTransform="matrix(0.80749686,0,0,0.89471714,59.410232,-2.9773433)" gradientUnits="userSpaceOnUse" xlink:href="#linearGradient3104-6"/></defs><metadata id="metadata3906"/><rect id="rect2879" width="32.508" height="3.57" x="7.738" y="42.43" fill="url(#linearGradient3118)" fill-opacity="1" fill-rule="nonzero" stroke="none" stroke-width="1" display="inline" opacity=".3" overflow="visible" visibility="visible" style="marker:none"/><path id="path2881" fill="url(#radialGradient3115)" fill-opacity="1" fill-rule="nonzero" stroke="none" stroke-width="1" d="m 7.7378475,42.430102 c 0,0 0,3.569856 0,3.569856 -1.1865002,0.0067 -2.8683795,-0.799823 -2.8683795,-1.785158 0,-0.985333 1.3240446,-1.784697 2.8683795,-1.784698 z" display="inline" opacity=".3" overflow="visible" visibility="visible" style="marker:none"/><path id="path2883" fill="url(#radialGradient3112)" fill-opacity="1" fill-rule="nonzero" stroke="none" stroke-width="1" d="m 40.246148,42.430102 c 0,0 0,3.569856 0,3.569856 1.1865,0.0067 2.86838,-0.799823 2.86838,-1.785158 0,-0.985333 -1.324045,-1.784697 -2.86838,-1.784698 z" display="inline" opacity=".3" overflow="visible" visibility="visible" style="marker:none"/><path id="path4160" fill="url(#linearGradient3109)" fill-opacity="1" stroke="none" d="m 7,1.0000001 c 7.791126,0 33.999959,0.00274 33.999959,0.00274 L 41,44 C 41,44 18.333334,44 7,44 7,29.666666 7,15.333333 7,1 z" display="inline"/><path id="rect6741-1" fill="none" stroke="url(#linearGradient3106)" stroke-dasharray="none" stroke-dashoffset="0" stroke-linecap="round" stroke-linejoin="miter" stroke-miterlimit="4" stroke-opacity="1" stroke-width="1" d="m 40.5,43.5 -33,0 0,-41.9999998 33,0 z"/><path id="path4160-6-1" fill="none" stroke="url(#linearGradient3170)" stroke-dasharray="none" stroke-dashoffset="0" stroke-linecap="butt" stroke-linejoin="round" stroke-miterlimit="4" stroke-opacity="1" stroke-width="1" d="m 6.4999605,0.4999623 c 8.0202885,0 35.0000415,0.00298 35.0000415,0.00298 l 3.7e-5,43.9970957 c 0,0 -23.333385,0 -35.0000785,0 0,-14.666738 0,-29.333326 0,-43.9998923 z" display="inline"/><style id="style45" type="text/css"/><path id="path47" fill="#00acd7" stroke-width="1" d="m 23.417239,17.449767 c -0.301794,0.0066 -0.607856,0.03945 -0.917261,0.0954 -1.514109,0.276489 -2.751729,1.053396 -3.686527,2.27785 -0.868967,1.132291 -1.290285,2.422421 -1.119125,3.857534 0.144828,1.211287 0.697704,2.185738 1.672001,2.923044 1.053294,0.78997 2.251466,1.040076 3.541751,0.868915 1.566774,-0.210658 2.804394,-0.987462 3.752359,-2.238249 0.21525,-0.283738 0.399266,-0.582131 0.55339,-0.893602 0.221773,0.802172 0.667606,1.491763 1.316103,2.052328 0.921632,0.78997 2.014475,1.132137 3.212597,1.158469 0.34232,-0.0395 0.697807,-0.05272 1.053293,-0.118547 1.224454,-0.250157 2.290914,-0.802982 3.159881,-1.685115 1.224454,-1.23762 1.737935,-2.685951 1.51411,-4.463384 -0.171161,-1.263952 -0.816251,-2.225185 -1.856379,-2.936158 -1.145457,-0.776804 -2.409409,-0.908415 -3.752358,-0.671424 -1.566775,0.27649 -2.725397,0.934953 -3.686528,2.198905 -0.411793,0.538965 -0.719242,1.108797 -0.909546,1.711602 h -4.238375 c -0.197492,0 -0.289656,0.131611 -0.329154,0.210608 -0.184327,0.34232 -0.50052,1.027012 -0.671681,1.435163 -0.09216,0.223825 -0.02628,0.394986 0.250209,0.394986 h 2.541174 c -0.131662,0.184326 -0.237146,0.342217 -0.355641,0.487045 -0.592478,0.671475 -1.342949,0.987411 -2.238249,0.868916 -1.040127,-0.144828 -1.764267,-1.013692 -1.777433,-2.066986 -0.01317,-1.06646 0.447804,-1.922261 1.343104,-2.501572 0.750471,-0.487149 1.553556,-0.605644 2.383025,-0.197493 0.27649,0.131662 0.421215,0.276335 0.618707,0.50016 0.17116,0.197493 0.184378,0.184327 0.38187,0.131662 0.816303,-0.210659 1.382551,-0.368447 2.21202,-0.579106 0.157994,-0.0395 0.210659,-0.105483 0.131662,-0.223979 C 27.187083,19.283105 26.68682,18.65118 25.989013,18.190365 25.189168,17.64726 24.322619,17.430018 23.417239,17.449767 Z m 9.198318,2.535517 c 1.070497,-0.0351 2.013652,0.672143 2.22102,1.812663 0.02633,0.131661 0.02643,0.263169 0.0396,0.434329 -0.06583,1.132291 -0.63213,1.975131 -1.672258,2.514944 -0.697807,0.355487 -1.421792,0.394934 -2.145931,0.07895 -0.947964,-0.421318 -1.448433,-1.461497 -1.211442,-2.488458 0.289656,-1.23762 1.079626,-2.014475 2.30408,-2.290965 0.156348,-0.03621 0.312002,-0.05645 0.46493,-0.06146 z m -19.713768,0.03523 c -0.05267,0 -0.118444,0.02633 -0.144776,0.06583 l -0.276696,0.355384 c -0.02633,0.0395 -0.01306,0.06583 0.0396,0.06583 l 4.76605,0.01311 c 0.0395,0 0.10533,-0.03945 0.131662,-0.07895 l 0.223979,-0.342269 c 0.02633,-0.0395 0.01306,-0.07895 -0.0396,-0.07895 z m -1.98804,1.211184 c -0.05266,0 -0.118702,0.02633 -0.145034,0.06583 l -0.276439,0.355641 c -0.02633,0.0395 -0.01306,0.06583 0.0396,0.06583 l 6.227443,-0.01337 c 0.05266,0 0.105381,-0.02628 0.118547,-0.07895 l 0.105433,-0.316039 c 0.01317,-0.0395 -0.01317,-0.07895 -0.06583,-0.07895 z m 3.080678,1.211442 c -0.05266,0 -0.10533,0.03945 -0.131662,0.07895 l -0.184121,0.329154 c -0.02633,0.0395 -0.01332,0.07895 0.03934,0.07895 l 2.870328,0.01312 c 0.0395,0 0.09206,-0.0394 0.09206,-0.09206 l 0.02649,-0.316039 c 0,-0.05267 -0.02654,-0.09206 -0.0792,-0.09206 z"/></svg>