<svg xmlns="http://www.w3.org/2000/svg" xmlns:svg="http://www.w3.org/2000/svg" xmlns:xlink="http://www.w3.org/1999/xlink" id="svg3901" width="48" height="48" version="1.1"><defs id="defs3903"><linearGradient id="linearGradient3403"><stop id="stop3405" offset="0" stop-color="#fff" stop-opacity="1"/><stop id="stop3407" offset="0" stop-color="#fff" stop-opacity=".235"/><stop id="stop3409" offset="1" stop-color="#fff" stop-opacity=".157"/><stop id="stop3411" offset="1" stop-color="#fff" stop-opacity=".392"/></linearGradient><linearGradient id="linearGradient3600"><stop id="stop3602" offset="0" stop-color="#f4f4f4" stop-opacity="1"/><stop id="stop3604" offset="1" stop-color="#dbdbdb" stop-opacity="1"/></linearGradient><linearGradient id="linearGradient5060"><stop id="stop5062" offset="0" stop-color="#000" stop-opacity="1"/><stop id="stop5064" offset="1" stop-color="#000" stop-opacity="0"/></linearGradient><linearGradient id="linearGradient5048"><stop id="stop5050" offset="0" stop-color="#000" stop-opacity="0"/><stop id="stop5056" offset=".5" stop-color="#000" stop-opacity="1"/><stop id="stop5052" offset="1" stop-color="#000" stop-opacity="0"/></linearGradient><linearGradient id="linearGradient3104-6"><stop id="stop3106-3" offset="0" stop-color="#000" stop-opacity=".318"/><stop id="stop3108-9" offset="1" stop-color="#000" stop-opacity=".24"/></linearGradient><linearGradient id="linearGradient3106" x1="24" x2="24" y1="5.94" y2="42.111" gradientTransform="matrix(0.89189189,0,0,1.1351351,2.5945999,-4.7432314)" gradientUnits="userSpaceOnUse" xlink:href="#linearGradient3403"/><linearGradient id="linearGradient3109" x1="25.132" x2="25.132" y1=".985" y2="47.013" gradientTransform="matrix(0.97142632,0,0,0.93431938,0.68576678,-1.3569996)" gradientUnits="userSpaceOnUse" xlink:href="#linearGradient3600"/><radialGradient id="radialGradient3112" cx="605.714" cy="486.648" r="117.143" fx="605.714" fy="486.648" gradientTransform="matrix(0.02303995,0,0,0.01470022,26.360882,37.040176)" gradientUnits="userSpaceOnUse" xlink:href="#linearGradient5060"/><radialGradient id="radialGradient3115" cx="605.714" cy="486.648" r="117.143" fx="605.714" fy="486.648" gradientTransform="matrix(-0.02303994,0,0,0.01470022,21.62311,37.040176)" gradientUnits="userSpaceOnUse" xlink:href="#linearGradient5060"/><linearGradient id="linearGradient3118" x1="302.857" x2="302.857" y1="366.648" y2="609.505" gradientTransform="matrix(0.06732488,0,0,0.01470022,-0.3411391,37.040146)" gradientUnits="userSpaceOnUse" xlink:href="#linearGradient5048"/><linearGradient id="linearGradient3170" x1="-51.786" x2="-51.786" y1="50.786" y2="2.906" gradientTransform="matrix(0.80749686,0,0,0.89471714,59.410232,-2.9773433)" gradientUnits="userSpaceOnUse" xlink:href="#linearGradient3104-6"/><linearGradient id="linearGradient3039" x1="22.004" x2="22.004" y1="47.813" y2="3.364" gradientTransform="translate(2.0179033,-3.0470726)" gradientUnits="userSpaceOnUse" xlink:href="#linearGradient3104-4"/><linearGradient id="linearGradient3104-4"><stop id="stop3106-7" offset="0" stop-color="#aaa" stop-opacity="1"/><stop id="stop3108-6" offset="1" stop-color="#c8c8c8" stop-opacity="1"/></linearGradient><radialGradient id="radialGradient3042" cx="7.806" cy="9.957" r="12.672" fx="7.276" fy="9.957" gradientTransform="matrix(-1.6167311e-7,6.6018651,-8.0922115,-1.9817022e-7,104.56429,-60.072946)" gradientUnits="userSpaceOnUse" xlink:href="#linearGradient2867-449-88-871-390-598-476-591-434-148-57-177-8"/><linearGradient id="linearGradient2867-449-88-871-390-598-476-591-434-148-57-177-8"><stop id="stop3750-1" offset="0" stop-color="#90dbec" stop-opacity="1"/><stop id="stop3752-3" offset=".262" stop-color="#55c1ec" stop-opacity="1"/><stop id="stop3754-1" offset=".705" stop-color="#3689e6" stop-opacity="1"/><stop id="stop3756-1" offset="1" stop-color="#2b63a0" stop-opacity="1"/></linearGradient><radialGradient id="radialGradient3907" cx="605.714" cy="486.648" r="117.143" fx="605.714" fy="486.648" gradientTransform="matrix(0.02303995,0,0,0.01470022,26.360882,36.963253)" gradientUnits="userSpaceOnUse" xlink:href="#linearGradient5060"/><linearGradient id="linearGradient3909" x1="42.784" x2="38.972" y1="32.537" y2="18.124" gradientTransform="matrix(1.3333334,0,0,-1.3333334,-16.166666,70.166667)" gradientUnits="userSpaceOnUse" xlink:href="#linearGradient3412"/><linearGradient id="linearGradient3412"><stop id="stop3414" offset="0" stop-color="#fcfcfc" stop-opacity="1"/><stop id="stop3416" offset="1" stop-color="#cbcdd9" stop-opacity="1"/></linearGradient><linearGradient id="linearGradient3911" x1="40.106" x2="33.811" y1="31.657" y2="18.354" gradientTransform="matrix(1.33,0,0,-1.33,-16.064999,70.028077)" gradientUnits="userSpaceOnUse" xlink:href="#linearGradient3428"/><linearGradient id="linearGradient3428"><stop id="stop3430" offset="0" stop-color="#fff" stop-opacity="1"/><stop id="stop3432" offset="1" stop-color="#fff" stop-opacity="0"/></linearGradient></defs><metadata id="metadata3906"/><rect id="rect2879" width="32.508" height="3.57" x="7.738" y="42.43" fill="url(#linearGradient3118)" fill-opacity="1" fill-rule="nonzero" stroke="none" stroke-width="1" display="inline" opacity=".3" overflow="visible" visibility="visible" style="marker:none"/><path id="path2881" fill="url(#radialGradient3115)" fill-opacity="1" fill-rule="nonzero" stroke="none" stroke-width="1" d="m 7.7378475,42.430102 c 0,0 0,3.569856 0,3.569856 -1.1865002,0.0067 -2.8683795,-0.799823 -2.8683795,-1.785158 0,-0.985333 1.3240446,-1.784697 2.8683795,-1.784698 z" display="inline" opacity=".3" overflow="visible" visibility="visible" style="marker:none"/><path id="path2883" fill="url(#radialGradient3112)" fill-opacity="1" fill-rule="nonzero" stroke="none" stroke-width="1" d="m 40.246148,42.430102 c 0,0 0,3.569856 0,3.569856 1.1865,0.0067 2.86838,-0.799823 2.86838,-1.785158 0,-0.985333 -1.324045,-1.784697 -2.86838,-1.784698 z" display="inline" opacity=".3" overflow="visible" visibility="visible" style="marker:none"/><path id="path4160" fill="url(#linearGradient3109)" fill-opacity="1" stroke="none" d="m 7,1.0000001 c 7.791126,0 33.999959,0.00274 33.999959,0.00274 L 41,44 C 41,44 18.333334,44 7,44 7,29.666666 7,15.333333 7,1 z" display="inline"/><path id="rect6741-1" fill="none" stroke="url(#linearGradient3106)" stroke-dasharray="none" stroke-dashoffset="0" stroke-linecap="round" stroke-linejoin="miter" stroke-miterlimit="4" stroke-opacity="1" stroke-width="1" d="m 40.5,43.5 -33,0 0,-41.9999998 33,0 z"/><path id="path4160-6-1" fill="none" stroke="url(#linearGradient3170)" stroke-dasharray="none" stroke-dashoffset="0" stroke-linecap="butt" stroke-linejoin="round" stroke-miterlimit="4" stroke-opacity="1" stroke-width="1" d="m 12,0.4999623 29.500002,0.00298 3.7e-5,43.9970957 H 12" display="inline"/><path id="path4530" fill="url(#radialGradient3042)" fill-opacity="1" fill-rule="nonzero" stroke="none" stroke-width="1" d="M 12,44.495152 6.5,44.5 V 0.5 L 12,0.50485" color="#000" display="inline" enable-background="accumulate" overflow="visible" visibility="visible" style="marker:none"/><path id="path3475" fill="none" stroke="url(#linearGradient3039)" stroke-linecap="butt" stroke-linejoin="miter" stroke-opacity="1" stroke-width="1" d="m 15,8.5000013 h 2.34375 z m 2.6875,0 h 2.1875 z m 2.53125,0 h 1.9375 z m 2.25,0 h 0.84375 z m 1.1875,0 h 1.875 z m 2.25,0 h 4.9375 z m 5.25,0 H 34.9375 Z M 15,10.500001 h 3.65625 z m 4.0625,0 h 1.75 z m 2.0625,0 H 22 Z m 1.21875,0 h 1.59375 z m 1.9375,0 h 1.625 z m 1.9375,0 h 2.59375 z m 2.9375,0 h 3.375 z m 3.6875,0 h 2.25 z m 2.5625,0 h 0.5625 z M 15,12.46875 h 3.09375 z m 3.40625,0 h 5.0625 z m 5.375,0 H 26.25 Z m 2.78125,0 h 2.3125 z m 2.625,0 h 1.96875 z m 2.28125,0 L 34.5625,12.5 Z M 34.84375,12.5 Z M 15,14.5 h 4.28125 z m 4.625,0 h 4.625 z m 4.9375,0 h 1.84375 z m 2.15625,0 h 4.34375 z m 4.625,0 h 2.96875 z m 3.3125,0 h 1.1875 z M 15,16.5 h 1.59375 z m 2.09375,0 H 23 Z M 15,20.46875 h 3.09375 z m 3.40625,0 h 5.0625 z m 5.375,0 H 26.25 Z m 2.78125,0 h 2.3125 z m 2.625,0 h 1.96875 z m 2.28125,0 L 34.5625,20.5 Z M 34.84375,20.5 Z M 15,22.5 h 2.34375 z m 2.6875,0 h 2.15625 z m 2.53125,0 h 1.9375 z m 2.25,0 h 0.84375 z m 1.1875,0 h 1.875 z m 2.25,0 h 4.90625 z m 5.25,0 h 3.75 z m 4.0625,0 h 1.1875 z M 15,24.5 h 3.9375 z m 4.25,0 h 4.21875 z m 4.53125,0 h 1.625 z m 1.9375,0 H 29.6875 Z M 30,24.5 h 5 z m 5.34375,0 H 37.1875 Z M 15,26.5 h 4.28125 z m 4.625,0 h 4.625 z m 4.9375,0 h 1.84375 z m 2.15625,0 h 4.34375 z m 4.625,0 h 2.96875 z m 3.3125,0 h 1.1875 z M 15,28.5 h 3.65625 z m 4.0625,0 h 1.75 z m 2.0625,0 H 22 Z m 1.21875,0 h 1.59375 z m 1.9375,0 h 1.625 z m 1.9375,0 h 2.59375 z m 2.9375,0 h 3.375 z m 3.6875,0 h 2.25 z m 2.5625,0 h 0.5625 z M 15,32.46875 h 3.09375 z m 3.40625,0 h 5.0625 z m 5.375,0 H 26.25 Z m 2.78125,0 h 2.3125 z m 2.625,0 h 1.96875 z m 2.28125,0 L 34.5625,32.5 Z M 34.84375,32.5 Z M 15,34.5 h 3.65625 z m 4.0625,0 h 1.75 z m 2.0625,0 H 22 Z m 1.21875,0 h 1.59375 z m 1.9375,0 h 1.625 z m 1.9375,0 h 2.59375 z m 2.9375,0 h 3.375 z m 3.6875,0 h 2.25 z m 2.5625,0 h 0.5625 z M 15,36.5 h 3.875 z m 4.21875,0 h 1.21875 z m 1.53125,0 h 2.78125 z m 3.09375,0 h 4.09375 z m 4.4375,0 h 2.78125 z m 3.0625,0 h 0.59375 z m 0.90625,0 h 3.53125 z M 15,38.5 h 3.875 z m 4.21875,0 h 1.75 z m 2.0625,0 h 2.75 z m 3.0625,0 h 2.96875 z m 3.3125,0 h 1.1875 z m 1.5,0 h 0.65625 z m 1,0 H 32 Z"/><path id="rect6741-1-5" fill="none" fill-opacity="1" stroke="url(#linearGradient3106)" stroke-dasharray="none" stroke-dashoffset="0" stroke-linecap="square" stroke-linejoin="miter" stroke-miterlimit="4" stroke-opacity="1" stroke-width="1" d="m 11.5,43.5 h -4 V 1.5000004 h 4" opacity=".5" vector-effect="none" style="font-variant-east_asian:normal"/><path id="path4160-6" fill="none" stroke="#0d52bf" stroke-dasharray="none" stroke-dashoffset="0" stroke-linecap="butt" stroke-linejoin="round" stroke-miterlimit="4" stroke-opacity="1" stroke-width="1" d="M 12.000021,44.502803 H 6.4999609 l 0,-44.00560407 5.5000181,0.002801" display="inline" opacity=".5"/><g id="g3896" transform="translate(-2.0000012)"><path d="m 40.246148,42.353179 c 0,0 0,3.569856 0,3.569856 1.1865,0.0067 2.86838,-0.799823 2.86838,-1.785158 0,-0.985333 -1.324045,-1.784697 -2.86838,-1.784698 z" style="marker:none" id="path2883-3" fill="url(#radialGradient3907)" fill-opacity="1" fill-rule="nonzero" stroke="none" stroke-width="1" display="inline" opacity=".3" overflow="visible" visibility="visible"/><path id="path3410" fill="url(#linearGradient3909)" fill-opacity="1" fill-rule="evenodd" stroke="#83899a" stroke-dasharray="none" stroke-linecap="butt" stroke-linejoin="miter" stroke-miterlimit="4" stroke-opacity="1" stroke-width="1" d="M 24.500001,45.5 44.500002,25.499999 V 45.5 Z m 9.333333,-4.000001 h 6.666667 v -6.666666 z" opacity=".8"/><path id="path3424" fill="none" stroke="url(#linearGradient3911)" stroke-dasharray="none" stroke-linecap="butt" stroke-linejoin="miter" stroke-miterlimit="4" stroke-opacity="1" stroke-width="1" d="M 27.450938,44.217765 43.244688,28.424014 V 44.217765 Z" opacity=".4"/><path id="path3082" fill="none" stroke="#83899a" stroke-linecap="square" stroke-linejoin="miter" stroke-opacity="1" stroke-width="1" d="M 29.5,44.346154 V 45.5" opacity=".6"/><path id="path3854" fill="none" stroke="#83899a" stroke-linecap="square" stroke-linejoin="miter" stroke-opacity="1" stroke-width="1" d="M 34.5,44.346154 V 45.5" opacity=".6"/><path id="path3856" fill="none" stroke="#83899a" stroke-linecap="square" stroke-linejoin="miter" stroke-opacity="1" stroke-width="1" d="M 39.5,44.346154 V 45.5" opacity=".6"/><path id="path3858" fill="none" stroke="#83899a" stroke-linecap="square" stroke-linejoin="miter" stroke-opacity="1" stroke-width="1" d="M 44.50049,35.423077 H 43.5" opacity=".6"/><path id="path3860" fill="none" stroke="#83899a" stroke-linecap="square" stroke-linejoin="miter" stroke-opacity="1" stroke-width="1" d="M 44.50049,40.423077 H 43.5" opacity=".6"/><path id="path3862" fill="none" stroke="#83899a" stroke-linecap="square" stroke-linejoin="miter" stroke-opacity="1" stroke-width="1" d="M 44.50049,30.423077 H 43.5" opacity=".6"/></g></svg>