<svg xmlns="http://www.w3.org/2000/svg" xmlns:svg="http://www.w3.org/2000/svg" xmlns:xlink="http://www.w3.org/1999/xlink" id="svg4405" width="48" height="48" version="1.1"><defs id="defs4407"><linearGradient id="linearGradient5032"><stop id="stop5028" offset="0" stop-color="#fff" stop-opacity="1"/><stop id="stop5030" offset="1" stop-color="#fff" stop-opacity="0"/></linearGradient><linearGradient id="linearGradient3688-166-749-2-324"><stop id="stop3216" offset="0" stop-color="#181818" stop-opacity="1"/><stop id="stop3218" offset="1" stop-color="#181818" stop-opacity="0"/></linearGradient><linearGradient id="linearGradient4718"><stop id="stop4720" offset="0" stop-color="#fdecc4" stop-opacity="1"/><stop id="stop1140-3" offset=".603" stop-color="#e89843" stop-opacity="1"/><stop id="stop4722" offset="1" stop-color="#b45c15" stop-opacity="1"/></linearGradient><linearGradient id="linearGradient5428-2"><stop id="stop5426-9" offset="0" stop-color="#2f2f2f" stop-opacity="1"/><stop id="stop5424-1" offset="1" stop-color="#3f3f3f" stop-opacity="1"/></linearGradient><linearGradient id="linearGradient3820-7-2-1"><stop id="stop3822-2-6-3" offset="0" stop-color="#3d3d3d" stop-opacity="1"/><stop id="stop3864-8-7-7" offset=".5" stop-color="#686868" stop-opacity=".498"/><stop id="stop3824-1-2-5" offset="1" stop-color="#686868" stop-opacity="0"/></linearGradient><radialGradient id="radialGradient4949-3" cx="99.157" cy="186.171" r="62.769" fx="99.157" fy="186.171" gradientTransform="matrix(0.27083381,0,0,0.08762273,125.14493,188.18726)" gradientUnits="userSpaceOnUse" xlink:href="#linearGradient3820-7-2-1"/><linearGradient id="linearGradient5253" x1="136" x2="168" y1="172" y2="204" gradientUnits="userSpaceOnUse" xlink:href="#linearGradient4365-7"/><linearGradient id="linearGradient4365-7"><stop id="stop4367-5" offset="0" stop-color="#fff" stop-opacity="1"/><stop id="stop904" offset=".129" stop-color="#e4e4e4" stop-opacity="1"/><stop id="stop4373-3" offset=".532" stop-color="#e7e7e7" stop-opacity="1"/><stop id="stop4369-5" offset="1" stop-color="#acacac" stop-opacity="1"/></linearGradient><linearGradient id="linearGradient5430-9-7" x1="7" x2="25" y1="16" y2="16" gradientTransform="matrix(0,-1.5294118,-1.5294117,0,176.47058,212.47062)" gradientUnits="userSpaceOnUse" xlink:href="#linearGradient5428-2"/><linearGradient id="linearGradient4608-9-3" x1="8" x2="40" y1="25" y2="25" gradientTransform="matrix(0,-1.0645162,-1.0645158,0,178.61289,213.54842)" gradientUnits="userSpaceOnUse" xlink:href="#linearGradient5032"/><linearGradient id="linearGradient4582-3" x1="8" x2="40" y1="25" y2="25" gradientTransform="rotate(90,6.499984,170.50002)" gradientUnits="userSpaceOnUse" xlink:href="#linearGradient3688-166-749-2-324"/><linearGradient id="linearGradient4604-6" x1="8" x2="40" y1="25" y2="25" gradientTransform="matrix(0,0.80645171,-0.80645145,0,172.16128,168.64519)" gradientUnits="userSpaceOnUse" xlink:href="#linearGradient3688-166-749-2-324"/><radialGradient id="radialGradient4652-37-1" cx="16" cy="20.382" r="12" fx="16" fy="20.382" gradientTransform="matrix(1.4166522,-8.0043678e-8,8.0043263e-8,1.4166593,129.33371,163.66666)" gradientUnits="userSpaceOnUse" xlink:href="#linearGradient4718"/><radialGradient id="radialGradient5346" cx="32" cy="33" r="8" fx="32" fy="33" gradientTransform="matrix(0.75,0,0,0.75,128,162.25)" gradientUnits="userSpaceOnUse" xlink:href="#linearGradient4417"/><linearGradient id="linearGradient4417"><stop id="stop4419" offset="0" stop-color="#6e3003" stop-opacity="1"/><stop id="stop4425" offset=".607" stop-color="#a54805" stop-opacity="1"/><stop id="stop4421" offset="1" stop-color="#6e3003" stop-opacity="0"/></linearGradient><linearGradient id="linearGradient1144-7-2" x1="8" x2="40" y1="25" y2="25" gradientTransform="matrix(0,-0.35483875,-0.35483867,0,160.87096,196.51617)" gradientUnits="userSpaceOnUse" xlink:href="#linearGradient5032"/><radialGradient id="radialGradient5350" cx="48.01" cy="10.317" r="3" fx="48.01" fy="10.317" gradientTransform="matrix(0,2.9803879,-2.1784805,0,174.52487,40.83411)" gradientUnits="userSpaceOnUse" xlink:href="#linearGradient4283-3"/><linearGradient id="linearGradient4283-3"><stop id="stop4285-6" offset="0" stop-color="#6d6d6d" stop-opacity="1"/><stop id="stop5511" offset=".852" stop-color="#272727" stop-opacity="1"/><stop id="stop4287-0" offset="1" stop-color="#000" stop-opacity="1"/></linearGradient><linearGradient id="linearGradient5359" x1="71.204" x2="71.204" y1="22.129" y2="28.509" gradientTransform="matrix(0.99161228,0,0,0.99161228,80.868171,162.85545)" gradientUnits="userSpaceOnUse" xlink:href="#linearGradient4011"/><linearGradient id="linearGradient4011"><stop id="stop4013" offset="0" stop-color="#fff" stop-opacity="1"/><stop id="stop4015" offset=".508" stop-color="#fff" stop-opacity=".235"/><stop id="stop4017" offset=".835" stop-color="#fff" stop-opacity=".157"/><stop id="stop4019" offset="1" stop-color="#fff" stop-opacity=".392"/></linearGradient><linearGradient id="linearGradient5530" x1="132" x2="172" y1="188" y2="188" gradientTransform="rotate(90,152,188)" gradientUnits="userSpaceOnUse" xlink:href="#linearGradient4011"/><radialGradient id="radialGradient5354" cx="32" cy="31" r="3" fx="32" fy="31" gradientTransform="translate(119.99999,155.49999)" gradientUnits="userSpaceOnUse" xlink:href="#linearGradient5032"/></defs><metadata id="metadata4410"/><g id="g5930" display="inline" transform="translate(-128,-164.00003)"><path id="path3818-0-5" fill="url(#radialGradient4949-3)" fill-opacity="1" stroke="none" d="m 169,204.50003 a 17,5.4999999 0 0 1 -34,0 17,5.4999999 0 1 1 34,0 z" display="inline" enable-background="new"/><path id="path5236" fill="url(#linearGradient5253)" fill-opacity="1" stroke="#000" stroke-dasharray="none" stroke-dashoffset="0" stroke-linecap="butt" stroke-linejoin="round" stroke-miterlimit="4" stroke-opacity=".498" stroke-width="1" d="M 152,167.5 A 20.5,20.5 0 0 0 139.78711,171.5625 3,3 0 0 0 137.5,170.5 a 3,3 0 0 0 -3,3 3,3 0 0 0 1.0625,2.29102 A 20.5,20.5 0 0 0 131.5,188 20.5,20.5 0 0 0 135.5625,200.21289 3,3 0 0 0 134.5,202.5 a 3,3 0 0 0 3,3 3,3 0 0 0 2.29102,-1.0625 A 20.5,20.5 0 0 0 152,208.5 20.5,20.5 0 0 0 164.21289,204.4375 3,3 0 0 0 166.5,205.5 a 3,3 0 0 0 3,-3 3,3 0 0 0 -1.0625,-2.29102 A 20.5,20.5 0 0 0 172.5,188 20.5,20.5 0 0 0 168.4375,175.78711 3,3 0 0 0 169.5,173.5 a 3,3 0 0 0 -3,-3 3,3 0 0 0 -2.29102,1.0625 A 20.5,20.5 0 0 0 152,167.5 Z" display="inline" enable-background="new" opacity="1"/><path id="path2555-36-4-2-1-3" fill="none" stroke="url(#linearGradient5430-9-7)" stroke-dasharray="none" stroke-miterlimit="4" stroke-opacity="1" stroke-width="6" d="m 165,188.00003 c 0,7.17328 -5.82732,13 -12.99999,13 -7.17326,0 -13.00001,-5.82734 -13.00001,-13 0,-7.17326 5.82731,-13 13.00001,-13 7.17327,0 12.99999,5.82732 12.99999,13 z" color="#000" display="inline" enable-background="accumulate" opacity="1" overflow="visible" visibility="visible" style="marker:none"/><ellipse id="path4741-1" cx="137.5" cy="173.495" fill="#000" fill-opacity=".117" stroke="none" stroke-dasharray="none" stroke-dashoffset="0" stroke-linecap="butt" stroke-linejoin="round" stroke-miterlimit="4" stroke-opacity="1" stroke-width="2" display="inline" enable-background="new" opacity="1" rx="1" ry=".991"/><path id="path4787-9" fill="none" fill-rule="evenodd" stroke="#000" stroke-dasharray="none" stroke-linecap="square" stroke-linejoin="miter" stroke-miterlimit="4" stroke-opacity="1" stroke-width=".5" d="m 137,173 1,0.99078" display="inline" enable-background="new" opacity=".2"/><path id="path4606-1" fill="none" stroke="url(#linearGradient4608-9-3)" stroke-dasharray="none" stroke-miterlimit="4" stroke-opacity="1" stroke-width="1" d="m 152,171.50003 c -9.10456,0 -16.5,7.3962 -16.5,16.49998 0,9.10453 7.39623,16.50002 16.5,16.50002 9.10453,0 16.5,-7.3962 16.5,-16.50002 0,-9.10454 -7.39623,-16.49998 -16.5,-16.49998 z" color="#000" display="inline" enable-background="accumulate" opacity=".2" overflow="visible" visibility="visible" style="marker:none"/><path id="path4580-9" fill="none" stroke="url(#linearGradient4582-3)" stroke-dasharray="none" stroke-miterlimit="4" stroke-opacity="1" stroke-width="1" d="m 152,203.50003 c -8.55277,0 -15.5,-6.94795 -15.5,-15.49999 0,-8.55272 6.94798,-15.50001 15.5,-15.50001 8.55274,0 15.5,6.94796 15.5,15.50001 0,8.55277 -6.94797,15.49999 -15.5,15.49999 z" color="#000" display="inline" enable-background="accumulate" opacity=".5" overflow="visible" visibility="visible" style="marker:none"/><path id="path4602-4" fill="none" stroke="url(#linearGradient4604-6)" stroke-dasharray="none" stroke-miterlimit="4" stroke-opacity="1" stroke-width="1" d="m 152,200.50003 c -6.89739,0 -12.5,-5.60319 -12.5,-12.49999 0,-6.89737 5.60321,-12.50001 12.5,-12.50001 6.89737,0 12.5,5.60319 12.5,12.50001 0,6.89738 -5.6032,12.49999 -12.5,12.49999 z" color="#000" display="inline" enable-background="accumulate" opacity=".2" overflow="visible" visibility="visible" style="marker:none"/><path id="path2555-36-4-4-78" fill="url(#radialGradient4652-37-1)" fill-opacity="1" fill-rule="nonzero" stroke="none" stroke-width="1" d="m 152.00001,176.00003 c -6.62151,0 -12.00001,5.37909 -12.00001,12 0,6.62148 5.37909,12 12.00001,12 6.62146,0 11.99999,-5.3791 11.99999,-12 0,-6.62149 -5.37909,-12 -11.99999,-12 z" color="#000" display="inline" enable-background="accumulate" overflow="visible" visibility="visible" style="marker:none"/><circle id="circle5344" cx="152" cy="187" r="6" fill="url(#radialGradient5346)" fill-opacity="1" stroke="none" stroke-dasharray="none" stroke-dashoffset="0" stroke-linecap="round" stroke-linejoin="round" stroke-miterlimit="4" stroke-opacity="1" stroke-width="1.125" display="inline" enable-background="new" opacity=".5"/><path id="path1142-4" fill="none" stroke="url(#linearGradient1144-7-2)" stroke-dasharray="none" stroke-miterlimit="4" stroke-opacity="1" stroke-width="1" d="m 152,182.50003 c -3.03485,0 -5.5,2.4654 -5.5,5.5 0,3.03484 2.46541,5.5 5.5,5.5 3.03484,0 5.5,-2.46541 5.5,-5.5 0,-3.03485 -2.46541,-5.5 -5.5,-5.5 z" color="#000" display="inline" enable-background="accumulate" opacity=".2" overflow="visible" visibility="visible" style="marker:none"/><ellipse id="ellipse4803-3" cx="137.5" cy="173.495" fill="#000" fill-opacity=".117" stroke="none" stroke-dasharray="none" stroke-dashoffset="0" stroke-linecap="butt" stroke-linejoin="round" stroke-miterlimit="4" stroke-opacity="1" stroke-width="2" display="inline" enable-background="new" opacity="1" rx="1" ry=".991"/><path id="path4805-6" fill="none" fill-rule="evenodd" stroke="#000" stroke-dasharray="none" stroke-linecap="square" stroke-linejoin="miter" stroke-miterlimit="4" stroke-opacity="1" stroke-width=".5" d="m 137,173 1,0.99078" display="inline" enable-background="new" opacity=".2"/><ellipse id="ellipse1251" cx="-166.5" cy="173.505" fill="#000" fill-opacity=".117" stroke="none" stroke-dasharray="none" stroke-dashoffset="0" stroke-linecap="butt" stroke-linejoin="round" stroke-miterlimit="4" stroke-opacity="1" stroke-width="2" display="inline" enable-background="new" opacity="1" rx="1" ry=".991" transform="scale(-1,1)"/><path id="path1253" fill="none" fill-rule="evenodd" stroke="#000" stroke-dasharray="none" stroke-linecap="square" stroke-linejoin="miter" stroke-miterlimit="4" stroke-opacity="1" stroke-width=".5" d="M 167,173.00922 166,174" display="inline" enable-background="new" opacity=".2"/><ellipse id="ellipse1257" cx="-166.5" cy="173.505" fill="#000" fill-opacity=".117" stroke="none" stroke-dasharray="none" stroke-dashoffset="0" stroke-linecap="butt" stroke-linejoin="round" stroke-miterlimit="4" stroke-opacity="1" stroke-width="2" display="inline" enable-background="new" opacity="1" rx="1" ry=".991" transform="scale(-1,1)"/><path id="path1259" fill="none" fill-rule="evenodd" stroke="#000" stroke-dasharray="none" stroke-linecap="square" stroke-linejoin="miter" stroke-miterlimit="4" stroke-opacity="1" stroke-width=".5" d="M 167,173.00922 166,174" display="inline" enable-background="new" opacity=".2"/><ellipse id="ellipse1263" cx="166.5" cy="202.505" fill="#000" fill-opacity=".117" stroke="none" stroke-dasharray="none" stroke-dashoffset="0" stroke-linecap="butt" stroke-linejoin="round" stroke-miterlimit="4" stroke-opacity="1" stroke-width="2" display="inline" enable-background="new" opacity="1" rx="1" ry=".991"/><path id="path1265" fill="none" fill-rule="evenodd" stroke="#000" stroke-dasharray="none" stroke-linecap="square" stroke-linejoin="miter" stroke-miterlimit="4" stroke-opacity="1" stroke-width=".5" d="M 166,202.00923 167,203" display="inline" enable-background="new" opacity=".2"/><ellipse id="ellipse1269" cx="166.5" cy="202.505" fill="#000" fill-opacity=".117" stroke="none" stroke-dasharray="none" stroke-dashoffset="0" stroke-linecap="butt" stroke-linejoin="round" stroke-miterlimit="4" stroke-opacity="1" stroke-width="2" display="inline" enable-background="new" opacity="1" rx="1" ry=".991"/><path id="path1271" fill="none" fill-rule="evenodd" stroke="#000" stroke-dasharray="none" stroke-linecap="square" stroke-linejoin="miter" stroke-miterlimit="4" stroke-opacity="1" stroke-width=".5" d="M 166,202.00923 167,203" display="inline" enable-background="new" opacity=".2"/><ellipse id="ellipse1275" cx="-137.5" cy="202.505" fill="#000" fill-opacity=".117" stroke="none" stroke-dasharray="none" stroke-dashoffset="0" stroke-linecap="butt" stroke-linejoin="round" stroke-miterlimit="4" stroke-opacity="1" stroke-width="2" display="inline" enable-background="new" opacity="1" rx="1" ry=".991" transform="scale(-1,1)"/><path id="path1277" fill="none" fill-rule="evenodd" stroke="#000" stroke-dasharray="none" stroke-linecap="square" stroke-linejoin="miter" stroke-miterlimit="4" stroke-opacity="1" stroke-width=".5" d="M 138,202.00923 137,203" display="inline" enable-background="new" opacity=".2"/><ellipse id="ellipse1281" cx="-137.5" cy="202.505" fill="#000" fill-opacity=".117" stroke="none" stroke-dasharray="none" stroke-dashoffset="0" stroke-linecap="butt" stroke-linejoin="round" stroke-miterlimit="4" stroke-opacity="1" stroke-width="2" display="inline" enable-background="new" opacity="1" rx="1" ry=".991" transform="scale(-1,1)"/><path id="path1283" fill="none" fill-rule="evenodd" stroke="#000" stroke-dasharray="none" stroke-linecap="square" stroke-linejoin="miter" stroke-miterlimit="4" stroke-opacity="1" stroke-width=".5" d="M 138,202.00923 137,203" display="inline" enable-background="new" opacity=".2"/><circle id="circle5348" cx="152" cy="188" r="4.5" fill="url(#radialGradient5350)" fill-opacity="1" stroke="#000" stroke-dasharray="none" stroke-dashoffset="0" stroke-linecap="round" stroke-linejoin="round" stroke-miterlimit="4" stroke-opacity=".546" stroke-width="1" display="inline" enable-background="new" opacity="1"/><circle id="circle5357" cx="152" cy="188" r="3.5" fill="none" fill-opacity="1" fill-rule="nonzero" stroke="url(#linearGradient5359)" stroke-dasharray="none" stroke-dashoffset="0" stroke-linecap="round" stroke-linejoin="round" stroke-miterlimit="4" stroke-opacity="1" stroke-width="1" clip-rule="nonzero" color="#000" color-interpolation="sRGB" color-interpolation-filters="linearRGB" color-rendering="auto" display="inline" enable-background="accumulate" image-rendering="auto" opacity=".1" overflow="visible" shape-rendering="auto" text-rendering="auto" visibility="visible" style="isolation:auto;mix-blend-mode:normal;solid-color:#000;solid-opacity:1;marker:none"/><path id="path5513" fill="none" fill-opacity="1" stroke="url(#linearGradient5530)" stroke-dasharray="none" stroke-dashoffset="0" stroke-linecap="butt" stroke-linejoin="round" stroke-miterlimit="4" stroke-opacity=".498" stroke-width="1" d="M 171.5,188 A 19.5,19.5 0 0 0 166.9043,175.45703 2,2 0 0 0 168.5,173.5 a 2,2 0 0 0 -2,-2 2,2 0 0 0 -1.95312,1.57422 A 19.5,19.5 0 0 0 152,168.5 19.5,19.5 0 0 0 139.45703,173.0957 2,2 0 0 0 137.5,171.5 a 2,2 0 0 0 -2,2 2,2 0 0 0 1.57422,1.95312 A 19.5,19.5 0 0 0 132.5,188 19.5,19.5 0 0 0 137.0957,200.54297 2,2 0 0 0 135.5,202.5 a 2,2 0 0 0 2,2 2,2 0 0 0 1.95312,-1.57422 A 19.5,19.5 0 0 0 152,207.5 19.5,19.5 0 0 0 164.54297,202.9043 2,2 0 0 0 166.5,204.5 a 2,2 0 0 0 2,-2 2,2 0 0 0 -1.57422,-1.95312 A 19.5,19.5 0 0 0 171.5,188 Z" display="inline" enable-background="new" opacity="1"/><circle id="circle5352" cx="152" cy="186.5" r="3" fill="url(#radialGradient5354)" fill-opacity="1" stroke="none" stroke-dasharray="none" stroke-dashoffset="0" stroke-linecap="round" stroke-linejoin="round" stroke-miterlimit="4" stroke-opacity=".498" stroke-width="2" display="inline" enable-background="new" opacity=".4"/></g></svg>