<svg xmlns="http://www.w3.org/2000/svg" xmlns:svg="http://www.w3.org/2000/svg" xmlns:xlink="http://www.w3.org/1999/xlink" id="svg11300" width="48" height="48" version="1.1"><metadata id="metadata151"/><defs id="defs3"><linearGradient id="linearGradient7622"><stop id="stop7624" offset="0" stop-color="#fff" stop-opacity="1"/><stop id="stop7626" offset="1" stop-color="#fff" stop-opacity="0"/></linearGradient><linearGradient id="linearGradient14993"><stop id="stop14995" offset="0" stop-color="#000" stop-opacity="1"/><stop id="stop14997" offset="1" stop-color="#000" stop-opacity="0"/></linearGradient><linearGradient id="linearGradient14981"><stop id="stop14983" offset="0" stop-color="#628430" stop-opacity="1"/><stop id="stop14985" offset="1" stop-color="#364d17" stop-opacity="1"/></linearGradient><linearGradient id="linearGradient14881"><stop id="stop14883" offset="0" stop-color="#877c32" stop-opacity="1"/><stop id="stop14893" offset="1" stop-color="#ffd716" stop-opacity="1"/></linearGradient><linearGradient id="linearGradient14780"><stop id="stop14782" offset="0" stop-color="#d3ba00" stop-opacity="1"/><stop id="stop14784" offset="1" stop-color="#d3ba00" stop-opacity="0"/></linearGradient><radialGradient id="radialGradient3052" cx="21.5" cy="44.75" r="17" fx="21.5" fy="44.75" gradientTransform="matrix(1.0298071,0,0,0.117647,-3.6475896,33.7353)" gradientUnits="userSpaceOnUse" xlink:href="#linearGradient14993"/><linearGradient id="linearGradient3191" x1="6.221" x2="6.238" y1="42.891" y2="39.267" gradientTransform="matrix(-1.984375,0,0,0.63101436,23.894095,9.595775)" gradientUnits="userSpaceOnUse" xlink:href="#linearGradient14780"/><linearGradient id="linearGradient3194" x1="6.221" x2="6.238" y1="42.891" y2="39.267" gradientTransform="matrix(-1.984375,0,0,0.63101436,26.894095,9.595775)" gradientUnits="userSpaceOnUse" xlink:href="#linearGradient14780"/><linearGradient id="linearGradient3197" x1="6.221" x2="6.238" y1="42.891" y2="39.267" gradientTransform="matrix(-1.984375,0,0,0.63101436,29.8941,9.595775)" gradientUnits="userSpaceOnUse" xlink:href="#linearGradient14780"/><linearGradient id="linearGradient3200" x1="6.221" x2="6.238" y1="42.891" y2="39.267" gradientTransform="matrix(-1.984375,0,0,0.63101436,32.909725,9.595775)" gradientUnits="userSpaceOnUse" xlink:href="#linearGradient14780"/><linearGradient id="linearGradient3203" x1="6.221" x2="6.238" y1="42.891" y2="39.267" gradientTransform="matrix(-1.984375,0,0,0.63101436,35.909725,9.595775)" gradientUnits="userSpaceOnUse" xlink:href="#linearGradient14780"/><linearGradient id="linearGradient3240" x1="6.221" x2="6.238" y1="42.891" y2="39.267" gradientTransform="matrix(-1.984375,0,0,0.63101436,20.90662,9.654933)" gradientUnits="userSpaceOnUse" xlink:href="#linearGradient14780"/><linearGradient id="linearGradient3240-5" x1="6.221" x2="6.238" y1="42.891" y2="39.267" gradientTransform="matrix(-1.984375,0,0,0.63101436,38.890995,9.654933)" gradientUnits="userSpaceOnUse" xlink:href="#linearGradient14780"/><linearGradient id="linearGradient4149" x1="8" x2="4.328" y1="19.5" y2="19.5" gradientTransform="matrix(0.33333333,0,0,1,1.3333333,3)" gradientUnits="userSpaceOnUse" xlink:href="#linearGradient14881"/><linearGradient id="linearGradient4152" x1="8" x2="4.328" y1="19.5" y2="19.5" gradientTransform="matrix(0.33333333,0,0,1,1.3333333,5)" gradientUnits="userSpaceOnUse" xlink:href="#linearGradient14881"/><linearGradient id="linearGradient4155" x1="8" x2="4.328" y1="19.5" y2="19.5" gradientTransform="matrix(0.33333333,0,0,1,1.3333333,7)" gradientUnits="userSpaceOnUse" xlink:href="#linearGradient14881"/><linearGradient id="linearGradient4158" x1="8" x2="4.328" y1="19.5" y2="19.5" gradientTransform="matrix(0.33333333,0,0,1,1.3333333,9)" gradientUnits="userSpaceOnUse" xlink:href="#linearGradient14881"/><linearGradient id="linearGradient4164" x1="24" x2="27" y1="21.5" y2="21.5" gradientTransform="matrix(0.33333325,0,0,1,-28.000001,-13)" gradientUnits="userSpaceOnUse" xlink:href="#linearGradient14881"/><linearGradient id="linearGradient4167" x1="24" x2="27" y1="19.5" y2="19.5" gradientTransform="matrix(0.33333325,0,0,1,-28.000001,-13)" gradientUnits="userSpaceOnUse" xlink:href="#linearGradient14881"/><linearGradient id="linearGradient4173" x1="8" x2="4.328" y1="19.5" y2="19.5" gradientTransform="matrix(0.33333332,0,0,1,-33.666663,-13)" gradientUnits="userSpaceOnUse" xlink:href="#linearGradient14881"/><linearGradient id="linearGradient4176" x1="8" x2="4.328" y1="19.5" y2="19.5" gradientTransform="matrix(0.33333332,0,0,1,-33.666663,-13)" gradientUnits="userSpaceOnUse" xlink:href="#linearGradient14881"/><linearGradient id="linearGradient4179" x1="16.965" x2="18.968" y1="20.166" y2="31.347" gradientTransform="matrix(0.53080754,0,0,0.75858647,-34.068311,-9.253833)" gradientUnits="userSpaceOnUse" xlink:href="#linearGradient7622"/><linearGradient id="linearGradient4340" x1="16.965" x2="18.968" y1="20.166" y2="31.347" gradientTransform="matrix(0.53080754,0,0,0.75858647,-34.068311,1.746167)" gradientUnits="userSpaceOnUse" xlink:href="#linearGradient7622"/><linearGradient id="linearGradient4342" x1="8" x2="4.328" y1="19.5" y2="19.5" gradientTransform="matrix(0.33333332,0,0,1,-33.666663,-2)" gradientUnits="userSpaceOnUse" xlink:href="#linearGradient14881"/><linearGradient id="linearGradient4344" x1="8" x2="4.328" y1="19.5" y2="19.5" gradientTransform="matrix(0.33333332,0,0,1,-33.666663,-2)" gradientUnits="userSpaceOnUse" xlink:href="#linearGradient14881"/><linearGradient id="linearGradient4346" x1="24" x2="27" y1="19.5" y2="19.5" gradientTransform="matrix(0.33333325,0,0,1,-28.000001,-2)" gradientUnits="userSpaceOnUse" xlink:href="#linearGradient14881"/><linearGradient id="linearGradient4348" x1="24" x2="27" y1="21.5" y2="21.5" gradientTransform="matrix(0.33333325,0,0,1,-28.000001,-2)" gradientUnits="userSpaceOnUse" xlink:href="#linearGradient14881"/><linearGradient id="linearGradient4350" x1="8" x2="4.328" y1="19.5" y2="19.5" gradientTransform="matrix(0.33333334,0,0,1,12.333335,9)" gradientUnits="userSpaceOnUse" xlink:href="#linearGradient14881"/><linearGradient id="linearGradient4352" x1="8" x2="4.328" y1="19.5" y2="19.5" gradientTransform="matrix(0.33333334,0,0,1,12.333335,7)" gradientUnits="userSpaceOnUse" xlink:href="#linearGradient14881"/><linearGradient id="linearGradient4354" x1="8" x2="4.328" y1="19.5" y2="19.5" gradientTransform="matrix(0.33333334,0,0,1,12.333335,5)" gradientUnits="userSpaceOnUse" xlink:href="#linearGradient14881"/><linearGradient id="linearGradient4356" x1="8" x2="4.328" y1="19.5" y2="19.5" gradientTransform="matrix(0.33333334,0,0,1,12.333335,3)" gradientUnits="userSpaceOnUse" xlink:href="#linearGradient14881"/><linearGradient id="linearGradient4394" x1="16.965" x2="18.968" y1="20.166" y2="31.347" gradientTransform="matrix(0.53080754,0,0,0.75858647,-34.068311,12.746167)" gradientUnits="userSpaceOnUse" xlink:href="#linearGradient7622"/><linearGradient id="linearGradient4396" x1="8" x2="4.328" y1="19.5" y2="19.5" gradientTransform="matrix(0.33333332,0,0,1,-33.666663,9)" gradientUnits="userSpaceOnUse" xlink:href="#linearGradient14881"/><linearGradient id="linearGradient4398" x1="8" x2="4.328" y1="19.5" y2="19.5" gradientTransform="matrix(0.33333332,0,0,1,-33.666663,9)" gradientUnits="userSpaceOnUse" xlink:href="#linearGradient14881"/><linearGradient id="linearGradient4400" x1="24" x2="27" y1="19.5" y2="19.5" gradientTransform="matrix(0.33333325,0,0,1,-28.000001,9)" gradientUnits="userSpaceOnUse" xlink:href="#linearGradient14881"/><linearGradient id="linearGradient4402" x1="24" x2="27" y1="21.5" y2="21.5" gradientTransform="matrix(0.33333325,0,0,1,-28.000001,9)" gradientUnits="userSpaceOnUse" xlink:href="#linearGradient14881"/><linearGradient id="linearGradient4404" x1="8" x2="4.328" y1="19.5" y2="19.5" gradientTransform="matrix(0.33333334,0,0,1,23.333335,9)" gradientUnits="userSpaceOnUse" xlink:href="#linearGradient14881"/><linearGradient id="linearGradient4406" x1="8" x2="4.328" y1="19.5" y2="19.5" gradientTransform="matrix(0.33333334,0,0,1,23.333335,7)" gradientUnits="userSpaceOnUse" xlink:href="#linearGradient14881"/><linearGradient id="linearGradient4408" x1="8" x2="4.328" y1="19.5" y2="19.5" gradientTransform="matrix(0.33333334,0,0,1,23.333335,5)" gradientUnits="userSpaceOnUse" xlink:href="#linearGradient14881"/><linearGradient id="linearGradient4410" x1="8" x2="4.328" y1="19.5" y2="19.5" gradientTransform="matrix(0.33333334,0,0,1,23.333335,3)" gradientUnits="userSpaceOnUse" xlink:href="#linearGradient14881"/><linearGradient id="linearGradient4448" x1="16.965" x2="18.968" y1="20.166" y2="31.347" gradientTransform="matrix(0.53080754,0,0,0.75858647,-34.068311,23.746167)" gradientUnits="userSpaceOnUse" xlink:href="#linearGradient7622"/><linearGradient id="linearGradient4450" x1="8" x2="4.328" y1="19.5" y2="19.5" gradientTransform="matrix(0.33333332,0,0,1,-33.666663,20)" gradientUnits="userSpaceOnUse" xlink:href="#linearGradient14881"/><linearGradient id="linearGradient4452" x1="8" x2="4.328" y1="19.5" y2="19.5" gradientTransform="matrix(0.33333332,0,0,1,-33.666663,20)" gradientUnits="userSpaceOnUse" xlink:href="#linearGradient14881"/><linearGradient id="linearGradient4454" x1="24" x2="27" y1="19.5" y2="19.5" gradientTransform="matrix(0.33333325,0,0,1,-28.000001,20)" gradientUnits="userSpaceOnUse" xlink:href="#linearGradient14881"/><linearGradient id="linearGradient4456" x1="24" x2="27" y1="21.5" y2="21.5" gradientTransform="matrix(0.33333325,0,0,1,-28.000001,20)" gradientUnits="userSpaceOnUse" xlink:href="#linearGradient14881"/><linearGradient id="linearGradient4458" x1="8" x2="4.328" y1="19.5" y2="19.5" gradientTransform="matrix(0.33333334,0,0,1,34.333335,9)" gradientUnits="userSpaceOnUse" xlink:href="#linearGradient14881"/><linearGradient id="linearGradient4460" x1="8" x2="4.328" y1="19.5" y2="19.5" gradientTransform="matrix(0.33333334,0,0,1,34.333335,7)" gradientUnits="userSpaceOnUse" xlink:href="#linearGradient14881"/><linearGradient id="linearGradient4462" x1="8" x2="4.328" y1="19.5" y2="19.5" gradientTransform="matrix(0.33333334,0,0,1,34.333335,5)" gradientUnits="userSpaceOnUse" xlink:href="#linearGradient14881"/><linearGradient id="linearGradient4464" x1="8" x2="4.328" y1="19.5" y2="19.5" gradientTransform="matrix(0.33333334,0,0,1,34.333335,3)" gradientUnits="userSpaceOnUse" xlink:href="#linearGradient14881"/><linearGradient id="linearGradient4490" x1="8" x2="4.328" y1="19.5" y2="19.5" gradientTransform="matrix(0.33333334,0,0,1,-13.666664,9)" gradientUnits="userSpaceOnUse" xlink:href="#linearGradient14881"/><linearGradient id="linearGradient4492" x1="8" x2="4.328" y1="19.5" y2="19.5" gradientTransform="matrix(0.33333334,0,0,1,-13.666664,7)" gradientUnits="userSpaceOnUse" xlink:href="#linearGradient14881"/><linearGradient id="linearGradient4494" x1="8" x2="4.328" y1="19.5" y2="19.5" gradientTransform="matrix(0.33333334,0,0,1,-13.666664,5)" gradientUnits="userSpaceOnUse" xlink:href="#linearGradient14881"/><linearGradient id="linearGradient4496" x1="8" x2="4.328" y1="19.5" y2="19.5" gradientTransform="matrix(0.33333334,0,0,1,-13.666664,3)" gradientUnits="userSpaceOnUse" xlink:href="#linearGradient14881"/><linearGradient id="linearGradient4506" x1="8" x2="4.328" y1="19.5" y2="19.5" gradientTransform="matrix(0.33333334,0,0,1,-24.666667,9)" gradientUnits="userSpaceOnUse" xlink:href="#linearGradient14881"/><linearGradient id="linearGradient4508" x1="8" x2="4.328" y1="19.5" y2="19.5" gradientTransform="matrix(0.33333334,0,0,1,-24.666667,7)" gradientUnits="userSpaceOnUse" xlink:href="#linearGradient14881"/><linearGradient id="linearGradient4510" x1="8" x2="4.328" y1="19.5" y2="19.5" gradientTransform="matrix(0.33333334,0,0,1,-24.666667,5)" gradientUnits="userSpaceOnUse" xlink:href="#linearGradient14881"/><linearGradient id="linearGradient4512" x1="8" x2="4.328" y1="19.5" y2="19.5" gradientTransform="matrix(0.33333334,0,0,1,-24.666667,3)" gradientUnits="userSpaceOnUse" xlink:href="#linearGradient14881"/><linearGradient id="linearGradient4522" x1="8" x2="4.328" y1="19.5" y2="19.5" gradientTransform="matrix(0.33333334,0,0,1,-35.666675,9)" gradientUnits="userSpaceOnUse" xlink:href="#linearGradient14881"/><linearGradient id="linearGradient4524" x1="8" x2="4.328" y1="19.5" y2="19.5" gradientTransform="matrix(0.33333334,0,0,1,-35.666675,7)" gradientUnits="userSpaceOnUse" xlink:href="#linearGradient14881"/><linearGradient id="linearGradient4526" x1="8" x2="4.328" y1="19.5" y2="19.5" gradientTransform="matrix(0.33333334,0,0,1,-35.666675,5)" gradientUnits="userSpaceOnUse" xlink:href="#linearGradient14881"/><linearGradient id="linearGradient4528" x1="8" x2="4.328" y1="19.5" y2="19.5" gradientTransform="matrix(0.33333334,0,0,1,-35.666675,3)" gradientUnits="userSpaceOnUse" xlink:href="#linearGradient14881"/><linearGradient id="linearGradient4701" x1="8" x2="4.328" y1="19.5" y2="19.5" gradientTransform="matrix(0.33333335,0,0,1,-46.666675,9)" gradientUnits="userSpaceOnUse" xlink:href="#linearGradient14881"/><linearGradient id="linearGradient4703" x1="8" x2="4.328" y1="19.5" y2="19.5" gradientTransform="matrix(0.33333335,0,0,1,-46.666675,7)" gradientUnits="userSpaceOnUse" xlink:href="#linearGradient14881"/><linearGradient id="linearGradient4705" x1="8" x2="4.328" y1="19.5" y2="19.5" gradientTransform="matrix(0.33333335,0,0,1,-46.666675,5)" gradientUnits="userSpaceOnUse" xlink:href="#linearGradient14881"/><linearGradient id="linearGradient4707" x1="8" x2="4.328" y1="19.5" y2="19.5" gradientTransform="matrix(0.33333335,0,0,1,-46.666675,3)" gradientUnits="userSpaceOnUse" xlink:href="#linearGradient14881"/><linearGradient id="linearGradient2965" x1="6.221" x2="6.238" y1="42.891" y2="39.267" gradientTransform="matrix(-1.984375,0,0,0.63101436,41.890995,9.654933)" gradientUnits="userSpaceOnUse" xlink:href="#linearGradient14780"/><radialGradient id="radialGradient3735" cx="10.78" cy="14.525" r="23" fx="10.78" fy="14.525" gradientTransform="matrix(2.7924626,0.12350657,-0.03207093,0.72511852,-18.856296,8.6275129)" gradientUnits="userSpaceOnUse" xlink:href="#linearGradient14981"/><radialGradient id="radialGradient3737" cx="6.509" cy="12.336" r="21.999" fx="6.509" fy="12.336" gradientTransform="matrix(2.0637128,-0.0048795,0.00194612,0.82308374,-6.9477446,9.547274)" gradientUnits="userSpaceOnUse" xlink:href="#linearGradient7622"/></defs><path d="M 36,39 A 17.506728,2 0 0 1 0.9865434,39 17.506728,2 0 1 1 36,39 z" style="marker:none" id="path14991" fill="url(#radialGradient3052)" fill-opacity="1" fill-rule="nonzero" stroke="none" stroke-width="1" color="#000" display="block" opacity=".3" overflow="visible" visibility="visible"/><path id="rect14772" fill="url(#radialGradient3735)" fill-opacity="1" fill-rule="nonzero" stroke="#28390d" stroke-dasharray="none" stroke-dashoffset="0" stroke-linecap="butt" stroke-linejoin="round" stroke-miterlimit="4" stroke-opacity="1" stroke-width="1" d="m 46.5,35.500087 -15,0.01563 0,2.984283 -26,0 0,-3.007708 -4,0.0078 0,-20.000092 45,0 0,20.000087 z" color="#000" display="block" overflow="visible" visibility="visible" style="marker:none"/><path d="m 23.011288,34.58 c -0.799672,0 -0.992188,0.397066 -0.992188,0.571857 l 0,2.788985 c 0,0 1.984375,0 1.984375,0 l 0,-2.788985 c 0,-0.174791 -0.208141,-0.571857 -0.992187,-0.571857 z" style="marker:none" id="path14796" fill="url(#linearGradient3203)" fill-opacity="1" fill-rule="nonzero" stroke="none" stroke-width="1" color="#000" display="block" overflow="visible" visibility="visible"/><path d="m 20.011288,34.58 c -0.799672,0 -0.992188,0.397066 -0.992188,0.571857 l 0,2.788985 c 0,0 1.984375,0 1.984375,0 l 0,-2.788985 c 0,-0.174791 -0.208141,-0.571857 -0.992187,-0.571857 z" style="marker:none" id="path14800" fill="url(#linearGradient3200)" fill-opacity="1" fill-rule="nonzero" stroke="none" stroke-width="1" color="#000" display="block" overflow="visible" visibility="visible"/><path d="m 16.995663,34.58 c -0.799672,0 -0.992188,0.397066 -0.992188,0.571857 l 0,2.788985 c 0,0 1.984375,0 1.984375,0 l 0,-2.788985 C 17.98785,34.977066 17.779709,34.58 16.995663,34.58 z" style="marker:none" id="path14804" fill="url(#linearGradient3197)" fill-opacity="1" fill-rule="nonzero" stroke="none" stroke-width="1" color="#000" display="block" overflow="visible" visibility="visible"/><path d="m 13.995663,34.58 c -0.799672,0 -0.992188,0.397066 -0.992188,0.571857 l 0,2.788985 c 0,0 1.984375,0 1.984375,0 l 0,-2.788985 C 14.98785,34.977066 14.779709,34.58 13.995663,34.58 z" style="marker:none" id="path14808" fill="url(#linearGradient3194)" fill-opacity="1" fill-rule="nonzero" stroke="none" stroke-width="1" color="#000" display="block" overflow="visible" visibility="visible"/><path d="m 10.995663,34.58 c -0.799672,0 -0.992188,0.397066 -0.992188,0.571857 l 0,2.788985 c 0,0 1.984375,0 1.984375,0 l 0,-2.788985 C 11.98785,34.977066 11.779709,34.58 10.995663,34.58 z" style="marker:none" id="path14812" fill="url(#linearGradient3191)" fill-opacity="1" fill-rule="nonzero" stroke="none" stroke-width="1" color="#000" display="block" overflow="visible" visibility="visible"/><path id="path14989" fill="none" stroke="url(#radialGradient3737)" stroke-dasharray="none" stroke-dashoffset="0" stroke-linecap="butt" stroke-linejoin="miter" stroke-miterlimit="4" stroke-opacity="1" stroke-width="1" d="m 45.5,34.501619 -15,-5.6e-5 0,2.981437 -24,0 0,-2.988013 -3.9951863,0.0027 C 2.5008137,34.497278 2.5011137,16.5 2.5011137,16.5 L 45.5,16.5 c -0.004,8.338625 0,18.001628 0,18.001628 l 0,-9e-6 z" color="#000" display="block" opacity=".4" overflow="visible" visibility="visible" style="marker:none"/><rect stroke-linejoin="miter" style="marker:none" id="rect14857" width="10.056" height="5.93" x="-30.528" y="4.504" fill="#555753" fill-opacity="1" fill-rule="nonzero" stroke="#2e3436" stroke-dasharray="none" stroke-dashoffset="0" stroke-linecap="butt" stroke-miterlimit="4" stroke-opacity="1" stroke-width="1" color="#000" display="block" overflow="visible" rx=".942" ry=".942" transform="matrix(0,-1,1,0,0,0)" visibility="visible"/><rect stroke-miterlimit="4" style="marker:none" id="rect14859" width="8.016" height="3.882" x="-29.583" y="5.511" fill="none" stroke="url(#linearGradient4179)" stroke-dasharray="none" stroke-dashoffset="0" stroke-linecap="butt" stroke-linejoin="miter" stroke-opacity="1" stroke-width="1" color="#000" display="block" opacity=".17" overflow="visible" rx="0" ry="0" transform="matrix(0,-1,1,0,0,0)" visibility="visible"/><rect id="rect14869" width="1" height="1" x="-32" y="6" fill="url(#linearGradient4176)" fill-opacity="1" fill-rule="nonzero" stroke="none" stroke-width="1" color="#000" display="block" overflow="visible" transform="matrix(0,-1,1,0,0,0)" visibility="visible" style="marker:none"/><rect id="rect14871" width="1" height="1" x="-32" y="8" fill="url(#linearGradient4173)" fill-opacity="1" fill-rule="nonzero" stroke="none" stroke-width="1" color="#000" display="block" overflow="visible" transform="matrix(0,-1,1,0,0,0)" visibility="visible" style="marker:none"/><rect id="rect14875" width="1" height="1" x="-20" y="6" fill="url(#linearGradient4167)" fill-opacity="1" fill-rule="nonzero" stroke="none" stroke-width="1" color="#000" display="block" overflow="visible" transform="matrix(0,-1,1,0,0,0)" visibility="visible" style="marker:none"/><rect id="rect14877" width="1" height="1" x="-20" y="8" fill="url(#linearGradient4164)" fill-opacity="1" fill-rule="nonzero" stroke="none" stroke-width="1" color="#000" display="block" overflow="visible" transform="matrix(0,-1,1,0,0,0)" visibility="visible" style="marker:none"/><rect id="rect14901" width="1" height="1" x="3" y="28" fill="url(#linearGradient4158)" fill-opacity="1" fill-rule="nonzero" stroke="none" stroke-width="1" color="#000" display="block" overflow="visible" visibility="visible" style="marker:none"/><rect id="rect14905" width="1" height="1" x="3" y="26" fill="url(#linearGradient4155)" fill-opacity="1" fill-rule="nonzero" stroke="none" stroke-width="1" color="#000" display="block" overflow="visible" visibility="visible" style="marker:none"/><rect id="rect14909" width="1" height="1" x="3" y="24" fill="url(#linearGradient4152)" fill-opacity="1" fill-rule="nonzero" stroke="none" stroke-width="1" color="#000" display="block" overflow="visible" visibility="visible" style="marker:none"/><rect id="rect14913" width="1" height="1" x="3" y="22" fill="url(#linearGradient4149)" fill-opacity="1" fill-rule="nonzero" stroke="none" stroke-width="1" color="#000" display="block" overflow="visible" visibility="visible" style="marker:none"/><path d="m 8.008188,34.639158 c -0.799672,0 -0.992188,0.397065 -0.992188,0.571856 L 7.016,38 c 0,0 1.984375,0 1.984375,0 l 0,-2.788986 c 0,-0.174791 -0.208141,-0.571856 -0.992187,-0.571856 z" style="marker:none" id="path14812-7" fill="url(#linearGradient3240)" fill-opacity="1" fill-rule="nonzero" stroke="none" stroke-width="1" color="#000" display="block" overflow="visible" visibility="visible"/><path d="m 25.992563,34.639158 c -0.799672,0 -0.992188,0.397065 -0.992188,0.571856 l 0,2.788986 c 0,0 1.984375,0 1.984375,0 l 0,-2.788986 c 0,-0.174791 -0.208141,-0.571856 -0.992187,-0.571856 z" style="marker:none" id="path14812-9" fill="url(#linearGradient3240-5)" fill-opacity="1" fill-rule="nonzero" stroke="none" stroke-width="1" color="#000" display="block" overflow="visible" visibility="visible"/><rect stroke-linejoin="miter" style="marker:none" id="rect4312" width="10.056" height="5.93" x="-30.528" y="15.504" fill="#555753" fill-opacity="1" fill-rule="nonzero" stroke="#2e3436" stroke-dasharray="none" stroke-dashoffset="0" stroke-linecap="butt" stroke-miterlimit="4" stroke-opacity="1" stroke-width="1" color="#000" display="block" overflow="visible" rx=".942" ry=".942" transform="matrix(0,-1,1,0,0,0)" visibility="visible"/><rect stroke-miterlimit="4" style="marker:none" id="rect4314" width="8.016" height="3.882" x="-29.583" y="16.511" fill="none" stroke="url(#linearGradient4340)" stroke-dasharray="none" stroke-dashoffset="0" stroke-linecap="butt" stroke-linejoin="miter" stroke-opacity="1" stroke-width="1" color="#000" display="block" opacity=".17" overflow="visible" rx="0" ry="0" transform="matrix(0,-1,1,0,0,0)" visibility="visible"/><rect id="rect4316" width="1" height="1" x="-32" y="17" fill="url(#linearGradient4342)" fill-opacity="1" fill-rule="nonzero" stroke="none" stroke-width="1" color="#000" display="block" overflow="visible" transform="matrix(0,-1,1,0,0,0)" visibility="visible" style="marker:none"/><rect id="rect4318" width="1" height="1" x="-32" y="19" fill="url(#linearGradient4344)" fill-opacity="1" fill-rule="nonzero" stroke="none" stroke-width="1" color="#000" display="block" overflow="visible" transform="matrix(0,-1,1,0,0,0)" visibility="visible" style="marker:none"/><rect id="rect4320" width="1" height="1" x="-20" y="17" fill="url(#linearGradient4346)" fill-opacity="1" fill-rule="nonzero" stroke="none" stroke-width="1" color="#000" display="block" overflow="visible" transform="matrix(0,-1,1,0,0,0)" visibility="visible" style="marker:none"/><rect id="rect4322" width="1" height="1" x="-20" y="19" fill="url(#linearGradient4348)" fill-opacity="1" fill-rule="nonzero" stroke="none" stroke-width="1" color="#000" display="block" overflow="visible" transform="matrix(0,-1,1,0,0,0)" visibility="visible" style="marker:none"/><rect id="rect4324" width="1" height="1" x="14" y="28" fill="url(#linearGradient4350)" fill-opacity="1" fill-rule="nonzero" stroke="none" stroke-width="1" color="#000" display="block" overflow="visible" visibility="visible" style="marker:none"/><rect id="rect4326" width="1" height="1" x="14" y="26" fill="url(#linearGradient4352)" fill-opacity="1" fill-rule="nonzero" stroke="none" stroke-width="1" color="#000" display="block" overflow="visible" visibility="visible" style="marker:none"/><rect id="rect4328" width="1" height="1" x="14" y="24" fill="url(#linearGradient4354)" fill-opacity="1" fill-rule="nonzero" stroke="none" stroke-width="1" color="#000" display="block" overflow="visible" visibility="visible" style="marker:none"/><rect id="rect4330" width="1" height="1" x="14" y="22" fill="url(#linearGradient4356)" fill-opacity="1" fill-rule="nonzero" stroke="none" stroke-width="1" color="#000" display="block" overflow="visible" visibility="visible" style="marker:none"/><rect stroke-linejoin="miter" style="marker:none" id="rect4366" width="10.056" height="5.93" x="-30.528" y="26.504" fill="#555753" fill-opacity="1" fill-rule="nonzero" stroke="#2e3436" stroke-dasharray="none" stroke-dashoffset="0" stroke-linecap="butt" stroke-miterlimit="4" stroke-opacity="1" stroke-width="1" color="#000" display="block" overflow="visible" rx=".942" ry=".942" transform="matrix(0,-1,1,0,0,0)" visibility="visible"/><rect stroke-miterlimit="4" style="marker:none" id="rect4368" width="8.016" height="3.882" x="-29.583" y="27.511" fill="none" stroke="url(#linearGradient4394)" stroke-dasharray="none" stroke-dashoffset="0" stroke-linecap="butt" stroke-linejoin="miter" stroke-opacity="1" stroke-width="1" color="#000" display="block" opacity=".17" overflow="visible" rx="0" ry="0" transform="matrix(0,-1,1,0,0,0)" visibility="visible"/><rect id="rect4370" width="1" height="1" x="-32" y="28" fill="url(#linearGradient4396)" fill-opacity="1" fill-rule="nonzero" stroke="none" stroke-width="1" color="#000" display="block" overflow="visible" transform="matrix(0,-1,1,0,0,0)" visibility="visible" style="marker:none"/><rect id="rect4372" width="1" height="1" x="-32" y="30" fill="url(#linearGradient4398)" fill-opacity="1" fill-rule="nonzero" stroke="none" stroke-width="1" color="#000" display="block" overflow="visible" transform="matrix(0,-1,1,0,0,0)" visibility="visible" style="marker:none"/><rect id="rect4374" width="1" height="1" x="-20" y="28" fill="url(#linearGradient4400)" fill-opacity="1" fill-rule="nonzero" stroke="none" stroke-width="1" color="#000" display="block" overflow="visible" transform="matrix(0,-1,1,0,0,0)" visibility="visible" style="marker:none"/><rect id="rect4376" width="1" height="1" x="-20" y="30" fill="url(#linearGradient4402)" fill-opacity="1" fill-rule="nonzero" stroke="none" stroke-width="1" color="#000" display="block" overflow="visible" transform="matrix(0,-1,1,0,0,0)" visibility="visible" style="marker:none"/><rect id="rect4378" width="1" height="1" x="25" y="28" fill="url(#linearGradient4404)" fill-opacity="1" fill-rule="nonzero" stroke="none" stroke-width="1" color="#000" display="block" overflow="visible" visibility="visible" style="marker:none"/><rect id="rect4380" width="1" height="1" x="25" y="26" fill="url(#linearGradient4406)" fill-opacity="1" fill-rule="nonzero" stroke="none" stroke-width="1" color="#000" display="block" overflow="visible" visibility="visible" style="marker:none"/><rect id="rect4382" width="1" height="1" x="25" y="24" fill="url(#linearGradient4408)" fill-opacity="1" fill-rule="nonzero" stroke="none" stroke-width="1" color="#000" display="block" overflow="visible" visibility="visible" style="marker:none"/><rect id="rect4384" width="1" height="1" x="25" y="22" fill="url(#linearGradient4410)" fill-opacity="1" fill-rule="nonzero" stroke="none" stroke-width="1" color="#000" display="block" overflow="visible" visibility="visible" style="marker:none"/><rect stroke-linejoin="miter" style="marker:none" id="rect4420" width="10.056" height="5.93" x="-30.528" y="37.504" fill="#555753" fill-opacity="1" fill-rule="nonzero" stroke="#2e3436" stroke-dasharray="none" stroke-dashoffset="0" stroke-linecap="butt" stroke-miterlimit="4" stroke-opacity="1" stroke-width="1" color="#000" display="block" overflow="visible" rx=".942" ry=".942" transform="matrix(0,-1,1,0,0,0)" visibility="visible"/><rect stroke-miterlimit="4" style="marker:none" id="rect4422" width="8.016" height="3.882" x="-29.583" y="38.511" fill="none" stroke="url(#linearGradient4448)" stroke-dasharray="none" stroke-dashoffset="0" stroke-linecap="butt" stroke-linejoin="miter" stroke-opacity="1" stroke-width="1" color="#000" display="block" opacity=".17" overflow="visible" rx="0" ry="0" transform="matrix(0,-1,1,0,0,0)" visibility="visible"/><rect id="rect4424" width="1" height="1" x="-32" y="39" fill="url(#linearGradient4450)" fill-opacity="1" fill-rule="nonzero" stroke="none" stroke-width="1" color="#000" display="block" overflow="visible" transform="matrix(0,-1,1,0,0,0)" visibility="visible" style="marker:none"/><rect id="rect4426" width="1" height="1" x="-32" y="41" fill="url(#linearGradient4452)" fill-opacity="1" fill-rule="nonzero" stroke="none" stroke-width="1" color="#000" display="block" overflow="visible" transform="matrix(0,-1,1,0,0,0)" visibility="visible" style="marker:none"/><rect id="rect4428" width="1" height="1" x="-20" y="39" fill="url(#linearGradient4454)" fill-opacity="1" fill-rule="nonzero" stroke="none" stroke-width="1" color="#000" display="block" overflow="visible" transform="matrix(0,-1,1,0,0,0)" visibility="visible" style="marker:none"/><rect id="rect4430" width="1" height="1" x="-20" y="41" fill="url(#linearGradient4456)" fill-opacity="1" fill-rule="nonzero" stroke="none" stroke-width="1" color="#000" display="block" overflow="visible" transform="matrix(0,-1,1,0,0,0)" visibility="visible" style="marker:none"/><rect id="rect4432" width="1" height="1" x="36" y="28" fill="url(#linearGradient4458)" fill-opacity="1" fill-rule="nonzero" stroke="none" stroke-width="1" color="#000" display="block" overflow="visible" visibility="visible" style="marker:none"/><rect id="rect4434" width="1" height="1" x="36" y="26" fill="url(#linearGradient4460)" fill-opacity="1" fill-rule="nonzero" stroke="none" stroke-width="1" color="#000" display="block" overflow="visible" visibility="visible" style="marker:none"/><rect id="rect4436" width="1" height="1" x="36" y="24" fill="url(#linearGradient4462)" fill-opacity="1" fill-rule="nonzero" stroke="none" stroke-width="1" color="#000" display="block" overflow="visible" visibility="visible" style="marker:none"/><rect id="rect4438" width="1" height="1" x="36" y="22" fill="url(#linearGradient4464)" fill-opacity="1" fill-rule="nonzero" stroke="none" stroke-width="1" color="#000" display="block" overflow="visible" visibility="visible" style="marker:none"/><rect id="rect4482" width="1" height="1" x="-12" y="28" fill="url(#linearGradient4490)" fill-opacity="1" fill-rule="nonzero" stroke="none" stroke-width="1" color="#000" display="block" overflow="visible" transform="scale(-1,1)" visibility="visible" style="marker:none"/><rect id="rect4484" width="1" height="1" x="-12" y="26" fill="url(#linearGradient4492)" fill-opacity="1" fill-rule="nonzero" stroke="none" stroke-width="1" color="#000" display="block" overflow="visible" transform="scale(-1,1)" visibility="visible" style="marker:none"/><rect id="rect4486" width="1" height="1" x="-12" y="24" fill="url(#linearGradient4494)" fill-opacity="1" fill-rule="nonzero" stroke="none" stroke-width="1" color="#000" display="block" overflow="visible" transform="scale(-1,1)" visibility="visible" style="marker:none"/><rect id="rect4488" width="1" height="1" x="-12" y="22" fill="url(#linearGradient4496)" fill-opacity="1" fill-rule="nonzero" stroke="none" stroke-width="1" color="#000" display="block" overflow="visible" transform="scale(-1,1)" visibility="visible" style="marker:none"/><rect id="rect4498" width="1" height="1" x="-23" y="28" fill="url(#linearGradient4506)" fill-opacity="1" fill-rule="nonzero" stroke="none" stroke-width="1" color="#000" display="block" overflow="visible" transform="scale(-1,1)" visibility="visible" style="marker:none"/><rect id="rect4500" width="1" height="1" x="-23" y="26" fill="url(#linearGradient4508)" fill-opacity="1" fill-rule="nonzero" stroke="none" stroke-width="1" color="#000" display="block" overflow="visible" transform="scale(-1,1)" visibility="visible" style="marker:none"/><rect id="rect4502" width="1" height="1" x="-23" y="24" fill="url(#linearGradient4510)" fill-opacity="1" fill-rule="nonzero" stroke="none" stroke-width="1" color="#000" display="block" overflow="visible" transform="scale(-1,1)" visibility="visible" style="marker:none"/><rect id="rect4504" width="1" height="1" x="-23" y="22" fill="url(#linearGradient4512)" fill-opacity="1" fill-rule="nonzero" stroke="none" stroke-width="1" color="#000" display="block" overflow="visible" transform="scale(-1,1)" visibility="visible" style="marker:none"/><rect id="rect4514" width="1" height="1" x="-34" y="28" fill="url(#linearGradient4522)" fill-opacity="1" fill-rule="nonzero" stroke="none" stroke-width="1" color="#000" display="block" overflow="visible" transform="scale(-1,1)" visibility="visible" style="marker:none"/><rect id="rect4516" width="1" height="1" x="-34" y="26" fill="url(#linearGradient4524)" fill-opacity="1" fill-rule="nonzero" stroke="none" stroke-width="1" color="#000" display="block" overflow="visible" transform="scale(-1,1)" visibility="visible" style="marker:none"/><rect id="rect4518" width="1" height="1" x="-34" y="24" fill="url(#linearGradient4526)" fill-opacity="1" fill-rule="nonzero" stroke="none" stroke-width="1" color="#000" display="block" overflow="visible" transform="scale(-1,1)" visibility="visible" style="marker:none"/><rect id="rect4520" width="1" height="1" x="-34" y="22" fill="url(#linearGradient4528)" fill-opacity="1" fill-rule="nonzero" stroke="none" stroke-width="1" color="#000" display="block" overflow="visible" transform="scale(-1,1)" visibility="visible" style="marker:none"/><rect id="rect4693" width="1" height="1" x="-45" y="28" fill="url(#linearGradient4701)" fill-opacity="1" fill-rule="nonzero" stroke="none" stroke-width="1" color="#000" display="block" overflow="visible" transform="scale(-1,1)" visibility="visible" style="marker:none"/><rect id="rect4695" width="1" height="1" x="-45" y="26" fill="url(#linearGradient4703)" fill-opacity="1" fill-rule="nonzero" stroke="none" stroke-width="1" color="#000" display="block" overflow="visible" transform="scale(-1,1)" visibility="visible" style="marker:none"/><rect id="rect4697" width="1" height="1" x="-45" y="24" fill="url(#linearGradient4705)" fill-opacity="1" fill-rule="nonzero" stroke="none" stroke-width="1" color="#000" display="block" overflow="visible" transform="scale(-1,1)" visibility="visible" style="marker:none"/><rect id="rect4699" width="1" height="1" x="-45" y="22" fill="url(#linearGradient4707)" fill-opacity="1" fill-rule="nonzero" stroke="none" stroke-width="1" color="#000" display="block" overflow="visible" transform="scale(-1,1)" visibility="visible" style="marker:none"/><path d="m 28.992563,34.639158 c -0.799672,0 -0.992188,0.397065 -0.992188,0.571856 l 0,2.788986 c 0,0 1.984375,0 1.984375,0 l 0,-2.788986 c 0,-0.174791 -0.208141,-0.571856 -0.992187,-0.571856 z" style="marker:none" id="path2963" fill="url(#linearGradient2965)" fill-opacity="1" fill-rule="nonzero" stroke="none" stroke-width="1" color="#000" display="block" overflow="visible" visibility="visible"/></svg>