<svg xmlns="http://www.w3.org/2000/svg" xmlns:svg="http://www.w3.org/2000/svg" xmlns:xlink="http://www.w3.org/1999/xlink" id="SVGRoot" width="48" height="48" version="1.1" viewBox="0 0 48 48"><defs id="defs4265"><linearGradient id="linearGradient5067"><stop id="stop5063" offset="0" stop-color="#000" stop-opacity=".239"/><stop id="stop5065" offset="1" stop-color="#000" stop-opacity=".318"/></linearGradient><linearGradient id="linearGradient3421" x1="32.085" x2="32.085" y1="-14.402" y2="-5.563" gradientTransform="matrix(0.6655121,0,0,0.4518781,-54.615029,45.875214)" gradientUnits="userSpaceOnUse" xlink:href="#linearGradient47870"/><linearGradient id="linearGradient47870"><stop id="stop47872" offset="0" stop-color="#000" stop-opacity="0"/><stop id="stop47878" offset=".5" stop-color="#000" stop-opacity="1"/><stop id="stop47874" offset="1" stop-color="#000" stop-opacity="0"/></linearGradient><radialGradient id="radialGradient3418" cx="51.438" cy="-12.203" r="2.172" fx="51.438" fy="-12.203" gradientTransform="matrix(1.8417267,-5.1455073e-7,6.2669991e-7,0.9200109,-115.2312,52.586443)" gradientUnits="userSpaceOnUse" xlink:href="#linearGradient51765"/><linearGradient id="linearGradient51765"><stop id="stop51767" offset="0" stop-color="#000" stop-opacity="1"/><stop id="stop51769" offset="1" stop-color="#000" stop-opacity="0"/></linearGradient><radialGradient id="radialGradient4191" cx="51.438" cy="-12.203" r="2.172" fx="51.438" fy="-12.203" gradientTransform="matrix(-1.8417267,-5.8450938e-8,-1.2125708e-7,0.9200109,52.236437,52.586419)" gradientUnits="userSpaceOnUse" xlink:href="#linearGradient51765"/><linearGradient id="linearGradient3043" x1="24" x2="24" y1="37" y2="39" gradientTransform="translate(-8.32461e-8,2.9999999)" gradientUnits="userSpaceOnUse" xlink:href="#linearGradient3260"/><linearGradient id="linearGradient3260"><stop id="stop3262" offset="0" stop-color="#3c3c3c" stop-opacity="1"/><stop id="stop3264" offset="1" stop-color="#505050" stop-opacity="1"/></linearGradient><linearGradient id="linearGradient3054" x1="25.132" x2="25.132" y1="2.911" y2="48.137" gradientTransform="matrix(0.7106859,0,0,0.9317046,6.8910672,-0.8074935)" gradientUnits="userSpaceOnUse" xlink:href="#linearGradient3600"/><linearGradient id="linearGradient3600"><stop id="stop3602" offset="0" stop-color="#f4f4f4" stop-opacity="1"/><stop id="stop3604" offset="1" stop-color="#dbdbdb" stop-opacity="1"/></linearGradient><linearGradient id="linearGradient4020" x1="15" x2="15" y1="24.619" y2="2" gradientTransform="matrix(0.5500001,0,0,1.3043479,12.449999,18.434783)" gradientUnits="userSpaceOnUse" xlink:href="#outerBackgroundGradient-5-0"/><linearGradient id="outerBackgroundGradient-5-0"><stop id="stop3864-8-6-4" offset="0" stop-color="#261e2b" stop-opacity="1"/><stop id="stop3866-9-1-86" offset="1" stop-color="#352f39" stop-opacity="1"/></linearGradient><linearGradient id="linearGradient3887" x1="10" x2="20" y1="-3" y2="12" gradientTransform="matrix(0.60000006,0,0,2.2777778,11.399998,20.22222)" gradientUnits="userSpaceOnUse" xlink:href="#linearGradient3208"/><linearGradient id="linearGradient3208"><stop id="stop3210" offset="0" stop-color="#fff" stop-opacity="1"/><stop id="stop3212" offset="1" stop-color="#fff" stop-opacity="0"/></linearGradient><linearGradient id="linearGradient3916" x1="24" x2="24" y1="5.889" y2="42.075" gradientTransform="matrix(0.62162171,0,0,1.108108,9.081075,-3.5945821)" gradientUnits="userSpaceOnUse" xlink:href="#linearGradient4630"/><linearGradient id="linearGradient4630"><stop id="stop4622" offset="0" stop-color="#fff" stop-opacity="1"/><stop id="stop4624" offset=".022" stop-color="#fff" stop-opacity=".235"/><stop id="stop4626" offset=".98" stop-color="#fff" stop-opacity=".157"/><stop id="stop4628" offset="1" stop-color="#fff" stop-opacity=".392"/></linearGradient><linearGradient id="linearGradient5069" x1="27.075" x2="27.075" y1="1.093" y2="44.832" gradientUnits="userSpaceOnUse" xlink:href="#linearGradient5067"/></defs><metadata id="metadata4268"/><g id="layer1"><g id="g3423" transform="matrix(0.9333333,0,0,1.2500002,53.397557,-8.201581)"><rect id="rect46899" width="22" height="3.994" x="-42.497" y="39.367" fill="url(#linearGradient3421)" fill-opacity="1" fill-rule="evenodd" stroke="none" opacity=".3"/><path id="path48849" fill="url(#radialGradient3418)" fill-opacity="1" fill-rule="evenodd" stroke="none" d="m -20.497383,39.36126 v 3.996297 c 2.205021,-0.01509 4,-0.897792 4,-1.991088 0,-1.093295 -1.794978,-1.990122 -4,-2.005209 z" opacity=".3"/><path id="path52742" fill="url(#radialGradient4191)" fill-opacity="1" fill-rule="evenodd" stroke="none" d="m -42.497383,39.36126 v 3.996297 c -2.205021,-0.01509 -4,-0.897792 -4,-1.991088 0,-1.093295 1.794978,-1.990122 4,-2.005209 z" opacity=".3"/></g><rect id="rect3258" width="2" height="2" x="23" y="40" fill="url(#linearGradient3043)" fill-opacity="1" fill-rule="nonzero" stroke="none" stroke-width="1" display="inline" enable-background="accumulate" overflow="visible" visibility="visible" style="marker:none"/><rect id="rect2722-7-3" width="24" height="42" x="12" y="2" fill="url(#linearGradient3054)" fill-opacity="1" stroke="none" stroke-dasharray="none" stroke-dashoffset="0" stroke-linecap="butt" stroke-linejoin="miter" stroke-miterlimit="4" stroke-opacity="1" stroke-width="1" opacity="1" rx="1.5" ry="1.5"/><path id="rect3233" fill="#333" fill-opacity="1" fill-rule="nonzero" stroke="none" stroke-width="1" d="M 19.5,5 A 0.5,0.5 0 0 0 19,5.5 0.5,0.5 0 0 0 19.5,6 0.5,0.5 0 0 0 20,5.5 0.5,0.5 0 0 0 19.5,5 Z M 21,5 v 1 h 6 V 5 Z" display="inline" enable-background="accumulate" overflow="visible" visibility="visible" style="marker:none"/><path id="rect2722-0" fill="url(#linearGradient4020)" fill-opacity="1" stroke="none" stroke-width="1" d="M 13,8.0000005 H 35 V 38.000002 H 13 Z" display="inline"/><path id="path3942" fill="#000" fill-opacity="1" stroke="none" d="M 13,8 V 38 H 35 V 8 Z m 1,1 H 34 V 37 H 14 Z" display="inline" opacity=".2"/><path id="rect3872" fill="url(#linearGradient3887)" fill-opacity="1" stroke="none" stroke-width="1" d="M 13.5,2 C 12.669,2 12,2.669 12,3.5 v 39 c 0,0.146429 0.02764,0.284373 0.06641,0.417969 L 36,13.103516 V 3.5 C 36,2.669 35.331,2 34.5,2 Z" display="inline" opacity=".2"/><rect id="rect6741" width="23" height="41" x="12.5" y="2.5" fill="none" stroke="url(#linearGradient3916)" stroke-dasharray="none" stroke-dashoffset="0" stroke-linecap="round" stroke-linejoin="round" stroke-miterlimit="4" stroke-opacity="1" stroke-width="1" opacity="1" rx="1" ry="1"/><rect id="rect2722-7-3-2" width="25" height="43" x="11.5" y="1.5" fill="none" fill-opacity="1" stroke="url(#linearGradient5069)" stroke-dasharray="none" stroke-dashoffset="0" stroke-linecap="butt" stroke-linejoin="miter" stroke-miterlimit="4" stroke-opacity="1" stroke-width="1" opacity="1" rx="2" ry="2"/><path id="path3942-6" fill="#fff" fill-opacity="1" stroke="none" d="m 13,38 v 1 h 22 v -1 z" display="inline" opacity=".5"/><circle id="path4649" cx="24" cy="41" r="1.5" fill="none" fill-opacity="1" fill-rule="nonzero" stroke="#9b946d" stroke-dasharray="none" stroke-dashoffset="0" stroke-linecap="butt" stroke-linejoin="miter" stroke-miterlimit="4" stroke-opacity="1" stroke-width="1" clip-rule="nonzero" color="#000" color-interpolation="sRGB" color-interpolation-filters="linearRGB" color-rendering="auto" display="inline" enable-background="accumulate" image-rendering="auto" opacity=".5" overflow="visible" shape-rendering="auto" text-rendering="auto" visibility="visible" style="isolation:auto;mix-blend-mode:normal;solid-color:#000;solid-opacity:1;marker:none"/><path id="rect3233-2" fill="#fff" fill-opacity="1" fill-rule="nonzero" stroke="none" stroke-dasharray="none" stroke-dashoffset="0" stroke-linecap="butt" stroke-linejoin="miter" stroke-miterlimit="4" stroke-opacity="1" stroke-width="1" d="M 19.5,6 A 0.5,0.5 0 0 0 19,6.5 0.5,0.5 0 0 0 19.5,7 0.5,0.5 0 0 0 20,6.5 0.5,0.5 0 0 0 19.5,6 Z M 21,6 v 1 h 6 V 6 Z" display="inline" enable-background="accumulate" opacity=".7" overflow="visible" visibility="visible" style="marker:none"/></g></svg>