<svg xmlns="http://www.w3.org/2000/svg" xmlns:svg="http://www.w3.org/2000/svg" xmlns:xlink="http://www.w3.org/1999/xlink" id="svg4223" width="64" height="64" version="1.1"><defs id="defs4225"><linearGradient id="linearGradient4323"><stop id="stop4325" offset="0" stop-color="#fafafa" stop-opacity="1"/><stop id="stop4327" offset="1" stop-color="#d4d4d4" stop-opacity="1"/></linearGradient><linearGradient id="linearGradient4280"><stop id="stop4282" offset="0" stop-color="#9bdb4d" stop-opacity="1"/><stop id="stop4284" offset="1" stop-color="#68b723" stop-opacity="1"/></linearGradient><linearGradient id="linearGradient3142" x1="24" x2="24" y1="5.849" y2="42.151" gradientTransform="matrix(1.2162161,0,0,1.4324324,2.8108132,-2.3783632)" gradientUnits="userSpaceOnUse" xlink:href="#linearGradient3731"/><linearGradient id="linearGradient3731"><stop id="stop3733" offset="0" stop-color="#fff" stop-opacity="1"/><stop id="stop3735" offset="0" stop-color="#fff" stop-opacity=".235"/><stop id="stop3737" offset="1" stop-color="#fff" stop-opacity=".157"/><stop id="stop3739" offset="1" stop-color="#fff" stop-opacity=".392"/></linearGradient><radialGradient id="radialGradient3145" cx="7.496" cy="8.45" r="20" fx="7.496" fy="8.45" gradientTransform="matrix(2.7199858e-8,3.295755,-3.4611599,-6.0720387e-8,65.046151,-19.38243)" gradientUnits="userSpaceOnUse" xlink:href="#linearGradient2867-449-88-871-390-598-476-591-434-148-57-177-641-289-620-227-114-444-680-744-8"/><linearGradient id="linearGradient2867-449-88-871-390-598-476-591-434-148-57-177-641-289-620-227-114-444-680-744-8"><stop id="stop5430-8" offset="0" stop-color="#5f5f5f" stop-opacity="1"/><stop id="stop5432-3" offset=".262" stop-color="#4f4f4f" stop-opacity="1"/><stop id="stop5434-1" offset=".705" stop-color="#3b3b3b" stop-opacity="1"/><stop id="stop5436-8" offset="1" stop-color="#2b2b2b" stop-opacity="1"/></linearGradient><linearGradient id="linearGradient3147" x1="24" x2="24" y1="44" y2="3.899" gradientTransform="matrix(1.4000002,0,0,1.4102564,2.200001,-1.8461739)" gradientUnits="userSpaceOnUse" xlink:href="#linearGradient3707-319-631-407-324-616-674-812-821-107-178-392-400-6"/><linearGradient id="linearGradient3707-319-631-407-324-616-674-812-821-107-178-392-400-6"><stop id="stop5440-4" offset="0" stop-color="#272727" stop-opacity="1"/><stop id="stop5442-3" offset="1" stop-color="#454545" stop-opacity="1"/></linearGradient><linearGradient id="linearGradient3156" x1="10.654" x2="10.654" y1=".927" y2="3.183" gradientTransform="matrix(1.3999998,0,0,1.2500081,-0.6000138,-0.12503612)" gradientUnits="userSpaceOnUse" xlink:href="#linearGradient4323"/><linearGradient id="linearGradient2346"><stop id="stop2348" offset="0" stop-color="#fafafa" stop-opacity="1"/><stop id="stop2350" offset="1" stop-color="#d4d4d4" stop-opacity="1"/></linearGradient><linearGradient id="linearGradient3158" x1="24" x2="24" y1="44" y2="3.899" gradientTransform="matrix(1.3999998,0,0,0.12820517,2.2003515,-0.07692425)" gradientUnits="userSpaceOnUse" xlink:href="#linearGradient3707-319-631-407-324-616-674-812-821-107-178-392-400-6-2"/><linearGradient id="linearGradient3707-319-631-407-324-616-674-812-821-107-178-392-400-6-2"><stop id="stop5440-4-8" offset="0" stop-color="#272727" stop-opacity="1"/><stop id="stop5442-3-8" offset="1" stop-color="#454545" stop-opacity="1"/></linearGradient><linearGradient id="linearGradient4219" x1="24.64" x2="24.64" y1="3.213" y2="4.636" gradientTransform="matrix(1.3484995,0,0,2.0418357,1.2847687,-5.5183332)" gradientUnits="userSpaceOnUse" xlink:href="#linearGradient2346"/><radialGradient id="radialGradient2873-966-168" cx="4.993" cy="43.5" r="2.5" fx="4.993" fy="43.5" gradientTransform="matrix(2.003784,0,0,1.4,27.98813,-17.4)" gradientUnits="userSpaceOnUse" xlink:href="#linearGradient3688-166-749"/><linearGradient id="linearGradient3688-166-749"><stop id="stop2883" offset="0" stop-color="#181818" stop-opacity="1"/><stop id="stop2885" offset="1" stop-color="#181818" stop-opacity="0"/></linearGradient><radialGradient id="radialGradient2875-742-326" cx="4.993" cy="43.5" r="2.5" fx="4.993" fy="43.5" gradientTransform="matrix(2.003784,0,0,1.4,-20.01187,-104.4)" gradientUnits="userSpaceOnUse" xlink:href="#linearGradient3688-464-309"/><linearGradient id="linearGradient3688-464-309"><stop id="stop2889" offset="0" stop-color="#181818" stop-opacity="1"/><stop id="stop2891" offset="1" stop-color="#181818" stop-opacity="0"/></linearGradient><linearGradient id="linearGradient2877-634-617" x1="25.058" x2="25.058" y1="47.028" y2="39.999" gradientUnits="userSpaceOnUse" xlink:href="#linearGradient3702-501-757"/><linearGradient id="linearGradient3702-501-757"><stop id="stop2895" offset="0" stop-color="#181818" stop-opacity="0"/><stop id="stop2897" offset=".5" stop-color="#181818" stop-opacity="1"/><stop id="stop2899" offset="1" stop-color="#181818" stop-opacity="0"/></linearGradient><linearGradient id="linearGradient4278" x1="40.358" x2="40.358" y1="4.309" y2="59.599" gradientUnits="userSpaceOnUse" xlink:href="#linearGradient4280"/></defs><metadata id="metadata4228"/><g id="g2036" display="inline" transform="matrix(1.3499995,0,0,0.5555561,-0.40000054,35.888881)"><g id="g3712" opacity=".4" transform="matrix(1.052632,0,0,1.285713,-1.263158,-13.42854)"><rect id="rect2801" width="5" height="7" x="38" y="40" fill="url(#radialGradient2873-966-168)" fill-opacity="1" stroke="none"/><rect id="rect3696" width="5" height="7" x="-10" y="-47" fill="url(#radialGradient2875-742-326)" fill-opacity="1" stroke="none" transform="scale(-1,-1)"/><rect id="rect3700" width="28" height="7" x="10" y="40" fill="url(#linearGradient2877-634-617)" fill-opacity="1" stroke="none"/></g></g><path id="path2723" fill="url(#linearGradient4219)" fill-opacity="1" stroke="#206b00" stroke-dasharray="none" stroke-dashoffset="0" stroke-linecap="butt" stroke-linejoin="round" stroke-miterlimit="0" stroke-opacity=".498" stroke-width="1.017" d="M 54.491301,4.1158135 C 54.094555,2.7999377 54.341836,1.7636774 54.122709,0.5086987 l -40.61401,0 0.239708,3.9826026" display="inline"/><path id="rect5505-21-3-9" fill="url(#linearGradient3156)" fill-opacity="1" fill-rule="nonzero" stroke="url(#linearGradient3158)" stroke-dasharray="none" stroke-dashoffset="0" stroke-linecap="round" stroke-linejoin="round" stroke-miterlimit="4" stroke-opacity="1" stroke-width="1" d="m 15.500349,5.5000001 -5.6000012,0 c -0.7991864,0 -1.3999989,-0.05292 -1.3999989,-0.1219503 l 0,-3.4955487 c 0,-1.10990737 0.7826448,-1.38250119 1.8072521,-1.38250119 l 5.192748,0" color="#000" display="inline" enable-background="accumulate" overflow="visible" visibility="visible" style="marker:none"/><rect id="rect2719" width="45.981" height="54.981" x="9.51" y="4.51" fill="url(#linearGradient4278)" fill-opacity="1" stroke="#206b00" stroke-dasharray="none" stroke-dashoffset="0" stroke-linecap="round" stroke-linejoin="round" stroke-miterlimit="0" stroke-opacity=".498" stroke-width="1.019" display="inline" rx="1" ry="1"/><path id="rect5505-21-3" fill="url(#radialGradient3145)" fill-opacity="1" fill-rule="nonzero" stroke="url(#linearGradient3147)" stroke-dasharray="none" stroke-dashoffset="0" stroke-linecap="round" stroke-linejoin="round" stroke-miterlimit="4" stroke-opacity="1" stroke-width="1" d="m 15.5,4.4999787 c 0,0 0,38.2439353 0,54.9999983 l -5.5999998,0 C 9.1008127,59.499977 8.5,58.917847 8.5,58.158512 l 0,-53.6585333 z" color="#000" display="inline" enable-background="accumulate" overflow="visible" visibility="visible" style="marker:none"/><rect id="rect6741-0" width="45" height="53" x="9.5" y="5.5" fill="none" stroke="url(#linearGradient3142)" stroke-dasharray="none" stroke-dashoffset="0" stroke-linecap="round" stroke-linejoin="round" stroke-miterlimit="4" stroke-opacity="1" stroke-width="1" opacity=".3"/><path id="path4319" fill="#206b00" fill-opacity="1" d="m 35,17.457031 c -0.715753,0 -1.437401,0.284347 -1.974609,0.830078 l -13.28125,13.492188 c -1.075126,1.092188 -1.074599,2.872257 0,3.964844 l 13.28125,13.492187 c 1.075169,1.092232 2.874457,1.092749 3.949218,0 l 13.28125,-13.492187 c 1.074598,-1.092587 1.075125,-2.872656 0,-3.964844 l -1.927734,-1.957031 a 1.0660782,1.0660782 0 0 0 -1.519531,0 L 35,41.818359 27.068359,33.761719 35,25.705078 l 1.646484,1.671875 -5.548828,5.636719 a 1.0660782,1.0660782 0 0 0 0,1.496094 l 3.142578,3.191406 a 1.0660782,1.0660782 0 0 0 1.519532,0 L 45.185547,28.125 a 1.0660782,1.0660782 0 0 0 0,-1.496094 L 36.974609,18.287109 C 36.437286,17.740794 35.715753,17.457031 35,17.457031 Z" opacity=".05"/><path id="path3859" fill="#206b00" fill-opacity="1" d="m 34.999713,43.338711 -9.427102,-9.577487 9.427102,-9.576126 3.142623,3.191914 -6.285245,6.384212 3.142432,3.192496 9.427101,-9.576126 -8.212108,-8.342433 c -0.670579,-0.681803 -1.758262,-0.681803 -2.429415,0 L 20.502934,32.528114 c -0.670579,0.681221 -0.670579,1.786165 0,2.467969 l 13.282359,13.492565 c 0.671152,0.681803 1.758835,0.681803 2.429415,0 L 49.497066,34.996083 c 0.670578,-0.681804 0.670578,-1.786748 0,-2.467969 L 47.568864,30.569896 34.999713,43.338711 Z" opacity=".15"/><path id="path10" fill="#fff" fill-opacity="1" d="m 34.999713,41.814901 -9.427102,-9.577485 9.427102,-9.576128 3.142623,3.191914 -6.285245,6.384214 3.142432,3.192494 9.427101,-9.576126 -8.212108,-8.342432 c -0.670579,-0.681803 -1.758262,-0.681803 -2.429415,0 L 20.502934,31.004304 c -0.670579,0.681221 -0.670579,1.786165 0,2.46797 l 13.282359,13.492564 c 0.671152,0.681803 1.758835,0.681803 2.429415,0 L 49.497066,33.472274 c 0.670578,-0.681805 0.670578,-1.786749 0,-2.46797 L 47.568864,29.046086 34.999713,41.814901 Z"/></svg>