<svg xmlns="http://www.w3.org/2000/svg" xmlns:svg="http://www.w3.org/2000/svg" xmlns:xlink="http://www.w3.org/1999/xlink" id="svg11300" width="64" height="64" display="inline" enable-background="new" version="1.0" viewBox="0 0 64 64"><metadata id="metadata155"/><title id="title4162">elementary Icon Template</title><defs id="defs3"><linearGradient id="linearGradient10457"><stop id="stop10453" offset="0" stop-color="#000" stop-opacity="1"/><stop id="stop10455" offset="1" stop-color="#000" stop-opacity="0"/></linearGradient><linearGradient id="linearGradient3977"><stop id="stop3979" offset="0" stop-color="#fff" stop-opacity="1"/><stop id="stop3981" offset="0" stop-color="#fff" stop-opacity=".235"/><stop id="stop3983" offset="1" stop-color="#fff" stop-opacity=".157"/><stop id="stop3985" offset="1" stop-color="#fff" stop-opacity=".392"/></linearGradient><linearGradient id="linearGradient3600"><stop id="stop3602" offset="0" stop-color="#f4f4f4" stop-opacity="1"/><stop id="stop3604" offset="1" stop-color="#dbdbdb" stop-opacity="1"/></linearGradient><linearGradient id="linearGradient5048"><stop id="stop5050" offset="0" stop-color="#000" stop-opacity="0"/><stop id="stop5056" offset=".5" stop-color="#000" stop-opacity="1"/><stop id="stop5052" offset="1" stop-color="#000" stop-opacity="0"/></linearGradient><linearGradient id="linearGradient3104-6"><stop id="stop3106-3" offset="0" stop-color="#000" stop-opacity=".318"/><stop id="stop3108-9" offset="1" stop-color="#000" stop-opacity=".24"/></linearGradient><linearGradient id="linearGradient3033" x1="-51.786" x2="-51.786" y1="50.786" y2="2.906" gradientTransform="matrix(1.0843523,0,0,1.1997367,271.65086,143.83692)" gradientUnits="userSpaceOnUse" xlink:href="#linearGradient3104-6"/><linearGradient id="linearGradient3093" x1="24" x2="24" y1="5.864" y2="42.176" gradientTransform="matrix(1.2162162,0,0,1.5405376,194.91082,141.02683)" gradientUnits="userSpaceOnUse" xlink:href="#linearGradient3977"/><linearGradient id="linearGradient3096" x1="25.132" x2="25.132" y1=".985" y2="47.013" gradientTransform="matrix(1.3142827,0,0,1.2602393,192.55721,145.82046)" gradientUnits="userSpaceOnUse" xlink:href="#linearGradient3600"/><radialGradient id="radialGradient3153" cx="605.714" cy="486.648" r="117.143" fx="605.714" fy="486.648" gradientTransform="matrix(0.03132633,0,0,0.02058823,227.32086,197.4512)" gradientUnits="userSpaceOnUse" xlink:href="#linearGradient10457"/><radialGradient id="radialGradient3156" cx="605.714" cy="486.648" r="117.143" fx="605.714" fy="486.648" gradientTransform="matrix(-0.03132632,0,0,0.02058823,220.87914,197.4512)" gradientUnits="userSpaceOnUse" xlink:href="#linearGradient10457"/><linearGradient id="linearGradient3842" x1="302.857" x2="302.857" y1="366.648" y2="609.505" gradientTransform="matrix(0.09153846,0,0,0.02058823,191.01538,197.4512)" gradientUnits="userSpaceOnUse" xlink:href="#linearGradient5048"/></defs><g id="g153" transform="translate(-192,-147.99972)"><rect id="rect2879-94" width="44.2" height="5" x="202" y="205" fill="url(#linearGradient3842)" fill-opacity="1" fill-rule="nonzero" stroke="none" stroke-width="1" display="inline" opacity=".15" overflow="visible" visibility="visible" style="marker:none"/><path id="path2881" fill="url(#radialGradient3156)" fill-opacity="1" fill-rule="nonzero" stroke="none" stroke-width="1" d="m 202,205 v 4.9997 c -1.61323,0.01 -3.9,-1.1202 -3.9,-2.5002 0,-1.38 1.80024,-2.4995 3.9,-2.4995 z" display="inline" opacity=".15" overflow="visible" visibility="visible" style="marker:none"/><path id="path2883" fill="url(#radialGradient3153)" fill-opacity="1" fill-rule="nonzero" stroke="none" stroke-width="1" d="m 246.2,205 v 4.9997 c 1.61323,0.01 3.9,-1.1202 3.9,-2.5002 0,-1.38 -1.80024,-2.4995 -3.9,-2.4995 z" display="inline" opacity=".15" overflow="visible" visibility="visible" style="marker:none"/><path id="path4160-6" fill="url(#linearGradient3096)" fill-opacity="1" stroke="none" d="m 201.1,148.99966 c 10.54093,0 45.99994,0.004 45.99994,0.004 l 6e-5,57.99614 h -46 v -57.99982 z" display="inline"/><path id="rect6741-1-8" fill="none" stroke="url(#linearGradient3093)" stroke-dasharray="none" stroke-dashoffset="0" stroke-linecap="round" stroke-linejoin="miter" stroke-miterlimit="4" stroke-opacity="1" stroke-width="1" d="m 246.6,206.4998 h -45 v -57.00004 h 45 z"/><path id="path4160-6-1-7" fill="none" stroke="url(#linearGradient3033)" stroke-dasharray="none" stroke-dashoffset="0" stroke-linecap="butt" stroke-linejoin="round" stroke-miterlimit="4" stroke-opacity="1" stroke-width="1" d="m 200.59997,148.49968 c 10.77009,0 47.00003,0.004 47.00003,0.004 l 5e-5,58.99622 h -47.00008 v -58.99997 z" display="inline"/><path id="path10554" fill="#3689e6" fill-opacity="1" fill-rule="nonzero" stroke="none" stroke-width="1" d="m 224,158.35548 c 0,0 -2,0 -2,1.91113 0,1.91113 -2,1.91113 -2,1.91113 0,0 -2,0.002 -2,-1.91113 v 26.75584 h 12 v -26.75584 c 0,1.91113 -2,1.91113 -2,1.91113 0,0 -2,0 -2,-1.91113 0,-1.91113 -2,-1.91113 -2,-1.91113 z" color="#bebebe" display="inline" enable-background="accumulate" opacity=".2" overflow="visible" visibility="visible" style="marker:none"/><path id="path10518" fill="#3689e6" fill-opacity="1" fill-rule="nonzero" stroke="none" stroke-width="1" d="M 210,182 224,199.28906 238,182 l -8,0.002 v -5.73502 c 0,1.91113 -2,1.91113 -2,1.91113 0,0 -2,0 -2,-1.91113 0,-1.91113 -2,-1.91113 -2,-1.91113 0,0 -2,0 -2,1.91113 0,1.91113 -2,1.91113 -2,1.91113 0,0 -2,0 -2,-1.91276 V 182 Z" color="#bebebe" display="inline" enable-background="accumulate" overflow="visible" visibility="visible" style="marker:none"/><path id="path10536" fill="#3689e6" fill-opacity="1" fill-rule="nonzero" stroke="none" stroke-width="1" d="m 220,166.99999 c 0,0 -2,-0.002 -2,1.91113 V 182 h 12 v -13.08888 c 0,-1.91113 -2,-1.91113 -2,-1.91113 0,0 -2,0 -2,1.91113 0,1.91113 -2,1.91113 -2,1.91113 0,0 -2,0 -2,-1.91113 0,-1.91113 -2,-1.91113 -2,-1.91113 z" color="#bebebe" display="inline" enable-background="accumulate" opacity=".5" overflow="visible" visibility="visible" style="marker:none"/></g></svg>