<svg xmlns="http://www.w3.org/2000/svg" xmlns:osb="http://www.openswatchbook.org/uri/2009/osb" xmlns:svg="http://www.w3.org/2000/svg" xmlns:xlink="http://www.w3.org/1999/xlink" id="svg3130" width="64" height="64" version="1.1"><defs id="defs3132"><linearGradient id="linearGradient855"><stop id="stop851" offset="0" stop-color="#a56de2" stop-opacity="1"/><stop id="stop853" offset="1" stop-color="#7239b3" stop-opacity="1"/></linearGradient><linearGradient id="linearGradient3048" x1="-51.786" x2="-51.786" y1="50.786" y2="2.906" gradientTransform="matrix(1.0843523,0,0,1.1997367,79.550862,-4.1628601)" gradientUnits="userSpaceOnUse" xlink:href="#linearGradient3104-6"/><linearGradient id="linearGradient3104-6"><stop id="stop3106-3" offset="0" stop-color="#000" stop-opacity=".318"/><stop id="stop3108-9" offset="1" stop-color="#000" stop-opacity=".24"/></linearGradient><linearGradient id="linearGradient3051" x1="24" x2="24" y1="5.864" y2="42.176" gradientTransform="matrix(1.2162162,0,0,1.5405376,2.8108184,-6.9729501)" gradientUnits="userSpaceOnUse" xlink:href="#linearGradient3977-4"/><linearGradient id="linearGradient3977-4"><stop id="stop3979-7" offset="0" stop-color="#fff" stop-opacity="1"/><stop id="stop3981-6" offset="0" stop-color="#fff" stop-opacity=".235"/><stop id="stop3983-5" offset="1" stop-color="#fff" stop-opacity=".157"/><stop id="stop3985-6" offset="1" stop-color="#fff" stop-opacity=".392"/></linearGradient><linearGradient id="linearGradient3054" x1="25.132" x2="25.132" y1=".985" y2="47.013" gradientTransform="matrix(1.3142827,0,0,1.2602393,0.4572141,-2.1793201)" gradientUnits="userSpaceOnUse" xlink:href="#linearGradient3600-9"/><linearGradient id="linearGradient3600-9"><stop id="stop3602-3" offset="0" stop-color="#f4f4f4" stop-opacity="1"/><stop id="stop3604-7" offset="1" stop-color="#dbdbdb" stop-opacity="1"/></linearGradient><radialGradient id="radialGradient3057" cx="605.714" cy="486.648" r="117.143" fx="605.714" fy="486.648" gradientTransform="matrix(0.03132633,0,0,0.02058823,35.220859,49.45142)" gradientUnits="userSpaceOnUse" xlink:href="#linearGradient5060"/><linearGradient id="linearGradient5060"><stop id="stop5062" offset="0" stop-color="#000" stop-opacity="1"/><stop id="stop5064" offset="1" stop-color="#000" stop-opacity="0"/></linearGradient><radialGradient id="radialGradient3060" cx="605.714" cy="486.648" r="117.143" fx="605.714" fy="486.648" gradientTransform="matrix(-0.03132632,0,0,0.02058823,28.779136,49.45142)" gradientUnits="userSpaceOnUse" xlink:href="#linearGradient5060"/><linearGradient id="linearGradient5048"><stop id="stop5050" offset="0" stop-color="#000" stop-opacity="0"/><stop id="stop5056" offset=".5" stop-color="#000" stop-opacity="1"/><stop id="stop5052" offset="1" stop-color="#000" stop-opacity="0"/></linearGradient><linearGradient id="linearGradient3128" x1="302.857" x2="302.857" y1="366.648" y2="609.505" gradientTransform="matrix(0.09153846,0,0,0.02058823,-1.084616,49.45142)" gradientUnits="userSpaceOnUse" xlink:href="#linearGradient5048"/><linearGradient id="linearGradient4526" osb:paint="solid"><stop id="stop4528" offset="0" stop-color="#fff" stop-opacity="1"/></linearGradient><linearGradient id="linearGradient857" x1="32.549" x2="32.549" y1=".118" y2="59.318" gradientUnits="userSpaceOnUse" xlink:href="#linearGradient855"/></defs><metadata id="metadata3135"/><rect id="rect2879" width="44.2" height="5" x="9.9" y="57" fill="url(#linearGradient3128)" fill-opacity="1" fill-rule="nonzero" stroke="none" stroke-width="1" display="inline" opacity=".15" overflow="visible" visibility="visible" style="marker:none"/><path d="m 9.9,57.00022 c 0,0 0,4.9997 0,4.9997 -1.6132281,0.01 -3.9,-1.1202 -3.9,-2.5002 0,-1.38 1.8002408,-2.4995 3.9,-2.4995 z" style="marker:none" id="path2881" fill="url(#radialGradient3060)" fill-opacity="1" fill-rule="nonzero" stroke="none" stroke-width="1" display="inline" opacity=".15" overflow="visible" visibility="visible"/><path d="m 54.099999,57.00022 c 0,0 0,4.9997 0,4.9997 C 55.713227,62.00992 58,60.87972 58,59.49972 c 0,-1.38 -1.800241,-2.4995 -3.900001,-2.4995 z" style="marker:none" id="path2883" fill="url(#radialGradient3057)" fill-opacity="1" fill-rule="nonzero" stroke="none" stroke-width="1" display="inline" opacity=".15" overflow="visible" visibility="visible"/><path id="path4160-6" fill="url(#linearGradient3054)" fill-opacity="1" stroke="none" d="m 9,0.9998799 c 10.540935,0 45.999945,0.004 45.999945,0.004 L 55,59.00002 c 0,0 -30.666666,0 -46,0 0,-19.3334 0,-38.6665 0,-57.9998201 z" display="inline"/><path id="rect6741-1-8" fill="none" stroke="url(#linearGradient3051)" stroke-dasharray="none" stroke-dashoffset="0" stroke-linecap="round" stroke-linejoin="miter" stroke-miterlimit="4" stroke-opacity="1" stroke-width="1" d="m 54.499999,58.50002 -44.9999992,0 0,-57.0000401 44.9999992,0 z"/><path id="path4160-6-1" fill="none" stroke="url(#linearGradient3048)" stroke-dasharray="none" stroke-dashoffset="0" stroke-linecap="butt" stroke-linejoin="round" stroke-miterlimit="4" stroke-opacity="1" stroke-width="1" d="m 8.4999684,0.4998999 c 10.7700936,0 47.0000286,0.004 47.0000286,0.004 l 4.9e-5,58.9962201 c 0,0 -31.333384,0 -47.0000776,0 0,-19.6668 0,-39.3334 0,-58.9999701 z" display="inline"/><path id="text3028-0" fill="url(#linearGradient857)" fill-opacity="1" fill-rule="nonzero" stroke="none" stroke-dasharray="none" stroke-dashoffset="0" stroke-linecap="butt" stroke-linejoin="round" stroke-miterlimit="4" stroke-opacity="1" stroke-width="1" d="M 31.875 23.375 C 30.515622 23.375013 29.251952 23.681653 28.0625 24.34375 L 28.78125 25.90625 C 29.232421 25.683604 29.712889 25.501964 30.1875 25.34375 C 30.662107 25.185558 31.162106 25.093761 31.71875 25.09375 C 32.33398 25.093761 32.82812 25.236339 33.15625 25.5 C 33.484369 25.763683 33.624994 26.132823 33.625 26.625 C 33.624994 27.046884 33.54882 27.414071 33.34375 27.71875 C 33.144526 28.023446 32.697261 28.449227 32 29 C 31.414059 29.457038 30.984372 29.884772 30.75 30.3125 C 30.515622 30.74024 30.406248 31.292974 30.40625 31.9375 L 30.40625 32.5 L 32.125 32.5 L 32.125 32.09375 C 32.124996 31.619145 32.2246 31.250005 32.40625 30.96875 C 32.593745 30.687506 32.955073 30.33399 33.5 29.90625 C 34.138666 29.40821 34.585931 28.998054 34.84375 28.6875 C 35.107415 28.376961 35.308586 28.058602 35.4375 27.71875 C 35.566399 27.373056 35.624992 26.970713 35.625 26.53125 C 35.624992 25.541026 35.298821 24.781262 34.625 24.21875 C 33.951166 23.656263 33.023432 23.375013 31.875 23.375 z M 25 24 L 16 29 L 16 31 L 25 36 L 25 34 L 18 30.003906 L 25 26 L 25 24 z M 39 24 L 39 26 L 46 30.003906 L 39 34 L 39 36 L 48 31 L 48 29 L 39 24 z M 31.34375 33.96875 C 30.482419 33.968752 30.031248 34.427736 30.03125 35.3125 C 30.031248 35.740235 30.152342 36.072266 30.375 36.3125 C 30.597654 36.546875 30.927731 36.65625 31.34375 36.65625 C 31.759762 36.65625 32.05859 36.521484 32.28125 36.28125 C 32.509761 36.035157 32.624995 35.728516 32.625 35.3125 C 32.624995 34.890627 32.53515 34.541017 32.3125 34.3125 C 32.08984 34.078127 31.765621 33.968752 31.34375 33.96875 z" clip-rule="nonzero" color="#000" color-interpolation="sRGB" color-interpolation-filters="linearRGB" color-rendering="auto" display="inline" enable-background="accumulate" font-family="Open Sans" font-size="18" font-stretch="normal" font-style="normal" font-variant="normal" font-weight="600" image-rendering="auto" letter-spacing="0" opacity="1" overflow="visible" shape-rendering="auto" text-anchor="middle" text-rendering="auto" visibility="visible" word-spacing="0" writing-mode="lr-tb" style="line-height:125%;-inkscape-font-specification:'Open Sans Semi-Bold';text-align:center;isolation:auto;mix-blend-mode:normal;solid-color:#000;solid-opacity:1;marker:none;filter-blend-mode:normal;filter-gaussianBlur-deviation:0"/></svg>