<svg xmlns="http://www.w3.org/2000/svg" xmlns:svg="http://www.w3.org/2000/svg" xmlns:xlink="http://www.w3.org/1999/xlink" id="svg3844" width="64" height="64" version="1.1"><defs id="defs3846"><linearGradient id="linearGradient3104-6"><stop id="stop3106-3" offset="0" stop-color="#000" stop-opacity=".318"/><stop id="stop3108-9" offset="1" stop-color="#000" stop-opacity=".24"/></linearGradient><linearGradient id="linearGradient3977-4"><stop id="stop3979-7" offset="0" stop-color="#fff" stop-opacity="1"/><stop id="stop3981-6" offset=".012" stop-color="#fff" stop-opacity=".235"/><stop id="stop3983-5" offset=".988" stop-color="#fff" stop-opacity=".157"/><stop id="stop3985-6" offset="1" stop-color="#fff" stop-opacity=".392"/></linearGradient><linearGradient id="linearGradient3600-9"><stop id="stop3602-3" offset="0" stop-color="#f4f4f4" stop-opacity="1"/><stop id="stop3604-7" offset="1" stop-color="#dbdbdb" stop-opacity="1"/></linearGradient><linearGradient id="linearGradient5060"><stop id="stop5062" offset="0" stop-color="#000" stop-opacity="1"/><stop id="stop5064" offset="1" stop-color="#000" stop-opacity="0"/></linearGradient><linearGradient id="linearGradient5048"><stop id="stop5050" offset="0" stop-color="#000" stop-opacity="0"/><stop id="stop5056" offset=".5" stop-color="#000" stop-opacity="1"/><stop id="stop5052" offset="1" stop-color="#000" stop-opacity="0"/></linearGradient><linearGradient id="linearGradient3111" x1="-51.786" x2="-51.786" y1="50.786" y2="2.906" gradientTransform="matrix(1.0843523,0,0,1.1997367,79.550862,-4.1628601)" gradientUnits="userSpaceOnUse" xlink:href="#linearGradient3104-6"/><linearGradient id="linearGradient3114" x1="24" x2="24" y1="5.864" y2="42.1" gradientTransform="matrix(1.2162162,0,0,1.5405376,2.8108184,-6.9729501)" gradientUnits="userSpaceOnUse" xlink:href="#linearGradient3977-4"/><linearGradient id="linearGradient3117" x1="25.132" x2="25.132" y1=".985" y2="47.013" gradientTransform="matrix(1.3142827,0,0,1.2602393,0.4572141,-2.1793201)" gradientUnits="userSpaceOnUse" xlink:href="#linearGradient3600-9"/><radialGradient id="radialGradient3120" cx="605.714" cy="486.648" r="117.143" fx="605.714" fy="486.648" gradientTransform="matrix(0.03132633,0,0,0.02058823,35.220859,49.45142)" gradientUnits="userSpaceOnUse" xlink:href="#linearGradient5060"/><radialGradient id="radialGradient3123" cx="605.714" cy="486.648" r="117.143" fx="605.714" fy="486.648" gradientTransform="matrix(-0.03132632,0,0,0.02058823,28.779136,49.45142)" gradientUnits="userSpaceOnUse" xlink:href="#linearGradient5060"/><linearGradient id="linearGradient3126" x1="302.857" x2="302.857" y1="366.648" y2="609.505" gradientTransform="matrix(0.09153846,0,0,0.02058823,-1.084616,49.45142)" gradientUnits="userSpaceOnUse" xlink:href="#linearGradient5048"/></defs><metadata id="metadata3849"/><rect id="rect2879" width="44.2" height="5" x="9.9" y="57" fill="url(#linearGradient3126)" fill-opacity="1" fill-rule="nonzero" stroke="none" stroke-width="1" display="inline" opacity=".15" overflow="visible" visibility="visible" style="marker:none"/><path id="path2881" fill="url(#radialGradient3123)" fill-opacity="1" fill-rule="nonzero" stroke="none" stroke-width="1" d="m 9.9,57.00022 c 0,0 0,4.9997 0,4.9997 -1.6132281,0.01 -3.9,-1.1202 -3.9,-2.5002 0,-1.38 1.8002408,-2.4995 3.9,-2.4995 z" display="inline" opacity=".15" overflow="visible" visibility="visible" style="marker:none"/><path id="path2883" fill="url(#radialGradient3120)" fill-opacity="1" fill-rule="nonzero" stroke="none" stroke-width="1" d="m 54.099999,57.00022 c 0,0 0,4.9997 0,4.9997 C 55.713227,62.00992 58,60.87972 58,59.49972 c 0,-1.38 -1.800241,-2.4995 -3.900001,-2.4995 z" display="inline" opacity=".15" overflow="visible" visibility="visible" style="marker:none"/><path id="path4160-6" fill="url(#linearGradient3117)" fill-opacity="1" stroke="none" d="m 9,0.9998799 c 10.540935,0 45.999945,0.004 45.999945,0.004 L 55,59.00002 c 0,0 -30.666666,0 -46,0 0,-19.3334 0,-38.6665 0,-57.9998201 z" display="inline"/><path id="rect6741-1-8" fill="none" stroke="url(#linearGradient3114)" stroke-dasharray="none" stroke-dashoffset="0" stroke-linecap="round" stroke-linejoin="miter" stroke-miterlimit="4" stroke-opacity="1" stroke-width="1" d="m 54.499999,58.50002 -44.9999992,0 0,-57.0000401 44.9999992,0 z"/><path id="path4160-6-1" fill="none" stroke="url(#linearGradient3111)" stroke-dasharray="none" stroke-dashoffset="0" stroke-linecap="butt" stroke-linejoin="round" stroke-miterlimit="4" stroke-opacity="1" stroke-width="1" d="m 8.4999684,0.4998999 c 10.7700936,0 47.0000286,0.004 47.0000286,0.004 l 4.9e-5,58.9962201 c 0,0 -31.333384,0 -47.0000776,0 0,-19.6668 0,-39.3334 0,-58.9999701 z" display="inline"/><path d="m 31.999992,19.99996 c -4.432,0 -8,3.568 -8,8 l 0,4 -1,0 0,5.6875 0.40625,-0.53125 c 0.581327,-0.7807 2.130809,-1.8958 3.34375,-2.375 0.639031,-0.2525 2.173397,-0.52955 3.90625,-0.71875 2.610848,-0.2934 7.543628,-0.0625 9.34375,-2.0625 l 0,-4 c 0,-4.432 -3.568,-8 -8,-8 z m 0.65625,0.96875 c 0.379167,0.02212 0.750798,0.06626 1.125,0.15625 1.344371,0.3231 1.496153,0.6343 0.1875,0.375 -2.058992,-0.4081 -4.793765,0.5085 -6.46875,2.1875 -0.50085,0.5021 -1.132724,1.33345 -1.40625,1.84375 -0.563565,1.0515 -0.474902,0.37425 0.125,-0.90625 1.096804,-2.34115 3.783331,-3.811124 6.4375,-3.65625 z m -0.65625,3.03125 c 2.216,0 4,1.784 4,4 l 0,4 -8,0 0,-4 c 0,-2.216 1.784,-4 4,-4 z m 9,9.15625 -1.0625,0.875 c -0.577501,0.4914 -1.481249,1.1639 -2.03125,1.5 -1.125633,0.6879 -3.794346,1.65625 -4.59375,1.65625 -0.300686,0 -0.47696,0.0728 -0.40625,0.1875 0.13326,0.216 1.731037,0.11885 3.40625,-0.21875 0.550002,-0.1107 1.826248,-0.6098 2.84375,-1.125 l 1.84375,-0.9375 0,-0.96875 0,-0.96875 z m 0,2.15625 -0.5625,0.78125 c -1.865716,2.5717 -4.903768,3.9967 -9.125,4.25 -2.819488,0.1691 -1.787198,0.49 1.59375,0.5 2.290276,0.0032 2.80651,-0.06645 4.1875,-0.53125 0.863973,-0.2907 1.5814,-0.51275 1.625,-0.46875 0.157322,0.1576 -1.53296,1.55625 -2.46875,2.03125 -1.793001,0.9101 -3.01394,1.1655 -6.25,1.3125 -2.298805,0.1044 -3.242571,0.22325 -3.6875,0.46875 -0.566543,0.312 -0.192185,0.33375 7.03125,0.34375 l 7.65625,0 0,-8.6875 z" style="marker:none" id="rect3164" fill="#0093dd" fill-opacity="1" fill-rule="nonzero" stroke="none" stroke-width="1" color="#000" display="inline" enable-background="accumulate" overflow="visible" visibility="visible"/></svg>