<svg xmlns="http://www.w3.org/2000/svg" xmlns:svg="http://www.w3.org/2000/svg" xmlns:xlink="http://www.w3.org/1999/xlink" id="svg3844" width="64" height="64" version="1.1"><defs id="defs3846"><linearGradient id="linearGradient3033" x1="-51.786" x2="-51.786" y1="50.786" y2="2.906" gradientTransform="matrix(1.0843523,0,0,1.1997367,79.550862,-4.1628601)" gradientUnits="userSpaceOnUse" xlink:href="#linearGradient3104-6"/><linearGradient id="linearGradient3104-6"><stop id="stop3106-3" offset="0" stop-color="#000" stop-opacity=".318"/><stop id="stop3108-9" offset="1" stop-color="#000" stop-opacity=".24"/></linearGradient><linearGradient id="linearGradient3093" x1="24" x2="24" y1="5.864" y2="42.176" gradientTransform="matrix(1.2162162,0,0,1.5405376,2.8108184,-6.9729501)" gradientUnits="userSpaceOnUse" xlink:href="#linearGradient3977-4"/><linearGradient id="linearGradient3977-4"><stop id="stop3979-7" offset="0" stop-color="#fff" stop-opacity="1"/><stop id="stop3981-6" offset="0" stop-color="#fff" stop-opacity=".235"/><stop id="stop3983-5" offset="1" stop-color="#fff" stop-opacity=".157"/><stop id="stop3985-6" offset="1" stop-color="#fff" stop-opacity=".392"/></linearGradient><linearGradient id="linearGradient3096" x1="25.132" x2="25.132" y1=".985" y2="47.013" gradientTransform="matrix(1.3142827,0,0,1.2602393,0.4572141,-2.1793201)" gradientUnits="userSpaceOnUse" xlink:href="#linearGradient3600-9"/><linearGradient id="linearGradient3600-9"><stop id="stop3602-3" offset="0" stop-color="#f4f4f4" stop-opacity="1"/><stop id="stop3604-7" offset="1" stop-color="#dbdbdb" stop-opacity="1"/></linearGradient><radialGradient id="radialGradient3153" cx="605.714" cy="486.648" r="117.143" fx="605.714" fy="486.648" gradientTransform="matrix(0.03132633,0,0,0.02058823,35.220859,49.45142)" gradientUnits="userSpaceOnUse" xlink:href="#linearGradient5060"/><linearGradient id="linearGradient5060"><stop id="stop5062" offset="0" stop-color="#000" stop-opacity="1"/><stop id="stop5064" offset="1" stop-color="#000" stop-opacity="0"/></linearGradient><radialGradient id="radialGradient3156" cx="605.714" cy="486.648" r="117.143" fx="605.714" fy="486.648" gradientTransform="matrix(-0.03132632,0,0,0.02058823,28.779136,49.45142)" gradientUnits="userSpaceOnUse" xlink:href="#linearGradient5060"/><linearGradient id="linearGradient5048"><stop id="stop5050" offset="0" stop-color="#000" stop-opacity="0"/><stop id="stop5056" offset=".5" stop-color="#000" stop-opacity="1"/><stop id="stop5052" offset="1" stop-color="#000" stop-opacity="0"/></linearGradient><linearGradient id="linearGradient3842" x1="302.857" x2="302.857" y1="366.648" y2="609.505" gradientTransform="matrix(0.09153846,0,0,0.02058823,-1.084616,49.45142)" gradientUnits="userSpaceOnUse" xlink:href="#linearGradient5048"/><linearGradient id="linearGradient922" x1="32" x2="32" y1="1" y2="59" gradientUnits="userSpaceOnUse" xlink:href="#linearGradient920"/><linearGradient id="linearGradient920"><stop id="stop916" offset="0" stop-color="#ed5353" stop-opacity="1"/><stop id="stop918" offset="1" stop-color="#c6262e" stop-opacity="1"/></linearGradient></defs><metadata id="metadata3849"/><rect id="rect2879" width="44.2" height="5" x="9.9" y="57" fill="url(#linearGradient3842)" fill-opacity="1" fill-rule="nonzero" stroke="none" stroke-width="1" display="inline" opacity=".15" overflow="visible" visibility="visible" style="marker:none"/><path d="m 9.9,57.00022 c 0,0 0,4.9997 0,4.9997 -1.6132281,0.01 -3.9,-1.1202 -3.9,-2.5002 0,-1.38 1.8002408,-2.4995 3.9,-2.4995 z" style="marker:none" id="path2881" fill="url(#radialGradient3156)" fill-opacity="1" fill-rule="nonzero" stroke="none" stroke-width="1" display="inline" opacity=".15" overflow="visible" visibility="visible"/><path d="m 54.099999,57.00022 c 0,0 0,4.9997 0,4.9997 C 55.713227,62.00992 58,60.87972 58,59.49972 c 0,-1.38 -1.800241,-2.4995 -3.900001,-2.4995 z" style="marker:none" id="path2883" fill="url(#radialGradient3153)" fill-opacity="1" fill-rule="nonzero" stroke="none" stroke-width="1" display="inline" opacity=".15" overflow="visible" visibility="visible"/><path id="path4160-6" fill="url(#linearGradient3096)" fill-opacity="1" stroke="none" d="m 9,0.9998799 c 10.540935,0 45.999945,0.004 45.999945,0.004 L 55,59.00002 c 0,0 -30.666666,0 -46,0 0,-19.3334 0,-38.6665 0,-57.9998201 z" display="inline"/><path id="rect6741-1-8" fill="none" stroke="url(#linearGradient3093)" stroke-dasharray="none" stroke-dashoffset="0" stroke-linecap="round" stroke-linejoin="miter" stroke-miterlimit="4" stroke-opacity="1" stroke-width="1" d="m 54.499999,58.50002 -44.9999992,0 0,-57.0000401 44.9999992,0 z"/><path id="path4160-6-1" fill="none" stroke="url(#linearGradient3033)" stroke-dasharray="none" stroke-dashoffset="0" stroke-linecap="butt" stroke-linejoin="round" stroke-miterlimit="4" stroke-opacity="1" stroke-width="1" d="m 8.4999684,0.4998999 c 10.7700936,0 47.0000286,0.004 47.0000286,0.004 l 4.9e-5,58.9962201 c 0,0 -31.333384,0 -47.0000776,0 0,-19.6668 0,-39.3334 0,-58.9999701 z" display="inline"/><path id="path3858" fill="url(#linearGradient922)" fill-opacity="1" stroke="none" stroke-dasharray="none" stroke-dashoffset="0" stroke-linecap="butt" stroke-linejoin="miter" stroke-miterlimit="4" stroke-opacity="1" stroke-width="1.118" d="m 42.673891,13.015852 -9.075821,1.158645 c 1.321864,0.659515 3.138078,0.495125 3.693384,2.432238 z m 2.323787,0.154436 -5.217452,3.017992 8.949454,-0.08387 z m -13.499581,3.165769 c -1.07796,0.06129 -2.369526,0.428863 -3.809219,1.145337 -4.607077,2.292715 -8.944033,7.222282 -9.690371,11.002998 -0.74631,3.780726 2.380822,4.982333 6.987861,2.689628 4.607087,-2.292715 8.944052,-7.209409 9.690381,-10.990135 0.513079,-2.599244 -0.807123,-3.982676 -3.178652,-3.847828 z m 4.298234,7.103688 10.822846,-0.154426 -8.919128,-5.386641 c -0.01436,1.713752 -0.936125,4.653808 -1.903718,5.541067 z m 13.087785,-0.05147 0.115883,-5.533672 -9.325447,-0.588058 z m -0.501888,1.351245 -10.809963,0.167299 7.850092,5.302028 z m -13.152129,0.579105 c -5.778377,7.713941 -19.470766,15.498857 -19.592826,3.86923 l -0.637274,13.658351 c 0.14535,0.826389 1.203024,3.285308 4.735786,3.950773 8.952693,0.310977 15.077285,0.428277 27.398105,-1.248282 1.039191,-5.754653 0.976914,-11.696447 1.2483,-17.579063 -3.975536,6.170775 -8.35894,10.909139 -14.082917,13.813411 4.00998,-3.326958 7.286835,-6.963977 10.338053,-10.647632 L 35.23008,25.318625 Z" display="inline" enable-background="new" opacity="1" vector-effect="none" style="font-variant-east_asian:normal"/></svg>