<svg xmlns="http://www.w3.org/2000/svg" xmlns:svg="http://www.w3.org/2000/svg" xmlns:xlink="http://www.w3.org/1999/xlink" id="svg3844" width="64" height="64" version="1.1"><defs id="defs3846"><linearGradient id="linearGradient3033" x1="-51.786" x2="-51.786" y1="50.786" y2="2.906" gradientTransform="matrix(1.0843523,0,0,1.1997367,79.550862,-4.1628601)" gradientUnits="userSpaceOnUse" xlink:href="#linearGradient3104-6"/><linearGradient id="linearGradient3104-6"><stop id="stop3106-3" offset="0" stop-color="#000" stop-opacity=".318"/><stop id="stop3108-9" offset="1" stop-color="#000" stop-opacity=".24"/></linearGradient><linearGradient id="linearGradient3093" x1="24" x2="24" y1="5.864" y2="42.176" gradientTransform="matrix(1.2162162,0,0,1.5405376,2.8108184,-6.9729501)" gradientUnits="userSpaceOnUse" xlink:href="#linearGradient3977-4"/><linearGradient id="linearGradient3977-4"><stop id="stop3979-7" offset="0" stop-color="#fff" stop-opacity="1"/><stop id="stop3981-6" offset="0" stop-color="#fff" stop-opacity=".235"/><stop id="stop3983-5" offset="1" stop-color="#fff" stop-opacity=".157"/><stop id="stop3985-6" offset="1" stop-color="#fff" stop-opacity=".392"/></linearGradient><linearGradient id="linearGradient3096" x1="25.132" x2="25.132" y1=".985" y2="47.013" gradientTransform="matrix(1.3142827,0,0,1.2602393,0.4572141,-2.1793201)" gradientUnits="userSpaceOnUse" xlink:href="#linearGradient3600-9"/><linearGradient id="linearGradient3600-9"><stop id="stop3602-3" offset="0" stop-color="#f4f4f4" stop-opacity="1"/><stop id="stop3604-7" offset="1" stop-color="#dbdbdb" stop-opacity="1"/></linearGradient><radialGradient id="radialGradient3153" cx="605.714" cy="486.648" r="117.143" fx="605.714" fy="486.648" gradientTransform="matrix(0.03132633,0,0,0.02058823,35.220859,49.45142)" gradientUnits="userSpaceOnUse" xlink:href="#linearGradient5060"/><linearGradient id="linearGradient5060"><stop id="stop5062" offset="0" stop-color="#000" stop-opacity="1"/><stop id="stop5064" offset="1" stop-color="#000" stop-opacity="0"/></linearGradient><radialGradient id="radialGradient3156" cx="605.714" cy="486.648" r="117.143" fx="605.714" fy="486.648" gradientTransform="matrix(-0.03132632,0,0,0.02058823,28.779136,49.45142)" gradientUnits="userSpaceOnUse" xlink:href="#linearGradient5060"/><linearGradient id="linearGradient5048"><stop id="stop5050" offset="0" stop-color="#000" stop-opacity="0"/><stop id="stop5056" offset=".5" stop-color="#000" stop-opacity="1"/><stop id="stop5052" offset="1" stop-color="#000" stop-opacity="0"/></linearGradient><linearGradient id="linearGradient3842" x1="302.857" x2="302.857" y1="366.648" y2="609.505" gradientTransform="matrix(0.09153846,0,0,0.02058823,-1.084616,49.45142)" gradientUnits="userSpaceOnUse" xlink:href="#linearGradient5048"/><radialGradient id="radialGradient3988-4" cx="8.276" cy="9.994" r="12.672" fx="8.276" fy="9.994" gradientTransform="matrix(0,10.087121,-12.383763,0,155.87414,-97.777008)" gradientUnits="userSpaceOnUse" xlink:href="#linearGradient3242-4"/><linearGradient id="linearGradient3242-4"><stop id="stop3244-7" offset="0" stop-color="#f89b7e" stop-opacity="1"/><stop id="stop3246-1" offset=".262" stop-color="#e35d4f" stop-opacity="1"/><stop id="stop3248-5" offset=".661" stop-color="#c6262e" stop-opacity="1"/><stop id="stop3250-7" offset="1" stop-color="#690b2c" stop-opacity="1"/></linearGradient><linearGradient id="linearGradient3132" x1="24" x2="24" y1="5.864" y2="42.1" gradientTransform="matrix(1.2162162,0,0,1.5405376,2.8108184,-6.97295)" gradientUnits="userSpaceOnUse" xlink:href="#linearGradient3977-4-9"/><linearGradient id="linearGradient3977-4-9"><stop id="stop3979-7-7" offset="0" stop-color="#fff" stop-opacity="1"/><stop id="stop3981-6-7" offset=".012" stop-color="#fff" stop-opacity=".235"/><stop id="stop3983-5-5" offset=".988" stop-color="#fff" stop-opacity=".157"/><stop id="stop3985-6-6" offset="1" stop-color="#fff" stop-opacity=".392"/></linearGradient></defs><metadata id="metadata3849"/><rect id="rect2879" width="44.2" height="5" x="9.9" y="57" fill="url(#linearGradient3842)" fill-opacity="1" fill-rule="nonzero" stroke="none" stroke-width="1" display="inline" opacity=".15" overflow="visible" visibility="visible" style="marker:none"/><path d="m 9.9,57.00022 c 0,0 0,4.9997 0,4.9997 -1.6132281,0.01 -3.9,-1.1202 -3.9,-2.5002 0,-1.38 1.8002408,-2.4995 3.9,-2.4995 z" style="marker:none" id="path2881" fill="url(#radialGradient3156)" fill-opacity="1" fill-rule="nonzero" stroke="none" stroke-width="1" display="inline" opacity=".15" overflow="visible" visibility="visible"/><path d="m 54.099999,57.00022 c 0,0 0,4.9997 0,4.9997 C 55.713227,62.00992 58,60.87972 58,59.49972 c 0,-1.38 -1.800241,-2.4995 -3.900001,-2.4995 z" style="marker:none" id="path2883" fill="url(#radialGradient3153)" fill-opacity="1" fill-rule="nonzero" stroke="none" stroke-width="1" display="inline" opacity=".15" overflow="visible" visibility="visible"/><path id="path4160-6" fill="url(#linearGradient3096)" fill-opacity="1" stroke="none" d="m 9,0.9998799 c 10.540935,0 45.999945,0.004 45.999945,0.004 L 55,59.00002 c 0,0 -30.666666,0 -46,0 0,-19.3334 0,-38.6665 0,-57.9998201 z" display="inline"/><path id="rect6741-1-8" fill="none" stroke="url(#linearGradient3093)" stroke-dasharray="none" stroke-dashoffset="0" stroke-linecap="round" stroke-linejoin="miter" stroke-miterlimit="4" stroke-opacity="1" stroke-width="1" d="m 54.499999,58.50002 -44.9999992,0 0,-57.0000401 44.9999992,0 z"/><path id="path4160-6-1" fill="none" stroke="url(#linearGradient3033)" stroke-dasharray="none" stroke-dashoffset="0" stroke-linecap="butt" stroke-linejoin="round" stroke-miterlimit="4" stroke-opacity="1" stroke-width="1" d="m 8.4999684,0.4998999 c 10.7700936,0 47.0000286,0.004 47.0000286,0.004 l 4.9e-5,58.9962201 c 0,0 -31.333384,0 -47.0000776,0 0,-19.6668 0,-39.3334 0,-58.9999701 z" display="inline"/><path id="path6711" fill="url(#radialGradient3988-4)" fill-opacity="1" fill-rule="nonzero" stroke="none" stroke-dasharray="none" stroke-dashoffset="0" stroke-linecap="butt" stroke-linejoin="miter" stroke-miterlimit="4" stroke-opacity="1" stroke-width="1" d="M 37.875,0.99999967 C 24.426461,12.539579 14.910308,17.33263 9,19.3125 l 0,6.125 c 3.284751,-0.967238 7.356975,-2.565106 11.59375,-5.21875 9.747583,-6.105262 21.375,-17.6875003 21.375,-17.6875003 C 38.772738,8.8004167 37.843006,30.413387 37.78125,59 L 55,59 55,36.96875 C 54.244748,33.606873 53.570816,30.205377 52.96875,26.9375 51.382781,14.902436 53.725493,4.3901548 54.59375,0.99999967 c -0.225923,-2.54e-5 -10.16441,6.7953e-4 -16.71875,0 z M 9,32.84375 9,38.75 C 16.504646,41.847649 25.209587,49.833778 29.96875,59 l 5.125,0 C 32.838316,50.595378 18.221314,37.91821 9,32.84375 Z" clip-rule="nonzero" color="#000" color-interpolation="sRGB" color-interpolation-filters="linearRGB" color-rendering="auto" display="inline" enable-background="accumulate" image-rendering="auto" opacity="1" overflow="visible" shape-rendering="auto" text-rendering="auto" visibility="visible" style="isolation:auto;mix-blend-mode:normal;solid-color:#000;solid-opacity:1;marker:none"/><path id="path6713" fill="#8c0000" fill-opacity="1" fill-rule="evenodd" stroke="none" d="M 55,1.3749997 C 47.699975,5.7934829 26.879425,17.4504 9,18.5 L 9,32.1875 C 19.438497,33.237626 41.436724,34.536348 55,28.75 L 55,1.3749997 Z M 55,37.125 C 49.37478,43.641608 44.044801,51.222798 40.15625,58.96875 l 6.125,0 C 48.859598,54.613034 51.903942,49.985265 55,45.9375 l 0,-8.8125 z" opacity=".1"/><path id="rect6741-1-8-0" fill="none" stroke="url(#linearGradient3132)" stroke-dasharray="none" stroke-dashoffset="0" stroke-linecap="round" stroke-linejoin="miter" stroke-miterlimit="4" stroke-opacity="1" stroke-width="1" d="m 9.5,19.126953 0,6.146485 M 37.785156,58.5 54.5,58.5 54.5,34.613281 M 54.472656,1.5 37.28125,1.5 M 9.5,33.134766 l 0,5.839843 M 29.693359,58.5 l 5.246094,0" opacity=".3"/><path id="path4160-6-1-0" fill="none" stroke="#410000" stroke-dasharray="none" stroke-dashoffset="0" stroke-linecap="round" stroke-linejoin="round" stroke-miterlimit="4" stroke-opacity="1" stroke-width="1" d="m 8.5,19.443344 0,5.915737 M 37.990732,59.5 55.5,59.5 55.5,37.284394 M 54.333799,0.50390622 38.329544,0.50195322 M 8.5,32.948382 l 0,5.642608 m 21.604322,20.869951 4.911011,0.03906" color="#000" display="inline" enable-background="accumulate" opacity=".2" overflow="visible" visibility="visible" style="marker:none"/></svg>