<svg xmlns="http://www.w3.org/2000/svg" xmlns:svg="http://www.w3.org/2000/svg" xmlns:xlink="http://www.w3.org/1999/xlink" id="svg3844" width="64" height="64" version="1.1" viewBox="0 0 64 64"><defs id="defs3846"><linearGradient id="linearGradient3033" x1="-51.786" x2="-51.786" y1="50.786" y2="2.906" gradientTransform="matrix(1.0843523,0,0,1.1997367,79.550862,-4.1628601)" gradientUnits="userSpaceOnUse" xlink:href="#linearGradient3104-6"/><linearGradient id="linearGradient3104-6"><stop id="stop3106-3" offset="0" stop-color="#000" stop-opacity=".318"/><stop id="stop3108-9" offset="1" stop-color="#000" stop-opacity=".24"/></linearGradient><linearGradient id="linearGradient3093" x1="24" x2="24" y1="5.864" y2="42.176" gradientTransform="matrix(1.2162162,0,0,1.5405376,2.8108184,-6.9729501)" gradientUnits="userSpaceOnUse" xlink:href="#linearGradient3977-4"/><linearGradient id="linearGradient3977-4"><stop id="stop3979-7" offset="0" stop-color="#fff" stop-opacity="1"/><stop id="stop3981-6" offset="0" stop-color="#fff" stop-opacity=".235"/><stop id="stop3983-5" offset="1" stop-color="#fff" stop-opacity=".157"/><stop id="stop3985-6" offset="1" stop-color="#fff" stop-opacity=".392"/></linearGradient><linearGradient id="linearGradient3096" x1="25.132" x2="25.132" y1=".985" y2="47.013" gradientTransform="matrix(1.3142827,0,0,1.2602393,0.4572141,-2.1793201)" gradientUnits="userSpaceOnUse" xlink:href="#linearGradient3600-9"/><linearGradient id="linearGradient3600-9"><stop id="stop3602-3" offset="0" stop-color="#f4f4f4" stop-opacity="1"/><stop id="stop3604-7" offset="1" stop-color="#dbdbdb" stop-opacity="1"/></linearGradient><radialGradient id="radialGradient3153" cx="605.714" cy="486.648" r="117.143" fx="605.714" fy="486.648" gradientTransform="matrix(0.03132633,0,0,0.02058823,35.220859,49.45142)" gradientUnits="userSpaceOnUse" xlink:href="#linearGradient5060"/><linearGradient id="linearGradient5060"><stop id="stop5062" offset="0" stop-color="#000" stop-opacity="1"/><stop id="stop5064" offset="1" stop-color="#000" stop-opacity="0"/></linearGradient><radialGradient id="radialGradient3156" cx="605.714" cy="486.648" r="117.143" fx="605.714" fy="486.648" gradientTransform="matrix(-0.03132632,0,0,0.02058823,28.779136,49.45142)" gradientUnits="userSpaceOnUse" xlink:href="#linearGradient5060"/><linearGradient id="linearGradient5048"><stop id="stop5050" offset="0" stop-color="#000" stop-opacity="0"/><stop id="stop5056" offset=".5" stop-color="#000" stop-opacity="1"/><stop id="stop5052" offset="1" stop-color="#000" stop-opacity="0"/></linearGradient><linearGradient id="linearGradient3842" x1="302.857" x2="302.857" y1="366.648" y2="609.505" gradientTransform="matrix(0.09153846,0,0,0.02058823,-1.084616,49.45142)" gradientUnits="userSpaceOnUse" xlink:href="#linearGradient5048"/><linearGradient id="linearGradient2867-449-88-871-390-598-476-591-434-148-57-177-8-3-3"><stop id="stop3750-1-0-7" offset="0" stop-color="#ffcd7d" stop-opacity="1"/><stop id="stop3752-3-7-4" offset=".262" stop-color="#fc8f36" stop-opacity="1"/><stop id="stop3754-1-8-5" offset=".705" stop-color="#e23a0e" stop-opacity="1"/><stop id="stop3756-1-6-2" offset="1" stop-color="#ac441f" stop-opacity="1"/></linearGradient><radialGradient id="radialGradient4508" cx="18.148" cy="16.232" r="12.672" fx="18.148" fy="16.232" gradientTransform="matrix(0,8.885821,-11.172671,0,198.34473,-189.06077)" gradientUnits="userSpaceOnUse" xlink:href="#linearGradient2867-449-88-871-390-598-476-591-434-148-57-177-8-3-3"/></defs><metadata id="metadata3849"/><rect id="rect2879" width="44.2" height="5" x="9.9" y="57" fill="url(#linearGradient3842)" fill-opacity="1" fill-rule="nonzero" stroke="none" stroke-width="1" display="inline" opacity=".15" overflow="visible" visibility="visible" style="marker:none"/><path d="m 9.9,57.00022 c 0,0 0,4.9997 0,4.9997 -1.6132281,0.01 -3.9,-1.1202 -3.9,-2.5002 0,-1.38 1.8002408,-2.4995 3.9,-2.4995 z" style="marker:none" id="path2881" fill="url(#radialGradient3156)" fill-opacity="1" fill-rule="nonzero" stroke="none" stroke-width="1" display="inline" opacity=".15" overflow="visible" visibility="visible"/><path d="m 54.099999,57.00022 c 0,0 0,4.9997 0,4.9997 C 55.713227,62.00992 58,60.87972 58,59.49972 c 0,-1.38 -1.800241,-2.4995 -3.900001,-2.4995 z" style="marker:none" id="path2883" fill="url(#radialGradient3153)" fill-opacity="1" fill-rule="nonzero" stroke="none" stroke-width="1" display="inline" opacity=".15" overflow="visible" visibility="visible"/><path id="path4160-6" fill="url(#linearGradient3096)" fill-opacity="1" stroke="none" d="m 9,0.9998799 c 10.540935,0 45.999945,0.004 45.999945,0.004 L 55,59.00002 c 0,0 -30.666666,0 -46,0 0,-19.3334 0,-38.6665 0,-57.9998201 z" display="inline"/><path id="rect6741-1-8" fill="none" stroke="url(#linearGradient3093)" stroke-dasharray="none" stroke-dashoffset="0" stroke-linecap="round" stroke-linejoin="miter" stroke-miterlimit="4" stroke-opacity="1" stroke-width="1" d="M 54.499999,58.50002 H 9.4999998 V 1.4999799 H 54.499999 Z"/><path id="path4160-6-1" fill="none" stroke="url(#linearGradient3033)" stroke-dasharray="none" stroke-dashoffset="0" stroke-linecap="butt" stroke-linejoin="round" stroke-miterlimit="4" stroke-opacity="1" stroke-width="1" d="m 8.4999684,0.4998999 c 10.7700936,0 47.0000286,0.004 47.0000286,0.004 l 4.9e-5,58.9962201 c 0,0 -31.333384,0 -47.0000776,0 0,-19.6668 0,-39.3334 0,-58.9999701 z" display="inline"/><path id="rect4204" fill="url(#radialGradient4508)" fill-opacity="1" fill-rule="nonzero" stroke="none" stroke-dasharray="none" stroke-dashoffset="0" stroke-linecap="butt" stroke-linejoin="round" stroke-miterlimit="4" stroke-opacity="1" stroke-width="1" d="m 24.984375,17 c -0.553632,0 -0.998047,0.446368 -0.998047,1 v 19.052734 c -1.224693,-0.513936 -2.756796,-0.334325 -4.068359,0.476563 -2.136703,1.321788 -3.060981,3.895221 -2.064453,5.746094 0.994995,1.85083 3.532891,2.279717 5.667968,0.957031 1.544748,-0.957296 2.51155,-2.620678 2.458985,-4.228516 1.38e-4,-0.0069 0.0039,-0.01261 0.0039,-0.01953 V 23.746094 c 0.24059,-0.132832 0.614911,0.15393 0.8125,0.289062 2.245376,1.358452 4.204686,3.611175 4.34375,6.388672 0.1203,1.606685 -0.216666,3.205888 -0.679687,4.732422 2.064145,-3.396054 1.954696,-8.120492 -0.595704,-11.222656 -1.64512,-1.716591 -3.197103,-3.717746 -3.880859,-6.042969 C 25.934515,17.669762 25.632231,17 24.984375,17 Z m 11.929687,1.998047 c -0.553631,0 -1,0.446368 -1,1 0,0.553632 0.446368,1 1,1 h 7.990235 c 0.553632,0 1,-0.446368 1,-1 0,-0.553632 -0.446368,-1 -1,-1 z m 0,5.996094 c -0.553631,0 -1,0.446368 -1,1 0,0.553633 0.446368,1 1,1 h 7.990235 c 0.553632,0 1,-0.446367 1,-1 0,-0.553632 -0.446368,-1 -1,-1 z m 0,5.996093 c -0.553631,0 -1,0.446368 -1,1 0,0.553633 0.446368,1 1,1 h 7.990235 c 0.553632,0 1,-0.446367 1,-1 0,-0.553632 -0.446368,-1 -1,-1 z m -6.003906,5.996094 c -0.553632,0 -1,0.446368 -1,1 0,0.553633 0.446368,1 1,1 h 13.994141 c 0.553632,0 1,-0.446367 1,-1 0,-0.553632 -0.446368,-1 -1,-1 z" clip-rule="nonzero" color="#000" color-interpolation="sRGB" color-interpolation-filters="linearRGB" color-rendering="auto" display="inline" enable-background="accumulate" image-rendering="auto" opacity="1" overflow="visible" shape-rendering="auto" text-rendering="auto" visibility="visible" style="isolation:auto;mix-blend-mode:normal;solid-color:#000;solid-opacity:1;marker:none"/></svg>