<svg xmlns="http://www.w3.org/2000/svg" xmlns:svg="http://www.w3.org/2000/svg" id="svg7384" width="64" height="64" version="1.1"><metadata id="metadata90"/><title id="title9167">elementary Symbolic Icon Theme</title><g id="g829" fill="#bebebe" fill-opacity="1" stroke="none" stroke-dasharray="none" stroke-dashoffset="0" stroke-linecap="butt" stroke-linejoin="miter" stroke-miterlimit="4" stroke-opacity="1" stroke-width=".64" color="#bebebe" opacity="1" transform="matrix(3.1234208,0,0,3.1234208,-3221.0444,841.25057)" style="marker:none"><path id="path827" fill="#bebebe" fill-opacity="1" stroke="none" stroke-dasharray="none" stroke-dashoffset="0" stroke-linecap="butt" stroke-linejoin="miter" stroke-miterlimit="4" stroke-opacity="1" stroke-width=".64" d="m 1046.3121,-267 -7.3181,1.906 c -0.554,0.149 -1.0153,0.74 -1.0153,1.313 v 9.094 c -0.6259,-0.32246 -1.3342,-0.40087 -2.0147,-0.22 -1.35,0.351 -2.196,1.485 -1.907,2.532 0.29,1.047 1.619,1.632 2.969,1.281 1.076,-0.28 1.7797,-1.071 1.8977,-1.906 l 0.031,-8.594 7.0281,-1.875 v 6.781 c -0.6265,-0.32204 -1.3392,-0.39974 -2.0198,-0.218 -1.35,0.35 -2.196,1.484 -1.906,2.531 0.289,1.047 1.619,1.632 2.968,1.281 1.077,-0.28 1.7621,-1.071 1.8801,-1.906 l 0.03,-11.188 c 0,-0.43 -0.265,-0.751 -0.624,-0.812 z" overflow="visible" vector-effect="none" style="marker:none"/></g></svg>