<svg xmlns="http://www.w3.org/2000/svg" xmlns:svg="http://www.w3.org/2000/svg" xmlns:xlink="http://www.w3.org/1999/xlink" id="svg3844" width="64" height="64" version="1.1"><defs id="defs3846"><linearGradient id="linearGradient1069"><stop id="stop1065" offset="0" stop-color="#ed5353" stop-opacity="1"/><stop id="stop1067" offset="1" stop-color="#c6262e" stop-opacity="1"/></linearGradient><linearGradient id="linearGradient3033" x1="-51.786" x2="-51.786" y1="50.786" y2="2.906" gradientTransform="matrix(1.0843523,0,0,1.1997367,79.550862,-4.1628601)" gradientUnits="userSpaceOnUse" xlink:href="#linearGradient3104-6"/><linearGradient id="linearGradient3104-6"><stop id="stop3106-3" offset="0" stop-color="#000" stop-opacity=".318"/><stop id="stop3108-9" offset="1" stop-color="#000" stop-opacity=".24"/></linearGradient><linearGradient id="linearGradient3093" x1="24" x2="24" y1="5.864" y2="42.176" gradientTransform="matrix(1.2162162,0,0,1.5405376,2.8108184,-6.9729501)" gradientUnits="userSpaceOnUse" xlink:href="#linearGradient3977-4"/><linearGradient id="linearGradient3977-4"><stop id="stop3979-7" offset="0" stop-color="#fff" stop-opacity="1"/><stop id="stop3981-6" offset="0" stop-color="#fff" stop-opacity=".235"/><stop id="stop3983-5" offset="1" stop-color="#fff" stop-opacity=".157"/><stop id="stop3985-6" offset="1" stop-color="#fff" stop-opacity=".392"/></linearGradient><linearGradient id="linearGradient3096" x1="25.132" x2="25.132" y1=".985" y2="47.013" gradientTransform="matrix(1.3142827,0,0,1.2602393,0.4572141,-2.1793201)" gradientUnits="userSpaceOnUse" xlink:href="#linearGradient3600-9"/><linearGradient id="linearGradient3600-9"><stop id="stop3602-3" offset="0" stop-color="#f4f4f4" stop-opacity="1"/><stop id="stop3604-7" offset="1" stop-color="#dbdbdb" stop-opacity="1"/></linearGradient><radialGradient id="radialGradient3153" cx="605.714" cy="486.648" r="117.143" fx="605.714" fy="486.648" gradientTransform="matrix(0.03132633,0,0,0.02058823,35.220859,49.45142)" gradientUnits="userSpaceOnUse" xlink:href="#linearGradient5060"/><linearGradient id="linearGradient5060"><stop id="stop5062" offset="0" stop-color="#000" stop-opacity="1"/><stop id="stop5064" offset="1" stop-color="#000" stop-opacity="0"/></linearGradient><radialGradient id="radialGradient3156" cx="605.714" cy="486.648" r="117.143" fx="605.714" fy="486.648" gradientTransform="matrix(-0.03132632,0,0,0.02058823,28.779136,49.45142)" gradientUnits="userSpaceOnUse" xlink:href="#linearGradient5060"/><linearGradient id="linearGradient5048"><stop id="stop5050" offset="0" stop-color="#000" stop-opacity="0"/><stop id="stop5056" offset=".5" stop-color="#000" stop-opacity="1"/><stop id="stop5052" offset="1" stop-color="#000" stop-opacity="0"/></linearGradient><linearGradient id="linearGradient3842" x1="302.857" x2="302.857" y1="366.648" y2="609.505" gradientTransform="matrix(0.09153846,0,0,0.02058823,-1.084616,49.45142)" gradientUnits="userSpaceOnUse" xlink:href="#linearGradient5048"/><linearGradient id="linearGradient1071" x1="44" x2="44" y1="0" y2="44.5" gradientTransform="translate(0.6132882)" gradientUnits="userSpaceOnUse" xlink:href="#linearGradient1069"/><linearGradient id="linearGradient1063" x1="-17.375" x2="-17.375" y1="-6.125" y2="37.679" gradientTransform="matrix(1,0,0,1.0089774,45.90821,5.9573492)" gradientUnits="userSpaceOnUse" xlink:href="#linearGradient1061"/><linearGradient id="linearGradient1061"><stop id="stop1057" offset="0" stop-color="#4d4d4d" stop-opacity="1"/><stop id="stop1059" offset="1" stop-color="#333" stop-opacity="1"/></linearGradient></defs><metadata id="metadata3849"/><rect id="rect2879" width="44.2" height="5" x="9.9" y="57" fill="url(#linearGradient3842)" fill-opacity="1" fill-rule="nonzero" stroke="none" stroke-width="1" display="inline" opacity=".15" overflow="visible" visibility="visible" style="marker:none"/><path d="m 9.9,57.00022 c 0,0 0,4.9997 0,4.9997 -1.6132281,0.01 -3.9,-1.1202 -3.9,-2.5002 0,-1.38 1.8002408,-2.4995 3.9,-2.4995 z" style="marker:none" id="path2881" fill="url(#radialGradient3156)" fill-opacity="1" fill-rule="nonzero" stroke="none" stroke-width="1" display="inline" opacity=".15" overflow="visible" visibility="visible"/><path d="m 54.099999,57.00022 c 0,0 0,4.9997 0,4.9997 C 55.713227,62.00992 58,60.87972 58,59.49972 c 0,-1.38 -1.800241,-2.4995 -3.900001,-2.4995 z" style="marker:none" id="path2883" fill="url(#radialGradient3153)" fill-opacity="1" fill-rule="nonzero" stroke="none" stroke-width="1" display="inline" opacity=".15" overflow="visible" visibility="visible"/><path id="path4160-6" fill="url(#linearGradient3096)" fill-opacity="1" stroke="none" d="m 9,0.9998799 c 10.540935,0 45.999945,0.004 45.999945,0.004 L 55,59.00002 c 0,0 -30.666666,0 -46,0 0,-19.3334 0,-38.6665 0,-57.9998201 z" display="inline"/><path id="rect6741-1-8" fill="none" stroke="url(#linearGradient3093)" stroke-dasharray="none" stroke-dashoffset="0" stroke-linecap="round" stroke-linejoin="miter" stroke-miterlimit="4" stroke-opacity="1" stroke-width="1" d="m 54.499999,58.50002 -44.9999992,0 0,-57.0000401 44.9999992,0 z"/><path id="path4160-6-1" fill="none" stroke="url(#linearGradient3033)" stroke-dasharray="none" stroke-dashoffset="0" stroke-linecap="butt" stroke-linejoin="round" stroke-miterlimit="4" stroke-opacity="1" stroke-width="1" d="m 8.4999684,0.4998999 c 10.7700936,0 47.0000286,0.004 47.0000286,0.004 l 4.9e-5,58.9962201 c 0,0 -31.333384,0 -47.0000776,0 0,-19.6668 0,-39.3334 0,-58.9999701 z" display="inline"/><path id="text942" fill="url(#linearGradient1071)" fill-opacity="1" stroke="none" d="m 41.148444,23.804688 c -2.1875,-10e-7 -4.055989,0.748697 -5.605468,2.246093 -1.54948,1.497396 -2.740886,3.391927 -3.574219,5.683594 -0.377604,1.041667 -0.657552,2.089844 -0.839844,3.144531 -0.182292,1.041667 -0.273437,2.089844 -0.273437,3.144532 0,1.041666 0.149739,1.972656 0.449218,2.792968 0.833334,2.278646 2.434896,3.417969 4.804688,3.417969 2.369791,0 4.38151,-1.236979 6.035156,-3.710937 0.15625,1.184895 0.572917,2.102864 1.25,2.753906 0.677083,0.638021 1.542969,0.957031 2.597656,0.957031 1.067709,0 1.946615,-0.377604 2.636719,-1.132813 0.390625,-0.442708 0.865885,-1.41276 1.425781,-2.910156 -0.234375,0.117188 -0.527344,0.175782 -0.878906,0.175782 -1.09375,0 -1.640625,-0.45573 -1.640625,-1.367188 0,-0.481771 0.05859,-0.950521 0.175781,-1.40625 L 50.582038,24 h -5.761719 l -0.429687,2.128906 v -0.292968 c 0,-0.585938 -0.253906,-1.067709 -0.761719,-1.445313 C 43.1211,24 42.294278,23.804688 41.148444,23.804688 Z m 1.074219,2.480468 c 0.742187,0 1.223958,0.195313 1.445313,0.585938 0.234374,0.377604 0.351562,0.690104 0.351562,0.9375 l -1.914062,9.023437 c -0.247396,1.09375 -0.696615,1.959636 -1.347657,2.597657 -0.651041,0.625 -1.373698,0.9375 -2.167969,0.9375 -0.429687,0 -0.78776,-0.14323 -1.074218,-0.429688 -0.494792,-0.46875 -0.742188,-1.295573 -0.742188,-2.480469 0,-0.611979 0.03255,-1.191406 0.09766,-1.738281 0.429688,-3.580729 1.490886,-6.328125 3.183594,-8.242188 0.703125,-0.79427 1.425782,-1.191406 2.167969,-1.191406 z" font-family="sans-serif" font-size="40" font-style="normal" font-weight="normal" letter-spacing="0" word-spacing="0" style="line-height:1.25"/><path id="flowRoot1142" fill="url(#linearGradient1063)" fill-opacity="1" stroke="none" stroke-dasharray="none" stroke-dashoffset="0" stroke-linecap="butt" stroke-linejoin="miter" stroke-miterlimit="4" stroke-opacity="1" stroke-width="1" d="m 23.744141,16.999999 -9.40625,27 h 6.08789 L 22.359375,38 h 9.714844 l 1.933593,5.999999 h 6.087891 l -9.443359,-27 z m 3.482421,4.173856 3.5,11.826145 H 23.78125 Z" font-family="Open Sans" font-size="37.333" font-stretch="normal" font-style="normal" font-variant="normal" font-weight="bold" letter-spacing="0" opacity="1" vector-effect="none" word-spacing="0" style="line-height:1.25;-inkscape-font-specification:'Open Sans Bold'"/></svg>