<svg xmlns="http://www.w3.org/2000/svg" xmlns:svg="http://www.w3.org/2000/svg" xmlns:xlink="http://www.w3.org/1999/xlink" id="svg3844" width="64" height="64" version="1.1"><defs id="defs3846"><linearGradient id="linearGradient3033" x1="-51.786" x2="-51.786" y1="50.786" y2="2.906" gradientTransform="matrix(1.0843523,0,0,1.1997367,79.550862,-4.1628601)" gradientUnits="userSpaceOnUse" xlink:href="#linearGradient3104-6"/><linearGradient id="linearGradient3104-6"><stop id="stop3106-3" offset="0" stop-color="#000" stop-opacity=".318"/><stop id="stop3108-9" offset="1" stop-color="#000" stop-opacity=".24"/></linearGradient><linearGradient id="linearGradient3093" x1="24" x2="24" y1="5.864" y2="42.176" gradientTransform="matrix(1.2162162,0,0,1.5405376,2.8108184,-6.9729501)" gradientUnits="userSpaceOnUse" xlink:href="#linearGradient3977-4"/><linearGradient id="linearGradient3977-4"><stop id="stop3979-7" offset="0" stop-color="#fff" stop-opacity="1"/><stop id="stop3981-6" offset="0" stop-color="#fff" stop-opacity=".235"/><stop id="stop3983-5" offset="1" stop-color="#fff" stop-opacity=".157"/><stop id="stop3985-6" offset="1" stop-color="#fff" stop-opacity=".392"/></linearGradient><linearGradient id="linearGradient3096" x1="25.132" x2="25.132" y1=".985" y2="47.013" gradientTransform="matrix(1.3142827,0,0,1.2602393,0.4572141,-2.1793201)" gradientUnits="userSpaceOnUse" xlink:href="#linearGradient3600-9"/><linearGradient id="linearGradient3600-9"><stop id="stop3602-3" offset="0" stop-color="#f4f4f4" stop-opacity="1"/><stop id="stop3604-7" offset="1" stop-color="#dbdbdb" stop-opacity="1"/></linearGradient><radialGradient id="radialGradient3153" cx="605.714" cy="486.648" r="117.143" fx="605.714" fy="486.648" gradientTransform="matrix(0.03132633,0,0,0.02058823,35.220859,49.45142)" gradientUnits="userSpaceOnUse" xlink:href="#linearGradient5060"/><linearGradient id="linearGradient5060"><stop id="stop5062" offset="0" stop-color="#000" stop-opacity="1"/><stop id="stop5064" offset="1" stop-color="#000" stop-opacity="0"/></linearGradient><radialGradient id="radialGradient3156" cx="605.714" cy="486.648" r="117.143" fx="605.714" fy="486.648" gradientTransform="matrix(-0.03132632,0,0,0.02058823,28.779136,49.45142)" gradientUnits="userSpaceOnUse" xlink:href="#linearGradient5060"/><linearGradient id="linearGradient5048"><stop id="stop5050" offset="0" stop-color="#000" stop-opacity="0"/><stop id="stop5056" offset=".5" stop-color="#000" stop-opacity="1"/><stop id="stop5052" offset="1" stop-color="#000" stop-opacity="0"/></linearGradient><linearGradient id="linearGradient3842" x1="302.857" x2="302.857" y1="366.648" y2="609.505" gradientTransform="matrix(0.09153846,0,0,0.02058823,-1.084616,49.45142)" gradientUnits="userSpaceOnUse" xlink:href="#linearGradient5048"/></defs><metadata id="metadata3849"/><rect id="rect2879" width="44.2" height="5" x="9.9" y="57" fill="url(#linearGradient3842)" fill-opacity="1" fill-rule="nonzero" stroke="none" stroke-width="1" display="inline" opacity=".15" overflow="visible" visibility="visible" style="marker:none"/><path id="path2881" fill="url(#radialGradient3156)" fill-opacity="1" fill-rule="nonzero" stroke="none" stroke-width="1" d="m 9.9,57.00022 c 0,0 0,4.9997 0,4.9997 -1.6132281,0.01 -3.9,-1.1202 -3.9,-2.5002 0,-1.38 1.8002408,-2.4995 3.9,-2.4995 z" display="inline" opacity=".15" overflow="visible" visibility="visible" style="marker:none"/><path id="path2883" fill="url(#radialGradient3153)" fill-opacity="1" fill-rule="nonzero" stroke="none" stroke-width="1" d="m 54.099999,57.00022 c 0,0 0,4.9997 0,4.9997 C 55.713227,62.00992 58,60.87972 58,59.49972 c 0,-1.38 -1.800241,-2.4995 -3.900001,-2.4995 z" display="inline" opacity=".15" overflow="visible" visibility="visible" style="marker:none"/><path id="path4160-6" fill="url(#linearGradient3096)" fill-opacity="1" stroke="none" d="m 9,0.9998799 c 10.540935,0 45.999945,0.004 45.999945,0.004 L 55,59.00002 c 0,0 -30.666666,0 -46,0 0,-19.3334 0,-38.6665 0,-57.9998201 z" display="inline"/><path id="rect6741-1-8" fill="none" stroke="url(#linearGradient3093)" stroke-dasharray="none" stroke-dashoffset="0" stroke-linecap="round" stroke-linejoin="miter" stroke-miterlimit="4" stroke-opacity="1" stroke-width="1" d="m 54.499999,58.50002 -44.9999992,0 0,-57.0000401 44.9999992,0 z"/><path id="path4160-6-1" fill="none" stroke="url(#linearGradient3033)" stroke-dasharray="none" stroke-dashoffset="0" stroke-linecap="butt" stroke-linejoin="round" stroke-miterlimit="4" stroke-opacity="1" stroke-width="1" d="m 8.4999684,0.4998999 c 10.7700936,0 47.0000286,0.004 47.0000286,0.004 l 4.9e-5,58.9962201 c 0,0 -31.333384,0 -47.0000776,0 0,-19.6668 0,-39.3334 0,-58.9999701 z" display="inline"/><path id="rect4250" fill="#abacae" fill-opacity="1" fill-rule="nonzero" stroke="none" stroke-dasharray="none" stroke-dashoffset="0" stroke-linecap="butt" stroke-linejoin="miter" stroke-miterlimit="4" stroke-opacity="1" stroke-width="1" d="M 19.5,21 C 19.223,21 19,21.223 19,21.5 v 1 c 0,0.277 0.223,0.5 0.5,0.5 h 1 c 0.277,0 0.5,-0.223 0.5,-0.5 v -1 C 21,21.223 20.777,21 20.5,21 Z m 5,0 C 24.223,21 24,21.223 24,21.5 v 1 c 0,0.277 0.223,0.5 0.5,0.5 h 17 c 0.277,0 0.5,-0.223 0.5,-0.5 v -1 C 42,21.223 41.777,21 41.5,21 Z m -5,18 C 19.223,39 19,39.223 19,39.5 v 1 c 0,0.277 0.223,0.5 0.5,0.5 h 1 c 0.277,0 0.5,-0.223 0.5,-0.5 v -1 C 21,39.223 20.777,39 20.5,39 Z m 5,0 C 24.223,39 24,39.223 24,39.5 v 1 c 0,0.277 0.223,0.5 0.5,0.5 h 17 c 0.277,0 0.5,-0.223 0.5,-0.5 v -1 C 42,39.223 41.777,39 41.5,39 Z" clip-rule="nonzero" color="#000" color-interpolation="sRGB" color-interpolation-filters="linearRGB" color-rendering="auto" display="inline" enable-background="accumulate" image-rendering="auto" opacity="1" overflow="visible" shape-rendering="auto" text-rendering="auto" visibility="visible" style="isolation:auto;mix-blend-mode:normal;solid-color:#000;solid-opacity:1;marker:none"/><path id="rect4250-5" fill="#ed5353" fill-opacity="1" fill-rule="nonzero" stroke="none" stroke-dasharray="none" stroke-dashoffset="0" stroke-linecap="butt" stroke-linejoin="miter" stroke-miterlimit="4" stroke-opacity="1" stroke-width="1" d="M 21.5,27 C 21.223,27 21,27.223 21,27.5 v 1 c 0,0.277 0.223,0.5 0.5,0.5 h 1 c 0.277,0 0.5,-0.223 0.5,-0.5 v -1 C 23,27.223 22.777,27 22.5,27 Z m 5,0 C 26.223,27 26,27.223 26,27.5 v 1 c 0,0.277 0.223,0.5 0.5,0.5 h 17 c 0.277,0 0.5,-0.223 0.5,-0.5 v -1 C 44,27.223 43.777,27 43.5,27 Z" clip-rule="nonzero" color="#000" color-interpolation="sRGB" color-interpolation-filters="linearRGB" color-rendering="auto" display="inline" enable-background="accumulate" image-rendering="auto" opacity="1" overflow="visible" shape-rendering="auto" text-rendering="auto" visibility="visible" style="isolation:auto;mix-blend-mode:normal;solid-color:#000;solid-opacity:1;marker:none"/><path id="rect4250-5-5" fill="#68b723" fill-opacity="1" fill-rule="nonzero" stroke="none" stroke-dasharray="none" stroke-dashoffset="0" stroke-linecap="butt" stroke-linejoin="miter" stroke-miterlimit="4" stroke-opacity="1" stroke-width="1" d="M 21.5,33 C 21.223,33 21,33.223 21,33.5 v 1 c 0,0.277 0.223,0.5 0.5,0.5 h 1 c 0.277,0 0.5,-0.223 0.5,-0.5 v -1 C 23,33.223 22.777,33 22.5,33 Z m 5,0 C 26.223,33 26,33.223 26,33.5 v 1 c 0,0.277 0.223,0.5 0.5,0.5 h 17 c 0.277,0 0.5,-0.223 0.5,-0.5 v -1 C 44,33.223 43.777,33 43.5,33 Z" clip-rule="nonzero" color="#000" color-interpolation="sRGB" color-interpolation-filters="linearRGB" color-rendering="auto" display="inline" enable-background="accumulate" image-rendering="auto" opacity="1" overflow="visible" shape-rendering="auto" text-rendering="auto" visibility="visible" style="isolation:auto;mix-blend-mode:normal;solid-color:#000;solid-opacity:1;marker:none"/></svg>