<svg xmlns="http://www.w3.org/2000/svg" xmlns:svg="http://www.w3.org/2000/svg" xmlns:xlink="http://www.w3.org/1999/xlink" id="svg3130" width="64" height="64" version="1.1"><defs id="defs3132"><linearGradient id="linearGradient3048" x1="-51.786" x2="-51.786" y1="50.786" y2="2.906" gradientTransform="matrix(1.0843523,0,0,1.1997367,79.550862,-4.1628601)" gradientUnits="userSpaceOnUse" xlink:href="#linearGradient3104-6"/><linearGradient id="linearGradient3104-6"><stop id="stop3106-3" offset="0" stop-color="#000" stop-opacity=".318"/><stop id="stop3108-9" offset="1" stop-color="#000" stop-opacity=".24"/></linearGradient><linearGradient id="linearGradient3051" x1="24" x2="24" y1="5.864" y2="42.1" gradientTransform="matrix(1.2162162,0,0,1.5405376,2.8108184,-6.9729501)" gradientUnits="userSpaceOnUse" xlink:href="#linearGradient3977-4"/><linearGradient id="linearGradient3977-4"><stop id="stop3979-7" offset="0" stop-color="#fff" stop-opacity="1"/><stop id="stop3981-6" offset=".012" stop-color="#fff" stop-opacity=".235"/><stop id="stop3983-5" offset=".988" stop-color="#fff" stop-opacity=".157"/><stop id="stop3985-6" offset="1" stop-color="#fff" stop-opacity=".392"/></linearGradient><linearGradient id="linearGradient3054" x1="25.132" x2="25.132" y1=".985" y2="47.013" gradientTransform="matrix(1.3142827,0,0,1.2602393,0.4572141,-2.1793201)" gradientUnits="userSpaceOnUse" xlink:href="#linearGradient3600-9"/><linearGradient id="linearGradient3600-9"><stop id="stop3602-3" offset="0" stop-color="#f4f4f4" stop-opacity="1"/><stop id="stop3604-7" offset="1" stop-color="#dbdbdb" stop-opacity="1"/></linearGradient><radialGradient id="radialGradient3057" cx="605.714" cy="486.648" r="117.143" fx="605.714" fy="486.648" gradientTransform="matrix(0.03132633,0,0,0.02058823,35.220859,49.45142)" gradientUnits="userSpaceOnUse" xlink:href="#linearGradient5060"/><linearGradient id="linearGradient5060"><stop id="stop5062" offset="0" stop-color="#000" stop-opacity="1"/><stop id="stop5064" offset="1" stop-color="#000" stop-opacity="0"/></linearGradient><radialGradient id="radialGradient3060" cx="605.714" cy="486.648" r="117.143" fx="605.714" fy="486.648" gradientTransform="matrix(-0.03132632,0,0,0.02058823,28.779136,49.45142)" gradientUnits="userSpaceOnUse" xlink:href="#linearGradient5060"/><linearGradient id="linearGradient5048"><stop id="stop5050" offset="0" stop-color="#000" stop-opacity="0"/><stop id="stop5056" offset=".5" stop-color="#000" stop-opacity="1"/><stop id="stop5052" offset="1" stop-color="#000" stop-opacity="0"/></linearGradient><linearGradient id="linearGradient3128" x1="302.857" x2="302.857" y1="366.648" y2="609.505" gradientTransform="matrix(0.09153846,0,0,0.02058823,-1.084616,49.45142)" gradientUnits="userSpaceOnUse" xlink:href="#linearGradient5048"/></defs><metadata id="metadata3135"/><rect id="rect2879" width="44.2" height="5" x="9.9" y="57" fill="url(#linearGradient3128)" fill-opacity="1" fill-rule="nonzero" stroke="none" stroke-width="1" display="inline" opacity=".15" overflow="visible" visibility="visible" style="marker:none"/><path d="m 9.9,57.00022 c 0,0 0,4.9997 0,4.9997 -1.6132281,0.01 -3.9,-1.1202 -3.9,-2.5002 0,-1.38 1.8002408,-2.4995 3.9,-2.4995 z" style="marker:none" id="path2881" fill="url(#radialGradient3060)" fill-opacity="1" fill-rule="nonzero" stroke="none" stroke-width="1" display="inline" opacity=".15" overflow="visible" visibility="visible"/><path d="m 54.099999,57.00022 c 0,0 0,4.9997 0,4.9997 C 55.713227,62.00992 58,60.87972 58,59.49972 c 0,-1.38 -1.800241,-2.4995 -3.900001,-2.4995 z" style="marker:none" id="path2883" fill="url(#radialGradient3057)" fill-opacity="1" fill-rule="nonzero" stroke="none" stroke-width="1" display="inline" opacity=".15" overflow="visible" visibility="visible"/><path id="path4160-6" fill="url(#linearGradient3054)" fill-opacity="1" stroke="none" d="m 9,0.9998799 c 10.540935,0 45.999945,0.004 45.999945,0.004 L 55,59.00002 c 0,0 -30.666666,0 -46,0 0,-19.3334 0,-38.6665 0,-57.9998201 z" display="inline"/><path id="rect6741-1-8" fill="none" stroke="url(#linearGradient3051)" stroke-dasharray="none" stroke-dashoffset="0" stroke-linecap="round" stroke-linejoin="miter" stroke-miterlimit="4" stroke-opacity="1" stroke-width="1" d="m 54.499999,58.50002 -44.9999992,0 0,-57.0000401 44.9999992,0 z"/><path id="path4160-6-1" fill="none" stroke="url(#linearGradient3048)" stroke-dasharray="none" stroke-dashoffset="0" stroke-linecap="butt" stroke-linejoin="round" stroke-miterlimit="4" stroke-opacity="1" stroke-width="1" d="m 8.4999684,0.4998999 c 10.7700936,0 47.0000286,0.004 47.0000286,0.004 l 4.9e-5,58.9962201 c 0,0 -31.333384,0 -47.0000776,0 0,-19.6668 0,-39.3334 0,-58.9999701 z" display="inline"/><g id="g4141" transform="translate(0.00131,-6.9e-5)"><path id="path3475" fill="none" stroke="#7e8087" stroke-linecap="butt" stroke-linejoin="miter" stroke-opacity="1" stroke-width="1" d="m 31,11.5 3.082031,0 z m 3.595703,0 2.560547,0 z m 3.029297,0 1.154297,0 z m 1.580078,0 2.648438,0 z m 3.117188,0 2.988281,0 z m 3.457031,0 3.203125,0 z M 31,14.5 l 2.654297,0 z m 3.082031,0 2.21875,0 z m 2.691407,0 2.173828,0 z m 2.646484,0 1.193359,0 z m 1.621094,0 2.390625,0 z m 2.945312,0 4.996094,0 z M 31,17.5 l 2.203125,0 z m 2.630859,0 3.373047,0 z m 3.798829,0 6.916015,0 z m 7.34375,0 L 49,17.5 Z M 31,20.5 l 1.970703,0 z m 2.398438,0 2.519531,0 z m 2.947265,0 6.318359,0 z m 6.787109,0 5.84961,0 z M 15,25.5 l 5.849609,0 z m 6.318359,0 6.31836,0 z m 6.746094,0 2.435547,0 z M 31,25.5 l 3.996094,0 z m 4.550781,0 1.949219,0 z m 2.501953,0 L 42,25.5 Z m 4.447266,0 6.482422,0 z m -27.5,3 3.201172,0 z m 3.671875,0 2.945313,0 z m 3.457031,0 2.646485,0 z m 3.074219,0 1.152344,0 z m 1.623047,0 2.560547,0 z m 3.074219,0 6.701171,0 z m 7.169921,0 5.123047,0 z m 5.548829,0 1.625,0 z m 2.050781,0 L 49,28.5 Z M 15,31.5 l 5.378906,0 z m 5.806641,0 5.763671,0 z m 6.1875,0 2.222656,0 z m 2.648437,0 5.421875,0 z m 5.847656,0 6.832032,0 z m 7.300782,0 L 49,31.5 Z M 15,34.5 l 5.849609,0 z m 6.318359,0 6.31836,0 z m 6.746094,0 2.517578,0 z m 2.943359,0 5.935547,0 z m 6.31836,0 4.05664,0 z m 4.527344,0 1.621093,0 z m 2.048828,0 0.894531,0 z m 1.363281,0 L 49,34.5 Z M 15,37.5 l 4.994141,0 z m 5.548828,0 2.390625,0 z m 2.81836,0 1.195312,0 z m 1.664062,0 2.177734,0 z m 2.646484,0 2.222657,0 z m 2.646485,0 3.544922,0 z m 4.013672,0 4.609375,0 z m 5.037109,0 3.074219,0 z m 3.501953,0 L 49,37.5 Z M 15,42.478516 l 4.226562,0 z m 4.654297,0 6.916015,0 z m 7.339844,0 3.375,0 z m 3.802734,0 2.203125,0 z M 15,45.5 l 4.994141,0 z m 5.548828,0 2.390625,0 z m 2.81836,0 1.195312,0 z m 1.664062,0 2.177734,0 z m 2.646484,0 2.222657,0 z m 2.646485,0 L 33,45.5 Z M 15,48.5 l 5.292969,0 z m 5.763672,0 1.666016,0 z m 2.089844,0 3.800781,0 z m 4.226562,0 L 33,48.5 Z M 15,51.5 l 5.292969,0 z m 5.763672,0 2.390625,0 z m 2.818359,0 3.753907,0 z m 4.181641,0 L 33,51.5 Z"/><path id="path3253" fill="#7e8087" fill-opacity="1" d="m 35.277231,50.744734 c 1.861958,-0.865754 3.809894,-1.77539 3.809894,-3.723321 0,-0.606026 -0.259726,-0.606026 -1.385198,-0.692602 -1.255334,-0.08657 -1.775382,-0.909034 -1.775382,-2.034506 0,-1.558347 0.995609,-2.294236 2.207656,-2.294236 1.818073,0 3.160585,1.601635 3.160585,3.809297 0,1.688807 -0.822464,3.419703 -2.294236,4.675644 -0.99561,0.822458 -1.818073,1.125471 -3.203868,1.515059 l -0.519451,-1.255335 z m 7.705761,0 c 1.86136,-0.865754 3.809296,-1.77539 3.809296,-3.723321 0,-0.606026 -0.259725,-0.606026 -1.385197,-0.692602 -1.25534,-0.08657 -1.774786,-0.909034 -1.774786,-2.034506 0,-1.558347 0.995609,-2.294236 2.207657,-2.294236 1.818073,0 3.159983,1.601635 3.159983,3.809297 0,1.688807 -0.822459,3.419703 -2.294232,4.675644 -0.995614,0.822458 -1.818073,1.125471 -3.203271,1.515059 l -0.51945,-1.255335 z"/><path id="path3255" fill="#7e8087" fill-opacity="1" d="m 21.016603,12.256717 c -1.86207,0.865798 -3.810124,1.774893 -3.810124,3.722941 0,0.606063 0.259741,0.606063 1.385281,0.692644 1.255411,0.08658 1.775495,0.909089 1.775495,2.034634 0,1.558437 -0.995669,2.29437 -2.207794,2.29437 -1.818179,0 -3.160771,-1.602334 -3.160771,-3.810124 0,-1.688313 0.822508,-3.419916 2.294369,-4.675327 0.995675,-0.821906 1.818786,-1.124937 3.204067,-1.514549 l 0.519477,1.255411 z m 7.706232,0 c -1.861473,0.865798 -3.809527,1.774893 -3.809527,3.722941 0,0.606063 0.259741,0.606063 1.385281,0.692644 1.255416,0.08658 1.774893,0.909089 1.774893,2.034634 0,1.558437 -0.995669,2.29437 -2.20779,2.29437 -1.818183,0 -3.160174,-1.602334 -3.160174,-3.810124 0,-1.688313 0.822509,-3.419916 2.294371,-4.675327 0.995674,-0.821906 1.818183,-1.124937 3.203464,-1.514549 l 0.519482,1.255411 z"/></g></svg>