<svg xmlns="http://www.w3.org/2000/svg" xmlns:svg="http://www.w3.org/2000/svg" xmlns:xlink="http://www.w3.org/1999/xlink" id="svg3130" width="64" height="64" version="1.1"><defs id="defs3132"><linearGradient id="linearGradient3104-6"><stop id="stop3106-3" offset="0" stop-color="#000" stop-opacity=".318"/><stop id="stop3108-9" offset="1" stop-color="#000" stop-opacity=".24"/></linearGradient><linearGradient id="linearGradient3977-4"><stop id="stop3979-7" offset="0" stop-color="#fff" stop-opacity="1"/><stop id="stop3981-6" offset=".012" stop-color="#fff" stop-opacity=".235"/><stop id="stop3983-5" offset=".988" stop-color="#fff" stop-opacity=".157"/><stop id="stop3985-6" offset="1" stop-color="#fff" stop-opacity=".392"/></linearGradient><linearGradient id="linearGradient3600-9"><stop id="stop3602-3" offset="0" stop-color="#f4f4f4" stop-opacity="1"/><stop id="stop3604-7" offset="1" stop-color="#dbdbdb" stop-opacity="1"/></linearGradient><linearGradient id="linearGradient5060"><stop id="stop5062" offset="0" stop-color="#000" stop-opacity="1"/><stop id="stop5064" offset="1" stop-color="#000" stop-opacity="0"/></linearGradient><linearGradient id="linearGradient5048"><stop id="stop5050" offset="0" stop-color="#000" stop-opacity="0"/><stop id="stop5056" offset=".5" stop-color="#000" stop-opacity="1"/><stop id="stop5052" offset="1" stop-color="#000" stop-opacity="0"/></linearGradient><linearGradient id="linearGradient3018" x1="-51.786" x2="-51.786" y1="50.786" y2="2.906" gradientTransform="matrix(1.0843523,0,0,1.1997367,79.550862,-4.1628601)" gradientUnits="userSpaceOnUse" xlink:href="#linearGradient3104-6"/><linearGradient id="linearGradient3021" x1="24" x2="24" y1="5.864" y2="42.1" gradientTransform="matrix(1.2162162,0,0,1.5405376,2.8108184,-6.9729501)" gradientUnits="userSpaceOnUse" xlink:href="#linearGradient3977-4"/><linearGradient id="linearGradient3024" x1="25.132" x2="25.132" y1=".985" y2="47.013" gradientTransform="matrix(1.3142827,0,0,1.2602393,0.4572141,-2.1793201)" gradientUnits="userSpaceOnUse" xlink:href="#linearGradient3600-9"/><radialGradient id="radialGradient3027" cx="605.714" cy="486.648" r="117.143" fx="605.714" fy="486.648" gradientTransform="matrix(0.03132633,0,0,0.02058823,35.220859,49.45142)" gradientUnits="userSpaceOnUse" xlink:href="#linearGradient5060"/><radialGradient id="radialGradient3030" cx="605.714" cy="486.648" r="117.143" fx="605.714" fy="486.648" gradientTransform="matrix(-0.03132632,0,0,0.02058823,28.779136,49.45142)" gradientUnits="userSpaceOnUse" xlink:href="#linearGradient5060"/><linearGradient id="linearGradient3033" x1="302.857" x2="302.857" y1="366.648" y2="609.505" gradientTransform="matrix(0.09153846,0,0,0.02058823,-1.084616,49.45142)" gradientUnits="userSpaceOnUse" xlink:href="#linearGradient5048"/><linearGradient id="linearGradient4615" x1="64" x2="64" y1="112" y2="8" gradientTransform="matrix(0.5,0,0,0.5,0,-2.4999895)" gradientUnits="userSpaceOnUse" xlink:href="#linearGradient4613"/><linearGradient id="linearGradient4613"><stop id="stop4609" offset="0" stop-color="#4a525a" stop-opacity="1"/><stop id="stop4611" offset="1" stop-color="#505f6f" stop-opacity="1"/></linearGradient></defs><metadata id="metadata3135"/><rect id="rect2879" width="44.2" height="5" x="9.9" y="57" fill="url(#linearGradient3033)" fill-opacity="1" fill-rule="nonzero" stroke="none" stroke-width="1" display="inline" opacity=".15" overflow="visible" visibility="visible" style="marker:none"/><path id="path2881" fill="url(#radialGradient3030)" fill-opacity="1" fill-rule="nonzero" stroke="none" stroke-width="1" d="m 9.9,57.00022 c 0,0 0,4.9997 0,4.9997 -1.6132281,0.01 -3.9,-1.1202 -3.9,-2.5002 0,-1.38 1.8002408,-2.4995 3.9,-2.4995 z" display="inline" opacity=".15" overflow="visible" visibility="visible" style="marker:none"/><path id="path2883" fill="url(#radialGradient3027)" fill-opacity="1" fill-rule="nonzero" stroke="none" stroke-width="1" d="m 54.099999,57.00022 c 0,0 0,4.9997 0,4.9997 C 55.713227,62.00992 58,60.87972 58,59.49972 c 0,-1.38 -1.800241,-2.4995 -3.900001,-2.4995 z" display="inline" opacity=".15" overflow="visible" visibility="visible" style="marker:none"/><path id="path4160-6" fill="url(#linearGradient3024)" fill-opacity="1" stroke="none" d="m 9,0.9998799 c 10.540935,0 45.999945,0.004 45.999945,0.004 L 55,59.00002 c 0,0 -30.666666,0 -46,0 0,-19.3334 0,-38.6665 0,-57.9998201 z" display="inline"/><path id="rect6741-1-8" fill="none" stroke="url(#linearGradient3021)" stroke-dasharray="none" stroke-dashoffset="0" stroke-linecap="round" stroke-linejoin="miter" stroke-miterlimit="4" stroke-opacity="1" stroke-width="1" d="m 54.499999,58.50002 -44.9999992,0 0,-57.0000401 44.9999992,0 z"/><path id="path4160-6-1" fill="none" stroke="url(#linearGradient3018)" stroke-dasharray="none" stroke-dashoffset="0" stroke-linecap="butt" stroke-linejoin="round" stroke-miterlimit="4" stroke-opacity="1" stroke-width="1" d="m 8.4999684,0.4998999 c 10.7700936,0 47.0000286,0.004 47.0000286,0.004 l 4.9e-5,58.9962201 c 0,0 -31.333384,0 -47.0000776,0 0,-19.6668 0,-39.3334 0,-58.9999701 z" display="inline"/><path id="rect4550" fill="url(#linearGradient4615)" fill-opacity="1" fill-rule="nonzero" stroke="none" stroke-dasharray="none" stroke-dashoffset="0" stroke-linecap="butt" stroke-linejoin="miter" stroke-miterlimit="4" stroke-opacity="1" stroke-width="4" d="m 16.5,20.000009 c -1.367703,0 -2.5,1.132297 -2.5,2.5 V 37.50001 c 0,1.367702 1.132297,2.5 2.5,2.5 h 31 c 1.367703,0 2.5,-1.132298 2.5,-2.5 V 22.500009 c 0,-1.367703 -1.132297,-2.5 -2.5,-2.5 z m 0,2 h 31 c 0.294297,0 0.5,0.205704 0.5,0.5 V 37.50001 c 0,0.294297 -0.205703,0.5 -0.5,0.5 h -31 c -0.294297,0 -0.5,-0.205703 -0.5,-0.5 V 22.500009 c 0,-0.294297 0.205703,-0.5 0.5,-0.5 z M 20,25.00001 v 10 h 3 v -5.5 l 3,3.25 3,-3.25 v 5.5 h 3 v -10 h -3 l -3,3.3125 -3,-3.3125 z m 18,0 v 5 h -3 l 4.5,5.5 4.5,-5.5 h -3 v -5 z" baseline-shift="baseline" clip-rule="nonzero" color="#000" color-interpolation="sRGB" color-interpolation-filters="linearRGB" color-rendering="auto" direction="ltr" display="inline" dominant-baseline="auto" enable-background="accumulate" font-family="sans-serif" font-size="medium" font-stretch="normal" font-style="normal" font-variant="normal" font-weight="normal" image-rendering="auto" letter-spacing="normal" opacity="1" overflow="visible" shape-rendering="auto" text-anchor="start" text-decoration="none" text-rendering="auto" vector-effect="none" visibility="visible" word-spacing="normal" writing-mode="lr-tb" style="line-height:normal;font-variant-ligatures:normal;font-variant-position:normal;font-variant-caps:normal;font-variant-numeric:normal;font-variant-alternates:normal;font-feature-settings:normal;text-indent:0;text-align:start;text-decoration-line:none;text-decoration-style:solid;text-decoration-color:#000;text-transform:none;text-orientation:mixed;white-space:normal;shape-padding:0;isolation:auto;mix-blend-mode:normal;solid-color:#000;solid-opacity:1"/></svg>