<svg xmlns="http://www.w3.org/2000/svg" xmlns:svg="http://www.w3.org/2000/svg" xmlns:xlink="http://www.w3.org/1999/xlink" id="svg3844" width="64" height="64" version="1.1"><defs id="defs3846"><linearGradient id="linearGradient3104-6"><stop id="stop3106-3" offset="0" stop-color="#000" stop-opacity=".318"/><stop id="stop3108-9" offset="1" stop-color="#000" stop-opacity=".24"/></linearGradient><linearGradient id="linearGradient3977-4"><stop id="stop3979-7" offset="0" stop-color="#fff" stop-opacity="1"/><stop id="stop3981-6" offset="0" stop-color="#fff" stop-opacity=".235"/><stop id="stop3983-5" offset="1" stop-color="#fff" stop-opacity=".157"/><stop id="stop3985-6" offset="1" stop-color="#fff" stop-opacity=".392"/></linearGradient><linearGradient id="linearGradient3600-9"><stop id="stop3602-3" offset="0" stop-color="#f4f4f4" stop-opacity="1"/><stop id="stop3604-7" offset="1" stop-color="#dbdbdb" stop-opacity="1"/></linearGradient><linearGradient id="linearGradient5060"><stop id="stop5062" offset="0" stop-color="#000" stop-opacity="1"/><stop id="stop5064" offset="1" stop-color="#000" stop-opacity="0"/></linearGradient><linearGradient id="linearGradient5048"><stop id="stop5050" offset="0" stop-color="#000" stop-opacity="0"/><stop id="stop5056" offset=".5" stop-color="#000" stop-opacity="1"/><stop id="stop5052" offset="1" stop-color="#000" stop-opacity="0"/></linearGradient><linearGradient id="linearGradient3095" x1="-51.786" x2="-51.786" y1="50.786" y2="2.906" gradientTransform="matrix(1.0843523,0,0,1.1997367,79.550862,-4.1628601)" gradientUnits="userSpaceOnUse" xlink:href="#linearGradient3104-6"/><linearGradient id="linearGradient3098" x1="24" x2="24" y1="5.864" y2="42.1" gradientTransform="matrix(1.2162162,0,0,1.5405376,2.8108184,-6.9729501)" gradientUnits="userSpaceOnUse" xlink:href="#linearGradient3977-4"/><linearGradient id="linearGradient3101" x1="25.132" x2="25.132" y1=".985" y2="47.013" gradientTransform="matrix(1.3142827,0,0,1.2602393,0.4572141,-2.1793201)" gradientUnits="userSpaceOnUse" xlink:href="#linearGradient3600-9"/><radialGradient id="radialGradient3104" cx="605.714" cy="486.648" r="117.143" fx="605.714" fy="486.648" gradientTransform="matrix(0.03132633,0,0,0.02058823,35.220859,49.45142)" gradientUnits="userSpaceOnUse" xlink:href="#linearGradient5060"/><radialGradient id="radialGradient3107" cx="605.714" cy="486.648" r="117.143" fx="605.714" fy="486.648" gradientTransform="matrix(-0.03132632,0,0,0.02058823,28.779136,49.45142)" gradientUnits="userSpaceOnUse" xlink:href="#linearGradient5060"/><linearGradient id="linearGradient3110" x1="302.857" x2="302.857" y1="366.648" y2="609.505" gradientTransform="matrix(0.09153846,0,0,0.02058823,-1.084616,49.45142)" gradientUnits="userSpaceOnUse" xlink:href="#linearGradient5048"/><radialGradient id="radialGradient3155" cx="605.714" cy="486.648" r="117.143" fx="605.714" fy="486.648" gradientTransform="matrix(0.04016195,0,0,0.02225161,48.013776,1032.7998)" gradientUnits="userSpaceOnUse" xlink:href="#linearGradient3104-6"/><radialGradient id="radialGradient3157" cx="7" cy="39.465" r="3.5" fx="7" fy="39.465" gradientTransform="matrix(0,-1.000001,1.142856,0,-41.10259,45.50001)" gradientUnits="userSpaceOnUse" xlink:href="#linearGradient5060"/><radialGradient id="radialGradient3159" cx="7" cy="39.465" r="3.5" fx="7" fy="39.465" gradientTransform="matrix(0,-1.000001,1.142856,0,-89.10259,-31.49999)" gradientUnits="userSpaceOnUse" xlink:href="#linearGradient5060"/><linearGradient id="linearGradient3161" x1="18.142" x2="18.142" y1="35" y2="42.041" gradientUnits="userSpaceOnUse" xlink:href="#linearGradient5048"/><linearGradient id="linearGradient3163" x1="30.739" x2="45.903" y1="35.285" y2="50.736" gradientTransform="matrix(0,2.7038931,-2.6535314,0,169.84848,922.24617)" gradientUnits="userSpaceOnUse" xlink:href="#linearGradient3412"/><linearGradient id="linearGradient3412"><stop id="stop3414" offset="0" stop-color="#f0f0f1" stop-opacity="1"/><stop id="stop3416" offset="1" stop-color="#cbcdd9" stop-opacity="1"/></linearGradient><linearGradient id="linearGradient3238" x1="75.78" x2="75.78" y1="86" y2="127.036" gradientTransform="matrix(-1,0,0,1,133.21779,919.36222)" gradientUnits="userSpaceOnUse" xlink:href="#linearGradient6240"/><linearGradient id="linearGradient6240"><stop id="stop6242" offset="0" stop-color="#fff" stop-opacity="1"/><stop id="stop6244" offset="1" stop-color="#fff" stop-opacity="0"/></linearGradient></defs><metadata id="metadata3849"/><rect id="rect2879" width="44.2" height="5" x="9.9" y="57" fill="url(#linearGradient3110)" fill-opacity="1" fill-rule="nonzero" stroke="none" stroke-width="1" display="inline" opacity=".15" overflow="visible" visibility="visible" style="marker:none"/><path id="path2881" fill="url(#radialGradient3107)" fill-opacity="1" fill-rule="nonzero" stroke="none" stroke-width="1" d="m 9.9,57.00022 c 0,0 0,4.9997 0,4.9997 -1.6132281,0.01 -3.9,-1.1202 -3.9,-2.5002 0,-1.38 1.8002408,-2.4995 3.9,-2.4995 z" display="inline" opacity=".15" overflow="visible" visibility="visible" style="marker:none"/><path id="path2883" fill="url(#radialGradient3104)" fill-opacity="1" fill-rule="nonzero" stroke="none" stroke-width="1" d="m 54.099999,57.00022 c 0,0 0,4.9997 0,4.9997 C 55.713227,62.00992 58,60.87972 58,59.49972 c 0,-1.38 -1.800241,-2.4995 -3.900001,-2.4995 z" display="inline" opacity=".15" overflow="visible" visibility="visible" style="marker:none"/><path id="path4160-6" fill="url(#linearGradient3101)" fill-opacity="1" stroke="none" d="m 9,0.9998799 c 10.540935,0 45.999945,0.004 45.999945,0.004 L 55,59.00002 c 0,0 -30.666666,0 -46,0 0,-19.3334 0,-38.6665 0,-57.9998201 z" display="inline"/><path id="path3897" fill="#9bdb4d" fill-opacity="1" fill-rule="nonzero" stroke="none" d="m 15,15 h 34 v 4 4 H 15 Z" color="#000" display="inline" enable-background="accumulate" overflow="visible" visibility="visible" style="marker:none"/><path id="rect6741-1-8" fill="none" stroke="url(#linearGradient3098)" stroke-dasharray="none" stroke-dashoffset="0" stroke-linecap="round" stroke-linejoin="miter" stroke-miterlimit="4" stroke-opacity="1" stroke-width="1" d="m 54.499999,58.50002 -44.9999992,0 0,-57.0000401 44.9999992,0 z"/><path id="path3069" fill="none" stroke="#206b00" stroke-dasharray="none" stroke-dashoffset="0" stroke-linecap="butt" stroke-linejoin="miter" stroke-miterlimit="4" stroke-opacity="1" stroke-width="1" d="M 49,29.5 H 16 m 33,7 H 16 M 26.5,16 v 26.999859 m 11,-26.999576 v 26.999858" color="#000" display="inline" enable-background="accumulate" opacity=".4" overflow="visible" visibility="visible" style="marker:none"/><path id="path4160-6-1" fill="none" stroke="url(#linearGradient3095)" stroke-dasharray="none" stroke-dashoffset="0" stroke-linecap="butt" stroke-linejoin="round" stroke-miterlimit="4" stroke-opacity="1" stroke-width="1" d="m 8.4999684,0.4998999 c 10.7700936,0 47.0000286,0.004 47.0000286,0.004 l 4.9e-5,58.9962201 c 0,0 -31.333384,0 -47.0000776,0 0,-19.6668 0,-39.3334 0,-58.9999701 z" display="inline"/><path id="rect3580" fill="none" stroke="#206b00" stroke-dasharray="none" stroke-dashoffset="0" stroke-linecap="round" stroke-linejoin="miter" stroke-miterlimit="4" stroke-opacity="1" stroke-width="1" d="m 15.5,15.500001 h 33 V 43.5 h -33 z M 48.2,22.5 H 16" color="#000" display="inline" enable-background="accumulate" opacity=".6" overflow="visible" visibility="visible" style="marker:none"/><g id="g3138" transform="translate(-15.217778,-983.36214)"><path d="m 72.217794,1040.9585 c 0,0 0,5.4036 0,5.4036 2.068242,0.01 5,-1.2107 5,-2.7022 0,-1.4915 -2.308,-2.7014 -5,-2.7014 z" style="marker:none" id="path2881-3" fill="url(#radialGradient3155)" fill-opacity="1" fill-rule="nonzero" stroke="none" stroke-width="1" display="inline" opacity=".15" overflow="visible" visibility="visible"/><g id="g22150" opacity=".3" transform="matrix(-0.916667,0,0,0.714282,78.217794,1017.3623)"><rect id="rect22120" width="4" height="7" x="0" y="35" fill="url(#radialGradient3157)" fill-opacity="1" stroke="none"/><rect id="rect22134" width="4" height="7" x="-48" y="-42" fill="url(#radialGradient3159)" fill-opacity="1" stroke="none" transform="scale(-1,-1)"/><rect id="rect22138" width="40" height="7" x="4" y="35" fill="url(#linearGradient3161)" fill-opacity="1" stroke="none"/></g><path id="path2993" fill="url(#linearGradient3163)" fill-opacity="1" fill-rule="evenodd" stroke="#83899a" stroke-dasharray="none" stroke-dashoffset="0" stroke-linecap="butt" stroke-linejoin="miter" stroke-miterlimit="4" stroke-opacity="1" stroke-width="1" d="m 75.717796,1005.8622 -39.999999,40 39.999999,0 0,-40 z m -7.999996,18.6666 0,13.3334 -13.500006,0 13.500006,-13.3334 z" display="inline" enable-background="accumulate" opacity=".8" overflow="visible" visibility="visible" style="marker:none"/><path id="path3101" fill="none" stroke="#fff" stroke-linecap="round" stroke-linejoin="miter" stroke-opacity="1" stroke-width="1" d="m 70.717794,1044.8622 0,-1" opacity=".3"/><path id="path3103" fill="none" stroke="#fff" stroke-linecap="round" stroke-linejoin="miter" stroke-opacity="1" stroke-width="1" d="m 64.717794,1044.8622 0,-1" opacity=".3"/><path id="path3105" fill="none" stroke="#fff" stroke-linecap="round" stroke-linejoin="miter" stroke-opacity="1" stroke-width="1" d="m 58.717794,1044.8622 0,-0.9881" opacity=".3"/><path id="path3107" fill="none" stroke="#fff" stroke-linecap="round" stroke-linejoin="miter" stroke-opacity="1" stroke-width="1" d="m 52.717794,1044.8622 0,-1" opacity=".3"/><path id="path3109" fill="none" stroke="#fff" stroke-linecap="round" stroke-linejoin="miter" stroke-opacity="1" stroke-width="1" d="m 46.717794,1044.8622 0,-1" opacity=".3"/><path id="path3091" fill="none" stroke="#83899a" stroke-linecap="round" stroke-linejoin="miter" stroke-opacity="1" stroke-width="1" d="m 69.717794,1045.8622 0,-2 m -6,2 0,-2 m -6,2 0,-1.9762 m -6,1.9762 0,-2 m -6,2 0,-2" opacity=".75"/><path id="path3934" fill="none" stroke="url(#linearGradient3238)" stroke-dasharray="none" stroke-dashoffset="0" stroke-linecap="butt" stroke-linejoin="miter" stroke-miterlimit="4" stroke-opacity="1" stroke-width="1" d="m 74.717794,1008.2997 c 0,0 0,36.5625 0,36.5625 0,0 -36.5625,0 -36.5625,0 0,0 36.5625,-36.5625 36.5625,-36.5625 z m -6,13.5625 c 0,0 -17,17 -17,17 0,0 17,0 17,0 0,0 0,-17 0,-17 z" display="inline" enable-background="accumulate" opacity=".5" overflow="visible" visibility="visible" style="marker:none"/></g></svg>