<svg xmlns="http://www.w3.org/2000/svg" xmlns:svg="http://www.w3.org/2000/svg" xmlns:xlink="http://www.w3.org/1999/xlink" id="svg4954" width="64" height="64" version="1.1"><defs id="defs4956"><linearGradient id="linearGradient4356"><stop id="stop4358" offset="0" stop-color="#fff" stop-opacity="1"/><stop id="stop4360" offset=".01" stop-color="#fff" stop-opacity=".235"/><stop id="stop4362" offset=".983" stop-color="#fff" stop-opacity=".157"/><stop id="stop4364" offset="1" stop-color="#fff" stop-opacity=".392"/></linearGradient><linearGradient id="linearGradient3600-3-2-2"><stop id="stop3602-1-25-9" offset="0" stop-color="#f4f4f4" stop-opacity="1"/><stop id="stop3604-4-2-0" offset="1" stop-color="#dbdbdb" stop-opacity="1"/></linearGradient><linearGradient id="linearGradient3600-3-2-2-6-5-8-7"><stop id="stop3602-1-25-9-9-6-5-6" offset="0" stop-color="#f4f4f4" stop-opacity="1"/><stop id="stop3604-4-2-0-2-4-2-1" offset="1" stop-color="#dbdbdb" stop-opacity="1"/></linearGradient><linearGradient id="linearGradient3104-9-7-3-9-2-6-2"><stop id="stop3106-1-5-9-3-1-7-1" offset="0" stop-color="#aaa" stop-opacity="1"/><stop id="stop3108-1-5-5-7-2-4-5" offset="1" stop-color="#c8c8c8" stop-opacity="1"/></linearGradient><linearGradient id="linearGradient3211-8-8-0-0-9"><stop id="stop3213-0-0-8-1-1" offset="0" stop-color="#fff" stop-opacity="1"/><stop id="stop3215-1-8-0-6-4" offset="1" stop-color="#fff" stop-opacity="0"/></linearGradient><linearGradient id="linearGradient3600-3-2-2-6-8"><stop id="stop3602-1-25-9-9-7" offset="0" stop-color="#f4f4f4" stop-opacity="1"/><stop id="stop3604-4-2-0-2-0" offset="1" stop-color="#dbdbdb" stop-opacity="1"/></linearGradient><linearGradient id="linearGradient3104-9-7-3-9-6"><stop id="stop3106-1-5-9-3-2" offset="0" stop-color="#aaa" stop-opacity="1"/><stop id="stop3108-1-5-5-7-4" offset="1" stop-color="#c8c8c8" stop-opacity="1"/></linearGradient><linearGradient id="linearGradient3211-8-8-9"><stop id="stop3213-0-0-3" offset="0" stop-color="#fff" stop-opacity="1"/><stop id="stop3215-1-8-9" offset="1" stop-color="#fff" stop-opacity="0"/></linearGradient><linearGradient id="linearGradient3104-5"><stop id="stop3106-9" offset="0" stop-color="#aaa" stop-opacity="1"/><stop id="stop3108-9" offset="1" stop-color="#c8c8c8" stop-opacity="1"/></linearGradient><linearGradient id="linearGradient3091" x1="22.004" x2="22.004" y1="63.218" y2="25.647" gradientTransform="matrix(1.3394176,0,0,-1.9826305,-4.354333,114.86293)" gradientUnits="userSpaceOnUse" xlink:href="#linearGradient3104-5"/><linearGradient id="linearGradient3076" x1="24" x2="24" y1="5.947" y2="41.755" gradientTransform="matrix(0.89189189,0,0,1.054054,-0.40540014,13.702713)" gradientUnits="userSpaceOnUse" xlink:href="#linearGradient4356"/><linearGradient id="linearGradient3917" x1="25.132" x2="25.132" y1="15.285" y2="37.546" gradientTransform="matrix(1.456847,0,0,1.4786648,-1.1924073,4.2241341)" gradientUnits="userSpaceOnUse" xlink:href="#linearGradient3600-3-2-2"/><linearGradient id="linearGradient3928" x1="24" x2="24" y1="14.203" y2="35.721" gradientTransform="matrix(2.1170825,0,0,1.1675323,-10.354736,5.0319619)" gradientUnits="userSpaceOnUse" xlink:href="#linearGradient3211-8-8-9"/><linearGradient id="linearGradient3931" x1="25.132" x2="25.132" y1="15.285" y2="37.546" gradientTransform="matrix(2.0328317,0,0,1.1210596,-9.6861059,4.4713491)" gradientUnits="userSpaceOnUse" xlink:href="#linearGradient3600-3-2-2-6-8"/><linearGradient id="linearGradient3933" x1="-51.786" x2="-51.786" y1="41.798" y2="17.555" gradientTransform="matrix(1.6415049,0,0,1.0491448,111.08489,3.2219516)" gradientUnits="userSpaceOnUse" xlink:href="#linearGradient3104-9-7-3-9-6"/><linearGradient id="linearGradient3936" x1="24" x2="24" y1="14.203" y2="35.721" gradientTransform="matrix(2.9929997,0,0,0.11114027,-27.91011,12.19538)" gradientUnits="userSpaceOnUse" xlink:href="#linearGradient3211-8-8-0-0-9"/><linearGradient id="linearGradient3939" x1="25.132" x2="25.132" y1="15.285" y2="37.546" gradientTransform="matrix(2.6847692,0,0,0.1535966,-23.167729,10.810186)" gradientUnits="userSpaceOnUse" xlink:href="#linearGradient3600-3-2-2-6-5-8-7"/><linearGradient id="linearGradient3941" x1="-51.786" x2="-51.786" y1="41.798" y2="17.555" gradientTransform="matrix(2.1679425,0,0,0.14374353,136.33503,10.639005)" gradientUnits="userSpaceOnUse" xlink:href="#linearGradient3104-9-7-3-9-2-6-2"/><linearGradient id="linearGradient3968" x1="22.004" x2="22.004" y1="63.218" y2="25.647" gradientTransform="matrix(1.3394176,0,0,-1.9826305,-4.354333,130.86293)" gradientUnits="userSpaceOnUse" xlink:href="#linearGradient3104-5"/><linearGradient id="linearGradient3702-501-757-795"><stop id="stop3100" offset="0" stop-color="#181818" stop-opacity="0"/><stop id="stop3102" offset=".5" stop-color="#181818" stop-opacity="1"/><stop id="stop3104" offset="1" stop-color="#181818" stop-opacity="0"/></linearGradient><linearGradient id="linearGradient3688-464-309-604"><stop id="stop3094" offset="0" stop-color="#181818" stop-opacity="1"/><stop id="stop3096" offset="1" stop-color="#181818" stop-opacity="0"/></linearGradient><linearGradient id="linearGradient3688-166-749-654"><stop id="stop3088" offset="0" stop-color="#181818" stop-opacity="1"/><stop id="stop3090" offset="1" stop-color="#181818" stop-opacity="0"/></linearGradient><radialGradient id="radialGradient4172" cx="4.993" cy="43.5" r="2.5" fx="4.993" fy="43.5" gradientTransform="matrix(2.003784,0,0,1.4,27.98813,-17.4)" gradientUnits="userSpaceOnUse" xlink:href="#linearGradient3688-166-749-654"/><radialGradient id="radialGradient4174" cx="4.993" cy="43.5" r="2.5" fx="4.993" fy="43.5" gradientTransform="matrix(2.003784,0,0,1.4,-20.01187,-104.4)" gradientUnits="userSpaceOnUse" xlink:href="#linearGradient3688-464-309-604"/><linearGradient id="linearGradient4176" x1="25.058" x2="25.058" y1="47.028" y2="39.999" gradientUnits="userSpaceOnUse" xlink:href="#linearGradient3702-501-757-795"/><linearGradient id="linearGradient4180" x1="22.004" x2="22.004" y1="63.218" y2="25.647" gradientTransform="matrix(1.3394176,0,0,-1.9826305,6.833167,114.86293)" gradientUnits="userSpaceOnUse" xlink:href="#linearGradient3104-5"/><linearGradient id="linearGradient4185" x1="22.004" x2="22.004" y1="63.218" y2="25.647" gradientTransform="matrix(1.3394176,0,0,1.9826305,7.645667,-29.862932)" gradientUnits="userSpaceOnUse" xlink:href="#linearGradient3104-5"/><linearGradient id="linearGradient2867-449-88-871-390-598-476-591-434-148-57-177-8-3-3-6-4-8-8-8"><stop id="stop3750-1-0-7-6-6-1-3-9" offset="0" stop-color="#ffcd7d" stop-opacity="1"/><stop id="stop3752-3-7-4-0-32-8-923-0" offset=".262" stop-color="#fc8f36" stop-opacity="1"/><stop id="stop3754-1-8-5-2-7-6-7-1" offset=".705" stop-color="#e23a0e" stop-opacity="1"/><stop id="stop3756-1-6-2-6-6-1-96-6" offset="1" stop-color="#ac441f" stop-opacity="1"/></linearGradient><radialGradient id="radialGradient4173-5" cx="6.73" cy="9.957" r="12.672" fx="6.2" fy="9.957" gradientTransform="matrix(0,10.228133,-12.55688,0,151.01469,-75.173359)" gradientUnits="userSpaceOnUse" xlink:href="#linearGradient2867-449-88-871-390-598-476-591-434-148-57-177-8-3-3-6-4-8-8-8-2-8"/><linearGradient id="linearGradient2867-449-88-871-390-598-476-591-434-148-57-177-8-3-3-6-4-8-8-8-2-8"><stop id="stop3750-1-0-7-6-6-1-3-9-9-0" offset="0" stop-color="#ffcd7d" stop-opacity="1"/><stop id="stop3752-3-7-4-0-32-8-923-0-7-8" offset=".262" stop-color="#fc8f36" stop-opacity="1"/><stop id="stop3754-1-8-5-2-7-6-7-1-8-0" offset=".705" stop-color="#e23a0e" stop-opacity="1"/><stop id="stop3756-1-6-2-6-6-1-96-6-1-1" offset="1" stop-color="#ac441f" stop-opacity="1"/></linearGradient><linearGradient id="linearGradient3076-9" x1="24" x2="24" y1="5.947" y2="41.755" gradientTransform="matrix(0.89189189,0,0,1.054054,-0.40540014,13.702713)" gradientUnits="userSpaceOnUse" xlink:href="#linearGradient4356-5"/><linearGradient id="linearGradient4356-5"><stop id="stop4358-6" offset="0" stop-color="#fff" stop-opacity="1"/><stop id="stop4360-9" offset=".01" stop-color="#fff" stop-opacity=".235"/><stop id="stop4362-4" offset=".983" stop-color="#fff" stop-opacity=".157"/><stop id="stop4364-6" offset="1" stop-color="#fff" stop-opacity=".392"/></linearGradient><linearGradient id="linearGradient3104-6-6-1"><stop id="stop3106-3-2" offset="0" stop-color="#000" stop-opacity=".318"/><stop id="stop3108-9-8-3" offset="1" stop-color="#000" stop-opacity=".24"/></linearGradient><linearGradient id="linearGradient4420" x1="-51.786" x2="-51.786" y1="50.786" y2="2.906" gradientTransform="matrix(1.3150653,0,0,0.83371382,89.668048,15.259733)" gradientUnits="userSpaceOnUse" xlink:href="#linearGradient3104-6-6-1"/><radialGradient id="radialGradient3029" cx="6.563" cy="9.957" r="12.672" fx="6.033" fy="9.957" gradientTransform="matrix(0,10.035098,-12.319893,0,154.65609,-83.287144)" gradientUnits="userSpaceOnUse" xlink:href="#linearGradient2867-449-88-871-390-598-476-591-434-148-57-177-8-3-3-6-4-8-8-8"/><radialGradient id="radialGradient4232" cx="6.563" cy="9.957" r="12.672" fx="6.033" fy="9.957" gradientTransform="matrix(0,10.035098,-12.319893,0,154.65609,-83.316052)" gradientUnits="userSpaceOnUse" xlink:href="#linearGradient2867-449-88-871-390-598-476-591-434-148-57-177-8-3-3-6-4-8-8-8"/><radialGradient id="radialGradient4234" cx="6.563" cy="9.957" r="12.672" fx="6.033" fy="9.957" gradientTransform="matrix(0,10.035098,-12.319893,0,154.65609,-83.316805)" gradientUnits="userSpaceOnUse" xlink:href="#linearGradient2867-449-88-871-390-598-476-591-434-148-57-177-8-3-3-6-4-8-8-8"/><radialGradient id="radialGradient3481" cx="7" cy="39.465" r="3.5" fx="7" fy="39.465" gradientTransform="matrix(0,-1.000001,0.83127159,0,-28.805972,45.50001)" gradientUnits="userSpaceOnUse" xlink:href="#linearGradient3688-464-309-604"/><radialGradient id="radialGradient3483" cx="7" cy="39.465" r="3.5" fx="7" fy="39.465" gradientTransform="matrix(0,-1.000001,1.142856,0,-89.10259,-31.49999)" gradientUnits="userSpaceOnUse" xlink:href="#linearGradient3688-464-309-604"/><linearGradient id="linearGradient3485" x1="18.142" x2="18.142" y1="35" y2="42.041" gradientUnits="userSpaceOnUse" xlink:href="#linearGradient22140"/><linearGradient id="linearGradient22140"><stop id="stop22142" offset="0" stop-color="#000" stop-opacity="0"/><stop id="stop22148" offset=".5" stop-color="#000" stop-opacity="1"/><stop id="stop22144" offset="1" stop-color="#000" stop-opacity="0"/></linearGradient><linearGradient id="linearGradient3487" x1="30.739" x2="45.903" y1="35.285" y2="50.736" gradientTransform="matrix(0,2.7038931,-2.6535314,0,156.6307,-61.11597)" gradientUnits="userSpaceOnUse" xlink:href="#linearGradient3412"/><linearGradient id="linearGradient3412"><stop id="stop3414" offset="0" stop-color="#f0f0f1" stop-opacity="1"/><stop id="stop3416" offset="1" stop-color="#cbcdd9" stop-opacity="1"/></linearGradient><linearGradient id="linearGradient3489" x1="75.78" x2="75.78" y1="86" y2="127.036" gradientTransform="matrix(-1,0,0,1,120.00001,-63.99992)" gradientUnits="userSpaceOnUse" xlink:href="#linearGradient3211-8-8-0-0-9"/></defs><metadata id="metadata4959"/><g id="g3712" opacity=".15" transform="matrix(1.6842106,0,0,0.7142857,-8.4210536,28.428572)"><rect id="rect2801" width="5" height="7" x="38" y="40" fill="url(#radialGradient4172)" fill-opacity="1" stroke="none"/><rect id="rect3696" width="5" height="7" x="-10" y="-47" fill="url(#radialGradient4174)" fill-opacity="1" stroke="none" transform="scale(-1,-1)"/><rect id="rect3700" width="28" height="7" x="10" y="40" fill="url(#linearGradient4176)" fill-opacity="1" stroke="none"/></g><path id="rect4964-4-4" fill="url(#linearGradient3939)" fill-opacity="1" fill-rule="nonzero" stroke="url(#linearGradient3941)" stroke-dashoffset="0" stroke-linecap="butt" stroke-linejoin="round" stroke-miterlimit="4" stroke-opacity="1" stroke-width="1" d="m 14.499961,12.499961 35.000079,0 0,4.000078 -35.000079,0 z" color="#000" display="inline" enable-background="accumulate" opacity=".5" overflow="visible" visibility="visible" style="marker:none"/><path id="rect4964-1-6-5" fill="none" stroke="url(#linearGradient3936)" stroke-dashoffset="0" stroke-linecap="butt" stroke-linejoin="round" stroke-miterlimit="4" stroke-opacity="1" stroke-width="1" d="m 15.499961,13.499999 33.000078,0 0,2.50004 -33.000078,0 z" color="#000" display="inline" enable-background="accumulate" opacity=".3" overflow="visible" visibility="visible" style="marker:none"/><path id="rect4964-4" fill="url(#linearGradient3931)" fill-opacity="1" fill-rule="nonzero" stroke="url(#linearGradient3933)" stroke-dashoffset="0" stroke-linecap="butt" stroke-linejoin="round" stroke-miterlimit="4" stroke-opacity="1" stroke-width="1" d="M 8.499961,15.499961 55.50004,15.5 l 0,30 L 8.5,45.5 Z" color="#000" display="inline" enable-background="accumulate" opacity=".75" overflow="visible" visibility="visible" style="marker:none"/><path id="rect4964-1-6" fill="none" stroke="url(#linearGradient3928)" stroke-dashoffset="0" stroke-linecap="butt" stroke-linejoin="round" stroke-miterlimit="4" stroke-opacity="1" stroke-width="1" d="M 9.4999609,16.499965 54.500041,16.5 54.5,44.5 l -45,0 z" color="#000" display="inline" enable-background="accumulate" opacity=".45" overflow="visible" visibility="visible" style="marker:none"/><rect id="rect4964" width="51" height="40" x="9" y="19" fill="url(#linearGradient3917)" fill-opacity="1" fill-rule="nonzero" stroke="none" stroke-width="1" color="#000" display="inline" enable-background="accumulate" overflow="visible" visibility="visible" style="marker:none"/><rect id="rect4964-1" width="55" height="39" x="4.5" y="19.5" fill="none" stroke="url(#linearGradient3076-9)" stroke-dasharray="none" stroke-dashoffset="0" stroke-linecap="square" stroke-linejoin="round" stroke-miterlimit="4" stroke-opacity="1" stroke-width="1" color="#000" display="inline" enable-background="accumulate" opacity="1" overflow="visible" visibility="visible" style="marker:none"/><path id="path4530" fill="url(#radialGradient4173-5)" fill-opacity="1" fill-rule="nonzero" stroke="none" stroke-width="1" d="m 9,59.5 -5.5,0 c 0,-13.126119 0,-39.735582 0,-41 1.2542902,0 3.9373045,-3e-6 5.5,-3e-6" color="#000" display="inline" enable-background="accumulate" overflow="visible" visibility="visible" style="marker:none"/><path id="rect6741-1-5" fill="none" stroke="url(#linearGradient3076)" stroke-dasharray="none" stroke-dashoffset="0" stroke-linecap="square" stroke-linejoin="round" stroke-miterlimit="4" stroke-opacity="1" stroke-width="1" d="m 8.5,58.499998 -4,0 0,-38.999999 4,0" opacity=".5"/><path id="path4530-3" fill="none" stroke="#640000" stroke-dasharray="none" stroke-dashoffset="0" stroke-linecap="butt" stroke-linejoin="round" stroke-miterlimit="4" stroke-opacity="1" stroke-width="1" d="m 9,59.5 -5.5,0 c 0,-1.5 0.00828,-27.437181 0,-41 l 5.5,-3e-6" color="#000" display="inline" enable-background="accumulate" opacity=".4" overflow="visible" visibility="visible" style="marker:none"/><path id="path4160-6-1" fill="none" stroke="url(#linearGradient4420)" stroke-dasharray="none" stroke-dashoffset="0" stroke-linecap="butt" stroke-linejoin="round" stroke-miterlimit="4" stroke-opacity="1" stroke-width="1" d="m 9,59.5 51.5,0 0,-41 -51.5,0" display="inline"/><path id="path3475-4" fill="url(#linearGradient3091)" fill-opacity="1" stroke="none" stroke-width="1" d="m 14,44.999999 0,-1 2,0 0,1 z m 3,0 0,-1 6,0 0,1 z m -3,-4 0,-1 3,0 0,1 z m 4,0 0,-1 2,0 0,1 z m 3,0 0,-1 1,0 0,1 z m 2,0 0,-1 1,0 0,1 z m -9,-4 0,-1 3,0 0,1 z m 4,0 0,-1 1,0 0,1 z m 2,0 0,-1 4,0 0,1 z m -6,-4 0,-1 3,0 0,1 z m 4,0 0,-1 2,0 0,1 z m 3,0 0,-1 4,0 0,1 z" baseline-shift="baseline" color="#000" direction="ltr" display="inline" enable-background="accumulate" font-family="Sans" font-size="medium" font-stretch="normal" font-style="normal" font-variant="normal" font-weight="normal" letter-spacing="normal" overflow="visible" text-anchor="start" text-decoration="none" visibility="visible" word-spacing="normal" writing-mode="lr-tb" style="line-height:normal;-inkscape-font-specification:Sans;text-indent:0;text-align:start;text-decoration-line:none;text-transform:none;block-progression:tb;marker:none"/><path font-stretch="normal" style="line-height:normal;-inkscape-font-specification:Sans;text-indent:0;text-align:start;text-decoration-line:none;text-transform:none;block-progression:tb;marker:none" id="path3925" fill="#000" fill-opacity="1" stroke="none" stroke-width="1" d="m 37,23 0,1 0.984375,-1e-6 0,-1 z m 1.640625,-1e-6 0,1 2.640625,0 0,-1 z m 3.359375,0 0,1 3,1e-6 0,-1 z m -19.75,0 0,1 5.734375,0 0,-1 z m 6.390625,0 0,1 2.640625,0 0,-1 z m 3.359375,0 0,1 3.75,0 0,-1 z" baseline-shift="baseline" color="#000" direction="ltr" display="inline" enable-background="accumulate" font-family="Sans" font-size="medium" font-style="normal" font-variant="normal" font-weight="normal" letter-spacing="normal" opacity=".28" overflow="visible" text-anchor="start" text-decoration="none" visibility="visible" word-spacing="normal" writing-mode="lr-tb"/><path id="path3966" fill="url(#linearGradient3968)" fill-opacity="1" stroke="none" stroke-width="1" d="m 14,52.999999 0,-1 3,0 0,1 z m 4,0 0,-1 1,0 0,1 z m 2,0 0,-1 4,0 0,1 z m -6,-4 0,-1 3,0 0,1 z m 4,0 0,-1 2,0 0,1 z m 3,0 0,-1 3,0 0,1 z" baseline-shift="baseline" color="#000" direction="ltr" display="inline" enable-background="accumulate" font-family="Sans" font-size="medium" font-stretch="normal" font-style="normal" font-variant="normal" font-weight="normal" letter-spacing="normal" overflow="visible" text-anchor="start" text-decoration="none" visibility="visible" word-spacing="normal" writing-mode="lr-tb" style="line-height:normal;-inkscape-font-specification:Sans;text-indent:0;text-align:start;text-decoration-line:none;text-transform:none;block-progression:tb;marker:none"/><path id="path4178" fill="url(#linearGradient4180)" fill-opacity="1" stroke="none" stroke-width="1" d="m 25,45 0,-1 2,0 0,1 z m 0,-4 0,-1 3,0 0,1 z m 0,-4 0,-1 2,0 0,1 z m 1,-4 0,-1 2,0 0,1 z" baseline-shift="baseline" color="#000" direction="ltr" display="inline" enable-background="accumulate" font-family="Sans" font-size="medium" font-stretch="normal" font-style="normal" font-variant="normal" font-weight="normal" letter-spacing="normal" overflow="visible" text-anchor="start" text-decoration="none" visibility="visible" word-spacing="normal" writing-mode="lr-tb" style="line-height:normal;-inkscape-font-specification:Sans;text-indent:0;text-align:start;text-decoration-line:none;text-transform:none;block-progression:tb;marker:none"/><path id="path4183" fill="url(#linearGradient4185)" fill-opacity="1" stroke="none" stroke-width="1" d="m 25,48 0,1 3,0 0,-1 z m 4,0 0,1 2,0 0,-1 z m -4,4 0,1 3,0 0,-1 z m 4,0 0,1 2,0 0,-1 z m 3,0 0,1 3,0 0,-1 z" baseline-shift="baseline" color="#000" direction="ltr" display="inline" enable-background="accumulate" font-family="Sans" font-size="medium" font-stretch="normal" font-style="normal" font-variant="normal" font-weight="normal" letter-spacing="normal" overflow="visible" text-anchor="start" text-decoration="none" visibility="visible" word-spacing="normal" writing-mode="lr-tb" style="line-height:normal;-inkscape-font-specification:Sans;text-indent:0;text-align:start;text-decoration-line:none;text-transform:none;block-progression:tb;marker:none"/><path id="path3035-5" fill="#fff" fill-opacity="1" fill-rule="nonzero" stroke="none" stroke-width=".55" d="m 55,42.999998 a 10,10 0 1 1 -5.289881,-8.821267 l -4.710118,8.821267 z" color="#000" display="inline" enable-background="accumulate" opacity=".4" overflow="visible" visibility="visible" style="marker:none"/><path clip-rule="nonzero" style="isolation:auto;mix-blend-mode:normal;solid-color:#000;solid-opacity:1;marker:none" id="path3035" fill="url(#radialGradient4232)" fill-opacity="1" fill-rule="nonzero" stroke="none" stroke-dasharray="none" stroke-dashoffset="0" stroke-linecap="butt" stroke-linejoin="miter" stroke-miterlimit="4" stroke-opacity="1" stroke-width="1" d="m 55,41.999998 a 10,10 0 1 1 -5.289881,-8.821267 l -4.710118,8.821267 z" color="#000" color-interpolation="sRGB" color-interpolation-filters="linearRGB" color-rendering="auto" display="inline" enable-background="accumulate" image-rendering="auto" opacity=".4" overflow="visible" shape-rendering="auto" text-rendering="auto" visibility="visible"/><path id="path3964" fill="url(#radialGradient3029)" fill-opacity="1" fill-rule="nonzero" stroke="none" stroke-dasharray="none" stroke-dashoffset="0" stroke-linecap="butt" stroke-linejoin="miter" stroke-miterlimit="4" stroke-opacity="1" stroke-width="1" d="m 55,42.028906 c 10e-7,4.335689 -3.153395,8.480681 -7.331593,9.637301 -4.178198,1.15662 -9.013426,-0.776912 -11.243199,-4.495223 -0.01769,0.01604 8.574793,-5.142078 8.574793,-5.142078 z" clip-rule="nonzero" color="#000" color-interpolation="sRGB" color-interpolation-filters="linearRGB" color-rendering="auto" display="inline" enable-background="accumulate" image-rendering="auto" opacity=".4" overflow="visible" shape-rendering="auto" text-rendering="auto" visibility="visible" style="isolation:auto;mix-blend-mode:normal;solid-color:#000;solid-opacity:1;marker:none"/><path id="path3962" fill="url(#radialGradient4234)" fill-opacity="1" fill-rule="nonzero" stroke="none" stroke-dasharray="none" stroke-dashoffset="0" stroke-linecap="butt" stroke-linejoin="miter" stroke-miterlimit="4" stroke-opacity="1" stroke-width="1" d="m 55,41.999245 c 10e-7,4.335689 -3.153395,8.480681 -7.331593,9.637301 -0.09762,-0.01695 -2.668406,-9.637301 -2.668406,-9.637301 z" clip-rule="nonzero" color="#000" color-interpolation="sRGB" color-interpolation-filters="linearRGB" color-rendering="auto" display="inline" enable-background="accumulate" image-rendering="auto" opacity=".8" overflow="visible" shape-rendering="auto" text-rendering="auto" visibility="visible" style="isolation:auto;mix-blend-mode:normal;solid-color:#000;solid-opacity:1;marker:none"/><g id="g4309" transform="translate(-3.4802179e-4,-4e-6)"><g id="g22150" opacity=".3" transform="matrix(-0.916667,0,0,0.714282,65.000016,34.00016)"><rect id="rect22120" width="2.909" height="7" x="1.091" y="35" fill="url(#radialGradient3481)" fill-opacity="1" stroke="none"/><rect id="rect22134" width="4" height="7" x="-48" y="-42" fill="url(#radialGradient3483)" fill-opacity="1" stroke="none" transform="scale(-1,-1)"/><rect id="rect22138" width="40" height="7" x="4" y="35" fill="url(#linearGradient3485)" fill-opacity="1" stroke="none"/></g><path id="path2993" fill="url(#linearGradient3487)" fill-opacity="1" fill-rule="evenodd" stroke="#83899a" stroke-dasharray="none" stroke-dashoffset="0" stroke-linecap="butt" stroke-linejoin="miter" stroke-miterlimit="4" stroke-opacity="1" stroke-width="1" d="m 62.500018,22.50006 -39.999999,40 39.999999,0 0,-40 z m -7.999996,18.6666 0,13.3334 -13.500006,0 13.500006,-13.3334 z" display="inline" enable-background="accumulate" opacity=".8" overflow="visible" visibility="visible" style="marker:none"/><g id="g4259" transform="translate(-13.217778,-983.36214)"><path id="path3101" fill="none" stroke="#fff" stroke-linecap="round" stroke-linejoin="miter" stroke-opacity="1" stroke-width="1" d="m 70.717794,1044.8622 0,-1" opacity=".3"/><path id="path3103" fill="none" stroke="#fff" stroke-linecap="round" stroke-linejoin="miter" stroke-opacity="1" stroke-width="1" d="m 64.717794,1044.8622 0,-1" opacity=".3"/><path id="path3105" fill="none" stroke="#fff" stroke-linecap="round" stroke-linejoin="miter" stroke-opacity="1" stroke-width="1" d="m 58.717794,1044.8622 0,-0.9881" opacity=".3"/><path id="path3107" fill="none" stroke="#fff" stroke-linecap="round" stroke-linejoin="miter" stroke-opacity="1" stroke-width="1" d="m 52.717794,1044.8622 0,-1" opacity=".3"/><path id="path3109" fill="none" stroke="#fff" stroke-linecap="round" stroke-linejoin="miter" stroke-opacity="1" stroke-width="1" d="m 46.717794,1044.8622 0,-1" opacity=".3"/><path id="path3091" fill="none" stroke="#83899a" stroke-linecap="round" stroke-linejoin="miter" stroke-opacity="1" stroke-width="1" d="m 69.717794,1045.8622 0,-2 m -6,2 0,-2 m -6,2 0,-1.9762 m -6,1.9762 0,-2 m -6,2 0,-2" opacity=".75"/></g><path id="path3934" fill="none" stroke="url(#linearGradient3489)" stroke-dasharray="none" stroke-dashoffset="0" stroke-linecap="butt" stroke-linejoin="miter" stroke-miterlimit="4" stroke-opacity="1" stroke-width="1" d="m 61.500016,24.93756 c 0,0 0,36.5625 0,36.5625 0,0 -36.5625,0 -36.5625,0 0,0 36.5625,-36.5625 36.5625,-36.5625 z m -6,13.5625 c 0,0 -17,17 -17,17 0,0 17,0 17,0 0,0 0,-17 0,-17 z" display="inline" enable-background="accumulate" opacity=".5" overflow="visible" visibility="visible" style="marker:none"/><path id="path4269" fill="none" stroke="#fff" stroke-linecap="round" stroke-linejoin="miter" stroke-opacity="1" stroke-width="1" d="m 61.50002,33.49995 -1,0" opacity=".3"/><path id="path4271" fill="none" stroke="#fff" stroke-linecap="round" stroke-linejoin="miter" stroke-opacity="1" stroke-width="1" d="m 61.50002,39.49995 -1,0" opacity=".3"/><path id="path4273" fill="none" stroke="#fff" stroke-linecap="round" stroke-linejoin="miter" stroke-opacity="1" stroke-width="1" d="m 61.49402,45.49995 -0.9881,0" opacity=".3"/><path id="path4275" fill="none" stroke="#fff" stroke-linecap="round" stroke-linejoin="miter" stroke-opacity="1" stroke-width="1" d="m 61.50002,51.49995 -1,0" opacity=".3"/><path id="path4277" fill="none" stroke="#fff" stroke-linecap="round" stroke-linejoin="miter" stroke-opacity="1" stroke-width="1" d="m 61.50002,57.49995 -1,0" opacity=".3"/><path id="path4279" fill="none" stroke="#83899a" stroke-linecap="round" stroke-linejoin="miter" stroke-opacity="1" stroke-width="1" d="m 62.50002,32.5 -2.0119,0 m 2.0119,6 -2.0119,0 m 2.0119,6 -1.9881,0 m 1.9881,6 -2.0119,0 m 2.0119,6 -2.0119,0" opacity=".75"/></g></svg>