<svg xmlns="http://www.w3.org/2000/svg" xmlns:svg="http://www.w3.org/2000/svg" xmlns:xlink="http://www.w3.org/1999/xlink" id="svg3828" width="24" height="24" version="1.1"><defs id="defs3830"><linearGradient id="linearGradient3977"><stop id="stop3979" offset="0" stop-color="#fff" stop-opacity="1"/><stop id="stop3981" offset="0" stop-color="#fff" stop-opacity=".235"/><stop id="stop3983" offset="1" stop-color="#fff" stop-opacity=".157"/><stop id="stop3985" offset="1" stop-color="#fff" stop-opacity=".392"/></linearGradient><linearGradient id="linearGradient3600-4"><stop id="stop3602-7" offset="0" stop-color="#f4f4f4" stop-opacity="1"/><stop id="stop3604-6" offset="1" stop-color="#dbdbdb" stop-opacity="1"/></linearGradient><linearGradient id="linearGradient5060"><stop id="stop5062" offset="0" stop-color="#000" stop-opacity="1"/><stop id="stop5064" offset="1" stop-color="#000" stop-opacity="0"/></linearGradient><linearGradient id="linearGradient5048"><stop id="stop5050" offset="0" stop-color="#000" stop-opacity="0"/><stop id="stop5056" offset=".5" stop-color="#000" stop-opacity="1"/><stop id="stop5052" offset="1" stop-color="#000" stop-opacity="0"/></linearGradient><linearGradient id="linearGradient3013" x1="24" x2="24" y1="6.474" y2="41.526" gradientTransform="matrix(0.40540511,0,0,0.51351351,2.2696871,-0.3243195)" gradientUnits="userSpaceOnUse" xlink:href="#linearGradient3977"/><linearGradient id="linearGradient3016" x1="25.132" x2="25.132" y1=".985" y2="47.013" gradientTransform="matrix(0.45714178,0,0,0.43456667,1.0285964,0.90372283)" gradientUnits="userSpaceOnUse" xlink:href="#linearGradient3600-4"/><radialGradient id="radialGradient3021" cx="605.714" cy="486.648" r="117.143" fx="605.714" fy="486.648" gradientTransform="matrix(0.01204859,0,0,0.0082353,13.238793,18.980564)" gradientUnits="userSpaceOnUse" xlink:href="#linearGradient5060"/><radialGradient id="radialGradient3024" cx="605.714" cy="486.648" r="117.143" fx="605.714" fy="486.648" gradientTransform="matrix(-0.01204859,0,0,0.0082353,10.761206,18.980564)" gradientUnits="userSpaceOnUse" xlink:href="#linearGradient5060"/><linearGradient id="linearGradient3027" x1="302.857" x2="302.857" y1="366.648" y2="609.505" gradientTransform="matrix(0.0352071,0,0,0.0082353,-0.724852,18.980547)" gradientUnits="userSpaceOnUse" xlink:href="#linearGradient5048"/><linearGradient id="linearGradient3138" x1="71.204" x2="71.204" y1="6.238" y2="44.341" gradientTransform="matrix(0.29729729,0,0,0.29729732,-9.3261785,4.4613607)" gradientUnits="userSpaceOnUse" xlink:href="#linearGradient4011"/><linearGradient id="linearGradient4011"><stop id="stop4013" offset="0" stop-color="#fff" stop-opacity="1"/><stop id="stop4015" offset=".508" stop-color="#fff" stop-opacity=".235"/><stop id="stop4017" offset=".835" stop-color="#fff" stop-opacity=".157"/><stop id="stop4019" offset="1" stop-color="#fff" stop-opacity=".392"/></linearGradient><linearGradient id="linearGradient3141" x1="18.776" x2="18.203" y1="4.038" y2="45.962" gradientTransform="matrix(0.15153326,0,0,-0.15153317,8.3106187,15.78833)" gradientUnits="userSpaceOnUse" xlink:href="#linearGradient6036"/><linearGradient id="linearGradient6036"><stop id="stop6038" offset="0" stop-color="#fff" stop-opacity="1"/><stop id="stop6040" offset="1" stop-color="#fff" stop-opacity="0"/></linearGradient><linearGradient id="linearGradient3301" x1="20.58" x2="24.274" y1="10.775" y2="9.862" gradientUnits="userSpaceOnUse" spreadMethod="reflect" xlink:href="#linearGradient3487"/><linearGradient id="linearGradient3487"><stop id="stop3489" offset="0" stop-color="#e6cde2" stop-opacity="1"/><stop id="stop3491" offset="1" stop-color="#e6cde2" stop-opacity="0"/></linearGradient><linearGradient id="linearGradient3303" x1="17.495" x2="21.047" y1="11.2" y2="9.796" gradientUnits="userSpaceOnUse" spreadMethod="reflect" xlink:href="#linearGradient3495"/><linearGradient id="linearGradient3495"><stop id="stop3497" offset="0" stop-color="#c1cbe4" stop-opacity="1"/><stop id="stop3499" offset="1" stop-color="#c1cbe4" stop-opacity="0"/></linearGradient><linearGradient id="linearGradient3305" x1="14.085" x2="16.994" y1="13.046" y2="10.732" gradientUnits="userSpaceOnUse" spreadMethod="reflect" xlink:href="#linearGradient3503"/><linearGradient id="linearGradient3503"><stop id="stop3505" offset="0" stop-color="#c4ebdd" stop-opacity="1"/><stop id="stop3507" offset="1" stop-color="#c4ebdd" stop-opacity="0"/></linearGradient><linearGradient id="linearGradient3307" x1="12.372" x2="14.609" y1="16.188" y2="13.462" gradientUnits="userSpaceOnUse" spreadMethod="reflect" xlink:href="#linearGradient3511"/><linearGradient id="linearGradient3511"><stop id="stop3513" offset="0" stop-color="#ebeec7" stop-opacity="1"/><stop id="stop3515" offset="1" stop-color="#ebeec7" stop-opacity="0"/></linearGradient><linearGradient id="linearGradient3309" x1="10.609" x2="9.73" y1="17.886" y2="20.613" gradientUnits="userSpaceOnUse" spreadMethod="reflect" xlink:href="#linearGradient3519"/><linearGradient id="linearGradient3519"><stop id="stop3521" offset="0" stop-color="#fcd9cd" stop-opacity="1"/><stop id="stop3523" offset="1" stop-color="#fcd9cd" stop-opacity="0"/></linearGradient><linearGradient id="linearGradient3156" x1="12.274" x2="35.391" y1="32.416" y2="14.203" gradientTransform="matrix(0,0.37143313,-0.37143313,0,20.580107,3.0856035)" gradientUnits="userSpaceOnUse" xlink:href="#linearGradient3263"/><linearGradient id="linearGradient3263" x1="12.274" x2="35.391" y1="32.416" y2="14.203" gradientUnits="userSpaceOnUse"><stop id="stop3265" offset="0" stop-color="#dedbde" stop-opacity="1"/><stop id="stop3267" offset=".5" stop-color="#e6e6e6" stop-opacity="1"/><stop id="stop3269" offset="1" stop-color="#d2d2d2" stop-opacity="1"/></linearGradient><linearGradient id="linearGradient3158" x1="-21.916" x2="-21.916" y1="3" y2="45.033" gradientTransform="matrix(0.31707422,0,0,0.31707422,20.327975,4.3902182)" gradientUnits="userSpaceOnUse" xlink:href="#linearGradient3772"/><linearGradient id="linearGradient3772"><stop id="stop3774" offset="0" stop-color="#b4b4b4" stop-opacity="1"/><stop id="stop3776" offset="1" stop-color="#969696" stop-opacity="1"/></linearGradient><linearGradient id="linearGradient4291" x1="20.58" x2="24.274" y1="10.775" y2="9.862" gradientUnits="userSpaceOnUse" spreadMethod="reflect" xlink:href="#linearGradient3487"/><linearGradient id="linearGradient4293" x1="17.495" x2="21.047" y1="11.2" y2="9.796" gradientUnits="userSpaceOnUse" spreadMethod="reflect" xlink:href="#linearGradient3495"/><linearGradient id="linearGradient4295" x1="14.085" x2="16.994" y1="13.046" y2="10.732" gradientUnits="userSpaceOnUse" spreadMethod="reflect" xlink:href="#linearGradient3503"/><linearGradient id="linearGradient4297" x1="12.372" x2="14.609" y1="16.188" y2="13.462" gradientUnits="userSpaceOnUse" spreadMethod="reflect" xlink:href="#linearGradient3511"/><linearGradient id="linearGradient4299" x1="10.609" x2="9.73" y1="17.886" y2="20.613" gradientUnits="userSpaceOnUse" spreadMethod="reflect" xlink:href="#linearGradient3519"/></defs><metadata id="metadata3833"/><rect id="rect2879" width="17" height="2" x="3.5" y="22" fill="url(#linearGradient3027)" fill-opacity="1" fill-rule="nonzero" stroke="none" stroke-width="1" display="inline" opacity=".15" overflow="visible" visibility="visible" style="marker:none"/><path id="path2881" fill="url(#radialGradient3024)" fill-opacity="1" fill-rule="nonzero" stroke="none" stroke-width="1" d="m 3.4999999,22.000085 c 0,0 0,1.999891 0,1.999891 C 2.8795275,24.003776 2,23.551901 2,22.999901 2,22.447902 2.6924,22.000085 3.4999999,22.000085 z" display="inline" opacity=".15" overflow="visible" visibility="visible" style="marker:none"/><path id="path2883" fill="url(#radialGradient3021)" fill-opacity="1" fill-rule="nonzero" stroke="none" stroke-width="1" d="m 20.5,22.000085 c 0,0 0,1.999891 0,1.999891 0.620472,0.0038 1.5,-0.448075 1.5,-1.000075 0,-0.551999 -0.692402,-0.999816 -1.5,-0.999816 z" display="inline" opacity=".15" overflow="visible" visibility="visible" style="marker:none"/><path id="path4160-3" fill="url(#linearGradient3016)" fill-opacity="1" stroke="none" d="m 4,2 c 3.6664118,0 15.99998,0.0013 15.99998,0.0013 L 20,22 C 20,22 9.3333337,22 4,22 4,15.33334 4,8.6666817 4,2.0000212 Z" display="inline"/><path id="rect6741-1" fill="none" stroke="url(#linearGradient3013)" stroke-dasharray="none" stroke-dashoffset="0" stroke-linecap="round" stroke-linejoin="miter" stroke-miterlimit="4" stroke-opacity="1" stroke-width="1" d="m 19.5,21.5 -15.0000004,0 0,-19 L 19.5,2.5 z"/><path id="path4160-3-1" fill="none" stroke="#000" stroke-dasharray="none" stroke-dashoffset="0" stroke-linecap="butt" stroke-linejoin="round" stroke-miterlimit="4" stroke-opacity="1" stroke-width="1" d="m 3.4999601,1.4999569 c 3.8955809,0 17.0000589,0.00136 17.0000589,0.00136 l 2.1e-5,20.9987161 c 0,0 -11.3333862,0 -17.0000799,0 0,-7.000018 0,-14.000035 0,-21.0000538 z" display="inline" opacity=".3"/><path id="path2781" fill="url(#linearGradient3156)" fill-rule="nonzero" stroke="url(#linearGradient3158)" stroke-miterlimit="4" stroke-opacity="1" stroke-width="1" d="m 18.500024,12 c 0,-3.6029022 -2.897121,-6.5000221 -6.500025,-6.5000221 -3.6029022,0 -6.5000216,2.8971202 -6.5000216,6.5000221 -7e-7,3.602902 2.8971197,6.500022 6.5000216,6.500022 3.602903,-1e-6 6.500025,-2.89712 6.500025,-6.500022 z m -4.33335,0 c 0,1.121422 -0.86139,2.166674 -2.166675,2.166674 -1.305284,0 -2.1666732,-1.132311 -2.1666732,-2.166674 0,-1.063419 0.8969942,-2.1666741 2.1666732,-2.1666741 1.298717,0 2.166675,1.0448751 2.166675,2.1666741 z"/><g id="g3527" transform="matrix(0.29097525,0,0,0.29097525,4.9180092,4.7269384)"><path id="path3296" fill="url(#linearGradient4291)" fill-opacity="1" fill-rule="nonzero" stroke="none" d="M 15.856928,5.7307748 20.625,16.34375 C 21.660403,15.885186 22.795334,15.625 24,15.625 c 0.03206,0 0.06178,-3.6e-4 0.09375,0 L 24.10801,4.0047512 c -2.94215,-0.070687 -5.543041,0.6572865 -8.251083,1.7260236 l 10e-7,0 z" opacity=".8" transform="matrix(0.9996011,0.02824295,-0.02824295,0.9996011,0.6924114,-0.6708346)"/><path id="path3308" fill="url(#linearGradient4293)" fill-opacity="1" fill-rule="nonzero" stroke="none" d="m 12.121471,7.9060109 6.931026,9.3601041 c 0.913109,-0.669755 1.965938,-1.167064 3.142629,-1.425169 0.03132,-0.0069 0.06026,-0.01359 0.09157,-0.02009 L 19.857174,4.426276 c -2.888973,0.5613244 -5.31953,1.8556038 -7.735703,3.4797349 l 0,0 z" opacity=".8"/><path id="path3310" fill="url(#linearGradient4295)" fill-opacity="1" fill-rule="nonzero" stroke="none" d="m 8.2523933,11.646535 9.2137237,7.155818 c 0.70865,-0.883264 1.596891,-1.636119 2.666685,-2.18998 0.02847,-0.01474 0.05469,-0.02872 0.08325,-0.0431 L 14.86585,6.2506132 C 12.220599,7.5405321 10.165881,9.452393 8.2523933,11.646535 Z" opacity=".8"/><path id="path3312" fill="url(#linearGradient4297)" fill-opacity="1" fill-rule="nonzero" stroke="none" d="m 5.6328855,16.073974 c 7.1748065,2.242248 7.8502625,7.031463 12.7767855,1.754127 L 10.499985,9.1321388 C 8.2787249,11.062747 6.9132871,13.459349 5.6328855,16.073974 Z" opacity=".8"/><path id="path3314" fill="url(#linearGradient4299)" fill-opacity="1" fill-rule="nonzero" stroke="none" d="M 7.155289,13.193173 C 5.9722117,14.945185 5.2475768,16.829547 4.6301929,18.837116 L 15.96875,21.8125 C 16.184264,21.049497 16.486796,20.297733 16.9375,19.59375 16.95479,19.56675 16.98246,19.52673 17,19.5 L 7.155289,13.193173 Z" opacity=".8"/></g><g id="g3297" transform="matrix(-0.30402469,0,0,-0.30402469,19.287752,19.322233)"><path id="path3299" fill="url(#linearGradient3301)" fill-opacity="1" fill-rule="nonzero" stroke="none" d="M 15.856928,5.7307748 20.625,16.34375 C 21.660403,15.885186 22.795334,15.625 24,15.625 c 0.03206,0 0.06178,-3.6e-4 0.09375,0 L 24.10801,4.0047512 c -2.94215,-0.070687 -5.543041,0.6572865 -8.251083,1.7260236 l 10e-7,0 z" opacity=".8" transform="matrix(0.9996011,0.02824295,-0.02824295,0.9996011,0.6924114,-0.6708346)"/><path id="path3301" fill="url(#linearGradient3303)" fill-opacity="1" fill-rule="nonzero" stroke="none" d="m 12.121471,7.9060109 6.931026,9.3601041 c 0.913109,-0.669755 1.965938,-1.167064 3.142629,-1.425169 0.03132,-0.0069 0.06026,-0.01359 0.09157,-0.02009 L 19.857174,4.426276 c -2.888973,0.5613244 -5.31953,1.8556038 -7.735703,3.4797349 l 0,0 z" opacity=".8"/><path id="path3303" fill="url(#linearGradient3305)" fill-opacity="1" fill-rule="nonzero" stroke="none" d="m 8.2523933,11.646535 9.2137237,7.155818 c 0.70865,-0.883264 1.596891,-1.636119 2.666685,-2.18998 0.02847,-0.01474 0.05469,-0.02872 0.08325,-0.0431 L 14.86585,6.2506132 C 12.220599,7.5405321 10.165881,9.452393 8.2523933,11.646535 Z" opacity=".8"/><path id="path3305" fill="url(#linearGradient3307)" fill-opacity="1" fill-rule="nonzero" stroke="none" d="m 5.6328855,16.073974 c 7.1748065,2.242248 7.8502625,7.031463 12.7767855,1.754127 L 10.499985,9.1321388 C 8.2787249,11.062747 6.9132871,13.459349 5.6328855,16.073974 Z" opacity=".8"/><path id="path3307" fill="url(#linearGradient3309)" fill-opacity="1" fill-rule="nonzero" stroke="none" d="M 7.155289,13.193173 C 5.9722117,14.945185 5.2475768,16.829547 4.6301929,18.837116 L 15.96875,21.8125 C 16.184264,21.049497 16.486796,20.297733 16.9375,19.59375 16.95479,19.56675 16.98246,19.52673 17,19.5 L 7.155289,13.193173 Z" opacity=".8"/></g><path id="path3281" fill="none" stroke="url(#linearGradient3141)" stroke-miterlimit="4" stroke-opacity="1" stroke-width="1" d="m 12,14.999999 c -1.662856,0 -2.9999999,-1.337143 -2.9999999,-3 0,-1.662857 1.3371439,-2.9999978 2.9999999,-2.9999978 1.662857,0 3.000001,1.3371408 3.000001,2.9999978 0,1.662857 -1.337144,3 -3.000001,3 l 0,0 0,0 0,0 z" opacity=".4"/><path id="path8655" fill="none" stroke="url(#linearGradient3138)" stroke-dasharray="none" stroke-dashoffset="0" stroke-linecap="round" stroke-linejoin="round" stroke-miterlimit="4" stroke-opacity="1" stroke-width="1" d="m 17.500001,11.999806 c 0,3.037664 -2.462614,5.500194 -5.499931,5.500194 -3.0375928,0 -5.5000699,-2.462559 -5.5000699,-5.500194 0,-3.0375242 2.4624771,-5.4998059 5.5000699,-5.4998059 3.037317,0 5.499931,2.4622817 5.499931,5.4998059 l 0,0 z" color="#000" display="inline" enable-background="accumulate" opacity=".55" overflow="visible" visibility="visible" style="marker:none"/></svg>