<svg xmlns="http://www.w3.org/2000/svg" xmlns:svg="http://www.w3.org/2000/svg" xmlns:xlink="http://www.w3.org/1999/xlink" id="svg3828" width="24" height="24" version="1.1"><defs id="defs3830"><linearGradient id="linearGradient3977"><stop id="stop3979" offset="0" stop-color="#fff" stop-opacity="1"/><stop id="stop3981" offset="0" stop-color="#fff" stop-opacity=".235"/><stop id="stop3983" offset="1" stop-color="#fff" stop-opacity=".157"/><stop id="stop3985" offset="1" stop-color="#fff" stop-opacity=".392"/></linearGradient><linearGradient id="linearGradient3600-4"><stop id="stop3602-7" offset="0" stop-color="#f4f4f4" stop-opacity="1"/><stop id="stop3604-6" offset="1" stop-color="#dbdbdb" stop-opacity="1"/></linearGradient><linearGradient id="linearGradient5060"><stop id="stop5062" offset="0" stop-color="#000" stop-opacity="1"/><stop id="stop5064" offset="1" stop-color="#000" stop-opacity="0"/></linearGradient><linearGradient id="linearGradient5048"><stop id="stop5050" offset="0" stop-color="#000" stop-opacity="0"/><stop id="stop5056" offset=".5" stop-color="#000" stop-opacity="1"/><stop id="stop5052" offset="1" stop-color="#000" stop-opacity="0"/></linearGradient><linearGradient id="linearGradient3013" x1="24" x2="24" y1="6.474" y2="41.526" gradientTransform="matrix(0.40540511,0,0,0.51351351,2.2696871,-0.3243195)" gradientUnits="userSpaceOnUse" xlink:href="#linearGradient3977"/><linearGradient id="linearGradient3016" x1="25.132" x2="25.132" y1=".985" y2="47.013" gradientTransform="matrix(0.45714178,0,0,0.43456667,1.0285964,0.90372283)" gradientUnits="userSpaceOnUse" xlink:href="#linearGradient3600-4"/><radialGradient id="radialGradient3021" cx="605.714" cy="486.648" r="117.143" fx="605.714" fy="486.648" gradientTransform="matrix(0.01204859,0,0,0.0082353,13.238793,18.980564)" gradientUnits="userSpaceOnUse" xlink:href="#linearGradient5060"/><radialGradient id="radialGradient3024" cx="605.714" cy="486.648" r="117.143" fx="605.714" fy="486.648" gradientTransform="matrix(-0.01204859,0,0,0.0082353,10.761206,18.980564)" gradientUnits="userSpaceOnUse" xlink:href="#linearGradient5060"/><linearGradient id="linearGradient3027" x1="302.857" x2="302.857" y1="366.648" y2="609.505" gradientTransform="matrix(0.0352071,0,0,0.0082353,-0.724852,18.980547)" gradientUnits="userSpaceOnUse" xlink:href="#linearGradient5048"/><radialGradient id="radialGradient3457" cx="17.348" cy="16.232" r="12.672" fx="17.348" fy="16.232" gradientTransform="matrix(0,4.9206162,-6.1869842,0,112.4336,-105.52025)" gradientUnits="userSpaceOnUse" xlink:href="#linearGradient4330"/><linearGradient id="linearGradient4330"><stop id="stop4332" offset="0" stop-color="#e4c6fa" stop-opacity="1"/><stop id="stop4334" offset=".262" stop-color="#cd9ef7" stop-opacity="1"/><stop id="stop4336" offset=".705" stop-color="#7239b3" stop-opacity="1"/><stop id="stop4338" offset="1" stop-color="#452981" stop-opacity="1"/></linearGradient></defs><metadata id="metadata3833"/><rect id="rect2879" width="17" height="2" x="3.5" y="22" fill="url(#linearGradient3027)" fill-opacity="1" fill-rule="nonzero" stroke="none" stroke-width="1" display="inline" opacity=".15" overflow="visible" visibility="visible" style="marker:none"/><path id="path2881" fill="url(#radialGradient3024)" fill-opacity="1" fill-rule="nonzero" stroke="none" stroke-width="1" d="m 3.4999999,22.000085 c 0,0 0,1.999891 0,1.999891 C 2.8795275,24.003776 2,23.551901 2,22.999901 2,22.447902 2.6924,22.000085 3.4999999,22.000085 z" display="inline" opacity=".15" overflow="visible" visibility="visible" style="marker:none"/><path id="path2883" fill="url(#radialGradient3021)" fill-opacity="1" fill-rule="nonzero" stroke="none" stroke-width="1" d="m 20.5,22.000085 c 0,0 0,1.999891 0,1.999891 0.620472,0.0038 1.5,-0.448075 1.5,-1.000075 0,-0.551999 -0.692402,-0.999816 -1.5,-0.999816 z" display="inline" opacity=".15" overflow="visible" visibility="visible" style="marker:none"/><path id="path4160-3" fill="url(#linearGradient3016)" fill-opacity="1" stroke="none" d="m 4,2 c 3.6664118,0 15.99998,0.0013 15.99998,0.0013 L 20,22 C 20,22 9.3333337,22 4,22 4,15.33334 4,8.6666817 4,2.0000212 Z" display="inline"/><path id="rect6741-1" fill="none" stroke="url(#linearGradient3013)" stroke-dasharray="none" stroke-dashoffset="0" stroke-linecap="round" stroke-linejoin="miter" stroke-miterlimit="4" stroke-opacity="1" stroke-width="1" d="m 19.5,21.5 -15.0000004,0 0,-19 L 19.5,2.5 z"/><path id="path4160-3-1" fill="none" stroke="#000" stroke-dasharray="none" stroke-dashoffset="0" stroke-linecap="butt" stroke-linejoin="round" stroke-miterlimit="4" stroke-opacity="1" stroke-width="1" d="m 3.4999601,1.4999569 c 3.8955809,0 17.0000589,0.00136 17.0000589,0.00136 l 2.1e-5,20.9987161 c 0,0 -11.3333862,0 -17.0000799,0 0,-7.000018 0,-14.000035 0,-21.0000538 z" display="inline" opacity=".3"/><path display="inline" style="line-height:125%;-inkscape-font-specification:'Open Sans Semi-Bold';text-align:center;isolation:auto;mix-blend-mode:normal;solid-color:#000;solid-opacity:1;marker:none" id="path3455" fill="url(#radialGradient3457)" fill-opacity="1" fill-rule="nonzero" stroke="none" stroke-dasharray="none" stroke-dashoffset="0" stroke-linecap="butt" stroke-linejoin="round" stroke-miterlimit="4" stroke-opacity="1" stroke-width="1" d="M 12.015625 8.7109375 C 11.342341 8.7109435 10.716075 8.8634773 10.126953 9.1914062 L 10.484375 9.9648438 C 10.707834 9.8545708 10.94462 9.7639079 11.179688 9.6855469 C 11.414755 9.6071969 11.663755 9.562506 11.939453 9.5625 C 12.244168 9.562506 12.487872 9.6330929 12.650391 9.7636719 C 12.812904 9.8942709 12.882809 10.076541 12.882812 10.320312 C 12.882808 10.529265 12.843757 10.71238 12.742188 10.863281 C 12.643517 11.014194 12.423469 11.223304 12.078125 11.496094 C 11.787915 11.722459 11.575064 11.934636 11.458984 12.146484 C 11.342899 12.358337 11.28906 12.631947 11.289062 12.951172 L 11.289062 13.230469 L 12.138672 13.230469 L 12.138672 13.029297 C 12.138671 12.794231 12.189317 12.611958 12.279297 12.472656 C 12.372157 12.333359 12.550417 12.15912 12.820312 11.947266 C 13.136636 11.700593 13.358633 11.495611 13.486328 11.341797 C 13.616917 11.187992 13.715447 11.031606 13.779297 10.863281 C 13.843137 10.692064 13.873047 10.489144 13.873047 10.271484 C 13.873043 9.7810399 13.710689 9.4075102 13.376953 9.1289062 C 13.043213 8.8503143 12.584428 8.7109435 12.015625 8.7109375 z M 8.7695312 9.3339844 L 5 11.554688 L 5 12.445312 L 8.7695312 14.666016 L 8.7695312 13.777344 L 5.8378906 12.001953 L 8.7695312 10.222656 L 8.7695312 9.3339844 z M 15.230469 9.3339844 L 15.230469 10.222656 L 18.162109 12.001953 L 15.230469 13.777344 L 15.230469 14.666016 L 19 12.445312 L 19 11.554688 L 15.230469 9.3339844 z M 11.751953 13.957031 C 11.325347 13.957031 11.10156 14.184835 11.101562 14.623047 C 11.101562 14.834898 11.161202 15.000155 11.271484 15.119141 C 11.381761 15.235223 11.545904 15.289063 11.751953 15.289062 C 11.957999 15.289062 12.106516 15.220552 12.216797 15.101562 C 12.329976 14.979676 12.386716 14.829094 12.386719 14.623047 C 12.386716 14.414098 12.342706 14.240134 12.232422 14.126953 C 12.122142 14.010872 11.9609 13.957031 11.751953 13.957031 z" clip-rule="nonzero" color="#000" color-interpolation="sRGB" color-interpolation-filters="linearRGB" color-rendering="auto" enable-background="accumulate" font-family="Open Sans" font-size="18" font-stretch="normal" font-style="normal" font-variant="normal" font-weight="600" image-rendering="auto" letter-spacing="0" opacity="1" overflow="visible" shape-rendering="auto" text-anchor="middle" text-rendering="auto" visibility="visible" word-spacing="0" writing-mode="lr-tb"/></svg>