<svg xmlns="http://www.w3.org/2000/svg" xmlns:svg="http://www.w3.org/2000/svg" xmlns:xlink="http://www.w3.org/1999/xlink" id="svg11300" width="24" height="24" display="inline" enable-background="new" version="1.0" viewBox="0 0 24 24"><metadata id="metadata155"/><title id="title4162">elementary Icon Template</title><defs id="defs3"><linearGradient id="linearGradient10457"><stop id="stop10453" offset="0" stop-color="#000" stop-opacity="1"/><stop id="stop10455" offset="1" stop-color="#000" stop-opacity="0"/></linearGradient><linearGradient id="linearGradient3977"><stop id="stop3979" offset="0" stop-color="#fff" stop-opacity="1"/><stop id="stop3981" offset="0" stop-color="#fff" stop-opacity=".235"/><stop id="stop3983" offset="1" stop-color="#fff" stop-opacity=".157"/><stop id="stop3985" offset="1" stop-color="#fff" stop-opacity=".392"/></linearGradient><linearGradient id="linearGradient3600"><stop id="stop3602" offset="0" stop-color="#f4f4f4" stop-opacity="1"/><stop id="stop3604" offset="1" stop-color="#dbdbdb" stop-opacity="1"/></linearGradient><linearGradient id="linearGradient5048"><stop id="stop5050" offset="0" stop-color="#000" stop-opacity="0"/><stop id="stop5056" offset=".5" stop-color="#000" stop-opacity="1"/><stop id="stop5052" offset="1" stop-color="#000" stop-opacity="0"/></linearGradient><linearGradient id="linearGradient3013" x1="24" x2="24" y1="6.474" y2="41.526" gradientTransform="matrix(0.40540511,0,0,0.51351351,42.269687,185.67568)" gradientUnits="userSpaceOnUse" xlink:href="#linearGradient3977"/><linearGradient id="linearGradient3016" x1="25.132" x2="25.132" y1=".985" y2="47.013" gradientTransform="matrix(0.45714178,0,0,0.43456667,41.028596,186.90372)" gradientUnits="userSpaceOnUse" xlink:href="#linearGradient3600"/><linearGradient id="linearGradient3027" x1="302.857" x2="302.857" y1="366.648" y2="609.505" gradientTransform="matrix(0.0352071,0,0,0.0082353,39.275148,204.98055)" gradientUnits="userSpaceOnUse" xlink:href="#linearGradient5048"/><radialGradient id="radialGradient7078" cx="605.714" cy="486.648" r="117.143" fx="605.714" fy="486.648" gradientTransform="matrix(-0.01253114,0,0,0.00823569,51.05202,204.98032)" gradientUnits="userSpaceOnUse" xlink:href="#linearGradient10457"/><radialGradient id="radialGradient7082" cx="605.714" cy="486.648" r="117.143" fx="605.714" fy="486.648" gradientTransform="matrix(0.01253114,0,0,0.00823569,52.94798,204.98035)" gradientUnits="userSpaceOnUse" xlink:href="#linearGradient10457"/></defs><g id="g153" transform="translate(-40,-186)"><rect id="rect2879" width="17" height="2" x="43.5" y="208" fill="url(#linearGradient3027)" fill-opacity="1" fill-rule="nonzero" stroke="none" stroke-width="1" display="inline" opacity=".15" overflow="visible" visibility="visible" style="marker:none"/><path id="path4160-3" fill="url(#linearGradient3016)" fill-opacity="1" stroke="none" d="m 44,188 c 3.666412,0 15.99998,0.001 15.99998,0.001 L 60,208 H 44 v -19.99998 z" display="inline"/><path id="rect6741-1-3" fill="none" stroke="url(#linearGradient3013)" stroke-dasharray="none" stroke-dashoffset="0" stroke-linecap="round" stroke-linejoin="miter" stroke-miterlimit="4" stroke-opacity="1" stroke-width="1" d="m 59.5,207.5 h -15 v -19 h 15 z"/><path id="path4160-3-1" fill="none" stroke="#000" stroke-dasharray="none" stroke-dashoffset="0" stroke-linecap="butt" stroke-linejoin="round" stroke-miterlimit="4" stroke-opacity="1" stroke-width="1" d="m 43.49996,187.49996 c 3.895581,0 17.000059,0.001 17.000059,0.001 l 2.1e-5,20.99871 H 43.49996 v -21.00005 z" display="inline" opacity=".3"/><path id="path10832" fill="#3689e6" fill-opacity="1" fill-rule="nonzero" stroke="none" stroke-width="1" d="m 52,191.45556 c 0,0 -0.666655,0 -0.666655,0.63707 0,0.63703 -0.666685,0.63703 -0.666685,0.63703 0,0 -0.66666,4.5e-4 -0.66666,-0.63703 v 8.9186 h 4 v -8.9186 c 0,0.63703 -0.666655,0.63703 -0.666655,0.63703 0,0 -0.66669,0 -0.66669,-0.63703 C 52.666655,191.45556 52,191.45556 52,191.45556 Z" color="#bebebe" display="inline" enable-background="accumulate" opacity=".2" overflow="visible" visibility="visible" style="marker:none"/><path id="path10846" fill="#3689e6" fill-opacity="1" fill-rule="nonzero" stroke="none" stroke-width="1" d="m 50.666668,194.33707 c 0,0 -0.666666,-5.4e-4 -0.666666,0.63704 v 4.36296 h 3.999997 v -4.36296 c 0,-0.63704 -0.666666,-0.63704 -0.666666,-0.63704 0,0 -0.666667,0 -0.666667,0.63704 0,0.63705 -0.666666,0.63705 -0.666666,0.63705 0,0 -0.666666,0 -0.666666,-0.63705 0,-0.63704 -0.666666,-0.63704 -0.666666,-0.63704 z" color="#bebebe" display="inline" enable-background="accumulate" opacity=".5" overflow="visible" visibility="visible" style="marker:none"/><path id="path10852" fill="#3689e6" fill-opacity="1" fill-rule="nonzero" stroke="none" stroke-width="1" d="m 52,196.95508 c 0,0 -0.66699,5e-4 -0.66699,0.63769 0,0.63704 -0.66602,0.63672 -0.66602,0.63672 0,0 -0.66699,0.001 -0.66699,-0.63672 V 200 H 49.85742 47 l 5,6.45996 L 57,200 h -1.14258 l -1.713865,0.001 V 200 H 54 v -2.40722 c 0,0.63703 -0.66699,0.63671 -0.66699,0.63671 0,0 -0.66602,3.2e-4 -0.66602,-0.63671 0,-0.63707 -0.66699,-0.6377 -0.66699,-0.6377 z" color="#bebebe" display="inline" enable-background="accumulate" overflow="visible" visibility="visible" style="marker:none"/><path id="path7076" fill="url(#radialGradient7078)" fill-opacity="1" fill-rule="nonzero" stroke="none" stroke-width="1" d="m 43.5,207.99999 v 1.99998 c -0.64533,0.004 -1.56008,-0.44811 -1.56008,-1.00013 0,-0.55203 0.72013,-0.99985 1.56008,-0.99985 z" display="inline" opacity=".15" overflow="visible" visibility="visible" style="marker:none"/><path id="path7080" fill="url(#radialGradient7082)" fill-opacity="1" fill-rule="nonzero" stroke="none" stroke-width="1" d="M 60.5,208.00002 V 210 c 0.64533,0.004 1.56008,-0.44811 1.56008,-1.00013 0,-0.55203 -0.72013,-0.99985 -1.56008,-0.99985 z" display="inline" opacity=".15" overflow="visible" visibility="visible" style="marker:none"/></g></svg>