<svg xmlns="http://www.w3.org/2000/svg" xmlns:svg="http://www.w3.org/2000/svg" xmlns:xlink="http://www.w3.org/1999/xlink" id="svg3828" width="24" height="24" version="1.1"><defs id="defs3830"><linearGradient id="linearGradient3977"><stop id="stop3979" offset="0" stop-color="#fff" stop-opacity="1"/><stop id="stop3981" offset="0" stop-color="#fff" stop-opacity=".235"/><stop id="stop3983" offset="1" stop-color="#fff" stop-opacity=".157"/><stop id="stop3985" offset="1" stop-color="#fff" stop-opacity=".392"/></linearGradient><linearGradient id="linearGradient3600-4"><stop id="stop3602-7" offset="0" stop-color="#f4f4f4" stop-opacity="1"/><stop id="stop3604-6" offset="1" stop-color="#dbdbdb" stop-opacity="1"/></linearGradient><linearGradient id="linearGradient5060"><stop id="stop5062" offset="0" stop-color="#000" stop-opacity="1"/><stop id="stop5064" offset="1" stop-color="#000" stop-opacity="0"/></linearGradient><linearGradient id="linearGradient5048"><stop id="stop5050" offset="0" stop-color="#000" stop-opacity="0"/><stop id="stop5056" offset=".5" stop-color="#000" stop-opacity="1"/><stop id="stop5052" offset="1" stop-color="#000" stop-opacity="0"/></linearGradient><linearGradient id="linearGradient3013" x1="24" x2="24" y1="6.474" y2="41.526" gradientTransform="matrix(0.40540511,0,0,0.51351351,2.2696871,-0.3243195)" gradientUnits="userSpaceOnUse" xlink:href="#linearGradient3977"/><linearGradient id="linearGradient3016" x1="25.132" x2="25.132" y1=".985" y2="47.013" gradientTransform="matrix(0.45714178,0,0,0.43456667,1.0285964,0.90372283)" gradientUnits="userSpaceOnUse" xlink:href="#linearGradient3600-4"/><radialGradient id="radialGradient3021" cx="605.714" cy="486.648" r="117.143" fx="605.714" fy="486.648" gradientTransform="matrix(0.01204859,0,0,0.0082353,13.238793,18.980564)" gradientUnits="userSpaceOnUse" xlink:href="#linearGradient5060"/><radialGradient id="radialGradient3024" cx="605.714" cy="486.648" r="117.143" fx="605.714" fy="486.648" gradientTransform="matrix(-0.01204859,0,0,0.0082353,10.761206,18.980564)" gradientUnits="userSpaceOnUse" xlink:href="#linearGradient5060"/><linearGradient id="linearGradient3027" x1="302.857" x2="302.857" y1="366.648" y2="609.505" gradientTransform="matrix(0.0352071,0,0,0.0082353,-0.724852,18.980547)" gradientUnits="userSpaceOnUse" xlink:href="#linearGradient5048"/><linearGradient id="linearGradient2867-449-88-871-390-598-476-591-434-148-57-177-8-3"><stop id="stop3750-1-0" offset="0" stop-color="#90dbec" stop-opacity="1"/><stop id="stop3752-3-7" offset=".262" stop-color="#55c1ec" stop-opacity="1"/><stop id="stop3754-1-8" offset=".705" stop-color="#3689e6" stop-opacity="1"/><stop id="stop3756-1-6" offset="1" stop-color="#2b63a0" stop-opacity="1"/></linearGradient><radialGradient id="radialGradient3441" cx="5.649" cy="9.957" r="12.672" fx="5.119" fy="9.957" gradientTransform="matrix(-7.6630149e-8,3.5405486,-3.8355631,-1.0627773e-7,89.480521,-32.283476)" gradientUnits="userSpaceOnUse" xlink:href="#linearGradient2867-449-88-871-390-598-476-591-434-148-57-177-8-3"/><radialGradient id="radialGradient3988-4" cx="8.276" cy="9.994" r="12.672" fx="8.276" fy="9.994" gradientTransform="matrix(0,4.0348484,-4.9535051,0,61.549659,-39.110804)" gradientUnits="userSpaceOnUse" xlink:href="#linearGradient3242-4"/><linearGradient id="linearGradient3242-4"><stop id="stop3244-7" offset="0" stop-color="#f89b7e" stop-opacity="1"/><stop id="stop3246-1" offset=".262" stop-color="#e35d4f" stop-opacity="1"/><stop id="stop3248-5" offset=".661" stop-color="#c6262e" stop-opacity="1"/><stop id="stop3250-7" offset="1" stop-color="#690b2c" stop-opacity="1"/></linearGradient></defs><metadata id="metadata3833"/><rect id="rect2879" width="17" height="2" x="3.5" y="22" fill="url(#linearGradient3027)" fill-opacity="1" fill-rule="nonzero" stroke="none" stroke-width="1" display="inline" opacity=".15" overflow="visible" visibility="visible" style="marker:none"/><path id="path2881" fill="url(#radialGradient3024)" fill-opacity="1" fill-rule="nonzero" stroke="none" stroke-width="1" d="m 3.4999999,22.000085 c 0,0 0,1.999891 0,1.999891 C 2.8795275,24.003776 2,23.551901 2,22.999901 2,22.447902 2.6924,22.000085 3.4999999,22.000085 z" display="inline" opacity=".15" overflow="visible" visibility="visible" style="marker:none"/><path id="path2883" fill="url(#radialGradient3021)" fill-opacity="1" fill-rule="nonzero" stroke="none" stroke-width="1" d="m 20.5,22.000085 c 0,0 0,1.999891 0,1.999891 0.620472,0.0038 1.5,-0.448075 1.5,-1.000075 0,-0.551999 -0.692402,-0.999816 -1.5,-0.999816 z" display="inline" opacity=".15" overflow="visible" visibility="visible" style="marker:none"/><path id="path4160-3" fill="url(#linearGradient3016)" fill-opacity="1" stroke="none" d="m 4,2 c 3.6664118,0 15.99998,0.0013 15.99998,0.0013 L 20,22 C 20,22 9.3333337,22 4,22 4,15.33334 4,8.6666817 4,2.0000212 Z" display="inline"/><path id="rect6741-1" fill="none" stroke="url(#linearGradient3013)" stroke-dasharray="none" stroke-dashoffset="0" stroke-linecap="round" stroke-linejoin="miter" stroke-miterlimit="4" stroke-opacity="1" stroke-width="1" d="m 19.5,21.5 -15.0000004,0 0,-19 L 19.5,2.5 z"/><path id="path4160-3-1" fill="none" stroke="#000" stroke-dasharray="none" stroke-dashoffset="0" stroke-linecap="butt" stroke-linejoin="round" stroke-miterlimit="4" stroke-opacity="1" stroke-width="1" d="m 3.4999601,1.4999569 c 3.8955809,0 17.0000589,0.00136 17.0000589,0.00136 l 2.1e-5,20.9987161 c 0,0 -11.3333862,0 -17.0000799,0 0,-7.000018 0,-14.000035 0,-21.0000538 z" display="inline" opacity=".3"/><path id="path3439" fill="url(#radialGradient3441)" fill-opacity="1" fill-rule="nonzero" stroke="none" stroke-dasharray="none" stroke-dashoffset="0" stroke-linecap="butt" stroke-linejoin="miter" stroke-miterlimit="4" stroke-opacity="1" stroke-width="1" d="M 52,6.8007812 46,8 46,16.800781 52,18 52,6.8007812 Z M 53,8 l 0,1.2285156 3.75,0 0,0.4082032 -3.75,0 0,0.8183592 3.75,0 0,0.408203 -3.75,0 0,0.81836 3.75,0 0,0.410156 -3.75,0 0,0.816406 3.75,0 0,0.410156 -3.75,0 0,0.81836 3.75,0 0,0.408203 -3.75,0 0,0.818359 3.75,0 0,0.408203 -3.75,0 L 53,17 l 5,0 0,-9 -5,0 z m -2.71875,2.363281 0.339844,0 c 0.313618,0 0.332531,0.02299 0.296875,0.199219 -0.02123,0.10492 -0.198282,1.036636 -0.394531,2.074219 l -0.353516,1.888672 -0.365235,0 c -0.19848,0 -0.359477,-0.01373 -0.363281,-0.02539 -0.0038,-0.01166 -0.118023,-0.628874 -0.253906,-1.375 -0.135881,-0.74613 -0.265085,-1.30823 -0.287109,-1.238281 -0.02203,0.06995 -0.13616,0.684953 -0.251954,1.351562 l -0.210937,1.212891 -0.330078,-0.02734 -0.341797,-0.02344 -0.275391,-1.664063 c -0.153855,-0.909341 -0.299516,-1.751611 -0.320312,-1.875 -0.03441,-0.204143 -0.01199,-0.22964 0.230469,-0.261719 0.337832,-0.04469 0.351567,-0.0047 0.550781,1.462891 0.0851,0.627004 0.156424,1.149027 0.167969,1.162109 0.01154,0.01309 0.129833,-0.581482 0.261718,-1.3125 0.131887,-0.731018 0.28119,-1.350122 0.332032,-1.386718 0.146324,-0.105326 0.557429,-0.07959 0.595703,0.03711 0.01911,0.05829 0.137949,0.689239 0.253906,1.400391 0.194003,1.189803 0.331444,1.621978 0.332031,1.048828 2.27e-4,-0.22891 0.154892,-1.321107 0.308594,-2.199219 l 0.07813,-0.449219 z" clip-rule="nonzero" color="#000" color-interpolation="sRGB" color-interpolation-filters="linearRGB" color-rendering="auto" display="inline" enable-background="accumulate" image-rendering="auto" opacity="1" overflow="visible" shape-rendering="auto" text-rendering="auto" visibility="visible" style="isolation:auto;mix-blend-mode:normal;solid-color:#000;solid-opacity:1;marker:none"/><path id="path4255" fill="url(#radialGradient3988-4)" fill-opacity="1" fill-rule="nonzero" stroke="none" stroke-dasharray="none" stroke-dashoffset="0" stroke-linecap="butt" stroke-linejoin="miter" stroke-miterlimit="4" stroke-opacity="1" stroke-width="1" d="M 12,6.8000001 6,8 6,16.8 12,18 Z m 2.1125,1.5999998 c -0.127955,0.00125 -0.257954,0.00758 -0.3875,0.012502 l -0.74375,0.012502 0,1.0125002 0,1.0124999 0.41875,0.025 c 0.39872,0.05006 1.336728,0.03505 1.9625,-0.025 C 17.045925,10.288516 18.107022,9.8259883 17.925,9.3375005 17.720787,8.789463 16.031831,8.3836104 14.1125,8.3999999 Z M 18,10.400318 l -0.15,0.175 c -0.197619,0.23758 -0.743174,0.490385 -1.4125,0.6375 -0.413562,0.0909 -0.860358,0.125306 -1.8875,0.15 l -1.56875,0.025 0,0.55625 0,0.512499 1.53125,-0.0375 c 1.039738,-0.02462 1.445202,-0.06025 1.9125,-0.162498 0.674279,-0.147537 1.199593,-0.359473 1.4,-0.575 l 0.1375,-0.15 0.025,-0.549999 z m -9.513197,0.225417 0.4,0 c 0.333176,0 0.412464,0.01556 0.4375,0.1 0.01664,0.05615 0.249648,0.917917 0.525,1.9125 0.275352,0.994583 0.511052,1.834896 0.525,1.875 0.01848,0.05312 -0.06951,0.07836 -0.3125,0.075 -0.183472,-0.0025 -0.362184,-0.02208 -0.4,-0.0375 -0.0378,-0.01542 -0.106224,-0.223787 -0.1625,-0.4625 l -0.1125,-0.425 -0.525,0 -0.5375,0 -0.0875,0.3875 -0.075,0.4 -0.375,0.0125 -0.3625,0.0125 0.025,-0.1 c 0.01756,-0.05775 0.223284,-0.790834 0.45,-1.625 0.226716,-0.834167 0.451961,-1.644062 0.5,-1.8125 z m 0.375,0.9 c -0.01644,0.0046 -0.0932,0.25764 -0.175,0.5875 -0.08724,0.351851 -0.170632,0.681354 -0.1875,0.7375 -0.027,0.08985 0.01843,0.1125 0.35,0.1125 l 0.375,0 -0.175,-0.6875 c -0.09403,-0.376979 -0.178452,-0.718983 -0.1875,-0.75 z M 18,12.292161 l -0.175,0.1875 c -0.456343,0.49418 -1.929093,0.805346 -3.7375,0.7875 l -1.06875,-0.0125 -0.025,0.3625 -0.0125,0.649999 0.06875,0.0375 c 0.21856,0.06597 2.553999,-0.01814 3.075,-0.1125 0.727302,-0.131732 1.393743,-0.356811 1.6375,-0.5625 l 0.2,-0.174998 0.025,-0.724999 z M 18,14 17.825,14.2125 C 17.398912,14.703414 16.089271,14.992935 14.25,15 l -1.26875,0 0,0.1875 0,0.8 0.53125,0.025 c 0.633046,0.0448 0.863456,-0.0028 1.6375,-0.0625 1.309907,-0.101083 2.310101,-0.367148 2.6375,-0.7125 l 0.175,-0.1875 0.025,-0.8125 z" clip-rule="nonzero" color="#000" color-interpolation="sRGB" color-interpolation-filters="linearRGB" color-rendering="auto" display="inline" enable-background="accumulate" image-rendering="auto" opacity="1" overflow="visible" shape-rendering="auto" text-rendering="auto" visibility="visible" style="isolation:auto;mix-blend-mode:normal;solid-color:#000;solid-opacity:1;marker:none"/></svg>