<svg xmlns="http://www.w3.org/2000/svg" xmlns:svg="http://www.w3.org/2000/svg" xmlns:xlink="http://www.w3.org/1999/xlink" id="svg3828" width="24" height="24" version="1.1"><defs id="defs3830"><linearGradient id="linearGradient3977"><stop id="stop3979" offset="0" stop-color="#fff" stop-opacity="1"/><stop id="stop3981" offset="0" stop-color="#fff" stop-opacity=".235"/><stop id="stop3983" offset="1" stop-color="#fff" stop-opacity=".157"/><stop id="stop3985" offset="1" stop-color="#fff" stop-opacity=".392"/></linearGradient><linearGradient id="linearGradient3600-4"><stop id="stop3602-7" offset="0" stop-color="#f4f4f4" stop-opacity="1"/><stop id="stop3604-6" offset="1" stop-color="#dbdbdb" stop-opacity="1"/></linearGradient><linearGradient id="linearGradient5060"><stop id="stop5062" offset="0" stop-color="#000" stop-opacity="1"/><stop id="stop5064" offset="1" stop-color="#000" stop-opacity="0"/></linearGradient><linearGradient id="linearGradient5048"><stop id="stop5050" offset="0" stop-color="#000" stop-opacity="0"/><stop id="stop5056" offset=".5" stop-color="#000" stop-opacity="1"/><stop id="stop5052" offset="1" stop-color="#000" stop-opacity="0"/></linearGradient><linearGradient id="linearGradient3013" x1="24" x2="24" y1="6.474" y2="41.526" gradientTransform="matrix(0.40540511,0,0,0.51351351,2.2696871,-0.3243195)" gradientUnits="userSpaceOnUse" xlink:href="#linearGradient3977"/><linearGradient id="linearGradient3016" x1="25.132" x2="25.132" y1=".985" y2="47.013" gradientTransform="matrix(0.45714178,0,0,0.43456667,1.0285964,0.90372283)" gradientUnits="userSpaceOnUse" xlink:href="#linearGradient3600-4"/><radialGradient id="radialGradient3021" cx="605.714" cy="486.648" r="117.143" fx="605.714" fy="486.648" gradientTransform="matrix(0.01204859,0,0,0.0082353,13.238793,18.980564)" gradientUnits="userSpaceOnUse" xlink:href="#linearGradient5060"/><radialGradient id="radialGradient3024" cx="605.714" cy="486.648" r="117.143" fx="605.714" fy="486.648" gradientTransform="matrix(-0.01204859,0,0,0.0082353,10.761206,18.980564)" gradientUnits="userSpaceOnUse" xlink:href="#linearGradient5060"/><linearGradient id="linearGradient3027" x1="302.857" x2="302.857" y1="366.648" y2="609.505" gradientTransform="matrix(0.0352071,0,0,0.0082353,-0.724852,18.980547)" gradientUnits="userSpaceOnUse" xlink:href="#linearGradient5048"/><linearGradient id="linearGradient2867-449-88-871-390-598-476-591-434-148-57-177-8-3"><stop id="stop3750-1-0" offset="0" stop-color="#90dbec" stop-opacity="1"/><stop id="stop3752-3-7" offset=".262" stop-color="#55c1ec" stop-opacity="1"/><stop id="stop3754-1-8" offset=".705" stop-color="#3689e6" stop-opacity="1"/><stop id="stop3756-1-6" offset="1" stop-color="#2b63a0" stop-opacity="1"/></linearGradient><radialGradient id="radialGradient3441" cx="5.649" cy="9.957" r="12.672" fx="5.119" fy="9.957" gradientTransform="matrix(-7.6630149e-8,3.5405486,-3.8355631,-1.0627773e-7,89.480521,-32.283476)" gradientUnits="userSpaceOnUse" xlink:href="#linearGradient2867-449-88-871-390-598-476-591-434-148-57-177-8-3"/><radialGradient id="radialGradient3029" cx="6.563" cy="9.957" r="12.672" fx="6.033" fy="9.957" gradientTransform="matrix(0,4.0140392,-4.9279572,0,61.062437,-35.389667)" gradientUnits="userSpaceOnUse" xlink:href="#linearGradient2867-449-88-871-390-598-476-591-434-148-57-177-8-3-3"/><linearGradient id="linearGradient2867-449-88-871-390-598-476-591-434-148-57-177-8-3-3"><stop id="stop3750-1-0-7" offset="0" stop-color="#ffcd7d" stop-opacity="1"/><stop id="stop3752-3-7-4" offset=".262" stop-color="#fc8f36" stop-opacity="1"/><stop id="stop3754-1-8-5" offset=".705" stop-color="#e23a0e" stop-opacity="1"/><stop id="stop3756-1-6-2" offset="1" stop-color="#ac441f" stop-opacity="1"/></linearGradient></defs><metadata id="metadata3833"/><rect id="rect2879" width="17" height="2" x="3.5" y="22" fill="url(#linearGradient3027)" fill-opacity="1" fill-rule="nonzero" stroke="none" stroke-width="1" display="inline" opacity=".15" overflow="visible" visibility="visible" style="marker:none"/><path id="path2881" fill="url(#radialGradient3024)" fill-opacity="1" fill-rule="nonzero" stroke="none" stroke-width="1" d="m 3.4999999,22.000085 c 0,0 0,1.999891 0,1.999891 C 2.8795275,24.003776 2,23.551901 2,22.999901 2,22.447902 2.6924,22.000085 3.4999999,22.000085 z" display="inline" opacity=".15" overflow="visible" visibility="visible" style="marker:none"/><path id="path2883" fill="url(#radialGradient3021)" fill-opacity="1" fill-rule="nonzero" stroke="none" stroke-width="1" d="m 20.5,22.000085 c 0,0 0,1.999891 0,1.999891 0.620472,0.0038 1.5,-0.448075 1.5,-1.000075 0,-0.551999 -0.692402,-0.999816 -1.5,-0.999816 z" display="inline" opacity=".15" overflow="visible" visibility="visible" style="marker:none"/><path id="path4160-3" fill="url(#linearGradient3016)" fill-opacity="1" stroke="none" d="m 4,2 c 3.6664118,0 15.99998,0.0013 15.99998,0.0013 L 20,22 C 20,22 9.3333337,22 4,22 4,15.33334 4,8.6666817 4,2.0000212 Z" display="inline"/><path id="rect6741-1" fill="none" stroke="url(#linearGradient3013)" stroke-dasharray="none" stroke-dashoffset="0" stroke-linecap="round" stroke-linejoin="miter" stroke-miterlimit="4" stroke-opacity="1" stroke-width="1" d="m 19.5,21.5 -15.0000004,0 0,-19 L 19.5,2.5 z"/><path id="path4160-3-1" fill="none" stroke="#000" stroke-dasharray="none" stroke-dashoffset="0" stroke-linecap="butt" stroke-linejoin="round" stroke-miterlimit="4" stroke-opacity="1" stroke-width="1" d="m 3.4999601,1.4999569 c 3.8955809,0 17.0000589,0.00136 17.0000589,0.00136 l 2.1e-5,20.9987161 c 0,0 -11.3333862,0 -17.0000799,0 0,-7.000018 0,-14.000035 0,-21.0000538 z" display="inline" opacity=".3"/><path clip-rule="nonzero" style="isolation:auto;mix-blend-mode:normal;solid-color:#000;solid-opacity:1;marker:none" id="path3065" fill="url(#radialGradient3029)" fill-opacity="1" fill-rule="nonzero" stroke="none" stroke-dasharray="none" stroke-dashoffset="0" stroke-linecap="butt" stroke-linejoin="miter" stroke-miterlimit="4" stroke-opacity="1" stroke-width="1" d="M 12,6.8 6,8 6,16.8 12,18 Z m 1,1.2 0,0.8 4.5,0 0,5.2 0.7,0 0,-5.2 0,-0.8 -0.6,0 z m 0,1.2 0,0.8625 C 13.128066,10.02947 13.46162,10 13.6,10 l 0,1.6 1.6,0 c 0,0.883656 -0.716344,1.6 -1.6,1.6 -0.13838,0 -0.471934,-0.02947 -0.6,-0.0625 L 13,14 l 3,0 0,0.5 -3,0 0,1 3,0 0,0.508978 -3,0 0,1.00225 4,0 L 17,9.2 Z m 1,0.4 c 0.883656,0 1.6,0.716344 1.6,1.6 l -1.6,0 z m -4.8141604,0.9 c 0.4008164,0.0068 0.604332,0.08649 0.7750002,0.25 0.2226242,0.213286 0.3151522,0.493702 0.3125002,0.9875 -0.0044,0.8105 -0.487556,1.3125 -1.25,1.3125 l -0.2875004,0 -0.024998,0.65 -0.012502,0.6625 -0.3,-0.025 -0.3818367,-0.0125 0,-1.8875 0,-1.8875 0.6943369,-0.0375 C 8.8955476,10.50202 9.0522316,10.49772 9.1858396,10.5 Z m -0.4624996,0.675 0,0.575 c 0,0.315639 0.028598,0.591101 0.050002,0.6125 0.062528,0.06253 0.2363117,0.05179 0.45,-0.0375 0.2593037,-0.108344 0.37704,-0.446923 0.2749997,-0.7875 C 9.4231037,11.28638 9.256324,11.175 8.93584,11.175 Z" color="#000" color-interpolation="sRGB" color-interpolation-filters="linearRGB" color-rendering="auto" display="inline" enable-background="accumulate" image-rendering="auto" opacity="1" overflow="visible" shape-rendering="auto" text-rendering="auto" visibility="visible"/></svg>