<svg xmlns="http://www.w3.org/2000/svg" xmlns:svg="http://www.w3.org/2000/svg" xmlns:xlink="http://www.w3.org/1999/xlink" id="svg3828" width="24" height="24" version="1.1" viewBox="0 0 24 24"><defs id="defs3830"><linearGradient id="linearGradient3977"><stop id="stop3979" offset="0" stop-color="#fff" stop-opacity="1"/><stop id="stop3981" offset="0" stop-color="#fff" stop-opacity=".235"/><stop id="stop3983" offset="1" stop-color="#fff" stop-opacity=".157"/><stop id="stop3985" offset="1" stop-color="#fff" stop-opacity=".392"/></linearGradient><linearGradient id="linearGradient3600-4"><stop id="stop3602-7" offset="0" stop-color="#f4f4f4" stop-opacity="1"/><stop id="stop3604-6" offset="1" stop-color="#dbdbdb" stop-opacity="1"/></linearGradient><linearGradient id="linearGradient5060"><stop id="stop5062" offset="0" stop-color="#000" stop-opacity="1"/><stop id="stop5064" offset="1" stop-color="#000" stop-opacity="0"/></linearGradient><linearGradient id="linearGradient5048"><stop id="stop5050" offset="0" stop-color="#000" stop-opacity="0"/><stop id="stop5056" offset=".5" stop-color="#000" stop-opacity="1"/><stop id="stop5052" offset="1" stop-color="#000" stop-opacity="0"/></linearGradient><linearGradient id="linearGradient3013" x1="24" x2="24" y1="6.474" y2="41.526" gradientTransform="matrix(0.40540511,0,0,0.51351351,2.2696871,-0.3243195)" gradientUnits="userSpaceOnUse" xlink:href="#linearGradient3977"/><linearGradient id="linearGradient3016" x1="25.132" x2="25.132" y1=".985" y2="47.013" gradientTransform="matrix(0.45714178,0,0,0.43456667,1.0285964,0.90372283)" gradientUnits="userSpaceOnUse" xlink:href="#linearGradient3600-4"/><radialGradient id="radialGradient3021" cx="605.714" cy="486.648" r="117.143" fx="605.714" fy="486.648" gradientTransform="matrix(0.01204859,0,0,0.0082353,13.238793,18.980564)" gradientUnits="userSpaceOnUse" xlink:href="#linearGradient5060"/><radialGradient id="radialGradient3024" cx="605.714" cy="486.648" r="117.143" fx="605.714" fy="486.648" gradientTransform="matrix(-0.01204859,0,0,0.0082353,10.761206,18.980564)" gradientUnits="userSpaceOnUse" xlink:href="#linearGradient5060"/><linearGradient id="linearGradient3027" x1="302.857" x2="302.857" y1="366.648" y2="609.505" gradientTransform="matrix(0.0352071,0,0,0.0082353,-0.724852,18.980547)" gradientUnits="userSpaceOnUse" xlink:href="#linearGradient5048"/><radialGradient id="radialGradient3417" cx="18.148" cy="16.232" r="12.672" fx="18.148" fy="16.232" gradientTransform="matrix(0,3.4908664,-4.3892739,0,77.565369,-73.952626)" gradientUnits="userSpaceOnUse" xlink:href="#linearGradient2867-449-88-871-390-598-476-591-434-148-57-177-8-3-3"/><linearGradient id="linearGradient2867-449-88-871-390-598-476-591-434-148-57-177-8-3-3"><stop id="stop3750-1-0-7" offset="0" stop-color="#ffcd7d" stop-opacity="1"/><stop id="stop3752-3-7-4" offset=".262" stop-color="#fc8f36" stop-opacity="1"/><stop id="stop3754-1-8-5" offset=".705" stop-color="#e23a0e" stop-opacity="1"/><stop id="stop3756-1-6-2" offset="1" stop-color="#ac441f" stop-opacity="1"/></linearGradient></defs><metadata id="metadata3833"/><rect id="rect2879" width="17" height="2" x="3.5" y="22" fill="url(#linearGradient3027)" fill-opacity="1" fill-rule="nonzero" stroke="none" stroke-width="1" display="inline" opacity=".15" overflow="visible" visibility="visible" style="marker:none"/><path id="path2881" fill="url(#radialGradient3024)" fill-opacity="1" fill-rule="nonzero" stroke="none" stroke-width="1" d="m 3.4999999,22.000085 c 0,0 0,1.999891 0,1.999891 C 2.8795275,24.003776 2,23.551901 2,22.999901 2,22.447902 2.6924,22.000085 3.4999999,22.000085 Z" display="inline" opacity=".15" overflow="visible" visibility="visible" style="marker:none"/><path id="path2883" fill="url(#radialGradient3021)" fill-opacity="1" fill-rule="nonzero" stroke="none" stroke-width="1" d="m 20.5,22.000085 c 0,0 0,1.999891 0,1.999891 0.620472,0.0038 1.5,-0.448075 1.5,-1.000075 0,-0.551999 -0.692402,-0.999816 -1.5,-0.999816 z" display="inline" opacity=".15" overflow="visible" visibility="visible" style="marker:none"/><path id="path4160-3" fill="url(#linearGradient3016)" fill-opacity="1" stroke="none" d="M 4,2 C 7.6664118,2 19.99998,2.0013 19.99998,2.0013 L 20,22 C 20,22 9.3333337,22 4,22 4,15.33334 4,8.6666817 4,2.0000212 Z" display="inline"/><path id="rect6741-1" fill="none" stroke="url(#linearGradient3013)" stroke-dasharray="none" stroke-dashoffset="0" stroke-linecap="round" stroke-linejoin="miter" stroke-miterlimit="4" stroke-opacity="1" stroke-width="1" d="M 19.5,21.5 H 4.4999996 V 2.5 H 19.5 Z"/><path id="path4160-3-1" fill="none" stroke="#000" stroke-dasharray="none" stroke-dashoffset="0" stroke-linecap="butt" stroke-linejoin="round" stroke-miterlimit="4" stroke-opacity="1" stroke-width="1" d="m 3.4999601,1.4999569 c 3.8955809,0 17.0000589,0.00136 17.0000589,0.00136 l 2.1e-5,20.9987161 c 0,0 -11.3333862,0 -17.0000799,0 0,-7.000018 0,-14.000035 0,-21.0000538 z" display="inline" opacity=".3"/><path id="path3415" fill="url(#radialGradient3417)" fill-opacity="1" fill-rule="nonzero" stroke="none" stroke-dasharray="none" stroke-dashoffset="0" stroke-linecap="butt" stroke-linejoin="round" stroke-miterlimit="4" stroke-opacity="1" stroke-width="1" d="m 9.459103,6.9999998 c -0.21747,0 -0.479488,0.175119 -0.479488,0.392588 V 14.877965 C 8.498478,14.676116 7.984121,14.746845 7.468863,15.065513 6.629458,15.58482 6.265845,16.59523 6.657397,17.322359 c 0.390939,0.727095 1.388765,0.895614 2.227542,0.375977 0.606866,-0.376087 1.161273,-1.029483 1.140626,-1.661133 5.5e-5,-0.0027 9.79e-4,-0.0051 9.79e-4,-0.0078 v -5.995129 c 0.0946,-0.0517 0.241669,0.0605 0.319328,0.1133 0.882085,0.533716 1.477588,1.335601 1.532225,2.426772 0.0473,0.631176 -0.0847,1.258689 -0.266638,1.858394 0.810915,-1.334159 0.766585,-3.490278 -0.235399,-4.7089942 -0.646246,-0.674405 -1.255807,-1.460538 -1.524426,-2.374027 -0.0198,-0.0869 -0.138049,-0.349578 -0.392587,-0.349578 z m 7.053433,1.0000147 c 0.207789,0 0.487297,0.222969 0.487297,0.499947 0,0.276978 -0.279508,0.500057 -0.487297,0.500057 h -3.012702 c -0.207789,0 -0.499947,-0.222969 -0.499947,-0.500057 0,-0.276978 0.292267,-0.499947 0.499947,-0.499947 z m 0,1.9999995 c 0.207789,0 0.487297,0.222969 0.487297,0.500058 0,0.276978 -0.279508,0.499947 -0.487297,0.499947 h -3.012702 c -0.207789,0 -0.499947,-0.222969 -0.499947,-0.499947 0,-0.276979 0.292267,-0.500058 0.499947,-0.500058 z m 0,2 c 0.207789,0 0.487297,0.22297 0.487297,0.499948 0,0.276977 -0.279508,0.500056 -0.487297,0.500056 h -3.012702 c -0.207789,0 -0.499947,-0.222969 -0.499947,-0.500056 0,-0.276978 0.292267,-0.499948 0.499947,-0.499948 z m -0.0253,1.999967 c 0.221649,0 0.512707,0.222968 0.512707,0.500057 0,0.276978 -0.291058,0.499947 -0.512707,0.499947 h -4.987317 c -0.221539,0 -0.499947,-0.222969 -0.499947,-0.499947 0,-0.276979 0.278408,-0.500057 0.499947,-0.500057 z" clip-rule="nonzero" color="#000" color-interpolation="sRGB" color-interpolation-filters="linearRGB" color-rendering="auto" display="inline" enable-background="accumulate" image-rendering="auto" opacity="1" overflow="visible" shape-rendering="auto" text-rendering="auto" visibility="visible" style="isolation:auto;mix-blend-mode:normal;solid-color:#000;solid-opacity:1;marker:none"/></svg>