<svg xmlns="http://www.w3.org/2000/svg" xmlns:svg="http://www.w3.org/2000/svg" xmlns:xlink="http://www.w3.org/1999/xlink" id="svg3828" width="24" height="24" version="1.1"><defs id="defs3830"><linearGradient id="linearGradient3977"><stop id="stop3979" offset="0" stop-color="#fff" stop-opacity="1"/><stop id="stop3981" offset="0" stop-color="#fff" stop-opacity=".235"/><stop id="stop3983" offset="1" stop-color="#fff" stop-opacity=".157"/><stop id="stop3985" offset="1" stop-color="#fff" stop-opacity=".392"/></linearGradient><linearGradient id="linearGradient3600-4"><stop id="stop3602-7" offset="0" stop-color="#f4f4f4" stop-opacity="1"/><stop id="stop3604-6" offset="1" stop-color="#dbdbdb" stop-opacity="1"/></linearGradient><linearGradient id="linearGradient5060"><stop id="stop5062" offset="0" stop-color="#000" stop-opacity="1"/><stop id="stop5064" offset="1" stop-color="#000" stop-opacity="0"/></linearGradient><linearGradient id="linearGradient5048"><stop id="stop5050" offset="0" stop-color="#000" stop-opacity="0"/><stop id="stop5056" offset=".5" stop-color="#000" stop-opacity="1"/><stop id="stop5052" offset="1" stop-color="#000" stop-opacity="0"/></linearGradient><linearGradient id="linearGradient3013" x1="24" x2="24" y1="6.474" y2="41.526" gradientTransform="matrix(0.40540511,0,0,0.51351351,2.2696871,-0.3243195)" gradientUnits="userSpaceOnUse" xlink:href="#linearGradient3977"/><linearGradient id="linearGradient3016" x1="25.132" x2="25.132" y1=".985" y2="47.013" gradientTransform="matrix(0.45714178,0,0,0.43456667,1.0285964,0.90372283)" gradientUnits="userSpaceOnUse" xlink:href="#linearGradient3600-4"/><radialGradient id="radialGradient3021" cx="605.714" cy="486.648" r="117.143" fx="605.714" fy="486.648" gradientTransform="matrix(0.01204859,0,0,0.0082353,13.238793,18.980564)" gradientUnits="userSpaceOnUse" xlink:href="#linearGradient5060"/><radialGradient id="radialGradient3024" cx="605.714" cy="486.648" r="117.143" fx="605.714" fy="486.648" gradientTransform="matrix(-0.01204859,0,0,0.0082353,10.761206,18.980564)" gradientUnits="userSpaceOnUse" xlink:href="#linearGradient5060"/><linearGradient id="linearGradient3027" x1="302.857" x2="302.857" y1="366.648" y2="609.505" gradientTransform="matrix(0.0352071,0,0,0.0082353,-0.724852,18.980547)" gradientUnits="userSpaceOnUse" xlink:href="#linearGradient5048"/><linearGradient id="linearGradient1063" x1="-17.375" x2="-17.375" y1="-6.125" y2="37.679" gradientTransform="matrix(0.34782609,0,0,0.35094866,16.837638,3.7677746)" gradientUnits="userSpaceOnUse" xlink:href="#linearGradient1061"/><linearGradient id="linearGradient1061"><stop id="stop1057" offset="0" stop-color="#4d4d4d" stop-opacity="1"/><stop id="stop1059" offset="1" stop-color="#333" stop-opacity="1"/></linearGradient><linearGradient id="linearGradient1071" x1="44" x2="44" y1="0" y2="44.5" gradientTransform="matrix(0.34782609,0,0,0.34782609,1.0828828,1.6521738)" gradientUnits="userSpaceOnUse" xlink:href="#linearGradient1069"/><linearGradient id="linearGradient1069"><stop id="stop1065" offset="0" stop-color="#ed5353" stop-opacity="1"/><stop id="stop1067" offset="1" stop-color="#c6262e" stop-opacity="1"/></linearGradient></defs><metadata id="metadata3833"/><rect id="rect2879" width="17" height="2" x="3.5" y="22" fill="url(#linearGradient3027)" fill-opacity="1" fill-rule="nonzero" stroke="none" stroke-width="1" display="inline" opacity=".15" overflow="visible" visibility="visible" style="marker:none"/><path id="path2881" fill="url(#radialGradient3024)" fill-opacity="1" fill-rule="nonzero" stroke="none" stroke-width="1" d="m 3.4999999,22.000085 c 0,0 0,1.999891 0,1.999891 C 2.8795275,24.003776 2,23.551901 2,22.999901 2,22.447902 2.6924,22.000085 3.4999999,22.000085 z" display="inline" opacity=".15" overflow="visible" visibility="visible" style="marker:none"/><path id="path2883" fill="url(#radialGradient3021)" fill-opacity="1" fill-rule="nonzero" stroke="none" stroke-width="1" d="m 20.5,22.000085 c 0,0 0,1.999891 0,1.999891 0.620472,0.0038 1.5,-0.448075 1.5,-1.000075 0,-0.551999 -0.692402,-0.999816 -1.5,-0.999816 z" display="inline" opacity=".15" overflow="visible" visibility="visible" style="marker:none"/><path id="path4160-3" fill="url(#linearGradient3016)" fill-opacity="1" stroke="none" d="m 4,2 c 3.6664118,0 15.99998,0.0013 15.99998,0.0013 L 20,22 C 20,22 9.3333337,22 4,22 4,15.33334 4,8.6666817 4,2.0000212 Z" display="inline"/><path id="rect6741-1" fill="none" stroke="url(#linearGradient3013)" stroke-dasharray="none" stroke-dashoffset="0" stroke-linecap="round" stroke-linejoin="miter" stroke-miterlimit="4" stroke-opacity="1" stroke-width="1" d="m 19.5,21.5 -15.0000004,0 0,-19 L 19.5,2.5 z"/><path id="path4160-3-1" fill="none" stroke="#000" stroke-dasharray="none" stroke-dashoffset="0" stroke-linecap="butt" stroke-linejoin="round" stroke-miterlimit="4" stroke-opacity="1" stroke-width="1" d="m 3.4999601,1.4999569 c 3.8955809,0 17.0000589,0.00136 17.0000589,0.00136 l 2.1e-5,20.9987161 c 0,0 -11.3333862,0 -17.0000799,0 0,-7.000018 0,-14.000035 0,-21.0000538 z" display="inline" opacity=".3"/><path font-family="sans-serif" style="line-height:1.25" id="text942" fill="url(#linearGradient1071)" fill-opacity="1" stroke="none" stroke-width="1" d="m 15.182068,9.9320654 c -0.76087,-4e-7 -1.410779,0.2604156 -1.949729,0.7812496 -0.538949,0.520833 -0.953351,1.1798 -1.243206,1.976902 -0.131341,0.362319 -0.228714,0.726902 -0.29212,1.09375 -0.06341,0.362319 -0.09511,0.726902 -0.09511,1.09375 0,0.362319 0.05208,0.686141 0.156249,0.971467 0.289856,0.792573 0.846921,1.188859 1.671196,1.188859 0.824275,0 1.524004,-0.430253 2.099185,-1.290761 0.05435,0.412138 0.199275,0.731431 0.434783,0.957881 0.235507,0.22192 0.536684,0.33288 0.903532,0.33288 0.371377,0 0.677084,-0.13134 0.91712,-0.394022 0.135869,-0.153985 0.301177,-0.491395 0.495924,-1.012228 -0.08152,0.04076 -0.183424,0.06114 -0.305707,0.06114 -0.380435,0 -0.570652,-0.158515 -0.570652,-0.475544 0,-0.167573 0.02038,-0.330616 0.06114,-0.489131 L 18.463318,10 h -2.004077 l -0.149456,0.740489 v -0.101902 c 0,-0.203805 -0.08832,-0.371377 -0.264946,-0.502718 C 15.868209,10 15.580618,9.9320654 15.182068,9.9320654 Z m 0.373641,0.8627706 c 0.258152,0 0.425724,0.06793 0.502717,0.203805 0.08152,0.13134 0.122283,0.240036 0.122283,0.326087 l -0.665761,3.138587 c -0.08605,0.380435 -0.242301,0.681612 -0.46875,0.903533 -0.226449,0.217391 -0.477808,0.326087 -0.754076,0.326087 -0.149457,0 -0.274004,-0.04982 -0.373641,-0.149457 -0.172102,-0.163044 -0.258153,-0.450634 -0.258153,-0.862772 0,-0.212862 0.01132,-0.414402 0.03397,-0.604619 0.149457,-1.245471 0.518569,-2.201087 1.107337,-2.866848 0.244565,-0.276268 0.495924,-0.414403 0.754076,-0.414403 z" font-size="40" font-style="normal" font-weight="normal" letter-spacing="0" word-spacing="0"/><path id="text76" fill="url(#linearGradient1063)" fill-opacity="1" stroke="none" stroke-dasharray="none" stroke-dashoffset="0" stroke-linecap="butt" stroke-linejoin="miter" stroke-miterlimit="4" stroke-opacity="1" stroke-width="1" d="m 9.0390625,7 -3.515625,10 h 2.2753906 l 0.7226563,-2 h 3.6308596 l 0.720703,2 h 2.275391 L 11.621094,7 Z m 1.3007815,2 1.308594,4 H 9.0527344 Z" font-family="Open Sans" font-size="13.951" font-stretch="normal" font-style="normal" font-variant="normal" font-weight="bold" letter-spacing="0" opacity="1" vector-effect="none" word-spacing="0" style="line-height:1.25;-inkscape-font-specification:'Open Sans Bold'"/></svg>