<svg xmlns="http://www.w3.org/2000/svg" xmlns:svg="http://www.w3.org/2000/svg" xmlns:xlink="http://www.w3.org/1999/xlink" id="svg3202" width="24" height="24" version="1.1"><defs id="defs3204"><linearGradient id="linearGradient3110" x1="21.381" x2="21.381" y1="5.052" y2="44.137" gradientTransform="matrix(0.48571425,0,0,0.5,0.34285661,7.750001)" gradientUnits="userSpaceOnUse" xlink:href="#linearGradient3125"/><linearGradient id="linearGradient3125"><stop id="stop3127" offset="0" stop-color="#fff" stop-opacity="1"/><stop id="stop3129" offset=".081" stop-color="#fff" stop-opacity=".235"/><stop id="stop3131" offset=".923" stop-color="#fff" stop-opacity=".157"/><stop id="stop3133" offset="1" stop-color="#fff" stop-opacity=".392"/></linearGradient><radialGradient id="radialGradient3984" cx="23.335" cy="41.636" r="22.627" fx="23.335" fy="41.636" gradientTransform="matrix(0.48613594,0,0,0.19884311,0.65625012,19.220963)" gradientUnits="userSpaceOnUse" xlink:href="#linearGradient23419"/><linearGradient id="linearGradient23419"><stop id="stop23421" offset="0" stop-color="#000" stop-opacity="1"/><stop id="stop23423" offset="1" stop-color="#000" stop-opacity="0"/></linearGradient><linearGradient id="linearGradient2864" x1="103.95" x2="89.424" y1="-7.666" y2="-7.666" gradientTransform="matrix(0.37654594,0,0,0.35839049,-27.150809,31.67023)" gradientUnits="userSpaceOnUse" spreadMethod="reflect" xlink:href="#linearGradient2793"/><linearGradient id="linearGradient2793"><stop id="stop2795" offset="0" stop-color="#868688" stop-opacity="1"/><stop id="stop2797" offset="1" stop-color="#d9d9da" stop-opacity="1"/></linearGradient><linearGradient id="linearGradient2866" x1="89.018" x2="89.018" y1="22.537" y2="27.546" gradientTransform="matrix(0.8224499,0,0,0.82905873,-65.448598,8.0771844)" gradientUnits="userSpaceOnUse" xlink:href="#linearGradient3858"/><linearGradient id="linearGradient3858"><stop id="stop3860" offset="0" stop-color="#a0a0a0" stop-opacity="1"/><stop id="stop3862" offset="1" stop-color="#4a4a4a" stop-opacity="1"/></linearGradient><linearGradient id="linearGradient3813" x1="103.95" x2="89.424" y1="-7.666" y2="-7.666" gradientTransform="matrix(0.37654594,0,0,0.35839049,-27.150809,26.670231)" gradientUnits="userSpaceOnUse" spreadMethod="reflect" xlink:href="#linearGradient2793-4"/><linearGradient id="linearGradient2793-4"><stop id="stop2795-9" offset="0" stop-color="#868688" stop-opacity="1"/><stop id="stop2797-8" offset="1" stop-color="#d9d9da" stop-opacity="1"/></linearGradient><linearGradient id="linearGradient3815" x1="89.018" x2="89.018" y1="22.537" y2="27.546" gradientTransform="matrix(0.8224499,0,0,0.82905873,-65.448598,3.077185)" gradientUnits="userSpaceOnUse" xlink:href="#linearGradient3858-22"/><linearGradient id="linearGradient3858-22"><stop id="stop3860-52" offset="0" stop-color="#a0a0a0" stop-opacity="1"/><stop id="stop3862-32" offset="1" stop-color="#4a4a4a" stop-opacity="1"/></linearGradient><linearGradient id="linearGradient3878" x1="103.95" x2="89.424" y1="-7.666" y2="-7.666" gradientTransform="matrix(0.37654594,0,0,0.352792,-27.150809,21.746031)" gradientUnits="userSpaceOnUse" spreadMethod="reflect" xlink:href="#linearGradient2793-3-0"/><linearGradient id="linearGradient2793-3-0"><stop id="stop2795-3-9" offset="0" stop-color="#868688" stop-opacity="1"/><stop id="stop2797-7-4" offset="1" stop-color="#d9d9da" stop-opacity="1"/></linearGradient><linearGradient id="linearGradient3880" x1="89.018" x2="89.018" y1="22.537" y2="27.546" gradientTransform="matrix(0.8224499,0,0,0.81610786,-65.448598,-1.478464)" gradientUnits="userSpaceOnUse" xlink:href="#linearGradient3858-4-6"/><linearGradient id="linearGradient3858-4-6"><stop id="stop3860-9-8" offset="0" stop-color="#a0a0a0" stop-opacity="1"/><stop id="stop3862-9-2" offset="1" stop-color="#4a4a4a" stop-opacity="1"/></linearGradient><linearGradient id="linearGradient3844-4-1"><stop id="stop3846-6-6" offset="0" stop-color="#a5a6a8" stop-opacity="1"/><stop id="stop3848-9-0" offset="1" stop-color="#e8e8e8" stop-opacity="1"/></linearGradient><linearGradient id="linearGradient2509-9-1"><stop id="stop2511-0-9" offset="0" stop-color="#b3b3b3" stop-opacity="1"/><stop id="stop2513-3-1" offset="1" stop-color="#dadada" stop-opacity="1"/></linearGradient><linearGradient id="linearGradient3198" x1="102.308" x2="102.308" y1="-2.393" y2="-24.582" gradientTransform="matrix(0.37845152,0,0,0.34136193,-27.338025,17.61463)" gradientUnits="userSpaceOnUse" spreadMethod="reflect" xlink:href="#linearGradient3844-4-1"/><linearGradient id="linearGradient3200" x1="109.956" x2="109.956" y1="-24.911" y2="-2.376" gradientTransform="matrix(0.37845152,0,0,0.34136193,-27.338025,17.61463)" gradientUnits="userSpaceOnUse" xlink:href="#linearGradient2509-9-1"/></defs><metadata id="metadata3207"/><g id="layer1" transform="translate(0,-8)"><g id="layer1-0"><path id="path23417" fill="url(#radialGradient3984)" fill-opacity="1" fill-rule="evenodd" stroke="none" stroke-width="2" d="M 23,27.500001 C 23.000931,29.985169 18.075796,32 12,32 5.9242042,32 0.99906174,29.985169 1.0000001,27.500001 0.99906089,25.014831 5.9242042,23 12,23 c 6.075796,0 11.000939,2.014831 11,4.500001 z" display="inline" opacity=".3" overflow="visible" visibility="visible" style="marker:none"/><path id="path4834" fill="url(#linearGradient2864)" fill-opacity="1" stroke="url(#linearGradient2866)" stroke-dasharray="none" stroke-miterlimit="4" stroke-opacity="1" stroke-width="1" d="m 21.441286,26.825403 c 0,2.028375 -4.234572,3.674596 -9.452159,3.674596 -5.2175947,0 -9.4521646,-1.646221 -9.4521646,-3.674596 0,-6.488122 -1.1553118,-3.598097 9.4521646,-3.674595 10.850407,-0.07892 9.452159,-2.849032 9.452159,3.674595 z"/><path id="path4838" fill="none" stroke="#d8d8d8" stroke-dasharray="none" stroke-miterlimit="4" stroke-opacity="1" stroke-width="1" d="M 21.5,23.000001 C 21.5,24.932997 17.246704,26.5 12.000001,26.5 6.7532954,26.5 2.5,24.932997 2.5,23.000001 2.5,21.067003 6.7532954,19.5 12.000001,19.5 17.246704,19.5 21.5,21.067003 21.5,23.000001 l 0,0 z"/><path id="path4834-7" fill="url(#linearGradient3813)" fill-opacity="1" stroke="url(#linearGradient3815)" stroke-dasharray="none" stroke-miterlimit="4" stroke-opacity="1" stroke-width="1" d="m 21.441286,21.825404 c 0,2.028375 -4.234572,3.674596 -9.452159,3.674596 -5.2175947,0 -9.4521646,-1.646221 -9.4521646,-3.674596 0,-6.488122 -1.1553118,-3.598097 9.4521646,-3.674595 10.850407,-0.07892 9.452159,-2.849032 9.452159,3.674595 z"/><path id="path4838-3" fill="none" stroke="#d8d8d8" stroke-dasharray="none" stroke-miterlimit="4" stroke-opacity="1" stroke-width="1" d="m 21.5,18.000002 c 0,1.932996 -4.253296,3.499999 -9.499999,3.499999 C 6.7532954,21.500001 2.5,19.932998 2.5,18.000002 c 0,-1.932998 4.2532954,-3.500001 9.500001,-3.500001 5.246703,0 9.499999,1.567003 9.499999,3.500001 l 0,0 z"/><path id="path3878" fill="url(#linearGradient3878)" fill-opacity="1" stroke="url(#linearGradient3880)" stroke-dasharray="none" stroke-miterlimit="4" stroke-opacity="1" stroke-width="1" d="m 21.441286,16.976886 c 0,1.99669 -4.234572,3.523114 -9.452159,3.523114 -5.2175947,0 -9.4521646,-1.526424 -9.4521646,-3.523114 0,-7.1907048 -1.1553118,-3.541892 9.4521646,-3.617194 10.850407,-0.0777 9.452159,-3.109574 9.452159,3.617194 z"/><path id="path3880" fill="url(#linearGradient3198)" fill-opacity="1" stroke="url(#linearGradient3200)" stroke-dasharray="none" stroke-miterlimit="4" stroke-opacity="1" stroke-width="1" d="m 21.5,13 c 0,1.932997 -4.253296,3.5 -9.499999,3.5 C 6.7532955,16.5 2.5,14.932997 2.5,13 2.5,11.067004 6.7532955,9.5 12.000001,9.5 17.246704,9.5 21.5,11.067004 21.5,13 l 0,0 z"/></g><rect id="rect3145" width="17" height="19" x="3.5" y="10.5" fill="none" stroke="url(#linearGradient3110)" stroke-opacity="1" stroke-width="1" color="#000" display="inline" enable-background="accumulate" opacity=".5" overflow="visible" rx="17.5" ry="3" visibility="visible" style="marker:none"/></g></svg>