<svg xmlns="http://www.w3.org/2000/svg" xmlns:svg="http://www.w3.org/2000/svg" xmlns:xlink="http://www.w3.org/1999/xlink" id="svg3828" width="24" height="24" version="1.1"><defs id="defs3830"><linearGradient id="linearGradient851"><stop id="stop847" offset="0" stop-color="#a56de2" stop-opacity="1"/><stop id="stop849" offset="1" stop-color="#7239b3" stop-opacity="1"/></linearGradient><linearGradient id="linearGradient3977"><stop id="stop3979" offset="0" stop-color="#fff" stop-opacity="1"/><stop id="stop3981" offset="0" stop-color="#fff" stop-opacity=".235"/><stop id="stop3983" offset="1" stop-color="#fff" stop-opacity=".157"/><stop id="stop3985" offset="1" stop-color="#fff" stop-opacity=".392"/></linearGradient><linearGradient id="linearGradient3600-4"><stop id="stop3602-7" offset="0" stop-color="#f4f4f4" stop-opacity="1"/><stop id="stop3604-6" offset="1" stop-color="#dbdbdb" stop-opacity="1"/></linearGradient><linearGradient id="linearGradient5060"><stop id="stop5062" offset="0" stop-color="#000" stop-opacity="1"/><stop id="stop5064" offset="1" stop-color="#000" stop-opacity="0"/></linearGradient><linearGradient id="linearGradient5048"><stop id="stop5050" offset="0" stop-color="#000" stop-opacity="0"/><stop id="stop5056" offset=".5" stop-color="#000" stop-opacity="1"/><stop id="stop5052" offset="1" stop-color="#000" stop-opacity="0"/></linearGradient><linearGradient id="linearGradient3013" x1="24" x2="24" y1="6.474" y2="41.526" gradientTransform="matrix(0.40540511,0,0,0.51351351,2.2696871,-0.3243195)" gradientUnits="userSpaceOnUse" xlink:href="#linearGradient3977"/><linearGradient id="linearGradient3016" x1="25.132" x2="25.132" y1=".985" y2="47.013" gradientTransform="matrix(0.45714178,0,0,0.43456667,1.0285964,0.90372283)" gradientUnits="userSpaceOnUse" xlink:href="#linearGradient3600-4"/><radialGradient id="radialGradient3021" cx="605.714" cy="486.648" r="117.143" fx="605.714" fy="486.648" gradientTransform="matrix(0.01204859,0,0,0.0082353,13.238793,18.980564)" gradientUnits="userSpaceOnUse" xlink:href="#linearGradient5060"/><radialGradient id="radialGradient3024" cx="605.714" cy="486.648" r="117.143" fx="605.714" fy="486.648" gradientTransform="matrix(-0.01204859,0,0,0.0082353,10.761206,18.980564)" gradientUnits="userSpaceOnUse" xlink:href="#linearGradient5060"/><linearGradient id="linearGradient3027" x1="302.857" x2="302.857" y1="366.648" y2="609.505" gradientTransform="matrix(0.0352071,0,0,0.0082353,-0.724852,18.980547)" gradientUnits="userSpaceOnUse" xlink:href="#linearGradient5048"/><linearGradient id="linearGradient853" x1="30.969" x2="30.969" y1="8.75" y2="55.175" gradientUnits="userSpaceOnUse" xlink:href="#linearGradient851"/></defs><metadata id="metadata3833"/><rect id="rect2879" width="17" height="2" x="3.5" y="22" fill="url(#linearGradient3027)" fill-opacity="1" fill-rule="nonzero" stroke="none" stroke-width="1" display="inline" opacity=".15" overflow="visible" visibility="visible" style="marker:none"/><path id="path2881" fill="url(#radialGradient3024)" fill-opacity="1" fill-rule="nonzero" stroke="none" stroke-width="1" d="m 3.4999999,22.000085 c 0,0 0,1.999891 0,1.999891 C 2.8795275,24.003776 2,23.551901 2,22.999901 2,22.447902 2.6924,22.000085 3.4999999,22.000085 z" display="inline" opacity=".15" overflow="visible" visibility="visible" style="marker:none"/><path id="path2883" fill="url(#radialGradient3021)" fill-opacity="1" fill-rule="nonzero" stroke="none" stroke-width="1" d="m 20.5,22.000085 c 0,0 0,1.999891 0,1.999891 0.620472,0.0038 1.5,-0.448075 1.5,-1.000075 0,-0.551999 -0.692402,-0.999816 -1.5,-0.999816 z" display="inline" opacity=".15" overflow="visible" visibility="visible" style="marker:none"/><path id="path4160-3" fill="url(#linearGradient3016)" fill-opacity="1" stroke="none" d="m 4,2 c 3.6664118,0 15.99998,0.0013 15.99998,0.0013 L 20,22 C 20,22 9.3333337,22 4,22 4,15.33334 4,8.6666817 4,2.0000212 Z" display="inline"/><path id="rect6741-1" fill="none" stroke="url(#linearGradient3013)" stroke-dasharray="none" stroke-dashoffset="0" stroke-linecap="round" stroke-linejoin="miter" stroke-miterlimit="4" stroke-opacity="1" stroke-width="1" d="m 19.5,21.5 -15.0000004,0 0,-19 L 19.5,2.5 z"/><path id="path4160-3-1" fill="none" stroke="#000" stroke-dasharray="none" stroke-dashoffset="0" stroke-linecap="butt" stroke-linejoin="round" stroke-miterlimit="4" stroke-opacity="1" stroke-width="1" d="m 3.4999601,1.4999569 c 3.8955809,0 17.0000589,0.00136 17.0000589,0.00136 l 2.1e-5,20.9987161 c 0,0 -11.3333862,0 -17.0000799,0 0,-7.000018 0,-14.000035 0,-21.0000538 z" display="inline" opacity=".3"/><g id="text4203" fill="url(#linearGradient853)" fill-opacity="1" fill-rule="nonzero" stroke="none" stroke-dasharray="none" stroke-dashoffset="0" stroke-linecap="butt" stroke-linejoin="miter" stroke-miterlimit="4" stroke-opacity="1" stroke-width="1" clip-rule="nonzero" color="#000" color-interpolation="sRGB" color-interpolation-filters="linearRGB" color-rendering="auto" display="inline" font-family="Lobster" font-size="35" font-stretch="normal" font-style="normal" font-variant="normal" font-weight="normal" image-rendering="auto" letter-spacing="0" opacity="1" shape-rendering="auto" text-anchor="middle" text-rendering="auto" transform="matrix(0.46206544,0,0,0.45714284,-2.7365638,-2.6285711)" visibility="visible" word-spacing="0" style="line-height:125%;-inkscape-font-specification:Lobster;text-align:center;isolation:auto;mix-blend-mode:normal;solid-color:#000;solid-opacity:1"><path id="path4171" fill="url(#linearGradient853)" fill-opacity="1" fill-rule="nonzero" stroke-dasharray="none" stroke-dashoffset="0" stroke-linecap="butt" stroke-linejoin="miter" stroke-miterlimit="4" stroke-opacity="1" stroke-width="1" d="M 28.137527,45.125 27.573563,21.216309 q -2.460938,0.922851 -3.845215,2.888183 -1.367188,1.965332 -1.367188,4.887695 0,0.666504 0.06836,1.09375 0.08545,0.410157 0.170898,0.666504 0.08545,0.239258 0.153809,0.375977 0.08545,0.136719 0.08545,0.239258 -0.905762,0 -1.606445,-0.170899 -0.700684,-0.187988 -1.1792,-0.581054 Q 19.592606,30.222656 19.336258,29.573242 19.097,28.923828 19.097,27.966797 q 0,-1.16211 0.495606,-2.290039 0.512695,-1.12793 1.384277,-2.136231 0.888672,-1.0083 2.067871,-1.862793 1.196289,-0.854492 2.546387,-1.469726 1.367187,-0.632324 2.836914,-0.974121 1.486816,-0.358887 2.956543,-0.358887 0.393066,0 0.717773,0.01709 0.341797,0.01709 0.683594,0.05127 l 0.307617,21.533203 7.365723,-21.430664 2.443847,0 -9.724121,26.079102 -5.041504,0 z" clip-rule="nonzero" color="#000" color-interpolation="sRGB" color-interpolation-filters="linearRGB" color-rendering="auto" display="inline" enable-background="accumulate" image-rendering="auto" overflow="visible" shape-rendering="auto" text-rendering="auto" visibility="visible" style="isolation:auto;mix-blend-mode:normal;solid-color:#000;solid-opacity:1"/></g></svg>