<svg xmlns="http://www.w3.org/2000/svg" xmlns:svg="http://www.w3.org/2000/svg" xmlns:xlink="http://www.w3.org/1999/xlink" id="svg3828" width="24" height="24" version="1.1"><defs id="defs3830"><linearGradient id="linearGradient3977"><stop id="stop3979" offset="0" stop-color="#fff" stop-opacity="1"/><stop id="stop3981" offset="0" stop-color="#fff" stop-opacity=".235"/><stop id="stop3983" offset="1" stop-color="#fff" stop-opacity=".157"/><stop id="stop3985" offset="1" stop-color="#fff" stop-opacity=".392"/></linearGradient><linearGradient id="linearGradient3600-4"><stop id="stop3602-7" offset="0" stop-color="#f4f4f4" stop-opacity="1"/><stop id="stop3604-6" offset="1" stop-color="#dbdbdb" stop-opacity="1"/></linearGradient><linearGradient id="linearGradient5060"><stop id="stop5062" offset="0" stop-color="#000" stop-opacity="1"/><stop id="stop5064" offset="1" stop-color="#000" stop-opacity="0"/></linearGradient><linearGradient id="linearGradient5048"><stop id="stop5050" offset="0" stop-color="#000" stop-opacity="0"/><stop id="stop5056" offset=".5" stop-color="#000" stop-opacity="1"/><stop id="stop5052" offset="1" stop-color="#000" stop-opacity="0"/></linearGradient><linearGradient id="linearGradient3013" x1="24" x2="24" y1="6.474" y2="41.526" gradientTransform="matrix(0.40540511,0,0,0.51351351,2.2696871,-0.3243195)" gradientUnits="userSpaceOnUse" xlink:href="#linearGradient3977"/><linearGradient id="linearGradient3016" x1="25.132" x2="25.132" y1=".985" y2="47.013" gradientTransform="matrix(0.45714178,0,0,0.43456667,1.0285964,0.90372283)" gradientUnits="userSpaceOnUse" xlink:href="#linearGradient3600-4"/><radialGradient id="radialGradient3021" cx="605.714" cy="486.648" r="117.143" fx="605.714" fy="486.648" gradientTransform="matrix(0.01204859,0,0,0.0082353,13.238793,18.980564)" gradientUnits="userSpaceOnUse" xlink:href="#linearGradient5060"/><radialGradient id="radialGradient3024" cx="605.714" cy="486.648" r="117.143" fx="605.714" fy="486.648" gradientTransform="matrix(-0.01204859,0,0,0.0082353,10.761206,18.980564)" gradientUnits="userSpaceOnUse" xlink:href="#linearGradient5060"/><linearGradient id="linearGradient3027" x1="302.857" x2="302.857" y1="366.648" y2="609.505" gradientTransform="matrix(0.0352071,0,0,0.0082353,-0.724852,18.980547)" gradientUnits="userSpaceOnUse" xlink:href="#linearGradient5048"/><linearGradient id="linearGradient3104-5"><stop id="stop3106-2" offset="0" stop-color="#aaa" stop-opacity="1"/><stop id="stop3108-5" offset="1" stop-color="#c8c8c8" stop-opacity="1"/></linearGradient><radialGradient id="radialGradient3044" cx="605.714" cy="486.648" r="117.143" fx="605.714" fy="486.648" gradientTransform="matrix(-0.01472605,0,0,0.0095356,21.208141,18.688026)" gradientUnits="userSpaceOnUse" xlink:href="#linearGradient5060"/><linearGradient id="linearGradient3094" x1="33.877" x2="44.119" y1="19.948" y2="30.191" gradientTransform="matrix(0,0.61754391,-0.65185192,0,33.55926,-4.7561431)" gradientUnits="userSpaceOnUse" xlink:href="#linearGradient3412"/><linearGradient id="linearGradient3412"><stop id="stop3414" offset="0" stop-color="#fcfcfc" stop-opacity="1"/><stop id="stop3416" offset="1" stop-color="#cbcdd9" stop-opacity="1"/></linearGradient><linearGradient id="linearGradient3031-5" x1="22.004" x2="22.004" y1="47.813" y2="3.364" gradientTransform="matrix(-0.48571482,0,0,0.477213,24.387752,-0.326798)" gradientUnits="userSpaceOnUse" xlink:href="#linearGradient3104-5"/></defs><metadata id="metadata3833"/><rect id="rect2879" width="17" height="2" x="3.5" y="22" fill="url(#linearGradient3027)" fill-opacity="1" fill-rule="nonzero" stroke="none" stroke-width="1" display="inline" opacity=".15" overflow="visible" visibility="visible" style="marker:none"/><path id="path2881" fill="url(#radialGradient3024)" fill-opacity="1" fill-rule="nonzero" stroke="none" stroke-width="1" d="m 3.4999999,22.000085 c 0,0 0,1.999891 0,1.999891 C 2.8795275,24.003776 2,23.551901 2,22.999901 2,22.447902 2.6924,22.000085 3.4999999,22.000085 z" display="inline" opacity=".15" overflow="visible" visibility="visible" style="marker:none"/><path id="path2883" fill="url(#radialGradient3021)" fill-opacity="1" fill-rule="nonzero" stroke="none" stroke-width="1" d="m 20.5,22.000085 c 0,0 0,1.999891 0,1.999891 0.620472,0.0038 1.5,-0.448075 1.5,-1.000075 0,-0.551999 -0.692402,-0.999816 -1.5,-0.999816 z" display="inline" opacity=".15" overflow="visible" visibility="visible" style="marker:none"/><path id="path4160-3" fill="url(#linearGradient3016)" fill-opacity="1" stroke="none" d="m 4,2 c 3.6664118,0 15.99998,0.0013 15.99998,0.0013 L 20,22 C 20,22 9.3333337,22 4,22 4,15.33334 4,8.6666817 4,2.0000212 Z" display="inline"/><path id="rect6741-1" fill="none" stroke="url(#linearGradient3013)" stroke-dasharray="none" stroke-dashoffset="0" stroke-linecap="round" stroke-linejoin="miter" stroke-miterlimit="4" stroke-opacity="1" stroke-width="1" d="m 19.5,21.5 -15.0000004,0 0,-19 L 19.5,2.5 z"/><path id="path4160-3-1" fill="none" stroke="#000" stroke-dasharray="none" stroke-dashoffset="0" stroke-linecap="butt" stroke-linejoin="round" stroke-miterlimit="4" stroke-opacity="1" stroke-width="1" d="m 3.4999601,1.4999569 c 3.8955809,0 17.0000589,0.00136 17.0000589,0.00136 l 2.1e-5,20.9987161 c 0,0 -11.3333862,0 -17.0000799,0 0,-7.000018 0,-14.000035 0,-21.0000538 z" display="inline" opacity=".3"/><path id="path3475" fill="none" stroke="url(#linearGradient3031-5)" stroke-linecap="butt" stroke-linejoin="miter" stroke-opacity="1" stroke-width="1" d="m 18.082156,5.5 h -1.138394 z m -1.305359,0 h -1.062501 z m -1.229466,0 h -0.941072 z m -1.092858,0 h -0.409822 z m -0.576786,0 h -0.910715 z m -1.092859,0 h -2.398216 z m -2.550002,0 h -1.83661 z m -1.988395,0 H 7.684823 Z m 9.835725,1 h -1.775895 z m -1.973217,0 h -0.850001 z m -1.001787,0 h -0.425 z m -0.591965,0 h -0.774108 z m -0.941072,0 h -0.789287 z m -0.941072,0 H 11.37322 Z m -1.426788,0 H 9.566968 Z m -1.791073,0 H 8.322324 Z m -1.244644,0 H 7.897323 Z m 9.911618,0.9925436 h -1.502681 z m -1.654466,0 h -2.458932 z m -2.610718,0 h -1.199108 z m -1.350894,0 h -1.123215 z m -1.275001,0 h -0.956251 z m -1.108037,0 -1.50268,0.014913 z M 8.443752,7.5074566 H 6 Z M 18.082156,8.5 h -2.079467 z m -2.246431,0 h -2.246431 z m -2.398217,0 h -0.895537 z m -1.047323,0 h -2.109824 z m -2.246431,0 H 8.701788 Z m -1.60893,0 H 7.958037 Z m -0.728572,0 H 7.487501 Z m -0.485715,0 H 6.425 Z m 10.761619,1 h -0.774108 z m -1.016966,0 h -2.868753 z m 1.016966,1.992545 h -1.502681 z m -1.654466,0 h -2.458932 z m -2.610718,0 h -1.199108 z m -1.350894,0 h -1.123215 z m -1.275001,0 h -0.956251 z m -1.108037,0 -1.50268,0.01491 z m -1.639288,0.01491 H 6 Z M 18.082156,12.5 h -1.912502 z m -2.064288,0 h -2.04911 z m -2.200896,0 h -0.789286 z m -0.941072,0 h -1.927681 z m -2.079467,0 H 8.367859 Z m -2.595538,0 H 7.305358 Z m 9.881261,1 h -2.079467 z m -2.246431,0 h -2.246431 z m -2.398217,0 h -0.895537 z m -1.047323,0 h -2.109824 z m -2.246431,0 H 8.701788 Z m -1.60893,0 H 7.958037 Z m -0.728572,0 H 7.487501 Z m -0.485715,0 H 6.425 Z m 10.761619,1 h -1.775895 z m -1.973217,0 h -0.850001 z m -1.001787,0 h -0.425 z m -0.591965,0 h -0.774108 z m -0.941072,0 h -0.789287 z m -0.941072,0 H 11.37322 Z m -1.426788,0 H 9.566968 Z m -1.791073,0 H 8.322324 Z m -1.244644,0 H 7.897323 Z m 9.911618,1.992545 h -1.502681 z m -1.654466,0 h -2.458932 z m -2.610718,0 h -1.199108 z m -1.350894,0 h -1.123215 z m -1.275001,0 h -0.956251 z m -1.108037,0 -1.50268,0.01491 z m -1.639288,0.01491 H 6 Z M 18.082156,17.5 h -1.775895 z m -1.973217,0 h -0.850001 z m -1.001787,0 h -0.425 z m -0.591965,0 h -0.774108 z m -0.941072,0 h -0.789287 z m -0.941072,0 H 11.37322 Z m -1.426788,0 H 9.566968 Z m -1.791073,0 H 8.322324 Z m -1.244644,0 H 7.897323 Z m 9.911618,1 h -1.882145 z m -2.04911,0 h -0.591965 z m -0.743751,0 h -1.350894 z m -1.50268,0 H 11.79822 Z m -2.155359,0 h -1.350895 z m -1.487502,0 H 9.855361 Z m -0.440179,0 h -1.71518 z m -1.897323,0 H 6.910715 Z m 10.275904,1 h -1.882145 z m -2.04911,0 h -0.850001 z m -1.001787,0 h -1.335715 z m -1.487501,0 h -1.441966 z m -1.60893,0 h -0.576787 z m -0.728573,0 h -0.31875 z m -0.485715,0 H 9.825004 Z"/><g id="g4198"><path id="path2883-5" fill="url(#radialGradient3044)" fill-opacity="1" fill-rule="nonzero" stroke="none" stroke-width="1" d="m 12.333333,22.18431 c 0,0 0,2.315662 0,2.315662 C 11.574979,24.504372 10.5,23.981149 10.5,23.341991 c 0,-0.639157 0.846268,-1.157681 1.833333,-1.157681 z" display="inline" opacity=".15" overflow="visible" visibility="visible" style="marker:none"/><path id="path3410" fill="url(#linearGradient3094)" fill-opacity="1" fill-rule="evenodd" stroke="#83899a" stroke-linecap="butt" stroke-linejoin="miter" stroke-opacity="1" stroke-width="1" d="M 21.499999,13 10.5,23.5 21.499999,23.500474 Z M 19.5,17.8 v 3.7 h -3.9 z" opacity=".8"/></g></svg>