<svg xmlns="http://www.w3.org/2000/svg" xmlns:svg="http://www.w3.org/2000/svg" xmlns:xlink="http://www.w3.org/1999/xlink" id="svg3828" width="24" height="24" version="1.1"><defs id="defs3830"><linearGradient id="linearGradient3977"><stop id="stop3979" offset="0" stop-color="#fff" stop-opacity="1"/><stop id="stop3981" offset="0" stop-color="#fff" stop-opacity=".235"/><stop id="stop3983" offset="1" stop-color="#fff" stop-opacity=".157"/><stop id="stop3985" offset="1" stop-color="#fff" stop-opacity=".392"/></linearGradient><linearGradient id="linearGradient3600-4"><stop id="stop3602-7" offset="0" stop-color="#f4f4f4" stop-opacity="1"/><stop id="stop3604-6" offset="1" stop-color="#dbdbdb" stop-opacity="1"/></linearGradient><linearGradient id="linearGradient5060"><stop id="stop5062" offset="0" stop-color="#000" stop-opacity="1"/><stop id="stop5064" offset="1" stop-color="#000" stop-opacity="0"/></linearGradient><linearGradient id="linearGradient5048"><stop id="stop5050" offset="0" stop-color="#000" stop-opacity="0"/><stop id="stop5056" offset=".5" stop-color="#000" stop-opacity="1"/><stop id="stop5052" offset="1" stop-color="#000" stop-opacity="0"/></linearGradient><linearGradient id="linearGradient3013" x1="24" x2="24" y1="6.474" y2="41.526" gradientTransform="matrix(0.40540511,0,0,0.51351351,2.2696871,-0.3243195)" gradientUnits="userSpaceOnUse" xlink:href="#linearGradient3977"/><linearGradient id="linearGradient3016" x1="25.132" x2="25.132" y1=".985" y2="47.013" gradientTransform="matrix(0.45714178,0,0,0.43456667,1.0285964,0.90372283)" gradientUnits="userSpaceOnUse" xlink:href="#linearGradient3600-4"/><radialGradient id="radialGradient3021" cx="605.714" cy="486.648" r="117.143" fx="605.714" fy="486.648" gradientTransform="matrix(0.01204859,0,0,0.0082353,13.238793,18.980564)" gradientUnits="userSpaceOnUse" xlink:href="#linearGradient5060"/><radialGradient id="radialGradient3024" cx="605.714" cy="486.648" r="117.143" fx="605.714" fy="486.648" gradientTransform="matrix(-0.01204859,0,0,0.0082353,10.761206,18.980564)" gradientUnits="userSpaceOnUse" xlink:href="#linearGradient5060"/><linearGradient id="linearGradient3027" x1="302.857" x2="302.857" y1="366.648" y2="609.505" gradientTransform="matrix(0.0352071,0,0,0.0082353,-0.724852,18.980547)" gradientUnits="userSpaceOnUse" xlink:href="#linearGradient5048"/></defs><metadata id="metadata3833"/><rect id="rect2879" width="17" height="2" x="3.5" y="22" fill="url(#linearGradient3027)" fill-opacity="1" fill-rule="nonzero" stroke="none" stroke-width="1" display="inline" opacity=".15" overflow="visible" visibility="visible" style="marker:none"/><path id="path2881" fill="url(#radialGradient3024)" fill-opacity="1" fill-rule="nonzero" stroke="none" stroke-width="1" d="m 3.4999999,22.000085 c 0,0 0,1.999891 0,1.999891 C 2.8795275,24.003776 2,23.551901 2,22.999901 2,22.447902 2.6924,22.000085 3.4999999,22.000085 z" display="inline" opacity=".15" overflow="visible" visibility="visible" style="marker:none"/><path id="path2883" fill="url(#radialGradient3021)" fill-opacity="1" fill-rule="nonzero" stroke="none" stroke-width="1" d="m 20.5,22.000085 c 0,0 0,1.999891 0,1.999891 0.620472,0.0038 1.5,-0.448075 1.5,-1.000075 0,-0.551999 -0.692402,-0.999816 -1.5,-0.999816 z" display="inline" opacity=".15" overflow="visible" visibility="visible" style="marker:none"/><path id="path4160-3" fill="url(#linearGradient3016)" fill-opacity="1" stroke="none" d="m 4,2 c 3.6664118,0 15.99998,0.0013 15.99998,0.0013 L 20,22 C 20,22 9.3333337,22 4,22 4,15.33334 4,8.6666817 4,2.0000212 Z" display="inline"/><path id="rect6741-1" fill="none" stroke="url(#linearGradient3013)" stroke-dasharray="none" stroke-dashoffset="0" stroke-linecap="round" stroke-linejoin="miter" stroke-miterlimit="4" stroke-opacity="1" stroke-width="1" d="m 19.5,21.5 -15.0000004,0 0,-19 L 19.5,2.5 z"/><path id="path4160-3-1" fill="none" stroke="#000" stroke-dasharray="none" stroke-dashoffset="0" stroke-linecap="butt" stroke-linejoin="round" stroke-miterlimit="4" stroke-opacity="1" stroke-width="1" d="m 3.4999601,1.4999569 c 3.8955809,0 17.0000589,0.00136 17.0000589,0.00136 l 2.1e-5,20.9987161 c 0,0 -11.3333862,0 -17.0000799,0 0,-7.000018 0,-14.000035 0,-21.0000538 z" display="inline" opacity=".3"/><path id="path47" fill="#00acd7" stroke-width="1" d="m 11.70862,9.4748835 c -0.150897,0.0033 -0.303928,0.019725 -0.458631,0.0477 -0.757054,0.1382445 -1.3758643,0.5266985 -1.8432633,1.1389255 -0.4344835,0.566145 -0.6451425,1.21121 -0.5595625,1.928767 0.072414,0.605643 0.348852,1.092869 0.8360005,1.461522 0.5266473,0.394985 1.1257333,0.520038 1.7708753,0.434457 0.783387,-0.105329 1.402197,-0.493731 1.87618,-1.119124 0.107625,-0.141869 0.199633,-0.291066 0.276695,-0.446801 0.110886,0.401086 0.333803,0.745881 0.658051,1.026164 0.460816,0.394985 1.007238,0.566068 1.606299,0.579234 0.17116,-0.01975 0.348904,-0.02636 0.526647,-0.05927 0.612227,-0.125079 1.145457,-0.401491 1.57994,-0.842558 0.612227,-0.61881 0.868968,-1.342975 0.757055,-2.231692 -0.08558,-0.631976 -0.408125,-1.112592 -0.928189,-1.468079 -0.572729,-0.388402 -1.204705,-0.4542079 -1.876179,-0.335712 -0.783388,0.138245 -1.362699,0.467477 -1.843265,1.099453 -0.205896,0.269482 -0.359621,0.554398 -0.454773,0.855801 h -2.119187 c -0.09875,0 -0.144828,0.0658 -0.164577,0.105304 -0.09216,0.17116 -0.25026,0.513506 -0.335841,0.717581 -0.04608,0.111913 -0.01314,0.197493 0.125105,0.197493 h 1.270587 c -0.06583,0.09216 -0.118573,0.171109 -0.177821,0.243523 -0.296239,0.335737 -0.671474,0.493705 -1.119124,0.434458 -0.520064,-0.07241 -0.882134,-0.506846 -0.888717,-1.033493 -0.0066,-0.53323 0.223902,-0.961131 0.671552,-1.250786 0.375236,-0.243575 0.776778,-0.302822 1.191513,-0.09875 0.138245,0.06583 0.210607,0.138168 0.309353,0.25008 0.08558,0.09875 0.09219,0.09216 0.190935,0.06583 0.408152,-0.105329 0.691276,-0.184223 1.10601,-0.289553 0.079,-0.01975 0.10533,-0.05274 0.06583,-0.111989 C 13.593542,10.391553 13.34341,10.07559 12.994507,9.8451827 12.594584,9.5736302 12.16131,9.465009 11.70862,9.4748835 Z m 4.599159,1.2677585 c 0.535249,-0.01755 1.006826,0.336072 1.11051,0.906332 0.01316,0.06583 0.01321,0.131584 0.0198,0.217164 -0.03292,0.566146 -0.316065,0.987566 -0.836129,1.257472 -0.348903,0.177744 -0.710896,0.197467 -1.072966,0.03948 -0.473982,-0.210659 -0.724216,-0.730748 -0.605721,-1.244229 0.144828,-0.61881 0.539813,-1.007237 1.152041,-1.145482 0.07817,-0.01811 0.156001,-0.02823 0.232465,-0.03073 z m -9.8568844,0.01761 c -0.026335,0 -0.059222,0.01317 -0.072388,0.03292 l -0.138348,0.177692 c -0.013165,0.01975 -0.00653,0.03291 0.0198,0.03291 l 2.3830251,0.0066 c 0.01975,0 0.052665,-0.01973 0.065831,-0.03947 L 8.8208042,10.79977 c 0.013165,-0.01975 0.00653,-0.03948 -0.0198,-0.03948 z m -0.9940201,0.605592 c -0.02633,0 -0.059351,0.01316 -0.072517,0.03291 L 5.246138,11.576585 c -0.013165,0.01975 -0.00653,0.03292 0.0198,0.03292 l 3.1137217,-0.0067 c 0.02633,0 0.052691,-0.01314 0.059273,-0.03947 l 0.052717,-0.15802 c 0.00658,-0.01975 -0.00658,-0.03947 -0.032915,-0.03947 z m 1.5403391,0.605721 c -0.02633,0 -0.052665,0.01972 -0.065831,0.03947 l -0.09206,0.164577 c -0.013165,0.01975 -0.00666,0.03947 0.01967,0.03947 l 1.4351641,0.0066 c 0.01975,0 0.04603,-0.0197 0.04603,-0.04603 l 0.013245,-0.158019 c 0,-0.02633 -0.01327,-0.04603 -0.0396,-0.04603 z"/></svg>