<svg xmlns="http://www.w3.org/2000/svg" xmlns:svg="http://www.w3.org/2000/svg" xmlns:xlink="http://www.w3.org/1999/xlink" id="svg3828" width="24" height="24" version="1.1"><defs id="defs3830"><linearGradient id="linearGradient3977"><stop id="stop3979" offset="0" stop-color="#fff" stop-opacity="1"/><stop id="stop3981" offset="0" stop-color="#fff" stop-opacity=".235"/><stop id="stop3983" offset="1" stop-color="#fff" stop-opacity=".157"/><stop id="stop3985" offset="1" stop-color="#fff" stop-opacity=".392"/></linearGradient><linearGradient id="linearGradient3600-4"><stop id="stop3602-7" offset="0" stop-color="#f4f4f4" stop-opacity="1"/><stop id="stop3604-6" offset="1" stop-color="#dbdbdb" stop-opacity="1"/></linearGradient><linearGradient id="linearGradient5060"><stop id="stop5062" offset="0" stop-color="#000" stop-opacity="1"/><stop id="stop5064" offset="1" stop-color="#000" stop-opacity="0"/></linearGradient><linearGradient id="linearGradient5048"><stop id="stop5050" offset="0" stop-color="#000" stop-opacity="0"/><stop id="stop5056" offset=".5" stop-color="#000" stop-opacity="1"/><stop id="stop5052" offset="1" stop-color="#000" stop-opacity="0"/></linearGradient><linearGradient id="linearGradient3013" x1="24" x2="24" y1="6.474" y2="41.526" gradientTransform="matrix(0.40540511,0,0,0.51351351,2.2696871,-0.3243195)" gradientUnits="userSpaceOnUse" xlink:href="#linearGradient3977"/><linearGradient id="linearGradient3016" x1="25.132" x2="25.132" y1=".985" y2="47.013" gradientTransform="matrix(0.45714178,0,0,0.43456667,1.0285964,0.90372283)" gradientUnits="userSpaceOnUse" xlink:href="#linearGradient3600-4"/><radialGradient id="radialGradient3021" cx="605.714" cy="486.648" r="117.143" fx="605.714" fy="486.648" gradientTransform="matrix(0.01204859,0,0,0.0082353,13.238793,18.980564)" gradientUnits="userSpaceOnUse" xlink:href="#linearGradient5060"/><radialGradient id="radialGradient3024" cx="605.714" cy="486.648" r="117.143" fx="605.714" fy="486.648" gradientTransform="matrix(-0.01204859,0,0,0.0082353,10.761206,18.980564)" gradientUnits="userSpaceOnUse" xlink:href="#linearGradient5060"/><linearGradient id="linearGradient3027" x1="302.857" x2="302.857" y1="366.648" y2="609.505" gradientTransform="matrix(0.0352071,0,0,0.0082353,-0.724852,18.980547)" gradientUnits="userSpaceOnUse" xlink:href="#linearGradient5048"/><linearGradient id="linearGradient3031" x1="22.004" x2="22.004" y1="47.813" y2="3.364" gradientTransform="matrix(0.48571482,0,0,0.477213,-0.305596,-0.326798)" gradientUnits="userSpaceOnUse" xlink:href="#linearGradient3104-5"/><linearGradient id="linearGradient3104-5"><stop id="stop3106-2" offset="0" stop-color="#aaa" stop-opacity="1"/><stop id="stop3108-5" offset="1" stop-color="#c8c8c8" stop-opacity="1"/></linearGradient></defs><metadata id="metadata3833"/><rect id="rect2879" width="17" height="2" x="3.5" y="22" fill="url(#linearGradient3027)" fill-opacity="1" fill-rule="nonzero" stroke="none" stroke-width="1" display="inline" opacity=".15" overflow="visible" visibility="visible" style="marker:none"/><path id="path2881" fill="url(#radialGradient3024)" fill-opacity="1" fill-rule="nonzero" stroke="none" stroke-width="1" d="m 3.4999999,22.000085 c 0,0 0,1.999891 0,1.999891 C 2.8795275,24.003776 2,23.551901 2,22.999901 2,22.447902 2.6924,22.000085 3.4999999,22.000085 z" display="inline" opacity=".15" overflow="visible" visibility="visible" style="marker:none"/><path id="path2883" fill="url(#radialGradient3021)" fill-opacity="1" fill-rule="nonzero" stroke="none" stroke-width="1" d="m 20.5,22.000085 c 0,0 0,1.999891 0,1.999891 0.620472,0.0038 1.5,-0.448075 1.5,-1.000075 0,-0.551999 -0.692402,-0.999816 -1.5,-0.999816 z" display="inline" opacity=".15" overflow="visible" visibility="visible" style="marker:none"/><path id="path4160-3" fill="url(#linearGradient3016)" fill-opacity="1" stroke="none" d="m 4,2 c 3.6664118,0 15.99998,0.0013 15.99998,0.0013 L 20,22 C 20,22 9.3333337,22 4,22 4,15.33334 4,8.6666817 4,2.0000212 Z" display="inline"/><path id="rect6741-1" fill="none" stroke="url(#linearGradient3013)" stroke-dasharray="none" stroke-dashoffset="0" stroke-linecap="round" stroke-linejoin="miter" stroke-miterlimit="4" stroke-opacity="1" stroke-width="1" d="m 19.5,21.5 -15.0000004,0 0,-19 L 19.5,2.5 z"/><path id="path4160-3-1" fill="none" stroke="#000" stroke-dasharray="none" stroke-dashoffset="0" stroke-linecap="butt" stroke-linejoin="round" stroke-miterlimit="4" stroke-opacity="1" stroke-width="1" d="m 3.4999601,1.4999569 c 3.8955809,0 17.0000589,0.00136 17.0000589,0.00136 l 2.1e-5,20.9987161 c 0,0 -11.3333862,0 -17.0000799,0 0,-7.000018 0,-14.000035 0,-21.0000538 z" display="inline" opacity=".3"/><path id="path4498" fill="#7e8087" fill-opacity="1" fill-rule="nonzero" stroke="none" stroke-dasharray="none" stroke-dashoffset="0" stroke-linecap="round" stroke-linejoin="round" stroke-miterlimit="4" stroke-opacity="1" stroke-width="1" d="m 12.499975,4.9999812 c -0.646841,0 -1.197769,0.4209726 -1.406252,1.0000014 H 8.5 c -0.676163,-0.00957 -0.676163,1.009564 0,1.0000015 h 2.593723 c 0.151865,0.4217796 0.484472,0.7543871 0.906252,0.9062513 V 16.999998 H 7.507781 c -0.676163,-0.0096 -0.676163,1.009564 0,1.000002 h 10.000014 c 0.676162,0.0096 0.676162,-1.009564 0,-1.000002 H 12.999976 V 7.9062354 c 0.42178,-0.1518642 0.754387,-0.4844717 0.906251,-0.9062513 H 16.5 c 0.676162,0.00956 0.676162,-1.009564 0,-1.0000015 H 13.906227 C 13.697745,5.4209538 13.146817,4.9999812 12.499975,4.9999812 Z m 0,1.0000014 c 0.270918,0 0.477826,0.2029333 0.494142,0.4687507 -0.0013,0.020815 -0.0013,0.041685 0,0.0625 -0.01632,0.2658174 -0.223224,0.4687507 -0.494142,0.4687507 -0.270917,0 -0.477825,-0.2029333 -0.494141,-0.4687507 0.0013,-0.020815 0.0013,-0.041685 0,-0.0625 0.01632,-0.2658174 0.223224,-0.4687507 0.494141,-0.4687507 z M 8.501918,7.8535008 C 8.34332,7.8530428 8.197552,7.9429458 8.126917,8.0849466 L 6.046836,12.745109 c -0.02979,0.05959 -0.04486,0.125772 -0.04394,0.192384 l 0.001,0.0625 h -0.0039 v 0.353516 0.146484 c 0.424238,1.00219 1.403031,1.666169 2.501957,1.666995 1.098306,-0.0015 2.074219,-0.665345 2.498051,-1.666995 v -0.146484 -0.0029 -0.350587 h -0.002 l -10e-4,-0.07129 c -3.63e-4,-0.06386 -0.01539,-0.126466 -0.04395,-0.183594 L 8.872992,8.0829936 C 8.80243,7.9426714 8.658962,7.8539503 8.501898,7.8535008 Z m 8.000011,0 c -0.158599,-4.58e-4 -0.304367,0.089445 -0.375002,0.2314458 l -2.08008,4.6601624 c -0.02979,0.05959 -0.04486,0.125772 -0.04395,0.192384 l 10e-4,0.0625 h -0.0039 v 0.353516 0.146484 c 0.424237,1.00219 1.403031,1.666169 2.501956,1.666995 1.098306,-0.0015 2.074218,-0.665345 2.49805,-1.666995 v -0.146484 -0.0029 -0.350587 h -0.002 l -0.001,-0.07129 c -3.62e-4,-0.06386 -0.01539,-0.126466 -0.04394,-0.183594 L 16.873022,8.0829936 C 16.802461,7.9426714 16.658993,7.8539503 16.501929,7.8535008 Z M 8.499965,9.201159 10.149381,12.999993 H 6.850549 Z m 8.000011,0 1.649415,3.798834 h -3.298832 z" baseline-shift="baseline" clip-rule="nonzero" color="#000" color-interpolation="sRGB" color-interpolation-filters="linearRGB" color-rendering="auto" direction="ltr" display="inline" dominant-baseline="auto" enable-background="accumulate" font-family="sans-serif" font-size="medium" font-stretch="normal" font-style="normal" font-variant="normal" font-weight="normal" image-rendering="auto" letter-spacing="normal" opacity="1" overflow="visible" shape-rendering="auto" text-anchor="start" text-decoration="none" text-rendering="auto" vector-effect="none" visibility="visible" word-spacing="normal" writing-mode="lr-tb" style="line-height:normal;font-variant-ligatures:normal;font-variant-position:normal;font-variant-caps:normal;font-variant-numeric:normal;font-variant-alternates:normal;font-feature-settings:normal;text-indent:0;text-align:start;text-decoration-line:none;text-decoration-style:solid;text-decoration-color:#000;text-transform:none;text-orientation:mixed;white-space:normal;shape-padding:0;isolation:auto;mix-blend-mode:normal;solid-color:#000;solid-opacity:1"/></svg>