<svg xmlns="http://www.w3.org/2000/svg" xmlns:svg="http://www.w3.org/2000/svg" xmlns:xlink="http://www.w3.org/1999/xlink" id="svg3828" width="24" height="24" version="1.1"><defs id="defs3830"><linearGradient id="linearGradient3977"><stop id="stop3979" offset="0" stop-color="#fff" stop-opacity="1"/><stop id="stop3981" offset="0" stop-color="#fff" stop-opacity=".235"/><stop id="stop3983" offset="1" stop-color="#fff" stop-opacity=".157"/><stop id="stop3985" offset="1" stop-color="#fff" stop-opacity=".392"/></linearGradient><linearGradient id="linearGradient3600-4"><stop id="stop3602-7" offset="0" stop-color="#f4f4f4" stop-opacity="1"/><stop id="stop3604-6" offset="1" stop-color="#dbdbdb" stop-opacity="1"/></linearGradient><linearGradient id="linearGradient5060"><stop id="stop5062" offset="0" stop-color="#000" stop-opacity="1"/><stop id="stop5064" offset="1" stop-color="#000" stop-opacity="0"/></linearGradient><linearGradient id="linearGradient5048"><stop id="stop5050" offset="0" stop-color="#000" stop-opacity="0"/><stop id="stop5056" offset=".5" stop-color="#000" stop-opacity="1"/><stop id="stop5052" offset="1" stop-color="#000" stop-opacity="0"/></linearGradient><linearGradient id="linearGradient3013" x1="24" x2="24" y1="6.474" y2="41.526" gradientTransform="matrix(0.40540511,0,0,0.51351351,2.2696871,-0.3243195)" gradientUnits="userSpaceOnUse" xlink:href="#linearGradient3977"/><linearGradient id="linearGradient3016" x1="25.132" x2="25.132" y1=".985" y2="47.013" gradientTransform="matrix(0.45714178,0,0,0.43456667,1.0285964,0.90372283)" gradientUnits="userSpaceOnUse" xlink:href="#linearGradient3600-4"/><radialGradient id="radialGradient3021" cx="605.714" cy="486.648" r="117.143" fx="605.714" fy="486.648" gradientTransform="matrix(0.01204859,0,0,0.0082353,13.238793,18.980564)" gradientUnits="userSpaceOnUse" xlink:href="#linearGradient5060"/><radialGradient id="radialGradient3024" cx="605.714" cy="486.648" r="117.143" fx="605.714" fy="486.648" gradientTransform="matrix(-0.01204859,0,0,0.0082353,10.761206,18.980564)" gradientUnits="userSpaceOnUse" xlink:href="#linearGradient5060"/><linearGradient id="linearGradient3027" x1="302.857" x2="302.857" y1="366.648" y2="609.505" gradientTransform="matrix(0.0352071,0,0,0.0082353,-0.724852,18.980547)" gradientUnits="userSpaceOnUse" xlink:href="#linearGradient5048"/></defs><metadata id="metadata3833"/><rect id="rect2879" width="17" height="2" x="3.5" y="22" fill="url(#linearGradient3027)" fill-opacity="1" fill-rule="nonzero" stroke="none" stroke-width="1" display="inline" opacity=".15" overflow="visible" visibility="visible" style="marker:none"/><path id="path2881" fill="url(#radialGradient3024)" fill-opacity="1" fill-rule="nonzero" stroke="none" stroke-width="1" d="m 3.4999999,22.000085 c 0,0 0,1.999891 0,1.999891 C 2.8795275,24.003776 2,23.551901 2,22.999901 2,22.447902 2.6924,22.000085 3.4999999,22.000085 z" display="inline" opacity=".15" overflow="visible" visibility="visible" style="marker:none"/><path id="path2883" fill="url(#radialGradient3021)" fill-opacity="1" fill-rule="nonzero" stroke="none" stroke-width="1" d="m 20.5,22.000085 c 0,0 0,1.999891 0,1.999891 0.620472,0.0038 1.5,-0.448075 1.5,-1.000075 0,-0.551999 -0.692402,-0.999816 -1.5,-0.999816 z" display="inline" opacity=".15" overflow="visible" visibility="visible" style="marker:none"/><path id="path4160-3" fill="url(#linearGradient3016)" fill-opacity="1" stroke="none" d="m 4,2 c 3.6664118,0 15.99998,0.0013 15.99998,0.0013 L 20,22 C 20,22 9.3333337,22 4,22 4,15.33334 4,8.6666817 4,2.0000212 Z" display="inline"/><path id="rect6741-1" fill="none" stroke="url(#linearGradient3013)" stroke-dasharray="none" stroke-dashoffset="0" stroke-linecap="round" stroke-linejoin="miter" stroke-miterlimit="4" stroke-opacity="1" stroke-width="1" d="m 19.5,21.5 -15.0000004,0 0,-19 L 19.5,2.5 z"/><path id="path4160-3-1" fill="none" stroke="#000" stroke-dasharray="none" stroke-dashoffset="0" stroke-linecap="butt" stroke-linejoin="round" stroke-miterlimit="4" stroke-opacity="1" stroke-width="1" d="m 3.4999601,1.4999569 c 3.8955809,0 17.0000589,0.00136 17.0000589,0.00136 l 2.1e-5,20.9987161 c 0,0 -11.3333862,0 -17.0000799,0 0,-7.000018 0,-14.000035 0,-21.0000538 z" display="inline" opacity=".3"/><g id="g4137"><path id="path3475" fill="none" stroke="#7e8087" stroke-linecap="butt" stroke-linejoin="miter" stroke-opacity="1" stroke-width="1" d="m 14,4.5 1.683594,0 z m 1.835938,0 L 18,4.5 Z M 14,6.4921875 l 1.501953,0.015625 z m 1.638672,0.015625 2.361328,0 z M 14,8.5 l 1.380859,0 z m 1.546875,0 0.578125,0 z m 0.728516,0 0.318359,0 z m 0.486328,0 L 18,8.5 Z M 12,10.484375 l 2.152344,0 z m 2.304688,0 1.199218,0 z m 1.351562,0 1.123047,0 z m 1.275391,0 1.068359,0 z M 6,10.5 l 1.8828125,0 z m 2.0488281,0 0.8496094,0 z m 1.0019531,0 1.3359378,0 z m 1.4882808,0 1.261719,0 z M 6,12.5 l 1.9121094,0 z m 2.0644531,0 2.0488279,0 z m 2.2011719,0 0.789063,0 z m 0.941406,0 1.927735,0 z m 2.078125,0 2.429688,0 z m 2.595703,0 L 18,12.5 Z M 6,14.5 l 1.7753906,0 z m 1.9726562,0 0.8496094,0 z m 1.0019532,0 0.4257812,0 z m 0.5917968,0 0.7753908,0 z m 0.9414058,0 0.789063,0 z m 0.941407,0 1.259765,0 z m 1.425781,0 1.640625,0 z m 1.791016,0 1.09375,0 z m 1.246093,0 L 18,14.5 Z M 6,16.492188 l 1.5019531,0 z m 1.6542969,0 2.3457031,0 z M 6,18.5 l 1.8828125,0 z m 2.0488281,0 0.5917969,0 z m 0.7441407,0 L 10,18.5 Z M 6,20.5 l 1.8828125,0 z m 2.0488281,0 0.8496094,0 z m 1.0019531,0 L 10,20.5 Z"/><path id="path3253" fill="#7e8087" fill-opacity="1" d="m 11.135115,20.372332 c 0.930979,-0.432877 1.904948,-0.887695 1.904948,-1.86166 0,-0.303013 -0.129864,-0.303013 -0.6926,-0.346301 -0.627667,-0.04327 -0.887691,-0.454517 -0.887691,-1.017254 C 11.459773,16.367945 11.957578,16 12.5636,16 c 0.909036,0 1.580293,0.800818 1.580293,1.904649 0,0.844403 -0.411233,1.709851 -1.147118,2.337821 C 12.49897,20.6537 12.087738,20.805206 11.394841,21 l -0.259726,-0.627668 z m 3.85288,0 c 0.93068,-0.432877 1.904647,-0.887695 1.904647,-1.86166 0,-0.303013 -0.129861,-0.303013 -0.692597,-0.346301 -0.62767,-0.04327 -0.887393,-0.454517 -0.887393,-1.017254 C 15.312652,16.367945 15.810458,16 16.41648,16 c 0.909038,0 1.579993,0.800818 1.579993,1.904649 0,0.844403 -0.41123,1.709851 -1.147117,2.337821 C 16.35155,20.6537 15.94032,20.805206 15.24772,21 l -0.259725,-0.627668 z"/><path id="path3255" fill="#7e8087" fill-opacity="1" d="M 9.0089563,4.6277055 C 8.0779212,5.0606045 7.103895,5.515152 7.103895,6.489176 c 0,0.3030315 0.12987,0.3030315 0.69264,0.3463215 C 8.42424,6.8787845 8.6842825,7.2900425 8.6842825,7.852815 8.6842825,8.6320325 8.1864475,9 7.5803862,9 6.6712962,9 6,8.1988325 6,7.0949375 6,6.2507815 6.4112537,5.38498 7.147185,4.7572745 7.6450225,4.3463215 8.0565775,4.194806 8.7492175,4 l 0.2597388,0.6277055 z m 3.8531167,0 c -0.930737,0.432899 -1.904764,0.8874465 -1.904764,1.8614705 0,0.3030315 0.12987,0.3030315 0.692641,0.3463215 0.627708,0.043287 0.887446,0.454545 0.887446,1.0173175 C 12.537396,8.6320325 12.039561,9 11.433501,9 10.524409,9 9.8534138,8.1988325 9.8534138,7.0949375 c 0,-0.844156 0.4112542,-1.7099575 1.1471852,-2.337663 C 11.498436,4.3463215 11.909691,4.194806 12.602331,4 l 0.259742,0.6277055 z"/></g></svg>