<svg xmlns="http://www.w3.org/2000/svg" xmlns:svg="http://www.w3.org/2000/svg" xmlns:xlink="http://www.w3.org/1999/xlink" id="svg3828" width="24" height="24" version="1.1"><defs id="defs3830"><linearGradient id="linearGradient3977"><stop id="stop3979" offset="0" stop-color="#fff" stop-opacity="1"/><stop id="stop3981" offset="0" stop-color="#fff" stop-opacity=".235"/><stop id="stop3983" offset="1" stop-color="#fff" stop-opacity=".157"/><stop id="stop3985" offset="1" stop-color="#fff" stop-opacity=".392"/></linearGradient><linearGradient id="linearGradient3600-4"><stop id="stop3602-7" offset="0" stop-color="#f4f4f4" stop-opacity="1"/><stop id="stop3604-6" offset="1" stop-color="#dbdbdb" stop-opacity="1"/></linearGradient><linearGradient id="linearGradient5060"><stop id="stop5062" offset="0" stop-color="#000" stop-opacity="1"/><stop id="stop5064" offset="1" stop-color="#000" stop-opacity="0"/></linearGradient><linearGradient id="linearGradient5048"><stop id="stop5050" offset="0" stop-color="#000" stop-opacity="0"/><stop id="stop5056" offset=".5" stop-color="#000" stop-opacity="1"/><stop id="stop5052" offset="1" stop-color="#000" stop-opacity="0"/></linearGradient><linearGradient id="linearGradient3013" x1="24" x2="24" y1="6.474" y2="41.526" gradientTransform="matrix(0.40540511,0,0,0.51351351,2.2696871,-0.3243195)" gradientUnits="userSpaceOnUse" xlink:href="#linearGradient3977"/><linearGradient id="linearGradient3016" x1="25.132" x2="25.132" y1=".985" y2="47.013" gradientTransform="matrix(0.45714178,0,0,0.43456667,1.0285964,0.90372283)" gradientUnits="userSpaceOnUse" xlink:href="#linearGradient3600-4"/><radialGradient id="radialGradient3021" cx="605.714" cy="486.648" r="117.143" fx="605.714" fy="486.648" gradientTransform="matrix(0.01204859,0,0,0.0082353,13.238793,18.980564)" gradientUnits="userSpaceOnUse" xlink:href="#linearGradient5060"/><radialGradient id="radialGradient3024" cx="605.714" cy="486.648" r="117.143" fx="605.714" fy="486.648" gradientTransform="matrix(-0.01204859,0,0,0.0082353,10.761206,18.980564)" gradientUnits="userSpaceOnUse" xlink:href="#linearGradient5060"/><linearGradient id="linearGradient3027" x1="302.857" x2="302.857" y1="366.648" y2="609.505" gradientTransform="matrix(0.0352071,0,0,0.0082353,-0.724852,18.980547)" gradientUnits="userSpaceOnUse" xlink:href="#linearGradient5048"/></defs><metadata id="metadata3833"/><rect id="rect2879" width="17" height="2" x="3.5" y="22" fill="url(#linearGradient3027)" fill-opacity="1" fill-rule="nonzero" stroke="none" stroke-width="1" display="inline" opacity=".15" overflow="visible" visibility="visible" style="marker:none"/><path id="path2881" fill="url(#radialGradient3024)" fill-opacity="1" fill-rule="nonzero" stroke="none" stroke-width="1" d="m 3.4999999,22.000085 c 0,0 0,1.999891 0,1.999891 C 2.8795275,24.003776 2,23.551901 2,22.999901 2,22.447902 2.6924,22.000085 3.4999999,22.000085 z" display="inline" opacity=".15" overflow="visible" visibility="visible" style="marker:none"/><path id="path2883" fill="url(#radialGradient3021)" fill-opacity="1" fill-rule="nonzero" stroke="none" stroke-width="1" d="m 20.5,22.000085 c 0,0 0,1.999891 0,1.999891 0.620472,0.0038 1.5,-0.448075 1.5,-1.000075 0,-0.551999 -0.692402,-0.999816 -1.5,-0.999816 z" display="inline" opacity=".15" overflow="visible" visibility="visible" style="marker:none"/><path id="path4160-3" fill="url(#linearGradient3016)" fill-opacity="1" stroke="none" d="m 4,2 c 3.6664118,0 15.99998,0.0013 15.99998,0.0013 L 20,22 C 20,22 9.3333337,22 4,22 4,15.33334 4,8.6666817 4,2.0000212 Z" display="inline"/><path id="rect6741-1" fill="none" stroke="url(#linearGradient3013)" stroke-dasharray="none" stroke-dashoffset="0" stroke-linecap="round" stroke-linejoin="miter" stroke-miterlimit="4" stroke-opacity="1" stroke-width="1" d="m 19.5,21.5 -15.0000004,0 0,-19 L 19.5,2.5 z"/><path id="path4160-3-1" fill="none" stroke="#000" stroke-dasharray="none" stroke-dashoffset="0" stroke-linecap="butt" stroke-linejoin="round" stroke-miterlimit="4" stroke-opacity="1" stroke-width="1" d="m 3.4999601,1.4999569 c 3.8955809,0 17.0000589,0.00136 17.0000589,0.00136 l 2.1e-5,20.9987161 c 0,0 -11.3333862,0 -17.0000799,0 0,-7.000018 0,-14.000035 0,-21.0000538 z" display="inline" opacity=".3"/><path id="path9053" fill="#7e8087" fill-opacity="1" fill-rule="nonzero" stroke="none" stroke-dasharray="none" stroke-dashoffset="0" stroke-linecap="butt" stroke-linejoin="miter" stroke-miterlimit="4" stroke-opacity="1" stroke-width="1" d="m 12.455218,14.981775 c -0.03304,-1.179381 0.231187,-2.324308 1.345435,-3.135304 1.17693,-0.917184 2.310408,-2.0647086 2.190623,-3.417378 -0.02615,-1.3045275 -1.546121,-2.3267671 -3.183774,-2.4737465 -1.842093,-0.255193 -4.0710127,0.3758678 -4.6882857,1.8144708 -0.313067,0.6996878 -0.02275,1.9550081 1.027897,1.9550081 0.614526,0 0.8967807,-0.396967 0.9431507,-0.7600983 0.03508,-0.274757 -0.07772,-0.5201124 -0.1443317,-0.7470637 -0.0759,-0.2585964 0.2481247,-0.7597828 0.6010407,-0.9639859 0.294901,-0.1706366 0.603443,-0.2278539 0.648923,-0.2387845 1.059073,-0.2545227 2.114816,0.3076836 2.55529,0.9919565 0.440475,0.684273 -0.04435,1.7221829 -0.741427,2.7315115 -0.697074,1.009328 -1.445158,2.155718 -1.44217,3.373372 0,0.463561 -0.0413,0.621043 -0.01196,0.808589 0.02345,0.149843 0.519613,0.131735 0.899585,0.06145 z m -0.483327,1.587383 c -1.012642,-0.05497 -1.713529,1.092998 -1.105185,1.824413 0.543281,0.807553 2.066513,0.608202 2.327595,-0.306271 0.27143,-0.711121 -0.381772,-1.530013 -1.22241,-1.518143 l 0,1e-6 z" clip-rule="nonzero" color="#000" color-interpolation="sRGB" color-interpolation-filters="linearRGB" color-rendering="auto" display="inline" enable-background="accumulate" font-family="Standard Symbols L" font-size="72" font-style="normal" font-weight="bold" image-rendering="auto" opacity="1" overflow="visible" shape-rendering="auto" text-rendering="auto" visibility="visible" style="isolation:auto;mix-blend-mode:normal;solid-color:#000;solid-opacity:1;marker:none;filter-blend-mode:normal;filter-gaussianBlur-deviation:0"/></svg>