<svg xmlns="http://www.w3.org/2000/svg" xmlns:svg="http://www.w3.org/2000/svg" xmlns:xlink="http://www.w3.org/1999/xlink" id="svg9767" width="16" height="16" version="1.1"><defs id="defs9769"><linearGradient id="linearGradient7191" x1="24" x2="24" y1="7.042" y2="40.958" gradientTransform="matrix(0.2972973,0,0,0.32432436,0.864861,0.71621006)" gradientUnits="userSpaceOnUse" xlink:href="#linearGradient3924-4-8"/><linearGradient id="linearGradient3924-4-8"><stop id="stop3926-0-4" offset="0" stop-color="#fff" stop-opacity="1"/><stop id="stop3928-6-8" offset="0" stop-color="#fff" stop-opacity=".235"/><stop id="stop3930-2-1" offset="1" stop-color="#fff" stop-opacity=".157"/><stop id="stop3932-9-0" offset="1" stop-color="#fff" stop-opacity=".392"/></linearGradient><linearGradient id="linearGradient895"><stop id="stop891" offset="0" stop-color="#8cd5ff" stop-opacity="1"/><stop id="stop893" offset="1" stop-color="#3689e6" stop-opacity="1"/></linearGradient><linearGradient id="linearGradient889" x1="12" x2="12" y1="5.369" y2="40.669" gradientTransform="matrix(0.69230769,0,0,0.69999999,-0.30770509,-5.1499782)" gradientUnits="userSpaceOnUse" xlink:href="#linearGradient895"/></defs><metadata id="metadata9772"/><rect id="rect3457-8" width="9" height="14" x="3.5" y="1.5" fill="url(#linearGradient889)" fill-opacity="1" stroke="none" stroke-dasharray="none" stroke-dashoffset="0" stroke-linecap="butt" stroke-linejoin="miter" stroke-miterlimit="4" stroke-opacity=".831" stroke-width="1" display="inline" opacity="1" rx="0" ry="0"/><path id="rect5505-21" fill="#000" fill-opacity="1" fill-rule="nonzero" stroke="none" stroke-dasharray="none" stroke-dashoffset="0" stroke-linecap="round" stroke-linejoin="round" stroke-miterlimit="4" stroke-opacity="1" stroke-width="1" d="M 1.5 1 C 1.223869 1.0000276 1.000028 1.2238691 1 1.5 L 1 15.5 C 1.000028 15.776131 1.223869 15.999972 1.5 16 L 3 16 L 13 16 L 14.5 16 C 14.776131 15.999972 14.999972 15.776131 15 15.5 L 15 1.5 C 14.999972 1.2238691 14.776131 1.0000276 14.5 1 L 13 1 L 3 1 L 1.5 1 z M 2 2 L 3 2 L 3 3 L 2 3 L 2 2 z M 4 2 L 12 2 L 12 15 L 4 15 L 4 2 z M 13 2 L 14 2 L 14 3 L 13 3 L 13 2 z M 2 4 L 3 4 L 3 5 L 2 5 L 2 4 z M 13 4 L 14 4 L 14 5 L 13 5 L 13 4 z M 2 6 L 3 6 L 3 7 L 2 7 L 2 6 z M 13 6 L 14 6 L 14 7 L 13 7 L 13 6 z M 2 8 L 3 8 L 3 9 L 2 9 L 2 8 z M 13 8 L 14 8 L 14 9 L 13 9 L 13 8 z M 2 10 L 3 10 L 3 11 L 2 11 L 2 10 z M 13 10 L 14 10 L 14 11 L 13 11 L 13 10 z M 2 12 L 3 12 L 3 13 L 2 13 L 2 12 z M 13 12 L 14 12 L 14 13 L 13 13 L 13 12 z M 2 14 L 3 14 L 3 15 L 2 15 L 2 14 z M 13 14 L 14 14 L 14 15 L 13 15 L 13 14 z" baseline-shift="baseline" clip-rule="nonzero" color="#000" color-interpolation="sRGB" color-interpolation-filters="linearRGB" color-rendering="auto" direction="ltr" display="inline" enable-background="accumulate" font-family="sans-serif" font-size="medium" font-stretch="normal" font-style="normal" font-variant="normal" font-weight="normal" image-rendering="auto" letter-spacing="normal" opacity=".7" overflow="visible" shape-rendering="auto" text-anchor="start" text-decoration="none" text-rendering="auto" visibility="visible" word-spacing="normal" writing-mode="lr-tb" style="line-height:normal;text-indent:0;text-align:start;text-decoration-line:none;text-decoration-style:solid;text-decoration-color:#000;text-transform:none;block-progression:tb;white-space:normal;isolation:auto;mix-blend-mode:normal;solid-color:#000;solid-opacity:1;marker:none"/><path id="path4320" fill="none" stroke="#000" stroke-dasharray="none" stroke-dashoffset="0" stroke-linecap="square" stroke-linejoin="round" stroke-miterlimit="4" stroke-opacity=".588" stroke-width="1" d="m 4.5000013,8.4999998 c 2.33333,0 4.66666,0 6.9999997,0" display="block" overflow="visible" visibility="visible" style="marker:none"/><path stroke-opacity="1" style="marker:none" id="path4820" fill="none" stroke="#fff" stroke-dasharray="none" stroke-dashoffset="0" stroke-linecap="square" stroke-linejoin="round" stroke-miterlimit="4" stroke-width="1" d="m 4.5000013,9.4999998 c 2.3333,0 4.66661,0 6.9998997,0" display="block" opacity=".2" overflow="visible" visibility="visible"/><rect id="rect6741-0-3" width="11" height="12" x="2.5" y="2.5" fill="none" stroke="url(#linearGradient7191)" stroke-dasharray="none" stroke-dashoffset="0" stroke-linecap="round" stroke-linejoin="miter" stroke-miterlimit="4" stroke-opacity="1" stroke-width="1" opacity=".3"/><path display="inline" style="line-height:normal;text-indent:0;text-align:start;text-decoration-line:none;text-decoration-style:solid;text-decoration-color:#000;text-transform:none;block-progression:tb;white-space:normal;isolation:auto;mix-blend-mode:normal;solid-color:#000;solid-opacity:1;marker:none" id="path4249" fill="#fff" fill-opacity="1" fill-rule="nonzero" stroke="none" stroke-dasharray="none" stroke-dashoffset="0" stroke-linecap="round" stroke-linejoin="round" stroke-miterlimit="4" stroke-opacity="1" stroke-width="1" d="M 2,2 3,2 3,3 2,3 Z m 11,0 1,0 0,1 -1,0 z M 2,4 3,4 3,5 2,5 Z m 11,0 1,0 0,1 -1,0 z M 2,6 3,6 3,7 2,7 Z m 11,0 1,0 0,1 -1,0 z M 2,8 3,8 3,9 2,9 Z m 11,0 1,0 0,1 -1,0 z m -11,2 1,0 0,1 -1,0 z m 11,0 1,0 0,1 -1,0 z m -11,2 1,0 0,1 -1,0 z m 11,0 1,0 0,1 -1,0 z m -11,2 1,0 0,1 -1,0 z m 11,0 1,0 0,1 -1,0 z" baseline-shift="baseline" clip-rule="nonzero" color="#000" color-interpolation="sRGB" color-interpolation-filters="linearRGB" color-rendering="auto" direction="ltr" enable-background="accumulate" font-family="sans-serif" font-size="medium" font-stretch="normal" font-style="normal" font-variant="normal" font-weight="normal" image-rendering="auto" letter-spacing="normal" opacity=".1" overflow="visible" shape-rendering="auto" text-anchor="start" text-decoration="none" text-rendering="auto" visibility="visible" word-spacing="normal" writing-mode="lr-tb"/></svg>