<svg xmlns="http://www.w3.org/2000/svg" xmlns:svg="http://www.w3.org/2000/svg" xmlns:xlink="http://www.w3.org/1999/xlink" id="svg3123" width="16" height="16" version="1.1"><defs id="defs3125"><linearGradient id="linearGradient4011"><stop id="stop4013" offset="0" stop-color="#fff" stop-opacity="1"/><stop id="stop4015" offset=".508" stop-color="#fff" stop-opacity=".235"/><stop id="stop4017" offset=".835" stop-color="#fff" stop-opacity=".157"/><stop id="stop4019" offset="1" stop-color="#fff" stop-opacity=".392"/></linearGradient><linearGradient id="linearGradient12398-3" x1="71.204" x2="71.204" y1="6.238" y2="44.341" gradientTransform="matrix(0.35135153,0,0,0.35135153,-17.203685,-0.90930167)" gradientUnits="userSpaceOnUse" xlink:href="#linearGradient4011"/><linearGradient id="linearGradient11527-6-5" x1="2035.165" x2="2035.165" y1="3208.074" y2="3241.997" gradientTransform="matrix(0.57484957,0,0,0.4297553,-1164.0142,-1377.7717)" gradientUnits="userSpaceOnUse" xlink:href="#linearGradient27416-1-5"/><linearGradient id="linearGradient27416-1-5"><stop id="stop27420-2-2" offset="0" stop-color="#9bdb4d" stop-opacity="1"/><stop id="stop27422-3-2" offset="1" stop-color="#68b723" stop-opacity="1"/></linearGradient></defs><metadata id="metadata3128"/><path id="path2555-7-8-5-0-9" fill="url(#linearGradient11527-6-5)" fill-opacity="1" fill-rule="nonzero" stroke="none" stroke-width="1" d="M 8,0.5 C 3.861757,0.5 0.49999999,3.8617571 0.49999999,8 0.49999999,12.138243 3.861757,15.5 8,15.5 12.138243,15.5 15.500007,12.138243 15.5,8 15.5,3.8617571 12.138243,0.5 8,0.5 Z" color="#000" display="inline" enable-background="accumulate" opacity=".99" overflow="visible" visibility="visible" style="marker:none"/><path clip-rule="nonzero" style="isolation:auto;mix-blend-mode:normal;solid-color:#000;solid-opacity:1;marker:none;filter-blend-mode:normal;filter-gaussianBlur-deviation:0" id="path4248" fill="#206b00" fill-opacity="1" fill-rule="nonzero" stroke="none" stroke-dasharray="none" stroke-dashoffset="0" stroke-linecap="butt" stroke-linejoin="miter" stroke-miterlimit="4" stroke-opacity="1" stroke-width="1" d="M 7,4.0214844 A 0.97846189,0.97846189 0 0 0 6.0214844,5 l 0,3.0214844 -2.0214844,0 A 0.97846189,0.97846189 0 0 0 3.3085938,9.6914062 l 4,3.9999998 a 0.97846189,0.97846189 0 0 0 1.3828124,0 L 12.691406,9.6914062 A 0.97846189,0.97846189 0 0 0 12,8.0214844 l -2.0214844,0 0,-3.0214844 A 0.97846189,0.97846189 0 0 0 9,4.0214844 l -2,0 z" color="#000" color-interpolation="sRGB" color-interpolation-filters="linearRGB" color-rendering="auto" display="inline" enable-background="accumulate" image-rendering="auto" opacity=".07" overflow="visible" shape-rendering="auto" text-rendering="auto" visibility="visible"/><path clip-rule="nonzero" style="isolation:auto;mix-blend-mode:normal;solid-color:#000;solid-opacity:1;marker:none" id="rect3005-8" fill="#206b00" fill-opacity="1" fill-rule="nonzero" stroke="none" stroke-dasharray="none" stroke-dashoffset="0" stroke-linecap="butt" stroke-linejoin="miter" stroke-miterlimit="4" stroke-opacity="1" stroke-width="1" d="m 4,9 4,4 4,-4 z" color="#000" color-interpolation="sRGB" color-interpolation-filters="linearRGB" color-rendering="auto" display="inline" enable-background="accumulate" image-rendering="auto" opacity=".2" overflow="visible" shape-rendering="auto" text-rendering="auto" visibility="visible"/><path id="rect3005" fill="#fff" fill-opacity="1" fill-rule="nonzero" stroke="none" stroke-width="1" d="M 7,4 7,8 4,8 8,12 12,8 9,8 9,4 Z" color="#000" display="inline" enable-background="accumulate" overflow="visible" visibility="visible" style="marker:none"/><path id="path2555-7-8-5-1" fill="none" stroke="#206b00" stroke-dasharray="none" stroke-dashoffset="0" stroke-linecap="round" stroke-linejoin="round" stroke-miterlimit="4" stroke-opacity="1" stroke-width="1" d="M 8,0.49999999 C 3.861757,0.49999999 0.49999998,3.8617571 0.49999998,8 0.49999998,12.138243 3.861757,15.5 8,15.5 12.138243,15.5 15.500007,12.138243 15.5,8 15.5,3.8617571 12.138243,0.49999999 8,0.49999999 Z" color="#000" display="inline" enable-background="accumulate" opacity=".5" overflow="visible" visibility="visible" style="marker:none"/><path id="path8655-6-0-9-5-0" fill="none" stroke="url(#linearGradient12398-3)" stroke-dasharray="none" stroke-dashoffset="0" stroke-linecap="round" stroke-linejoin="round" stroke-miterlimit="4" stroke-opacity="1" stroke-width="1" d="M 14.5,7.9997673 C 14.5,11.58974 11.589634,14.500004 8.000079,14.500004 4.410195,14.500004 1.5,11.589706 1.5,7.9997673 1.5,4.4099659 4.410195,1.4999965 8.000079,1.4999965 11.589634,1.4999965 14.5,4.4099659 14.5,7.9997673 Z" color="#000" display="inline" enable-background="accumulate" opacity=".5" overflow="visible" visibility="visible" style="marker:none"/></svg>