<svg xmlns="http://www.w3.org/2000/svg" xmlns:svg="http://www.w3.org/2000/svg" xmlns:xlink="http://www.w3.org/1999/xlink" id="svg7989" width="16" height="16" version="1.1"><defs id="defs7991"><linearGradient id="linearGradient10270-0-0" x1="11.35" x2="11.35" y1=".667" y2="8.172" gradientTransform="matrix(0.89189031,0,0,0.94046961,3.1436,5.346537)" gradientUnits="userSpaceOnUse" xlink:href="#linearGradient3454-2-5-0-3-8-7"/><linearGradient id="linearGradient3454-2-5-0-3-8-7"><stop id="stop3456-4-9-38-1-9-7" offset="0" stop-color="#fff" stop-opacity="1"/><stop id="stop3458-39-80-3-5-6-2" offset=".01" stop-color="#fff" stop-opacity=".235"/><stop id="stop3460-7-0-2-4-4-4" offset=".99" stop-color="#fff" stop-opacity=".157"/><stop id="stop3462-0-9-8-7-8-46" offset="1" stop-color="#fff" stop-opacity=".392"/></linearGradient><linearGradient id="linearGradient10268-4-4" x1="76.041" x2="76.041" y1="49.372" y2="35.431" gradientTransform="matrix(0.38156409,0,0,0.32896952,-18.242,0.28216681)" gradientUnits="userSpaceOnUse" xlink:href="#linearGradient6129-963-697-142-998-580-273-44-2-2-2-6"/><linearGradient id="linearGradient6129-963-697-142-998-580-273-44-2-2-2-6"><stop id="stop2661-01-6-2-4-6" offset="0" stop-color="#0a0a0a" stop-opacity=".498"/><stop id="stop2663-64-5-5-3-6" offset="1" stop-color="#0a0a0a" stop-opacity="0"/></linearGradient><linearGradient id="linearGradient10262-3-6" x1="84.309" x2="84.309" y1="16.111" y2="42.924" gradientTransform="matrix(0.33333327,0,0,0.34148555,-17.0866,-0.60407319)" gradientUnits="userSpaceOnUse" xlink:href="#linearGradient4632-92-3-0-8-1"/><linearGradient id="linearGradient4632-92-3-0-8-1"><stop id="stop4634-68-8-0-2-9" offset="0" stop-color="#cdc9e3" stop-opacity="1"/><stop id="stop4636-8-21-7-1-4" offset="1" stop-color="#9389cb" stop-opacity="1"/></linearGradient><linearGradient id="linearGradient10473-4-0-02" x1="-51.786" x2="-51.786" y1="53.514" y2="2.061" gradientTransform="matrix(0.31070043,0,0,0.27489387,20.1768,-0.10316319)" gradientUnits="userSpaceOnUse" xlink:href="#linearGradient3104-8-8-97-4-6-11-5-5-4-4-2"/><linearGradient id="linearGradient3104-8-8-97-4-6-11-5-5-4-4-2"><stop id="stop3106-5-4-3-5-0-2-1-0-7-7-7" offset="0" stop-color="#000" stop-opacity=".322"/><stop id="stop3108-4-3-7-8-2-0-7-9-0-6-6" offset="1" stop-color="#000" stop-opacity=".278"/></linearGradient><linearGradient id="linearGradient4346-1"><stop id="stop4348-9" offset="0" stop-color="#fff" stop-opacity="1"/><stop id="stop4350-2" offset="1" stop-color="#d8d8d8" stop-opacity="1"/></linearGradient><linearGradient id="linearGradient7987" x1="62.989" x2="62.989" y1="11.645" y2="15.385" gradientTransform="matrix(0.33333327,0,0,0.32971018,-17.441,-0.64784319)" gradientUnits="userSpaceOnUse" xlink:href="#linearGradient4346-1"/></defs><metadata id="metadata7994"/><g id="layer1"><path d="m 2.0229,1.976667 0,1 -1,0 0,4 14,0 0,-4 -7,0 0,-1 -6,0 z" style="marker:none" id="rect4170-0-5" fill="url(#linearGradient7987)" fill-opacity="1" fill-rule="nonzero" stroke="none" stroke-width="1" color="#000" display="inline" enable-background="accumulate" overflow="visible" visibility="visible"/><path id="rect4170-9" fill="none" stroke="url(#linearGradient10473-4-0-02)" stroke-dasharray="none" stroke-dashoffset="0" stroke-linecap="butt" stroke-linejoin="miter" stroke-miterlimit="4" stroke-opacity="1" stroke-width="1" d="m 15.5229,4 0,-1.273333 c 0,-0.1385 -0.1115,-0.25 -0.25,-0.25 l -6.75,0 0,-0.71875 c 0,-0.1385 -0.1115,-0.25 -0.25,-0.25 l -6.5,0 c -0.1385,0 -0.25,0.1115 -0.25,0.25 l 0,0.71875 -0.75,0 c -0.1385,0 -0.25,0.1115 -0.25,0.25 L 0.5229,4" color="#000" display="inline" enable-background="accumulate" opacity=".8" overflow="visible" visibility="visible" style="marker:none"/><path d="m 0.5595,4.453367 c 0.7573,0 14.3995,0.0316 14.9867,0.0316 0,0.6186 -0.028,10.00962 -0.062,10.00962 -5.26,0.0178 -13.4526,-0.014 -14.9842,-0.014 0,-1.16748 0.06,-7.62459 0.06,-10.02721 z" style="marker:none" id="rect3086-8" fill="url(#linearGradient10262-3-6)" fill-opacity="1" fill-rule="nonzero" stroke="none" stroke-width="1" color="#000" display="inline" enable-background="accumulate" overflow="visible" visibility="visible"/><path id="rect3086-1-7" fill="url(#linearGradient10268-4-4)" fill-opacity="1" fill-rule="nonzero" stroke="none" stroke-width="1" d="m 0.0866,3.976647 c 0.8053,0 15.3119,0.0341 15.9363,0.0341 0,0.67729 -0.03,10.95971 -0.066,10.95971 -5.5933,0.02 -14.305,-0.0148 -15.9336,-0.0148 0,-1.2783 0.064,-8.34831 0.064,-10.97898 z" color="#000" display="inline" enable-background="accumulate" opacity=".4" overflow="visible" visibility="visible" style="marker:none"/><path id="rect3086-9-8" fill="none" stroke="url(#linearGradient10270-0-0)" stroke-dasharray="none" stroke-dashoffset="0" stroke-linecap="round" stroke-linejoin="miter" stroke-miterlimit="4" stroke-opacity="1" stroke-width="1" d="m 1.5746,5.476667 c 0.6544,0 12.441,0.0251 12.9483,0.0251 0,0.49259 -0.025,7.97055 -0.054,7.97055 -4.5445,0.0142 -11.6228,-0.0111 -12.9461,-0.0111 0,-0.92965 0.052,-6.07138 0.052,-7.98455 z" color="#000" display="inline" enable-background="accumulate" opacity=".5" overflow="visible" visibility="visible" style="marker:none"/><path id="path3575-5-8-4-7-6-5" fill="#fff" fill-opacity=".552" fill-rule="nonzero" stroke="none" stroke-width="1.7" d="m 7.6481,7.003947 c -0.1039,0 -0.1875,0.0836 -0.1875,0.1875 l 0,0.63282 c -0.2057,0.0528 -0.3956,0.14099 -0.5743,0.24608 l -0.457,-0.45703 c -0.073,-0.0735 -0.1843,-0.0735 -0.2578,0 l -0.539,0.53906 c -0.074,0.0735 -0.074,0.18437 0,0.25782 l 0.457,0.45703 c -0.1051,0.17859 -0.1933,0.36848 -0.2461,0.57422 l -0.6328,0 c -0.1039,0 -0.1875,0.0836 -0.1875,0.1875 l 0,0.75 c 0,0.10388 0.084,0.1875 0.1875,0.1875 l 0.6328,0 c 0.052,0.20574 0.141,0.39563 0.2461,0.57422 l -0.457,0.45703 c -0.074,0.0735 -0.074,0.18436 0,0.25782 l 0.539,0.53906 c 0.074,0.0735 0.1845,0.0735 0.2578,0 l 0.457,-0.45703 c 0.1787,0.10509 0.3686,0.19331 0.5743,0.24608 l 0,0.63282 c 0,0.10388 0.084,0.1875 0.1875,0.1875 l 0.75,0 c 0.1039,0 0.1875,-0.0836 0.1875,-0.1875 l 0,-0.63282 c 0.2057,-0.0528 0.3956,-0.14099 0.5742,-0.24608 l 0.4571,0.45703 c 0.073,0.0735 0.1843,0.0735 0.2578,0 l 0.539,-0.53906 c 0.074,-0.0735 0.074,-0.18437 0,-0.25782 l -0.457,-0.45703 c 0.1051,-0.17859 0.1933,-0.36848 0.2461,-0.57422 l 0.6328,0 c 0.1039,0 0.1875,-0.0836 0.1875,-0.1875 l 0,-0.75 c 0,-0.10388 -0.084,-0.1875 -0.1875,-0.1875 l -0.6328,0 c -0.052,-0.20574 -0.141,-0.39563 -0.2461,-0.57422 l 0.457,-0.45703 c 0.074,-0.0735 0.074,-0.18436 0,-0.25782 l -0.539,-0.53906 c -0.074,-0.0735 -0.1845,-0.0735 -0.2578,0 L 9.1598,8.070347 C 8.9812,7.965257 8.7913,7.877037 8.5856,7.824267 l 0,-0.63282 c 0,-0.10388 -0.084,-0.1875 -0.1875,-0.1875 l -0.75,0 z m 0.375,1.875 c 0.6213,0 1.125,0.50368 1.125,1.125 0,0.62132 -0.5037,1.125 -1.125,1.125 -0.6214,0 -1.125,-0.50368 -1.125,-1.125 0,-0.62132 0.5036,-1.125 1.125,-1.125 z" color="#000" display="inline" enable-background="accumulate" opacity=".3" overflow="visible" visibility="visible" style="marker:none"/><path d="m 7.6481,6.503947 c -0.1039,0 -0.1875,0.0836 -0.1875,0.1875 l 0,0.63282 c -0.2057,0.0528 -0.3956,0.14099 -0.5743,0.24608 l -0.457,-0.45703 c -0.073,-0.0735 -0.1843,-0.0735 -0.2578,0 l -0.539,0.53906 c -0.074,0.0735 -0.074,0.18437 0,0.25782 l 0.457,0.45703 c -0.1051,0.17859 -0.1933,0.36848 -0.2461,0.57422 l -0.6328,0 c -0.1039,0 -0.1875,0.0836 -0.1875,0.1875 l 0,0.75 c 0,0.10388 0.084,0.1875 0.1875,0.1875 l 0.6328,0 c 0.052,0.20574 0.141,0.39563 0.2461,0.57422 l -0.457,0.45703 c -0.074,0.0735 -0.074,0.18436 0,0.25782 l 0.539,0.53906 c 0.074,0.0735 0.1845,0.0735 0.2578,0 l 0.457,-0.45703 c 0.1787,0.10509 0.3686,0.19331 0.5743,0.24608 l 0,0.63282 c 0,0.10388 0.084,0.1875 0.1875,0.1875 l 0.75,0 c 0.1039,0 0.1875,-0.0836 0.1875,-0.1875 l 0,-0.63282 c 0.2057,-0.0528 0.3956,-0.14099 0.5742,-0.24608 l 0.4571,0.45703 c 0.073,0.0735 0.1843,0.0735 0.2578,0 l 0.539,-0.53906 c 0.074,-0.0735 0.074,-0.18437 0,-0.25782 l -0.457,-0.45703 c 0.1051,-0.17859 0.1933,-0.36848 0.2461,-0.57422 l 0.6328,0 c 0.1039,0 0.1875,-0.0836 0.1875,-0.1875 l 0,-0.75 c 0,-0.10388 -0.084,-0.1875 -0.1875,-0.1875 l -0.6328,0 c -0.052,-0.20574 -0.141,-0.39563 -0.2461,-0.57422 l 0.457,-0.45703 c 0.074,-0.0735 0.074,-0.18436 0,-0.25782 l -0.539,-0.53906 c -0.074,-0.0735 -0.1845,-0.0735 -0.2578,0 L 9.1598,7.570347 C 8.9812,7.465257 8.7913,7.377037 8.5856,7.324267 l 0,-0.63282 c 0,-0.10388 -0.084,-0.1875 -0.1875,-0.1875 l -0.75,0 z m 0.375,1.875 c 0.6213,0 1.125,0.50368 1.125,1.125 0,0.62132 -0.5037,1.125 -1.125,1.125 -0.6214,0 -1.125,-0.50368 -1.125,-1.125 0,-0.62132 0.5036,-1.125 1.125,-1.125 z" style="marker:none" id="path3575-5-8-4-7-6" fill="#382a72" fill-opacity=".552" fill-rule="nonzero" stroke="none" stroke-width="1.7" color="#000" display="inline" enable-background="accumulate" overflow="visible" visibility="visible"/><path id="rect3086-8-1" fill="none" stroke="#000" stroke-dasharray="none" stroke-dashoffset="0" stroke-linecap="round" stroke-linejoin="round" stroke-miterlimit="4" stroke-opacity="1" stroke-width="1" d="m 0.5595,4.453367 c 0.7573,0 14.3995,0.0316 14.9867,0.0316 0,0.6186 -0.028,10.00962 -0.062,10.00962 -5.26,0.0178 -13.4526,-0.014 -14.9842,-0.014 0,-1.16748 0.06,-7.62459 0.06,-10.02721 z" color="#000" display="inline" enable-background="accumulate" opacity=".3" overflow="visible" visibility="visible" style="marker:none"/></g></svg>