<svg xmlns="http://www.w3.org/2000/svg" xmlns:svg="http://www.w3.org/2000/svg" xmlns:xlink="http://www.w3.org/1999/xlink" id="svg4215" width="16" height="16" version="1.1"><defs id="defs4217"><linearGradient id="linearGradient19627"><stop id="stop19629" offset="0" stop-color="#585858" stop-opacity="1"/><stop id="stop19631" offset="1" stop-color="#9b9b9b" stop-opacity="1"/></linearGradient><linearGradient id="linearGradient15009-5-8"><stop id="stop15011-5-3" offset="0" stop-color="#383e34" stop-opacity="1"/><stop id="stop15013-7-58" offset="1" stop-color="#84917c" stop-opacity="1"/></linearGradient><linearGradient id="linearGradient15009-2"><stop id="stop15011-8" offset="0" stop-color="#303030" stop-opacity="1"/><stop id="stop15013-2" offset="1" stop-color="#959595" stop-opacity="1"/></linearGradient><linearGradient id="linearGradient60943"><stop id="stop60945" offset="0" stop-color="#95c48c" stop-opacity="1"/><stop id="stop60947" offset="1" stop-color="#a6dc98" stop-opacity="1"/></linearGradient><linearGradient id="linearGradient60637"><stop id="stop60639" offset="0" stop-color="#4c84d8" stop-opacity="1"/><stop id="stop60641" offset="1" stop-color="#6b9bdc" stop-opacity="1"/></linearGradient><radialGradient id="radialGradient60893" cx="149.375" cy="194.625" r="13.625" fx="149.375" fy="194.625" gradientTransform="matrix(1,0,0,0.57798165,0,82.135321)" gradientUnits="userSpaceOnUse" xlink:href="#linearGradient14755-8"/><linearGradient id="linearGradient14755-8"><stop id="stop14757-1" offset="0" stop-color="#000" stop-opacity="1"/><stop id="stop14759-3" offset="1" stop-color="#000" stop-opacity="0"/></linearGradient><linearGradient id="linearGradient14991-1"><stop id="stop14993-0" offset="0" stop-color="#fff" stop-opacity="1"/><stop id="stop14995-0" offset="1" stop-color="#fff" stop-opacity="0"/></linearGradient><linearGradient id="linearGradient60901" x1="49.75" x2="98.594" y1="218.75" y2="217" gradientTransform="translate(507.9375,53.736825)" gradientUnits="userSpaceOnUse" xlink:href="#linearGradient20627-8-0"/><linearGradient id="linearGradient20627-8-0"><stop id="stop22486-6-5" offset="0" stop-color="#f8d022" stop-opacity="1"/><stop id="stop20631-9-6" offset="1" stop-color="#e3ce74" stop-opacity="1"/></linearGradient><linearGradient id="linearGradient60903" x1="126.746" x2="149.73" y1="210.797" y2="150.209" gradientTransform="translate(507.9375,53.736825)" gradientUnits="userSpaceOnUse" xlink:href="#linearGradient20104-9-1-6"/><linearGradient id="linearGradient20104-9-1-6"><stop id="stop20106-9-6-9" offset="0" stop-color="#826a00" stop-opacity="1"/><stop id="stop20108-6-6-9" offset="1" stop-color="#d9b100" stop-opacity="1"/></linearGradient><linearGradient id="linearGradient60905" x1="113.815" x2="175.08" y1="157.299" y2="155.549" gradientTransform="translate(507.9375,68.736825)" gradientUnits="userSpaceOnUse" xlink:href="#linearGradient20114-7-2-5-2-9"/><linearGradient id="linearGradient20114-7-2-5-2-9"><stop id="stop20116-5-2-3-4-0" offset="0" stop-color="#888a85" stop-opacity="1"/><stop id="stop20118-4-5-6-9-2" offset="1" stop-color="#a4a5a1" stop-opacity="1"/></linearGradient><linearGradient id="linearGradient60907" x1="98.5" x2="112.75" y1="173.5" y2="169.25" gradientTransform="translate(507.9375,53.736825)" gradientUnits="userSpaceOnUse" xlink:href="#linearGradient22395-8-5"/><linearGradient id="linearGradient22395-8-5"><stop id="stop22397-0-6" offset="0" stop-color="#bdbdbd" stop-opacity="1"/><stop id="stop22399-6-9" offset="1" stop-color="#cdcdcd" stop-opacity="1"/></linearGradient><linearGradient id="linearGradient60911" x1="130.815" x2="182.08" y1="175.549" y2="175.549" gradientTransform="translate(507.9375,68.736825)" gradientUnits="userSpaceOnUse" xlink:href="#linearGradient20114-7-6-1"/><linearGradient id="linearGradient20114-7-6-1"><stop id="stop20116-5-4-8" offset="0" stop-color="#888a85" stop-opacity="1"/><stop id="stop20118-4-2-6" offset="1" stop-color="#a4a5a1" stop-opacity="1"/></linearGradient><linearGradient id="linearGradient60913" x1="130.815" x2="182.08" y1="175.549" y2="175.549" gradientTransform="translate(507.9375,53.736825)" gradientUnits="userSpaceOnUse" xlink:href="#linearGradient20114-7-4-6-4-1"/><linearGradient id="linearGradient20114-7-4-6-4-1"><stop id="stop20116-5-9-2-3-4" offset="0" stop-color="#888a85" stop-opacity="1"/><stop id="stop20118-4-3-9-0-3" offset="1" stop-color="#a4a5a1" stop-opacity="1"/></linearGradient><linearGradient id="linearGradient60919" x1="118" x2="103.25" y1="159.375" y2="169.875" gradientTransform="translate(507.9375,53.736825)" gradientUnits="userSpaceOnUse" xlink:href="#linearGradient22799-6-7"/><linearGradient id="linearGradient22799-6-7"><stop id="stop22801-7-5" offset="0" stop-color="#000" stop-opacity="1"/><stop id="stop22803-5-9" offset="1" stop-color="#000" stop-opacity=".373"/></linearGradient><linearGradient id="linearGradient14670-0"><stop id="stop14672-2" offset="0" stop-color="#fc6c6c" stop-opacity="1"/><stop id="stop14674-7" offset="1" stop-color="#f92424" stop-opacity="1"/></linearGradient><linearGradient id="linearGradient14971-4"><stop id="stop14973-7" offset="0" stop-color="#fabebe" stop-opacity="1"/><stop id="stop14975-2" offset="1" stop-color="#fabebe" stop-opacity="0"/></linearGradient><linearGradient id="linearGradient14745-0"><stop id="stop14747-5" offset="0" stop-color="#ff4141" stop-opacity="1"/><stop id="stop14749-3" offset="1" stop-color="#c00" stop-opacity="1"/></linearGradient><linearGradient id="linearGradient14683-3"><stop id="stop14685-5" offset="0" stop-color="#fff" stop-opacity="1"/><stop id="stop14687-3" offset="1" stop-color="#fff" stop-opacity="0"/></linearGradient><linearGradient id="linearGradient36566"><stop id="stop36568" offset="0" stop-color="#fff" stop-opacity="1"/><stop id="stop36570" offset="1" stop-color="#fff" stop-opacity="0"/></linearGradient><radialGradient id="radialGradient4479" cx="80.25" cy="187.739" r="30.75" fx="80.25" fy="187.739" gradientTransform="matrix(0.11297688,-0.0292602,0.01813654,0.07002722,-6.7577806,-3.8534916)" gradientUnits="userSpaceOnUse" xlink:href="#linearGradient14991-1"/><linearGradient id="linearGradient4484" x1="105.5" x2="156.5" y1="189" y2="195.5" gradientTransform="matrix(0.09997235,0,0,0.09997235,-1.3369622,-10.014789)" gradientUnits="userSpaceOnUse" xlink:href="#linearGradient60637"/><linearGradient id="linearGradient4487" x1="58.908" x2="92.708" y1="194.963" y2="191.561" gradientTransform="matrix(0.09997235,0,0,0.09997235,-2.309234,-12.224498)" gradientUnits="userSpaceOnUse" xlink:href="#linearGradient60943"/><radialGradient id="radialGradient4490" cx="88.25" cy="218.765" r="34.75" fx="88.25" fy="218.765" gradientTransform="matrix(0.17477181,-0.00863071,0.00354741,0.07183502,-9.6863349,-4.8589985)" gradientUnits="userSpaceOnUse" xlink:href="#linearGradient15009-2"/><radialGradient id="radialGradient4493" cx="81.882" cy="250.705" r="34.75" fx="81.882" fy="250.705" gradientTransform="matrix(0.17477181,-0.00863071,0.00354741,0.07183502,-9.6863349,-4.8589985)" gradientUnits="userSpaceOnUse" xlink:href="#linearGradient15009-5-8"/><linearGradient id="linearGradient4497" x1="171.277" x2="171.277" y1="272.527" y2="173.698" gradientTransform="matrix(0.10118493,0,0,0.10118493,-2.4711313,-12.467927)" gradientUnits="userSpaceOnUse" xlink:href="#linearGradient19627"/><radialGradient id="radialGradient4499" cx="149.375" cy="194.625" r="13.625" fx="149.375" fy="194.625" gradientTransform="matrix(1,0,0,0.57798165,0,82.135321)" gradientUnits="userSpaceOnUse" xlink:href="#linearGradient14755-8"/><radialGradient id="radialGradient4503" cx="129.25" cy="129.84" r="34.937" fx="129.25" fy="129.84" gradientUnits="userSpaceOnUse" xlink:href="#linearGradient14971-4"/><radialGradient id="radialGradient4505" cx="127.891" cy="115.998" r="31.25" fx="127.891" fy="115.998" gradientTransform="matrix(1.7826226,0,0,1.7826226,-100.09062,-90.782804)" gradientUnits="userSpaceOnUse" xlink:href="#linearGradient14745-0"/><radialGradient id="radialGradient4507" cx="149.49" cy="49.24" r="34.5" fx="149.49" fy="49.24" gradientTransform="matrix(0.08293973,0,0,0.0351222,-1.3902711,-0.23397073)" gradientUnits="userSpaceOnUse" xlink:href="#linearGradient14683-3"/><radialGradient id="radialGradient4509" cx="151.683" cy="60.713" r="43.285" fx="151.683" fy="60.713" gradientTransform="matrix(3.5960718,-1.7955579,1.4342795,3.5765632,-485.76309,114.25751)" gradientUnits="userSpaceOnUse" xlink:href="#linearGradient36566"/><radialGradient id="radialGradient4516" cx="125.573" cy="122.207" r="31.25" fx="125.573" fy="122.207" gradientTransform="matrix(0.1113328,0,0,0.17423427,-3.3897623,-14.009352)" gradientUnits="userSpaceOnUse" xlink:href="#linearGradient14670-0"/></defs><metadata id="metadata4220"/><g id="layer1"><path stroke-width="1.493" style="marker:none" id="path60799" fill="#c7c7c7" fill-opacity="1" fill-rule="nonzero" stroke="none" stroke-dasharray="none" stroke-miterlimit="4" stroke-opacity="1" d="M 2.6784843,1.6904231 2.5990879,7.3149065 0.90682506,13.197299 c 0.23677974,1.463057 0.10600184,1.956622 1.49304804,2.116338 l 4.8149959,-0.0681 0.052888,-1.590934 5.042538,1.724029 2.956655,-0.02136 -0.05262,-3.220914 c 0,0 -0.161929,-8.692036 -0.146434,-10.4391451 z" color="#000" display="inline" enable-background="accumulate" overflow="visible" visibility="visible"/><path id="path60811" fill="url(#radialGradient4490)" fill-opacity="1" fill-rule="nonzero" stroke="none" stroke-width="1" d="M 1.0898291,13.068507 C 1,14.5 1.9472106,15.098665 1.9472106,15.098665 L 7.5,15.5 6.5,13 8.5,10.5 3,10 z" color="#000" display="inline" enable-background="accumulate" overflow="visible" visibility="visible" style="marker:none"/><path id="path60813" fill="url(#linearGradient4487)" fill-opacity="1" fill-rule="nonzero" stroke="none" stroke-width="1" d="M 8.9919354,1.9293118 3.02748,1.883316 3,7 0.83989467,13.218467 7.2257479,12.794449 14.750284,2.1580405 z" color="#000" display="inline" enable-background="accumulate" overflow="visible" visibility="visible" style="marker:none"/><path d="M 9.9099312,4.231271 13.358977,5.8808145 13.908823,9.4298334 14.308711,14.82834 8.011809,11.926129 C 7.8368592,11.838653 7.7605241,11.879154 7.7605241,11.879154 L 9.4100677,7.9302457 z" style="marker:none" id="path60815" fill="url(#linearGradient4484)" fill-opacity="1" fill-rule="nonzero" stroke="none" stroke-width="1" color="#000" display="inline" enable-background="accumulate" overflow="visible" visibility="visible"/><path id="path60825" fill="url(#radialGradient4479)" fill-opacity="1" fill-rule="nonzero" stroke="none" stroke-width="2" d="M 3.7898193,7.3642785 8.4377959,5.7705255 7.2381279,8.5197649 2.3623942,10.199414 z" color="#000" display="inline" enable-background="accumulate" opacity=".403" overflow="visible" visibility="visible" style="marker:none"/><g id="g60829" display="inline" transform="matrix(0.09719553,0,0,0.09719553,-51.08588,-17.20868)"><path id="path60833" fill="url(#linearGradient60901)" fill-opacity="1" fill-rule="nonzero" stroke="none" stroke-width="1" d="m 612.9375,238.38368 -16.84898,8.1404 0.85052,-6.76255 2.13898,-34.41117 -14.83686,-1.62746 0.55229,40.71824 -2.79113,7.67308 -24.40607,12.92821 -12.86502,30.42443 63.20627,-42.73004 z" color="#000" display="inline" enable-background="accumulate" overflow="visible" visibility="visible" style="marker:none"/><path id="path60835" fill="url(#linearGradient60903)" fill-opacity="1" fill-rule="nonzero" stroke="none" stroke-width="1" d="m 660.4375,262.04243 0.76517,18.28279 c -7.89969,-5.94207 -15.72727,-12.15628 -24.09494,-15.7584 l -2.97112,20.59528 -11.15249,-4.86108 3.41276,-21.30895 c -6.14682,-3.03548 -11.4057,-4.51144 -17.95938,-6.25525 l 5.9754,-14.59725 c 17.25655,5.18877 30.3536,13.661 46.0246,23.90286 z" color="#000" display="inline" enable-background="accumulate" overflow="visible" visibility="visible" style="marker:none"/><path id="path60837" fill="url(#linearGradient60905)" fill-opacity="1" fill-rule="nonzero" stroke="none" stroke-width="1" d="m 635.02589,248.76455 1.41161,-11.02773 1,-30.5 -16.75,-8.5 -4.75,34.5 -2,6 c 7.12881,2.34073 13.73494,5.14295 21.08839,9.52773 z" color="#000" display="inline" enable-background="accumulate" overflow="visible" visibility="visible" style="marker:none"/><path d="m 596.4375,247.23682 4.75,-8.75 2,-31.75 16.52145,-3.10726 -3.77145,29.60726 -2,6 z" style="marker:none" id="path60839" fill="url(#linearGradient60907)" fill-opacity="1" fill-rule="nonzero" stroke="none" stroke-width="1" color="#000" display="inline" enable-background="accumulate" overflow="visible" visibility="visible"/><path id="path60843" fill="url(#linearGradient60911)" fill-opacity="1" fill-rule="nonzero" stroke="none" stroke-width="1" d="m 660.05385,263.37792 c -7.39932,-4.02395 -13.48444,-10.84143 -21.3016,-13.61182 l 0,-10.42982 20.68288,9.63433 z" color="#000" display="inline" enable-background="accumulate" overflow="visible" visibility="visible" style="marker:none"/><path id="path60845" fill="#686965" fill-opacity="1" fill-rule="nonzero" stroke="none" stroke-width="1" d="m 658.55124,233.17511 2.12132,13.08148 -22.62741,-10.25305 0.35355,-12.37437 z" color="#000" display="inline" enable-background="accumulate" overflow="visible" visibility="visible" style="marker:none"/><path id="path60847" fill="url(#linearGradient60913)" fill-opacity="1" fill-rule="nonzero" stroke="none" stroke-width="1" d="m 651.48018,278.42995 0.7071,12.02081 11.31372,5.83364 -1.85616,-11.93242 z" color="#000" display="inline" enable-background="accumulate" overflow="visible" visibility="visible" style="marker:none"/><path id="path60853" fill="url(#linearGradient60919)" fill-opacity="1" fill-rule="nonzero" stroke="none" stroke-width="1" d="m 603.4375,206.73682 17,-3.59654 19,4.09654 -4.25,32.75 -19.25,-8.5 -15,7 z" color="#000" display="inline" enable-background="accumulate" opacity=".305" overflow="visible" visibility="visible" style="marker:none"/></g><path d="M 7,14.5 C 5.0964437,14.373323 2.9802468,15.200332 1.4524853,13.944797" style="marker:none" id="path60859" fill="none" stroke="#fff" stroke-dasharray="none" stroke-linecap="square" stroke-miterlimit="4" stroke-opacity="1" stroke-width="1" color="#000" display="inline" enable-background="accumulate" opacity=".313" overflow="visible" visibility="visible"/><path id="path5310" fill="none" stroke="url(#linearGradient4497)" stroke-dasharray="none" stroke-miterlimit="4" stroke-opacity="1" stroke-width="1" d="m 2.5,1.5 0,5.5 -2,6 c 0,2 0.6129538,2.340284 2,2.5 l 5,0 L 7.267757,13.654603 12.5,15.5 l 3,0 L 15,12 c 0,0 0.484505,-8.7528909 0.5,-10.5 z" color="#000" display="inline" enable-background="accumulate" overflow="visible" visibility="visible" style="marker:none"/><path id="path60863" fill="url(#radialGradient4499)" fill-opacity="1" fill-rule="nonzero" stroke="none" stroke-width="2" d="m 163,194.625 a 13.625,7.875 0 1 1 -27.25,0 13.625,7.875 0 1 1 27.25,0 z" color="#000" display="inline" enable-background="accumulate" opacity=".35" overflow="visible" transform="matrix(0.07540457,0,0,0.07412479,-0.25579866,-3.2535059)" visibility="visible" style="marker:none"/><rect id="rect5314" width="12" height="1" x="3" y="2" fill="#fff" fill-opacity="1" stroke="none" stroke-dasharray="none" stroke-linecap="square" stroke-linejoin="round" stroke-miterlimit="4" stroke-opacity="1" stroke-width="1" opacity=".4"/><path stroke-width="1" style="marker:none" id="path60865" fill="url(#radialGradient4516)" fill-opacity="1" fill-rule="nonzero" stroke="#c90505" stroke-dasharray="none" stroke-miterlimit="4" stroke-opacity="1" d="m 14.47915,4.0242092 c 0,2.7650457 -2.734173,7.5110528 -3.479148,7.4544378 -0.744978,-0.05662 -3.4791507,-4.6327757 -3.4791507,-7.4544378 0,-1.896934 1.5576701,-3.43470254 3.4791507,-3.43470254 1.921482,0 3.479148,1.53776854 3.479148,3.43470254 z" color="#000" display="inline" enable-background="accumulate" overflow="visible" visibility="visible"/><path id="path60867" fill="url(#radialGradient4503)" fill-opacity="1" fill-rule="nonzero" stroke="none" stroke-width="1" d="m 160.5,96.75 a 31.25,31.25 0 1 1 -62.5,0 31.25,31.25 0 1 1 62.5,0 z" color="#000" display="inline" enable-background="accumulate" opacity=".7" overflow="visible" transform="matrix(0.08,0,0,0.07864223,0.67997314,-3.0961612)" visibility="visible" style="marker:none"/><path id="path60869" fill="url(#radialGradient4505)" fill-opacity="1" fill-rule="nonzero" stroke="none" stroke-width="1" d="m 160.5,96.75 a 31.25,31.25 0 1 1 -62.5,0 31.25,31.25 0 1 1 62.5,0 z" color="#000" display="inline" enable-background="accumulate" overflow="visible" transform="matrix(0.064,0,0,0.064,2.7601141,-2.2271289)" visibility="visible" style="marker:none"/><path id="path60871" fill="url(#radialGradient4507)" fill-opacity="1" fill-rule="nonzero" stroke="none" stroke-width="1" d="m 11.008371,1.1094001 c -1.3342069,0 -2.4157957,0.8195307 -2.4157957,1.8304732 0,0.072937 0.00655,0.1448365 0.017506,0.2155448 0.1414665,-0.9088054 1.1608496,-1.6132703 2.3982897,-1.6132703 1.237441,0 2.259013,0.7044649 2.400479,1.6132703 0.01095,-0.070708 0.01532,-0.1426079 0.01532,-0.2155448 0,-1.0109425 -1.081589,-1.8304732 -2.415797,-1.8304732 z" color="#000" display="inline" enable-background="accumulate" opacity=".453" overflow="visible" visibility="visible" style="marker:none"/><path stroke-width="1" style="marker:none" id="path60937" fill="none" stroke="#5d5d5d" stroke-dasharray="none" stroke-linecap="round" stroke-miterlimit="4" stroke-opacity="1" d="m 6.5,12.5 c -1.98394,0.09219 -5,-1 -6,0.5" color="#000" display="inline" enable-background="accumulate" overflow="visible" visibility="visible"/><path id="path5308" fill="#000" fill-opacity="1" stroke="none" d="m 12,4 a 1,1 0 1 1 -2,0 1,1 0 1 1 2,0 z" opacity=".3" transform="translate(-0.0107232,-1.0304587)"/><path id="path5306" fill="#fff" fill-opacity="1" stroke="none" d="m 12,4 a 1,1 0 1 1 -2,0 1,1 0 1 1 2,0 z" transform="translate(0.0205268,2.0329775e-8)"/></g></svg>