<svg xmlns="http://www.w3.org/2000/svg" xmlns:svg="http://www.w3.org/2000/svg" xmlns:xlink="http://www.w3.org/1999/xlink" id="svg4230" width="16" height="16" version="1.1"><defs id="defs4232"><linearGradient id="linearGradient4090"><stop id="stop4092" offset="0" stop-color="#fff" stop-opacity="1"/><stop id="stop4094" offset=".028" stop-color="#fff" stop-opacity=".235"/><stop id="stop4096" offset=".984" stop-color="#fff" stop-opacity=".157"/><stop id="stop4098" offset="1" stop-color="#fff" stop-opacity=".392"/></linearGradient><linearGradient id="linearGradient2867-449-88-871-390-598-476-591-434-148-57-177-0-454-5"><stop id="stop3298-6" offset="0" stop-color="#c7c7c7" stop-opacity="1"/><stop id="stop3300-7" offset=".262" stop-color="#a6a6a6" stop-opacity="1"/><stop id="stop3302-8" offset=".705" stop-color="#7b7b7b" stop-opacity="1"/><stop id="stop3304-1" offset="1" stop-color="#595959" stop-opacity="1"/></linearGradient><linearGradient id="linearGradient3923" x1="7.865" x2="7.865" y1="15.5" y2="3" gradientUnits="userSpaceOnUse" xlink:href="#linearGradient2867-449-88-871-390-598-476-591-434-148-57-177-0-454-5"/><linearGradient id="linearGradient3846-6" x1="16" x2="16" y1="0" y2="16" gradientUnits="userSpaceOnUse" xlink:href="#linearGradient3600-0"/><linearGradient id="linearGradient3600-0"><stop id="stop3602-2" offset="0" stop-color="#f4f4f4" stop-opacity="1"/><stop id="stop3604-00" offset="1" stop-color="#dbdbdb" stop-opacity="1"/></linearGradient><linearGradient id="linearGradient4078" x1="-15.846" x2="-15.846" y1="2.962" y2="38.231" gradientTransform="matrix(0.35135122,0,0,0.35135132,17.56756,0.56756616)" gradientUnits="userSpaceOnUse" xlink:href="#linearGradient4090"/><linearGradient id="linearGradient4240-3" x1="23.983" x2="37.911" y1="90.772" y2="90.772" gradientTransform="matrix(0,0.5372019,0.57681717,0,-43.497188,-11.365627)" gradientUnits="userSpaceOnUse" xlink:href="#linearGradient4297-6"/><linearGradient id="linearGradient4297-6"><stop id="stop4299-0" offset="0" stop-color="#fff" stop-opacity="1"/><stop id="stop4301-3" offset=".53" stop-color="#fff" stop-opacity=".235"/><stop id="stop4303-7" offset=".965" stop-color="#fff" stop-opacity=".157"/><stop id="stop4305-7" offset="1" stop-color="#fff" stop-opacity=".392"/></linearGradient><radialGradient id="radialGradient4638-4" cx="85.851" cy="48.605" r="31" fx="85.851" fy="48.605" gradientTransform="matrix(0.56444409,0,0,-0.51960273,-40.630876,25.77887)" gradientUnits="userSpaceOnUse" xlink:href="#linearGradient3839-6"/><linearGradient id="linearGradient3839-6"><stop id="stop3841-5" offset="0" stop-color="#ffed8c" stop-opacity="1"/><stop id="stop3843-7" offset=".262" stop-color="#fb9858" stop-opacity="1"/><stop id="stop3845-6" offset=".661" stop-color="#dc572a" stop-opacity="1"/><stop id="stop3847-2" offset="1" stop-color="#9f3110" stop-opacity="1"/></linearGradient><linearGradient id="linearGradient4169" x1="16" x2="16" y1="0" y2="16" gradientUnits="userSpaceOnUse" xlink:href="#linearGradient3600-0"/></defs><metadata id="metadata4235"/><rect id="rect3937-2" width="14" height="3" x="1" y="12" fill="url(#linearGradient4169)" fill-opacity="1" fill-rule="nonzero" stroke="none" stroke-width="1" color="#000" display="inline" enable-background="accumulate" overflow="visible" rx=".5" ry=".5" visibility="visible" style="marker:none"/><path id="path3979" fill="url(#linearGradient3846-6)" fill-opacity="1" fill-rule="nonzero" stroke="none" stroke-width="1" d="m 1,10 2,-8 10,0 2,8 0,3 -14,0 z" color="#000" display="inline" enable-background="accumulate" overflow="visible" visibility="visible" style="marker:none"/><path id="path3852" fill="url(#linearGradient3923)" fill-opacity="1" fill-rule="nonzero" stroke="none" stroke-width="1" d="M 3.765625,3 2,10 l 3,0 0,2 6,0 0,-2 3,0 -1.765625,-7 z" color="#000" display="inline" enable-background="accumulate" overflow="visible" visibility="visible" style="marker:none"/><path id="path4003" fill="#000" fill-opacity="1" stroke="none" d="M 3.7717373,3 2,10 2.3993002,10 4,5 12,5 13.6007,10 14,10 12.230469,3 Z" opacity=".2"/><path id="path3806" fill="#fff" fill-opacity="1" fill-rule="nonzero" stroke="none" stroke-width="1" d="m 2,10.000022 0,1 3,0 L 5,13 l 6,2.2e-5 0,-2 3,0 0,-1 c 0,0 -1.28238,5e-5 -3,0 l 0,2 L 5,12 5,10.000022 c 0,0 -1.93063,0 -3,0 z" color="#000" display="inline" enable-background="accumulate" overflow="visible" visibility="visible" style="marker:none"/><path id="rect4014" fill="none" stroke="#383838" stroke-dasharray="none" stroke-linejoin="round" stroke-miterlimit="4" stroke-opacity="1" stroke-width="1" d="m 0.5,10 0,4.5 c 0,0.554 0.446,1 1,1 l 13,0 c 0.554,0 1,-0.446 1,-1 l 0,-4.5 -2.101562,-8.5 -10.7961107,0 z" color="#000" display="inline" enable-background="accumulate" opacity=".45" overflow="visible" visibility="visible" style="marker:none"/><path id="path4076" fill="none" stroke="url(#linearGradient4078)" stroke-dasharray="none" stroke-dashoffset="0" stroke-linecap="round" stroke-linejoin="round" stroke-miterlimit="4" stroke-opacity="1" stroke-width="1" d="m 3.375,2.5 -1.875,7.625 0,4.375 13,0 0,-4.375 -1.875,-7.625 -9.25,0 z" color="#000" display="inline" enable-background="accumulate" overflow="visible" visibility="visible" style="marker:none"/></svg>