<svg xmlns="http://www.w3.org/2000/svg" xmlns:svg="http://www.w3.org/2000/svg" xmlns:xlink="http://www.w3.org/1999/xlink" id="svg3147" width="16" height="16" version="1.1"><defs id="defs3149"><linearGradient id="linearGradient3671-580"><stop id="stop4088" offset="0" stop-color="#e4c6fa" stop-opacity="1"/><stop id="stop4090" offset=".262" stop-color="#cd9ef7" stop-opacity="1"/><stop id="stop4092" offset=".705" stop-color="#a56de2" stop-opacity="1"/><stop id="stop4094" offset="1" stop-color="#452981" stop-opacity="1"/></linearGradient><linearGradient id="linearGradient3707-662"><stop id="stop4098" offset="0" stop-color="#452981" stop-opacity="1"/><stop id="stop4100" offset="1" stop-color="#a56de2" stop-opacity="1"/></linearGradient><linearGradient id="linearGradient3117-9-0" x1="24" x2="24" y1="6.596" y2="40.948" gradientTransform="matrix(0.24324325,0,0,0.24324325,2.1001634,3.1001639)" gradientUnits="userSpaceOnUse" xlink:href="#linearGradient3969-2-2"/><linearGradient id="linearGradient3969-2-2"><stop id="stop3971-8-68" offset="0" stop-color="#fff" stop-opacity="1"/><stop id="stop3973-0-0" offset=".027" stop-color="#fff" stop-opacity=".235"/><stop id="stop3975-2-2" offset=".977" stop-color="#fff" stop-opacity=".157"/><stop id="stop3977-5-7" offset="1" stop-color="#fff" stop-opacity=".392"/></linearGradient><radialGradient id="radialGradient3106" cx="7.496" cy="8.45" r="20" fx="7.496" fy="8.45" gradientTransform="matrix(0,0.65915104,-0.69730319,-1.2144078e-8,13.83008,-1.3384822)" gradientUnits="userSpaceOnUse" xlink:href="#linearGradient3671-580"/><linearGradient id="linearGradient3108" x1="13.621" x2="13.621" y1="44.665" y2="5.267" gradientTransform="matrix(0.28205128,0,0,0.28205128,1.1687694,2.1687695)" gradientUnits="userSpaceOnUse" xlink:href="#linearGradient3707-662"/><linearGradient id="linearGradient2378"><stop id="stop2380" offset="0" stop-color="#fff" stop-opacity="1"/><stop id="stop4146" offset=".25" stop-color="#fefede" stop-opacity=".918"/><stop id="stop2386" offset=".5" stop-color="#fbf911" stop-opacity="1"/><stop id="stop2382" offset="1" stop-color="#fffc04" stop-opacity=".122"/></linearGradient><radialGradient id="radialGradient3981" cx="38.659" cy="9.341" r="8.342" fx="38.659" fy="9.341" gradientUnits="userSpaceOnUse" xlink:href="#linearGradient2378"/></defs><metadata id="metadata3152"/><rect stroke-linejoin="round" style="marker:none" id="rect5505-21-7-1-69" width="11" height="11" x="2.438" y="3.438" fill="url(#radialGradient3106)" fill-opacity="1" fill-rule="nonzero" stroke="url(#linearGradient3108)" stroke-dasharray="none" stroke-dashoffset="0" stroke-linecap="round" stroke-miterlimit="4" stroke-opacity="1" stroke-width="1" color="#000" display="inline" enable-background="accumulate" overflow="visible" rx="0" ry="0" visibility="visible"/><path id="path3926-2-6" fill="#fff" fill-opacity="1" stroke="none" d="m 8.3848295,4.9977916 c -0.331961,-0.018736 -0.383003,0.3407157 -0.347968,0.579429 l 0,4.6915354 c -0.2036459,-0.04279 -0.4693608,-0.0245 -0.6989547,0.04325 -0.6898445,0.183528 -1.3031205,0.807186 -1.2462395,1.525609 0.07972,0.672762 0.8767766,1.111693 1.5339027,0.911889 0.7444185,-0.176229 1.1760305,-0.823028 1.1760305,-1.657853 l 0,-3.7141406 C 9.420032,7.7044962 9.976937,8.3155271 9.964212,9.0353884 9.971012,9.5557414 9.82503,10.076095 9.6189,10.549762 c -0.02773,0.05718 0.03267,0.113215 0.07725,0.134923 0.119366,0.03335 0.181384,-0.123146 0.248848,-0.196826 0.71844,-0.9632516 0.764914,-2.3788418 -0.0105,-3.3252155 C 9.659264,6.8265801 9.30087,6.5403615 9.113182,6.1500232 8.9252863,5.8497996 8.8062075,5.5101371 8.7483485,5.1675606 8.6725545,5.043737 8.5280415,4.9966534 8.3848295,4.9977916 z"/><rect id="rect6741-0-3-8-9" width="9" height="9" x="3.438" y="4.438" fill="none" stroke="url(#linearGradient3117-9-0)" stroke-dasharray="none" stroke-dashoffset="0" stroke-linecap="round" stroke-linejoin="miter" stroke-miterlimit="4" stroke-opacity="1" stroke-width="1" opacity=".5"/><g id="g10067" display="inline" transform="matrix(0.7298017,0,0,0.7298017,10.92855,-25.15359)"><path id="path10069" fill="url(#radialGradient3981)" fill-opacity="1" fill-rule="evenodd" stroke="none" d="m 47.000506,9.3411446 c 0,4.6069664 -3.734684,8.3416514 -8.341651,8.3416514 -4.606966,0 -8.341651,-3.734685 -8.341651,-8.3416514 0,-4.6069667 3.734685,-8.341651 8.341651,-8.341651 4.606967,0 8.341651,3.7346843 8.341651,8.341651 z" display="inline" transform="matrix(0.8213214,0,0,0.8213214,-31.667144,33.59717)"/></g><path id="path3948" fill="#fff" fill-opacity="1" fill-rule="evenodd" stroke="#ddc73b" stroke-dasharray="none" stroke-linejoin="round" stroke-miterlimit="4" stroke-opacity="1" stroke-width="2" d="m 9.99,1.96478 0,1 -2,0 L 8.00043,4 8.99,4.96478 9.00043,7 l 1,0 1,-1 0,0 1,1.00601 1,0 L 12.99,4.96478 14.00043,4 13.99,2.96478 l -2,0 0,-1 -0.941027,0 z" display="inline" enable-background="accumulate" overflow="visible" visibility="visible" style="marker:none"/><path id="rect10056" fill="#fff" fill-opacity="1" fill-rule="evenodd" stroke="none" stroke-width="1" d="m 9.99,1.96478 0,1 -2,0 L 8.00043,4 8.99,4.96478 9.00043,7 l 1,0 1,-1 0,0 1,1.00601 1,0 L 12.99,4.96478 14.00043,4 13.99,2.96478 l -2,0 0,-1 L 11.00043,1 z" display="inline" enable-background="accumulate" overflow="visible" visibility="visible" style="marker:none"/></svg>