<svg xmlns="http://www.w3.org/2000/svg" xmlns:svg="http://www.w3.org/2000/svg" xmlns:xlink="http://www.w3.org/1999/xlink" id="svg8283" width="16" height="16" version="1.1"><defs id="defs8285"><linearGradient id="linearGradient5610-3" x1="8" x2="8" y1="15" y2="10" gradientTransform="translate(0,1)" gradientUnits="userSpaceOnUse" xlink:href="#linearGradient5604-7"/><linearGradient id="linearGradient5604-7"><stop id="stop5606-8" offset="0" stop-color="#ae6a37" stop-opacity="1"/><stop id="stop5608-5" offset="1" stop-color="#d28e5b" stop-opacity="1"/></linearGradient><linearGradient id="linearGradient5618-5" x1="9" x2="9" y1="10" y2="15" gradientTransform="translate(0,1)" gradientUnits="userSpaceOnUse" xlink:href="#linearGradient5612-8"/><linearGradient id="linearGradient5612-8"><stop id="stop5614-2" offset="0" stop-color="#793b19" stop-opacity="1"/><stop id="stop5616-0" offset="1" stop-color="#a76331" stop-opacity="1"/></linearGradient><linearGradient id="linearGradient6572" x1="633.305" x2="633.305" y1="218.844" y2="230.173" gradientTransform="translate(-625,-216.00001)" gradientUnits="userSpaceOnUse" xlink:href="#linearGradient3977"/><linearGradient id="linearGradient3977"><stop id="stop3979" offset="0" stop-color="#fff" stop-opacity="1"/><stop id="stop3981" offset=".029" stop-color="#fff" stop-opacity=".235"/><stop id="stop3983" offset=".972" stop-color="#fff" stop-opacity=".157"/><stop id="stop3985" offset="1" stop-color="#fff" stop-opacity=".392"/></linearGradient><linearGradient id="linearGradient5518-7"><stop id="stop5520-3" offset="0" stop-color="#fff2e5" stop-opacity="1"/><stop id="stop5522-8" offset="1" stop-color="#d8c7b6" stop-opacity="1"/></linearGradient><linearGradient id="linearGradient5917"><stop id="stop5919" offset="0" stop-color="#62421e" stop-opacity=".498"/><stop id="stop5921" offset="1" stop-color="#9f764d" stop-opacity=".416"/></linearGradient><linearGradient id="linearGradient8279" x1="8.674" x2="8.674" y1="15.028" y2="3.102" gradientTransform="translate(0,-1e-5)" gradientUnits="userSpaceOnUse" xlink:href="#linearGradient5518-7"/><linearGradient id="linearGradient8281" x1="14.057" x2="14.057" y1="15.943" y2="1.049" gradientTransform="translate(0,-1e-5)" gradientUnits="userSpaceOnUse" xlink:href="#linearGradient5917"/></defs><metadata id="metadata8288"/><g id="layer1"><path id="path2998-4-3-3" fill="url(#linearGradient8279)" fill-opacity="1" fill-rule="nonzero" stroke="url(#linearGradient8281)" stroke-dasharray="none" stroke-miterlimit="4" stroke-opacity="1" stroke-width="1" d="m 11.5,1.49999 0,3.5 L 8,1.53124 2.5,6.99999 l 0,8.5 11,0 0,-8.5 -0.5,-0.5 0.5,0 0,-5 -2,0 z" color="#000" display="inline" enable-background="accumulate" overflow="visible" visibility="visible" style="marker:none"/><path d="m 8,1.53124 -4.5,5.46875 0,7.5 9,0 0,-8 z" style="marker:none" id="path2998-4-3-3-1" fill="none" stroke="url(#linearGradient6572)" stroke-dasharray="none" stroke-miterlimit="4" stroke-opacity="1" stroke-width="1" color="#000" display="inline" enable-background="accumulate" overflow="visible" visibility="visible"/><path d="m 8,-1e-5 -7.75,7.75 1.5,1.5 6.25,-6.32277 6.25,6.32277 1.5,-1.5 z" style="marker:none" id="path2998-4-0" fill="#521818" fill-opacity="1" fill-rule="nonzero" stroke="none" stroke-width="1.7" color="#000" display="inline" enable-background="accumulate" overflow="visible" visibility="visible"/><path id="rect5583" fill="url(#linearGradient5610-3)" fill-opacity="1" stroke="url(#linearGradient5618-5)" stroke-dasharray="none" stroke-dashoffset="0" stroke-linecap="butt" stroke-linejoin="round" stroke-miterlimit="4" stroke-opacity="1" stroke-width="1" d="m 8,10.5 c -0.831,0 -1.5,0.669 -1.5,1.5 l 0,3.5 3,0 0,-3.5 C 9.5,11.169 8.831,10.5 8,10.5 z" color="#000" display="inline" enable-background="accumulate" overflow="visible" visibility="visible" style="marker:none"/><path id="path5620" fill="#620" fill-opacity="1" fill-rule="nonzero" stroke="none" stroke-width="1" d="m 10,12 a 1,1 0 1 1 -2,0 1,1 0 1 1 2,0 z" color="#000" display="inline" enable-background="accumulate" overflow="visible" transform="matrix(0.5,0,0,0.5,5,7.5)" visibility="visible" style="marker:none"/><path id="path6110" fill="#fff" fill-opacity="1" fill-rule="nonzero" stroke="none" stroke-width="1" d="m 8,10.99999 c -0.55228,0 -1,0.44772 -1,1 l 2,0 c 0,-0.55228 -0.44772,-1 -1,-1 z" color="#000" display="inline" enable-background="accumulate" opacity=".3" overflow="visible" visibility="visible" style="marker:none"/><rect id="rect6115" width="1" height="1" x="12" y="2" fill="#fff" fill-opacity="1" fill-rule="nonzero" stroke="none" stroke-width="1" color="#000" display="inline" enable-background="accumulate" opacity=".5" overflow="visible" visibility="visible" style="marker:none"/></g></svg>