<svg xmlns="http://www.w3.org/2000/svg" xmlns:svg="http://www.w3.org/2000/svg" xmlns:xlink="http://www.w3.org/1999/xlink" id="svg3658" width="32" height="32" version="1.1"><defs id="defs3660"><linearGradient id="linearGradient4011"><stop id="stop4013" offset="0" stop-color="#fff" stop-opacity="1"/><stop id="stop4015" offset=".508" stop-color="#fff" stop-opacity=".235"/><stop id="stop4017" offset=".835" stop-color="#fff" stop-opacity=".157"/><stop id="stop4019" offset="1" stop-color="#fff" stop-opacity=".392"/></linearGradient><linearGradient id="linearGradient3820-7-2-2"><stop id="stop3822-2-6-36" offset="0" stop-color="#3d3d3d" stop-opacity="1"/><stop id="stop3864-8-7-6" offset=".5" stop-color="#686868" stop-opacity=".498"/><stop id="stop3824-1-2-4" offset="1" stop-color="#686868" stop-opacity="0"/></linearGradient><radialGradient id="radialGradient4048" cx="99.157" cy="186.171" r="62.769" fx="99.157" fy="186.171" gradientTransform="matrix(0.17524541,0,0,0.05575992,-1.3768101,18.11895)" gradientUnits="userSpaceOnUse" xlink:href="#linearGradient3820-7-2-2"/><linearGradient id="linearGradient12398-3" x1="71.204" x2="71.204" y1="6.238" y2="44.341" gradientTransform="matrix(0.72973007,0,0,0.72973007,-36.346113,-2.5039328)" gradientUnits="userSpaceOnUse" xlink:href="#linearGradient4011"/><linearGradient id="linearGradient11527-6-5" x1="2035.165" x2="2035.165" y1="3208.074" y2="3241.997" gradientTransform="matrix(1.1113759,0,0,0.83086027,-2249.8942,-2663.1587)" gradientUnits="userSpaceOnUse" xlink:href="#linearGradient947-5"/><linearGradient id="linearGradient947-5"><stop id="stop943-6" offset="0" stop-color="#64baff" stop-opacity="1"/><stop id="stop945-2" offset="1" stop-color="#3689e6" stop-opacity="1"/></linearGradient></defs><metadata id="metadata3663"/><path id="path3818-0-2" fill="url(#radialGradient4048)" fill-opacity="1" stroke="none" d="m 27.000001,28.499804 a 11,3.4999999 0 1 1 -21.9999997,0 11,3.4999999 0 1 1 21.9999997,0 z"/><path id="path2555-7-8-5-0-9" fill="url(#linearGradient11527-6-5)" fill-opacity="1" fill-rule="nonzero" stroke="none" stroke-width="1" d="m 15.999999,1.4999997 c -8.000603,0 -14.5,6.4993973 -14.5,14.5000003 0,8.000603 6.499397,14.5 14.5,14.5 C 24.000603,30.5 30.500014,24.000603 30.5,16 30.5,7.999397 24.000603,1.4999997 15.999999,1.4999997 Z" color="#000" display="inline" enable-background="accumulate" opacity=".99" overflow="visible" visibility="visible" style="marker:none"/><path id="path8655-6-0-9-5-0" fill="none" stroke="url(#linearGradient12398-3)" stroke-dasharray="none" stroke-dashoffset="0" stroke-linecap="round" stroke-linejoin="round" stroke-miterlimit="4" stroke-opacity="1" stroke-width="1" d="m 29.5,15.999517 c 0,7.456096 -6.044607,13.500489 -13.499837,13.500489 -7.455912,0 -13.5001626,-6.044464 -13.5001626,-13.500489 0,-7.4557408 6.0442506,-13.4995231 13.5001626,-13.4995231 7.45523,0 13.499837,6.0437824 13.499837,13.4995231 z" color="#000" display="inline" enable-background="accumulate" opacity=".5" overflow="visible" visibility="visible" style="marker:none"/><path id="path2555-4" fill="none" fill-opacity="1" fill-rule="nonzero" stroke="#002e99" stroke-dasharray="none" stroke-dashoffset="0" stroke-linecap="round" stroke-linejoin="round" stroke-miterlimit="4" stroke-opacity="1" stroke-width="1" d="m 16.000001,1.5017981 c -7.9996071,0 -14.4982031,6.4985937 -14.4982031,14.4982009 0,7.999609 6.498596,14.498206 14.4982031,14.498203 7.999605,0 14.498209,-6.498594 14.498201,-14.498203 0,-7.9996072 -6.498596,-14.4982009 -14.498201,-14.4982009 z" clip-rule="nonzero" color="#000" color-interpolation="sRGB" color-interpolation-filters="linearRGB" color-rendering="auto" display="inline" enable-background="accumulate" image-rendering="auto" opacity=".5" overflow="visible" shape-rendering="auto" text-rendering="auto" vector-effect="none" visibility="visible" style="marker:none;font-variant-east_asian:normal;isolation:auto;mix-blend-mode:normal;solid-color:#000;solid-opacity:1;filter-blend-mode:normal;filter-gaussianBlur-deviation:0"/><path stroke-opacity="1" style="marker:none;font-variant-east_asian:normal" id="path3175" fill="#002e99" fill-opacity="1" fill-rule="nonzero" stroke="none" stroke-dasharray="none" stroke-dashoffset="0" stroke-linecap="butt" stroke-linejoin="miter" stroke-miterlimit="4" stroke-width="1" d="m 16.09375,7 c -1.751316,0 -3.1875,1.4485133 -3.1875,3.1875 0,0.869494 0.358977,1.648634 0.9375,2.21875 L 8.75,11.625 c -0.017483,-0.0076 -0.044638,0.0071 -0.0625,0 -0.3750928,-0.148645 -0.8053279,-0.243574 -1.25,-0.03125 -0.631339,0.301438 -0.9289295,0.830632 -0.9375,1.5 -0.00831,0.709098 0.4874002,1.177847 0.9375,1.40625 a 0.9938084,0.9938084 0 0 0 0.125,0.0625 l 5.15625,1.625 -0.0625,3.375 -2,6.125 0.0625,0.03125 c -0.281394,0.674682 -0.144363,1.554069 0.5,1.96875 0.752767,0.484494 1.728964,0.362174 2.28125,-0.4375 a 0.9938084,0.9938084 0 0 0 0.09375,-0.125 L 16,22.1875 18.375,27.125 a 0.9938084,0.9938084 0 0 0 0.0625,0.0625 c 0.457637,0.773153 1.438623,1.006873 2.1875,0.59375 0.688975,-0.380072 0.952616,-1.256236 0.65625,-2 L 21.34375,25.75 19.375,19.59375 19.3125,16.4375 l 5.25,-1.90625 a 0.9938084,0.9938084 0 0 0 0.21875,-0.125 c 0.577587,-0.391019 0.910921,-1.17858 0.625,-1.90625 -0.292069,-0.743334 -1.035895,-1.075168 -1.71875,-1 a 0.9938084,0.9938084 0 0 0 -0.0625,0.03125 c -0.04451,0.0071 -0.193617,0.07258 -0.28125,0.09375 l -5,0.78125 C 18.930085,11.838289 19.3125,11.065613 19.3125,10.1875 19.3125,8.431274 17.845065,7 16.09375,7 Z" color="#000" display="inline" enable-background="accumulate" opacity=".05" overflow="visible" vector-effect="none" visibility="visible"/><path stroke-opacity="1" style="marker:none;font-variant-east_asian:normal" id="path6668-1" fill="#002e99" fill-opacity="1" fill-rule="nonzero" stroke="none" stroke-dasharray="none" stroke-dashoffset="0" stroke-linecap="butt" stroke-linejoin="miter" stroke-miterlimit="4" stroke-width="1" d="m 18.299799,10.175644 c 0,1.200959 -0.983764,2.17565 -2.195901,2.17565 -1.212139,0 -2.195902,-0.974691 -2.195902,-2.17565 0,-1.200958 0.983763,-2.1756492 2.195902,-2.1756492 1.212137,0 2.195901,0.9746912 2.195901,2.1756492 z m 5.480666,2.313422 c -0.101564,0.0163 -0.197533,0.05599 -0.279785,0.11578 l -7.500909,1.158902 -7.4605106,-1.174885 c -0.1928539,-0.138585 -0.4639981,-0.180084 -0.6794902,-0.07719 -0.2154931,0.102889 -0.3567625,0.346754 -0.3597337,0.578808 -0.00272,0.232086 0.1469205,0.432236 0.3597337,0.540228 l 5.8460378,1.837425 -0.03998,4.218107 -2.062831,6.317365 c -0.198676,0.287667 -0.138122,0.657112 0.159882,0.848893 0.298017,0.191809 0.720631,0.133367 0.919327,-0.154332 l 3.328993,-6.818979 3.266154,6.807194 c 0.17661,0.298373 0.570296,0.402021 0.87935,0.231529 0.309054,-0.170489 0.416427,-0.550548 0.239823,-0.848923 l -2.02454,-6.344543 -0.07993,-3.971062 5.928066,-2.145275 c 0.239517,-0.16215 0.343571,-0.469126 0.239831,-0.733145 -0.103749,-0.264048 -0.388859,-0.417886 -0.679506,-0.385892 h 2e-5 z" color="#000" display="inline" enable-background="accumulate" opacity=".15" overflow="visible" vector-effect="none" visibility="visible"/><path id="path6668" fill="#fff" fill-opacity="1" stroke="none" d="m 18.299799,9.1756491 c 0,1.2009589 -0.983764,2.1756499 -2.195901,2.1756499 -1.212139,0 -2.195902,-0.974691 -2.195902,-2.1756499 0,-1.2009577 0.983763,-2.1756489 2.195902,-2.1756489 1.212137,0 2.195901,0.9746912 2.195901,2.1756489 z m 5.480666,2.3134219 c -0.101564,0.0163 -0.197533,0.05599 -0.279785,0.11578 l -7.500909,1.158902 -7.4605106,-1.174885 c -0.1928539,-0.138585 -0.4639981,-0.180084 -0.6794902,-0.07719 -0.2154931,0.102889 -0.3567625,0.346754 -0.3597337,0.578808 -0.00272,0.232086 0.1469205,0.432236 0.3597337,0.540228 l 5.8460378,1.837425 -0.03998,4.218107 -2.062831,6.317365 c -0.198676,0.287667 -0.138122,0.657112 0.159882,0.848893 0.298017,0.191809 0.720631,0.133367 0.919327,-0.154332 l 3.328993,-6.818979 3.266154,6.807194 c 0.17661,0.298373 0.570296,0.402021 0.87935,0.231529 0.309054,-0.170489 0.416427,-0.550548 0.239823,-0.848923 l -2.02454,-6.344543 -0.07993,-3.971062 5.928066,-2.145275 c 0.239517,-0.16215 0.343571,-0.469126 0.239831,-0.733145 -0.103749,-0.264048 -0.388859,-0.417886 -0.679506,-0.385892 h 2e-5 z"/></svg>