<svg xmlns="http://www.w3.org/2000/svg" xmlns:svg="http://www.w3.org/2000/svg" xmlns:xlink="http://www.w3.org/1999/xlink" id="svg4354" width="32" height="32" version="1.1" viewBox="0 0 32 32"><defs id="defs4356"><linearGradient id="linearGradient872"><stop id="stop868" offset="0" stop-color="#64baff" stop-opacity="1"/><stop id="stop870" offset="1" stop-color="#3689e6" stop-opacity="1"/></linearGradient><linearGradient id="linearGradient4251" x1="19.875" x2="19.875" y1="38.245" y2="-61.256" gradientTransform="matrix(-0.29999995,0,0,0.29999995,34.258887,19.300002)" gradientUnits="userSpaceOnUse" xlink:href="#linearGradient3707-319-631-407-1-846-5-4-5-44"/><linearGradient id="linearGradient3707-319-631-407-1-846-5-4-5-44"><stop id="stop3788-4-8-9-7" offset="0" stop-color="#365a7c" stop-opacity="1"/><stop id="stop3790-2-1-9-6" offset="1" stop-color="#5ea1ca" stop-opacity="1"/></linearGradient><linearGradient id="linearGradient4253" x1="19.875" x2="19.875" y1="38.245" y2="-61.256" gradientTransform="matrix(-0.29999995,0,0,0.29999995,28.258887,19.300002)" gradientUnits="userSpaceOnUse" xlink:href="#linearGradient3707-319-631-407-1-846-5-4-5-4"/><linearGradient id="linearGradient3707-319-631-407-1-846-5-4-5-4"><stop id="stop3788-4-8-9-8" offset="0" stop-color="#365a7c" stop-opacity="1"/><stop id="stop3790-2-1-9-10" offset="1" stop-color="#5ea1ca" stop-opacity="1"/></linearGradient><linearGradient id="linearGradient4255" x1="19.875" x2="19.875" y1="38.245" y2="-61.256" gradientTransform="matrix(-0.29999995,0,0,0.29999995,22.258887,19.300002)" gradientUnits="userSpaceOnUse" xlink:href="#linearGradient3707-319-631-407-1-846-5-4-5-6"/><linearGradient id="linearGradient3707-319-631-407-1-846-5-4-5-6"><stop id="stop3788-4-8-9-1" offset="0" stop-color="#365a7c" stop-opacity="1"/><stop id="stop3790-2-1-9-1" offset="1" stop-color="#5ea1ca" stop-opacity="1"/></linearGradient><linearGradient id="linearGradient4257" x1="19.875" x2="19.875" y1="38.245" y2="-61.256" gradientTransform="matrix(-0.29999995,0,0,0.29999995,16.258887,19.300002)" gradientUnits="userSpaceOnUse" xlink:href="#linearGradient3707-319-631-407-1-846-5-4-5"/><linearGradient id="linearGradient3707-319-631-407-1-846-5-4-5"><stop id="stop3788-4-8-9" offset="0" stop-color="#365a7c" stop-opacity="1"/><stop id="stop3790-2-1-9" offset="1" stop-color="#5ea1ca" stop-opacity="1"/></linearGradient><linearGradient id="linearGradient3141" x1="24" x2="24" y1="6.271" y2="41.729" gradientTransform="matrix(0.72972972,0,0,0.64864869,-1.5135104,0.93243894)" gradientUnits="userSpaceOnUse" xlink:href="#linearGradient3924"/><linearGradient id="linearGradient3924"><stop id="stop3926" offset="0" stop-color="#fff" stop-opacity="1"/><stop id="stop3928" offset=".042" stop-color="#fff" stop-opacity=".235"/><stop id="stop3930" offset=".951" stop-color="#fff" stop-opacity=".157"/><stop id="stop3932" offset="1" stop-color="#fff" stop-opacity=".392"/></linearGradient><radialGradient id="radialGradient2910" cx="605.714" cy="486.648" r="117.143" fx="605.714" fy="486.648" gradientTransform="matrix(-0.04372487,0,0,0.01647059,31.794815,21.294422)" gradientUnits="userSpaceOnUse" xlink:href="#linearGradient5060-6-6-5"/><linearGradient id="linearGradient5060-6-6-5"><stop id="stop5062-3-0-3" offset="0" stop-color="#000" stop-opacity="1"/><stop id="stop5064-1-4-9" offset="1" stop-color="#000" stop-opacity="0"/></linearGradient><radialGradient id="radialGradient2913" cx="605.714" cy="486.648" r="117.143" fx="605.714" fy="486.648" gradientTransform="matrix(0.04372487,0,0,0.01647059,0.20519206,21.294422)" gradientUnits="userSpaceOnUse" xlink:href="#linearGradient5060-6-6-5"/><linearGradient id="linearGradient5048-7-7-5"><stop id="stop5050-5-6-4" offset="0" stop-color="#000" stop-opacity="0"/><stop id="stop5056-9-0-1" offset=".5" stop-color="#000" stop-opacity="1"/><stop id="stop5052-6-9-5" offset="1" stop-color="#000" stop-opacity="0"/></linearGradient><linearGradient id="linearGradient4352" x1="302.857" x2="302.857" y1="366.648" y2="609.505" gradientTransform="matrix(0.04372487,0,0,0.01647059,0.19658512,21.294422)" gradientUnits="userSpaceOnUse" xlink:href="#linearGradient5048-7-7-5"/><linearGradient id="linearGradient874" x1="16" x2="16" y1="3" y2="29.567" gradientUnits="userSpaceOnUse" xlink:href="#linearGradient872"/><linearGradient id="linearGradient97200" x1="24" x2="24" y1="5" y2="43" gradientTransform="matrix(0.72972972,0,0,0.62162164,-1.5135104,2.0810873)" gradientUnits="userSpaceOnUse" xlink:href="#linearGradient3924-6"/><linearGradient id="linearGradient3924-6"><stop id="stop3926-2" offset="0" stop-color="#fff" stop-opacity="1"/><stop id="stop3928-6" offset=".063" stop-color="#fff" stop-opacity=".235"/><stop id="stop3930-1" offset=".951" stop-color="#fff" stop-opacity=".157"/><stop id="stop3932-8" offset="1" stop-color="#fff" stop-opacity=".392"/></linearGradient><linearGradient id="linearGradient3358" x1="32.14" x2="65.26" y1="29.5" y2="29.5" gradientTransform="matrix(0,-0.93703138,0.9372054,0,2.913492,61.18513)" gradientUnits="userSpaceOnUse" xlink:href="#linearGradient3688-464-309"/><linearGradient id="linearGradient3688-464-309"><stop id="stop2889" offset="0" stop-color="#181818" stop-opacity="1"/><stop id="stop2891" offset="1" stop-color="#181818" stop-opacity="0"/></linearGradient><linearGradient id="linearGradient3355" x1="79.457" x2="79.457" y1="22.857" y2="50.057" gradientTransform="matrix(0.87690624,0,0,0.87690624,-50.325998,-12.96808)" gradientUnits="userSpaceOnUse" xlink:href="#linearGradient4220-7"/><linearGradient id="linearGradient4220-7"><stop id="stop4222-7" offset="0" stop-color="#7a8498" stop-opacity="1"/><stop id="stop4224-0" offset="1" stop-color="#34405c" stop-opacity="1"/></linearGradient><linearGradient id="linearGradient3351" x1="33.244" x2="66.732" y1="42.379" y2="42.379" gradientTransform="matrix(0,0.65217386,-0.65197269,0,46.983142,-13.60089)" gradientUnits="userSpaceOnUse" xlink:href="#linearGradient3878"/><linearGradient id="linearGradient3878"><stop id="stop3880" offset="0" stop-color="#fff" stop-opacity="1"/><stop id="stop3882" offset=".077" stop-color="#fff" stop-opacity=".235"/><stop id="stop3884" offset=".923" stop-color="#fff" stop-opacity=".157"/><stop id="stop3886" offset="1" stop-color="#fff" stop-opacity=".392"/></linearGradient><linearGradient id="linearGradient12727"><stop id="stop12729" offset="0" stop-color="#181818" stop-opacity="0"/><stop id="stop12745" offset=".538" stop-color="#181818" stop-opacity="0"/><stop id="stop12731" offset="1" stop-color="#181818" stop-opacity="1"/></linearGradient><linearGradient id="linearGradient3339" x1="32.14" x2="65.26" y1="29.5" y2="29.5" gradientTransform="matrix(0,0.63025208,0.63025208,0,12.229472,-15.22263)" gradientUnits="userSpaceOnUse" xlink:href="#linearGradient3688-464-309"/><linearGradient id="linearGradient3336" x1="32.14" x2="65.26" y1="29.5" y2="29.5" gradientTransform="matrix(0,0.56521735,0.56521735,0,13.945892,-11.99269)" gradientUnits="userSpaceOnUse" xlink:href="#linearGradient3688-464-309"/><linearGradient id="linearGradient3333" x1="44.2" x2="53.8" y1="1037.505" y2="1037.505" gradientTransform="matrix(0.72916668,0,0,0.7777778,-20.22924,-826.2996)" gradientUnits="userSpaceOnUse" xlink:href="#linearGradient46709"/><linearGradient id="linearGradient46709"><stop id="stop46711" offset="0" stop-color="#fff" stop-opacity="1"/><stop id="stop46713" offset="1" stop-color="#fff" stop-opacity="0"/></linearGradient><radialGradient id="radialGradient3343-3" cx="51.91" cy="38.188" r="27.5" fx="51.91" fy="38.188" gradientTransform="matrix(0,0.32535882,-0.3253589,1.3972489e-8,31.775672,2.1106999)" gradientUnits="userSpaceOnUse" spreadMethod="pad" xlink:href="#linearGradient12727"/><radialGradient id="radialGradient46715-1" cx="58" cy="135" r="8" fx="58" fy="135" gradientTransform="matrix(1.8750016,-3.7506847e-7,3.0005478e-7,1.5000013,-91.398628,-185.50029)" gradientUnits="userSpaceOnUse" xlink:href="#linearGradient46709"/><clipPath id="clipPath97202-9" clipPathUnits="userSpaceOnUse"><circle id="circle97204-4" cx="14.991" cy="21.819" r="7.6" fill="#be0505" fill-opacity="1" stroke="none" stroke-dasharray="none" stroke-linejoin="round" stroke-miterlimit="4" stroke-opacity="1" stroke-width="3.708" opacity="1"/></clipPath><radialGradient id="radialGradient97186-5" cx="605.714" cy="486.648" r="117.143" fx="605.714" fy="486.648" gradientTransform="matrix(0.04372487,0,0,0.01647059,0.20519206,21.294422)" gradientUnits="userSpaceOnUse" xlink:href="#linearGradient5060-6-6-5"/><radialGradient id="radialGradient97188-6" cx="605.714" cy="486.648" r="117.143" fx="605.714" fy="486.648" gradientTransform="matrix(-0.04372487,0,0,0.01647059,31.794815,21.294422)" gradientUnits="userSpaceOnUse" xlink:href="#linearGradient5060-6-6-5"/><radialGradient id="radialGradient97190-1" cx="4.599" cy="8.45" r="20" fx="4.599" fy="8.45" gradientTransform="matrix(0,1.7760367,-2.1794488,-5.3739133e-8,34.415917,-7.6340915)" gradientUnits="userSpaceOnUse" xlink:href="#linearGradient872"/><linearGradient id="linearGradient4251-6-4" x1="19.875" x2="19.875" y1="38.245" y2="-61.256" gradientTransform="matrix(-0.29999995,0,0,0.29999995,34.258887,18.300002)" gradientUnits="userSpaceOnUse" xlink:href="#linearGradient3707-319-631-407-1-846-5-4-5-44"/><linearGradient id="linearGradient4253-5-5" x1="19.875" x2="19.875" y1="38.245" y2="-61.256" gradientTransform="matrix(-0.29999995,0,0,0.29999995,28.258887,18.300002)" gradientUnits="userSpaceOnUse" xlink:href="#linearGradient3707-319-631-407-1-846-5-4-5-44"/><linearGradient id="linearGradient4255-3-2" x1="19.875" x2="19.875" y1="38.245" y2="-61.256" gradientTransform="matrix(-0.29999995,0,0,0.29999995,22.258887,18.300002)" gradientUnits="userSpaceOnUse" xlink:href="#linearGradient3707-319-631-407-1-846-5-4-5-44"/><linearGradient id="linearGradient1413" x1="302.857" x2="302.857" y1="366.648" y2="609.505" gradientTransform="matrix(0.04372487,0,0,0.01647059,0.19658512,21.294422)" gradientUnits="userSpaceOnUse" xlink:href="#linearGradient5048-7-7-5"/><linearGradient id="linearGradient1415" x1="19.875" x2="19.875" y1="38.245" y2="-61.256" gradientTransform="matrix(-0.29999995,0,0,0.29999995,16.258887,19.300002)" gradientUnits="userSpaceOnUse" xlink:href="#linearGradient3707-319-631-407-1-846-5-4-5"/><linearGradient id="linearGradient1417" x1="19.875" x2="19.875" y1="38.245" y2="-61.256" gradientTransform="matrix(-0.29999995,0,0,0.29999995,22.258887,19.300002)" gradientUnits="userSpaceOnUse" xlink:href="#linearGradient3707-319-631-407-1-846-5-4-5-6"/></defs><metadata id="metadata4359"/><rect id="rect2512-9-5" width="21.113" height="4" x="5.444" y="27.333" fill="url(#linearGradient4352)" fill-opacity="1" fill-rule="nonzero" stroke="none" stroke-width="1" display="inline" opacity=".402" overflow="visible" visibility="visible" style="marker:none"/><path id="path2514-7-4" fill="url(#radialGradient2913)" fill-opacity="1" fill-rule="nonzero" stroke="none" stroke-width="1" d="m 26.556432,27.333467 c 0,0 0,3.999779 0,3.999779 C 28.808154,31.340773 32,30.437099 32,29.333099 c 0,-1.104 -2.512752,-1.999632 -5.443568,-1.999632 z" display="inline" opacity=".402" overflow="visible" visibility="visible" style="marker:none"/><path id="path2516-8-9" fill="url(#radialGradient2910)" fill-opacity="1" fill-rule="nonzero" stroke="none" stroke-width="1" d="m 5.4435678,27.333467 c 0,0 0,3.999779 0,3.999779 C 3.1918461,31.340773 0,30.437099 0,29.333099 c 0,-1.104 2.5127521,-1.999632 5.4435678,-1.999632 z" display="inline" opacity=".402" overflow="visible" visibility="visible" style="marker:none"/><rect stroke-linejoin="round" style="marker:none" id="rect5505" width="29" height="26" x="1.5" y="3.5" fill="url(#linearGradient874)" fill-opacity="1" fill-rule="nonzero" stroke="none" stroke-dasharray="none" stroke-dashoffset="0" stroke-linecap="round" stroke-miterlimit="4" stroke-opacity="1" stroke-width="1" color="#000" display="inline" enable-background="accumulate" overflow="visible" rx="2" ry="2.08" visibility="visible"/><path id="path4306" fill="#fff" fill-opacity=".588" stroke="#fff" stroke-linecap="butt" stroke-linejoin="miter" stroke-opacity="1" stroke-width="1" d="m 5.5,25.5 c -0.554,0 -1,0.446 -1,1 v 2 h 23 v -2 c 0,-0.554 -0.446,-1 -1,-1 z" opacity=".7"/><path id="path3184" fill="url(#linearGradient4257)" fill-opacity="1" fill-rule="nonzero" stroke="none" stroke-width="1" d="M 9.118401,22.000001 H 4.8815972 C 4.3931925,22.000001 4,22.393194 4,22.881598 v 4.236805 C 4,27.606808 4.3931925,28 4.8815972,28 H 9.118401 C 9.606807,28 10,27.606808 10,27.118403 V 22.881598 C 10,22.393194 9.606807,22.000001 9.118401,22.000001 Z" color="#000" display="inline" enable-background="accumulate" opacity=".3" overflow="visible" visibility="visible" style="marker:none"/><path id="path3176" fill="#f7f7f7" fill-opacity="1" fill-rule="nonzero" stroke="#fff" stroke-dashoffset="0" stroke-linecap="butt" stroke-linejoin="miter" stroke-miterlimit="4" stroke-opacity="1" stroke-width=".985" d="M 8.206706,23.492713 H 5.7932951 c -0.1665219,0 -0.3005814,0.13406 -0.3005814,0.300581 v 2.413411 c 0,0.166522 0.1340595,0.300581 0.3005814,0.300581 H 8.206706 c 0.1665209,0 0.3005805,-0.134059 0.3005805,-0.300581 v -2.413411 c 0,-0.166521 -0.1340596,-0.300581 -0.3005805,-0.300581 z" color="#000" display="inline" enable-background="accumulate" overflow="visible" visibility="visible" style="marker:none"/><path id="path3184-5" fill="url(#linearGradient4255)" fill-opacity="1" fill-rule="nonzero" stroke="none" stroke-width="1" d="M 15.118401,22.000001 H 10.881597 C 10.393193,22.000001 10,22.393194 10,22.881598 v 4.236805 C 10,27.606808 10.393193,28 10.881597,28 h 4.236804 C 15.606807,28 16,27.606808 16,27.118403 v -4.236805 c 0,-0.488404 -0.393193,-0.881597 -0.881599,-0.881597 z" color="#000" display="inline" enable-background="accumulate" opacity=".3" overflow="visible" visibility="visible" style="marker:none"/><rect clip-rule="nonzero" style="isolation:auto;mix-blend-mode:normal;solid-color:#000;solid-opacity:1;marker:none" id="rect5505-1" width="29" height="26" x="1.5" y="3.5" fill="#000" fill-opacity="0" fill-rule="nonzero" stroke="#002e99" stroke-dasharray="none" stroke-dashoffset="0" stroke-linecap="round" stroke-linejoin="round" stroke-miterlimit="4" stroke-opacity="1" stroke-width="1" color="#000" color-interpolation="sRGB" color-interpolation-filters="linearRGB" color-rendering="auto" display="inline" enable-background="accumulate" image-rendering="auto" opacity=".5" overflow="visible" rx="2" ry="2.08" shape-rendering="auto" text-rendering="auto" visibility="visible"/><rect id="rect6741-7" width="27" height="24" x="2.5" y="4.5" fill="none" stroke="url(#linearGradient3141)" stroke-dasharray="none" stroke-dashoffset="0" stroke-linecap="round" stroke-linejoin="round" stroke-miterlimit="4" stroke-opacity="1" stroke-width="1" opacity=".5" rx="1" ry="1.043"/><path id="path3184-5-7" fill="url(#linearGradient4255-3-2)" fill-opacity="1" fill-rule="nonzero" stroke="none" stroke-width="1" d="M 15.118401,21.000001 H 10.881597 C 10.393193,21.000001 10,21.393194 10,21.881598 v 4.236805 C 10,26.606808 10.393193,27 10.881597,27 h 4.236804 C 15.606807,27 16,26.606808 16,26.118403 v -4.236805 c 0,-0.488404 -0.393193,-0.881597 -0.881599,-0.881597 z" color="#000" display="inline" enable-background="accumulate" opacity=".3" overflow="visible" visibility="visible" style="marker:none"/><path id="path3176-9-9" fill="#f7f7f7" fill-opacity="1" fill-rule="nonzero" stroke="#fff" stroke-dashoffset="0" stroke-linecap="butt" stroke-linejoin="miter" stroke-miterlimit="4" stroke-opacity="1" stroke-width=".985" d="m 14.206706,22.492713 h -2.413411 c -0.166522,0 -0.300581,0.13406 -0.300581,0.300581 v 2.413411 c 0,0.166522 0.134059,0.300581 0.300581,0.300581 h 2.413411 c 0.166521,0 0.300581,-0.134059 0.300581,-0.300581 v -2.413411 c 0,-0.166521 -0.13406,-0.300581 -0.300581,-0.300581 z" color="#000" display="inline" enable-background="accumulate" overflow="visible" visibility="visible" style="marker:none"/><path id="path3184-0-2" fill="url(#linearGradient4253-5-5)" fill-opacity="1" fill-rule="nonzero" stroke="none" stroke-width="1" d="M 21.118401,21.000001 H 16.881597 C 16.393193,21.000001 16,21.393194 16,21.881598 v 4.236805 C 16,26.606808 16.393193,27 16.881597,27 h 4.236804 C 21.606807,27 22,26.606808 22,26.118403 v -4.236805 c 0,-0.488404 -0.393193,-0.881597 -0.881599,-0.881597 z" color="#000" display="inline" enable-background="accumulate" opacity=".3" overflow="visible" visibility="visible" style="marker:none"/><path id="path3176-4-0" fill="#f7f7f7" fill-opacity="1" fill-rule="nonzero" stroke="#fff" stroke-dashoffset="0" stroke-linecap="butt" stroke-linejoin="miter" stroke-miterlimit="4" stroke-opacity="1" stroke-width=".985" d="m 20.206706,22.492713 h -2.413411 c -0.166522,0 -0.300581,0.13406 -0.300581,0.300581 v 2.413411 c 0,0.166522 0.134059,0.300581 0.300581,0.300581 h 2.413411 c 0.166521,0 0.300581,-0.134059 0.300581,-0.300581 v -2.413411 c 0,-0.166521 -0.13406,-0.300581 -0.300581,-0.300581 z" color="#000" display="inline" enable-background="accumulate" overflow="visible" visibility="visible" style="marker:none"/><path id="path3184-7-2" fill="url(#linearGradient4251-6-4)" fill-opacity="1" fill-rule="nonzero" stroke="none" stroke-width="1" d="M 27.118401,21.000001 H 22.881597 C 22.393193,21.000001 22,21.393194 22,21.881598 v 4.236805 C 22,26.606808 22.393193,27 22.881597,27 h 4.236804 C 27.606807,27 28,26.606808 28,26.118403 v -4.236805 c 0,-0.488404 -0.393193,-0.881597 -0.881599,-0.881597 z" color="#000" display="inline" enable-background="accumulate" opacity=".3" overflow="visible" visibility="visible" style="marker:none"/><path id="path3176-5-3" fill="#f7f7f7" fill-opacity="1" fill-rule="nonzero" stroke="#fff" stroke-dashoffset="0" stroke-linecap="butt" stroke-linejoin="miter" stroke-miterlimit="4" stroke-opacity="1" stroke-width=".985" d="m 26.206706,22.492713 h -2.413411 c -0.166522,0 -0.300581,0.13406 -0.300581,0.300581 v 2.413411 c 0,0.166522 0.134059,0.300581 0.300581,0.300581 h 2.413411 c 0.166521,0 0.300581,-0.134059 0.300581,-0.300581 v -2.413411 c 0,-0.166521 -0.13406,-0.300581 -0.300581,-0.300581 z" color="#000" display="inline" enable-background="accumulate" overflow="visible" visibility="visible" style="marker:none"/><g id="g97098" clip-path="url(#clipPath97202-9)" transform="matrix(1.25,0,0,1.25,0.7608952,-7.773262)"><rect id="rect97100" width="21.113" height="4" x="5.444" y="27.333" fill="url(#linearGradient1413)" fill-opacity="1" fill-rule="nonzero" stroke="none" stroke-width="1" display="inline" opacity=".402" overflow="visible" visibility="visible" style="marker:none"/><path id="path97102" fill="url(#radialGradient97186-5)" fill-opacity="1" fill-rule="nonzero" stroke="none" stroke-width="1" d="m 26.556432,27.333467 c 0,0 0,3.999779 0,3.999779 C 28.808154,31.340773 32,30.437099 32,29.333099 c 0,-1.104 -2.512752,-1.999632 -5.443568,-1.999632 z" display="inline" opacity=".402" overflow="visible" visibility="visible" style="marker:none"/><path id="path97104" fill="url(#radialGradient97188-6)" fill-opacity="1" fill-rule="nonzero" stroke="none" stroke-width="1" d="m 5.4435678,27.333467 c 0,0 0,3.999779 0,3.999779 C 3.1918461,31.340773 0,30.437099 0,29.333099 c 0,-1.104 2.5127521,-1.999632 5.4435678,-1.999632 z" display="inline" opacity=".402" overflow="visible" visibility="visible" style="marker:none"/><rect stroke-linejoin="round" style="marker:none" id="rect97106" width="29" height="25" x="1.5" y="4.5" fill="url(#radialGradient97190-1)" fill-opacity="1" fill-rule="nonzero" stroke="none" stroke-dasharray="none" stroke-dashoffset="0" stroke-linecap="round" stroke-miterlimit="4" stroke-opacity="1" stroke-width="1" color="#000" display="inline" enable-background="accumulate" overflow="visible" rx="2" ry="2" visibility="visible"/><path id="path97108" fill="#fff" fill-opacity=".588" stroke="#fff" stroke-linecap="butt" stroke-linejoin="miter" stroke-opacity="1" stroke-width="1" d="m 5.5,25.5 c -0.554,0 -1,0.446 -1,1 v 2 h 23 v -2 c 0,-0.554 -0.446,-1 -1,-1 z" opacity=".7"/><path id="path97110" fill="url(#linearGradient1415)" fill-opacity="1" fill-rule="nonzero" stroke="none" stroke-width="1" d="M 9.118401,22.000001 H 4.8815972 C 4.3931925,22.000001 4,22.393194 4,22.881598 v 4.236805 C 4,27.606808 4.3931925,28 4.8815972,28 H 9.118401 C 9.606807,28 10,27.606808 10,27.118403 V 22.881598 C 10,22.393194 9.606807,22.000001 9.118401,22.000001 Z" color="#000" display="inline" enable-background="accumulate" opacity=".3" overflow="visible" visibility="visible" style="marker:none"/><path id="path97112" fill="#f7f7f7" fill-opacity="1" fill-rule="nonzero" stroke="#fff" stroke-dashoffset="0" stroke-linecap="butt" stroke-linejoin="miter" stroke-miterlimit="4" stroke-opacity="1" stroke-width=".985" d="M 8.206706,23.492713 H 5.7932951 c -0.1665219,0 -0.3005814,0.13406 -0.3005814,0.300581 v 2.413411 c 0,0.166522 0.1340595,0.300581 0.3005814,0.300581 H 8.206706 c 0.1665209,0 0.3005805,-0.134059 0.3005805,-0.300581 v -2.413411 c 0,-0.166521 -0.1340596,-0.300581 -0.3005805,-0.300581 z" color="#000" display="inline" enable-background="accumulate" overflow="visible" visibility="visible" style="marker:none"/><path id="path97114" fill="url(#linearGradient1417)" fill-opacity="1" fill-rule="nonzero" stroke="none" stroke-width="1" d="M 15.118401,22.000001 H 10.881597 C 10.393193,22.000001 10,22.393194 10,22.881598 v 4.236805 C 10,27.606808 10.393193,28 10.881597,28 h 4.236804 C 15.606807,28 16,27.606808 16,27.118403 v -4.236805 c 0,-0.488404 -0.393193,-0.881597 -0.881599,-0.881597 z" color="#000" display="inline" enable-background="accumulate" opacity=".3" overflow="visible" visibility="visible" style="marker:none"/><path id="path97116" fill="#f7f7f7" fill-opacity="1" fill-rule="nonzero" stroke="#fff" stroke-dashoffset="0" stroke-linecap="butt" stroke-linejoin="miter" stroke-miterlimit="4" stroke-opacity="1" stroke-width=".985" d="m 14.206706,23.492713 h -2.413411 c -0.166522,0 -0.300581,0.13406 -0.300581,0.300581 v 2.413411 c 0,0.166522 0.134059,0.300581 0.300581,0.300581 h 2.413411 c 0.166521,0 0.300581,-0.134059 0.300581,-0.300581 v -2.413411 c 0,-0.166521 -0.13406,-0.300581 -0.300581,-0.300581 z" color="#000" display="inline" enable-background="accumulate" overflow="visible" visibility="visible" style="marker:none"/><path id="path97118" fill="url(#linearGradient4253)" fill-opacity="1" fill-rule="nonzero" stroke="none" stroke-width="1" d="M 21.118401,22.000001 H 16.881597 C 16.393193,22.000001 16,22.393194 16,22.881598 v 4.236805 C 16,27.606808 16.393193,28 16.881597,28 h 4.236804 C 21.606807,28 22,27.606808 22,27.118403 v -4.236805 c 0,-0.488404 -0.393193,-0.881597 -0.881599,-0.881597 z" color="#000" display="inline" enable-background="accumulate" opacity=".3" overflow="visible" visibility="visible" style="marker:none"/><path id="path97120" fill="#f7f7f7" fill-opacity="1" fill-rule="nonzero" stroke="#fff" stroke-dashoffset="0" stroke-linecap="butt" stroke-linejoin="miter" stroke-miterlimit="4" stroke-opacity="1" stroke-width=".985" d="m 20.206706,23.492713 h -2.413411 c -0.166522,0 -0.300581,0.13406 -0.300581,0.300581 v 2.413411 c 0,0.166522 0.134059,0.300581 0.300581,0.300581 h 2.413411 c 0.166521,0 0.300581,-0.134059 0.300581,-0.300581 v -2.413411 c 0,-0.166521 -0.13406,-0.300581 -0.300581,-0.300581 z" color="#000" display="inline" enable-background="accumulate" overflow="visible" visibility="visible" style="marker:none"/><path id="path97122" fill="url(#linearGradient4251)" fill-opacity="1" fill-rule="nonzero" stroke="none" stroke-width="1" d="M 27.118401,22.000001 H 22.881597 C 22.393193,22.000001 22,22.393194 22,22.881598 v 4.236805 C 22,27.606808 22.393193,28 22.881597,28 h 4.236804 C 27.606807,28 28,27.606808 28,27.118403 v -4.236805 c 0,-0.488404 -0.393193,-0.881597 -0.881599,-0.881597 z" color="#000" display="inline" enable-background="accumulate" opacity=".3" overflow="visible" visibility="visible" style="marker:none"/><path id="path97124" fill="#f7f7f7" fill-opacity="1" fill-rule="nonzero" stroke="#fff" stroke-dashoffset="0" stroke-linecap="butt" stroke-linejoin="miter" stroke-miterlimit="4" stroke-opacity="1" stroke-width=".985" d="m 26.206706,23.492713 h -2.413411 c -0.166522,0 -0.300581,0.13406 -0.300581,0.300581 v 2.413411 c 0,0.166522 0.134059,0.300581 0.300581,0.300581 h 2.413411 c 0.166521,0 0.300581,-0.134059 0.300581,-0.300581 v -2.413411 c 0,-0.166521 -0.13406,-0.300581 -0.300581,-0.300581 z" color="#000" display="inline" enable-background="accumulate" overflow="visible" visibility="visible" style="marker:none"/><rect clip-rule="nonzero" style="isolation:auto;mix-blend-mode:normal;solid-color:#000;solid-opacity:1;marker:none" id="rect97126" width="29" height="25" x="1.5" y="4.5" fill="#000" fill-opacity="0" fill-rule="nonzero" stroke="#00537d" stroke-dasharray="none" stroke-dashoffset="0" stroke-linecap="round" stroke-linejoin="round" stroke-miterlimit="4" stroke-opacity="1" stroke-width="1" color="#000" color-interpolation="sRGB" color-interpolation-filters="linearRGB" color-rendering="auto" display="inline" enable-background="accumulate" image-rendering="auto" opacity=".5" overflow="visible" rx="2" ry="2" shape-rendering="auto" text-rendering="auto" visibility="visible"/><rect id="rect97128" width="27" height="23" x="2.5" y="5.5" fill="none" stroke="url(#linearGradient97200)" stroke-dasharray="none" stroke-dashoffset="0" stroke-linecap="round" stroke-linejoin="round" stroke-miterlimit="4" stroke-opacity="1" stroke-width="1" opacity=".5" rx="1" ry="1"/></g><path id="path8105" fill="none" stroke="url(#linearGradient3358)" stroke-dasharray="none" stroke-miterlimit="4" stroke-opacity="1" stroke-width="1" d="m 19.354392,6.5 c 6.903564,0 12.499995,5.596441 12.499995,12.5 0,6.903559 -5.596431,12.5 -12.499995,12.5 -6.903565,0 -12.499996,-5.596441 -12.499996,-12.5 0,-6.903559 5.596431,-12.5 12.499996,-12.5 z" display="inline" opacity=".15"/><path id="path4218" fill="url(#linearGradient3355)" fill-opacity="1" fill-rule="nonzero" stroke="none" stroke-width=".791" d="M 19.685486,7.50581 A 11.5,11.5 0 0 0 7.849549,19.0019 a 11.5,11.5 0 0 0 23,0 A 11.5,11.5 0 0 0 19.685486,7.50581 Z m -0.333984,2.99414 c 4.709,0 8.5,3.791 8.5,8.5 0,4.709 -3.791,8.5 -8.5,8.5 -4.709,0 -8.5,-3.791 -8.5,-8.5 0,-4.709 3.791,-8.5 8.5,-8.5 z" color="#000" display="inline" enable-background="accumulate" opacity="1" overflow="visible" visibility="visible" style="marker:none"/><path id="path7624" fill="none" stroke="#000" stroke-dasharray="none" stroke-miterlimit="4" stroke-opacity="1" stroke-width="1" d="m 30.850462,19.00222 a 11.499999,11.497725 0 0 1 -22.99999,0 11.5,11.497726 0 1 1 22.99999,0 z" display="inline" opacity=".3"/><path id="path7681" fill="none" stroke="url(#linearGradient3351)" stroke-dasharray="none" stroke-miterlimit="4" stroke-opacity="1" stroke-width="1" d="m 19.350862,29.5 a 10.49676,10.5 0 1 1 0,-21 10.496761,10.5 0 0 1 0,21 z" display="inline" opacity=".3"/><rect id="rect12723" width="17" height="17" x="10.851" y="10.5" fill="url(#radialGradient3343-3)" fill-opacity="1" fill-rule="nonzero" stroke="none" stroke-width="1" color="#000" display="inline" enable-background="accumulate" opacity=".4" overflow="visible" rx="25" ry="25" visibility="visible" style="marker:none"/><path id="path8113" fill="none" stroke="#000" stroke-dasharray="none" stroke-miterlimit="4" stroke-opacity="1" stroke-width="1" d="m 27.850862,19.00378 a 8.5,8.4992244 0 0 1 -17,0 8.5,8.4992243 0 1 1 17,0 z" display="inline" opacity=".3"/><path id="path8123" fill="none" stroke="url(#linearGradient3339)" stroke-dasharray="none" stroke-miterlimit="4" stroke-opacity="1" stroke-width="1" d="m 19.352472,26.50008 a 7.5000001,7.5000001 0 0 0 0,-15 7.5000001,7.5000001 0 1 0 0,15 z" display="inline" opacity=".15"/><path id="path8127" fill="none" stroke="url(#linearGradient3336)" stroke-dasharray="none" stroke-miterlimit="4" stroke-opacity="1" stroke-width="1" d="m 19.353142,25.50008 a 6.5,6.5 0 0 0 0,-13 6.5,6.5 0 1 0 0,13 z" display="inline" opacity=".08"/><rect id="rect12733" width="7" height="8" x="12" y="-23.351" fill="url(#linearGradient3333)" fill-opacity="1" fill-rule="nonzero" stroke="none" stroke-width="1" color="#000" display="inline" enable-background="accumulate" opacity=".5" overflow="visible" rx="25" ry="25" transform="rotate(90)" visibility="visible" style="marker:none"/><path id="path46707" fill="url(#radialGradient46715-1)" fill-opacity="1" stroke="#fff" stroke-dasharray="none" stroke-miterlimit="4" stroke-opacity=".523" stroke-width="1" d="m 19.352472,26.50008 a 7.5000001,7.5000001 0 0 0 0,-15 7.5000001,7.5000001 0 1 0 0,15 z" display="inline" opacity=".5"/></svg>