<svg xmlns="http://www.w3.org/2000/svg" xmlns:svg="http://www.w3.org/2000/svg" xmlns:xlink="http://www.w3.org/1999/xlink" id="svg3172" width="128" height="128" version="1.1"><defs id="defs3174"><linearGradient id="linearGradient3600"><stop id="stop3602" offset="0" stop-color="#f4f4f4" stop-opacity="1"/><stop id="stop3604" offset="1" stop-color="#dbdbdb" stop-opacity="1"/></linearGradient><linearGradient id="linearGradient3702-501-757-486"><stop id="stop3100" offset="0" stop-color="#181818" stop-opacity="0"/><stop id="stop3102" offset=".5" stop-color="#181818" stop-opacity="1"/><stop id="stop3104" offset="1" stop-color="#181818" stop-opacity="0"/></linearGradient><linearGradient id="linearGradient3688-464-309-255"><stop id="stop3094" offset="0" stop-color="#181818" stop-opacity="1"/><stop id="stop3096" offset="1" stop-color="#181818" stop-opacity="0"/></linearGradient><linearGradient id="linearGradient3019-2" x1="25.132" x2="25.132" y1=".985" y2="47.013" gradientTransform="matrix(2.6285655,0,0,2.5204893,0.914429,-4.3579715)" gradientUnits="userSpaceOnUse" xlink:href="#linearGradient3600"/><linearGradient id="linearGradient3016-9" x1="24" x2="24" y1="5.564" y2="42.195" gradientTransform="matrix(2.4594595,0,0,3.1081081,4.9729852,-14.594554)" gradientUnits="userSpaceOnUse" xlink:href="#linearGradient3977-3"/><linearGradient id="linearGradient3977-3"><stop id="stop3979-6" offset="0" stop-color="#fff" stop-opacity="1"/><stop id="stop3981-0" offset=".006" stop-color="#fff" stop-opacity=".235"/><stop id="stop3983-6" offset=".994" stop-color="#fff" stop-opacity=".157"/><stop id="stop3985-2" offset="1" stop-color="#fff" stop-opacity=".392"/></linearGradient><linearGradient id="linearGradient3148" x1="-51.786" x2="-51.786" y1="50.786" y2="2.906" gradientTransform="matrix(2.1456297,0,0,2.3791292,158.08983,-7.746462)" gradientUnits="userSpaceOnUse" xlink:href="#linearGradient3104-6"/><linearGradient id="linearGradient3104-6"><stop id="stop3106-3" offset="0" stop-color="#000" stop-opacity=".318"/><stop id="stop3108-9" offset="1" stop-color="#000" stop-opacity=".24"/></linearGradient><linearGradient id="linearGradient4097" x1="25.058" x2="25.058" y1="47.028" y2="39.999" gradientTransform="matrix(2.8421052,0,0,0.71428566,-4.2105336,87.430066)" gradientUnits="userSpaceOnUse" xlink:href="#linearGradient3702-501-757-486"/><radialGradient id="radialGradient4095" cx="4.993" cy="43.5" r="2.5" fx="4.993" fy="43.5" gradientTransform="matrix(5.6949649,0,0,0.99999992,-52.665305,-162.00149)" gradientUnits="userSpaceOnUse" xlink:href="#linearGradient3688-464-309-255"/><radialGradient id="radialGradient4093" cx="4.993" cy="43.5" r="2.5" fx="4.993" fy="43.5" gradientTransform="matrix(5.6949649,0,0,0.99999992,75.334676,75.001496)" gradientUnits="userSpaceOnUse" xlink:href="#linearGradient3688-464-309-255"/></defs><metadata id="metadata3177"/><g id="g978" stroke-width="1.039" opacity=".2" transform="matrix(0.92592591,0,0,1,4.7407489,0)"><rect id="rect2801" width="14.211" height="5" x="103.789" y="116.001" fill="url(#radialGradient4093)" fill-opacity="1" stroke="none" stroke-width="1.481"/><rect id="rect3696" width="14.211" height="5" x="-24.211" y="-121.001" fill="url(#radialGradient4095)" fill-opacity="1" stroke="none" stroke-width="1.481" transform="scale(-1)"/><rect id="rect3700" width="79.579" height="5" x="24.211" y="116.001" fill="url(#linearGradient4097)" fill-opacity="1" stroke="none" stroke-width="1.481"/></g><path id="path4160" fill="url(#linearGradient3019-2)" fill-opacity="1" stroke="none" d="m 18,2.0004521 c 21.081878,0 91.99989,0.00694 91.99989,0.00694 L 110,118 c 0,0 -61.333339,0 -91.999999,0 0,-38.666664 0,-77.33333 0,-115.999995 z" display="inline"/><path id="rect6741-1" fill="none" stroke="url(#linearGradient3016-9)" stroke-dasharray="none" stroke-dashoffset="0" stroke-linecap="round" stroke-linejoin="round" stroke-miterlimit="4" stroke-opacity="1" stroke-width="1" d="m 109.5,117.5 h -91 V 2.500002 h 91 z"/><path id="path4160-6-1" fill="none" stroke="url(#linearGradient3148)" stroke-dasharray="none" stroke-dashoffset="0" stroke-linecap="butt" stroke-linejoin="round" stroke-miterlimit="4" stroke-opacity="1" stroke-width="1" d="m 17.500001,1.49999 c 21.311001,0 92.999899,0.008 92.999899,0.008 l 1e-4,116.99202 c 0,0 -61.999997,0 -92.999999,0 0,-39.000096 0,-77.999807 0,-116.999456 z" display="inline"/><path id="rect3164" fill="#0093dd" fill-opacity="1" fill-rule="nonzero" stroke="none" stroke-width="1" d="m 63.999986,39.000018 c -8.864,0 -16,7.136 -16,16 v 8 h -2 v 11.375 l 0.8125,-1.0625 c 1.162654,-1.5614 4.261618,-3.7916 6.6875,-4.75 1.278062,-0.505 4.346794,-1.0591 7.8125,-1.4375 5.221696,-0.5868 15.087256,-0.125 18.6875,-4.125 v -8 c 0,-8.864 -7.136,-16 -16,-16 z m 1.3125,1.9375 c 0.758334,0.04424 1.501596,0.13252 2.25,0.3125 2.688742,0.6462 2.992306,1.2686 0.375,0.75 -4.117984,-0.8162 -9.58753,1.017 -12.9375,4.375 -1.0017,1.0042 -2.265448,2.6669 -2.8125,3.6875 -1.12713,2.103 -0.949804,0.7485 0.25,-1.8125 2.193608,-4.6823 7.566662,-7.622248 12.875,-7.3125 z m -1.3125,6.0625 c 4.432,0 8,3.568 8,8 v 8 h -16 v -8 c 0,-4.432 3.568,-8 8,-8 z m 18,18.3125 -2.125,1.75 c -1.155002,0.9828 -2.962498,2.3278 -4.0625,3 -2.251266,1.3758 -7.588692,3.3125 -9.1875,3.3125 -0.601372,0 -0.95392,0.1456 -0.8125,0.375 0.26652,0.432 3.462074,0.2377 6.8125,-0.4375 1.100004,-0.2214 3.652496,-1.2196 5.6875,-2.25 l 3.6875,-1.875 v -1.9375 z m 0,4.3125 -1.125,1.5625 c -3.731432,5.1434 -9.807536,7.9934 -18.25,8.5 -5.638976,0.3382 -3.574396,0.98 3.1875,1 4.580552,0.0064 5.61302,-0.1329 8.375,-1.0625 1.727946,-0.5814 3.1628,-1.0255 3.25,-0.9375 0.314644,0.3152 -3.06592,3.1125 -4.9375,4.0625 -3.586002,1.8202 -6.02788,2.331 -12.5,2.625 -4.59761,0.2088 -6.485142,0.4465 -7.375,0.9375 -1.133086,0.624 -0.38437,0.6675 14.0625,0.6875 h 15.3125 z" color="#000" display="inline" enable-background="accumulate" overflow="visible" visibility="visible" style="marker:none"/></svg>