<svg xmlns="http://www.w3.org/2000/svg" xmlns:svg="http://www.w3.org/2000/svg" xmlns:xlink="http://www.w3.org/1999/xlink" id="svg3172" width="128" height="128" version="1.1"><defs id="defs3174"><linearGradient id="linearGradient3600"><stop id="stop3602" offset="0" stop-color="#f4f4f4" stop-opacity="1"/><stop id="stop3604" offset="1" stop-color="#dbdbdb" stop-opacity="1"/></linearGradient><linearGradient id="linearGradient3702-501-757-486"><stop id="stop3100" offset="0" stop-color="#181818" stop-opacity="0"/><stop id="stop3102" offset=".5" stop-color="#181818" stop-opacity="1"/><stop id="stop3104" offset="1" stop-color="#181818" stop-opacity="0"/></linearGradient><linearGradient id="linearGradient3688-464-309-255"><stop id="stop3094" offset="0" stop-color="#181818" stop-opacity="1"/><stop id="stop3096" offset="1" stop-color="#181818" stop-opacity="0"/></linearGradient><linearGradient id="linearGradient3019-2" x1="25.132" x2="25.132" y1=".985" y2="47.013" gradientTransform="matrix(2.6285655,0,0,2.5204893,0.914429,-4.3579715)" gradientUnits="userSpaceOnUse" xlink:href="#linearGradient3600"/><linearGradient id="linearGradient3016-9" x1="24" x2="24" y1="5.564" y2="42.195" gradientTransform="matrix(2.4594595,0,0,3.1081081,4.9729852,-14.594554)" gradientUnits="userSpaceOnUse" xlink:href="#linearGradient3977-3"/><linearGradient id="linearGradient3977-3"><stop id="stop3979-6" offset="0" stop-color="#fff" stop-opacity="1"/><stop id="stop3981-0" offset=".006" stop-color="#fff" stop-opacity=".235"/><stop id="stop3983-6" offset=".994" stop-color="#fff" stop-opacity=".157"/><stop id="stop3985-2" offset="1" stop-color="#fff" stop-opacity=".392"/></linearGradient><linearGradient id="linearGradient3148" x1="-51.786" x2="-51.786" y1="50.786" y2="2.906" gradientTransform="matrix(2.1456297,0,0,2.3791292,158.08983,-7.746462)" gradientUnits="userSpaceOnUse" xlink:href="#linearGradient3104-6"/><linearGradient id="linearGradient3104-6"><stop id="stop3106-3" offset="0" stop-color="#000" stop-opacity=".318"/><stop id="stop3108-9" offset="1" stop-color="#000" stop-opacity=".24"/></linearGradient><linearGradient id="linearGradient4097" x1="25.058" x2="25.058" y1="47.028" y2="39.999" gradientTransform="matrix(2.8421052,0,0,0.71428566,-4.2105336,87.430066)" gradientUnits="userSpaceOnUse" xlink:href="#linearGradient3702-501-757-486"/><radialGradient id="radialGradient4095" cx="4.993" cy="43.5" r="2.5" fx="4.993" fy="43.5" gradientTransform="matrix(5.6949649,0,0,0.99999992,-52.665305,-162.00149)" gradientUnits="userSpaceOnUse" xlink:href="#linearGradient3688-464-309-255"/><radialGradient id="radialGradient4093" cx="4.993" cy="43.5" r="2.5" fx="4.993" fy="43.5" gradientTransform="matrix(5.6949649,0,0,0.99999992,75.334676,75.001496)" gradientUnits="userSpaceOnUse" xlink:href="#linearGradient3688-464-309-255"/><radialGradient id="radialGradient3897" cx="8.276" cy="9.994" r="12.672" fx="8.276" fy="9.994" gradientTransform="matrix(0,20.003199,-24.504002,0,309.11225,-193.38737)" gradientUnits="userSpaceOnUse" xlink:href="#linearGradient3242-4"/><linearGradient id="linearGradient3242-4"><stop id="stop3244-7" offset="0" stop-color="#f89b7e" stop-opacity="1"/><stop id="stop3246-1" offset=".262" stop-color="#e35d4f" stop-opacity="1"/><stop id="stop3248-5" offset=".661" stop-color="#c6262e" stop-opacity="1"/><stop id="stop3250-7" offset="1" stop-color="#690b2c" stop-opacity="1"/></linearGradient></defs><metadata id="metadata3177"/><g id="g978" stroke-width="1.039" opacity=".2" transform="matrix(0.92592591,0,0,1,4.7407489,0)"><rect id="rect2801" width="14.211" height="5" x="103.789" y="116.001" fill="url(#radialGradient4093)" fill-opacity="1" stroke="none" stroke-width="1.481"/><rect id="rect3696" width="14.211" height="5" x="-24.211" y="-121.001" fill="url(#radialGradient4095)" fill-opacity="1" stroke="none" stroke-width="1.481" transform="scale(-1)"/><rect id="rect3700" width="79.579" height="5" x="24.211" y="116.001" fill="url(#linearGradient4097)" fill-opacity="1" stroke="none" stroke-width="1.481"/></g><path id="path4160" fill="url(#linearGradient3019-2)" fill-opacity="1" stroke="none" d="m 18,2.0004521 c 21.081878,0 91.99989,0.00694 91.99989,0.00694 L 110,118 c 0,0 -61.333339,0 -91.999999,0 0,-38.666664 0,-77.33333 0,-115.999995 z" display="inline"/><path id="rect6741-1" fill="none" stroke="url(#linearGradient3016-9)" stroke-dasharray="none" stroke-dashoffset="0" stroke-linecap="round" stroke-linejoin="round" stroke-miterlimit="4" stroke-opacity="1" stroke-width="1" d="m 109.5,117.5 h -91 V 2.500002 h 91 z"/><path id="path4160-6-1" fill="none" stroke="url(#linearGradient3148)" stroke-dasharray="none" stroke-dashoffset="0" stroke-linecap="butt" stroke-linejoin="round" stroke-miterlimit="4" stroke-opacity="1" stroke-width="1" d="m 17.500001,1.49999 c 21.311001,0 92.999899,0.008 92.999899,0.008 l 1e-4,116.99202 c 0,0 -61.999997,0 -92.999999,0 0,-39.000096 0,-77.999807 0,-116.999456 z" display="inline"/><path clip-rule="nonzero" style="isolation:auto;mix-blend-mode:normal;solid-color:#000;solid-opacity:1;marker:none" id="path4255" fill="url(#radialGradient3897)" fill-opacity="1" fill-rule="nonzero" stroke="none" stroke-dasharray="none" stroke-dashoffset="0" stroke-linecap="butt" stroke-linejoin="miter" stroke-miterlimit="4" stroke-opacity="1" stroke-width="1" d="m 67.999995,34.000001 -34,6 V 84 l 34,6 z M 74.562495,42 c -0.639776,0.0062 -1.28977,0.0379 -1.9375,0.0625 l -2.625,0.0625 V 47.187501 52.25 l 1.000001,0.125 c 1.993602,0.250277 6.683639,0.17522 9.812499,-0.125 8.417124,-0.807422 13.72261,-3.120062 12.8125,-5.5625 C 92.603929,43.947315 84.159149,41.91805 74.562495,42 Z m 19.4375,6.875 -0.75,0.875 c -0.988094,1.1879 -3.715872,2.451923 -7.0625,3.1875 -2.06781,0.454491 -4.301789,0.626528 -9.4375,0.75 l -6.75,0.125001 V 57.75 61.625001 l 6.562501,-0.1875 c 5.198687,-0.123081 7.226009,-0.301263 9.562499,-0.812501 3.371398,-0.737681 5.997968,-1.797365 7,-2.875 l 0.6875,-0.75 0.125,-4.0625 z m -44.5625,3.5 h 2 c 1.66588,0 2.06232,0.07778 2.1875,0.5 0.0832,0.280726 1.24824,4.589584 2.625,9.5625 1.37676,4.972916 2.55526,9.17448 2.625,9.375 0.0924,0.265572 -0.34756,0.391775 -1.5625,0.375 -0.91736,-0.0126 -1.81092,-0.1104 -2,-0.1875 -0.189,-0.0771 -0.53112,-1.118934 -0.812499,-2.312499 L 53.937495,67.5625 h -2.625 -2.6875 l -0.4375,1.9375 -0.375,2 -1.875,0.0625 -1.8125,0.0625 0.125,-0.499999 c 0.0878,-0.288733 1.11642,-3.954169 2.25,-8.125001 1.13358,-4.170833 2.259801,-8.220311 2.5,-9.0625 z m 1.875,4.5 c -0.0822,0.02286 -0.46602,1.288202 -0.875,2.9375 -0.43622,1.759256 -0.853159,3.40677 -0.9375,3.687501 -0.135,0.449247 0.09214,0.562499 1.75,0.562499 h 1.875 l -0.875,-3.4375 c -0.47014,-1.884896 -0.89226,-3.594912 -0.9375,-3.75 z m 42.6875,1.250001 -0.875,0.937499 C 90.843283,61.533402 83.479529,63.089232 74.437495,63 l -4.25,-0.0625 -0.125,3.75 -0.0625,3.75 0.5,0.1875 c 1.092799,0.32987 11.519996,-0.09068 14.125,-0.5625 3.63651,-0.658658 6.968716,-1.784055 8.1875,-2.8125 l 1,-0.874999 0.125,-4.125 z m 0,8.999999 -0.875,1.0625 c -2.130442,2.454572 -8.678642,3.902176 -17.875,3.9375 h -5.25 v 3.8125 3.8125 l 1.5625,0.125 c 3.165231,0.223997 4.31728,0.17366 8.1875,-0.125 6.549536,-0.505414 11.550506,-1.835735 13.1875,-3.5625 l 0.875,-0.937499 0.125,-4.062501 z" color="#000" color-interpolation="sRGB" color-interpolation-filters="linearRGB" color-rendering="auto" display="inline" enable-background="accumulate" image-rendering="auto" opacity="1" overflow="visible" shape-rendering="auto" text-rendering="auto" visibility="visible"/></svg>