<svg xmlns="http://www.w3.org/2000/svg" xmlns:svg="http://www.w3.org/2000/svg" xmlns:xlink="http://www.w3.org/1999/xlink" id="svg3172" width="128" height="128" version="1.1"><defs id="defs3174"><linearGradient id="linearGradient3600"><stop id="stop3602" offset="0" stop-color="#f4f4f4" stop-opacity="1"/><stop id="stop3604" offset="1" stop-color="#dbdbdb" stop-opacity="1"/></linearGradient><linearGradient id="linearGradient3702-501-757-486"><stop id="stop3100" offset="0" stop-color="#181818" stop-opacity="0"/><stop id="stop3102" offset=".5" stop-color="#181818" stop-opacity="1"/><stop id="stop3104" offset="1" stop-color="#181818" stop-opacity="0"/></linearGradient><linearGradient id="linearGradient3688-464-309-255"><stop id="stop3094" offset="0" stop-color="#181818" stop-opacity="1"/><stop id="stop3096" offset="1" stop-color="#181818" stop-opacity="0"/></linearGradient><linearGradient id="linearGradient3019-2" x1="25.132" x2="25.132" y1=".985" y2="47.013" gradientTransform="matrix(2.6285655,0,0,2.5204893,0.914429,-4.3579715)" gradientUnits="userSpaceOnUse" xlink:href="#linearGradient3600"/><linearGradient id="linearGradient3016-9" x1="24" x2="24" y1="5.564" y2="42.195" gradientTransform="matrix(2.4594595,0,0,3.1081081,4.9729852,-14.594554)" gradientUnits="userSpaceOnUse" xlink:href="#linearGradient3977-3"/><linearGradient id="linearGradient3977-3"><stop id="stop3979-6" offset="0" stop-color="#fff" stop-opacity="1"/><stop id="stop3981-0" offset=".006" stop-color="#fff" stop-opacity=".235"/><stop id="stop3983-6" offset=".994" stop-color="#fff" stop-opacity=".157"/><stop id="stop3985-2" offset="1" stop-color="#fff" stop-opacity=".392"/></linearGradient><linearGradient id="linearGradient3148" x1="-51.786" x2="-51.786" y1="50.786" y2="2.906" gradientTransform="matrix(2.1456297,0,0,2.3791292,158.08983,-7.746462)" gradientUnits="userSpaceOnUse" xlink:href="#linearGradient3104-6"/><linearGradient id="linearGradient3104-6"><stop id="stop3106-3" offset="0" stop-color="#000" stop-opacity=".318"/><stop id="stop3108-9" offset="1" stop-color="#000" stop-opacity=".24"/></linearGradient><linearGradient id="linearGradient4097" x1="25.058" x2="25.058" y1="47.028" y2="39.999" gradientTransform="matrix(2.8421052,0,0,0.71428566,-4.2105336,87.430066)" gradientUnits="userSpaceOnUse" xlink:href="#linearGradient3702-501-757-486"/><radialGradient id="radialGradient4095" cx="4.993" cy="43.5" r="2.5" fx="4.993" fy="43.5" gradientTransform="matrix(5.6949649,0,0,0.99999992,-52.665305,-162.00149)" gradientUnits="userSpaceOnUse" xlink:href="#linearGradient3688-464-309-255"/><radialGradient id="radialGradient4093" cx="4.993" cy="43.5" r="2.5" fx="4.993" fy="43.5" gradientTransform="matrix(5.6949649,0,0,0.99999992,75.334676,75.001496)" gradientUnits="userSpaceOnUse" xlink:href="#linearGradient3688-464-309-255"/><linearGradient id="linearGradient3527" x1="18.776" x2="18.203" y1="4.038" y2="45.962" gradientTransform="matrix(0.88394434,0,0,-0.88394404,42.478607,83.098605)" gradientUnits="userSpaceOnUse" xlink:href="#linearGradient6036"/><linearGradient id="linearGradient6036"><stop id="stop6038" offset="0" stop-color="#fff" stop-opacity="1"/><stop id="stop6040" offset="1" stop-color="#fff" stop-opacity="0"/></linearGradient><linearGradient id="linearGradient3530" x1="71.204" x2="71.204" y1="6.238" y2="44.341" gradientTransform="matrix(2.1891891,0,0,2.1891891,-93.038231,6.488208)" gradientUnits="userSpaceOnUse" xlink:href="#linearGradient4011"/><linearGradient id="linearGradient4011"><stop id="stop4013" offset="0" stop-color="#fff" stop-opacity="1"/><stop id="stop4015" offset=".508" stop-color="#fff" stop-opacity=".235"/><stop id="stop4017" offset=".835" stop-color="#fff" stop-opacity=".157"/><stop id="stop4019" offset="1" stop-color="#fff" stop-opacity=".392"/></linearGradient><linearGradient id="linearGradient3512" x1="20.58" x2="24.274" y1="10.775" y2="9.862" gradientUnits="userSpaceOnUse" spreadMethod="reflect" xlink:href="#linearGradient3487"/><linearGradient id="linearGradient3487"><stop id="stop3489" offset="0" stop-color="#e6cde2" stop-opacity="1"/><stop id="stop3491" offset="1" stop-color="#e6cde2" stop-opacity="0"/></linearGradient><linearGradient id="linearGradient3514" x1="17.495" x2="21.047" y1="11.2" y2="9.796" gradientUnits="userSpaceOnUse" spreadMethod="reflect" xlink:href="#linearGradient3495"/><linearGradient id="linearGradient3495"><stop id="stop3497" offset="0" stop-color="#c1cbe4" stop-opacity="1"/><stop id="stop3499" offset="1" stop-color="#c1cbe4" stop-opacity="0"/></linearGradient><linearGradient id="linearGradient3516" x1="14.085" x2="16.994" y1="13.046" y2="10.732" gradientUnits="userSpaceOnUse" spreadMethod="reflect" xlink:href="#linearGradient3503"/><linearGradient id="linearGradient3503"><stop id="stop3505" offset="0" stop-color="#c4ebdd" stop-opacity="1"/><stop id="stop3507" offset="1" stop-color="#c4ebdd" stop-opacity="0"/></linearGradient><linearGradient id="linearGradient3518" x1="12.372" x2="14.609" y1="16.188" y2="13.462" gradientUnits="userSpaceOnUse" spreadMethod="reflect" xlink:href="#linearGradient3511"/><linearGradient id="linearGradient3511"><stop id="stop3513" offset="0" stop-color="#ebeec7" stop-opacity="1"/><stop id="stop3515" offset="1" stop-color="#ebeec7" stop-opacity="0"/></linearGradient><linearGradient id="linearGradient3520" x1="10.609" x2="9.73" y1="17.886" y2="20.613" gradientUnits="userSpaceOnUse" spreadMethod="reflect" xlink:href="#linearGradient3519"/><linearGradient id="linearGradient3519"><stop id="stop3521" offset="0" stop-color="#fcd9cd" stop-opacity="1"/><stop id="stop3523" offset="1" stop-color="#fcd9cd" stop-opacity="0"/></linearGradient><linearGradient id="linearGradient3545" x1="21.448" x2="21.448" y1="15.5" y2="32.509" gradientTransform="matrix(2.0625001,0,0,2.0625001,14.5,11.499999)" gradientUnits="userSpaceOnUse" xlink:href="#linearGradient3428"/><linearGradient id="linearGradient3428"><stop id="stop3430" offset="0" stop-color="#aaa" stop-opacity="1"/><stop id="stop3432" offset="1" stop-color="#d4d4d4" stop-opacity="1"/></linearGradient><linearGradient id="linearGradient3548" x1="12.274" x2="35.391" y1="32.416" y2="14.203" gradientTransform="matrix(0,2.3714494,-2.3714494,0,118.78049,4.792101)" gradientUnits="userSpaceOnUse" xlink:href="#linearGradient3263-6"/><linearGradient id="linearGradient3263-6" x1="12.274" x2="35.391" y1="32.416" y2="14.203" gradientUnits="userSpaceOnUse"><stop id="stop3265-8" offset="0" stop-color="#dedcde" stop-opacity="1"/><stop id="stop3267-9" offset=".5" stop-color="#f0f0f0" stop-opacity="1"/><stop id="stop3269-2" offset="1" stop-color="#d2d2d2" stop-opacity="1"/></linearGradient><linearGradient id="linearGradient3550" x1="-21.916" x2="-21.916" y1="3" y2="45.033" gradientTransform="matrix(2.0243902,0,0,2.0243902,117.17073,13.121535)" gradientUnits="userSpaceOnUse" xlink:href="#linearGradient3772-6"/><linearGradient id="linearGradient3772-6"><stop id="stop3774-6" offset="0" stop-color="#b4b4b4" stop-opacity="1"/><stop id="stop3776-4" offset="1" stop-color="#969696" stop-opacity="1"/></linearGradient><radialGradient id="radialGradient3456" cx="23.335" cy="41.636" r="22.627" fx="23.335" fy="41.636" gradientTransform="matrix(1.9445436,0,0,0.57447091,18.624998,70.081313)" gradientUnits="userSpaceOnUse" xlink:href="#linearGradient23419"/><linearGradient id="linearGradient23419"><stop id="stop23421" offset="0" stop-color="#000" stop-opacity="1"/><stop id="stop23423" offset="1" stop-color="#000" stop-opacity="0"/></linearGradient><linearGradient id="linearGradient2054" x1="20.58" x2="24.274" y1="10.775" y2="9.862" gradientUnits="userSpaceOnUse" spreadMethod="reflect" xlink:href="#linearGradient3487"/><linearGradient id="linearGradient2056" x1="17.495" x2="21.047" y1="11.2" y2="9.796" gradientUnits="userSpaceOnUse" spreadMethod="reflect" xlink:href="#linearGradient3495"/><linearGradient id="linearGradient2058" x1="14.085" x2="16.994" y1="13.046" y2="10.732" gradientUnits="userSpaceOnUse" spreadMethod="reflect" xlink:href="#linearGradient3503"/><linearGradient id="linearGradient2060" x1="12.372" x2="14.609" y1="16.188" y2="13.462" gradientUnits="userSpaceOnUse" spreadMethod="reflect" xlink:href="#linearGradient3511"/><linearGradient id="linearGradient2062" x1="10.609" x2="9.73" y1="17.886" y2="20.613" gradientUnits="userSpaceOnUse" spreadMethod="reflect" xlink:href="#linearGradient3519"/></defs><metadata id="metadata3177"/><g id="g978" stroke-width="1.039" opacity=".2" transform="matrix(0.92592591,0,0,1,4.7407489,0)"><rect id="rect2801" width="14.211" height="5" x="103.789" y="116.001" fill="url(#radialGradient4093)" fill-opacity="1" stroke="none" stroke-width="1.481"/><rect id="rect3696" width="14.211" height="5" x="-24.211" y="-121.001" fill="url(#radialGradient4095)" fill-opacity="1" stroke="none" stroke-width="1.481" transform="scale(-1)"/><rect id="rect3700" width="79.579" height="5" x="24.211" y="116.001" fill="url(#linearGradient4097)" fill-opacity="1" stroke="none" stroke-width="1.481"/></g><path id="path4160" fill="url(#linearGradient3019-2)" fill-opacity="1" stroke="none" d="m 18,2.0004521 c 21.081878,0 91.99989,0.00694 91.99989,0.00694 L 110,118 c 0,0 -61.333339,0 -91.999999,0 0,-38.666664 0,-77.33333 0,-115.999995 z" display="inline"/><path id="rect6741-1" fill="none" stroke="url(#linearGradient3016-9)" stroke-dasharray="none" stroke-dashoffset="0" stroke-linecap="round" stroke-linejoin="round" stroke-miterlimit="4" stroke-opacity="1" stroke-width="1" d="m 109.5,117.5 h -91 V 2.500002 h 91 z"/><path id="path4160-6-1" fill="none" stroke="url(#linearGradient3148)" stroke-dasharray="none" stroke-dashoffset="0" stroke-linecap="butt" stroke-linejoin="round" stroke-miterlimit="4" stroke-opacity="1" stroke-width="1" d="m 17.500001,1.49999 c 21.311001,0 92.999899,0.008 92.999899,0.008 l 1e-4,116.99202 c 0,0 -61.999997,0 -92.999999,0 0,-39.000096 0,-77.999807 0,-116.999456 z" display="inline"/><path id="path23417" fill="url(#radialGradient3456)" fill-opacity="1" fill-rule="evenodd" stroke="none" stroke-width="2" d="m 108,94 c 0.002,7.1795 -19.697868,13 -44,13 C 39.697868,107 19.997733,101.1795 19.999999,94 19.997733,86.820498 39.697868,81.000002 64,81.000002 c 24.302132,0 44.00227,5.820496 44,12.999998 z" display="inline" opacity=".3" overflow="visible" visibility="visible" style="marker:none"/><path id="path2781" fill="url(#linearGradient3548)" fill-opacity="1" fill-rule="nonzero" stroke="url(#linearGradient3550)" stroke-miterlimit="4" stroke-opacity="1" stroke-width="1" d="M 105.5,61.706898 C 105.5,38.703833 87.003062,20.2069 63.999999,20.2069 40.99693,20.2069 22.5,38.703835 22.5,61.706898 22.499996,84.709962 40.996933,103.2069 63.999999,103.2069 87.00306,103.20689 105.5,84.709965 105.5,61.706898 Z m -24.956479,0 c 0,8.356947 -8.01936,15.845456 -16.543522,15.845456 -8.691375,0 -16.54352,-7.657431 -16.54352,-15.845456 0,-8.355272 6.121577,-17.328843 16.54352,-17.328843 10.770975,0 16.543522,9.139112 16.543522,17.328843 z"/><path id="path3418" fill="#fff" fill-opacity=".498" stroke="url(#linearGradient3545)" stroke-dasharray="none" stroke-dashoffset="0" stroke-linecap="butt" stroke-linejoin="round" stroke-miterlimit="4" stroke-opacity="1" stroke-width="1" d="m 63.999999,44.500001 c -9.107995,0 -16.499998,7.391999 -16.499998,16.5 0,9.107999 7.392003,16.500001 16.499998,16.500001 9.108,0 16.5,-7.392002 16.5,-16.500001 0,-9.108001 -7.392,-16.5 -16.5,-16.5 z m 0,8.249998 c 4.554,0 8.25,3.696001 8.25,8.250002 0,4.554 -3.696,8.249999 -8.25,8.249999 -4.554,0 -8.249996,-3.695999 -8.249996,-8.249999 0,-4.554001 3.696006,-8.250002 8.249996,-8.250002 z" display="inline" enable-background="accumulate" overflow="visible" visibility="visible" style="marker:none"/><g id="g3527" transform="matrix(1.9650874,0,0,1.9650874,15.926864,13.692569)"><path id="path3296" fill="url(#linearGradient2054)" fill-opacity="1" fill-rule="nonzero" stroke="none" d="M 15.856928,5.7307748 20.625,16.34375 C 21.660403,15.885186 22.795334,15.625 24,15.625 c 0.03206,0 0.06178,-3.6e-4 0.09375,0 L 24.10801,4.0047512 c -2.94215,-0.070687 -5.543041,0.6572865 -8.251082,1.7260236 z" opacity=".8" transform="rotate(1.618417,24.093743,24.175959)"/><path id="path3308" fill="url(#linearGradient2056)" fill-opacity="1" fill-rule="nonzero" stroke="none" d="m 12.121471,7.9060109 6.931026,9.3601041 c 0.913109,-0.669755 1.965938,-1.167064 3.142629,-1.425169 0.03132,-0.0069 0.06026,-0.01359 0.09157,-0.02009 L 19.857174,4.426276 c -2.888973,0.5613244 -5.31953,1.8556038 -7.735703,3.4797349 z" opacity=".8"/><path id="path3310" fill="url(#linearGradient2058)" fill-opacity="1" fill-rule="nonzero" stroke="none" d="m 8.2523933,11.646535 9.2137237,7.155818 c 0.70865,-0.883264 1.596891,-1.636119 2.666685,-2.18998 0.02847,-0.01474 0.05469,-0.02872 0.08325,-0.0431 L 14.86585,6.2506132 C 12.220599,7.5405321 10.165881,9.452393 8.2523933,11.646535 Z" opacity=".8"/><path id="path3312" fill="url(#linearGradient2060)" fill-opacity="1" fill-rule="nonzero" stroke="none" d="m 5.6328855,16.073974 c 7.1748065,2.242248 7.8502625,7.031463 12.7767855,1.754127 L 10.499985,9.1321388 C 8.2787249,11.062747 6.9132871,13.459349 5.6328855,16.073974 Z" opacity=".8"/><path id="path3314" fill="url(#linearGradient2062)" fill-opacity="1" fill-rule="nonzero" stroke="none" d="M 7.155289,13.193173 C 5.9722117,14.945185 5.2475768,16.829547 4.6301929,18.837116 L 15.96875,21.8125 C 16.184264,21.049497 16.486796,20.297733 16.9375,19.59375 16.95479,19.56675 16.98246,19.52673 17,19.5 Z" opacity=".8"/></g><g id="g3297" transform="matrix(-2.0121212,0,0,-2.0121212,112.2909,110.06824)"><path id="path3299" fill="url(#linearGradient3512)" fill-opacity="1" fill-rule="nonzero" stroke="none" d="M 15.856928,5.7307748 20.625,16.34375 C 21.660403,15.885186 22.795334,15.625 24,15.625 c 0.03206,0 0.06178,-3.6e-4 0.09375,0 L 24.10801,4.0047512 c -2.94215,-0.070687 -5.543041,0.6572865 -8.251082,1.7260236 z" opacity=".8" transform="rotate(1.618417,24.093743,24.175959)"/><path id="path3301" fill="url(#linearGradient3514)" fill-opacity="1" fill-rule="nonzero" stroke="none" d="m 12.121471,7.9060109 6.931026,9.3601041 c 0.913109,-0.669755 1.965938,-1.167064 3.142629,-1.425169 0.03132,-0.0069 0.06026,-0.01359 0.09157,-0.02009 L 19.857174,4.426276 c -2.888973,0.5613244 -5.31953,1.8556038 -7.735703,3.4797349 z" opacity=".8"/><path id="path3303" fill="url(#linearGradient3516)" fill-opacity="1" fill-rule="nonzero" stroke="none" d="m 8.2523933,11.646535 9.2137237,7.155818 c 0.70865,-0.883264 1.596891,-1.636119 2.666685,-2.18998 0.02847,-0.01474 0.05469,-0.02872 0.08325,-0.0431 L 14.86585,6.2506132 C 12.220599,7.5405321 10.165881,9.452393 8.2523933,11.646535 Z" opacity=".8"/><path id="path3305" fill="url(#linearGradient3518)" fill-opacity="1" fill-rule="nonzero" stroke="none" d="m 5.6328855,16.073974 c 7.1748065,2.242248 7.8502625,7.031463 12.7767855,1.754127 L 10.499985,9.1321388 C 8.2787249,11.062747 6.9132871,13.459349 5.6328855,16.073974 Z" opacity=".8"/><path id="path3307" fill="url(#linearGradient3520)" fill-opacity="1" fill-rule="nonzero" stroke="none" d="M 7.155289,13.193173 C 5.9722117,14.945185 5.2475768,16.829547 4.6301929,18.837116 L 15.96875,21.8125 C 16.184264,21.049497 16.486796,20.297733 16.9375,19.59375 16.95479,19.56675 16.98246,19.52673 17,19.5 Z" opacity=".8"/></g><path id="path8655" fill="none" stroke="url(#linearGradient3530)" stroke-dasharray="none" stroke-dashoffset="0" stroke-linecap="round" stroke-linejoin="round" stroke-miterlimit="4" stroke-opacity="1" stroke-width="1" d="M 104.5,61.998566 C 104.5,84.366822 86.366196,102.5 64.000511,102.5 41.632777,102.5 23.499996,84.366616 23.499996,61.998566 c 0,-22.367219 18.132781,-40.498561 40.500515,-40.498561 22.365684,0 40.499489,18.131342 40.499489,40.498561 z" color="#000" display="inline" enable-background="accumulate" opacity=".55" overflow="visible" visibility="visible" style="marker:none"/><path id="path3281" fill="none" stroke="url(#linearGradient3527)" stroke-miterlimit="4" stroke-opacity="1" stroke-width="1" d="m 64,78.500002 c -9.7,0 -17.500001,-7.799998 -17.500001,-17.5 0,-9.7 7.800001,-17.500001 17.500001,-17.500001 9.700006,0 17.500001,7.800001 17.500001,17.500001 0,9.700002 -7.799995,17.5 -17.500001,17.5 z" opacity=".4"/></svg>