<svg xmlns="http://www.w3.org/2000/svg" xmlns:svg="http://www.w3.org/2000/svg" xmlns:xlink="http://www.w3.org/1999/xlink" id="svg4379" width="128" height="128" version="1.1"><defs id="defs4381"><linearGradient id="linearGradient5563"><stop id="stop5565" offset="0" stop-color="#fff" stop-opacity="1"/><stop id="stop5567" offset="0" stop-color="#fff" stop-opacity=".235"/><stop id="stop5569" offset=".995" stop-color="#fff" stop-opacity=".157"/><stop id="stop5571" offset="1" stop-color="#fff" stop-opacity=".392"/></linearGradient><linearGradient id="linearGradient4374"><stop id="stop4376" offset="0" stop-color="#b2b2b2" stop-opacity="1"/><stop id="stop4378" offset="1" stop-color="#818181" stop-opacity="1"/></linearGradient><linearGradient id="linearGradient7121"><stop id="stop7123" offset="0" stop-color="#000" stop-opacity="1"/><stop id="stop7125" offset=".8" stop-color="#000" stop-opacity="1"/><stop id="stop7127" offset=".8" stop-color="#000" stop-opacity="0"/><stop id="stop7129" offset="1" stop-color="#000" stop-opacity="0"/></linearGradient><linearGradient id="linearGradient3159" x1="24" x2="24" y1="5" y2="43" gradientTransform="matrix(2.7297298,0,0,2.7297298,-1.5135124,1.486514)" gradientUnits="userSpaceOnUse" xlink:href="#linearGradient3924-776"/><linearGradient id="linearGradient3924-776"><stop id="stop3124" offset="0" stop-color="#fff" stop-opacity="1"/><stop id="stop3126" offset=".063" stop-color="#fff" stop-opacity=".235"/><stop id="stop3128" offset=".951" stop-color="#fff" stop-opacity=".157"/><stop id="stop3130" offset="1" stop-color="#fff" stop-opacity=".392"/></linearGradient><radialGradient id="radialGradient3395" cx="6.73" cy="9.957" r="12.672" fx="6.2" fy="9.957" gradientTransform="matrix(0,25.083279,-30.794253,0,372.81658,-208.0918)" gradientUnits="userSpaceOnUse" xlink:href="#linearGradient2867-449-88-871-390-598-476-591-434-148-57-177-8-3-3-6-4-8-8-8-5-3"/><radialGradient id="radialGradient2455-1" cx="4.993" cy="43.5" r="2.5" fx="4.993" fy="43.5" gradientTransform="matrix(2.003784,0,0,1.4,27.98813,-17.4)" gradientUnits="userSpaceOnUse" xlink:href="#linearGradient3688-166-749-5"/><linearGradient id="linearGradient3688-166-749-5"><stop id="stop2883-0" offset="0" stop-color="#181818" stop-opacity="1"/><stop id="stop2885-5" offset="1" stop-color="#181818" stop-opacity="0"/></linearGradient><radialGradient id="radialGradient2457-5" cx="4.993" cy="43.5" r="2.5" fx="4.993" fy="43.5" gradientTransform="matrix(2.003784,0,0,1.4,-20.01187,-104.4)" gradientUnits="userSpaceOnUse" xlink:href="#linearGradient3688-464-309-8"/><linearGradient id="linearGradient3688-464-309-8"><stop id="stop2889-9" offset="0" stop-color="#181818" stop-opacity="1"/><stop id="stop2891-4" offset="1" stop-color="#181818" stop-opacity="0"/></linearGradient><linearGradient id="linearGradient2459-7" x1="25.058" x2="25.058" y1="47.028" y2="39.999" gradientUnits="userSpaceOnUse" xlink:href="#linearGradient3702-501-757-0"/><linearGradient id="linearGradient3702-501-757-0"><stop id="stop2895-0" offset="0" stop-color="#181818" stop-opacity="0"/><stop id="stop2897-2" offset=".5" stop-color="#181818" stop-opacity="1"/><stop id="stop2899-6" offset="1" stop-color="#181818" stop-opacity="0"/></linearGradient><linearGradient id="linearGradient3811"><stop id="stop3813" offset="0" stop-color="#000" stop-opacity="1"/><stop id="stop3815" offset="1" stop-color="#000" stop-opacity="0"/></linearGradient><radialGradient id="radialGradient4377" cx="-4.029" cy="93.468" r="35.338" fx="-4.029" fy="93.468" gradientTransform="matrix(1.5563924,0,0,0.16978827,70.270358,102.13029)" gradientUnits="userSpaceOnUse" xlink:href="#linearGradient3811"/><linearGradient id="linearGradient4394"><stop id="stop4396" offset="0" stop-color="#35a445" stop-opacity="1"/><stop id="stop4398" offset="1" stop-color="#3bda52" stop-opacity="1"/></linearGradient><linearGradient id="linearGradient5022" x1="37" x2="37" y1="59" y2="5" gradientTransform="matrix(0,1,-1,0,63.5,-5.994177)" gradientUnits="userSpaceOnUse" xlink:href="#linearGradient4394"/><linearGradient id="linearGradient4521" x1="37" x2="37" y1="59" y2="5" gradientTransform="matrix(2,0,0,2,3,5.9999998)" gradientUnits="userSpaceOnUse" xlink:href="#linearGradient4394"/><linearGradient id="linearGradient4523" x1="37" x2="37" y1="59" y2="5" gradientTransform="matrix(2,0,0,2,3,5.9999998)" gradientUnits="userSpaceOnUse" xlink:href="#linearGradient4394"/><linearGradient id="linearGradient4525" x1="37" x2="37" y1="59" y2="5" gradientTransform="matrix(2,0,0,2,3,5.9999998)" gradientUnits="userSpaceOnUse" xlink:href="#linearGradient4394"/><linearGradient id="linearGradient4527" x1="37" x2="37" y1="59" y2="5" gradientTransform="matrix(2,0,0,2,3,5.9999998)" gradientUnits="userSpaceOnUse" xlink:href="#linearGradient4394"/><linearGradient id="linearGradient4529" x1="37" x2="37" y1="59" y2="5" gradientTransform="matrix(2,0,0,2,3,5.9999998)" gradientUnits="userSpaceOnUse" xlink:href="#linearGradient4394"/><linearGradient id="linearGradient4531" x1="37" x2="37" y1="59" y2="5" gradientTransform="matrix(2,0,0,2,3,5.9999998)" gradientUnits="userSpaceOnUse" xlink:href="#linearGradient4394"/><linearGradient id="linearGradient4533" x1="37" x2="37" y1="59" y2="5" gradientTransform="matrix(2,0,0,2,1,9.9999998)" gradientUnits="userSpaceOnUse" xlink:href="#linearGradient4394"/><linearGradient id="linearGradient4535" x1="37" x2="37" y1="59" y2="5" gradientTransform="matrix(2,0,0,2,-1,-2.0000002)" gradientUnits="userSpaceOnUse" xlink:href="#linearGradient4394"/><linearGradient id="linearGradient4537" x1="37" x2="37" y1="59" y2="5" gradientTransform="matrix(2,0,0,2,3,5.9999998)" gradientUnits="userSpaceOnUse" xlink:href="#linearGradient4394"/><linearGradient id="linearGradient4539" x1="37" x2="37" y1="59" y2="5" gradientTransform="matrix(2,0,0,2,3,5.9999998)" gradientUnits="userSpaceOnUse" xlink:href="#linearGradient4394"/><linearGradient id="linearGradient4541" x1="37" x2="37" y1="59" y2="5" gradientTransform="matrix(2,0,0,2,3,5.9999998)" gradientUnits="userSpaceOnUse" xlink:href="#linearGradient4394"/><linearGradient id="linearGradient4543" x1="37" x2="37" y1="59" y2="5" gradientTransform="matrix(2,0,0,2,1,9.9999998)" gradientUnits="userSpaceOnUse" xlink:href="#linearGradient4394"/><linearGradient id="linearGradient4547" x1="37" x2="37" y1="59" y2="5" gradientTransform="matrix(2,0,0,2,3,5.9999998)" gradientUnits="userSpaceOnUse" xlink:href="#linearGradient4394"/><linearGradient id="linearGradient4549" x1="37" x2="37" y1="59" y2="5" gradientTransform="matrix(2,0,0,2,-1,-2.0000002)" gradientUnits="userSpaceOnUse" xlink:href="#linearGradient4394"/><linearGradient id="linearGradient4551" x1="37" x2="37" y1="59" y2="5" gradientTransform="matrix(2,0,0,2,3,5.9999998)" gradientUnits="userSpaceOnUse" xlink:href="#linearGradient4394"/><linearGradient id="linearGradient4553" x1="37" x2="37" y1="59" y2="5" gradientTransform="matrix(2,0,0,2,3,5.9999998)" gradientUnits="userSpaceOnUse" xlink:href="#linearGradient4394"/><linearGradient id="linearGradient4555" x1="37" x2="37" y1="59" y2="5" gradientTransform="matrix(2,0,0,2,3,5.9999998)" gradientUnits="userSpaceOnUse" xlink:href="#linearGradient4394"/><linearGradient id="linearGradient4557" x1="37" x2="37" y1="59" y2="5" gradientTransform="matrix(2,0,0,2,3,5.9999998)" gradientUnits="userSpaceOnUse" xlink:href="#linearGradient4394"/><linearGradient id="linearGradient4559" x1="37" x2="37" y1="59" y2="5" gradientTransform="matrix(2,0,0,2,3,5.9999998)" gradientUnits="userSpaceOnUse" xlink:href="#linearGradient4394"/><linearGradient id="linearGradient4561" x1="37" x2="37" y1="59" y2="5" gradientTransform="matrix(2,0,0,2,3,5.9999998)" gradientUnits="userSpaceOnUse" xlink:href="#linearGradient4394"/><linearGradient id="linearGradient4563" x1="37" x2="37" y1="59" y2="5" gradientTransform="matrix(2,0,0,2,-1,7.9999998)" gradientUnits="userSpaceOnUse" xlink:href="#linearGradient4394"/><linearGradient id="linearGradient4565" x1="37" x2="37" y1="59" y2="5" gradientTransform="matrix(2,0,0,2,3,5.9999998)" gradientUnits="userSpaceOnUse" xlink:href="#linearGradient4394"/><linearGradient id="linearGradient4567" x1="37" x2="37" y1="59" y2="5" gradientTransform="matrix(2,0,0,2,3,5.9999998)" gradientUnits="userSpaceOnUse" xlink:href="#linearGradient4394"/><linearGradient id="linearGradient4569" x1="37" x2="37" y1="59" y2="5" gradientTransform="matrix(2,0,0,2,3,5.9999998)" gradientUnits="userSpaceOnUse" xlink:href="#linearGradient4394"/><linearGradient id="linearGradient4571" x1="37" x2="37" y1="59" y2="5" gradientTransform="matrix(2,0,0,2,3,5.9999998)" gradientUnits="userSpaceOnUse" xlink:href="#linearGradient4394"/><linearGradient id="linearGradient4573" x1="37" x2="37" y1="59" y2="5" gradientTransform="matrix(2,0,0,2,3,5.9999998)" gradientUnits="userSpaceOnUse" xlink:href="#linearGradient4394"/><linearGradient id="linearGradient4575" x1="37" x2="37" y1="59" y2="5" gradientTransform="matrix(2,0,0,2,3,-2e-7)" gradientUnits="userSpaceOnUse" xlink:href="#linearGradient4394"/><linearGradient id="linearGradient4577" x1="37" x2="37" y1="59" y2="5" gradientTransform="matrix(2,0,0,2,3,-2e-7)" gradientUnits="userSpaceOnUse" xlink:href="#linearGradient4394"/><linearGradient id="linearGradient4579" x1="37" x2="37" y1="59" y2="5" gradientTransform="matrix(2,0,0,2,3,5.9999998)" gradientUnits="userSpaceOnUse" xlink:href="#linearGradient4394"/><linearGradient id="linearGradient4581" x1="37" x2="37" y1="59" y2="5" gradientTransform="matrix(2,0,0,2,3,5.9999998)" gradientUnits="userSpaceOnUse" xlink:href="#linearGradient4394"/><linearGradient id="linearGradient4583" x1="37" x2="37" y1="59" y2="5" gradientTransform="matrix(2,0,0,2,3,-2e-7)" gradientUnits="userSpaceOnUse" xlink:href="#linearGradient4394"/><linearGradient id="linearGradient4585" x1="37" x2="37" y1="59" y2="5" gradientTransform="matrix(2,0,0,2,3,5.9999998)" gradientUnits="userSpaceOnUse" xlink:href="#linearGradient4394"/><linearGradient id="linearGradient4587" x1="37" x2="37" y1="59" y2="5" gradientTransform="matrix(2,0,0,2,3,5.9999998)" gradientUnits="userSpaceOnUse" xlink:href="#linearGradient4394"/><linearGradient id="linearGradient4589" x1="37" x2="37" y1="59" y2="5" gradientTransform="matrix(2,0,0,2,3,5.9999998)" gradientUnits="userSpaceOnUse" xlink:href="#linearGradient4394"/><linearGradient id="linearGradient4591" x1="37" x2="37" y1="59" y2="5" gradientTransform="matrix(2,0,0,2,3,5.9999998)" gradientUnits="userSpaceOnUse" xlink:href="#linearGradient4394"/><linearGradient id="linearGradient4593" x1="37" x2="37" y1="59" y2="5" gradientTransform="matrix(0,2,-2,0,75.011646,-38)" gradientUnits="userSpaceOnUse" xlink:href="#linearGradient4394"/><linearGradient id="linearGradient4595" x1="37" x2="37" y1="59" y2="5" gradientTransform="matrix(0,2,-2,0,75.011646,-38)" gradientUnits="userSpaceOnUse" xlink:href="#linearGradient4394"/><linearGradient id="linearGradient4597" x1="37" x2="37" y1="59" y2="5" gradientTransform="matrix(2,0,0,2,3,5.9999998)" gradientUnits="userSpaceOnUse" xlink:href="#linearGradient4394"/><linearGradient id="linearGradient4599" x1="37" x2="37" y1="59" y2="5" gradientTransform="matrix(2,0,0,2,3,5.9999998)" gradientUnits="userSpaceOnUse" xlink:href="#linearGradient4394"/><linearGradient id="linearGradient4601" x1="37" x2="37" y1="59" y2="5" gradientTransform="matrix(2,0,0,2,3,5.9999998)" gradientUnits="userSpaceOnUse" xlink:href="#linearGradient4394"/><linearGradient id="linearGradient4603" x1="37" x2="37" y1="59" y2="5" gradientTransform="matrix(2,0,0,2,3,-2e-7)" gradientUnits="userSpaceOnUse" xlink:href="#linearGradient4394"/><linearGradient id="linearGradient4605" x1="37" x2="37" y1="59" y2="5" gradientTransform="matrix(2,0,0,2,3,-2e-7)" gradientUnits="userSpaceOnUse" xlink:href="#linearGradient4394"/><linearGradient id="linearGradient4607" x1="37" x2="37" y1="59" y2="5" gradientTransform="matrix(0,1,-1,0,63.5,-5.994177)" gradientUnits="userSpaceOnUse" xlink:href="#linearGradient4394"/><linearGradient id="linearGradient4609" x1="37" x2="37" y1="59" y2="5" gradientTransform="matrix(0,1,-1,0,63.5,-5.994177)" gradientUnits="userSpaceOnUse" xlink:href="#linearGradient4394"/><linearGradient id="linearGradient2867-449-88-871-390-598-476-591-434-148-57-177-8-3-3-6-4-8-8-8-5-3"><stop id="stop3750-1-0-7-6-6-1-3-9-3-6" offset="0" stop-color="#00ff27" stop-opacity="1"/><stop id="stop3752-3-7-4-0-32-8-923-0-7-7" offset=".262" stop-color="#458b50" stop-opacity="1"/><stop id="stop3754-1-8-5-2-7-6-7-1-9-5" offset=".705" stop-color="#176121" stop-opacity="1"/><stop id="stop3756-1-6-2-6-6-1-96-6-0-3" offset="1" stop-color="#2b5131" stop-opacity="1"/></linearGradient><radialGradient id="radialGradient4900" cx="8.775" cy="7.101" r="14.099" fx="8.775" fy="7.101" gradientTransform="matrix(1.2386254e-6,9.291688,-10.497174,0,138.5448,-49.533974)" gradientUnits="userSpaceOnUse" xlink:href="#linearGradient2867-449-88-871-390-598-476-591-434-148-57-177-8-3-3-6-4-8-8-8-5-9-4-5"/><linearGradient id="linearGradient2867-449-88-871-390-598-476-591-434-148-57-177-8-3-3-6-4-8-8-8-5-9-4-5"><stop id="stop3750-1-0-7-6-6-1-3-9-3-3-3-6" offset="0" stop-color="#505050" stop-opacity="1"/><stop id="stop3752-3-7-4-0-32-8-923-0-7-1-1-4" offset=".622" stop-color="#2b2b2b" stop-opacity="1"/><stop id="stop3754-1-8-5-2-7-6-7-1-9-8-6-2" offset="1" stop-color="#0a0a0a" stop-opacity="1"/></linearGradient><linearGradient id="linearGradient4898" x1="24.708" x2="24.708" y1="6.077" y2="93.723" gradientTransform="matrix(0.62762763,0,0,0.86711714,40.4925,23.730867)" gradientUnits="userSpaceOnUse" xlink:href="#linearGradient3967"/><linearGradient id="linearGradient3967"><stop id="stop3969" offset="0" stop-color="#fff" stop-opacity="1"/><stop id="stop3971" offset=".004" stop-color="#fff" stop-opacity=".235"/><stop id="stop3973" offset=".995" stop-color="#fff" stop-opacity=".157"/><stop id="stop3975" offset="1" stop-color="#fff" stop-opacity=".392"/></linearGradient><linearGradient id="linearGradient5585" x1="79" x2="79" y1="38" y2="40" gradientTransform="translate(0,1)" gradientUnits="userSpaceOnUse" xlink:href="#linearGradient4374"/><linearGradient id="linearGradient5587" x1="98" x2="98" y1="37" y2="42" gradientTransform="translate(0,1)" gradientUnits="userSpaceOnUse" xlink:href="#linearGradient7121"/><linearGradient id="linearGradient5589" x1="26.277" x2="26.277" y1="-38.9" y2="49.9" gradientTransform="matrix(0.7157157,0,0,0.01126126,38.193202,38.43806)" gradientUnits="userSpaceOnUse" xlink:href="#linearGradient5563"/></defs><metadata id="metadata4384"/><path id="path3041" fill="url(#radialGradient4377)" fill-opacity="1" fill-rule="nonzero" stroke="none" stroke-width="1" d="M 119,118 A 55,6 0 0 1 9.0000016,118 55,6 0 1 1 119,118 Z" color="#000" display="inline" enable-background="accumulate" opacity=".2" overflow="visible" visibility="visible" style="marker:none"/><g id="g2036" display="inline" transform="matrix(2.6999989,0,0,0.55555607,-0.8000019,94.888882)"><g id="g3712" opacity=".4" transform="matrix(1.052632,0,0,1.285713,-1.263158,-13.42854)"><rect id="rect2801" width="5" height="7" x="38" y="40" fill="url(#radialGradient2455-1)" fill-opacity="1" stroke="none"/><rect id="rect3696" width="5" height="7" x="-10" y="-47" fill="url(#radialGradient2457-5)" fill-opacity="1" stroke="none" transform="scale(-1,-1)"/><rect id="rect3700" width="28" height="7" x="10" y="40" fill="url(#linearGradient2459-7)" fill-opacity="1" stroke="none"/></g></g><rect id="rect5505-21-3" width="103" height="103" x="12.5" y="15.5" fill="url(#radialGradient3395)" fill-opacity="1" fill-rule="nonzero" stroke="none" stroke-width="1" color="#000" display="inline" enable-background="accumulate" overflow="visible" rx="6.055" ry="6.055" visibility="visible" style="marker:none"/><rect id="rect6741-7" width="101" height="101" x="13.5" y="16.5" fill="none" stroke="url(#linearGradient3159)" stroke-dasharray="none" stroke-dashoffset="0" stroke-linecap="round" stroke-linejoin="round" stroke-miterlimit="4" stroke-opacity="1" stroke-width="1" opacity=".3" rx="5" ry="5"/><rect id="rect5505-21-6" width="103" height="103" x="12.5" y="15.5" fill="none" stroke="#1c2c38" stroke-dasharray="none" stroke-dashoffset="0" stroke-linecap="round" stroke-linejoin="round" stroke-miterlimit="4" stroke-opacity="1" stroke-width="1" color="#000" display="inline" enable-background="accumulate" opacity=".5" overflow="visible" rx="6" ry="6" visibility="visible" style="marker:none"/><g id="g5303"><path id="path4744" fill="none" fill-rule="evenodd" stroke="url(#linearGradient4521)" stroke-linecap="square" stroke-linejoin="miter" stroke-opacity="1" stroke-width="2" d="m 48.000064,32.9899 0,-8 5.999904,-5.7899 6.4e-5,-2.2101"/><path id="path4736" fill="none" fill-rule="evenodd" stroke="url(#linearGradient4523)" stroke-linecap="square" stroke-linejoin="miter" stroke-opacity="1" stroke-width="2" d="M 96,104 72.014242,104 66,98 66,94"/><path id="path4610" fill="none" fill-rule="evenodd" stroke="url(#linearGradient4525)" stroke-linecap="square" stroke-linejoin="miter" stroke-opacity="1" stroke-width="2" d="m 35.000064,39.9899 7,-7 0,-12 L 46,17"/><path id="path4238" fill="none" fill-opacity="1" stroke="url(#linearGradient4527)" stroke-dasharray="none" stroke-linecap="square" stroke-linejoin="miter" stroke-miterlimit="4" stroke-opacity="1" stroke-width="2" d="m 62.000066,26.9899 c 0,1.10457 -0.89543,2 -2,2 -1.10457,0 -2,-0.89543 -2,-2 0,-1.10457 0.89543,-2 2,-2 1.10457,0 2,0.89543 2,2 z" opacity="1"/><path id="path4305" fill="none" fill-rule="evenodd" stroke="url(#linearGradient4529)" stroke-linecap="square" stroke-linejoin="miter" stroke-opacity="1" stroke-width="2" d="m 62.014306,26.9899 25.985758,0"/><path id="circle4307" fill="none" fill-opacity="1" stroke="url(#linearGradient4531)" stroke-dasharray="none" stroke-linecap="square" stroke-linejoin="miter" stroke-miterlimit="4" stroke-opacity="1" stroke-width="2" d="m 92.000066,26.9899 c 0,1.10457 -0.89543,2 -2,2 -1.10457,0 -2,-0.89543 -2,-2 0,-1.10457 0.89543,-2 2,-2 1.10457,0 2,0.89543 2,2 z" opacity="1"/><path id="circle4309" fill="none" fill-opacity="1" stroke="url(#linearGradient4533)" stroke-dasharray="none" stroke-linecap="square" stroke-linejoin="miter" stroke-miterlimit="4" stroke-opacity="1" stroke-width="2" d="m 112.00007,22.9899 c 0,1.10457 -0.89543,2 -2,2 -1.10457,0 -2,-0.89543 -2,-2 0,-1.10457 0.89543,-2 2,-2 1.10457,0 2,0.89543 2,2 z" opacity="1"/><path id="circle4311" fill="none" fill-opacity="1" stroke="url(#linearGradient4535)" stroke-dasharray="none" stroke-linecap="square" stroke-linejoin="miter" stroke-miterlimit="4" stroke-opacity="1" stroke-width="2" d="m 110.0101,83 c 0,1.10457 -0.89543,2 -2,2 -1.10457,0 -2,-0.89543 -2,-2 0,-1.10457 0.89543,-2 2,-2 1.10457,0 2,0.89543 2,2 z" opacity="1"/><path id="circle4313" fill="none" fill-opacity="1" stroke="url(#linearGradient4537)" stroke-dasharray="none" stroke-linecap="square" stroke-linejoin="miter" stroke-miterlimit="4" stroke-opacity="1" stroke-width="2" d="m 24,52.011646 c 0,1.10457 -0.89543,2 -2,2 -1.10457,0 -2,-0.89543 -2,-2 0,-1.10457 0.89543,-2 2,-2 1.10457,0 2,0.89543 2,2 z" opacity="1"/><path id="circle4315" fill="none" fill-opacity="1" stroke="url(#linearGradient4539)" stroke-dasharray="none" stroke-linecap="square" stroke-linejoin="miter" stroke-miterlimit="4" stroke-opacity="1" stroke-width="2" d="m 36.000002,31.011644 c 0,1.10457 -0.89543,2 -2,2 -1.10457,0 -2,-0.89543 -2,-2 0,-1.10457 0.89543,-2 2,-2 1.10457,0 2,0.89543 2,2 z" opacity="1"/><path id="path4317" fill="none" fill-rule="evenodd" stroke="url(#linearGradient4541)" stroke-linecap="square" stroke-linejoin="miter" stroke-opacity="1" stroke-width="2" d="m 34,17 0,12.011644"/><path id="path4319" fill="none" fill-rule="evenodd" stroke="url(#linearGradient4543)" stroke-linecap="round" stroke-linejoin="miter" stroke-opacity="1" stroke-width="2" d="M 110.00006,24.975658 110,44 l 4.5,4.5"/><path id="path4323" fill="none" fill-rule="evenodd" stroke="url(#linearGradient4547)" stroke-linecap="round" stroke-linejoin="miter" stroke-opacity="1" stroke-width="2" d="m 105.0101,116.9899 7,-7 0,-18 -3,-3"/><path id="path4325" fill="none" fill-rule="evenodd" stroke="url(#linearGradient4549)" stroke-linecap="square" stroke-linejoin="miter" stroke-opacity="1" stroke-width="2" d="m 106.0101,82.999998 -24,0"/><path id="path4327" fill="none" fill-rule="evenodd" stroke="url(#linearGradient4551)" stroke-linecap="round" stroke-linejoin="miter" stroke-opacity="1" stroke-width="2" d="m 37,52.011644 -11,-11 0,-16 -8,-8"/><path id="path4329" fill="none" fill-rule="evenodd" stroke="url(#linearGradient4553)" stroke-linecap="butt" stroke-linejoin="miter" stroke-opacity="1" stroke-width="2" d="m 13,29.011644 5,0 4,4 0,10 L 32,53 l 0,16 0,0 7,7"/><path id="circle4333" fill="none" fill-opacity="1" stroke="url(#linearGradient4555)" stroke-dasharray="none" stroke-linecap="square" stroke-linejoin="miter" stroke-miterlimit="4" stroke-opacity="1" stroke-width="2" d="m 48.014246,112 c 0,1.10457 0.89543,2 2,2 1.10457,0 2,-0.89543 2,-2 0,-1.10457 -0.89543,-2 -2,-2 -1.10457,0 -2,0.89543 -2,2 z" opacity="1"/><path id="path4335" fill="none" fill-rule="evenodd" stroke="url(#linearGradient4557)" stroke-linecap="square" stroke-linejoin="miter" stroke-opacity="1" stroke-width="2" d="M 48,112 34.014242,112 28,106 l 0,-14.000002 4,-4"/><path id="path4339" fill="none" fill-rule="evenodd" stroke="url(#linearGradient4559)" stroke-linecap="butt" stroke-linejoin="miter" stroke-opacity="1" stroke-width="2" d="m 28,117 0,-4 -6,-6 0,-8 0,-4"/><path id="path4341" fill="none" fill-rule="evenodd" stroke="url(#linearGradient4561)" stroke-linecap="square" stroke-linejoin="miter" stroke-opacity="1" stroke-width="2" d="m 24,117 0,0 0,-2 -6,-6 0,-18 10,-10 0,-10"/><path id="path4345" fill="none" fill-rule="evenodd" stroke="url(#linearGradient4563)" stroke-linecap="square" stroke-linejoin="miter" stroke-opacity="1" stroke-width="2" d="m 103,24 0,18 -12.999936,12.9899"/><path id="path4608" fill="none" fill-rule="evenodd" stroke="url(#linearGradient4565)" stroke-linecap="square" stroke-linejoin="miter" stroke-opacity="1" stroke-width="2" d="m 20,52.011644 -6,0"/><path id="path4612" fill="none" fill-opacity="1" stroke="url(#linearGradient4567)" stroke-dasharray="none" stroke-linecap="square" stroke-linejoin="miter" stroke-miterlimit="4" stroke-opacity="1" stroke-width="2" d="m 24,61.011646 c 0,1.10457 -0.89543,2 -2,2 -1.10457,0 -2,-0.89543 -2,-2 0,-1.10457 0.89543,-2 2,-2 1.10457,0 2,0.89543 2,2 z" opacity="1"/><path id="path4614" fill="none" fill-rule="evenodd" stroke="url(#linearGradient4569)" stroke-linecap="square" stroke-linejoin="miter" stroke-opacity="1" stroke-width="2" d="m 20,61.011644 -6,0"/><path id="path4616" fill="none" fill-opacity="1" stroke="url(#linearGradient4571)" stroke-dasharray="none" stroke-linecap="square" stroke-linejoin="miter" stroke-miterlimit="4" stroke-opacity="1" stroke-width="2" d="m 42.000066,105.9899 c 0,1.10457 -0.89543,2 -2,2 -1.10457,0 -2,-0.89543 -2,-2 0,-1.10457 0.89543,-2 2,-2 1.10457,0 2,0.89543 2,2 z" opacity="1"/><path id="path4620" fill="none" fill-opacity="1" stroke="url(#linearGradient4573)" stroke-dasharray="none" stroke-linecap="square" stroke-linejoin="miter" stroke-miterlimit="4" stroke-opacity="1" stroke-width="2" d="m 100.00007,103.9899 c 0,1.10457 -0.895434,2 -2.000004,2 -1.10457,0 -2,-0.89543 -2,-2 0,-1.10457 0.89543,-2 2,-2 1.10457,0 2.000004,0.89543 2.000004,2 z" opacity="1"/><path id="path4622" fill="none" fill-opacity="1" stroke="url(#linearGradient4575)" stroke-dasharray="none" stroke-linecap="square" stroke-linejoin="miter" stroke-miterlimit="4" stroke-opacity="1" stroke-width="2" d="m 104.0101,55 c 0,1.10457 0.89543,2 2,2 1.10457,0 2,-0.89543 2,-2 0,-1.10457 -0.89543,-2 -2,-2 -1.10457,0 -2,0.89543 -2,2 z" opacity="1"/><path id="path4624" fill="none" fill-rule="evenodd" stroke="url(#linearGradient4577)" stroke-linecap="square" stroke-linejoin="miter" stroke-opacity="1" stroke-width="2" d="m 108.0101,54.999998 6.9899,0"/><path id="path4764" fill="none" fill-opacity="1" stroke="url(#linearGradient4579)" stroke-dasharray="none" stroke-linecap="square" stroke-linejoin="miter" stroke-miterlimit="4" stroke-opacity="1" stroke-width="2" d="m 100.0101,94 c 0,1.10457 -0.895428,2 -1.999998,2 -1.10457,0 -2,-0.89543 -2,-2 0,-1.10457 0.89543,-2 2,-2 1.10457,0 1.999998,0.89543 1.999998,2 z" opacity="1"/><path id="path4766" fill="none" fill-rule="evenodd" stroke="url(#linearGradient4581)" stroke-linecap="square" stroke-linejoin="miter" stroke-opacity="1" stroke-width="2" d="m 96.0101,93.999998 -10,0"/><path id="path4772" fill="none" fill-rule="evenodd" stroke="url(#linearGradient4583)" stroke-linecap="square" stroke-linejoin="miter" stroke-opacity="1" stroke-width="2" d="m 114,76 -10,0 -6,-6 0,-10"/><path id="path4754" fill="none" fill-rule="evenodd" stroke="url(#linearGradient4585)" stroke-linecap="square" stroke-linejoin="miter" stroke-opacity="1" stroke-width="2" d="m 98.00006,16.9899 0,18 -9.999996,10"/><path id="path4734" fill="none" fill-rule="evenodd" stroke="url(#linearGradient4587)" stroke-linecap="square" stroke-linejoin="miter" stroke-opacity="1" stroke-width="2" d="m 42,106 11.985758,0 6.014242,6 0,4"/><path id="path4740" fill="none" fill-rule="evenodd" stroke="url(#linearGradient4589)" stroke-linecap="square" stroke-linejoin="miter" stroke-opacity="1" stroke-width="2" d="M 82.014306,111.9899 100,112 106.00006,105.9899 106,96"/><path id="path4738" fill="none" fill-opacity="1" stroke="url(#linearGradient4591)" stroke-dasharray="none" stroke-linecap="square" stroke-linejoin="miter" stroke-miterlimit="4" stroke-opacity="1" stroke-width="2" d="m 82.000066,111.9899 c 0,1.10457 -0.89543,2 -2,2 -1.10457,0 -2,-0.89543 -2,-2 0,-1.10457 0.89543,-2 2,-2 1.10457,0 2,0.89543 2,2 z" opacity="1"/><path id="path4746" fill="none" fill-opacity="1" stroke="url(#linearGradient4593)" stroke-dasharray="none" stroke-linecap="square" stroke-linejoin="miter" stroke-miterlimit="4" stroke-opacity="1" stroke-width="2" d="m 70,23 c -1.10457,0 -2,-0.89543 -2,-2 0,-1.10457 0.89543,-2 2,-2 1.10457,0 2,0.89543 2,2 0,1.10457 -0.89543,2 -2,2 z" opacity="1"/><path id="path4748" fill="none" fill-rule="evenodd" stroke="url(#linearGradient4595)" stroke-linecap="square" stroke-linejoin="miter" stroke-opacity="1" stroke-width="2" d="m 70.000002,19 0,-2"/><path id="path4756" fill="none" fill-rule="evenodd" stroke="url(#linearGradient4597)" stroke-linecap="round" stroke-linejoin="miter" stroke-opacity="1" stroke-width="2" d="m 25,65.9899 -7,7 0,6"/><path id="path4758" fill="none" fill-opacity="1" stroke="url(#linearGradient4599)" stroke-dasharray="none" stroke-linecap="square" stroke-linejoin="miter" stroke-miterlimit="4" stroke-opacity="1" stroke-width="2" d="m 20,81.011646 c 0,1.10457 -0.89543,2 -2,2 -1.10457,0 -2,-0.89543 -2,-2 0,-1.10457 0.89543,-2 2,-2 1.10457,0 2,0.89543 2,2 z" opacity="1"/><path id="path4760" fill="none" fill-rule="evenodd" stroke="url(#linearGradient4601)" stroke-linecap="round" stroke-linejoin="miter" stroke-opacity="1" stroke-width="2" d="M 72.014306,20.9899 88,21 92,17"/><path id="path4768" fill="none" fill-opacity="1" stroke="url(#linearGradient4603)" stroke-dasharray="none" stroke-linecap="square" stroke-linejoin="miter" stroke-miterlimit="4" stroke-opacity="1" stroke-width="2" d="m 104.0101,65 c 0,1.10457 0.89543,2 2,2 1.10457,0 2,-0.89543 2,-2 0,-1.10457 -0.89543,-2 -2,-2 -1.10457,0 -2,0.89543 -2,2 z" opacity="1"/><path id="path4770" fill="none" fill-rule="evenodd" stroke="url(#linearGradient4605)" stroke-linecap="square" stroke-linejoin="miter" stroke-opacity="1" stroke-width="2" d="m 108.0101,64.999998 6.9899,0"/><g id="g5008" stroke="url(#linearGradient5022)" stroke-linejoin="miter" transform="matrix(0,-2,2,0,14.988354,133)"><path id="path5004" fill="none" fill-opacity="1" stroke="url(#linearGradient4607)" stroke-dasharray="none" stroke-linecap="square" stroke-linejoin="miter" stroke-miterlimit="4" stroke-opacity="1" stroke-width="1" d="m 12.5,26.505823 c 0,0.552285 -0.447715,1 -1,1 -0.552285,0 -1,-0.447715 -1,-1 0,-0.552285 0.447715,-1 1,-1 0.552285,0 1,0.447715 1,1 z" opacity="1"/><path id="path5006" fill="none" fill-rule="evenodd" stroke="url(#linearGradient4609)" stroke-linecap="square" stroke-linejoin="miter" stroke-opacity="1" stroke-width="1" d="m 10.5,26.505822 -2,0"/></g></g><use id="use5579" width="100%" height="100%" x="0" y="0" transform="translate(0,54)" xlink:href="#g5560"/><use id="use5588" width="100%" height="100%" x="0" y="0" transform="translate(0,12)" xlink:href="#g5560"/><g id="g5560" transform="translate(0,-3)"><path id="rect5533" fill="url(#linearGradient5585)" fill-opacity="1" stroke="none" stroke-dasharray="none" stroke-linecap="square" stroke-linejoin="round" stroke-miterlimit="4" stroke-opacity=".498" stroke-width="1" d="m 32,35.5 64,0 -0.0016,2.486053 L 97.5,38 l 0,2.999999 -1.994847,0 -0.01025,-1.5 -63.012155,0 0.01728,1.5 -2,0 0,-3 L 32,38 Z" opacity="1"/><path id="path4362" fill="none" fill-opacity="1" stroke="url(#linearGradient5587)" stroke-dasharray="none" stroke-linecap="square" stroke-linejoin="miter" stroke-miterlimit="4" stroke-opacity=".498" stroke-width="1" d="m 32,35.5 64,0 0,2.5 1.5,0 0.04419,4.000006 -2.039067,0 -0.01025,-2.5 -63.012155,0 0.01728,2.5 -2,0 0,-4 L 32,38 Z" opacity=".8"/><rect id="rect5616" width="1" height="1" x="96" y="38" fill="#fff" fill-opacity="1" stroke="none" stroke-dasharray="none" stroke-linecap="square" stroke-linejoin="round" stroke-miterlimit="4" stroke-opacity=".498" stroke-width="1" opacity=".5"/><rect id="rect5606" width="1" height="1" x="31" y="38" fill="#fff" fill-opacity="1" stroke="none" stroke-dasharray="none" stroke-linecap="square" stroke-linejoin="round" stroke-miterlimit="4" stroke-opacity=".498" stroke-width="1" opacity=".5"/><path id="path5552" fill="none" stroke="url(#linearGradient5589)" stroke-dasharray="none" stroke-dashoffset="0" stroke-linecap="round" stroke-linejoin="miter" stroke-miterlimit="4" stroke-opacity="1" stroke-width="1" d="m 32.5,36.5 63,0 0,2 -63,0 z" opacity=".8"/><rect id="rect5577" width="62" height="1" x="33" y="40" fill="#000" fill-opacity="1" stroke="none" stroke-dasharray="none" stroke-linecap="square" stroke-linejoin="round" stroke-miterlimit="4" stroke-opacity=".498" stroke-width="1" opacity=".15"/></g><use id="use5584" width="100%" height="100%" x="0" y="0" transform="translate(0,6)" xlink:href="#g5560"/><use id="use5596" width="100%" height="100%" x="0" y="0" transform="matrix(-1,0,0,1,128.04974,18)" xlink:href="#g5560"/><use id="use5598" width="100%" height="100%" x="0" y="0" transform="translate(0,24)" xlink:href="#g5560"/><use id="use4354" width="100%" height="100%" x="0" y="0" transform="translate(0,42)" xlink:href="#g5560"/><use id="use5600" width="100%" height="100%" x="0" y="0" transform="translate(0,30)" xlink:href="#g5560"/><use id="use4352" width="100%" height="100%" x="0" y="0" transform="translate(0,36)" xlink:href="#g5560"/><use id="use4360" width="100%" height="100%" x="0" y="0" transform="translate(0,48)" xlink:href="#g5560"/><use id="use5581" width="100%" height="100%" x="0" y="0" transform="translate(0,60)" xlink:href="#g5560"/><use id="use5583" width="100%" height="100%" x="0" y="0" transform="translate(0,66)" xlink:href="#g5560"/><path id="path5637" fill="#000" fill-opacity="1" fill-rule="nonzero" stroke="#000" stroke-dasharray="none" stroke-dashoffset="0" stroke-linecap="round" stroke-linejoin="round" stroke-miterlimit="4" stroke-opacity="1" stroke-width="1" d="m 35.51723,28.499999 56.96554,0 c 0.56354,0 1.01723,0.463606 1.01723,1.039474 l 0,76.921057 c 0,0.57587 -0.45369,1.03947 -1.01723,1.03947 l -56.96554,0 C 34.95368,107.5 34.5,107.0364 34.5,106.46053 l 0,-76.921057 c 0,-0.575869 0.45368,-1.039474 1.01723,-1.039474 z" color="#000" display="inline" enable-background="accumulate" opacity=".3" overflow="visible" visibility="visible" style="marker:none"/><path id="path5639" fill="#000" fill-opacity="1" fill-rule="nonzero" stroke="#000" stroke-dasharray="none" stroke-dashoffset="0" stroke-linecap="round" stroke-linejoin="round" stroke-miterlimit="4" stroke-opacity="1" stroke-width="3" d="m 35.51723,28.499999 56.96554,0 c 0.56354,0 1.01723,0.463606 1.01723,1.039474 l 0,76.921057 c 0,0.57587 -0.45369,1.03947 -1.01723,1.03947 l -56.96554,0 C 34.95368,107.5 34.5,107.0364 34.5,106.46053 l 0,-76.921057 c 0,-0.575869 0.45368,-1.039474 1.01723,-1.039474 z" color="#000" display="inline" enable-background="accumulate" opacity=".05" overflow="visible" visibility="visible" style="marker:none"/><path id="rect5505-21-5" fill="url(#radialGradient4900)" fill-opacity="1" fill-rule="nonzero" stroke="#000" stroke-dasharray="none" stroke-dashoffset="0" stroke-linecap="round" stroke-linejoin="round" stroke-miterlimit="4" stroke-opacity=".39" stroke-width="1" d="m 35.51723,27.499999 56.96554,0 c 0.56354,0 1.01723,0.463606 1.01723,1.039474 l 0,76.921057 c 0,0.57587 -0.45369,1.03947 -1.01723,1.03947 l -56.96554,0 C 34.95368,106.5 34.5,106.0364 34.5,105.46053 l 0,-76.921057 c 0,-0.575869 0.45368,-1.039474 1.01723,-1.039474 z" color="#000" display="inline" enable-background="accumulate" overflow="visible" visibility="visible" style="marker:none"/><path id="rect6741-1-6-5" fill="none" stroke="url(#linearGradient4898)" stroke-dasharray="none" stroke-dashoffset="0" stroke-linecap="round" stroke-linejoin="miter" stroke-miterlimit="4" stroke-opacity="1" stroke-width="1" d="m 35.5,28.500001 57,0 0,76.999999 -57,0 z" opacity=".4"/><path id="text4325" fill="#fff" fill-opacity="1" stroke="none" stroke-linecap="butt" stroke-linejoin="miter" stroke-opacity="1" stroke-width="1" d="m 55.15085,43.497038 c -0.95419,0 -1.72393,0.219596 -2.31743,0.661528 -0.59352,0.441926 -0.89302,1.017801 -0.89302,1.733091 0,0.487489 0.12704,0.940353 0.37802,1.35039 0.25111,0.410037 0.66199,0.793653 1.23267,1.153575 -0.67111,0.337141 -1.16235,0.728046 -1.46824,1.169974 -0.30132,0.44193 -0.44924,0.944908 -0.44924,1.514406 0,0.851967 0.31136,1.508937 0.93682,1.973649 0.62548,0.46471 1.48471,0.699797 2.58042,0.699797 1.05004,0 1.89831,-0.246945 2.54204,-0.743534 0.64374,-0.501157 0.96422,-1.164509 0.96422,-1.984583 0,-0.519382 -0.16423,-0.994117 -0.49306,-1.426933 -0.32414,-0.437373 -0.85649,-0.856523 -1.60523,-1.257448 0.63005,-0.314361 1.08659,-0.66973 1.36966,-1.066099 0.28305,-0.400925 0.42184,-0.856525 0.42184,-1.366792 0,-0.738067 -0.2931,-1.322143 -0.88206,-1.754964 -0.58437,-0.437374 -1.35868,-0.656057 -2.31741,-0.656057 z m -11.57073,0.131077 0,9.988523 2.12021,0 0,-3.55366 0.90944,0 c 1.2418,0 2.19963,-0.283382 2.87077,-0.85288 0.67568,-0.569495 1.01353,-1.390484 1.01353,-2.465694 0,-1.034205 -0.3132,-1.815102 -0.94779,-2.334482 -0.63003,-0.523937 -1.55775,-0.781807 -2.77217,-0.781807 z m 16.81918,0 -0.37802,5.089938 0.84371,0.448308 c 0.18253,-0.05467 0.42001,-0.102051 0.71221,-0.14761 0.29217,-0.05011 0.55789,-0.07653 0.79985,-0.07653 1.3377,0 2.00516,0.502068 2.00516,1.508938 0,1.056988 -0.64738,1.585481 -1.9394,1.585481 -0.42916,0 -0.8793,-0.05649 -1.35868,-0.174954 -0.47938,-0.123015 -0.89941,-0.278827 -1.26008,-0.470176 l 0,1.820568 c 0.68483,0.359897 1.58149,0.541226 2.69545,0.541226 1.2829,0 2.26905,-0.300695 2.95842,-0.902084 0.68939,-0.601386 1.03547,-1.45882 1.03547,-2.575038 0,-0.943087 -0.2849,-1.688443 -0.86015,-2.230603 -0.57068,-0.54216 -1.34407,-0.809142 -2.31195,-0.809142 -0.4109,0 -0.75147,0.02917 -1.02997,0.09294 l -0.24106,0.04921 0.18624,-1.962713 3.57202,0 0,-1.787767 z m -5.25943,1.410533 c 0.35613,0 0.64831,0.09112 0.87658,0.273368 0.22829,0.182236 0.33968,0.429174 0.33968,0.743537 0,0.287025 -0.0905,0.541247 -0.26844,0.759934 -0.17801,0.218702 -0.48943,0.435553 -0.93684,0.645128 -0.46112,-0.227799 -0.7807,-0.447399 -0.95875,-0.661528 -0.17349,-0.218702 -0.2575,-0.470176 -0.2575,-0.743534 0,-0.309808 0.10956,-0.550363 0.32872,-0.732603 0.22369,-0.18679 0.51589,-0.284292 0.87655,-0.284302 z m -9.43954,0.322562 0.96422,0 c 0.57981,0 1.00714,0.118462 1.2765,0.355366 0.27395,0.236923 0.41091,0.602302 0.41091,1.098901 0,0.492047 -0.16342,0.872014 -0.4876,1.131704 -0.32414,0.255147 -0.80991,0.382702 -1.46278,0.382702 l -0.70125,0 z m 9.34643,3.903569 c 0.57981,0.300696 0.99892,0.584078 1.25459,0.85288 0.26021,0.264244 0.38897,0.547629 0.38897,0.852878 0,0.369034 -0.12868,0.668819 -0.38897,0.896618 -0.26024,0.223235 -0.65287,0.333495 -1.1779,0.333495 -0.47481,0 -0.84917,-0.109333 -1.12311,-0.328029 -0.27393,-0.218701 -0.41089,-0.521204 -0.41089,-0.913017 0,-0.683397 0.48487,-1.248336 1.45731,-1.694825 z" font-family="Open Sans" font-size="5" font-stretch="normal" font-style="normal" font-variant="normal" font-weight="bold" letter-spacing="0" opacity=".2" word-spacing="0" style="line-height:125%;-inkscape-font-specification:'Open Sans Bold'"/><path id="path3475" fill="none" stroke="#fff" stroke-linecap="butt" stroke-linejoin="miter" stroke-opacity="1" stroke-width="1" d="m 43.41355,58.881653 6.35937,0 z m 7.00173,0 10.40625,0 z m -7.00173,4.134616 7.51562,0 z m 8.35069,0 3.59722,0 z m 4.23958,0 1.79862,0 z" opacity=".2"/></svg>