<svg xmlns="http://www.w3.org/2000/svg" xmlns:svg="http://www.w3.org/2000/svg" xmlns:xlink="http://www.w3.org/1999/xlink" id="svg3172" width="128" height="128" version="1.1"><defs id="defs3174"><linearGradient id="linearGradient3600"><stop id="stop3602" offset="0" stop-color="#f4f4f4" stop-opacity="1"/><stop id="stop3604" offset="1" stop-color="#dbdbdb" stop-opacity="1"/></linearGradient><linearGradient id="linearGradient3702-501-757-486"><stop id="stop3100" offset="0" stop-color="#181818" stop-opacity="0"/><stop id="stop3102" offset=".5" stop-color="#181818" stop-opacity="1"/><stop id="stop3104" offset="1" stop-color="#181818" stop-opacity="0"/></linearGradient><linearGradient id="linearGradient3688-464-309-255"><stop id="stop3094" offset="0" stop-color="#181818" stop-opacity="1"/><stop id="stop3096" offset="1" stop-color="#181818" stop-opacity="0"/></linearGradient><linearGradient id="linearGradient3019-2" x1="25.132" x2="25.132" y1=".985" y2="47.013" gradientTransform="matrix(2.6285655,0,0,2.5204893,0.914429,-4.3579715)" gradientUnits="userSpaceOnUse" xlink:href="#linearGradient3600"/><linearGradient id="linearGradient3016-9" x1="24" x2="24" y1="5.564" y2="42.195" gradientTransform="matrix(2.4594595,0,0,3.1081081,4.9729852,-14.594554)" gradientUnits="userSpaceOnUse" xlink:href="#linearGradient3977-3"/><linearGradient id="linearGradient3977-3"><stop id="stop3979-6" offset="0" stop-color="#fff" stop-opacity="1"/><stop id="stop3981-0" offset=".006" stop-color="#fff" stop-opacity=".235"/><stop id="stop3983-6" offset=".994" stop-color="#fff" stop-opacity=".157"/><stop id="stop3985-2" offset="1" stop-color="#fff" stop-opacity=".392"/></linearGradient><linearGradient id="linearGradient3148" x1="-51.786" x2="-51.786" y1="50.786" y2="2.906" gradientTransform="matrix(2.1456297,0,0,2.3791292,158.08983,-7.746462)" gradientUnits="userSpaceOnUse" xlink:href="#linearGradient3104-6"/><linearGradient id="linearGradient3104-6"><stop id="stop3106-3" offset="0" stop-color="#000" stop-opacity=".318"/><stop id="stop3108-9" offset="1" stop-color="#000" stop-opacity=".24"/></linearGradient><linearGradient id="linearGradient4097" x1="25.058" x2="25.058" y1="47.028" y2="39.999" gradientTransform="matrix(2.8421052,0,0,0.71428566,-4.2105336,87.430066)" gradientUnits="userSpaceOnUse" xlink:href="#linearGradient3702-501-757-486"/><radialGradient id="radialGradient4095" cx="4.993" cy="43.5" r="2.5" fx="4.993" fy="43.5" gradientTransform="matrix(5.6949649,0,0,0.99999992,-52.665305,-162.00149)" gradientUnits="userSpaceOnUse" xlink:href="#linearGradient3688-464-309-255"/><radialGradient id="radialGradient4093" cx="4.993" cy="43.5" r="2.5" fx="4.993" fy="43.5" gradientTransform="matrix(5.6949649,0,0,0.99999992,75.334676,75.001496)" gradientUnits="userSpaceOnUse" xlink:href="#linearGradient3688-464-309-255"/><linearGradient id="linearGradient1063" x1="-17.375" x2="-17.375" y1="-6.125" y2="37.679" gradientTransform="matrix(2,0,0,2.0179548,91.816424,11.9148)" gradientUnits="userSpaceOnUse" xlink:href="#linearGradient1061"/><linearGradient id="linearGradient1061"><stop id="stop1057" offset="0" stop-color="#4d4d4d" stop-opacity="1"/><stop id="stop1059" offset="1" stop-color="#333" stop-opacity="1"/></linearGradient><linearGradient id="linearGradient1071" x1="44" x2="44" y1="0" y2="44.5" gradientTransform="matrix(2,0,0,2,1.22658,1.02e-4)" gradientUnits="userSpaceOnUse" xlink:href="#linearGradient1069"/><linearGradient id="linearGradient1069"><stop id="stop1065" offset="0" stop-color="#ed5353" stop-opacity="1"/><stop id="stop1067" offset="1" stop-color="#c6262e" stop-opacity="1"/></linearGradient></defs><metadata id="metadata3177"/><g id="g978" stroke-width="1.039" opacity=".2" transform="matrix(0.92592591,0,0,1,4.7407489,0)"><rect id="rect2801" width="14.211" height="5" x="103.789" y="116.001" fill="url(#radialGradient4093)" fill-opacity="1" stroke="none" stroke-width="1.481"/><rect id="rect3696" width="14.211" height="5" x="-24.211" y="-121.001" fill="url(#radialGradient4095)" fill-opacity="1" stroke="none" stroke-width="1.481" transform="scale(-1)"/><rect id="rect3700" width="79.579" height="5" x="24.211" y="116.001" fill="url(#linearGradient4097)" fill-opacity="1" stroke="none" stroke-width="1.481"/></g><path id="path4160" fill="url(#linearGradient3019-2)" fill-opacity="1" stroke="none" d="m 18,2.0004521 c 21.081878,0 91.99989,0.00694 91.99989,0.00694 L 110,118 c 0,0 -61.333339,0 -91.999999,0 0,-38.666664 0,-77.33333 0,-115.999995 z" display="inline"/><path id="rect6741-1" fill="none" stroke="url(#linearGradient3016-9)" stroke-dasharray="none" stroke-dashoffset="0" stroke-linecap="round" stroke-linejoin="round" stroke-miterlimit="4" stroke-opacity="1" stroke-width="1" d="m 109.5,117.5 h -91 V 2.500002 h 91 z"/><path id="path4160-6-1" fill="none" stroke="url(#linearGradient3148)" stroke-dasharray="none" stroke-dashoffset="0" stroke-linecap="butt" stroke-linejoin="round" stroke-miterlimit="4" stroke-opacity="1" stroke-width="1" d="m 17.500001,1.49999 c 21.311001,0 92.999899,0.008 92.999899,0.008 l 1e-4,116.99202 c 0,0 -61.999997,0 -92.999999,0 0,-39.000096 0,-77.999807 0,-116.999456 z" display="inline"/><path font-family="sans-serif" style="line-height:1.25" id="text942" fill="url(#linearGradient1071)" fill-opacity="1" stroke="none" stroke-width="1" d="m 82.296892,47.609477 c -4.375,-2e-6 -8.111978,1.497394 -11.210936,4.492186 -3.09896,2.994792 -5.481772,6.783854 -7.148438,11.367187 -0.755208,2.083334 -1.315104,4.179688 -1.679688,6.289062 -0.364584,2.083334 -0.546874,4.179688 -0.546874,6.289064 0,2.083332 0.299478,3.945312 0.898436,5.585936 1.666668,4.557292 4.869792,6.835938 9.609376,6.835938 4.739582,0 8.76302,-2.473958 12.070312,-7.421874 0.3125,2.36979 1.145834,4.205728 2.5,5.507812 1.354166,1.276042 3.085938,1.914062 5.195312,1.914062 2.135418,0 3.89323,-0.755208 5.273438,-2.265626 0.78125,-0.885416 1.73177,-2.82552 2.85156,-5.820312 -0.468748,0.234376 -1.054686,0.351564 -1.75781,0.351564 -2.1875,0 -3.28125,-0.91146 -3.28125,-2.734376 0,-0.963542 0.11718,-1.901042 0.351562,-2.8125 L 101.16408,48.000101 H 89.640642 l -0.859374,4.257812 v -0.585936 c 0,-1.171876 -0.507812,-2.135418 -1.523438,-2.890626 -1.015626,-0.78125 -2.66927,-1.171874 -4.960938,-1.171874 z m 2.148438,4.960936 c 1.484374,0 2.447916,0.390626 2.890626,1.171876 0.468748,0.755208 0.703124,1.380208 0.703124,1.875 l -3.828124,18.046873 c -0.494792,2.1875 -1.39323,3.919272 -2.695314,5.195314 -1.302082,1.25 -2.747396,1.875 -4.335938,1.875 -0.859374,0 -1.57552,-0.28646 -2.148436,-0.859376 -0.989584,-0.9375 -1.484376,-2.591146 -1.484376,-4.960938 0,-1.223958 0.0651,-2.382812 0.19532,-3.476562 0.859376,-7.161458 2.981772,-12.656249 6.367188,-16.484375 1.40625,-1.58854 2.851564,-2.382812 4.335938,-2.382812 z" font-size="40" font-style="normal" font-weight="normal" letter-spacing="0" word-spacing="0"/><path id="flowRoot1142" fill="url(#linearGradient1063)" fill-opacity="1" stroke="none" stroke-dasharray="none" stroke-dashoffset="0" stroke-linecap="butt" stroke-linejoin="miter" stroke-miterlimit="4" stroke-opacity="1" stroke-width="1" d="m 47.488286,34.000099 -18.8125,53.999999 h 12.17578 L 44.718754,76.0001 h 19.429688 l 3.867186,11.999998 H 80.19141 L 61.304692,34.000099 Z m 6.964842,8.347712 7,23.652289 H 47.562504 Z" font-family="Open Sans" font-size="37.333" font-stretch="normal" font-style="normal" font-variant="normal" font-weight="bold" letter-spacing="0" opacity="1" vector-effect="none" word-spacing="0" style="line-height:1.25;-inkscape-font-specification:'Open Sans Bold'"/></svg>