<svg xmlns="http://www.w3.org/2000/svg" xmlns:svg="http://www.w3.org/2000/svg" xmlns:xlink="http://www.w3.org/1999/xlink" id="svg3172" width="128" height="128" version="1.1"><defs id="defs3174"><linearGradient id="linearGradient3600"><stop id="stop3602" offset="0" stop-color="#f4f4f4" stop-opacity="1"/><stop id="stop3604" offset="1" stop-color="#dbdbdb" stop-opacity="1"/></linearGradient><linearGradient id="linearGradient3702-501-757-486"><stop id="stop3100" offset="0" stop-color="#181818" stop-opacity="0"/><stop id="stop3102" offset=".5" stop-color="#181818" stop-opacity="1"/><stop id="stop3104" offset="1" stop-color="#181818" stop-opacity="0"/></linearGradient><linearGradient id="linearGradient3688-464-309-255"><stop id="stop3094" offset="0" stop-color="#181818" stop-opacity="1"/><stop id="stop3096" offset="1" stop-color="#181818" stop-opacity="0"/></linearGradient><linearGradient id="linearGradient3019-2" x1="25.132" x2="25.132" y1=".985" y2="47.013" gradientTransform="matrix(2.6285655,0,0,2.5204893,0.914429,-4.3579715)" gradientUnits="userSpaceOnUse" xlink:href="#linearGradient3600"/><linearGradient id="linearGradient3016-9" x1="24" x2="24" y1="5.564" y2="42.195" gradientTransform="matrix(2.4594595,0,0,3.1081081,4.9729852,-14.594554)" gradientUnits="userSpaceOnUse" xlink:href="#linearGradient3977-3"/><linearGradient id="linearGradient3977-3"><stop id="stop3979-6" offset="0" stop-color="#fff" stop-opacity="1"/><stop id="stop3981-0" offset=".006" stop-color="#fff" stop-opacity=".235"/><stop id="stop3983-6" offset=".994" stop-color="#fff" stop-opacity=".157"/><stop id="stop3985-2" offset="1" stop-color="#fff" stop-opacity=".392"/></linearGradient><linearGradient id="linearGradient3148" x1="-51.786" x2="-51.786" y1="50.786" y2="2.906" gradientTransform="matrix(2.1456297,0,0,2.3791292,158.08983,-7.746462)" gradientUnits="userSpaceOnUse" xlink:href="#linearGradient3104-6"/><linearGradient id="linearGradient3104-6"><stop id="stop3106-3" offset="0" stop-color="#000" stop-opacity=".318"/><stop id="stop3108-9" offset="1" stop-color="#000" stop-opacity=".24"/></linearGradient><linearGradient id="linearGradient4097" x1="25.058" x2="25.058" y1="47.028" y2="39.999" gradientTransform="matrix(2.8421052,0,0,0.71428566,-4.2105336,87.430066)" gradientUnits="userSpaceOnUse" xlink:href="#linearGradient3702-501-757-486"/><radialGradient id="radialGradient4095" cx="4.993" cy="43.5" r="2.5" fx="4.993" fy="43.5" gradientTransform="matrix(5.6949649,0,0,0.99999992,-52.665305,-162.00149)" gradientUnits="userSpaceOnUse" xlink:href="#linearGradient3688-464-309-255"/><radialGradient id="radialGradient4093" cx="4.993" cy="43.5" r="2.5" fx="4.993" fy="43.5" gradientTransform="matrix(5.6949649,0,0,0.99999992,75.334676,75.001496)" gradientUnits="userSpaceOnUse" xlink:href="#linearGradient3688-464-309-255"/></defs><metadata id="metadata3177"/><g id="g978" stroke-width="1.039" opacity=".2" transform="matrix(0.92592591,0,0,1,4.7407489,0)"><rect id="rect2801" width="14.211" height="5" x="103.789" y="116.001" fill="url(#radialGradient4093)" fill-opacity="1" stroke="none" stroke-width="1.481"/><rect id="rect3696" width="14.211" height="5" x="-24.211" y="-121.001" fill="url(#radialGradient4095)" fill-opacity="1" stroke="none" stroke-width="1.481" transform="scale(-1)"/><rect id="rect3700" width="79.579" height="5" x="24.211" y="116.001" fill="url(#linearGradient4097)" fill-opacity="1" stroke="none" stroke-width="1.481"/></g><path id="path4160" fill="url(#linearGradient3019-2)" fill-opacity="1" stroke="none" d="m 18,2.0004521 c 21.081878,0 91.99989,0.00694 91.99989,0.00694 L 110,118 c 0,0 -61.333339,0 -91.999999,0 0,-38.666664 0,-77.33333 0,-115.999995 z" display="inline"/><path id="rect6741-1" fill="none" stroke="url(#linearGradient3016-9)" stroke-dasharray="none" stroke-dashoffset="0" stroke-linecap="round" stroke-linejoin="round" stroke-miterlimit="4" stroke-opacity="1" stroke-width="1" d="m 109.5,117.5 h -91 V 2.500002 h 91 z"/><path id="path4160-6-1" fill="none" stroke="url(#linearGradient3148)" stroke-dasharray="none" stroke-dashoffset="0" stroke-linecap="butt" stroke-linejoin="round" stroke-miterlimit="4" stroke-opacity="1" stroke-width="1" d="m 17.500001,1.49999 c 21.311001,0 92.999899,0.008 92.999899,0.008 l 1e-4,116.99202 c 0,0 -61.999997,0 -92.999999,0 0,-39.000096 0,-77.999807 0,-116.999456 z" display="inline"/><path id="path4498" fill="#7e8087" fill-opacity="1" fill-rule="nonzero" stroke="none" stroke-dasharray="none" stroke-dashoffset="0" stroke-linecap="round" stroke-linejoin="round" stroke-miterlimit="4" stroke-opacity="1" stroke-width="2" d="m 63.999988,32 c -1.850301,0 -3.405591,1.284214 -3.855469,3 H 43.499988 c 0,0 -0.5,0 -0.5,0.5 v 1 c 0,0.5 0.5,0.5 0.5,0.5 h 16.644531 c 0.365511,1.39402 1.461449,2.489958 2.855469,2.855469 V 87 h -19.5 c 0,0 -0.5,0 -0.5,0.5 v 1 c 0,0.5 0.5,0.5 0.5,0.5 h 41 c 0,0 0.5,0 0.5,-0.5 v -1 c 0,-0.5 -0.5,-0.5 -0.5,-0.5 h -19.5 V 39.855469 C 66.394008,39.489958 67.489946,38.39402 67.855457,37 h 16.644531 c 0,0 0.5,0 0.5,-0.5 v -1 c 0,-0.5 -0.5,-0.5 -0.5,-0.5 H 67.855457 c -0.449878,-1.715786 -2.005168,-3 -3.855469,-3 z m 0,2 c 1.116414,0 2,0.883586 2,2 0,1.116414 -0.883586,2 -2,2 -1.116414,0 -2,-0.883586 -2,-2 0,-1.116414 0.883586,-2 2,-2 z m -20.007812,7 a 0.50004997,0.50004997 0 0 0 -0.458985,0.314453 L 32.058582,70 h -0.05859 v 0.146484 l -0.0078,0.01758 0.0059,0.002 -0.0059,1.015625 c 1.798822,5.283531 6.61129,8.814099 12.0078,8.818311 5.393467,-0.0079 10.194368,-3.537754 11.992188,-8.818359 l 0.0059,-1.013672 0.0098,-0.0039 -0.0079,-0.02149 V 70 h -0.05859 L 44.460926,41.314453 A 0.50004997,0.50004997 0 0 0 43.992176,41 Z m 41,0 a 0.50004997,0.50004997 0 0 0 -0.458985,0.314453 L 73.058582,70 h -0.05859 v 0.146484 l -0.0078,0.01758 0.0059,0.002 -0.0059,1.015625 C 74.79101,76.46522 79.603478,79.995788 84.999988,80 90.393455,79.9921 95.194357,76.462246 96.992176,71.181641 l 0.0059,-1.013672 0.0098,-0.0039 -0.0079,-0.02149 V 70 h -0.05859 L 85.460926,41.314453 A 0.50004997,0.50004997 0 0 0 84.992176,41 Z M 43.998035,42.845703 54.865222,70 H 33.134754 Z m 41,0 L 95.865222,70 H 74.134754 Z" baseline-shift="baseline" clip-rule="nonzero" color="#000" color-interpolation="sRGB" color-interpolation-filters="linearRGB" color-rendering="auto" direction="ltr" display="inline" dominant-baseline="auto" enable-background="accumulate" font-family="sans-serif" font-size="medium" font-stretch="normal" font-style="normal" font-variant="normal" font-weight="normal" image-rendering="auto" letter-spacing="normal" opacity="1" overflow="visible" shape-rendering="auto" text-anchor="start" text-decoration="none" text-rendering="auto" vector-effect="none" visibility="visible" word-spacing="normal" writing-mode="lr-tb" style="line-height:normal;font-variant-ligatures:normal;font-variant-position:normal;font-variant-caps:normal;font-variant-numeric:normal;font-variant-alternates:normal;font-feature-settings:normal;text-indent:0;text-align:start;text-decoration-line:none;text-decoration-style:solid;text-decoration-color:#000;text-transform:none;text-orientation:mixed;white-space:normal;shape-padding:0;isolation:auto;mix-blend-mode:normal;solid-color:#000;solid-opacity:1"/></svg>