<svg xmlns="http://www.w3.org/2000/svg" xmlns:svg="http://www.w3.org/2000/svg" xmlns:xlink="http://www.w3.org/1999/xlink" id="svg3172" width="128" height="128" version="1.1"><defs id="defs3174"><linearGradient id="linearGradient3600"><stop id="stop3602" offset="0" stop-color="#f4f4f4" stop-opacity="1"/><stop id="stop3604" offset="1" stop-color="#dbdbdb" stop-opacity="1"/></linearGradient><linearGradient id="linearGradient3702-501-757-486"><stop id="stop3100" offset="0" stop-color="#181818" stop-opacity="0"/><stop id="stop3102" offset=".5" stop-color="#181818" stop-opacity="1"/><stop id="stop3104" offset="1" stop-color="#181818" stop-opacity="0"/></linearGradient><linearGradient id="linearGradient3688-464-309-255"><stop id="stop3094" offset="0" stop-color="#181818" stop-opacity="1"/><stop id="stop3096" offset="1" stop-color="#181818" stop-opacity="0"/></linearGradient><linearGradient id="linearGradient3019-2" x1="25.132" x2="25.132" y1=".985" y2="47.013" gradientTransform="matrix(2.6285655,0,0,2.5204893,0.914429,-4.3579715)" gradientUnits="userSpaceOnUse" xlink:href="#linearGradient3600"/><linearGradient id="linearGradient3016-9" x1="24" x2="24" y1="5.564" y2="42.195" gradientTransform="matrix(2.4594595,0,0,3.1081081,4.9729852,-14.594554)" gradientUnits="userSpaceOnUse" xlink:href="#linearGradient3977-3"/><linearGradient id="linearGradient3977-3"><stop id="stop3979-6" offset="0" stop-color="#fff" stop-opacity="1"/><stop id="stop3981-0" offset=".006" stop-color="#fff" stop-opacity=".235"/><stop id="stop3983-6" offset=".994" stop-color="#fff" stop-opacity=".157"/><stop id="stop3985-2" offset="1" stop-color="#fff" stop-opacity=".392"/></linearGradient><linearGradient id="linearGradient3148" x1="-51.786" x2="-51.786" y1="50.786" y2="2.906" gradientTransform="matrix(2.1456297,0,0,2.3791292,158.08983,-7.746462)" gradientUnits="userSpaceOnUse" xlink:href="#linearGradient3104-6"/><linearGradient id="linearGradient3104-6"><stop id="stop3106-3" offset="0" stop-color="#000" stop-opacity=".318"/><stop id="stop3108-9" offset="1" stop-color="#000" stop-opacity=".24"/></linearGradient><linearGradient id="linearGradient4097" x1="25.058" x2="25.058" y1="47.028" y2="39.999" gradientTransform="matrix(2.8421052,0,0,0.71428566,-4.2105336,87.430066)" gradientUnits="userSpaceOnUse" xlink:href="#linearGradient3702-501-757-486"/><radialGradient id="radialGradient4095" cx="4.993" cy="43.5" r="2.5" fx="4.993" fy="43.5" gradientTransform="matrix(5.6949649,0,0,0.99999992,-52.665305,-162.00149)" gradientUnits="userSpaceOnUse" xlink:href="#linearGradient3688-464-309-255"/><radialGradient id="radialGradient4093" cx="4.993" cy="43.5" r="2.5" fx="4.993" fy="43.5" gradientTransform="matrix(5.6949649,0,0,0.99999992,75.334676,75.001496)" gradientUnits="userSpaceOnUse" xlink:href="#linearGradient3688-464-309-255"/></defs><metadata id="metadata3177"/><g id="g978" stroke-width="1.039" opacity=".2" transform="matrix(0.92592591,0,0,1,4.7407489,0)"><rect id="rect2801" width="14.211" height="5" x="103.789" y="116.001" fill="url(#radialGradient4093)" fill-opacity="1" stroke="none" stroke-width="1.481"/><rect id="rect3696" width="14.211" height="5" x="-24.211" y="-121.001" fill="url(#radialGradient4095)" fill-opacity="1" stroke="none" stroke-width="1.481" transform="scale(-1)"/><rect id="rect3700" width="79.579" height="5" x="24.211" y="116.001" fill="url(#linearGradient4097)" fill-opacity="1" stroke="none" stroke-width="1.481"/></g><path id="path4160" fill="url(#linearGradient3019-2)" fill-opacity="1" stroke="none" d="m 18,2.0004521 c 21.081878,0 91.99989,0.00694 91.99989,0.00694 L 110,118 c 0,0 -61.333339,0 -91.999999,0 0,-38.666664 0,-77.33333 0,-115.999995 z" display="inline"/><path id="rect6741-1" fill="none" stroke="url(#linearGradient3016-9)" stroke-dasharray="none" stroke-dashoffset="0" stroke-linecap="round" stroke-linejoin="round" stroke-miterlimit="4" stroke-opacity="1" stroke-width="1" d="m 109.5,117.5 h -91 V 2.500002 h 91 z"/><path id="path4160-6-1" fill="none" stroke="url(#linearGradient3148)" stroke-dasharray="none" stroke-dashoffset="0" stroke-linecap="butt" stroke-linejoin="round" stroke-miterlimit="4" stroke-opacity="1" stroke-width="1" d="m 17.500001,1.49999 c 21.311001,0 92.999899,0.008 92.999899,0.008 l 1e-4,116.99202 c 0,0 -61.999997,0 -92.999999,0 0,-39.000096 0,-77.999807 0,-116.999456 z" display="inline"/><path id="path47" fill="#00acd7" stroke-width="1" d="m 62.44597,46.53271 c -0.8048,0.0187 -1.62096,0.10507 -2.44603,0.2544 -4.03763,0.73731 -7.33795,2.80904 -9.83075,6.07427 -2.31725,3.01944 -3.44077,6.45979 -2.98434,10.28675 0.38621,3.2301 1.86056,5.82864 4.45869,7.7948 2.80877,2.10658 6.00389,2.77352 9.44467,2.31709 4.17805,-0.56176 7.47837,-2.63323 10.00629,-5.96867 0.574,-0.75664 1.06469,-1.55234 1.47571,-2.38293 0.59138,2.13912 1.78026,3.97803 3.5096,5.47288 2.45768,2.10659 5.37192,3.01904 8.56693,3.08925 0.91285,-0.10533 1.8608,-0.14053 2.80877,-0.31613 3.2652,-0.66709 6.1091,-2.14128 8.42635,-4.49363 3.2652,-3.30032 4.63448,-7.16256 4.03763,-11.90237 -0.45643,-3.37053 -2.17667,-5.93381 -4.95035,-7.82976 -3.05456,-2.07147 -6.42509,-2.42243 -10.00629,-1.79045 -4.17806,0.7373 -7.26771,2.4932 -9.83075,5.86373 -1.09811,1.43725 -1.91797,2.9568 -2.42544,4.56429 H 61.40431 c -0.52664,0 -0.7724,0.35096 -0.87773,0.5616 -0.49155,0.91286 -1.33472,2.73872 -1.79115,3.82712 -0.24586,0.59686 -0.0701,1.05328 0.66723,1.05328 h 6.77645 c -0.35109,0.49155 -0.63237,0.91259 -0.94837,1.2988 -1.57995,1.79059 -3.5812,2.6331 -5.96867,2.3171 -2.77368,-0.38619 -4.70472,-2.70318 -4.73981,-5.51195 -0.0352,-2.84389 1.19413,-5.12603 3.5816,-6.67085 2.00125,-1.29907 4.14283,-1.61507 6.35475,-0.52667 0.7373,0.35112 1.12322,0.73691 1.64986,1.33376 0.45643,0.52667 0.49168,0.49155 1.01832,0.35112 2.17683,-0.56176 3.68683,-0.98253 5.89872,-1.54429 0.42134,-0.10534 0.56176,-0.28128 0.35112,-0.59728 -0.87776,-2.03635 -2.21178,-3.7215 -4.07261,-4.95032 -2.13291,-1.4483 -4.44371,-2.0276 -6.85805,-1.97494 z m 24.52885,6.76139 c 2.85464,-0.0936 5.36973,1.79237 5.92272,4.83376 0.0701,0.35109 0.0704,0.70179 0.1056,1.15821 -0.17547,3.01944 -1.68568,5.26702 -4.45936,6.70651 -1.86083,0.94797 -3.79144,1.05317 -5.72248,0.2104 -2.52792,-1.12352 -3.86251,-3.89731 -3.23053,-6.63589 0.77242,-3.30032 2.87901,-5.37192 6.14421,-6.10923 0.41693,-0.0965 0.83203,-0.15067 1.23981,-0.164 z M 34.40477,53.388 c -0.14054,0 -0.31587,0.0701 -0.38608,0.17546 l -0.73784,0.94768 c -0.0701,0.10534 -0.0349,0.17547 0.1056,0.17547 l 12.70946,0.0349 c 0.10534,0 0.28088,-0.10506 0.3511,-0.2104 l 0.59728,-0.91272 c 0.0701,-0.10533 0.0349,-0.2104 -0.1056,-0.2104 z m -5.30144,3.22981 c -0.14054,0 -0.31654,0.0701 -0.38678,0.17547 l -0.73717,0.94837 c -0.0701,0.10533 -0.0349,0.17547 0.1056,0.17547 l 16.60653,-0.0357 c 0.14054,0 0.28102,-0.0701 0.31611,-0.21066 l 0.28117,-0.84278 c 0.0352,-0.10533 -0.0352,-0.2104 -0.17546,-0.2104 z m 8.21514,3.23051 c -0.14053,0 -0.28088,0.10506 -0.35112,0.2104 l -0.49098,0.87776 c -0.0701,0.10533 -0.0355,0.21066 0.1048,0.21066 l 7.65421,0.0349 c 0.10533,0 0.2456,-0.10507 0.2456,-0.2456 l 0.0707,-0.84278 c 0,-0.14053 -0.0707,-0.2456 -0.2112,-0.2456 z"/></svg>