<svg xmlns="http://www.w3.org/2000/svg" xmlns:svg="http://www.w3.org/2000/svg" xmlns:xlink="http://www.w3.org/1999/xlink" id="svg3172" width="128" height="128" version="1.1"><defs id="defs3174"><linearGradient id="linearGradient3600"><stop id="stop3602" offset="0" stop-color="#f4f4f4" stop-opacity="1"/><stop id="stop3604" offset="1" stop-color="#dbdbdb" stop-opacity="1"/></linearGradient><linearGradient id="linearGradient3702-501-757-486"><stop id="stop3100" offset="0" stop-color="#181818" stop-opacity="0"/><stop id="stop3102" offset=".5" stop-color="#181818" stop-opacity="1"/><stop id="stop3104" offset="1" stop-color="#181818" stop-opacity="0"/></linearGradient><linearGradient id="linearGradient3688-464-309-255"><stop id="stop3094" offset="0" stop-color="#181818" stop-opacity="1"/><stop id="stop3096" offset="1" stop-color="#181818" stop-opacity="0"/></linearGradient><linearGradient id="linearGradient3019-2" x1="25.132" x2="25.132" y1=".985" y2="47.013" gradientTransform="matrix(2.6285655,0,0,2.5204893,0.914429,-4.3579715)" gradientUnits="userSpaceOnUse" xlink:href="#linearGradient3600"/><linearGradient id="linearGradient3016-9" x1="24" x2="24" y1="5.564" y2="42.195" gradientTransform="matrix(2.4594595,0,0,3.1081081,4.9729852,-14.594554)" gradientUnits="userSpaceOnUse" xlink:href="#linearGradient3977-3"/><linearGradient id="linearGradient3977-3"><stop id="stop3979-6" offset="0" stop-color="#fff" stop-opacity="1"/><stop id="stop3981-0" offset=".006" stop-color="#fff" stop-opacity=".235"/><stop id="stop3983-6" offset=".994" stop-color="#fff" stop-opacity=".157"/><stop id="stop3985-2" offset="1" stop-color="#fff" stop-opacity=".392"/></linearGradient><linearGradient id="linearGradient3148" x1="-51.786" x2="-51.786" y1="50.786" y2="2.906" gradientTransform="matrix(2.1456297,0,0,2.3791292,158.08983,-7.746462)" gradientUnits="userSpaceOnUse" xlink:href="#linearGradient3104-6"/><linearGradient id="linearGradient3104-6"><stop id="stop3106-3" offset="0" stop-color="#000" stop-opacity=".318"/><stop id="stop3108-9" offset="1" stop-color="#000" stop-opacity=".24"/></linearGradient><linearGradient id="linearGradient4097" x1="25.058" x2="25.058" y1="47.028" y2="39.999" gradientTransform="matrix(2.8421052,0,0,0.71428566,-4.2105336,87.430066)" gradientUnits="userSpaceOnUse" xlink:href="#linearGradient3702-501-757-486"/><radialGradient id="radialGradient4095" cx="4.993" cy="43.5" r="2.5" fx="4.993" fy="43.5" gradientTransform="matrix(5.6949649,0,0,0.99999992,-52.665305,-162.00149)" gradientUnits="userSpaceOnUse" xlink:href="#linearGradient3688-464-309-255"/><radialGradient id="radialGradient4093" cx="4.993" cy="43.5" r="2.5" fx="4.993" fy="43.5" gradientTransform="matrix(5.6949649,0,0,0.99999992,75.334676,75.001496)" gradientUnits="userSpaceOnUse" xlink:href="#linearGradient3688-464-309-255"/></defs><metadata id="metadata3177"/><g id="g978" stroke-width="1.039" opacity=".2" transform="matrix(0.92592591,0,0,1,4.7407489,0)"><rect id="rect2801" width="14.211" height="5" x="103.789" y="116.001" fill="url(#radialGradient4093)" fill-opacity="1" stroke="none" stroke-width="1.481"/><rect id="rect3696" width="14.211" height="5" x="-24.211" y="-121.001" fill="url(#radialGradient4095)" fill-opacity="1" stroke="none" stroke-width="1.481" transform="scale(-1)"/><rect id="rect3700" width="79.579" height="5" x="24.211" y="116.001" fill="url(#linearGradient4097)" fill-opacity="1" stroke="none" stroke-width="1.481"/></g><path id="path4160" fill="url(#linearGradient3019-2)" fill-opacity="1" stroke="none" d="m 18,2.0004521 c 21.081878,0 91.99989,0.00694 91.99989,0.00694 L 110,118 c 0,0 -61.333339,0 -91.999999,0 0,-38.666664 0,-77.33333 0,-115.999995 z" display="inline"/><path id="rect6741-1" fill="none" stroke="url(#linearGradient3016-9)" stroke-dasharray="none" stroke-dashoffset="0" stroke-linecap="round" stroke-linejoin="round" stroke-miterlimit="4" stroke-opacity="1" stroke-width="1" d="m 109.5,117.5 h -91 V 2.500002 h 91 z"/><path id="path4160-6-1" fill="none" stroke="url(#linearGradient3148)" stroke-dasharray="none" stroke-dashoffset="0" stroke-linecap="butt" stroke-linejoin="round" stroke-miterlimit="4" stroke-opacity="1" stroke-width="1" d="m 17.500001,1.49999 c 21.311001,0 92.999899,0.008 92.999899,0.008 l 1e-4,116.99202 c 0,0 -61.999997,0 -92.999999,0 0,-39.000096 0,-77.999807 0,-116.999456 z" display="inline"/><g id="g4137"><path id="path3475" fill="none" stroke="#7e8087" stroke-linecap="butt" stroke-linejoin="miter" stroke-opacity="1" stroke-width="1" d="m 61,22.5 h 13.119141 z m 13.949219,0 h 10.048828 z m 10.878906,0 H 96 Z M 61,28.5 h 6.890625 z m 7.804688,0 h 8.96875 z m 9.798828,0 h 5.978515 z m 6.808593,0 H 96 Z m -24.410156,6.005859 h 6.146485 z m 6.976563,0 h 5.230468 z m 6.060546,0 8.220704,0.08203 z m 8.96875,0.08203 H 96 Z M 61.011719,40.5 h 11.541015 z m 12.289062,0 h 7.888672 z m 8.800781,0 h 3.15625 z m 3.986329,0 h 1.74414 z m 2.658203,0 H 96 Z M 31,50.500258 h 10.962891 z m 11.792969,0 h 11.208984 z m 12.041015,0 L 65.6,50.521742 Z m 28.31836,0 h 5.232422 z m 6.0625,0 H 96 Z m -22.642578,0.0078 H 82.265625 Z M 31,56.5 h 6.728516 z m 7.640625,0 h 5.730469 z m 6.726563,0 h 5.148437 z m 5.978515,0 h 2.242188 z M 54.5,56.5 h 4.982422 z m 5.978516,0 h 13.037109 z m 13.951172,0 h 9.964843 z m 10.794921,0 h 3.154297 z m 3.984375,0 H 96 Z M 31,62.5 h 10.962891 z m 11.792969,0 h 11.208984 z m 12.041015,0 h 4.316407 z m 5.146485,0 h 10.546875 z m 11.376953,0 h 13.285156 z m 14.199219,0 H 96 Z M 31,68.5 h 11.875 z m 12.789062,0 h 12.289063 z m 13.119141,0 h 4.900391 z m 5.730469,0 h 11.541016 z m 12.289062,0 h 7.888672 z m 8.800782,0 h 3.15625 z m 3.986328,0 h 1.74414 z m 2.658203,0 H 96 Z M 31,74.5 h 10.214844 z m 11.294922,0 h 4.65039 z m 5.480469,0 h 2.324218 z m 3.238281,0 h 4.234375 z m 5.148437,0 h 4.316407 z m 5.148438,0 h 6.890625 z m 7.804687,0 h 8.966797 z m 9.798828,0 h 5.978516 z m 6.808594,0 H 96 Z M 31,84.458984 h 8.720703 z m 9.550781,0 h 13.451172 z m 14.283203,0 h 6.558594 z m 7.388672,0 h 3.798828 z M 31,90.5 h 10.214844 z m 11.294922,0 h 4.65039 z m 5.480469,0 h 2.324218 z m 3.238281,0 h 4.234375 z m 5.148437,0 h 4.316407 z m 5.148438,0 h 4.6875 z M 31,96.5 h 10.796875 z m 11.708984,0 h 3.238282 z m 4.070313,0 h 7.388672 z M 55,96.5 h 10.978516 z m -24,6 h 10.796875 z m 11.708984,0 h 4.650391 z m 5.480469,0 h 7.308594 z m 8.138672,0 H 66 Z"/><path id="path3253" fill="#7e8087" fill-opacity="1" d="m 69.926727,100.61486 c 3.53772,-1.64492 7.238798,-3.373229 7.238798,-7.074298 0,-1.15145 -0.493478,-1.15145 -2.631875,-1.315942 -2.385136,-0.164493 -3.373227,-1.727165 -3.373227,-3.865562 0,-2.96086 1.891657,-4.359049 4.194547,-4.359049 3.454339,0 6.005112,3.043107 6.005112,7.237663 0,3.208735 -1.562682,6.497437 -4.359049,8.883718 -1.891658,1.56267 -3.454339,2.13839 -6.087349,2.87861 z m 14.640945,0 c 3.536585,-1.64492 7.237664,-3.373229 7.237664,-7.074298 0,-1.15145 -0.493479,-1.15145 -2.631875,-1.315942 -2.385146,-0.164493 -3.372093,-1.727165 -3.372093,-3.865562 0,-2.96086 1.891658,-4.359049 4.194547,-4.359049 3.454339,0 6.003968,3.043107 6.003968,7.237663 0,3.208735 -1.562672,6.497437 -4.35904,8.883718 -1.891667,1.56267 -3.454339,2.13839 -6.086214,2.87861 z"/><path id="path3255" fill="#7e8087" fill-opacity="1" d="m 42.437273,24.38528 c -3.537934,1.645018 -7.239236,3.372297 -7.239236,7.07359 0,1.151519 0.493508,1.151519 2.632034,1.316021 2.385281,0.164503 3.373441,1.72727 3.373441,3.865805 0,2.961031 -1.891772,4.359304 -4.19481,4.359304 -3.454539,0 -6.005466,-3.044436 -6.005466,-7.239236 0,-3.207794 1.562767,-6.49784 4.359304,-8.88312 C 37.254321,23.316022 38.818232,22.740262 41.450266,22 Z m 14.641841,0 c -3.536799,1.645018 -7.238101,3.372297 -7.238101,7.07359 0,1.151519 0.493508,1.151519 2.632034,1.316021 2.38529,0.164503 3.372297,1.72727 3.372297,3.865805 0,2.961031 -1.891772,4.359304 -4.194801,4.359304 -3.454548,0 -6.004331,-3.044436 -6.004331,-7.239236 0,-3.207794 1.562766,-6.49784 4.359303,-8.88312 C 51.897297,23.316022 53.460063,22.740262 56.092098,22 Z"/></g></svg>