<svg xmlns="http://www.w3.org/2000/svg" xmlns:svg="http://www.w3.org/2000/svg" xmlns:xlink="http://www.w3.org/1999/xlink" id="svg3172" width="128" height="128" version="1.1"><defs id="defs3174"><linearGradient id="linearGradient3600"><stop id="stop3602" offset="0" stop-color="#f4f4f4" stop-opacity="1"/><stop id="stop3604" offset="1" stop-color="#dbdbdb" stop-opacity="1"/></linearGradient><linearGradient id="linearGradient3702-501-757-486"><stop id="stop3100" offset="0" stop-color="#181818" stop-opacity="0"/><stop id="stop3102" offset=".5" stop-color="#181818" stop-opacity="1"/><stop id="stop3104" offset="1" stop-color="#181818" stop-opacity="0"/></linearGradient><linearGradient id="linearGradient3688-464-309-255"><stop id="stop3094" offset="0" stop-color="#181818" stop-opacity="1"/><stop id="stop3096" offset="1" stop-color="#181818" stop-opacity="0"/></linearGradient><linearGradient id="linearGradient3019-2" x1="25.132" x2="25.132" y1=".985" y2="47.013" gradientTransform="matrix(2.6285655,0,0,2.5204893,0.914429,-4.3579715)" gradientUnits="userSpaceOnUse" xlink:href="#linearGradient3600"/><linearGradient id="linearGradient3016-9" x1="24" x2="24" y1="5.564" y2="42.195" gradientTransform="matrix(2.4594595,0,0,3.1081081,4.9729852,-14.594554)" gradientUnits="userSpaceOnUse" xlink:href="#linearGradient3977-3"/><linearGradient id="linearGradient3977-3"><stop id="stop3979-6" offset="0" stop-color="#fff" stop-opacity="1"/><stop id="stop3981-0" offset=".006" stop-color="#fff" stop-opacity=".235"/><stop id="stop3983-6" offset=".994" stop-color="#fff" stop-opacity=".157"/><stop id="stop3985-2" offset="1" stop-color="#fff" stop-opacity=".392"/></linearGradient><linearGradient id="linearGradient3148" x1="-51.786" x2="-51.786" y1="50.786" y2="2.906" gradientTransform="matrix(2.1456297,0,0,2.3791292,158.08983,-7.746462)" gradientUnits="userSpaceOnUse" xlink:href="#linearGradient3104-6"/><linearGradient id="linearGradient3104-6"><stop id="stop3106-3" offset="0" stop-color="#000" stop-opacity=".318"/><stop id="stop3108-9" offset="1" stop-color="#000" stop-opacity=".24"/></linearGradient><linearGradient id="linearGradient4097" x1="25.058" x2="25.058" y1="47.028" y2="39.999" gradientTransform="matrix(2.8421052,0,0,0.71428566,-4.2105336,87.430066)" gradientUnits="userSpaceOnUse" xlink:href="#linearGradient3702-501-757-486"/><radialGradient id="radialGradient4095" cx="4.993" cy="43.5" r="2.5" fx="4.993" fy="43.5" gradientTransform="matrix(5.6949649,0,0,0.99999992,-52.665305,-162.00149)" gradientUnits="userSpaceOnUse" xlink:href="#linearGradient3688-464-309-255"/><radialGradient id="radialGradient4093" cx="4.993" cy="43.5" r="2.5" fx="4.993" fy="43.5" gradientTransform="matrix(5.6949649,0,0,0.99999992,75.334676,75.001496)" gradientUnits="userSpaceOnUse" xlink:href="#linearGradient3688-464-309-255"/><linearGradient id="linearGradient917" x1="29.944" x2="29.944" y1=".575" y2="34.109" gradientTransform="matrix(2,0,0,2,0,5e-5)" gradientUnits="userSpaceOnUse" xlink:href="#linearGradient890"/><linearGradient id="linearGradient890"><stop id="stop886" offset="0" stop-color="#64baff" stop-opacity="1"/><stop id="stop888" offset="1" stop-color="#3689e6" stop-opacity="1"/></linearGradient><linearGradient id="linearGradient1108" x1="21.073" x2="21.073" y1="46.197" y2="1.417" gradientTransform="matrix(2,0,0,2,0,5e-5)" gradientUnits="userSpaceOnUse" xlink:href="#linearGradient1106"/><linearGradient id="linearGradient1106"><stop id="stop1102" offset="0" stop-color="#abacae" stop-opacity="1"/><stop id="stop1104" offset="1" stop-color="#d4d4d4" stop-opacity="1"/></linearGradient></defs><metadata id="metadata3177"/><g id="g978" stroke-width="1.039" opacity=".2" transform="matrix(0.92592591,0,0,1,4.7407489,0)"><rect id="rect2801" width="14.211" height="5" x="103.789" y="116.001" fill="url(#radialGradient4093)" fill-opacity="1" stroke="none" stroke-width="1.481"/><rect id="rect3696" width="14.211" height="5" x="-24.211" y="-121.001" fill="url(#radialGradient4095)" fill-opacity="1" stroke="none" stroke-width="1.481" transform="scale(-1)"/><rect id="rect3700" width="79.579" height="5" x="24.211" y="116.001" fill="url(#linearGradient4097)" fill-opacity="1" stroke="none" stroke-width="1.481"/></g><path id="path4160" fill="url(#linearGradient3019-2)" fill-opacity="1" stroke="none" d="m 18,2.0004521 c 21.081878,0 91.99989,0.00694 91.99989,0.00694 L 110,118 c 0,0 -61.333339,0 -91.999999,0 0,-38.666664 0,-77.33333 0,-115.999995 z" display="inline"/><path id="rect6741-1" fill="none" stroke="url(#linearGradient3016-9)" stroke-dasharray="none" stroke-dashoffset="0" stroke-linecap="round" stroke-linejoin="round" stroke-miterlimit="4" stroke-opacity="1" stroke-width="1" d="m 109.5,117.5 h -91 V 2.500002 h 91 z"/><path id="path4160-6-1" fill="none" stroke="url(#linearGradient3148)" stroke-dasharray="none" stroke-dashoffset="0" stroke-linecap="butt" stroke-linejoin="round" stroke-miterlimit="4" stroke-opacity="1" stroke-width="1" d="m 17.500001,1.49999 c 21.311001,0 92.999899,0.008 92.999899,0.008 l 1e-4,116.99202 c 0,0 -61.999997,0 -92.999999,0 0,-39.000096 0,-77.999807 0,-116.999456 z" display="inline"/><path id="rect1016" fill="url(#linearGradient1108)" fill-opacity="1" stroke="none" stroke-dasharray="none" stroke-dashoffset="0" stroke-linecap="butt" stroke-linejoin="round" stroke-miterlimit="4" stroke-opacity="1" stroke-width="1" d="m 36,52.00005 h 32 c 2.216,0 4,1.784 4,4 v 32 c 0,2.216 -1.784,4 -4,4 H 36 c -2.216,0 -4,-1.784 -4,-4 v -32 c 0,-2.216 1.784,-4 4,-4 z" opacity="1" vector-effect="none" style="marker:none"/><path id="path1033" fill="#555761" fill-opacity="1" stroke="none" stroke-dasharray="none" stroke-dashoffset="0" stroke-linecap="butt" stroke-linejoin="round" stroke-miterlimit="4" stroke-opacity="1" stroke-width="1" d="m 47.53508,57.92844 a 0.63061374,0.63401504 0 0 0 -0.60788,0.583372 c -0.008,0.1066 -0.0422,0.419378 -0.0948,0.904818 -0.0944,0.770222 -0.168,1.428344 -0.22104,1.972352 a 0.63061374,0.63401504 0 0 0 0,0.004 l -0.0948,1.01594 a 0.63061374,0.63401504 0 0 0 0,0.004 l -0.016,0.15876 c -1.01574,0.06098 -2.05168,0.10318 -3.14594,0.10318 -0.84774,0 -1.7079,-0.02884 -2.57754,-0.09128 a 0.63061374,0.63401504 0 0 0 -0.67102,0.686554 l 0.20526,2.269988 a 0.63061374,0.63401504 0 0 0 0.58812,0.575436 c 0.3589,0.02256 0.82114,0.03572 1.39732,0.03572 1.25402,0 2.58606,-0.07082 3.94328,-0.16272 -0.1112,1.453172 -0.1968,2.807198 -0.22894,3.988354 -0.90366,0.506902 -1.70802,0.985713 -2.28544,1.408822 a 0.63061374,0.63401504 0 0 0 -0.008,0.004 c -3.35258,2.541628 -5.1314,5.50988 -5.1314,8.794222 0,1.217338 0.25854,2.226384 0.87234,2.948604 0.6138,0.722216 1.55196,1.067528 2.6328,1.067528 1.48948,0 3.0305,-0.610816 4.60246,-1.575498 0.0754,0.467984 0.1764,1.089722 0.2092,1.273892 a 0.63061374,0.63401504 0 0 0 0.84076,0.484158 l 2.33676,-0.873074 a 0.63061374,0.63401504 0 0 0 0.38682,-0.757984 c -0.24154,-0.915372 -0.38834,-1.793984 -0.4855,-2.650966 2.55134,-2.48447 4.60926,-5.591108 6.22082,-9.2506 1.09584,0.172619 2.04458,0.470876 2.80252,0.936568 a 0.63061374,0.63401504 0 0 0 0.004,0.004 c 1.72346,1.041592 2.50254,2.409898 2.50254,4.361396 0,1.890458 -0.84662,3.325328 -2.73542,4.512196 -1.47786,0.93479 -3.51168,1.56257 -6.1103,1.84139 a 0.63061374,0.63401504 0 0 0 -0.46182,0.976252 l 1.38942,2.15887 a 0.63061374,0.63401504 0 0 0 0.61576,0.281764 c 3.1122,-0.443902 5.61108,-1.336016 7.4721,-2.722396 2.37084,-1.768148 3.6196,-4.170876 3.6196,-7.016328 0,-2.587692 -1.04446,-4.77899 -3.04726,-6.385336 a 0.63061374,0.63401504 0 0 0 -0.008,-0.004 C 60.98,68.806788 59.2936,68.21106 57.32762,67.869668 c 0.1166,-0.355592 0.26352,-0.77179 0.31578,-1.01197 A 0.63061374,0.63401504 0 0 0 57.16974,66.10368 l -2.38412,-0.55559 a 0.63061374,0.63401504 0 0 0 -0.75392,0.464314 c -0.1706,0.677672 -0.3221,1.20322 -0.46972,1.698524 -1.4378,0.1555 -2.7248,0.420668 -3.89986,0.76989 0.0412,-0.975772 0.0944,-1.918042 0.1776,-2.785894 3.31078,-0.363162 6.40742,-0.891096 9.25228,-1.611216 A 0.63061374,0.63401504 0 0 0 59.56558,63.39735 L 59.31296,61.159108 A 0.63061374,0.63401504 0 0 0 58.51958,60.61939 c -2.77978,0.76569 -5.55938,1.286324 -8.33654,1.623124 0.113,-1.05934 0.23336,-2.151358 0.39472,-3.4407 A 0.63061374,0.63401504 0 0 0 49.99358,58.09145 l -2.39992,-0.15874 a 0.63061374,0.63401504 0 0 0 -0.0592,-0.004 z m 4.6064,13.183395 c -0.7354,1.535747 -1.58318,2.925187 -2.53412,4.182811 -0.039,-1.040118 -0.0782,-2.053206 -0.0828,-3.472448 0.83424,-0.321094 1.72488,-0.516716 2.61702,-0.710363 z m -6.12608,2.770021 c 0.0422,1.875466 0.1026,3.628402 0.21708,4.95667 -1.38668,1.221516 -2.63536,1.821548 -3.71432,1.821548 -0.193,0 -0.2129,-0.02956 -0.22894,-0.04762 -0.016,-0.018 -0.071,-0.11034 -0.071,-0.365102 0,-0.13748 -0.026,-0.268978 -0.0514,-0.40082 0.016,-0.10222 0.0514,-0.209658 0.0514,-0.313512 l -0.004,0.04762 c 0.111,-1.441078 0.91902,-2.987108 2.53806,-4.63522 a 0.63061374,0.63401504 0 0 0 0.008,-0.008 c 0.44278,-0.468898 0.84024,-0.723008 1.25522,-1.055624 z" font-family="Open Sans" font-size="16" font-stretch="normal" font-style="normal" font-variant="normal" font-weight="bold" letter-spacing="0" opacity="1" vector-effect="none" word-spacing="0" style="line-height:1.25;-inkscape-font-specification:'Open Sans Bold';marker:none"/><path id="path4" fill="url(#linearGradient917)" fill-opacity="1" stroke="none" stroke-dasharray="none" stroke-dashoffset="0" stroke-linecap="butt" stroke-linejoin="round" stroke-miterlimit="4" stroke-opacity="1" stroke-width="1" d="m 60,27.99995 c -2.216,0 -4,1.784 -4,4 v 32 c 0,2.216 1.784,4 4,4 h 32 c 2.216,0 4,-1.784 4,-4 v -32 c 0,-2.216 -1.784,-4 -4,-4 z" color="#000" opacity="1" vector-effect="none" style="marker:none"/><path id="path1020" fill="#fff" fill-opacity="1" stroke="none" stroke-dasharray="none" stroke-dashoffset="0" stroke-linecap="butt" stroke-linejoin="round" stroke-miterlimit="4" stroke-opacity="1" stroke-width="1" d="m 73.875,36.00005 -8.9414,24 h 4.11718 l 2.48046,-7.199218 h 8.8672 l 2.51172,7.199218 h 4.16014 l -8.9453,-24 z m 2.125,3.960938 3.57812,10.4375 h -7.22656 z" color="#000" opacity="1" vector-effect="none" style="marker:none"/></svg>