<svg xmlns="http://www.w3.org/2000/svg" xmlns:svg="http://www.w3.org/2000/svg" xmlns:xlink="http://www.w3.org/1999/xlink" id="svg3172" width="128" height="128" version="1.1"><defs id="defs3174"><linearGradient id="linearGradient3600"><stop id="stop3602" offset="0" stop-color="#f4f4f4" stop-opacity="1"/><stop id="stop3604" offset="1" stop-color="#dbdbdb" stop-opacity="1"/></linearGradient><linearGradient id="linearGradient3702-501-757-486"><stop id="stop3100" offset="0" stop-color="#181818" stop-opacity="0"/><stop id="stop3102" offset=".5" stop-color="#181818" stop-opacity="1"/><stop id="stop3104" offset="1" stop-color="#181818" stop-opacity="0"/></linearGradient><linearGradient id="linearGradient3688-464-309-255"><stop id="stop3094" offset="0" stop-color="#181818" stop-opacity="1"/><stop id="stop3096" offset="1" stop-color="#181818" stop-opacity="0"/></linearGradient><linearGradient id="linearGradient3019-2" x1="25.132" x2="25.132" y1=".985" y2="47.013" gradientTransform="matrix(2.6285655,0,0,2.5204893,0.914429,-4.3579715)" gradientUnits="userSpaceOnUse" xlink:href="#linearGradient3600"/><linearGradient id="linearGradient3016-9" x1="24" x2="24" y1="5.564" y2="42.195" gradientTransform="matrix(2.4594595,0,0,3.1081081,4.9729852,-14.594554)" gradientUnits="userSpaceOnUse" xlink:href="#linearGradient3977-3"/><linearGradient id="linearGradient3977-3"><stop id="stop3979-6" offset="0" stop-color="#fff" stop-opacity="1"/><stop id="stop3981-0" offset=".006" stop-color="#fff" stop-opacity=".235"/><stop id="stop3983-6" offset=".994" stop-color="#fff" stop-opacity=".157"/><stop id="stop3985-2" offset="1" stop-color="#fff" stop-opacity=".392"/></linearGradient><linearGradient id="linearGradient3148" x1="-51.786" x2="-51.786" y1="50.786" y2="2.906" gradientTransform="matrix(2.1456297,0,0,2.3791292,158.08983,-7.746462)" gradientUnits="userSpaceOnUse" xlink:href="#linearGradient3104-6"/><linearGradient id="linearGradient3104-6"><stop id="stop3106-3" offset="0" stop-color="#000" stop-opacity=".318"/><stop id="stop3108-9" offset="1" stop-color="#000" stop-opacity=".24"/></linearGradient><linearGradient id="linearGradient4097" x1="25.058" x2="25.058" y1="47.028" y2="39.999" gradientTransform="matrix(2.8421052,0,0,0.71428566,-4.2105336,87.430066)" gradientUnits="userSpaceOnUse" xlink:href="#linearGradient3702-501-757-486"/><radialGradient id="radialGradient4095" cx="4.993" cy="43.5" r="2.5" fx="4.993" fy="43.5" gradientTransform="matrix(5.6949649,0,0,0.99999992,-52.665305,-162.00149)" gradientUnits="userSpaceOnUse" xlink:href="#linearGradient3688-464-309-255"/><radialGradient id="radialGradient4093" cx="4.993" cy="43.5" r="2.5" fx="4.993" fy="43.5" gradientTransform="matrix(5.6949649,0,0,0.99999992,75.334676,75.001496)" gradientUnits="userSpaceOnUse" xlink:href="#linearGradient3688-464-309-255"/><linearGradient id="linearGradient3104-4"><stop id="stop3106-7" offset="0" stop-color="#aaa" stop-opacity="1"/><stop id="stop3108-6" offset="1" stop-color="#c8c8c8" stop-opacity="1"/></linearGradient><radialGradient id="radialGradient3150" cx="7.806" cy="9.957" r="12.672" fx="7.276" fy="9.957" gradientTransform="matrix(-4.3144324e-7,17.558819,-21.594996,-5.2706847e-7,279.1828,-159.61717)" gradientUnits="userSpaceOnUse" xlink:href="#linearGradient2867-449-88-871-390-598-476-591-434-148-57-177-8"/><linearGradient id="linearGradient2867-449-88-871-390-598-476-591-434-148-57-177-8"><stop id="stop3750-1" offset="0" stop-color="#90dbec" stop-opacity="1"/><stop id="stop3752-3" offset=".262" stop-color="#55c1ec" stop-opacity="1"/><stop id="stop3754-1" offset=".705" stop-color="#3689e6" stop-opacity="1"/><stop id="stop3756-1" offset="1" stop-color="#2b63a0" stop-opacity="1"/></linearGradient><linearGradient id="linearGradient3144" x1="8.377" x2="8.377" y1="5.639" y2="42.349" gradientTransform="matrix(2.3699578,0,0,3.108108,5.46525,-14.594568)" gradientUnits="userSpaceOnUse" xlink:href="#linearGradient3977-6"/><linearGradient id="linearGradient3977-6"><stop id="stop3979-9" offset="0" stop-color="#fff" stop-opacity="1"/><stop id="stop3981-3" offset=".005" stop-color="#fff" stop-opacity=".235"/><stop id="stop3983-7" offset=".994" stop-color="#fff" stop-opacity=".157"/><stop id="stop3985-4" offset="1" stop-color="#fff" stop-opacity=".392"/></linearGradient><linearGradient id="linearGradient3878-6" x1="22.004" x2="22.004" y1="47.813" y2="3.364" gradientTransform="matrix(-2.7042255,0,0,2.7149968,136.10652,-10.300158)" gradientUnits="userSpaceOnUse" xlink:href="#linearGradient3104-4"/><radialGradient id="radialGradient3159-0" cx="7" cy="39.465" r="3.5" fx="7" fy="39.465" gradientTransform="matrix(0,-0.89962666,0.93506368,0,-81.62938,-32.204086)" gradientUnits="userSpaceOnUse" xlink:href="#linearGradient5060-5"/><linearGradient id="linearGradient5060-5"><stop id="stop5062-5" offset="0" stop-color="#000" stop-opacity="1"/><stop id="stop5064-3" offset="1" stop-color="#000" stop-opacity="0"/></linearGradient><radialGradient id="radialGradient3157-8" cx="7" cy="39.465" r="3.5" fx="7" fy="39.465" gradientTransform="matrix(0,-0.89962666,0.93506368,0,-33.629364,44.798864)" gradientUnits="userSpaceOnUse" xlink:href="#linearGradient5060-5"/><linearGradient id="linearGradient3161-5" x1="18.142" x2="18.142" y1="35" y2="42.041" gradientTransform="matrix(1.0133332,0,0,0.89962576,-0.0436346,3.8658836)" gradientUnits="userSpaceOnUse" xlink:href="#linearGradient22140"/><linearGradient id="linearGradient22140"><stop id="stop22142" offset="0" stop-color="#000" stop-opacity="0"/><stop id="stop22148" offset=".5" stop-color="#000" stop-opacity="1"/><stop id="stop22144" offset="1" stop-color="#000" stop-opacity="0"/></linearGradient><linearGradient id="linearGradient3163" x1="30.739" x2="45.903" y1="35.285" y2="50.736" gradientTransform="matrix(0,5.4100631,-5.3070628,0,309.7614,-121.83734)" gradientUnits="userSpaceOnUse" xlink:href="#linearGradient3412"/><linearGradient id="linearGradient3412"><stop id="stop3414" offset="0" stop-color="#f0f0f1" stop-opacity="1"/><stop id="stop3416" offset="1" stop-color="#cbcdd9" stop-opacity="1"/></linearGradient><linearGradient id="linearGradient3165" x1="75.78" x2="75.78" y1="86" y2="127.036" gradientTransform="matrix(-2,0,0,2.0008421,236.50002,-127.60767)" gradientUnits="userSpaceOnUse" xlink:href="#linearGradient6240"/><linearGradient id="linearGradient6240"><stop id="stop6242" offset="0" stop-color="#fff" stop-opacity="1"/><stop id="stop6244" offset="1" stop-color="#fff" stop-opacity="0"/></linearGradient></defs><metadata id="metadata3177"/><g id="g978" stroke-width="1.039" opacity=".2" transform="matrix(0.92592591,0,0,1,4.7407489,0)"><rect id="rect2801" width="14.211" height="5" x="103.789" y="116.001" fill="url(#radialGradient4093)" fill-opacity="1" stroke="none" stroke-width="1.481"/><rect id="rect3696" width="14.211" height="5" x="-24.211" y="-121.001" fill="url(#radialGradient4095)" fill-opacity="1" stroke="none" stroke-width="1.481" transform="scale(-1)"/><rect id="rect3700" width="79.579" height="5" x="24.211" y="116.001" fill="url(#linearGradient4097)" fill-opacity="1" stroke="none" stroke-width="1.481"/></g><path id="path4160" fill="url(#linearGradient3019-2)" fill-opacity="1" stroke="none" d="m 18,2.0004521 c 21.081878,0 91.99989,0.00694 91.99989,0.00694 L 110,118 c 0,0 -61.333339,0 -91.999999,0 0,-38.666664 0,-77.33333 0,-115.999995 z" display="inline"/><path id="rect6741-1" fill="none" stroke="url(#linearGradient3016-9)" stroke-dasharray="none" stroke-dashoffset="0" stroke-linecap="round" stroke-linejoin="round" stroke-miterlimit="4" stroke-opacity="1" stroke-width="1" d="m 109.5,117.5 h -91 V 2.500002 h 91 z"/><path id="path4530" fill="url(#radialGradient3150)" fill-opacity="1" fill-rule="nonzero" stroke="none" stroke-width="1" d="m 32.095498,118.50004 c -4.681714,0 -9.307501,0 -13.989241,0 -0.365697,0 -0.543005,-0.10522 -0.543005,-0.62692 0,-36.743545 0,-78.957194 0,-115.700729 L 17.721955,1.69658 18.106257,1.50012 v 0 c 4.872721,0 8.925548,0 13.798245,0" color="#000" display="inline" enable-background="accumulate" overflow="visible" visibility="visible" style="marker:none"/><path id="rect6741-1-5" fill="none" stroke="url(#linearGradient3144)" stroke-dasharray="none" stroke-dashoffset="0" stroke-linecap="butt" stroke-linejoin="miter" stroke-miterlimit="4" stroke-opacity="1" stroke-width="1" d="M 32,117.5 H 18.5 V 2.499998 H 32" opacity=".5"/><path id="path4160-6-1" fill="none" stroke="url(#linearGradient3148)" stroke-dasharray="none" stroke-dashoffset="0" stroke-linecap="butt" stroke-linejoin="round" stroke-miterlimit="4" stroke-opacity="1" stroke-width="1" d="m 17.500001,1.49999 c 21.311001,0 92.999899,0.008 92.999899,0.008 l 1e-4,116.99202 c 0,0 -61.999997,0 -92.999999,0 0,-39.000096 0,-77.999807 0,-116.999456 z" display="inline"/><path id="path3475" fill="none" stroke="url(#linearGradient3878-6)" stroke-linecap="butt" stroke-linejoin="miter" stroke-opacity="1" stroke-width="1" d="m 101,21.5 h -6.33803 z m -7.267607,0 H 87.8169 Z m -6.845071,0 h -5.239436 z m -6.084507,0 h -2.28169 z m -3.211269,0 h -5.070422 z m -6.084506,0 H 58.154913 Z m -14.197191,0 H 47.084489 Z M 101,27.5 h -9.887327 z m -10.985917,0 h -4.732394 z m -5.577466,0 H 82.07042 Z m -3.295774,0 h -4.309861 z m -5.239438,0 H 71.50704 Z m -5.239436,0 h -7.014093 z m -7.943656,0 h -9.126779 z m -9.971844,0 h -6.084511 z m -6.929577,0 H 44.295759 Z M 101,33.45758 h -8.3662 z m -9.211268,0 H 78.098589 Z m -14.535214,0 h -6.676055 z m -7.521126,0 h -6.253514 z m -7.098599,0 h -5.323944 z m -6.16901,0 -8.366192,0.08484 z M 101,39.5 H 89.422534 Z m -12.507044,0 H 75.985913 Z m -13.352112,0 h -4.985919 z m -5.830987,0 H 57.563363 Z m -12.50704,0 h -8.028178 z m -8.95776,0 H 44.633792 Z M 101,45.5 h -4.30986 z m -5.661973,0 H 79.366194 Z M 101,56.45758 h -8.3662 z m -9.211268,0 H 78.098589 Z m -14.535214,0 h -6.676055 z m -7.521126,0 h -6.253514 z m -7.098599,0 h -5.323944 z m -6.16901,0 -8.366192,0.08484 z M 101,62.5 H 90.352111 Z m -11.49296,0 H 78.098589 Z m -12.253522,0 h -4.394366 z m -5.239438,0 H 61.281677 Z m -11.577468,0 H 46.915493 Z m -14.450702,0 H 41 Z M 101,68.5 H 89.422534 Z m -12.507044,0 H 75.985913 Z m -13.352112,0 h -4.985919 z m -5.830987,0 H 57.563363 Z m -12.50704,0 h -8.028178 z m -8.95776,0 H 44.633792 Z M 101,74.5 h -9.887327 z m -10.985917,0 h -4.732394 z m -5.577466,0 H 82.07042 Z m -3.295774,0 h -4.309861 z m -5.239438,0 H 71.50704 Z m -5.239436,0 h -7.014093 z m -7.943656,0 h -9.126779 z m -9.971844,0 h -6.084511 z m -6.929577,0 H 44.295759 Z M 101,85.457575 h -8.3662 z m -9.211268,0 H 78.098589 Z m -14.535214,0 h -6.676055 z m -7.521126,0 h -6.253514 z m -7.098599,0 h -5.323944 z m -6.16901,0 -8.366192,0.08485 z M 101,91.5 h -9.887327 z m -10.985917,0 h -4.732394 z m -5.577466,0 H 82.07042 Z m -3.295774,0 h -4.309861 z m -5.239438,0 H 71.50704 Z m -5.239436,0 h -7.014093 z m -7.943656,0 h -9.126779 z m -9.971844,0 h -6.084511 z m -6.929577,0 H 44.295759 Z M 101,97.5 H 90.521126 Z m -11.408451,0 h -3.295777 z m -4.140847,0 h -7.521126 z m -8.366197,0 H 66.014081 Z m -12.000001,0 h -7.521141 z m -8.281687,0 h -1.605631 z m -2.450716,0 H 44.80281 Z M 101,103.5 H 90.521126 Z m -11.408451,0 h -4.732396 z m -5.577467,0 h -7.43662 z m -8.281691,0 h -8.02817 z m -8.957747,0 h -3.211267 z m -4.056331,0 h -1.774649 z m -2.704233,0 h -4.985911 z"/><g id="g4345" transform="translate(2e-6,-2.5126731e-6)"><g id="g22150" opacity=".3" transform="matrix(-1.833334,0,0,1.4291655,126.00003,68.47502)"><rect id="rect22134" width="3.273" height="6.297" x="-48" y="-41.65" fill="url(#radialGradient3159-0)" fill-opacity="1" stroke="none" transform="scale(-1)"/><rect id="rect22120" width="3.273" height="6.297" x="0" y="35.353" fill="url(#radialGradient3157-8)" fill-opacity="1" stroke="none"/><rect id="rect22138" width="41.455" height="6.297" x="3.273" y="35.353" fill="url(#linearGradient3161-5)" fill-opacity="1" stroke="none"/></g><path id="path2993" fill="url(#linearGradient3163)" fill-opacity="1" fill-rule="evenodd" stroke="#83899a" stroke-dasharray="none" stroke-dashoffset="0" stroke-linecap="butt" stroke-linejoin="miter" stroke-miterlimit="4" stroke-opacity="1" stroke-width="1" d="M 121.50004,45.207214 41.212776,125.5 121.50004,125.499 Z m -16,37.002288 v 27.290538 l -27.295082,-8e-5 z" display="inline" enable-background="accumulate" opacity=".8" overflow="visible" visibility="visible" style="marker:none"/><path id="path3103" fill="none" stroke="#fff" stroke-linecap="round" stroke-linejoin="miter" stroke-opacity="1" stroke-width="1" d="m 98.500032,124.49288 v -2.98929" opacity=".3"/><path id="path3091" fill="none" stroke="#83899a" stroke-linecap="round" stroke-linejoin="miter" stroke-opacity="1" stroke-width="1" d="m 109.50003,125.49882 v -4.00168 m -11.999998,4.00168 v -4.00168 m -12,4.00168 v -3.95406 m -12,3.95406 v -4.00168 m -12,4.00168 v -4.00168" opacity=".75"/><path id="path3934" fill="none" stroke="url(#linearGradient3165)" stroke-dasharray="none" stroke-dashoffset="0" stroke-linecap="butt" stroke-linejoin="miter" stroke-miterlimit="4" stroke-opacity="1" stroke-width="1" d="M 120.5,47.615627 V 124.5 H 43.626721 Z M 106.5,79.790078 75.779061,110.5 H 106.5 Z" display="inline" enable-background="accumulate" opacity=".5" overflow="visible" visibility="visible" style="marker:none"/><path id="path4292" fill="none" stroke="#fff" stroke-linecap="round" stroke-linejoin="miter" stroke-opacity="1" stroke-width="1" d="m 110.50005,124.49288 v -2.98929" opacity=".3"/><path id="path4294" fill="none" stroke="#fff" stroke-linecap="round" stroke-linejoin="miter" stroke-opacity="1" stroke-width="1" d="m 86.50005,124.49288 v -2.98929" opacity=".3"/><path id="path4296" fill="none" stroke="#fff" stroke-linecap="round" stroke-linejoin="miter" stroke-opacity="1" stroke-width="1" d="m 74.50005,124.49288 v -2.98929" opacity=".3"/><path id="path4298" fill="none" stroke="#fff" stroke-linecap="round" stroke-linejoin="miter" stroke-opacity="1" stroke-width="1" d="m 62.50005,124.49288 v -2.98929" opacity=".3"/><path id="path4300" fill="none" stroke="#fff" stroke-linecap="round" stroke-linejoin="miter" stroke-opacity="1" stroke-width="1" d="m 120.50286,78.499968 h -2.98929" opacity=".3"/><path id="path4302" fill="none" stroke="#83899a" stroke-linecap="round" stroke-linejoin="miter" stroke-opacity="1" stroke-width="1" d="m 121.5088,65.49995 h -4.00168 m 4.00168,12 h -4.00168 m 4.00168,12 h -3.95406 m 3.95406,12 h -4.00168 m 4.00168,12 h -4.00168" opacity=".75"/><path id="path4304" fill="none" stroke="#fff" stroke-linecap="round" stroke-linejoin="miter" stroke-opacity="1" stroke-width="1" d="m 120.50286,66.49995 h -2.98929" opacity=".3"/><path id="path4306" fill="none" stroke="#fff" stroke-linecap="round" stroke-linejoin="miter" stroke-opacity="1" stroke-width="1" d="m 120.50286,90.49995 h -2.98929" opacity=".3"/><path id="path4308" fill="none" stroke="#fff" stroke-linecap="round" stroke-linejoin="miter" stroke-opacity="1" stroke-width="1" d="m 120.50286,102.49995 h -2.98929" opacity=".3"/><path id="path4310" fill="none" stroke="#fff" stroke-linecap="round" stroke-linejoin="miter" stroke-opacity="1" stroke-width="1" d="m 120.50286,114.49995 h -2.98929" opacity=".3"/></g></svg>