<svg xmlns="http://www.w3.org/2000/svg" xmlns:svg="http://www.w3.org/2000/svg" xmlns:xlink="http://www.w3.org/1999/xlink" id="svg3172" width="128" height="128" version="1.1"><defs id="defs3174"><linearGradient id="linearGradient3600"><stop id="stop3602" offset="0" stop-color="#f4f4f4" stop-opacity="1"/><stop id="stop3604" offset="1" stop-color="#dbdbdb" stop-opacity="1"/></linearGradient><linearGradient id="linearGradient3702-501-757-486"><stop id="stop3100" offset="0" stop-color="#181818" stop-opacity="0"/><stop id="stop3102" offset=".5" stop-color="#181818" stop-opacity="1"/><stop id="stop3104" offset="1" stop-color="#181818" stop-opacity="0"/></linearGradient><linearGradient id="linearGradient3688-464-309-255"><stop id="stop3094" offset="0" stop-color="#181818" stop-opacity="1"/><stop id="stop3096" offset="1" stop-color="#181818" stop-opacity="0"/></linearGradient><linearGradient id="linearGradient3019-2" x1="25.132" x2="25.132" y1=".985" y2="47.013" gradientTransform="matrix(2.6285655,0,0,2.5204893,0.914429,-4.3579715)" gradientUnits="userSpaceOnUse" xlink:href="#linearGradient3600"/><linearGradient id="linearGradient3016-9" x1="24" x2="24" y1="5.564" y2="42.195" gradientTransform="matrix(2.4594595,0,0,3.1081081,4.9729852,-14.594554)" gradientUnits="userSpaceOnUse" xlink:href="#linearGradient3977-3"/><linearGradient id="linearGradient3977-3"><stop id="stop3979-6" offset="0" stop-color="#fff" stop-opacity="1"/><stop id="stop3981-0" offset=".006" stop-color="#fff" stop-opacity=".235"/><stop id="stop3983-6" offset=".994" stop-color="#fff" stop-opacity=".157"/><stop id="stop3985-2" offset="1" stop-color="#fff" stop-opacity=".392"/></linearGradient><linearGradient id="linearGradient3148" x1="-51.786" x2="-51.786" y1="50.786" y2="2.906" gradientTransform="matrix(2.1456297,0,0,2.3791292,158.08983,-7.746462)" gradientUnits="userSpaceOnUse" xlink:href="#linearGradient3104-6"/><linearGradient id="linearGradient3104-6"><stop id="stop3106-3" offset="0" stop-color="#000" stop-opacity=".318"/><stop id="stop3108-9" offset="1" stop-color="#000" stop-opacity=".24"/></linearGradient><linearGradient id="linearGradient4097" x1="25.058" x2="25.058" y1="47.028" y2="39.999" gradientTransform="matrix(2.8421052,0,0,0.71428566,-4.2105336,87.430066)" gradientUnits="userSpaceOnUse" xlink:href="#linearGradient3702-501-757-486"/><radialGradient id="radialGradient4095" cx="4.993" cy="43.5" r="2.5" fx="4.993" fy="43.5" gradientTransform="matrix(5.6949649,0,0,0.99999992,-52.665305,-162.00149)" gradientUnits="userSpaceOnUse" xlink:href="#linearGradient3688-464-309-255"/><radialGradient id="radialGradient4093" cx="4.993" cy="43.5" r="2.5" fx="4.993" fy="43.5" gradientTransform="matrix(5.6949649,0,0,0.99999992,75.334676,75.001496)" gradientUnits="userSpaceOnUse" xlink:href="#linearGradient3688-464-309-255"/><linearGradient id="linearGradient3918" x1="28.534" x2="16.887" y1="24.24" y2="13.664" gradientTransform="matrix(2.7605228,0,0,2.6070199,-3.506062,-8.064025)" gradientUnits="userSpaceOnUse" xlink:href="#linearGradient4102"/><linearGradient id="linearGradient4102"><stop id="stop4104" offset="0" stop-color="#fda852" stop-opacity="1"/><stop id="stop4106" offset="1" stop-color="#fff" stop-opacity="0"/></linearGradient><radialGradient id="radialGradient3159-1" cx="7" cy="39.465" r="3.5" fx="7" fy="39.465" gradientTransform="matrix(0,-0.89962666,0.93506368,0,-81.62938,-32.204086)" gradientUnits="userSpaceOnUse" xlink:href="#linearGradient5060-5"/><linearGradient id="linearGradient5060-5"><stop id="stop5062-5" offset="0" stop-color="#000" stop-opacity="1"/><stop id="stop5064-3" offset="1" stop-color="#000" stop-opacity="0"/></linearGradient><radialGradient id="radialGradient3157-7" cx="7" cy="39.465" r="3.5" fx="7" fy="39.465" gradientTransform="matrix(0,-0.89962666,0.93506368,0,-33.629364,44.798864)" gradientUnits="userSpaceOnUse" xlink:href="#linearGradient5060-5"/><linearGradient id="linearGradient3161-0" x1="18.142" x2="18.142" y1="35" y2="42.041" gradientTransform="matrix(1.0133332,0,0,0.89962576,-0.0436346,3.8658836)" gradientUnits="userSpaceOnUse" xlink:href="#linearGradient22140"/><linearGradient id="linearGradient22140"><stop id="stop22142" offset="0" stop-color="#000" stop-opacity="0"/><stop id="stop22148" offset=".5" stop-color="#000" stop-opacity="1"/><stop id="stop22144" offset="1" stop-color="#000" stop-opacity="0"/></linearGradient><linearGradient id="linearGradient3163" x1="30.739" x2="45.903" y1="35.285" y2="50.736" gradientTransform="matrix(0,5.4100631,-5.3070628,0,309.7614,-121.83734)" gradientUnits="userSpaceOnUse" xlink:href="#linearGradient3412"/><linearGradient id="linearGradient3412"><stop id="stop3414" offset="0" stop-color="#f0f0f1" stop-opacity="1"/><stop id="stop3416" offset="1" stop-color="#cbcdd9" stop-opacity="1"/></linearGradient><linearGradient id="linearGradient3165" x1="75.78" x2="75.78" y1="86" y2="127.036" gradientTransform="matrix(-2,0,0,2.0008421,236.50002,-127.60767)" gradientUnits="userSpaceOnUse" xlink:href="#linearGradient6240"/><linearGradient id="linearGradient6240"><stop id="stop6242" offset="0" stop-color="#fff" stop-opacity="1"/><stop id="stop6244" offset="1" stop-color="#fff" stop-opacity="0"/></linearGradient></defs><metadata id="metadata3177"/><g id="g978" stroke-width="1.039" opacity=".2" transform="matrix(0.92592591,0,0,1,4.7407489,0)"><rect id="rect2801" width="14.211" height="5" x="103.789" y="116.001" fill="url(#radialGradient4093)" fill-opacity="1" stroke="none" stroke-width="1.481"/><rect id="rect3696" width="14.211" height="5" x="-24.211" y="-121.001" fill="url(#radialGradient4095)" fill-opacity="1" stroke="none" stroke-width="1.481" transform="scale(-1)"/><rect id="rect3700" width="79.579" height="5" x="24.211" y="116.001" fill="url(#linearGradient4097)" fill-opacity="1" stroke="none" stroke-width="1.481"/></g><path id="path4160" fill="url(#linearGradient3019-2)" fill-opacity="1" stroke="none" d="m 18,2.0004521 c 21.081878,0 91.99989,0.00694 91.99989,0.00694 L 110,118 c 0,0 -61.333339,0 -91.999999,0 0,-38.666664 0,-77.33333 0,-115.999995 z" display="inline"/><path id="rect6741-1" fill="none" stroke="url(#linearGradient3016-9)" stroke-dasharray="none" stroke-dashoffset="0" stroke-linecap="round" stroke-linejoin="round" stroke-miterlimit="4" stroke-opacity="1" stroke-width="1" d="m 109.5,117.5 h -91 V 2.500002 h 91 z"/><path id="path4160-6-1" fill="none" stroke="url(#linearGradient3148)" stroke-dasharray="none" stroke-dashoffset="0" stroke-linecap="butt" stroke-linejoin="round" stroke-miterlimit="4" stroke-opacity="1" stroke-width="1" d="m 17.500001,1.49999 c 21.311001,0 92.999899,0.008 92.999899,0.008 l 1e-4,116.99202 c 0,0 -61.999997,0 -92.999999,0 0,-39.000096 0,-77.999807 0,-116.999456 z" display="inline"/><g id="g4227" transform="translate(0,-2.8621891e-6)"><path id="path2783" fill="url(#linearGradient3918)" fill-opacity="1" fill-rule="evenodd" stroke="#ea541a" stroke-linecap="butt" stroke-linejoin="miter" stroke-opacity="1" stroke-width="1" d="M 41.638982,84.702408 C 53.168454,92.088092 78.34069,82.207109 57.413234,55.764519 36.675224,29.5613 78.017552,12.37512 90.28574,42.678349"/><path id="path3571" fill="#f37329" fill-opacity="1" stroke="#ea541a" stroke-linecap="butt" stroke-linejoin="miter" stroke-opacity="1" stroke-width="1" d="M 38.8664,31.951431 78.636186,81.615692"/><path id="path3575" fill="#e6e6e6" fill-opacity="1" stroke="#ea541a" stroke-dasharray="none" stroke-linecap="butt" stroke-miterlimit="4" stroke-opacity="1" stroke-width="1" d="m 81.08573,81.872804 c 9.78e-4,1.450333 -1.176164,2.62658 -2.628572,2.62658 -1.452414,0 -2.629554,-1.176247 -2.628576,-2.62658 -9.78e-4,-1.450336 1.176162,-2.626583 2.628576,-2.626583 1.452408,0 2.62955,1.176247 2.628572,2.626583 z M 41.657116,32.001338 c 9.76e-4,1.450334 -1.176164,2.626581 -2.628576,2.626581 -1.45241,0 -2.62955,-1.176247 -2.628574,-2.626581 -9.76e-4,-1.450335 1.176164,-2.626582 2.628574,-2.626582 1.452412,0 2.629552,1.176247 2.628576,2.626582 z"/><path id="rect3569" fill="#ea541a" fill-opacity="1" stroke="none" d="m 54,50.999981 h 8 v 8.000004 H 54 Z M 86,36.999974 h 8 v 8.000004 H 86 Z M 34,80.999996 h 8 V 89 h -8 z"/></g><g id="g4345" transform="translate(2e-6,-2.5126731e-6)"><g id="g22150" opacity=".3" transform="matrix(-1.833334,0,0,1.4291655,126.00003,68.47502)"><rect id="rect22134" width="3.273" height="6.297" x="-48" y="-41.65" fill="url(#radialGradient3159-1)" fill-opacity="1" stroke="none" transform="scale(-1)"/><rect id="rect22120" width="3.273" height="6.297" x="0" y="35.353" fill="url(#radialGradient3157-7)" fill-opacity="1" stroke="none"/><rect id="rect22138" width="41.455" height="6.297" x="3.273" y="35.353" fill="url(#linearGradient3161-0)" fill-opacity="1" stroke="none"/></g><path id="path2993" fill="url(#linearGradient3163)" fill-opacity="1" fill-rule="evenodd" stroke="#83899a" stroke-dasharray="none" stroke-dashoffset="0" stroke-linecap="butt" stroke-linejoin="miter" stroke-miterlimit="4" stroke-opacity="1" stroke-width="1" d="M 121.50004,45.207214 41.212776,125.5 121.50004,125.499 Z m -16,37.002288 v 27.290538 l -27.295082,-8e-5 z" display="inline" enable-background="accumulate" opacity=".8" overflow="visible" visibility="visible" style="marker:none"/><path id="path3103" fill="none" stroke="#fff" stroke-linecap="round" stroke-linejoin="miter" stroke-opacity="1" stroke-width="1" d="m 98.500032,124.49288 v -2.98929" opacity=".3"/><path id="path3091" fill="none" stroke="#83899a" stroke-linecap="round" stroke-linejoin="miter" stroke-opacity="1" stroke-width="1" d="m 109.50003,125.49882 v -4.00168 m -11.999998,4.00168 v -4.00168 m -12,4.00168 v -3.95406 m -12,3.95406 v -4.00168 m -12,4.00168 v -4.00168" opacity=".75"/><path id="path3934" fill="none" stroke="url(#linearGradient3165)" stroke-dasharray="none" stroke-dashoffset="0" stroke-linecap="butt" stroke-linejoin="miter" stroke-miterlimit="4" stroke-opacity="1" stroke-width="1" d="M 120.5,47.615627 V 124.5 H 43.626721 Z M 106.5,79.790078 75.779061,110.5 H 106.5 Z" display="inline" enable-background="accumulate" opacity=".5" overflow="visible" visibility="visible" style="marker:none"/><path id="path4292" fill="none" stroke="#fff" stroke-linecap="round" stroke-linejoin="miter" stroke-opacity="1" stroke-width="1" d="m 110.50005,124.49288 v -2.98929" opacity=".3"/><path id="path4294" fill="none" stroke="#fff" stroke-linecap="round" stroke-linejoin="miter" stroke-opacity="1" stroke-width="1" d="m 86.50005,124.49288 v -2.98929" opacity=".3"/><path id="path4296" fill="none" stroke="#fff" stroke-linecap="round" stroke-linejoin="miter" stroke-opacity="1" stroke-width="1" d="m 74.50005,124.49288 v -2.98929" opacity=".3"/><path id="path4298" fill="none" stroke="#fff" stroke-linecap="round" stroke-linejoin="miter" stroke-opacity="1" stroke-width="1" d="m 62.50005,124.49288 v -2.98929" opacity=".3"/><path id="path4300" fill="none" stroke="#fff" stroke-linecap="round" stroke-linejoin="miter" stroke-opacity="1" stroke-width="1" d="m 120.50286,78.499968 h -2.98929" opacity=".3"/><path id="path4302" fill="none" stroke="#83899a" stroke-linecap="round" stroke-linejoin="miter" stroke-opacity="1" stroke-width="1" d="m 121.5088,65.49995 h -4.00168 m 4.00168,12 h -4.00168 m 4.00168,12 h -3.95406 m 3.95406,12 h -4.00168 m 4.00168,12 h -4.00168" opacity=".75"/><path id="path4304" fill="none" stroke="#fff" stroke-linecap="round" stroke-linejoin="miter" stroke-opacity="1" stroke-width="1" d="m 120.50286,66.49995 h -2.98929" opacity=".3"/><path id="path4306" fill="none" stroke="#fff" stroke-linecap="round" stroke-linejoin="miter" stroke-opacity="1" stroke-width="1" d="m 120.50286,90.49995 h -2.98929" opacity=".3"/><path id="path4308" fill="none" stroke="#fff" stroke-linecap="round" stroke-linejoin="miter" stroke-opacity="1" stroke-width="1" d="m 120.50286,102.49995 h -2.98929" opacity=".3"/><path id="path4310" fill="none" stroke="#fff" stroke-linecap="round" stroke-linejoin="miter" stroke-opacity="1" stroke-width="1" d="m 120.50286,114.49995 h -2.98929" opacity=".3"/></g></svg>