<svg xmlns="http://www.w3.org/2000/svg" xmlns:svg="http://www.w3.org/2000/svg" xmlns:xlink="http://www.w3.org/1999/xlink" id="svg4954" width="128" height="128" version="1.1"><defs id="defs4956"><linearGradient id="linearGradient4356"><stop id="stop4358" offset="0" stop-color="#fff" stop-opacity="1"/><stop id="stop4360" offset=".013" stop-color="#fff" stop-opacity=".235"/><stop id="stop4362" offset=".983" stop-color="#fff" stop-opacity=".157"/><stop id="stop4364" offset="1" stop-color="#fff" stop-opacity=".392"/></linearGradient><linearGradient id="linearGradient3600-3-2-2"><stop id="stop3602-1-25-9" offset="0" stop-color="#f4f4f4" stop-opacity="1"/><stop id="stop3604-4-2-0" offset="1" stop-color="#dbdbdb" stop-opacity="1"/></linearGradient><linearGradient id="linearGradient3600-3-2-2-6-5-8-7"><stop id="stop3602-1-25-9-9-6-5-6" offset="0" stop-color="#f4f4f4" stop-opacity="1"/><stop id="stop3604-4-2-0-2-4-2-1" offset="1" stop-color="#dbdbdb" stop-opacity="1"/></linearGradient><linearGradient id="linearGradient3104-9-7-3-9-2-6-2"><stop id="stop3106-1-5-9-3-1-7-1" offset="0" stop-color="#aaa" stop-opacity="1"/><stop id="stop3108-1-5-5-7-2-4-5" offset="1" stop-color="#c8c8c8" stop-opacity="1"/></linearGradient><linearGradient id="linearGradient3211-8-8-0-0-9"><stop id="stop3213-0-0-8-1-1" offset="0" stop-color="#fff" stop-opacity="1"/><stop id="stop3215-1-8-0-6-4" offset="1" stop-color="#fff" stop-opacity="0"/></linearGradient><linearGradient id="linearGradient3600-3-2-2-6-8"><stop id="stop3602-1-25-9-9-7" offset="0" stop-color="#f4f4f4" stop-opacity="1"/><stop id="stop3604-4-2-0-2-0" offset="1" stop-color="#dbdbdb" stop-opacity="1"/></linearGradient><linearGradient id="linearGradient3104-9-7-3-9-6"><stop id="stop3106-1-5-9-3-2" offset="0" stop-color="#aaa" stop-opacity="1"/><stop id="stop3108-1-5-5-7-4" offset="1" stop-color="#c8c8c8" stop-opacity="1"/></linearGradient><linearGradient id="linearGradient3211-8-8-9"><stop id="stop3213-0-0-3" offset="0" stop-color="#fff" stop-opacity="1"/><stop id="stop3215-1-8-9" offset="1" stop-color="#fff" stop-opacity="0"/></linearGradient><linearGradient id="linearGradient3104-5"><stop id="stop3106-9" offset="0" stop-color="#aaa" stop-opacity="1"/><stop id="stop3108-9" offset="1" stop-color="#c8c8c8" stop-opacity="1"/></linearGradient><linearGradient id="linearGradient3091" x1="22.004" x2="22.004" y1="63.218" y2="25.647" gradientTransform="matrix(2.6788351,0,0,-3.9652608,-8.7086648,228.72585)" gradientUnits="userSpaceOnUse" xlink:href="#linearGradient3104-5"/><linearGradient id="linearGradient3076" x1="24" x2="24" y1="5.263" y2="41.755" gradientTransform="matrix(1.7837837,0,0,2.1081079,-0.81079964,26.90543)" gradientUnits="userSpaceOnUse" xlink:href="#linearGradient4356"/><linearGradient id="linearGradient3917" x1="25.132" x2="25.132" y1="15.285" y2="37.546" gradientTransform="matrix(2.9136939,0,0,2.9573295,-2.3848139,7.9482731)" gradientUnits="userSpaceOnUse" xlink:href="#linearGradient3600-3-2-2"/><linearGradient id="linearGradient3928" x1="24" x2="24" y1="14.203" y2="35.721" gradientTransform="matrix(4.2341648,0,0,2.3350645,-20.70947,9.5639281)" gradientUnits="userSpaceOnUse" xlink:href="#linearGradient3211-8-8-9"/><linearGradient id="linearGradient3931" x1="25.132" x2="25.132" y1="10.061" y2="37.267" gradientTransform="matrix(4.0656632,0,0,2.2421191,-19.37221,8.4427031)" gradientUnits="userSpaceOnUse" xlink:href="#linearGradient3600-3-2-2-6-8"/><linearGradient id="linearGradient3933" x1="-51.833" x2="-51.833" y1="41.012" y2="11.941" gradientTransform="matrix(3.2830096,0,0,2.0982895,222.16977,5.9439081)" gradientUnits="userSpaceOnUse" xlink:href="#linearGradient3104-9-7-3-9-6"/><linearGradient id="linearGradient3936" x1="24" x2="24" y1="4.99" y2="36.482" gradientTransform="matrix(5.9859991,0,0,0.22228053,-55.820217,23.890763)" gradientUnits="userSpaceOnUse" xlink:href="#linearGradient3211-8-8-0-0-9"/><linearGradient id="linearGradient3939" x1="25.132" x2="25.132" y1="12.629" y2="35.416" gradientTransform="matrix(5.3695381,0,0,0.30719318,-46.335455,21.120375)" gradientUnits="userSpaceOnUse" xlink:href="#linearGradient3600-3-2-2-6-5-8-7"/><linearGradient id="linearGradient3941" x1="-51.816" x2="-51.816" y1="38.708" y2="14.686" gradientTransform="matrix(4.3358848,0,0,0.28748705,272.67005,20.778015)" gradientUnits="userSpaceOnUse" xlink:href="#linearGradient3104-9-7-3-9-2-6-2"/><linearGradient id="linearGradient3968" x1="22.004" x2="22.004" y1="63.218" y2="25.647" gradientTransform="matrix(2.6788351,0,0,-3.9652608,-8.7086648,260.72585)" gradientUnits="userSpaceOnUse" xlink:href="#linearGradient3104-5"/><linearGradient id="linearGradient3702-501-757-795"><stop id="stop3100" offset="0" stop-color="#181818" stop-opacity="0"/><stop id="stop3102" offset=".5" stop-color="#181818" stop-opacity="1"/><stop id="stop3104" offset="1" stop-color="#181818" stop-opacity="0"/></linearGradient><linearGradient id="linearGradient3688-464-309-604"><stop id="stop3094" offset="0" stop-color="#181818" stop-opacity="1"/><stop id="stop3096" offset="1" stop-color="#181818" stop-opacity="0"/></linearGradient><linearGradient id="linearGradient3688-166-749-654"><stop id="stop3088" offset="0" stop-color="#181818" stop-opacity="1"/><stop id="stop3090" offset="1" stop-color="#181818" stop-opacity="0"/></linearGradient><radialGradient id="radialGradient4172" cx="4.993" cy="43.5" r="2.5" fx="4.993" fy="43.5" gradientTransform="matrix(1.9035948,0,0,1.2599994,28.738724,-10.959975)" gradientUnits="userSpaceOnUse" xlink:href="#linearGradient3688-166-749-654"/><radialGradient id="radialGradient4174" cx="4.993" cy="43.5" r="2.5" fx="4.993" fy="43.5" gradientTransform="matrix(1.9035948,0,0,1.2599994,-19.261277,-98.659973)" gradientUnits="userSpaceOnUse" xlink:href="#linearGradient3688-464-309-604"/><linearGradient id="linearGradient4176" x1="25.058" x2="25.058" y1="47.028" y2="39.999" gradientTransform="matrix(1.0178572,0,0,0.89999962,-0.42857159,4.7000205)" gradientUnits="userSpaceOnUse" xlink:href="#linearGradient3702-501-757-795"/><linearGradient id="linearGradient4180" x1="22.004" x2="22.004" y1="63.218" y2="25.647" gradientTransform="matrix(2.6788351,0,0,-3.9652608,13.603836,228.72585)" gradientUnits="userSpaceOnUse" xlink:href="#linearGradient3104-5"/><linearGradient id="linearGradient4185" x1="22.004" x2="22.004" y1="63.218" y2="25.647" gradientTransform="matrix(2.6788351,0,0,3.9652608,15.228836,-60.725859)" gradientUnits="userSpaceOnUse" xlink:href="#linearGradient3104-5"/><linearGradient id="linearGradient2867-449-88-871-390-598-476-591-434-148-57-177-8-3-3-6-4-8-8-8"><stop id="stop3750-1-0-7-6-6-1-3-9" offset="0" stop-color="#ffcd7d" stop-opacity="1"/><stop id="stop3752-3-7-4-0-32-8-923-0" offset=".262" stop-color="#fc8f36" stop-opacity="1"/><stop id="stop3754-1-8-5-2-7-6-7-1" offset=".705" stop-color="#e23a0e" stop-opacity="1"/><stop id="stop3756-1-6-2-6-6-1-96-6" offset="1" stop-color="#ac441f" stop-opacity="1"/></linearGradient><radialGradient id="radialGradient4173-5" cx="6.73" cy="9.957" r="12.672" fx="6.2" fy="9.957" gradientTransform="matrix(0,20.456265,-25.113759,0,302.02937,-150.84671)" gradientUnits="userSpaceOnUse" xlink:href="#linearGradient2867-449-88-871-390-598-476-591-434-148-57-177-8-3-3-6-4-8-8-8-2-8"/><linearGradient id="linearGradient2867-449-88-871-390-598-476-591-434-148-57-177-8-3-3-6-4-8-8-8-2-8"><stop id="stop3750-1-0-7-6-6-1-3-9-9-0" offset="0" stop-color="#ffcd7d" stop-opacity="1"/><stop id="stop3752-3-7-4-0-32-8-923-0-7-8" offset=".262" stop-color="#fc8f36" stop-opacity="1"/><stop id="stop3754-1-8-5-2-7-6-7-1-8-0" offset=".705" stop-color="#e23a0e" stop-opacity="1"/><stop id="stop3756-1-6-2-6-6-1-96-6-1-1" offset="1" stop-color="#ac441f" stop-opacity="1"/></linearGradient><linearGradient id="linearGradient3076-9" x1="24" x2="24" y1="5.263" y2="41.755" gradientTransform="matrix(1.7837837,0,0,2.1081079,-0.81079964,26.90543)" gradientUnits="userSpaceOnUse" xlink:href="#linearGradient4356-5"/><linearGradient id="linearGradient4356-5"><stop id="stop4358-6" offset="0" stop-color="#fff" stop-opacity="1"/><stop id="stop4360-9" offset=".013" stop-color="#fff" stop-opacity=".235"/><stop id="stop4362-4" offset=".983" stop-color="#fff" stop-opacity=".157"/><stop id="stop4364-6" offset="1" stop-color="#fff" stop-opacity=".392"/></linearGradient><linearGradient id="linearGradient3104-6-6-1"><stop id="stop3106-3-2" offset="0" stop-color="#000" stop-opacity=".318"/><stop id="stop3108-9-8-3" offset="1" stop-color="#000" stop-opacity=".24"/></linearGradient><linearGradient id="linearGradient4420" x1="-51.786" x2="-51.786" y1="50.786" y2="2.906" gradientTransform="matrix(2.6301305,0,0,1.6674276,179.33609,30.019469)" gradientUnits="userSpaceOnUse" xlink:href="#linearGradient3104-6-6-1"/><radialGradient id="radialGradient3029" cx="6.563" cy="9.957" r="12.672" fx="6.033" fy="9.957" gradientTransform="matrix(0,20.070195,-24.639785,0,309.31217,-176.62513)" gradientUnits="userSpaceOnUse" xlink:href="#linearGradient2867-449-88-871-390-598-476-591-434-148-57-177-8-3-3-6-4-8-8-8"/><linearGradient id="linearGradient22140"><stop id="stop22142" offset="0" stop-color="#000" stop-opacity="0"/><stop id="stop22148" offset=".5" stop-color="#000" stop-opacity="1"/><stop id="stop22144" offset="1" stop-color="#000" stop-opacity="0"/></linearGradient><linearGradient id="linearGradient3412"><stop id="stop3414" offset="0" stop-color="#f0f0f1" stop-opacity="1"/><stop id="stop3416" offset="1" stop-color="#cbcdd9" stop-opacity="1"/></linearGradient><radialGradient id="radialGradient4341" cx="6.563" cy="9.957" r="12.672" fx="6.033" fy="9.957" gradientTransform="matrix(0,20.070195,-24.639785,0,309.31217,-176.63209)" gradientUnits="userSpaceOnUse" xlink:href="#linearGradient2867-449-88-871-390-598-476-591-434-148-57-177-8-3-3-6-4-8-8-8"/><radialGradient id="radialGradient4343" cx="6.563" cy="9.957" r="12.672" fx="6.033" fy="9.957" gradientTransform="matrix(0,20.070195,-24.639785,0,309.31217,-176.6342)" gradientUnits="userSpaceOnUse" xlink:href="#linearGradient2867-449-88-871-390-598-476-591-434-148-57-177-8-3-3-6-4-8-8-8"/><radialGradient id="radialGradient3159" cx="7" cy="39.465" r="3.5" fx="7" fy="39.465" gradientTransform="matrix(0,0.89962666,-0.93506352,1.4451651e-8,81.629374,32.204085)" gradientUnits="userSpaceOnUse" xlink:href="#linearGradient3104-6-6-1"/><linearGradient id="linearGradient3161" x1="18.142" x2="18.142" y1="35" y2="42.041" gradientTransform="matrix(1,0,0,0.89962592,0,3.8658766)" gradientUnits="userSpaceOnUse" xlink:href="#linearGradient22140"/><radialGradient id="radialGradient4320" cx="7" cy="39.465" r="3.5" fx="7" fy="39.465" gradientTransform="matrix(0,0.89962666,0.62337568,1.4451651e-8,-21.328656,32.204085)" gradientUnits="userSpaceOnUse" xlink:href="#linearGradient3104-6-6-1"/><linearGradient id="linearGradient3163" x1="30.739" x2="45.903" y1="35.285" y2="50.736" gradientTransform="matrix(0,5.4100631,-5.3070628,0,309.7614,-121.83734)" gradientUnits="userSpaceOnUse" xlink:href="#linearGradient3412"/><linearGradient id="linearGradient3165" x1="75.78" x2="75.78" y1="86" y2="127.036" gradientTransform="matrix(-2,0,0,2.0008421,236.50002,-127.60767)" gradientUnits="userSpaceOnUse" xlink:href="#linearGradient3211-8-8-0-0-9"/></defs><metadata id="metadata4959"/><g id="g3712" opacity=".15" transform="matrix(3.368421,0,0,1.4285713,-16.842106,55.857146)"><rect id="rect2801" width="4.75" height="6.3" x="38.25" y="40.7" fill="url(#radialGradient4172)" fill-opacity="1" stroke="none"/><rect id="rect3696" width="4.75" height="6.3" x="-9.75" y="-47" fill="url(#radialGradient4174)" fill-opacity="1" stroke="none" transform="scale(-1,-1)"/><rect id="rect3700" width="28.5" height="6.3" x="9.75" y="40.7" fill="url(#linearGradient4176)" fill-opacity="1" stroke="none"/></g><path id="rect4964-4-4" fill="url(#linearGradient3939)" fill-opacity="1" fill-rule="nonzero" stroke="url(#linearGradient3941)" stroke-dashoffset="0" stroke-linecap="butt" stroke-linejoin="round" stroke-miterlimit="4" stroke-opacity="1" stroke-width="1" d="m 28.5,24.499926 71,0 0,8.000155 -71,0 z" color="#000" display="inline" enable-background="accumulate" opacity=".5" overflow="visible" visibility="visible" style="marker:none"/><path id="rect4964-1-6-5" fill="none" stroke="url(#linearGradient3936)" stroke-dashoffset="0" stroke-linecap="butt" stroke-linejoin="round" stroke-miterlimit="4" stroke-opacity="1" stroke-width="1" d="m 29.499921,25.5 69.000079,0 0,6.000081 -69.000079,0 z" color="#000" display="inline" enable-background="accumulate" opacity=".3" overflow="visible" visibility="visible" style="marker:none"/><path id="rect4964-4" fill="url(#linearGradient3931)" fill-opacity="1" fill-rule="nonzero" stroke="url(#linearGradient3933)" stroke-dashoffset="0" stroke-linecap="butt" stroke-linejoin="round" stroke-miterlimit="4" stroke-opacity="1" stroke-width="1" d="M 16.499961,30.499925 111.5,30.5 l 0,61.000084 -94.999961,0 z" color="#000" display="inline" enable-background="accumulate" opacity=".75" overflow="visible" visibility="visible" style="marker:none"/><path id="rect4964-1-6" fill="none" stroke="url(#linearGradient3928)" stroke-dashoffset="0" stroke-linecap="butt" stroke-linejoin="round" stroke-miterlimit="4" stroke-opacity="1" stroke-width="1" d="m 17.5,31.5 93,0 0,58.000078 -93,0 z" color="#000" display="inline" enable-background="accumulate" opacity=".45" overflow="visible" visibility="visible" style="marker:none"/><rect id="rect4964" width="103" height="81" x="18" y="37" fill="url(#linearGradient3917)" fill-opacity="1" fill-rule="nonzero" stroke="none" stroke-width="1" color="#000" display="inline" enable-background="accumulate" overflow="visible" visibility="visible" style="marker:none"/><rect id="rect4964-1" width="113" height="80" x="7.5" y="37.5" fill="none" stroke="url(#linearGradient3076-9)" stroke-dasharray="none" stroke-dashoffset="0" stroke-linecap="square" stroke-linejoin="round" stroke-miterlimit="4" stroke-opacity="1" stroke-width="1" color="#000" display="inline" enable-background="accumulate" opacity="1" overflow="visible" visibility="visible" style="marker:none"/><path id="path3035-5" fill="#fff" fill-opacity="1" fill-rule="nonzero" stroke="none" stroke-width=".55" d="M 110,83.999995 A 19.999999,19.999999 0 1 1 99.420234,66.357462 l -9.420236,17.642533 z" color="#000" display="inline" enable-background="accumulate" opacity=".4" overflow="visible" visibility="visible" style="marker:none"/><path id="path3475-4" fill="url(#linearGradient3091)" fill-opacity="1" stroke="none" stroke-width="1" d="m 27.999999,88.999999 0,-2 4.000001,0 0,2 z m 5.000001,0 0,-2 12.999998,0 0,2 z m -5.000001,-8 0,-1.999999 L 34,79 34,80.999999 Z M 35,80.999999 35,79 l 5,0 0,1.999999 z m 6,0 L 41,79 l 3,0 0,1.999999 z m 4,0 L 45,79 l 4,0 0,1.999999 z M 27.999999,73 l 0,-2 L 35,71 35,73 Z M 36,73 l 0,-2 3,0 0,2 z m 4,0 0,-2 8,0 0,2 z m -12.000001,-8 0,-2 L 35,63 35,65 Z M 36,65 l 0,-2 5,0 0,2 z m 6,0 0,-2 7,0 0,2 z" baseline-shift="baseline" color="#000" direction="ltr" display="inline" enable-background="accumulate" font-family="Sans" font-size="medium" font-stretch="normal" font-style="normal" font-variant="normal" font-weight="normal" letter-spacing="normal" overflow="visible" text-anchor="start" text-decoration="none" visibility="visible" word-spacing="normal" writing-mode="lr-tb" style="line-height:normal;-inkscape-font-specification:Sans;text-indent:0;text-align:start;text-decoration-line:none;text-transform:none;block-progression:tb;marker:none"/><path id="path4530" fill="url(#radialGradient4173-5)" fill-opacity="1" fill-rule="nonzero" stroke="none" stroke-width="1" d="m 18,118.5 -11.5,0 c 0,-28 0.026032,-57.676631 0,-82 l 11.5,-3e-6" color="#000" display="inline" enable-background="accumulate" overflow="visible" visibility="visible" style="marker:none"/><path id="rect6741-1-5" fill="none" stroke="url(#linearGradient3076)" stroke-dasharray="none" stroke-dashoffset="0" stroke-linecap="square" stroke-linejoin="round" stroke-miterlimit="4" stroke-opacity="1" stroke-width="1" d="m 17.5,117.5 -10,0 0,-80 10,0" opacity=".5"/><path font-stretch="normal" style="line-height:normal;-inkscape-font-specification:Sans;text-indent:0;text-align:start;text-decoration-line:none;text-transform:none;block-progression:tb;marker:none" id="path3925" fill="#000" fill-opacity="1" stroke="none" stroke-width="1" d="m 73.999999,47 0,2 2.000001,-2e-6 0,-2 z m 3.000001,-2e-6 0,2 5,0 0,-2 z m 6.999998,0 0,2 6,2e-6 0,-2 z m -39.999998,0 0,2 12,0 0,-2 z m 13,0 0,2 6,0 0,-2 z m 6.999999,0 0,2 8.000001,0 0,-2 z" baseline-shift="baseline" color="#000" direction="ltr" display="inline" enable-background="accumulate" font-family="Sans" font-size="medium" font-style="normal" font-variant="normal" font-weight="normal" letter-spacing="normal" opacity=".28" overflow="visible" text-anchor="start" text-decoration="none" visibility="visible" word-spacing="normal" writing-mode="lr-tb"/><path id="path3966" fill="url(#linearGradient3968)" fill-opacity="1" stroke="none" stroke-width="1" d="m 27.999999,105 0,-2 7.000001,0 0,2 z M 36,105 l 0,-2 3,0 0,2 z m 4,0 0,-2 7,0 0,2 z m -12.000001,-8.000001 0,-2 6.000001,0 0,2 z m 7.000001,0 0,-2 5,0 0,2 z m 6,0 0,-2 8,0 0,2 z" baseline-shift="baseline" color="#000" direction="ltr" display="inline" enable-background="accumulate" font-family="Sans" font-size="medium" font-stretch="normal" font-style="normal" font-variant="normal" font-weight="normal" letter-spacing="normal" overflow="visible" text-anchor="start" text-decoration="none" visibility="visible" word-spacing="normal" writing-mode="lr-tb" style="line-height:normal;-inkscape-font-specification:Sans;text-indent:0;text-align:start;text-decoration-line:none;text-transform:none;block-progression:tb;marker:none"/><path id="path4178" fill="url(#linearGradient4180)" fill-opacity="1" stroke="none" stroke-width="1" d="m 50,89.000001 0,-2 5,0 0,2 z m 0,-8 0,-2 6,0 0,2 z m -1,-7.999999 0,-2 5,0 0,2 z m 2,-8 0,-2 5,0 0,2 z" baseline-shift="baseline" color="#000" direction="ltr" display="inline" enable-background="accumulate" font-family="Sans" font-size="medium" font-stretch="normal" font-style="normal" font-variant="normal" font-weight="normal" letter-spacing="normal" overflow="visible" text-anchor="start" text-decoration="none" visibility="visible" word-spacing="normal" writing-mode="lr-tb" style="line-height:normal;-inkscape-font-specification:Sans;text-indent:0;text-align:start;text-decoration-line:none;text-transform:none;block-progression:tb;marker:none"/><path id="path4183" fill="url(#linearGradient4185)" fill-opacity="1" stroke="none" stroke-width="1" d="m 50,95.000001 0,2 7,0 0,-2 z m 8,0 0,2 3,0 0,-2 z M 49,103 l 0,2 7,0 0,-2 z m 8,0 0,2 5,0 0,-2 z m 6,0 0,2 7,0 0,-2 z" baseline-shift="baseline" color="#000" direction="ltr" display="inline" enable-background="accumulate" font-family="Sans" font-size="medium" font-stretch="normal" font-style="normal" font-variant="normal" font-weight="normal" letter-spacing="normal" overflow="visible" text-anchor="start" text-decoration="none" visibility="visible" word-spacing="normal" writing-mode="lr-tb" style="line-height:normal;-inkscape-font-specification:Sans;text-indent:0;text-align:start;text-decoration-line:none;text-transform:none;block-progression:tb;marker:none"/><path id="path4530-3" fill="none" stroke="#640000" stroke-dasharray="none" stroke-dashoffset="0" stroke-linecap="butt" stroke-linejoin="round" stroke-miterlimit="4" stroke-opacity="1" stroke-width="1" d="m 18,118.5 -11.5,0 c 0,-28.5 0.025903,-57.678098 0,-82 l 11.5,-3e-6" color="#000" display="inline" enable-background="accumulate" opacity=".4" overflow="visible" visibility="visible" style="marker:none"/><path id="path4160-6-1" fill="none" stroke="url(#linearGradient4420)" stroke-dasharray="none" stroke-dashoffset="0" stroke-linecap="butt" stroke-linejoin="round" stroke-miterlimit="4" stroke-opacity="1" stroke-width="1" d="m 18,118.5 103.5,0 0,-81.999997 -103.5,0" display="inline"/><g id="g4387" transform="translate(0,8.9980004)"><path clip-rule="nonzero" style="isolation:auto;mix-blend-mode:normal;solid-color:#000;solid-opacity:1;marker:none" id="path3035" fill="url(#radialGradient4341)" fill-opacity="1" fill-rule="nonzero" stroke="none" stroke-dasharray="none" stroke-dashoffset="0" stroke-linecap="butt" stroke-linejoin="miter" stroke-miterlimit="4" stroke-opacity="1" stroke-width="1" d="M 110,73.999995 A 19.999999,19.999999 0 1 1 99.420234,56.357462 l -9.420236,17.642533 z" color="#000" color-interpolation="sRGB" color-interpolation-filters="linearRGB" color-rendering="auto" display="inline" enable-background="accumulate" image-rendering="auto" opacity=".4" overflow="visible" shape-rendering="auto" text-rendering="auto" visibility="visible"/><path id="path3964" fill="url(#radialGradient4343)" fill-opacity="1" fill-rule="nonzero" stroke="none" stroke-dasharray="none" stroke-dashoffset="0" stroke-linecap="butt" stroke-linejoin="miter" stroke-miterlimit="4" stroke-opacity="1" stroke-width="1" d="M 110,73.997889 C 110,83 104,90.874324 95.33681,93.27249 86.68495,95.66752 77.5,92.035573 72.850413,84.282045 72.815033,84.314125 89.999998,73.997889 89.999998,73.997889 Z" clip-rule="nonzero" color="#000" color-interpolation="sRGB" color-interpolation-filters="linearRGB" color-rendering="auto" display="inline" enable-background="accumulate" image-rendering="auto" opacity=".4" overflow="visible" shape-rendering="auto" text-rendering="auto" visibility="visible" style="isolation:auto;mix-blend-mode:normal;solid-color:#000;solid-opacity:1;marker:none"/><path id="path3962" fill="url(#radialGradient3029)" fill-opacity="1" fill-rule="nonzero" stroke="none" stroke-dasharray="none" stroke-dashoffset="0" stroke-linecap="butt" stroke-linejoin="miter" stroke-miterlimit="4" stroke-opacity="1" stroke-width="1" d="m 110,74.006966 c 0,8.671378 -5.804,16.822178 -14.66319,19.274601 -0.19524,-0.0339 -5.336812,-19.274601 -5.336812,-19.274601 z" clip-rule="nonzero" color="#000" color-interpolation="sRGB" color-interpolation-filters="linearRGB" color-rendering="auto" display="inline" enable-background="accumulate" image-rendering="auto" opacity=".8" overflow="visible" shape-rendering="auto" text-rendering="auto" visibility="visible" style="isolation:auto;mix-blend-mode:normal;solid-color:#000;solid-opacity:1;marker:none"/></g><g id="g4345" transform="translate(4.0000019,-3.1647301e-7)"><g id="g22150" opacity=".3" transform="matrix(-1.833334,0,0,1.4291655,126.00003,68.47502)"><path id="rect22134" fill="url(#radialGradient3159)" fill-opacity="1" stroke="none" d="m 45.001248,41.650166 -0.273974,0 c 0,-2.833822 0,-5.037905 0,-6.297381 l 0.273974,0 c 1.661308,0 2.998752,1.404316 2.998752,3.14869 0,1.744375 -1.337444,3.148691 -2.998752,3.148691 z" opacity=".6"/><rect id="rect22138" width="41.455" height="6.297" x="3.273" y="35.353" fill="url(#linearGradient3161)" fill-opacity="1" stroke="none" opacity=".6"/><path id="path4318" fill="url(#radialGradient4320)" fill-opacity="1" stroke="none" d="m 3.0900944,41.650166 0.1826491,0 c 0,-2.833822 0,-5.037905 0,-6.297381 l -0.1826491,0 c -1.1075393,0 -1.9991683,1.404316 -1.9991683,3.14869 0,1.744375 0.891629,3.148691 1.9991683,3.148691 z" opacity=".6"/></g><path id="path2993" fill="url(#linearGradient3163)" fill-opacity="1" fill-rule="evenodd" stroke="#83899a" stroke-dasharray="none" stroke-dashoffset="0" stroke-linecap="butt" stroke-linejoin="miter" stroke-miterlimit="4" stroke-opacity="1" stroke-width="1" d="M 121.50004,45.207214 41.212776,125.5 121.50004,125.499 Z m -16,37.002288 0,27.290538 -27.295082,-8e-5 z" display="inline" enable-background="accumulate" opacity=".8" overflow="visible" visibility="visible" style="marker:none"/><path id="path3103" fill="none" stroke="#fff" stroke-linecap="round" stroke-linejoin="miter" stroke-opacity="1" stroke-width="1" d="m 98.500032,124.49288 0,-2.98929" opacity=".3"/><path id="path3091" fill="none" stroke="#83899a" stroke-linecap="round" stroke-linejoin="miter" stroke-opacity="1" stroke-width="1" d="m 109.50003,125.49882 0,-4.00168 m -11.999998,4.00168 0,-4.00168 m -12,4.00168 0,-3.95406 m -12,3.95406 0,-4.00168 m -12,4.00168 0,-4.00168" opacity=".75"/><path id="path3934" fill="none" stroke="url(#linearGradient3165)" stroke-dasharray="none" stroke-dashoffset="0" stroke-linecap="butt" stroke-linejoin="miter" stroke-miterlimit="4" stroke-opacity="1" stroke-width="1" d="m 120.5,47.615627 0,76.884373 -76.873279,0 z M 106.5,79.790078 75.779061,110.5 106.5,110.5 Z" display="inline" enable-background="accumulate" opacity=".5" overflow="visible" visibility="visible" style="marker:none"/><path id="path4292" fill="none" stroke="#fff" stroke-linecap="round" stroke-linejoin="miter" stroke-opacity="1" stroke-width="1" d="m 110.50005,124.49288 0,-2.98929" opacity=".3"/><path id="path4294" fill="none" stroke="#fff" stroke-linecap="round" stroke-linejoin="miter" stroke-opacity="1" stroke-width="1" d="m 86.50005,124.49288 0,-2.98929" opacity=".3"/><path id="path4296" fill="none" stroke="#fff" stroke-linecap="round" stroke-linejoin="miter" stroke-opacity="1" stroke-width="1" d="m 74.50005,124.49288 0,-2.98929" opacity=".3"/><path id="path4298" fill="none" stroke="#fff" stroke-linecap="round" stroke-linejoin="miter" stroke-opacity="1" stroke-width="1" d="m 62.50005,124.49288 0,-2.98929" opacity=".3"/><path id="path4300" fill="none" stroke="#fff" stroke-linecap="round" stroke-linejoin="miter" stroke-opacity="1" stroke-width="1" d="m 120.50286,78.499968 -2.98929,0" opacity=".3"/><path id="path4302" fill="none" stroke="#83899a" stroke-linecap="round" stroke-linejoin="miter" stroke-opacity="1" stroke-width="1" d="m 121.5088,65.49995 -4.00168,0 m 4.00168,12 -4.00168,0 m 4.00168,12 -3.95406,0 m 3.95406,12 -4.00168,0 m 4.00168,12 -4.00168,0" opacity=".75"/><path id="path4304" fill="none" stroke="#fff" stroke-linecap="round" stroke-linejoin="miter" stroke-opacity="1" stroke-width="1" d="m 120.50286,66.49995 -2.98929,0" opacity=".3"/><path id="path4306" fill="none" stroke="#fff" stroke-linecap="round" stroke-linejoin="miter" stroke-opacity="1" stroke-width="1" d="m 120.50286,90.49995 -2.98929,0" opacity=".3"/><path id="path4308" fill="none" stroke="#fff" stroke-linecap="round" stroke-linejoin="miter" stroke-opacity="1" stroke-width="1" d="m 120.50286,102.49995 -2.98929,0" opacity=".3"/><path id="path4310" fill="none" stroke="#fff" stroke-linecap="round" stroke-linejoin="miter" stroke-opacity="1" stroke-width="1" d="m 120.50286,114.49995 -2.98929,0" opacity=".3"/></g></svg>