<svg xmlns="http://www.w3.org/2000/svg" xmlns:svg="http://www.w3.org/2000/svg" xmlns:xlink="http://www.w3.org/1999/xlink" id="svg11851" width="24" height="24" version="1.1"><defs id="defs11853"><linearGradient id="linearGradient3078-9" x1="32.892" x2="36.358" y1="8.059" y2="5.457" gradientTransform="matrix(0.52284561,0,0,0.53250221,-1.47603,-7.0372168)" gradientUnits="userSpaceOnUse" xlink:href="#linearGradient8589-7"/><linearGradient id="linearGradient8589-7"><stop id="stop8591-9" offset="0" stop-color="#fefefe" stop-opacity="1"/><stop id="stop8593-3" offset="1" stop-color="#cbcbcb" stop-opacity="1"/></linearGradient><radialGradient id="radialGradient5802" cx="102" cy="112.305" r="139.559" gradientTransform="matrix(0.2232216,0,0,-0.24411513,-4.7126,23.077094)" gradientUnits="userSpaceOnUse" xlink:href="#XMLID_8_-5"/><radialGradient id="XMLID_8_-5" cx="102" cy="112.305" r="139.559" gradientUnits="userSpaceOnUse"><stop id="stop41-6" offset="0" stop-color="#b7b8b9" stop-opacity="1"/><stop id="stop47-1" offset=".189" stop-color="#ececec" stop-opacity="1"/><stop id="stop49-8" offset=".257" stop-color="#fafafa" stop-opacity="0"/><stop id="stop51-5" offset=".301" stop-color="#fff" stop-opacity="0"/><stop id="stop53-9" offset=".531" stop-color="#fafafa" stop-opacity="0"/><stop id="stop55-7" offset=".845" stop-color="#ebecec" stop-opacity="0"/><stop id="stop57-3" offset="1" stop-color="#e1e2e3" stop-opacity="0"/></radialGradient><linearGradient id="linearGradient5756" x1="-51.786" x2="-51.786" y1="50.786" y2="2.906" gradientTransform="matrix(0.39221346,0,0,0.42702611,29.19929,-8.1596958)" gradientUnits="userSpaceOnUse" xlink:href="#linearGradient3104-9-0"/><linearGradient id="linearGradient3104-9-0"><stop id="stop3106-5-0" offset="0" stop-color="#000" stop-opacity=".34"/><stop id="stop3108-5-6" offset="1" stop-color="#000" stop-opacity=".247"/></linearGradient><linearGradient id="linearGradient4957" x1="24" x2="24" y1="5.564" y2="43" gradientTransform="matrix(0.40540511,0,0,0.51351351,2.26969,-8.3243258)" gradientUnits="userSpaceOnUse" xlink:href="#linearGradient3977-7"/><linearGradient id="linearGradient3977-7"><stop id="stop3979-7" offset="0" stop-color="#fff" stop-opacity="1"/><stop id="stop3981-0" offset=".036" stop-color="#fff" stop-opacity=".235"/><stop id="stop3983-0" offset=".951" stop-color="#fff" stop-opacity=".157"/><stop id="stop3985-3" offset="1" stop-color="#fff" stop-opacity=".392"/></linearGradient><linearGradient id="linearGradient4960" x1="25.132" x2="25.132" y1=".985" y2="47.013" gradientTransform="matrix(0.45714178,0,0,0.43456721,1.0286,-7.0959668)" gradientUnits="userSpaceOnUse" xlink:href="#linearGradient3600-4"/><linearGradient id="linearGradient3600-4"><stop id="stop3602-7" offset="0" stop-color="#f4f4f4" stop-opacity="1"/><stop id="stop3604-6" offset="1" stop-color="#dbdbdb" stop-opacity="1"/></linearGradient><radialGradient id="radialGradient4965" cx="605.714" cy="486.648" r="117.143" fx="605.714" fy="486.648" gradientTransform="matrix(0.01204859,0,0,0.0082353,13.23879,10.980554)" gradientUnits="userSpaceOnUse" xlink:href="#linearGradient5060-2"/><linearGradient id="linearGradient5060-2"><stop id="stop5062-2" offset="0" stop-color="#000" stop-opacity="1"/><stop id="stop5064-2" offset="1" stop-color="#000" stop-opacity="0"/></linearGradient><radialGradient id="radialGradient4968" cx="605.714" cy="486.648" r="117.143" fx="605.714" fy="486.648" gradientTransform="matrix(-0.01204859,0,0,0.0082353,10.76121,10.980554)" gradientUnits="userSpaceOnUse" xlink:href="#linearGradient5060-2"/><linearGradient id="linearGradient5048-2"><stop id="stop5050-3" offset="0" stop-color="#000" stop-opacity="0"/><stop id="stop5056-5" offset=".5" stop-color="#000" stop-opacity="1"/><stop id="stop5052-02" offset="1" stop-color="#000" stop-opacity="0"/></linearGradient><linearGradient id="linearGradient11849" x1="302.857" x2="302.857" y1="366.648" y2="609.505" gradientTransform="matrix(0.0352071,0,0,0.0082353,-0.72485,10.980544)" gradientUnits="userSpaceOnUse" xlink:href="#linearGradient5048-2"/></defs><metadata id="metadata11856"/><g id="layer1" transform="translate(0,8)"><rect id="rect2879" width="17" height="2" x="3.5" y="14" fill="url(#linearGradient11849)" fill-opacity="1" fill-rule="nonzero" stroke="none" stroke-width="1" display="inline" opacity=".15" overflow="visible" visibility="visible" style="marker:none"/><path id="path2881" fill="url(#radialGradient4968)" fill-opacity="1" fill-rule="nonzero" stroke="none" stroke-width="1" d="m 3.5,14.000084 c 0,0 0,1.99989 0,1.99989 -0.62047,0.004 -1.5,-0.44808 -1.5,-1.00008 0,-0.552 0.6924,-0.99981 1.5,-0.99981 z" display="inline" opacity=".15" overflow="visible" visibility="visible" style="marker:none"/><path id="path2883" fill="url(#radialGradient4965)" fill-opacity="1" fill-rule="nonzero" stroke="none" stroke-width="1" d="m 20.5,14.000084 c 0,0 0,1.99989 0,1.99989 0.620469,0.004 1.5,-0.44808 1.5,-1.00008 0,-0.552 -0.692401,-0.99981 -1.5,-0.99981 z" display="inline" opacity=".15" overflow="visible" visibility="visible" style="marker:none"/><path id="path4160-3" fill="url(#linearGradient4960)" fill-opacity="1" stroke="none" d="m 4,-5.9996858 9.68124,9e-4 L 19.99998,-6.3412848e-6 20,13.999994 c 0,0 -10.66667,0 -16,0 C 4,7.3333337 4,0.66666366 4,-6.0000058 z" display="inline"/><path id="rect6741-1-2" fill="none" stroke="url(#linearGradient4957)" stroke-dasharray="none" stroke-dashoffset="0" stroke-linecap="round" stroke-linejoin="miter" stroke-miterlimit="4" stroke-opacity="1" stroke-width="1" d="m 19.5,13.499994 -15,0 0,-18.9999998 9.21692,0 5.78308,4.0318495 z"/><path id="path4160-8-5" fill="none" stroke="url(#linearGradient5756)" stroke-dasharray="none" stroke-dashoffset="0" stroke-linecap="butt" stroke-linejoin="round" stroke-miterlimit="4" stroke-opacity="1" stroke-width="1" d="m 3.49996,-6.5000668 10.21289,7.2e-4 c 0.94916,0 6.787169,4.8863605 6.787169,6.4993404587152 L 20.500039,14.500014 c 0,0 -11.333389,0 -17.000079,0 0,-7.0000203 0,-21.0000808 0,-21.0000808 z" display="inline"/><path id="path4191-3" fill="url(#radialGradient5802)" fill-opacity="1" d="M 13.65374,-5.9557958 19.999589,-6.3412848e-6 C 19.999589,19.377524 -0.94958,-5.9557958 13.65374,-5.9557958 z"/><path id="path4474-4-2-3" fill="#000" fill-opacity="1" fill-rule="evenodd" stroke="none" d="m 10.88565,-5.9552558 c 1.50333,0 1.11435,7.9552495 1.11435,7.9552495 0,0 7.999999,-2.12822004 7.999999,0 0,-0.51855 0.0967,-1.83820004 -0.007,-2.0000000412848 C 19.248379,-1.1625163 15.02876,-5.4958758 13.86734,-5.8377658 c -1.63639,-0.172321 -2.9818,-0.11749 -2.9818,-0.11749 z" display="inline" opacity=".05"/><path id="path4474-4-8" fill="#000" fill-opacity="1" fill-rule="evenodd" stroke="none" d="m 11.59209,-5.9988558 c 1.57259,0 1.40791,6.99884946 1.40791,6.99884946 0,0 7.054909,-1.22629 7.054909,1.00000004 0,-0.54244 0.0424,-1.43089004 -0.066,-1.60015004 -0.77894,-1.21608 -5.132899,-5.99889946 -6.347849,-6.35652946 -0.97721,-0.0817 -2.04894,-0.0421 -2.04894,-0.0421 z" display="inline" opacity=".12"/><path id="path4474-6" fill="url(#linearGradient3078-9)" fill-opacity="1" fill-rule="evenodd" stroke="none" d="m 12.50008,-6.0000058 c 1.66987,0 1.495,5.9999994587152 1.495,5.9999994587152 0,0 5.996319,-0.3645499987152 5.996319,2.0000000412848 0,-0.57613 0.045,-2.14327004 -0.0702,-2.32304004 C 19.02271,-2.0427963 14.91323,-5.6201658 13.62312,-6.0000058 c -0.26579,-0.008 -0.85763,0.0149 -1.12312,8e-5 z" display="inline"/></g></svg>