<svg xmlns="http://www.w3.org/2000/svg" xmlns:svg="http://www.w3.org/2000/svg" xmlns:xlink="http://www.w3.org/1999/xlink" id="svg4006" width="24" height="24" version="1.1"><defs id="defs4008"><linearGradient id="linearGradient3054" x1="40.458" x2="40.458" y1="31.812" y2="19.03" gradientTransform="matrix(-1.33,0,0,-1.33,62.809687,54.310312)" gradientUnits="userSpaceOnUse" xlink:href="#linearGradient3428"/><linearGradient id="linearGradient3428"><stop id="stop3430" offset="0" stop-color="#fff" stop-opacity="1"/><stop id="stop3432" offset="1" stop-color="#fff" stop-opacity="0"/></linearGradient><linearGradient id="linearGradient3057" x1="42.784" x2="38.972" y1="32.537" y2="18.124" gradientTransform="matrix(-1.3333334,0,0,-1.3333334,63.167156,54.166667)" gradientUnits="userSpaceOnUse" xlink:href="#linearGradient3412"/><linearGradient id="linearGradient3412"><stop id="stop3414" offset="0" stop-color="#fcfcfc" stop-opacity="1"/><stop id="stop3416" offset="1" stop-color="#cbcdd9" stop-opacity="1"/></linearGradient><radialGradient id="radialGradient3060" cx="605.714" cy="486.648" r="117.143" fx="605.714" fy="486.648" gradientTransform="matrix(-0.02303995,0,0,0.01470022,20.639608,20.963253)" gradientUnits="userSpaceOnUse" xlink:href="#linearGradient5060-8"/><linearGradient id="linearGradient5060-8"><stop id="stop5062-8" offset="0" stop-color="#000" stop-opacity="1"/><stop id="stop5064-6" offset="1" stop-color="#000" stop-opacity="0"/></linearGradient><linearGradient id="linearGradient12979" x1="302.857" x2="302.857" y1="366.648" y2="609.505" gradientTransform="matrix(0.0352071,0,0,0.0082353,-0.72481893,10.98054)" gradientUnits="userSpaceOnUse" xlink:href="#linearGradient5048-2-2"/><linearGradient id="linearGradient5048-2-2"><stop id="stop5050-3-3" offset="0" stop-color="#000" stop-opacity="0"/><stop id="stop5056-5-7" offset=".5" stop-color="#000" stop-opacity="1"/><stop id="stop5052-02-4" offset="1" stop-color="#000" stop-opacity="0"/></linearGradient><radialGradient id="radialGradient4968-3" cx="605.714" cy="486.648" r="117.143" fx="605.714" fy="486.648" gradientTransform="matrix(-0.01204859,0,0,0.0082353,10.761241,10.98055)" gradientUnits="userSpaceOnUse" xlink:href="#linearGradient5060-2-47"/><linearGradient id="linearGradient5060-2-47"><stop id="stop5062-2-8" offset="0" stop-color="#000" stop-opacity="1"/><stop id="stop5064-2-5" offset="1" stop-color="#000" stop-opacity="0"/></linearGradient><radialGradient id="radialGradient4004" cx="605.714" cy="486.648" r="117.143" fx="605.714" fy="486.648" gradientTransform="matrix(0.01204859,0,0,0.0082353,13.23882,10.98055)" gradientUnits="userSpaceOnUse" xlink:href="#linearGradient5060-2-47"/></defs><metadata id="metadata4011"/><g id="layer1" transform="matrix(-1,0,0,1,23.999596,-8)"><g id="g3022" transform="translate(-3.06e-5,15)"><rect id="rect2879-7" width="17" height="2" x="3.5" y="14" fill="url(#linearGradient12979)" fill-opacity="1" fill-rule="nonzero" stroke="none" stroke-width="1" display="inline" opacity=".15" overflow="visible" visibility="visible" style="marker:none"/><path id="path2881-0" fill="url(#radialGradient4968-3)" fill-opacity="1" fill-rule="nonzero" stroke="none" stroke-width="1" d="m 3.5000311,14.00008 c 0,0 0,1.99989 0,1.99989 -0.62047,0.004 -1.5,-0.44808 -1.5,-1.00008 0,-0.552 0.6924,-0.99981 1.5,-0.99981 z" display="inline" opacity=".15" overflow="visible" visibility="visible" style="marker:none"/><path id="path2883-3" fill="url(#radialGradient4004)" fill-opacity="1" fill-rule="nonzero" stroke="none" stroke-width="1" d="m 20.50003,14.00008 c 0,0 0,1.99989 0,1.99989 0.62047,0.004 1.5,-0.44808 1.5,-1.00008 0,-0.552 -0.6924,-0.99981 -1.5,-0.99981 z" display="inline" opacity=".15" overflow="visible" visibility="visible" style="marker:none"/></g><path id="path2883-1" fill="url(#radialGradient3060)" fill-opacity="1" fill-rule="nonzero" stroke="none" stroke-width="1" d="m 6.754342,26.353179 c 0,0 0,3.569856 0,3.569856 -1.1865,0.0067 -2.86838,-0.799823 -2.86838,-1.785158 0,-0.985333 1.324045,-1.784697 2.86838,-1.784698 z" display="inline" opacity=".3" overflow="visible" visibility="visible" style="marker:none"/><path id="path3410" fill="url(#linearGradient3057)" fill-opacity="1" fill-rule="evenodd" stroke="none" d="M 22.500489,29.5 2.500488,9.499999 l 0,20.000001 20.000001,0 z m -9.333333,-4.000001 -6.666667,0 0,-6.666666 6.666667,6.666666 z" opacity=".8"/><path id="path3424" fill="none" stroke="url(#linearGradient3054)" stroke-dasharray="none" stroke-linecap="butt" stroke-linejoin="miter" stroke-miterlimit="4" stroke-opacity="1" stroke-width="1" d="M 20,28.5 3.5,12 l 0,16.5 z" opacity=".8"/><path id="path3082" fill="none" stroke="#83899a" stroke-linecap="square" stroke-linejoin="miter" stroke-opacity="1" stroke-width="1" d="m 11.50049,28.5 0,1" opacity=".3"/><path id="path3854" fill="none" stroke="#83899a" stroke-linecap="square" stroke-linejoin="miter" stroke-opacity="1" stroke-width="1" d="m 8.50049,28.5 0,1" opacity=".3"/><path id="path3856" fill="none" stroke="#83899a" stroke-linecap="square" stroke-linejoin="miter" stroke-opacity="1" stroke-width="1" d="m 5.50049,28.5 0,1" opacity=".3"/><path id="path3858" fill="none" stroke="#83899a" stroke-linecap="square" stroke-linejoin="miter" stroke-opacity="1" stroke-width="1" d="m 2.5,20.5 1.00049,0" opacity=".3"/><path id="path3860" fill="none" stroke="#83899a" stroke-linecap="square" stroke-linejoin="miter" stroke-opacity="1" stroke-width="1" d="m 2.5,26.423077 1.00049,0" opacity=".3"/><path id="path3862" fill="none" stroke="#83899a" stroke-linecap="square" stroke-linejoin="miter" stroke-opacity="1" stroke-width="1" d="m 2.5,17.5 1.00049,0" opacity=".3"/><path id="path3858-1" fill="none" stroke="#83899a" stroke-linecap="square" stroke-linejoin="miter" stroke-opacity="1" stroke-width="1" d="m 2.5,23.423077 1.00049,0" opacity=".3"/><path id="path3858-8" fill="none" stroke="#83899a" stroke-linecap="square" stroke-linejoin="miter" stroke-opacity="1" stroke-width="1" d="m 2.5,14.5 1.00049,0" opacity=".3"/><path id="path3410-4" fill="none" stroke="#000" stroke-dasharray="none" stroke-linecap="butt" stroke-linejoin="miter" stroke-miterlimit="4" stroke-opacity="1" stroke-width="1" d="M 22.500489,29.5 2.500488,9.499999 l 0,20.000001 20.000001,0 z m -9.333333,-4.000001 -6.666667,0 0,-6.666666 6.666667,6.666666 z" opacity=".3"/><path id="path3082-2" fill="none" stroke="#83899a" stroke-linecap="square" stroke-linejoin="miter" stroke-opacity="1" stroke-width="1" d="m 17.50049,28.5 0,1" opacity=".3"/><path id="path3854-2" fill="none" stroke="#83899a" stroke-linecap="square" stroke-linejoin="miter" stroke-opacity="1" stroke-width="1" d="m 14.50049,28.5 0,1" opacity=".3"/><path id="path3424-1" fill="none" stroke="#fff" stroke-dasharray="none" stroke-linecap="butt" stroke-linejoin="miter" stroke-miterlimit="4" stroke-opacity="1" stroke-width="1" d="m 14.5,26.5 -8.5285714,0 z" opacity=".3"/></g></svg>