<svg xmlns="http://www.w3.org/2000/svg" xmlns:svg="http://www.w3.org/2000/svg" xmlns:xlink="http://www.w3.org/1999/xlink" id="svg12981" width="24" height="24" version="1.1"><defs id="defs12983"><radialGradient id="radialGradient4965-9" cx="605.714" cy="486.648" r="117.143" fx="605.714" fy="486.648" gradientTransform="matrix(0.01204859,0,0,0.0082353,13.23882,18.98055)" gradientUnits="userSpaceOnUse" xlink:href="#linearGradient5060-2-47"/><linearGradient id="linearGradient5060-2-47"><stop id="stop5062-2-8" offset="0" stop-color="#000" stop-opacity="1"/><stop id="stop5064-2-5" offset="1" stop-color="#000" stop-opacity="0"/></linearGradient><radialGradient id="radialGradient4968-3" cx="605.714" cy="486.648" r="117.143" fx="605.714" fy="486.648" gradientTransform="matrix(-0.01204859,0,0,0.0082353,10.761241,18.98055)" gradientUnits="userSpaceOnUse" xlink:href="#linearGradient5060-2-47"/><linearGradient id="linearGradient5048-2-2"><stop id="stop5050-3-3" offset="0" stop-color="#000" stop-opacity="0"/><stop id="stop5056-5-7" offset=".5" stop-color="#000" stop-opacity="1"/><stop id="stop5052-02-4" offset="1" stop-color="#000" stop-opacity="0"/></linearGradient><linearGradient id="linearGradient12979" x1="302.857" x2="302.857" y1="366.648" y2="609.505" gradientTransform="matrix(0.0352071,0,0,0.0082353,-0.72481893,18.98054)" gradientUnits="userSpaceOnUse" xlink:href="#linearGradient5048-2-2"/><linearGradient id="linearGradient895"><stop id="stop891" offset="0" stop-color="#8cd5ff" stop-opacity="1"/><stop id="stop893" offset="1" stop-color="#3689e6" stop-opacity="1"/></linearGradient><linearGradient id="linearGradient878"><stop id="stop870" offset="0" stop-color="#fff" stop-opacity="1"/><stop id="stop872" offset="0" stop-color="#fff" stop-opacity=".235"/><stop id="stop874" offset="1" stop-color="#fff" stop-opacity=".157"/><stop id="stop876" offset="1" stop-color="#fff" stop-opacity=".392"/></linearGradient><linearGradient id="linearGradient7191-5-3" x1="24" x2="24" y1="6.528" y2="41.472" gradientTransform="matrix(0.45945947,0,0,0.48648663,0.972971,0.8243998)" gradientUnits="userSpaceOnUse" xlink:href="#linearGradient878"/><linearGradient id="linearGradient889" x1="12" x2="12" y1="5.369" y2="40.669" gradientTransform="translate(1.1e-5,-6.9999999)" gradientUnits="userSpaceOnUse" xlink:href="#linearGradient895"/></defs><metadata id="metadata12986"/><rect id="rect2879-7" width="17" height="2" x="3.5" y="22" fill="url(#linearGradient12979)" fill-opacity="1" fill-rule="nonzero" stroke="none" stroke-width="1" display="inline" opacity=".15" overflow="visible" visibility="visible" style="marker:none"/><path d="m 3.5000311,22.00008 c 0,0 0,1.99989 0,1.99989 -0.62047,0.004 -1.5,-0.44808 -1.5,-1.00008 0,-0.552 0.6924,-0.99981 1.5,-0.99981 z" style="marker:none" id="path2881-0" fill="url(#radialGradient4968-3)" fill-opacity="1" fill-rule="nonzero" stroke="none" stroke-width="1" display="inline" opacity=".15" overflow="visible" visibility="visible"/><path d="m 20.50003,22.00008 c 0,0 0,1.99989 0,1.99989 0.62047,0.004 1.5,-0.44808 1.5,-1.00008 0,-0.552 -0.6924,-0.99981 -1.5,-0.99981 z" style="marker:none" id="path2883-3" fill="url(#radialGradient4965-9)" fill-opacity="1" fill-rule="nonzero" stroke="none" stroke-width="1" display="inline" opacity=".15" overflow="visible" visibility="visible"/><rect id="rect3457-8-2" width="13" height="20" x="5.5" y="2.5" fill="url(#linearGradient889)" fill-opacity="1" stroke="none" stroke-dasharray="none" stroke-dashoffset="0" stroke-linecap="butt" stroke-linejoin="miter" stroke-miterlimit="4" stroke-opacity=".831" stroke-width="1" display="inline" opacity="1" rx="0" ry="0"/><path display="inline" style="line-height:normal;text-indent:0;text-align:start;text-decoration-line:none;text-decoration-style:solid;text-decoration-color:#000;text-transform:none;white-space:normal;isolation:auto;mix-blend-mode:normal;solid-color:#000;solid-opacity:1;marker:none" id="rect5505-21-2-7" fill="#000" fill-opacity="1" fill-rule="nonzero" stroke="none" stroke-dasharray="none" stroke-dashoffset="0" stroke-linecap="round" stroke-linejoin="round" stroke-miterlimit="4" stroke-opacity="1" stroke-width="1" d="m 2.5,1.9999998 c -0.276131,2.76e-5 -0.499972,0.2238691 -0.5,0.5 V 22.5 c 2.8e-5,0.276131 0.223869,0.499972 0.5,0.5 H 5 19 21.5 c 0.276131,-2.8e-5 0.499972,-0.223869 0.5,-0.5 V 2.4999998 c -2.8e-5,-0.2761309 -0.223869,-0.4999724 -0.5,-0.5 H 19 5 Z m 0.5,1 H 5 V 4.0000001 H 3 Z m 3,0 H 18 V 22 H 6 Z m 13,0 h 2 V 4.0000001 H 19 Z M 3,6.0000001 h 2 v 1 H 3 Z m 16,0 h 2 v 1 h -2 z m -16,3 H 5 V 10 H 3 Z m 16,0 h 2 V 10 H 19 Z M 3,12 h 2 v 1 H 3 Z m 16,0 h 2 v 1 H 19 Z M 3,15 h 2 v 1 H 3 Z m 16,0 h 2 v 1 H 19 Z M 3,18 h 2 v 1 H 3 Z m 16,0 h 2 v 1 H 19 Z M 3,21 h 2 v 1 H 3 Z m 16,0 h 2 v 1 h -2 z" baseline-shift="baseline" clip-rule="nonzero" color="#000" color-interpolation="sRGB" color-interpolation-filters="linearRGB" color-rendering="auto" direction="ltr" enable-background="accumulate" font-family="sans-serif" font-size="medium" font-stretch="normal" font-style="normal" font-variant="normal" font-weight="normal" image-rendering="auto" letter-spacing="normal" opacity=".7" overflow="visible" shape-rendering="auto" text-anchor="start" text-decoration="none" text-rendering="auto" visibility="visible" word-spacing="normal" writing-mode="lr-tb"/><path stroke-opacity="1" style="marker:none" id="path4320-2-0" fill="none" stroke="#000" stroke-dasharray="none" stroke-dashoffset="0" stroke-linecap="square" stroke-linejoin="round" stroke-miterlimit="4" stroke-width="1" d="m 6.500032,12.499969 c 3.666499,0 7.333018,0 10.999518,0" display="block" opacity=".7" overflow="visible" visibility="visible"/><path stroke-opacity="1" style="marker:none" id="path4820-2-9" fill="none" stroke="#fff" stroke-dasharray="none" stroke-dashoffset="0" stroke-linecap="square" stroke-linejoin="round" stroke-miterlimit="4" stroke-width="1" d="m 6.500032,13.5 c 3.666509,0 7.333018,0 10.999518,0" display="block" opacity=".3" overflow="visible" visibility="visible"/><rect id="rect6741-0-3-5-3" width="17" height="18" x="3.5" y="3.5" fill="none" stroke="url(#linearGradient7191-5-3)" stroke-dasharray="none" stroke-dashoffset="0" stroke-linecap="round" stroke-linejoin="miter" stroke-miterlimit="4" stroke-opacity="1" stroke-width="1" opacity=".3"/><path id="rect3953-50-6-7-6" fill="#e6e6e6" fill-opacity="1" fill-rule="nonzero" stroke="none" stroke-width="1" d="m 19,21 h 2 v 1 h -2 z m 0,-3 h 2 v 1 h -2 z m 0,-3 h 2 v 1 H 19 Z M 3,21 h 2 v 1 H 3 Z m 0,-3 h 2 v 1 H 3 Z m 0,-3 h 2 v 1 H 3 Z m 0,-3 h 2 v 1 H 3 Z M 3,9.0000001 H 5 V 10 H 3 Z m 0,-3 h 2 v 1 H 3 Z M 3,2.9999998 H 5 V 4.0000001 H 3 Z" color="#000" display="inline" enable-background="accumulate" opacity=".3" overflow="visible" visibility="visible" style="marker:none"/></svg>