<svg xmlns="http://www.w3.org/2000/svg" xmlns:svg="http://www.w3.org/2000/svg" xmlns:xlink="http://www.w3.org/1999/xlink" id="svg10706" width="24" height="24" version="1.1"><defs id="defs10708"><linearGradient id="linearGradient6782"><stop id="stop6784" offset="0" stop-color="#000" stop-opacity="0"/><stop id="stop6786" offset=".569" stop-color="#000" stop-opacity="1"/><stop id="stop6788" offset="1" stop-color="#000" stop-opacity="0"/></linearGradient><linearGradient id="linearGradient6772"><stop id="stop6774" offset="0" stop-color="#fff" stop-opacity="1"/><stop id="stop6776" offset="0" stop-color="#fff" stop-opacity=".235"/><stop id="stop6778" offset=".99" stop-color="#fff" stop-opacity=".157"/><stop id="stop6780" offset="1" stop-color="#fff" stop-opacity=".392"/></linearGradient><linearGradient id="linearGradient4440-9-5" x1="27.557" x2="27.557" y1="7.163" y2="21.387" gradientTransform="matrix(0.62762637,0,0,0.7245642,42.973068,3.6273679)" gradientUnits="userSpaceOnUse" xlink:href="#linearGradient3454-2-5-0-3-4-1-2"/><linearGradient id="linearGradient3454-2-5-0-3-4-1-2"><stop id="stop3456-4-9-38-1-8-8-6" offset="0" stop-color="#fff" stop-opacity="1"/><stop id="stop3458-39-80-3-5-5-8-1" offset=".01" stop-color="#fff" stop-opacity=".235"/><stop id="stop3460-7-0-2-4-2-7-9" offset=".99" stop-color="#fff" stop-opacity=".157"/><stop id="stop3462-0-9-8-7-2-3-40" offset="1" stop-color="#fff" stop-opacity=".392"/></linearGradient><linearGradient id="linearGradient4436-4-4" x1="22.935" x2="22.809" y1="49.629" y2="36.658" gradientTransform="matrix(0.54761895,0,0,0.48299421,38.893448,-0.2449121)" gradientUnits="userSpaceOnUse" xlink:href="#linearGradient6129-963-697-142-998-580-273-5-3-7"/><linearGradient id="linearGradient6129-963-697-142-998-580-273-5-3-7"><stop id="stop2661-1-2-2" offset="0" stop-color="#0a0a0a" stop-opacity=".498"/><stop id="stop2663-85-8-6" offset="1" stop-color="#0a0a0a" stop-opacity="0"/></linearGradient><linearGradient id="linearGradient4430-9-7" x1="35.793" x2="35.793" y1="17.118" y2="43.761" gradientTransform="matrix(0.4666607,0,0,0.46428558,40.836448,-0.1607121)" gradientUnits="userSpaceOnUse" xlink:href="#linearGradient4632-92-3-0-8-1"/><linearGradient id="linearGradient4632-92-3-0-8-1"><stop id="stop4634-68-8-0-2-9" offset="0" stop-color="#cdc9e3" stop-opacity="1"/><stop id="stop4636-8-21-7-1-4" offset="1" stop-color="#9389cb" stop-opacity="1"/></linearGradient><linearGradient id="linearGradient4418-4-2" x1="21.37" x2="21.37" y1="4.732" y2="34.143" gradientTransform="matrix(0.43131243,0,0,0.48638011,41.989858,2.1854079)" gradientUnits="userSpaceOnUse" xlink:href="#linearGradient4325-0-5"/><linearGradient id="linearGradient4325-0-5"><stop id="stop4327-4-6" offset="0" stop-color="#fff" stop-opacity="1"/><stop id="stop4329-5-9" offset=".111" stop-color="#fff" stop-opacity=".235"/><stop id="stop4331-6-1" offset=".99" stop-color="#fff" stop-opacity=".157"/><stop id="stop4333-7-7" offset="1" stop-color="#fff" stop-opacity=".392"/></linearGradient><linearGradient id="linearGradient4414-2-2" x1="62.989" x2="62.989" y1="13" y2="16" gradientTransform="matrix(0.49096263,0,0,0.48984879,15.293778,-0.7127621)" gradientUnits="userSpaceOnUse" xlink:href="#linearGradient4646-7-4-3-5-6-8"/><linearGradient id="linearGradient4646-7-4-3-5-6-8"><stop id="stop4648-8-0-3-6-5-0" offset="0" stop-color="#f9f9f9" stop-opacity="1"/><stop id="stop4650-1-7-3-4-8-2" offset="1" stop-color="#d8d8d8" stop-opacity="1"/></linearGradient><linearGradient id="linearGradient3028-2" x1="302.857" x2="302.857" y1="366.648" y2="609.505" gradientTransform="matrix(2.774389,0,0,1.969706,-1892.179,-872.8854)" gradientUnits="userSpaceOnUse" xlink:href="#linearGradient5048-7"/><linearGradient id="linearGradient5048-7"><stop id="stop5050-7" offset="0" stop-color="#000" stop-opacity="0"/><stop id="stop5056-43" offset=".5" stop-color="#000" stop-opacity="1"/><stop id="stop5052-0" offset="1" stop-color="#000" stop-opacity="0"/></linearGradient><radialGradient id="radialGradient3030-3" cx="605.714" cy="486.648" r="117.143" fx="605.714" fy="486.648" gradientTransform="matrix(2.774389,0,0,1.969706,-1891.633,-872.8854)" gradientUnits="userSpaceOnUse" xlink:href="#linearGradient5060-0"/><linearGradient id="linearGradient5060-0"><stop id="stop5062-1" offset="0" stop-color="#000" stop-opacity="1"/><stop id="stop5064-9" offset="1" stop-color="#000" stop-opacity="0"/></linearGradient><radialGradient id="radialGradient3032-7" cx="605.714" cy="486.648" r="117.143" fx="605.714" fy="486.648" gradientTransform="matrix(-2.774389,0,0,1.969706,112.7623,-872.8854)" gradientUnits="userSpaceOnUse" xlink:href="#linearGradient5060-0"/><linearGradient id="linearGradient3104-8-8-97-4-6-11-5-5-0-5-7"><stop id="stop3106-5-4-3-5-0-2-1-0-6-6-64" offset="0" stop-color="#000" stop-opacity=".322"/><stop id="stop3108-4-3-7-8-2-0-7-9-1-4-3" offset="1" stop-color="#000" stop-opacity=".278"/></linearGradient><linearGradient id="linearGradient10704" x1="-51.786" x2="-51.786" y1="53.514" y2="3.634" gradientTransform="matrix(0.40212523,0,0,0.398023,93.350858,-0.7909421)" gradientUnits="userSpaceOnUse" xlink:href="#linearGradient3104-8-8-97-4-6-11-5-5-0-5-7"/><radialGradient id="radialGradient3030" cx="608.071" cy="564.276" r="117.143" fx="608.071" fy="564.276" gradientTransform="matrix(0.03279364,0,0,0.01512557,0.15390003,12.78089)" gradientUnits="userSpaceOnUse" xlink:href="#linearGradient5060-0"/><radialGradient id="radialGradient3032" cx="606.145" cy="555.566" r="117.143" fx="606.145" fy="555.566" gradientTransform="matrix(-0.03279364,0,0,0.01512557,23.846113,12.78089)" gradientUnits="userSpaceOnUse" xlink:href="#linearGradient5060-0"/><linearGradient id="linearGradient4414-2" x1="62.989" x2="62.989" y1="13" y2="16" gradientTransform="matrix(0.49096263,0,0,0.48984879,-24.706222,-0.7127621)" gradientUnits="userSpaceOnUse" xlink:href="#linearGradient4646-7-4-3-5-6-8"/><linearGradient id="linearGradient4418-4" x1="21.37" x2="21.37" y1="4.732" y2="34.143" gradientTransform="matrix(0.43131243,0,0,0.48638011,1.9898582,2.1854079)" gradientUnits="userSpaceOnUse" xlink:href="#linearGradient4325-0-5"/><linearGradient id="linearGradient4208" x1="13" x2="13" y1="8" y2="20" gradientUnits="userSpaceOnUse" xlink:href="#linearGradient4632-92-3-0-8-1"/><linearGradient id="linearGradient4632-0-6-4-3-4-0"><stop id="stop4634-4-4-7-7-4-8" offset="0" stop-color="#b4cee1" stop-opacity="1"/><stop id="stop4636-3-1-5-1-3-9" offset="1" stop-color="#5d9fcd" stop-opacity="1"/></linearGradient><linearGradient id="linearGradient4286" x1="12" x2="12" y1="23" y2="19" gradientUnits="userSpaceOnUse" xlink:href="#linearGradient5060-0"/><linearGradient id="linearGradient4440-9" x1="27.129" x2="27.129" y1="7.415" y2="22.597" gradientTransform="matrix(0.62762637,0,0,0.7245642,2.9730682,3.6273679)" gradientUnits="userSpaceOnUse" xlink:href="#linearGradient6772"/><linearGradient id="linearGradient6114" x1="300.441" x2="300.441" y1="433.478" y2="675.618" gradientTransform="matrix(0.03279364,0,0,0.01512557,0.14744624,12.78089)" gradientUnits="userSpaceOnUse" xlink:href="#linearGradient6782"/></defs><metadata id="metadata10711"/><g id="g6797" opacity=".3"><rect id="rect4173-4" width="15.835" height="3.673" x="4.083" y="19.327" fill="url(#linearGradient6114)" fill-opacity="1" fill-rule="nonzero" stroke="none" stroke-dasharray="none" stroke-miterlimit="4" stroke-width="104.962" display="inline" opacity="1" overflow="visible" visibility="visible" style="marker:none"/><path id="path5058-9" fill="url(#radialGradient3030)" fill-opacity="1" fill-rule="nonzero" stroke="none" stroke-dasharray="none" stroke-miterlimit="4" stroke-width="104.962" d="m 19.917326,19.326774 c 0,0 0,3.67315 0,3.67315 1.688791,0.0069 4.082675,-0.822966 4.082674,-1.836811 0,-1.013845 -1.884564,-1.836339 -4.082674,-1.836339 z" display="inline" opacity="1" overflow="visible" visibility="visible" style="marker:none"/><path id="path5018-53" fill="url(#radialGradient3032)" fill-opacity="1" fill-rule="nonzero" stroke="none" stroke-dasharray="none" stroke-miterlimit="4" stroke-width="104.962" d="m 4.0826831,19.326774 c 0,0 0,3.67315 0,3.67315 C 2.3938915,23.006839 7.845175e-6,22.176958 7.845175e-6,21.163113 7.845175e-6,20.149268 1.8845715,19.326774 4.0826831,19.326774 Z" display="inline" opacity="1" overflow="visible" visibility="visible" style="marker:none"/></g><path id="rect3186" fill="none" stroke="#000" stroke-dasharray="none" stroke-dashoffset="0" stroke-linecap="butt" stroke-linejoin="miter" stroke-miterlimit="4" stroke-opacity="1" stroke-width="1" d="m 3.0362982,3.5043839 c -0.277,0 -0.5,0.223 -0.5,0.5 l 0,1.495614 -0.5,0 c -0.277,0 -0.5,0.223 -0.5,0.5 l 0,0.5000021 20.9999998,0 0,-0.5000021 c 0,-0.277 -0.223,-0.5 -0.5,-0.5 l -11.5,0 0,-1.495614 c 0,-0.277 -0.223,-0.5 -0.5,-0.5 z" color="#000" display="inline" enable-background="accumulate" opacity=".3" overflow="visible" visibility="visible" style="marker:none"/><path id="rect3409-5-2" fill="url(#linearGradient4414-2)" fill-opacity="1" fill-rule="nonzero" stroke="none" stroke-width="1" d="m 3.0362982,3.9999979 0,2 -1,0 0,1.9996771 19.9999998,0 0,-1.9996771 -12,0 0,-2 z" color="#000" display="inline" enable-background="accumulate" overflow="visible" visibility="visible" style="marker:none"/><path id="rect3409-3" fill="none" stroke="url(#linearGradient4418-4)" stroke-dasharray="none" stroke-dashoffset="0" stroke-linecap="round" stroke-linejoin="miter" stroke-miterlimit="4" stroke-opacity="1" stroke-width="1" d="m 3.5362982,4.4999979 0,2 -1,0 0,1.3389671 18.9999998,0 0,-1.3389671 -11.9999998,0 0,-2 z" color="#000" display="inline" enable-background="accumulate" overflow="visible" visibility="visible" style="marker:none"/><path id="rect4198" fill="url(#linearGradient4208)" fill-opacity="1" fill-rule="nonzero" stroke="#000" stroke-dasharray="none" stroke-dashoffset="0" stroke-linecap="butt" stroke-linejoin="miter" stroke-miterlimit="4" stroke-opacity=".302" stroke-width="1" d="M 1.5,7.5 1.5,8 1.5,18.000264 1.75,21.5 22.25,21.5 22.5,18.000264 22.5,7.5 Z" baseline-shift="baseline" clip-rule="nonzero" color="#000" color-interpolation="sRGB" color-interpolation-filters="linearRGB" color-rendering="auto" direction="ltr" display="inline" enable-background="accumulate" font-family="sans-serif" font-size="medium" font-stretch="normal" font-style="normal" font-variant="normal" font-weight="normal" image-rendering="auto" letter-spacing="normal" opacity="1" overflow="visible" shape-rendering="auto" text-anchor="start" text-decoration="none" text-rendering="auto" visibility="visible" word-spacing="normal" writing-mode="lr-tb" style="line-height:normal;text-indent:0;text-align:start;text-decoration-line:none;text-decoration-style:solid;text-decoration-color:#000;text-transform:none;block-progression:tb;white-space:normal;isolation:auto;mix-blend-mode:normal;solid-color:#000;solid-opacity:1"/><path id="path4268" fill="url(#linearGradient4286)" fill-opacity="1" fill-rule="nonzero" stroke="none" stroke-dasharray="none" stroke-dashoffset="0" stroke-linecap="butt" stroke-linejoin="round" stroke-miterlimit="4" stroke-opacity="1" stroke-width="1" d="M 1.5,7 C 1.223869,7.0000276 1.000028,7.2238691 1,7.5 L 1,8 1.25,21.5 c 2.8e-5,0.276131 0.223869,0.499972 0.5,0.5 l 20.5,0 c 0.276131,-2.8e-5 0.499972,-0.223869 0.5,-0.5 L 23,7.5 C 22.999972,7.2238691 22.776131,7.0000276 22.5,7 Z" baseline-shift="baseline" clip-rule="nonzero" color="#000" color-interpolation="sRGB" color-interpolation-filters="linearRGB" color-rendering="auto" direction="ltr" display="inline" enable-background="accumulate" font-family="sans-serif" font-size="medium" font-stretch="normal" font-style="normal" font-variant="normal" font-weight="normal" image-rendering="auto" letter-spacing="normal" opacity=".3" overflow="visible" shape-rendering="auto" text-anchor="start" text-decoration="none" text-rendering="auto" visibility="visible" word-spacing="normal" writing-mode="lr-tb" style="line-height:normal;text-indent:0;text-align:start;text-decoration-line:none;text-decoration-style:solid;text-decoration-color:#000;text-transform:none;block-progression:tb;white-space:normal;isolation:auto;mix-blend-mode:normal;solid-color:#000;solid-opacity:1"/><path id="path3309-8" fill="none" stroke="url(#linearGradient4440-9)" stroke-dasharray="none" stroke-dashoffset="0" stroke-linecap="round" stroke-linejoin="miter" stroke-miterlimit="4" stroke-opacity="1" stroke-width="1" d="M 2.5,8.4999979 2.4462368,18.004917 2.75,20.499998 l 18.5,0 0.258854,-2.444262 L 21.5,8.4999979 Z" color="#000" display="inline" enable-background="accumulate" opacity=".3" overflow="visible" visibility="visible" style="marker:none"/><path id="path3575-5-8-4-7-0-8-5" fill="#fff" fill-opacity="1" fill-rule="nonzero" stroke="none" stroke-width="1.7" d="m 11.499998,11 c -0.1385,0 -0.25,0.1115 -0.25,0.25 l 0,0.84375 c -0.27435,0.0704 -0.5275,0.188 -0.76565,0.32812 L 9.874998,11.8125 c -0.098,-0.0979 -0.2458,-0.0979 -0.34375,0 l -0.71875,0.71875 c -0.098,0.0979 -0.098,0.24581 0,0.34375 l 0.60935,0.60937 c -0.1401,0.23812 -0.25775,0.49131 -0.3281,0.76563 l -0.84375,0 c -0.1385,0 -0.25,0.1115 -0.25,0.25 l 0,1 c 0,0.1385 0.1115,0.25 0.25,0.25 l 0.84375,0 c 0.0703,0.27432 0.188,0.52751 0.3281,0.76562 L 8.812498,17.125 c -0.098,0.0979 -0.098,0.24581 0,0.34375 l 0.71875,0.71875 c 0.0979,0.0979 0.2458,0.0979 0.34375,0 l 0.60935,-0.60938 c 0.23815,0.14012 0.4913,0.25776 0.76565,0.32813 l 0,0.84375 c 0,0.1385 0.1115,0.25 0.25,0.25 l 1,0 c 0.1385,0 0.25,-0.1115 0.25,-0.25 l 0,-0.84375 c 0.2743,-0.0704 0.5275,-0.18801 0.7656,-0.32813 l 0.6094,0.60938 c 0.0979,0.0979 0.2458,0.0979 0.34375,0 l 0.71875,-0.71875 c 0.0979,-0.0979 0.0979,-0.24582 0,-0.34375 l -0.6094,-0.60938 c 0.14015,-0.23811 0.25775,-0.4913 0.32815,-0.76562 l 0.84375,0 c 0.1385,0 0.25,-0.1115 0.25,-0.25 l 0,-1 c 0,-0.1385 -0.1115,-0.25 -0.25,-0.25 l -0.84375,0 c -0.0704,-0.27432 -0.188,-0.52751 -0.32815,-0.76563 l 0.6094,-0.60937 c 0.0979,-0.0979 0.0979,-0.24582 0,-0.34375 l -0.71875,-0.71875 c -0.098,-0.0979 -0.2458,-0.0979 -0.34375,0 l -0.6094,0.60937 c -0.2381,-0.14012 -0.4913,-0.25775 -0.7656,-0.32812 l 0,-0.84375 c 0,-0.1385 -0.1115,-0.25 -0.25,-0.25 l -1,0 z m 0.5,2.5 c 0.8284,0 1.5,0.67157 1.5,1.5 0,0.82842 -0.6716,1.5 -1.5,1.5 -0.82845,0 -1.5,-0.67158 -1.5,-1.5 0,-0.82843 0.67155,-1.5 1.5,-1.5 z" color="#000" display="inline" enable-background="accumulate" opacity=".3" overflow="visible" visibility="visible" style="marker:none"/><path id="path3575-5-8-4-7-0-1" fill="#382a72" fill-opacity=".552" fill-rule="nonzero" stroke="none" stroke-width="1.7" d="m 11.499998,10 c -0.1385,0 -0.25,0.1115 -0.25,0.25 l 0,0.84375 c -0.27435,0.0704 -0.5275,0.188 -0.76565,0.32812 L 9.874998,10.8125 c -0.098,-0.0979 -0.2458,-0.0979 -0.34375,0 l -0.71875,0.71875 c -0.098,0.0979 -0.098,0.24581 0,0.34375 l 0.60935,0.60937 c -0.1401,0.23812 -0.25775,0.49131 -0.3281,0.76563 l -0.84375,0 c -0.1385,0 -0.25,0.1115 -0.25,0.25 l 0,1 c 0,0.1385 0.1115,0.25 0.25,0.25 l 0.84375,0 c 0.0703,0.27432 0.188,0.52751 0.3281,0.76562 L 8.812498,16.125 c -0.098,0.0979 -0.098,0.24581 0,0.34375 l 0.71875,0.71875 c 0.0979,0.0979 0.2458,0.0979 0.34375,0 l 0.60935,-0.60938 c 0.23815,0.14012 0.4913,0.25776 0.76565,0.32813 l 0,0.84375 c 0,0.1385 0.1115,0.25 0.25,0.25 l 1,0 c 0.1385,0 0.25,-0.1115 0.25,-0.25 l 0,-0.84375 c 0.2743,-0.0704 0.5275,-0.18801 0.7656,-0.32813 l 0.6094,0.60938 c 0.0979,0.0979 0.2458,0.0979 0.34375,0 l 0.71875,-0.71875 c 0.0979,-0.0979 0.0979,-0.24582 0,-0.34375 l -0.6094,-0.60938 c 0.14015,-0.23811 0.25775,-0.4913 0.32815,-0.76562 l 0.84375,0 c 0.1385,0 0.25,-0.1115 0.25,-0.25 l 0,-1 c 0,-0.1385 -0.1115,-0.25 -0.25,-0.25 l -0.84375,0 c -0.0704,-0.27432 -0.188,-0.52751 -0.32815,-0.76563 l 0.6094,-0.60937 c 0.0979,-0.0979 0.0979,-0.24582 0,-0.34375 l -0.71875,-0.71875 c -0.098,-0.0979 -0.2458,-0.0979 -0.34375,0 l -0.6094,0.60937 c -0.2381,-0.14012 -0.4913,-0.25775 -0.7656,-0.32812 l 0,-0.84375 c 0,-0.1385 -0.1115,-0.25 -0.25,-0.25 l -1,0 z m 0.5,2.5 c 0.8284,0 1.5,0.67157 1.5,1.5 0,0.82842 -0.6716,1.5 -1.5,1.5 -0.82845,0 -1.5,-0.67158 -1.5,-1.5 0,-0.82843 0.67155,-1.5 1.5,-1.5 z" color="#000" display="inline" enable-background="accumulate" overflow="visible" visibility="visible" style="marker:none"/></svg>