<svg xmlns="http://www.w3.org/2000/svg" width="16" height="16"><g><path fill="#666" d="M837.5 525c-.277 0-.5.227-.5.5v.5h1v-.5c0-.277-.223-.5-.5-.5zm.5 1v.5a.499.499 0 1 1-1 0v-.5h-1.5c-.831 0-1.5.669-1.5 1.5v9c0 .831.669 1.5 1.5 1.5h9c.831 0 1.5-.669 1.5-1.5v-9c0-.831-.669-1.5-1.5-1.5H843v.5a.499.499 0 1 1-1 0v-.5zm4 0h1v-.5a.499.499 0 1 0-1 0zm-6.5 4h9c.277 0 .5.223.5.5v6c0 .277-.223.5-.5.5h-9a.499.499 0 0 1-.5-.5v-6c0-.277.223-.5.5-.5z" color="#bebebe" overflow="visible" transform="translate(-832 -524)" style="isolation:auto;mix-blend-mode:normal;marker:none"/></g></svg>