<svg xmlns="http://www.w3.org/2000/svg" width="16" height="16"><g fill="#666" transform="translate(-633 -105)"><rect style="marker:none" width="3" height="4" x="639" y="107" color="#bebebe" overflow="visible"/><rect style="marker:none" width="3" height="5" x="635" y="106" color="#bebebe" overflow="visible"/><rect style="marker:none" width="3" height="4" x="639" y="-118" color="#bebebe" overflow="visible" transform="scale(1 -1)"/><rect style="marker:none" width="3" height="5" x="635" y="-119" color="#bebebe" overflow="visible" transform="scale(1 -1)"/><rect style="marker:none" width="3" height="3" x="643" y="108" color="#bebebe" overflow="visible"/><rect style="marker:none" width="3" height="3" x="643" y="-117" color="#bebebe" overflow="visible" transform="scale(1 -1)"/><path fill-rule="evenodd" d="M634 113h1v-1h-1zm2 0h1v-1h-1zm2 0h1v-1h-1zm2 0h1v-1h-1zm2 0h1v-1h-1zm2 0h1v-1h-1zm2 0h1v-1h-1z" color="#000" font-family="sans-serif" font-weight="400" overflow="visible" white-space="normal" style="line-height:normal;font-variant-ligatures:normal;font-variant-position:normal;font-variant-caps:normal;font-variant-numeric:normal;font-variant-alternates:normal;font-feature-settings:normal;text-indent:0;text-align:start;text-decoration-line:none;text-decoration-style:solid;text-decoration-color:#000;text-transform:none;text-orientation:mixed;shape-padding:0;isolation:auto;mix-blend-mode:normal"/></g></svg>