<svg xmlns="http://www.w3.org/2000/svg" width="16" height="16"><g fill="#666" transform="translate(-653 -105)"><rect style="marker:none" width="3" height="4" x="-115" y="655.001" color="#bebebe" overflow="visible" transform="rotate(-90)"/><rect style="marker:none" width="3" height="5" x="-119" y="654.001" color="#bebebe" overflow="visible" transform="rotate(-90)"/><rect style="marker:none" width="3" height="4" x="-115" y="-666.001" color="#bebebe" overflow="visible" transform="matrix(0 -1 -1 0 0 0)"/><rect style="marker:none" width="3" height="5" x="-119" y="-667.001" color="#bebebe" overflow="visible" transform="matrix(0 -1 -1 0 0 0)"/><rect style="marker:none" width="3" height="3" x="-111" y="656.001" color="#bebebe" overflow="visible" transform="rotate(-90)"/><rect style="marker:none" width="3" height="3" x="-111" y="-665.001" color="#bebebe" overflow="visible" transform="matrix(0 -1 -1 0 0 0)"/><path fill-rule="evenodd" d="M661 120v-1h-1v1zm0-2v-1h-1v1zm0-2v-1h-1v1zm0-2v-1h-1v1zm0-2v-1h-1v1zm0-2v-1h-1v1zm0-2v-1h-1v1z" color="#000" font-family="sans-serif" font-weight="400" overflow="visible" white-space="normal" style="line-height:normal;font-variant-ligatures:normal;font-variant-position:normal;font-variant-caps:normal;font-variant-numeric:normal;font-variant-alternates:normal;font-feature-settings:normal;text-indent:0;text-align:start;text-decoration-line:none;text-decoration-style:solid;text-decoration-color:#000;text-transform:none;text-orientation:mixed;shape-padding:0;isolation:auto;mix-blend-mode:normal"/></g></svg>