<svg xmlns="http://www.w3.org/2000/svg" width="16" height="16.007"><g><path fill="#666" d="M556.938-2.997c-.36.047-.938.25-.938 1v2s-1 0-1 1v3h-1s-1 0-1 1v5.5c0 .5.5.5.5.5h.5c0 1 1 1 1 1s0 1 1 1h10c1 0 1-1 1-1s1 0 1-1h.5c.5 0 .5-.419.5-.5v-5.5c0-1-1-1-1-1h-1v-3c0-1-1-1-1-1v-2c0-1-1-1-1.187-1h-7.625c-.047 0-.13-.015-.25 0zm.062 1h8v6h-8zm-2.437 7a.255.255 0 0 1 .094 0h12.687s.656 0 .656.563v4.437h-14V5.566c0-.422.378-.536.563-.563zm1.437 6h10v1h-10z" color="#000" font-family="Sans" font-weight="400" overflow="visible" transform="translate(-553 3.003)" style="line-height:normal;-inkscape-font-specification:Sans;text-indent:0;text-align:start;text-decoration-line:none;text-transform:none;marker:none"/><path fill="#666" d="M556 5.003v4h10v-4z" opacity=".5" transform="translate(-553 3.003)"/></g></svg>