<svg xmlns="http://www.w3.org/2000/svg" width="16" height="16"><g><path fill="#666" d="M615-9v-12c0-1 1-1 1-1h10s1 0 1 1v12c0 1-1 1-1 1h-10s-1 0-1-1zm1-.5c0 .5.5.5.5.5h9s.5 0 .5-.5v-11c0-.5-.5-.5-.5-.5h-9c-.5 0-.5.5-.5.5z" color="#bebebe" overflow="visible" transform="translate(-613 23)" style="marker:none"/><path fill="#666" d="M620.406-18a.517.517 0 0 0-.406.5v2.5h-1.5c-.369.011-.606.524-.375.813l2.5 3a.522.522 0 0 0 .75 0l2.5-3c.231-.289-.006-.802-.375-.813H622v-2.5a.52.52 0 0 0-.5-.5h-1a.506.506 0 0 0-.094 0z" color="#000" font-family="Sans" font-weight="400" overflow="visible" transform="translate(-613 23)" style="line-height:normal;-inkscape-font-specification:Sans;text-indent:0;text-align:start;text-decoration-line:none;text-transform:none;marker:none"/></g></svg>