<svg xmlns="http://www.w3.org/2000/svg" width="16" height="16"><g color="#bebebe"><path fill="#666" d="M815-3s-1 0-1 1V8c0 1 1 1 1 1h2V8h-1.5s-.5 0-.5-.5v-9s0-.5.5-.5h7s.5 0 .5.5V0h1v-2c0-1-1-1-1-1zm4 4s-1 0-1 1v10c0 1 1 1 1 1h8s1 0 1-1V2c0-1-1-1-1-1zm.5 1h7s.5 0 .5.5v9c0 .5-.5.5-.5.5h-7s-.5 0-.5-.5v-9s0-.5.5-.5zm.75 1a.25.25 0 0 0-.25.25v.5c0 .139.112.25.25.25h5.5a.25.25 0 0 0 .25-.25v-.5a.25.25 0 0 0-.25-.25zm0 2a.25.25 0 0 0-.25.25v.5c0 .139.112.25.25.25h5.5a.25.25 0 0 0 .25-.25v-.5a.25.25 0 0 0-.25-.25zm0 2a.25.25 0 0 0-.25.25v.5c0 .139.112.25.25.25h2.5a.25.25 0 0 0 .25-.25v-.5a.25.25 0 0 0-.25-.25z" overflow="visible" transform="translate(-813 3)" style="marker:none"/></g></svg>