<svg xmlns="http://www.w3.org/2000/svg" width="16" height="16"><g color="#bebebe"><path fill="#666" d="M715 98v3h-1.5c-.277 0-.5.223-.5.5v1c0 .277.223.5.5.5h1.5v9h2v-9h1.5c.277 0 .5-.223.5-.5v-1c0-.277-.223-.5-.5-.5H717v-3zm5 0v9h-1.5c-.277 0-.5.223-.5.5v1c0 .277.223.5.5.5h1.5v3h2v-3h1.5c.277 0 .5-.223.5-.5v-1c0-.277-.223-.5-.5-.5H722v-9zm5 0v5h-1.5c-.277 0-.5.223-.5.5v1c0 .277.223.5.5.5h1.5v7h2v-7h1.5c.277 0 .5-.223.5-.5v-1c0-.277-.223-.5-.5-.5H727v-5z" overflow="visible" transform="translate(-713 -97)" style="marker:none"/></g></svg>