<svg xmlns="http://www.w3.org/2000/svg" width="16" height="16"><g><path fill="#666" fill-rule="evenodd" d="M445.5 78a2.5 2.5 0 0 0-2.5 2.5 2.5 2.5 0 0 0 .051.482l-4.846 2.694A2.5 2.5 0 0 0 436.5 83a2.5 2.5 0 0 0-2.5 2.5 2.5 2.5 0 0 0 2.5 2.5 2.5 2.5 0 0 0 1.717-.684l4.834 2.688a2.5 2.5 0 0 0-.05.496 2.5 2.5 0 0 0 2.5 2.5 2.5 2.5 0 0 0 2.5-2.5 2.5 2.5 0 0 0-2.5-2.5 2.5 2.5 0 0 0-1.722.688L438.947 86a2.5 2.5 0 0 0 .053-.5 2.5 2.5 0 0 0-.056-.514l4.828-2.683A2.5 2.5 0 0 0 445.5 83a2.5 2.5 0 0 0 2.5-2.5 2.5 2.5 0 0 0-2.5-2.5z" color="#000" overflow="visible" transform="translate(-433 -77)" style="isolation:auto;mix-blend-mode:normal"/></g></svg>