<svg xmlns="http://www.w3.org/2000/svg" width="16" height="16"><g><path fill="#666" d="M725-13v2h-2v2h2v2h2v-2h2v-2h-2v-2z" transform="translate(-713 23)"/><path fill="#666" d="M721.014-22.38L719.028-17h-5.514l4.285 3.482-1.42 5.338 4.635-3.002.986.639V-11a1 1 0 0 1 1-1h1v-1a1 1 0 0 1 .797-.979L728.514-17H723zm4.146 12.366A1 1 0 0 1 725-10a1 1 0 0 1 .168.014z" color="#000" font-family="sans-serif" font-weight="400" overflow="visible" transform="translate(-713 23)" style="line-height:normal;-inkscape-font-specification:sans-serif;text-indent:0;text-align:start;text-decoration-line:none;text-transform:none;marker:none"/></g></svg>