<svg xmlns="http://www.w3.org/2000/svg" width="16" height="16"><g><path fill="#666" d="M854.385 80a.381.381 0 0 0-.385.379v1.242c0 .21.172.379.385.379h1.23c.214 0 .385-.17.385-.379V80.38a.381.381 0 0 0-.385-.379zM860 80v4h-3.062L862 90l5.188-6H864v-4zm-5.615 4.016a.381.381 0 0 0-.385.379v1.242c0 .21.172.379.385.379h1.23a.381.381 0 0 0 .385-.38v-1.241a.381.381 0 0 0-.385-.38zm0 3.984a.381.381 0 0 0-.385.379v1.242c0 .21.172.379.385.379h1.23c.214 0 .385-.17.385-.379V88.38a.381.381 0 0 0-.385-.379z" color="#000" overflow="visible" transform="translate(-853 -77)" style="marker:none"/></g></svg>