<svg xmlns="http://www.w3.org/2000/svg" xmlns:svg="http://www.w3.org/2000/svg" xmlns:xlink="http://www.w3.org/1999/xlink" id="svg3012" width="24" height="24" version="1.1"><metadata id="metadata43"/><defs id="defs3014"><linearGradient id="linearGradient3912"><stop id="stop3914" offset="0" stop-color="#787878" stop-opacity="1"/><stop id="stop3916" offset=".35" stop-color="#bebebe" stop-opacity="1"/><stop id="stop3918" offset=".494" stop-color="#c8c8c8" stop-opacity="1"/><stop id="stop3920" offset=".589" stop-color="#e6e6e6" stop-opacity="1"/><stop id="stop3922" offset="1" stop-color="#8c8c8c" stop-opacity="1"/></linearGradient><linearGradient id="linearGradient10691-1"><stop id="stop10693-3" offset="0" stop-color="#000" stop-opacity="1"/><stop id="stop10695-1" offset="1" stop-color="#000" stop-opacity="0"/></linearGradient><linearGradient id="linearGradient4293"><stop id="stop4295" offset="0" stop-color="#fff" stop-opacity="1"/><stop id="stop4297" offset=".034" stop-color="#fff" stop-opacity=".235"/><stop id="stop4299" offset=".969" stop-color="#fff" stop-opacity=".157"/><stop id="stop4301" offset="1" stop-color="#fff" stop-opacity=".392"/></linearGradient><linearGradient id="linearGradient3176" x1="361.106" x2="361.106" y1="87.05" y2="94.396" gradientTransform="matrix(0.57696706,0,0,0.6063427,-194.65125,-34.797997)" gradientUnits="userSpaceOnUse" xlink:href="#linearGradient3912"/><radialGradient id="radialGradient3182" cx="6.703" cy="73.616" r="7.228" fx="6.703" fy="73.616" gradientTransform="matrix(0.96840037,0,0,0.20751434,5.509091,7.223683)" gradientUnits="userSpaceOnUse" xlink:href="#linearGradient10691-1"/><linearGradient id="linearGradient3197" x1="24.81" x2="24.81" y1="51.15" y2="42.989" gradientTransform="matrix(0.58932647,0,0,0.38995666,-2.1438423,1.2179352)" gradientUnits="userSpaceOnUse" xlink:href="#linearGradient4293"/><linearGradient id="linearGradient3223-9"><stop id="stop3225-6" offset="0" stop-color="#fff" stop-opacity="1"/><stop id="stop3227-2" offset=".015" stop-color="#fff" stop-opacity=".235"/><stop id="stop3229-0" offset=".996" stop-color="#fff" stop-opacity=".157"/><stop id="stop3231-1" offset="1" stop-color="#fff" stop-opacity=".392"/></linearGradient><linearGradient id="linearGradient3224" x1="24" x2="24" y1="6.392" y2="41.423" gradientTransform="matrix(0.56756766,0,0,0.37837836,-1.6216268,0.41892331)" gradientUnits="userSpaceOnUse" xlink:href="#linearGradient3223-9"/><linearGradient id="outerBackgroundGradient-5-0-2-5"><stop id="stop3864-8-6-4-7-0" offset="0" stop-color="#261e2b" stop-opacity="1"/><stop id="stop3866-9-1-86-7-6" offset="1" stop-color="#352f39" stop-opacity="1"/></linearGradient><linearGradient id="linearGradient3262" x1="15" x2="15" y1="24.619" y2="2" gradientTransform="matrix(0.50000009,0,0,0.56521738,1.4999986,7.5217386)" gradientUnits="userSpaceOnUse" xlink:href="#outerBackgroundGradient-5-0-2-5"/><linearGradient id="linearGradient3880-3-9"><stop id="stop3883-1-6" offset="0" stop-color="#fff" stop-opacity="1"/><stop id="stop3885-5-6" offset="1" stop-color="#fff" stop-opacity="0"/></linearGradient><linearGradient id="linearGradient3365" x1="10" x2="20" y1="-3" y2="12" gradientTransform="matrix(0.55000009,0,0,0.5555555,0.4499978,6.4444438)" gradientUnits="userSpaceOnUse" xlink:href="#linearGradient3880-3-9"/><radialGradient id="radialGradient4407" cx="15" cy="1039.7" r="3.527" fx="15" fy="1039.7" gradientTransform="matrix(-0.39994776,-0.79806438,-1.1998291,0.59855136,1276.2546,-586.23106)" gradientUnits="userSpaceOnUse" xlink:href="#linearGradient3764"/><linearGradient id="linearGradient3764"><stop id="stop3766" offset="0" stop-color="#d1d1d1" stop-opacity="1"/><stop id="stop3768" offset="1" stop-color="#eaeaea" stop-opacity="1"/></linearGradient><radialGradient id="radialGradient4409" cx="15" cy="1039.7" r="3.527" fx="15" fy="1039.7" gradientTransform="matrix(0.39994776,-0.79806438,1.1998291,0.59855136,-1225.064,-586.23106)" gradientUnits="userSpaceOnUse" xlink:href="#linearGradient3764"/><radialGradient id="radialGradient4411" cx="8.863" cy="9.994" r="12.672" fx="8.863" fy="9.994" gradientTransform="matrix(0,2.0856738,-2.5766464,0,51.561592,1.9538421)" gradientUnits="userSpaceOnUse" xlink:href="#linearGradient3242-7-6"/><linearGradient id="linearGradient3242-7-6"><stop id="stop3244-6-4" offset="0" stop-color="#f89b7e" stop-opacity="1"/><stop id="stop3246-7-5" offset=".262" stop-color="#e35d4f" stop-opacity="1"/><stop id="stop3248-8-6" offset=".661" stop-color="#c6262e" stop-opacity="1"/><stop id="stop3250-6-8" offset="1" stop-color="#690b2c" stop-opacity="1"/></linearGradient><linearGradient id="linearGradient4413" x1="55.987" x2="56.969" y1="39.969" y2="40.586" gradientTransform="matrix(0.49043499,0,0,0.50045513,1.0074558,0.78026574)" gradientUnits="userSpaceOnUse" xlink:href="#linearGradient3880-3-9"/><linearGradient id="linearGradient1113" x1="55.987" x2="56.969" y1="39.969" y2="40.586" gradientTransform="matrix(-0.49043499,0,0,0.50045513,50.161546,0.64855975)" gradientUnits="userSpaceOnUse" xlink:href="#linearGradient3880-3-9"/></defs><path d="M 19,22.500001 C 19,23.328428 15.865993,24 11.999999,24 8.1340066,24 5,23.328428 5,22.500001 5,21.671573 8.1340066,21 11.999999,21 15.865993,21 19,21.671573 19,22.500001 Z" style="marker:none" id="path2589" fill="url(#radialGradient3182)" fill-opacity="1" fill-rule="nonzero" stroke="none" stroke-width=".8" display="inline" opacity=".3" overflow="visible" visibility="visible"/><path id="rect1789" fill="url(#linearGradient3176)" fill-opacity="1" fill-rule="nonzero" stroke="none" stroke-dasharray="none" stroke-dashoffset=".5" stroke-linecap="round" stroke-linejoin="round" stroke-miterlimit="4" stroke-opacity="1" stroke-width=".998" d="m 8.5,17.499134 c 0,0 0.2272727,2.146045 0,2.500866 -0.3925362,0.612833 -1.6072079,0.5 -1.6072079,0.5 -0.5228141,0.06321 -0.527139,2.000859 0,2.000859 H 17.107166 c 0.527139,0 0.522923,-1.938456 0,-2.000859 0,0 -1.171508,0.08298 -1.607166,-0.5 -0.245811,-0.328936 0,-2.500866 0,-2.500866 z" color="#000" display="inline" enable-background="new" overflow="visible" visibility="visible" style="marker:none"/><path id="path4050" fill="none" stroke="url(#linearGradient3197)" stroke-dasharray="none" stroke-dashoffset="0" stroke-linecap="round" stroke-linejoin="round" stroke-miterlimit="4" stroke-opacity="1" stroke-width="1" d="m 9.5317834,16.75841 c 0,0 0.066416,2.143517 0.049899,2.458064 -0.01513,0.287652 -0.026542,0.5927 -0.074595,0.872684 -0.048054,0.279985 -0.2327195,0.491303 -0.4206528,0.744653 C 8.6716825,21.392929 7.7665389,21.485633 7.5155844,21.5 h 8.9850896 c -0.250954,-0.01437 -1.145643,-0.159507 -1.560389,-0.718628 -0.187931,-0.25335 -0.383057,-0.412229 -0.431111,-0.692214 -0.04805,-0.279983 -0.108238,-0.585032 -0.123368,-0.872684 -0.01654,-0.314547 0.08241,-2.458064 0.08241,-2.458064 z" color="#000" display="inline" enable-background="accumulate" overflow="visible" visibility="visible" style="marker:none"/><path id="rect1789-7" fill="none" fill-opacity="1" fill-rule="nonzero" stroke="#000" stroke-dasharray="none" stroke-dashoffset=".5" stroke-linecap="round" stroke-linejoin="round" stroke-miterlimit="4" stroke-opacity="1" stroke-width=".998" d="m 8.5,17.499134 c 0,0 0.2272727,2.146045 0,2.500866 -0.3925362,0.612833 -1.6072079,0.5 -1.6072079,0.5 -0.5228141,0.06321 -0.527139,2.000859 0,2.000859 H 17.107166 c 0.527139,0 0.522923,-1.938456 0,-2.000859 0,0 -1.171508,0.08298 -1.607166,-0.5 -0.245811,-0.328936 0,-2.500866 0,-2.500866 z" color="#000" display="inline" enable-background="new" opacity=".4" overflow="visible" visibility="visible" style="marker:none"/><rect id="rect2722" width="23" height="16" x=".5" y="1.5" fill="#1a1a1a" fill-opacity="1" stroke="#000" stroke-dasharray="none" stroke-dashoffset=".5" stroke-linecap="round" stroke-linejoin="round" stroke-miterlimit="4" stroke-opacity="1" stroke-width="1" rx=".511" ry=".485"/><rect id="rect6741-9-2" width="21" height="14" x="1.5" y="2.5" fill="none" stroke="url(#linearGradient3224)" stroke-dasharray="none" stroke-dashoffset="0" stroke-linecap="round" stroke-linejoin="round" stroke-miterlimit="4" stroke-opacity="1" stroke-width="1" opacity=".2" rx="0" ry="0"/><path id="rect2722-0-2-1" fill="url(#linearGradient3262)" fill-opacity="1" stroke="none" d="M 2,3 H 22 V 16 H 2 Z" display="inline"/><path id="rect2722-0-2-1-6" fill="#000" fill-opacity="1" fill-rule="nonzero" stroke="none" stroke-width="1" d="M 2,3 V 16 H 22 V 3 Z M 3,4 H 21 V 15 H 3 Z" color="#000" display="inline" enable-background="accumulate" opacity=".3" overflow="visible" visibility="visible" style="marker:none"/><path id="rect3872-1-8" fill="url(#linearGradient3365)" fill-opacity="1" stroke="none" d="M 1,2 V 12 L 23,4.708333 V 2 Z" display="inline" opacity=".2"/><g id="g1109"><g id="g1085" stroke="#000" stroke-linejoin="round" stroke-opacity="1" opacity=".3" transform="translate(0,1)"><path id="path1065" fill="none" stroke="#000" stroke-linecap="butt" stroke-linejoin="round" stroke-opacity="1" stroke-width="1" d="m 17,4.5 h 2.5 V 7"/><path id="path1067" fill="none" stroke="#000" stroke-linecap="butt" stroke-linejoin="round" stroke-opacity="1" stroke-width="1" d="m 19.5,8 v 3"/><path id="path1069" fill="none" stroke="#000" stroke-linecap="butt" stroke-linejoin="round" stroke-opacity="1" stroke-width="1" d="m 19.5,12 v 2.5 H 17"/><path id="path1071" fill="none" stroke="#000" stroke-linecap="butt" stroke-linejoin="round" stroke-opacity="1" stroke-width="1" d="M 7,14.5 H 4.5 V 12"/><path id="path1073" fill="none" stroke="#000" stroke-linecap="butt" stroke-linejoin="round" stroke-opacity="1" stroke-width="1" d="M 4.5,11 V 8"/><path id="path1075" fill="none" stroke="#000" stroke-linecap="butt" stroke-linejoin="round" stroke-opacity="1" stroke-width="1" d="M 4.5,7 V 4.5 H 7"/><path id="path1077" fill="none" stroke="#000" stroke-linecap="butt" stroke-linejoin="round" stroke-opacity="1" stroke-width="1" d="m 8,4.5 h 4"/><path id="path1079" fill="none" stroke="#000" stroke-linecap="butt" stroke-linejoin="round" stroke-opacity="1" stroke-width="1" d="m 13,4.5 h 3"/><path id="path1081" fill="none" stroke="#000" stroke-linecap="butt" stroke-linejoin="round" stroke-opacity="1" stroke-width="1" d="m 8,14.5 h 3"/><path id="path1083" fill="none" stroke="#000" stroke-linecap="butt" stroke-linejoin="round" stroke-opacity="1" stroke-width="1" d="m 12,14.5 h 4"/></g><g id="g1063" stroke="#fff" stroke-linejoin="round" stroke-opacity="1" opacity=".5"><path id="path1029" fill="none" stroke="#fff" stroke-linecap="butt" stroke-linejoin="round" stroke-opacity="1" stroke-width="1" d="m 17,4.5 h 2.5 V 7"/><path id="path1031" fill="none" stroke="#fff" stroke-linecap="butt" stroke-linejoin="round" stroke-opacity="1" stroke-width="1" d="m 19.5,8 v 3"/><path id="path1035" fill="none" stroke="#fff" stroke-linecap="butt" stroke-linejoin="round" stroke-opacity="1" stroke-width="1" d="m 19.5,12 v 2.5 H 17"/><path id="path1039" fill="none" stroke="#fff" stroke-linecap="butt" stroke-linejoin="round" stroke-opacity="1" stroke-width="1" d="M 7,14.5 H 4.5 V 12"/><path id="path1041" fill="none" stroke="#fff" stroke-linecap="butt" stroke-linejoin="round" stroke-opacity="1" stroke-width="1" d="M 4.5,11 V 8"/><path id="path1043" fill="none" stroke="#fff" stroke-linecap="butt" stroke-linejoin="round" stroke-opacity="1" stroke-width="1" d="M 4.5,7 V 4.5 H 7"/><path id="path1045" fill="none" stroke="#fff" stroke-linecap="butt" stroke-linejoin="round" stroke-opacity="1" stroke-width="1" d="m 8,4.5 h 4"/><path id="path1047" fill="none" stroke="#fff" stroke-linecap="butt" stroke-linejoin="round" stroke-opacity="1" stroke-width="1" d="m 13,4.5 h 3"/><path id="path1049" fill="none" stroke="#fff" stroke-linecap="butt" stroke-linejoin="round" stroke-opacity="1" stroke-width="1" d="m 8,14.5 h 3"/><path id="path1051" fill="none" stroke="#fff" stroke-linecap="butt" stroke-linejoin="round" stroke-opacity="1" stroke-width="1" d="m 12,14.5 h 4"/></g></g><g id="g4397" stroke-width="1.094" transform="matrix(1.0384919,0,0,1.0094942,-8.5610918,-8.2920373)"><path id="path3782" fill="url(#radialGradient4407)" fill-opacity="1" stroke="none" stroke-width="1.094" d="m 25.261533,24.111839 -3.737787,-6.895616 c 0,0 -2.609397,5.488347 3.737787,9.006519 z"/><path id="path2990" fill="url(#radialGradient4409)" fill-opacity="1" stroke="none" stroke-width="1.094" d="m 25.929176,24.111839 3.737786,-6.895616 c 0,0 2.609399,5.488347 -3.737786,9.006519 z"/><path id="path3788" fill="url(#radialGradient4411)" fill-opacity="1" fill-rule="nonzero" stroke="none" stroke-width="1.094" d="m 23.857525,26.222742 c -0.973509,0.05182 -3.570293,0.64117 -3.570293,2.462721 0,2.081701 1.542697,2.814537 2.468351,2.814537 0.925653,0 2.432439,-0.703916 2.468349,-2.814537 0.02862,-1.68253 -0.574964,-2.359146 -1.057864,-2.462721 -0.06036,-0.01295 -0.169471,-0.0074 -0.308543,0 z m 3.129515,0 c -0.4829,0.103577 -1.086491,0.780191 -1.057864,2.462721 0.03592,2.110621 1.542696,2.814537 2.468349,2.814537 0.925654,0 2.468351,-0.732836 2.468351,-2.814537 0,-2.081773 -3.395937,-2.566295 -3.878836,-2.462721 z m -3.129515,1.319315 c 0,0 0.309098,3.612247 -1.586797,2.198857 -2.108225,-1.571638 1.586797,-2.198857 1.586797,-2.198857 z m 3.438058,0 c 0,0 3.695022,0.627219 1.586796,2.198857 -1.895894,1.41339 -1.586796,-2.198857 -1.586796,-2.198857 z" color="#000" display="inline" enable-background="accumulate" overflow="visible" visibility="visible" style="marker:none"/><path id="path3782-0" fill="none" stroke="#000" stroke-linecap="butt" stroke-linejoin="miter" stroke-opacity="1" stroke-width=".977" d="m 25.261533,24.111839 -3.737787,-6.895617 c 0,0 -2.609398,5.488349 3.737787,9.006521 z" opacity=".5"/><path id="path2990-3" fill="none" stroke="#000" stroke-linecap="butt" stroke-linejoin="miter" stroke-opacity="1" stroke-width=".977" d="m 25.929175,24.111839 3.737787,-6.895617 c 0,0 2.609398,5.488349 -3.737787,9.006521 z" opacity=".5"/><path id="path4683" fill="none" stroke="url(#linearGradient4413)" stroke-linecap="butt" stroke-linejoin="miter" stroke-opacity="1" stroke-width=".977" d="m 29.317553,19.737601 -2.4583,4.821269 -4.3e-5,0.495298 c 2.087662,-1.98119 2.569129,-3.646904 2.569129,-3.96238 0,-0.495298 -0.184221,-0.83737 -0.08952,-1.200962 z"/><path id="path3788-5" fill="none" stroke="#640000" stroke-dasharray="none" stroke-dashoffset="0" stroke-linecap="round" stroke-linejoin="round" stroke-miterlimit="4" stroke-opacity="1" stroke-width=".977" d="m 23.857524,26.222743 c -0.973508,0.05182 -3.570292,0.641169 -3.570292,2.462719 0,2.081703 1.542696,2.814538 2.46835,2.814538 0.925654,0 2.432439,-0.703916 2.46835,-2.814538 0.02862,-1.682529 -0.574964,-2.359145 -1.057864,-2.462719 -0.06036,-0.01295 -0.169471,-0.0074 -0.308544,0 z m 3.129515,0 c -0.4829,0.103577 -1.08649,0.78019 -1.057864,2.462719 0.03592,2.110622 1.542696,2.814538 2.468351,2.814538 0.925653,0 2.468349,-0.732835 2.468349,-2.814538 0,-2.081771 -3.395936,-2.566294 -3.878836,-2.462719 z m -3.129515,1.319313 c 0,0 0.309098,3.612249 -1.586796,2.198857 -2.108225,-1.571636 1.586796,-2.198857 1.586796,-2.198857 z m 3.438059,0 c 0,0 3.695021,0.627221 1.586797,2.198857 -1.895895,1.413392 -1.586797,-2.198857 -1.586797,-2.198857 z" color="#000" display="inline" enable-background="accumulate" opacity=".6" overflow="visible" visibility="visible" style="marker:none"/><path id="path1111" fill="none" stroke="url(#linearGradient1113)" stroke-linecap="butt" stroke-linejoin="miter" stroke-opacity="1" stroke-width=".977" d="m 21.851448,19.605895 2.4583,4.821269 4.3e-5,0.495298 c -2.087662,-1.98119 -2.569129,-3.646904 -2.569129,-3.96238 0,-0.495298 0.184221,-0.83737 0.08952,-1.200962 z"/></g></svg>