<svg xmlns="http://www.w3.org/2000/svg" xmlns:svg="http://www.w3.org/2000/svg" xmlns:xlink="http://www.w3.org/1999/xlink" id="svg2" width="24" height="24" version="1.0"><defs id="defs4"><radialGradient id="radialGradient4536" cx="605.714" cy="486.648" r="117.143" fx="605.714" fy="486.648" gradientTransform="matrix(-2.774389,0,0,1.969706,112.7623,-872.8854)" gradientUnits="userSpaceOnUse" xlink:href="#linearGradient5060"/><linearGradient id="linearGradient5060"><stop id="stop5062" offset="0" stop-color="#000" stop-opacity="1"/><stop id="stop5064" offset="1" stop-color="#000" stop-opacity="0"/></linearGradient><radialGradient id="radialGradient4534" cx="605.714" cy="486.648" r="117.143" fx="605.714" fy="486.648" gradientTransform="matrix(2.774389,0,0,1.969706,-1891.633,-872.8854)" gradientUnits="userSpaceOnUse" xlink:href="#linearGradient5060"/><linearGradient id="linearGradient5048"><stop id="stop5050" offset="0" stop-color="#000" stop-opacity="0"/><stop id="stop5056" offset=".5" stop-color="#000" stop-opacity="1"/><stop id="stop5052" offset="1" stop-color="#000" stop-opacity="0"/></linearGradient><linearGradient id="linearGradient4532" x1="302.857" x2="302.857" y1="366.648" y2="609.505" gradientTransform="matrix(2.774389,0,0,1.969706,-1892.179,-872.8854)" gradientUnits="userSpaceOnUse" xlink:href="#linearGradient5048"/><linearGradient id="linearGradient3104"><stop id="stop3106" offset="0" stop-color="#969696" stop-opacity="1"/><stop id="stop3108" offset="1" stop-color="#bebebe" stop-opacity="1"/></linearGradient><linearGradient id="linearGradient4196" x1="11.536" x2="11.536" y1="44.952" y2="-1.004" gradientTransform="matrix(0.4857163,0,0,0.489929,0.34281,0.7216336)" gradientUnits="userSpaceOnUse" xlink:href="#linearGradient3104"/><linearGradient id="linearGradient3600"><stop id="stop3602" offset="0" stop-color="#f4f4f4" stop-opacity="1"/><stop id="stop3604" offset="1" stop-color="#dbdbdb" stop-opacity="1"/></linearGradient><linearGradient id="linearGradient4194" x1="-60.97" x2="-60.908" y1="13.668" y2="114.535" gradientTransform="matrix(0.2187514,1.3312651e-4,-1.3318587e-4,0.2186539,23.078109,-2.7267432)" gradientUnits="userSpaceOnUse" xlink:href="#linearGradient3600"/><linearGradient id="linearGradient3191-577"><stop id="stop2613" offset="0" stop-color="#dbce48" stop-opacity="1"/><stop id="stop2615" offset="1" stop-color="#c5b625" stop-opacity="1"/></linearGradient><linearGradient id="linearGradient3857" x1="5.518" x2="9.522" y1="37.372" y2="41.392" gradientTransform="matrix(0.3763801,0.03615261,0.03669995,0.374874,-2.2182805,-1.1331002)" gradientUnits="userSpaceOnUse" xlink:href="#linearGradient3191-577"/><linearGradient id="linearGradient3290-678"><stop id="stop2607" offset="0" stop-color="#ece5a5" stop-opacity="1"/><stop id="stop2609" offset="1" stop-color="#fcfbf2" stop-opacity="1"/></linearGradient><linearGradient id="linearGradient3855" x1="9" x2="9" y1="29.057" y2="26.03" gradientTransform="matrix(0.4040235,-0.4056919,0.6073752,0.602268,-17.636692,0.462492)" gradientUnits="userSpaceOnUse" xlink:href="#linearGradient3290-678"/><linearGradient id="linearGradient3223-699"><stop id="stop2599" offset="0" stop-color="#b1b1b1" stop-opacity="1"/><stop id="stop2601" offset=".5" stop-color="#fff" stop-opacity="1"/><stop id="stop2603" offset="1" stop-color="#8f8f8f" stop-opacity="1"/></linearGradient><linearGradient id="linearGradient3853" x1="30.038" x2="30.038" y1="24.99" y2="30" gradientTransform="matrix(0.4040235,-0.4056919,0.6073752,0.6022679,-17.177369,-2.1969969e-4)" gradientUnits="userSpaceOnUse" xlink:href="#linearGradient3223-699"/><linearGradient id="linearGradient3240-907"><stop id="stop2591" offset="0" stop-color="#565656" stop-opacity="1"/><stop id="stop2593" offset=".5" stop-color="#9a9a9a" stop-opacity="1"/><stop id="stop2595" offset="1" stop-color="#545454" stop-opacity="1"/></linearGradient><linearGradient id="linearGradient3851" x1="30.038" x2="30.038" y1="24.99" y2="30" gradientTransform="matrix(0.4040235,-0.4056919,0.6073752,0.6022679,-17.061661,-0.1164056)" gradientUnits="userSpaceOnUse" xlink:href="#linearGradient3240-907"/><linearGradient id="linearGradient3223-768"><stop id="stop2583" offset="0" stop-color="#b1b1b1" stop-opacity="1"/><stop id="stop2585" offset=".5" stop-color="#fff" stop-opacity="1"/><stop id="stop2587" offset="1" stop-color="#8f8f8f" stop-opacity="1"/></linearGradient><linearGradient id="linearGradient3849" x1="30.038" x2="30.038" y1="24.99" y2="30" gradientTransform="matrix(0.4040235,-0.4056919,0.6073752,0.6022679,-17.581392,0.4054707)" gradientUnits="userSpaceOnUse" xlink:href="#linearGradient3223-768"/><linearGradient id="linearGradient3240-686"><stop id="stop2575" offset="0" stop-color="#565656" stop-opacity="1"/><stop id="stop2577" offset=".5" stop-color="#9a9a9a" stop-opacity="1"/><stop id="stop2579" offset="1" stop-color="#545454" stop-opacity="1"/></linearGradient><linearGradient id="linearGradient3847" x1="30.038" x2="30.038" y1="24.99" y2="30" gradientTransform="matrix(0.4040235,-0.4056919,0.6073752,0.6022679,-17.465684,0.2892868)" gradientUnits="userSpaceOnUse" xlink:href="#linearGradient3240-686"/><linearGradient id="linearGradient3223-789"><stop id="stop2567" offset="0" stop-color="#b1b1b1" stop-opacity="1"/><stop id="stop2569" offset=".5" stop-color="#fff" stop-opacity="1"/><stop id="stop2571" offset="1" stop-color="#8f8f8f" stop-opacity="1"/></linearGradient><linearGradient id="linearGradient3845" x1="30.038" x2="30.038" y1="24.99" y2="30" gradientTransform="matrix(0.4040235,-0.4056919,0.6073752,0.6022679,-17.983472,0.8092126)" gradientUnits="userSpaceOnUse" xlink:href="#linearGradient3223-789"/><linearGradient id="linearGradient3240-279"><stop id="stop2559" offset="0" stop-color="#565656" stop-opacity="1"/><stop id="stop2561" offset=".5" stop-color="#9a9a9a" stop-opacity="1"/><stop id="stop2563" offset="1" stop-color="#545454" stop-opacity="1"/></linearGradient><linearGradient id="linearGradient3843" x1="30.038" x2="30.038" y1="24.99" y2="30" gradientTransform="matrix(0.4040235,-0.4056919,0.6073752,0.6022679,-17.867764,0.6930272)" gradientUnits="userSpaceOnUse" xlink:href="#linearGradient3240-279"/><linearGradient id="linearGradient3155-40"><stop id="stop2541" offset="0" stop-color="#181818" stop-opacity="1"/><stop id="stop2543" offset=".135" stop-color="#dbdbdb" stop-opacity="1"/><stop id="stop2545" offset=".202" stop-color="#a4a4a4" stop-opacity="1"/><stop id="stop2547" offset=".27" stop-color="#fff" stop-opacity="1"/><stop id="stop2549" offset=".447" stop-color="#8d8d8d" stop-opacity="1"/><stop id="stop2551" offset=".571" stop-color="#959595" stop-opacity="1"/><stop id="stop2553" offset=".72" stop-color="#cecece" stop-opacity="1"/><stop id="stop2555" offset="1" stop-color="#181818" stop-opacity="1"/></linearGradient><linearGradient id="linearGradient3841" x1="23.576" x2="23.576" y1="25.357" y2="31.211" gradientTransform="matrix(0.415777,-0.4174938,0.518983,0.5146192,-15.747227,2.6503673)" gradientUnits="userSpaceOnUse" spreadMethod="pad" xlink:href="#linearGradient3155-40"/></defs><metadata id="metadata7"/><g id="layer1"><g id="g3490" stroke-dasharray="none" stroke-miterlimit="4" stroke-width="1.883" display="inline" transform="matrix(0.5004324,0,0,0.5168524,0.1147464,-0.5781821)"><g id="g5022" stroke-dasharray="none" stroke-miterlimit="4" stroke-width="104.962" display="inline" transform="matrix(0.02165152,0,0,0.01485743,43.0076,42.68539)"><rect id="rect4173" width="1339.633" height="478.357" x="-1559.252" y="-150.697" fill="url(#linearGradient4532)" fill-opacity="1" fill-rule="nonzero" stroke="none" stroke-width="104.962" display="inline" opacity=".402" overflow="visible" visibility="visible" style="marker:none"/><path id="path5058" fill="url(#radialGradient4534)" fill-opacity="1" fill-rule="nonzero" stroke="none" stroke-width="104.962" d="m -219.61876,-150.68038 c 0,0 0,478.33079 0,478.33079 142.874166,0.90045 345.40022,-107.16966 345.40014,-239.196175 0,-132.026537 -159.436816,-239.134595 -345.40014,-239.134615 z" display="inline" opacity=".402" overflow="visible" visibility="visible" style="marker:none"/><path id="path5018" fill="url(#radialGradient4536)" fill-opacity="1" fill-rule="nonzero" stroke="none" stroke-width="104.962" d="m -1559.2523,-150.68038 c 0,0 0,478.33079 0,478.33079 -142.8742,0.90045 -345.4002,-107.16966 -345.4002,-239.196175 0,-132.026537 159.4368,-239.134595 345.4002,-239.134615 z" display="inline" opacity=".402" overflow="visible" visibility="visible" style="marker:none"/></g></g><path id="path2855" fill="url(#linearGradient4194)" fill-opacity="1" stroke="url(#linearGradient4196)" stroke-dasharray="none" stroke-linecap="round" stroke-linejoin="round" stroke-miterlimit="4" stroke-opacity="1" stroke-width="1" d="m 3.5133625,0.49999968 c 4.1393458,0.002518 12.8294425,0.007809 16.9687885,0.010328 -0.0037,6.04861402 0.02118,15.96248032 0.01751,21.98982332 -5.666565,-0.0034 -11.3331314,-0.0069 -16.9996976,-0.01035 0.00447,-7.329933 0.00893,-14.659869 0.013397,-21.98980333 z" display="inline"/><path id="path2422" fill="#0c0c0c" fill-opacity="1" fill-rule="evenodd" stroke="none" d="m 19.027856,12.429415 c -0.08415,-0.04997 -0.14927,-0.03697 -0.192287,-0.0092 l -5.729561,3.680067 -1.054515,0.679216 -0.03247,0.01374 -1.248484,2.837694 3.094081,0.094 0.02569,-0.01734 1.061294,-0.675616 5.728135,-3.711803 c 0.172073,-0.111212 -0.100069,-0.848272 -0.610477,-1.656268 -0.382808,-0.605994 -0.788946,-1.084627 -1.041408,-1.234528 z" opacity=".15"/><g id="g4198" fill="#999" transform="matrix(1.0195441,0,0,1,32.167123,7.773339)"><path id="path6035" fill="#999" fill-opacity="1" stroke="none" d="m -25.665515,-2.7733386 1.124072,0 0,1 -1.124072,0 0,-1 z" display="inline" opacity=".7"/><path id="path6033" fill="#999" fill-opacity="1" stroke="none" d="m -24.388326,-2.7733386 1.060612,0 0,1 -1.060612,0 0,-1 z" display="inline" opacity=".7"/><path id="path6031" fill="#999" fill-opacity="1" stroke="none" d="m -23.174597,-2.7733386 0.933684,0 0,1 -0.933684,0 0,-1 z" display="inline" opacity=".7"/><path id="path6029" fill="#999" fill-opacity="1" stroke="none" d="m -22.087797,-2.7733386 0.410114,0 0,1 -0.410114,0 0,-1 z" display="inline" opacity=".7"/><path id="path6027" fill="#999" fill-opacity="1" stroke="none" d="m -21.524561,-2.7733386 0.917815,0 0,1 -0.917815,0 0,-1 z" display="inline" opacity=".7"/><path id="path6025" fill="#999" fill-opacity="1" stroke="none" d="m -20.453624,-2.7733386 2.377462,0 0,1 -2.377462,0 0,-1 z" display="inline" opacity=".7"/><path id="path6023" fill="#999" fill-opacity="1" stroke="none" d="m -17.923045,-2.7733386 1.806297,0 0,1 -1.806297,0 0,-1 z" display="inline" opacity=".7"/><path id="path6017" fill="#999" fill-opacity="1" stroke="none" d="m -25.665515,3.2266614 1.124072,0 0,1 -1.124072,0 0,-1 z" display="inline" opacity=".7"/><path id="path6015" fill="#999" fill-opacity="1" stroke="none" d="m -24.388327,3.2266614 1.060612,0 0,1 -1.060612,0 0,-1 z" display="inline" opacity=".7"/><path id="path6013" fill="#999" fill-opacity="1" stroke="none" d="m -23.174598,3.2266614 0.933683,0 0,1 -0.933683,0 0,-1 z" display="inline" opacity=".7"/><path id="path6011" fill="#999" fill-opacity="1" stroke="none" d="m -22.087799,3.2266614 0.410114,0 0,1 -0.410114,0 0,-1 z" display="inline" opacity=".7"/><path id="path6009" fill="#999" fill-opacity="1" stroke="none" d="m -21.524563,3.2266614 0.917814,0 0,1 -0.917814,0 0,-1 z" display="inline" opacity=".7"/><path id="path6007" fill="#999" fill-opacity="1" stroke="none" d="m -20.453627,3.2266614 2.377461,0 0,1 -2.377461,0 0,-1 z" display="inline" opacity=".7"/><path id="path6005" fill="#999" fill-opacity="1" stroke="none" d="m -17.923049,3.2266614 1.806296,0 0,1 -1.806296,0 0,-1 z" display="inline" opacity=".7"/><path id="path6003" fill="#999" fill-opacity="1" stroke="none" d="m -15.963631,3.2266614 0.552901,0 0,1 -0.552901,0 0,-1 z" display="inline" opacity=".7"/><path id="path6001" fill="#999" fill-opacity="1" stroke="none" d="m -15.257608,3.2266614 1.092339,0 0,1 -1.092339,0 0,-1 z" display="inline" opacity=".7"/><path id="path5999" fill="#999" fill-opacity="1" stroke="none" d="m -25.665515,-0.77333856 1.742834,0 0,1 -1.742834,0 0,-1 z" display="inline" opacity=".7"/><path id="path5997" fill="#999" fill-opacity="1" stroke="none" d="m -23.76361,-0.77333856 0.838487,0 0,1 -0.838487,0 0,-1 z" display="inline" opacity=".7"/><path id="path5995" fill="#999" fill-opacity="1" stroke="none" d="m -22.766052,-0.77333856 0.394245,0 0,1 -0.394245,0 0,-1 z" display="inline" opacity=".7"/><path id="path5993" fill="#999" fill-opacity="1" stroke="none" d="m -22.212735,-0.77333856 0.759159,0 0,1 -0.759159,0 0,-1 z" display="inline" opacity=".7"/><path id="path5991" fill="#999" fill-opacity="1" stroke="none" d="m -21.29451,-0.77333856 0.759159,0 0,1 -0.759159,0 0,-1 z" display="inline" opacity=".7"/><path id="path5989" fill="#999" fill-opacity="1" stroke="none" d="m -20.376281,-0.77333856 1.219264,0 0,1 -1.219264,0 0,-1 z" display="inline" opacity=".7"/><path id="path5987" fill="#999" fill-opacity="1" stroke="none" d="m -18.99795,-0.77333856 1.600045,0 0,1 -1.600045,0 0,-1 z" display="inline" opacity=".7"/><path id="path5985" fill="#999" fill-opacity="1" stroke="none" d="m -17.238834,-0.77333856 1.076471,0 0,1 -1.076471,0 0,-1 z" display="inline" opacity=".7"/><path id="path5983" fill="#999" fill-opacity="1" stroke="none" d="m -16.003291,-0.77333856 0.251453,0 0,1 -0.251453,0 0,-1 z" display="inline" opacity=".7"/><path id="path5981" fill="#999" fill-opacity="1" stroke="none" d="m -25.665515,1.2266614 1.996685,0 0,1 -1.996685,0 0,-1 z" display="inline" opacity=".7"/><path id="path5979" fill="#999" fill-opacity="1" stroke="none" d="m -23.512309,1.2266614 2.139471,0 0,1 -2.139471,0 0,-1 z" display="inline" opacity=".7"/><path id="path5977" fill="#999" fill-opacity="1" stroke="none" d="m -21.216317,1.2266614 0.854355,0 0,1 -0.854355,0 0,-1 z" display="inline" opacity=".7"/><path id="path5975" fill="#999" fill-opacity="1" stroke="none" d="m -20.205441,1.2266614 2.012548,0 0,1 -2.012548,0 0,-1 z" display="inline" opacity=".7"/><path id="path5973" fill="#999" fill-opacity="1" stroke="none" d="m -16.501932,1.2266614 0.537037,0 0,1 -0.537037,0 0,-1 z" display="inline" opacity=".7"/><path id="path5971" fill="#999" fill-opacity="1" stroke="none" d="m -18.036372,1.2266614 1.377919,0 0,1 -1.377919,0 0,-1 z" display="inline" opacity=".7"/><path id="path5969" fill="#999" fill-opacity="1" stroke="none" d="m -15.808375,1.2266614 0.314918,0 0,1 -0.314918,0 0,-1 z" display="inline" opacity=".7"/><path id="path5967" fill="#999" fill-opacity="1" stroke="none" d="m -15.336936,1.2266614 0.854355,0 0,1 -0.854355,0 0,-1 z" display="inline" opacity=".7"/><path id="path5965" fill="#999" fill-opacity="1" stroke="none" d="m -25.665515,9.2266614 1.996686,0 0,0.9999996 -1.996686,0 0,-0.9999996 z" display="inline" opacity=".7"/><path id="path5963" fill="#999" fill-opacity="1" stroke="none" d="m -23.512309,9.2266614 2.139473,0 0,0.9999996 -2.139473,0 0,-0.9999996 z" display="inline" opacity=".7"/><path id="path5961" fill="#999" fill-opacity="1" stroke="none" d="m -21.216315,9.2266614 0.854355,0 0,0.9999996 -0.854355,0 0,-0.9999996 z" display="inline" opacity=".7"/><path id="path5959" fill="#999" fill-opacity="1" stroke="none" d="m -20.205439,9.2266614 2.012549,0 0,0.9999996 -2.012549,0 0,-0.9999996 z" display="inline" opacity=".7"/><path id="path5957" fill="#999" fill-opacity="1" stroke="none" d="m -16.501929,9.2266614 0.537037,0 0,0.9999996 -0.537037,0 0,-0.9999996 z" display="inline" opacity=".7"/><path id="path5955" fill="#999" fill-opacity="1" stroke="none" d="m -18.036369,9.2266614 1.377919,0 0,0.9999996 -1.377919,0 0,-0.9999996 z" display="inline" opacity=".7"/><path id="path5953" fill="#999" fill-opacity="1" stroke="none" d="m -15.808371,9.2266614 0.314918,0 0,0.9999996 -0.314918,0 0,-0.9999996 z" display="inline" opacity=".7"/><path id="path5951" fill="#999" fill-opacity="1" stroke="none" d="m -15.336932,9.2266614 0.854355,0 0,0.9999996 -0.854355,0 0,-0.9999996 z" display="inline" opacity=".7"/><path id="path5949" fill="#999" fill-opacity="1" stroke="none" d="m -25.665515,5.2266614 1.441384,0 0,1 -1.441384,0 0,-1 z" display="inline" opacity=".7"/><path id="path5947" fill="#999" fill-opacity="1" stroke="none" d="m -24.071009,5.2266614 2.393326,0 0,1 -2.393326,0 0,-1 z" display="inline" opacity=".7"/><path id="path5945" fill="#999" fill-opacity="1" stroke="none" d="m -21.524561,5.2266614 1.155799,0 0,1 -1.155799,0 0,-1 z" display="inline" opacity=".7"/><path id="path5943" fill="#999" fill-opacity="1" stroke="none" d="m -18.986049,5.2266614 0.917816,0 0,1 -0.917816,0 0,-1 z" display="inline" opacity=".7"/><path id="path5941" fill="#999" fill-opacity="1" stroke="none" d="m -17.915112,5.2266614 1.473117,0 0,1 -1.473117,0 0,-1 z" display="inline" opacity=".7"/><path id="path5939" fill="#999" fill-opacity="1" stroke="none" d="m -16.288879,5.2266614 2.393331,0 0,1 -2.393331,0 0,-1 z" display="inline" opacity=".7"/><path id="path5937" fill="#999" fill-opacity="1" stroke="none" d="m -20.215641,5.2266614 1.076476,0 0,1 -1.076476,0 0,-1 z" display="inline" opacity=".7"/><path id="path5935" fill="#999" fill-opacity="1" stroke="none" d="m -25.665515,7.2266614 1.806297,0 0,1 -1.806297,0 0,-1 z" display="inline" opacity=".7"/><path id="path5933" fill="#999" fill-opacity="1" stroke="none" d="m -23.710065,7.2266614 0.56877,0 0,1 -0.56877,0 0,-1 z" display="inline" opacity=".7"/><path id="path5931" fill="#999" fill-opacity="1" stroke="none" d="m -22.992143,7.2266614 1.298596,0 0,1 -1.298596,0 0,-1 z" display="inline" opacity=".7"/><path id="path5929" fill="#999" fill-opacity="1" stroke="none" d="m -21.544395,7.2266614 0.886087,0 0,1 -0.886087,0 0,-1 z" display="inline" opacity=".7"/><path id="path5927" fill="#999" fill-opacity="1" stroke="none" d="m -20.509155,7.2266614 0.886082,0 0,1 -0.886082,0 0,-1 z" display="inline" opacity=".7"/><path id="path5925" fill="#999" fill-opacity="1" stroke="none" d="m -19.473916,7.2266614 1.282728,0 0,1 -1.282728,0 0,-1 z" display="inline" opacity=".7"/><path id="path5923" fill="#999" fill-opacity="1" stroke="none" d="m -18.042041,7.2266614 0.267326,0 0,1 -0.267326,0 0,-1 z" display="inline" opacity=".7"/><path id="path5921" fill="#999" fill-opacity="1" stroke="none" d="m -17.625563,7.2266614 1.663505,0 0,1 -1.663505,0 0,-1 z" display="inline" opacity=".7"/><path id="path5919" fill="#999" fill-opacity="1" stroke="none" d="m -15.812906,7.2266614 0.886087,0 0,1 -0.886087,0 0,-1 z" display="inline" opacity=".7"/><path id="path5917" fill="#999" fill-opacity="1" stroke="none" d="m -25.665515,11.226661 0.727427,0 0,1 -0.727427,0 0,-1 z" display="inline" opacity=".7"/><path id="path5915" fill="#999" fill-opacity="1" stroke="none" d="m -24.749835,11.226661 2.647178,0 0,1 -2.647178,0 0,-1 z" display="inline" opacity=".7"/><path id="path6838" fill="#999" fill-opacity="1" stroke="none" d="m -18.374424,11.226661 -0.727427,0 0,1 0.727427,0 0,-1 z" display="inline" opacity=".7"/><path id="path6840" fill="#999" fill-opacity="1" stroke="none" d="m -19.290104,11.226661 -2.647178,0 0,1 2.647178,0 0,-1 z" display="inline" opacity=".7"/></g><g id="g8626" transform="matrix(0.821403,0,0,0.8233928,10.976317,6.2714886)"><path id="path3041" fill="url(#linearGradient3841)" fill-opacity="1" stroke="#0c0c0c" stroke-dasharray="none" stroke-dashoffset="0" stroke-linecap="butt" stroke-linejoin="round" stroke-miterlimit="4" stroke-opacity="1" stroke-width=".608" d="m 2.0488085,11.037368 c 0.2865424,-0.207707 1.1479509,0.256388 1.9603385,1.061945 0.8104458,0.803629 1.2601996,1.641331 1.0575577,1.930575 -7.708e-4,0.0011 0.01977,0.01774 0.01898,0.01882 L 15.224149,3.8683779 C 15.481557,3.6099071 15.011041,2.7247557 14.172862,1.893626 13.334685,1.0624962 12.444681,0.59856571 12.187272,0.85703737 L 2.0488085,11.037368 z"/><path id="path3043" fill="#ffb6ed" fill-opacity="1" stroke="#e28ccd" stroke-dasharray="none" stroke-dashoffset="0" stroke-linecap="butt" stroke-linejoin="round" stroke-miterlimit="4" stroke-opacity="1" stroke-width=".608" d="m 10.565423,2.4840909 c 0.286542,-0.2077065 1.147951,0.2563879 1.960338,1.0619443 0.810445,0.8036291 1.260199,1.6413295 1.057557,1.9305744 -7.69e-4,0.0011 0.01977,0.017738 0.01898,0.018821 L 15.154234,3.9383089 C 15.562715,3.5297289 15.124956,2.8454879 14.172862,1.893626 13.360476,1.0880699 12.499066,0.6239749 12.212525,0.83168148 l -0.02525,0.0253559 -1.621849,1.62705352 z" opacity=".8"/><path id="path3045" fill="#0c0c0c" fill-opacity="1" stroke="none" d="m 2.0488079,11.037368 c 0.286543,-0.207708 1.1479512,0.256388 1.960339,1.061943 0.8104449,0.80363 1.2601992,1.641332 1.0575579,1.930577 -7.714e-4,0.0011 0.01977,0.01774 0.01898,0.01882 l 6.9820302,-7.0108637 0.02525,-0.025356 c 7.9e-4,-0.00108 -0.01975,-0.01772 -0.01898,-0.01882 C 12.276628,6.7044221 11.826873,5.8667226 11.01643,5.0630931 10.204041,4.2575368 9.3426319,3.7934425 9.0560897,4.0011493 l -0.025251,0.025355 -6.9820304,7.0108637 z" opacity=".6"/><path id="path3047" fill="url(#linearGradient3843)" fill-opacity="1" stroke="none" d="m 9.1785348,3.8767048 c 0.2865413,-0.2077068 1.1479522,0.2563879 1.9603392,1.0619443 0.810445,0.8036291 1.2602,1.6413294 1.057556,1.9305753 -7.71e-4,0.0011 0.01977,0.017736 0.01898,0.01882 l 0.126256,-0.1267795 c 7.9e-4,-0.00108 -0.01975,-0.01772 -0.01898,-0.01882 C 12.525331,6.4531992 12.075576,5.6154986 11.26513,4.8118704 10.452743,4.0063135 9.5913335,3.542219 9.3047918,3.7499256 l -0.126257,0.1267792 z"/><path id="path3049" fill="url(#linearGradient3845)" fill-opacity="1" stroke="none" d="m 9.0628273,3.9928895 c 0.2865436,-0.2077068 1.1479527,0.2563878 1.9603397,1.061944 0.810444,0.8036294 1.2602,1.6413292 1.057556,1.9305742 -7.71e-4,0.0011 0.01977,0.017738 0.01898,0.018822 L 12.22596,6.8774498 c 7.9e-4,-0.00108 -0.01975,-0.017721 -0.01898,-0.018821 C 12.409623,6.569384 11.95987,5.7316836 11.149423,4.9280545 10.337036,4.1224982 9.4756273,3.6584033 9.1890844,3.8661101 L 9.0628273,3.9928895 z"/><path id="path3051" fill="url(#linearGradient3847)" fill-opacity="1" stroke="none" d="m 9.5806143,3.4729643 c 0.2865426,-0.2077069 1.1479517,0.2563872 1.9603387,1.0619442 0.810446,0.803629 1.2602,1.6413292 1.057558,1.9305747 -7.73e-4,0.0011 0.01977,0.017737 0.01898,0.01882 l 0.126258,-0.1267784 c 7.91e-4,-0.00108 -0.01975,-0.017721 -0.01898,-0.01882 C 12.927411,6.0494594 12.477656,5.2117588 11.66721,4.4081298 10.854824,3.6025731 9.9934151,3.1384786 9.7068717,3.3461854 L 9.5806143,3.4729643 z"/><path id="path3053" fill="url(#linearGradient3849)" fill-opacity="1" stroke="none" d="m 9.4649071,3.5891488 c 0.2865435,-0.207707 1.1479529,0.2563877 1.9603379,1.061944 0.810447,0.8036298 1.260201,1.6413294 1.057558,1.9305748 -7.69e-4,0.0011 0.01977,0.017737 0.01898,0.018821 l 0.126257,-0.12678 c 7.9e-4,-0.00108 -0.01975,-0.01772 -0.01898,-0.01882 C 12.811705,6.1656438 12.361949,5.3279425 11.551504,4.5243147 10.739118,3.718758 9.877708,3.254663 9.5911645,3.46237 L 9.4649071,3.5891488 z"/><path id="path3055" fill="url(#linearGradient3851)" fill-opacity="1" stroke="none" d="M 9.9846388,3.0672723 C 10.27118,2.8595657 11.13259,3.3236601 11.944976,4.1292168 c 0.810446,0.8036288 1.260201,1.641329 1.057558,1.9305741 -7.7e-4,0.0011 0.01977,0.017738 0.01898,0.018821 L 13.14777,5.9518328 c 7.92e-4,-0.00108 -0.01975,-0.017721 -0.01898,-0.018821 C 13.331434,5.6437674 12.881679,4.8060668 12.071233,4.0024374 11.258848,3.1968815 10.397438,2.7327869 10.110895,2.9404937 L 9.9846388,3.0672723 z"/><path id="path3057" fill="url(#linearGradient3853)" fill-opacity="1" stroke="none" d="m 9.8689318,3.1834569 c 0.2865412,-0.2077072 1.1479512,0.2563879 1.9603392,1.0619447 0.810444,0.8036283 1.260198,1.6413291 1.057556,1.9305739 -7.71e-4,0.0011 0.01977,0.017737 0.01898,0.018821 l 0.126258,-0.1267782 c 7.89e-4,-0.00108 -0.01975,-0.017722 -0.01898,-0.018821 C 13.215727,5.7599515 12.765972,4.9222512 11.955527,4.1186224 11.143141,3.313066 10.281731,2.848971 9.9951884,3.0566783 L 9.8689318,3.1834569 z"/><path id="path3059" fill="url(#linearGradient3855)" fill-opacity="1" fill-rule="evenodd" stroke="url(#linearGradient3857)" stroke-dasharray="none" stroke-linecap="butt" stroke-linejoin="miter" stroke-miterlimit="4" stroke-opacity="1" stroke-width=".608" d="m 0.25980529,15.79419 4.77185621,-1.725488 0.039308,-0.03926 C 5.2736124,13.740202 4.8185731,12.902156 4.0081274,12.098526 3.1957395,11.29297 2.335449,10.831246 2.0489062,11.038953 L 0.25980529,15.79419 z"/><path id="path3061" fill="#0c0c0c" fill-opacity="1" fill-rule="evenodd" stroke="#0c0c0c" stroke-dasharray="none" stroke-linecap="butt" stroke-linejoin="miter" stroke-miterlimit="4" stroke-opacity="1" stroke-width=".608" d="M 0.7444326,14.506276 0.25922075,15.788967 1.560593,15.315574 C 1.446907,15.182439 1.3413094,15.047739 1.2062351,14.913801 1.0507282,14.759602 0.89915498,14.633134 0.7444326,14.506276 z"/></g></g></svg>