<svg xmlns="http://www.w3.org/2000/svg" xmlns:svg="http://www.w3.org/2000/svg" xmlns:xlink="http://www.w3.org/1999/xlink" id="svg6955" width="24" height="24" version="1.1"><defs id="defs6957"><linearGradient id="linearGradient4232"><stop id="stop4234" offset="0" stop-color="#8cd5ff" stop-opacity="1"/><stop id="stop4236" offset=".262" stop-color="#64baff" stop-opacity="1"/><stop id="stop4238" offset=".705" stop-color="#3689e6" stop-opacity="1"/><stop id="stop4240" offset="1" stop-color="#0d52bf" stop-opacity="1"/></linearGradient><linearGradient id="linearGradient4221"><stop id="stop4223" offset="0" stop-color="#d1ff82" stop-opacity="1"/><stop id="stop4226" offset=".262" stop-color="#9bdb4d" stop-opacity="1"/><stop id="stop4228" offset=".661" stop-color="#68b723" stop-opacity="1"/><stop id="stop4230" offset="1" stop-color="#3a9104" stop-opacity="1"/></linearGradient><linearGradient id="linearGradient3853"><stop id="stop3855" offset="0" stop-color="#000" stop-opacity="1"/><stop id="stop3857" offset="1" stop-color="#000" stop-opacity="0"/></linearGradient><linearGradient id="linearGradient4546"><stop id="stop4548" offset="0" stop-color="#fff" stop-opacity="1"/><stop id="stop4550" offset=".333" stop-color="#fff" stop-opacity=".235"/><stop id="stop4552" offset=".951" stop-color="#fff" stop-opacity=".157"/><stop id="stop4554" offset="1" stop-color="#fff" stop-opacity=".392"/></linearGradient><linearGradient id="linearGradient3944" x1="16" x2="16" y1="12" y2="28" gradientUnits="userSpaceOnUse" xlink:href="#linearGradient4546"/><radialGradient id="radialGradient3950" cx="16.584" cy="5.825" r="13.5" fx="16.584" fy="5.825" gradientTransform="matrix(7.8155022e-8,3.4259259,4.4444444,-1.013903e-7,-13.88889,-55.814815)" gradientUnits="userSpaceOnUse" xlink:href="#linearGradient4221"/><radialGradient id="radialGradient3954" cx="16.876" cy="6.95" r="13.5" fx="16.876" fy="6.95" gradientTransform="matrix(-7.8155022e-8,3.4259259,-4.4444444,-1.013903e-7,45.88889,-48.814815)" gradientUnits="userSpaceOnUse" xlink:href="#linearGradient4232"/><clipPath id="clipPath3075" clipPathUnits="userSpaceOnUse"><path id="path3077" fill="#000" fill-opacity="1" stroke="none" d="M 9.5,15 C 6.4443514,15 4,17.444351 4,20.5 l 0,1 C 4,24.555649 6.4443514,27 9.5,27 l 6,0 c 0.219638,0 0.431898,-0.0097 0.625,-0.03125 l 0.21875,-0.03125 0.1875,0.15625 c 0.904516,0.812057 2.163157,0.95166 3.34375,0.59375 -0.424928,-0.320003 -0.881722,-0.595637 -1.25,-1 L 18.25,26.28125 18.71875,25.9375 C 20.101099,24.936953 21,23.340469 21,21.5 l 0,-1 C 21,17.444351 18.555649,15 15.5,15 z"/></clipPath><linearGradient id="linearGradient3081" x1="16" x2="16" y1="12" y2="28" gradientUnits="userSpaceOnUse" xlink:href="#linearGradient4546"/><radialGradient id="radialGradient3859" cx="13.5" cy="21.5" r="9.5" fx="13.5" fy="21.5" gradientTransform="matrix(1,0,0,0.26315789,0,15.842105)" gradientUnits="userSpaceOnUse" xlink:href="#linearGradient3853"/></defs><metadata id="metadata6960"/><path id="path3083" fill="url(#radialGradient3859)" fill-opacity="1" stroke="none" d="m 23,21.5 a 9.5,2.5 0 1 1 -19,0 9.5,2.5 0 1 1 19,0 z" opacity=".2" transform="matrix(0.89473684,0,0,1.2,1.4210526,-4.8)"/><path id="path3946" fill="url(#radialGradient3950)" fill-opacity="1" stroke="#206b00" stroke-opacity=".498" d="m 13.5,1.5 c 3.324,0 6,2.676 6,6 l 0,1 c 0,3.324 -2.676,6 -6,6 l -6,0 c -0.229086,0 -0.465233,-0.0065 -0.6875,-0.03125 -1.253055,1.124969 -3.150019,1.387664 -4.6875,0.5 C 2.09777,14.95303 2.08922,14.92251 2.0625,14.90625 2.782861,14.492545 3.424622,13.975506 4,13.34375 2.496476,12.255496 1.5,10.506048 1.5,8.5 l 0,-1 c 0,-3.324 2.676,-6 6,-6 z"/><path id="path3079" fill="none" stroke="url(#linearGradient3081)" stroke-dasharray="none" stroke-miterlimit="4" stroke-opacity=".498" stroke-width="2" d="M 9.5,15 C 6.4443514,15 4,17.444351 4,20.5 l 0,1 C 4,24.555649 6.4443514,27 9.5,27 l 6,0 c 0.219638,0 0.431898,-0.0097 0.625,-0.03125 l 0.21875,-0.03125 0.1875,0.15625 c 0.904516,0.812057 2.163157,0.95166 3.34375,0.59375 -0.424928,-0.320003 -0.881722,-0.595637 -1.25,-1 L 18.25,26.28125 18.71875,25.9375 C 20.101099,24.936953 21,23.340469 21,21.5 l 0,-1 C 21,17.444351 18.555649,15 15.5,15 z" clip-path="url(#clipPath3075)" transform="matrix(-1,0,0,1,23,-13)"/><path id="rect3117" fill="url(#radialGradient3954)" fill-opacity="1" stroke="#002e99" stroke-opacity=".498" d="m 10.5,8.5 c -3.324,0 -6,2.676 -6,6 l 0,1 c 0,3.324 2.676,6 6,6 l 6,0 c 0.229086,0 0.465233,-0.0065 0.6875,-0.03125 1.253055,1.124969 3.150019,1.387664 4.6875,0.5 0.02723,-0.01572 0.03578,-0.04624 0.0625,-0.0625 C 21.217139,21.492545 20.575378,20.975506 20,20.34375 21.503524,19.255496 22.5,17.506048 22.5,15.5 l 0,-1 c 0,-3.324 -2.676,-6 -6,-6 z"/><path id="path3930" fill="none" stroke="url(#linearGradient3944)" stroke-dasharray="none" stroke-miterlimit="4" stroke-opacity=".498" stroke-width="2" d="M 9.5,15 C 6.4443514,15 4,17.444351 4,20.5 l 0,1 C 4,24.555649 6.4443514,27 9.5,27 l 6,0 c 0.219638,0 0.431898,-0.0097 0.625,-0.03125 l 0.21875,-0.03125 0.1875,0.15625 c 0.904516,0.812057 2.163157,0.95166 3.34375,0.59375 -0.424928,-0.320003 -0.881722,-0.595637 -1.25,-1 L 18.25,26.28125 18.71875,25.9375 C 20.101099,24.936953 21,23.340469 21,21.5 l 0,-1 C 21,17.444351 18.555649,15 15.5,15 z" clip-path="url(#clipPath3075)" transform="translate(1,-6)"/><g id="g3069" transform="translate(1,-1)"><path id="path3963" fill="#fff" fill-opacity=".498" stroke="none" d="m 8,18 0,2 2,0 0,-2 -2,0 z m 3,0 0,2 2,0 0,-2 -2,0 z m 3,0 0,2 2,0 0,-2 -2,0 z" opacity=".4"/><path id="rect3956" fill="#002e99" fill-opacity=".498" stroke="none" d="m 8,17 0,2 2,0 0,-2 -2,0 z m 3,0 0,2 2,0 0,-2 -2,0 z m 3,0 0,2 2,0 0,-2 -2,0 z"/></g></svg>