<svg xmlns="http://www.w3.org/2000/svg" xmlns:svg="http://www.w3.org/2000/svg" xmlns:xlink="http://www.w3.org/1999/xlink" id="svg3426" width="24" height="24" version="1.1"><defs id="defs3428"><radialGradient id="radialGradient3152" cx="4.993" cy="43.5" r="2.5" fx="4.993" fy="43.5" gradientTransform="matrix(2.003784,0,0,1.4,27.98813,-17.4)" gradientUnits="userSpaceOnUse" xlink:href="#linearGradient3688-166-749"/><linearGradient id="linearGradient3688-166-749"><stop id="stop2883" offset="0" stop-color="#181818" stop-opacity="1"/><stop id="stop2885" offset="1" stop-color="#181818" stop-opacity="0"/></linearGradient><radialGradient id="radialGradient3154" cx="4.993" cy="43.5" r="2.5" fx="4.993" fy="43.5" gradientTransform="matrix(2.003784,0,0,1.4,-20.01187,-104.4)" gradientUnits="userSpaceOnUse" xlink:href="#linearGradient3688-464-309"/><linearGradient id="linearGradient3688-464-309"><stop id="stop2889" offset="0" stop-color="#181818" stop-opacity="1"/><stop id="stop2891" offset="1" stop-color="#181818" stop-opacity="0"/></linearGradient><linearGradient id="linearGradient3156" x1="25.058" x2="25.058" y1="47.028" y2="39.999" gradientUnits="userSpaceOnUse" xlink:href="#linearGradient3702-501-757"/><linearGradient id="linearGradient3702-501-757"><stop id="stop2895" offset="0" stop-color="#181818" stop-opacity="0"/><stop id="stop2897" offset=".5" stop-color="#181818" stop-opacity="1"/><stop id="stop2899" offset="1" stop-color="#181818" stop-opacity="0"/></linearGradient><linearGradient id="linearGradient3924-64"><stop id="stop3926-3-6" offset="0" stop-color="#fff" stop-opacity="1"/><stop id="stop3928-0" offset="0" stop-color="#fff" stop-opacity=".235"/><stop id="stop3930-3-59" offset="1" stop-color="#fff" stop-opacity=".157"/><stop id="stop3932-0" offset="1" stop-color="#fff" stop-opacity=".392"/></linearGradient><linearGradient id="linearGradient3101" x1="24" x2="24" y1="6.591" y2="41.414" gradientTransform="matrix(0.45945947,0,0,0.45945947,0.9742189,0.9717506)" gradientUnits="userSpaceOnUse" xlink:href="#linearGradient3924-64"/><linearGradient id="linearGradient2867-449-88-871-390-598-476-591-434-148-57-177-8-3-3-6-4-8-8-8-5-7-8"><stop id="stop3750-1-0-7-6-6-1-3-9-3-9-2" offset="0" stop-color="#404648" stop-opacity="1"/><stop id="stop3754-1-8-5-2-7-6-7-1-9-1-0" offset="1" stop-color="#0c1011" stop-opacity="1"/></linearGradient><radialGradient id="radialGradient3988-3-3" cx="6.953" cy="9.957" r="12.672" fx="6.953" fy="9.957" gradientTransform="matrix(0,2.8928881,-3.5515428,0,47.767971,-26.609032)" gradientUnits="userSpaceOnUse" xlink:href="#linearGradient2867-449-88-871-390-598-476-591-434-148-57-177-8-3-3-6-4-8-8-8-5-7-8"/></defs><metadata id="metadata3431"/><g id="g2036" display="inline" transform="matrix(0.55,0,0,0.3333336,-1.2000011,7.33331)"><g id="g3712" opacity=".4" transform="matrix(1.052632,0,0,1.285713,-1.263158,-13.42854)"><rect id="rect2801" width="5" height="7" x="38" y="40" fill="url(#radialGradient3152)" fill-opacity="1" stroke="none"/><rect id="rect3696" width="5" height="7" x="-10" y="-47" fill="url(#radialGradient3154)" fill-opacity="1" stroke="none" transform="scale(-1,-1)"/><rect id="rect3700" width="28" height="7" x="10" y="40" fill="url(#linearGradient3156)" fill-opacity="1" stroke="none"/></g></g><rect id="rect5505-21-6" width="19" height="19" x="2.5" y="2.5" fill="url(#radialGradient3988-3-3)" fill-opacity="1" fill-rule="nonzero" stroke="none" stroke-dasharray="none" stroke-dashoffset="0" stroke-linecap="butt" stroke-linejoin="miter" stroke-miterlimit="4" stroke-opacity="1" stroke-width="1" clip-rule="nonzero" color="#000" color-interpolation="sRGB" color-interpolation-filters="linearRGB" color-rendering="auto" display="inline" enable-background="accumulate" image-rendering="auto" opacity=".9" overflow="visible" rx="1" ry="1" shape-rendering="auto" text-rendering="auto" visibility="visible" style="marker:none;isolation:auto;mix-blend-mode:normal;solid-color:#000;solid-opacity:1;filter-blend-mode:normal;filter-gaussianBlur-deviation:0"/><rect id="rect5505-21-8-1" width="19" height="19" x="2.5" y="2.5" fill="none" stroke="#000" stroke-dasharray="none" stroke-dashoffset="0" stroke-linecap="round" stroke-linejoin="round" stroke-miterlimit="4" stroke-opacity="1" stroke-width="1" color="#000" display="inline" enable-background="accumulate" opacity=".7" overflow="visible" rx="1" ry="1" visibility="visible" style="marker:none"/><path color-rendering="auto" style="line-height:125%;-inkscape-font-specification:'Open Sans Bold';isolation:auto;mix-blend-mode:normal;solid-color:#000;solid-opacity:1;marker:none;filter-blend-mode:normal;filter-gaussianBlur-deviation:0" id="path4407" fill="#000" fill-opacity="1" fill-rule="nonzero" stroke="none" stroke-dasharray="none" stroke-dashoffset="0" stroke-linecap="butt" stroke-linejoin="miter" stroke-miterlimit="4" stroke-opacity="1" stroke-width="1" d="M 6 5 A 1.0001 1.0001 0 0 0 5 6 L 5 6.3242188 C 4.9359508 6.3606949 4.8716836 6.3613981 4.8085938 6.40625 A 1.0001 1.0001 0 0 0 4.8066406 6.4082031 C 4.2713 6.7916936 3.9375 7.4672725 3.9375 8.1074219 C 3.9375 8.4492824 4.0192695 8.8252527 4.2226562 9.15625 C 4.2493277 9.1996561 4.293013 9.2227416 4.3222656 9.2636719 C 4.1140898 9.4551119 3.8858797 9.665522 3.8828125 9.9882812 A 1.0001 1.0001 0 0 0 3.8828125 9.9980469 L 3.8828125 10.761719 C 3.8809808 11.241289 4.2213387 11.635906 4.5703125 11.779297 C 4.5703125 11.779297 4.5703125 11.78125 4.5703125 11.78125 C 4.7143484 11.840554 4.8559683 11.832831 5 11.871094 L 5 12 A 1.0001 1.0001 0 0 0 6 13 L 7 13 A 1.0001 1.0001 0 0 0 8 12 L 8 11.677734 C 8.0598897 11.644553 8.1228119 11.64327 8.1816406 11.603516 C 8.7407295 11.226703 9.1171875 10.539306 9.1171875 9.8652344 C 9.1171875 9.3855071 8.9364332 8.8667419 8.5917969 8.4902344 C 8.5867602 8.4847087 8.5792799 8.4839669 8.5742188 8.4785156 C 8.6004888 8.4378368 8.6495977 8.4346297 8.671875 8.3886719 L 8.984375 7.7539062 C 9.1227099 7.47235 9.1260377 7.0974712 8.9921875 6.8125 C 8.8583373 6.5275288 8.6200736 6.3393701 8.3789062 6.2480469 A 1.0001 1.0001 0 0 0 8.3691406 6.2441406 C 8.246421 6.1991518 8.1230007 6.1725675 8 6.1347656 L 8 6 A 1.0001 1.0001 0 0 0 7 5 L 6 5 z M 9.8066406 11.087891 C 9.3671373 11.180361 9.0226498 11.607524 9.0253906 12.056641 L 9.0253906 13.056641 C 9.0330706 13.561738 9.4890436 14.01771 9.9941406 14.025391 L 13.994141 14.025391 C 14.499238 14.017691 14.95521 13.561738 14.962891 13.056641 L 14.962891 12.056641 C 14.955191 11.551544 14.499238 11.095572 13.994141 11.087891 L 9.9941406 11.087891 C 9.9318306 11.081891 9.8689509 11.081891 9.8066406 11.087891 z" clip-rule="nonzero" color="#000" color-interpolation="sRGB" color-interpolation-filters="linearRGB" display="inline" enable-background="accumulate" font-family="Open Sans" font-size="5.928" font-stretch="normal" font-style="normal" font-variant="normal" font-weight="bold" image-rendering="auto" letter-spacing="0" opacity=".15" overflow="visible" shape-rendering="auto" text-rendering="auto" visibility="visible" word-spacing="0"/><path id="path3864" fill="#000" fill-opacity="1" fill-rule="nonzero" stroke="none" d="M 6 6 L 6 6.9707031 C 5.7663658 7.0229491 5.5569286 7.1010859 5.3886719 7.2207031 C 5.0879338 7.4361364 4.9375 7.7408865 4.9375 8.1074219 C 4.9375 8.3028583 4.9804249 8.4801697 5.0742188 8.6328125 C 5.1651527 8.780802 5.2883521 8.908947 5.4394531 9.0195312 C 5.593172 9.1320314 5.8104186 9.2432525 6.0976562 9.3574219 C 6.3961926 9.4774388 6.5956288 9.5665024 6.6777344 9.6132812 A 0.11763009 0.09944686 0 0 0 6.6796875 9.6132812 C 6.7687035 9.6629183 6.831251 9.7140001 6.8710938 9.7617188 A 0.11763009 0.09944686 0 0 0 6.8710938 9.7636719 C 6.9079917 9.8065639 6.9277344 9.8491339 6.9277344 9.90625 C 6.9277344 10.018761 6.8866125 10.081359 6.8007812 10.132812 C 6.7156863 10.184772 6.5778178 10.220703 6.3789062 10.220703 C 6.2129641 10.220703 6.0248084 10.196571 5.8164062 10.150391 C 5.6118789 10.104621 5.3558575 10.023957 5.0488281 9.9082031 A 0.11763009 0.09944686 0 0 0 4.8828125 9.9980469 L 4.8828125 10.765625 A 0.11763009 0.09944686 0 0 0 4.9492188 10.855469 C 5.2617046 10.984627 5.6188863 11.045846 6 11.072266 L 6 12 L 7 12 L 7 11.023438 C 7.2386096 10.970028 7.4504412 10.890588 7.6230469 10.773438 C 7.94899 10.55376 8.1171875 10.240497 8.1171875 9.8652344 C 8.1171875 9.5941987 8.0321014 9.3566182 7.8554688 9.1640625 C 7.6761201 8.9665511 7.3666946 8.7887348 6.9277344 8.6113281 C 6.6052142 8.4811525 6.3972221 8.3885896 6.3242188 8.3476562 L 6.3222656 8.3476562 C 6.2470869 8.3023139 6.1944793 8.2547923 6.1660156 8.2167969 C 6.1386266 8.1784719 6.125 8.1370169 6.125 8.0800781 C 6.125 7.9869371 6.157438 7.9263943 6.2324219 7.8710938 C 6.3038689 7.8184027 6.4138811 7.7851572 6.5800781 7.7851562 C 6.7244069 7.7851562 6.8737347 7.8019314 7.0253906 7.8339844 C 7.1784626 7.8659164 7.3772076 7.9239004 7.6191406 8.0078125 A 0.11763009 0.09944686 0 0 0 7.7714844 7.953125 L 8.0859375 7.3125 A 0.11763009 0.09944686 0 0 0 8.0253906 7.1835938 C 7.7834995 7.0949168 7.5493812 7.024029 7.3242188 6.9746094 C 7.2210111 6.951737 7.107654 6.9534842 7 6.9414062 L 7 6 L 6 6 z M 9.9941406 12.056641 L 9.9941406 13.056641 L 13.994141 13.056641 L 13.994141 12.056641 L 9.9941406 12.056641 z" color="#000" display="inline" enable-background="accumulate" font-family="Open Sans" font-size="14.312" font-stretch="normal" font-style="normal" font-variant="normal" font-weight="bold" letter-spacing="0" opacity=".3" overflow="visible" visibility="visible" word-spacing="0" style="line-height:125%;-inkscape-font-specification:'Open Sans Bold';marker:none"/><path color-rendering="auto" style="line-height:125%;-inkscape-font-specification:'Open Sans Bold';isolation:auto;mix-blend-mode:normal;solid-color:#000;solid-opacity:1;marker:none" id="path3866" fill="#fff" fill-opacity="1" fill-rule="nonzero" stroke="none" stroke-dasharray="none" stroke-dashoffset="0" stroke-linecap="butt" stroke-linejoin="miter" stroke-miterlimit="4" stroke-opacity="1" stroke-width="5" d="m 9.9937667,11.056144 0,1 4.0000003,0 0,-1 z" clip-rule="nonzero" color="#000" color-interpolation="sRGB" color-interpolation-filters="linearRGB" display="inline" enable-background="accumulate" font-family="Open Sans" font-size="14.312" font-stretch="normal" font-style="normal" font-variant="normal" font-weight="bold" image-rendering="auto" letter-spacing="0" opacity="1" overflow="visible" shape-rendering="auto" text-rendering="auto" visibility="visible" word-spacing="0"/><path color-rendering="auto" style="line-height:125%;-inkscape-font-specification:'Open Sans Bold';isolation:auto;mix-blend-mode:normal;solid-color:#000;solid-opacity:1;marker:none" id="path4372" fill="#fff" fill-opacity="1" fill-rule="nonzero" stroke="none" stroke-dasharray="none" stroke-dashoffset="0" stroke-linecap="butt" stroke-linejoin="miter" stroke-miterlimit="4" stroke-opacity="1" stroke-width="5" d="M 6 5 L 6 5.9707031 C 5.7663658 6.0229496 5.5569286 6.1010859 5.3886719 6.2207031 C 5.0879338 6.4361364 4.9375 6.7408865 4.9375 7.1074219 C 4.9375 7.3028583 4.9804252 7.4801697 5.0742188 7.6328125 C 5.1651529 7.780802 5.2883521 7.9089469 5.4394531 8.0195312 C 5.593172 8.1320314 5.8104186 8.2432525 6.0976562 8.3574219 C 6.3961926 8.4774388 6.5956288 8.5665024 6.6777344 8.6132812 A 0.11763009 0.099446861 0 0 0 6.6796875 8.6132812 C 6.7687036 8.6629181 6.8312511 8.7140001 6.8710938 8.7617188 A 0.11763009 0.099446861 0 0 0 6.8710938 8.7636719 C 6.9079916 8.8065639 6.9277344 8.8491338 6.9277344 8.90625 C 6.9277344 9.018761 6.8866128 9.0813585 6.8007812 9.1328125 C 6.7156867 9.1847701 6.5778178 9.2207031 6.3789062 9.2207031 C 6.212964 9.2207031 6.0248084 9.1965756 5.8164062 9.1503906 C 5.6118761 9.1046192 5.3558575 9.0239568 5.0488281 8.9082031 A 0.11763009 0.099446861 0 0 0 4.8828125 8.9980469 L 4.8828125 9.765625 A 0.11763009 0.099446861 0 0 0 4.9492188 9.8554688 C 5.2617043 9.9846243 5.6188863 10.045846 6 10.072266 L 6 11 L 7 11 L 7 10.023438 C 7.2386096 9.970026 7.4504412 9.8905882 7.6230469 9.7734375 C 7.94899 9.5537611 8.1171875 9.2404974 8.1171875 8.8652344 C 8.1171875 8.5941987 8.0321013 8.3566182 7.8554688 8.1640625 C 7.6761201 7.9665511 7.3666946 7.7887348 6.9277344 7.6113281 C 6.6052142 7.4811525 6.3972221 7.3885895 6.3242188 7.3476562 L 6.3222656 7.3476562 C 6.2470901 7.3023138 6.1944793 7.2547923 6.1660156 7.2167969 C 6.1386271 7.1784722 6.125 7.1370172 6.125 7.0800781 C 6.125 6.9869366 6.1574376 6.9263943 6.2324219 6.8710938 C 6.3038686 6.8184023 6.4138811 6.7851563 6.5800781 6.7851562 C 6.7244069 6.7851562 6.8737347 6.8019311 7.0253906 6.8339844 C 7.1784626 6.8659166 7.3772076 6.9239006 7.6191406 7.0078125 A 0.11763009 0.099446861 0 0 0 7.7714844 6.953125 L 8.0859375 6.3125 A 0.11763009 0.099446861 0 0 0 8.0253906 6.1835938 C 7.7834995 6.0949168 7.5493812 6.024029 7.3242188 5.9746094 C 7.2210111 5.951737 7.107654 5.9534842 7 5.9414062 L 7 5 L 6 5 z" clip-rule="nonzero" color="#000" color-interpolation="sRGB" color-interpolation-filters="linearRGB" display="inline" enable-background="accumulate" font-family="Open Sans" font-size="5.928" font-stretch="normal" font-style="normal" font-variant="normal" font-weight="bold" image-rendering="auto" letter-spacing="0" opacity="1" overflow="visible" shape-rendering="auto" text-rendering="auto" visibility="visible" word-spacing="0"/><rect id="rect6741-9-5" width="17" height="17" x="3.501" y="3.499" fill="none" stroke="url(#linearGradient3101)" stroke-dasharray="none" stroke-dashoffset="0" stroke-linecap="round" stroke-linejoin="round" stroke-miterlimit="4" stroke-opacity="1" stroke-width="1" opacity=".3"/></svg>