<svg xmlns="http://www.w3.org/2000/svg" xmlns:svg="http://www.w3.org/2000/svg" xmlns:xlink="http://www.w3.org/1999/xlink" id="svg20870" width="48" height="48" version="1.1"><defs id="defs20872"><linearGradient id="linearGradient3381-56-2-7-5-0-8-0-0-4-6" x1="42.471" x2="42.471" y1="11.953" y2="35.582" gradientTransform="matrix(0.89189031,0,0,1.0986542,3.1206756,3.888808)" gradientUnits="userSpaceOnUse" xlink:href="#linearGradient3454-2-8-6-1-1-8-0-6-7-3"/><linearGradient id="linearGradient3454-2-8-6-1-1-8-0-6-7-3"><stop id="stop3456-4-7-9-4-0-3-6-2-9-6" offset="0" stop-color="#fff" stop-opacity="1"/><stop id="stop3458-39-0-8-61-3-8-9-0-4-7" offset=".01" stop-color="#fff" stop-opacity=".235"/><stop id="stop3460-7-5-4-1-6-6-6-2-1-4" offset=".99" stop-color="#fff" stop-opacity=".157"/><stop id="stop3462-0-5-6-6-2-1-6-0-3-1" offset="1" stop-color="#fff" stop-opacity=".392"/></linearGradient><linearGradient id="linearGradient3072-0-3-0-7-4-8-7-3-6" x1="22.935" x2="22.809" y1="49.629" y2="36.658" gradientTransform="matrix(1.1446925,0,0,0.9977536,-3.4660853,1.0988397)" gradientUnits="userSpaceOnUse" xlink:href="#linearGradient6129-963-697-142-998-580-273-0-8-4-9-0-0-0-1-3"/><linearGradient id="linearGradient6129-963-697-142-998-580-273-0-8-4-9-0-0-0-1-3"><stop id="stop2661-3-02-4-8-0-4-3-4-7" offset="0" stop-color="#0a0a0a" stop-opacity=".498"/><stop id="stop2663-2-8-06-2-4-6-4-3-8" offset="1" stop-color="#0a0a0a" stop-opacity="0"/></linearGradient><linearGradient id="linearGradient4638-4-6-8-9-9-5-8-7-2" x1="35.793" x2="35.793" y1="17.118" y2="43.761" gradientTransform="matrix(1,0,0,1.0357143,1.4680025e-5,-1.5890903)" gradientUnits="userSpaceOnUse" xlink:href="#linearGradient4632-0-6-4"/><linearGradient id="linearGradient4632-0-6-4"><stop id="stop4634-4-4-7" offset="0" stop-color="#b4cee1" stop-opacity="1"/><stop id="stop4636-3-1-5" offset="1" stop-color="#5d9fcd" stop-opacity="1"/></linearGradient><radialGradient id="radialGradient3080-2-3-9-9-8-8-9-6-1" cx="605.714" cy="486.648" r="117.143" fx="605.714" fy="486.648" gradientTransform="matrix(-0.03079083,0,0,0.02470588,23.389815,31.94164)" gradientUnits="userSpaceOnUse" xlink:href="#linearGradient5060-820-9-0-7-1-7-7-1-6-6"/><linearGradient id="linearGradient5060-820-9-0-7-1-7-7-1-6-6"><stop id="stop2681-5-4-3-6-3-8-2-6-8" offset="0" stop-color="#000" stop-opacity="1"/><stop id="stop2683-8-6-9-4-6-6-2-9-6" offset="1" stop-color="#000" stop-opacity="0"/></linearGradient><radialGradient id="radialGradient3083-4-5-6-4-5-0-5-1-0" cx="605.714" cy="486.648" r="117.143" fx="605.714" fy="486.648" gradientTransform="matrix(0.03079083,0,0,0.02470588,24.610215,31.94164)" gradientUnits="userSpaceOnUse" xlink:href="#linearGradient5060-179-2-0-3-6-2-2-8-9-8"/><linearGradient id="linearGradient5060-179-2-0-3-6-2-2-8-9-8"><stop id="stop2675-9-9-4-1-4-4-9-5-7" offset="0" stop-color="#000" stop-opacity="1"/><stop id="stop2677-1-7-2-6-1-8-3-8-0" offset="1" stop-color="#000" stop-opacity="0"/></linearGradient><linearGradient id="linearGradient3086-4-4-0-5-5-7-4-8-7" x1="302.857" x2="302.857" y1="366.648" y2="609.505" gradientTransform="matrix(0.07938856,0,0,0.02470588,-4.6932853,31.94164)" gradientUnits="userSpaceOnUse" xlink:href="#linearGradient5048-585-4-0-56-2-5-2-1-1-6"/><linearGradient id="linearGradient5048-585-4-0-56-2-5-2-1-1-6"><stop id="stop2667-5-0-7-4-7-7-2-4-6" offset="0" stop-color="#000" stop-opacity="0"/><stop id="stop2669-4-1-8-0-6-9-3-7-4" offset=".5" stop-color="#000" stop-opacity="1"/><stop id="stop2671-2-6-3-2-0-6-0-0-8" offset="1" stop-color="#000" stop-opacity="0"/></linearGradient><linearGradient id="linearGradient3381-5-5-29-4-6-5-0-4-9-2" x1="21.37" x2="21.37" y1="4.248" y2="34.143" gradientTransform="matrix(0.89189031,0,0,1.0580283,3.1207147,5.3535997)" gradientUnits="userSpaceOnUse" xlink:href="#linearGradient4507-9-2-2-3-6-9-9-4-9"/><linearGradient id="linearGradient4507-9-2-2-3-6-9-9-4-9"><stop id="stop4509-9-8-4-2-3-4-5-1-6" offset="0" stop-color="#fff" stop-opacity="1"/><stop id="stop4511-7-50-2-1-3-9-4-5-9" offset=".074" stop-color="#fff" stop-opacity=".235"/><stop id="stop4513-2-0-2-9-2-6-2-6-3" offset=".99" stop-color="#fff" stop-opacity=".157"/><stop id="stop4515-3-9-8-6-6-0-7-5-8" offset="1" stop-color="#fff" stop-opacity=".392"/></linearGradient><linearGradient id="linearGradient3089-5-2-9-8-6-8-0-7-1-8-7" x1="62.989" x2="62.989" y1="13" y2="16" gradientTransform="translate(-50.940881,-3.1315613e-7)" gradientUnits="userSpaceOnUse" xlink:href="#linearGradient4646-6-91-5-0-5-8-4-9-9"/><linearGradient id="linearGradient4646-6-91-5-0-5-8-4-9-9"><stop id="stop4648-2-4-6-6-8-7-1-1-7" offset="0" stop-color="#f9f9f9" stop-opacity="1"/><stop id="stop4650-3-8-5-3-4-5-7-4-8" offset="1" stop-color="#d8d8d8" stop-opacity="1"/></linearGradient><linearGradient id="linearGradient3104-8-8-97-4-6-2-0-1-4-0-5-8-3-5"><stop id="stop3106-5-4-3-5-0-1-61-9-2-7-3-3-1-3" offset="0" stop-color="#000" stop-opacity=".322"/><stop id="stop3108-4-3-7-8-2-4-01-9-9-0-6-4-4-0" offset="1" stop-color="#000" stop-opacity=".278"/></linearGradient><linearGradient id="linearGradient20868" x1="-51.786" x2="-51.786" y1="53.514" y2="3.634" gradientTransform="matrix(0.80749834,0,0,0.83374395,106.87671,-0.06984031)" gradientUnits="userSpaceOnUse" xlink:href="#linearGradient3104-8-8-97-4-6-2-0-1-4-0-5-8-3-5"/></defs><metadata id="metadata20875"/><g id="g8133"><path id="rect4251-0-0-1-1-9-5-2-3-2-5" fill="none" stroke="url(#linearGradient20868)" stroke-dasharray="none" stroke-dashoffset="0" stroke-linecap="butt" stroke-linejoin="miter" stroke-miterlimit="4" stroke-opacity="1" stroke-width="1" d="m 5.5000147,8.4999997 c -0.554,0 -1,0.446 -1,1 l 0,2.0000003 -1,0 c -0.554,0 -1,0.446 -1,1 l 0,6 c 0,0.554 0.446,1 1,1 l 41.0000003,0 c 0.554,0 1,-0.446 1,-1 l 0,-6 c 0,-0.554 -0.446,-1 -1,-1 l -23,0 0,-2.0000003 c 0,-0.554 -0.446,-1 -1,-1 l -15.0000003,0 z" color="#000" display="inline" enable-background="accumulate" opacity=".8" overflow="visible" visibility="visible" style="marker:none"/><path id="rect4251-4-7-62-4-4-9-2-5-6" fill="url(#linearGradient3089-5-2-9-8-6-8-0-7-1-8-7)" fill-opacity="1" fill-rule="nonzero" stroke="none" stroke-width="1" d="m 5.5000147,8.9999997 c -0.277,0 -0.5,0.223 -0.5,0.5 l 0,2.5000003 -1.5,0 c -0.277,0 -0.5,0.223 -0.5,0.5 l 0,6 c 0,0.277 0.223,0.5 0.5,0.5 l 41.0000003,0 c 0.277,0 0.5,-0.223 0.5,-0.5 l 0,-6 c 0,-0.277 -0.223,-0.5 -0.5,-0.5 l -23.5,0 0,-2.5000003 c 0,-0.277 -0.223,-0.5 -0.5,-0.5 l -15.0000003,0 z" color="#000" display="inline" enable-background="accumulate" overflow="visible" visibility="visible" style="marker:none"/><path id="rect4251-9-9-0-05-2-0-5-9-2-3" fill="none" stroke="url(#linearGradient3381-5-5-29-4-6-5-0-4-9-2)" stroke-dasharray="none" stroke-dashoffset="0" stroke-linecap="round" stroke-linejoin="round" stroke-miterlimit="4" stroke-opacity="1" stroke-width="1" d="m 5.5000147,9.4999997 0,3.0000003 -2,0 0,7 41.0000003,0 0,-7 -24,0 0,-3.0000003 -15.0000003,0 z" color="#000" display="inline" enable-background="accumulate" overflow="visible" visibility="visible" style="marker:none"/><rect id="rect4173-6-7-7-3-5-1-4-5-7" width="38.333" height="6" x="4.833" y="41" fill="url(#linearGradient3086-4-4-0-5-5-7-4-8-7)" fill-opacity="1" fill-rule="nonzero" stroke="none" stroke-width="1" display="inline" opacity=".3" overflow="visible" visibility="visible" style="marker:none"/><path id="path5058-7-9-1-3-0-3-4-8-9" fill="url(#radialGradient3083-4-5-6-4-5-0-5-1-0)" fill-opacity="1" fill-rule="nonzero" stroke="none" stroke-width="1" d="m 43.166715,41.00021 c 0,0 0,5.99967 0,5.99967 1.5856,0.0113 3.8333,-1.34422 3.8333,-3.00022 0,-1.656 -1.7695,-2.99945 -3.8333,-2.99945 z" display="inline" opacity=".3" overflow="visible" visibility="visible" style="marker:none"/><path id="path5018-8-1-1-6-9-4-9-7-5" fill="url(#radialGradient3080-2-3-9-9-8-8-9-6-1)" fill-opacity="1" fill-rule="nonzero" stroke="none" stroke-width="1" d="m 4.8333147,41.00021 c 0,0 0,5.99967 0,5.99967 -1.5856,0.0113 -3.8333,-1.34422 -3.8333,-3.00022 0,-1.656 1.7695,-2.99945 3.8333,-2.99945 z" display="inline" opacity=".3" overflow="visible" visibility="visible" style="marker:none"/><path id="path3388-1-43-0-7-6-2-7-8-5" fill="url(#linearGradient4638-4-6-8-9-9-5-8-7-2)" fill-opacity="1" stroke="none" d="m 2.1626147,15.50019 c -1.0723,0.12829 -0.4996,1.45416 -0.5851,2.19974 0.1245,0.48182 0.9275,26.17643 0.9275,26.17643 0,0.7414 0.3517,0.61579 1.2429,0.61579 13.1886003,0 27.7726003,0 40.9611003,0 0.9601,0.0231 0.7572,0.0121 0.7572,-0.62748 0,0 0.993,-27.35421 1.0285,-27.7811 0,-0.44949 0.09,-0.58338 -0.4732,-0.58338 -14.084,0 -29.7748,0 -43.8589003,0 z"/><path id="path6127-7-1-6-4-8-5-0-8-2" fill="url(#linearGradient3072-0-3-0-7-4-8-7-3-6)" fill-opacity="1" stroke="none" d="m 2.0582147,16.06515 43.8965003,4e-4 c 0.6342,0 1.0452,0.44461 1.0452,0.99737 l -1.0324,26.96037 c 0.015,0.6994 -0.2091,0.97671 -0.9459,0.96204 L 3.2408147,44.96773 c -0.6341,0 -1.2736,-0.41276 -1.2736,-0.96551 l -0.9541,-26.93932 c 0,-0.55276 0.411,-0.99775 1.0451,-0.99775 z" opacity=".4"/><path id="path4587-4-6-3-0-1-2-6-8-9" fill="none" stroke="url(#linearGradient3381-56-2-7-5-0-8-0-0-4-6)" stroke-dasharray="none" stroke-dashoffset="0" stroke-linecap="round" stroke-linejoin="miter" stroke-miterlimit="4" stroke-opacity="1" stroke-width="1" d="m 2.5000147,16.501599 c 0.016793,0.183202 0.022163,0.537823 0.03125,0.908598 0.023112,0.08973 0.025524,0.06151 0.03125,0.09735 0.011058,0.06921 0.027034,0.143566 0.03125,0.1947 0.0064,0.07761 -0.00668,0.179686 0,0.292049 0.013352,0.224726 0.045306,0.530459 0.0625,0.908598 0.034388,0.756279 0.078083,1.7745 0.125,3.017843 0.093834,2.486687 0.2030642,5.769016 0.3125,9.02108 0.2122959,6.308724 0.3945663,12.188203 0.40625,12.558123 0.1225025,0.0037 0.071108,0 0.25,0 l 40.7187503,0 c 0.0124,-0.341463 0.253182,-6.673493 0.5,-13.401821 0.126691,-3.453636 0.245386,-6.941969 0.34375,-9.572728 0.04918,-1.31538 0.09434,-2.421026 0.125,-3.212543 0.01322,-0.341237 0.02246,-0.594976 0.03125,-0.811249 l -42.9687503,0 z" color="#000" display="inline" enable-background="accumulate" opacity=".5" overflow="visible" visibility="visible" style="marker:none"/><path id="path3388-1-43-0-7-6-2-7-8-5-6" fill="none" stroke="#000" stroke-dashoffset="0" stroke-linecap="round" stroke-linejoin="round" stroke-miterlimit="4" stroke-opacity="1" stroke-width="1" d="m 2.1626147,15.50019 c -1.0723,0.12829 -0.4996,1.45416 -0.5851,2.19974 0.1245,0.48182 0.9275,26.17643 0.9275,26.17643 0,0.7414 0.3517,0.61579 1.2429,0.61579 13.1886003,0 27.7726003,0 40.9611003,0 0.9601,0.0231 0.7572,0.0121 0.7572,-0.62748 0,0 0.993,-27.35421 1.0285,-27.7811 0,-0.44949 0.09,-0.58338 -0.4732,-0.58338 -14.084,0 -29.7748,0 -43.8589003,0 z" opacity=".3"/><path font-stretch="normal" style="line-height:normal;-inkscape-font-specification:Sans;text-indent:0;text-align:start;text-decoration-line:none;text-transform:none;block-progression:tb;marker:none" id="path4048" fill="#fff" fill-opacity="1" stroke="none" stroke-width="5" d="m 32,23.555437 0,3.135395 0,9.859275 L 32,38 30.550107,38 18.950959,38 15,38 18.008529,35.444563 29.607676,25.585288 Z M 29,30 l -6,5 6,0 z" baseline-shift="baseline" color="#000" direction="ltr" display="inline" enable-background="accumulate" font-family="Sans" font-size="medium" font-style="normal" font-variant="normal" font-weight="normal" letter-spacing="normal" opacity=".3" overflow="visible" text-anchor="start" text-decoration="none" visibility="visible" word-spacing="normal" writing-mode="lr-tb"/><path id="path181" fill="#175785" fill-opacity=".553" stroke="none" stroke-width="5" d="m 32,22.555437 0,3.135395 0,9.859276 L 32,37 30.550107,37 18.950959,37 15,37 18.008529,34.444564 29.607676,24.585288 Z M 29,29 l -6,5 6,0 z" baseline-shift="baseline" color="#000" direction="ltr" display="inline" enable-background="accumulate" font-family="Sans" font-size="medium" font-stretch="normal" font-style="normal" font-variant="normal" font-weight="normal" letter-spacing="normal" overflow="visible" text-anchor="start" text-decoration="none" visibility="visible" word-spacing="normal" writing-mode="lr-tb" style="line-height:normal;-inkscape-font-specification:Sans;text-indent:0;text-align:start;text-decoration-line:none;text-transform:none;block-progression:tb;marker:none"/></g></svg>