<svg xmlns="http://www.w3.org/2000/svg" xmlns:svg="http://www.w3.org/2000/svg" xmlns:xlink="http://www.w3.org/1999/xlink" id="svg19516" width="48" height="48" version="1.1"><defs id="defs19518"><linearGradient id="linearGradient3381-56-2-7-5-0-8" x1="42.471" x2="42.471" y1="11.953" y2="35.582" gradientTransform="matrix(0.89189031,0,0,1.0580283,3.1206609,5.3536023)" gradientUnits="userSpaceOnUse" xlink:href="#linearGradient3454-2-8-6-1-1-8"/><linearGradient id="linearGradient3454-2-8-6-1-1-8"><stop id="stop3456-4-7-9-4-0-3" offset="0" stop-color="#fff" stop-opacity="1"/><stop id="stop3458-39-0-8-61-3-8" offset=".01" stop-color="#fff" stop-opacity=".235"/><stop id="stop3460-7-5-4-1-6-6" offset=".99" stop-color="#fff" stop-opacity=".157"/><stop id="stop3462-0-5-6-6-2-1" offset="1" stop-color="#fff" stop-opacity=".392"/></linearGradient><linearGradient id="linearGradient3072-0-3-0-7-4" x1="22.935" x2="22.809" y1="49.629" y2="36.658" gradientTransform="matrix(1.1446925,0,0,0.9977536,-3.4661379,1.0988398)" gradientUnits="userSpaceOnUse" xlink:href="#linearGradient6129-963-697-142-998-580-273-0-8-4-9-0"/><linearGradient id="linearGradient6129-963-697-142-998-580-273-0-8-4-9-0"><stop id="stop2661-3-02-4-8-0" offset="0" stop-color="#0a0a0a" stop-opacity=".498"/><stop id="stop2663-2-8-06-2-4" offset="1" stop-color="#0a0a0a" stop-opacity="0"/></linearGradient><linearGradient id="linearGradient4638-4-6-8-9-9" x1="35.793" x2="35.793" y1="17.118" y2="43.761" gradientTransform="matrix(1,0,0,1.0357143,2.0849371e-6,-1.5890902)" gradientUnits="userSpaceOnUse" xlink:href="#linearGradient4632-0-6-4"/><linearGradient id="linearGradient4632-0-6-4"><stop id="stop4634-4-4-7" offset="0" stop-color="#b4cee1" stop-opacity="1"/><stop id="stop4636-3-1-5" offset="1" stop-color="#5d9fcd" stop-opacity="1"/></linearGradient><radialGradient id="radialGradient3080-2-3-9-9-8" cx="605.714" cy="486.648" r="117.143" fx="605.714" fy="486.648" gradientTransform="matrix(-0.03079083,0,0,0.02470588,23.389752,31.94164)" gradientUnits="userSpaceOnUse" xlink:href="#linearGradient5060-820-9-0-7-1-7"/><linearGradient id="linearGradient5060-820-9-0-7-1-7"><stop id="stop2681-5-4-3-6-3" offset="0" stop-color="#000" stop-opacity="1"/><stop id="stop2683-8-6-9-4-6" offset="1" stop-color="#000" stop-opacity="0"/></linearGradient><radialGradient id="radialGradient3083-4-5-6-4-5" cx="605.714" cy="486.648" r="117.143" fx="605.714" fy="486.648" gradientTransform="matrix(0.03079083,0,0,0.02470588,24.610252,31.94164)" gradientUnits="userSpaceOnUse" xlink:href="#linearGradient5060-179-2-0-3-6-2"/><linearGradient id="linearGradient5060-179-2-0-3-6-2"><stop id="stop2675-9-9-4-1-4" offset="0" stop-color="#000" stop-opacity="1"/><stop id="stop2677-1-7-2-6-1" offset="1" stop-color="#000" stop-opacity="0"/></linearGradient><linearGradient id="linearGradient3086-4-4-0-5-5" x1="302.857" x2="302.857" y1="366.648" y2="609.505" gradientTransform="matrix(0.07938856,0,0,0.02470588,-4.6932879,31.94164)" gradientUnits="userSpaceOnUse" xlink:href="#linearGradient5048-585-4-0-56-2-5"/><linearGradient id="linearGradient5048-585-4-0-56-2-5"><stop id="stop2667-5-0-7-4-7" offset="0" stop-color="#000" stop-opacity="0"/><stop id="stop2669-4-1-8-0-6" offset=".5" stop-color="#000" stop-opacity="1"/><stop id="stop2671-2-6-3-2-0" offset="1" stop-color="#000" stop-opacity="0"/></linearGradient><linearGradient id="linearGradient3381-5-5-29-4-6-5" x1="21.37" x2="21.37" y1="4.248" y2="34.143" gradientTransform="matrix(0.89189031,0,0,1.0580283,3.1206621,5.3535998)" gradientUnits="userSpaceOnUse" xlink:href="#linearGradient4507-9-2-2-3-6"/><linearGradient id="linearGradient4507-9-2-2-3-6"><stop id="stop4509-9-8-4-2-3" offset="0" stop-color="#fff" stop-opacity="1"/><stop id="stop4511-7-50-2-1-3" offset=".074" stop-color="#fff" stop-opacity=".235"/><stop id="stop4513-2-0-2-9-2" offset=".99" stop-color="#fff" stop-opacity=".157"/><stop id="stop4515-3-9-8-6-6" offset="1" stop-color="#fff" stop-opacity=".392"/></linearGradient><linearGradient id="linearGradient3089-5-2-9-8-6-8-0" x1="62.989" x2="62.989" y1="13" y2="16" gradientTransform="translate(-50.940899,-2.3841858e-7)" gradientUnits="userSpaceOnUse" xlink:href="#linearGradient4646-6-91-5-0-5"/><linearGradient id="linearGradient4646-6-91-5-0-5"><stop id="stop4648-2-4-6-6-8" offset="0" stop-color="#f9f9f9" stop-opacity="1"/><stop id="stop4650-3-8-5-3-4" offset="1" stop-color="#d8d8d8" stop-opacity="1"/></linearGradient><linearGradient id="linearGradient3104-8-8-97-4-6-2-0-1-4-0"><stop id="stop3106-5-4-3-5-0-1-61-9-2-7" offset="0" stop-color="#000" stop-opacity=".322"/><stop id="stop3108-4-3-7-8-2-4-01-9-9-0" offset="1" stop-color="#000" stop-opacity=".278"/></linearGradient><linearGradient id="linearGradient19514" x1="-51.786" x2="-51.786" y1="53.514" y2="3.634" gradientTransform="matrix(0.80749834,0,0,0.83374395,106.8767,-0.06984024)" gradientUnits="userSpaceOnUse" xlink:href="#linearGradient3104-8-8-97-4-6-2-0-1-4-0"/></defs><metadata id="metadata19521"/><g id="layer1"><path id="rect4251-0-0-1-1-9-5" fill="none" stroke="url(#linearGradient19514)" stroke-dasharray="none" stroke-dashoffset="0" stroke-linecap="butt" stroke-linejoin="miter" stroke-miterlimit="4" stroke-opacity="1" stroke-width="1" d="m 5.5000021,8.4999998 c -0.554,0 -1,0.446 -1,1 l 0,2.0000002 -1,0 c -0.554,0 -1,0.446 -1,1 l 0,6 c 0,0.554 0.446,1 1,1 l 40.9999999,0 c 0.554,0 1,-0.446 1,-1 l 0,-6 c 0,-0.554 -0.446,-1 -1,-1 l -23,0 0,-2.0000002 c 0,-0.554 -0.446,-1 -1,-1 l -14.9999999,0 z" color="#000" display="inline" enable-background="accumulate" opacity=".8" overflow="visible" visibility="visible" style="marker:none"/><path d="m 5.5000021,8.9999998 c -0.277,0 -0.5,0.223 -0.5,0.5 l 0,2.5000002 -1.5,0 c -0.277,0 -0.5,0.223 -0.5,0.5 l 0,6 c 0,0.277 0.223,0.5 0.5,0.5 l 40.9999999,0 c 0.277,0 0.5,-0.223 0.5,-0.5 l 0,-6 c 0,-0.277 -0.223,-0.5 -0.5,-0.5 l -23.5,0 0,-2.5000002 c 0,-0.277 -0.223,-0.5 -0.5,-0.5 l -14.9999999,0 z" style="marker:none" id="rect4251-4-7-62-4-4" fill="url(#linearGradient3089-5-2-9-8-6-8-0)" fill-opacity="1" fill-rule="nonzero" stroke="none" stroke-width="1" color="#000" display="inline" enable-background="accumulate" overflow="visible" visibility="visible"/><path id="rect4251-9-9-0-05-2-0" fill="none" stroke="url(#linearGradient3381-5-5-29-4-6-5)" stroke-dasharray="none" stroke-dashoffset="0" stroke-linecap="round" stroke-linejoin="round" stroke-miterlimit="4" stroke-opacity="1" stroke-width="1" d="m 5.5000021,9.4999998 0,3.0000002 -2,0 0,7 40.9999999,0 0,-7 -24,0 0,-3.0000002 -14.9999999,0 z" color="#000" display="inline" enable-background="accumulate" overflow="visible" visibility="visible" style="marker:none"/><rect id="rect4173-6-7-7-3-5" width="38.333" height="6" x="4.833" y="41" fill="url(#linearGradient3086-4-4-0-5-5)" fill-opacity="1" fill-rule="nonzero" stroke="none" stroke-width="1" display="inline" opacity=".3" overflow="visible" visibility="visible" style="marker:none"/><path id="path5058-7-9-1-3-0" fill="url(#radialGradient3083-4-5-6-4-5)" fill-opacity="1" fill-rule="nonzero" stroke="none" stroke-width="1" d="m 43.166702,41.00021 c 0,0 0,5.99967 0,5.99967 1.5856,0.0113 3.8333,-1.34422 3.8333,-3.00022 0,-1.656 -1.7695,-2.99945 -3.8333,-2.99945 z" display="inline" opacity=".3" overflow="visible" visibility="visible" style="marker:none"/><path id="path5018-8-1-1-6-9" fill="url(#radialGradient3080-2-3-9-9-8)" fill-opacity="1" fill-rule="nonzero" stroke="none" stroke-width="1" d="m 4.8333321,41.00021 c 0,0 0,5.99967 0,5.99967 -1.58565,0.0113 -3.83333,-1.34422 -3.83333,-3.00022 0,-1.656 1.76947,-2.99945 3.83333,-2.99945 z" display="inline" opacity=".3" overflow="visible" visibility="visible" style="marker:none"/><path id="path3388-1-43-0-7-6" fill="url(#linearGradient4638-4-6-8-9-9)" fill-opacity="1" stroke="none" d="m 2.1626121,15.50019 c -1.07231,0.12829 -0.49959,1.45416 -0.58508,2.19974 0.12444,0.48182 0.92748,26.17643 0.92748,26.17643 0,0.7414 0.35172,0.61579 1.24292,0.61579 13.1885599,0 27.7725299,0 40.9610699,0 0.9601,0.0231 0.7572,0.0121 0.7572,-0.62748 0,0 0.993,-27.35421 1.0285,-27.7811 0,-0.44949 0.09,-0.58338 -0.4732,-0.58338 -14.08401,0 -29.77484,0 -43.8588899,0 z"/><path id="path6127-7-1-6-4-8" fill="url(#linearGradient3072-0-3-0-7-4)" fill-opacity="1" stroke="none" d="m 2.0582421,16.06515 43.8964599,4e-4 c 0.6342,0 1.0452,0.44461 1.0452,0.99737 l -1.0324,26.96037 c 0.015,0.6994 -0.2091,0.97671 -0.9459,0.96204 L 3.2408421,44.96773 c -0.63416,0 -1.27363,-0.41276 -1.27363,-0.96551 L 1.0130921,17.0629 c 0,-0.55276 0.41099,-0.99775 1.04515,-0.99775 z" opacity=".4"/><path id="path4587-4-6-3-0-1" fill="none" stroke="url(#linearGradient3381-56-2-7-5-0-8)" stroke-dasharray="none" stroke-dashoffset="0" stroke-linecap="round" stroke-linejoin="miter" stroke-miterlimit="4" stroke-opacity="1" stroke-width=".981" d="m 2.5,17.5 c 0.016793,0.176427 0.022163,0.517935 0.03125,0.875 0.023112,0.08641 0.025524,0.05923 0.03125,0.09375 0.011058,0.06665 0.027034,0.138257 0.03125,0.1875 0.0064,0.07474 -0.00668,0.173042 0,0.28125 0.013352,0.216416 0.045306,0.510844 0.0625,0.875 0.034388,0.728313 0.078083,1.708883 0.125,2.90625 0.093834,2.394734 0.2030642,5.55569 0.3125,8.6875 C 3.3060459,37.481691 3.4883163,43.143759 3.5,43.5 c 0.1225025,0.0036 0.071108,0 0.25,0 l 40.71875,0 c 0.0124,-0.328836 0.253182,-6.426721 0.5,-12.90625 0.126691,-3.325928 0.245386,-6.68527 0.34375,-9.21875 0.04918,-1.26674 0.09434,-2.331501 0.125,-3.09375 0.01322,-0.328618 0.02246,-0.572975 0.03125,-0.78125 L 2.5,17.5 z" color="#000" display="inline" enable-background="accumulate" opacity=".5" overflow="visible" transform="matrix(1,0,0,1.0383977,2.0849371e-6,-1.6703602)" visibility="visible" style="marker:none"/><g id="layer1-9-7-1" fill="#fff" fill-opacity=".552" fill-rule="nonzero" stroke="none" stroke-width="1.7" color="#000" display="inline" opacity=".3" transform="translate(15.994192,23.99179)" visibility="visible" style="marker:none"><path d="M 13.375,0 6,1.90625 C 5.446,2.0546939 5,2.645207 5,3.21875 L 5,12.3125 C 4.4382289,12.018344 3.716744,11.899398 2.96875,12.09375 1.6189863,12.444461 0.77316552,13.577902 1.0625,14.625 1.3518345,15.672098 2.6814863,16.256961 4.03125,15.90625 5.1080835,15.626455 5.8503667,14.834802 5.96875,14 L 6,5.40625 l 7,-1.875 0,6.78125 C 12.438229,10.018344 11.716744,9.8993976 10.96875,10.09375 9.6189863,10.444461 8.7731655,11.577902 9.0625,12.625 c 0.2893345,1.047098 1.618986,1.631961 2.96875,1.28125 C 13.108084,13.626455 13.850367,12.834802 13.96875,12 L 14,0.8125 C 14,0.38234275 13.734156,0.06051165 13.375,0 z" style="marker:none" id="rect2996-1-2" fill="#fff" fill-opacity=".552" fill-rule="nonzero" stroke="none" stroke-width="1.7" color="#000" display="inline" enable-background="accumulate" overflow="visible" visibility="visible"/></g><g id="layer1-9-4" fill="#175785" fill-opacity=".552" fill-rule="nonzero" stroke="none" stroke-width="1.7" color="#000" display="inline" transform="translate(15.994192,22.99141)" visibility="visible" style="marker:none"><path d="M 13.375,0 6,1.90625 C 5.446,2.0546939 5,2.645207 5,3.21875 L 5,12.3125 C 4.4382289,12.018344 3.716744,11.899398 2.96875,12.09375 1.6189863,12.444461 0.77316552,13.577902 1.0625,14.625 1.3518345,15.672098 2.6814863,16.256961 4.03125,15.90625 5.1080835,15.626455 5.8503667,14.834802 5.96875,14 L 6,5.40625 l 7,-1.875 0,6.78125 C 12.438229,10.018344 11.716744,9.8993976 10.96875,10.09375 9.6189863,10.444461 8.7731655,11.577902 9.0625,12.625 c 0.2893345,1.047098 1.618986,1.631961 2.96875,1.28125 C 13.108084,13.626455 13.850367,12.834802 13.96875,12 L 14,0.8125 C 14,0.38234275 13.734156,0.06051165 13.375,0 z" style="marker:none" id="rect2996-4" fill="#175785" fill-opacity=".552" fill-rule="nonzero" stroke="none" stroke-width="1.7" color="#000" display="inline" enable-background="accumulate" overflow="visible" visibility="visible"/></g><path id="path3388-1-43-0-7-6-3" fill="none" stroke="#000" stroke-dashoffset="0" stroke-linecap="round" stroke-linejoin="round" stroke-miterlimit="4" stroke-opacity="1" stroke-width="1" d="m 2.1626121,15.50019 c -1.07231,0.12829 -0.49959,1.45416 -0.58508,2.19974 0.12444,0.48182 0.92748,26.17643 0.92748,26.17643 0,0.7414 0.35172,0.61579 1.24292,0.61579 13.1885599,0 27.7725299,0 40.9610699,0 0.9601,0.0231 0.7572,0.0121 0.7572,-0.62748 0,0 0.993,-27.35421 1.0285,-27.7811 0,-0.44949 0.09,-0.58338 -0.4732,-0.58338 -14.08401,0 -29.77484,0 -43.8588899,0 z" opacity=".3"/></g></svg>