<svg xmlns="http://www.w3.org/2000/svg" xmlns:svg="http://www.w3.org/2000/svg" xmlns:xlink="http://www.w3.org/1999/xlink" id="svg19807" width="48" height="48" version="1.1"><defs id="defs19809"><linearGradient id="linearGradient3381-56-2-7-5-0-8-0" x1="42.471" x2="42.471" y1="11.953" y2="35.582" gradientTransform="matrix(0.89189031,0,0,1.0580283,3.1206609,5.3536023)" gradientUnits="userSpaceOnUse" xlink:href="#linearGradient3454-2-8-6-1-1-8-0"/><linearGradient id="linearGradient3454-2-8-6-1-1-8-0"><stop id="stop3456-4-7-9-4-0-3-6" offset="0" stop-color="#fff" stop-opacity="1"/><stop id="stop3458-39-0-8-61-3-8-9" offset=".01" stop-color="#fff" stop-opacity=".235"/><stop id="stop3460-7-5-4-1-6-6-6" offset=".99" stop-color="#fff" stop-opacity=".157"/><stop id="stop3462-0-5-6-6-2-1-6" offset="1" stop-color="#fff" stop-opacity=".392"/></linearGradient><linearGradient id="linearGradient3072-0-3-0-7-4-8" x1="22.935" x2="22.809" y1="49.629" y2="36.658" gradientTransform="matrix(1.1446925,0,0,0.9977536,-3.4660853,1.0988283)" gradientUnits="userSpaceOnUse" xlink:href="#linearGradient6129-963-697-142-998-580-273-0-8-4-9-0-0"/><linearGradient id="linearGradient6129-963-697-142-998-580-273-0-8-4-9-0-0"><stop id="stop2661-3-02-4-8-0-4" offset="0" stop-color="#0a0a0a" stop-opacity=".498"/><stop id="stop2663-2-8-06-2-4-6" offset="1" stop-color="#0a0a0a" stop-opacity="0"/></linearGradient><linearGradient id="linearGradient4638-4-6-8-9-9-5" x1="35.793" x2="35.793" y1="17.118" y2="43.761" gradientTransform="matrix(1,0,0,1.0357143,1.4680025e-5,-1.5891017)" gradientUnits="userSpaceOnUse" xlink:href="#linearGradient4632-0-6-4"/><linearGradient id="linearGradient4632-0-6-4"><stop id="stop4634-4-4-7" offset="0" stop-color="#b4cee1" stop-opacity="1"/><stop id="stop4636-3-1-5" offset="1" stop-color="#5d9fcd" stop-opacity="1"/></linearGradient><radialGradient id="radialGradient3080-2-3-9-9-8-8" cx="605.714" cy="486.648" r="117.143" fx="605.714" fy="486.648" gradientTransform="matrix(-0.03079083,0,0,0.02470588,23.389816,31.941628)" gradientUnits="userSpaceOnUse" xlink:href="#linearGradient5060-820-9-0-7-1-7-7"/><linearGradient id="linearGradient5060-820-9-0-7-1-7-7"><stop id="stop2681-5-4-3-6-3-8" offset="0" stop-color="#000" stop-opacity="1"/><stop id="stop2683-8-6-9-4-6-6" offset="1" stop-color="#000" stop-opacity="0"/></linearGradient><radialGradient id="radialGradient3083-4-5-6-4-5-0" cx="605.714" cy="486.648" r="117.143" fx="605.714" fy="486.648" gradientTransform="matrix(0.03079083,0,0,0.02470588,24.610216,31.941628)" gradientUnits="userSpaceOnUse" xlink:href="#linearGradient5060-179-2-0-3-6-2-2"/><linearGradient id="linearGradient5060-179-2-0-3-6-2-2"><stop id="stop2675-9-9-4-1-4-4" offset="0" stop-color="#000" stop-opacity="1"/><stop id="stop2677-1-7-2-6-1-8" offset="1" stop-color="#000" stop-opacity="0"/></linearGradient><linearGradient id="linearGradient3086-4-4-0-5-5-7" x1="302.857" x2="302.857" y1="366.648" y2="609.505" gradientTransform="matrix(0.07938856,0,0,0.02470588,-4.6932853,31.941628)" gradientUnits="userSpaceOnUse" xlink:href="#linearGradient5048-585-4-0-56-2-5-2"/><linearGradient id="linearGradient5048-585-4-0-56-2-5-2"><stop id="stop2667-5-0-7-4-7-7" offset="0" stop-color="#000" stop-opacity="0"/><stop id="stop2669-4-1-8-0-6-9" offset=".5" stop-color="#000" stop-opacity="1"/><stop id="stop2671-2-6-3-2-0-6" offset="1" stop-color="#000" stop-opacity="0"/></linearGradient><linearGradient id="linearGradient3381-5-5-29-4-6-5-0" x1="21.37" x2="21.37" y1="4.248" y2="34.143" gradientTransform="matrix(0.89189031,0,0,1.0580283,3.1207147,5.3535883)" gradientUnits="userSpaceOnUse" xlink:href="#linearGradient4507-9-2-2-3-6-9"/><linearGradient id="linearGradient4507-9-2-2-3-6-9"><stop id="stop4509-9-8-4-2-3-4" offset="0" stop-color="#fff" stop-opacity="1"/><stop id="stop4511-7-50-2-1-3-9" offset=".074" stop-color="#fff" stop-opacity=".235"/><stop id="stop4513-2-0-2-9-2-6" offset=".99" stop-color="#fff" stop-opacity=".157"/><stop id="stop4515-3-9-8-6-6-0" offset="1" stop-color="#fff" stop-opacity=".392"/></linearGradient><linearGradient id="linearGradient3089-5-2-9-8-6-8-0-7" x1="62.989" x2="62.989" y1="13" y2="16" gradientTransform="translate(-50.940889,-1.169178e-5)" gradientUnits="userSpaceOnUse" xlink:href="#linearGradient4646-6-91-5-0-5-8"/><linearGradient id="linearGradient4646-6-91-5-0-5-8"><stop id="stop4648-2-4-6-6-8-7" offset="0" stop-color="#f9f9f9" stop-opacity="1"/><stop id="stop4650-3-8-5-3-4-5" offset="1" stop-color="#d8d8d8" stop-opacity="1"/></linearGradient><linearGradient id="linearGradient3104-8-8-97-4-6-2-0-1-4-0-5"><stop id="stop3106-5-4-3-5-0-1-61-9-2-7-3" offset="0" stop-color="#000" stop-opacity=".322"/><stop id="stop3108-4-3-7-8-2-4-01-9-9-0-6" offset="1" stop-color="#000" stop-opacity=".278"/></linearGradient><linearGradient id="linearGradient19805" x1="-51.786" x2="-51.786" y1="53.514" y2="3.634" gradientTransform="matrix(0.80749834,0,0,0.83374395,106.87671,-0.06985169)" gradientUnits="userSpaceOnUse" xlink:href="#linearGradient3104-8-8-97-4-6-2-0-1-4-0-5"/></defs><metadata id="metadata19812"/><g id="layer1"><path id="rect4251-0-0-1-1-9-5-2" fill="none" stroke="url(#linearGradient19805)" stroke-dasharray="none" stroke-dashoffset="0" stroke-linecap="butt" stroke-linejoin="miter" stroke-miterlimit="4" stroke-opacity="1" stroke-width="1" d="m 5.5000147,8.4999883 c -0.554,0 -1,0.446 -1,1 l 0,1.9999997 -1,0 c -0.554,0 -1,0.446 -1,1 l 0,6 c 0,0.554 0.446,1 1,1 l 41.0000013,0 c 0.554,0 1,-0.446 1,-1 l 0,-6 c 0,-0.554 -0.446,-1 -1,-1 l -23,0 0,-1.9999997 c 0,-0.554 -0.446,-1 -1,-1 l -15.0000013,0 z" color="#000" display="inline" enable-background="accumulate" opacity=".8" overflow="visible" visibility="visible" style="marker:none"/><path d="m 5.5000147,8.9999883 c -0.277,0 -0.5,0.223 -0.5,0.5 l 0,2.4999997 -1.5,0 c -0.277,0 -0.5,0.223 -0.5,0.5 l 0,6 c 0,0.277 0.223,0.5 0.5,0.5 l 41.0000013,0 c 0.277,0 0.5,-0.223 0.5,-0.5 l 0,-6 c 0,-0.277 -0.223,-0.5 -0.5,-0.5 l -23.5,0 0,-2.4999997 c 0,-0.277 -0.223,-0.5 -0.5,-0.5 l -15.0000013,0 z" style="marker:none" id="rect4251-4-7-62-4-4-9" fill="url(#linearGradient3089-5-2-9-8-6-8-0-7)" fill-opacity="1" fill-rule="nonzero" stroke="none" stroke-width="1" color="#000" display="inline" enable-background="accumulate" overflow="visible" visibility="visible"/><path id="rect4251-9-9-0-05-2-0-5" fill="none" stroke="url(#linearGradient3381-5-5-29-4-6-5-0)" stroke-dasharray="none" stroke-dashoffset="0" stroke-linecap="round" stroke-linejoin="round" stroke-miterlimit="4" stroke-opacity="1" stroke-width="1" d="m 5.5000147,9.4999883 0,2.9999997 -2,0 0,7 41.0000013,0 0,-7 -24,0 0,-2.9999997 -15.0000013,0 z" color="#000" display="inline" enable-background="accumulate" overflow="visible" visibility="visible" style="marker:none"/><rect id="rect4173-6-7-7-3-5-1" width="38.333" height="6" x="4.833" y="41" fill="url(#linearGradient3086-4-4-0-5-5-7)" fill-opacity="1" fill-rule="nonzero" stroke="none" stroke-width="1" display="inline" opacity=".3" overflow="visible" visibility="visible" style="marker:none"/><path id="path5058-7-9-1-3-0-3" fill="url(#radialGradient3083-4-5-6-4-5-0)" fill-opacity="1" fill-rule="nonzero" stroke="none" stroke-width="1" d="m 43.166716,41.000198 c 0,0 0,5.99967 0,5.99967 1.5856,0.0113 3.8333,-1.34422 3.8333,-3.00022 0,-1.656 -1.7695,-2.99945 -3.8333,-2.99945 z" display="inline" opacity=".3" overflow="visible" visibility="visible" style="marker:none"/><path id="path5018-8-1-1-6-9-4" fill="url(#radialGradient3080-2-3-9-9-8-8)" fill-opacity="1" fill-rule="nonzero" stroke="none" stroke-width="1" d="m 4.8333147,41.000198 c 0,0 0,5.99967 0,5.99967 -1.5856,0.0113 -3.8333,-1.34422 -3.8333,-3.00022 0,-1.656 1.7695,-2.99945 3.8333,-2.99945 z" display="inline" opacity=".3" overflow="visible" visibility="visible" style="marker:none"/><path id="path3388-1-43-0-7-6-2" fill="url(#linearGradient4638-4-6-8-9-9-5)" fill-opacity="1" stroke="none" d="m 2.1626147,15.500178 c -1.0723,0.12829 -0.4996,1.45416 -0.5851,2.19974 0.1245,0.48182 0.9275,26.17643 0.9275,26.17643 0,0.7414 0.3517,0.61579 1.2429,0.61579 13.1886013,0 27.7726013,0 40.9611013,0 0.9601,0.0231 0.7572,0.0121 0.7572,-0.62748 0,0 0.993,-27.35421 1.0285,-27.7811 0,-0.44949 0.09,-0.58338 -0.4732,-0.58338 -14.084,0 -29.7748,0 -43.8589013,0 z"/><path id="path6127-7-1-6-4-8-5" fill="url(#linearGradient3072-0-3-0-7-4-8)" fill-opacity="1" stroke="none" d="m 2.0582147,16.065138 43.8965013,4e-4 c 0.6342,0 1.0452,0.44461 1.0452,0.99737 l -1.0324,26.96037 c 0.015,0.6994 -0.2091,0.97671 -0.9459,0.96204 l -41.7808013,-0.0176 c -0.6341,0 -1.2736,-0.41276 -1.2736,-0.96551 l -0.9541,-26.93932 c 0,-0.55276 0.411,-0.99775 1.0451,-0.99775 z" opacity=".4"/><path id="path4587-4-6-3-0-1-2" fill="none" stroke="url(#linearGradient3381-56-2-7-5-0-8-0)" stroke-dasharray="none" stroke-dashoffset="0" stroke-linecap="round" stroke-linejoin="miter" stroke-miterlimit="4" stroke-opacity="1" stroke-width=".981" d="m 2.5,17.5 c 0.016793,0.176427 0.022163,0.517935 0.03125,0.875 0.023112,0.08641 0.025524,0.05923 0.03125,0.09375 0.011058,0.06665 0.027034,0.138257 0.03125,0.1875 0.0064,0.07474 -0.00668,0.173042 0,0.28125 0.013352,0.216416 0.045306,0.510844 0.0625,0.875 0.034388,0.728313 0.078083,1.708883 0.125,2.90625 0.093834,2.394734 0.2030642,5.55569 0.3125,8.6875 C 3.3060459,37.481691 3.4883163,43.143759 3.5,43.5 c 0.1225025,0.0036 0.071108,0 0.25,0 l 40.71875,0 c 0.0124,-0.328836 0.253182,-6.426721 0.5,-12.90625 0.126691,-3.325928 0.245386,-6.68527 0.34375,-9.21875 0.04918,-1.26674 0.09434,-2.331501 0.125,-3.09375 0.01322,-0.328618 0.02246,-0.572975 0.03125,-0.78125 L 2.5,17.5 z" color="#000" display="inline" enable-background="accumulate" opacity=".5" overflow="visible" transform="matrix(1,0,0,1.0383977,1.4680025e-5,-1.6703717)" visibility="visible" style="marker:none"/><g id="layer1-3-8-1" fill="#fff" fill-opacity=".552" fill-rule="nonzero" stroke="none" stroke-width="1.7" color="#000" display="inline" opacity=".3" transform="translate(16.000016,23.999988)" visibility="visible" style="marker:none"><path d="M 1.75,0 C 1.3345,0 1,0.3345 1,0.75 l 0,13.5 C 1,14.6655 1.3345,15 1.75,15 l 12.5,0 C 14.6655,15 15,14.6655 15,14.25 L 15,0.75 C 15,0.3345 14.6655,0 14.25,0 L 1.75,0 z M 2,1 3,1 3,2 2,2 2,1 z m 2.5,0 7,0 C 11.777,1 12,1.223 12,1.5 l 0,5 C 12,6.777 11.777,7 11.5,7 l -7,0 C 4.223,7 4,6.777 4,6.5 l 0,-5 C 4,1.223 4.223,1 4.5,1 z m 8.5,0 1,0 0,1 -1,0 0,-1 z M 2,3 3,3 3,4 2,4 2,3 z m 11,0 1,0 0,1 -1,0 0,-1 z M 2,5 3,5 3,6 2,6 2,5 z m 11,0 1,0 0,1 -1,0 0,-1 z M 2,7 3,7 3,8 2,8 2,7 z m 11,0 1,0 0,1 -1,0 0,-1 z m -8.5,1 7,0 C 11.777,8 12,8.223 12,8.5 l 0,5 c 0,0.277 -0.223,0.5 -0.5,0.5 l -7,0 C 4.223,14 4,13.777 4,13.5 l 0,-5 C 4,8.223 4.223,8 4.5,8 z M 2,9 3,9 3,10 2,10 2,9 z m 11,0 1,0 0,1 -1,0 0,-1 z m -11,2 1,0 0,1 -1,0 0,-1 z m 11,0 1,0 0,1 -1,0 0,-1 z m -11,2 1,0 0,1 -1,0 0,-1 z m 11,0 1,0 0,1 -1,0 0,-1 z" style="marker:none" id="rect3032-6-0" fill="#fff" fill-opacity=".552" fill-rule="nonzero" stroke="none" stroke-width="1.7" color="#000" display="inline" enable-background="accumulate" overflow="visible" visibility="visible"/></g><g id="layer1-3-4" fill="#175785" fill-opacity=".552" fill-rule="nonzero" stroke="none" stroke-width="1.7" color="#000" display="inline" transform="translate(16.000016,22.999988)" visibility="visible" style="marker:none"><path d="M 1.75,0 C 1.3345,0 1,0.3345 1,0.75 l 0,13.5 C 1,14.6655 1.3345,15 1.75,15 l 12.5,0 C 14.6655,15 15,14.6655 15,14.25 L 15,0.75 C 15,0.3345 14.6655,0 14.25,0 L 1.75,0 z M 2,1 3,1 3,2 2,2 2,1 z m 2.5,0 7,0 C 11.777,1 12,1.223 12,1.5 l 0,5 C 12,6.777 11.777,7 11.5,7 l -7,0 C 4.223,7 4,6.777 4,6.5 l 0,-5 C 4,1.223 4.223,1 4.5,1 z m 8.5,0 1,0 0,1 -1,0 0,-1 z M 2,3 3,3 3,4 2,4 2,3 z m 11,0 1,0 0,1 -1,0 0,-1 z M 2,5 3,5 3,6 2,6 2,5 z m 11,0 1,0 0,1 -1,0 0,-1 z M 2,7 3,7 3,8 2,8 2,7 z m 11,0 1,0 0,1 -1,0 0,-1 z m -8.5,1 7,0 C 11.777,8 12,8.223 12,8.5 l 0,5 c 0,0.277 -0.223,0.5 -0.5,0.5 l -7,0 C 4.223,14 4,13.777 4,13.5 l 0,-5 C 4,8.223 4.223,8 4.5,8 z M 2,9 3,9 3,10 2,10 2,9 z m 11,0 1,0 0,1 -1,0 0,-1 z m -11,2 1,0 0,1 -1,0 0,-1 z m 11,0 1,0 0,1 -1,0 0,-1 z m -11,2 1,0 0,1 -1,0 0,-1 z m 11,0 1,0 0,1 -1,0 0,-1 z" style="marker:none" id="rect3032-7" fill="#175785" fill-opacity=".552" fill-rule="nonzero" stroke="none" stroke-width="1.7" color="#000" display="inline" enable-background="accumulate" overflow="visible" visibility="visible"/></g><path id="path3388-1-43-0-7-6-2-9" fill="none" stroke="#000" stroke-dashoffset="0" stroke-linecap="round" stroke-linejoin="round" stroke-miterlimit="4" stroke-opacity="1" stroke-width="1" d="m 2.1626147,15.500178 c -1.0723,0.12829 -0.4996,1.45416 -0.5851,2.19974 0.1245,0.48182 0.9275,26.17643 0.9275,26.17643 0,0.7414 0.3517,0.61579 1.2429,0.61579 13.1886013,0 27.7726013,0 40.9611013,0 0.9601,0.0231 0.7572,0.0121 0.7572,-0.62748 0,0 0.993,-27.35421 1.0285,-27.7811 0,-0.44949 0.09,-0.58338 -0.4732,-0.58338 -14.084,0 -29.7748,0 -43.8589013,0 z" opacity=".3"/></g></svg>