<svg xmlns="http://www.w3.org/2000/svg" xmlns:svg="http://www.w3.org/2000/svg" xmlns:xlink="http://www.w3.org/1999/xlink" id="svg21739" width="48" height="48" version="1.1"><defs id="defs21741"><linearGradient id="linearGradient3381-56-2-43-7-2" x1="42.471" x2="42.471" y1="11.953" y2="35.582" gradientTransform="matrix(0.89189031,0,0,1.0580283,3.1206609,5.3536023)" gradientUnits="userSpaceOnUse" xlink:href="#linearGradient3454-2-8-7-0-3"/><linearGradient id="linearGradient3454-2-8-7-0-3"><stop id="stop3456-4-7-1-7-23" offset="0" stop-color="#fff" stop-opacity="1"/><stop id="stop3458-39-0-1-8-77" offset=".01" stop-color="#fff" stop-opacity=".235"/><stop id="stop3460-7-5-9-6-3" offset=".99" stop-color="#fff" stop-opacity=".157"/><stop id="stop3462-0-5-41-2-7" offset="1" stop-color="#fff" stop-opacity=".392"/></linearGradient><linearGradient id="linearGradient3072-0-9-4-3" x1="22.935" x2="22.809" y1="49.629" y2="36.658" gradientTransform="matrix(1.1446925,0,0,0.9977536,-3.4660853,1.0988052)" gradientUnits="userSpaceOnUse" xlink:href="#linearGradient6129-963-697-142-998-580-273-0-4-4-5"/><linearGradient id="linearGradient6129-963-697-142-998-580-273-0-4-4-5"><stop id="stop2661-3-72-3-7" offset="0" stop-color="#0a0a0a" stop-opacity=".498"/><stop id="stop2663-2-85-1-5" offset="1" stop-color="#0a0a0a" stop-opacity="0"/></linearGradient><linearGradient id="linearGradient4638-4-65-4-6" x1="35.793" x2="35.793" y1="17.118" y2="43.761" gradientTransform="matrix(1,0,0,1.0357143,1.4680025e-5,-1.5891248)" gradientUnits="userSpaceOnUse" xlink:href="#linearGradient4632-92-3-0-8"/><linearGradient id="linearGradient4632-92-3-0-8"><stop id="stop4634-68-8-0-2" offset="0" stop-color="#cdc9e3" stop-opacity="1"/><stop id="stop4636-8-21-7-1" offset="1" stop-color="#9389cb" stop-opacity="1"/></linearGradient><radialGradient id="radialGradient3080-2-1-6-1" cx="605.714" cy="486.648" r="117.143" fx="605.714" fy="486.648" gradientTransform="matrix(-0.03079083,0,0,0.02470588,23.389815,31.941605)" gradientUnits="userSpaceOnUse" xlink:href="#linearGradient5060-820-9-8-0-1"/><linearGradient id="linearGradient5060-820-9-8-0-1"><stop id="stop2681-5-8-1-8" offset="0" stop-color="#000" stop-opacity="1"/><stop id="stop2683-8-8-6-4" offset="1" stop-color="#000" stop-opacity="0"/></linearGradient><radialGradient id="radialGradient3083-4-6-0-7" cx="605.714" cy="486.648" r="117.143" fx="605.714" fy="486.648" gradientTransform="matrix(0.03079083,0,0,0.02470588,24.610315,31.941605)" gradientUnits="userSpaceOnUse" xlink:href="#linearGradient5060-179-2-5-1-0"/><linearGradient id="linearGradient5060-179-2-5-1-0"><stop id="stop2675-9-8-3-2" offset="0" stop-color="#000" stop-opacity="1"/><stop id="stop2677-1-21-7-4" offset="1" stop-color="#000" stop-opacity="0"/></linearGradient><linearGradient id="linearGradient3086-4-8-1-8" x1="302.857" x2="302.857" y1="366.648" y2="609.505" gradientTransform="matrix(0.07938856,0,0,0.02470588,-4.6932853,31.941605)" gradientUnits="userSpaceOnUse" xlink:href="#linearGradient5048-585-4-34-3-5"/><linearGradient id="linearGradient5048-585-4-34-3-5"><stop id="stop2667-5-7-5-6" offset="0" stop-color="#000" stop-opacity="0"/><stop id="stop2669-4-9-4-0" offset=".5" stop-color="#000" stop-opacity="1"/><stop id="stop2671-2-5-4-8" offset="1" stop-color="#000" stop-opacity="0"/></linearGradient><linearGradient id="linearGradient3381-5-5-8-4-8" x1="21.37" x2="21.37" y1="4.248" y2="34.143" gradientTransform="matrix(0.89189031,0,0,1.0580283,3.1207147,5.3535652)" gradientUnits="userSpaceOnUse" xlink:href="#linearGradient4507-9-5-4-6"/><linearGradient id="linearGradient4507-9-5-4-6"><stop id="stop4509-9-5-3-5" offset="0" stop-color="#fff" stop-opacity="1"/><stop id="stop4511-7-3-2-5" offset=".074" stop-color="#fff" stop-opacity=".235"/><stop id="stop4513-2-3-2-9" offset=".99" stop-color="#fff" stop-opacity=".157"/><stop id="stop4515-3-0-7-3" offset="1" stop-color="#fff" stop-opacity=".392"/></linearGradient><linearGradient id="linearGradient3089-5-2-9-9-9-0" x1="62.989" x2="62.989" y1="13" y2="16" gradientTransform="translate(-50.940882,-3.479245e-5)" gradientUnits="userSpaceOnUse" xlink:href="#linearGradient4646-6-8-7-4"/><linearGradient id="linearGradient4646-6-8-7-4"><stop id="stop4648-2-38-0-2" offset="0" stop-color="#f9f9f9" stop-opacity="1"/><stop id="stop4650-3-1-2-70" offset="1" stop-color="#d8d8d8" stop-opacity="1"/></linearGradient><linearGradient id="linearGradient3104-8-8-97-4-6-2-75-0-1"><stop id="stop3106-5-4-3-5-0-1-9-2-1" offset="0" stop-color="#000" stop-opacity=".322"/><stop id="stop3108-4-3-7-8-2-4-1-8-9" offset="1" stop-color="#000" stop-opacity=".278"/></linearGradient><linearGradient id="linearGradient21737" x1="-51.786" x2="-51.786" y1="53.514" y2="3.634" gradientTransform="matrix(0.80749834,0,0,0.83374395,106.87671,-0.06987479)" gradientUnits="userSpaceOnUse" xlink:href="#linearGradient3104-8-8-97-4-6-2-75-0-1"/></defs><metadata id="metadata21744"/><g id="layer1"><path id="rect4251-0-0-6-8-6" fill="none" stroke="url(#linearGradient21737)" stroke-dasharray="none" stroke-dashoffset="0" stroke-linecap="butt" stroke-linejoin="miter" stroke-miterlimit="4" stroke-opacity="1" stroke-width="1" d="m 5.5000147,8.4999652 c -0.554,0 -1,0.446 -1,1 l 0,1.9999998 -1,0 c -0.554,0 -1,0.446 -1,1 l 0,6 c 0,0.554 0.446,1 1,1 l 41.0000003,0 c 0.554,0 1,-0.446 1,-1 l 0,-6 c 0,-0.554 -0.446,-1 -1,-1 l -23,0 0,-1.9999998 c 0,-0.554 -0.446,-1 -1,-1 l -15.0000003,0 z" color="#000" display="inline" enable-background="accumulate" opacity=".8" overflow="visible" visibility="visible" style="marker:none"/><path d="m 5.5000147,8.9999652 c -0.277,0 -0.5,0.223 -0.5,0.5 l 0,2.4999998 -1.5,0 c -0.277,0 -0.5,0.223 -0.5,0.5 l 0,6 c 0,0.277 0.223,0.5 0.5,0.5 l 41.0000003,0 c 0.277,0 0.5,-0.223 0.5,-0.5 l 0,-6 c 0,-0.277 -0.223,-0.5 -0.5,-0.5 l -23.5,0 0,-2.4999998 c 0,-0.277 -0.223,-0.5 -0.5,-0.5 l -15.0000003,0 z" style="marker:none" id="rect4251-4-9-5-5" fill="url(#linearGradient3089-5-2-9-9-9-0)" fill-opacity="1" fill-rule="nonzero" stroke="none" stroke-width="1" color="#000" display="inline" enable-background="accumulate" overflow="visible" visibility="visible"/><path id="rect4251-9-9-07-9-7" fill="none" stroke="url(#linearGradient3381-5-5-8-4-8)" stroke-dasharray="none" stroke-dashoffset="0" stroke-linecap="round" stroke-linejoin="round" stroke-miterlimit="4" stroke-opacity="1" stroke-width="1" d="m 5.5000147,9.4999652 0,2.9999998 -2,0 0,7 41.0000003,0 0,-7 -24,0 0,-2.9999998 -15.0000003,0 z" color="#000" display="inline" enable-background="accumulate" overflow="visible" visibility="visible" style="marker:none"/><rect id="rect4173-6-77-9-9" width="38.333" height="6" x="4.833" y="41" fill="url(#linearGradient3086-4-8-1-8)" fill-opacity="1" fill-rule="nonzero" stroke="none" stroke-width="1" display="inline" opacity=".3" overflow="visible" visibility="visible" style="marker:none"/><path id="path5058-7-7-3-6" fill="url(#radialGradient3083-4-6-0-7)" fill-opacity="1" fill-rule="nonzero" stroke="none" stroke-width="1" d="m 43.166715,41.000175 c 0,0 0,5.99967 0,5.99967 1.5856,0.0113 3.8333,-1.34422 3.8333,-3.00022 0,-1.656 -1.7695,-2.99945 -3.8333,-2.99945 z" display="inline" opacity=".3" overflow="visible" visibility="visible" style="marker:none"/><path id="path5018-8-18-9-7" fill="url(#radialGradient3080-2-1-6-1)" fill-opacity="1" fill-rule="nonzero" stroke="none" stroke-width="1" d="m 4.8333147,41.000175 c 0,0 0,5.99967 0,5.99967 -1.5856,0.0113 -3.8333,-1.34422 -3.8333,-3.00022 0,-1.656 1.7695,-2.99945 3.8333,-2.99945 z" display="inline" opacity=".3" overflow="visible" visibility="visible" style="marker:none"/><path id="path3388-1-5-0-5" fill="url(#linearGradient4638-4-65-4-6)" fill-opacity="1" stroke="none" d="m 2.1626147,15.500155 c -1.0723,0.12829 -0.4996,1.45416 -0.5851,2.19974 0.1245,0.48182 0.9275,26.17643 0.9275,26.17643 0,0.7414 0.3517,0.61579 1.2429,0.61579 13.1886003,0 27.7726003,0 40.9611003,0 0.9601,0.0231 0.7572,0.0121 0.7572,-0.62748 0,0 0.993,-27.35421 1.0285,-27.7811 0,-0.44949 0.09,-0.58338 -0.4732,-0.58338 -14.084,0 -29.7748,0 -43.8589003,0 z"/><path id="path6127-7-7-9-3" fill="url(#linearGradient3072-0-9-4-3)" fill-opacity="1" stroke="none" d="m 2.0583147,16.065115 43.8964003,4e-4 c 0.6342,0 1.0452,0.44461 1.0452,0.99737 l -1.0324,26.96037 c 0.015,0.6994 -0.2091,0.97671 -0.9459,0.96204 l -41.7807003,-0.0176 c -0.6342,0 -1.2737,-0.41276 -1.2737,-0.96551 l -0.9541,-26.93932 c 0,-0.55276 0.411,-0.99775 1.0452,-0.99775 z" opacity=".4"/><path id="path4587-4-2-2-9" fill="none" stroke="url(#linearGradient3381-56-2-43-7-2)" stroke-dasharray="none" stroke-dashoffset="0" stroke-linecap="round" stroke-linejoin="miter" stroke-miterlimit="4" stroke-opacity="1" stroke-width=".981" d="m 2.5,17.5 c 0.016793,0.176427 0.022163,0.517935 0.03125,0.875 0.023112,0.08641 0.025524,0.05923 0.03125,0.09375 0.011058,0.06665 0.027034,0.138257 0.03125,0.1875 0.0064,0.07474 -0.00668,0.173042 0,0.28125 0.013352,0.216416 0.045306,0.510844 0.0625,0.875 0.034388,0.728313 0.078083,1.708883 0.125,2.90625 0.093834,2.394734 0.2030642,5.55569 0.3125,8.6875 C 3.3060459,37.481691 3.4883163,43.143759 3.5,43.5 c 0.1225025,0.0036 0.071108,0 0.25,0 l 40.71875,0 c 0.0124,-0.328836 0.253182,-6.426721 0.5,-12.90625 0.126691,-3.325928 0.245386,-6.68527 0.34375,-9.21875 0.04918,-1.26674 0.09434,-2.331501 0.125,-3.09375 0.01322,-0.328618 0.02246,-0.572975 0.03125,-0.78125 L 2.5,17.5 z" color="#000" display="inline" enable-background="accumulate" opacity=".5" overflow="visible" transform="matrix(1,0,0,1.0383977,1.4680025e-5,-1.6703948)" visibility="visible" style="marker:none"/><path id="path3575-5-3-0-3-7" fill="#fff" fill-opacity="1" fill-rule="nonzero" stroke="none" stroke-width="1.7" d="m 22.984415,23.999965 c -0.277,0 -0.5,0.223 -0.5,0.5 l 0,1.6875 c -0.5487,0.14074 -1.055,0.37601 -1.5313,0.65625 l -1.2187,-1.21875 c -0.1959,-0.19587 -0.4916,-0.19587 -0.6875,0 l -1.4375,1.4375 c -0.1959,0.19587 -0.1959,0.49163 0,0.6875 l 1.2187,1.21875 c -0.2802,0.47623 -0.5155,0.98261 -0.6562,1.53125 l -1.6875,0 c -0.277,0 -0.5,0.223 -0.5,0.5 l 0,2 c 0,0.277 0.223,0.5 0.5,0.5 l 1.6875,0 c 0.1407,0.54864 0.376,1.05502 0.6562,1.53125 l -1.2187,1.21875 c -0.1959,0.19587 -0.1959,0.49163 0,0.6875 l 1.4375,1.4375 c 0.1959,0.19587 0.4916,0.19587 0.6875,0 l 1.2187,-1.21875 c 0.4763,0.28024 0.9826,0.51551 1.5313,0.65625 l 0,1.6875 c 0,0.277 0.223,0.5 0.5,0.5 l 2,0 c 0.277,0 0.5,-0.223 0.5,-0.5 l 0,-1.6875 c 0.5486,-0.14074 1.055,-0.37601 1.5312,-0.65625 l 1.2188,1.21875 c 0.1959,0.19587 0.4916,0.19587 0.6875,0 l 1.4375,-1.4375 c 0.1959,-0.19587 0.1959,-0.49163 0,-0.6875 l -1.2188,-1.21875 c 0.2803,-0.47623 0.5155,-0.98261 0.6563,-1.53125 l 1.6875,0 c 0.277,0 0.5,-0.223 0.5,-0.5 l 0,-2 c 0,-0.277 -0.223,-0.5 -0.5,-0.5 l -1.6875,0 c -0.1408,-0.54864 -0.376,-1.05502 -0.6563,-1.53125 l 1.2188,-1.21875 c 0.1959,-0.19587 0.1959,-0.49163 0,-0.6875 l -1.4375,-1.4375 c -0.1959,-0.19587 -0.4916,-0.19587 -0.6875,0 l -1.2188,1.21875 c -0.4762,-0.28024 -0.9826,-0.51551 -1.5312,-0.65625 l 0,-1.6875 c 0,-0.277 -0.223,-0.5 -0.5,-0.5 l -2,0 z m 1,5 c 1.6568,0 3,1.34315 3,3 0,1.65685 -1.3432,3 -3,3 -1.6569,0 -3,-1.34315 -3,-3 0,-1.65685 1.3431,-3 3,-3 z" color="#000" display="inline" enable-background="accumulate" opacity=".3" overflow="visible" visibility="visible" style="marker:none"/><path d="m 22.984415,22.999965 c -0.277,0 -0.5,0.223 -0.5,0.5 l 0,1.6875 c -0.5487,0.14074 -1.055,0.37601 -1.5313,0.65625 l -1.2187,-1.21875 c -0.1959,-0.19587 -0.4916,-0.19587 -0.6875,0 l -1.4375,1.4375 c -0.1959,0.19587 -0.1959,0.49163 0,0.6875 l 1.2187,1.21875 c -0.2802,0.47623 -0.5155,0.98261 -0.6562,1.53125 l -1.6875,0 c -0.277,0 -0.5,0.223 -0.5,0.5 l 0,2 c 0,0.277 0.223,0.5 0.5,0.5 l 1.6875,0 c 0.1407,0.54864 0.376,1.05502 0.6562,1.53125 l -1.2187,1.21875 c -0.1959,0.19587 -0.1959,0.49163 0,0.6875 l 1.4375,1.4375 c 0.1959,0.19587 0.4916,0.19587 0.6875,0 l 1.2187,-1.21875 c 0.4763,0.28024 0.9826,0.51551 1.5313,0.65625 l 0,1.6875 c 0,0.277 0.223,0.5 0.5,0.5 l 2,0 c 0.277,0 0.5,-0.223 0.5,-0.5 l 0,-1.6875 c 0.5486,-0.14074 1.055,-0.37601 1.5312,-0.65625 l 1.2188,1.21875 c 0.1959,0.19587 0.4916,0.19587 0.6875,0 l 1.4375,-1.4375 c 0.1959,-0.19587 0.1959,-0.49163 0,-0.6875 l -1.2188,-1.21875 c 0.2803,-0.47623 0.5155,-0.98261 0.6563,-1.53125 l 1.6875,0 c 0.277,0 0.5,-0.223 0.5,-0.5 l 0,-2 c 0,-0.277 -0.223,-0.5 -0.5,-0.5 l -1.6875,0 c -0.1408,-0.54864 -0.376,-1.05502 -0.6563,-1.53125 l 1.2188,-1.21875 c 0.1959,-0.19587 0.1959,-0.49163 0,-0.6875 l -1.4375,-1.4375 c -0.1959,-0.19587 -0.4916,-0.19587 -0.6875,0 l -1.2188,1.21875 c -0.4762,-0.28024 -0.9826,-0.51551 -1.5312,-0.65625 l 0,-1.6875 c 0,-0.277 -0.223,-0.5 -0.5,-0.5 l -2,0 z m 1,5 c 1.6568,0 3,1.34315 3,3 0,1.65685 -1.3432,3 -3,3 -1.6569,0 -3,-1.34315 -3,-3 0,-1.65685 1.3431,-3 3,-3 z" style="marker:none" id="path3575-5-8-4-7" fill="#382a72" fill-opacity=".552" fill-rule="nonzero" stroke="none" stroke-width="1.7" color="#000" display="inline" enable-background="accumulate" overflow="visible" visibility="visible"/><path id="path3388-1-5-0-5-4" fill="none" stroke="#000" stroke-dashoffset="0" stroke-linecap="round" stroke-linejoin="round" stroke-miterlimit="4" stroke-opacity="1" stroke-width="1" d="m 2.1626147,15.500155 c -1.0723,0.12829 -0.4996,1.45416 -0.5851,2.19974 0.1245,0.48182 0.9275,26.17643 0.9275,26.17643 0,0.7414 0.3517,0.61579 1.2429,0.61579 13.1886003,0 27.7726003,0 40.9611003,0 0.9601,0.0231 0.7572,0.0121 0.7572,-0.62748 0,0 0.993,-27.35421 1.0285,-27.7811 0,-0.44949 0.09,-0.58338 -0.4732,-0.58338 -14.084,0 -29.7748,0 -43.8589003,0 z" opacity=".3"/></g></svg>