<svg xmlns="http://www.w3.org/2000/svg" xmlns:svg="http://www.w3.org/2000/svg" xmlns:xlink="http://www.w3.org/1999/xlink" id="svg21462" width="48" height="48" version="1.1"><defs id="defs21464"><linearGradient id="linearGradient6594" x1="112.614" x2="112.614" y1="24.172" y2="43.102" gradientTransform="matrix(0.89189031,0,0,1.0580283,3.1206609,5.3536023)" gradientUnits="userSpaceOnUse" xlink:href="#linearGradient22424-6-2"/><linearGradient id="linearGradient22424-6-2"><stop id="stop22426-9-5" offset="0" stop-color="#fff" stop-opacity="1"/><stop id="stop22428-1-5" offset=".01" stop-color="#fff" stop-opacity=".235"/><stop id="stop22430-5-7" offset=".99" stop-color="#fff" stop-opacity=".157"/><stop id="stop22432-2-2" offset="1" stop-color="#fff" stop-opacity=".392"/></linearGradient><linearGradient id="linearGradient6298" x1="22.935" x2="22.809" y1="49.629" y2="36.658" gradientTransform="matrix(1.1446925,0,0,0.79743335,-3.4660867,9.9100877)" gradientUnits="userSpaceOnUse" xlink:href="#linearGradient6129-963-697-142-998-580-273-0-7-0-3-0"/><linearGradient id="linearGradient6129-963-697-142-998-580-273-0-7-0-3-0"><stop id="stop2661-3-7-4-3-8" offset="0" stop-color="#0a0a0a" stop-opacity=".498"/><stop id="stop2663-2-2-0-42-7" offset="1" stop-color="#0a0a0a" stop-opacity="0"/></linearGradient><linearGradient id="linearGradient6301" x1="35.793" x2="35.793" y1="17.118" y2="36.752" gradientTransform="matrix(1,0,0,1.0357143,13.097313,6.4108977)" gradientUnits="userSpaceOnUse" xlink:href="#linearGradient4632-0-6-4"/><linearGradient id="linearGradient4632-0-6-4"><stop id="stop4634-4-4-7" offset="0" stop-color="#b4cee1" stop-opacity="1"/><stop id="stop4636-3-1-5" offset="1" stop-color="#5d9fcd" stop-opacity="1"/></linearGradient><radialGradient id="radialGradient6306" cx="605.714" cy="486.648" r="117.143" fx="605.714" fy="486.648" gradientTransform="matrix(-0.03079083,0,0,0.02470588,23.389813,31.941628)" gradientUnits="userSpaceOnUse" xlink:href="#linearGradient5060-820-9-7-9-2-8"/><linearGradient id="linearGradient5060-820-9-7-9-2-8"><stop id="stop2681-5-7-9-0-2" offset="0" stop-color="#000" stop-opacity="1"/><stop id="stop2683-8-2-4-7-6" offset="1" stop-color="#000" stop-opacity="0"/></linearGradient><radialGradient id="radialGradient6309" cx="605.714" cy="486.648" r="117.143" fx="605.714" fy="486.648" gradientTransform="matrix(0.03079083,0,0,0.02470588,24.610213,31.941628)" gradientUnits="userSpaceOnUse" xlink:href="#linearGradient5060-179-2-4-8-3-2"/><linearGradient id="linearGradient5060-179-2-4-8-3-2"><stop id="stop2675-9-3-5-60-7" offset="0" stop-color="#000" stop-opacity="1"/><stop id="stop2677-1-2-3-7-4" offset="1" stop-color="#000" stop-opacity="0"/></linearGradient><linearGradient id="linearGradient6312" x1="302.857" x2="302.857" y1="366.648" y2="609.505" gradientTransform="matrix(0.07938856,0,0,0.02470588,-4.6932867,31.941628)" gradientUnits="userSpaceOnUse" xlink:href="#linearGradient5048-585-4-1-5-3-4"/><linearGradient id="linearGradient5048-585-4-1-5-3-4"><stop id="stop2667-5-3-5-7-3" offset="0" stop-color="#000" stop-opacity="0"/><stop id="stop2669-4-5-9-1-4" offset=".5" stop-color="#000" stop-opacity="1"/><stop id="stop2671-2-7-9-1-4" offset="1" stop-color="#000" stop-opacity="0"/></linearGradient><linearGradient id="linearGradient6315" x1="21.37" x2="21.37" y1="4.248" y2="34.143" gradientTransform="matrix(0.89189031,0,0,1.0580283,3.1207133,5.3535877)" gradientUnits="userSpaceOnUse" xlink:href="#linearGradient4507-9-9-6-5-8"/><linearGradient id="linearGradient4507-9-9-6-5-8"><stop id="stop4509-9-7-6-8-9" offset="0" stop-color="#fff" stop-opacity="1"/><stop id="stop4511-7-2-0-9-6" offset=".074" stop-color="#fff" stop-opacity=".235"/><stop id="stop4513-2-4-3-1-8" offset=".99" stop-color="#fff" stop-opacity=".157"/><stop id="stop4515-3-2-4-1-3" offset="1" stop-color="#fff" stop-opacity=".392"/></linearGradient><linearGradient id="linearGradient6318" x1="63.412" x2="63.412" y1="18.216" y2="21.216" gradientTransform="translate(-50.940871,-1.2348358e-5)" gradientUnits="userSpaceOnUse" xlink:href="#linearGradient4646-6-1-3-5-8"/><linearGradient id="linearGradient4646-6-1-3-5-8"><stop id="stop4648-2-1-9-37-1" offset="0" stop-color="#f9f9f9" stop-opacity="1"/><stop id="stop4650-3-28-6-7-5" offset="1" stop-color="#d8d8d8" stop-opacity="1"/></linearGradient><linearGradient id="linearGradient3104-8-8-97-4-6-2-7-1-1-9"><stop id="stop3106-5-4-3-5-0-1-2-6-7-2" offset="0" stop-color="#000" stop-opacity=".322"/><stop id="stop3108-4-3-7-8-2-4-2-3-2-8" offset="1" stop-color="#000" stop-opacity=".278"/></linearGradient><linearGradient id="linearGradient21460" x1="-51.786" x2="-51.786" y1="53.514" y2="3.634" gradientTransform="matrix(0.80749834,0,0,0.83374395,106.87671,-0.06985235)" gradientUnits="userSpaceOnUse" xlink:href="#linearGradient3104-8-8-97-4-6-2-7-1-1-9"/></defs><metadata id="metadata21467"/><g id="layer1"><path id="rect4251-0-0-9-7-3-3" fill="none" stroke="url(#linearGradient21460)" stroke-dasharray="none" stroke-dashoffset="0" stroke-linecap="butt" stroke-linejoin="miter" stroke-miterlimit="4" stroke-opacity="1" stroke-width="1" d="m 5.5000133,8.4999877 c -0.554,0 -1,0.446 -1,1 l 0,2.0000003 -1,0 c -0.554,0 -1,0.446 -1,1 l 0,12 42.9999997,0 0,-12 c 0,-0.554 -0.446,-1 -1,-1 l -23,0 0,-2.0000003 c 0,-0.554 -0.446,-1 -1,-1 z" color="#000" display="inline" enable-background="accumulate" opacity=".8" overflow="visible" visibility="visible" style="marker:none"/><path d="m 5.5000133,8.9999877 c -0.277,0 -0.5,0.223 -0.5,0.5 l 0,2.5000003 -1.5,0 c -0.277,0 -0.5,0.223 -0.5,0.5 l 0,12 41.9999997,0 0,-12 c 0,-0.277 -0.223,-0.5 -0.5,-0.5 l -23.5,0 0,-2.5000003 c 0,-0.277 -0.223,-0.5 -0.5,-0.5 z" style="marker:none" id="rect4251-4-8-2-72-8" fill="url(#linearGradient6318)" fill-opacity="1" fill-rule="nonzero" stroke="none" stroke-width="1" color="#000" display="inline" enable-background="accumulate" overflow="visible" visibility="visible"/><path id="rect4251-9-9-8-1-7-6" fill="none" stroke="url(#linearGradient6315)" stroke-dasharray="none" stroke-dashoffset="0" stroke-linecap="round" stroke-linejoin="round" stroke-miterlimit="4" stroke-opacity="1" stroke-width="1" d="m 5.5000133,9.4999877 0,3.0000003 -2,0 0,11 40.9999997,0 0,-11 -24,0 0,-3.0000003 z" color="#000" display="inline" enable-background="accumulate" overflow="visible" visibility="visible" style="marker:none"/><rect id="rect4173-6-1-6-8-3" width="38.333" height="6" x="4.833" y="41" fill="url(#linearGradient6312)" fill-opacity="1" fill-rule="nonzero" stroke="none" stroke-width="1" display="inline" opacity=".3" overflow="visible" visibility="visible" style="marker:none"/><path id="path5058-7-5-8-1-4" fill="url(#radialGradient6309)" fill-opacity="1" fill-rule="nonzero" stroke="none" stroke-width="1" d="m 43.166713,41.000198 c 0,0 0,5.99967 0,5.99967 1.5856,0.0113 3.8333,-1.34422 3.8333,-3.00022 0,-1.656 -1.7695,-2.99945 -3.8333,-2.99945 z" display="inline" opacity=".3" overflow="visible" visibility="visible" style="marker:none"/><path id="path5018-8-7-1-0-4" fill="url(#radialGradient6306)" fill-opacity="1" fill-rule="nonzero" stroke="none" stroke-width="1" d="m 4.8333133,41.000198 c 0,0 0,5.99967 0,5.99967 -1.5856,0.0113 -3.8333,-1.34422 -3.8333,-3.00022 0,-1.656 1.7695,-2.99945 3.8333,-2.99945 z" display="inline" opacity=".3" overflow="visible" visibility="visible" style="marker:none"/><path d="m 1.1627133,21.499988 c -1.07270001,0.10099 -0.49950001,1.27922 -0.58500001,1.86617 0.3005,1.21697 1.97640001,19.43387 2.17930001,20.74656 0.3418,0.78845 1.5944,0.38468 2.3881,0.48477 13.1934997,0 26.3870997,0 39.5805997,0 1.0894,-0.0871 0.6365,-1.14932 0.7897,-1.75724 0.062,-0.88455 1.7066,-14.73976 2.1793,-20.74656 -0.2512,-0.77914 -1.4877,-0.5937 -2.263,-0.5937 -14.0894,0 -30.1796,0 -44.2689997,0 z" style="marker:none" id="path7314-3-7" fill="url(#linearGradient6301)" fill-opacity="1" fill-rule="nonzero" stroke="none" stroke-width="1" color="#000" display="inline" enable-background="accumulate" overflow="visible" visibility="visible"/><path id="path6127-7-0-2-7-0" fill="url(#linearGradient6298)" fill-opacity="1" stroke="none" d="m 2.0582133,21.871588 43.8964997,3.2e-4 c 0.6342,0 1.0452,0.35535 1.0452,0.79713 l -1.0324,21.5475 c 0.015,0.55898 -0.2091,0.78061 -0.9459,0.76889 l -41.7807997,-0.0141 c -0.6341,0 -1.2736,-0.32989 -1.2736,-0.77166 l -0.9541,-21.53068 c 0,-0.44178 0.411,-0.79743 1.0451,-0.79743 z" opacity=".4"/><path id="path22379-0-6" fill="none" stroke="url(#linearGradient6594)" stroke-dasharray="none" stroke-dashoffset="0" stroke-linecap="round" stroke-linejoin="miter" stroke-miterlimit="4" stroke-opacity="1" stroke-width="1" d="m 83.65625,30.65625 c 0.02173,0.102759 -0.01119,0.259429 0,0.4375 l 0.03125,0 c 0.08755,0.354594 0.111073,0.716468 0.1875,1.34375 0.07643,0.627282 0.179267,1.422066 0.28125,2.375 0.203965,1.905868 0.445415,4.344567 0.6875,6.78125 0.242085,2.436683 0.465329,4.871394 0.65625,6.78125 0.165726,1.657825 0.260654,2.659047 0.3125,3.09375 0.282286,0.0038 0.772765,-0.04348 1.34375,0 l 0,-0.03125 39.1875,0 c -0.0175,-0.151887 -0.0242,-0.333972 0.0312,-0.6875 l -0.0312,0 c 0.002,-0.02462 0.0288,-0.157775 0.0312,-0.1875 0.0344,-0.41345 0.12159,-1.208643 0.28125,-2.625 0.17113,-1.518186 0.41643,-3.526172 0.65625,-5.6875 0.45396,-4.091183 0.90598,-8.589135 1.15625,-11.59375 -0.26313,-0.01293 -0.61515,0 -1.03125,0 l -43.78125,0 z" color="#000" display="inline" enable-background="accumulate" opacity=".5" overflow="visible" transform="translate(-82.054791,-8.0000123)" visibility="visible" style="marker:none"/><path id="path7314-3-7-4" fill="none" stroke="#000" stroke-dasharray="none" stroke-dashoffset="0" stroke-linecap="round" stroke-linejoin="round" stroke-miterlimit="4" stroke-opacity="1" stroke-width="1" d="m 1.1627133,21.499988 c -1.07270001,0.10099 -0.49950001,1.27922 -0.58500001,1.86617 0.3005,1.21697 1.97640001,19.43387 2.17930001,20.74656 0.3418,0.78845 1.5944,0.38468 2.3881,0.48477 13.1934997,0 26.3870997,0 39.5805997,0 1.0894,-0.0871 0.6365,-1.14932 0.7897,-1.75724 0.062,-0.88455 1.7066,-14.73976 2.1793,-20.74656 -0.2512,-0.77914 -1.4877,-0.5937 -2.263,-0.5937 -14.0894,0 -30.1796,0 -44.2689997,0 z" color="#000" display="inline" enable-background="accumulate" opacity=".3" overflow="visible" visibility="visible" style="marker:none"/></g></svg>