<svg xmlns="http://www.w3.org/2000/svg" xmlns:svg="http://www.w3.org/2000/svg" xmlns:xlink="http://www.w3.org/1999/xlink" id="svg3695" width="48" height="48" version="1.0"><metadata id="metadata11265"/><defs id="defs3697"><linearGradient id="linearGradient5060"><stop id="stop5062" offset="0" stop-color="#000" stop-opacity="1"/><stop id="stop5064" offset="1" stop-color="#000" stop-opacity="0"/></linearGradient><radialGradient id="radialGradient3269" cx="62.712" cy="108.025" r="47.383" fx="62.712" fy="108.025" gradientTransform="matrix(0.3587806,0,0,0.2110472,1.5000008,15.20272)" gradientUnits="userSpaceOnUse" xlink:href="#linearGradient5060"/><linearGradient id="linearGradient3384"><stop id="stop3386" offset="0" stop-color="#6e6e6e" stop-opacity="1"/><stop id="stop3388" offset="1" stop-color="#9f9fa1" stop-opacity="1"/></linearGradient><linearGradient id="linearGradient3266" x1="31.048" x2="31.048" y1="45" y2="5.5" gradientTransform="translate(0,2)" gradientUnits="userSpaceOnUse" xlink:href="#linearGradient3384"/><linearGradient id="linearGradient2793-2-0-403"><stop id="stop4645" offset="0" stop-color="#8d909a" stop-opacity="1"/><stop id="stop4647" offset="1" stop-color="#d9d9d9" stop-opacity="1"/></linearGradient><linearGradient id="linearGradient3264" x1="11.931" x2="21.515" y1="26.411" y2="26.411" gradientTransform="matrix(1.2083478,0,0,1.5198788,-1.979478,-15.055094)" gradientUnits="userSpaceOnUse" spreadMethod="reflect" xlink:href="#linearGradient2793-2-0-403"/><radialGradient id="radialGradient3258" cx="19.308" cy="21.029" r="14.5" fx="19.308" fy="21.029" gradientTransform="matrix(0,1.679283,-1.6454754,0,48.823182,-18.496093)" gradientUnits="userSpaceOnUse" spreadMethod="pad" xlink:href="#linearGradient3254-8-457"/><linearGradient id="linearGradient3355-273"><stop id="stop4657" offset="0" stop-color="#f0f0f0" stop-opacity="1"/><stop id="stop3619" offset=".45" stop-color="#777779" stop-opacity="1"/><stop id="stop4659" offset="1" stop-color="#6c6c70" stop-opacity="1"/></linearGradient><linearGradient id="linearGradient3255" x1="24" x2="24" y1="9.373" y2="2.097" gradientTransform="matrix(1.1598658,0,0,1.3742464,-3.8367541,-0.9326014)" gradientUnits="userSpaceOnUse" xlink:href="#linearGradient3355-273"/><linearGradient id="linearGradient3320"><stop id="stop3323" offset="0" stop-color="#4e4e4e" stop-opacity="1"/><stop id="stop3325" offset="1" stop-color="#b9bac2" stop-opacity="1"/></linearGradient><linearGradient id="linearGradient3253" x1="9" x2="24" y1="8" y2="8" gradientUnits="userSpaceOnUse" spreadMethod="reflect" xlink:href="#linearGradient3320"/><linearGradient id="linearGradient3627"><stop id="stop3629" offset="0" stop-color="#000" stop-opacity="0"/><stop id="stop3190" offset=".5" stop-color="#000" stop-opacity="0"/><stop id="stop3631" offset="1" stop-color="#000" stop-opacity="1"/></linearGradient><radialGradient id="radialGradient3250" cx="24" cy="7.792" r="14.508" fx="24" fy="7.792" gradientTransform="matrix(-3.2042761e-8,0.6892888,-3.1574826,0,48.603098,-13.542931)" gradientUnits="userSpaceOnUse" spreadMethod="pad" xlink:href="#linearGradient3627"/><linearGradient id="linearGradient3254-8-457"><stop id="stop4669" offset="0" stop-color="#fff" stop-opacity="1"/><stop id="stop4671" offset="1" stop-color="#fff" stop-opacity="0"/></linearGradient><linearGradient id="linearGradient3247" x1="23.5" x2="23.5" y1="10.996" y2="39.851" gradientTransform="matrix(1.2227969,0,0,1.9458981,-4.735753,-31.362975)" gradientUnits="userSpaceOnUse" xlink:href="#linearGradient3254-8-457"/><linearGradient id="linearGradient3254-3-182"><stop id="stop4663" offset="0" stop-color="#fff" stop-opacity="1"/><stop id="stop4665" offset="1" stop-color="#fff" stop-opacity="0"/></linearGradient><linearGradient id="linearGradient3261" x1="12.25" x2="17.125" y1="20.231" y2="34.174" gradientTransform="matrix(0.8965013,0,0,1.365896,4.7251825,-8.808688)" gradientUnits="userSpaceOnUse" xlink:href="#linearGradient3254-3-182"/><linearGradient id="linearGradient3389" x1="24" x2="24" y1="13.506" y2="43" gradientTransform="matrix(1,0.3684052,0,1,0,-4.9734702)" gradientUnits="userSpaceOnUse" xlink:href="#linearGradient3205"/><linearGradient id="linearGradient3205"><stop id="stop3207" offset="0" stop-color="#000" stop-opacity="1"/><stop id="stop3209" offset="1" stop-color="#000" stop-opacity="0"/></linearGradient><linearGradient id="linearGradient3373" x1="24" x2="24" y1="15.502" y2="45" gradientTransform="matrix(1,0.04605065,0,1,0,-0.9440383)" gradientUnits="userSpaceOnUse" xlink:href="#linearGradient3205"/><linearGradient id="linearGradient3083" x1="32.181" x2="32.181" y1="13.829" y2="28.903" gradientTransform="matrix(0.72972969,0,0,0.72972969,3.516668,-7.0913942)" gradientUnits="userSpaceOnUse" xlink:href="#linearGradient4404-5-5-1"/><linearGradient id="linearGradient4404-5-5-1"><stop id="stop4406-9-1-0" offset="0" stop-color="#fff" stop-opacity="1"/><stop id="stop4408-7-4-4" offset=".091" stop-color="#fff" stop-opacity=".235"/><stop id="stop4410-6-4-0" offset=".818" stop-color="#fff" stop-opacity=".157"/><stop id="stop4412-1-5-5" offset="1" stop-color="#fff" stop-opacity=".392"/></linearGradient><linearGradient id="linearGradient3081" x1="34.613" x2="19.314" y1="26.411" y2="26.411" gradientTransform="matrix(0.45754817,0,0,0.47298439,-1.837284,-3.6558699)" gradientUnits="userSpaceOnUse" spreadMethod="reflect" xlink:href="#linearGradient4238-0"/><linearGradient id="linearGradient4238-0"><stop id="stop4240-2" offset="0" stop-color="#8d909a" stop-opacity="1"/><stop id="stop4242-27" offset="1" stop-color="#e5e5e5" stop-opacity="1"/></linearGradient><linearGradient id="linearGradient3076" x1="34.613" x2="19.314" y1="26.411" y2="26.411" gradientTransform="matrix(0.45754817,0,0,0.47298439,-1.837284,-3.6558699)" gradientUnits="userSpaceOnUse" spreadMethod="reflect" xlink:href="#linearGradient4238-0"/><linearGradient id="linearGradient3069" x1="24" x2="24" y1="15.502" y2="45" gradientTransform="matrix(1,0.04527436,0,0.98314261,0,-0.16951428)" gradientUnits="userSpaceOnUse" xlink:href="#linearGradient3205"/><linearGradient id="linearGradient3072" x1="24" x2="24" y1="13.506" y2="43" gradientTransform="matrix(1,0.35683526,0,0.96859453,0,-3.4637108)" gradientUnits="userSpaceOnUse" xlink:href="#linearGradient3205"/><linearGradient id="linearGradient3075" x1="12.25" x2="17.125" y1="20.231" y2="34.174" gradientTransform="matrix(0.8965013,0,0,1.365896,4.7251825,-8.808688)" gradientUnits="userSpaceOnUse" xlink:href="#linearGradient3254-3-182"/><linearGradient id="linearGradient3078" x1="23.5" x2="23.5" y1="10.996" y2="39.851" gradientTransform="matrix(1.2227969,0,0,1.9458981,-4.735753,-31.362975)" gradientUnits="userSpaceOnUse" xlink:href="#linearGradient3254-8-457"/><radialGradient id="radialGradient3089" cx="19.308" cy="21.029" r="14.5" fx="19.308" fy="21.029" gradientTransform="matrix(0,1.679283,-1.6454754,0,48.823182,-18.496093)" gradientUnits="userSpaceOnUse" spreadMethod="pad" xlink:href="#linearGradient3254-8-457"/><linearGradient id="linearGradient3092" x1="11.931" x2="21.515" y1="26.411" y2="26.411" gradientTransform="matrix(1.2083478,0,0,1.5198788,-1.979478,-15.055094)" gradientUnits="userSpaceOnUse" spreadMethod="reflect" xlink:href="#linearGradient2793-2-0-403"/><linearGradient id="linearGradient3094" x1="31.048" x2="31.048" y1="45" y2="5.5" gradientTransform="translate(0,2)" gradientUnits="userSpaceOnUse" xlink:href="#linearGradient3384"/><radialGradient id="radialGradient3097" cx="62.712" cy="108.025" r="47.383" fx="62.712" fy="108.025" gradientTransform="matrix(0.3587806,0,0,0.16883776,1.5000008,21.762176)" gradientUnits="userSpaceOnUse" xlink:href="#linearGradient5060"/></defs><path id="path12941" fill="url(#radialGradient3097)" fill-opacity="1" fill-rule="evenodd" stroke="none" stroke-width="1.055" d="M 41,40.000881 C 40.998964,44.418816 33.388109,48 24,48 14.611891,48 7.0010357,44.418816 7,40.000881 6.9989643,35.582258 14.610427,32 24,32 c 9.389573,0 17.001036,3.582258 17,8.000881 z" display="inline" overflow="visible" visibility="visible" style="marker:none"/><path id="path2230" fill="url(#linearGradient3092)" fill-opacity="1" fill-rule="nonzero" stroke="url(#linearGradient3094)" stroke-opacity="1" stroke-width="1" d="m 9.4998277,8 0,32 c 0,2.936408 4.4077703,5.5 14.5001733,5.5 10.092403,0 14.500171,-2.563592 14.500171,-5.5 l 0,-32 z" display="inline" overflow="visible" visibility="visible" style="marker:none"/><path id="path3212" fill="url(#radialGradient3089)" fill-opacity="1" fill-rule="nonzero" stroke="none" stroke-width="1" d="m 10,9 0,31 c 0,2.822002 6.272,6.000003 14.000001,6 C 31.728001,46 38,42.822002 38,40 L 38,9 C 38,9 10,9 10,9 z" display="inline" opacity=".4" overflow="visible" visibility="visible" style="marker:none"/><path id="path2206" fill="none" stroke="url(#linearGradient3078)" stroke-dasharray="none" stroke-dashoffset="0" stroke-linecap="round" stroke-linejoin="round" stroke-miterlimit="4" stroke-opacity="1" stroke-width="1" d="m 10.5,7.8105818 c 0,2.2237962 0,30.5970462 0,32.8246752 0,2.68534 6.075144,4.864745 13.499975,4.864745 7.42483,0 13.500024,-2.179405 13.500024,-4.864745 0,-2.061124 0,-30.7635493 0,-32.8246752 0,-2.2435666 -6.079164,-4.3470216 -13.500024,-4.310103 C 16.579114,3.5373993 10.5,5.5773261 10.5,7.8105818 z" display="inline" opacity=".15" overflow="visible" visibility="visible" style="marker:none"/><path id="rect3244" fill="url(#linearGradient3075)" fill-opacity="1" fill-rule="nonzero" stroke="none" stroke-width="1" d="m 16.379699,12.177193 4.482507,0.868458 0,33.208353 -4.482507,-1.109791 0,-32.96702 0,0 z" display="inline" opacity=".2" overflow="visible" visibility="visible" style="marker:none"/><path id="path3287" fill="url(#linearGradient3072)" fill-opacity="1" fill-rule="nonzero" stroke="none" stroke-width="1" d="m 13.5,14.435425 c 0.831,0.296531 1.5,1.183243 1.5,1.988145 l 0,25.661921 C 15,42.890393 14.331,43.29966 13.5,43.00313 12.669,42.7066 12,41.819887 12,41.014985 l 0,-25.661921 c 0,-0.804902 0.669,-1.214169 1.5,-0.917639 z m 21,-0.239231 c -0.831,0.29653 -1.5,1.183243 -1.5,1.988145 l 0,25.661921 c 0,0.804902 0.669,1.214169 1.5,0.917639 0.831,-0.296531 1.5,-1.183243 1.5,-1.988145 l 0,-25.661921 c 0,-0.804902 -0.669,-1.214169 -1.5,-0.917639 z" display="inline" enable-background="accumulate" opacity=".15" overflow="visible" visibility="visible" style="marker:none"/><path id="path3293" fill="url(#linearGradient3069)" fill-opacity="1" fill-rule="nonzero" stroke="none" stroke-width="1" d="m 20.5,16.003242 c 0.831,0.03762 1.5,0.725634 1.5,1.542625 l 0,26.047358 c 0,0.816992 -0.669,1.444425 -1.5,1.406803 C 19.669,44.962405 19,44.274394 19,43.457402 l 0,-26.047358 c 0,-0.816991 0.669,-1.444425 1.5,-1.406802 z m 7,0 c -0.831,0.03762 -1.5,0.725634 -1.5,1.542625 l 0,26.047358 c 0,0.816992 0.669,1.444425 1.5,1.406803 0.831,-0.03762 1.5,-0.725634 1.5,-1.542626 l 0,-26.047358 c 0,-0.816991 -0.669,-1.444425 -1.5,-1.406802 z" display="inline" enable-background="accumulate" opacity=".3" overflow="visible" visibility="visible" style="marker:none"/><g id="g3215"><path id="path5418" fill="url(#linearGradient3076)" fill-opacity="1" fill-rule="nonzero" stroke="none" stroke-width="1.039" d="m 8,1.46875 c -1.7572026,0 -3.3544793,0.2196475 -4.46875,0.5625 -0.5571353,0.1714263 -0.9846671,0.3694792 -1.25,0.5625 C 2.0159171,2.7867708 1.96875,2.9230812 1.96875,3 l 0,2 c 0,0.076919 0.047167,0.2132292 0.3125,0.40625 0.2653329,0.1930208 0.6928647,0.3910737 1.25,0.5625 1.1142707,0.3428525 2.7115474,0.5625 4.46875,0.5625 1.7572027,0 3.354479,-0.2196475 4.46875,-0.5625 0.557135,-0.1714263 0.984667,-0.3694792 1.25,-0.5625 C 13.984083,5.2132292 14.03125,5.0769189 14.03125,5 l 0,-2 c 0,-0.076919 -0.04717,-0.2132292 -0.3125,-0.40625 -0.265333,-0.1930208 -0.692865,-0.3910737 -1.25,-0.5625 C 11.354479,1.6883975 9.7572027,1.46875 8,1.46875 z" color="#000" display="inline" enable-background="accumulate" overflow="visible" transform="matrix(2.4870466,0,0,1.9753086,4.1036289,2.098765)" visibility="visible" style="marker:none"/><path id="path5019-9" fill="none" stroke="#161b28" stroke-dasharray="none" stroke-dashoffset="0" stroke-linecap="butt" stroke-linejoin="miter" stroke-miterlimit="4" stroke-opacity="1" stroke-width="1" d="m 24,4.4999998 c -8.560412,0 -15.5000001,1.6416213 -15.5000001,3.6666663 l 0,3.6666669 C 8.4999999,13.858378 15.439588,15.5 24,15.5 c 8.560413,0 15.5,-1.641622 15.5,-3.666667 l 0,-3.6666669 C 39.5,6.1416211 32.560413,4.4999998 24,4.4999998 z" color="#000" display="inline" enable-background="accumulate" opacity=".5" overflow="visible" visibility="visible" style="marker:none"/><path id="path4564-1-6" fill="none" stroke="url(#linearGradient3083)" stroke-dasharray="none" stroke-dashoffset="0" stroke-linecap="round" stroke-linejoin="round" stroke-miterlimit="4" stroke-opacity="1" stroke-width=".75" d="M 33,3.5 C 33,5.4329966 29.865993,7 26,7 22.134007,7 19,5.4329966 19,3.5 19,1.5670034 22.134007,0 26,0 c 3.865993,0 7,1.5670034 7,3.5 z" color="#000" display="inline" enable-background="accumulate" opacity=".7" overflow="visible" transform="matrix(2.0714286,0,0,-0.85714287,-29.857139,11.499847)" visibility="visible" style="marker:none"/><path d="M 20.142857,4.4999997 C 19.786714,4.4999997 19.5,4.797333 19.5,5.1666663 c 0,1.5555556 0,3.3333333 0,3.3333333 l 2,0 0,-1.9999996 5,0 0,1.9999996 2,0 0,-3.3333333 C 28.5,4.797333 28.213286,4.4999997 27.857143,4.4999997 z" style="marker:none" id="rect4167-4" fill="#dcdcdd" fill-opacity="1" fill-rule="nonzero" stroke="none" stroke-width="1.019" color="#000" display="inline" enable-background="accumulate" overflow="visible" visibility="visible"/><path id="rect4167" fill="none" stroke="#161b28" stroke-dasharray="none" stroke-dashoffset="0" stroke-linecap="butt" stroke-linejoin="miter" stroke-miterlimit="4" stroke-opacity="1" stroke-width="1" d="M 20.142857,4.4999999 C 19.786714,4.4999999 19.5,4.7973332 19.5,5.1666665 19.5,6.7222222 19.5,8.5 19.5,8.5 l 2,0 0,-1.5 C 21.46404,6.6044996 22.040159,6.5 22.040159,6.5 l 3.955004,0 c 0,0 0.504837,0.1044996 0.504837,0.5 l 0,1.5 2,0 0,-3.3333335 c 0,-0.3693333 -0.286714,-0.6666666 -0.642857,-0.6666666 z" color="#000" display="inline" enable-background="accumulate" opacity=".3" overflow="visible" visibility="visible" style="marker:none"/></g></svg>