<svg xmlns="http://www.w3.org/2000/svg" xmlns:svg="http://www.w3.org/2000/svg" id="svg6" width="24" height="24" version="1.1"><metadata id="metadata12"/><g id="g4" color="#000" transform="translate(-669,27)"><path id="path2" fill="#666" d="m 680.5,-23 c -4.13,0 -7.5,3.37 -7.5,7.5 0,4.13 3.37,7.5 7.5,7.5 4.13,0 7.5,-3.37 7.5,-7.5 0,-4.13 -3.37,-7.5 -7.5,-7.5 z m 0,2 c 3.05,0 5.5,2.45 5.5,5.5 0,3.05 -2.45,5.5 -5.5,5.5 -3.05,0 -5.5,-2.45 -5.5,-5.5 0,-3.05 2.45,-5.5 5.5,-5.5 z m 2.965,2.002 a 0.5,0.5 0 0 0 -0.072,0.008 v 0.008 a 0.5,0.5 0 0 0 -0.25,0.156 l -2.657,2.649 -1.656,-1.649 a 0.5,0.5 0 1 0 -0.687,0.688 l 2,2 a 0.5,0.5 0 0 0 0.687,0 l 3,-3 a 0.5,0.5 0 0 0 -0.365,-0.86 z" font-family="sans-serif" font-weight="400" overflow="visible" text-decoration="none" style="line-height:normal;font-variant-ligatures:normal;font-variant-position:normal;font-variant-caps:normal;font-variant-numeric:normal;font-variant-alternates:normal;font-feature-settings:normal;text-indent:0;text-align:start;text-decoration-line:none;text-decoration-style:solid;text-decoration-color:#000;text-transform:none;text-orientation:mixed;white-space:normal;shape-padding:0;isolation:auto;mix-blend-mode:normal"/></g></svg>