<svg xmlns="http://www.w3.org/2000/svg" xmlns:svg="http://www.w3.org/2000/svg" xmlns:xlink="http://www.w3.org/1999/xlink" id="svg3085" width="24" height="24" version="1.1"><defs id="defs3087"><linearGradient id="linearGradient3031" x1="22.004" x2="22.004" y1="47.813" y2="3.364" gradientTransform="matrix(0.48571482,0,0,0.477213,-0.305596,-8.326798)" gradientUnits="userSpaceOnUse" xlink:href="#linearGradient3104-5"/><linearGradient id="linearGradient3104-5"><stop id="stop3106-2" offset="0" stop-color="#aaa" stop-opacity="1"/><stop id="stop3108-5" offset="1" stop-color="#c8c8c8" stop-opacity="1"/></linearGradient><linearGradient id="linearGradient3013" x1="24" x2="24" y1="5.564" y2="43" gradientTransform="matrix(0.40540511,0,0,0.51351351,2.2696871,-8.3243195)" gradientUnits="userSpaceOnUse" xlink:href="#linearGradient3977"/><linearGradient id="linearGradient3977"><stop id="stop3979" offset="0" stop-color="#fff" stop-opacity="1"/><stop id="stop3981" offset=".036" stop-color="#fff" stop-opacity=".235"/><stop id="stop3983" offset=".951" stop-color="#fff" stop-opacity=".157"/><stop id="stop3985" offset="1" stop-color="#fff" stop-opacity=".392"/></linearGradient><linearGradient id="linearGradient3016" x1="25.132" x2="25.132" y1=".985" y2="47.013" gradientTransform="matrix(0.48571543,0,0,0.45629666,0.3428289,-7.6511383)" gradientUnits="userSpaceOnUse" xlink:href="#linearGradient3600-4"/><linearGradient id="linearGradient3600-4"><stop id="stop3602-7" offset="0" stop-color="#f4f4f4" stop-opacity="1"/><stop id="stop3604-6" offset="1" stop-color="#dbdbdb" stop-opacity="1"/></linearGradient><radialGradient id="radialGradient3021" cx="605.714" cy="486.648" r="117.143" fx="605.714" fy="486.648" gradientTransform="matrix(0.01204859,0,0,0.0082353,13.238793,10.980564)" gradientUnits="userSpaceOnUse" xlink:href="#linearGradient5060"/><linearGradient id="linearGradient5060"><stop id="stop5062" offset="0" stop-color="#000" stop-opacity="1"/><stop id="stop5064" offset="1" stop-color="#000" stop-opacity="0"/></linearGradient><radialGradient id="radialGradient3024" cx="605.714" cy="486.648" r="117.143" fx="605.714" fy="486.648" gradientTransform="matrix(-0.01204859,0,0,0.0082353,10.761206,10.980564)" gradientUnits="userSpaceOnUse" xlink:href="#linearGradient5060"/><linearGradient id="linearGradient5048"><stop id="stop5050" offset="0" stop-color="#000" stop-opacity="0"/><stop id="stop5056" offset=".5" stop-color="#000" stop-opacity="1"/><stop id="stop5052" offset="1" stop-color="#000" stop-opacity="0"/></linearGradient><linearGradient id="linearGradient3083" x1="302.857" x2="302.857" y1="366.648" y2="609.505" gradientTransform="matrix(0.0352071,0,0,0.0082353,-0.724852,10.980547)" gradientUnits="userSpaceOnUse" xlink:href="#linearGradient5048"/><linearGradient id="linearGradient3035" x1="182" x2="182" y1="33" y2="24.52" gradientTransform="matrix(0.78298232,0,0,0.78095643,-136.09264,-15.739386)" gradientUnits="userSpaceOnUse" xlink:href="#linearGradient3985-6-635-120-628-965"/><linearGradient id="linearGradient3985-6-635-120-628-965"><stop id="stop7116" offset="0" stop-color="#fff" stop-opacity="1"/><stop id="stop7118" offset="1" stop-color="#fff" stop-opacity="0"/></linearGradient><linearGradient id="linearGradient3038" x1="188" x2="188" y1="17" y2="36.026" gradientTransform="matrix(0.72378979,0,0,0.72378991,-125.19431,-14.257582)" gradientUnits="userSpaceOnUse" xlink:href="#linearGradient3985-746-156-539-972"/><linearGradient id="linearGradient3985-746-156-539-972"><stop id="stop7110" offset="0" stop-color="#fff" stop-opacity="1"/><stop id="stop7112" offset="1" stop-color="#fff" stop-opacity="0"/></linearGradient></defs><metadata id="metadata3090"/><g id="layer1" transform="translate(0,8)"><rect id="rect2879" width="17" height="2" x="3.5" y="14" fill="url(#linearGradient3083)" fill-opacity="1" fill-rule="nonzero" stroke="none" stroke-width="1" display="inline" opacity=".15" overflow="visible" visibility="visible" style="marker:none"/><path id="path2881" fill="url(#radialGradient3024)" fill-opacity="1" fill-rule="nonzero" stroke="none" stroke-width="1" d="m 3.4999999,14.000085 c 0,0 0,1.999891 0,1.999891 C 2.8795275,16.003776 2,15.551901 2,14.999901 2,14.447902 2.6924,14.000085 3.4999999,14.000085 z" display="inline" opacity=".15" overflow="visible" visibility="visible" style="marker:none"/><path id="path2883" fill="url(#radialGradient3021)" fill-opacity="1" fill-rule="nonzero" stroke="none" stroke-width="1" d="m 20.5,14.000085 c 0,0 0,1.999891 0,1.999891 0.620472,0.0038 1.5,-0.448075 1.5,-1.000075 0,-0.551999 -0.692402,-0.999816 -1.5,-0.999816 z" display="inline" opacity=".15" overflow="visible" visibility="visible" style="marker:none"/><path id="path4160-3" fill="url(#linearGradient3016)" fill-opacity="1" stroke="none" d="m 3.4999601,-6.5000431 c 3.8955809,0 17.0000589,0.00136 17.0000589,0.00136 l 2.1e-5,20.9987161 c 0,0 -11.3333862,0 -17.0000799,0 0,-7.000018 0,-14.000035 0,-21.0000538 z" display="inline"/><path id="rect6741-1" fill="none" stroke="url(#linearGradient3013)" stroke-dasharray="none" stroke-dashoffset="0" stroke-linecap="round" stroke-linejoin="miter" stroke-miterlimit="4" stroke-opacity="1" stroke-width="1" d="m 19.5,13.5 -15.0000004,0 0,-19 L 19.5,-5.5 z"/><path id="path4160-3-1" fill="none" stroke="#000" stroke-dasharray="none" stroke-dashoffset="0" stroke-linecap="butt" stroke-linejoin="round" stroke-miterlimit="4" stroke-opacity="1" stroke-width="1" d="m 3.4999601,-6.5000431 c 3.8955809,0 17.0000589,0.00136 17.0000589,0.00136 l 2.1e-5,20.9987161 c 0,0 -11.3333862,0 -17.0000799,0 0,-7.000018 0,-14.000035 0,-21.0000538 z" display="inline" opacity=".3"/><path id="path3475" fill="none" stroke="url(#linearGradient3031)" stroke-linecap="butt" stroke-linejoin="miter" stroke-opacity="1" stroke-width="1" d="m 6,-2.5 1.138394,0 z m 1.305359,0 1.062501,0 z m 1.229466,0 0.941072,0 z m 1.092858,0 0.409822,0 z m 0.576786,0 0.910715,0 z m 1.092859,0 2.398216,0 z m 2.550002,0 1.83661,0 z m 1.988395,0 0.561608,0 z M 6,-1.5 l 1.775895,0 z m 1.973217,0 0.850001,0 z m 1.001787,0 0.425,0 z m 0.591965,0 0.774108,0 z m 0.941072,0 0.789287,0 z m 0.941072,0 1.259823,0 z m 1.426788,0 1.639287,0 z m 1.791073,0 1.092858,0 z m 1.244644,0 0.273215,0 z M 6,-0.5074564 l 1.502681,0 z m 1.654466,0 2.458932,0 z m 2.610718,0 1.199108,0 z m 1.350894,0 1.123215,0 z m 1.275001,0 0.956251,0 z m 1.108037,0 1.50268,0.014913 z m 1.639288,0.014913 2.443752,0 z M 6,0.5 l 2.079467,0 z m 2.246431,0 2.246431,0 z m 2.398217,0 0.895537,0 z m 1.047323,0 2.109824,0 z m 2.246431,0 1.441966,0 z m 1.60893,0 0.576787,0 z m 0.728572,0 0.318751,0 z m 0.485715,0 0.895537,0 z M 6,1.5 l 0.774108,0 z m 1.016966,0 2.868753,0 z M 6,3.492545 l 1.502681,0 z m 1.654466,0 2.458932,0 z m 2.610718,0 1.199108,0 z m 1.350894,0 1.123215,0 z m 1.275001,0 0.956251,0 z m 1.108037,0 1.50268,0.01491 z m 1.639288,0.01491 2.443752,0 z M 6,4.5 l 1.912502,0 z m 2.064288,0 2.04911,0 z m 2.200896,0 0.789286,0 z m 0.941072,0 1.927681,0 z m 2.079467,0 2.428574,0 z m 2.595538,0 0.895537,0 z M 6,5.5 l 2.079467,0 z m 2.246431,0 2.246431,0 z m 2.398217,0 0.895537,0 z m 1.047323,0 2.109824,0 z m 2.246431,0 1.441966,0 z m 1.60893,0 0.576787,0 z m 0.728572,0 0.318751,0 z m 0.485715,0 0.895537,0 z M 6,6.5 l 1.775895,0 z m 1.973217,0 0.850001,0 z m 1.001787,0 0.425,0 z m 0.591965,0 0.774108,0 z m 0.941072,0 0.789287,0 z m 0.941072,0 1.259823,0 z m 1.426788,0 1.639287,0 z m 1.791073,0 1.092858,0 z m 1.244644,0 0.273215,0 z M 6,8.492545 l 1.502681,0 z m 1.654466,0 2.458932,0 z m 2.610718,0 1.199108,0 z m 1.350894,0 1.123215,0 z m 1.275001,0 0.956251,0 z m 1.108037,0 1.50268,0.01491 z m 1.639288,0.01491 2.443752,0 z M 6,9.5 l 1.775895,0 z m 1.973217,0 0.850001,0 z m 1.001787,0 0.425,0 z m 0.591965,0 0.774108,0 z m 0.941072,0 0.789287,0 z m 0.941072,0 1.259823,0 z m 1.426788,0 1.639287,0 z m 1.791073,0 1.092858,0 z m 1.244644,0 0.273215,0 z M 6,10.5 l 1.882145,0 z m 2.04911,0 0.591965,0 z m 0.743751,0 1.350894,0 z m 1.50268,0 1.988395,0 z m 2.155359,0 1.350895,0 z m 1.487502,0 0.288393,0 z m 0.440179,0 1.71518,0 z m 1.897323,0 0.895537,0 z M 6,11.5 l 1.882145,0 z m 2.04911,0 0.850001,0 z m 1.001787,0 1.335715,0 z m 1.487501,0 1.441966,0 z m 1.60893,0 0.576787,0 z m 0.728573,0 0.31875,0 z m 0.485715,0 0.895536,0 z"/><path id="path3410" fill="#81d72c" fill-opacity=".588" fill-rule="evenodd" stroke="#4e9a06" stroke-dasharray="none" stroke-linecap="butt" stroke-linejoin="round" stroke-miterlimit="4" stroke-opacity="1" stroke-width="1" d="m 1.532046,-3.540421 16,15.999999 -16,0 z m 2.999941,8.499999 0,4.5 5,0 z"/><path id="path3981" fill="none" stroke="url(#linearGradient3038)" stroke-linecap="butt" stroke-linejoin="miter" stroke-opacity="1" stroke-width="1" d="m 2.531987,-1.142631 c 0,4.267344 0,8.334864 0,12.602209 4.267342,0 8.334869,0 12.60221,0 0,0 -12.60221,-12.602209 -12.60221,-12.602209 z" opacity=".5"/><path id="path3981-5" fill="none" stroke="url(#linearGradient3035)" stroke-linecap="butt" stroke-linejoin="miter" stroke-opacity="1" stroke-width="1" d="m 3.531987,3.784525 0,6.675053 7,0" opacity=".5"/><path id="path3853" fill="none" stroke="#85f619" stroke-linecap="square" stroke-linejoin="miter" stroke-opacity="1" stroke-width="1" d="m 3.5,13.5 13.999723,0" opacity=".3"/></g></svg>