<svg xmlns="http://www.w3.org/2000/svg" xmlns:svg="http://www.w3.org/2000/svg" xmlns:xlink="http://www.w3.org/1999/xlink" id="svg2" width="24" height="24" version="1.0"><defs id="defs4"><linearGradient id="linearGradient8265-821-176-38-919-66-249-311"><stop id="stop2662" offset="0" stop-color="#fff" stop-opacity="1"/><stop id="stop2664" offset="1" stop-color="#fff" stop-opacity="0"/></linearGradient><linearGradient id="linearGradient2558-342" x1="18.031" x2="20.055" y1="16.408" y2="24.628" gradientUnits="userSpaceOnUse" xlink:href="#linearGradient8265-821-176-38-919-66-249-311"/><linearGradient id="linearGradient3390-725"><stop id="stop2656" offset="0" stop-color="#5e5e5e" stop-opacity="1"/><stop id="stop2658" offset="1" stop-color="#909090" stop-opacity="1"/></linearGradient><linearGradient id="linearGradient2556-839" x1="10.318" x2="4.176" y1="14.993" y2="4.051" gradientTransform="matrix(1.0083043,0,0,1.0006232,-10.500284,-26.477671)" gradientUnits="userSpaceOnUse" xlink:href="#linearGradient3390-725"/><linearGradient id="linearGradient7012-661-145-733-759-865-745-340"><stop id="stop2650" offset="0" stop-color="#bababa" stop-opacity="1"/><stop id="stop2652" offset="1" stop-color="#838383" stop-opacity="1"/></linearGradient><linearGradient id="linearGradient2554-641" x1="126.698" x2="169.23" y1="58.583" y2="238.4" gradientTransform="matrix(0.05489342,0.01385132,0.00257263,0.05248166,-11.212261,-26.738461)" gradientUnits="userSpaceOnUse" xlink:href="#linearGradient7012-661-145-733-759-865-745-340"/><linearGradient id="linearGradient5060-925"><stop id="stop2644" offset="0" stop-color="#000" stop-opacity="1"/><stop id="stop2646" offset="1" stop-color="#000" stop-opacity="0"/></linearGradient><radialGradient id="radialGradient2552-332" cx="605.714" cy="486.648" r="117.143" fx="605.714" fy="486.648" gradientTransform="matrix(-2.774389,0,0,1.969706,112.7623,-872.8854)" gradientUnits="userSpaceOnUse" xlink:href="#linearGradient5060-925"/><linearGradient id="linearGradient5060-311"><stop id="stop2638" offset="0" stop-color="#000" stop-opacity="1"/><stop id="stop2640" offset="1" stop-color="#000" stop-opacity="0"/></linearGradient><radialGradient id="radialGradient2550-690" cx="605.714" cy="486.648" r="117.143" fx="605.714" fy="486.648" gradientTransform="matrix(2.774389,0,0,1.969706,-1891.633,-872.8854)" gradientUnits="userSpaceOnUse" xlink:href="#linearGradient5060-311"/><linearGradient id="linearGradient5048-380"><stop id="stop2630" offset="0" stop-color="#000" stop-opacity="0"/><stop id="stop2632" offset=".5" stop-color="#000" stop-opacity="1"/><stop id="stop2634" offset="1" stop-color="#000" stop-opacity="0"/></linearGradient><linearGradient id="linearGradient2548-464" x1="302.857" x2="302.857" y1="366.648" y2="609.505" gradientTransform="matrix(2.774389,0,0,1.969706,-1892.179,-872.8854)" gradientUnits="userSpaceOnUse" xlink:href="#linearGradient5048-380"/><linearGradient id="linearGradient8265-821-176-38-919-66-249"><stop id="stop2687" offset="0" stop-color="#fff" stop-opacity="1"/><stop id="stop2689" offset="1" stop-color="#fff" stop-opacity="0"/></linearGradient><linearGradient id="linearGradient2580" x1="18.031" x2="20.055" y1="16.408" y2="24.628" gradientUnits="userSpaceOnUse" xlink:href="#linearGradient8265-821-176-38-919-66-249"/><linearGradient id="linearGradient3390"><stop id="stop3392" offset="0" stop-color="#425e7b" stop-opacity="1"/><stop id="stop3394" offset="1" stop-color="#7a91a7" stop-opacity="1"/></linearGradient><linearGradient id="linearGradient2578" x1="10.318" x2="4.176" y1="14.993" y2="4.051" gradientTransform="matrix(1.0083043,0,0,1.0006232,-10.500284,-26.477671)" gradientUnits="userSpaceOnUse" xlink:href="#linearGradient3390"/><linearGradient id="linearGradient7012-661-145-733-759-865-745"><stop id="stop2699" offset="0" stop-color="#9cbbd9" stop-opacity="1"/><stop id="stop2701" offset="1" stop-color="#5c82ab" stop-opacity="1"/></linearGradient><linearGradient id="linearGradient2576" x1="126.698" x2="169.23" y1="58.583" y2="238.4" gradientTransform="matrix(0.05489342,0.01385132,0.00257263,0.05248166,-11.212261,-26.738461)" gradientUnits="userSpaceOnUse" xlink:href="#linearGradient7012-661-145-733-759-865-745"/><radialGradient id="radialGradient2574" cx="605.714" cy="486.648" r="117.143" fx="605.714" fy="486.648" gradientTransform="matrix(-2.774389,0,0,1.969706,112.7623,-872.8854)" gradientUnits="userSpaceOnUse" xlink:href="#linearGradient5060"/><linearGradient id="linearGradient5060"><stop id="stop5062" offset="0" stop-color="#000" stop-opacity="1"/><stop id="stop5064" offset="1" stop-color="#000" stop-opacity="0"/></linearGradient><radialGradient id="radialGradient2572" cx="605.714" cy="486.648" r="117.143" fx="605.714" fy="486.648" gradientTransform="matrix(2.774389,0,0,1.969706,-1891.633,-872.8854)" gradientUnits="userSpaceOnUse" xlink:href="#linearGradient5060"/><linearGradient id="linearGradient5048"><stop id="stop5050" offset="0" stop-color="#000" stop-opacity="0"/><stop id="stop5056" offset=".5" stop-color="#000" stop-opacity="1"/><stop id="stop5052" offset="1" stop-color="#000" stop-opacity="0"/></linearGradient><linearGradient id="linearGradient2570" x1="302.857" x2="302.857" y1="366.648" y2="609.505" gradientTransform="matrix(2.774389,0,0,1.969706,-1892.179,-872.8854)" gradientUnits="userSpaceOnUse" xlink:href="#linearGradient5048"/><linearGradient id="linearGradient3018" x1="-51.786" x2="-51.786" y1="53.514" y2="2.061" gradientTransform="matrix(0.31070043,0,0,0.27489387,20.17717,-0.10316268)" gradientUnits="userSpaceOnUse" xlink:href="#linearGradient3104-8-8-97-4-6-11-5-5-4-4"/><linearGradient id="linearGradient8858" x1="62.989" x2="62.989" y1="11.645" y2="15.385" gradientTransform="matrix(0.33333327,0,0,0.32971018,-17.44063,-0.64784268)" gradientUnits="userSpaceOnUse" xlink:href="#linearGradient4346"/><linearGradient id="linearGradient4346"><stop id="stop4348" offset="0" stop-color="#fff" stop-opacity="1"/><stop id="stop4350" offset="1" stop-color="#d8d8d8" stop-opacity="1"/></linearGradient><linearGradient id="linearGradient3104-8-8-97-4-6-11-5-5-4-4"><stop id="stop3106-5-4-3-5-0-2-1-0-7-7" offset="0" stop-color="#000" stop-opacity=".322"/><stop id="stop3108-4-3-7-8-2-0-7-9-0-6" offset="1" stop-color="#000" stop-opacity=".278"/></linearGradient><linearGradient id="linearGradient10473-4-0" x1="-51.786" x2="-51.786" y1="53.514" y2="2.061" gradientTransform="matrix(0.31070043,0,0,0.27489387,20.17717,-0.10316268)" gradientUnits="userSpaceOnUse" xlink:href="#linearGradient3104-8-8-97-4-6-11-5-5-4-4"/><linearGradient id="linearGradient4632-0-6-4-4"><stop id="stop4634-4-4-7-5" offset="0" stop-color="#b4cee1" stop-opacity="1"/><stop id="stop4636-3-1-5-4" offset="1" stop-color="#5d9fcd" stop-opacity="1"/></linearGradient><linearGradient id="linearGradient10262-3" x1="84.309" x2="84.309" y1="16.111" y2="42.924" gradientTransform="matrix(0.33333327,0,0,0.34148555,-17.08621,-0.60407268)" gradientUnits="userSpaceOnUse" xlink:href="#linearGradient4632-0-6-4-4"/><linearGradient id="linearGradient6129-963-697-142-998-580-273-44-2-2-2"><stop id="stop2661-01-6-2-4" offset="0" stop-color="#0a0a0a" stop-opacity=".498"/><stop id="stop2663-64-5-5-3" offset="1" stop-color="#0a0a0a" stop-opacity="0"/></linearGradient><linearGradient id="linearGradient10268-4" x1="76.041" x2="76.041" y1="49.372" y2="35.431" gradientTransform="matrix(0.38156409,0,0,0.32896952,-18.24159,0.28216731)" gradientUnits="userSpaceOnUse" xlink:href="#linearGradient6129-963-697-142-998-580-273-44-2-2-2"/><linearGradient id="linearGradient3454-2-5-0-3-8"><stop id="stop3456-4-9-38-1-9" offset="0" stop-color="#fff" stop-opacity="1"/><stop id="stop3458-39-80-3-5-6" offset=".01" stop-color="#fff" stop-opacity=".235"/><stop id="stop3460-7-0-2-4-4" offset=".99" stop-color="#fff" stop-opacity=".157"/><stop id="stop3462-0-9-8-7-8" offset="1" stop-color="#fff" stop-opacity=".392"/></linearGradient><linearGradient id="linearGradient10270-0" x1="11.35" x2="11.35" y1=".667" y2="8.172" gradientTransform="matrix(0.89189031,0,0,0.94046961,3.14398,5.346537)" gradientUnits="userSpaceOnUse" xlink:href="#linearGradient3454-2-5-0-3-8"/><linearGradient id="linearGradient3031" x1="-51.786" x2="-51.786" y1="53.514" y2="2.061" gradientTransform="matrix(0.31070043,0,0,0.27489387,20.17717,-0.10316268)" gradientUnits="userSpaceOnUse" xlink:href="#linearGradient3104-8-8-97-4-6-11-5-5-4-4-0"/><linearGradient id="linearGradient3025" x1="62.989" x2="62.989" y1="11.645" y2="15.385" gradientTransform="matrix(0.33333327,0,0,0.32971018,-17.44063,-0.64784268)" gradientUnits="userSpaceOnUse" xlink:href="#linearGradient4346-0"/><linearGradient id="linearGradient3022" x1="-51.786" x2="-51.786" y1="53.514" y2="2.061" gradientTransform="matrix(0.31070043,0,0,0.27489387,20.17717,-0.10316268)" gradientUnits="userSpaceOnUse" xlink:href="#linearGradient3104-8-8-97-4-6-11-5-5-4-4-0"/><linearGradient id="linearGradient3019" x1="84.309" x2="84.309" y1="16.111" y2="42.924" gradientTransform="matrix(0.33333327,0,0,0.34148555,-17.08621,-0.60407268)" gradientUnits="userSpaceOnUse" xlink:href="#linearGradient4632-0-6-4-4-7"/><linearGradient id="linearGradient3016" x1="76.041" x2="76.041" y1="49.372" y2="35.431" gradientTransform="matrix(0.38156409,0,0,0.32896952,-18.24159,0.28216731)" gradientUnits="userSpaceOnUse" xlink:href="#linearGradient6129-963-697-142-998-580-273-44-2-2-2-1"/><linearGradient id="linearGradient3013" x1="11.35" x2="11.35" y1=".667" y2="8.172" gradientTransform="matrix(0.89189031,0,0,0.94046961,3.14398,5.346537)" gradientUnits="userSpaceOnUse" xlink:href="#linearGradient3454-2-5-0-3-8-2"/><linearGradient id="linearGradient8858-6" x1="62.989" x2="62.989" y1="11.645" y2="15.385" gradientTransform="matrix(0.33333327,0,0,0.32971018,-17.44063,-0.64784268)" gradientUnits="userSpaceOnUse" xlink:href="#linearGradient4346-0"/><linearGradient id="linearGradient4346-0"><stop id="stop4348-9" offset="0" stop-color="#fff" stop-opacity="1"/><stop id="stop4350-5" offset="1" stop-color="#d8d8d8" stop-opacity="1"/></linearGradient><linearGradient id="linearGradient3104-8-8-97-4-6-11-5-5-4-4-0"><stop id="stop3106-5-4-3-5-0-2-1-0-7-7-7" offset="0" stop-color="#000" stop-opacity=".322"/><stop id="stop3108-4-3-7-8-2-0-7-9-0-6-9" offset="1" stop-color="#000" stop-opacity=".278"/></linearGradient><linearGradient id="linearGradient10473-4-0-6" x1="-51.786" x2="-51.786" y1="53.514" y2="2.061" gradientTransform="matrix(0.31070043,0,0,0.27489387,20.17717,-0.10316268)" gradientUnits="userSpaceOnUse" xlink:href="#linearGradient3104-8-8-97-4-6-11-5-5-4-4-0"/><linearGradient id="linearGradient4632-0-6-4-4-7"><stop id="stop4634-4-4-7-5-1" offset="0" stop-color="#e9e9e9" stop-opacity="1"/><stop id="stop4636-3-1-5-4-6" offset="1" stop-color="#b4b4b4" stop-opacity="1"/></linearGradient><linearGradient id="linearGradient10262-3-1" x1="84.309" x2="84.309" y1="16.111" y2="42.924" gradientTransform="matrix(0.33333327,0,0,0.34148555,-17.08621,-0.60407268)" gradientUnits="userSpaceOnUse" xlink:href="#linearGradient4632-0-6-4-4-7"/><linearGradient id="linearGradient6129-963-697-142-998-580-273-44-2-2-2-1"><stop id="stop2661-01-6-2-4-3" offset="0" stop-color="#0a0a0a" stop-opacity=".498"/><stop id="stop2663-64-5-5-3-4" offset="1" stop-color="#0a0a0a" stop-opacity="0"/></linearGradient><linearGradient id="linearGradient10268-4-3" x1="76.041" x2="76.041" y1="49.372" y2="35.431" gradientTransform="matrix(0.38156409,0,0,0.32896952,-18.24159,0.28216731)" gradientUnits="userSpaceOnUse" xlink:href="#linearGradient6129-963-697-142-998-580-273-44-2-2-2-1"/><linearGradient id="linearGradient3454-2-5-0-3-8-2"><stop id="stop3456-4-9-38-1-9-6" offset="0" stop-color="#fff" stop-opacity="1"/><stop id="stop3458-39-80-3-5-6-4" offset=".01" stop-color="#fff" stop-opacity=".235"/><stop id="stop3460-7-0-2-4-4-8" offset=".99" stop-color="#fff" stop-opacity=".157"/><stop id="stop3462-0-9-8-7-8-0" offset="1" stop-color="#fff" stop-opacity=".392"/></linearGradient><linearGradient id="linearGradient10270-0-4" x1="11.35" x2="11.35" y1=".667" y2="8.172" gradientTransform="matrix(0.89189031,0,0,0.94046961,3.14398,5.346537)" gradientUnits="userSpaceOnUse" xlink:href="#linearGradient3454-2-5-0-3-8-2"/></defs><metadata id="metadata7"/><g id="layer1"><g id="g3182" transform="translate(2,0.99618507)"><path d="m 2.02332,1.976667 0,1 -1,0 0,4 14,0 0,-4 -7,0 0,-1 -6,0 z" style="marker:none" id="rect4170-0-1" fill="url(#linearGradient3025)" fill-opacity="1" fill-rule="nonzero" stroke="none" stroke-width="1" color="#000" display="inline" enable-background="accumulate" overflow="visible" visibility="visible"/><path font-stretch="normal" style="text-indent:0;text-align:start;line-height:normal;text-transform:none;block-progression:tb;marker:none;-inkscape-font-specification:Sans" id="rect4170-5" fill="url(#linearGradient3031)" fill-opacity="1" stroke="none" stroke-width="1" d="m 1.78125,1 c -0.4068514,0 -0.75,0.3431486 -0.75,0.75 l 0,0.21875 -0.25,0 c -0.40685138,0 -0.75,0.3431486 -0.75,0.75 l 0,1.28125 1,0 0,-1.03125 0.5,0 0.5,0 0,-0.5 0,-0.46875 6,0 0,0.46875 0,0.5 0.5,0 6.5,0 0,1.03125 1,0 0,-1.28125 c 0,-0.4068514 -0.343149,-0.75 -0.75,-0.75 l -6.25,0 0,-0.21875 C 9.03125,1.3431486 8.6881014,1 8.28125,1 l -6.5,0 z" baseline-shift="baseline" color="#000" direction="ltr" display="inline" enable-background="accumulate" font-family="Sans" font-size="medium" font-style="normal" font-variant="normal" font-weight="normal" letter-spacing="normal" opacity=".8" overflow="visible" text-anchor="start" text-decoration="none" visibility="visible" word-spacing="normal" writing-mode="lr-tb"/><path d="m 0.55988,4.453367 c 0.75732,0 14.39951,0.0316 14.98675,0.0316 0,0.6186 -0.0285,10.00962 -0.0624,10.00962 -5.26001,0.0178 -13.45265,-0.014 -14.98423,-0.014 0,-1.16748 0.0599,-7.62459 0.0599,-10.02721 z" style="marker:none" id="rect3086-5" fill="url(#linearGradient3019)" fill-opacity="1" fill-rule="nonzero" stroke="none" stroke-width="1" color="#000" display="inline" enable-background="accumulate" overflow="visible" visibility="visible"/><path id="rect3086-1-9" fill="url(#linearGradient3016)" fill-opacity="1" fill-rule="nonzero" stroke="none" stroke-width="1" d="m 0.08698,3.976647 c 0.8053,0 15.31189,0.0341 15.93634,0.0341 0,0.67729 -0.0303,10.95971 -0.0663,10.95971 -5.5933,0.02 -14.30504,-0.0148 -15.93366,-0.0148 0,-1.2783 0.0636,-8.34831 0.0636,-10.97898 z" color="#000" display="inline" enable-background="accumulate" opacity=".4" overflow="visible" visibility="visible" style="marker:none"/><path id="rect3086-9-1" fill="none" stroke="url(#linearGradient3013)" stroke-dasharray="none" stroke-dashoffset="0" stroke-linecap="round" stroke-linejoin="miter" stroke-miterlimit="4" stroke-opacity="1" stroke-width="1" d="m 1.57504,5.476667 c 0.65431,0 12.44092,0.0251 12.94828,0.0251 0,0.49259 -0.0246,7.97055 -0.0539,7.97055 -4.54455,0.0142 -11.62285,-0.0111 -12.9461,-0.0111 0,-0.92965 0.0517,-6.07138 0.0517,-7.98455 z" color="#000" display="inline" enable-background="accumulate" opacity=".5" overflow="visible" visibility="visible" style="marker:none"/><path font-stretch="normal" style="text-indent:0;text-align:start;line-height:normal;text-transform:none;block-progression:tb;marker:none;-inkscape-font-specification:Sans" id="rect3086-0-8" fill="#000" fill-opacity="1" stroke="none" stroke-width="1" d="m 0.40625,3.96875 a 0.50005,0.50005 0 0 0 -0.34375,0.5 0.50005,0.50005 0 0 0 0,0.09375 C 0.06139788,7.0088498 0,13.295273 0,14.46875 a 0.50005,0.50005 0 0 0 0.5,0.5 c 1.5214827,0 9.703777,0.04882 14.96875,0.03125 0.01099,-3.7e-5 0.02028,3.7e-5 0.03125,0 0.0012,-7.95e-4 -0.0019,-0.03002 0,-0.03125 0.06056,-0.03863 0.437378,-0.249737 0.4375,-0.25 1.32e-4,-2.86e-4 0.02699,-0.106637 0.03125,-0.125 0.0085,-0.03673 -0.0014,-0.05081 0,-0.0625 C 15.97145,14.50787 15.99919,14.51368 16,14.5 c 0.0016,-0.02736 -0.0011,-0.05688 0,-0.09375 0.0022,-0.07374 -0.002,-0.182299 0,-0.3125 0.0041,-0.260402 -0.0037,-0.616858 0,-1.0625 0.0074,-0.891284 0.02557,-2.099644 0.03125,-3.3125 0.01137,-2.4257122 0,-4.9017714 0,-5.21875 a 0.50005,0.50005 0 0 0 -0.5,-0.5 C 14.961947,4 1.3337287,3.96875 0.5625,3.96875 a 0.50005,0.50005 0 0 0 -0.15625,0 z m 0.65625,1 C 2.5331431,4.97065 13.680989,4.998096 15.03125,5 c -0.0012,0.6360494 0.01027,2.5265847 0,4.71875 C 15.02557,10.930974 15.007429,12.111137 15,13 c -0.0034,0.406338 0.0036,0.748851 0,1 -5.0789999,0.01381 -12.1556038,-0.02935 -14,-0.03125 0.00512,-1.492643 0.057379,-6.4863005 0.0625,-9 z" baseline-shift="baseline" color="#000" direction="ltr" display="inline" enable-background="accumulate" font-family="Sans" font-size="medium" font-style="normal" font-variant="normal" font-weight="normal" letter-spacing="normal" opacity=".3" overflow="visible" text-anchor="start" text-decoration="none" visibility="visible" word-spacing="normal" writing-mode="lr-tb"/></g><g id="layer1-8" transform="translate(6,6.9961851)"><path d="m 2.02332,1.976667 0,1 -1,0 0,4 14,0 0,-4 -7,0 0,-1 -6,0 z" style="marker:none" id="rect4170-0" fill="url(#linearGradient8858)" fill-opacity="1" fill-rule="nonzero" stroke="none" stroke-width="1" color="#000" display="inline" enable-background="accumulate" overflow="visible" visibility="visible"/><path font-stretch="normal" style="text-indent:0;text-align:start;line-height:normal;text-transform:none;block-progression:tb;marker:none;-inkscape-font-specification:Sans" id="rect4170" fill="url(#linearGradient3018)" fill-opacity="1" stroke="none" stroke-width="1" d="m 1.78125,1 c -0.4068514,0 -0.75,0.3431486 -0.75,0.75 l 0,0.21875 -0.25,0 c -0.40685138,0 -0.75,0.3431486 -0.75,0.75 l 0,1.28125 1,0 0,-1.03125 0.5,0 0.5,0 0,-0.5 0,-0.46875 6,0 0,0.46875 0,0.5 0.5,0 6.5,0 0,1.03125 1,0 0,-1.28125 c 0,-0.4068514 -0.343149,-0.75 -0.75,-0.75 l -6.25,0 0,-0.21875 C 9.03125,1.3431486 8.6881014,1 8.28125,1 l -6.5,0 z" baseline-shift="baseline" color="#000" direction="ltr" display="inline" enable-background="accumulate" font-family="Sans" font-size="medium" font-style="normal" font-variant="normal" font-weight="normal" letter-spacing="normal" opacity=".8" overflow="visible" text-anchor="start" text-decoration="none" visibility="visible" word-spacing="normal" writing-mode="lr-tb"/><path d="m 0.55988,4.453367 c 0.75732,0 14.39951,0.0316 14.98675,0.0316 0,0.6186 -0.0285,10.00962 -0.0624,10.00962 -5.26001,0.0178 -13.45265,-0.014 -14.98423,-0.014 0,-1.16748 0.0599,-7.62459 0.0599,-10.02721 z" style="marker:none" id="rect3086" fill="url(#linearGradient10262-3)" fill-opacity="1" fill-rule="nonzero" stroke="none" stroke-width="1" color="#000" display="inline" enable-background="accumulate" overflow="visible" visibility="visible"/><path id="rect3086-1" fill="url(#linearGradient10268-4)" fill-opacity="1" fill-rule="nonzero" stroke="none" stroke-width="1" d="m 0.08698,3.976647 c 0.8053,0 15.31189,0.0341 15.93634,0.0341 0,0.67729 -0.0303,10.95971 -0.0663,10.95971 -5.5933,0.02 -14.30504,-0.0148 -15.93366,-0.0148 0,-1.2783 0.0636,-8.34831 0.0636,-10.97898 z" color="#000" display="inline" enable-background="accumulate" opacity=".4" overflow="visible" visibility="visible" style="marker:none"/><path id="rect3086-9" fill="none" stroke="url(#linearGradient10270-0)" stroke-dasharray="none" stroke-dashoffset="0" stroke-linecap="round" stroke-linejoin="miter" stroke-miterlimit="4" stroke-opacity="1" stroke-width="1" d="m 1.57504,5.476667 c 0.65431,0 12.44092,0.0251 12.94828,0.0251 0,0.49259 -0.0246,7.97055 -0.0539,7.97055 -4.54455,0.0142 -11.62285,-0.0111 -12.9461,-0.0111 0,-0.92965 0.0517,-6.07138 0.0517,-7.98455 z" color="#000" display="inline" enable-background="accumulate" opacity=".5" overflow="visible" visibility="visible" style="marker:none"/><path font-stretch="normal" style="text-indent:0;text-align:start;line-height:normal;text-transform:none;block-progression:tb;marker:none;-inkscape-font-specification:Sans" id="rect3086-0" fill="#000" fill-opacity="1" stroke="none" stroke-width="1" d="m 0.40625,3.96875 a 0.50005,0.50005 0 0 0 -0.34375,0.5 0.50005,0.50005 0 0 0 0,0.09375 C 0.0613979,7.0088498 0,13.295273 0,14.46875 a 0.50005,0.50005 0 0 0 0.5,0.5 c 1.5214827,0 9.703777,0.04882 14.96875,0.03125 0.01099,-3.7e-5 0.02028,3.7e-5 0.03125,0 0.0012,-7.95e-4 -0.0019,-0.03002 0,-0.03125 0.06056,-0.03863 0.437378,-0.249737 0.4375,-0.25 1.32e-4,-2.86e-4 0.02699,-0.106637 0.03125,-0.125 0.0085,-0.03673 -0.0014,-0.05081 0,-0.0625 C 15.97145,14.50787 15.99919,14.51368 16,14.5 c 0.0016,-0.02736 -0.0011,-0.05688 0,-0.09375 0.0022,-0.07374 -0.002,-0.182299 0,-0.3125 0.0041,-0.260402 -0.0037,-0.616858 0,-1.0625 0.0074,-0.891284 0.02557,-2.099644 0.03125,-3.3125 0.01137,-2.4257122 0,-4.9017714 0,-5.21875 a 0.50005,0.50005 0 0 0 -0.5,-0.5 C 14.961947,4 1.3337287,3.96875 0.5625,3.96875 a 0.50005,0.50005 0 0 0 -0.15625,0 z m 0.65625,1 C 2.5331431,4.97065 13.680989,4.998096 15.03125,5 c -0.0012,0.6360494 0.01027,2.5265847 0,4.71875 C 15.02557,10.930974 15.007429,12.111137 15,13 c -0.0034,0.406338 0.0036,0.748851 0,1 -5.0789999,0.01381 -12.1556038,-0.02935 -14,-0.03125 0.00512,-1.492643 0.057379,-6.4863005 0.0625,-9 z" baseline-shift="baseline" color="#000" direction="ltr" display="inline" enable-background="accumulate" font-family="Sans" font-size="medium" font-style="normal" font-variant="normal" font-weight="normal" letter-spacing="normal" opacity=".3" overflow="visible" text-anchor="start" text-decoration="none" visibility="visible" word-spacing="normal" writing-mode="lr-tb"/></g></g></svg>