<svg xmlns="http://www.w3.org/2000/svg" xmlns:svg="http://www.w3.org/2000/svg" xmlns:xlink="http://www.w3.org/1999/xlink" id="svg3495" width="24" height="24" version="1.1"><defs id="defs3497"><linearGradient id="linearGradient3952"><stop id="stop3954" offset="0" stop-color="#000" stop-opacity="1"/><stop id="stop3956" offset="1" stop-color="#000" stop-opacity="0"/></linearGradient><linearGradient id="linearGradient2867-449-88-871-390-598-476-591-434-148-57-177"><stop id="stop3750" offset="0" stop-color="#90dbec" stop-opacity="1"/><stop id="stop3752" offset=".262" stop-color="#55c1ec" stop-opacity="1"/><stop id="stop3754" offset=".705" stop-color="#3689e6" stop-opacity="1"/><stop id="stop3756" offset="1" stop-color="#2b63a0" stop-opacity="1"/></linearGradient><linearGradient id="linearGradient4125" x1="34.257" x2="27.058" y1="60.881" y2="60.881" gradientTransform="matrix(0,-0.44324004,0.45870569,0,-8.384791,24.993361)" gradientUnits="userSpaceOnUse" xlink:href="#linearGradient4297"/><linearGradient id="linearGradient4297"><stop id="stop4299" offset="0" stop-color="#fff" stop-opacity="1"/><stop id="stop4301" offset=".373" stop-color="#fff" stop-opacity=".235"/><stop id="stop4303" offset=".687" stop-color="#fff" stop-opacity=".157"/><stop id="stop4305" offset="1" stop-color="#fff" stop-opacity=".392"/></linearGradient><linearGradient id="linearGradient4129" x1="23.732" x2="23.732" y1="5.394" y2="39.735" gradientTransform="matrix(0.40682978,0,0,0.37867213,7.548323,4.4580964)" gradientUnits="userSpaceOnUse" xlink:href="#linearGradient2867-449-88-871-390-598-476-591-434-148-57-177"/><radialGradient id="radialGradient4132" cx="24.837" cy="36.421" r="15.645" fx="24.837" fy="36.421" gradientTransform="matrix(-0.35132358,0,0,-0.1598281,26.904592,20.593033)" gradientUnits="userSpaceOnUse" xlink:href="#linearGradient3952"/></defs><metadata id="metadata3500"/><path id="rect4370-8" fill="#4d4d4d" fill-opacity="1" fill-rule="nonzero" stroke="none" stroke-dasharray="none" stroke-dashoffset="0" stroke-linecap="butt" stroke-linejoin="miter" stroke-miterlimit="4" stroke-opacity="1" stroke-width="1" d="m 10,3 0,1 -2,0 0,-1 2,0 z m 10,2 0,1 -8,0 0,-1 8,0 z M 10,5 10,6 1,6 1,5 10,5 Z m 10,11 0,1 -8,0 0,-1 8,0 z m -10,0 0,1 -9,0 0,-1 9,0 z m 10,2 0,1 -8,0 0,-1 8,0 z m -10,0 0,1 -3,0 0,-1 3,0 z m 0,2 0,1 -2,0 0,-1 2,0 z" clip-rule="nonzero" color="#000" color-interpolation="sRGB" color-interpolation-filters="linearRGB" color-rendering="auto" display="inline" enable-background="accumulate" image-rendering="auto" opacity=".4" overflow="visible" shape-rendering="auto" text-rendering="auto" visibility="visible" style="isolation:auto;mix-blend-mode:normal;solid-color:#000;solid-opacity:1;marker:none"/><path id="rect4370" fill="#4d4d4d" fill-opacity="1" fill-rule="nonzero" stroke="none" stroke-dasharray="none" stroke-dashoffset="0" stroke-linecap="butt" stroke-linejoin="miter" stroke-miterlimit="4" stroke-opacity="1" stroke-width="1" d="m 10,8 0,2 -9,0 0,-2 9,0 z m 0,4 0,2 -7,0 0,-2 7,0 z" clip-rule="nonzero" color="#000" color-interpolation="sRGB" color-interpolation-filters="linearRGB" color-rendering="auto" display="inline" enable-background="accumulate" image-rendering="auto" opacity="1" overflow="visible" shape-rendering="auto" text-rendering="auto" visibility="visible" style="isolation:auto;mix-blend-mode:normal;solid-color:#000;solid-opacity:1;marker:none"/><path id="path3501-4" fill="url(#radialGradient4132)" fill-opacity="1" fill-rule="evenodd" stroke="none" stroke-width="1" d="m 12.68236,14.771911 a 5.4963653,2.50047 0 1 1 10.99273,0 5.4963653,2.50047 0 0 1 -10.99273,0 z" display="inline" opacity=".2" overflow="visible" visibility="visible" style="marker:none"/><path id="path3288-2-2" fill="url(#linearGradient4129)" fill-opacity="1" fill-rule="nonzero" stroke="none" stroke-width=".964" d="m 17.499996,16.5 6,-5 -6,-5 0,3 -5,0 0,4 5,0 z" color="#000" display="block" enable-background="accumulate" overflow="visible" visibility="visible" style="marker:none"/><path id="path3288-2-2-80" fill="none" stroke="#004372" stroke-dasharray="none" stroke-dashoffset="0" stroke-linecap="butt" stroke-linejoin="round" stroke-miterlimit="7" stroke-opacity="1" stroke-width="1" d="m 17.50023,16.5 5.999798,-5 -5.999797,-5.0000593 0,3.0000593 -5.000235,0 -4.69e-4,4 5.000235,0 z" color="#000" display="block" enable-background="accumulate" opacity=".5" overflow="visible" visibility="visible" style="marker:none"/><path id="path3288-2-2-8" fill="none" stroke="url(#linearGradient4125)" stroke-dasharray="none" stroke-dashoffset="0" stroke-linecap="butt" stroke-linejoin="miter" stroke-miterlimit="7" stroke-opacity="1" stroke-width="1" d="M 18.499996,14.344173 21.955058,11.5 18.499996,8.6669711 l 0,1.8330289 -5,0 0,2 5,0 z" color="#000" display="block" enable-background="accumulate" opacity=".401" overflow="visible" visibility="visible" style="marker:none"/></svg>