<svg xmlns="http://www.w3.org/2000/svg" xmlns:svg="http://www.w3.org/2000/svg" xmlns:xlink="http://www.w3.org/1999/xlink" id="svg3495" width="24" height="24" version="1.1"><defs id="defs3497"><linearGradient id="linearGradient3952"><stop id="stop3954" offset="0" stop-color="#000" stop-opacity="1"/><stop id="stop3956" offset="1" stop-color="#000" stop-opacity="0"/></linearGradient><linearGradient id="linearGradient2867-449-88-871-390-598-476-591-434-148-57-177"><stop id="stop3750" offset="0" stop-color="#90dbec" stop-opacity="1"/><stop id="stop3752" offset=".262" stop-color="#55c1ec" stop-opacity="1"/><stop id="stop3754" offset=".705" stop-color="#3689e6" stop-opacity="1"/><stop id="stop3756" offset="1" stop-color="#2b63a0" stop-opacity="1"/></linearGradient><linearGradient id="linearGradient4125" x1="34.257" x2="27.058" y1="60.881" y2="60.881" gradientTransform="matrix(0,-0.44324004,-0.45870569,0,32.384791,24.993361)" gradientUnits="userSpaceOnUse" xlink:href="#linearGradient4297"/><linearGradient id="linearGradient4297"><stop id="stop4299" offset="0" stop-color="#fff" stop-opacity="1"/><stop id="stop4301" offset=".373" stop-color="#fff" stop-opacity=".235"/><stop id="stop4303" offset=".687" stop-color="#fff" stop-opacity=".157"/><stop id="stop4305" offset="1" stop-color="#fff" stop-opacity=".392"/></linearGradient><linearGradient id="linearGradient4129" x1="23.732" x2="23.732" y1="5.394" y2="39.735" gradientTransform="matrix(-0.40682978,0,0,0.37867213,16.451677,4.4580964)" gradientUnits="userSpaceOnUse" xlink:href="#linearGradient2867-449-88-871-390-598-476-591-434-148-57-177"/><radialGradient id="radialGradient4132" cx="24.837" cy="36.421" r="15.645" fx="24.837" fy="36.421" gradientTransform="matrix(0.35132358,0,0,-0.1598281,-2.9045921,20.593033)" gradientUnits="userSpaceOnUse" xlink:href="#linearGradient3952"/></defs><metadata id="metadata3500"/><path id="rect4370-8" fill="#4d4d4d" fill-opacity="1" fill-rule="nonzero" stroke="none" stroke-dasharray="none" stroke-dashoffset="0" stroke-linecap="butt" stroke-linejoin="miter" stroke-miterlimit="4" stroke-opacity="1" stroke-width="1" d="M 14 3 L 14 4 L 16 4 L 16 3 L 14 3 z M 4 5 L 4 6 L 12 6 L 12 5 L 4 5 z M 14 5 L 14 6 L 23 6 L 23 5 L 14 5 z M 4 16 L 4 17 L 12 17 L 12 16 L 4 16 z M 14 16 L 14 17 L 23 17 L 23 16 L 14 16 z M 4 18 L 4 19 L 12 19 L 12 18 L 4 18 z M 14 18 L 14 19 L 17 19 L 17 18 L 14 18 z M 14 20 L 14 21 L 16 21 L 16 20 L 14 20 z" clip-rule="nonzero" color="#000" color-interpolation="sRGB" color-interpolation-filters="linearRGB" color-rendering="auto" display="inline" enable-background="accumulate" image-rendering="auto" opacity=".4" overflow="visible" shape-rendering="auto" text-rendering="auto" visibility="visible" style="isolation:auto;mix-blend-mode:normal;solid-color:#000;solid-opacity:1;marker:none"/><path id="rect4370" fill="#4d4d4d" fill-opacity="1" fill-rule="nonzero" stroke="none" stroke-dasharray="none" stroke-dashoffset="0" stroke-linecap="butt" stroke-linejoin="miter" stroke-miterlimit="4" stroke-opacity="1" stroke-width="1" d="M 14 8 L 14 10 L 23 10 L 23 8 L 14 8 z M 14 12 L 14 14 L 21 14 L 21 12 L 14 12 z" clip-rule="nonzero" color="#000" color-interpolation="sRGB" color-interpolation-filters="linearRGB" color-rendering="auto" display="inline" enable-background="accumulate" image-rendering="auto" opacity="1" overflow="visible" shape-rendering="auto" text-rendering="auto" visibility="visible" style="isolation:auto;mix-blend-mode:normal;solid-color:#000;solid-opacity:1;marker:none"/><path d="m 11.31764,14.771911 a 5.4963653,2.50047 0 1 0 -10.9927301,0 5.4963653,2.50047 0 0 0 10.9927301,0 z" style="marker:none" id="path3501-4" fill="url(#radialGradient4132)" fill-opacity="1" fill-rule="evenodd" stroke="none" stroke-width="1" display="inline" opacity=".2" overflow="visible" visibility="visible"/><path id="path3288-2-2" fill="url(#linearGradient4129)" fill-opacity="1" fill-rule="nonzero" stroke="none" stroke-width=".964" d="m 6.5000039,16.5 -6,-5 6,-5 0,3 5.0000001,0 0,4 -5.0000001,0 z" color="#000" display="block" enable-background="accumulate" overflow="visible" visibility="visible" style="marker:none"/><path id="path3288-2-2-80" fill="none" stroke="#004372" stroke-dasharray="none" stroke-dashoffset="0" stroke-linecap="butt" stroke-linejoin="round" stroke-miterlimit="7" stroke-opacity="1" stroke-width="1" d="m 6.4997695,16.5 -5.9997976,-5 5.9997975,-5.0000593 0,3.0000593 5.0002346,0 4.69e-4,4 -5.0002346,0 z" color="#000" display="block" enable-background="accumulate" opacity=".5" overflow="visible" visibility="visible" style="marker:none"/><path id="path3288-2-2-8" fill="none" stroke="url(#linearGradient4125)" stroke-dasharray="none" stroke-dashoffset="0" stroke-linecap="butt" stroke-linejoin="miter" stroke-miterlimit="7" stroke-opacity="1" stroke-width="1" d="M 5.5000039,14.344173 2.0449419,11.5 l 3.455062,-2.8330289 0,1.8330289 5.0000001,0 0,2 -5.0000001,0 z" color="#000" display="block" enable-background="accumulate" opacity=".401" overflow="visible" visibility="visible" style="marker:none"/></svg>