<svg xmlns="http://www.w3.org/2000/svg" xmlns:svg="http://www.w3.org/2000/svg" xmlns:xlink="http://www.w3.org/1999/xlink" id="svg3495" width="24" height="24" version="1.1"><defs id="defs3497"><clipPath id="clipPath3669" clipPathUnits="userSpaceOnUse"><path id="path3671" d="M 0,96 96,96 96,0 0,0 0,96 z"/></clipPath><linearGradient id="linearGradient2997" x1="12" x2="12" y1="22" y2="-2" gradientTransform="translate(0,26)" gradientUnits="userSpaceOnUse" xlink:href="#linearGradient3821"/><linearGradient id="linearGradient3821"><stop id="stop3823" offset="0" stop-color="#555" stop-opacity="1"/><stop id="stop3825" offset="1" stop-color="#666" stop-opacity="1"/></linearGradient><linearGradient id="linearGradient3986" x1="12" x2="12" y1="22" y2="-2" gradientTransform="translate(20.051118,39.199301)" gradientUnits="userSpaceOnUse" xlink:href="#linearGradient3821"/><linearGradient id="linearGradient3801" x1="12" x2="12" y1="22" y2="0" gradientUnits="userSpaceOnUse" xlink:href="#linearGradient3821"/><linearGradient id="linearGradient3952"><stop id="stop3954" offset="0" stop-color="#000" stop-opacity="1"/><stop id="stop3956" offset="1" stop-color="#000" stop-opacity="0"/></linearGradient><linearGradient id="linearGradient3944"><stop id="stop3946" offset="0" stop-color="#000" stop-opacity="1"/><stop id="stop3948" offset="1" stop-color="#000" stop-opacity="0"/></linearGradient><linearGradient id="linearGradient4217" x1="25" x2="25" y1="45" y2="42" gradientTransform="translate(-4.0000003,0)" gradientUnits="userSpaceOnUse" xlink:href="#linearGradient3960"/><linearGradient id="linearGradient3960"><stop id="stop3962" offset="0" stop-color="#000" stop-opacity="0"/><stop id="stop3970" offset=".5" stop-color="#000" stop-opacity="1"/><stop id="stop3964" offset="1" stop-color="#000" stop-opacity="0"/></linearGradient><linearGradient id="linearGradient3905" x1="25" x2="25" y1="45" y2="42" gradientTransform="translate(-8,1.5)" gradientUnits="userSpaceOnUse" xlink:href="#linearGradient3960"/><radialGradient id="radialGradient3908" cx="9" cy="43.5" r="2" fx="9" fy="43.5" gradientTransform="matrix(1,0,0,0.75,-5,12.375)" gradientUnits="userSpaceOnUse" xlink:href="#linearGradient3944"/><radialGradient id="radialGradient3911" cx="40" cy="43.5" r="2" fx="40" fy="43.5" gradientTransform="matrix(1,0,0,0.75,-20,12.375)" gradientUnits="userSpaceOnUse" xlink:href="#linearGradient3952"/><radialGradient id="radialGradient3918" cx="9" cy="43.5" r="2" fx="9" fy="43.5" gradientTransform="matrix(1,0,0,0.75,-4,12.375)" gradientUnits="userSpaceOnUse" xlink:href="#linearGradient3944"/><radialGradient id="radialGradient3949" cx="40" cy="43.5" r="2" fx="40" fy="43.5" gradientTransform="matrix(1,0,0,0.75,-20,12.375)" gradientUnits="userSpaceOnUse" xlink:href="#linearGradient3952"/><linearGradient id="linearGradient3951" x1="25" x2="25" y1="45" y2="42" gradientTransform="translate(-8,1.5)" gradientUnits="userSpaceOnUse" xlink:href="#linearGradient3960"/><linearGradient id="linearGradient3954" x1="25" x2="25" y1="45" y2="42" gradientTransform="translate(-8,1.5)" gradientUnits="userSpaceOnUse" xlink:href="#linearGradient3960"/><radialGradient id="radialGradient3957" cx="9" cy="43.5" r="2" fx="9" fy="43.5" gradientTransform="matrix(1,0,0,0.75,-4,12.375)" gradientUnits="userSpaceOnUse" xlink:href="#linearGradient3944"/><radialGradient id="radialGradient3960" cx="40" cy="43.5" r="2" fx="40" fy="43.5" gradientTransform="matrix(1,0,0,0.75,-21,12.375)" gradientUnits="userSpaceOnUse" xlink:href="#linearGradient3952"/><radialGradient id="radialGradient3896-0" cx="7.616" cy="-24.34" r="20" fx="7.616" fy="-24.34" gradientTransform="matrix(0,1.042301,1.315286,0,156.31336,29.280941)" gradientUnits="userSpaceOnUse" xlink:href="#linearGradient2867-449-88-871-390-598-476-591-434-148-57-177-641-289-620-227-114-444-680-744-4-1-5"/><linearGradient id="linearGradient2867-449-88-871-390-598-476-591-434-148-57-177-641-289-620-227-114-444-680-744-4-1-5"><stop id="stop5430-5-0-9" offset="0" stop-color="#737373" stop-opacity="1"/><stop id="stop5432-2-0-0" offset=".262" stop-color="#636363" stop-opacity="1"/><stop id="stop5434-9-6-8" offset=".705" stop-color="#4b4b4b" stop-opacity="1"/><stop id="stop5436-2-7-0" offset="1" stop-color="#3f3f3f" stop-opacity="1"/></linearGradient><radialGradient id="radialGradient4194" cx="12" cy="21.844" r="9.5" fx="12" fy="21.844" gradientTransform="matrix(-4.2104811,3.5821139e-8,-4.2985376e-8,-5.0525774,62.525774,135.36649)" gradientUnits="userSpaceOnUse" xlink:href="#linearGradient2867-449-88-871-390-598-476-591-434-148-57-177-641-289-620-227-114-444-680-744-4-1-5"/></defs><metadata id="metadata3500"/><g id="layer1" transform="translate(0,-24)"><path id="path11643-3-1" fill="url(#radialGradient4194)" fill-opacity="1" stroke="none" stroke-width="2" d="m 5.5,28.5 0,0.5 0,3 0,0.5 0.5,0 1.5,0 6,0 c 0.08206,0 0.389728,0.133396 0.625,0.375 0.235272,0.241604 0.375,0.582603 0.375,0.625 l 0,1 -4,0 -3,0 c -1.5181314,0 -2.8768217,0.632337 -3.75,1.625 L 3.71875,36.15625 C 2.8832144,37.123303 2.4895188,38.318004 2.5,39.5 2.50999,40.69972 2.9615175,41.914024 3.8125,42.875 4.6778777,43.852232 5.9943753,44.5 7.5,44.5 l 10.5,0 1.5,0 0.25,0 1.25,0 0.5,0 0,-0.5 0,-1.5 0,-1.5 0,-7.5 c 0,-2.720691 -2.208768,-5 -5,-5 l -3,0 -6,0 -1.5,0 -0.5,0 z m 5,10 4,0 0,2 -4,0 C 9.9951765,40.5 9.9571342,40.448611 9.78125,40.25 9.6331845,40.082802 9.502401,39.770483 9.5,39.5 9.4979278,39.210532 9.6330513,38.882946 9.75,38.75 9.9077178,38.570708 9.9580406,38.5 10.5,38.5 Z" baseline-shift="baseline" color="#000" direction="ltr" display="inline" enable-background="accumulate" font-family="Sans" font-stretch="normal" font-style="normal" font-variant="normal" font-weight="normal" letter-spacing="normal" overflow="visible" text-anchor="start" text-decoration="none" visibility="visible" word-spacing="normal" writing-mode="lr-tb" style="line-height:normal;-inkscape-font-specification:Sans;text-indent:0;text-align:start;text-decoration-line:none;text-transform:none;block-progression:tb;marker:none"/><path id="path3783" fill="none" stroke="#000" stroke-dasharray="none" stroke-miterlimit="4" stroke-opacity="1" stroke-width="1" d="m 5.5,28.5 0,0.5 0,3 0,0.5 0.5,0 1.5,0 6,0 c 0.08206,0 0.389728,0.133396 0.625,0.375 0.235272,0.241604 0.375,0.582603 0.375,0.625 l 0,1 -4,0 -3,0 c -1.5181314,0 -2.8768217,0.632337 -3.75,1.625 L 3.71875,36.15625 C 2.8832144,37.123303 2.4895188,38.318004 2.5,39.5 2.50999,40.69972 2.9615175,41.914024 3.8125,42.875 4.6778777,43.852232 5.9943753,44.5 7.5,44.5 l 10.5,0 1.5,0 0.25,0 1.25,0 0.5,0 0,-0.5 0,-1.5 0,-1.5 0,-7.5 c 0,-2.720691 -2.208768,-5 -5,-5 l -3,0 -6,0 -1.5,0 -0.5,0 z m 5,10 4,0 0,2 -4,0 C 9.9951765,40.5 9.9571342,40.448611 9.78125,40.25 9.6331845,40.082802 9.502401,39.770483 9.5,39.5 9.4979278,39.210532 9.6330513,38.882946 9.75,38.75 9.9077178,38.570708 9.9580406,38.5 10.5,38.5 Z" baseline-shift="baseline" color="#000" direction="ltr" display="inline" enable-background="accumulate" font-family="Sans" font-stretch="normal" font-style="normal" font-variant="normal" font-weight="normal" letter-spacing="normal" opacity=".61" overflow="visible" text-anchor="start" text-decoration="none" visibility="visible" word-spacing="normal" writing-mode="lr-tb" style="line-height:normal;-inkscape-font-specification:Sans;text-indent:0;text-align:start;text-decoration-line:none;text-transform:none;block-progression:tb;marker:none"/><path id="path3793" fill="#fff" fill-opacity="1" stroke="none" stroke-width="2" d="m 6,29 0,1 1.5,0 6,0 3,0 c 2.519033,0 4.5,2.049923 4.5,4.5 l 0,-1 C 21,31.049923 19.019033,29 16.5,29 l -3,0 -6,0 -1.5,0 z m 1.5,6 c -1.3792903,0 -2.6021596,0.590155 -3.375,1.46875 l -0.03125,0 L 4.0625,36.5 C 3.3291348,37.365571 2.99065,38.445706 3,39.5 c 0.00113,0.135226 0.048868,0.271244 0.0625,0.40625 0.1010386,-0.854487 0.406254,-1.705468 1,-2.40625 l 0.03125,-0.03125 0.03125,0 C 4.8978404,36.590155 6.1207097,36 7.5,36 l 3,0 4,0 0.5,0 0,-0.5 0,-0.5 -0.5,0 -4,0 -3,0 z m 1.5625,5 C 9.0205927,40.155264 8.9986707,40.314313 9,40.5 c 0.0038,0.428221 0.1501803,0.804592 0.40625,1.09375 0.085614,0.09668 0.2264879,0.228465 0.4375,0.3125 C 10.054762,41.990285 10.230622,42 10.5,42 l 4,0 0.5,0 0,-0.5 0,-0.5 -0.5,0 -4,0 C 10.230622,41 10.054762,40.990285 9.84375,40.90625 9.6327379,40.822215 9.491864,40.69043 9.40625,40.59375 9.2563739,40.424508 9.1306289,40.221905 9.0625,40 Z" baseline-shift="baseline" color="#000" direction="ltr" display="inline" enable-background="accumulate" font-family="Sans" font-stretch="normal" font-style="normal" font-variant="normal" font-weight="normal" letter-spacing="normal" opacity=".2" overflow="visible" text-anchor="start" text-decoration="none" visibility="visible" word-spacing="normal" writing-mode="lr-tb" style="line-height:normal;-inkscape-font-specification:Sans;text-indent:0;text-align:start;text-decoration-line:none;text-transform:none;block-progression:tb;marker:none"/><g id="g3962" transform="translate(1,0)"><path id="rect3940" fill="url(#radialGradient3960)" fill-opacity="1" stroke="none" d="m 19,43.5 0,3 0.5,0 c 0.831,0 1.5,-0.669 1.5,-1.5 0,-0.831 -0.669,-1.5 -1.5,-1.5 l -0.5,0 z" opacity=".2"/><path id="rect3942" fill="url(#radialGradient3957)" fill-opacity="1" stroke="none" d="M 4.40625,43.5 C 3.6271875,43.5 3,44.127187 3,44.90625 l 0,0.1875 C 3,45.872813 3.6271875,46.5 4.40625,46.5 L 5,46.5 l 0,-3 -0.59375,0 z" opacity=".2"/><path id="rect3938" fill="url(#linearGradient3954)" fill-opacity="1" stroke="none" d="m 5,43.5 14,0 0,3 -14,0 z" opacity=".2"/></g></g></svg>