<svg xmlns="http://www.w3.org/2000/svg" xmlns:svg="http://www.w3.org/2000/svg" xmlns:xlink="http://www.w3.org/1999/xlink" id="svg3085" width="24" height="24" version="1.1"><defs id="defs3087"><linearGradient id="linearGradient17627"><stop id="stop17629" offset="0" stop-color="#000" stop-opacity="1"/><stop id="stop17631" offset="1" stop-color="#000" stop-opacity="0"/></linearGradient><linearGradient id="linearGradient17596"><stop id="stop17598" offset="0" stop-color="#fce94f" stop-opacity="1"/><stop id="stop17600" offset="1" stop-color="#d7b031" stop-opacity="1"/></linearGradient><linearGradient id="linearGradient3031" x1="22.004" x2="22.004" y1="47.813" y2="3.364" gradientTransform="matrix(0.48571482,0,0,0.477213,-1.305596,-0.326798)" gradientUnits="userSpaceOnUse" xlink:href="#linearGradient3104-5"/><linearGradient id="linearGradient3104-5"><stop id="stop3106-2" offset="0" stop-color="#aaa" stop-opacity="1"/><stop id="stop3108-5" offset="1" stop-color="#c8c8c8" stop-opacity="1"/></linearGradient><linearGradient id="linearGradient3013" x1="24" x2="24" y1="5.564" y2="43" gradientTransform="matrix(0.40540511,0,0,0.51351351,1.2696871,-0.3243195)" gradientUnits="userSpaceOnUse" xlink:href="#linearGradient3977"/><linearGradient id="linearGradient3977"><stop id="stop3979" offset="0" stop-color="#fff" stop-opacity="1"/><stop id="stop3981" offset=".036" stop-color="#fff" stop-opacity=".235"/><stop id="stop3983" offset=".951" stop-color="#fff" stop-opacity=".157"/><stop id="stop3985" offset="1" stop-color="#fff" stop-opacity=".392"/></linearGradient><linearGradient id="linearGradient3016" x1="25.132" x2="25.132" y1=".985" y2="47.013" gradientTransform="matrix(0.48571543,0,0,0.45629666,-0.6571711,0.3488617)" gradientUnits="userSpaceOnUse" xlink:href="#linearGradient3600-4"/><linearGradient id="linearGradient3600-4"><stop id="stop3602-7" offset="0" stop-color="#f4f4f4" stop-opacity="1"/><stop id="stop3604-6" offset="1" stop-color="#dbdbdb" stop-opacity="1"/></linearGradient><radialGradient id="radialGradient3021" cx="605.714" cy="486.648" r="117.143" fx="605.714" fy="486.648" gradientTransform="matrix(0.01204859,0,0,0.0082353,12.238793,18.980564)" gradientUnits="userSpaceOnUse" xlink:href="#linearGradient5060"/><linearGradient id="linearGradient5060"><stop id="stop5062" offset="0" stop-color="#000" stop-opacity="1"/><stop id="stop5064" offset="1" stop-color="#000" stop-opacity="0"/></linearGradient><radialGradient id="radialGradient3024" cx="605.714" cy="486.648" r="117.143" fx="605.714" fy="486.648" gradientTransform="matrix(-0.01204859,0,0,0.0082353,9.761206,18.980564)" gradientUnits="userSpaceOnUse" xlink:href="#linearGradient5060"/><linearGradient id="linearGradient5048"><stop id="stop5050" offset="0" stop-color="#000" stop-opacity="0"/><stop id="stop5056" offset=".5" stop-color="#000" stop-opacity="1"/><stop id="stop5052" offset="1" stop-color="#000" stop-opacity="0"/></linearGradient><linearGradient id="linearGradient3083" x1="302.857" x2="302.857" y1="366.648" y2="609.505" gradientTransform="matrix(0.0352071,0,0,0.0082353,-1.724852,18.980547)" gradientUnits="userSpaceOnUse" xlink:href="#linearGradient5048"/><linearGradient id="linearGradient17602" x1="16.05" x2="19.999" y1="11.109" y2="14.772" gradientUnits="userSpaceOnUse" xlink:href="#linearGradient17596"/><radialGradient id="radialGradient17633" cx="16.313" cy="20.938" r="6.125" fx="16.313" fy="20.938" gradientTransform="matrix(1,0,0,0.17346939,0,17.305485)" gradientUnits="userSpaceOnUse" xlink:href="#linearGradient17627"/></defs><metadata id="metadata3090"/><g id="g17650"><rect id="rect2879" width="17" height="2" x="2.5" y="22" fill="url(#linearGradient3083)" fill-opacity="1" fill-rule="nonzero" stroke="none" stroke-width="1" display="inline" opacity=".15" overflow="visible" visibility="visible" style="marker:none"/><path d="m 2.4999999,22.000085 c 0,0 0,1.999891 0,1.999891 C 1.8795275,24.003776 1,23.551901 1,22.999901 1,22.447902 1.6924,22.000085 2.4999999,22.000085 Z" style="marker:none" id="path2881" fill="url(#radialGradient3024)" fill-opacity="1" fill-rule="nonzero" stroke="none" stroke-width="1" display="inline" opacity=".15" overflow="visible" visibility="visible"/><path d="m 19.5,22.000085 c 0,0 0,1.999891 0,1.999891 0.620472,0.0038 1.5,-0.448075 1.5,-1.000075 0,-0.551999 -0.692402,-0.999816 -1.5,-0.999816 z" style="marker:none" id="path2883" fill="url(#radialGradient3021)" fill-opacity="1" fill-rule="nonzero" stroke="none" stroke-width="1" display="inline" opacity=".15" overflow="visible" visibility="visible"/><path id="path4160-3" fill="url(#linearGradient3016)" fill-opacity="1" stroke="none" d="m 2.4999601,1.4999569 c 3.8955809,0 17.0000589,0.00136 17.0000589,0.00136 l 2.1e-5,20.9987161 c 0,0 -11.3333862,0 -17.0000799,0 0,-7.000018 0,-14.000035 0,-21.0000538 z" display="inline"/><path id="rect6741-1" fill="none" stroke="url(#linearGradient3013)" stroke-dasharray="none" stroke-dashoffset="0" stroke-linecap="round" stroke-linejoin="miter" stroke-miterlimit="4" stroke-opacity="1" stroke-width="1" d="m 18.5,21.5 -15.0000004,0 0,-19 L 18.5,2.5 Z"/><path id="path4160-3-1" fill="none" stroke="#000" stroke-dasharray="none" stroke-dashoffset="0" stroke-linecap="butt" stroke-linejoin="round" stroke-miterlimit="4" stroke-opacity="1" stroke-width="1" d="m 2.4999601,1.4999569 c 3.8955809,0 17.0000589,0.00136 17.0000589,0.00136 l 2.1e-5,20.9987161 c 0,0 -11.3333862,0 -17.0000799,0 0,-7.000018 0,-14.000035 0,-21.0000538 z" display="inline" opacity=".3"/><path id="path3475" fill="none" stroke="url(#linearGradient3031)" stroke-linecap="butt" stroke-linejoin="miter" stroke-opacity="1" stroke-width="1" d="m 5,5.5 1.138394,0 z m 1.305359,0 1.062501,0 z m 1.229466,0 0.941072,0 z m 1.092858,0 0.409822,0 z m 0.576786,0 0.910715,0 z m 1.092859,0 2.398216,0 z m 2.550002,0 1.83661,0 z m 1.988395,0 0.561608,0 z M 5,6.5 l 1.775895,0 z m 1.973217,0 0.850001,0 z m 1.001787,0 0.425,0 z m 0.591965,0 0.774108,0 z m 0.941072,0 0.789287,0 z m 0.941072,0 1.259823,0 z m 1.426788,0 1.639287,0 z m 1.791073,0 1.092858,0 z m 1.244644,0 0.273215,0 z M 5,7.4925436 l 1.502681,0 z m 1.654466,0 2.458932,0 z m 2.610718,0 1.199108,0 z m 1.350894,0 1.123215,0 z m 1.275001,0 0.956251,0 z m 1.108037,0 1.50268,0.014913 z m 1.639288,0.014913 2.443752,0 z M 5,8.5 l 2.079467,0 z m 2.246431,0 2.246431,0 z m 2.398217,0 0.895537,0 z m 1.047323,0 2.109824,0 z m 2.246431,0 1.441966,0 z m 1.60893,0 0.576787,0 z m 0.728572,0 0.318751,0 z m 0.485715,0 0.895537,0 z M 5,9.5 l 0.774108,0 z m 1.016966,0 2.868753,0 z M 5,11.492545 l 1.502681,0 z m 1.654466,0 2.458932,0 z m 2.610718,0 1.199108,0 z m 1.350894,0 1.123215,0 z m 1.275001,0 0.956251,0 z m 1.108037,0 1.50268,0.01491 z m 1.639288,0.01491 2.443752,0 z M 5,12.5 l 1.912502,0 z m 2.064288,0 2.04911,0 z m 2.200896,0 0.789286,0 z m 0.941072,0 1.927681,0 z m 2.079467,0 2.428574,0 z m 2.595538,0 0.895537,0 z M 5,13.5 l 2.079467,0 z m 2.246431,0 2.246431,0 z m 2.398217,0 0.895537,0 z m 1.047323,0 2.109824,0 z m 2.246431,0 1.441966,0 z m 1.60893,0 0.576787,0 z m 0.728572,0 0.318751,0 z m 0.485715,0 0.895537,0 z M 5,14.5 l 1.775895,0 z m 1.973217,0 0.850001,0 z m 1.001787,0 0.425,0 z m 0.591965,0 0.774108,0 z m 0.941072,0 0.789287,0 z m 0.941072,0 1.259823,0 z m 1.426788,0 1.639287,0 z m 1.791073,0 1.092858,0 z m 1.244644,0 0.273215,0 z M 5,16.492545 l 1.502681,0 z m 1.654466,0 2.458932,0 z m 2.610718,0 1.199108,0 z m 1.350894,0 1.123215,0 z m 1.275001,0 0.956251,0 z m 1.108037,0 1.50268,0.01491 z m 1.639288,0.01491 2.443752,0 z M 5,17.5 l 1.775895,0 z m 1.973217,0 0.850001,0 z m 1.001787,0 0.425,0 z m 0.591965,0 0.774108,0 z m 0.941072,0 0.789287,0 z m 0.941072,0 1.259823,0 z m 1.426788,0 1.639287,0 z m 1.791073,0 1.092858,0 z m 1.244644,0 0.273215,0 z M 5,18.5 l 1.882145,0 z m 2.04911,0 0.591965,0 z m 0.743751,0 1.350894,0 z m 1.50268,0 1.988395,0 z m 2.155359,0 1.350895,0 z m 1.487502,0 0.288393,0 z m 0.440179,0 1.71518,0 z m 1.897323,0 0.895537,0 z M 5,19.5 l 1.882145,0 z m 2.04911,0 0.850001,0 z m 1.001787,0 1.335715,0 z m 1.487501,0 1.441966,0 z m 1.60893,0 0.576787,0 z m 0.728573,0 0.31875,0 z m 0.485715,0 0.895536,0 z"/><rect id="rect17489" width="7" height="6" x="4" y="15" fill="#fce94f" fill-opacity="1" stroke="none" stroke-dasharray="none" stroke-linecap="square" stroke-linejoin="round" stroke-miterlimit="4" stroke-opacity=".42" stroke-width="2" opacity=".6"/><rect id="rect17660" width="14" height="11" x="4" y="4" fill="#fce94f" fill-opacity="1" stroke="none" stroke-dasharray="none" stroke-linecap="square" stroke-linejoin="round" stroke-miterlimit="4" stroke-opacity=".42" stroke-width="2" opacity=".6"/></g><g id="g17635" transform="translate(0,-1)"><path id="path17572" fill="none" fill-rule="evenodd" stroke="#bf830a" stroke-dasharray="none" stroke-linecap="butt" stroke-linejoin="round" stroke-miterlimit="4" stroke-opacity="1" stroke-width="2" d="m 12,15 4,4 7,-7 c 0.611853,-0.503879 0,-1 0,-1 L 20,8 c 0,0 -0.460129,-0.5398707 -1,0 z"/><path id="path17574" fill="url(#linearGradient17602)" fill-opacity="1" fill-rule="evenodd" stroke="none" stroke-dasharray="none" stroke-linecap="butt" stroke-linejoin="round" stroke-miterlimit="4" stroke-opacity="1" stroke-width="2" d="m 12,15 4,4 7,-7 c 0.683836,-0.503879 0,-1 0,-1 L 20,8 c 0,0 -0.496121,-0.5758621 -1,0 z"/><path id="path17576" fill="none" fill-rule="evenodd" stroke="#838383" stroke-dasharray="none" stroke-linecap="butt" stroke-linejoin="round" stroke-miterlimit="4" stroke-opacity="1" stroke-width="2" d="m 12,15 0,2 2,2 2,0 z"/><path id="path17578" fill="#cecece" fill-opacity="1" fill-rule="evenodd" stroke="none" stroke-dasharray="none" stroke-linecap="butt" stroke-linejoin="round" stroke-miterlimit="4" stroke-opacity="1" stroke-width="2" d="m 12,15 0,2 2,2 2,0 z"/><path id="path17584" fill="none" fill-rule="evenodd" stroke="#bf830a" stroke-dasharray="none" stroke-linecap="butt" stroke-linejoin="round" stroke-miterlimit="4" stroke-opacity="1" stroke-width="2" d="m 9,21 2,0 1,-1 -1,-1 z"/><path id="path17580" fill="none" fill-rule="evenodd" stroke="#838383" stroke-dasharray="none" stroke-linecap="butt" stroke-linejoin="miter" stroke-miterlimit="4" stroke-opacity="1" stroke-width="2" d="M 11.75,18.09375 11,19 l 1,1 0.84375,-0.65625 z"/><ellipse id="path17625" cx="16.313" cy="20.938" fill="url(#radialGradient17633)" fill-opacity="1" stroke="none" stroke-dasharray="none" stroke-linecap="round" stroke-linejoin="miter" stroke-miterlimit="4" stroke-opacity="1" stroke-width="2" opacity=".1" rx="6.125" ry="1.063"/><path id="path17582" fill="#cecece" fill-opacity="1" fill-rule="evenodd" stroke="none" stroke-dasharray="none" stroke-linecap="butt" stroke-linejoin="miter" stroke-miterlimit="4" stroke-opacity="1" stroke-width="2" d="M 11.75,18.09375 11,19 l 1,1 0.84375,-0.65625 z"/><path id="path17586" fill="#fce94f" fill-opacity="1" fill-rule="evenodd" stroke="none" stroke-dasharray="none" stroke-linecap="butt" stroke-linejoin="round" stroke-miterlimit="4" stroke-opacity="1" stroke-width="2" d="m 9,21 2,0 1,-1 -1,-1 z"/><path id="path17588" fill="none" fill-rule="evenodd" stroke="#fff" stroke-linecap="round" stroke-linejoin="miter" stroke-opacity="1" stroke-width="1" d="M 13.36056,14.418534 19.57931,8.1997844" opacity=".5"/><path id="path17590" fill="none" fill-rule="evenodd" stroke="#fff" stroke-linecap="round" stroke-linejoin="miter" stroke-opacity="1" stroke-width="1" d="m 12.298707,16.85 -0.0056,-1.129095" opacity=".5"/><path id="path17592" fill="none" fill-rule="evenodd" stroke="#000" stroke-linecap="round" stroke-linejoin="miter" stroke-opacity="1" stroke-width="1" d="m 16.548276,17.678232 6.21875,-6.21875" opacity=".1"/><path id="path17594" fill="none" fill-rule="evenodd" stroke="#000" stroke-linecap="round" stroke-linejoin="miter" stroke-opacity="1" stroke-width="1" d="m 14.309052,18.477801 0.871552,0.316164" opacity=".1"/></g></svg>