<svg xmlns="http://www.w3.org/2000/svg" xmlns:svg="http://www.w3.org/2000/svg" xmlns:xlink="http://www.w3.org/1999/xlink" id="svg3495" width="24" height="24" version="1.1"><defs id="defs3497"><clipPath id="clipPath3669" clipPathUnits="userSpaceOnUse"><path id="path3671" d="M 0,96 96,96 96,0 0,0 0,96 z"/></clipPath><linearGradient id="linearGradient3793" x1="12" x2="12" y1="22" y2="-2" gradientTransform="translate(0,26)" gradientUnits="userSpaceOnUse" xlink:href="#linearGradient3821"/><linearGradient id="linearGradient3821"><stop id="stop3823" offset="0" stop-color="#555" stop-opacity="1"/><stop id="stop3825" offset="1" stop-color="#666" stop-opacity="1"/></linearGradient><linearGradient id="linearGradient3011" x1="12" x2="12" y1="22" y2="-2" gradientTransform="translate(31.883514,24.756453)" gradientUnits="userSpaceOnUse" xlink:href="#linearGradient3821"/><linearGradient id="linearGradient3810" x1="12" x2="12" y1="22" y2="0" gradientUnits="userSpaceOnUse" xlink:href="#linearGradient3821"/><linearGradient id="linearGradient3824" x1="12" x2="12" y1="22" y2="0" gradientUnits="userSpaceOnUse" xlink:href="#linearGradient3821"/><linearGradient id="linearGradient3843" x1="12" x2="12" y1="22" y2="0" gradientUnits="userSpaceOnUse" xlink:href="#linearGradient3821"/><radialGradient id="radialGradient3960" cx="40" cy="43.5" r="2" fx="40" fy="43.5" gradientTransform="matrix(1,0,0,0.75,-21,12.375)" gradientUnits="userSpaceOnUse" xlink:href="#linearGradient3952"/><linearGradient id="linearGradient3952"><stop id="stop3954" offset="0" stop-color="#000" stop-opacity="1"/><stop id="stop3956" offset="1" stop-color="#000" stop-opacity="0"/></linearGradient><radialGradient id="radialGradient3957" cx="9" cy="43.5" r="2" fx="9" fy="43.5" gradientTransform="matrix(1,0,0,0.75,-4,12.375)" gradientUnits="userSpaceOnUse" xlink:href="#linearGradient3944"/><linearGradient id="linearGradient3944"><stop id="stop3946" offset="0" stop-color="#000" stop-opacity="1"/><stop id="stop3948" offset="1" stop-color="#000" stop-opacity="0"/></linearGradient><linearGradient id="linearGradient3954" x1="25" x2="25" y1="45" y2="42" gradientTransform="translate(-8,1.5)" gradientUnits="userSpaceOnUse" xlink:href="#linearGradient3960"/><linearGradient id="linearGradient3960"><stop id="stop3962" offset="0" stop-color="#000" stop-opacity="0"/><stop id="stop3970" offset=".5" stop-color="#000" stop-opacity="1"/><stop id="stop3964" offset="1" stop-color="#000" stop-opacity="0"/></linearGradient><linearGradient id="linearGradient3994" x1="25" x2="25" y1="45" y2="42" gradientTransform="translate(-8,1.5)" gradientUnits="userSpaceOnUse" xlink:href="#linearGradient3960"/><linearGradient id="linearGradient4055" x1="25" x2="25" y1="45" y2="42" gradientTransform="translate(-9,-1)" gradientUnits="userSpaceOnUse" xlink:href="#linearGradient3960-5"/><linearGradient id="linearGradient3960-5"><stop id="stop3962-5" offset="0" stop-color="#000" stop-opacity="0"/><stop id="stop3970-4" offset=".5" stop-color="#000" stop-opacity="1"/><stop id="stop3964-1" offset="1" stop-color="#000" stop-opacity="0"/></linearGradient><linearGradient id="linearGradient3952-38"><stop id="stop3954-7" offset="0" stop-color="#000" stop-opacity="1"/><stop id="stop3956-2" offset="1" stop-color="#000" stop-opacity="0"/></linearGradient><linearGradient id="linearGradient3944-2"><stop id="stop3946-5" offset="0" stop-color="#000" stop-opacity="1"/><stop id="stop3948-8" offset="1" stop-color="#000" stop-opacity="0"/></linearGradient><linearGradient id="linearGradient4055-2" x1="25" x2="25" y1="45" y2="42" gradientTransform="translate(-9,-1)" gradientUnits="userSpaceOnUse" xlink:href="#linearGradient3960-2"/><linearGradient id="linearGradient3960-2"><stop id="stop3962-9" offset="0" stop-color="#000" stop-opacity="0"/><stop id="stop3970-8" offset=".5" stop-color="#000" stop-opacity="1"/><stop id="stop3964-7" offset="1" stop-color="#000" stop-opacity="0"/></linearGradient><linearGradient id="linearGradient3052" x1="25" x2="25" y1="45" y2="42" gradientTransform="translate(-10,2.5)" gradientUnits="userSpaceOnUse" xlink:href="#linearGradient3960-2"/><radialGradient id="radialGradient3055" cx="9" cy="43.5" r="2" fx="9" fy="43.5" gradientTransform="matrix(1,0,0,0.75,-5,13.375)" gradientUnits="userSpaceOnUse" xlink:href="#linearGradient3944-2"/><radialGradient id="radialGradient3058" cx="40" cy="43.5" r="2" fx="40" fy="43.5" gradientTransform="matrix(1,0,0,0.75,-22,13.375)" gradientUnits="userSpaceOnUse" xlink:href="#linearGradient3952-38"/><linearGradient id="linearGradient3081" x1="12" x2="12" y1="22" y2="0" gradientUnits="userSpaceOnUse" xlink:href="#linearGradient3821"/><radialGradient id="radialGradient3083" cx="40" cy="43.5" r="2" fx="40" fy="43.5" gradientTransform="matrix(1,0,0,0.75,-22,13.375)" gradientUnits="userSpaceOnUse" xlink:href="#linearGradient3952-38"/><radialGradient id="radialGradient3085" cx="9" cy="43.5" r="2" fx="9" fy="43.5" gradientTransform="matrix(1,0,0,0.75,-5,13.375)" gradientUnits="userSpaceOnUse" xlink:href="#linearGradient3944-2"/><linearGradient id="linearGradient3087" x1="25" x2="25" y1="45" y2="42" gradientTransform="translate(-10,2.5)" gradientUnits="userSpaceOnUse" xlink:href="#linearGradient3960-2"/><linearGradient id="linearGradient3105" x1="12" x2="12" y1="22" y2="0" gradientUnits="userSpaceOnUse" xlink:href="#linearGradient3821"/><radialGradient id="radialGradient3107" cx="40" cy="43.5" r="2" fx="40" fy="43.5" gradientTransform="matrix(1,0,0,0.75,-22,13.375)" gradientUnits="userSpaceOnUse" xlink:href="#linearGradient3952-38"/><radialGradient id="radialGradient3109" cx="9" cy="43.5" r="2" fx="9" fy="43.5" gradientTransform="matrix(1,0,0,0.75,-5,13.375)" gradientUnits="userSpaceOnUse" xlink:href="#linearGradient3944-2"/><linearGradient id="linearGradient3111" x1="25" x2="25" y1="45" y2="42" gradientTransform="translate(-10,2.5)" gradientUnits="userSpaceOnUse" xlink:href="#linearGradient3960-2"/><linearGradient id="linearGradient3129" x1="12" x2="12" y1="22" y2="0" gradientUnits="userSpaceOnUse" xlink:href="#linearGradient3821"/><radialGradient id="radialGradient3131" cx="40" cy="43.5" r="2" fx="40" fy="43.5" gradientTransform="matrix(1,0,0,0.75,-22,13.375)" gradientUnits="userSpaceOnUse" xlink:href="#linearGradient3952-38"/><radialGradient id="radialGradient3133" cx="9" cy="43.5" r="2" fx="9" fy="43.5" gradientTransform="matrix(1,0,0,0.75,-5,13.375)" gradientUnits="userSpaceOnUse" xlink:href="#linearGradient3944-2"/><linearGradient id="linearGradient3135" x1="25" x2="25" y1="45" y2="42" gradientTransform="translate(-10,2.5)" gradientUnits="userSpaceOnUse" xlink:href="#linearGradient3960-2"/><linearGradient id="linearGradient3233" x1="12" x2="12" y1="22" y2="0" gradientTransform="translate(1,35)" gradientUnits="userSpaceOnUse" xlink:href="#linearGradient3821"/><linearGradient id="linearGradient3236" x1="25" x2="25" y1="45" y2="42" gradientTransform="translate(-10,2.5)" gradientUnits="userSpaceOnUse" xlink:href="#linearGradient3960-2"/><radialGradient id="radialGradient3239" cx="9" cy="43.5" r="2" fx="9" fy="43.5" gradientTransform="matrix(1,0,0,0.75,-5,13.375)" gradientUnits="userSpaceOnUse" xlink:href="#linearGradient3944-2"/><radialGradient id="radialGradient3242" cx="40" cy="43.5" r="2" fx="40" fy="43.5" gradientTransform="matrix(1,0,0,0.75,-22,13.375)" gradientUnits="userSpaceOnUse" xlink:href="#linearGradient3952-38"/><linearGradient id="linearGradient3247" x1="12" x2="12" y1="22" y2="0" gradientTransform="translate(1,30)" gradientUnits="userSpaceOnUse" xlink:href="#linearGradient3821"/><linearGradient id="linearGradient3250" x1="25" x2="25" y1="45" y2="42" gradientTransform="translate(-10,-2.5)" gradientUnits="userSpaceOnUse" xlink:href="#linearGradient3960-2"/><radialGradient id="radialGradient3253" cx="9" cy="43.5" r="2" fx="9" fy="43.5" gradientTransform="matrix(1,0,0,0.75,-5,8.375)" gradientUnits="userSpaceOnUse" xlink:href="#linearGradient3944-2"/><radialGradient id="radialGradient3256" cx="40" cy="43.5" r="2" fx="40" fy="43.5" gradientTransform="matrix(1,0,0,0.75,-22,8.375)" gradientUnits="userSpaceOnUse" xlink:href="#linearGradient3952-38"/><linearGradient id="linearGradient3261" x1="12" x2="12" y1="22" y2="0" gradientTransform="translate(1,25)" gradientUnits="userSpaceOnUse" xlink:href="#linearGradient3821"/><linearGradient id="linearGradient3264" x1="25" x2="25" y1="45" y2="42" gradientTransform="translate(-10,-7.5)" gradientUnits="userSpaceOnUse" xlink:href="#linearGradient3960-2"/><radialGradient id="radialGradient3267" cx="9" cy="43.5" r="2" fx="9" fy="43.5" gradientTransform="matrix(1,0,0,0.75,-5,3.375)" gradientUnits="userSpaceOnUse" xlink:href="#linearGradient3944-2"/><radialGradient id="radialGradient3270" cx="40" cy="43.5" r="2" fx="40" fy="43.5" gradientTransform="matrix(1,0,0,0.75,-22,3.375)" gradientUnits="userSpaceOnUse" xlink:href="#linearGradient3952-38"/><linearGradient id="linearGradient3275" x1="12" x2="12" y1="22" y2="0" gradientTransform="translate(1,20)" gradientUnits="userSpaceOnUse" xlink:href="#linearGradient3821"/><linearGradient id="linearGradient3278" x1="25" x2="25" y1="45" y2="42" gradientTransform="translate(-10,-12.5)" gradientUnits="userSpaceOnUse" xlink:href="#linearGradient3960-2"/><radialGradient id="radialGradient3281" cx="9" cy="43.5" r="2" fx="9" fy="43.5" gradientTransform="matrix(1,0,0,0.75,-5,-1.625)" gradientUnits="userSpaceOnUse" xlink:href="#linearGradient3944-2"/><radialGradient id="radialGradient3284" cx="40" cy="43.5" r="2" fx="40" fy="43.5" gradientTransform="matrix(1,0,0,0.75,-22,-1.625)" gradientUnits="userSpaceOnUse" xlink:href="#linearGradient3952-38"/></defs><metadata id="metadata3500"/><g id="layer1" transform="translate(0,-24)"><path id="rect3816" fill="url(#linearGradient3233)" fill-opacity="1" stroke="none" stroke-linejoin="round" d="m 2.5,43.5 c 0,1 0,2 0,3 5,0 10,0 15,0 0,-1 0,-2 0,-3 -5,0 -10,0 -15,0 z"/><path id="path3833" fill="none" stroke="#000" stroke-dasharray="none" stroke-linejoin="round" stroke-miterlimit="4" stroke-opacity="1" stroke-width="1" d="m 2.5,43.5 c 0,1 0,2 0,3 5,0 10,0 15,0 0,-1 0,-2 0,-3 -5,0 -10,0 -15,0 z" opacity=".61"/><path id="path3835" fill="#fff" fill-opacity="1" stroke="none" stroke-linejoin="round" d="m 3,44 c 0,0.666667 0,1.333333 0,2 0.3333333,0 0.6666667,0 1,0 0,-0.333333 0,-0.666667 0,-1 4.3333333,0 8.666667,0 13,0 0,-0.333333 0,-0.666667 0,-1 -4.666667,0 -9.3333333,0 -14,0 z" opacity=".2"/><path id="path3067" fill="url(#linearGradient3247)" fill-opacity="1" stroke="none" stroke-linejoin="round" d="m 2.5,38.5 c 0,1 0,2 0,3 5.6666667,0 11.333333,0 17,0 0,-1 0,-2 0,-3 -5.666667,0 -11.3333333,0 -17,0 z"/><path id="path3069" fill="none" stroke="#000" stroke-dasharray="none" stroke-linejoin="round" stroke-miterlimit="4" stroke-opacity="1" stroke-width="1" d="m 2.5,38.5 c 0,1 0,2 0,3 5.6666667,0 11.333333,0 17,0 0,-1 0,-2 0,-3 -5.666667,0 -11.3333333,0 -17,0 z" opacity=".61"/><path id="path3071" fill="#fff" fill-opacity="1" stroke="none" stroke-linejoin="round" d="m 3,39 c 0,0.666667 0,1.333333 0,2 0.3333333,0 0.6666667,0 1,0 0,-0.333333 0,-0.666667 0,-1 5,0 10,0 15,0 0,-0.333333 0,-0.666667 0,-1 -5.333333,0 -10.6666667,0 -16,0 z" opacity=".2"/><path id="path3091" fill="url(#linearGradient3261)" fill-opacity="1" stroke="none" stroke-linejoin="round" d="m 2.5,33.5 c 0,1 0,2 0,3 6.3333333,0 12.666667,0 19,0 0,-1 0,-2 0,-3 -6.333333,0 -12.6666667,0 -19,0 z"/><path id="path3093" fill="none" stroke="#000" stroke-dasharray="none" stroke-linejoin="round" stroke-miterlimit="4" stroke-opacity="1" stroke-width="1" d="m 2.5,33.5 c 0,1 0,2 0,3 6.3333333,0 12.666667,0 19,0 0,-1 0,-2 0,-3 -6.333333,0 -12.6666667,0 -19,0 z" opacity=".61"/><path id="path3095" fill="#fff" fill-opacity="1" stroke="none" stroke-linejoin="round" d="m 3,34 c 0,0.666667 0,1.333333 0,2 0.3333333,0 0.6666667,0 1,0 0,-0.333333 0,-0.666667 0,-1 5.6666667,0 11.333333,0 17,0 0,-0.333333 0,-0.666667 0,-1 -6,0 -12,0 -18,0 z" opacity=".2"/><path id="path3115" fill="url(#linearGradient3275)" fill-opacity="1" stroke="none" stroke-linejoin="round" d="m 2.5,28.5 c 0,1 0,2 0,3 4.3333333,0 8.666667,0 13,0 0,-1 0,-2 0,-3 -4.333333,0 -8.6666667,0 -13,0 z"/><path id="path3117" fill="none" stroke="#000" stroke-dasharray="none" stroke-linejoin="round" stroke-miterlimit="4" stroke-opacity="1" stroke-width="1" d="m 2.5,28.5 c 0,1 0,2 0,3 4.3333333,0 8.666667,0 13,0 0,-1 0,-2 0,-3 -4.333333,0 -8.6666667,0 -13,0 z" opacity=".61"/><path id="path3119" fill="#fff" fill-opacity="1" stroke="none" stroke-linejoin="round" d="m 3,29 c 0,0.666667 0,1.333333 0,2 0.3333333,0 0.6666667,0 1,0 0,-0.333333 0,-0.666667 0,-1 3.6666667,0 7.333333,0 11,0 0,-0.333333 0,-0.666667 0,-1 -4,0 -8,0 -12,0 z" opacity=".2"/></g></svg>