<svg xmlns="http://www.w3.org/2000/svg" xmlns:svg="http://www.w3.org/2000/svg" xmlns:xlink="http://www.w3.org/1999/xlink" id="svg2519" width="24" height="24" version="1.0"><defs id="defs2521"><linearGradient id="linearGradient2781" x1="25" x2="25" y1="11.923" y2="40.322" gradientTransform="matrix(0.6134245,0,0,0.6095496,-2.7450494,-3.078874)" gradientUnits="userSpaceOnUse" xlink:href="#linearGradient2867-449-88-871-390-598-476-591-434-148-57-177"/><linearGradient id="linearGradient5113"><stop id="stop5115" offset="0" stop-color="#fff" stop-opacity="1"/><stop id="stop5117" offset="1" stop-color="#fff" stop-opacity="0"/></linearGradient><linearGradient id="linearGradient2778" x1="58.749" x2="105.324" y1="2.048" y2="58.048" gradientTransform="matrix(0.6162702,0,0,0.6095496,-36.496483,-4.9366536)" gradientUnits="userSpaceOnUse" xlink:href="#linearGradient5113"/><linearGradient id="linearGradient5105-262-943-861"><stop id="stop2487" offset="0" stop-color="#000" stop-opacity="1"/><stop id="stop2489" offset="1" stop-color="#000" stop-opacity="0"/></linearGradient><radialGradient id="radialGradient2505" cx="11.25" cy="19.031" r="8.063" fx="11.25" fy="19.031" gradientTransform="matrix(1,0,0,0.282946,0,13.64644)" gradientUnits="userSpaceOnUse" xlink:href="#linearGradient5105-262-943-861"/><linearGradient id="linearGradient2867-449-88-871-390-598-476-591-434-148-57-177"><stop id="stop3750" offset="0" stop-color="#90dbec" stop-opacity="1"/><stop id="stop3752" offset=".262" stop-color="#55c1ec" stop-opacity="1"/><stop id="stop3754" offset=".705" stop-color="#3689e6" stop-opacity="1"/><stop id="stop3756" offset="1" stop-color="#2b63a0" stop-opacity="1"/></linearGradient></defs><metadata id="metadata2524"/><g id="layer1"><path id="path4972" fill="url(#linearGradient2781)" fill-opacity="1" fill-rule="nonzero" stroke="#00537d" stroke-dasharray="none" stroke-dashoffset="0" stroke-linecap="butt" stroke-linejoin="round" stroke-miterlimit="4" stroke-opacity=".498" stroke-width="1" d="m 23.325492,12.480171 -7.382718,8.518163 -7.3457151,-8.518163 3.7368531,0 C 13.589775,9.1362008 11.01094,7.0077575 8.020882,7.0077575 5.8961268,7.0077575 3.0133567,8.1689242 2.0395751,11.05602 1.5330959,12.557657 0.64100464,11.899831 0.67547852,10.594749 0.80891733,5.5587665 4.5663574,1.5313505 10.175596,1.5313505 c 5.60924,0 9.77606,4.3269422 9.461318,10.9488205 l 3.688578,0 z" display="inline" overflow="visible" visibility="visible" style="marker:none"/><path id="path4980" fill="none" stroke="url(#linearGradient2778)" stroke-dasharray="none" stroke-dashoffset="0" stroke-linecap="butt" stroke-linejoin="miter" stroke-miterlimit="4" stroke-opacity="1" stroke-width="1" d="m 21.106683,13.470664 -5.163909,5.926634 -5.131595,-5.926634 2.191633,0 C 14.924711,9.2170148 12.104675,6.1298633 8.2965914,6.0688902 5.5539148,5.8553363 3.093848,7.851367 1.5972834,9.6580451 2.5509972,5.3805082 5.5166169,2.5262674 10.20727,2.5174471 c 4.739015,-0.00891 9.393222,3.8418854 8.345563,10.9532169 l 2.55385,0 z" display="inline" enable-background="accumulate" opacity=".354" overflow="visible" visibility="visible" style="marker:none"/><path id="path2638" fill="url(#radialGradient2505)" fill-opacity="1" fill-rule="nonzero" stroke="none" stroke-width="1" d="m 19.3125,19.03125 a 8.0625,2.28125 0 1 1 -16.125,0 8.0625,2.28125 0 1 1 16.125,0 z" display="inline" opacity=".163" overflow="visible" transform="matrix(1.4883719,0,0,1.4465766,-4.7441844,-6.8301629)" visibility="visible" style="marker:none"/></g></svg>