<svg xmlns="http://www.w3.org/2000/svg" xmlns:svg="http://www.w3.org/2000/svg" xmlns:xlink="http://www.w3.org/1999/xlink" id="svg3946" width="24" height="24" version="1.1"><defs id="defs3948"><linearGradient id="linearGradient6201"><stop id="stop6203" offset="0" stop-color="#000" stop-opacity="1"/><stop id="stop6205" offset="1" stop-color="#fff" stop-opacity="1"/></linearGradient><radialGradient id="radialGradient3900-3" cx="65.297" cy="48.216" r="31" fx="65.297" fy="48.216" gradientTransform="matrix(0,0.52544994,-0.5716256,0,46.193389,-21.123812)" gradientUnits="userSpaceOnUse" xlink:href="#linearGradient3242-7-3-8-0-4-58-06"/><linearGradient id="linearGradient3242-7-3-8-0-4-58-06"><stop id="stop3244-5-8-5-6-4-3-8" offset="0" stop-color="#cdf87e" stop-opacity="1"/><stop id="stop3246-9-5-1-5-3-0-7" offset=".262" stop-color="#a2e34f" stop-opacity="1"/><stop id="stop3248-7-2-0-7-5-35-9" offset=".661" stop-color="#68b723" stop-opacity="1"/><stop id="stop3250-8-2-8-5-6-40-4" offset="1" stop-color="#1d7e0d" stop-opacity="1"/></linearGradient><linearGradient id="linearGradient3030" x1="24.139" x2="24.139" y1="10.631" y2="35.623" gradientTransform="matrix(0.2817955,0,0,0.2800956,12.196562,12.014885)" gradientUnits="userSpaceOnUse" xlink:href="#linearGradient4154-0"/><linearGradient id="linearGradient4154-0"><stop id="stop4156-1" offset="0" stop-color="#fff" stop-opacity="1"/><stop id="stop4158-3" offset="0" stop-color="#fff" stop-opacity=".235"/><stop id="stop4160-3" offset="1" stop-color="#fff" stop-opacity=".157"/><stop id="stop4162-0" offset="1" stop-color="#fff" stop-opacity=".392"/></linearGradient><linearGradient id="linearGradient3030-1" x1="24.139" x2="24.139" y1="21.342" y2="24.912" gradientTransform="matrix(0.2817955,0,0,0.2800956,12.178741,12.02218)" gradientUnits="userSpaceOnUse" xlink:href="#linearGradient4333"/><linearGradient id="linearGradient4333"><stop id="stop4335" offset="0" stop-color="#fff" stop-opacity="1"/><stop id="stop4337" offset="0" stop-color="#fff" stop-opacity=".235"/><stop id="stop4339" offset="1" stop-color="#fff" stop-opacity=".157"/><stop id="stop4341" offset="1" stop-color="#fff" stop-opacity=".392"/></linearGradient><linearGradient id="linearGradient4464" x1="32.5" x2="42.5" y1="-20" y2="-20" gradientTransform="translate(-8.8546798,29.990148)" gradientUnits="userSpaceOnUse" xlink:href="#linearGradient6201"/><linearGradient id="linearGradient4468" x1="32.5" x2="42.5" y1="-20" y2="-20" gradientTransform="translate(5.1453202,29.990148)" gradientUnits="userSpaceOnUse" xlink:href="#linearGradient6201"/><linearGradient id="linearGradient4478" x1="41" x2="46" y1="-20" y2="-20" gradientTransform="translate(-8.8546798,29.990148)" gradientUnits="userSpaceOnUse" xlink:href="#linearGradient6201"/><radialGradient id="radialGradient3318" cx="99.157" cy="186.171" r="62.769" fx="99.157" fy="186.171" gradientTransform="matrix(0.06345079,0,0,0.04037841,-0.29159015,13.534573)" gradientUnits="userSpaceOnUse" xlink:href="#linearGradient3820-7-2-2"/><linearGradient id="linearGradient3820-7-2-2"><stop id="stop3822-2-6-36" offset="0" stop-color="#3d3d3d" stop-opacity="1"/><stop id="stop3864-8-7-6" offset=".5" stop-color="#686868" stop-opacity=".498"/><stop id="stop3824-1-2-4" offset="1" stop-color="#686868" stop-opacity="0"/></linearGradient><radialGradient id="radialGradient3120" cx="62.625" cy="4.625" r="10.625" fx="62.625" fy="4.625" gradientTransform="matrix(0.47058824,0,0,0.2823525,-23.470589,19.694118)" gradientUnits="userSpaceOnUse" xlink:href="#linearGradient8838-2"/><linearGradient id="linearGradient8838-2"><stop id="stop8840-9" offset="0" stop-color="#000" stop-opacity="1"/><stop id="stop8842-3" offset="1" stop-color="#000" stop-opacity="0"/></linearGradient></defs><metadata id="metadata3951"/><path id="path3818-0-2" fill="url(#radialGradient3318)" fill-opacity="1" stroke="none" stroke-width="1" d="m 9.98275,21.051843 a 3.98275,2.5345164 0 1 1 -7.9654996,0 3.98275,2.5345164 0 1 1 7.9654996,0 z"/><path id="path8836-1" fill="url(#radialGradient3120)" fill-opacity="1" fill-rule="evenodd" stroke="none" stroke-width="1" d="m 11,21 c 0,1.656854 -2.2385765,3 -5,3 -2.7614238,0 -5,-1.343146 -5,-3 0,-1.656854 2.2385762,-3 5,-3 2.7614235,0 5,1.343146 5,3 z" display="inline" opacity=".3" overflow="visible" visibility="visible" style="marker:none"/><g id="g4474"><path id="path2262" fill="url(#radialGradient3900-3)" fill-opacity="1" fill-rule="nonzero" stroke="none" stroke-width=".985" d="m 16.482179,16.507295 0,-3 4,0 0,3 3,0 0,4 -3,0 0,2.999991 -4,0 0,-2.999991 -2.989465,0 0,-4 2.989465,0 z" color="#000" display="inline" enable-background="accumulate" overflow="visible" visibility="visible" style="marker:none"/><path id="path2272" fill="none" stroke="url(#linearGradient3030)" stroke-dasharray="none" stroke-linecap="butt" stroke-linejoin="miter" stroke-miterlimit="4" stroke-opacity="1" stroke-width="1" d="m 17.5,18.004404 0,-3.504404 2,0 0,3.5 m 0,1 0,3.5 -2,0 0,-3.5" display="inline" opacity=".5"/><path clip-rule="nonzero" style="isolation:auto;mix-blend-mode:normal;solid-color:#000;solid-opacity:1;marker:none" id="path2262-2" fill="none" fill-opacity="1" fill-rule="nonzero" stroke="#0f5a00" stroke-dasharray="none" stroke-dashoffset="0" stroke-linecap="round" stroke-linejoin="round" stroke-miterlimit="4" stroke-opacity="1" stroke-width="1" d="m 16.482179,16.507295 0,-3 4,0 0,3 3,0 0,4 -3,0 0,2.999991 -4,0 0,-2.999991 -2.989465,0 0,-4 2.989465,0 z" color="#000" color-interpolation="sRGB" color-interpolation-filters="linearRGB" color-rendering="auto" display="inline" enable-background="accumulate" image-rendering="auto" opacity=".5" overflow="visible" shape-rendering="auto" text-rendering="auto" visibility="visible"/><path id="path2272-2" fill="none" stroke="url(#linearGradient3030-1)" stroke-dasharray="none" stroke-linecap="butt" stroke-linejoin="miter" stroke-miterlimit="4" stroke-opacity="1" stroke-width="1" d="m 20,17.507295 2.482179,-0.0073 0,2 L 20,19.507295 m -3,0 -2.5,-0.0073 0,-2 2.5,0.0073" display="inline" opacity=".5"/></g><g id="g4563" transform="rotate(-45,26.248766,39.5375)"><path id="rect3636" fill="#d4d4d4" fill-opacity="1" stroke="#000" stroke-linecap="round" stroke-linejoin="bevel" stroke-opacity=".427" stroke-width="1" d="m 26.27032,6.4901478 c -1.45425,0 -2.625,1.17075 -2.625,2.625 v 1.7500002 c 0,1.45425 1.17075,2.625 2.625,2.625 h 4.75 c 1.45425,0 2.625,-1.17075 2.625,-2.625 V 9.1151478 c 0,-1.45425 -1.17075,-2.625 -2.625,-2.625 z m 0.3125,2 h 4.125 c 0.519375,0 0.9375,0.418125 0.9375,0.9375 v 1.1250002 c 0,0.519375 -0.418125,0.9375 -0.9375,0.9375 h -4.125 c -0.519375,0 -0.9375,-0.418125 -0.9375,-0.9375 V 9.4276478 c 0,-0.519375 0.418125,-0.9375 0.9375,-0.9375 z" opacity="1"/><path id="path4456" fill="url(#linearGradient4464)" fill-opacity="1" stroke="none" stroke-linecap="round" stroke-linejoin="bevel" stroke-opacity=".427" stroke-width="1" d="m 26.27032,6.4901478 c -1.45425,0 -2.625,1.17075 -2.625,2.625 v 1.7500002 c 0,1.45425 1.17075,2.625 2.625,2.625 h 4.75 c 1.45425,0 2.625,-1.17075 2.625,-2.625 V 9.1151478 c 0,-1.45425 -1.17075,-2.625 -2.625,-2.625 z m 0.3125,2 h 4.125 c 0.519375,0 0.9375,0.418125 0.9375,0.9375 v 1.1250002 c 0,0.519375 -0.418125,0.9375 -0.9375,0.9375 h -4.125 c -0.519375,0 -0.9375,-0.418125 -0.9375,-0.9375 V 9.4276478 c 0,-0.519375 0.418125,-0.9375 0.9375,-0.9375 z" opacity=".2"/><path id="rect4432" fill="#d4d4d4" fill-opacity="1" stroke="#000" stroke-linecap="round" stroke-linejoin="bevel" stroke-opacity=".427" stroke-width="1" d="m 40.27032,6.4901478 c -1.45425,0 -2.625,1.17075 -2.625,2.625 v 1.7500002 c 0,1.45425 1.17075,2.625 2.625,2.625 h 4.75 c 1.45425,0 2.625,-1.17075 2.625,-2.625 V 9.1151478 c 0,-1.45425 -1.17075,-2.625 -2.625,-2.625 z m 0.3125,2 h 4.125 c 0.519375,0 0.9375,0.418125 0.9375,0.9375 v 1.1250002 c 0,0.519375 -0.418125,0.9375 -0.9375,0.9375 h -4.125 c -0.519375,0 -0.9375,-0.418125 -0.9375,-0.9375 V 9.4276478 c 0,-0.519375 0.418125,-0.9375 0.9375,-0.9375 z" opacity="1"/><path id="path4466" fill="url(#linearGradient4468)" fill-opacity="1" stroke="none" stroke-linecap="round" stroke-linejoin="bevel" stroke-opacity=".427" stroke-width="1" d="m 40.27032,6.4901478 c -1.45425,0 -2.625,1.17075 -2.625,2.625 v 1.7500002 c 0,1.45425 1.17075,2.625 2.625,2.625 h 4.75 c 1.45425,0 2.625,-1.17075 2.625,-2.625 V 9.1151478 c 0,-1.45425 -1.17075,-2.625 -2.625,-2.625 z m 0.3125,2 h 4.125 c 0.519375,0 0.9375,0.418125 0.9375,0.9375 v 1.1250002 c 0,0.519375 -0.418125,0.9375 -0.9375,0.9375 h -4.125 c -0.519375,0 -0.9375,-0.418125 -0.9375,-0.9375 V 9.4276478 c 0,-0.519375 0.418125,-0.9375 0.9375,-0.9375 z" opacity=".2"/><path id="rect3646" fill="none" fill-opacity="1" stroke="#fff" stroke-linecap="round" stroke-linejoin="bevel" stroke-opacity="1" stroke-width="1" d="m 40.27032,7.4901478 h 4.75 c 0.90025,0 1.625,0.72475 1.625,1.625 v 1.7500002 m -1.625,1.625 h -4.75 c -0.90025,0 -1.625,-0.72475 -1.625,-1.625" opacity=".4"/><path id="rect4436" fill="none" fill-opacity="1" stroke="#fff" stroke-linecap="round" stroke-linejoin="bevel" stroke-opacity="1" stroke-width="1" d="m 31.02032,12.490148 h -4.75 c -0.90025,0 -1.625,-0.72475 -1.625,-1.625 V 9.1151478 m 1.625,-1.625 h 4.75 c 0.90025,0 1.625,0.72475 1.625,1.625" opacity=".4"/><rect id="rect3644" width="10" height="2" x="30.645" y="8.99" fill="#d4d4d4" fill-opacity="1" stroke="#000" stroke-linecap="round" stroke-linejoin="bevel" stroke-opacity=".427" stroke-width="1" opacity="1" rx="1.5" ry="1.5"/><rect id="rect4470" width="10" height="2" x="30.645" y="8.99" fill="url(#linearGradient4478)" fill-opacity="1" stroke="none" stroke-linecap="round" stroke-linejoin="bevel" stroke-opacity=".427" stroke-width="1" opacity=".2" rx="1.5" ry="1.5"/><path id="path4480" fill="none" stroke="#fff" stroke-linecap="round" stroke-linejoin="round" stroke-opacity="1" stroke-width="1" d="m 31.64532,9.9901478 h 8" opacity=".4"/></g></svg>