<svg xmlns="http://www.w3.org/2000/svg" xmlns:svg="http://www.w3.org/2000/svg" xmlns:xlink="http://www.w3.org/1999/xlink" id="svg3320" width="24" height="24" version="1.1"><defs id="defs3322"><linearGradient id="linearGradient866"><stop id="stop862" offset="0" stop-color="#cd9ef7" stop-opacity="1"/><stop id="stop864" offset="1" stop-color="#a56de2" stop-opacity="1"/></linearGradient><linearGradient id="linearGradient3221-8" x1="71.204" x2="71.204" y1="15.369" y2="40.496" gradientTransform="matrix(0.77562455,0,0,0.7756249,-43.981565,-9.61426)" gradientUnits="userSpaceOnUse" xlink:href="#linearGradient4806-9-6"/><linearGradient id="linearGradient4806-9-6"><stop id="stop4808-49-6" offset="0" stop-color="#fff" stop-opacity="1"/><stop id="stop4810-05-0" offset=".424" stop-color="#fff" stop-opacity=".235"/><stop id="stop4812-6-8" offset=".821" stop-color="#fff" stop-opacity=".157"/><stop id="stop4814-7-4" offset="1" stop-color="#fff" stop-opacity=".392"/></linearGradient><radialGradient id="radialGradient3120" cx="62.625" cy="4.625" r="10.625" fx="62.625" fy="4.625" gradientTransform="matrix(0.94117648,0,0,0.2823525,-46.941177,19.694118)" gradientUnits="userSpaceOnUse" xlink:href="#linearGradient8838-2"/><linearGradient id="linearGradient8838-2"><stop id="stop8840-9" offset="0" stop-color="#000" stop-opacity="1"/><stop id="stop8842-3" offset="1" stop-color="#000" stop-opacity="0"/></linearGradient><linearGradient id="linearGradient3820-7-2-2"><stop id="stop3822-2-6-36" offset="0" stop-color="#3d3d3d" stop-opacity="1"/><stop id="stop3864-8-7-6" offset=".5" stop-color="#686868" stop-opacity=".498"/><stop id="stop3824-1-2-4" offset="1" stop-color="#686868" stop-opacity="0"/></linearGradient><radialGradient id="radialGradient3318" cx="99.157" cy="186.171" r="62.769" fx="99.157" fy="186.171" gradientTransform="matrix(0.12690354,0,0,0.04037841,-0.58337464,13.534573)" gradientUnits="userSpaceOnUse" xlink:href="#linearGradient3820-7-2-2"/><radialGradient id="radialGradient3900-3" cx="65.297" cy="48.216" r="31" fx="65.297" fy="48.216" gradientTransform="matrix(0,0.52544994,-0.5716256,0,46.193389,-21.123812)" gradientUnits="userSpaceOnUse" xlink:href="#linearGradient3242-7-3-8-0-4-58-06"/><linearGradient id="linearGradient3242-7-3-8-0-4-58-06"><stop id="stop3244-5-8-5-6-4-3-8" offset="0" stop-color="#cdf87e" stop-opacity="1"/><stop id="stop3246-9-5-1-5-3-0-7" offset=".262" stop-color="#a2e34f" stop-opacity="1"/><stop id="stop3248-7-2-0-7-5-35-9" offset=".661" stop-color="#68b723" stop-opacity="1"/><stop id="stop3250-8-2-8-5-6-40-4" offset="1" stop-color="#1d7e0d" stop-opacity="1"/></linearGradient><linearGradient id="linearGradient3030-12" x1="24.139" x2="24.139" y1="10.631" y2="35.623" gradientTransform="matrix(0.2817955,0,0,0.2800956,12.196562,12.014885)" gradientUnits="userSpaceOnUse" xlink:href="#linearGradient4154-4"/><linearGradient id="linearGradient4154-4"><stop id="stop4156-8" offset="0" stop-color="#fff" stop-opacity="1"/><stop id="stop4158-6" offset="0" stop-color="#fff" stop-opacity=".235"/><stop id="stop4160-5" offset="1" stop-color="#fff" stop-opacity=".157"/><stop id="stop4162-6" offset="1" stop-color="#fff" stop-opacity=".392"/></linearGradient><linearGradient id="linearGradient3030-1" x1="24.139" x2="24.139" y1="21.342" y2="24.912" gradientTransform="matrix(0.2817955,0,0,0.2800956,12.178741,12.02218)" gradientUnits="userSpaceOnUse" xlink:href="#linearGradient4333"/><linearGradient id="linearGradient4333"><stop id="stop4335" offset="0" stop-color="#fff" stop-opacity="1"/><stop id="stop4337" offset="0" stop-color="#fff" stop-opacity=".235"/><stop id="stop4339" offset="1" stop-color="#fff" stop-opacity=".157"/><stop id="stop4341" offset="1" stop-color="#fff" stop-opacity=".392"/></linearGradient><linearGradient id="linearGradient868" x1="12" x2="12" y1="1.5" y2="22.526" gradientUnits="userSpaceOnUse" xlink:href="#linearGradient866"/></defs><metadata id="metadata3325"/><path id="path3818-0-2" fill="url(#radialGradient3318)" fill-opacity="1" stroke="none" d="m 19.965624,21.051843 a 7.9656233,2.5345164 0 1 1 -15.9312462,0 7.9656233,2.5345164 0 1 1 15.9312462,0 z"/><path d="m 22,21 c 0,1.656854 -4.477153,3 -10,3 -5.5228476,0 -10,-1.343146 -10,-3 0,-1.656854 4.4771524,-3 10,-3 5.522847,0 10,1.343146 10,3 l 0,0 z" style="marker:none" id="path8836-1" fill="url(#radialGradient3120)" fill-opacity="1" fill-rule="evenodd" stroke="none" stroke-width="1" display="inline" opacity=".3" overflow="visible" visibility="visible"/><path d="M 12,1.5000002 C 6.2064626,1.5000002 1.5000001,6.206462 1.5000001,12 1.5000001,17.793537 6.2064626,22.500001 12,22.5 17.793537,22.5 22.500004,17.793537 22.5,12 22.5,6.206462 17.793537,1.5000002 12,1.5000002 Z" style="marker:none" id="path2555-7-65" fill="url(#linearGradient868)" fill-opacity="1" fill-rule="nonzero" stroke="#7239b3" stroke-opacity=".498" stroke-width="1" color="#000" display="inline" enable-background="accumulate" overflow="visible" visibility="visible"/><path id="path3421-7" fill="none" stroke="url(#linearGradient3221-8)" stroke-dasharray="none" stroke-dashoffset="0" stroke-linecap="round" stroke-linejoin="round" stroke-miterlimit="4" stroke-opacity="1" stroke-width="1" d="m 21.5,12 c 0,5.246706 -4.253305,9.5 -9.5,9.5 -5.246695,0 -9.5,-4.253294 -9.5,-9.5 0,-5.246704 4.253305,-9.5 9.5,-9.5 5.246695,0 9.5,4.253296 9.5,9.5 z" color="#000" display="inline" enable-background="accumulate" opacity=".5" overflow="visible" visibility="visible" style="marker:none"/><path id="path2262" fill="url(#radialGradient3900-3)" fill-opacity="1" fill-rule="nonzero" stroke="none" stroke-width=".985" d="m 16.482179,16.507295 0,-3 4,0 0,3 3,0 0,4 -3,0 0,2.999991 -4,0 0,-2.999991 -2.989465,0 0,-4 2.989465,0 z" color="#000" display="inline" enable-background="accumulate" overflow="visible" visibility="visible" style="marker:none"/><path id="path2272" fill="none" stroke="url(#linearGradient3030-12)" stroke-dasharray="none" stroke-linecap="butt" stroke-linejoin="miter" stroke-miterlimit="4" stroke-opacity="1" stroke-width="1" d="m 17.5,18.004404 0,-3.504404 2,0 0,3.5 m 0,1 0,3.5 -2,0 0,-3.5" display="inline" opacity=".5"/><path id="path2262-2" fill="none" fill-opacity="1" fill-rule="nonzero" stroke="#0f5a00" stroke-dasharray="none" stroke-dashoffset="0" stroke-linecap="round" stroke-linejoin="round" stroke-miterlimit="4" stroke-opacity="1" stroke-width="1" d="m 16.482179,16.507295 0,-3 4,0 0,3 3,0 0,4 -3,0 0,2.999991 -4,0 0,-2.999991 -2.989465,0 0,-4 2.989465,0 z" clip-rule="nonzero" color="#000" color-interpolation="sRGB" color-interpolation-filters="linearRGB" color-rendering="auto" display="inline" enable-background="accumulate" image-rendering="auto" opacity=".5" overflow="visible" shape-rendering="auto" text-rendering="auto" visibility="visible" style="isolation:auto;mix-blend-mode:normal;solid-color:#000;solid-opacity:1;marker:none"/><path id="path2272-2" fill="none" stroke="url(#linearGradient3030-1)" stroke-dasharray="none" stroke-linecap="butt" stroke-linejoin="miter" stroke-miterlimit="4" stroke-opacity="1" stroke-width="1" d="m 20,17.507295 2.482179,-0.0073 0,2 L 20,19.507295 m -3,0 -2.5,-0.0073 0,-2 2.5,0.0073" display="inline" opacity=".5"/></svg>