<svg xmlns="http://www.w3.org/2000/svg" xmlns:svg="http://www.w3.org/2000/svg" xmlns:xlink="http://www.w3.org/1999/xlink" id="svg3495" width="24" height="24" version="1.1"><defs id="defs3497"><linearGradient id="linearGradient3767"><stop id="stop3769" offset="0" stop-color="#000" stop-opacity="1"/><stop id="stop3771" offset="1" stop-color="#000" stop-opacity="0"/></linearGradient><linearGradient id="linearGradient3757"><stop id="stop3759" offset="0" stop-color="#e2e2e2" stop-opacity="1"/><stop id="stop3761" offset="1" stop-color="#fff" stop-opacity="1"/></linearGradient><linearGradient id="linearGradient3016" x1="12" x2="12" y1="48" y2="28" gradientTransform="matrix(1.050006,0,0,1.0801488,0.18742631,-28.482535)" gradientUnits="userSpaceOnUse" xlink:href="#linearGradient3757"/><linearGradient id="linearGradient3018" x1="17" x2="2" y1="33" y2="42" gradientTransform="matrix(1.050006,0,0,1.0801488,0.18742631,-28.482535)" gradientUnits="userSpaceOnUse" xlink:href="#linearGradient3767"/></defs><metadata id="metadata3500"/><path id="path6400" fill="url(#linearGradient3016)" fill-opacity="1" stroke="none" d="M 21.445457,5.2346842 2.6537434,9.2843091 6,11.921875 6,17 l 2.3521795,-3.080636 0.2829008,-0.169707 0.3197406,0.08148 4.9168441,3.653331 z" display="inline" enable-background="new"/><path id="path3755" fill="url(#linearGradient3018)" fill-opacity="1" stroke="none" d="M 21.441447,5.2415638 9.0058313,13.402765 8.4118599,13.874521 6,17 6,12.018333 Z" display="inline" enable-background="new" opacity=".61"/><path id="path3765" fill="none" stroke="#000" stroke-linejoin="round" stroke-opacity="1" stroke-width="1" d="m 22.500056,4.4999766 -21.0001223,4.5146848 4.0000664,3.1644996 -2e-7,6.286801 3.2187245,-4.177137 0,0 0,0 5.2910526,3.923977 z" display="inline" enable-background="new" opacity=".4"/><path id="path3808" fill="#9e9e9e" fill-opacity="1" stroke="none" d="m 5.7847218,18.857948 3.0276605,-3.892951 1.7515617,1.297036 z" opacity="1"/><path id="rect4167" fill="#fff" fill-opacity="1" fill-rule="evenodd" stroke="none" stroke-dasharray="none" stroke-dashoffset="0" stroke-linecap="butt" stroke-linejoin="miter" stroke-miterlimit="4" stroke-opacity="1" stroke-width="1" d="M 21.445312,5.234375 2.6542969,9.2851562 3.6601562,10.078125 16.945312,7.2148438 l 4.494141,-1.9707032 0,-0.00195 0.002,0 z" clip-rule="nonzero" color="#000" color-interpolation="sRGB" color-interpolation-filters="linearRGB" color-rendering="auto" display="inline" enable-background="accumulate" image-rendering="auto" opacity="1" overflow="visible" shape-rendering="auto" text-rendering="auto" visibility="visible" style="isolation:auto;mix-blend-mode:normal;solid-color:#000;solid-opacity:1;marker:none;filter-blend-mode:normal;filter-gaussianBlur-deviation:0"/><path id="rect4233" fill="#fff" fill-opacity="1" fill-rule="evenodd" stroke="none" stroke-dasharray="none" stroke-dashoffset="0" stroke-linecap="butt" stroke-linejoin="miter" stroke-miterlimit="4" stroke-opacity="1" stroke-width="1" d="M 20.228516 7.203125 L 18.283203 8.484375 L 13.619141 16.037109 L 10.425781 13.666016 L 9.5351562 14.251953 L 13.091797 16.892578 L 13.085938 16.900391 L 13.871094 17.484375 L 20.228516 7.203125 z" clip-rule="nonzero" color="#000" color-interpolation="sRGB" color-interpolation-filters="linearRGB" color-rendering="auto" display="inline" enable-background="accumulate" image-rendering="auto" opacity=".5" overflow="visible" shape-rendering="auto" text-rendering="auto" visibility="visible" style="isolation:auto;mix-blend-mode:normal;solid-color:#000;solid-opacity:1;marker:none;filter-blend-mode:normal;filter-gaussianBlur-deviation:0"/><path id="rect4352" fill="#fff" fill-opacity="1" fill-rule="evenodd" stroke="none" stroke-dasharray="none" stroke-dashoffset="0" stroke-linecap="butt" stroke-linejoin="miter" stroke-miterlimit="4" stroke-opacity="1" stroke-width="1" d="M 21.445312 5.234375 L 21.371094 5.25 L 21.267578 5.3183594 L 21.439453 5.2441406 L 21.439453 5.2421875 L 21.441406 5.2421875 L 21.445312 5.234375 z M 21.439453 5.2441406 L 9.2402344 13.248047 L 9.0058594 13.402344 L 9 13.40625 L 8.4121094 13.875 L 8.4003906 13.890625 L 8.6347656 13.75 L 8.9550781 13.832031 L 9.5273438 14.257812 L 20.230469 7.2011719 L 21.439453 5.2441406 z" clip-rule="nonzero" color="#000" color-interpolation="sRGB" color-interpolation-filters="linearRGB" color-rendering="auto" display="inline" enable-background="accumulate" image-rendering="auto" opacity=".8" overflow="visible" shape-rendering="auto" text-rendering="auto" visibility="visible" style="isolation:auto;mix-blend-mode:normal;solid-color:#000;solid-opacity:1;marker:none;filter-blend-mode:normal;filter-gaussianBlur-deviation:0"/></svg>