<svg xmlns="http://www.w3.org/2000/svg" xmlns:svg="http://www.w3.org/2000/svg" xmlns:xlink="http://www.w3.org/1999/xlink" id="svg3071" width="24" height="24" version="1.1"><defs id="defs3073"><linearGradient id="linearGradient846"><stop id="stop842" offset="0" stop-color="#cd9ef7" stop-opacity="1"/><stop id="stop844" offset="1" stop-color="#a56de2" stop-opacity="1"/></linearGradient><linearGradient id="linearGradient2867-449-88-871-390-598-476-591-434-148-57-177"><stop id="stop3750" offset="0" stop-color="#90dbec" stop-opacity="1"/><stop id="stop3752" offset=".262" stop-color="#55c1ec" stop-opacity="1"/><stop id="stop3754" offset=".705" stop-color="#3689e6" stop-opacity="1"/><stop id="stop3756" offset="1" stop-color="#2b63a0" stop-opacity="1"/></linearGradient><linearGradient id="linearGradient4087"><stop id="stop4089" offset="0" stop-color="#fff" stop-opacity="1"/><stop id="stop4091" offset=".512" stop-color="#fff" stop-opacity=".235"/><stop id="stop4093" offset=".585" stop-color="#fff" stop-opacity=".157"/><stop id="stop4095" offset="1" stop-color="#fff" stop-opacity=".392"/></linearGradient><linearGradient id="linearGradient8662"><stop id="stop8664" offset="0" stop-color="#000" stop-opacity="1"/><stop id="stop8666" offset="1" stop-color="#000" stop-opacity="0"/></linearGradient><radialGradient id="radialGradient3140" cx="24.837" cy="36.421" r="15.645" fx="24.837" fy="36.421" gradientTransform="matrix(0.52995454,0,0,-0.35307735,0.487385,29.835677)" gradientUnits="userSpaceOnUse" xlink:href="#linearGradient8662"/><linearGradient id="linearGradient3142" x1="23.732" x2="23.732" y1="4.418" y2="42.04" gradientTransform="matrix(-0.54198763,0,0,0.50490985,28.710717,0.20314303)" gradientUnits="userSpaceOnUse" xlink:href="#linearGradient2867-449-88-871-390-598-476-591-434-148-57-177"/><linearGradient id="linearGradient3146" x1="38.941" x2="20.576" y1="15.991" y2="15.991" gradientTransform="matrix(0,-0.59171698,-0.63516951,0,27.744461,27.519327)" gradientUnits="userSpaceOnUse" xlink:href="#linearGradient4087"/><linearGradient id="linearGradient3059" x1="38.941" x2="20.576" y1="15.991" y2="15.991" gradientTransform="matrix(0,-0.59171698,-0.63516951,0,21.744461,27.519327)" gradientUnits="userSpaceOnUse" xlink:href="#linearGradient4087"/><linearGradient id="linearGradient848" x1="7.124" x2="7.124" y1="2.467" y2="19.73" gradientUnits="userSpaceOnUse" xlink:href="#linearGradient846"/></defs><metadata id="metadata3076"/><path id="path3501" fill="url(#radialGradient3140)" fill-opacity="1" fill-rule="evenodd" stroke="none" stroke-width="1" d="m 21.940932,16.976195 a 8.2909995,5.5238047 0 1 0 -16.581999,0 8.2909995,5.5238047 0 0 0 16.581999,0 z" display="inline" opacity=".141" overflow="visible" visibility="visible" style="marker:none"/><path id="path3503-1-5" fill="url(#linearGradient848)" fill-opacity="1" fill-rule="nonzero" stroke="none" stroke-dasharray="none" stroke-dashoffset="0" stroke-linecap="butt" stroke-linejoin="round" stroke-miterlimit="7" stroke-opacity="1" stroke-width=".964" d="M 14.413599,19.738099 C 20.04103,14.833336 18.04103,6.8333357 9.54103,6.6190637 l 0,-4.143524 -8.9999996,6.904756 8.9999996,6.9047553 0,-4.110195 c 4.947306,-0.192038 7.718477,4.318814 4.181653,7.563243 z" display="block" overflow="visible" visibility="visible" style="marker:none"/><path stroke-opacity="1" style="marker:none" id="path3505-3-3" fill="none" stroke="url(#linearGradient3059)" stroke-dasharray="none" stroke-dashoffset="0" stroke-linecap="butt" stroke-linejoin="miter" stroke-miterlimit="7" stroke-width=".964" d="M 15.735547,17.332859 C 18.163223,14.489671 16.639984,7.0660757 8.58359,7.6169257 L 8.49847,4.4662767 2.1576671,9.3802957 8.49847,14.25096 l 0,-2.902512 c 7.70931,-0.744942 7.962298,4.835058 7.237078,5.984411 z" display="block" opacity=".53" overflow="visible" visibility="visible"/><path id="path3503-1-0" fill="none" fill-opacity="1" fill-rule="nonzero" stroke="#7239b3" stroke-dasharray="none" stroke-dashoffset="0" stroke-linecap="butt" stroke-linejoin="round" stroke-miterlimit="4" stroke-opacity="1" stroke-width="1" d="M 14.413599,19.738099 C 20.04103,14.833336 18.04103,6.8333356 9.54103,6.6190636 l 0,-4.143524 -8.9999996,6.904756 8.9999996,6.9047554 0,-4.110195 c 4.947306,-0.192038 7.718477,4.318814 4.181653,7.563243 z" clip-rule="nonzero" color="#000" color-interpolation="sRGB" color-interpolation-filters="linearRGB" color-rendering="auto" display="inline" enable-background="accumulate" image-rendering="auto" opacity=".5" overflow="visible" shape-rendering="auto" text-rendering="auto" visibility="visible" style="isolation:auto;mix-blend-mode:normal;solid-color:#000;solid-opacity:1;marker:none"/><path id="path3503" fill="url(#linearGradient3142)" fill-opacity="1" fill-rule="nonzero" stroke="none" stroke-dasharray="none" stroke-dashoffset="0" stroke-linecap="butt" stroke-linejoin="round" stroke-miterlimit="7" stroke-opacity="1" stroke-width=".964" d="M 20.413599,19.738099 C 26.04103,14.833336 24.04103,6.8333363 15.54103,6.6190637 l 0,-4.1435236 -8.9999996,6.9047555 8.9999996,6.9047554 0,-4.110195 c 4.947306,-0.192038 7.718477,4.318814 4.181653,7.563243 z" display="block" overflow="visible" visibility="visible" style="marker:none"/><path stroke-opacity="1" style="marker:none" id="path3505" fill="none" stroke="url(#linearGradient3146)" stroke-dasharray="none" stroke-dashoffset="0" stroke-linecap="butt" stroke-linejoin="miter" stroke-miterlimit="7" stroke-width=".964" d="M 21.735547,17.332859 C 24.163223,14.489671 22.639984,7.0660764 14.58359,7.6169259 L 14.49847,4.4662766 8.1576671,9.3802956 14.49847,14.25096 l 0,-2.902512 c 7.70931,-0.744942 7.962298,4.835058 7.237078,5.984411 z" display="block" opacity=".53" overflow="visible" visibility="visible"/><path clip-rule="nonzero" style="marker:none;isolation:auto;mix-blend-mode:normal;solid-color:#000;solid-opacity:1;filter-blend-mode:normal;filter-gaussianBlur-deviation:0" id="path3503-9" fill="#000" fill-opacity="0" fill-rule="nonzero" stroke="#00537d" stroke-dasharray="none" stroke-dashoffset="0" stroke-linecap="round" stroke-linejoin="round" stroke-miterlimit="4" stroke-opacity="1" stroke-width="1" d="M 20.413599,19.738099 C 26.04103,14.833336 24.04103,6.8333362 15.54103,6.6190636 l 0,-4.1435236 -8.9999996,6.9047555 8.9999996,6.9047555 0,-4.110195 c 4.947306,-0.192038 7.718477,4.318814 4.181653,7.563243 z" color="#000" color-interpolation="sRGB" color-interpolation-filters="linearRGB" color-rendering="auto" display="inline" enable-background="accumulate" image-rendering="auto" opacity=".5" overflow="visible" shape-rendering="auto" text-rendering="auto" visibility="visible"/></svg>