<svg xmlns="http://www.w3.org/2000/svg" xmlns:svg="http://www.w3.org/2000/svg" xmlns:xlink="http://www.w3.org/1999/xlink" id="svg3041" width="24" height="24" version="1.1"><defs id="defs3043"><linearGradient id="linearGradient3082" x1="71.204" x2="71.204" y1="6.238" y2="44.341" gradientTransform="matrix(0.29729726,0,0,-0.29729726,-9.3261789,19.538808)" gradientUnits="userSpaceOnUse"><stop id="stop4013-2" offset="0" stop-color="#fff" stop-opacity="1"/><stop id="stop4015-4" offset=".508" stop-color="#fff" stop-opacity=".235"/><stop id="stop4017-9" offset=".835" stop-color="#fff" stop-opacity=".157"/><stop id="stop4019-0" offset="1" stop-color="#fff" stop-opacity=".392"/></linearGradient><radialGradient id="radialGradient3085" cx="23.896" cy="3.99" r="20.397" gradientTransform="matrix(0,0.52770723,-0.69656421,0,14.779293,-5.4477218)" gradientUnits="userSpaceOnUse"><stop id="stop3244-4" offset="0" stop-color="#f8b17e" stop-opacity="1"/><stop id="stop3246-5" offset=".262" stop-color="#e35d4f" stop-opacity="1"/><stop id="stop3248-0" offset=".661" stop-color="#c6262e" stop-opacity="1"/><stop id="stop3250-3" offset="1" stop-color="#690b54" stop-opacity="1"/></radialGradient><linearGradient id="linearGradient3087" x1="7.078" x2="7.078" y1="3.082" y2="45.369" gradientTransform="matrix(0.22110724,0,0,0.22110728,6.6934256,6.693263)" gradientUnits="userSpaceOnUse"><stop id="stop2492-0" offset="0" stop-color="#791235" stop-opacity="1"/><stop id="stop2494-6" offset="1" stop-color="#c7321f" stop-opacity="1"/></linearGradient><radialGradient id="radialGradient3093" cx="23.896" cy="3.99" r="20.397" gradientTransform="matrix(0,1.2316483,-1.625754,0,18.486966,-28.721977)" gradientUnits="userSpaceOnUse"><stop id="stop3244-9" offset="0" stop-color="#fff" stop-opacity="1"/><stop id="stop3246-3" offset=".262" stop-color="#ddd" stop-opacity="1"/><stop id="stop3248-1" offset=".661" stop-color="#abacae" stop-opacity="1"/><stop id="stop3250-9" offset="1" stop-color="#89898b" stop-opacity="1"/></radialGradient><linearGradient id="linearGradient3095" x1="18.379" x2="18.379" y1="44.98" y2="3.082" gradientTransform="matrix(0.51605578,0,0,0.51605586,-0.38513694,-0.38538676)" gradientUnits="userSpaceOnUse"><stop id="stop2492-4" offset="0" stop-color="#505050" stop-opacity="1"/><stop id="stop2494-7" offset="1" stop-color="#aaa" stop-opacity="1"/></linearGradient><linearGradient id="linearGradient3101" x1="71.204" x2="71.204" y1="6.238" y2="44.341" gradientTransform="matrix(0.5135135,0,0,0.5135135,-24.836132,-1.021284)" gradientUnits="userSpaceOnUse"><stop id="stop4013" offset="0" stop-color="#fff" stop-opacity="1"/><stop id="stop4015" offset=".508" stop-color="#fff" stop-opacity=".235"/><stop id="stop4017" offset=".835" stop-color="#fff" stop-opacity=".157"/><stop id="stop4019" offset="1" stop-color="#fff" stop-opacity=".392"/></linearGradient><radialGradient id="radialGradient3109" cx="62.625" cy="4.625" r="10.625" gradientTransform="matrix(1.1294118,0,0,0.2823525,-58.729414,19.694118)" gradientUnits="userSpaceOnUse"><stop id="stop8840" offset="0" stop-color="#000" stop-opacity="1"/><stop id="stop8842" offset="1" stop-color="#000" stop-opacity="0"/></radialGradient><linearGradient id="linearGradient3101-3" x1="71.204" x2="71.204" y1="6.238" y2="44.341" gradientTransform="matrix(0.5135135,0,0,0.5135135,-24.836132,-1.021284)" gradientUnits="userSpaceOnUse"><stop id="stop4013-6" offset="0" stop-color="#fff" stop-opacity="1"/><stop id="stop4015-1" offset=".508" stop-color="#fff" stop-opacity=".235"/><stop id="stop4017-2" offset=".835" stop-color="#fff" stop-opacity=".157"/><stop id="stop4019-9" offset="1" stop-color="#fff" stop-opacity=".392"/></linearGradient><linearGradient id="linearGradient3032" x1="71.204" x2="71.204" y1="6.238" y2="44.341" gradientTransform="matrix(0.18918406,0,0,0.18918406,-1.5708392,7.2029093)" gradientUnits="userSpaceOnUse" xlink:href="#linearGradient3101-3"/><linearGradient id="linearGradient3990"><stop id="stop3992" offset="0" stop-color="#fff" stop-opacity="1"/><stop id="stop3994" offset="1" stop-color="#fff" stop-opacity="0"/></linearGradient><linearGradient id="linearGradient3259" x1="68.313" x2="68.313" y1="52.925" y2="65.922" gradientUnits="userSpaceOnUse" xlink:href="#linearGradient3990"/></defs><metadata id="metadata3046"/><path id="path8836" fill="url(#radialGradient3109)" fill-rule="evenodd" d="m 24,21 c 0,1.6569 -5.3726,3 -12,3 -6.6274,0 -12,-1.343 -12,-3 0,-1.657 5.3726,-3 12,-3 6.6274,0 12,1.3431 12,3 z" opacity=".3"/><path id="path2555-36" fill="url(#radialGradient3093)" stroke="url(#linearGradient3095)" stroke-dasharray="none" stroke-dashoffset="0" stroke-linecap="round" stroke-linejoin="round" stroke-miterlimit="4" stroke-width="1.004" d="m 12,1.5014 c -5.7927,0 -10.498,4.7058 -10.498,10.498 0,5.7927 4.7058,10.498 10.498,10.498 5.7927,0 10.498,-4.7058 10.498,-10.498 C 22.498,6.2067 17.7922,1.5014 12,1.5014 z"/><path id="path2555-3" fill="url(#radialGradient3085)" stroke="url(#linearGradient3087)" stroke-dasharray="none" stroke-dashoffset="0" stroke-linecap="round" stroke-linejoin="round" stroke-miterlimit="4" stroke-width="1.004" d="M 12,7.5018 C 9.5181,7.5018 7.5018,9.518 7.5018,12 c 0,2.4819 2.0163,4.4982 4.4982,4.4982 2.4819,0 4.4982,-2.0162 4.4982,-4.4982 C 16.4982,9.5181 14.482,7.5018 12,7.5018 z"/><path id="path8655-6-1" fill="none" stroke="url(#linearGradient3082)" stroke-dasharray="none" stroke-dashoffset="0" stroke-linecap="round" stroke-linejoin="round" stroke-miterlimit="4" stroke-width="1" d="M 17.5,12 C 17.5,8.9625 15.037,6.5 12,6.5 8.9625,6.5 6.5,8.9626 6.5,12 c 0,3.038 2.4625,5.5 5.5,5.5 3.037,0 5.5,-2.462 5.5,-5.5 z" color="#000" enable-background="accumulate" opacity=".5"/><path id="path8655-6" fill="none" stroke="url(#linearGradient3101)" stroke-dasharray="none" stroke-dashoffset="0" stroke-linecap="round" stroke-linejoin="round" stroke-miterlimit="4" stroke-width="1" d="m 21.5,12 c 0,5.247 -4.254,9.5 -9.5,9.5 C 6.7534,21.5 2.5,17.246 2.5,12 2.5,6.7534 6.7534,2.5003 12.0001,2.5003 17.2464,2.5003 21.5,6.7533 21.5,12 z" color="#000" enable-background="accumulate" opacity=".8"/><path id="path8655-6-3" fill="none" stroke="url(#linearGradient3032)" stroke-dasharray="none" stroke-dashoffset="0" stroke-linecap="round" stroke-linejoin="round" stroke-miterlimit="4" stroke-width="1" d="M 15.499905,12.000095 C 15.499905,13.933148 13.932684,15.5 12,15.5 c -1.932906,0 -3.4999053,-1.567221 -3.4999053,-3.499905 0,-1.932906 1.5669993,-3.4997951 3.4999423,-3.4997951 1.932795,0 3.499868,1.5668521 3.499868,3.4997951 z" color="#000" enable-background="accumulate" opacity=".5"/><path display="inline" style="marker:none" id="path3220" fill="url(#linearGradient3259)" fill-opacity="1" stroke="none" stroke-width="1" d="m 78.338799,64.349724 a 11.424408,11.424408 0 1 1 -22.848816,0 11.424408,11.424408 0 1 1 22.848816,0 z" color="#000" enable-background="accumulate" opacity=".4" overflow="visible" transform="matrix(0.17506378,0,0,0.17506378,0.28571389,-0.26530593)" visibility="visible"/></svg>