<svg xmlns="http://www.w3.org/2000/svg" xmlns:svg="http://www.w3.org/2000/svg" xmlns:xlink="http://www.w3.org/1999/xlink" id="svg3349" width="24" height="24" version="1.0"><metadata id="metadata49"/><defs id="defs3351"><linearGradient id="linearGradient4431"><stop id="stop4433" offset="0" stop-color="#a575d6" stop-opacity="1"/><stop id="stop4435" offset="1" stop-color="#b483d5" stop-opacity="0"/></linearGradient><linearGradient id="linearGradient4425"><stop id="stop4427" offset="0" stop-color="#6326b9" stop-opacity="1"/><stop id="stop4429" offset="1" stop-color="#903fc4" stop-opacity="0"/></linearGradient><radialGradient id="radialGradient3400-552" cx="62.625" cy="4.625" r="10.625" fx="62.625" fy="4.625" gradientTransform="matrix(1.0352941,0,0,0.23529379,-53.028857,20.411496)" gradientUnits="userSpaceOnUse" xlink:href="#linearGradient8838-634"/><linearGradient id="linearGradient8838-634"><stop id="stop2746" offset="0" stop-color="#000" stop-opacity="1"/><stop id="stop2748" offset="1" stop-color="#000" stop-opacity="0"/></linearGradient><linearGradient id="linearGradient3404-708" x1="31.226" x2="34.966" y1="34.601" y2="26.843" gradientTransform="matrix(0.5097808,0.03067969,-0.03009813,0.5001183,1.225607,0.5062031)" gradientUnits="userSpaceOnUse" xlink:href="#linearGradient4431"/><linearGradient id="linearGradient3408-109" x1="32.326" x2="22.245" y1="5.02" y2="43.366" gradientTransform="matrix(0.3446423,-0.3446422,0.3381098,0.3381098,-3.882197,14.32142)" gradientUnits="userSpaceOnUse" xlink:href="#linearGradient4873-523"/><linearGradient id="linearGradient4873-523"><stop id="stop2770" offset="0" stop-color="#fff" stop-opacity="1"/><stop id="stop2772" offset="1" stop-color="#fff" stop-opacity="0"/></linearGradient><linearGradient id="linearGradient3410-460" x1="28.117" x2="39.686" y1="41.674" y2="28.505" gradientTransform="matrix(0.4865175,0.02927958,-0.02872474,0.4772959,1.284279,1.9626372)" gradientUnits="userSpaceOnUse" xlink:href="#linearGradient3319-458"/><linearGradient id="linearGradient3319-458"><stop id="stop2776" offset="0" stop-color="#fff" stop-opacity="0"/><stop id="stop2778" offset=".631" stop-color="#fff" stop-opacity=".275"/><stop id="stop2780" offset="1" stop-color="#fff" stop-opacity="0"/></linearGradient><linearGradient id="linearGradient4330"><stop id="stop4332" offset="0" stop-color="#f0c1ff" stop-opacity="1"/><stop id="stop4334" offset=".262" stop-color="#c5a3f2" stop-opacity="1"/><stop id="stop4336" offset=".705" stop-color="#7a36b1" stop-opacity="1"/><stop id="stop4338" offset="1" stop-color="#4c2d81" stop-opacity="1"/></linearGradient><linearGradient id="linearGradient3406-498-3" x1="33.687" x2="37.04" y1="35.774" y2="29.857" gradientTransform="matrix(0.5097808,0.03067969,-0.03009813,0.5001183,1.225607,0.506203)" gradientUnits="userSpaceOnUse" xlink:href="#linearGradient4425"/><linearGradient id="linearGradient4437" x1="39.401" x2="-33.299" y1="-5.302" y2="68.803" gradientTransform="matrix(0.3446423,-0.3446422,0.3381098,0.3381098,-3.882197,14.32142)" gradientUnits="userSpaceOnUse" xlink:href="#linearGradient4330"/></defs><path d="m 22.806436,21.49973 a 11,2.5 0 0 1 -22,0 11,2.5 0 1 1 22,0 z" style="marker:none" id="path8836" fill="url(#radialGradient3400-552)" fill-opacity="1" fill-rule="evenodd" stroke="none" stroke-width="1" display="inline" opacity=".4" overflow="visible" visibility="visible"/><path id="path3372" fill="url(#linearGradient4437)" fill-opacity="1" stroke="none" stroke-dasharray="none" stroke-linecap="butt" stroke-linejoin="round" stroke-miterlimit="4" stroke-opacity="1" stroke-width="1.005" d="M 12.301845,18.816592 C 11.173117,18.882462 9.442793,18.473459 8.395729,17.426396 6.647896,15.678563 6.236906,11.53924 8.377849,9.4637811 9.244713,8.6234322 11.303356,7.5328709 12.496692,7.4999998 L 12.509632,10.5 18.606789,5.6907158 c 0,0 -6.097157,-5.1907165 -6.097157,-5.1907165 l -0.01404,2.8225719 C 9.865492,3.3707092 7.374282,4.2422143 5.376567,6.1972466 1.312582,10.174402 1.319107,16.594127 5.20154,20.565462 c 1.985452,2.030915 4.586146,2.999155 7.197102,2.928568"/><path clip-rule="nonzero" style="isolation:auto;mix-blend-mode:normal;solid-color:#000;solid-opacity:1" id="path3453" fill="url(#linearGradient3404-708)" fill-opacity="1" fill-rule="nonzero" stroke="none" stroke-dasharray="none" stroke-dashoffset="0" stroke-linecap="butt" stroke-linejoin="miter" stroke-miterlimit="4" stroke-opacity="1" stroke-width="1.005" d="m 12.403327,23.484076 c 4.640461,0.101529 9.933855,-3.179938 10.287863,-9.200086 l -4.368847,0.575921 c -0.245199,2.531264 -3.879206,4.316315 -6.073699,4.006329" color="#000" color-interpolation="sRGB" color-interpolation-filters="linearRGB" color-rendering="auto" display="inline" enable-background="accumulate" image-rendering="auto" opacity="1" overflow="visible" shape-rendering="auto" text-rendering="auto" visibility="visible"/><rect id="rect3290" width="1" height="3.279" x="11.985" y="19.441" fill="#a575d6" fill-opacity="1" fill-rule="nonzero" stroke="none" stroke-dasharray="none" stroke-dashoffset="0" stroke-linecap="butt" stroke-linejoin="round" stroke-miterlimit="4" stroke-opacity="1" stroke-width="1.005" clip-rule="nonzero" color="#000" color-interpolation="sRGB" color-interpolation-filters="linearRGB" color-rendering="auto" display="inline" enable-background="accumulate" image-rendering="auto" opacity="1" overflow="visible" shape-rendering="auto" text-rendering="auto" visibility="visible" style="isolation:auto;mix-blend-mode:normal;solid-color:#000;solid-opacity:1"/><path id="path3347" fill="#c09cee" fill-opacity="1" stroke="none" stroke-dasharray="none" stroke-dashoffset="0" stroke-linecap="round" stroke-linejoin="round" stroke-miterlimit="4" stroke-opacity="1" stroke-width="1" d="m 13.663861,13.821288 a 1.1787115,1.1787115 0 0 1 -2.357423,0 1.1787115,1.1787115 0 1 1 2.357423,0 z"/><path clip-rule="nonzero" style="isolation:auto;mix-blend-mode:normal;solid-color:#000;solid-opacity:1;marker:none" id="path3372-0" fill="none" fill-opacity="1" fill-rule="nonzero" stroke="#6326b9" stroke-dasharray="none" stroke-dashoffset="0" stroke-linecap="butt" stroke-linejoin="round" stroke-miterlimit="4" stroke-opacity="1" stroke-width="1" d="M 12.301845,18.816592 C 11.173117,18.882462 9.442793,18.473459 8.395729,17.426396 6.647896,15.678563 6.236906,11.53924 8.377849,9.4637816 9.244713,8.6234327 11.303356,7.5328714 12.496692,7.5000003 L 12.509632,10.5 18.606789,5.6907163 c 0,0 -6.097157,-5.19071651 -6.097157,-5.19071651 L 12.495592,3.3225717 C 9.865492,3.3707097 7.374282,4.2422148 5.376567,6.1972471 1.312582,10.174402 1.319107,16.594127 5.20154,20.565462 c 1.985452,2.030915 4.586146,2.999155 7.197102,2.928568" color="#000" color-interpolation="sRGB" color-interpolation-filters="linearRGB" color-rendering="auto" display="inline" enable-background="accumulate" image-rendering="auto" opacity=".5" overflow="visible" shape-rendering="auto" text-rendering="auto" visibility="visible"/><path clip-rule="nonzero" style="isolation:auto;mix-blend-mode:normal;solid-color:#000;solid-opacity:1" id="path3453-0" fill="none" fill-opacity="1" fill-rule="nonzero" stroke="url(#linearGradient3406-498-3)" stroke-dasharray="none" stroke-dashoffset="0" stroke-linecap="butt" stroke-linejoin="miter" stroke-miterlimit="4" stroke-opacity="1" stroke-width="1.005" d="m 12.403327,23.484076 c 4.640461,0.101529 9.933855,-3.179938 10.287863,-9.200086 l -4.368847,0.575921 C 18.211905,16 16,18.86624 12.248644,18.86624" color="#000" color-interpolation="sRGB" color-interpolation-filters="linearRGB" color-rendering="auto" display="inline" enable-background="accumulate" image-rendering="auto" opacity=".5" overflow="visible" shape-rendering="auto" text-rendering="auto" visibility="visible"/><path id="path3370" fill="none" stroke="url(#linearGradient3408-109)" stroke-dasharray="none" stroke-linecap="butt" stroke-linejoin="miter" stroke-miterlimit="4" stroke-opacity="1" stroke-width="1.005" d="M 12.308423,19.966046 C 10.861952,19.978946 8.823826,19.256693 7.7204,18.165281 5.14153,15.610922 5.311144,10.798158 7.69056,8.6058922 8.69464,7.6807819 10.249773,6.5571461 13.5,6.5571461 l 0,1.926054 3.69258,-2.7924843 c 0,0 -3.69258,-3.1243897 -3.69258,-3.1243897 l 0,1.8440569 C 10.821186,4.289772 8.022415,4.9613854 6.021559,6.9622413 2.344991,10.63881 2.551519,16.5055 5.944339,19.898323 c 2.147844,2.147843 4.400824,2.725534 6.445786,2.572342" opacity=".4"/><path id="path2557" fill="none" stroke="url(#linearGradient3410-460)" stroke-dasharray="none" stroke-linecap="butt" stroke-linejoin="round" stroke-miterlimit="4" stroke-opacity="1" stroke-width="1.005" d="m 12.651944,22.568281 c 2.671474,0.166198 8.572949,-2.28894 8.936808,-8.334926 L 19.63545,14.171305 C 19.463078,17.035451 16,19.842871 12.338819,19.998604"/><path clip-rule="nonzero" style="isolation:auto;mix-blend-mode:normal;solid-color:#000;solid-opacity:1;marker:none" id="path3347-1" fill="none" fill-opacity="1" fill-rule="nonzero" stroke="#6326b9" stroke-dasharray="none" stroke-dashoffset="0" stroke-linecap="butt" stroke-linejoin="round" stroke-miterlimit="4" stroke-opacity="1" stroke-width="1" d="m 13.663861,13.821288 a 1.1787115,1.1787115 0 0 1 -2.357423,0 1.1787115,1.1787115 0 1 1 2.357423,0 z" color="#000" color-interpolation="sRGB" color-interpolation-filters="linearRGB" color-rendering="auto" display="inline" enable-background="accumulate" image-rendering="auto" opacity=".5" overflow="visible" shape-rendering="auto" text-rendering="auto" visibility="visible"/></svg>