<svg xmlns="http://www.w3.org/2000/svg" xmlns:svg="http://www.w3.org/2000/svg" xmlns:xlink="http://www.w3.org/1999/xlink" id="svg3349" width="24" height="24" version="1.0"><metadata id="metadata49"/><defs id="defs3351"><linearGradient id="linearGradient4431"><stop id="stop4433" offset="0" stop-color="#a575d6" stop-opacity="1"/><stop id="stop4435" offset="1" stop-color="#b483d5" stop-opacity="0"/></linearGradient><linearGradient id="linearGradient4425"><stop id="stop4427" offset="0" stop-color="#6326b9" stop-opacity="1"/><stop id="stop4429" offset="1" stop-color="#903fc4" stop-opacity="0"/></linearGradient><radialGradient id="radialGradient3400-552" cx="62.625" cy="4.625" r="10.625" fx="62.625" fy="4.625" gradientTransform="matrix(-1.0352941,0,0,0.23529379,77.028857,20.411496)" gradientUnits="userSpaceOnUse" xlink:href="#linearGradient8838-634"/><linearGradient id="linearGradient8838-634"><stop id="stop2746" offset="0" stop-color="#000" stop-opacity="1"/><stop id="stop2748" offset="1" stop-color="#000" stop-opacity="0"/></linearGradient><linearGradient id="linearGradient3404-708" x1="31.226" x2="34.966" y1="34.601" y2="26.843" gradientTransform="matrix(-0.5097808,0.03067969,0.03009813,0.5001183,22.774393,0.5062031)" gradientUnits="userSpaceOnUse" xlink:href="#linearGradient4431"/><linearGradient id="linearGradient3408-109" x1="32.326" x2="22.245" y1="5.02" y2="43.366" gradientTransform="matrix(-0.3446423,-0.3446422,-0.3381098,0.3381098,27.882197,14.32142)" gradientUnits="userSpaceOnUse" xlink:href="#linearGradient4873-523"/><linearGradient id="linearGradient4873-523"><stop id="stop2770" offset="0" stop-color="#fff" stop-opacity="1"/><stop id="stop2772" offset="1" stop-color="#fff" stop-opacity="0"/></linearGradient><linearGradient id="linearGradient3410-460" x1="28.117" x2="39.686" y1="41.674" y2="28.505" gradientTransform="matrix(-0.4865175,0.02927958,0.02872474,0.4772959,22.715721,1.9626372)" gradientUnits="userSpaceOnUse" xlink:href="#linearGradient3319-458"/><linearGradient id="linearGradient3319-458"><stop id="stop2776" offset="0" stop-color="#fff" stop-opacity="0"/><stop id="stop2778" offset=".631" stop-color="#fff" stop-opacity=".275"/><stop id="stop2780" offset="1" stop-color="#fff" stop-opacity="0"/></linearGradient><linearGradient id="linearGradient4330"><stop id="stop4332" offset="0" stop-color="#f0c1ff" stop-opacity="1"/><stop id="stop4334" offset=".262" stop-color="#c5a3f2" stop-opacity="1"/><stop id="stop4336" offset=".705" stop-color="#7a36b1" stop-opacity="1"/><stop id="stop4338" offset="1" stop-color="#4c2d81" stop-opacity="1"/></linearGradient><linearGradient id="linearGradient3406-498-3" x1="33.687" x2="37.04" y1="35.774" y2="29.857" gradientTransform="matrix(-0.5097808,0.03067969,0.03009813,0.5001183,22.774393,0.506203)" gradientUnits="userSpaceOnUse" xlink:href="#linearGradient4425"/><linearGradient id="linearGradient4437" x1="39.401" x2="-33.299" y1="-5.302" y2="68.803" gradientTransform="matrix(-0.3446423,-0.3446422,-0.3381098,0.3381098,27.882197,14.32142)" gradientUnits="userSpaceOnUse" xlink:href="#linearGradient4330"/></defs><path id="path8836" fill="url(#radialGradient3400-552)" fill-opacity="1" fill-rule="evenodd" stroke="none" stroke-width="1" d="m 1.1935642,21.49973 a 11,2.5 0 0 0 21.9999998,0 11,2.5 0 1 0 -21.9999998,0 z" display="inline" opacity=".4" overflow="visible" visibility="visible" style="marker:none"/><path id="path3372" fill="url(#linearGradient4437)" fill-opacity="1" stroke="none" stroke-dasharray="none" stroke-linecap="butt" stroke-linejoin="round" stroke-miterlimit="4" stroke-opacity="1" stroke-width="1.005" d="m 11.698155,18.816592 c 1.128728,0.06587 2.859052,-0.343133 3.906116,-1.390196 1.747833,-1.747833 2.158823,-5.887156 0.01788,-7.9626149 C 14.755287,8.6234322 12.696644,7.5328709 11.503308,7.4999998 L 11.490368,10.5 5.393211,5.6907158 c 0,0 6.097157,-5.1907165 6.097157,-5.1907165 l 0.01404,2.8225719 c 2.6301,0.048138 5.12131,0.9196431 7.119025,2.8746754 4.063985,3.9771554 4.05746,10.3968804 0.175027,14.3682154 -1.985452,2.030915 -4.586146,2.999155 -7.197102,2.928568"/><path id="path3453" fill="url(#linearGradient3404-708)" fill-opacity="1" fill-rule="nonzero" stroke="none" stroke-dasharray="none" stroke-dashoffset="0" stroke-linecap="butt" stroke-linejoin="miter" stroke-miterlimit="4" stroke-opacity="1" stroke-width="1.005" d="M 11.596673,23.484076 C 6.9562115,23.585605 1.6628184,20.304138 1.30881,14.28399 l 4.368847,0.575921 c 0.245199,2.531264 3.879206,4.316315 6.073699,4.006329" clip-rule="nonzero" color="#000" color-interpolation="sRGB" color-interpolation-filters="linearRGB" color-rendering="auto" display="inline" enable-background="accumulate" image-rendering="auto" opacity="1" overflow="visible" shape-rendering="auto" text-rendering="auto" visibility="visible" style="isolation:auto;mix-blend-mode:normal;solid-color:#000;solid-opacity:1;filter-blend-mode:normal;filter-gaussianBlur-deviation:0"/><rect id="rect3290" width="1" height="3.279" x="-12.015" y="19.441" fill="#a575d6" fill-opacity="1" fill-rule="nonzero" stroke="none" stroke-dasharray="none" stroke-dashoffset="0" stroke-linecap="butt" stroke-linejoin="round" stroke-miterlimit="4" stroke-opacity="1" stroke-width="1.005" clip-rule="nonzero" color="#000" color-interpolation="sRGB" color-interpolation-filters="linearRGB" color-rendering="auto" display="inline" enable-background="accumulate" image-rendering="auto" opacity="1" overflow="visible" shape-rendering="auto" text-rendering="auto" transform="scale(-1,1)" visibility="visible" style="isolation:auto;mix-blend-mode:normal;solid-color:#000;solid-opacity:1;filter-blend-mode:normal;filter-gaussianBlur-deviation:0"/><path id="path3347" fill="#c09cee" fill-opacity="1" stroke="none" stroke-dasharray="none" stroke-dashoffset="0" stroke-linecap="round" stroke-linejoin="round" stroke-miterlimit="4" stroke-opacity="1" stroke-width="1" d="m 10.336139,13.821288 a 1.1787115,1.1787115 0 0 0 2.357423,0 1.1787115,1.1787115 0 1 0 -2.357423,0 z"/><path id="path3372-0" fill="none" fill-opacity="1" fill-rule="nonzero" stroke="#6326b9" stroke-dasharray="none" stroke-dashoffset="0" stroke-linecap="butt" stroke-linejoin="round" stroke-miterlimit="4" stroke-opacity="1" stroke-width="1" d="m 11.698155,18.816592 c 1.128728,0.06587 2.859052,-0.343133 3.906116,-1.390196 1.747833,-1.747833 2.158823,-5.887156 0.01788,-7.9626144 C 14.755287,8.6234327 12.696644,7.5328714 11.503308,7.5000003 L 11.490368,10.5 5.393211,5.6907163 c 0,0 6.097157,-5.19071651 6.097157,-5.19071651 l 0.01404,2.82257191 c 2.6301,0.048138 5.12131,0.9196431 7.119025,2.8746754 4.063985,3.9771549 4.05746,10.3968799 0.175027,14.3682149 -1.985452,2.030915 -4.586146,2.999155 -7.197102,2.928568" clip-rule="nonzero" color="#000" color-interpolation="sRGB" color-interpolation-filters="linearRGB" color-rendering="auto" display="inline" enable-background="accumulate" image-rendering="auto" opacity=".5" overflow="visible" shape-rendering="auto" text-rendering="auto" visibility="visible" style="isolation:auto;mix-blend-mode:normal;solid-color:#000;solid-opacity:1;marker:none;filter-blend-mode:normal;filter-gaussianBlur-deviation:0"/><path id="path3453-0" fill="none" fill-opacity="1" fill-rule="nonzero" stroke="url(#linearGradient3406-498-3)" stroke-dasharray="none" stroke-dashoffset="0" stroke-linecap="butt" stroke-linejoin="miter" stroke-miterlimit="4" stroke-opacity="1" stroke-width="1.005" d="M 11.596673,23.484076 C 6.9562115,23.585605 1.6628184,20.304138 1.30881,14.28399 l 4.368847,0.575921 C 5.7880954,16 8,18.86624 11.751356,18.86624" clip-rule="nonzero" color="#000" color-interpolation="sRGB" color-interpolation-filters="linearRGB" color-rendering="auto" display="inline" enable-background="accumulate" image-rendering="auto" opacity=".5" overflow="visible" shape-rendering="auto" text-rendering="auto" visibility="visible" style="isolation:auto;mix-blend-mode:normal;solid-color:#000;solid-opacity:1"/><path id="path3370" fill="none" stroke="url(#linearGradient3408-109)" stroke-dasharray="none" stroke-linecap="butt" stroke-linejoin="miter" stroke-miterlimit="4" stroke-opacity="1" stroke-width="1.005" d="m 11.691577,19.966046 c 1.446471,0.0129 3.484597,-0.709353 4.588023,-1.800765 2.57887,-2.554359 2.409256,-7.367123 0.02984,-9.5593888 C 15.30536,7.6807819 13.750227,6.5571461 10.5,6.5571461 l 0,1.926054 -3.69258,-2.7924843 c 0,0 3.69258,-3.1243897 3.69258,-3.1243897 l 0,1.8440569 c 2.678814,-0.120611 5.477585,0.5510024 7.478441,2.5518583 3.676568,3.6765687 3.47004,9.5432587 0.07722,12.9360817 -2.147844,2.147843 -4.400824,2.725534 -6.445786,2.572342" opacity=".4"/><path id="path2557" fill="none" stroke="url(#linearGradient3410-460)" stroke-dasharray="none" stroke-linecap="butt" stroke-linejoin="round" stroke-miterlimit="4" stroke-opacity="1" stroke-width="1.005" d="M 11.348056,22.568281 C 8.6765819,22.734479 2.775107,20.279341 2.411248,14.233355 l 1.9533017,-0.06205 C 4.5369217,17.035451 8,19.842871 11.661181,19.998604"/><path id="path3347-1" fill="none" fill-opacity="1" fill-rule="nonzero" stroke="#6326b9" stroke-dasharray="none" stroke-dashoffset="0" stroke-linecap="butt" stroke-linejoin="round" stroke-miterlimit="4" stroke-opacity="1" stroke-width="1" d="m 10.336139,13.821288 a 1.1787115,1.1787115 0 0 0 2.357423,0 1.1787115,1.1787115 0 1 0 -2.357423,0 z" clip-rule="nonzero" color="#000" color-interpolation="sRGB" color-interpolation-filters="linearRGB" color-rendering="auto" display="inline" enable-background="accumulate" image-rendering="auto" opacity=".5" overflow="visible" shape-rendering="auto" text-rendering="auto" visibility="visible" style="isolation:auto;mix-blend-mode:normal;solid-color:#000;solid-opacity:1;marker:none;filter-blend-mode:normal;filter-gaussianBlur-deviation:0"/></svg>