<svg xmlns="http://www.w3.org/2000/svg" xmlns:svg="http://www.w3.org/2000/svg" id="svg6" width="24" height="24" version="1.1"><metadata id="metadata12"/><path clip-rule="nonzero" style="isolation:auto;mix-blend-mode:normal;solid-color:#000;solid-opacity:1;marker:none" id="rect3280" fill="#666" fill-opacity="1" fill-rule="nonzero" stroke="none" stroke-dasharray="none" stroke-dashoffset="0" stroke-linecap="butt" stroke-linejoin="miter" stroke-miterlimit="4" stroke-opacity="1" stroke-width="1" d="m 7.1875,5.0026092 c -0.243988,0.0069 -0.474752,0.112716 -0.65625,0.3125 l -1.25,1.375 c -0.362996,0.399568 -0.353579,1.027726 0.03125,1.40625 l 3.96875,3.9062498 -3.96875,3.90625 c -0.384829,0.378524 -0.394246,1.006682 -0.03125,1.40625 l 1.25,1.375 c 0.362996,0.399568 0.958921,0.409774 1.34375,0.03125 l 4.125,-4.0625 4.125,4.0625 c 0.384829,0.378524 0.980754,0.368318 1.34375,-0.03125 l 1.25,-1.375 c 0.362996,-0.399568 0.353579,-1.027726 -0.03125,-1.40625 l -3.96875,-3.90625 3.96875,-3.9062498 c 0.384829,-0.378524 0.394246,-1.006682 0.03125,-1.40625 l -1.25,-1.375 C 17.105754,4.9155411 16.509829,4.9053351 16.125,5.2838592 L 12,9.3463592 7.875,5.2838592 C 7.682586,5.0945972 7.431488,4.9957431 7.1875,5.0026092 Z" color="#000" color-interpolation="sRGB" color-interpolation-filters="linearRGB" color-rendering="auto" display="inline" enable-background="accumulate" image-rendering="auto" opacity="1" overflow="visible" shape-rendering="auto" text-rendering="auto" visibility="visible"/></svg>