<svg xmlns="http://www.w3.org/2000/svg" xmlns:svg="http://www.w3.org/2000/svg" xmlns:xlink="http://www.w3.org/1999/xlink" id="svg2" width="24" height="24" version="1.2"><defs id="defs4"><linearGradient id="linearGradient947"><stop id="stop943" offset="0" stop-color="#ed5353" stop-opacity="1"/><stop id="stop945" offset="1" stop-color="#c6262e" stop-opacity="1"/></linearGradient><linearGradient id="linearGradient4011"><stop id="stop4013" offset="0" stop-color="#fff" stop-opacity="1"/><stop id="stop4015-3" offset=".508" stop-color="#fff" stop-opacity=".235"/><stop id="stop4017-2" offset=".835" stop-color="#fff" stop-opacity=".157"/><stop id="stop4019" offset="1" stop-color="#fff" stop-opacity=".392"/></linearGradient><linearGradient id="linearGradient12398-3" x1="71.204" x2="71.204" y1="6.238" y2="44.341" gradientTransform="matrix(0.5135135,0,0,0.5135135,-24.83614,-1.0212801)" gradientUnits="userSpaceOnUse" xlink:href="#linearGradient4011"/><linearGradient id="linearGradient11527-6-5" x1="2035.165" x2="2035.165" y1="3208.074" y2="3241.997" gradientTransform="matrix(0.8047894,0,0,0.60165743,-1628.8199,-1928.0804)" gradientUnits="userSpaceOnUse" xlink:href="#linearGradient947"/><radialGradient id="radialGradient3108" cx="99.157" cy="186.171" r="62.769" fx="99.157" fy="186.171" gradientTransform="matrix(0.11151981,0,0,0.03548359,0.942029,15.166729)" gradientUnits="userSpaceOnUse" xlink:href="#linearGradient3820-7-2-2"/><linearGradient id="linearGradient3820-7-2-2"><stop id="stop3822-2-6-36" offset="0" stop-color="#3d3d3d" stop-opacity="1"/><stop id="stop3864-8-7-6" offset=".5" stop-color="#686868" stop-opacity=".498"/><stop id="stop3824-1-2-4" offset="1" stop-color="#686868" stop-opacity="0"/></linearGradient></defs><metadata id="metadata7"/><path id="path3818-0-2-5" fill="url(#radialGradient3108)" fill-opacity="1" stroke="none" d="m 19,21.772727 a 7,2.2272727 0 0 1 -14,0 7,2.2272727 0 1 1 14,0 z"/><path id="path2555-7-8-5-0-9" fill="url(#linearGradient11527-6-5)" fill-opacity="1" fill-rule="nonzero" stroke="none" stroke-width="1" d="M 12,1.4999999 C 6.2064599,1.4999999 1.4999999,6.2064599 1.4999999,12 1.4999999,17.79354 6.2064599,22.5 12,22.5 17.79354,22.5 22.50001,17.79354 22.5,12 22.5,6.2064599 17.79354,1.4999999 12,1.4999999 Z" color="#000" display="inline" enable-background="accumulate" opacity=".99" overflow="visible" visibility="visible" style="marker:none"/><path id="path2555-7-8-5-1" fill="none" stroke="#7a0000" stroke-dasharray="none" stroke-dashoffset="0" stroke-linecap="round" stroke-linejoin="round" stroke-miterlimit="4" stroke-opacity="1" stroke-width="1" d="M 12,1.4999999 C 6.2064599,1.4999999 1.4999999,6.2064599 1.4999999,12 1.4999999,17.79354 6.2064599,22.5 12,22.5 17.79354,22.5 22.50001,17.79354 22.5,12 22.5,6.2064599 17.79354,1.4999999 12,1.4999999 Z" color="#000" display="inline" enable-background="accumulate" opacity=".5" overflow="visible" visibility="visible" style="marker:none"/><path id="path8655-6-0-9-5-0" fill="none" stroke="url(#linearGradient12398-3)" stroke-dasharray="none" stroke-dashoffset="0" stroke-linecap="round" stroke-linejoin="round" stroke-miterlimit="4" stroke-opacity="1" stroke-width="1" d="m 21.49999,11.99966 c 0,5.24688 -4.25361,9.50034 -9.49988,9.50034 -5.2467501,0 -9.5001101,-4.25351 -9.5001101,-9.50034 0,-5.2466301 4.25336,-9.4996601 9.5001101,-9.4996601 5.24627,0 9.49988,4.25303 9.49988,9.4996601 z" color="#000" display="inline" enable-background="accumulate" opacity=".4" overflow="visible" visibility="visible" style="marker:none"/><path id="rect968-61-8" fill="#7a0000" fill-opacity="1" stroke="none" stroke-dasharray="none" stroke-dashoffset="0" stroke-linecap="butt" stroke-linejoin="miter" stroke-miterlimit="4" stroke-opacity="1" stroke-width=".84" d="m 8.4921875,7.5117188 c -0.5099126,0 -1.0208008,0.2024877 -1.4003906,0.5820312 -0.7633472,0.7632531 -0.763347,2.037528 0,2.800781 L 9.1992188,13 7.0917969,15.107422 c -0.7633467,0.763252 -0.7633452,2.037528 0,2.800781 0.7632439,0.763149 2.0375374,0.76315 2.8007812,0 L 12,15.798828 l 2.107422,2.109375 c 0.763243,0.763149 2.037538,0.763147 2.800781,0 0.763345,-0.763253 0.763347,-2.037529 0,-2.800781 L 14.800781,13 16.908203,10.894531 c 0.763347,-0.763253 0.763347,-2.037528 0,-2.800781 -0.763243,-0.7631473 -2.037538,-0.7631487 -2.800781,0 L 12,10.201172 9.8925781,8.09375 C 9.5129882,7.7142072 9.0021009,7.5117187 8.4921875,7.5117188 Z" opacity=".05" transform="matrix(1.003519,0,0,1.003519,-0.04223311,-0.04187536)" vector-effect="none" style="marker:none"/><path id="rect968-61" fill="#7a0000" fill-opacity="1" stroke="none" stroke-dasharray="none" stroke-dashoffset="0" stroke-linecap="butt" stroke-linejoin="miter" stroke-miterlimit="4" stroke-opacity="1" stroke-width=".843" d="m 8.4928881,8.5000003 c -0.2535911,0 -0.507107,0.098255 -0.7014215,0.2925458 -0.3886289,0.3885811 -0.3886289,1.0140886 0,1.4026699 l 2.8056854,2.805339 -2.8056854,2.805339 c -0.388629,0.388581 -0.388629,1.014088 0,1.40267 0.3886291,0.388581 1.0142138,0.388581 1.4028428,0 l 2.8056846,-2.80534 2.805686,2.80534 c 0.388629,0.388581 1.014213,0.388581 1.402843,0 0.388629,-0.388582 0.388629,-1.014089 0,-1.40267 l -2.805686,-2.805339 2.805686,-2.805339 c 0.388629,-0.3885813 0.388629,-1.0140888 0,-1.4026699 -0.38863,-0.388581 -1.014214,-0.388581 -1.402843,0 L 11.999994,11.597885 9.1943094,8.7925461 C 8.9999948,8.5982556 8.7464789,8.5000003 8.4928881,8.5000003 Z" opacity=".15" vector-effect="none" style="marker:none;font-variant-east_asian:normal"/><path id="rect968" fill="#fff" fill-opacity="1" stroke="none" stroke-dasharray="none" stroke-dashoffset="0" stroke-linecap="butt" stroke-linejoin="miter" stroke-miterlimit="4" stroke-opacity="1" stroke-width=".843" d="m 8.492888,7.4999999 c -0.253591,0 -0.5071069,0.098255 -0.7014214,0.2925458 -0.388629,0.3885811 -0.388629,1.0140886 0,1.4026697 l 2.8056854,2.8053396 -2.8056854,2.805339 c -0.388629,0.388581 -0.388629,1.014088 0,1.40267 0.388629,0.388581 1.0142137,0.388581 1.4028427,0 l 2.8056847,-2.80534 2.805686,2.80534 c 0.388629,0.388581 1.014213,0.388581 1.402843,0 0.388629,-0.388582 0.388629,-1.014089 0,-1.40267 l -2.805686,-2.805339 2.805686,-2.8053396 c 0.388629,-0.3885811 0.388629,-1.0140886 0,-1.4026697 -0.38863,-0.388581 -1.014214,-0.388581 -1.402843,0 L 11.999994,10.597885 9.1943093,7.7925457 C 8.9999948,7.5982552 8.7464789,7.4999999 8.492888,7.4999999 Z" opacity="1" vector-effect="none" style="marker:none"/></svg>