<svg xmlns="http://www.w3.org/2000/svg" xmlns:svg="http://www.w3.org/2000/svg" xmlns:xlink="http://www.w3.org/1999/xlink" id="svg2" width="24" height="24" version="1.2"><defs id="defs4"><linearGradient id="linearGradient4011-0-8-3"><stop id="stop4013-2-3-6" offset="0" stop-color="#fff" stop-opacity="1"/><stop id="stop4015-7-1-68" offset=".508" stop-color="#fff" stop-opacity=".235"/><stop id="stop4017-13-5-6" offset=".835" stop-color="#fff" stop-opacity=".157"/><stop id="stop4019-92-5-3" offset="1" stop-color="#fff" stop-opacity=".392"/></linearGradient><linearGradient id="linearGradient27416-1-5-3"><stop id="stop27420-2-2-90" offset="0" stop-color="#ec5555" stop-opacity="1"/><stop id="stop27422-3-2-9" offset="1" stop-color="#e63636" stop-opacity="1"/></linearGradient><linearGradient id="linearGradient12398" x1="71.204" x2="71.204" y1="6.238" y2="44.341" gradientTransform="matrix(0.5135135,0,0,0.5135135,-48.391696,5.0231645)" gradientUnits="userSpaceOnUse" xlink:href="#linearGradient4011-0-8-3"/><linearGradient id="linearGradient12402" x1="2035.165" x2="2035.165" y1="3208.074" y2="3241.997" gradientTransform="matrix(0.8047894,0,0,0.60165743,-1659.6643,-1925.1471)" gradientUnits="userSpaceOnUse" xlink:href="#linearGradient27416-1-5-3"/><linearGradient id="linearGradient12398-3" x1="71.204" x2="71.204" y1="6.238" y2="44.341" gradientTransform="matrix(0.5135135,0,0,0.5135135,-24.83614,-1.0212799)" gradientUnits="userSpaceOnUse" xlink:href="#linearGradient4011-0-8-3-5"/><linearGradient id="linearGradient4011-0-8-3-5"><stop id="stop4013-2-3-6-9" offset="0" stop-color="#fff" stop-opacity="1"/><stop id="stop4015-7-1-68-7" offset=".508" stop-color="#fff" stop-opacity=".235"/><stop id="stop4017-13-5-6-4" offset=".835" stop-color="#fff" stop-opacity=".157"/><stop id="stop4019-92-5-3-6" offset="1" stop-color="#fff" stop-opacity=".392"/></linearGradient><linearGradient id="linearGradient27416-1-5-4"><stop id="stop27420-2-2-3" offset="0" stop-color="#55c1ec" stop-opacity="1"/><stop id="stop27422-3-2-90" offset="1" stop-color="#3689e6" stop-opacity="1"/></linearGradient><linearGradient id="linearGradient11527-6-9" x1="2035.165" x2="2035.165" y1="3208.074" y2="3241.997" gradientTransform="matrix(0.8047894,0,0,0.60165743,-1628.8199,-1928.0804)" gradientUnits="userSpaceOnUse" xlink:href="#linearGradient27416-1-5-4"/><linearGradient id="linearGradient4624" x1="71.204" x2="71.204" y1="6.238" y2="44.341" gradientTransform="matrix(0.5135135,0,0,0.5135135,-24.836145,-1.0212799)" gradientUnits="userSpaceOnUse" xlink:href="#linearGradient4011-0-8-3-5"/><linearGradient id="linearGradient4630" x1="2035.165" x2="2035.165" y1="3208.074" y2="3241.997" gradientTransform="matrix(0.8047894,0,0,0.60165743,-1628.8199,-1928.0804)" gradientUnits="userSpaceOnUse" xlink:href="#linearGradient27416-1-5-4"/></defs><metadata id="metadata7"/><path id="path2555-7-8-5-0" fill="url(#linearGradient4630)" fill-opacity="1" fill-rule="nonzero" stroke="none" stroke-width="1" d="M 11.999995,1.5000001 C 6.2064549,1.5000001 1.4999949,6.2064601 1.4999949,12 c 0,5.79354 4.70646,10.5 10.5000001,10.5 5.79354,0 10.50001,-4.70646 10.5,-10.5 0,-5.7935399 -4.70646,-10.4999999 -10.5,-10.4999999 z" color="#000" display="inline" enable-background="accumulate" opacity=".99" overflow="visible" visibility="visible" style="marker:none"/><path id="path2555-7-8-5" fill="none" stroke="#005485" stroke-dasharray="none" stroke-dashoffset="0" stroke-linecap="round" stroke-linejoin="round" stroke-miterlimit="4" stroke-opacity="1" stroke-width="1" d="M 11.999995,1.5000001 C 6.2064549,1.5000001 1.4999949,6.2064601 1.4999949,12 c 0,5.79354 4.70646,10.5 10.5000001,10.5 5.79354,0 10.50001,-4.70646 10.5,-10.5 0,-5.7935399 -4.70646,-10.4999999 -10.5,-10.4999999 z" color="#000" display="inline" enable-background="accumulate" opacity=".5" overflow="visible" visibility="visible" style="marker:none"/><path id="path8655-6-0-9-5-4" fill="none" stroke="url(#linearGradient4624)" stroke-dasharray="none" stroke-dashoffset="0" stroke-linecap="round" stroke-linejoin="round" stroke-miterlimit="4" stroke-opacity="1" stroke-width="1" d="m 21.499985,11.99966 c 0,5.24688 -4.25361,9.50034 -9.49988,9.50034 -5.2467501,0 -9.5001101,-4.25351 -9.5001101,-9.50034 0,-5.2466299 4.25336,-9.4996599 9.5001101,-9.4996599 5.24627,0 9.49988,4.25303 9.49988,9.4996599 l 0,0 z" color="#000" display="inline" enable-background="accumulate" opacity=".5" overflow="visible" visibility="visible" style="marker:none"/><path d="m 15.98655,7.62453 2.01342,1.8120901 -6.76511,8.9395899 -5.23489,-4.51006 1.73154,-2.29531 3.0604,2.65772 5.19464,-6.60403 z" style="marker:none" id="path2922-6-6-0-9-4-2" fill="#69baee" fill-opacity=".992" fill-rule="nonzero" stroke="none" stroke-width=".843" color="#000" display="inline" enable-background="accumulate" overflow="visible" visibility="visible"/><path d="m 15.98655,6.62417 2.01342,1.8120901 -6.76511,8.9395899 -5.23489,-4.51006 1.73154,-2.29531 3.0604,2.65772 5.19464,-6.60403 z" style="marker:none" id="path2922-6-6-0-9-1" fill="#186baf" fill-opacity=".89" fill-rule="nonzero" stroke="none" stroke-width=".843" color="#000" display="inline" enable-background="accumulate" overflow="visible" visibility="visible"/></svg>