<svg xmlns="http://www.w3.org/2000/svg" xmlns:svg="http://www.w3.org/2000/svg" xmlns:xlink="http://www.w3.org/1999/xlink" id="svg2" width="24" height="24" version="1.2"><defs id="defs4"><linearGradient id="linearGradient6801-52"><stop id="stop6803-43" offset="0" stop-color="#fff" stop-opacity="1"/><stop id="stop6805-5" offset="1" stop-color="#fff" stop-opacity="0"/></linearGradient><linearGradient id="linearGradient5978" x1="223.511" x2="223.511" y1="1199.033" y2="1181.211" gradientUnits="userSpaceOnUse" xlink:href="#linearGradient6801-52"/><linearGradient id="linearGradient4011-0-8-22"><stop id="stop4013-2-3-3" offset="0" stop-color="#fff" stop-opacity="1"/><stop id="stop4015-7-1-6" offset=".508" stop-color="#fff" stop-opacity=".235"/><stop id="stop4017-13-5-7" offset=".835" stop-color="#fff" stop-opacity=".157"/><stop id="stop4019-92-5-5" offset="1" stop-color="#fff" stop-opacity=".392"/></linearGradient><linearGradient id="linearGradient6118" x1="71.204" x2="71.204" y1="6.238" y2="44.341" gradientTransform="matrix(0.5135135,0,0,0.5135135,115.16476,-1.0212803)" gradientUnits="userSpaceOnUse" xlink:href="#linearGradient4011-0-8-22"/></defs><metadata id="metadata7"/><path id="path2555-7-8-5-0-7" fill="#ccc" fill-opacity="1" fill-rule="nonzero" stroke="none" stroke-width="1" d="M 12,1.4999997 C 6.20646,1.4999997 1.5,6.20646 1.5,12 1.5,17.79354 6.20646,22.5 12,22.5 17.79354,22.5 22.50001,17.79354 22.5,12 22.5,6.20646 17.79354,1.4999997 12,1.4999997 z" color="#000" display="inline" enable-background="accumulate" opacity=".99" overflow="visible" visibility="visible" style="marker:none"/><path id="path2555-7-8-5-3" fill="none" stroke="#434343" stroke-dasharray="none" stroke-dashoffset="0" stroke-linecap="round" stroke-linejoin="round" stroke-miterlimit="4" stroke-opacity="1" stroke-width="1" d="M 12,1.4999997 C 6.20646,1.4999997 1.5,6.20646 1.5,12 1.5,17.79354 6.20646,22.5 12,22.5 17.79354,22.5 22.50001,17.79354 22.5,12 22.5,6.20646 17.79354,1.4999997 12,1.4999997 z" color="#000" display="inline" enable-background="accumulate" opacity=".3" overflow="visible" visibility="visible" style="marker:none"/><path id="path8655-6-0-9-6" fill="none" stroke="url(#linearGradient6118)" stroke-dasharray="none" stroke-dashoffset="0" stroke-linecap="round" stroke-linejoin="round" stroke-miterlimit="4" stroke-opacity="1" stroke-width="1" d="M 21.5,11.99966 C 21.5,17.24654 17.24639,21.5 12.00012,21.5 6.75337,21.5 2.5,17.24649 2.5,11.99966 2.5,6.75303 6.75337,2.4999997 12.00012,2.4999997 17.24639,2.4999997 21.5,6.75303 21.5,11.99966 l 0,0 z" color="#000" display="inline" enable-background="accumulate" opacity=".5" overflow="visible" visibility="visible" style="marker:none"/><path id="path2922-6-6-0-9-4-6" fill="#000" fill-opacity="1" fill-rule="nonzero" stroke="none" stroke-width="1" d="m 15.98656,7.62453 2.01342,1.81209 -6.76511,8.93959 -5.23489,-4.51006 1.73154,-2.29531 3.0604,2.65772 5.19464,-6.60403 z" color="#bebebe" display="inline" enable-background="accumulate" opacity=".2" overflow="visible" visibility="visible" style="marker:none"/><path d="m 15.98656,6.62417 2.01342,1.81209 -6.76511,8.93959 -5.23489,-4.51006 1.73154,-2.29531 3.0604,2.65772 5.19464,-6.60403 z" style="marker:none" id="path2922-6-6-0-9-2" fill="#fff" fill-opacity="1" fill-rule="nonzero" stroke="none" stroke-width="1" color="#bebebe" display="inline" enable-background="accumulate" overflow="visible" visibility="visible"/></svg>