<svg xmlns="http://www.w3.org/2000/svg" xmlns:svg="http://www.w3.org/2000/svg" xmlns:xlink="http://www.w3.org/1999/xlink" id="svg3277" width="24" height="24" version="1.1"><metadata id="metadata46"/><defs id="defs3279"><linearGradient id="linearGradient3153" x1="17.592" x2="17.592" y1="7" y2="-.025" gradientTransform="translate(-0.99999992,0.9994521)" gradientUnits="userSpaceOnUse" xlink:href="#linearGradient3251"/><linearGradient id="linearGradient3251"><stop id="stop3253" offset="0" stop-color="#917f6e" stop-opacity="1"/><stop id="stop3255" offset="1" stop-color="#cbbaa9" stop-opacity="1"/></linearGradient><linearGradient id="linearGradient3156" x1="40.007" x2="40.007" y1="12.911" y2="7.092" gradientTransform="translate(-25,-2.0005479)" gradientUnits="userSpaceOnUse" xlink:href="#linearGradient4222"/><linearGradient id="linearGradient4222"><stop id="stop4224" offset="0" stop-color="#fff" stop-opacity="1"/><stop id="stop4226" offset="1" stop-color="#fff" stop-opacity="0"/></linearGradient><linearGradient id="linearGradient3159" x1="38.382" x2="38.382" y1="5.906" y2="22.698" gradientTransform="translate(-25,-2.0005479)" gradientUnits="userSpaceOnUse" xlink:href="#linearGradient4222"/><linearGradient id="linearGradient3162" x1="39.906" x2="39.906" y1="6.123" y2="24.034" gradientTransform="translate(-25,-2.0005479)" gradientUnits="userSpaceOnUse" xlink:href="#linearGradient3243"/><linearGradient id="linearGradient3243"><stop id="stop3245" offset="0" stop-color="#fff4e9" stop-opacity="1"/><stop id="stop3247" offset="1" stop-color="#e7d6c5" stop-opacity="1"/></linearGradient><linearGradient id="linearGradient3164" x1="32.016" x2="32.016" y1="24.011" y2="5" gradientTransform="translate(-25,-2.0005479)" gradientUnits="userSpaceOnUse" xlink:href="#linearGradient3251"/><linearGradient id="linearGradient3283"><stop id="stop3285" offset="0" stop-color="#000" stop-opacity="1"/><stop id="stop3287" offset="1" stop-color="#000" stop-opacity="0"/></linearGradient><radialGradient id="radialGradient3275" cx="10.471" cy="20.147" r="9.215" fx="10.471" fy="20.147" gradientTransform="matrix(0.9767045,0,0,0.32556818,-1.2272721,12.440316)" gradientUnits="userSpaceOnUse" xlink:href="#linearGradient3283"/><radialGradient id="radialGradient3900-3" cx="65.297" cy="48.216" r="31" fx="65.297" fy="48.216" gradientTransform="matrix(0,0.52544994,-0.5716256,0,46.193389,-21.123812)" gradientUnits="userSpaceOnUse" xlink:href="#linearGradient3242-7-3-8-0-4-58-06"/><linearGradient id="linearGradient3242-7-3-8-0-4-58-06"><stop id="stop3244-5-8-5-6-4-3-8" offset="0" stop-color="#cdf87e" stop-opacity="1"/><stop id="stop3246-9-5-1-5-3-0-7" offset=".262" stop-color="#a2e34f" stop-opacity="1"/><stop id="stop3248-7-2-0-7-5-35-9" offset=".661" stop-color="#68b723" stop-opacity="1"/><stop id="stop3250-8-2-8-5-6-40-4" offset="1" stop-color="#1d7e0d" stop-opacity="1"/></linearGradient><linearGradient id="linearGradient3030-13" x1="24.139" x2="24.139" y1="10.631" y2="35.623" gradientTransform="matrix(0.2817955,0,0,0.2800956,12.196562,12.014885)" gradientUnits="userSpaceOnUse" xlink:href="#linearGradient4154-0"/><linearGradient id="linearGradient4154-0"><stop id="stop4156-1" offset="0" stop-color="#fff" stop-opacity="1"/><stop id="stop4158-6" offset="0" stop-color="#fff" stop-opacity=".235"/><stop id="stop4160-3" offset="1" stop-color="#fff" stop-opacity=".157"/><stop id="stop4162-9" offset="1" stop-color="#fff" stop-opacity=".392"/></linearGradient><linearGradient id="linearGradient3030-1" x1="24.139" x2="24.139" y1="21.342" y2="24.912" gradientTransform="matrix(0.2817955,0,0,0.2800956,12.178741,12.02218)" gradientUnits="userSpaceOnUse" xlink:href="#linearGradient4333"/><linearGradient id="linearGradient4333"><stop id="stop4335" offset="0" stop-color="#fff" stop-opacity="1"/><stop id="stop4337" offset="0" stop-color="#fff" stop-opacity=".235"/><stop id="stop4339" offset="1" stop-color="#fff" stop-opacity=".157"/><stop id="stop4341" offset="1" stop-color="#fff" stop-opacity=".392"/></linearGradient></defs><path id="path3281" fill="url(#radialGradient3275)" fill-opacity="1" fill-rule="evenodd" stroke="none" stroke-width="1" d="m 17.999999,18.999408 a 8.9999996,3.0000001 0 1 1 -17.99999885,0 8.9999996,3.0000001 0 1 1 17.99999885,0 z" display="inline" enable-background="accumulate" opacity=".3" overflow="visible" visibility="visible" style="marker:none"/><path id="path2463" fill="url(#linearGradient3162)" fill-opacity="1" fill-rule="evenodd" stroke="url(#linearGradient3164)" stroke-linecap="butt" stroke-linejoin="miter" stroke-opacity="1" stroke-width="1" d="m 11,3.499452 -9.4999999,9.84375 8.2500001,8.15625 9.7499998,-9.5 0,-8.5 -8.5,0 z m 4,3 c 0.828,0 1.5,0.672 1.5,1.5 0,0.828 -0.672,1.5 -1.5,1.5 -0.828,0 -1.5,-0.672 -1.5,-1.5 0,-0.828 0.672,-1.5 1.5,-1.5 z"/><path id="path3265" fill="none" stroke="url(#linearGradient3159)" stroke-linecap="butt" stroke-linejoin="miter" stroke-opacity="1" stroke-width="1" d="m 11.375,4.405702 c -2.8645828,2.96875 -5.7291668,5.9375 -8.5937498,8.90625 2.322917,2.291667 4.645833,4.583333 6.96875,6.875 2.9479168,-2.864583 5.8958328,-5.729167 8.8437498,-8.59375 0,-2.395833 0,-4.791667 0,-7.1875 -2.40625,0 -4.8125,0 -7.21875,0 z" opacity=".6"/><path id="path3294" fill="none" stroke="url(#linearGradient3156)" stroke-linecap="butt" stroke-linejoin="miter" stroke-opacity="1" stroke-width="1" d="m 15,5.593202 c 1.513288,-0.05335 2.761066,1.553793 2.330349,3.00682 C 17.01051,10.02584 15.254834,10.84754 13.957822,10.168016 12.622824,9.578328 12.157474,7.700929 13.072482,6.56077 13.516976,5.959282 14.251129,5.587409 15,5.593202 Z" opacity=".6"/><path id="path3298" fill="none" stroke="url(#linearGradient3153)" stroke-linecap="butt" stroke-linejoin="miter" stroke-opacity="1" stroke-width="1" d="m 15.5,7.499452 c 1.109018,-0.587219 2.554024,-0.767119 3.926872,-0.797739 0.617147,-0.01376 1.240944,0.1119 1.84653,-0.03214 C 22.044144,6.486243 22.569385,5.92156 22.492551,5.405324 22.38941,4.71236 21.458534,4.2008 20.58549,3.834725 19.811082,3.510009 19.215046,2.931373 18.900054,2.32011 18.740908,2.011277 19.01884,1.6869991 19.464647,1.58745 c 0.404996,-0.090436 0.829182,-0.1261828 1.241295,-0.034356 0.627242,0.1397617 1.367682,0.3102703 1.65947,0.75466"/><g id="g4474"><path id="path2262" fill="url(#radialGradient3900-3)" fill-opacity="1" fill-rule="nonzero" stroke="none" stroke-width=".985" d="m 16.482179,16.507295 0,-3 4,0 0,3 3,0 0,4 -3,0 0,2.999991 -4,0 0,-2.999991 -2.989465,0 0,-4 2.989465,0 z" color="#000" display="inline" enable-background="accumulate" overflow="visible" visibility="visible" style="marker:none"/><path id="path2272" fill="none" stroke="url(#linearGradient3030-13)" stroke-dasharray="none" stroke-linecap="butt" stroke-linejoin="miter" stroke-miterlimit="4" stroke-opacity="1" stroke-width="1" d="m 17.5,18.004404 0,-3.504404 2,0 0,3.5 m 0,1 0,3.5 -2,0 0,-3.5" display="inline" opacity=".5"/><path clip-rule="nonzero" style="isolation:auto;mix-blend-mode:normal;solid-color:#000;solid-opacity:1;marker:none" id="path2262-2" fill="none" fill-opacity="1" fill-rule="nonzero" stroke="#0f5a00" stroke-dasharray="none" stroke-dashoffset="0" stroke-linecap="round" stroke-linejoin="round" stroke-miterlimit="4" stroke-opacity="1" stroke-width="1" d="m 16.482179,16.507295 0,-3 4,0 0,3 3,0 0,4 -3,0 0,2.999991 -4,0 0,-2.999991 -2.989465,0 0,-4 2.989465,0 z" color="#000" color-interpolation="sRGB" color-interpolation-filters="linearRGB" color-rendering="auto" display="inline" enable-background="accumulate" image-rendering="auto" opacity=".5" overflow="visible" shape-rendering="auto" text-rendering="auto" visibility="visible"/><path id="path2272-2" fill="none" stroke="url(#linearGradient3030-1)" stroke-dasharray="none" stroke-linecap="butt" stroke-linejoin="miter" stroke-miterlimit="4" stroke-opacity="1" stroke-width="1" d="m 20,17.507295 2.482179,-0.0073 0,2 L 20,19.507295 m -3,0 -2.5,-0.0073 0,-2 2.5,0.0073" display="inline" opacity=".5"/></g></svg>