<svg xmlns="http://www.w3.org/2000/svg" xmlns:svg="http://www.w3.org/2000/svg" xmlns:xlink="http://www.w3.org/1999/xlink" id="svg29484" width="128" height="128" version="1.1"><defs id="defs29486"><linearGradient id="linearGradient5329-6" x1="97.539" x2="97.539" y1="16.962" y2="44.261" gradientTransform="matrix(2.6658408,0,0,2.1374512,-143.3107,-43.449953)" gradientUnits="userSpaceOnUse" xlink:href="#linearGradient8272-8"/><linearGradient id="linearGradient8272-8"><stop id="stop8274-8" offset="0" stop-color="#fff" stop-opacity="1"/><stop id="stop8276-4" offset=".022" stop-color="#fff" stop-opacity=".235"/><stop id="stop8278-5" offset=".979" stop-color="#fff" stop-opacity=".157"/><stop id="stop8280-5" offset="1" stop-color="#fff" stop-opacity=".392"/></linearGradient><linearGradient id="linearGradient6618" x1="22.935" x2="22.935" y1="49.629" y2="36.599" gradientTransform="matrix(3.036796,0,0,2.1389772,-8.88311,-41.084763)" gradientUnits="userSpaceOnUse" xlink:href="#linearGradient6129-963-697-142-998-580-273-0"/><linearGradient id="linearGradient6129-963-697-142-998-580-273-0"><stop id="stop2661-97" offset="0" stop-color="#0a0a0a" stop-opacity=".498"/><stop id="stop2663-3" offset="1" stop-color="#0a0a0a" stop-opacity="0"/></linearGradient><linearGradient id="linearGradient6563" x1="-91" x2="-91" y1="44" y2="119.06" gradientTransform="matrix(1,0,0,0.81333428,147,-44.693353)" gradientUnits="userSpaceOnUse" xlink:href="#linearGradient4632-0-6-4-6"/><linearGradient id="linearGradient4632-0-6-4-6"><stop id="stop4634-4-4-7-1" offset="0" stop-color="#b4cee1" stop-opacity="1"/><stop id="stop4636-3-1-5-7" offset="1" stop-color="#5d9fcd" stop-opacity="1"/></linearGradient><linearGradient id="linearGradient22546" x1="302.857" x2="302.857" y1="366.648" y2="609.505" gradientTransform="matrix(0.2134205,0,0,0.06641689,-13.147881,75.518568)" gradientUnits="userSpaceOnUse" xlink:href="#linearGradient5048-585"/><linearGradient id="linearGradient5048-585"><stop id="stop2667" offset="0" stop-color="#000" stop-opacity="0"/><stop id="stop2669" offset=".5" stop-color="#000" stop-opacity="1"/><stop id="stop2671" offset="1" stop-color="#000" stop-opacity="0"/></linearGradient><radialGradient id="radialGradient22548" cx="605.714" cy="486.648" r="117.143" fx="605.714" fy="486.648" gradientTransform="matrix(0.08277507,0,0,0.06641689,65.628912,75.518568)" gradientUnits="userSpaceOnUse" xlink:href="#linearGradient5060-179"/><linearGradient id="linearGradient5060-179"><stop id="stop2675" offset="0" stop-color="#000" stop-opacity="1"/><stop id="stop2677" offset="1" stop-color="#000" stop-opacity="0"/></linearGradient><radialGradient id="radialGradient22550" cx="605.714" cy="486.648" r="117.143" fx="605.714" fy="486.648" gradientTransform="matrix(-0.08277505,0,0,0.06641689,62.347829,75.518568)" gradientUnits="userSpaceOnUse" xlink:href="#linearGradient5060-820"/><linearGradient id="linearGradient5060-820"><stop id="stop2681" offset="0" stop-color="#000" stop-opacity="1"/><stop id="stop2683" offset="1" stop-color="#000" stop-opacity="0"/></linearGradient><linearGradient id="linearGradient6755" x1="97.539" x2="97.539" y1="8.81" y2="44.261" gradientTransform="matrix(2.6658408,0,0,2.6469079,-143.33282,-66.018043)" gradientUnits="userSpaceOnUse" xlink:href="#linearGradient9235-78"/><linearGradient id="linearGradient9235-78"><stop id="stop9237-3" offset="0" stop-color="#fff" stop-opacity="1"/><stop id="stop9239-23" offset=".109" stop-color="#fff" stop-opacity=".235"/><stop id="stop9241-6" offset=".979" stop-color="#fff" stop-opacity=".157"/><stop id="stop9243-0" offset="1" stop-color="#fff" stop-opacity=".392"/></linearGradient><linearGradient id="linearGradient6758" x1="-51.786" x2="-51.786" y1="53.514" y2="3.634" gradientTransform="matrix(2.1683519,0,0,2.2464645,141.94852,-68.559003)" gradientUnits="userSpaceOnUse" xlink:href="#linearGradient3104-8-8-97-4-6-11-5-5-1-0-4"/><linearGradient id="linearGradient3104-8-8-97-4-6-11-5-5-1-0-4"><stop id="stop3106-5-4-3-5-0-2-1-0-1-2-9" offset="0" stop-color="#000" stop-opacity=".322"/><stop id="stop3108-4-3-7-8-2-0-7-9-4-9-1" offset="1" stop-color="#000" stop-opacity=".278"/></linearGradient><linearGradient id="linearGradient4646-6-1-3-5-8-8-7"><stop id="stop4648-2-1-9-37-1-22-2" offset="0" stop-color="#f9f9f9" stop-opacity="1"/><stop id="stop4650-3-28-6-7-5-9-4" offset="1" stop-color="#d8d8d8" stop-opacity="1"/></linearGradient><linearGradient id="linearGradient29482" x1="63.412" x2="63.412" y1="19.664" y2="21.216" gradientTransform="matrix(2.7619048,0,0,2.7619048,-142.97955,-67.794273)" gradientUnits="userSpaceOnUse" xlink:href="#linearGradient4646-6-1-3-5-8-8-7"/></defs><metadata id="metadata29489"/><g id="layer1" transform="translate(0,64)"><path d="m 13.00002,-42.937123 c -1.108,0 -2,0.892 -2,2 l 0,5.96875 -3,0 c -1.108,0 -2,0.892 -2,2 l 0,30.9999999 116,0 0,-30.9999999 c 0,-1.108 -0.892,-2 -2,-2 l -62.999999,0 0,-5.96875 c 0,-1.108 -0.892,-2 -2,-2 z" style="marker:none" id="rect8678-4-5" fill="url(#linearGradient29482)" fill-opacity="1" fill-rule="nonzero" stroke="none" stroke-width="1" color="#000" display="inline" enable-background="accumulate" overflow="visible" visibility="visible"/><path id="path3468-0" fill="none" stroke="url(#linearGradient6758)" stroke-dasharray="none" stroke-dashoffset="0" stroke-linecap="butt" stroke-linejoin="miter" stroke-miterlimit="4" stroke-opacity="1" stroke-width="1" d="m 13.66281,-43.468213 c -1.87818,0.0205 -3.16279,0.9143 -3.16279,2.67225 l 0,5.32743 c -0.9606,0 -1.4771,-0.003 -2.1044,0 -1.67856,0.008 -2.87762,0.94491 -2.87762,2.83298 C 5.6116,-5.1379031 5.5,-1.3790031 5.5,-1.3790031 l 117,3.01244 0,-34.2968299 c 0,-1.75796 -1.15786,-2.82564 -3.03605,-2.80514 l -61.963949,0 0,-5.19887 c 0,-1.75795 -1.18743,-2.80081 -2.94827,-2.80081 l -40.888941,0 z" color="#000" display="inline" enable-background="accumulate" opacity=".8" overflow="visible" visibility="visible" style="marker:none"/><path id="rect8678-8" fill="none" stroke="url(#linearGradient6755)" stroke-dasharray="none" stroke-dashoffset="0" stroke-linecap="round" stroke-linejoin="round" stroke-miterlimit="4" stroke-opacity="1" stroke-width="1" d="m 13.50002,-42.468373 c -1.108,0 -2,0.892 -2,2 l 0,6 -3,0 c -1.108,0 -2,0.892 -2,2 l 0,32.99999988 115,0 0,-32.99999988 c 0,-1.108 -0.892,-2 -2,-2 l -62.999999,0 0,-6 c 0,-1.108 -0.892,-2 -2,-2 z" color="#000" display="inline" enable-background="accumulate" overflow="visible" visibility="visible" style="marker:none"/><g id="use6273" transform="matrix(1.0027339,0,0,0.9919518,-0.16331,-57.066403)"><rect id="rect22540" width="103.052" height="16.13" x="12.463" y="99.87" fill="url(#linearGradient22546)" fill-opacity="1" fill-rule="nonzero" stroke="none" stroke-width="1" display="inline" opacity=".3" overflow="visible" visibility="visible" style="marker:none"/><path id="path22542" fill="url(#radialGradient22548)" fill-opacity="1" fill-rule="nonzero" stroke="none" stroke-width="1" d="m 115.51417,99.870734 c 0,0 0,16.128926 0,16.128926 4.26271,0.0304 10.30516,-3.61367 10.30516,-8.0655 0,-4.45183 -4.75687,-8.063426 -10.30516,-8.063426 z" display="inline" opacity=".3" overflow="visible" visibility="visible" style="marker:none"/><path id="path22544" fill="url(#radialGradient22550)" fill-opacity="1" fill-rule="nonzero" stroke="none" stroke-width="1" d="m 12.462574,99.870734 c 0,0 0,16.128926 0,16.128926 -4.2627113,0.0304 -10.3051588,-3.61367 -10.3051588,-8.0655 0,-4.45183 4.7568636,-8.063426 10.3051588,-8.063426 z" display="inline" opacity=".3" overflow="visible" visibility="visible" style="marker:none"/></g><path id="path3369-8" fill="url(#linearGradient6563)" fill-opacity="1" fill-rule="nonzero" stroke="none" stroke-width="1" d="m 4.25,-8.5001031 119.49999,7.9e-4 c 1.66861,10e-6 2.75001,0.93777 2.75001,2.10365 l -4.71648,56.8652401 c 0.0386,1.47518 -0.55015,2.06009 -2.48884,2.02916 l -109.93304,-0.037 c -1.66859,0 -3.35116,-0.8706 -3.35116,-2.03648 L 1.5,-6.3956331 c 0,-1.16588 1.0814,-2.10448 2.75,-2.10447 z" display="inline" enable-background="accumulate" overflow="visible" visibility="visible" style="marker:none"/><path id="path6127-4" fill="url(#linearGradient6618)" fill-opacity="1" stroke="none" d="m 3.77272,-9.0001031 120.45454,8e-4 c 1.6824,1e-5 2.77274,0.95314 2.77274,2.13815 l -4.73893,57.7974601 c 0.0389,1.49936 -0.5547,2.09386 -2.50941,2.06241 L 8.91008,52.961017 c -1.68238,0 -3.37885,-0.88488 -3.37885,-2.06988 L 1,-6.8611231 c 0,-1.185 1.09034,-2.13899 2.77272,-2.13898 z" opacity=".4"/><path id="path8263-18" fill="none" stroke="url(#linearGradient5329-6)" stroke-dasharray="none" stroke-dashoffset="0" stroke-linecap="round" stroke-linejoin="round" stroke-miterlimit="4" stroke-opacity="1" stroke-width="1" d="M 2.5431,-5.1694431 6.99089,50.212897 c 0.14298,1.22333 2.02311,1.23847 2.74562,1.23847 0,0 74.362991,0.0324 109.59813,0.0485 2.566,-0.13004 1.15721,-3.00352 1.65357,-4.44903 0.85465,-17.754671 4.54292,-53.1561301 4.54292,-53.1561301 0,-0.91417 -0.77992,-1.39484 -2.20738,-1.39484 l -119.05161,0 c -1.72365,0 -1.84508,0.94578 -1.72904,2.33069 z" display="inline" enable-background="accumulate" opacity=".5" overflow="visible" visibility="visible" style="marker:none"/><path id="path3369-8-9" fill="none" stroke="#000" stroke-dasharray="none" stroke-dashoffset="0" stroke-linecap="round" stroke-linejoin="round" stroke-miterlimit="4" stroke-opacity="1" stroke-width="1" d="m 4.25,-8.5001031 119.49999,7.9e-4 c 1.66861,10e-6 2.75001,0.93777 2.75001,2.10365 l -4.71648,56.8652401 c 0.0386,1.47518 -0.55015,2.06009 -2.48884,2.02916 l -109.93304,-0.037 c -1.66859,0 -3.35116,-0.8706 -3.35116,-2.03648 L 1.5,-6.3956331 c 0,-1.16588 1.0814,-2.10448 2.75,-2.10447 z" display="inline" enable-background="accumulate" opacity=".3" overflow="visible" visibility="visible" style="marker:none"/></g></svg>