<svg xmlns="http://www.w3.org/2000/svg" xmlns:svg="http://www.w3.org/2000/svg" id="svg6" width="16" height="16" version="1.1"><metadata id="metadata12"/><path id="rect986-3" fill="#68b723" fill-opacity="1" stroke="none" stroke-dasharray="none" stroke-dashoffset="0" stroke-linecap="square" stroke-linejoin="miter" stroke-miterlimit="4" stroke-opacity="1" stroke-width=".992" d="M 8 1.0039062 A 4 4 0 0 0 4 5.0039062 L 4 7.0039062 L 3 7.0039062 L 3 8.5058594 L 3 11.003906 L 3 12.503906 C 3 13.334906 3.669 14.003906 4.5 14.003906 L 11.5 14.003906 C 12.331 14.003906 13 13.334906 13 12.503906 L 13 11.003906 L 13 8.5058594 L 13 7.0039062 L 12 7.0039062 L 12 5.0039062 A 4 4 0 0 0 8 1.0039062 z M 8 2.0039062 A 3 3 0 0 1 11 5.0039062 L 11 7.0039062 L 10 7.0039062 L 10 5.0039062 A 2 2 0 0 0 8 3.0039062 A 2 2 0 0 0 6 5.0039062 L 6 7.0039062 L 5 7.0039062 L 5 5.0039062 A 3 3 0 0 1 8 2.0039062 z M 8 4.0039062 A 1 1 0 0 1 9 5.0039062 L 9 7.0039062 L 7 7.0039062 L 7 5.0039062 A 1 1 0 0 1 8 4.0039062 z M 4 8.0039062 L 12 8.0039062 L 12 9.7539062 L 12 11.003906 L 12 12.253906 C 12 12.669406 11.6655 13.003906 11.25 13.003906 L 4.75 13.003906 C 4.3345 13.003906 4 12.669406 4 12.253906 L 4 11.003906 L 4 9.7539062 L 4 8.0039062 z" class="success" opacity="1" vector-effect="none"/><path id="rect871-6-6" fill="#68b723" fill-opacity="1" stroke="none" stroke-dasharray="none" stroke-dashoffset="0" stroke-linecap="square" stroke-linejoin="miter" stroke-miterlimit="4" stroke-opacity="1" stroke-width=".992" d="M 4 8.0039062 L 4 9.7539062 L 4 11.003906 L 4 12.253906 C 4 12.669406 4.3345 13.003906 4.75 13.003906 L 11.25 13.003906 C 11.6655 13.003906 12 12.669406 12 12.253906 L 12 11.003906 L 12 9.7539062 L 12 8.0039062 L 4 8.0039062 z" class="success" opacity=".5" vector-effect="none" style="font-variant-east_asian:normal"/></svg>