<svg xmlns="http://www.w3.org/2000/svg" xmlns:svg="http://www.w3.org/2000/svg" id="svg6" width="16.002" height="16.002" version="1.1"><metadata id="metadata12"/><path id="path829" fill="#f9c440" d="M 7.9628906 0 A 1.499 1.499 0 0 0 6.6855469 0.78515625 L 0.18359375 12.785156 C -0.35840625 13.785156 0.364 15.001953 1.5 15.001953 L 14.5 15.001953 C 15.636 15.001953 16.358406 13.786156 15.816406 12.785156 L 9.3183594 0.78515625 A 1.496 1.496 0 0 0 7.9628906 0 z M 7.0019531 4.0019531 L 9.0019531 4.0019531 L 9.0019531 8.0019531 L 8.5019531 10.001953 L 7.5019531 10.001953 L 7.0019531 8.0019531 L 7.0019531 4.0019531 z M 8.0019531 11.001953 A 1 1 0 0 1 8.0019531 13.001953 A 1 1 0 0 1 8.0019531 11.001953 z" class="warning" color="#000" font-family="sans-serif" font-weight="400" overflow="visible" text-decoration="none" style="line-height:normal;font-variant-ligatures:normal;font-variant-position:normal;font-variant-caps:normal;font-variant-numeric:normal;font-variant-alternates:normal;font-feature-settings:normal;text-indent:0;text-align:start;text-decoration-line:none;text-decoration-style:solid;text-decoration-color:#000;text-transform:none;text-orientation:mixed;white-space:normal;shape-padding:0;isolation:auto;mix-blend-mode:normal"/></svg>