<svg xmlns="http://www.w3.org/2000/svg" width="16" height="16"><g transform="translate(-393 291)"><path fill="#666" d="M406-290a2 2 0 1 0 0 4 2 2 0 0 0 0-4zm0 1a1 1 0 1 1 0 2 1 1 0 0 1 0-2z" color="#000" opacity=".5" overflow="visible" style="marker:none"/><path fill="#666" d="M398-290c-1.108 0-2 .892-2 2v6c0 1.108.892 2 2 2s2-.892 2-2v-6c0-1.108-.892-2-2-2zm-5 5v1h1v2a3.981 3.981 0 0 0 3 3.861V-276h-1v1h4v-1h-1v-2.139a3.981 3.981 0 0 0 3-3.861v-2h1v-1h-2v3c0 1.662-1.338 3-3 3s-3-1.338-3-3v-3z" color="#bebebe" overflow="visible" style="isolation:auto;mix-blend-mode:normal;marker:none"/><ellipse cx="406" cy="-278" fill="#666" color="#000" overflow="visible" rx="2" ry="2" style="marker:none"/><ellipse cx="406" cy="-283" fill="#666" color="#000" overflow="visible" rx="2" ry="2" style="marker:none"/></g></svg>