<svg xmlns="http://www.w3.org/2000/svg" width="16" height="16"><g><path fill="#666" d="M426.5-232c-.277 0-.5.223-.5.5v6.5h2v-6.5c0-.277-.223-.5-.5-.5zm-4 3c-.277 0-.5.223-.5.5v8c0 .277.223.5.5.5h.5v-5h1v-3.5c0-.277-.223-.5-.5-.5zm-4 3c-.277 0-.5.223-.5.5v5c0 .277.223.5.5.5h1c.277 0 .5-.223.5-.5v-5c0-.277-.223-.5-.5-.5zm-4 3c-.277 0-.5.223-.5.5v2c0 .277.223.5.5.5h1c.277 0 .5-.223.5-.5v-2c0-.277-.223-.5-.5-.5z" opacity=".35" transform="translate(-413 235)"/><path fill="#666" d="M424-224h1.375l1.125 1.094 1.094-1.094H429v1.469l-1.093 1.062 1.093 1.063V-219h-1.437l-1.063-1.063-1.062 1.063H424v-1.406l1.063-1.063L424-222.53z" color="#bebebe" overflow="visible" transform="translate(-413 235)" style="marker:none"/></g></svg>