<svg xmlns="http://www.w3.org/2000/svg" width="16" height="16"><g><path fill="#666" d="M464-300h1.375l1.125 1.094 1.094-1.094H469v1.469l-1.093 1.062 1.093 1.063V-295h-1.437l-1.063-1.063-1.062 1.063H464v-1.406l1.063-1.063L464-298.53z" color="#bebebe" overflow="visible" transform="translate(-453 311)" style="marker:none"/><path fill="#666" d="M458-308v4h2v1h-6v1h3v1h-2v4h5v-4h-2v-1h5v1h1v-1h3v-1h-6v-1h2v-4zm5 7h-2v4h2v-1h-1v-2h1zm-4-6h3v2h-3zm-3 7h3v2h-3z" color="#000" opacity=".35" overflow="visible" transform="translate(-453 311)" style="marker:none"/></g></svg>