<svg xmlns="http://www.w3.org/2000/svg" width="16" height="16"><g transform="translate(-773 195)"><rect style="marker:none" width="1" height="5" x="780.5" y="-195" fill="#666" color="#000" overflow="visible" rx=".5" ry=".5"/><rect width="1" height="5" x="186.5" y="773" fill="#666" color="#000" opacity=".578" style="marker:none" overflow="visible" rx=".5" ry=".5" transform="rotate(-90)"/><rect width="1" height="5" x="-781.5" y="179" fill="#666" color="#000" opacity=".335" style="marker:none" overflow="visible" rx=".5" ry=".5" transform="scale(-1)"/><rect width="1" height="5" x="-187.5" y="-789" fill="#666" color="#000" opacity=".19" style="marker:none" overflow="visible" rx=".5" ry=".5" transform="rotate(90)"/><rect width="1" height="5" x="769.366" y="220.553" fill="#666" color="#000" opacity=".833" style="marker:none" overflow="visible" rx=".5" ry=".5" transform="rotate(-30)"/><rect width="1" height="5" x="551.947" y="574.866" fill="#666" color="#000" opacity=".694" style="marker:none" overflow="visible" rx=".5" ry=".5" transform="rotate(-60)"/><rect width="1" height="5" x="-229.053" y="761.866" fill="#666" color="#000" opacity=".482" style="marker:none" overflow="visible" rx=".5" ry=".5" transform="rotate(-120)"/><rect width="1" height="5" x="-583.366" y="544.447" fill="#666" color="#000" opacity=".402" style="marker:none" overflow="visible" rx=".5" ry=".5" transform="rotate(-150)"/><rect width="1" height="5" x="-770.366" y="-236.553" fill="#666" color="#000" opacity=".28" style="marker:none" overflow="visible" rx=".5" ry=".5" transform="rotate(150)"/><rect width="1" height="5" x="-552.947" y="-590.866" fill="#666" color="#000" opacity=".23" style="marker:none" overflow="visible" rx=".5" ry=".5" transform="rotate(120)"/><rect width="1" height="5" x="228.053" y="-777.866" fill="#666" color="#000" opacity=".16" style="marker:none" overflow="visible" rx=".5" ry=".5" transform="rotate(60)"/><rect width="1" height="5" x="582.366" y="-560.447" fill="#666" color="#000" opacity=".13" style="marker:none" overflow="visible" rx=".5" ry=".5" transform="rotate(30)"/></g></svg>