<svg xmlns="http://www.w3.org/2000/svg" width="16" height="16"><g><path fill="#666" d="M940.982-129.938c-3.857 0-7 3.143-7 7 0 3.858 3.143 7 7 7 3.858 0 7-3.142 7-7 0-3.857-3.142-7-7-7zm0 .99a6.005 6.005 0 0 1 6.008 6.01 6.005 6.005 0 0 1-6.008 6.01 6.007 6.007 0 0 1-6.01-6.01 6.007 6.007 0 0 1 6.01-6.01z" color="#bebebe" font-family="Andale Mono" font-weight="400" overflow="visible" transform="translate(-933 131)" white-space="normal" style="line-height:normal;font-variant-ligatures:normal;font-variant-position:normal;font-variant-caps:normal;font-variant-numeric:normal;font-variant-alternates:normal;font-feature-settings:normal;text-indent:0;text-align:start;text-decoration-line:none;text-decoration-style:solid;text-decoration-color:#000;text-transform:none;text-orientation:mixed;shape-padding:0;isolation:auto;mix-blend-mode:normal;marker:none"/><path fill="#666" d="M936.898-123.947v2H945.028v-2h-7.13z" color="#000" font-family="sans-serif" font-weight="400" overflow="visible" transform="translate(-933 131)" white-space="normal" style="line-height:normal;font-variant-ligatures:normal;font-variant-position:normal;font-variant-caps:normal;font-variant-numeric:normal;font-variant-alternates:normal;font-feature-settings:normal;text-indent:0;text-align:start;text-decoration-line:none;text-decoration-style:solid;text-decoration-color:#000;text-transform:none;text-orientation:mixed;shape-padding:0;isolation:auto;mix-blend-mode:normal;marker:none"/></g></svg>