<svg xmlns="http://www.w3.org/2000/svg" width="16" height="16"><g color="#bebebe"><path fill="#666" d="M398-89c-2.77 0-5 2.23-5 5s2.23 5 5 5h3.344L404-76v-3c2.77 0 5-2.23 5-5s-2.23-5-5-5zm0 3h6c1.108 0 2 .892 2 2s-.892 2-2 2h-6c-1.108 0-2-.892-2-2s.892-2 2-2z" opacity=".35" overflow="visible" transform="translate(-393 91)" style="marker:none"/><path fill="#666" d="M398-85a1 1 0 1 0 0 2 1 1 0 0 0 0-2zm3 0a1 1 0 1 0 0 2 1 1 0 0 0 0-2zm3 0a1 1 0 1 0 0 2 1 1 0 0 0 0-2z" overflow="visible" transform="translate(-393 91)" style="marker:none"/></g></svg>