<svg xmlns="http://www.w3.org/2000/svg" width="16" height="16.001"><g><path fill="#f9c440" fill-rule="evenodd" d="M438.5-181l-.5 3.001h2l-1 3 5-4h-2l.666-2.001z" class="warning" transform="translate(-433 191)"/><path fill="#666" fill-rule="evenodd" d="M441-190.002c-1.608 0-3.03.965-3.656 2.398l-.023.05a4.013 4.013 0 0 0-.207.634c-.2-.052-.407-.08-.614-.08-.135 0-.27.014-.404.037A2.5 2.5 0 0 0 434-184.5a2.5 2.5 0 0 0 2.5 2.5h9.5a2 2 0 1 0 0-4h-1a4.006 4.006 0 0 0-.082-.797h.002a4 4 0 0 0-3.92-3.201z" color="#000" overflow="visible" transform="translate(-433 191)" style="isolation:auto;mix-blend-mode:normal"/></g></svg>