<svg xmlns="http://www.w3.org/2000/svg" xmlns:svg="http://www.w3.org/2000/svg" xmlns:xlink="http://www.w3.org/1999/xlink" id="svg6436" width="24" height="24" version="1.1"><defs id="defs6438"><linearGradient id="linearGradient5747"><stop id="stop5749" offset="0" stop-color="#000" stop-opacity="1"/><stop id="stop5751" offset="1" stop-color="#000" stop-opacity="0"/></linearGradient><radialGradient id="radialGradient4358-2" cx="4.993" cy="43.5" r="2.5" gradientTransform="matrix(1.2022704,0,0,0.59999988,14.99287,-4.59993)" gradientUnits="userSpaceOnUse" xlink:href="#linearGradient5747"/><radialGradient id="radialGradient4360-3" cx="4.993" cy="43.5" r="2.5" gradientTransform="matrix(1.2022704,0,0,0.59999988,-9.00712,-47.60006)" gradientUnits="userSpaceOnUse" xlink:href="#linearGradient5747"/><linearGradient id="linearGradient4362-5" x1="25.058" x2="25.058" y1="43.528" y2="39.999" gradientTransform="matrix(0.6428571,0,0,0.42857134,-3.42854,2.85721)" gradientUnits="userSpaceOnUse" spreadMethod="reflect" xlink:href="#linearGradient5747"/><linearGradient id="linearGradient3924-0"><stop id="stop3926-6" offset="0" stop-color="#fff" stop-opacity="1"/><stop id="stop3928-3" offset="0" stop-color="#fff" stop-opacity=".235"/><stop id="stop3930-2" offset="1" stop-color="#fff" stop-opacity=".157"/><stop id="stop3932-62" offset="1" stop-color="#fff" stop-opacity=".392"/></linearGradient><linearGradient id="linearGradient2867-449-88-871-390-598-476-591-434-148-57-177-8-3-3-6-4-8-8-8-5"><stop id="stop3750-1-0-7-6-6-1-3-9-3" offset="0" stop-color="#505050" stop-opacity="1"/><stop id="stop3752-3-7-4-0-32-8-923-0-7" offset=".262" stop-color="#2b2b2b" stop-opacity="1"/><stop id="stop3754-1-8-5-2-7-6-7-1-9" offset=".705" stop-color="#0a0a0a" stop-opacity="1"/><stop id="stop3756-1-6-2-6-6-1-96-6-0" offset="1" stop-color="#000" stop-opacity="1"/></linearGradient><linearGradient id="linearGradient3030" x1="40.104" x2="40.104" y1="6.588" y2="41.318" gradientTransform="matrix(0.51351353,0,0,0.45945948,-0.3243235,0.97297965)" gradientUnits="userSpaceOnUse" xlink:href="#linearGradient3924-0"/><radialGradient id="radialGradient3033" cx="7.118" cy="9.957" r="12.672" fx="7.118" fy="9.957" gradientTransform="matrix(0,4.4529398,-6.042239,0,72.610721,-38.124694)" gradientUnits="userSpaceOnUse" xlink:href="#linearGradient2867-449-88-871-390-598-476-591-434-148-57-177-8-3-3-6-4-8-8-8-5"/><linearGradient id="linearGradient3680-6-6-6-3-7-4-4"><stop id="stop3682-4-6-1-3-7-5-0" offset="0" stop-color="#dcdcdc" stop-opacity="1"/><stop id="stop3684-8-5-8-0-2-3-6" offset="1" stop-color="#fff" stop-opacity="1"/></linearGradient><linearGradient id="linearGradient3024-0-6" x1="54.596" x2="54.596" y1="42.035" y2="9.693" gradientTransform="matrix(0.47979418,0,0,0.4841879,-18.216054,0.9482907)" gradientUnits="userSpaceOnUse" xlink:href="#linearGradient3680-6-6-6-3-7-4-4"/></defs><metadata id="metadata6441"/><g id="g4325" transform="translate(0,-0.10006294)"><rect id="rect2801-0" width="3" height="3" x="21" y="20" fill="url(#radialGradient4358-2)" fill-opacity="1" opacity=".4"/><rect id="rect3696-08" width="3" height="3" x="-3" y="-23" fill="url(#radialGradient4360-3)" fill-opacity="1" opacity=".4" transform="scale(-1,-1)"/><rect id="rect3700-96" width="18" height="3" x="3" y="20" fill="url(#linearGradient4362-5)" fill-opacity="1" opacity=".4"/></g><rect id="rect5505-21" width="21" height="19" x="1.5" y="2.5" fill="url(#radialGradient3033)" fill-opacity="1" fill-rule="nonzero" stroke="none" stroke-width="1" color="#000" display="inline" enable-background="accumulate" opacity=".9" overflow="visible" rx="1" ry="1" visibility="visible" style="marker:none"/><rect id="rect5505-6" width="21" height="19" x="1.5" y="2.5" fill="none" stroke="#000" stroke-dasharray="none" stroke-dashoffset="0" stroke-linecap="round" stroke-linejoin="round" stroke-miterlimit="4" stroke-opacity="1" stroke-width="1" color="#000" display="inline" enable-background="accumulate" opacity=".7" overflow="visible" rx="1" ry="1" visibility="visible" style="marker:none"/><rect id="rect6741-7-4" width="19" height="17" x="2.5" y="3.5" fill="none" stroke="url(#linearGradient3030)" stroke-dasharray="none" stroke-dashoffset="0" stroke-linecap="round" stroke-linejoin="round" stroke-miterlimit="4" stroke-opacity="1" stroke-width="1" opacity=".3"/><path id="rect4062-3-6-1" fill="#000" fill-opacity="1" fill-rule="nonzero" stroke="none" stroke-dasharray="none" stroke-dashoffset="0" stroke-linecap="butt" stroke-linejoin="miter" stroke-miterlimit="4" stroke-opacity="1" stroke-width="1" d="M 7.4589844,4.5 A 1.0001,1.0001 0 0 0 6.6816406,4.9257812 l -1.75,2.5 A 1.0001,1.0001 0 0 0 5.75,9 H 6 v 4.75 A 1.0001,1.0001 0 0 0 4.4257812,12.931641 l -2.5,1.75 a 1.0001,1.0001 0 0 0 0,1.636718 l 2.5,1.75 a 1.0001,1.0001 0 0 0 0.3496094,0.15625 1.0001,1.0001 0 0 0 0.15625,0.34961 l 1.75,2.5 a 1.0001,1.0001 0 0 0 1.6367188,0 l 1.7499996,-2.5 A 1.0001,1.0001 0 0 0 9.25,17 H 17 v 0.25 a 1.0001,1.0001 0 0 0 1.574219,0.818359 l 2.5,-1.75 a 1.0001,1.0001 0 0 0 0,-1.636718 l -2.5,-1.75 A 1.0001,1.0001 0 0 0 17,13.75 V 14 H 9 V 9 h 0.25 a 1.0001,1.0001 0 0 0 0.818359,-1.5742188 l -1.7499996,-2.5 A 1.0001,1.0001 0 0 0 7.4589844,4.5 Z" color="#000" display="inline" enable-background="accumulate" opacity=".15" overflow="visible" vector-effect="none" visibility="visible" style="marker:none;font-variant-east_asian:normal"/><path stroke-opacity="1" style="marker:none;font-variant-east_asian:normal" id="rect4062-3-6" fill="#000" fill-opacity="1" fill-rule="nonzero" stroke="none" stroke-dasharray="none" stroke-dashoffset="0" stroke-linecap="butt" stroke-linejoin="miter" stroke-miterlimit="4" stroke-width="1" d="M 7.5,5.5 5.75,8 H 7 v 7 H 5 V 13.75 L 2.5,15.5 5,17.25 V 16 h 2 v 2 H 5.75 L 7.5,20.5 9.25,18 H 8 v -2 h 10 v 1.25 L 20.5,15.5 18,13.75 V 15 H 8 V 8 h 1.25 z" color="#000" display="inline" enable-background="accumulate" opacity=".3" overflow="visible" vector-effect="none" visibility="visible"/><path id="rect4062-3" fill="url(#linearGradient3024-0-6)" fill-opacity="1" fill-rule="nonzero" stroke="none" stroke-width="1" d="M 7.5 4.5 L 5.75 7 L 7 7 L 7 14 L 5 14 L 5 12.75 L 2.5 14.5 L 5 16.25 L 5 15 L 7 15 L 7 17 L 5.75 17 L 7.5 19.5 L 9.25 17 L 8 17 L 8 15 L 18 15 L 18 16.25 L 20.5 14.5 L 18 12.75 L 18 14 L 8 14 L 8 7 L 9.25 7 L 7.5 4.5 z" color="#000" display="inline" enable-background="accumulate" overflow="visible" visibility="visible" style="marker:none"/></svg>