<svg xmlns="http://www.w3.org/2000/svg" xmlns:osb="http://www.openswatchbook.org/uri/2009/osb" xmlns:svg="http://www.w3.org/2000/svg" xmlns:xlink="http://www.w3.org/1999/xlink" id="svg3182" width="32" height="32" version="1.1"><defs id="defs3184"><linearGradient id="linearGradient855"><stop id="stop851" offset="0" stop-color="#a56de2" stop-opacity="1"/><stop id="stop853" offset="1" stop-color="#7239b3" stop-opacity="1"/></linearGradient><linearGradient id="linearGradient3977"><stop id="stop3979" offset="0" stop-color="#fff" stop-opacity="1"/><stop id="stop3981" offset="0" stop-color="#fff" stop-opacity=".235"/><stop id="stop3983" offset="1" stop-color="#fff" stop-opacity=".157"/><stop id="stop3985" offset="1" stop-color="#fff" stop-opacity=".392"/></linearGradient><linearGradient id="linearGradient3600-4"><stop id="stop3602-7" offset="0" stop-color="#f4f4f4" stop-opacity="1"/><stop id="stop3604-6" offset="1" stop-color="#dbdbdb" stop-opacity="1"/></linearGradient><linearGradient id="linearGradient5060"><stop id="stop5062" offset="0" stop-color="#000" stop-opacity="1"/><stop id="stop5064" offset="1" stop-color="#000" stop-opacity="0"/></linearGradient><linearGradient id="linearGradient5048"><stop id="stop5050" offset="0" stop-color="#000" stop-opacity="0"/><stop id="stop5056" offset=".5" stop-color="#000" stop-opacity="1"/><stop id="stop5052" offset="1" stop-color="#000" stop-opacity="0"/></linearGradient><linearGradient id="linearGradient3104-6"><stop id="stop3106-3" offset="0" stop-color="#000" stop-opacity=".318"/><stop id="stop3108-9-6" offset="1" stop-color="#000" stop-opacity=".24"/></linearGradient><linearGradient id="linearGradient3181" x1="-51.786" x2="-51.786" y1="50.786" y2="2.906" gradientTransform="matrix(0.53064141,0,0,0.58970049,39.269608,-1.7919172)" gradientUnits="userSpaceOnUse" xlink:href="#linearGradient3104-6"/><linearGradient id="linearGradient3205" x1="24" x2="24" y1="6.185" y2="41.815" gradientTransform="matrix(0.56756757,0,0,0.72972971,2.378382,-2.5135063)" gradientUnits="userSpaceOnUse" xlink:href="#linearGradient3977"/><linearGradient id="linearGradient3208" x1="25.132" x2="25.132" y1=".985" y2="47.013" gradientTransform="matrix(0.62856997,0,0,0.60839396,0.91431978,-0.53478698)" gradientUnits="userSpaceOnUse" xlink:href="#linearGradient3600-4"/><radialGradient id="radialGradient3213" cx="605.714" cy="486.648" r="117.143" fx="605.714" fy="486.648" gradientTransform="matrix(0.01566318,0,0,0.00823529,17.610433,25.980565)" gradientUnits="userSpaceOnUse" xlink:href="#linearGradient5060"/><radialGradient id="radialGradient3216" cx="605.714" cy="486.648" r="117.143" fx="605.714" fy="486.648" gradientTransform="matrix(-0.01566318,0,0,0.00823529,14.389566,25.980565)" gradientUnits="userSpaceOnUse" xlink:href="#linearGradient5060"/><linearGradient id="linearGradient3219" x1="302.857" x2="302.857" y1="366.648" y2="609.505" gradientTransform="matrix(0.04576928,0,0,0.00823529,-0.5423243,25.980548)" gradientUnits="userSpaceOnUse" xlink:href="#linearGradient5048"/><linearGradient id="linearGradient4526" osb:paint="solid"><stop id="stop4528" offset="0" stop-color="#fff" stop-opacity="1"/></linearGradient><linearGradient id="linearGradient857" x1="16.44" x2="16.44" y1=".761" y2="29.652" gradientUnits="userSpaceOnUse" xlink:href="#linearGradient855"/></defs><metadata id="metadata3187"/><rect id="rect2879" width="22.1" height="2" x="4.95" y="29" fill="url(#linearGradient3219)" fill-opacity="1" fill-rule="nonzero" stroke="none" stroke-width="1" display="inline" opacity=".15" overflow="visible" visibility="visible" style="marker:none"/><path id="path2881" fill="url(#radialGradient3216)" fill-opacity="1" fill-rule="nonzero" stroke="none" stroke-width="1" d="m 4.9499887,29.000086 c 0,0 0,1.99989 0,1.99989 -0.806615,0.0038 -1.950002,-0.448074 -1.950002,-1.000074 0,-0.552 0.900121,-0.999816 1.950002,-0.999816 z" display="inline" opacity=".15" overflow="visible" visibility="visible" style="marker:none"/><path id="path2883" fill="url(#radialGradient3213)" fill-opacity="1" fill-rule="nonzero" stroke="none" stroke-width="1" d="m 27.050011,29.000086 c 0,0 0,1.99989 0,1.99989 0.806614,0.0038 1.950002,-0.448074 1.950002,-1.000074 0,-0.552 -0.900122,-0.999816 -1.950002,-0.999816 z" display="inline" opacity=".15" overflow="visible" visibility="visible" style="marker:none"/><path id="path4160-3" fill="url(#linearGradient3208)" fill-opacity="1" stroke="none" d="m 5,1.0000037 c 5.041317,0 21.999974,0.00178 21.999974,0.00178 L 27,29 C 27,29 12.333334,29 5,29 5,19.666666 5,10.333334 5,1.0000016 z" display="inline"/><path id="rect6741-1" fill="none" stroke="url(#linearGradient3205)" stroke-dasharray="none" stroke-dashoffset="0" stroke-linecap="round" stroke-linejoin="miter" stroke-miterlimit="4" stroke-opacity="1" stroke-width="1" d="m 26.5,28.5 -21,0 0,-27 21,0 z"/><path id="path4160-6-1" fill="none" stroke="url(#linearGradient3181)" stroke-dasharray="none" stroke-dashoffset="0" stroke-linecap="butt" stroke-linejoin="round" stroke-miterlimit="4" stroke-opacity="1" stroke-width="1" d="m 4.499961,0.4999448 c 5.2704807,0 23.000054,0.002 23.000054,0.002 l 2.4e-5,28.9981122 c 0,0 -15.333385,0 -23.000078,0 0,-9.666722 0,-19.333346 0,-28.9999562 z" display="inline"/><path display="inline" style="line-height:125%;-inkscape-font-specification:'Open Sans Semi-Bold';text-align:center;isolation:auto;mix-blend-mode:normal;solid-color:#000;solid-opacity:1;marker:none" id="path3455" fill="url(#linearGradient857)" fill-opacity="1" fill-rule="nonzero" stroke="none" stroke-dasharray="none" stroke-dashoffset="0" stroke-linecap="butt" stroke-linejoin="round" stroke-miterlimit="4" stroke-opacity="1" stroke-width="1" d="M 15.933594 10.615234 C 15.035883 10.615242 14.199557 10.818621 13.414062 11.255859 L 13.890625 12.287109 C 14.188571 12.140078 14.504934 12.020497 14.818359 11.916016 C 15.131781 11.811552 15.46248 11.750007 15.830078 11.75 C 16.236365 11.750007 16.562606 11.84542 16.779297 12.019531 C 16.995981 12.193663 17.087886 12.436693 17.087891 12.761719 C 17.087886 13.040324 17.037766 13.283171 16.902344 13.484375 C 16.77078 13.685592 16.476084 13.966359 16.015625 14.330078 C 15.62868 14.631898 15.344228 14.914802 15.189453 15.197266 C 15.034674 15.479737 14.96289 15.843897 14.962891 16.269531 L 14.962891 16.642578 L 16.097656 16.642578 L 16.097656 16.373047 C 16.097654 16.059625 16.163239 15.816595 16.283203 15.630859 C 16.407021 15.44513 16.645999 15.21216 17.005859 14.929688 C 17.427623 14.600791 17.722319 14.328132 17.892578 14.123047 C 18.066698 13.917973 18.200023 13.708808 18.285156 13.484375 C 18.370276 13.256085 18.41015 12.98748 18.410156 12.697266 C 18.41015 12.043341 18.193028 11.543348 17.748047 11.171875 C 17.30306 10.800419 16.691998 10.615242 15.933594 10.615234 z M 12.0625 11.617188 L 7 14.429688 L 7 15.554688 L 12.0625 18.367188 L 12.0625 17.242188 L 8.125 14.994141 L 12.0625 12.742188 L 12.0625 11.617188 z M 19.9375 11.617188 L 19.9375 12.742188 L 23.875 14.994141 L 19.9375 17.242188 L 19.9375 18.367188 L 25 15.554688 L 25 14.429688 L 19.9375 11.617188 z M 15.582031 17.611328 C 15.013224 17.611329 14.714843 17.913764 14.714844 18.498047 C 14.714843 18.780515 14.794359 19.001509 14.941406 19.160156 C 15.088442 19.314933 15.3073 19.386719 15.582031 19.386719 C 15.856758 19.386719 16.054131 19.295365 16.201172 19.136719 C 16.352077 18.974203 16.427731 18.772776 16.427734 18.498047 C 16.427731 18.219449 16.367743 17.988799 16.220703 17.837891 C 16.073663 17.683115 15.860628 17.611329 15.582031 17.611328 z" clip-rule="nonzero" color="#000" color-interpolation="sRGB" color-interpolation-filters="linearRGB" color-rendering="auto" enable-background="accumulate" font-family="Open Sans" font-size="18" font-stretch="normal" font-style="normal" font-variant="normal" font-weight="600" image-rendering="auto" letter-spacing="0" opacity="1" overflow="visible" shape-rendering="auto" text-anchor="middle" text-rendering="auto" visibility="visible" word-spacing="0" writing-mode="lr-tb"/></svg>