<svg xmlns="http://www.w3.org/2000/svg" xmlns:svg="http://www.w3.org/2000/svg" xmlns:xlink="http://www.w3.org/1999/xlink" id="svg3182" width="32" height="32" version="1.1"><defs id="defs3184"><linearGradient id="linearGradient3977"><stop id="stop3979" offset="0" stop-color="#fff" stop-opacity="1"/><stop id="stop3981" offset="0" stop-color="#fff" stop-opacity=".235"/><stop id="stop3983" offset="1" stop-color="#fff" stop-opacity=".157"/><stop id="stop3985" offset="1" stop-color="#fff" stop-opacity=".392"/></linearGradient><linearGradient id="linearGradient3600-4"><stop id="stop3602-7" offset="0" stop-color="#f4f4f4" stop-opacity="1"/><stop id="stop3604-6" offset="1" stop-color="#dbdbdb" stop-opacity="1"/></linearGradient><linearGradient id="linearGradient5060"><stop id="stop5062" offset="0" stop-color="#000" stop-opacity="1"/><stop id="stop5064" offset="1" stop-color="#000" stop-opacity="0"/></linearGradient><linearGradient id="linearGradient5048"><stop id="stop5050" offset="0" stop-color="#000" stop-opacity="0"/><stop id="stop5056" offset=".5" stop-color="#000" stop-opacity="1"/><stop id="stop5052" offset="1" stop-color="#000" stop-opacity="0"/></linearGradient><linearGradient id="linearGradient3013" x1="24" x2="24" y1="6.185" y2="41.815" gradientTransform="matrix(0.56756757,0,0,0.72972971,2.378382,-2.5135063)" gradientUnits="userSpaceOnUse" xlink:href="#linearGradient3977"/><linearGradient id="linearGradient3016" x1="25.132" x2="25.132" y1=".985" y2="47.013" gradientTransform="matrix(0.62856997,0,0,0.60839392,0.91431981,-0.5347905)" gradientUnits="userSpaceOnUse" xlink:href="#linearGradient3600-4"/><radialGradient id="radialGradient3021" cx="605.714" cy="486.648" r="117.143" fx="605.714" fy="486.648" gradientTransform="matrix(0.01566318,0,0,0.00823529,17.610433,25.980565)" gradientUnits="userSpaceOnUse" xlink:href="#linearGradient5060"/><radialGradient id="radialGradient3024" cx="605.714" cy="486.648" r="117.143" fx="605.714" fy="486.648" gradientTransform="matrix(-0.01566318,0,0,0.00823529,14.389566,25.980565)" gradientUnits="userSpaceOnUse" xlink:href="#linearGradient5060"/><linearGradient id="linearGradient3027" x1="302.857" x2="302.857" y1="366.648" y2="609.505" gradientTransform="matrix(0.04576928,0,0,0.00823529,-0.5423243,25.980548)" gradientUnits="userSpaceOnUse" xlink:href="#linearGradient5048"/><linearGradient id="linearGradient3104-6"><stop id="stop3106-3" offset="0" stop-color="#000" stop-opacity=".318"/><stop id="stop3108-9" offset="1" stop-color="#000" stop-opacity=".24"/></linearGradient><linearGradient id="linearGradient3148" x1="-51.786" x2="-51.786" y1="50.786" y2="2.906" gradientTransform="matrix(0.53064141,0,0,0.58970049,39.269607,-1.791918)" gradientUnits="userSpaceOnUse" xlink:href="#linearGradient3104-6"/><radialGradient id="radialGradient3988-4" cx="8.276" cy="9.994" r="12.672" fx="8.276" fy="9.994" gradientTransform="matrix(0,5.4038149,-6.6046736,0,142.06621,-52.987684)" gradientUnits="userSpaceOnUse" xlink:href="#linearGradient3242-4"/><linearGradient id="linearGradient3242-4"><stop id="stop3244-7" offset="0" stop-color="#f89b7e" stop-opacity="1"/><stop id="stop3246-1" offset=".262" stop-color="#e35d4f" stop-opacity="1"/><stop id="stop3248-5" offset=".661" stop-color="#c6262e" stop-opacity="1"/><stop id="stop3250-7" offset="1" stop-color="#690b2c" stop-opacity="1"/></linearGradient><radialGradient id="radialGradient3029" cx="6.563" cy="9.957" r="12.672" fx="6.033" fy="9.957" gradientTransform="matrix(0,5.3759454,-6.5706096,0,81.416581,-48.004018)" gradientUnits="userSpaceOnUse" xlink:href="#linearGradient2867-449-88-871-390-598-476-591-434-148-57-177-8-3-3"/><linearGradient id="linearGradient2867-449-88-871-390-598-476-591-434-148-57-177-8-3-3"><stop id="stop3750-1-0-7" offset="0" stop-color="#ffcd7d" stop-opacity="1"/><stop id="stop3752-3-7-4" offset=".262" stop-color="#fc8f36" stop-opacity="1"/><stop id="stop3754-1-8-5" offset=".705" stop-color="#e23a0e" stop-opacity="1"/><stop id="stop3756-1-6-2" offset="1" stop-color="#ac441f" stop-opacity="1"/></linearGradient></defs><metadata id="metadata3187"/><rect id="rect2879" width="22.1" height="2" x="4.95" y="29" fill="url(#linearGradient3027)" fill-opacity="1" fill-rule="nonzero" stroke="none" stroke-width="1" display="inline" opacity=".15" overflow="visible" visibility="visible" style="marker:none"/><path id="path2881" fill="url(#radialGradient3024)" fill-opacity="1" fill-rule="nonzero" stroke="none" stroke-width="1" d="m 4.9499887,29.000086 c 0,0 0,1.99989 0,1.99989 -0.806615,0.0038 -1.950002,-0.448074 -1.950002,-1.000074 0,-0.552 0.900121,-0.999816 1.950002,-0.999816 z" display="inline" opacity=".15" overflow="visible" visibility="visible" style="marker:none"/><path id="path2883" fill="url(#radialGradient3021)" fill-opacity="1" fill-rule="nonzero" stroke="none" stroke-width="1" d="m 27.050011,29.000086 c 0,0 0,1.99989 0,1.99989 0.806614,0.0038 1.950002,-0.448074 1.950002,-1.000074 0,-0.552 -0.900122,-0.999816 -1.950002,-0.999816 z" display="inline" opacity=".15" overflow="visible" visibility="visible" style="marker:none"/><path id="path4160-3" fill="url(#linearGradient3016)" fill-opacity="1" stroke="none" d="m 5,1 c 5.041316,0 21.999973,0.00179 21.999973,0.00179 L 27,29 C 27,29 12.333334,29 5,29 5,19.666667 5,10.333336 5,1.0000041 z" display="inline"/><path id="rect6741-1" fill="none" stroke="url(#linearGradient3013)" stroke-dasharray="none" stroke-dashoffset="0" stroke-linecap="round" stroke-linejoin="miter" stroke-miterlimit="4" stroke-opacity="1" stroke-width="1" d="m 26.5,28.5 -21,0 0,-27 21,0 z"/><path id="path4160-6-1" fill="none" stroke="url(#linearGradient3148)" stroke-dasharray="none" stroke-dashoffset="0" stroke-linecap="butt" stroke-linejoin="round" stroke-miterlimit="4" stroke-opacity="1" stroke-width="1" d="m 4.499961,0.499944 c 5.27048,0 23.000054,0.002 23.000054,0.002 l 2.4e-5,28.998112 c 0,0 -15.333385,0 -23.000078,0 0,-9.666722 0,-19.333346 0,-28.999956 z" display="inline"/><path clip-rule="nonzero" style="isolation:auto;mix-blend-mode:normal;solid-color:#000;solid-opacity:1;marker:none" id="path4255" fill="url(#radialGradient3988-4)" fill-opacity="1" fill-rule="nonzero" stroke="none" stroke-dasharray="none" stroke-dashoffset="0" stroke-linecap="butt" stroke-linejoin="miter" stroke-miterlimit="4" stroke-opacity="1" stroke-width="1" d="M 77,8.5000001 68,10.107143 68,21.892857 77,23.5 Z m 1.816667,2.1428569 c -0.170607,0.0017 -0.343939,0.01015 -0.516667,0.01674 l -0.366667,0.01674 0,1.356027 0,1.356027 -0.06667,0.03348 c 0.531627,0.06704 1.782304,0.04693 2.616666,-0.03348 C 82.7279,13.172119 84.142696,12.552662 83.9,11.898437 83.627716,11.164459 81.375774,10.620906 78.816667,10.642857 Z M 84,12.882813 83.8,13.117188 c -0.263492,0.318187 -0.990899,0.568596 -1.883333,0.765626 -0.551416,0.121738 -1.147144,0.16782 -2.516667,0.200892 l -1.466667,0.03348 0,0.744419 0,1.037946 1.416667,-0.05022 c 1.386317,-0.03297 1.926936,-0.0807 2.55,-0.217634 0.899039,-0.197593 1.599458,-0.481437 1.866667,-0.770089 L 83.95,14.660714 83.98333,13.572545 Z m -12.120621,0.945842 0.533333,0 c 0.444235,0 0.549952,0.02083 0.583333,0.133928 0.02219,0.07519 0.332864,1.229353 0.7,2.561384 0.367136,1.332031 0.681403,2.45745 0.7,2.511161 0.02464,0.07114 -0.09268,0.104939 -0.416666,0.100446 -0.24463,-0.0034 -0.482912,-0.02957 -0.533334,-0.05022 -0.0504,-0.02065 -0.141632,-0.299714 -0.216666,-0.619419 l -0.15,-0.569197 -0.7,0 -0.716667,0 -0.116667,0.518973 -0.1,0.535715 -0.5,0.01674 -0.483333,0.01674 0.03333,-0.133929 c 0.02341,-0.07734 0.297712,-1.059152 0.6,-2.176339 0.302288,-1.117187 0.602614,-2.201869 0.666667,-2.427455 z m 0.5,1.205357 c -0.02192,0.0061 -0.124272,0.345054 -0.233334,0.78683 -0.116325,0.47123 -0.227509,0.912528 -0.25,0.987724 -0.036,0.120334 0.02558,0.180573 0.466667,0.150669 l 0.5,0 -0.233333,-0.920759 c -0.125371,-0.504882 -0.237936,-0.962922 -0.25,-1.004464 z M 84,15.347342 c -0.237288,0 -0.233333,0.251116 -0.233333,0.251116 -0.608457,0.661848 -2.572125,1.078102 -4.983334,1.0542 l -0.8,-0.01674 -0.03333,0.619663 -0.01667,1.004465 0.133333,0.05022 c 0.291413,0.08836 2.738665,-0.02429 3.433333,-0.15067 0.969736,-0.176426 1.858324,-0.477872 2.183333,-0.753348 L 83.95,17.171875 83.98333,16.066964 Z m 0,2.383015 -0.233333,0.284598 C 83.198549,18.672429 81.452362,19.060181 79,19.069642 l -1.066666,0 0,0.663617 0,1.021205 0.08333,0.03348 c 0.844061,0.06 1.151274,0.04652 2.183333,-0.03348 1.746543,-0.135379 3.080135,-0.491715 3.516667,-0.954241 L 83.95,19.549107 l 0.03333,-1.08817 z" color="#000" color-interpolation="sRGB" color-interpolation-filters="linearRGB" color-rendering="auto" display="inline" enable-background="accumulate" image-rendering="auto" opacity="1" overflow="visible" shape-rendering="auto" text-rendering="auto" visibility="visible"/><path id="path3065" fill="url(#radialGradient3029)" fill-opacity="1" fill-rule="nonzero" stroke="none" stroke-dasharray="none" stroke-dashoffset="0" stroke-linecap="butt" stroke-linejoin="miter" stroke-miterlimit="4" stroke-opacity="1" stroke-width="1" d="M 17,8.5 8,10.107143 8,21.892857 17,23.5 Z m 1,1.8 0,0.7 6,0 0,7.142857 0.7,0 0,-7.142857 0,-0.7 -0.7,0 z m -0.06667,1.728581 0,1.155133 c 0.170755,-0.04423 0.282159,-0.08371 0.466666,-0.08371 l 0,2.214291 2.200001,0 c 0,1.183467 -0.955126,2.071423 -2.133335,2.071423 -0.184507,0 -0.362577,-0.03947 -0.533332,-0.08371 l 0,1.197992 3.733333,0 0,0.5 -3.733333,0 0,1 3.733333,0 0,0.5 -3.733333,0 0,1.171428 5.066666,0 0,-9.642857 z m 1.06667,0.535714 c 1.178207,0 2.133333,0.95939 2.133333,2.142857 l -2.133333,0 z m -6.266671,0.891062 c 0.534422,0.0092 0.805776,0.115831 1.033334,0.334821 0.296832,0.285652 0.420202,0.661209 0.416666,1.322545 -0.0058,1.085491 -0.650074,1.757813 -1.666666,1.757813 l -0.383334,0 -0.03333,0.870535 -0.01667,0.887277 -0.4,-0.03348 -0.416666,-0.01674 0,-2.527902 0,-2.527902 L 12.1,13.472098 c 0.246277,-0.01403 0.455189,-0.01979 0.633333,-0.01674 z m -0.616666,0.904018 0,0.770089 c 0,0.422731 0.03813,0.791654 0.06667,0.820313 0.08337,0.08374 0.315083,0.06935 0.6,-0.05022 0.345739,-0.145104 0.50272,-0.598558 0.366667,-1.054688 -0.100315,-0.336321 -0.322688,-0.485491 -0.75,-0.485491 z" clip-rule="nonzero" color="#000" color-interpolation="sRGB" color-interpolation-filters="linearRGB" color-rendering="auto" display="inline" enable-background="accumulate" image-rendering="auto" opacity="1" overflow="visible" shape-rendering="auto" text-rendering="auto" visibility="visible" style="isolation:auto;mix-blend-mode:normal;solid-color:#000;solid-opacity:1;marker:none"/></svg>