<svg xmlns="http://www.w3.org/2000/svg" xmlns:svg="http://www.w3.org/2000/svg" xmlns:xlink="http://www.w3.org/1999/xlink" id="svg11300" width="32" height="32.002" display="inline" enable-background="new" version="1.0" viewBox="0 0 32 32.002"><metadata id="metadata155"/><title id="title4162">elementary Icon Template</title><defs id="defs3"><linearGradient id="linearGradient10457"><stop id="stop10453" offset="0" stop-color="#000" stop-opacity="1"/><stop id="stop10455" offset="1" stop-color="#000" stop-opacity="0"/></linearGradient><linearGradient id="linearGradient3600"><stop id="stop3602" offset="0" stop-color="#f4f4f4" stop-opacity="1"/><stop id="stop3604" offset="1" stop-color="#dbdbdb" stop-opacity="1"/></linearGradient><linearGradient id="linearGradient5048"><stop id="stop5050" offset="0" stop-color="#000" stop-opacity="0"/><stop id="stop5056" offset=".5" stop-color="#000" stop-opacity="1"/><stop id="stop5052" offset="1" stop-color="#000" stop-opacity="0"/></linearGradient><linearGradient id="linearGradient3977-5"><stop id="stop3979-6" offset="0" stop-color="#fff" stop-opacity="1"/><stop id="stop3981-2" offset="0" stop-color="#fff" stop-opacity=".235"/><stop id="stop3983-9" offset="1" stop-color="#fff" stop-opacity=".157"/><stop id="stop3985-1" offset="1" stop-color="#fff" stop-opacity=".392"/></linearGradient><linearGradient id="linearGradient3013-9" x1="24" x2="24" y1="6.185" y2="41.815" gradientTransform="matrix(0.56756757,0,0,0.72972971,82.378409,175.4847)" gradientUnits="userSpaceOnUse" xlink:href="#linearGradient3977-5"/><linearGradient id="linearGradient3016-3" x1="25.132" x2="25.132" y1=".985" y2="47.013" gradientTransform="matrix(0.62856997,0,0,0.60839392,80.914347,177.46342)" gradientUnits="userSpaceOnUse" xlink:href="#linearGradient3600"/><linearGradient id="linearGradient3027-6" x1="302.857" x2="302.857" y1="366.648" y2="609.505" gradientTransform="matrix(0.04576928,0,0,0.00823529,79.457703,203.97876)" gradientUnits="userSpaceOnUse" xlink:href="#linearGradient5048"/><linearGradient id="linearGradient3104-6"><stop id="stop3106-3" offset="0" stop-color="#000" stop-opacity=".318"/><stop id="stop3108-9" offset="1" stop-color="#000" stop-opacity=".24"/></linearGradient><linearGradient id="linearGradient3148" x1="-51.786" x2="-51.786" y1="50.786" y2="2.906" gradientTransform="matrix(0.53064141,0,0,0.58970049,119.26963,176.20629)" gradientUnits="userSpaceOnUse" xlink:href="#linearGradient3104-6"/><radialGradient id="radialGradient7070" cx="605.714" cy="486.648" r="117.143" fx="605.714" fy="486.648" gradientTransform="matrix(-0.01253114,0,0,0.00823569,92.55202,203.98033)" gradientUnits="userSpaceOnUse" xlink:href="#linearGradient10457"/><radialGradient id="radialGradient7074" cx="605.714" cy="486.648" r="117.143" fx="605.714" fy="486.648" gradientTransform="matrix(0.01253114,0,0,0.00823569,99.44798,203.98035)" gradientUnits="userSpaceOnUse" xlink:href="#linearGradient10457"/></defs><g id="g153" transform="translate(-80,-177.99819)"><rect id="rect2879-2" width="22.1" height="2" x="84.95" y="206.998" fill="url(#linearGradient3027-6)" fill-opacity="1" fill-rule="nonzero" stroke="none" stroke-width="1" display="inline" opacity=".15" overflow="visible" visibility="visible" style="marker:none"/><path id="path4160-3-8" fill="url(#linearGradient3016-3)" fill-opacity="1" stroke="none" d="M 85.000027,178.99821 C 90.041343,178.99821 107,179 107,179 l 3e-5,27.99821 H 85.000027 Z" display="inline"/><path id="rect6741-1-7" fill="none" stroke="url(#linearGradient3013-9)" stroke-dasharray="none" stroke-dashoffset="0" stroke-linecap="round" stroke-linejoin="miter" stroke-miterlimit="4" stroke-opacity="1" stroke-width="1" d="M 106.50003,206.49821 H 85.500027 v -27 h 21.000003 z"/><path id="path4160-6-1" fill="none" stroke="url(#linearGradient3148)" stroke-dasharray="none" stroke-dashoffset="0" stroke-linecap="butt" stroke-linejoin="round" stroke-miterlimit="4" stroke-opacity="1" stroke-width="1" d="m 84.499988,178.49815 c 5.27048,0 23.000052,0.002 23.000052,0.002 l 3e-5,28.99812 H 84.499988 v -28.99996 z" display="inline"/><path id="path26667" fill="#3689e6" fill-opacity="1" fill-rule="nonzero" stroke="none" stroke-width="1" d="m 89,195 7,9.00001 7,-9.00001 -4,8.6e-4 V 192 c 0,1 -1,1 -1,1 0,0 -1,0 -1,-1 0,-1 -1,-1 -1,-1 0,0 -1,0 -1,1 0,1 -1,1 -1,1 0,0 -1,0 -1,-1.00085 V 195 Z" color="#bebebe" display="inline" enable-background="accumulate" overflow="visible" visibility="visible" style="marker:none"/><path id="path10362" fill="#3689e6" fill-opacity="1" fill-rule="nonzero" stroke="none" stroke-width="1" d="m 96,183 c 0,0 -1,0 -1,1 0,1 -1,1 -1,1 0,0 -1,8.5e-4 -1,-1 v 14 h 6 v -14 c 0,1 -1,1 -1,1 0,0 -1,0 -1,-1 0,-1 -1,-1 -1,-1 z" color="#bebebe" display="inline" enable-background="accumulate" opacity=".2" overflow="visible" visibility="visible" style="marker:none"/><path id="path10323" fill="#3689e6" fill-opacity="1" fill-rule="nonzero" stroke="none" stroke-width="1" d="m 94,187 c 0,0 -1,-8.5e-4 -1,1 v 6 h 6 v -6 c 0,-1 -1,-1 -1,-1 0,0 -1,0 -1,1 0,1 -1,1 -1,1 0,0 -1,0 -1,-1 0,-1 -1,-1 -1,-1 z" color="#bebebe" display="inline" enable-background="accumulate" opacity=".5" overflow="visible" visibility="visible" style="marker:none"/><path id="path7068" fill="url(#radialGradient7070)" fill-opacity="1" fill-rule="nonzero" stroke="none" stroke-width="1" d="m 85,207 v 1.99998 c -0.64533,0.004 -1.56008,-0.44811 -1.56008,-1.00013 C 83.43992,207.44782 84.16005,207 85,207 Z" display="inline" opacity=".15" overflow="visible" visibility="visible" style="marker:none"/><path id="path7072" fill="url(#radialGradient7074)" fill-opacity="1" fill-rule="nonzero" stroke="none" stroke-width="1" d="M 107,207.00002 V 209 c 0.64533,0.004 1.56008,-0.44811 1.56008,-1.00013 0,-0.55203 -0.72013,-0.99985 -1.56008,-0.99985 z" display="inline" opacity=".15" overflow="visible" visibility="visible" style="marker:none"/></g></svg>