<svg xmlns="http://www.w3.org/2000/svg" xmlns:osb="http://www.openswatchbook.org/uri/2009/osb" xmlns:svg="http://www.w3.org/2000/svg" xmlns:xlink="http://www.w3.org/1999/xlink" id="svg3783" width="32" height="32" version="1.0"><metadata id="metadata43"/><defs id="defs3785"><linearGradient id="linearGradient4380"><stop id="stop4383" offset="0" stop-color="#fff" stop-opacity="1"/><stop id="stop4385" offset="0" stop-color="#fff" stop-opacity=".235"/><stop id="stop4387" offset="1" stop-color="#fff" stop-opacity=".157"/><stop id="stop4389" offset="1" stop-color="#fff" stop-opacity=".392"/></linearGradient><linearGradient id="linearGradient3702"><stop id="stop3704" offset="0" stop-color="#000" stop-opacity="0"/><stop id="stop3710" offset=".5" stop-color="#000" stop-opacity="1"/><stop id="stop3706" offset="1" stop-color="#000" stop-opacity="0"/></linearGradient><linearGradient id="linearGradient3688"><stop id="stop3690" offset="0" stop-color="#000" stop-opacity="1"/><stop id="stop3692" offset="1" stop-color="#000" stop-opacity="0"/></linearGradient><radialGradient id="radialGradient2470" cx="4.993" cy="43.5" r="2.5" fx="4.993" fy="43.5" gradientTransform="matrix(2.003784,0,0,1.4,27.98813,-17.4)" gradientUnits="userSpaceOnUse" xlink:href="#linearGradient3688"/><radialGradient id="radialGradient2472" cx="4.993" cy="43.5" r="2.5" fx="4.993" fy="43.5" gradientTransform="matrix(2.003784,0,0,1.4,-20.01187,-104.4)" gradientUnits="userSpaceOnUse" xlink:href="#linearGradient3688"/><linearGradient id="linearGradient2474" x1="25.058" x2="25.058" y1="47.028" y2="39.999" gradientUnits="userSpaceOnUse" xlink:href="#linearGradient3702"/><radialGradient id="radialGradient2476" cx="4.993" cy="43.5" r="2.5" fx="4.993" fy="43.5" gradientTransform="matrix(2.003784,0,0,1.4,27.98813,-17.4)" gradientUnits="userSpaceOnUse" xlink:href="#linearGradient3688"/><radialGradient id="radialGradient2478" cx="4.993" cy="43.5" r="2.5" fx="4.993" fy="43.5" gradientTransform="matrix(2.003784,0,0,1.4,-20.01187,-104.4)" gradientUnits="userSpaceOnUse" xlink:href="#linearGradient3688"/><linearGradient id="linearGradient2480" x1="25.058" x2="25.058" y1="47.028" y2="39.999" gradientUnits="userSpaceOnUse" xlink:href="#linearGradient3702"/><linearGradient id="linearGradient2489" x1="26.959" x2="26.959" y1="12.06" y2="37.264" gradientTransform="matrix(0.7480349,0,0,0.75387595,-4.7689845,0.90793303)" gradientUnits="userSpaceOnUse" xlink:href="#linearGradient4380"/><linearGradient id="linearGradient4364"><stop id="stop4366" offset="0" stop-color="#fff" stop-opacity="1"/><stop id="stop4368" offset=".4" stop-color="#fff" stop-opacity=".235"/><stop id="stop4370" offset=".8" stop-color="#fff" stop-opacity=".157"/><stop id="stop4372" offset="1" stop-color="#fff" stop-opacity=".392"/></linearGradient><linearGradient id="linearGradient4223"><stop id="stop4225" offset="0" stop-color="#cdf87e" stop-opacity="1"/><stop id="stop4227" offset=".262" stop-color="#a2e34f" stop-opacity="1"/><stop id="stop4229" offset=".661" stop-color="#68b723" stop-opacity="1"/><stop id="stop4231" offset="1" stop-color="#1d7e0d" stop-opacity="1"/></linearGradient><linearGradient id="linearGradient4526" osb:paint="solid"><stop id="stop4528" offset="0" stop-color="#fff" stop-opacity="1"/></linearGradient><linearGradient id="linearGradient4362" x1="107.051" x2="107.051" y1="-23.106" y2="-5.777" gradientTransform="matrix(0.28394125,0,0,0.29357995,-14.937357,9.9894848)" gradientUnits="userSpaceOnUse" xlink:href="#linearGradient4364"/><radialGradient id="radialGradient4321-4" cx="6.895" cy="12.592" r="12.672" fx="6.895" fy="12.592" gradientTransform="matrix(0,6.3641136,-7.8130983,0,113.00801,-56.880746)" gradientUnits="userSpaceOnUse" xlink:href="#linearGradient4223"/></defs><g id="g3761" opacity=".3" transform="matrix(0.26760532,0,0,0.31190147,13.547987,17.340631)"><rect id="rect3763" width="5" height="7" x="38" y="40" fill="url(#radialGradient2470)" fill-opacity="1" stroke="none"/><rect id="rect3765" width="5" height="7" x="-10" y="-47" fill="url(#radialGradient2472)" fill-opacity="1" stroke="none" transform="scale(-1,-1)"/><rect id="rect3767" width="28" height="7" x="10" y="40" fill="url(#linearGradient2474)" fill-opacity="1" stroke="none"/></g><g id="g3550" opacity=".3" transform="matrix(0.28733436,0,0,0.31190147,0.56332826,17.340631)"><rect id="rect3552" width="5" height="7" x="38" y="40" fill="url(#radialGradient2476)" fill-opacity="1" stroke="none"/><rect id="rect3554" width="5" height="7" x="-10" y="-47" fill="url(#radialGradient2478)" fill-opacity="1" stroke="none" transform="scale(-1,-1)"/><rect id="rect3556" width="28" height="7" x="10" y="40" fill="url(#linearGradient2480)" fill-opacity="1" stroke="none"/></g><path id="rect3558" fill="url(#radialGradient4321-4)" fill-opacity="1" fill-rule="nonzero" stroke="none" stroke-dasharray="none" stroke-dashoffset="0" stroke-linecap="butt" stroke-linejoin="miter" stroke-miterlimit="4" stroke-opacity="1" stroke-width="1" d="m 13.613961,1.5769264 c -1.890593,0 -3.424986,1.5525672 -3.424986,3.443223 0,1.181659 0.611117,2.4877217 1.522215,3.1034361 l 3.91e-4,0.3397869 -7.6110788,0 c -0.8433077,0 -1.6005021,0.93378 -1.6005021,1.7771166 l 0,7.397264 c 0.6276864,-0.787682 1.6570664,-1.308197 2.7417724,-1.308197 1.8905924,0 3.4558215,1.534445 3.4558215,3.4251 0,1.890656 -1.5652291,3.425101 -3.4558215,3.425101 -1.084706,0 -2.114086,-0.520516 -2.7417724,-1.308197 l 0,7.397266 c 0,0.843336 0.7568028,1.231174 1.6001106,1.231174 l 7.3970193,0 c -0.787658,-0.627708 -1.308155,-1.288132 -1.308155,-2.372874 0,-1.890656 1.534393,-3.425102 3.424986,-3.425102 1.890592,0 3.424986,1.534446 3.424986,3.425102 0,1.084742 -0.520499,1.745166 -1.308156,2.372874 l 7.397019,0 c 0.843308,0 1.40808,-0.388105 1.40808,-1.231442 l 0,-7.032427 0.708751,2.67e-4 c 0.615695,0.911129 1.64875,1.359033 2.830371,1.359033 1.890592,0 3.424987,-1.534445 3.424987,-3.4251 0,-1.890656 -1.534395,-3.425101 -3.424987,-3.425101 -1.181621,0 -2.214676,0.44817 -2.830371,1.3593 l -0.708751,-2.67e-4 0,-7.864043 c 0,-0.8433361 -0.564853,-1.8050696 -1.407689,-1.7768476 l -7.611079,0 -3.91e-4,-0.3397869 c 0.911098,-0.6157144 1.522216,-1.9217771 1.522216,-3.1034361 0,-1.8906558 -1.534394,-3.443223 -3.424986,-3.443223 z" clip-rule="nonzero" color="#000" color-interpolation="sRGB" color-interpolation-filters="linearRGB" color-rendering="auto" display="inline" enable-background="accumulate" image-rendering="auto" opacity="1" overflow="visible" shape-rendering="auto" text-rendering="auto" visibility="visible" style="isolation:auto;mix-blend-mode:normal;solid-color:#000;solid-opacity:1;marker:none;filter-blend-mode:normal;filter-gaussianBlur-deviation:0"/><path id="path3741" fill="none" stroke="url(#linearGradient2489)" stroke-dasharray="none" stroke-dashoffset="0" stroke-linecap="round" stroke-linejoin="round" stroke-miterlimit="4" stroke-opacity="1" stroke-width="1" d="m 12.068567,9.5 -7.503109,0 c -0.3859622,0 -1.0654578,0.4262873 -1.0654578,0.815263 l -1e-7,5.20501 c 3.4246222,-1.08325 6.2959744,1.465619 6.3124532,4.303866 0.016479,2.838247 -2.6270925,4.924806 -6.3124532,4.092495 l 1e-7,5.239947 c 0,0.388976 1.1623959,0.343419 1.5483591,0.343419 l 4.1575411,0 c -0.626506,-2.871644 0.9759216,-5.837346 4.3150116,-5.864624 3.339089,-0.02728 4.954526,2.289671 4.272305,5.864624 l 4.741073,0 C 22.920254,29.5 23.5,29.54556 23.5,29.156581 l 0,-7.009928 c 0.10512,-1.057883 1.211146,-0.928453 1.211146,-0.928453 0.269691,-9.04e-4 0.981042,-0.207021 1.13614,0.01534 0.461212,0.687827 1.227902,1.347832 2.104721,1.347832 1.411662,0 2.596187,-0.993111 2.596187,-2.415796 0,-1.422684 -1.184525,-2.415797 -2.596187,-2.415797 -0.876819,0 -1.6438,0.612274 -2.105013,1.300098 -0.155097,0.222356 -1.155314,0.06399 -1.425005,0.06308 0,0 -0.785511,0.01008 -0.921989,-0.735688 l 0,-8.06201 C 23.5,9.9262873 22.920254,9.5 22.53429,9.5 l -7.105267,0" opacity=".4"/><ellipse color="#000" style="isolation:auto;mix-blend-mode:normal;solid-color:#000;solid-opacity:1;marker:none" id="path4335" cx="13.625" cy="5.114" fill="none" fill-opacity="1" fill-rule="nonzero" stroke="url(#linearGradient4362)" stroke-dasharray="none" stroke-dashoffset="0" stroke-linecap="butt" stroke-linejoin="miter" stroke-miterlimit="4" stroke-opacity="1" stroke-width="1" clip-rule="nonzero" color-interpolation="sRGB" color-interpolation-filters="linearRGB" color-rendering="auto" display="inline" enable-background="accumulate" image-rendering="auto" opacity=".6" overflow="visible" rx="2.445" ry="2.544" shape-rendering="auto" text-rendering="auto" visibility="visible"/><path id="rect3558-2" fill="none" fill-opacity="1" fill-rule="nonzero" stroke="#0a3600" stroke-dasharray="none" stroke-dashoffset="0" stroke-linecap="round" stroke-linejoin="miter" stroke-miterlimit="4" stroke-opacity="1" stroke-width="1" d="m 13.613961,1.5769261 c -1.890593,0 -3.424986,1.5525672 -3.424986,3.443223 0,1.181659 0.611117,2.4877217 1.522215,3.1034361 l 3.91e-4,0.3397869 -7.6110788,0 c -0.8433077,0 -1.6005021,0.93378 -1.6005021,1.7771169 l 0,7.397264 c 0.6276864,-0.787682 1.6570664,-1.308197 2.7417724,-1.308197 1.8905924,0 3.4558215,1.534445 3.4558215,3.4251 0,1.890656 -1.5652291,3.425101 -3.4558215,3.425101 -1.084706,0 -2.114086,-0.520516 -2.7417724,-1.308197 l 0,7.397266 c 0,0.843336 0.7568028,1.231174 1.6001106,1.231174 l 7.3970193,0 c -0.787658,-0.627708 -1.308155,-1.288132 -1.308155,-2.372874 0,-1.890656 1.534393,-3.425102 3.424986,-3.425102 1.890592,0 3.424986,1.534446 3.424986,3.425102 0,1.084742 -0.520499,1.745166 -1.308156,2.372874 l 7.397019,0 c 0.843308,0 1.40808,-0.388105 1.40808,-1.231442 l 0,-7.032427 0.708751,2.67e-4 c 0.615695,0.911129 1.64875,1.359033 2.830371,1.359033 1.890592,0 3.424987,-1.534445 3.424987,-3.4251 0,-1.890656 -1.534395,-3.425101 -3.424987,-3.425101 -1.181621,0 -2.214676,0.44817 -2.830371,1.3593 l -0.708751,-2.67e-4 0,-7.864043 c 0,-0.8433364 -0.564853,-1.8050699 -1.407689,-1.7768479 l -7.611079,0 -3.91e-4,-0.3397869 c 0.911098,-0.6157144 1.522216,-1.9217771 1.522216,-3.1034361 0,-1.8906558 -1.534394,-3.443223 -3.424986,-3.443223 z" clip-rule="nonzero" color="#000" color-interpolation="sRGB" color-interpolation-filters="linearRGB" color-rendering="auto" display="inline" enable-background="accumulate" image-rendering="auto" opacity=".4" overflow="visible" shape-rendering="auto" text-rendering="auto" visibility="visible" style="isolation:auto;mix-blend-mode:normal;solid-color:#000;solid-opacity:1;marker:none;filter-blend-mode:normal;filter-gaussianBlur-deviation:0"/></svg>