<svg xmlns="http://www.w3.org/2000/svg" xmlns:svg="http://www.w3.org/2000/svg" xmlns:xlink="http://www.w3.org/1999/xlink" id="svg3182" width="32" height="32" version="1.1"><defs id="defs3184"><linearGradient id="linearGradient3977"><stop id="stop3979" offset="0" stop-color="#fff" stop-opacity="1"/><stop id="stop3981" offset="0" stop-color="#fff" stop-opacity=".235"/><stop id="stop3983" offset="1" stop-color="#fff" stop-opacity=".157"/><stop id="stop3985" offset="1" stop-color="#fff" stop-opacity=".392"/></linearGradient><linearGradient id="linearGradient3600-4"><stop id="stop3602-7" offset="0" stop-color="#f4f4f4" stop-opacity="1"/><stop id="stop3604-6" offset="1" stop-color="#dbdbdb" stop-opacity="1"/></linearGradient><linearGradient id="linearGradient5060"><stop id="stop5062" offset="0" stop-color="#000" stop-opacity="1"/><stop id="stop5064" offset="1" stop-color="#000" stop-opacity="0"/></linearGradient><linearGradient id="linearGradient5048"><stop id="stop5050" offset="0" stop-color="#000" stop-opacity="0"/><stop id="stop5056" offset=".5" stop-color="#000" stop-opacity="1"/><stop id="stop5052" offset="1" stop-color="#000" stop-opacity="0"/></linearGradient><linearGradient id="linearGradient3013" x1="24" x2="24" y1="6.185" y2="41.815" gradientTransform="matrix(0.56756757,0,0,0.72972971,2.378382,-2.5135063)" gradientUnits="userSpaceOnUse" xlink:href="#linearGradient3977"/><linearGradient id="linearGradient3016" x1="25.132" x2="25.132" y1=".985" y2="47.013" gradientTransform="matrix(0.62856997,0,0,0.60839392,0.91431981,-0.5347905)" gradientUnits="userSpaceOnUse" xlink:href="#linearGradient3600-4"/><radialGradient id="radialGradient3021" cx="605.714" cy="486.648" r="117.143" fx="605.714" fy="486.648" gradientTransform="matrix(0.01566318,0,0,0.00823529,17.610433,25.980565)" gradientUnits="userSpaceOnUse" xlink:href="#linearGradient5060"/><radialGradient id="radialGradient3024" cx="605.714" cy="486.648" r="117.143" fx="605.714" fy="486.648" gradientTransform="matrix(-0.01566318,0,0,0.00823529,14.389566,25.980565)" gradientUnits="userSpaceOnUse" xlink:href="#linearGradient5060"/><linearGradient id="linearGradient3027" x1="302.857" x2="302.857" y1="366.648" y2="609.505" gradientTransform="matrix(0.04576928,0,0,0.00823529,-0.5423243,25.980548)" gradientUnits="userSpaceOnUse" xlink:href="#linearGradient5048"/><linearGradient id="linearGradient3104-6"><stop id="stop3106-3" offset="0" stop-color="#000" stop-opacity=".318"/><stop id="stop3108-9" offset="1" stop-color="#000" stop-opacity=".24"/></linearGradient><linearGradient id="linearGradient3148" x1="-51.786" x2="-51.786" y1="50.786" y2="2.906" gradientTransform="matrix(0.53064141,0,0,0.58970049,39.269607,-1.791918)" gradientUnits="userSpaceOnUse" xlink:href="#linearGradient3104-6"/><linearGradient id="linearGradient2867-449-88-871-390-598-476-591-434-148-57-177-8-3"><stop id="stop3750-1-0" offset="0" stop-color="#90dbec" stop-opacity="1"/><stop id="stop3752-3-7" offset=".262" stop-color="#55c1ec" stop-opacity="1"/><stop id="stop3754-1-8" offset=".705" stop-color="#3689e6" stop-opacity="1"/><stop id="stop3756-1-6" offset="1" stop-color="#2b63a0" stop-opacity="1"/></linearGradient><radialGradient id="radialGradient3107-17" cx="5.649" cy="9.957" r="12.672" fx="5.119" fy="9.957" gradientTransform="matrix(-1.0123699e-7,4.1274638,-5.0672077,-1.2389535e-7,66.479049,-36.686332)" gradientUnits="userSpaceOnUse" xlink:href="#linearGradient2867-449-88-871-390-598-476-591-434-148-57-177-8-3"/><radialGradient id="radialGradient4988" cx="5.649" cy="9.957" r="12.672" fx="5.119" fy="9.957" gradientTransform="matrix(-1.0310103e-7,4.2034613,-5.1605083,-1.2617659e-7,67.53739,-37.748489)" gradientUnits="userSpaceOnUse" xlink:href="#linearGradient2867-449-88-871-390-598-476-591-434-148-57-177-8-3"/></defs><metadata id="metadata3187"/><rect id="rect2879" width="22.1" height="2" x="4.95" y="29" fill="url(#linearGradient3027)" fill-opacity="1" fill-rule="nonzero" stroke="none" stroke-width="1" display="inline" opacity=".15" overflow="visible" visibility="visible" style="marker:none"/><path id="path2881" fill="url(#radialGradient3024)" fill-opacity="1" fill-rule="nonzero" stroke="none" stroke-width="1" d="m 4.9499887,29.000086 c 0,0 0,1.99989 0,1.99989 -0.806615,0.0038 -1.950002,-0.448074 -1.950002,-1.000074 0,-0.552 0.900121,-0.999816 1.950002,-0.999816 z" display="inline" opacity=".15" overflow="visible" visibility="visible" style="marker:none"/><path id="path2883" fill="url(#radialGradient3021)" fill-opacity="1" fill-rule="nonzero" stroke="none" stroke-width="1" d="m 27.050011,29.000086 c 0,0 0,1.99989 0,1.99989 0.806614,0.0038 1.950002,-0.448074 1.950002,-1.000074 0,-0.552 -0.900122,-0.999816 -1.950002,-0.999816 z" display="inline" opacity=".15" overflow="visible" visibility="visible" style="marker:none"/><path id="path4160-3" fill="url(#linearGradient3016)" fill-opacity="1" stroke="none" d="m 5,1 c 5.041316,0 21.999973,0.00179 21.999973,0.00179 L 27,29 C 27,29 12.333334,29 5,29 5,19.666667 5,10.333336 5,1.0000041 z" display="inline"/><path id="rect6741-1" fill="none" stroke="url(#linearGradient3013)" stroke-dasharray="none" stroke-dashoffset="0" stroke-linecap="round" stroke-linejoin="miter" stroke-miterlimit="4" stroke-opacity="1" stroke-width="1" d="m 26.5,28.5 -21,0 0,-27 21,0 z"/><path id="path4160-6-1" fill="none" stroke="url(#linearGradient3148)" stroke-dasharray="none" stroke-dashoffset="0" stroke-linecap="butt" stroke-linejoin="round" stroke-miterlimit="4" stroke-opacity="1" stroke-width="1" d="m 4.499961,0.499944 c 5.27048,0 23.000054,0.002 23.000054,0.002 l 2.4e-5,28.998112 c 0,0 -15.333385,0 -23.000078,0 0,-9.666722 0,-19.333346 0,-28.999956 z" display="inline"/><path id="path4986" fill="url(#radialGradient4988)" fill-opacity="1" fill-rule="nonzero" stroke="none" stroke-dasharray="none" stroke-dashoffset="0" stroke-linecap="butt" stroke-linejoin="miter" stroke-miterlimit="4" stroke-opacity="1" stroke-width="1" d="M 12.029778,10.000348 C 11.189876,10.00707 10.131748,10.065577 9,10.258399 L 9,21 l 2.550806,0 0,-3.885616 c 0,0 5.026568,0.464987 5.122032,-3.209856 0,0 0.66328,-3.9471406 -4.64306,-3.90418 z m 0.25805,1.912176 c 1.54773,0.0058 1.95382,0.554591 1.993862,1.574296 0,2.138111 -2.730884,1.615139 -2.730884,1.615139 l 0,-3.148593 c 0.270174,-0.02074 0.515919,-0.04167 0.737022,-0.04085 z" clip-rule="nonzero" color="#000" color-interpolation="sRGB" color-interpolation-filters="linearRGB" color-rendering="auto" display="inline" enable-background="accumulate" image-rendering="auto" opacity="1" overflow="visible" shape-rendering="auto" text-rendering="auto" visibility="visible" style="isolation:auto;mix-blend-mode:normal;solid-color:#000;solid-opacity:1;marker:none"/><path id="path3879" fill="url(#radialGradient3107-17)" fill-opacity="1" fill-rule="nonzero" stroke="none" stroke-dasharray="none" stroke-dashoffset="0" stroke-linecap="butt" stroke-linejoin="miter" stroke-miterlimit="4" stroke-opacity="1" stroke-width="1" d="m 20.042524,12.996595 c -0.608253,0.02753 -1.207975,0.168887 -1.741572,0.469637 -0.988626,0.582914 -1.112089,2.005445 -0.567479,2.935235 0.680563,1.004598 1.989655,1.148969 2.915665,1.839413 0.470081,0.312109 0.228039,1.104006 -0.313091,1.154526 -0.997094,0.163157 -1.999731,-0.197386 -2.896097,-0.606615 l 0,1.42848 c -0.124317,0.423234 0.395546,0.433755 0.684888,0.547911 1.076638,0.261179 2.242756,0.300481 3.30703,-0.03913 0.940095,-0.276756 1.616166,-1.21376 1.565459,-2.191641 -3.28e-4,-0.261886 -0.05009,-0.514847 -0.136978,-0.763162 -0.370419,-1.026865 -1.5203,-1.361686 -2.406892,-1.800276 -0.563373,-0.144299 -1.392731,-0.848985 -0.645752,-1.330639 0.8395,-0.263437 1.707458,0.129143 2.465597,0.469637 l 0.54791,-1.311071 c 0.183281,-0.412115 -0.705267,-0.405933 -0.978411,-0.587047 -0.575858,-0.162285 -1.192023,-0.242784 -1.800277,-0.21525 z" clip-rule="nonzero" color="#000" color-interpolation="sRGB" color-interpolation-filters="linearRGB" color-rendering="auto" display="inline" enable-background="accumulate" image-rendering="auto" opacity="1" overflow="visible" shape-rendering="auto" text-rendering="auto" visibility="visible" style="isolation:auto;mix-blend-mode:normal;solid-color:#000;solid-opacity:1;marker:none"/></svg>