<svg xmlns="http://www.w3.org/2000/svg" xmlns:svg="http://www.w3.org/2000/svg" xmlns:xlink="http://www.w3.org/1999/xlink" id="svg3182" width="32" height="32" version="1.1"><defs id="defs3184"><linearGradient id="linearGradient3977"><stop id="stop3979" offset="0" stop-color="#fff" stop-opacity="1"/><stop id="stop3981" offset="0" stop-color="#fff" stop-opacity=".235"/><stop id="stop3983" offset="1" stop-color="#fff" stop-opacity=".157"/><stop id="stop3985" offset="1" stop-color="#fff" stop-opacity=".392"/></linearGradient><linearGradient id="linearGradient3600-4"><stop id="stop3602-7" offset="0" stop-color="#f4f4f4" stop-opacity="1"/><stop id="stop3604-6" offset="1" stop-color="#dbdbdb" stop-opacity="1"/></linearGradient><linearGradient id="linearGradient5060"><stop id="stop5062" offset="0" stop-color="#000" stop-opacity="1"/><stop id="stop5064" offset="1" stop-color="#000" stop-opacity="0"/></linearGradient><linearGradient id="linearGradient5048"><stop id="stop5050" offset="0" stop-color="#000" stop-opacity="0"/><stop id="stop5056" offset=".5" stop-color="#000" stop-opacity="1"/><stop id="stop5052" offset="1" stop-color="#000" stop-opacity="0"/></linearGradient><linearGradient id="linearGradient3013" x1="24" x2="24" y1="6.186" y2="41.815" gradientTransform="matrix(0.56756757,0,0,0.72972971,2.378382,-2.5135063)" gradientUnits="userSpaceOnUse" xlink:href="#linearGradient3977"/><linearGradient id="linearGradient3016" x1="25.132" x2="25.132" y1=".985" y2="47.013" gradientTransform="matrix(0.62856997,0,0,0.60839392,0.91431981,-0.5347905)" gradientUnits="userSpaceOnUse" xlink:href="#linearGradient3600-4"/><radialGradient id="radialGradient3021" cx="605.714" cy="486.648" r="117.143" fx="605.714" fy="486.648" gradientTransform="matrix(0.01566318,0,0,0.00823529,17.610433,25.980565)" gradientUnits="userSpaceOnUse" xlink:href="#linearGradient5060"/><radialGradient id="radialGradient3024" cx="605.714" cy="486.648" r="117.143" fx="605.714" fy="486.648" gradientTransform="matrix(-0.01566318,0,0,0.00823529,14.389566,25.980565)" gradientUnits="userSpaceOnUse" xlink:href="#linearGradient5060"/><linearGradient id="linearGradient3027" x1="302.857" x2="302.857" y1="366.648" y2="609.505" gradientTransform="matrix(0.04576928,0,0,0.00823529,-0.5423243,25.980548)" gradientUnits="userSpaceOnUse" xlink:href="#linearGradient5048"/><linearGradient id="linearGradient3104-6"><stop id="stop3106-3" offset="0" stop-color="#000" stop-opacity=".318"/><stop id="stop3108-9" offset="1" stop-color="#000" stop-opacity=".24"/></linearGradient><linearGradient id="linearGradient3047" x1="-51.786" x2="-51.786" y1="50.786" y2="2.906" gradientTransform="matrix(0.53064143,0,0,0.58970049,39.269602,-1.7919058)" gradientUnits="userSpaceOnUse" xlink:href="#linearGradient3104-6"/><radialGradient id="radialGradient3087-3" cx="5.945" cy="11.398" r="12.672" fx="5.415" fy="11.398" gradientTransform="matrix(0,4.2772204,-5.2427867,-1.0286277e-8,75.54593,-39.427617)" gradientUnits="userSpaceOnUse" xlink:href="#linearGradient2867-449-88-871-390-598-476-591-434-148-57-177-8"/><linearGradient id="linearGradient2867-449-88-871-390-598-476-591-434-148-57-177-8"><stop id="stop3750-1" offset="0" stop-color="#90dbec" stop-opacity="1"/><stop id="stop3752-3" offset=".262" stop-color="#55c1ec" stop-opacity="1"/><stop id="stop3754-1" offset=".705" stop-color="#3689e6" stop-opacity="1"/><stop id="stop3756-1" offset="1" stop-color="#2b63a0" stop-opacity="1"/></linearGradient></defs><metadata id="metadata3187"/><rect id="rect2879" width="22.1" height="2" x="4.95" y="29" fill="url(#linearGradient3027)" fill-opacity="1" fill-rule="nonzero" stroke="none" stroke-width="1" display="inline" opacity=".15" overflow="visible" visibility="visible" style="marker:none"/><path id="path2881" fill="url(#radialGradient3024)" fill-opacity="1" fill-rule="nonzero" stroke="none" stroke-width="1" d="m 4.9499887,29.000086 c 0,0 0,1.99989 0,1.99989 -0.806615,0.0038 -1.950002,-0.448074 -1.950002,-1.000074 0,-0.552 0.900121,-0.999816 1.950002,-0.999816 z" display="inline" opacity=".15" overflow="visible" visibility="visible" style="marker:none"/><path id="path2883" fill="url(#radialGradient3021)" fill-opacity="1" fill-rule="nonzero" stroke="none" stroke-width="1" d="m 27.050011,29.000086 c 0,0 0,1.99989 0,1.99989 0.806614,0.0038 1.950002,-0.448074 1.950002,-1.000074 0,-0.552 -0.900122,-0.999816 -1.950002,-0.999816 z" display="inline" opacity=".15" overflow="visible" visibility="visible" style="marker:none"/><path id="path4160-3" fill="url(#linearGradient3016)" fill-opacity="1" stroke="none" d="m 5,1 c 5.041316,0 21.999973,0.00179 21.999973,0.00179 L 27,29 C 27,29 12.333334,29 5,29 5,19.666667 5,10.333336 5,1.0000041 z" display="inline"/><path id="rect6741-1" fill="none" stroke="url(#linearGradient3013)" stroke-dasharray="none" stroke-dashoffset="0" stroke-linecap="round" stroke-linejoin="miter" stroke-miterlimit="4" stroke-opacity="1" stroke-width="1" d="m 26.5,28.5 -21,0 0,-27 21,0 z"/><path id="path4160-6-1" fill="none" stroke="url(#linearGradient3047)" stroke-dasharray="none" stroke-dashoffset="0" stroke-linecap="butt" stroke-linejoin="round" stroke-miterlimit="4" stroke-opacity="1" stroke-width="1" d="m 4.4999542,0.499957 c 5.2704806,0 23.0000548,0.00197 23.0000548,0.00197 l 2.4e-5,28.998112 c 0,0 -15.333386,0 -23.0000788,0 0,-9.666722 0,-19.333346 0,-28.9999553 z" display="inline"/><path id="path4498" fill="#7e8087" fill-opacity="1" fill-rule="nonzero" stroke="none" stroke-dasharray="none" stroke-dashoffset="0" stroke-linecap="round" stroke-linejoin="round" stroke-miterlimit="4" stroke-opacity="1" stroke-width="1" d="M 16.5,8 C 15.853159,8 15.302232,8.4209721 15.09375,9 H 11.5 a 0.50005,0.50005 0 1 0 0,1 h 3.59375 C 15.245614,10.421779 15.578221,10.754386 16,10.90625 V 21 h -4.492188 a 0.50005,0.50005 0 1 0 0,1 h 10 a 0.50005,0.50005 0 1 0 0,-1 H 17 V 10.90625 C 17.421779,10.754386 17.754386,10.421779 17.90625,10 H 21.5 a 0.50005,0.50005 0 1 0 0,-1 H 17.90625 C 17.697768,8.4209721 17.146841,8 16.5,8 Z m 0,1 c 0.270917,0 0.477825,0.202933 0.494141,0.46875 a 0.50005,0.50005 0 0 0 0,0.0625 C 16.977825,9.797067 16.770917,10 16.5,10 16.229083,10 16.022175,9.797067 16.005859,9.53125 a 0.50005,0.50005 0 0 0 0,-0.0625 C 16.022175,9.202933 16.229083,9 16.5,9 Z m -4.498047,2 a 0.50005,0.50005 0 0 0 -0.449219,0.277344 L 9.0566406,16.269531 A 0.50005,0.50005 0 0 0 9.0039062,16.5 l 0.00586,0.5 H 9 c 0.4497107,1.271975 1.65282,2.122033 3.001953,2.123047 C 13.350324,19.121147 14.550544,18.271259 15,17 h -0.5 l 0.5,-0.0039 -0.0039,-0.50586 a 0.50005,0.50005 0 0 0 -0.05274,-0.220703 l -2.496093,-4.99414 A 0.50005,0.50005 0 0 0 12.001953,11 Z m 9,0 a 0.50005,0.50005 0 0 0 -0.449219,0.277344 l -2.496093,4.992187 A 0.50005,0.50005 0 0 0 18.003906,16.5 l 0.0059,0.5 H 18 c 0.449711,1.271975 1.65282,2.122033 3.001953,2.123047 C 22.350324,19.121147 23.550544,18.271259 24,17 h -0.5 l 0.5,-0.0039 -0.0039,-0.50586 a 0.50005,0.50005 0 0 0 -0.05273,-0.220703 l -2.496093,-4.99414 A 0.50005,0.50005 0 0 0 21.001953,11 Z M 12,12.617188 13.998047,16.613281 14,17 H 9.5097656 l 0.5000004,-0.0059 -0.0059,-0.384766 z m 9,0 1.998047,3.996093 L 23,17 h -4.490234 l 0.5,-0.0059 -0.0059,-0.384766 z" baseline-shift="baseline" clip-rule="nonzero" color="#000" color-interpolation="sRGB" color-interpolation-filters="linearRGB" color-rendering="auto" direction="ltr" display="inline" dominant-baseline="auto" enable-background="accumulate" font-family="sans-serif" font-size="medium" font-stretch="normal" font-style="normal" font-variant="normal" font-weight="normal" image-rendering="auto" letter-spacing="normal" opacity="1" overflow="visible" shape-rendering="auto" text-anchor="start" text-decoration="none" text-rendering="auto" vector-effect="none" visibility="visible" word-spacing="normal" writing-mode="lr-tb" style="line-height:normal;font-variant-ligatures:normal;font-variant-position:normal;font-variant-caps:normal;font-variant-numeric:normal;font-variant-alternates:normal;font-feature-settings:normal;text-indent:0;text-align:start;text-decoration-line:none;text-decoration-style:solid;text-decoration-color:#000;text-transform:none;text-orientation:mixed;white-space:normal;shape-padding:0;isolation:auto;mix-blend-mode:normal;solid-color:#000;solid-opacity:1"/></svg>