<svg xmlns="http://www.w3.org/2000/svg" xmlns:svg="http://www.w3.org/2000/svg" xmlns:xlink="http://www.w3.org/1999/xlink" id="svg3182" width="32" height="32" version="1.1"><defs id="defs3184"><linearGradient id="linearGradient3977"><stop id="stop3979" offset="0" stop-color="#fff" stop-opacity="1"/><stop id="stop3981" offset="0" stop-color="#fff" stop-opacity=".235"/><stop id="stop3983" offset="1" stop-color="#fff" stop-opacity=".157"/><stop id="stop3985" offset="1" stop-color="#fff" stop-opacity=".392"/></linearGradient><linearGradient id="linearGradient3600-4"><stop id="stop3602-7" offset="0" stop-color="#f4f4f4" stop-opacity="1"/><stop id="stop3604-6" offset="1" stop-color="#dbdbdb" stop-opacity="1"/></linearGradient><linearGradient id="linearGradient5060"><stop id="stop5062" offset="0" stop-color="#000" stop-opacity="1"/><stop id="stop5064" offset="1" stop-color="#000" stop-opacity="0"/></linearGradient><linearGradient id="linearGradient5048"><stop id="stop5050" offset="0" stop-color="#000" stop-opacity="0"/><stop id="stop5056" offset=".5" stop-color="#000" stop-opacity="1"/><stop id="stop5052" offset="1" stop-color="#000" stop-opacity="0"/></linearGradient><linearGradient id="linearGradient3013" x1="24" x2="24" y1="6.185" y2="41.815" gradientTransform="matrix(0.56756757,0,0,0.72972971,2.378382,-2.5135063)" gradientUnits="userSpaceOnUse" xlink:href="#linearGradient3977"/><linearGradient id="linearGradient3016" x1="25.132" x2="25.132" y1=".985" y2="47.013" gradientTransform="matrix(0.62856997,0,0,0.60839392,0.91431981,-0.5347905)" gradientUnits="userSpaceOnUse" xlink:href="#linearGradient3600-4"/><radialGradient id="radialGradient3021" cx="605.714" cy="486.648" r="117.143" fx="605.714" fy="486.648" gradientTransform="matrix(0.01566318,0,0,0.00823529,17.610433,25.980565)" gradientUnits="userSpaceOnUse" xlink:href="#linearGradient5060"/><radialGradient id="radialGradient3024" cx="605.714" cy="486.648" r="117.143" fx="605.714" fy="486.648" gradientTransform="matrix(-0.01566318,0,0,0.00823529,14.389566,25.980565)" gradientUnits="userSpaceOnUse" xlink:href="#linearGradient5060"/><linearGradient id="linearGradient3027" x1="302.857" x2="302.857" y1="366.648" y2="609.505" gradientTransform="matrix(0.04576928,0,0,0.00823529,-0.5423243,25.980548)" gradientUnits="userSpaceOnUse" xlink:href="#linearGradient5048"/><linearGradient id="linearGradient3104-6"><stop id="stop3106-3" offset="0" stop-color="#000" stop-opacity=".318"/><stop id="stop3108-9" offset="1" stop-color="#000" stop-opacity=".24"/></linearGradient><linearGradient id="linearGradient3148" x1="-51.786" x2="-51.786" y1="50.786" y2="2.906" gradientTransform="matrix(0.53064141,0,0,0.58970049,39.269607,-1.791918)" gradientUnits="userSpaceOnUse" xlink:href="#linearGradient3104-6"/><linearGradient id="linearGradient3084" x1="22.004" x2="22.004" y1="47.813" y2="3.364" gradientTransform="matrix(0.66858377,0,0,0.67036989,-0.6796189,-2.3082683)" gradientUnits="userSpaceOnUse" xlink:href="#linearGradient3104-5"/><linearGradient id="linearGradient3104-5"><stop id="stop3106-2" offset="0" stop-color="#aaa" stop-opacity="1"/><stop id="stop3108-5" offset="1" stop-color="#c8c8c8" stop-opacity="1"/></linearGradient></defs><metadata id="metadata3187"/><rect id="rect2879" width="22.1" height="2" x="4.95" y="29" fill="url(#linearGradient3027)" fill-opacity="1" fill-rule="nonzero" stroke="none" stroke-width="1" display="inline" opacity=".15" overflow="visible" visibility="visible" style="marker:none"/><path id="path2881" fill="url(#radialGradient3024)" fill-opacity="1" fill-rule="nonzero" stroke="none" stroke-width="1" d="m 4.9499887,29.000086 c 0,0 0,1.99989 0,1.99989 -0.806615,0.0038 -1.950002,-0.448074 -1.950002,-1.000074 0,-0.552 0.900121,-0.999816 1.950002,-0.999816 z" display="inline" opacity=".15" overflow="visible" visibility="visible" style="marker:none"/><path id="path2883" fill="url(#radialGradient3021)" fill-opacity="1" fill-rule="nonzero" stroke="none" stroke-width="1" d="m 27.050011,29.000086 c 0,0 0,1.99989 0,1.99989 0.806614,0.0038 1.950002,-0.448074 1.950002,-1.000074 0,-0.552 -0.900122,-0.999816 -1.950002,-0.999816 z" display="inline" opacity=".15" overflow="visible" visibility="visible" style="marker:none"/><path id="path4160-3" fill="url(#linearGradient3016)" fill-opacity="1" stroke="none" d="m 5,1 c 5.041316,0 21.999973,0.00179 21.999973,0.00179 L 27,29 C 27,29 12.333334,29 5,29 5,19.666667 5,10.333336 5,1.0000041 z" display="inline"/><path id="rect6741-1" fill="none" stroke="url(#linearGradient3013)" stroke-dasharray="none" stroke-dashoffset="0" stroke-linecap="round" stroke-linejoin="miter" stroke-miterlimit="4" stroke-opacity="1" stroke-width="1" d="m 26.5,28.5 -21,0 0,-27 21,0 z"/><path id="path4160-6-1" fill="none" stroke="url(#linearGradient3148)" stroke-dasharray="none" stroke-dashoffset="0" stroke-linecap="butt" stroke-linejoin="round" stroke-miterlimit="4" stroke-opacity="1" stroke-width="1" d="m 4.499961,0.499944 c 5.27048,0 23.000054,0.002 23.000054,0.002 l 2.4e-5,28.998112 c 0,0 -15.333385,0 -23.000078,0 0,-9.666722 0,-19.333346 0,-28.999956 z" display="inline"/><path font-style="normal" style="line-height:125%;-inkscape-font-specification:'Latin Modern Roman';text-align:start" id="path4447" fill="#1a1a1a" fill-opacity="1" stroke="none" d="m 18.268519,10.687004 0,0.347222 0.231481,0 c 0.616343,0 0.828748,0.07974 1.041667,0.393519 l 2.060185,3.125 L 19.75,17.261078 c -0.156887,0.224125 -0.488539,0.74074 -1.620371,0.74074 l 0,0.347224 1.25,-0.04629 c 0.414632,0 1.03176,0.01267 1.435185,0.04629 l 0,-0.347224 c -0.515487,-0.01121 -0.717592,-0.330694 -0.717592,-0.532406 0,-0.100857 0.03731,-0.131361 0.115741,-0.25463 l 1.597223,-2.361111 1.759258,2.685185 c 0.02241,0.04482 0.06944,0.08212 0.06944,0.115741 0,0.134475 -0.258872,0.336015 -0.740741,0.347221 l 0,0.347224 c 0.392219,-0.03362 1.217681,-0.04629 1.643519,-0.04629 L 26,18.349042 l 0,-0.347224 -0.208333,0 c -0.582726,0 -0.829485,-0.06927 -1.064815,-0.416666 l -2.361111,-3.564815 1.527778,-2.24537 c 0.246538,-0.3586 0.646162,-0.729534 1.643518,-0.740741 l 0,-0.347222 -1.25,0.04629 c -0.44825,0 -0.986935,-0.01267 -1.435185,-0.04629 l 0,0.347222 c 0.44825,0.01121 0.694445,0.251516 0.694445,0.509259 0,0.112062 -0.01415,0.15451 -0.09259,0.277778 l -1.296296,1.875 -1.435185,-2.152778 c -0.02241,-0.03362 -0.06944,-0.117212 -0.06944,-0.162037 0,-0.134475 0.235723,-0.336015 0.717593,-0.347222 l 0,-0.347222 c -0.392219,0.03362 -1.217682,0.04629 -1.643519,0.04629 l -1.458341,-0.04629 z M 6.208333,10.756444 6,13.279593 l 0.277778,0 c 0.156887,-1.804206 0.321745,-2.175926 2.013889,-2.175926 0.201712,0 0.48979,7.5e-4 0.601852,0.02314 0.23533,0.04482 0.254629,0.158924 0.254629,0.416667 l 0,5.902778 c 0,0.381012 -0.0039,0.555555 -1.180555,0.555555 l -0.462964,0 0,0.347223 c 0.459457,-0.03362 1.614143,-0.04629 2.12963,-0.04629 0.515488,0 1.670174,0.01267 2.12963,0.04629 l 0,-0.347223 -0.462963,0 c -1.176655,0 -1.157407,-0.174543 -1.157407,-0.555555 l 0,-5.902778 c 0,-0.224125 -0.01652,-0.371841 0.185184,-0.416667 0.12327,-0.02241 0.43523,-0.02314 0.648149,-0.02314 1.692142,0 1.857001,0.37172 2.013889,2.175926 l 0.277778,0 -0.208333,-2.523149 -6.851853,0 z m 6.064815,2.939815 0,0.347222 0.277778,0 c 0.862881,0 0.87963,0.105835 0.87963,0.50926 l 0,5.87963 c 0,0.403423 -0.01674,0.532407 -0.87963,0.532407 l -0.277778,0 0,0.347222 6.458333,0 0.486112,-2.893519 -0.300926,0 c -0.280156,1.725762 -0.526229,2.546297 -2.453704,2.546297 l -1.481482,0 c -0.526693,0 -0.555555,-0.09316 -0.555555,-0.462964 l 0,-2.986111 0.995371,0 c 1.087005,0 1.226851,0.366915 1.226851,1.319445 l 0.277778,0 0,-2.98611 -0.277778,0 c 0,0.963736 -0.139846,1.319443 -1.226851,1.319443 l -0.995371,0 0,-2.685184 c 0,-0.369806 0.02887,-0.439816 0.555555,-0.439816 l 1.435186,0 c 1.714555,0 2.019774,0.59511 2.199074,2.152778 l 0.277778,0 -0.324075,-2.5 -6.296296,0 z" font-family="Latin Modern Roman" font-size="15.128" font-stretch="normal" font-variant="normal" font-weight="normal" letter-spacing="0" opacity="1" text-anchor="start" word-spacing="0" writing-mode="lr-tb"/></svg>