<svg xmlns="http://www.w3.org/2000/svg" xmlns:svg="http://www.w3.org/2000/svg" xmlns:xlink="http://www.w3.org/1999/xlink" id="svg3182" width="32" height="32" version="1.1"><defs id="defs3184"><linearGradient id="linearGradient3977"><stop id="stop3979" offset="0" stop-color="#fff" stop-opacity="1"/><stop id="stop3981" offset="0" stop-color="#fff" stop-opacity=".235"/><stop id="stop3983" offset="1" stop-color="#fff" stop-opacity=".157"/><stop id="stop3985" offset="1" stop-color="#fff" stop-opacity=".392"/></linearGradient><linearGradient id="linearGradient3600-4"><stop id="stop3602-7" offset="0" stop-color="#f4f4f4" stop-opacity="1"/><stop id="stop3604-6" offset="1" stop-color="#dbdbdb" stop-opacity="1"/></linearGradient><linearGradient id="linearGradient5060"><stop id="stop5062" offset="0" stop-color="#000" stop-opacity="1"/><stop id="stop5064" offset="1" stop-color="#000" stop-opacity="0"/></linearGradient><linearGradient id="linearGradient5048"><stop id="stop5050" offset="0" stop-color="#000" stop-opacity="0"/><stop id="stop5056" offset=".5" stop-color="#000" stop-opacity="1"/><stop id="stop5052" offset="1" stop-color="#000" stop-opacity="0"/></linearGradient><linearGradient id="linearGradient3013" x1="24" x2="24" y1="6.185" y2="41.815" gradientTransform="matrix(0.56756757,0,0,0.72972971,2.378382,-2.5135063)" gradientUnits="userSpaceOnUse" xlink:href="#linearGradient3977"/><linearGradient id="linearGradient3016" x1="25.132" x2="25.132" y1=".985" y2="47.013" gradientTransform="matrix(0.62856997,0,0,0.60839392,0.91431981,-0.5347905)" gradientUnits="userSpaceOnUse" xlink:href="#linearGradient3600-4"/><radialGradient id="radialGradient3021" cx="605.714" cy="486.648" r="117.143" fx="605.714" fy="486.648" gradientTransform="matrix(0.01566318,0,0,0.00823529,17.610433,25.980565)" gradientUnits="userSpaceOnUse" xlink:href="#linearGradient5060"/><radialGradient id="radialGradient3024" cx="605.714" cy="486.648" r="117.143" fx="605.714" fy="486.648" gradientTransform="matrix(-0.01566318,0,0,0.00823529,14.389566,25.980565)" gradientUnits="userSpaceOnUse" xlink:href="#linearGradient5060"/><linearGradient id="linearGradient3027" x1="302.857" x2="302.857" y1="366.648" y2="609.505" gradientTransform="matrix(0.04576928,0,0,0.00823529,-0.5423243,25.980548)" gradientUnits="userSpaceOnUse" xlink:href="#linearGradient5048"/><linearGradient id="linearGradient3104-6"><stop id="stop3106-3" offset="0" stop-color="#000" stop-opacity=".318"/><stop id="stop3108-9" offset="1" stop-color="#000" stop-opacity=".24"/></linearGradient><linearGradient id="linearGradient3148" x1="-51.786" x2="-51.786" y1="50.786" y2="2.906" gradientTransform="matrix(0.53064141,0,0,0.58970049,39.269607,-1.791918)" gradientUnits="userSpaceOnUse" xlink:href="#linearGradient3104-6"/></defs><metadata id="metadata3187"/><rect id="rect2879" width="22.1" height="2" x="4.95" y="29" fill="url(#linearGradient3027)" fill-opacity="1" fill-rule="nonzero" stroke="none" stroke-width="1" display="inline" opacity=".15" overflow="visible" visibility="visible" style="marker:none"/><path id="path2881" fill="url(#radialGradient3024)" fill-opacity="1" fill-rule="nonzero" stroke="none" stroke-width="1" d="m 4.9499887,29.000086 c 0,0 0,1.99989 0,1.99989 -0.806615,0.0038 -1.950002,-0.448074 -1.950002,-1.000074 0,-0.552 0.900121,-0.999816 1.950002,-0.999816 z" display="inline" opacity=".15" overflow="visible" visibility="visible" style="marker:none"/><path id="path2883" fill="url(#radialGradient3021)" fill-opacity="1" fill-rule="nonzero" stroke="none" stroke-width="1" d="m 27.050011,29.000086 c 0,0 0,1.99989 0,1.99989 0.806614,0.0038 1.950002,-0.448074 1.950002,-1.000074 0,-0.552 -0.900122,-0.999816 -1.950002,-0.999816 z" display="inline" opacity=".15" overflow="visible" visibility="visible" style="marker:none"/><path id="path4160-3" fill="url(#linearGradient3016)" fill-opacity="1" stroke="none" d="m 5,1 c 5.041316,0 21.999973,0.00179 21.999973,0.00179 L 27,29 C 27,29 12.333334,29 5,29 5,19.666667 5,10.333336 5,1.0000041 z" display="inline"/><path id="rect6741-1" fill="none" stroke="url(#linearGradient3013)" stroke-dasharray="none" stroke-dashoffset="0" stroke-linecap="round" stroke-linejoin="miter" stroke-miterlimit="4" stroke-opacity="1" stroke-width="1" d="m 26.5,28.5 -21,0 0,-27 21,0 z"/><path id="path4160-6-1" fill="none" stroke="url(#linearGradient3148)" stroke-dasharray="none" stroke-dashoffset="0" stroke-linecap="butt" stroke-linejoin="round" stroke-miterlimit="4" stroke-opacity="1" stroke-width="1" d="m 4.499961,0.499944 c 5.27048,0 23.000054,0.002 23.000054,0.002 l 2.4e-5,28.998112 c 0,0 -15.333385,0 -23.000078,0 0,-9.666722 0,-19.333346 0,-28.999956 z" display="inline"/><path id="path47" fill="#00acd7" stroke-width="1" d="m 15.611491,11.633178 c -0.2012,0.0044 -0.40524,0.0263 -0.611507,0.0636 -1.009407,0.184326 -1.834487,0.702264 -2.457687,1.518567 -0.579313,0.754861 -0.860193,1.614947 -0.746086,2.571689 0.09655,0.807525 0.46514,1.457159 1.114673,1.948696 0.702193,0.526647 1.500973,0.693384 2.361167,0.579277 1.044513,-0.140439 1.869593,-0.658308 2.501573,-1.492166 0.1435,-0.189159 0.266173,-0.388087 0.368927,-0.595735 0.147846,0.534782 0.445067,0.994509 0.8774,1.368219 0.61442,0.526647 1.34298,0.754758 2.141733,0.772313 0.228214,-0.02633 0.4652,-0.03515 0.702194,-0.07903 0.8163,-0.166771 1.527273,-0.535321 2.106586,-1.12341 0.8163,-0.82508 1.158621,-1.790634 1.009407,-2.975589 -0.114107,-0.842635 -0.544167,-1.483457 -1.237587,-1.957439 -0.76364,-0.517869 -1.606273,-0.605611 -2.501573,-0.447616 -1.044513,0.184327 -1.816927,0.623302 -2.457687,1.465937 -0.274526,0.35931 -0.479493,0.739198 -0.60636,1.141068 h -2.825587 c -0.13166,0 -0.1931,0.08774 -0.219433,0.140405 -0.122887,0.228214 -0.33368,0.684675 -0.447787,0.956776 -0.06147,0.149216 -0.01753,0.263324 0.166807,0.263324 h 1.694113 c -0.08777,0.122884 -0.158093,0.228144 -0.237093,0.324696 -0.394987,0.44765 -0.8953,0.658274 -1.492167,0.579278 -0.69342,-0.09655 -1.17618,-0.675795 -1.184953,-1.377991 -0.0088,-0.710973 0.298533,-1.281507 0.8954,-1.667715 0.500313,-0.324766 1.035707,-0.403763 1.588687,-0.131662 0.184326,0.08777 0.280806,0.184224 0.412466,0.33344 0.114107,0.131662 0.12292,0.122885 0.25458,0.08778 0.544207,-0.140439 0.921707,-0.245631 1.47468,-0.386071 0.105334,-0.02633 0.140441,-0.07032 0.08778,-0.149319 -0.21944,-0.50909 -0.552946,-0.930373 -1.018153,-1.237583 -0.533227,-0.36207 -1.110927,-0.506898 -1.714513,-0.493732 z m 6.132213,1.690345 c 0.71366,-0.0234 1.342434,0.448095 1.48068,1.208442 0.01753,0.08777 0.0176,0.175446 0.0264,0.289553 -0.04387,0.75486 -0.42142,1.316754 -1.11484,1.676629 -0.465206,0.236991 -0.94786,0.263289 -1.43062,0.05263 -0.63198,-0.280878 -0.965626,-0.974331 -0.807633,-1.658972 0.193107,-0.82508 0.719753,-1.342983 1.536053,-1.52731 0.104234,-0.02414 0.208007,-0.03763 0.309954,-0.04097 z m -13.1425137,0.02349 c -0.035133,0 -0.078967,0.01755 -0.09652,0.04389 l -0.18446,0.236923 c -0.017533,0.02633 -0.00873,0.04389 0.0264,0.04389 l 3.1773667,0.0087 c 0.02633,0 0.07022,-0.0263 0.08777,-0.05263 l 0.149321,-0.228179 c 0.01753,-0.02633 0.0087,-0.05263 -0.0264,-0.05263 z m -1.32536,0.807457 c -0.035133,0 -0.079133,0.01755 -0.096693,0.04389 L 6.994844,14.435454 c -0.017533,0.02633 -0.00873,0.04389 0.0264,0.04389 l 4.151633,-0.0089 c 0.03513,0 0.07025,-0.01752 0.07903,-0.05263 l 0.07029,-0.210692 c 0.0088,-0.02633 -0.0088,-0.05263 -0.04387,-0.05263 z m 2.0537867,0.807628 c -0.035133,0 -0.07022,0.0263 -0.08778,0.05263 l -0.1227466,0.219436 c -0.017533,0.02633 -0.00887,0.05263 0.0262,0.05263 l 1.9135536,0.0087 c 0.02633,0 0.0614,-0.02627 0.0614,-0.06137 l 0.01767,-0.210693 c 0,-0.03511 -0.01767,-0.06137 -0.0528,-0.06137 z"/></svg>