<svg xmlns="http://www.w3.org/2000/svg" xmlns:svg="http://www.w3.org/2000/svg" xmlns:xlink="http://www.w3.org/1999/xlink" id="svg3182" width="32" height="32" version="1.1"><defs id="defs3184"><linearGradient id="linearGradient3977"><stop id="stop3979" offset="0" stop-color="#fff" stop-opacity="1"/><stop id="stop3981" offset="0" stop-color="#fff" stop-opacity=".235"/><stop id="stop3983" offset="1" stop-color="#fff" stop-opacity=".157"/><stop id="stop3985" offset="1" stop-color="#fff" stop-opacity=".392"/></linearGradient><linearGradient id="linearGradient3600-4"><stop id="stop3602-7" offset="0" stop-color="#f4f4f4" stop-opacity="1"/><stop id="stop3604-6" offset="1" stop-color="#dbdbdb" stop-opacity="1"/></linearGradient><linearGradient id="linearGradient5060"><stop id="stop5062" offset="0" stop-color="#000" stop-opacity="1"/><stop id="stop5064" offset="1" stop-color="#000" stop-opacity="0"/></linearGradient><linearGradient id="linearGradient5048"><stop id="stop5050" offset="0" stop-color="#000" stop-opacity="0"/><stop id="stop5056" offset=".5" stop-color="#000" stop-opacity="1"/><stop id="stop5052" offset="1" stop-color="#000" stop-opacity="0"/></linearGradient><linearGradient id="linearGradient3013" x1="24" x2="24" y1="6.185" y2="41.815" gradientTransform="matrix(0.56756757,0,0,0.72972971,2.378382,-2.5135063)" gradientUnits="userSpaceOnUse" xlink:href="#linearGradient3977"/><linearGradient id="linearGradient3016" x1="25.132" x2="25.132" y1=".985" y2="47.013" gradientTransform="matrix(0.62856997,0,0,0.60839392,0.91431981,-0.5347905)" gradientUnits="userSpaceOnUse" xlink:href="#linearGradient3600-4"/><radialGradient id="radialGradient3021" cx="605.714" cy="486.648" r="117.143" fx="605.714" fy="486.648" gradientTransform="matrix(0.01566318,0,0,0.00823529,17.610433,25.980565)" gradientUnits="userSpaceOnUse" xlink:href="#linearGradient5060"/><radialGradient id="radialGradient3024" cx="605.714" cy="486.648" r="117.143" fx="605.714" fy="486.648" gradientTransform="matrix(-0.01566318,0,0,0.00823529,14.389566,25.980565)" gradientUnits="userSpaceOnUse" xlink:href="#linearGradient5060"/><linearGradient id="linearGradient3027" x1="302.857" x2="302.857" y1="366.648" y2="609.505" gradientTransform="matrix(0.04576928,0,0,0.00823529,-0.5423243,25.980548)" gradientUnits="userSpaceOnUse" xlink:href="#linearGradient5048"/><linearGradient id="linearGradient3104-6"><stop id="stop3106-3" offset="0" stop-color="#000" stop-opacity=".318"/><stop id="stop3108-9" offset="1" stop-color="#000" stop-opacity=".24"/></linearGradient><linearGradient id="linearGradient3148" x1="-51.786" x2="-51.786" y1="50.786" y2="2.906" gradientTransform="matrix(0.53064141,0,0,0.58970049,39.269607,-1.791918)" gradientUnits="userSpaceOnUse" xlink:href="#linearGradient3104-6"/></defs><metadata id="metadata3187"/><rect id="rect2879" width="22.1" height="2" x="4.95" y="29" fill="url(#linearGradient3027)" fill-opacity="1" fill-rule="nonzero" stroke="none" stroke-width="1" display="inline" opacity=".15" overflow="visible" visibility="visible" style="marker:none"/><path id="path2881" fill="url(#radialGradient3024)" fill-opacity="1" fill-rule="nonzero" stroke="none" stroke-width="1" d="m 4.9499887,29.000086 c 0,0 0,1.99989 0,1.99989 -0.806615,0.0038 -1.950002,-0.448074 -1.950002,-1.000074 0,-0.552 0.900121,-0.999816 1.950002,-0.999816 z" display="inline" opacity=".15" overflow="visible" visibility="visible" style="marker:none"/><path id="path2883" fill="url(#radialGradient3021)" fill-opacity="1" fill-rule="nonzero" stroke="none" stroke-width="1" d="m 27.050011,29.000086 c 0,0 0,1.99989 0,1.99989 0.806614,0.0038 1.950002,-0.448074 1.950002,-1.000074 0,-0.552 -0.900122,-0.999816 -1.950002,-0.999816 z" display="inline" opacity=".15" overflow="visible" visibility="visible" style="marker:none"/><path id="path4160-3" fill="url(#linearGradient3016)" fill-opacity="1" stroke="none" d="m 5,1 c 5.041316,0 21.999973,0.00179 21.999973,0.00179 L 27,29 C 27,29 12.333334,29 5,29 5,19.666667 5,10.333336 5,1.0000041 z" display="inline"/><path id="rect6741-1" fill="none" stroke="url(#linearGradient3013)" stroke-dasharray="none" stroke-dashoffset="0" stroke-linecap="round" stroke-linejoin="miter" stroke-miterlimit="4" stroke-opacity="1" stroke-width="1" d="m 26.5,28.5 -21,0 0,-27 21,0 z"/><path id="path4160-6-1" fill="none" stroke="url(#linearGradient3148)" stroke-dasharray="none" stroke-dashoffset="0" stroke-linecap="butt" stroke-linejoin="round" stroke-miterlimit="4" stroke-opacity="1" stroke-width="1" d="m 4.499961,0.499944 c 5.27048,0 23.000054,0.002 23.000054,0.002 l 2.4e-5,28.998112 c 0,0 -15.333385,0 -23.000078,0 0,-9.666722 0,-19.333346 0,-28.999956 z" display="inline"/><g id="g4276"><path id="rect3032-8-9" fill="#7e8087" fill-opacity="1" fill-rule="nonzero" stroke="none" stroke-width="1" d="M 11.53125,9.0000002 C 11.234464,9.0000002 11,9.2578002 11,9.5625 l 0,9.875 C 11,19.7422 11.234464,20 11.53125,20 l 8.9375,0 C 20.765536,20 21,19.7422 21,19.4375 l 0,-9.875 C 21,9.2578002 20.765536,9.0000002 20.46875,9.0000002 l -8.9375,0 z m 0.1875,0.7187498 0.71875,0 0,0.75 -0.71875,0 0,-0.75 z m 7.84375,0 0.71875,0 0,0.75 -0.71875,0 0,-0.75 z M 13.5,10 l 5,0 c 0.277,0 0.5,0.223 0.5,0.5 l 0,3 c 0,0.277 -0.223,0.5 -0.5,0.5 l -5,0 C 13.223,14 13,13.777 13,13.5 l 0,-3 C 13,10.223 13.223,10 13.5,10 Z m -1.78125,1.1875 0.71875,0 0,0.75 -0.71875,0 0,-0.75 z m 7.84375,0 0.71875,0 0,0.75 -0.71875,0 0,-0.75 z m -7.84375,1.46875 0.71875,0 0,0.75 -0.71875,0 0,-0.75 z m 7.84375,0 0.71875,0 0,0.75 -0.71875,0 0,-0.75 z m -7.84375,1.46875 0.71875,0 0,0.75 -0.71875,0 0,-0.75 z m 7.84375,0 0.71875,0 0,0.75 -0.71875,0 0,-0.75 z M 13.5,15 l 5,0 c 0.277,0 0.5,0.223 0.5,0.5 l 0,3 c 0,0.277 -0.223,0.5 -0.5,0.5 l -5,0 C 13.223,19 13,18.777 13,18.5 l 0,-3 C 13,15.223 13.223,15 13.5,15 Z m -1.78125,0.59375 0.71875,0 0,0.75 -0.71875,0 0,-0.75 z m 7.84375,0 0.71875,0 0,0.75 -0.71875,0 0,-0.75 z m -7.84375,1.46875 0.71875,0 0,0.75 -0.71875,0 0,-0.75 z m 7.84375,0 0.71875,0 0,0.75 -0.71875,0 0,-0.75 z m -7.84375,1.46875 0.71875,0 0,0.75 -0.71875,0 0,-0.75 z m 7.84375,0 0.71875,0 0,0.75 -0.71875,0 0,-0.75 z" color="#000" display="inline" enable-background="accumulate" overflow="visible" visibility="visible" style="marker:none"/><g id="g4269"><path id="path4194-8" fill="#7e8087" fill-opacity="1" stroke="none" stroke-dasharray="none" stroke-miterlimit="4" stroke-opacity="1" stroke-width="2" d="m 15.999999,25 c -0.552285,1e-6 -1,0.447716 -0.999999,1.000001 0,0.552284 0.447715,0.999998 0.999999,0.999999 0.552285,1e-6 1,-0.447714 1.000001,-0.999999 C 17,25.447716 16.552284,24.999999 15.999999,25 Z" opacity="1"/><path id="path4194-8-5" fill="#7e8087" fill-opacity="1" stroke="none" stroke-dasharray="none" stroke-miterlimit="4" stroke-opacity="1" stroke-width="2" d="m 19.999999,25 c -0.552285,1e-6 -1,0.447716 -0.999999,1.000001 0,0.552284 0.447715,0.999998 0.999999,0.999999 0.552285,1e-6 1,-0.447714 1.000001,-0.999999 C 21,25.447716 20.552284,24.999999 19.999999,25 Z" opacity="1"/><path id="path4194-8-1" fill="#7e8087" fill-opacity="1" stroke="none" stroke-dasharray="none" stroke-miterlimit="4" stroke-opacity="1" stroke-width="2" d="m 23.999999,25 c -0.552285,1e-6 -1,0.447716 -0.999999,1.000001 0,0.552284 0.447715,0.999998 0.999999,0.999999 0.552285,1e-6 1,-0.447714 1.000001,-0.999999 C 25,25.447716 24.552284,24.999999 23.999999,25 Z" opacity="1"/><path id="path4194-8-9" fill="#7e8087" fill-opacity="1" stroke="none" stroke-dasharray="none" stroke-miterlimit="4" stroke-opacity="1" stroke-width="2" d="m 11.999999,25 c -0.552285,1e-6 -1,0.447716 -0.999999,1.000001 0,0.552284 0.447715,0.999998 0.999999,0.999999 0.552285,1e-6 1,-0.447714 1.000001,-0.999999 C 13,25.447716 12.552284,24.999999 11.999999,25 Z" opacity="1"/><path id="path4194-8-4" fill="#7e8087" fill-opacity="1" stroke="none" stroke-dasharray="none" stroke-miterlimit="4" stroke-opacity="1" stroke-width="2" d="m 7.999999,25 c -0.552285,1e-6 -1,0.447716 -0.999999,1.000001 0,0.552284 0.447715,0.999998 0.999999,0.999999 0.552285,1e-6 1,-0.447714 1.000001,-0.999999 C 9,25.447716 8.552284,24.999999 7.999999,25 Z" opacity="1"/></g></g></svg>