<svg xmlns="http://www.w3.org/2000/svg" xmlns:svg="http://www.w3.org/2000/svg" xmlns:xlink="http://www.w3.org/1999/xlink" id="svg3182" width="32" height="32" version="1.1"><defs id="defs3184"><linearGradient id="linearGradient3977"><stop id="stop3979" offset="0" stop-color="#fff" stop-opacity="1"/><stop id="stop3981" offset="0" stop-color="#fff" stop-opacity=".235"/><stop id="stop3983" offset="1" stop-color="#fff" stop-opacity=".157"/><stop id="stop3985" offset="1" stop-color="#fff" stop-opacity=".392"/></linearGradient><linearGradient id="linearGradient3600-4"><stop id="stop3602-7" offset="0" stop-color="#f4f4f4" stop-opacity="1"/><stop id="stop3604-6" offset="1" stop-color="#dbdbdb" stop-opacity="1"/></linearGradient><linearGradient id="linearGradient5060"><stop id="stop5062" offset="0" stop-color="#000" stop-opacity="1"/><stop id="stop5064" offset="1" stop-color="#000" stop-opacity="0"/></linearGradient><linearGradient id="linearGradient5048"><stop id="stop5050" offset="0" stop-color="#000" stop-opacity="0"/><stop id="stop5056" offset=".5" stop-color="#000" stop-opacity="1"/><stop id="stop5052" offset="1" stop-color="#000" stop-opacity="0"/></linearGradient><linearGradient id="linearGradient3013" x1="24" x2="24" y1="6.185" y2="41.815" gradientTransform="matrix(0.56756757,0,0,0.72972971,2.378382,-2.5135063)" gradientUnits="userSpaceOnUse" xlink:href="#linearGradient3977"/><linearGradient id="linearGradient3016" x1="25.132" x2="25.132" y1=".985" y2="47.013" gradientTransform="matrix(0.62856997,0,0,0.60839392,0.91431981,-0.5347905)" gradientUnits="userSpaceOnUse" xlink:href="#linearGradient3600-4"/><radialGradient id="radialGradient3021" cx="605.714" cy="486.648" r="117.143" fx="605.714" fy="486.648" gradientTransform="matrix(0.01566318,0,0,0.00823529,17.610433,25.980565)" gradientUnits="userSpaceOnUse" xlink:href="#linearGradient5060"/><radialGradient id="radialGradient3024" cx="605.714" cy="486.648" r="117.143" fx="605.714" fy="486.648" gradientTransform="matrix(-0.01566318,0,0,0.00823529,14.389566,25.980565)" gradientUnits="userSpaceOnUse" xlink:href="#linearGradient5060"/><linearGradient id="linearGradient3027" x1="302.857" x2="302.857" y1="366.648" y2="609.505" gradientTransform="matrix(0.04576928,0,0,0.00823529,-0.5423243,25.980548)" gradientUnits="userSpaceOnUse" xlink:href="#linearGradient5048"/><linearGradient id="linearGradient3104-6"><stop id="stop3106-3" offset="0" stop-color="#000" stop-opacity=".318"/><stop id="stop3108-9" offset="1" stop-color="#000" stop-opacity=".24"/></linearGradient><linearGradient id="linearGradient3148" x1="-51.786" x2="-51.786" y1="50.786" y2="2.906" gradientTransform="matrix(0.53064141,0,0,0.58970049,39.269607,-1.791918)" gradientUnits="userSpaceOnUse" xlink:href="#linearGradient3104-6"/><linearGradient id="linearGradient3104-5"><stop id="stop3106-2" offset="0" stop-color="#aaa" stop-opacity="1"/><stop id="stop3108-5" offset="1" stop-color="#c8c8c8" stop-opacity="1"/></linearGradient><linearGradient id="linearGradient3273" x1="42.784" x2="38.972" y1="32.537" y2="18.124" gradientTransform="matrix(1,0,0,-1,-16.999999,48.999999)" gradientUnits="userSpaceOnUse" xlink:href="#linearGradient3412"/><linearGradient id="linearGradient3412"><stop id="stop3414" offset="0" stop-color="#fcfcfc" stop-opacity="1"/><stop id="stop3416" offset="1" stop-color="#cbcdd9" stop-opacity="1"/></linearGradient><linearGradient id="linearGradient3166" x1="40.106" x2="33.811" y1="31.657" y2="18.354" gradientTransform="matrix(0.99749995,0,0,-0.99749995,-16.923748,48.896056)" gradientUnits="userSpaceOnUse" xlink:href="#linearGradient3428"/><linearGradient id="linearGradient3428"><stop id="stop3430" offset="0" stop-color="#fff" stop-opacity="1"/><stop id="stop3432" offset="1" stop-color="#fff" stop-opacity="0"/></linearGradient><linearGradient id="linearGradient3084-3" x1="22.004" x2="22.004" y1="47.813" y2="3.364" gradientTransform="matrix(-0.66858377,0,0,0.67036989,33.31064,-2.3082683)" gradientUnits="userSpaceOnUse" xlink:href="#linearGradient3104-5"/></defs><metadata id="metadata3187"/><rect id="rect2879" width="22.1" height="2" x="4.95" y="29" fill="url(#linearGradient3027)" fill-opacity="1" fill-rule="nonzero" stroke="none" stroke-width="1" display="inline" opacity=".15" overflow="visible" visibility="visible" style="marker:none"/><path id="path2881" fill="url(#radialGradient3024)" fill-opacity="1" fill-rule="nonzero" stroke="none" stroke-width="1" d="m 4.9499887,29.000086 c 0,0 0,1.99989 0,1.99989 -0.806615,0.0038 -1.950002,-0.448074 -1.950002,-1.000074 0,-0.552 0.900121,-0.999816 1.950002,-0.999816 z" display="inline" opacity=".15" overflow="visible" visibility="visible" style="marker:none"/><path id="path2883" fill="url(#radialGradient3021)" fill-opacity="1" fill-rule="nonzero" stroke="none" stroke-width="1" d="m 27.050011,29.000086 c 0,0 0,1.99989 0,1.99989 0.806614,0.0038 1.950002,-0.448074 1.950002,-1.000074 0,-0.552 -0.900122,-0.999816 -1.950002,-0.999816 z" display="inline" opacity=".15" overflow="visible" visibility="visible" style="marker:none"/><path id="path4160-3" fill="url(#linearGradient3016)" fill-opacity="1" stroke="none" d="m 5,1 c 5.041316,0 21.999973,0.00179 21.999973,0.00179 L 27,29 C 27,29 12.333334,29 5,29 5,19.666667 5,10.333336 5,1.0000041 z" display="inline"/><path id="rect6741-1" fill="none" stroke="url(#linearGradient3013)" stroke-dasharray="none" stroke-dashoffset="0" stroke-linecap="round" stroke-linejoin="miter" stroke-miterlimit="4" stroke-opacity="1" stroke-width="1" d="m 26.5,28.5 -21,0 0,-27 21,0 z"/><path id="path4160-6-1" fill="none" stroke="url(#linearGradient3148)" stroke-dasharray="none" stroke-dashoffset="0" stroke-linecap="butt" stroke-linejoin="round" stroke-miterlimit="4" stroke-opacity="1" stroke-width="1" d="m 4.499961,0.499944 c 5.27048,0 23.000054,0.002 23.000054,0.002 l 2.4e-5,28.998112 c 0,0 -15.333385,0 -23.000078,0 0,-9.666722 0,-19.333346 0,-28.999956 z" display="inline"/><path id="path3475" fill="none" stroke="url(#linearGradient3084-3)" stroke-linecap="butt" stroke-linejoin="miter" stroke-opacity="1" stroke-width="1" d="m 24.631021,5.567745 h -1.566993 z m -1.796819,0 h -1.462527 z m -1.692353,0 h -1.295381 z m -1.504313,0 h -0.564117 z m -0.793943,0 h -1.253595 z m -1.504313,0 h -3.301133 z m -3.510065,0 h -2.528083 z m -2.737015,0 h -0.77305 z m 13.538821,1.9217775 h -2.06843 z m -2.277364,0 h -3.384705 z m -3.593637,0 h -1.650566 z m -1.859499,0 h -1.546099 z m -1.755032,0 h -1.316274 z m -1.525206,0 -2.068432,0.020955 z m -2.25647,0.020955 H 8.0000001 Z M 24.631021,9.5 h -2.862374 z m -3.0922,0 h -3.0922 z m -3.301132,0 h -1.232701 z m -1.441634,0 h -2.904161 z m -3.092199,0 h -1.984859 z m -2.214684,0 h -0.793944 z m -1.002876,0 h -0.438758 z m -0.6685839,0 h -1.232701 z m 14.8133089,2 h -1.065556 z m -1.399847,0 h -3.948823 z m 1.399847,3 h -2.632548 z m -2.841481,0 h -2.820588 z m -3.02952,0 h -1.086449 z m -1.295381,0 h -2.653442 z m -2.862374,0 h -3.342919 z m -3.572745,0 H 9.7968191 Z m 13.601501,2 h -2.862374 z m -3.0922,0 h -3.0922 z m -3.301132,0 h -1.232701 z m -1.441634,0 h -2.904161 z m -3.092199,0 h -1.984859 z m -2.214684,0 h -0.793944 z m -1.002876,0 h -0.438758 z m -0.6685839,0 h -1.232701 z m 14.8133089,2 h -2.44451 z m -2.716122,0 h -1.170021 z m -1.378954,0 h -0.58501 z m -0.814836,0 h -1.065555 z m -1.295381,0 H 17.33928 Z m -1.295381,0 h -1.734139 z m -1.963965,0 h -2.25647 z m -2.465402,0 h -1.504314 z m -1.713247,0 h -0.376078 z m 13.643288,2.989525 h -2.06843 z m -2.277364,0 h -3.384705 z m -3.593637,0 h -1.650566 z m -1.859499,0 h -1.546099 z m -1.755032,0 h -1.316274 z m -1.525206,0 -2.068432,0.02095 z m -2.25647,0.02095 H 8.0000001 Z M 24.631021,23.5 h -2.590762 z m -2.820588,0 h -0.814836 z m -1.023769,0 h -1.859499 z m -2.06843,0 h -2.737016 z m -2.966842,0 h -1.859498 z m -2.047536,0 h -0.396972 z m -0.605905,0 h -2.360936 z m -2.611655,0 H 9.2535941 Z m 14.144725,2 h -2.590762 z m -2.820588,0 h -1.170021 z m -1.378953,0 h -1.838606 z m -2.047538,0 h -1.984858 z m -2.214684,0 h -0.793943 z m -1.002876,0 h -0.438758 z m -0.668584,0 h -1.232701 z"/><g id="g3297"><path id="path3410" fill="url(#linearGradient3273)" fill-opacity="1" fill-rule="evenodd" stroke="#83899a" stroke-dasharray="none" stroke-linecap="butt" stroke-linejoin="miter" stroke-miterlimit="4" stroke-opacity="1" stroke-width="1" d="m 13.5,30.5 15,-15 v 15 z m 6.999999,-3.000001 h 5 V 22.5 Z" opacity=".8"/><path id="path3424" fill="none" stroke="url(#linearGradient3166)" stroke-dasharray="none" stroke-linecap="butt" stroke-linejoin="miter" stroke-miterlimit="4" stroke-opacity="1" stroke-width="1" d="M 15.713203,29.538323 27.558515,17.693011 v 11.845312 z" opacity=".4"/></g></svg>