<svg xmlns="http://www.w3.org/2000/svg" xmlns:svg="http://www.w3.org/2000/svg" xmlns:xlink="http://www.w3.org/1999/xlink" id="svg3182" width="32" height="32" version="1.1"><defs id="defs3184"><linearGradient id="linearGradient3977"><stop id="stop3979" offset="0" stop-color="#fff" stop-opacity="1"/><stop id="stop3981" offset="0" stop-color="#fff" stop-opacity=".235"/><stop id="stop3983" offset="1" stop-color="#fff" stop-opacity=".157"/><stop id="stop3985" offset="1" stop-color="#fff" stop-opacity=".392"/></linearGradient><linearGradient id="linearGradient3600-4"><stop id="stop3602-7" offset="0" stop-color="#f4f4f4" stop-opacity="1"/><stop id="stop3604-6" offset="1" stop-color="#dbdbdb" stop-opacity="1"/></linearGradient><linearGradient id="linearGradient5060"><stop id="stop5062" offset="0" stop-color="#000" stop-opacity="1"/><stop id="stop5064" offset="1" stop-color="#000" stop-opacity="0"/></linearGradient><linearGradient id="linearGradient5048"><stop id="stop5050" offset="0" stop-color="#000" stop-opacity="0"/><stop id="stop5056" offset=".5" stop-color="#000" stop-opacity="1"/><stop id="stop5052" offset="1" stop-color="#000" stop-opacity="0"/></linearGradient><linearGradient id="linearGradient3013" x1="24" x2="24" y1="6.185" y2="41.815" gradientTransform="matrix(0.56756757,0,0,0.72972971,2.378382,-2.5135063)" gradientUnits="userSpaceOnUse" xlink:href="#linearGradient3977"/><linearGradient id="linearGradient3016" x1="25.132" x2="25.132" y1=".985" y2="47.013" gradientTransform="matrix(0.62856997,0,0,0.60839392,0.91431981,-0.5347905)" gradientUnits="userSpaceOnUse" xlink:href="#linearGradient3600-4"/><radialGradient id="radialGradient3021" cx="605.714" cy="486.648" r="117.143" fx="605.714" fy="486.648" gradientTransform="matrix(0.01566318,0,0,0.00823529,17.610433,25.980565)" gradientUnits="userSpaceOnUse" xlink:href="#linearGradient5060"/><radialGradient id="radialGradient3024" cx="605.714" cy="486.648" r="117.143" fx="605.714" fy="486.648" gradientTransform="matrix(-0.01566318,0,0,0.00823529,14.389566,25.980565)" gradientUnits="userSpaceOnUse" xlink:href="#linearGradient5060"/><linearGradient id="linearGradient3027" x1="302.857" x2="302.857" y1="366.648" y2="609.505" gradientTransform="matrix(0.04576928,0,0,0.00823529,-0.5423243,25.980548)" gradientUnits="userSpaceOnUse" xlink:href="#linearGradient5048"/><linearGradient id="linearGradient3104-6"><stop id="stop3106-3" offset="0" stop-color="#000" stop-opacity=".318"/><stop id="stop3108-9" offset="1" stop-color="#000" stop-opacity=".24"/></linearGradient><linearGradient id="linearGradient3148" x1="-51.786" x2="-51.786" y1="50.786" y2="2.906" gradientTransform="matrix(0.53064141,0,0,0.58970049,39.269607,-1.791918)" gradientUnits="userSpaceOnUse" xlink:href="#linearGradient3104-6"/></defs><metadata id="metadata3187"/><rect id="rect2879" width="22.1" height="2" x="4.95" y="29" fill="url(#linearGradient3027)" fill-opacity="1" fill-rule="nonzero" stroke="none" stroke-width="1" display="inline" opacity=".15" overflow="visible" visibility="visible" style="marker:none"/><path id="path2881" fill="url(#radialGradient3024)" fill-opacity="1" fill-rule="nonzero" stroke="none" stroke-width="1" d="m 4.9499887,29.000086 c 0,0 0,1.99989 0,1.99989 -0.806615,0.0038 -1.950002,-0.448074 -1.950002,-1.000074 0,-0.552 0.900121,-0.999816 1.950002,-0.999816 z" display="inline" opacity=".15" overflow="visible" visibility="visible" style="marker:none"/><path id="path2883" fill="url(#radialGradient3021)" fill-opacity="1" fill-rule="nonzero" stroke="none" stroke-width="1" d="m 27.050011,29.000086 c 0,0 0,1.99989 0,1.99989 0.806614,0.0038 1.950002,-0.448074 1.950002,-1.000074 0,-0.552 -0.900122,-0.999816 -1.950002,-0.999816 z" display="inline" opacity=".15" overflow="visible" visibility="visible" style="marker:none"/><path id="path4160-3" fill="url(#linearGradient3016)" fill-opacity="1" stroke="none" d="m 5,1 c 5.041316,0 21.999973,0.00179 21.999973,0.00179 L 27,29 C 27,29 12.333334,29 5,29 5,19.666667 5,10.333336 5,1.0000041 z" display="inline"/><path id="rect6741-1" fill="none" stroke="url(#linearGradient3013)" stroke-dasharray="none" stroke-dashoffset="0" stroke-linecap="round" stroke-linejoin="miter" stroke-miterlimit="4" stroke-opacity="1" stroke-width="1" d="m 26.5,28.5 -21,0 0,-27 21,0 z"/><path id="path4160-6-1" fill="none" stroke="url(#linearGradient3148)" stroke-dasharray="none" stroke-dashoffset="0" stroke-linecap="butt" stroke-linejoin="round" stroke-miterlimit="4" stroke-opacity="1" stroke-width="1" d="m 4.499961,0.499944 c 5.27048,0 23.000054,0.002 23.000054,0.002 l 2.4e-5,28.998112 c 0,0 -15.333385,0 -23.000078,0 0,-9.666722 0,-19.333346 0,-28.999956 z" display="inline"/><g id="g4141"><path id="path3475" fill="none" stroke="#7e8087" stroke-linecap="butt" stroke-linejoin="miter" stroke-opacity="1" stroke-width="1" d="m 16,5.5 2.59375,0 z m 2.802734,0 2.527344,0 z m 2.736328,0 L 24,5.5 Z M 16,7.4902344 l 1.277344,0 z m 1.486328,0 1.316406,0 z m 1.523438,0 2.070312,0.019531 z m 2.257812,0.019531 2.732422,0 z M 16,9.5 l 2.738281,0 z m 2.927734,0 1.984375,0 z m 2.214844,0 0.792969,0 z m 1.001953,0 0.439453,0 z M 22.8125,9.5 24,9.5 Z M 8,12.5 l 1.0664062,0 z m 1.4003906,0 3.9492184,0 z m 4.1992184,0 3.146485,0 z m 3.355469,0 3.384766,0 z m 3.59375,0 1.650391,0 z m 1.859375,0 1.546875,0 z M 8,14.5 l 2.632812,0 z m 2.841797,0 2.820312,0 z m 3.029297,0 1.085937,0 z m 1.294922,0 2.654296,0 z m 2.863281,0 3.341797,0 z m 3.572265,0 L 24,14.5 Z M 8,16.5 l 2.863281,0 z m 3.091797,0 3.091797,0 z m 3.300781,0 1.234375,0 z m 1.44336,0 2.902343,0 z m 3.091796,0 1.984375,0 z m 2.214844,0 0.792969,0 z m 1.001953,0 0.439453,0 z m 0.667969,0 1.1875,0 z M 8,18.5 l 2.445312,0 z m 2.716797,0 1.169922,0 z m 1.378906,0 0.583985,0 z m 0.814453,0 1.064453,0 z m 1.294922,0 1.085938,0 z m 1.294922,0 1.734375,0 z m 1.964844,0 2.255859,0 z m 2.464844,0 1.503906,0 z m 1.71289,0 L 24,18.5 Z M 8,21.490234 l 2.068359,0 z m 2.277344,0 3.384765,0 z m 3.59375,0 2.128906,0 z M 8,23.5 l 2.589844,0 z m 2.820312,0 0.814454,0 z m 1.023438,0 1.859375,0 z m 2.068359,0 L 16,23.5 Z M 8,25.5 l 2.589844,0 z m 2.820312,0 1.169922,0 z m 1.378907,0 1.839843,0 z m 2.048828,0 L 16,25.5 Z"/><path id="path3253" fill="#7e8087" fill-opacity="1" d="m 17.140476,25.372333 c 0.930979,-0.432878 1.904947,-0.887695 1.904947,-1.861661 0,-0.303013 -0.129863,-0.303013 -0.692599,-0.346301 -0.627667,-0.04328 -0.887691,-0.454517 -0.887691,-1.017253 0,-0.779173 0.497805,-1.147118 1.103828,-1.147118 0.909036,0 1.580292,0.800817 1.580292,1.904649 0,0.844403 -0.411232,1.709851 -1.147117,2.337821 C 18.504331,25.6537 18.093099,25.805206 17.400202,26 l -0.259726,-0.627667 z m 3.85288,0 c 0.93068,-0.432878 1.904648,-0.887695 1.904648,-1.861661 0,-0.303013 -0.129862,-0.303013 -0.692598,-0.346301 -0.62767,-0.04328 -0.887393,-0.454517 -0.887393,-1.017253 0,-0.779173 0.497805,-1.147118 1.103828,-1.147118 0.909037,0 1.579992,0.800817 1.579992,1.904649 0,0.844403 -0.41123,1.709851 -1.147116,2.337821 C 22.356911,25.6537 21.945681,25.805206 21.253081,26 l -0.259725,-0.627667 z"/><path id="path3255" fill="#7e8087" fill-opacity="1" d="M 11.008956,5.6277055 C 10.077921,6.0606045 9.103895,6.515152 9.103895,7.489176 c 0,0.3030315 0.12987,0.3030315 0.69264,0.346322 0.627705,0.04329 0.887747,0.4545445 0.887747,1.017317 C 10.684282,9.632033 10.186448,10 9.580386,10 8.671296,10 8,9.198833 8,8.094938 8,7.2507815 8.411254,6.38498 9.147185,5.7572745 9.645022,5.3463215 10.056577,5.194806 10.749218,5 l 0.259738,0.6277055 z m 3.853116,0 c -0.930736,0.432899 -1.904763,0.8874465 -1.904763,1.8614705 0,0.3030315 0.12987,0.3030315 0.692641,0.346322 0.627707,0.04329 0.887446,0.4545445 0.887446,1.017317 C 14.537396,9.632033 14.039561,10 13.433501,10 12.524409,10 11.853414,9.198833 11.853414,8.094938 c 0,-0.8441565 0.411254,-1.709958 1.147185,-2.3376635 C 13.498436,5.3463215 13.909691,5.194806 14.602331,5 l 0.259741,0.6277055 z"/></g></svg>