<svg xmlns="http://www.w3.org/2000/svg" xmlns:svg="http://www.w3.org/2000/svg" xmlns:xlink="http://www.w3.org/1999/xlink" id="svg3182" width="32" height="32" version="1.1"><defs id="defs3184"><linearGradient id="linearGradient3977"><stop id="stop3979" offset="0" stop-color="#fff" stop-opacity="1"/><stop id="stop3981" offset="0" stop-color="#fff" stop-opacity=".235"/><stop id="stop3983" offset="1" stop-color="#fff" stop-opacity=".157"/><stop id="stop3985" offset="1" stop-color="#fff" stop-opacity=".392"/></linearGradient><linearGradient id="linearGradient3600-4"><stop id="stop3602-7" offset="0" stop-color="#f4f4f4" stop-opacity="1"/><stop id="stop3604-6" offset="1" stop-color="#dbdbdb" stop-opacity="1"/></linearGradient><linearGradient id="linearGradient5060"><stop id="stop5062" offset="0" stop-color="#000" stop-opacity="1"/><stop id="stop5064" offset="1" stop-color="#000" stop-opacity="0"/></linearGradient><linearGradient id="linearGradient5048"><stop id="stop5050" offset="0" stop-color="#000" stop-opacity="0"/><stop id="stop5056" offset=".5" stop-color="#000" stop-opacity="1"/><stop id="stop5052" offset="1" stop-color="#000" stop-opacity="0"/></linearGradient><linearGradient id="linearGradient3013" x1="24" x2="24" y1="6.185" y2="41.815" gradientTransform="matrix(0.56756757,0,0,0.72972971,2.378382,-2.5135063)" gradientUnits="userSpaceOnUse" xlink:href="#linearGradient3977"/><linearGradient id="linearGradient3016" x1="25.132" x2="25.132" y1=".985" y2="47.013" gradientTransform="matrix(0.62856997,0,0,0.60839392,0.91431981,-0.5347905)" gradientUnits="userSpaceOnUse" xlink:href="#linearGradient3600-4"/><radialGradient id="radialGradient3021" cx="605.714" cy="486.648" r="117.143" fx="605.714" fy="486.648" gradientTransform="matrix(0.01566318,0,0,0.00823529,17.610433,25.980565)" gradientUnits="userSpaceOnUse" xlink:href="#linearGradient5060"/><radialGradient id="radialGradient3024" cx="605.714" cy="486.648" r="117.143" fx="605.714" fy="486.648" gradientTransform="matrix(-0.01566318,0,0,0.00823529,14.389566,25.980565)" gradientUnits="userSpaceOnUse" xlink:href="#linearGradient5060"/><linearGradient id="linearGradient3027" x1="302.857" x2="302.857" y1="366.648" y2="609.505" gradientTransform="matrix(0.04576928,0,0,0.00823529,-0.5423243,25.980548)" gradientUnits="userSpaceOnUse" xlink:href="#linearGradient5048"/><linearGradient id="linearGradient3104-6"><stop id="stop3106-3" offset="0" stop-color="#000" stop-opacity=".318"/><stop id="stop3108-9" offset="1" stop-color="#000" stop-opacity=".24"/></linearGradient><linearGradient id="linearGradient3148" x1="-51.786" x2="-51.786" y1="50.786" y2="2.906" gradientTransform="matrix(0.53064141,0,0,0.58970049,39.269607,-1.791918)" gradientUnits="userSpaceOnUse" xlink:href="#linearGradient3104-6"/><linearGradient id="linearGradient1108" x1="21.073" x2="21.073" y1="46.197" y2="1.417" gradientTransform="matrix(0.5,0,0,0.5,0,1.25e-5)" gradientUnits="userSpaceOnUse" xlink:href="#linearGradient1106"/><linearGradient id="linearGradient1106"><stop id="stop1102" offset="0" stop-color="#abacae" stop-opacity="1"/><stop id="stop1104" offset="1" stop-color="#d4d4d4" stop-opacity="1"/></linearGradient><linearGradient id="linearGradient917" x1="29.944" x2="29.944" y1=".575" y2="34.109" gradientTransform="matrix(0.5,0,0,0.5,0,1.25e-5)" gradientUnits="userSpaceOnUse" xlink:href="#linearGradient890"/><linearGradient id="linearGradient890"><stop id="stop886" offset="0" stop-color="#64baff" stop-opacity="1"/><stop id="stop888" offset="1" stop-color="#3689e6" stop-opacity="1"/></linearGradient><linearGradient id="linearGradient3273" x1="42.784" x2="38.972" y1="32.537" y2="18.124" gradientTransform="matrix(1,0,0,-1,-16.999999,48.999999)" gradientUnits="userSpaceOnUse" xlink:href="#linearGradient3412"/><linearGradient id="linearGradient3412"><stop id="stop3414" offset="0" stop-color="#fcfcfc" stop-opacity="1"/><stop id="stop3416" offset="1" stop-color="#cbcdd9" stop-opacity="1"/></linearGradient><linearGradient id="linearGradient3182" x1="40.106" x2="33.811" y1="31.657" y2="18.354" gradientTransform="matrix(0.99749995,0,0,-0.99749995,-16.923748,48.896056)" gradientUnits="userSpaceOnUse" xlink:href="#linearGradient3428"/><linearGradient id="linearGradient3428"><stop id="stop3430" offset="0" stop-color="#fff" stop-opacity="1"/><stop id="stop3432" offset="1" stop-color="#fff" stop-opacity="0"/></linearGradient></defs><metadata id="metadata3187"/><rect id="rect2879" width="22.1" height="2" x="4.95" y="29" fill="url(#linearGradient3027)" fill-opacity="1" fill-rule="nonzero" stroke="none" stroke-width="1" display="inline" opacity=".15" overflow="visible" visibility="visible" style="marker:none"/><path id="path2881" fill="url(#radialGradient3024)" fill-opacity="1" fill-rule="nonzero" stroke="none" stroke-width="1" d="m 4.9499887,29.000086 c 0,0 0,1.99989 0,1.99989 -0.806615,0.0038 -1.950002,-0.448074 -1.950002,-1.000074 0,-0.552 0.900121,-0.999816 1.950002,-0.999816 z" display="inline" opacity=".15" overflow="visible" visibility="visible" style="marker:none"/><path id="path2883" fill="url(#radialGradient3021)" fill-opacity="1" fill-rule="nonzero" stroke="none" stroke-width="1" d="m 27.050011,29.000086 c 0,0 0,1.99989 0,1.99989 0.806614,0.0038 1.950002,-0.448074 1.950002,-1.000074 0,-0.552 -0.900122,-0.999816 -1.950002,-0.999816 z" display="inline" opacity=".15" overflow="visible" visibility="visible" style="marker:none"/><path id="path4160-3" fill="url(#linearGradient3016)" fill-opacity="1" stroke="none" d="m 5,1 c 5.041316,0 21.999973,0.00179 21.999973,0.00179 L 27,29 C 27,29 12.333334,29 5,29 5,19.666667 5,10.333336 5,1.0000041 z" display="inline"/><path id="rect6741-1" fill="none" stroke="url(#linearGradient3013)" stroke-dasharray="none" stroke-dashoffset="0" stroke-linecap="round" stroke-linejoin="miter" stroke-miterlimit="4" stroke-opacity="1" stroke-width="1" d="m 26.5,28.5 -21,0 0,-27 21,0 z"/><path id="path4160-6-1" fill="none" stroke="url(#linearGradient3148)" stroke-dasharray="none" stroke-dashoffset="0" stroke-linecap="butt" stroke-linejoin="round" stroke-miterlimit="4" stroke-opacity="1" stroke-width="1" d="m 4.499961,0.499944 c 5.27048,0 23.000054,0.002 23.000054,0.002 l 2.4e-5,28.998112 c 0,0 -15.333385,0 -23.000078,0 0,-9.666722 0,-19.333346 0,-28.999956 z" display="inline"/><path id="rect1016" fill="url(#linearGradient1108)" fill-opacity="1" stroke="none" stroke-dasharray="none" stroke-dashoffset="0" stroke-linecap="butt" stroke-linejoin="round" stroke-miterlimit="4" stroke-opacity="1" stroke-width="1" d="m 9,13.000013 h 8 c 0.554,0 1,0.446 1,1 v 7.999999 c 0,0.554 -0.446,1 -1,1 H 9 c -0.554,0 -1,-0.446 -1,-1 v -7.999999 c 0,-0.554 0.446,-1 1,-1 z" opacity="1" vector-effect="none" style="font-variation-settings:normal;marker:none"/><path id="path1033" fill="#555761" fill-opacity="1" stroke="none" stroke-dasharray="none" stroke-dashoffset="0" stroke-linecap="butt" stroke-linejoin="round" stroke-miterlimit="4" stroke-opacity="1" stroke-width="1" d="m 11.883769,14.48211 a 0.15765344,0.15850376 0 0 0 -0.151968,0.145843 c -0.0022,0.02665 -0.01056,0.104845 -0.02368,0.226204 -0.02359,0.192556 -0.042,0.357087 -0.05526,0.493089 a 0.15765344,0.15850376 0 0 0 0,10e-4 l -0.02368,0.253985 a 0.15765344,0.15850376 0 0 0 0,10e-4 l -0.0039,0.03969 c -0.253931,0.01525 -0.512917,0.0258 -0.786484,0.0258 -0.211935,0 -0.426974,-0.0072 -0.644384,-0.02282 a 0.15765344,0.15850376 0 0 0 -0.167757,0.171638 l 0.05131,0.567497 A 0.15765344,0.15850376 0 0 0 10.225,16.52889 c 0.08972,0.0056 0.205284,0.0089 0.349329,0.0089 0.313505,0 0.646513,-0.0177 0.985819,-0.04068 -0.02778,0.363293 -0.04918,0.7018 -0.05723,0.997088 -0.225913,0.126726 -0.427003,0.246429 -0.57136,0.352206 a 0.15765344,0.15850376 0 0 0 -0.002,0.001 c -0.838144,0.635407 -1.282847,1.37747 -1.282847,2.198555 0,0.304335 0.06463,0.556596 0.218084,0.737152 0.153449,0.180554 0.387987,0.266881 0.658199,0.266881 0.37237,0 0.757623,-0.152704 1.150615,-0.393874 0.01883,0.116996 0.04413,0.27243 0.0523,0.318472 a 0.15765344,0.15850376 0 0 0 0.210189,0.12104 l 0.584189,-0.218268 a 0.15765344,0.15850376 0 0 0 0.09671,-0.189496 c -0.06039,-0.228842 -0.09709,-0.448497 -0.121378,-0.662742 0.637833,-0.621117 1.152314,-1.397776 1.555205,-2.312649 0.273958,0.04315 0.511145,0.117719 0.700632,0.234141 a 0.15765344,0.15850376 0 0 0 0.001,10e-4 c 0.430863,0.260398 0.625635,0.602475 0.625635,1.090349 0,0.472614 -0.211655,0.831332 -0.683856,1.12805 -0.369463,0.233696 -0.877918,0.390643 -1.527575,0.460347 a 0.15765344,0.15850376 0 0 0 -0.11546,0.244062 l 0.347355,0.539719 a 0.15765344,0.15850376 0 0 0 0.153942,0.07044 c 0.778048,-0.110975 1.402769,-0.334004 1.868022,-0.680599 0.592714,-0.442037 0.904901,-1.04272 0.904901,-1.754082 0,-0.646924 -0.261116,-1.194748 -0.761814,-1.596334 a 0.15765344,0.15850376 0 0 0 -0.002,-0.001 c -0.316415,-0.246901 -0.738015,-0.395833 -1.229509,-0.481181 0.02913,-0.0889 0.06588,-0.192947 0.07894,-0.252993 A 0.15765344,0.15850376 0 0 0 14.292625,16.52592 l -0.596031,-0.138898 a 0.15765344,0.15850376 0 0 0 -0.18848,0.116079 c -0.04266,0.169418 -0.08052,0.300805 -0.11743,0.424631 -0.35945,0.03888 -0.681197,0.105167 -0.974964,0.192472 0.01029,-0.243943 0.02358,-0.47951 0.04441,-0.696473 0.827696,-0.09079 1.601856,-0.222774 2.313072,-0.402804 a 0.15765344,0.15850376 0 0 0 0.11839,-0.171589 l -0.06316,-0.559561 a 0.15765344,0.15850376 0 0 0 -0.198349,-0.134929 c -0.694942,0.191422 -1.389844,0.321581 -2.084133,0.405781 0.02827,-0.264835 0.05834,-0.53784 0.09868,-0.860175 a 0.15765344,0.15850376 0 0 0 -0.146046,-0.177591 l -0.599978,-0.03968 a 0.15765344,0.15850376 0 0 0 -0.0148,-0.001 z m 1.151602,3.295849 c -0.183849,0.383936 -0.395794,0.731297 -0.633529,1.045702 -0.0097,-0.260029 -0.01953,-0.513301 -0.02073,-0.868112 0.208559,-0.08027 0.431216,-0.129178 0.654253,-0.17759 z m -1.531522,0.692505 c 0.01056,0.468867 0.02564,0.907101 0.05427,1.239167 -0.346671,0.30538 -0.658844,0.455388 -0.928584,0.455388 -0.04824,0 -0.05322,-0.0074 -0.05723,-0.01191 -0.004,-0.0045 -0.01777,-0.02759 -0.01777,-0.09127 0,-0.03437 -0.0065,-0.06724 -0.01283,-0.100204 0.004,-0.02555 0.01283,-0.05241 0.01283,-0.07838 l -10e-4,0.01191 c 0.02774,-0.36027 0.229757,-0.746778 0.634517,-1.158806 a 0.15765344,0.15850376 0 0 0 0.002,-0.002 c 0.110692,-0.117224 0.210057,-0.180752 0.313803,-0.263906 z" font-family="Open Sans" font-size="16" font-stretch="normal" font-style="normal" font-variant="normal" font-weight="bold" letter-spacing="0" opacity="1" vector-effect="none" word-spacing="0" style="line-height:1.25;-inkscape-font-specification:'Open Sans Bold';font-variation-settings:normal;marker:none"/><path id="path4" fill="url(#linearGradient917)" fill-opacity="1" stroke="none" stroke-dasharray="none" stroke-dashoffset="0" stroke-linecap="butt" stroke-linejoin="round" stroke-miterlimit="4" stroke-opacity="1" stroke-width="1" d="m 15,6.9999875 c -0.554,0 -1,0.446 -1,1 v 8.0000005 c 0,0.554 0.446,0.999999 1,0.999999 h 8 c 0.554,0 1,-0.445999 1,-0.999999 V 7.9999875 c 0,-0.554 -0.446,-1 -1,-1 z" color="#000" opacity="1" vector-effect="none" style="font-variation-settings:normal;marker:none"/><path id="path1020" fill="#fff" fill-opacity="1" stroke="none" stroke-dasharray="none" stroke-dashoffset="0" stroke-linecap="butt" stroke-linejoin="round" stroke-miterlimit="4" stroke-opacity="1" stroke-width="1" d="m 18.46875,9.0000125 -2.235352,6.0000005 h 1.029297 l 0.620117,-1.799805 h 2.216797 l 0.62793,1.799805 h 1.040039 L 19.53125,9.0000125 Z M 19,9.990247 19.894531,12.599622 H 18.08789 Z" color="#000" opacity="1" vector-effect="none" style="font-variation-settings:normal;marker:none"/><path id="path3410" fill="url(#linearGradient3273)" fill-opacity="1" fill-rule="evenodd" stroke="#83899a" stroke-dasharray="none" stroke-linecap="butt" stroke-linejoin="miter" stroke-miterlimit="4" stroke-opacity="1" stroke-width="1" d="m 13.5,30.5 15,-15 v 15 z m 6.999999,-3.000001 h 5 V 22.5 Z" opacity=".8"/><path id="path3424" fill="none" stroke="url(#linearGradient3182)" stroke-dasharray="none" stroke-linecap="butt" stroke-linejoin="miter" stroke-miterlimit="4" stroke-opacity="1" stroke-width="1" d="M 15.713203,29.538323 27.558515,17.693011 v 11.845312 z" opacity=".4"/></svg>