<svg xmlns="http://www.w3.org/2000/svg" xmlns:svg="http://www.w3.org/2000/svg" xmlns:xlink="http://www.w3.org/1999/xlink" id="svg3005" width="32" height="32" version="1.1"><defs id="defs3007"><linearGradient id="linearGradient869"><stop id="stop865" offset="0" stop-color="#d4d4d4" stop-opacity="1"/><stop id="stop867" offset="1" stop-color="#abacae" stop-opacity="1"/></linearGradient><linearGradient id="linearGradient3855-7" x1="11.566" x2="15.215" y1="22.292" y2="33.955" gradientTransform="matrix(0.64444615,0,0,0.64444615,2.4537238,-1.478483)" gradientUnits="userSpaceOnUse" xlink:href="#linearGradient8265-821-176-38-919-66-249-291"/><linearGradient id="linearGradient8265-821-176-38-919-66-249-291"><stop id="stop2896" offset="0" stop-color="#fff" stop-opacity=".275"/><stop id="stop2898" offset="1" stop-color="#fff" stop-opacity="0"/></linearGradient><linearGradient id="linearGradient8838-277"><stop id="stop2868" offset="0" stop-color="#000" stop-opacity="1"/><stop id="stop2870" offset="1" stop-color="#000" stop-opacity="0"/></linearGradient><radialGradient id="radialGradient3003" cx="62.625" cy="4.625" r="10.625" fx="62.625" fy="4.625" gradientTransform="matrix(1.4117648,0,0,0.56470513,-72.411731,23.388235)" gradientUnits="userSpaceOnUse" xlink:href="#linearGradient8838-277"/><linearGradient id="linearGradient3841" x1="29.647" x2="29.647" y1="2" y2="43.444" gradientTransform="matrix(0.64444615,0,0,0.64444615,0.5333307,0.5332559)" gradientUnits="userSpaceOnUse" xlink:href="#linearGradient3881"/><linearGradient id="linearGradient3881"><stop id="stop3883" offset="0" stop-color="#fff" stop-opacity="1"/><stop id="stop3885" offset=".334" stop-color="#fff" stop-opacity=".235"/><stop id="stop3887" offset=".679" stop-color="#fff" stop-opacity=".157"/><stop id="stop3889" offset="1" stop-color="#fff" stop-opacity=".392"/></linearGradient><linearGradient id="linearGradient871" x1="15.947" x2="15.947" y1=".956" y2="29.664" gradientUnits="userSpaceOnUse" xlink:href="#linearGradient869"/></defs><metadata id="metadata3010"/><path d="m 31.000038,25.999999 c 0,3.313709 -6.715729,6.000001 -15,6.000001 C 7.7157681,32 1.0000383,29.313708 1.0000383,25.999999 1.0000383,22.686292 7.7157681,20 16.000038,20 c 8.284271,0 15,2.686292 15,5.999999 z" style="marker:none" id="path8836" fill="url(#radialGradient3003)" fill-opacity="1" fill-rule="evenodd" stroke="none" stroke-width="1" display="inline" opacity=".3" overflow="visible" visibility="visible"/><path id="path1307" fill="url(#linearGradient871)" fill-opacity="1" fill-rule="nonzero" stroke="#555761" stroke-dasharray="none" stroke-dashoffset="0" stroke-linecap="butt" stroke-linejoin="round" stroke-miterlimit="4" stroke-opacity=".498" stroke-width=".992" d="m 16.000037,1.4974327 c 0.978784,0 4.13436,7.910881 4.926214,8.488271 0.791851,0.5773873 9.263652,1.1447403 9.566113,2.0789733 0.302461,0.934234 -6.219087,6.39078 -6.521548,7.325013 -0.30246,0.934233 1.777824,9.195756 0.985972,9.773145 -0.791853,0.577387 -7.977967,-3.961163 -8.956752,-3.961163 -0.978783,0 -8.1648972,4.53855 -8.9567501,3.961163 C 6.251434,28.585446 8.331718,20.323922 8.0292575,19.38969 7.7267971,18.455457 1.2052494,12.99891 1.5077102,12.064675 1.810171,11.130444 10.281971,10.563091 11.073825,9.9857037 c 0.791852,-0.57739 3.947429,-8.488271 4.926212,-8.488271 z" display="inline" overflow="visible" visibility="visible" style="marker:none"/><path id="path3853" fill="url(#linearGradient3855-7)" fill-opacity="1" fill-rule="nonzero" stroke="none" stroke-width="1" d="m 16.008597,2.241404 c -0.254446,0.374093 -2.346828,3.472786 -4.375,8.25 a 0.20608164,0.20608164 0 0 1 -0.03125,0.03125 0.20608164,0.20608164 0 0 1 -0.09375,0.0625 0.20608164,0.20608164 0 0 1 -0.03125,0.03125 c -3.0053008,0.490049 -7.0029861,1.038743 -9.3125002,1.6875 1.5783275,2.00052 3.5604578,3.737007 5.34375,5.5625 l 20.2500002,-3.59375 c 0.582787,-0.584147 1.71282,-1.713072 2,-2 -2.871985,-0.776885 -6.239483,-1.134102 -9.25,-1.625 a 0.20608164,0.20608164 0 0 1 -0.03125,-0.03125 0.20608164,0.20608164 0 0 1 -0.09375,-0.0625 0.20608164,0.20608164 0 0 1 -0.03125,-0.03125 C 18.827185,6.981785 16.296053,2.721672 16.008597,2.241404 Z" display="inline" enable-background="accumulate" opacity=".8" overflow="visible" visibility="visible" style="marker:none"/><path stroke-opacity="1" style="marker:none" id="path3849" fill="none" stroke="url(#linearGradient3841)" stroke-dasharray="none" stroke-dashoffset="0" stroke-linecap="butt" stroke-linejoin="round" stroke-miterlimit="4" stroke-width="1" d="m 16.008597,2.928904 c -1.412439,2.674148 -2.696301,5.432298 -4.168399,8.065176 -2.9741416,0.571623 -5.9951175,1.01272 -8.9878512,1.528574 2.068776,2.127369 4.1154729,4.286762 6.1689248,6.422463 -0.027883,1.120075 -0.3297428,2.255067 -0.4115096,3.383432 -0.2151051,1.763357 -0.4094732,3.879237 -0.6636652,5.637582 2.6703322,-1.317263 5.3192342,-2.753549 8.0028352,-4.033221 2.889137,1.162973 5.624472,2.788167 8.207491,4.091509 -0.404423,-2.843686 -0.92157,-6.105122 -1.297355,-8.947299 0.677523,-0.936651 1.653369,-1.671505 2.415879,-2.553298 1.294961,-1.335342 2.582496,-2.677954 3.8899,-4.001168 C 26.202411,11.826315 23.141566,11.581333 20.170798,10.994151 19.464002,9.967625 19.007366,8.751401 18.398572,7.654132 17.60478,6.077613 16.818147,4.497431 16.008597,2.928904 Z" display="inline" opacity=".4" overflow="visible" visibility="visible"/></svg>