<svg xmlns="http://www.w3.org/2000/svg" xmlns:svg="http://www.w3.org/2000/svg" xmlns:xlink="http://www.w3.org/1999/xlink" id="svg16661" width="32" height="32" version="1.1"><defs id="defs16663"><linearGradient id="linearGradient15509" x1="27.557" x2="27.557" y1="7.163" y2="21.387" gradientTransform="matrix(0.89186139,0,0,1.0539115,3.1208294,5.412539)" gradientUnits="userSpaceOnUse" xlink:href="#linearGradient3454-2-5-0-3-4"/><linearGradient id="linearGradient3454-2-5-0-3-4"><stop id="stop3456-4-9-38-1-8" offset="0" stop-color="#fff" stop-opacity="1"/><stop id="stop3458-39-80-3-5-5" offset=".01" stop-color="#fff" stop-opacity=".235"/><stop id="stop3460-7-0-2-4-2" offset=".99" stop-color="#fff" stop-opacity=".157"/><stop id="stop3462-0-9-8-7-2" offset="1" stop-color="#fff" stop-opacity=".392"/></linearGradient><linearGradient id="linearGradient15513" x1="22.935" x2="22.809" y1="49.629" y2="36.658" gradientTransform="matrix(0.7467531,0,0,0.6554922,-1.9218906,1.167619)" gradientUnits="userSpaceOnUse" xlink:href="#linearGradient6129-963-697-142-998-580-273-5"/><linearGradient id="linearGradient6129-963-697-142-998-580-273-5"><stop id="stop2661-1" offset="0" stop-color="#0a0a0a" stop-opacity=".498"/><stop id="stop2663-85" offset="1" stop-color="#0a0a0a" stop-opacity="0"/></linearGradient><linearGradient id="linearGradient15517" x1="35.793" x2="35.793" y1="17.118" y2="43.761" gradientTransform="matrix(0.64444432,0,0,0.64285702,0.53351936,0.89285905)" gradientUnits="userSpaceOnUse" xlink:href="#linearGradient4632-0-6-4-3-4"/><linearGradient id="linearGradient4632-0-6-4-3-4"><stop id="stop4634-4-4-7-7-4" offset="0" stop-color="#b4cee1" stop-opacity="1"/><stop id="stop4636-3-1-5-1-3" offset="1" stop-color="#5d9fcd" stop-opacity="1"/></linearGradient><linearGradient id="linearGradient15527" x1="302.857" x2="302.857" y1="366.648" y2="609.505" gradientTransform="matrix(0.05114282,0,0,0.01591575,-2.4899573,22.29927)" gradientUnits="userSpaceOnUse" xlink:href="#linearGradient5048-585-0"/><linearGradient id="linearGradient5048-585-0"><stop id="stop2667-18" offset="0" stop-color="#000" stop-opacity="0"/><stop id="stop2669-9" offset=".5" stop-color="#000" stop-opacity="1"/><stop id="stop2671-33" offset="1" stop-color="#000" stop-opacity="0"/></linearGradient><radialGradient id="radialGradient15529" cx="605.714" cy="486.648" r="117.143" fx="605.714" fy="486.648" gradientTransform="matrix(0.01983573,0,0,0.01591575,16.38765,22.29927)" gradientUnits="userSpaceOnUse" xlink:href="#linearGradient5060-179-67"/><linearGradient id="linearGradient5060-179-67"><stop id="stop2675-81" offset="0" stop-color="#000" stop-opacity="1"/><stop id="stop2677-2" offset="1" stop-color="#000" stop-opacity="0"/></linearGradient><radialGradient id="radialGradient15531" cx="605.714" cy="486.648" r="117.143" fx="605.714" fy="486.648" gradientTransform="matrix(-0.01983573,0,0,0.01591575,15.60139,22.29927)" gradientUnits="userSpaceOnUse" xlink:href="#linearGradient5060-820-4"/><linearGradient id="linearGradient5060-820-4"><stop id="stop2681-5" offset="0" stop-color="#000" stop-opacity="1"/><stop id="stop2683-00" offset="1" stop-color="#000" stop-opacity="0"/></linearGradient><linearGradient id="linearGradient15535" x1="21.37" x2="21.37" y1="4.732" y2="34.143" gradientTransform="matrix(0.54383556,0,0,0.61466406,3.2688794,5.091139)" gradientUnits="userSpaceOnUse" xlink:href="#linearGradient4325"/><linearGradient id="linearGradient4325"><stop id="stop4327" offset="0" stop-color="#fff" stop-opacity="1"/><stop id="stop4329" offset=".111" stop-color="#fff" stop-opacity=".235"/><stop id="stop4331" offset=".99" stop-color="#fff" stop-opacity=".157"/><stop id="stop4333" offset="1" stop-color="#fff" stop-opacity=".392"/></linearGradient><linearGradient id="linearGradient15539" x1="62.989" x2="62.989" y1="13" y2="16" gradientTransform="matrix(0.61904762,0,0,0.61904762,-30.391811,1.428569)" gradientUnits="userSpaceOnUse" xlink:href="#linearGradient4646-7-4-3-5"/><linearGradient id="linearGradient4646-7-4-3-5"><stop id="stop4648-8-0-3-6" offset="0" stop-color="#f9f9f9" stop-opacity="1"/><stop id="stop4650-1-7-3-4" offset="1" stop-color="#d8d8d8" stop-opacity="1"/></linearGradient><linearGradient id="linearGradient3104-8-8-97-4-6-11-5-5-0"><stop id="stop3106-5-4-3-5-0-2-1-0-6" offset="0" stop-color="#000" stop-opacity=".322"/><stop id="stop3108-4-3-7-8-2-0-7-9-1" offset="1" stop-color="#000" stop-opacity=".278"/></linearGradient><linearGradient id="linearGradient16659" x1="-51.786" x2="-51.786" y1="53.514" y2="3.634" gradientTransform="matrix(0.50703384,0,0,0.50300255,68.029219,1.329769)" gradientUnits="userSpaceOnUse" xlink:href="#linearGradient3104-8-8-97-4-6-11-5-5-0"/></defs><metadata id="metadata16666"/><g id="layer1"><path id="use8279" fill="none" stroke="url(#linearGradient16659)" stroke-dasharray="none" stroke-dashoffset="0" stroke-linecap="butt" stroke-linejoin="miter" stroke-miterlimit="4" stroke-opacity="1" stroke-width="1" d="m 4.0001794,6.500079 c -0.43342,0.005 -0.5,0.21723 -0.5,0.6349 l 0,1.36502 c -1.24568,0 -1,-0.002 -1,0.54389 0.0216,6.533131 0,6.901431 0,7.45611 0.90135,0 26.9999996,-2.34895 26.9999996,-3.36005 l 0,-4.09606 c 0,-0.41767 -0.34799,-0.54876 -0.78141,-0.54389 l -14.21859,0 0,-1.36502 c 0,-0.41767 -0.26424,-0.63977 -0.69767,-0.6349 l -9.8023296,0 z" color="#000" display="inline" enable-background="accumulate" opacity=".8" overflow="visible" visibility="visible" style="marker:none"/><path d="m 4.0001794,6.999999 0,2 -1,0 0,4 25.9999996,0 0,-4 -15,0 0,-2 -9.9999996,0 z" style="marker:none" id="use8281" fill="url(#linearGradient15539)" fill-opacity="1" fill-rule="nonzero" stroke="none" stroke-width="1" color="#000" display="inline" enable-background="accumulate" overflow="visible" visibility="visible"/><path id="use8283" fill="none" stroke="url(#linearGradient15535)" stroke-dasharray="none" stroke-dashoffset="0" stroke-linecap="round" stroke-linejoin="miter" stroke-miterlimit="4" stroke-opacity="1" stroke-width="1" d="m 4.5001794,7.499999 0,2 -1,0 0,4 24.9999996,0 0,-4 -15,0 0,-2 -8.9999996,0 z" color="#000" display="inline" enable-background="accumulate" overflow="visible" visibility="visible" style="marker:none"/><g id="use8285" transform="translate(1.7935663e-4,-1.000001)"><rect id="rect15521" width="24.695" height="3.865" x="3.647" y="28.135" fill="url(#linearGradient15527)" fill-opacity="1" fill-rule="nonzero" stroke="none" stroke-width="1" display="inline" opacity=".3" overflow="visible" visibility="visible" style="marker:none"/><path id="path15523" fill="url(#radialGradient15529)" fill-opacity="1" fill-rule="nonzero" stroke="none" stroke-width="1" d="m 28.341859,28.13488 c 0,0 0,3.865041 0,3.865041 1.021491,0.0073 2.469468,-0.86596 2.469468,-1.932769 0,-1.06681 -1.139908,-1.932272 -2.469468,-1.932272 z" display="inline" opacity=".3" overflow="visible" visibility="visible" style="marker:none"/><path id="path15525" fill="url(#radialGradient15531)" fill-opacity="1" fill-rule="nonzero" stroke="none" stroke-width="1" d="m 3.6471816,28.13488 c 0,0 0,3.865041 0,3.865041 -1.0214912,0.0073 -2.4694678,-0.86596 -2.4694678,-1.932769 0,-1.06681 1.1399068,-1.932272 2.4694678,-1.932272 z" display="inline" opacity=".3" overflow="visible" visibility="visible" style="marker:none"/></g><path d="m 1.9270194,11.499999 c -0.69105,0.0796 -0.32196,0.90258 -0.37705,1.36535 0.0802,0.29906 0.59771,15.71799 0.59771,16.24744 0,0.46018 0.22667,0.38222 0.80101,0.38222 8.4993996,0 17.8980796,0 26.3974796,0 0.61872,0.0143 0.48796,0.007 0.48796,-0.38947 0.0452,-0.20269 0.63993,-16.97848 0.66282,-17.24344 0,-0.279 0.0581,-0.3621 -0.30493,-0.3621 -9.0765,0 -19.18849,0 -28.2649996,0 z" style="marker:none" id="use8287" fill="url(#linearGradient15517)" fill-opacity="1" fill-rule="nonzero" stroke="none" stroke-width="1" color="#000" display="inline" enable-background="accumulate" overflow="visible" visibility="visible"/><path id="use8289" fill="url(#linearGradient15513)" fill-opacity="1" stroke="none" d="m 1.6819994,10.999999 28.6363696,2.7e-4 c 0.4137,0 0.68181,0.29209 0.68181,0.65523 l -0.6735,17.71211 c 0.01,0.45948 -0.1364,0.64166 -0.61707,0.63203 l -27.2561296,-0.0115 c -0.4137,0 -0.83086,-0.27118 -0.83086,-0.63432 l -0.62244,-17.69829 c 0,-0.36314 0.26812,-0.65549 0.68182,-0.65549 z" opacity=".4"/><path id="use8291" fill="none" stroke="url(#linearGradient15509)" stroke-dasharray="none" stroke-dashoffset="0" stroke-linecap="round" stroke-linejoin="miter" stroke-miterlimit="4" stroke-opacity="1" stroke-width="1" d="m 2.5001794,12.499999 0.62498,16 25.7491696,0 0.62498,-16 z" color="#000" display="inline" enable-background="accumulate" opacity=".5" overflow="visible" visibility="visible" style="marker:none"/><g id="g3294-2-5-8-6" fill="#fff" fill-opacity="1" fill-rule="nonzero" stroke="none" stroke-width="4.781" color="#000" display="inline" opacity=".3" transform="matrix(0.16369539,0,0,0.19305379,2.7444994,16.659159)" visibility="visible" style="marker:none"><path d="m 77.5703,6.9454345 c -11.317079,0 -20.630635,6.3193555 -21.648617,15.5397085 l -5.489571,0 8.107675,8.633172 8.107674,-8.633172 -5.29251,0 c 1.001307,-6.722239 7.890308,-11.035445 16.215349,-11.035445 9.013029,0 16.327956,6.104178 16.327956,13.625397 -3e-6,7.521219 -7.314924,13.625398 -16.327956,13.625398 -4.889999,0 -9.280846,-1.799942 -12.274118,-4.645022 L 61.3268,37.124 c 3.98185,3.735752 9.784188,6.080755 16.2435,6.080756 11.996656,0 21.733071,-8.122088 21.733072,-18.129661 0,-10.007573 -9.736418,-18.1296605 -21.733072,-18.1296605 z" style="marker:none" id="path2504-1-2-6-6" fill="#fff" fill-opacity="1" fill-rule="nonzero" stroke="none" stroke-width="4.781" color="#000" display="inline" enable-background="accumulate" overflow="visible" visibility="visible"/><path d="m 78.940345,13.851971 -2.036302,0 -2.036301,12.086441 10.18151,6.906538 2e-6,-1.726635 -6.108907,-6.906537 -2e-6,-10.359807 z" style="marker:none" id="path3288-4-0-9-8" fill="#fff" fill-opacity="1" fill-rule="nonzero" stroke="none" stroke-width="4.781" color="#000" display="inline" enable-background="accumulate" overflow="visible" visibility="visible"/></g><g id="g3294-2-5-8" fill="#175785" fill-opacity=".552" fill-rule="nonzero" stroke="none" stroke-width="4.781" color="#000" display="inline" transform="matrix(0.16369539,0,0,0.19305379,2.7444994,15.65916)" visibility="visible" style="marker:none"><path d="m 77.5703,6.9454345 c -11.317079,0 -20.630635,6.3193555 -21.648617,15.5397085 l -5.489571,0 8.107675,8.633172 8.107674,-8.633172 -5.29251,0 c 1.001307,-6.722239 7.890308,-11.035445 16.215349,-11.035445 9.013029,0 16.327956,6.104178 16.327956,13.625397 -3e-6,7.521219 -7.314924,13.625398 -16.327956,13.625398 -4.889999,0 -9.280846,-1.799942 -12.274118,-4.645022 L 61.3268,37.124 c 3.98185,3.735752 9.784188,6.080755 16.2435,6.080756 11.996656,0 21.733071,-8.122088 21.733072,-18.129661 0,-10.007573 -9.736418,-18.1296605 -21.733072,-18.1296605 z" style="marker:none" id="path2504-1-2-6" fill="#175785" fill-opacity=".552" fill-rule="nonzero" stroke="none" stroke-width="4.781" color="#000" display="inline" enable-background="accumulate" overflow="visible" visibility="visible"/><path d="m 78.940345,13.851971 -2.036302,0 -2.036301,12.086441 10.18151,6.906538 2e-6,-1.726635 -6.108907,-6.906537 -2e-6,-10.359807 z" style="marker:none" id="path3288-4-0-9" fill="#175785" fill-opacity=".552" fill-rule="nonzero" stroke="none" stroke-width="4.781" color="#000" display="inline" enable-background="accumulate" overflow="visible" visibility="visible"/></g><path id="path3388-5-4" fill="none" stroke="#000" stroke-dasharray="none" stroke-dashoffset="0" stroke-linecap="round" stroke-linejoin="round" stroke-miterlimit="4" stroke-opacity="1" stroke-width="1" d="m 1.9270194,11.499998 c -0.69105,0.0796 -0.32196,0.90258 -0.37705,1.36535 0.0802,0.29906 0.59771,15.717991 0.59771,16.247441 0,0.46018 0.22667,0.38222 0.80101,0.38222 8.4993996,0 17.8980796,0 26.3974796,0 0.61872,0.0143 0.48796,0.007 0.48796,-0.38947 0.0452,-0.20269 0.63993,-16.978481 0.66282,-17.243441 0,-0.279 0.0581,-0.3621 -0.30493,-0.3621 -9.0765,0 -19.18849,0 -28.2649996,0 z" color="#000" display="inline" enable-background="accumulate" opacity=".3" overflow="visible" visibility="visible" style="marker:none"/></g></svg>