<svg xmlns="http://www.w3.org/2000/svg" xmlns:svg="http://www.w3.org/2000/svg" xmlns:xlink="http://www.w3.org/1999/xlink" id="svg17313" width="32" height="32" version="1.1"><defs id="defs17315"><linearGradient id="linearGradient8576" x1="27.557" x2="27.557" y1="7.163" y2="21.387" gradientTransform="matrix(0.89186139,0,0,0.86792712,3.12074,9.575029)" gradientUnits="userSpaceOnUse" xlink:href="#linearGradient3454-2-5-0-3-4"/><linearGradient id="linearGradient3454-2-5-0-3-4"><stop id="stop3456-4-9-38-1-8" offset="0" stop-color="#fff" stop-opacity="1"/><stop id="stop3458-39-80-3-5-5" offset=".01" stop-color="#fff" stop-opacity=".235"/><stop id="stop3460-7-0-2-4-2" offset=".99" stop-color="#fff" stop-opacity=".157"/><stop id="stop3462-0-9-8-7-2" offset="1" stop-color="#fff" stop-opacity=".392"/></linearGradient><linearGradient id="linearGradient8564" x1="22.935" x2="22.809" y1="49.629" y2="36.658" gradientTransform="matrix(0.7467531,0,0,0.5519934,-1.92198,5.720099)" gradientUnits="userSpaceOnUse" xlink:href="#linearGradient6129-963-697-142-998-580-273-5"/><linearGradient id="linearGradient6129-963-697-142-998-580-273-5"><stop id="stop2661-1" offset="0" stop-color="#0a0a0a" stop-opacity=".498"/><stop id="stop2663-85" offset="1" stop-color="#0a0a0a" stop-opacity="0"/></linearGradient><linearGradient id="linearGradient8568" x1="35.793" x2="35.793" y1="17.118" y2="43.761" gradientTransform="matrix(0.64444432,0,0,0.54135319,0.53343,5.488719)" gradientUnits="userSpaceOnUse" xlink:href="#linearGradient4632-0-6-4-3-4"/><linearGradient id="linearGradient4632-0-6-4-3-4"><stop id="stop4634-4-4-7-7-4" offset="0" stop-color="#b4cee1" stop-opacity="1"/><stop id="stop4636-3-1-5-1-3" offset="1" stop-color="#5d9fcd" stop-opacity="1"/></linearGradient><linearGradient id="linearGradient16107" x1="302.857" x2="302.857" y1="366.648" y2="609.505" gradientTransform="matrix(0.05114282,0,0,0.01591575,-2.4899573,22.29927)" gradientUnits="userSpaceOnUse" xlink:href="#linearGradient5048-585-0"/><linearGradient id="linearGradient5048-585-0"><stop id="stop2667-18" offset="0" stop-color="#000" stop-opacity="0"/><stop id="stop2669-9" offset=".5" stop-color="#000" stop-opacity="1"/><stop id="stop2671-33" offset="1" stop-color="#000" stop-opacity="0"/></linearGradient><radialGradient id="radialGradient16109" cx="605.714" cy="486.648" r="117.143" fx="605.714" fy="486.648" gradientTransform="matrix(0.01983573,0,0,0.01591575,16.38765,22.29927)" gradientUnits="userSpaceOnUse" xlink:href="#linearGradient5060-179-67"/><linearGradient id="linearGradient5060-179-67"><stop id="stop2675-81" offset="0" stop-color="#000" stop-opacity="1"/><stop id="stop2677-2" offset="1" stop-color="#000" stop-opacity="0"/></linearGradient><radialGradient id="radialGradient16111" cx="605.714" cy="486.648" r="117.143" fx="605.714" fy="486.648" gradientTransform="matrix(-0.01983573,0,0,0.01591575,15.60139,22.29927)" gradientUnits="userSpaceOnUse" xlink:href="#linearGradient5060-820-4"/><linearGradient id="linearGradient5060-820-4"><stop id="stop2681-5" offset="0" stop-color="#000" stop-opacity="1"/><stop id="stop2683-00" offset="1" stop-color="#000" stop-opacity="0"/></linearGradient><linearGradient id="linearGradient8584" x1="21.37" x2="21.37" y1="4.732" y2="34.143" gradientTransform="matrix(0.54383556,0,0,0.61466406,3.26879,5.091139)" gradientUnits="userSpaceOnUse" xlink:href="#linearGradient4325"/><linearGradient id="linearGradient4325"><stop id="stop4327" offset="0" stop-color="#fff" stop-opacity="1"/><stop id="stop4329" offset=".111" stop-color="#fff" stop-opacity=".235"/><stop id="stop4331" offset=".99" stop-color="#fff" stop-opacity=".157"/><stop id="stop4333" offset="1" stop-color="#fff" stop-opacity=".392"/></linearGradient><linearGradient id="linearGradient8580" x1="62.989" x2="62.989" y1="17.47" y2="20.47" gradientTransform="matrix(0.61904762,0,0,0.61904762,-30.3919,1.428569)" gradientUnits="userSpaceOnUse" xlink:href="#linearGradient4646-7-4-3-5"/><linearGradient id="linearGradient4646-7-4-3-5"><stop id="stop4648-8-0-3-6" offset="0" stop-color="#f9f9f9" stop-opacity="1"/><stop id="stop4650-1-7-3-4" offset="1" stop-color="#d8d8d8" stop-opacity="1"/></linearGradient><linearGradient id="linearGradient3104-8-8-97-4-6-11-5-5-0"><stop id="stop3106-5-4-3-5-0-2-1-0-6" offset="0" stop-color="#000" stop-opacity=".322"/><stop id="stop3108-4-3-7-8-2-0-7-9-1" offset="1" stop-color="#000" stop-opacity=".278"/></linearGradient><linearGradient id="linearGradient17311" x1="-51.786" x2="-51.786" y1="53.514" y2="3.634" gradientTransform="matrix(0.50703384,0,0,0.50300255,68.02913,1.329769)" gradientUnits="userSpaceOnUse" xlink:href="#linearGradient3104-8-8-97-4-6-11-5-5-0"/></defs><metadata id="metadata17318"/><g id="layer1"><path id="use8307" fill="none" stroke="url(#linearGradient17311)" stroke-dasharray="none" stroke-dashoffset="0" stroke-linecap="butt" stroke-linejoin="miter" stroke-miterlimit="4" stroke-opacity="1" stroke-width="1" d="m 4.00009,6.500079 c -0.43342,0.005 -0.5,0.21723 -0.5,0.6349 l 0,1.36502 c -1.24568,0 -1,-0.002 -1,0.54389 l 0,9.45611 27,-1.36005 0,-8.09606 c 0,-0.41767 -0.34799,-0.54876 -0.78141,-0.54389 l -14.21859,0 0,-1.36502 c 0,-0.41767 -0.26424,-0.63977 -0.69767,-0.6349 z" color="#000" display="inline" enable-background="accumulate" opacity=".8" overflow="visible" visibility="visible" style="marker:none"/><path d="m 4.00009,6.999999 0,2 -1,0 0,6 26,0 0,-6 -15,0 0,-2 z" style="marker:none" id="use8309" fill="url(#linearGradient8580)" fill-opacity="1" fill-rule="nonzero" stroke="none" stroke-width="1" color="#000" display="inline" enable-background="accumulate" overflow="visible" visibility="visible"/><path id="use8311" fill="none" stroke="url(#linearGradient8584)" stroke-dasharray="none" stroke-dashoffset="0" stroke-linecap="round" stroke-linejoin="miter" stroke-miterlimit="4" stroke-opacity="1" stroke-width="1" d="m 4.50009,7.499999 0,2 -1,0 0,6 25,0 0,-6 -15,0 0,-2 z" color="#000" display="inline" enable-background="accumulate" overflow="visible" visibility="visible" style="marker:none"/><g id="use8313" transform="translate(9e-5,-1.000001)"><rect id="rect16101" width="24.695" height="3.865" x="3.647" y="28.135" fill="url(#linearGradient16107)" fill-opacity="1" fill-rule="nonzero" stroke="none" stroke-width="1" display="inline" opacity=".3" overflow="visible" visibility="visible" style="marker:none"/><path id="path16103" fill="url(#radialGradient16109)" fill-opacity="1" fill-rule="nonzero" stroke="none" stroke-width="1" d="m 28.341859,28.13488 c 0,0 0,3.865041 0,3.865041 1.021491,0.0073 2.469468,-0.86596 2.469468,-1.932769 0,-1.06681 -1.139908,-1.932272 -2.469468,-1.932272 z" display="inline" opacity=".3" overflow="visible" visibility="visible" style="marker:none"/><path id="path16105" fill="url(#radialGradient16111)" fill-opacity="1" fill-rule="nonzero" stroke="none" stroke-width="1" d="m 3.6471816,28.13488 c 0,0 0,3.865041 0,3.865041 -1.0214912,0.0073 -2.4694678,-0.86596 -2.4694678,-1.932769 0,-1.06681 1.1399068,-1.932272 2.4694678,-1.932272 z" display="inline" opacity=".3" overflow="visible" visibility="visible" style="marker:none"/></g><path d="m 0.92644,14.421049 c -0.69105,0.067 -0.32196,0.76007 -0.37705,1.14977 0.0802,0.25184 1.5982,13.2362 1.5982,13.68205 0,0.38752 0.22667,0.32187 0.80101,0.32187 8.4994,0 17.89808,0 26.39748,0 0.61872,0.012 0.48796,0.006 0.48796,-0.32797 0.0452,-0.17069 1.63945,-14.29767 1.66234,-14.52079 0,-0.23495 0.0581,-0.30493 -0.30493,-0.30493 -9.0765,0 -21.1885,0 -30.26501,0 z" style="marker:none" id="use8315" fill="url(#linearGradient8568)" fill-opacity="1" fill-rule="nonzero" stroke="none" stroke-width=".918" color="#000" display="inline" enable-background="accumulate" overflow="visible" visibility="visible"/><path id="use8317" fill="url(#linearGradient8564)" fill-opacity="1" stroke="none" d="m 0.68182,13.999999 30.63618,2.3e-4 c 0.4137,0 0.68181,0.24597 0.68181,0.55177 l -1.67322,14.91546 c 0.01,0.38693 -0.1364,0.54035 -0.61707,0.53224 l -27.25613,-0.01 c -0.4137,0 -0.83086,-0.22836 -0.83086,-0.53417 L 0,14.551709 c 0,-0.3058 0.26812,-0.55199 0.68182,-0.55199 z" opacity=".4"/><path id="use8572" fill="none" stroke="url(#linearGradient8576)" stroke-dasharray="none" stroke-dashoffset="0" stroke-linecap="round" stroke-linejoin="miter" stroke-miterlimit="4" stroke-opacity="1" stroke-width=".907" d="m 1.49991,15.411759 1.62516,13.17647 25.74917,0 1.62467,-13.17647 z" color="#000" display="inline" enable-background="accumulate" opacity=".5" overflow="visible" visibility="visible" style="marker:none"/><path id="use8315-2" fill="none" stroke="#000" stroke-dasharray="none" stroke-dashoffset="0" stroke-linecap="round" stroke-linejoin="round" stroke-miterlimit="4" stroke-opacity="1" stroke-width=".918" d="m 0.92644,14.42105 c -0.69105,0.067 -0.32196,0.76007 -0.37705,1.14977 0.0802,0.25184 1.5982,13.236199 1.5982,13.682049 0,0.38752 0.22667,0.32187 0.80101,0.32187 8.4994,0 17.89808,0 26.39748,0 0.61872,0.012 0.48796,0.006 0.48796,-0.32797 0.0452,-0.17069 1.63945,-14.297669 1.66234,-14.520789 0,-0.23495 0.0581,-0.30493 -0.30493,-0.30493 -9.0765,0 -21.1885,0 -30.26501,0 z" color="#000" display="inline" enable-background="accumulate" opacity=".3" overflow="visible" visibility="visible" style="marker:none"/></g></svg>