<svg xmlns="http://www.w3.org/2000/svg" xmlns:svg="http://www.w3.org/2000/svg" xmlns:xlink="http://www.w3.org/1999/xlink" id="svg17618" width="32" height="32" version="1.1"><defs id="defs17620"><linearGradient id="linearGradient15173" x1="27.557" x2="27.557" y1="7.163" y2="21.387" gradientTransform="matrix(0.89186139,0,0,1.0539115,3.1208294,5.412539)" gradientUnits="userSpaceOnUse" xlink:href="#linearGradient3454-2-5-0-3-4"/><linearGradient id="linearGradient3454-2-5-0-3-4"><stop id="stop3456-4-9-38-1-8" offset="0" stop-color="#fff" stop-opacity="1"/><stop id="stop3458-39-80-3-5-5" offset=".01" stop-color="#fff" stop-opacity=".235"/><stop id="stop3460-7-0-2-4-2" offset=".99" stop-color="#fff" stop-opacity=".157"/><stop id="stop3462-0-9-8-7-2" offset="1" stop-color="#fff" stop-opacity=".392"/></linearGradient><linearGradient id="linearGradient15181" x1="22.935" x2="22.809" y1="49.629" y2="36.658" gradientTransform="matrix(0.7467531,0,0,0.6554922,-1.9218906,1.167619)" gradientUnits="userSpaceOnUse" xlink:href="#linearGradient6129-963-697-142-998-580-273-5"/><linearGradient id="linearGradient6129-963-697-142-998-580-273-5"><stop id="stop2661-1" offset="0" stop-color="#0a0a0a" stop-opacity=".498"/><stop id="stop2663-85" offset="1" stop-color="#0a0a0a" stop-opacity="0"/></linearGradient><linearGradient id="linearGradient8239" x1="35.793" x2="35.793" y1="17.118" y2="43.761" gradientTransform="matrix(0.64444432,0,0,0.64285702,0.53351936,0.89285905)" gradientUnits="userSpaceOnUse" xlink:href="#linearGradient4632-92-3-0-8-1"/><linearGradient id="linearGradient4632-92-3-0-8-1"><stop id="stop4634-68-8-0-2-9" offset="0" stop-color="#cdc9e3" stop-opacity="1"/><stop id="stop4636-8-21-7-1-4" offset="1" stop-color="#9389cb" stop-opacity="1"/></linearGradient><linearGradient id="linearGradient15209" x1="302.857" x2="302.857" y1="366.648" y2="609.505" gradientTransform="matrix(0.05114282,0,0,0.01591575,-2.4899573,22.29927)" gradientUnits="userSpaceOnUse" xlink:href="#linearGradient5048-585-0"/><linearGradient id="linearGradient5048-585-0"><stop id="stop2667-18" offset="0" stop-color="#000" stop-opacity="0"/><stop id="stop2669-9" offset=".5" stop-color="#000" stop-opacity="1"/><stop id="stop2671-33" offset="1" stop-color="#000" stop-opacity="0"/></linearGradient><radialGradient id="radialGradient15211" cx="605.714" cy="486.648" r="117.143" fx="605.714" fy="486.648" gradientTransform="matrix(0.01983573,0,0,0.01591575,16.38765,22.29927)" gradientUnits="userSpaceOnUse" xlink:href="#linearGradient5060-179-67"/><linearGradient id="linearGradient5060-179-67"><stop id="stop2675-81" offset="0" stop-color="#000" stop-opacity="1"/><stop id="stop2677-2" offset="1" stop-color="#000" stop-opacity="0"/></linearGradient><radialGradient id="radialGradient15213" cx="605.714" cy="486.648" r="117.143" fx="605.714" fy="486.648" gradientTransform="matrix(-0.01983573,0,0,0.01591575,15.60139,22.29927)" gradientUnits="userSpaceOnUse" xlink:href="#linearGradient5060-820-4"/><linearGradient id="linearGradient5060-820-4"><stop id="stop2681-5" offset="0" stop-color="#000" stop-opacity="1"/><stop id="stop2683-00" offset="1" stop-color="#000" stop-opacity="0"/></linearGradient><linearGradient id="linearGradient15221" x1="21.37" x2="21.37" y1="4.732" y2="34.143" gradientTransform="matrix(0.54383556,0,0,0.61466406,3.2688794,5.091139)" gradientUnits="userSpaceOnUse" xlink:href="#linearGradient4325"/><linearGradient id="linearGradient4325"><stop id="stop4327" offset="0" stop-color="#fff" stop-opacity="1"/><stop id="stop4329" offset=".111" stop-color="#fff" stop-opacity=".235"/><stop id="stop4331" offset=".99" stop-color="#fff" stop-opacity=".157"/><stop id="stop4333" offset="1" stop-color="#fff" stop-opacity=".392"/></linearGradient><linearGradient id="linearGradient15229" x1="62.989" x2="62.989" y1="13" y2="16" gradientTransform="matrix(0.61904762,0,0,0.61904762,-30.391812,1.428569)" gradientUnits="userSpaceOnUse" xlink:href="#linearGradient4646-7-4-3-5"/><linearGradient id="linearGradient4646-7-4-3-5"><stop id="stop4648-8-0-3-6" offset="0" stop-color="#f9f9f9" stop-opacity="1"/><stop id="stop4650-1-7-3-4" offset="1" stop-color="#d8d8d8" stop-opacity="1"/></linearGradient><linearGradient id="linearGradient3104-8-8-97-4-6-11-5-5-0"><stop id="stop3106-5-4-3-5-0-2-1-0-6" offset="0" stop-color="#000" stop-opacity=".322"/><stop id="stop3108-4-3-7-8-2-0-7-9-1" offset="1" stop-color="#000" stop-opacity=".278"/></linearGradient><linearGradient id="linearGradient17616" x1="-51.786" x2="-51.786" y1="53.514" y2="3.634" gradientTransform="matrix(0.50703384,0,0,0.50300255,68.029218,1.329769)" gradientUnits="userSpaceOnUse" xlink:href="#linearGradient3104-8-8-97-4-6-11-5-5-0"/></defs><metadata id="metadata17623"/><g id="layer1"><path id="use7687-1" fill="none" stroke="url(#linearGradient17616)" stroke-dasharray="none" stroke-dashoffset="0" stroke-linecap="butt" stroke-linejoin="miter" stroke-miterlimit="4" stroke-opacity="1" stroke-width="1" d="m 4.0001794,6.500079 c -0.43342,0.005 -0.5,0.21723 -0.5,0.6349 l 0,1.36502 c -1.24568,0 -1,-0.002 -1,0.54389 0.0216,6.53313 0,6.90143 0,7.45611 0.90135,0 26.9999986,-2.34895 26.9999986,-3.36005 l 0,-4.09606 c 0,-0.41767 -0.34799,-0.54876 -0.78141,-0.54389 l -14.21859,0 0,-1.36502 c 0,-0.41767 -0.26424,-0.63977 -0.69767,-0.6349 l -9.8023286,0 z" color="#000" display="inline" enable-background="accumulate" opacity=".8" overflow="visible" visibility="visible" style="marker:none"/><path d="m 4.0001794,6.999999 0,2 -1,0 0,4 25.9999986,0 0,-4 -15,0 0,-2 -9.9999986,0 z" style="marker:none" id="use7689-7" fill="url(#linearGradient15229)" fill-opacity="1" fill-rule="nonzero" stroke="none" stroke-width="1" color="#000" display="inline" enable-background="accumulate" overflow="visible" visibility="visible"/><path id="use7691-5" fill="none" stroke="url(#linearGradient15221)" stroke-dasharray="none" stroke-dashoffset="0" stroke-linecap="round" stroke-linejoin="miter" stroke-miterlimit="4" stroke-opacity="1" stroke-width="1" d="m 4.5001794,7.499999 0,2 -1,0 0,4 24.9999986,0 0,-4 -15,0 0,-2 -8.9999986,0 z" color="#000" display="inline" enable-background="accumulate" overflow="visible" visibility="visible" style="marker:none"/><g id="use7693-6" transform="translate(1.7935663e-4,-1.000001)"><rect id="rect15203" width="24.695" height="3.865" x="3.647" y="28.135" fill="url(#linearGradient15209)" fill-opacity="1" fill-rule="nonzero" stroke="none" stroke-width="1" display="inline" opacity=".3" overflow="visible" visibility="visible" style="marker:none"/><path id="path15205" fill="url(#radialGradient15211)" fill-opacity="1" fill-rule="nonzero" stroke="none" stroke-width="1" d="m 28.341859,28.13488 c 0,0 0,3.865041 0,3.865041 1.021491,0.0073 2.469468,-0.86596 2.469468,-1.932769 0,-1.06681 -1.139908,-1.932272 -2.469468,-1.932272 z" display="inline" opacity=".3" overflow="visible" visibility="visible" style="marker:none"/><path id="path15207" fill="url(#radialGradient15213)" fill-opacity="1" fill-rule="nonzero" stroke="none" stroke-width="1" d="m 3.6471816,28.13488 c 0,0 0,3.865041 0,3.865041 -1.0214912,0.0073 -2.4694678,-0.86596 -2.4694678,-1.932769 0,-1.06681 1.1399068,-1.932272 2.4694678,-1.932272 z" display="inline" opacity=".3" overflow="visible" visibility="visible" style="marker:none"/></g><path d="m 1.9270194,11.499999 c -0.69105,0.0796 -0.32196,0.90258 -0.37705,1.36535 0.0802,0.29906 0.59771,15.71799 0.59771,16.24744 0,0.46018 0.22667,0.38222 0.80101,0.38222 8.4993986,0 17.8980786,0 26.3974786,0 0.61872,0.0143 0.48796,0.007 0.48796,-0.38947 0.0452,-0.20269 0.63993,-16.97848 0.66282,-17.24344 0,-0.279 0.0581,-0.3621 -0.30493,-0.3621 -9.0765,0 -19.18849,0 -28.2649986,0 z" style="marker:none" id="use7695-9" fill="url(#linearGradient8239)" fill-opacity="1" fill-rule="nonzero" stroke="none" stroke-width="1" color="#000" display="inline" enable-background="accumulate" overflow="visible" visibility="visible"/><path id="use7697-1" fill="url(#linearGradient15181)" fill-opacity="1" stroke="none" d="m 1.6819994,10.999999 28.6363686,2.7e-4 c 0.4137,0 0.68181,0.29209 0.68181,0.65523 l -0.6735,17.71211 c 0.01,0.45948 -0.1364,0.64166 -0.61707,0.63203 l -27.2561286,-0.0115 c -0.4137,0 -0.83086,-0.27118 -0.83086,-0.63432 l -0.62244,-17.69829 c 0,-0.36314 0.26812,-0.65549 0.68182,-0.65549 z" opacity=".4"/><path id="use7699-2" fill="none" stroke="url(#linearGradient15173)" stroke-dasharray="none" stroke-dashoffset="0" stroke-linecap="round" stroke-linejoin="miter" stroke-miterlimit="4" stroke-opacity="1" stroke-width="1" d="m 2.5001794,12.499999 0.62498,16 25.7491686,0 0.62498,-16 z" color="#000" display="inline" enable-background="accumulate" opacity=".5" overflow="visible" visibility="visible" style="marker:none"/><path id="path3575-5-8-4-7-0-8" fill="#fff" fill-opacity="1" fill-rule="nonzero" stroke="none" stroke-width="1.7" d="m 15.500178,17.999999 c -0.1385,0 -0.25,0.1115 -0.25,0.25 l 0,0.84375 c -0.27435,0.0704 -0.5275,0.188 -0.76565,0.32812 l -0.60935,-0.60937 c -0.098,-0.0979 -0.2458,-0.0979 -0.34375,0 l -0.71875,0.71875 c -0.098,0.0979 -0.098,0.24581 0,0.34375 l 0.60935,0.60937 c -0.1401,0.23812 -0.25775,0.49131 -0.3281,0.76563 l -0.84375,0 c -0.1385,0 -0.25,0.1115 -0.25,0.25 l 0,1 c 0,0.1385 0.1115,0.25 0.25,0.25 l 0.84375,0 c 0.0703,0.27432 0.188,0.52751 0.3281,0.76562 l -0.60935,0.60938 c -0.098,0.0979 -0.098,0.24581 0,0.34375 l 0.71875,0.71875 c 0.0979,0.0979 0.2458,0.0979 0.34375,0 l 0.60935,-0.60938 c 0.23815,0.14012 0.4913,0.25776 0.76565,0.32813 l 0,0.84375 c 0,0.1385 0.1115,0.25 0.25,0.25 l 1,0 c 0.1385,0 0.25,-0.1115 0.25,-0.25 l 0,-0.84375 c 0.2743,-0.0704 0.5275,-0.18801 0.7656,-0.32813 l 0.6094,0.60938 c 0.0979,0.0979 0.2458,0.0979 0.34375,0 l 0.71875,-0.71875 c 0.0979,-0.0979 0.0979,-0.24582 0,-0.34375 l -0.6094,-0.60938 c 0.14015,-0.23811 0.25775,-0.4913 0.32815,-0.76562 l 0.84375,0 c 0.1385,0 0.25,-0.1115 0.25,-0.25 l 0,-1 c 0,-0.1385 -0.1115,-0.25 -0.25,-0.25 l -0.84375,0 c -0.0704,-0.27432 -0.188,-0.52751 -0.32815,-0.76563 l 0.6094,-0.60937 c 0.0979,-0.0979 0.0979,-0.24582 0,-0.34375 l -0.71875,-0.71875 c -0.098,-0.0979 -0.2458,-0.0979 -0.34375,0 l -0.6094,0.60937 c -0.2381,-0.14012 -0.4913,-0.25775 -0.7656,-0.32812 l 0,-0.84375 c 0,-0.1385 -0.1115,-0.25 -0.25,-0.25 l -1,0 z m 0.5,2.5 c 0.8284,0 1.5,0.67157 1.5,1.5 0,0.82842 -0.6716,1.5 -1.5,1.5 -0.82845,0 -1.5,-0.67158 -1.5,-1.5 0,-0.82843 0.67155,-1.5 1.5,-1.5 z" color="#000" display="inline" enable-background="accumulate" opacity=".3" overflow="visible" visibility="visible" style="marker:none"/><path d="m 15.500178,16.999999 c -0.1385,0 -0.25,0.1115 -0.25,0.25 l 0,0.84375 c -0.27435,0.0704 -0.5275,0.188 -0.76565,0.32812 l -0.60935,-0.60937 c -0.098,-0.0979 -0.2458,-0.0979 -0.34375,0 l -0.71875,0.71875 c -0.098,0.0979 -0.098,0.24581 0,0.34375 l 0.60935,0.60937 c -0.1401,0.23812 -0.25775,0.49131 -0.3281,0.76563 l -0.84375,0 c -0.1385,0 -0.25,0.1115 -0.25,0.25 l 0,1 c 0,0.1385 0.1115,0.25 0.25,0.25 l 0.84375,0 c 0.0703,0.27432 0.188,0.52751 0.3281,0.76562 l -0.60935,0.60938 c -0.098,0.0979 -0.098,0.24581 0,0.34375 l 0.71875,0.71875 c 0.0979,0.0979 0.2458,0.0979 0.34375,0 l 0.60935,-0.60938 c 0.23815,0.14012 0.4913,0.25776 0.76565,0.32813 l 0,0.84375 c 0,0.1385 0.1115,0.25 0.25,0.25 l 1,0 c 0.1385,0 0.25,-0.1115 0.25,-0.25 l 0,-0.84375 c 0.2743,-0.0704 0.5275,-0.18801 0.7656,-0.32813 l 0.6094,0.60938 c 0.0979,0.0979 0.2458,0.0979 0.34375,0 l 0.71875,-0.71875 c 0.0979,-0.0979 0.0979,-0.24582 0,-0.34375 l -0.6094,-0.60938 c 0.14015,-0.23811 0.25775,-0.4913 0.32815,-0.76562 l 0.84375,0 c 0.1385,0 0.25,-0.1115 0.25,-0.25 l 0,-1 c 0,-0.1385 -0.1115,-0.25 -0.25,-0.25 l -0.84375,0 c -0.0704,-0.27432 -0.188,-0.52751 -0.32815,-0.76563 l 0.6094,-0.60937 c 0.0979,-0.0979 0.0979,-0.24582 0,-0.34375 l -0.71875,-0.71875 c -0.098,-0.0979 -0.2458,-0.0979 -0.34375,0 l -0.6094,0.60937 c -0.2381,-0.14012 -0.4913,-0.25775 -0.7656,-0.32812 l 0,-0.84375 c 0,-0.1385 -0.1115,-0.25 -0.25,-0.25 l -1,0 z m 0.5,2.5 c 0.8284,0 1.5,0.67157 1.5,1.5 0,0.82842 -0.6716,1.5 -1.5,1.5 -0.82845,0 -1.5,-0.67158 -1.5,-1.5 0,-0.82843 0.67155,-1.5 1.5,-1.5 z" style="marker:none" id="path3575-5-8-4-7-0" fill="#382a72" fill-opacity=".552" fill-rule="nonzero" stroke="none" stroke-width="1.7" color="#000" display="inline" enable-background="accumulate" overflow="visible" visibility="visible"/><path id="use7695-9-5" fill="none" stroke="#000" stroke-dasharray="none" stroke-dashoffset="0" stroke-linecap="round" stroke-linejoin="round" stroke-miterlimit="4" stroke-opacity="1" stroke-width="1" d="m 1.9270194,11.499999 c -0.69105,0.0796 -0.32196,0.90258 -0.37705,1.36535 0.0802,0.29906 0.59771,15.71799 0.59771,16.24744 0,0.46018 0.22667,0.38222 0.80101,0.38222 8.4993986,0 17.8980786,0 26.3974786,0 0.61872,0.0143 0.48796,0.007 0.48796,-0.38947 0.0452,-0.20269 0.63993,-16.97848 0.66282,-17.24344 0,-0.279 0.0581,-0.3621 -0.30493,-0.3621 -9.0765,0 -19.18849,0 -28.2649986,0 z" color="#000" display="inline" enable-background="accumulate" opacity=".3" overflow="visible" visibility="visible" style="marker:none"/></g></svg>