<svg xmlns="http://www.w3.org/2000/svg" xmlns:svg="http://www.w3.org/2000/svg" xmlns:xlink="http://www.w3.org/1999/xlink" id="svg4379" width="128" height="128" version="1.1"><defs id="defs4381"><linearGradient id="linearGradient4113"><stop id="stop4115" offset="0" stop-color="#000" stop-opacity="1"/><stop id="stop4117" offset="1" stop-color="#000" stop-opacity="0"/></linearGradient><radialGradient id="radialGradient3901" cx="26" cy="38" r="18" fx="26" fy="38" gradientTransform="matrix(2.8888888,0,0,0.88888886,-19.11111,38.222222)" gradientUnits="userSpaceOnUse" xlink:href="#linearGradient4113"/><radialGradient id="radialGradient3895" cx="36" cy="19.019" r="26.5" fx="36" fy="19.019" gradientTransform="matrix(-2.2629402e-7,10.263208,12.075472,2.662038e-7,-174.16052,-349.97576)" gradientUnits="userSpaceOnUse" xlink:href="#linearGradient4223"/><linearGradient id="linearGradient4223"><stop id="stop4225" offset="0" stop-color="#d1ff82" stop-opacity="1"/><stop id="stop4227" offset=".262" stop-color="#9bdb4d" stop-opacity="1"/><stop id="stop4229" offset=".661" stop-color="#68b723" stop-opacity="1"/><stop id="stop4231" offset="1" stop-color="#3a9104" stop-opacity="1"/></linearGradient><linearGradient id="linearGradient3897" x1="36" x2="36" y1="28" y2="56" gradientTransform="matrix(2.0287128,0,0,2.034022,-2.5242263,2.087875)" gradientUnits="userSpaceOnUse" xlink:href="#linearGradient4546"/><linearGradient id="linearGradient4546"><stop id="stop4548" offset="0" stop-color="#fff" stop-opacity="1"/><stop id="stop4550" offset=".333" stop-color="#fff" stop-opacity=".235"/><stop id="stop4552" offset=".951" stop-color="#fff" stop-opacity=".157"/><stop id="stop4554" offset="1" stop-color="#fff" stop-opacity=".392"/></linearGradient><radialGradient id="radialGradient3997" cx="26" cy="38" r="18" fx="26" fy="38" gradientTransform="matrix(2.8888888,0,0,0.88888886,-3.111111,78.222222)" gradientUnits="userSpaceOnUse" xlink:href="#linearGradient4113"/><radialGradient id="radialGradient3863" cx="34.801" cy="19.74" r="26.5" fx="34.801" fy="19.74" gradientTransform="matrix(2.9275666e-7,9.055771,-12.679245,3.085139e-7,312.78646,-263.6486)" gradientUnits="userSpaceOnUse" xlink:href="#linearGradient4129"/><linearGradient id="linearGradient4129"><stop id="stop4131" offset="0" stop-color="#8cd5ff" stop-opacity="1"/><stop id="stop4133" offset=".262" stop-color="#64baff" stop-opacity="1"/><stop id="stop4135" offset=".705" stop-color="#3689e6" stop-opacity="1"/><stop id="stop4137" offset="1" stop-color="#0d52bf" stop-opacity="1"/></linearGradient><linearGradient id="linearGradient4259" x1="36" x2="36" y1="28" y2="56" gradientTransform="matrix(-2.0183824,0,0,2.0183824,128.62133,-37.271994)" gradientUnits="userSpaceOnUse" xlink:href="#linearGradient4546"/></defs><metadata id="metadata4384"/><g id="g4217"><path id="path3899" fill="url(#radialGradient3901)" fill-opacity="1" stroke="none" d="M 108,72 A 52,16.000001 0 0 1 4,72 52,16.000001 0 1 1 108,72 Z" opacity=".2"/><g id="g4207" transform="translate(2,9.9999962)"><path id="path3887" fill="url(#radialGradient3895)" fill-opacity="1" stroke="#206b00" stroke-opacity=".498" stroke-width="1" d="m 81.5,16.5 c 14.958,0 27,12.04089 27,26.997518 l 0,5.999448 c 0,14.956628 -12.042,26.997518 -27,26.997518 l -50,0 c -3.016658,0 -5.920404,-0.470248 -8.625,-1.374874 C 18.49117,78.891512 12.04216,79.67462 6.75,76.619472 6.385978,76.409324 6.02522,76.168884 5.6875,75.932036 8.401026,74.096822 10.903386,71.847464 13,69.182656 7.7686,64.264918 4.5,57.27634 4.5,49.496966 l 0,-5.999448 C 4.5,28.54089 16.542,16.5 31.5,16.5 l 50,0 z"/><path id="path3889" fill="none" stroke="url(#linearGradient4259)" stroke-dasharray="none" stroke-miterlimit="4" stroke-opacity=".498" stroke-width="1" d="M 82.19853,17.499999 C 96,17.499999 107.5,29.5 107.5,43.472426 l 0,6.055148 c 0,14.553848 -10.747622,26.229846 -25.30147,26.229846 l -50.45956,0 c -2.939496,0 -5.937626,-0.525226 -8.560778,-1.40269 l -0.56767,-0.18922 -0.378446,0.378446 c -3.925571,3.37792 -10.451455,3.794678 -14.7592864,1.33318 2.3609988,-1.740422 4.4520444,-3.6631 6.3277234,-6.047316 l 0.56767,-0.756894 -0.693819,-0.630744 C 8.5896754,63.66192 5.4999996,57.087392 5.4999996,49.51845 l 0,-6.055148 c 0,-14.55385 11.6851244,-25.963303 26.2389704,-25.963303 z" clip-path="none"/></g><path id="path4564" fill="url(#radialGradient3997)" fill-opacity="1" stroke="none" d="m 124,112 a 52,16.000001 0 0 1 -104,0 52,16.000001 0 1 1 104,0 z" opacity=".2"/><g id="g4211"><path id="rect3064" fill="url(#radialGradient3863)" fill-opacity="1" stroke="#002e99" stroke-opacity=".498" stroke-width="1" d="m 44.5,56.5 c -14.958,0 -27,12.040892 -27,26.997518 l 0,5.999448 c 0,14.956624 12.042,26.997514 27,26.997514 l 50,0 c 3.016658,0 5.9204,-0.47024 8.625,-1.37487 4.38383,3.7719 10.83284,4.55501 16.125,1.49986 0.36402,-0.21015 0.72478,-0.45059 1.0625,-0.68743 -2.71353,-1.83522 -5.21589,-4.08458 -7.3125,-6.74938 5.2314,-4.91774 8.5,-11.906318 8.5,-19.685694 l 0,-5.999448 C 121.5,68.540892 109.458,56.5 94.5,56.5 l -50,0 z"/><path id="path3873" fill="none" fill-opacity="1" stroke="url(#linearGradient3897)" stroke-dasharray="none" stroke-miterlimit="4" stroke-opacity=".498" stroke-width="1" d="M 44.136168,57.499406 C 30,57.499406 18.5,69.499406 18.5,83.448756 l 0,6.102066 c 0,13.948588 11.5,25.948588 25.64109,25.948588 l 50.71782,0 c 2.82196,0 6.14109,-0.71997 7.95183,-1.32726 l 0.57057,-0.1907 0.38039,0.38138 c 4.11209,3.54768 10.17513,4.13717 14.74907,1.51678 -2.37309,-1.75391 -4.39257,-3.66651 -6.27785,-6.0692 l -0.57058,-0.76276 0.69737,-0.63563 C 117.47043,103.59472 120.5,97.178404 120.5,89.550812 l 0,-6.102066 c 0,-13.94935 -11.5,-25.94935 -25.646012,-25.94935 z" clip-path="none"/><path id="path4038" fill="#002e99" fill-opacity="1" stroke="none" d="m 40,96 c -2.209138,0 -4,1.790862 -4,4 0,2.20914 1.790862,4 4,4 2.209138,0 4,-1.79086 4,-4 0,-2.209138 -1.790862,-4 -4,-4 z m 12,0 c -2.209138,0 -4,1.790862 -4,4 0,2.20914 1.790862,4 4,4 2.209138,0 4,-1.79086 4,-4 0,-2.209138 -1.790862,-4 -4,-4 z m 12,0 c -2.209138,0 -4,1.790862 -4,4 0,2.20914 1.790862,4 4,4 2.209138,0 4,-1.79086 4,-4 0,-2.209138 -1.790862,-4 -4,-4 z" opacity=".4"/><path id="path4264" fill="#fff" fill-opacity="1" stroke="none" d="M 36.050781,100.5 C 36.029918,100.66551 36,100.82883 36,101 c 0,2.20914 1.790862,4 4,4 2.209138,0 4,-1.79086 4,-4 0,-0.17117 -0.02992,-0.33449 -0.05078,-0.5 -0.248412,1.97058 -1.911248,3.5 -3.94922,3.5 -2.037972,0 -3.700808,-1.52942 -3.949219,-3.5 z m 12,0 C 48.029918,100.66551 48,100.82883 48,101 c 0,2.20914 1.790862,4 4,4 2.209138,0 4,-1.79086 4,-4 0,-0.17117 -0.02992,-0.33449 -0.05078,-0.5 -0.248412,1.97058 -1.911248,3.5 -3.94922,3.5 -2.037972,0 -3.700808,-1.52942 -3.949219,-3.5 z m 12,0 C 60.029918,100.66551 60,100.82883 60,101 c 0,2.20914 1.790862,4 4,4 2.209138,0 4,-1.79086 4,-4 0,-0.17117 -0.02992,-0.33449 -0.05078,-0.5 -0.248412,1.97058 -1.911248,3.5 -3.94922,3.5 -2.037972,0 -3.700808,-1.52942 -3.949219,-3.5 z" opacity=".5"/></g></g></svg>