<svg xmlns="http://www.w3.org/2000/svg" xmlns:svg="http://www.w3.org/2000/svg" xmlns:xlink="http://www.w3.org/1999/xlink" id="svg4601" width="128" height="128" version="1.1"><defs id="defs4603"><linearGradient id="linearGradient3224-83" x1="24" x2="24" y1="5" y2="37.16" gradientTransform="matrix(2.7297298,0,0,2.7297297,-1.513512,1.48652)" gradientUnits="userSpaceOnUse" xlink:href="#linearGradient3924-9"/><linearGradient id="linearGradient3924-9"><stop id="stop3926-0" offset="0" stop-color="#fff" stop-opacity="1"/><stop id="stop3928-19" offset=".063" stop-color="#fff" stop-opacity=".235"/><stop id="stop3930-4" offset=".951" stop-color="#fff" stop-opacity=".157"/><stop id="stop3932-3" offset="1" stop-color="#fff" stop-opacity=".392"/></linearGradient><linearGradient id="linearGradient4095-6" x1="24" x2="24" y1="44" y2="3.899" gradientTransform="matrix(2.641026,0,0,2.6787549,0.61538954,3.445606)" gradientUnits="userSpaceOnUse" xlink:href="#linearGradient3856-8-9"/><linearGradient id="linearGradient3856-8-9"><stop id="stop3858-3-4" offset="0" stop-color="#b67926" stop-opacity="1"/><stop id="stop3860-2-7" offset="1" stop-color="#eab41a" stop-opacity="1"/></linearGradient><linearGradient id="linearGradient3142" x1="25.525" x2="25.525" y1="35.006" y2="15.738" gradientTransform="matrix(1.9289072,0,0,1.6548366,17.706642,4.958306)" gradientUnits="userSpaceOnUse" spreadMethod="pad" xlink:href="#linearGradient3163"/><linearGradient id="linearGradient3163"><stop id="stop3165" offset="0" stop-color="#969696" stop-opacity="1"/><stop id="stop3167" offset=".583" stop-color="#858585" stop-opacity=".635"/><stop id="stop3169" offset="1" stop-color="#939393" stop-opacity="0"/></linearGradient><linearGradient id="linearGradient3224" x1="24" x2="24" y1="5" y2="43" gradientTransform="matrix(2.7297298,0,0,2.7297297,-1.513512,1.48652)" gradientUnits="userSpaceOnUse" xlink:href="#linearGradient3924"/><linearGradient id="linearGradient3924"><stop id="stop3926" offset="0" stop-color="#fff" stop-opacity="1"/><stop id="stop3928" offset=".063" stop-color="#fff" stop-opacity=".235"/><stop id="stop3930" offset=".951" stop-color="#fff" stop-opacity=".157"/><stop id="stop3932" offset="1" stop-color="#fff" stop-opacity=".392"/></linearGradient><linearGradient id="linearGradient3907" x1="29.044" x2="29.044" y1="46.392" y2="2.092" gradientTransform="matrix(2.909632,0,0,1.5966276,-5.823781,13.127626)" gradientUnits="userSpaceOnUse" xlink:href="#linearGradient3909-6"/><linearGradient id="linearGradient3909-6"><stop id="stop3911-0" offset="0" stop-color="#fff0bf" stop-opacity="1"/><stop id="stop3913-0" offset="1" stop-color="#fdde76" stop-opacity="1"/></linearGradient><linearGradient id="linearGradient4021" x1="24" x2="24" y1="5" y2="43" gradientTransform="matrix(2.2432433,0,0,1.3783785,10.162169,20.918936)" gradientUnits="userSpaceOnUse" xlink:href="#linearGradient3924-803-0"/><linearGradient id="linearGradient3924-803-0"><stop id="stop3252-06" offset="0" stop-color="#fff" stop-opacity="1"/><stop id="stop3254-1" offset=".063" stop-color="#fff" stop-opacity=".235"/><stop id="stop3256-0" offset=".951" stop-color="#fff" stop-opacity=".157"/><stop id="stop3258-2" offset="1" stop-color="#fff" stop-opacity=".392"/></linearGradient><linearGradient id="linearGradient4024" x1="16.626" x2="20.055" y1="15.298" y2="24.628" gradientTransform="matrix(1.8236406,0,0,1.8434142,20.147314,17.470026)" gradientUnits="userSpaceOnUse" xlink:href="#linearGradient8265-821-176-38-919-66-249-7-7-6"/><linearGradient id="linearGradient8265-821-176-38-919-66-249-7-7-6"><stop id="stop2687-1-9-9" offset="0" stop-color="#fff" stop-opacity="1"/><stop id="stop2689-5-4-3" offset="1" stop-color="#fff" stop-opacity="0"/></linearGradient><linearGradient id="linearGradient4027" x1="25.525" x2="25.525" y1="30.189" y2="15.738" gradientTransform="matrix(1.9289072,0,0,1.6548366,17.706642,3.330726)" gradientUnits="userSpaceOnUse" spreadMethod="reflect" xlink:href="#linearGradient3333-4-4"/><linearGradient id="linearGradient3333-4-4"><stop id="stop3335-4-6" offset="0" stop-color="#fff" stop-opacity="1"/><stop id="stop3337-7-2" offset="1" stop-color="#fff" stop-opacity="0"/></linearGradient><linearGradient id="linearGradient4030" x1="23.904" x2="23.904" y1="35.75" y2="20.443" gradientTransform="matrix(1.9250708,0,0,1.7660544,17.983934,3.267666)" gradientUnits="userSpaceOnUse" xlink:href="#linearGradient3495"/><linearGradient id="linearGradient3495"><stop id="stop3497" offset="0" stop-color="#000" stop-opacity="1"/><stop id="stop3874" offset=".5" stop-color="#000" stop-opacity=".498"/><stop id="stop3499" offset="1" stop-color="#000" stop-opacity="0"/></linearGradient><linearGradient id="linearGradient4033" x1="25.525" x2="25.525" y1="30.189" y2="15.738" gradientTransform="matrix(1.9289072,0,0,1.6548366,17.706642,6.666956)" gradientUnits="userSpaceOnUse" spreadMethod="reflect" xlink:href="#linearGradient3333-4"/><linearGradient id="linearGradient3333-4"><stop id="stop3335-4" offset="0" stop-color="#fff" stop-opacity="1"/><stop id="stop3337-7" offset="1" stop-color="#fff" stop-opacity="0"/></linearGradient><linearGradient id="linearGradient6722" x1="25.525" x2="25.525" y1="30.189" y2="44.139" gradientTransform="matrix(1.9289072,0,0,1.6548366,17.706642,4.958306)" gradientUnits="userSpaceOnUse" spreadMethod="pad" xlink:href="#linearGradient3866"/><linearGradient id="linearGradient3866"><stop id="stop3868" offset="0" stop-color="#a0a0a0" stop-opacity="1"/><stop id="stop3872" offset=".5" stop-color="#8f8f8f" stop-opacity=".635"/><stop id="stop3870" offset="1" stop-color="#9d9d9d" stop-opacity="0"/></linearGradient><linearGradient id="linearGradient6725" x1="20.053" x2="20.053" y1="10.637" y2="45.244" gradientTransform="matrix(1.8666667,0,0,1.5757573,19.200003,9.878796)" gradientUnits="userSpaceOnUse" xlink:href="#linearGradient3600"/><linearGradient id="linearGradient3600"><stop id="stop3602" offset="0" stop-color="#f4f4f4" stop-opacity="1"/><stop id="stop3604" offset="1" stop-color="#dbdbdb" stop-opacity="1"/></linearGradient><radialGradient id="radialGradient2455-1" cx="4.993" cy="43.5" r="2.5" fx="4.993" fy="43.5" gradientTransform="matrix(2.003784,0,0,1.4,27.98813,-17.4)" gradientUnits="userSpaceOnUse" xlink:href="#linearGradient3688-166-749-5"/><linearGradient id="linearGradient3688-166-749-5"><stop id="stop2883-0" offset="0" stop-color="#181818" stop-opacity="1"/><stop id="stop2885-5" offset="1" stop-color="#181818" stop-opacity="0"/></linearGradient><radialGradient id="radialGradient2457-5" cx="4.993" cy="43.5" r="2.5" fx="4.993" fy="43.5" gradientTransform="matrix(2.003784,0,0,1.4,-20.01187,-104.4)" gradientUnits="userSpaceOnUse" xlink:href="#linearGradient3688-464-309-8"/><linearGradient id="linearGradient3688-464-309-8"><stop id="stop2889-9" offset="0" stop-color="#181818" stop-opacity="1"/><stop id="stop2891-4" offset="1" stop-color="#181818" stop-opacity="0"/></linearGradient><linearGradient id="linearGradient2459-7" x1="25.058" x2="25.058" y1="47.028" y2="39.999" gradientUnits="userSpaceOnUse" xlink:href="#linearGradient3702-501-757-0"/><linearGradient id="linearGradient3702-501-757-0"><stop id="stop2895-0" offset="0" stop-color="#181818" stop-opacity="0"/><stop id="stop2897-2" offset=".5" stop-color="#181818" stop-opacity="1"/><stop id="stop2899-6" offset="1" stop-color="#181818" stop-opacity="0"/></linearGradient><linearGradient id="linearGradient3811"><stop id="stop3813" offset="0" stop-color="#000" stop-opacity="1"/><stop id="stop3815" offset="1" stop-color="#000" stop-opacity="0"/></linearGradient><radialGradient id="radialGradient4599" cx="-4.029" cy="93.468" r="35.338" fx="-4.029" fy="93.468" gradientTransform="matrix(1.5563924,0,0,0.16978827,70.270358,102.13029)" gradientUnits="userSpaceOnUse" xlink:href="#linearGradient3811"/><linearGradient id="linearGradient4833"><stop id="stop4835" offset="0" stop-color="#956500" stop-opacity="1"/><stop id="stop4837" offset="1" stop-color="#956500" stop-opacity="0"/></linearGradient><linearGradient id="linearGradient4718"><stop id="stop4720" offset="0" stop-color="#fff3cb" stop-opacity="1"/><stop id="stop4722" offset=".313" stop-color="#fdde76" stop-opacity="1"/><stop id="stop4724" offset=".697" stop-color="#f9c440" stop-opacity="1"/><stop id="stop4726" offset="1" stop-color="#e48b20" stop-opacity="1"/></linearGradient><radialGradient id="radialGradient5521-1" cx="8.867" cy="9.957" r="12.672" fx="8.336" fy="9.957" gradientTransform="matrix(-2.2889669e-7,12.766413,-25.150438,-4.5093728e-7,316.62045,-116.74476)" gradientUnits="userSpaceOnUse" xlink:href="#linearGradient4718"/><linearGradient id="linearGradient4839" x1="4.892" x2="7.5" y1="37.093" y2="37.093" gradientTransform="matrix(2.4969698,0,0,2.4969698,1.263636,7.384847)" gradientUnits="userSpaceOnUse" xlink:href="#linearGradient4833"/><linearGradient id="linearGradient4839-9" x1="4.892" x2="7.5" y1="37.093" y2="37.093" gradientTransform="matrix(-2.4969698,0,0,2.4969698,126.73636,7.384847)" gradientUnits="userSpaceOnUse" xlink:href="#linearGradient4833"/></defs><metadata id="metadata4606"/><path id="path3041" fill="url(#radialGradient4599)" fill-opacity="1" fill-rule="nonzero" stroke="none" stroke-width="1" d="M 119,118 A 54.999999,5.9999999 0 1 1 9.0000016,118 54.999999,5.9999999 0 1 1 119,118 Z" color="#000" display="inline" enable-background="accumulate" opacity=".2" overflow="visible" visibility="visible" style="marker:none"/><g id="g2036" display="inline" transform="matrix(2.6999989,0,0,0.55555607,-0.80000186,94.888878)"><g id="g3712" opacity=".4" transform="matrix(1.052632,0,0,1.285713,-1.263158,-13.42854)"><rect id="rect2801" width="5" height="7" x="38" y="40" fill="url(#radialGradient2455-1)" fill-opacity="1" stroke="none"/><rect id="rect3696" width="5" height="7" x="-10" y="-47" fill="url(#radialGradient2457-5)" fill-opacity="1" stroke="none" transform="scale(-1,-1)"/><rect id="rect3700" width="28" height="7" x="10" y="40" fill="url(#linearGradient2459-7)" fill-opacity="1" stroke="none"/></g></g><rect id="rect5505-21" width="103" height="103" x="12.5" y="15.5" fill="url(#radialGradient5521-1)" fill-opacity="1" fill-rule="nonzero" stroke="none" stroke-dasharray="none" stroke-dashoffset="0" stroke-linecap="butt" stroke-linejoin="miter" stroke-miterlimit="4" stroke-opacity="1" stroke-width="1" clip-rule="nonzero" color="#000" color-interpolation="sRGB" color-interpolation-filters="linearRGB" color-rendering="auto" display="inline" enable-background="accumulate" image-rendering="auto" opacity="1" overflow="visible" rx="6" ry="6" shape-rendering="auto" text-rendering="auto" visibility="visible" style="marker:none;isolation:auto;mix-blend-mode:normal;solid-color:#000;solid-opacity:1;filter-blend-mode:normal;filter-gaussianBlur-deviation:0"/><path id="rect5505-21-4-0-5" fill="#e4ba39" fill-opacity="1" fill-rule="nonzero" stroke="none" stroke-dasharray="none" stroke-dashoffset="0" stroke-linecap="round" stroke-linejoin="round" stroke-miterlimit="4" stroke-opacity="1" stroke-width="1" d="M 21.40625,79.999994 C 19.921579,79.999994 19,78.954164 19,77.468744 l 0,-53.881478 c 0,-1.48542 0.02293,-1.587272 1.507599,-1.587272 l 86.367401,0 c 1.48468,0 2.125,0.57708 2.125,2.0625 l 0,52.9375 c 0,1.48542 -0.64032,3 -2.125,3 z" clip-rule="nonzero" color="#000" color-interpolation="sRGB" color-interpolation-filters="linearRGB" color-rendering="auto" display="inline" enable-background="accumulate" image-rendering="auto" opacity="1" overflow="visible" shape-rendering="auto" text-rendering="auto" visibility="visible" style="isolation:auto;mix-blend-mode:normal;solid-color:#000;solid-opacity:1;marker:none"/><path id="rect4813" fill="#ccc" fill-opacity="1" fill-rule="nonzero" stroke="none" stroke-width="1" d="M 36.602843,80 93.220022,80 88,83.477903 88,93 40,93 40,83.505523 Z" color="#000" display="inline" enable-background="accumulate" overflow="visible" visibility="visible" style="marker:none"/><path id="path4088" fill="none" stroke="#ab7a16" stroke-opacity="1" stroke-width="1" d="m 21.71875,23.437506 c -2.432683,1.1089 -0.882356,4.5946 -1.28125,6.82455 0,15.72515 0,33.4503 0,49.17545 2.499369,2.70548 7.776447,0.50099 11.312591,1.24995 3.403253,0.14685 9.179675,-3.18855 9.792804,1.68432 0.254594,3.0545 -0.05749,6.12792 -0.07415,9.19073 15.020833,0 30.041667,0 45.0625,0 -0.03968,-3.36925 -0.343685,-6.77802 0.0625,-10.125 1.233384,-3.64267 5.560424,-0.61199 8.516238,-0.75 3.723754,0 7.447517,0 11.171267,0 2.4274,-1.10146 0.88409,-4.57314 1.28125,-6.7933 0,-15.72515 0,-33.4503 0,-49.17545 -1.10921,-2.43285 -4.59455,-0.88249 -6.82456,-1.28125 -26.339729,0 -52.679462,0 -79.01919,0 z" color="#000" display="inline" enable-background="accumulate" opacity=".07" overflow="visible" visibility="visible" style="marker:none"/><path id="path4815" fill="none" stroke="#000" stroke-linecap="butt" stroke-linejoin="miter" stroke-opacity="1" stroke-width="1" d="m 40.230845,82.500006 47.5385,0" opacity=".2"/><path id="path4815-2" fill="none" stroke="#000" stroke-linecap="butt" stroke-linejoin="miter" stroke-opacity="1" stroke-width="1" d="m 40.230845,84.500006 47.5385,0" opacity=".17"/><rect id="rect2396-9-0" width="86" height="54" x="21" y="27" fill="#000" fill-opacity="1" fill-rule="evenodd" stroke="none" stroke-width="1" display="inline" enable-background="accumulate" opacity=".2" overflow="visible" rx="2.807" ry="2.807" visibility="visible" style="marker:none"/><rect id="rect2396-9" width="84" height="52" x="22" y="28" fill="url(#linearGradient6725)" fill-opacity="1" fill-rule="evenodd" stroke="none" stroke-width="1" display="inline" enable-background="accumulate" overflow="visible" rx="2" ry="2" visibility="visible" style="marker:none"/><path id="path3341-2" fill="none" stroke="url(#linearGradient6722)" stroke-dasharray="none" stroke-dashoffset="0" stroke-linecap="butt" stroke-linejoin="miter" stroke-miterlimit="4" stroke-opacity="1" stroke-width="1" d="m 53.692816,55.430826 -25.993101,22.55949 z m 20.675475,0.10342 26.173939,22.04128 z" display="inline" enable-background="accumulate" overflow="visible" visibility="visible" style="marker:none"/><path id="path3341-2-6" fill="none" stroke="url(#linearGradient4033)" stroke-dasharray="none" stroke-dashoffset="0" stroke-linecap="butt" stroke-linejoin="miter" stroke-miterlimit="4" stroke-opacity="1" stroke-width="1" d="M 53.692816,57.139466 29.875,77.500006 Z m 20.675475,0.10342 23.756706,20.25712 z" display="inline" enable-background="accumulate" opacity=".7" overflow="visible" visibility="visible" style="marker:none"/><path id="path3493" fill="none" stroke="url(#linearGradient4030)" stroke-dasharray="none" stroke-linecap="butt" stroke-linejoin="miter" stroke-miterlimit="4" stroke-opacity="1" stroke-width="1" d="m 34.029647,41.082296 30.155984,23.16771 29.785548,-23.16771" opacity=".1"/><path id="path3926" fill="none" stroke="url(#linearGradient4027)" stroke-dasharray="none" stroke-dashoffset="0" stroke-linecap="butt" stroke-linejoin="miter" stroke-miterlimit="4" stroke-opacity="1" stroke-width="1" d="m 23.949946,30.408816 40.050467,30.84119 40.655747,-31.04858" display="inline" enable-background="accumulate" opacity=".7" overflow="visible" visibility="visible" style="marker:none"/><path id="path3333-7" fill="url(#linearGradient4024)" fill-opacity="1" fill-rule="evenodd" stroke="none" d="m 24.690028,28.000006 c -1.50137,0 -2.690028,1.29266 -2.690028,2.55 l 0.02794,31.45 C 24.444415,61.965766 104.16582,49.466886 106,48.865676 l 0,-18.31567 c 0,-0.96108 -1.17419,-2.55 -2.47421,-2.55 l -78.835765,0 z" opacity=".2"/><rect id="rect6741-1-5" width="83" height="51" x="22.5" y="28.5" fill="none" stroke="url(#linearGradient4021)" stroke-dasharray="none" stroke-dashoffset="0" stroke-linecap="round" stroke-linejoin="round" stroke-miterlimit="4" stroke-opacity="1" stroke-width="1" rx="1.499" ry="1.499"/><path id="rect5505-21-4-0" fill="url(#linearGradient3907)" fill-opacity="1" fill-rule="nonzero" stroke="none" stroke-width="1" d="m 64.28125,15.999996 c -15.287221,0.0104 -30.566022,0.0405 -45.84375,0.0312 -2.678427,-0.0569 -5.126618,2.11038 -5.34375,4.78125 -0.06433,19.26834 0.01847,38.73051 0,58 -0.492671,3.16507 1.246973,6.89132 4.75,7.125 6.397369,0.0137 12.883638,0 19.28125,0 2.222084,0 2.782893,1.49567 2.875,2.25 l 0,-5.125 c 0,-2.57468 -2.8125,-3.06245 -2.8125,-3.06245 l -15.78125,0 C 19.921579,79.999996 19,78.954166 19,77.468746 l 0,-53.345441 c 0,-1.48542 0.76317,-2.123309 2.247841,-2.123309 l 85.627159,0 c 1.48468,0 2.125,0.57708 2.125,2.0625 l 0,52.9375 c 0,1.48542 -0.64032,3 -2.125,3 l -16.0625,0 c 0,0 -2.8125,0.24947 -2.8125,2.8125 l 0,5.1875 c 0.08554,-0.7551 0.601894,-1.99982 2.625,-2 5.719935,-5.1e-4 11.46767,-0.004 17.1875,0 3.1635,0.49292 6.86017,-1.52649 7.09375,-5.03125 0.0643,-19.26834 -0.0183,-38.543 0,-57.8125 0.49267,-3.16507 -1.24698,-6.89129 -4.75,-7.125 -15.27715,-0.0322 -30.587779,-0.0416 -45.875,-0.0312 z m -24.25,77 0,4.46875 c -0.240025,1.55309 0.692966,3.292294 2.40625,3.406254 14.033077,0.0319 28.028837,0.0847 42.0625,0.0937 1.559069,0.23911 3.385607,-0.69967 3.5,-2.406254 l 0,-5.56245 z" color="#000" display="inline" enable-background="accumulate" overflow="visible" visibility="visible" style="marker:none"/><rect id="rect6741-7" width="101" height="101" x="13.5" y="16.5" fill="none" stroke="url(#linearGradient3224)" stroke-dasharray="none" stroke-dashoffset="0" stroke-linecap="round" stroke-linejoin="round" stroke-miterlimit="4" stroke-opacity="1" stroke-width="1" opacity=".8" rx="5" ry="5"/><path id="path4815-3" fill="none" stroke="#000" stroke-linecap="butt" stroke-linejoin="miter" stroke-opacity="1" stroke-width="1" d="m 40.230845,86.500006 47.5385,0" opacity=".2"/><path id="path4815-2-6" fill="none" stroke="#000" stroke-linecap="butt" stroke-linejoin="miter" stroke-opacity="1" stroke-width="1" d="m 40.230845,88.500006 47.5385,0" opacity=".17"/><path id="path4815-7" fill="none" stroke="#000" stroke-linecap="butt" stroke-linejoin="miter" stroke-opacity="1" stroke-width="1" d="m 40.230845,90.500006 47.5385,0" opacity=".2"/><path id="path4815-2-69" fill="none" stroke="#000" stroke-linecap="butt" stroke-linejoin="miter" stroke-opacity="1" stroke-width="1" d="m 40.230845,92.500006 47.5385,0" opacity=".17"/><path id="path3341-2-3" fill="none" stroke="url(#linearGradient3142)" stroke-dasharray="none" stroke-dashoffset="0" stroke-linecap="butt" stroke-linejoin="miter" stroke-miterlimit="4" stroke-opacity="1" stroke-width="1" d="m 23.949946,32.036406 40.050467,30.84118 40.655747,-31.04857" display="inline" enable-background="accumulate" overflow="visible" visibility="visible" style="marker:none"/><path id="path4152" fill="none" stroke="url(#linearGradient4095-6)" stroke-dasharray="none" stroke-dashoffset="0" stroke-linecap="round" stroke-linejoin="round" stroke-miterlimit="4" stroke-opacity="1" stroke-width="1" d="m 64.28125,15.468746 c -15.287672,0.0104 -30.566923,0.04055 -45.84375,0.03125 -2.967368,-0.06304 -5.633973,2.316458 -5.875,5.28125 -3.11e-4,0.01041 -3.11e-4,0.02084 0,0.03125 -0.06424,19.239867 0.01811,38.669113 0,57.90625 -2.9e-5,0.03114 3e-5,0.06261 0,0.09375 -0.239665,1.679396 0.103568,3.490841 0.96875,4.9375 0.881096,1.473269 2.351115,2.589994 4.28125,2.71875 0.01041,3.11e-4 0.02084,3.11e-4 0.03125,0 6.398874,0.0137 12.884385,0 19.28125,0 0.993603,0 1.510781,0.293252 1.84375,0.65625 0.332969,0.362998 0.464393,0.833388 0.5,1.125 0.0075,0.03213 0.01796,0.06356 0.03125,0.09375 -0.0012,0.02081 -0.0012,0.04169 0,0.0625 l 0,4.5 c -0.0028,0.03117 -0.0028,0.06258 0,0.09375 l 0,2.4375 0,1.9375 0,0.09375 c -0.113297,0.878077 0.08684,1.798307 0.5625,2.53125 0.49241,0.758764 1.317439,1.337984 2.34375,1.406254 0.01041,3.1e-4 0.02084,3.1e-4 0.03125,0 14.001278,0.0318 27.965449,0.0846 41.96875,0.0937 0.031,0.005 0.06265,-0.004 0.09375,0 0.883142,0.11286 1.809683,-0.0897 2.5625,-0.5625 0.77933,-0.48941 1.399548,-1.311364 1.46875,-2.343754 3.11e-4,-0.01041 3.11e-4,-0.02084 0,-0.03125 l 0,-5.5625 c -0.0024,-0.05327 -0.01296,-0.106164 -0.03125,-0.15625 0.0012,-0.02081 0.0012,-0.04169 0,-0.0625 l 0,-4.53125 0,-0.0625 c 0.01542,-0.0402 0.02594,-0.08227 0.03125,-0.125 0.03313,-0.292463 0.147868,-0.669587 0.4375,-0.96875 0.289632,-0.299163 0.75204,-0.56242 1.65625,-0.5625 5.688916,-5.07e-4 11.40527,-0.0039 17.09375,0 0.0307,0.0048 0.063,-0.0043 0.0937,0 1.69293,0.239526 3.50259,-0.187402 4.9375,-1.125 1.46097,-0.954624 2.55897,-2.477714 2.6875,-4.40625 3.1e-4,-0.01041 3.1e-4,-0.02084 0,-0.03125 0.0642,-19.23975 -0.0179,-38.482298 0,-57.71875 0.005,-0.03081 -0.004,-0.06286 0,-0.09375 0.23966,-1.679396 -0.10357,-3.490845 -0.96875,-4.9375 -0.8811,-1.473265 -2.35112,-2.589978 -4.28125,-2.71875 -0.0104,-3.11e-4 -0.0208,-3.11e-4 -0.0313,0 -15.277671,-0.0322 -30.587326,-0.04165 -45.875,-0.03125 z" color="#000" display="inline" enable-background="accumulate" opacity=".193" overflow="visible" visibility="visible" style="marker:none"/><path id="path4152-4" fill="none" stroke="url(#linearGradient3224-83)" stroke-dasharray="none" stroke-dashoffset="0" stroke-linecap="round" stroke-linejoin="round" stroke-miterlimit="4" stroke-opacity="1" stroke-width="1" d="m 13.53125,85.427878 c 0.776883,0.952202 2.351115,1.912607 4.28125,2.041363 0.01041,3.11e-4 0.02084,3.11e-4 0.03125,0 6.398874,0.0137 11.884135,0 18.281,0 0.993603,0 1.510781,0.293252 1.84375,0.65625 0.332969,0.362998 0.464393,0.833388 0.5,1.125 0.0075,0.03213 0.01796,0.06356 0.03125,0.09375 -0.0012,0.02081 -0.0012,0.04169 0,0.0625 l 0,8.579483 c -0.04376,2.594536 1.684884,4.420526 4.122711,4.420526 l 42.294013,0.0937 c 2.843167,0 4.583526,-1.84264 4.583526,-4.366012 l 3.75e-4,-9.321923 c 0,-0.950009 0.243626,-1.280824 1.443782,-1.280824 0,0 12.428243,-0.0039 18.116723,0 3.20409,0 4.35483,-1.325684 5.11779,-1.99089" color="#000" display="inline" enable-background="accumulate" opacity=".8" overflow="visible" visibility="visible" style="marker:none"/><path id="path4831" fill="url(#linearGradient4839)" fill-opacity="1" fill-rule="nonzero" stroke="none" stroke-width="1" d="m 12.499999,79.988741 0,33.517319 c 0,2.76664 2.227296,4.99393 4.99394,4.99393 l 2.496969,0 0,-32.772722 -2.122652,0 c -2.07498,0 -4.431893,-2.069296 -4.431893,-4.144279 z" color="#000" display="inline" enable-background="accumulate" opacity=".2" overflow="visible" visibility="visible" style="marker:none"/><path id="path4831-8" fill="url(#linearGradient4839-9)" fill-opacity="1" fill-rule="nonzero" stroke="none" stroke-width="1" d="m 115.5,79.988741 0,33.517319 c 0,2.76664 -2.2273,4.99393 -4.99394,4.99393 l -2.49697,0 0,-32.772722 2.12265,0 c 2.07498,0 4.43189,-2.069296 4.43189,-4.144279 z" color="#000" display="inline" enable-background="accumulate" opacity=".2" overflow="visible" visibility="visible" style="marker:none"/><rect id="rect5505-21-7" width="103" height="103" x="12.5" y="15.5" fill="none" fill-opacity="1" fill-rule="evenodd" stroke="#956500" stroke-dasharray="none" stroke-dashoffset="0" stroke-linecap="butt" stroke-linejoin="miter" stroke-miterlimit="4" stroke-opacity="1" stroke-width="1" clip-rule="nonzero" color="#000" color-interpolation="sRGB" color-interpolation-filters="linearRGB" color-rendering="auto" display="inline" enable-background="accumulate" image-rendering="auto" opacity=".5" overflow="visible" rx="6" ry="6" shape-rendering="auto" text-rendering="auto" visibility="visible" style="marker:none;isolation:auto;mix-blend-mode:normal;solid-color:#000;solid-opacity:1;filter-blend-mode:normal;filter-gaussianBlur-deviation:0"/><path id="rect3881" fill="none" fill-opacity="1" fill-rule="nonzero" stroke="#b77a26" stroke-dasharray="none" stroke-dashoffset="0" stroke-linecap="butt" stroke-linejoin="miter" stroke-miterlimit="4" stroke-opacity="1" stroke-width="1" d="M 20.708984,22.5 C 20.039041,22.5 19.5,23.039041 19.5,23.708984 l 0,54.582032 C 19.5,78.960959 20.039041,79.5 20.708984,79.5 L 36.75,79.5 c 2.0775,0 3.75,1.6725 3.75,3.75 l 0,9.25 47,0 0,-9.25 c 0,-2.0775 1.6725,-3.75 3.75,-3.75 l 16.04102,0 c 0.66994,0 1.20898,-0.539041 1.20898,-1.208984 l 0,-54.582032 C 108.5,23.039041 107.96096,22.5 107.29102,22.5 Z" clip-rule="nonzero" color="#000" color-interpolation="sRGB" color-interpolation-filters="linearRGB" color-rendering="auto" display="inline" enable-background="accumulate" image-rendering="auto" opacity=".3" overflow="visible" shape-rendering="auto" text-rendering="auto" visibility="visible" style="isolation:auto;mix-blend-mode:normal;solid-color:#000;solid-opacity:1;marker:none;filter-blend-mode:normal;filter-gaussianBlur-deviation:0"/></svg>