<svg xmlns="http://www.w3.org/2000/svg" xmlns:svg="http://www.w3.org/2000/svg" xmlns:xlink="http://www.w3.org/1999/xlink" id="svg4434" width="128" height="128" version="1.1"><defs id="defs4436"><linearGradient id="linearGradient4136" x1="24" x2="24" y1="5.591" y2="42.262" gradientTransform="matrix(2.7297298,0,0,2.7297298,-1.5135184,-62.511679)" gradientUnits="userSpaceOnUse" xlink:href="#linearGradient3924"/><linearGradient id="linearGradient3924"><stop id="stop3926" offset="0" stop-color="#fff" stop-opacity="1"/><stop id="stop3928" offset=".038" stop-color="#fff" stop-opacity=".235"/><stop id="stop3930" offset=".967" stop-color="#fff" stop-opacity=".157"/><stop id="stop3932" offset="1" stop-color="#fff" stop-opacity=".392"/></linearGradient><linearGradient id="linearGradient3913-9" x1="30.271" x2="30.271" y1="10.029" y2="55.053" gradientTransform="matrix(2.0808079,0,0,2.3409091,-2.5858604,-71.907281)" gradientUnits="userSpaceOnUse" xlink:href="#linearGradient27416-1-2-0"/><linearGradient id="linearGradient27416-1-2-0"><stop id="stop27420-2-0-8" offset="0" stop-color="#55c1ec" stop-opacity="1"/><stop id="stop27422-3-5-3" offset="1" stop-color="#3689e6" stop-opacity="1"/></linearGradient><linearGradient id="linearGradient4632-92-3-0-8-1-9"><stop id="stop4634-68-8-0-2-9-4" offset="0" stop-color="#fafafa" stop-opacity="1"/><stop id="stop4636-8-21-7-1-4-8" offset="1" stop-color="#e1e1e1" stop-opacity="1"/></linearGradient><radialGradient id="radialGradient4093" cx="4.993" cy="43.5" r="2.5" fx="4.993" fy="43.5" gradientTransform="matrix(2.003784,0,0,1.4,27.98813,-17.4)" gradientUnits="userSpaceOnUse" xlink:href="#linearGradient3688-166-749-5"/><linearGradient id="linearGradient3688-166-749-5"><stop id="stop2883-0" offset="0" stop-color="#181818" stop-opacity="1"/><stop id="stop2885-5" offset="1" stop-color="#181818" stop-opacity="0"/></linearGradient><radialGradient id="radialGradient4095" cx="4.993" cy="43.5" r="2.5" fx="4.993" fy="43.5" gradientTransform="matrix(2.003784,0,0,1.4,-20.01187,-104.4)" gradientUnits="userSpaceOnUse" xlink:href="#linearGradient3688-464-309-8"/><linearGradient id="linearGradient3688-464-309-8"><stop id="stop2889-9" offset="0" stop-color="#181818" stop-opacity="1"/><stop id="stop2891-4" offset="1" stop-color="#181818" stop-opacity="0"/></linearGradient><linearGradient id="linearGradient4097" x1="25.058" x2="25.058" y1="47.028" y2="39.999" gradientUnits="userSpaceOnUse" xlink:href="#linearGradient3702-501-757-0"/><linearGradient id="linearGradient3702-501-757-0"><stop id="stop2895-0" offset="0" stop-color="#181818" stop-opacity="0"/><stop id="stop2897-2" offset=".5" stop-color="#181818" stop-opacity="1"/><stop id="stop2899-6" offset="1" stop-color="#181818" stop-opacity="0"/></linearGradient><linearGradient id="linearGradient3811"><stop id="stop3813" offset="0" stop-color="#000" stop-opacity="1"/><stop id="stop3815" offset="1" stop-color="#000" stop-opacity="0"/></linearGradient><radialGradient id="radialGradient4432" cx="-4.029" cy="93.468" r="35.338" fx="-4.029" fy="93.468" gradientTransform="matrix(1.5563924,0,0,0.16978827,70.270355,38.132101)" gradientUnits="userSpaceOnUse" xlink:href="#linearGradient3811"/><radialGradient id="radialGradient3044" cx="32" cy="4.342" r="27.5" fx="32" fy="4.342" gradientTransform="matrix(1.8994991e-8,4.3639682,-4.363968,1.8994991e-8,82.947989,-187.94014)" gradientUnits="userSpaceOnUse" xlink:href="#linearGradient4632-92-3-0-8-1-9"/><linearGradient id="linearGradient4011-9-9-70-61-7"><stop id="stop4013-5-4-3-8-3" offset="0" stop-color="#fff" stop-opacity="1"/><stop id="stop4015-1-5-70-9-5" offset=".508" stop-color="#fff" stop-opacity=".235"/><stop id="stop4017-7-0-13-0-1" offset=".835" stop-color="#fff" stop-opacity=".157"/><stop id="stop4019-1-12-7-0-7" offset="1" stop-color="#fff" stop-opacity=".392"/></linearGradient><linearGradient id="linearGradient4215-8-4-07-7"><stop id="stop4217-1-2-1-2" offset="0" stop-color="#e9e9e9" stop-opacity="1"/><stop id="stop4219-3-4-0-96" offset="1" stop-color="#fff" stop-opacity="1"/></linearGradient><linearGradient id="linearGradient3882" x1="71.204" x2="71.204" y1="6.238" y2="44.341" gradientTransform="matrix(-0.94594587,0,0,0.94594587,149.85603,-20.984768)" gradientUnits="userSpaceOnUse" xlink:href="#linearGradient4011-9-9-70-61-7"/><linearGradient id="linearGradient3885" x1="38.977" x2="38.977" y1="59.968" y2="8.093" gradientTransform="matrix(-0.70588238,0,0,0.70588238,104.58823,-20.99819)" gradientUnits="userSpaceOnUse" xlink:href="#linearGradient4215-8-4-07-7"/></defs><metadata id="metadata4439"/><g id="layer1" transform="translate(0,64)"><path id="path3041" fill="url(#radialGradient4432)" fill-opacity="1" fill-rule="nonzero" stroke="none" stroke-width="1" d="m 119,54.00181 a 55,6 0 0 1 -109.9999982,0 55,6 0 1 1 109.9999982,0 z" color="#000" display="inline" enable-background="accumulate" opacity=".2" overflow="visible" visibility="visible" style="marker:none"/><g id="g2036" display="inline" transform="matrix(2.6999989,0,0,0.55555607,-0.80000812,30.890691)"><g id="g3712" opacity=".4" transform="matrix(1.052632,0,0,1.285713,-1.263158,-13.42854)"><rect id="rect2801" width="5" height="7" x="38" y="40" fill="url(#radialGradient4093)" fill-opacity="1" stroke="none"/><rect id="rect3696" width="5" height="7" x="-10" y="-47" fill="url(#radialGradient4095)" fill-opacity="1" stroke="none" transform="scale(-1,-1)"/><rect id="rect3700" width="28" height="7" x="10" y="40" fill="url(#linearGradient4097)" fill-opacity="1" stroke="none"/></g></g><rect id="rect5505-21-3" width="102" height="102" x="13" y="-48" fill="url(#radialGradient3044)" fill-opacity="1" fill-rule="nonzero" stroke="none" stroke-width="1" color="#000" display="inline" enable-background="accumulate" overflow="visible" rx="4.5" ry="4.5" visibility="visible" style="marker:none"/><rect id="rect3979-9" width="74" height="38" x="27" y="-15" fill="#fff" fill-opacity="1" fill-rule="nonzero" stroke="none" stroke-width="2" color="#000" display="inline" enable-background="accumulate" opacity=".2" overflow="visible" rx="19" ry="19" visibility="visible" style="marker:none"/><rect id="rect3979" width="74" height="38" x="27" y="-15.998" fill="url(#linearGradient3913-9)" fill-opacity="1" fill-rule="nonzero" stroke="none" stroke-width="2" color="#000" display="inline" enable-background="accumulate" overflow="visible" rx="19" ry="19" visibility="visible" style="marker:none"/><rect id="rect6741-7" width="101" height="101" x="13.5" y="-47.498" fill="none" stroke="url(#linearGradient4136)" stroke-dasharray="none" stroke-dashoffset="0" stroke-linecap="round" stroke-linejoin="round" stroke-miterlimit="4" stroke-opacity="1" stroke-width="1" rx="4" ry="4"/><rect id="rect5505-21-3-1" width="103" height="103" x="12.5" y="-48.498" fill="none" stroke="#000" stroke-dasharray="none" stroke-dashoffset="0" stroke-linecap="butt" stroke-linejoin="miter" stroke-miterlimit="4" stroke-opacity="1" stroke-width="1" color="#000" display="inline" enable-background="accumulate" opacity=".25" overflow="visible" rx="5" ry="5" visibility="visible" style="marker:none"/><path id="path4356-7-9" fill="#fff" fill-opacity="1" fill-rule="evenodd" stroke="none" stroke-width=".338" d="m 20,-40.999998 a 1.0000005,1.0000005 0 0 1 -2.000001,0 1.0000005,1.0000005 0 1 1 2.000001,0 z" color="#000" display="inline" enable-background="accumulate" overflow="visible" visibility="visible" style="marker:none"/><path id="path4356-9" fill="#000" fill-opacity="1" fill-rule="evenodd" stroke="none" stroke-width=".338" d="m 20,-41.999998 a 1.0000005,1.0000005 0 0 1 -2.000001,0 1.0000005,1.0000005 0 1 1 2.000001,0 z" color="#000" display="inline" enable-background="accumulate" opacity=".3" overflow="visible" visibility="visible" style="marker:none"/><path id="path4356-7-6-7" fill="#fff" fill-opacity="1" fill-rule="evenodd" stroke="none" stroke-width=".338" d="m 110,-40.999998 a 1.0000005,1.0000005 0 0 1 -2,0 1.0000005,1.0000005 0 1 1 2,0 z" color="#000" display="inline" enable-background="accumulate" overflow="visible" visibility="visible" style="marker:none"/><path id="path4356-8-9" fill="#000" fill-opacity="1" fill-rule="evenodd" stroke="none" stroke-width=".338" d="m 110,-41.999998 a 1.0000005,1.0000005 0 0 1 -2,0 1.0000005,1.0000005 0 1 1 2,0 z" color="#000" display="inline" enable-background="accumulate" opacity=".3" overflow="visible" visibility="visible" style="marker:none"/><path id="path4356-7-9-5" fill="#fff" fill-opacity="1" fill-rule="evenodd" stroke="none" stroke-width=".338" d="m 20,49.000002 a 1.0000005,1.0000005 0 0 1 -2.000001,0 1.0000005,1.0000005 0 1 1 2.000001,0 z" color="#000" display="inline" enable-background="accumulate" overflow="visible" visibility="visible" style="marker:none"/><path id="path4356-9-1" fill="#000" fill-opacity="1" fill-rule="evenodd" stroke="none" stroke-width=".338" d="m 20,48.000002 a 1.0000005,1.0000005 0 0 1 -2.000001,0 1.0000005,1.0000005 0 1 1 2.000001,0 z" color="#000" display="inline" enable-background="accumulate" opacity=".3" overflow="visible" visibility="visible" style="marker:none"/><path id="path4356-7-6-7-3" fill="#fff" fill-opacity="1" fill-rule="evenodd" stroke="none" stroke-width=".338" d="m 110,49.000002 a 1.0000005,1.0000005 0 0 1 -2,0 1.0000005,1.0000005 0 1 1 2,0 z" color="#000" display="inline" enable-background="accumulate" overflow="visible" visibility="visible" style="marker:none"/><path id="path4356-8-9-8" fill="#000" fill-opacity="1" fill-rule="evenodd" stroke="none" stroke-width=".338" d="m 110,48.000002 a 1.0000005,1.0000005 0 0 1 -2,0 1.0000005,1.0000005 0 1 1 2,0 z" color="#000" display="inline" enable-background="accumulate" opacity=".3" overflow="visible" visibility="visible" style="marker:none"/><path id="rect3979-7-6" fill="#0e4774" fill-opacity="1" fill-rule="nonzero" stroke="none" stroke-width="4.511" d="m 46,-15.999998 c -10.526,0 -19,8.474 -19,19 0,0.16989 0.02686,0.331206 0.03125,0.5 0.26748,-10.289295 8.61264,-18.5 18.96875,-18.5 l 36,0 c 10.35611,0 18.70127,8.210705 18.96875,18.5 0.004,-0.168794 0.0312,-0.33011 0.0312,-0.5 0,-10.526 -8.474,-19 -19,-19 l -36,0 z" color="#000" display="inline" enable-background="accumulate" opacity=".3" overflow="visible" visibility="visible" style="marker:none"/><path id="rect3979-8" fill="#0e4774" fill-opacity="1" fill-rule="nonzero" stroke="none" stroke-width="5.074" d="m 46,-14.999998 c -10.35611,0 -18.70127,8.210705 -18.96875,18.5 0.26748,10.289295 8.61264,18.5 18.96875,18.5 l 1,0 c -10.526,0 -19,-8.028 -19,-18 0,-9.972 8.474,-18 19,-18 l 34,0 c 10.526,0 19,8.028 19,18 0,9.972 -8.474,18 -19,18 l 1,0 c 10.35611,0 18.70127,-8.210705 18.96875,-18.5 -0.26748,-10.289295 -8.61264,-18.5 -18.96875,-18.5 l -36,0 z" color="#000" display="inline" enable-background="accumulate" opacity=".15" overflow="visible" visibility="visible" style="marker:none"/><rect id="rect3979-5" width="73" height="37" x="27.5" y="-15.5" fill="none" fill-opacity="1" fill-rule="nonzero" stroke="#000" stroke-dasharray="none" stroke-miterlimit="4" stroke-width="1" color="#000" display="inline" enable-background="accumulate" opacity=".2" overflow="visible" rx="18.743" ry="18.5" visibility="visible" style="marker:none"/><path id="path2555-7-1-9-4-9-1" fill="#000" fill-opacity="1" fill-rule="nonzero" stroke="none" stroke-width="2" d="m 82,-16.000002 c 11.03531,0 20,8.9646866 20,20.0000047 0,11.0353133 -8.96469,19.9999993 -20,19.9999993 -11.03531,0 -20.00002,-8.964686 -20,-19.9999993 0,-11.0353181 8.96469,-20.0000047 20,-20.0000047 z" color="#000" display="inline" enable-background="accumulate" opacity=".07" overflow="visible" visibility="visible" style="marker:none"/><path id="path2555-7-1-9-4-9" fill="#000" fill-opacity="1" fill-rule="nonzero" stroke="none" stroke-width="2" d="m 82,-15 c 10.483546,0 19,8.5164513 19,19.0000019 C 101,14.483549 92.483546,23 82,23 71.516444,23 62.999979,14.483549 63,4.0000019 63,-6.4835487 71.516444,-15 82,-15 z" color="#000" display="inline" enable-background="accumulate" opacity=".15" overflow="visible" visibility="visible" style="marker:none"/><path id="path2555-7-1-9-4" fill="url(#linearGradient3885)" fill-opacity="1" fill-rule="nonzero" stroke="none" stroke-width="1" d="m 82,-14.99819 c 9.93178,0 18,8.0682172 18,18.000002 0,9.931781 -8.06822,17.999998 -18,17.999998 -9.93179,0 -18.00002,-8.068217 -18,-17.999998 0,-9.9317848 8.06821,-18.000002 18,-18.000002 z" color="#000" display="inline" enable-background="accumulate" overflow="visible" visibility="visible" style="marker:none"/><path id="path8655-6-0-5-2" fill="none" stroke="url(#linearGradient3882)" stroke-dasharray="none" stroke-dashoffset="0" stroke-linecap="round" stroke-linejoin="round" stroke-miterlimit="4" stroke-opacity="1" stroke-width="1" d="M 64.5,3.0011844 C 64.5,12.666493 72.3356,20.501811 81.99979,20.501811 91.66485,20.501811 99.5,12.666398 99.5,3.0011844 99.5,-6.6636622 91.66485,-14.49819 81.99979,-14.49819 72.3356,-14.49819 64.5,-6.6636622 64.5,3.0011844 l 0,0 z" color="#000" display="inline" enable-background="accumulate" overflow="visible" visibility="visible" style="marker:none"/><path id="path2555-7-1-9-9-41" fill="none" stroke="#656565" stroke-dasharray="none" stroke-dashoffset="0" stroke-linecap="round" stroke-linejoin="round" stroke-miterlimit="4" stroke-opacity="1" stroke-width="1" d="m 82,-15.498189 c 10.20766,0 18.5,8.2923335 18.5,18.5000007 0,10.2076633 -8.29234,18.4999973 -18.5,18.4999973 -10.20767,0 -18.50002,-8.292334 -18.5,-18.4999973 0,-10.2076672 8.29233,-18.5000007 18.5,-18.5000007 z" color="#000" display="inline" enable-background="accumulate" opacity=".5" overflow="visible" visibility="visible" style="marker:none"/></g></svg>