<svg xmlns="http://www.w3.org/2000/svg" xmlns:svg="http://www.w3.org/2000/svg" xmlns:xlink="http://www.w3.org/1999/xlink" id="svg4434" width="128" height="128" version="1.1"><defs id="defs4436"><linearGradient id="linearGradient4136" x1="24" x2="24" y1="5.591" y2="42.262" gradientTransform="matrix(2.4595 0 0 2.5676 5.973 8.3802)" gradientUnits="userSpaceOnUse" xlink:href="#linearGradient3924"/><linearGradient id="linearGradient3924"><stop id="stop3926" offset="0" stop-color="#fff"/><stop id="stop3928" offset=".091" stop-color="#fff" stop-opacity=".235"/><stop id="stop3930" offset=".85" stop-color="#fff" stop-opacity=".157"/><stop id="stop3932" offset="1" stop-color="#fff" stop-opacity=".392"/></linearGradient><radialGradient id="radialGradient4093" cx="4.993" cy="43.5" r="2.5" gradientTransform="matrix(2.0039 0 0 1.4 25.877 -17.4)" gradientUnits="userSpaceOnUse"><stop id="stop2883-0" offset="0" stop-color="#181818"/><stop id="stop2885-5" offset="1" stop-color="#181818" stop-opacity="0"/></radialGradient><radialGradient id="radialGradient4095" cx="4.993" cy="43.5" r="2.5" gradientTransform="matrix(2.0038 0 0 1.4 -21.419 -104.4)" gradientUnits="userSpaceOnUse"><stop id="stop2889-9" offset="0" stop-color="#181818"/><stop id="stop2891-4" offset="1" stop-color="#181818" stop-opacity="0"/></radialGradient><linearGradient id="linearGradient4097" x1="25.058" x2="25.058" y1="47.028" y2="39.999" gradientTransform="matrix(.87434 0 0 1 2.664 0)" gradientUnits="userSpaceOnUse"><stop id="stop2895-0" offset="0" stop-color="#181818" stop-opacity="0"/><stop id="stop2897-2" offset=".5" stop-color="#181818"/><stop id="stop2899-6" offset="1" stop-color="#181818" stop-opacity="0"/></linearGradient><linearGradient id="linearGradient3811"><stop id="stop3813" offset="0"/><stop id="stop3815" offset="1" stop-opacity="0"/></linearGradient><radialGradient id="radialGradient4432" cx="-4.029" cy="93.468" r="35.338" gradientTransform="matrix(1.5564 0 0 .16979 72.27 102.13)" gradientUnits="userSpaceOnUse" xlink:href="#linearGradient3811"/><radialGradient id="radialGradient3044" cx="32" cy="4.342" r="27.5" gradientTransform="matrix(1.7133e-8 4.1073 -3.9361 1.7878e-8 82.09 -109.71)" gradientUnits="userSpaceOnUse"><stop id="stop4634-68-8-0-2-9-4" offset="0" stop-color="#fafafa"/><stop id="stop4636-8-21-7-1-4-8" offset="1" stop-color="#e1e1e1"/></radialGradient><linearGradient id="linearGradient38386" x1="32" x2="32" y1="18" y2="33" gradientTransform="matrix(1.6727 0 0 2 10.636 6)" gradientUnits="userSpaceOnUse" xlink:href="#linearGradient3811"/><radialGradient id="radialGradient8807" cx="12.5" cy="20" r="4.5" gradientTransform="matrix(1 0 0 .66667 16 6.6667)" gradientUnits="userSpaceOnUse" xlink:href="#linearGradient3811"/><radialGradient id="radialGradient8809" cx="12.5" cy="20" r="4.5" gradientTransform="matrix(.83333 0 0 .55556 18.333 8.3889)" gradientUnits="userSpaceOnUse" xlink:href="#linearGradient3811"/><radialGradient id="radialGradient8797" cx="12.5" cy="20" r="4.5" gradientTransform="matrix(1 0 0 .66667 8 6.6667)" gradientUnits="userSpaceOnUse" xlink:href="#linearGradient3811"/><radialGradient id="radialGradient8799" cx="12.5" cy="20" r="4.5" gradientTransform="matrix(.83333 0 0 .55556 10.333 8.3889)" gradientUnits="userSpaceOnUse" xlink:href="#linearGradient3811"/><radialGradient id="radialGradient8817" cx="12.5" cy="20" r="4.5" gradientTransform="matrix(1 0 0 .66667 24 6.6667)" gradientUnits="userSpaceOnUse" xlink:href="#linearGradient3811"/><radialGradient id="radialGradient8819" cx="12.5" cy="20" r="4.5" gradientTransform="matrix(.83333 0 0 .55556 26.333 8.3889)" gradientUnits="userSpaceOnUse" xlink:href="#linearGradient3811"/><radialGradient id="radialGradient8781" cx="12.5" cy="20" r="4.5" gradientTransform="matrix(1 0 0 .66667 0 6.6667)" gradientUnits="userSpaceOnUse" xlink:href="#linearGradient3811"/><radialGradient id="radialGradient8785" cx="12.5" cy="20" r="4.5" gradientTransform="matrix(.83333 0 0 .55556 2.3333 8.3889)" gradientUnits="userSpaceOnUse" xlink:href="#linearGradient3811"/><linearGradient id="linearGradient8424"><stop id="stop8426" offset="0" stop-color="#fff"/><stop id="stop8428" offset="1" stop-color="#fff" stop-opacity="0"/></linearGradient><linearGradient id="linearGradient44241" x1="9" x2="9" y1="21" y2="18" gradientTransform="matrix(3.1667 0 0 3.1667 59.083 -4.4167)" gradientUnits="userSpaceOnUse" xlink:href="#linearGradient8424"/><linearGradient id="linearGradient44245" x1="9" x2="9" y1="21" y2="18" gradientTransform="matrix(3.1667 0 0 3.1667 17.083 -4.4167)" gradientUnits="userSpaceOnUse" xlink:href="#linearGradient8424"/><linearGradient id="linearGradient8827" x1="20" x2="20" y1="27" y2="38" gradientTransform="matrix(2.6 0 0 2.3846 3.8 6.3077)" gradientUnits="userSpaceOnUse"><stop id="stop8823" offset="0" stop-color="#64baff" stop-opacity="1"/><stop id="stop8825" offset="1" stop-color="#8cd5ff" stop-opacity="1"/></linearGradient><linearGradient id="linearGradient5610-3-8" x1="8" x2="8" y1="15" y2="10" gradientTransform="matrix(8.3334 0 0 7.7738 22.333 5.7794)" gradientUnits="userSpaceOnUse"><stop id="stop5606-8-2" offset="0" stop-color="#ae6a37"/><stop id="stop5608-5-0" offset="1" stop-color="#d28e5b"/></linearGradient><linearGradient id="linearGradient5618-5-7" x1="9" x2="9" y1="10" y2="15" gradientTransform="matrix(8.3334 0 0 7.7738 22.333 5.7794)" gradientUnits="userSpaceOnUse"><stop id="stop5614-2-5" offset="0" stop-color="#492714" stop-opacity=".625"/><stop id="stop5616-0-2" offset="1" stop-color="#6a3f1f" stop-opacity=".77"/></linearGradient><linearGradient id="linearGradient6572-9-1" x1="633.24" x2="633.24" y1="225.82" y2="230.21" gradientTransform="matrix(10.617 0 0 9.1124 -6632.9 -1979.7)" gradientUnits="userSpaceOnUse"><stop id="stop6094" offset="0" stop-color="#fff"/><stop id="stop6096" offset=".1" stop-color="#fff" stop-opacity=".235"/><stop id="stop6098" offset=".975" stop-color="#fff" stop-opacity=".157"/><stop id="stop6100" offset="1" stop-color="#fff" stop-opacity=".392"/></linearGradient><linearGradient id="linearGradient8537" x1="11" x2="23" y1="34" y2="34" gradientTransform="matrix(0 2.6364 -2.8462 0 144.77 40.182)" gradientUnits="userSpaceOnUse"><stop id="stop3926-9-4-9-6" offset="0" stop-color="#fff"/><stop id="stop3928-9-8-6-5" offset=".063" stop-color="#fff" stop-opacity=".235"/><stop id="stop3930-3-5-1-7" offset=".951" stop-color="#fff" stop-opacity=".157"/><stop id="stop3932-8-0-4-8" offset="1" stop-color="#fff" stop-opacity=".392"/></linearGradient><linearGradient id="linearGradient44452" x1="9" x2="9" y1="21" y2="18" gradientTransform="matrix(3.1667 0 0 3.1667 -3.9167 -4.4167)" gradientUnits="userSpaceOnUse" xlink:href="#linearGradient8424"/><linearGradient id="linearGradient44483" x1="71" x2="71" y1="19" y2="39" gradientUnits="userSpaceOnUse" xlink:href="#linearGradient3924"/></defs><metadata id="metadata4439"/><path id="path3041" fill="url(#radialGradient4432)" d="m121 118c-0.006 3.3133-24.628 5.9988-55 5.9988s-54.994-2.6856-55-5.9988c-0.0058-3.3142 24.62-6.0011 55-6.0011s55.006 2.687 55 6.0011z" color="#000" opacity=".2"/><g id="g2036" transform="matrix(2.7 0 0 .55556 1.2 94.891)"><g id="g3712" opacity=".4" transform="matrix(1.0526 0 0 1.2857 -1.2632 -13.429)"><rect id="rect2801" width="5" height="7" x="35.889" y="40" fill="url(#radialGradient4093)"/><rect id="rect3696" width="5" height="7" x="-11.407" y="-47" fill="url(#radialGradient4095)" transform="scale(-1)"/><rect id="rect3700" width="24.482" height="7" x="11.407" y="40" fill="url(#linearGradient4097)"/></g></g><path id="rect5505-21-3" fill="url(#radialGradient3044)" d="m23.5 22c-2.493 0-4.5 2.007-4.5 4.5v87c0 2.493 2.007 4.5 4.5 4.5h83c2.493 0 4.5-2.007 4.5-4.5v-87c0-2.493-2.007-4.5-4.5-4.5zm5 47.5h39v31h-39z" color="#000"/><rect id="rect6741-7" width="91" height="95" x="19.5" y="22.502" fill="none" stroke="url(#linearGradient4136)" stroke-linecap="round" stroke-linejoin="round" rx="4" ry="4"/><rect id="rect5505-21-3-1" width="93" height="97" x="18.5" y="21.502" fill="none" stroke="#000" color="#000" opacity=".25" rx="5" ry="5"/><rect id="rect38378" width="92" height="32" x="19" y="40" fill="url(#linearGradient38386)" opacity=".2" rx="0" ry="0"/><g id="g11938" fill-rule="evenodd" stroke-width=".374" transform="matrix(2.6667 0 0 2.6781 -1.4959 2.0106)"><ellipse id="ellipse8803" cx="28.5" cy="20" fill="url(#radialGradient8807)" color="#000" color-rendering="auto" image-rendering="auto" opacity=".2" rx="4.5" ry="3" shape-rendering="auto" style="isolation:auto;mix-blend-mode:normal;solid-color:#000"/><ellipse id="ellipse8805" cx="28.75" cy="19.5" fill="url(#radialGradient8809)" color="#000" color-rendering="auto" image-rendering="auto" opacity=".2" rx="3.75" ry="2.5" shape-rendering="auto" style="isolation:auto;mix-blend-mode:normal;solid-color:#000"/><ellipse id="ellipse8793" cx="20.5" cy="20" fill="url(#radialGradient8797)" color="#000" color-rendering="auto" image-rendering="auto" opacity=".2" rx="4.5" ry="3" shape-rendering="auto" style="isolation:auto;mix-blend-mode:normal;solid-color:#000"/><ellipse id="ellipse8795" cx="20.75" cy="19.5" fill="url(#radialGradient8799)" color="#000" color-rendering="auto" image-rendering="auto" opacity=".2" rx="3.75" ry="2.5" shape-rendering="auto" style="isolation:auto;mix-blend-mode:normal;solid-color:#000"/><ellipse id="ellipse8813" cx="36.5" cy="20" fill="url(#radialGradient8817)" color="#000" color-rendering="auto" image-rendering="auto" opacity=".2" rx="4.5" ry="3" shape-rendering="auto" style="isolation:auto;mix-blend-mode:normal;solid-color:#000"/><ellipse id="ellipse8815" cx="36.75" cy="19.5" fill="url(#radialGradient8819)" color="#000" color-rendering="auto" image-rendering="auto" opacity=".2" rx="3.75" ry="2.5" shape-rendering="auto" style="isolation:auto;mix-blend-mode:normal;solid-color:#000"/><ellipse id="path8763" cx="12.5" cy="20" fill="url(#radialGradient8781)" color="#000" color-rendering="auto" image-rendering="auto" opacity=".2" rx="4.5" ry="3" shape-rendering="auto" style="isolation:auto;mix-blend-mode:normal;solid-color:#000"/><ellipse id="ellipse8783" cx="12.75" cy="19.5" fill="url(#radialGradient8785)" color="#000" color-rendering="auto" image-rendering="auto" opacity=".2" rx="3.75" ry="2.5" shape-rendering="auto" style="isolation:auto;mix-blend-mode:normal;solid-color:#000"/></g><path id="path44114" fill="#eaeaea" stroke="#000" stroke-dashoffset="20" stroke-linecap="round" stroke-linejoin="round" stroke-opacity=".365" d="m74.5 17.5 1 33.5c0.17303 5.7964 4.701 10.5 10.5 10.5s10.5-4.701 10.5-10.5v-11l-2-22.5z"/><path id="path44118" fill="#eaeaea" stroke="#000" stroke-dashoffset="20" stroke-linecap="round" stroke-linejoin="round" stroke-opacity=".365" d="m35.5 17.5-2 22.5v11c0 5.799 4.701 10.5 10.5 10.5s10.5-4.701 10.5-10.5v-10.625l1-22.875z"/><path id="path44122" fill="#452981" fill-opacity="1" fill-rule="nonzero" stroke="#05020d" stroke-dasharray="none" stroke-dashoffset="20" stroke-linecap="round" stroke-linejoin="round" stroke-miterlimit="4" stroke-opacity=".498" stroke-width="1" d="m 113.5,23.5 4,16.5 0,11 c 0,5.799 -4.701,10.5 -10.5,10.5 -5.799,0 -10.5,-4.701 -10.5,-10.5 l 0,-11 -2,-22.5 12.5,0 c 0,0 5.4707,-0.2401 6.5,6 z m -97,0 -4,16.5 0,11 c 0,5.799 4.701,10.5 10.5,10.5 5.799,0 10.5,-4.701 10.5,-10.5 l 0,-11 2,-22.5 -12.5,0 c 0,0 -5.4817,-0.20725 -6.5,6 z m 39,-6 -1,22 0,11.5 c 0,5.799 4.701,10.5 10.5,10.5 5.799,0 10.5,-4.701 10.5,-10.5 l 0,-11.5 -1,-22 z" clip-rule="nonzero" color="#000" color-interpolation="sRGB" color-interpolation-filters="linearRGB" color-rendering="auto" display="inline" enable-background="accumulate" image-rendering="auto" opacity="1" overflow="visible" shape-rendering="auto" text-rendering="auto" visibility="visible" style="isolation:auto;mix-blend-mode:normal;solid-color:#000;solid-opacity:1;filter-blend-mode:normal;filter-gaussianBlur-deviation:0"/><circle stroke-linejoin="round" style="isolation:auto;mix-blend-mode:normal;solid-color:#000" id="path8406" cx="23" cy="51" r="9.5" fill="none" stroke="url(#linearGradient44452)" stroke-linecap="round" stroke-opacity=".392" color="#000" color-rendering="auto" image-rendering="auto" opacity=".4" shape-rendering="auto"/><circle stroke-linejoin="round" style="isolation:auto;mix-blend-mode:normal;solid-color:#000" id="use44199" cx="44" cy="51" r="9.5" fill="none" stroke="url(#linearGradient44245)" stroke-linecap="round" stroke-opacity=".392" color="#000" color-rendering="auto" image-rendering="auto" shape-rendering="auto"/><use id="use44201" width="100%" height="100%" x="0" y="0" transform="translate(42)" xlink:href="#path8406"/><circle stroke-linejoin="round" style="isolation:auto;mix-blend-mode:normal;solid-color:#000" id="use44203" cx="86" cy="51" r="9.5" fill="none" stroke="url(#linearGradient44241)" stroke-linecap="round" stroke-opacity=".392" color="#000" color-rendering="auto" image-rendering="auto" shape-rendering="auto"/><use id="use44205" width="100%" height="100%" x="0" y="0" transform="translate(84)" xlink:href="#path8406"/><path id="path33635" fill="#fff" fill-opacity=".542" fill-rule="evenodd" stroke="url(#linearGradient44483)" stroke-linejoin="round" stroke-width="1" d="m17.5 23.5-3.9822 16h102.99l-4.0125-16s-0.5-5.0625-5.875-5.125l-83.62 0.125c-4.75 0-5.5 5-5.5 5z" opacity=".2"/><path id="rect8516" fill="url(#linearGradient8827)" fill-rule="evenodd" d="m28.5 69.5h39v31h-39z" color="#000" color-rendering="auto" image-rendering="auto" opacity=".8" shape-rendering="auto" style="isolation:auto;mix-blend-mode:normal;solid-color:#000"/><path id="path8523" fill="none" stroke="#fff" stroke-linecap="round" stroke-width="1" d="m35 81 9-9" opacity=".2"/><path id="path8525" fill="none" stroke="#fff" stroke-linecap="round" stroke-width="1" d="m40 97 9-9" opacity=".2"/><path id="path8527" fill="none" stroke="#fff" stroke-linecap="round" stroke-width="1" d="m49 81 9-9" opacity=".2"/><path id="rect5583-1" fill="url(#linearGradient5610-3-8)" stroke="url(#linearGradient5618-5-7)" stroke-linejoin="round" d="m89 77.577c-6.9251 0-12.5 5.4008-12.5 11.861v29.062h25v-29.062c0-6.46-5.5748-11.861-12.5-11.861z" color="#000"/><path id="rect5583-1-7" fill="none" stroke="url(#linearGradient6572-9-1)" d="m88.948 78.549c-6.3566 0-11.483 4.9939-11.474 10.259l0.05122 28.692h22.948l-0.0512-28.692c-0.01-5.4077-5.1172-10.259-11.474-10.259z" color="#000" opacity=".5"/><path id="path44423" d="m99 101c0 2.6899-4 2.6899-4 0s4-2.6899 4 0z" color="#000" opacity=".2"/><path id="path5620-8" fill="#620" d="m99 100c0 2.6899-4 2.6899-4 0s4-2.6899 4 0z" color="#000"/><path id="rect8529" fill="none" stroke="url(#linearGradient8537)" stroke-linecap="round" stroke-linejoin="round" stroke-opacity=".625" d="m66.5 70.5v29h-37v-29z" color="#000" color-rendering="auto" image-rendering="auto" shape-rendering="auto" style="isolation:auto;mix-blend-mode:normal;solid-color:#000"/><path id="path8539" fill="none" stroke="#fff" stroke-linecap="round" stroke-width="1" d="m28.507 101.5h38.986" opacity=".4"/><path id="path8592" fill="none" stroke="#fff" stroke-linecap="round" stroke-width="1" d="m56 90 9-9" opacity=".2"/><path id="path11916" fill="none" stroke="#64baff" stroke-linecap="round" stroke-linejoin="round" d="m28.5 69.5h39v31h-39z" color="#000" color-rendering="auto" image-rendering="auto" shape-rendering="auto" style="isolation:auto;mix-blend-mode:normal;solid-color:#000"/><path id="path44485" fill="none" stroke="#fff" stroke-width="1" d="m13.518 39.5h102.99" opacity=".1"/><path id="path3432" fill="none" stroke="#000" stroke-linecap="round" stroke-linejoin="round" stroke-opacity="1" d="m28.5 69.5h39v31h-39z" color="#000" color-rendering="auto" image-rendering="auto" opacity=".2" shape-rendering="auto" style="isolation:auto;mix-blend-mode:normal;solid-color:#000"/></svg>