<svg xmlns="http://www.w3.org/2000/svg" xmlns:svg="http://www.w3.org/2000/svg" xmlns:xlink="http://www.w3.org/1999/xlink" id="svg3049" width="128" height="128" version="1.1"><defs id="defs3051"><linearGradient id="linearGradient897"><stop id="stop893" offset="0" stop-color="#ffa154" stop-opacity="1"/><stop id="stop895" offset="1" stop-color="#f37329" stop-opacity="1"/></linearGradient><linearGradient id="linearGradient3924"><stop id="stop3926" offset="0" stop-color="#fff" stop-opacity="1"/><stop id="stop3928" offset=".063" stop-color="#fff" stop-opacity=".235"/><stop id="stop3930" offset=".951" stop-color="#fff" stop-opacity=".157"/><stop id="stop3932" offset="1" stop-color="#fff" stop-opacity=".392"/></linearGradient><linearGradient id="linearGradient3688-166-749-5"><stop id="stop2883-0" offset="0" stop-color="#181818" stop-opacity="1"/><stop id="stop2885-5" offset="1" stop-color="#181818" stop-opacity="0"/></linearGradient><linearGradient id="linearGradient3688-464-309-8"><stop id="stop2889-9" offset="0" stop-color="#181818" stop-opacity="1"/><stop id="stop2891-4" offset="1" stop-color="#181818" stop-opacity="0"/></linearGradient><linearGradient id="linearGradient3702-501-757-0"><stop id="stop2895-0" offset="0" stop-color="#181818" stop-opacity="0"/><stop id="stop2897-2" offset=".5" stop-color="#181818" stop-opacity="1"/><stop id="stop2899-6" offset="1" stop-color="#181818" stop-opacity="0"/></linearGradient><linearGradient id="linearGradient3811"><stop id="stop3813" offset="0" stop-color="#000" stop-opacity="1"/><stop id="stop3815" offset="1" stop-color="#000" stop-opacity="0"/></linearGradient><radialGradient id="radialGradient3946" cx="4.993" cy="43.5" r="2.5" fx="4.993" fy="43.5" gradientTransform="matrix(2.003784,0,0,1.4,27.98813,-17.4)" gradientUnits="userSpaceOnUse" xlink:href="#linearGradient3688-166-749-5"/><radialGradient id="radialGradient3948" cx="4.993" cy="43.5" r="2.5" fx="4.993" fy="43.5" gradientTransform="matrix(2.003784,0,0,1.4,-20.01187,-104.4)" gradientUnits="userSpaceOnUse" xlink:href="#linearGradient3688-464-309-8"/><linearGradient id="linearGradient3950" x1="25.058" x2="25.058" y1="47.028" y2="39.999" gradientUnits="userSpaceOnUse" xlink:href="#linearGradient3702-501-757-0"/><linearGradient id="linearGradient3965" x1="24" x2="24" y1="5" y2="43" gradientTransform="matrix(2.7297298,0,0,2.7297298,-1.5135175,1.488319)" gradientUnits="userSpaceOnUse" xlink:href="#linearGradient3924"/><radialGradient id="radialGradient3976" cx="-4.029" cy="93.468" r="35.338" fx="-4.029" fy="93.468" gradientTransform="matrix(1.5563924,0,0,0.16978827,70.270355,102.1321)" gradientUnits="userSpaceOnUse" xlink:href="#linearGradient3811"/><linearGradient id="linearGradient891" x1="66.997" x2="66.997" y1="15.857" y2="117.81" gradientUnits="userSpaceOnUse" xlink:href="#linearGradient897"/><linearGradient id="linearGradient5803"><stop id="stop5805" offset="0" stop-color="#fff5ef" stop-opacity="1"/><stop id="stop5807" offset="1" stop-color="#fef8dd" stop-opacity="1"/></linearGradient><linearGradient id="linearGradient3045-0" x1="167.983" x2="167.983" y1="8.508" y2="54.78" gradientTransform="matrix(1.7777778,0,0,1.7777778,-228.47947,10.112924)" gradientUnits="userSpaceOnUse" xlink:href="#linearGradient5803"/></defs><metadata id="metadata3054"/><path id="path3041" fill="url(#radialGradient3976)" fill-opacity="1" fill-rule="nonzero" stroke="none" stroke-width="1" d="m 119,118.00181 a 55,6 0 0 1 -109.9999975,0 55,6 0 1 1 109.9999975,0 z" color="#000" display="inline" enable-background="accumulate" opacity=".2" overflow="visible" visibility="visible" style="marker:none"/><g id="g2036" display="inline" transform="matrix(2.6999989,0,0,0.55555607,-0.8000075,94.890689)"><g id="g3712" opacity=".4" transform="matrix(1.052632,0,0,1.285713,-1.263158,-13.42854)"><rect id="rect2801" width="5" height="7" x="38" y="40" fill="url(#radialGradient3946)" fill-opacity="1" stroke="none"/><rect id="rect3696" width="5" height="7" x="-10" y="-47" fill="url(#radialGradient3948)" fill-opacity="1" stroke="none" transform="scale(-1,-1)"/><rect id="rect3700" width="28" height="7" x="10" y="40" fill="url(#linearGradient3950)" fill-opacity="1" stroke="none"/></g></g><rect id="rect5505-21-3" width="103" height="103" x="12.5" y="15.502" fill="url(#linearGradient891)" fill-opacity="1" fill-rule="nonzero" stroke="none" stroke-width="1" color="#000" display="inline" enable-background="accumulate" overflow="visible" rx="6.055" ry="6.055" visibility="visible" style="marker:none"/><rect id="rect6741-7" width="101" height="101" x="13.5" y="16.502" fill="none" stroke="url(#linearGradient3965)" stroke-dasharray="none" stroke-dashoffset="0" stroke-linecap="round" stroke-linejoin="round" stroke-miterlimit="4" stroke-opacity="1" stroke-width="1" opacity=".5" rx="5" ry="5"/><rect id="rect5505-21-3-1" width="103" height="103" x="12.5" y="15.502" fill="none" stroke="#a62100" stroke-dasharray="none" stroke-dashoffset="0" stroke-linecap="round" stroke-linejoin="round" stroke-miterlimit="4" stroke-opacity="1" stroke-width="1" color="#000" display="inline" enable-background="accumulate" opacity=".5" overflow="visible" rx="6.055" ry="6.055" visibility="visible" style="marker:none"/><path id="path3129" fill="#a62100" fill-opacity="1" fill-rule="nonzero" stroke="none" stroke-width="1" d="m 63.999999,35.000002 c -15.01735,0 -27.67766,9.965955 -31.656251,23.71875 a 0.98724289,0.98724289 0 0 0 0.9375,1.28125 h 7.5 a 0.98724289,0.98724289 0 0 0 0.906251,-0.65625 c 3.444361,-8.96802 12.124126,-15.34375 22.3125,-15.34375 6.235096,0 11.866465,2.551158 16.125,6.5 l -7.9375,7.8125 a 0.98724289,0.98724289 0 0 0 0.6875,1.6875 h 23.125 a 0.98724289,0.98724289 0 0 0 1,-1 v -23 a 0.98724289,0.98724289 0 0 0 -1.6875,-0.6875 l -8.75,8.78125 c -5.899537,-5.570859 -13.811502,-9.09375 -22.5625,-9.09375 z m -32.000001,41 a 0.98724289,0.98724289 0 0 0 -0.999999,1 V 100 a 0.98724289,0.98724289 0 0 0 1.687499,0.6875 l 8.750001,-8.749998 C 47.338224,97.507159 55.251239,101 63.999999,101 c 15.017349,0 27.677658,-9.965955 31.65625,-23.718748 a 0.98724289,0.98724289 0 0 0 -0.9375,-1.28125 h -7.5 a 0.98724289,0.98724289 0 0 0 -0.90625,0.65625 c -3.444362,8.968018 -12.124128,15.34375 -22.3125,15.34375 -6.235097,0 -11.866465,-2.551158 -16.125,-6.5 l 7.9375,-7.8125 a 0.98724289,0.98724289 0 0 0 -0.6875,-1.6875 z" color="#000" display="inline" enable-background="accumulate" opacity=".15" overflow="visible" visibility="visible" style="marker:none"/><path id="path3178-9" fill="#a62100" fill-opacity="1" fill-rule="nonzero" stroke="none" stroke-width="1" d="m 63.999989,36.002004 c -14.581276,0 -26.863626,9.660177 -30.722224,22.998191 h 7.500001 c 3.586853,-9.339021 12.620377,-16 23.222223,-16 6.866013,0 13.058559,2.940656 17.555555,7.446253 l -8.666666,8.553747 H 95.999989 V 36.002004 l -9.38889,9.388889 C 80.826906,39.598236 72.832944,36.002004 63.999989,36.002004 Z M 31.999988,77.000195 V 100.002 l 9.388891,-9.388888 c 5.784193,5.792658 13.778155,9.388888 22.61111,9.388888 14.581275,0 26.863624,-9.663793 30.722222,-23.001805 h -7.5 c -3.586853,9.339019 -12.620378,16 -23.222222,16 -6.866014,0 -13.05856,-2.93704 -17.555556,-7.442637 l 8.666666,-8.557363 z" color="#000" display="inline" enable-background="accumulate" opacity=".3" overflow="visible" visibility="visible" style="marker:none"/><path id="path3178" fill="url(#linearGradient3045-0)" fill-opacity="1" fill-rule="nonzero" stroke="none" stroke-width="1" d="m 63.999989,35.001811 c -14.581276,0 -26.863626,9.660177 -30.722224,22.998191 h 7.500001 c 3.586853,-9.339021 12.620377,-16 23.222223,-16 6.866013,0 13.058559,2.940656 17.555555,7.446253 l -8.666666,8.553747 H 95.999989 V 35.001811 L 86.611099,44.3907 C 80.826906,38.598043 72.832944,35.001811 63.999989,35.001811 Z M 31.999988,76.000002 v 23.001807 l 9.388891,-9.38889 c 5.784193,5.792658 13.778155,9.38889 22.61111,9.38889 14.581275,0 26.863624,-9.663795 30.722222,-23.001807 h -7.5 c -3.586853,9.339019 -12.620378,16 -23.222222,16 -6.866014,0 -13.05856,-2.93704 -17.555556,-7.442637 l 8.666666,-8.557363 z" color="#000" display="inline" enable-background="accumulate" opacity="1" overflow="visible" visibility="visible" style="marker:none"/></svg>