<svg xmlns="http://www.w3.org/2000/svg" xmlns:svg="http://www.w3.org/2000/svg" xmlns:xlink="http://www.w3.org/1999/xlink" id="svg4157" width="16" height="16" version="1.1"><defs id="defs4159"><linearGradient id="linearGradient1050"><stop id="stop1046" offset="0" stop-color="#fafafa" stop-opacity="1"/><stop id="stop1048" offset="1" stop-color="#d4d4d4" stop-opacity="1"/></linearGradient><linearGradient id="linearGradient9165-59"><stop id="stop9167-6" offset="0" stop-color="#b6c5cc" stop-opacity="1"/><stop id="stop9169-9" offset="1" stop-color="#e5f0f6" stop-opacity="0"/></linearGradient><linearGradient id="linearGradient9165-5-1"><stop id="stop9167-7-12" offset="0" stop-color="#acb9bf" stop-opacity="1"/><stop id="stop9169-0-4" offset="1" stop-color="#acb9bf" stop-opacity="0"/></linearGradient><linearGradient id="linearGradient4017"><stop id="stop4019" offset="0" stop-color="#fff" stop-opacity="1"/><stop id="stop4021" offset=".496" stop-color="#fff" stop-opacity=".235"/><stop id="stop4023" offset=".88" stop-color="#fff" stop-opacity=".157"/><stop id="stop4025" offset="1" stop-color="#fff" stop-opacity=".392"/></linearGradient><linearGradient id="linearGradient4015-5-3" x1="20.154" x2="20.154" y1="3.022" y2="25.473" gradientTransform="matrix(0.42648682,0,0,0.43892158,1.1762122,1.5644601)" gradientUnits="userSpaceOnUse" xlink:href="#linearGradient4017"/><radialGradient id="radialGradient3182-5" cx="680.566" cy="365.658" r="12.053" fx="681.326" fy="354.216" gradientTransform="matrix(0.18941954,0,0,0.18727481,-123.91246,-62.478512)" gradientUnits="userSpaceOnUse" xlink:href="#linearGradient9165-5-1"/><linearGradient id="linearGradient1052" x1="10" x2="10" y1="2" y2="16.065" gradientUnits="userSpaceOnUse" xlink:href="#linearGradient1050"/><radialGradient id="radialGradient3164-2-9-0" cx="680.566" cy="365.658" r="12.053" fx="680.602" fy="355.258" gradientTransform="matrix(0.26677262,0,0,0.26375204,-171.66643,-91.443342)" gradientUnits="userSpaceOnUse" xlink:href="#linearGradient9165-59"/><linearGradient id="linearGradient3149-7" x1="34.875" x2="34.875" y1="67.731" y2="49.712" gradientTransform="matrix(0.32595359,0,0,-0.35063868,-1.9173762,31.430831)" gradientUnits="userSpaceOnUse" xlink:href="#linearGradient4297"/><linearGradient id="linearGradient4297"><stop id="stop4299" offset="0" stop-color="#fff" stop-opacity="1"/><stop id="stop4301" offset=".525" stop-color="#fff" stop-opacity=".235"/><stop id="stop4303" offset="1" stop-color="#fff" stop-opacity=".157"/><stop id="stop4305" offset="1" stop-color="#fff" stop-opacity=".392"/></linearGradient><linearGradient id="linearGradient901" x1="24" x2="46.511" y1="21.483" y2="21.483" gradientTransform="matrix(0,0.36363758,-0.36306836,0,16.888906,-1.4091336)" gradientUnits="userSpaceOnUse" xlink:href="#linearGradient899"/><linearGradient id="linearGradient899"><stop id="stop895" offset="0" stop-color="#cd9ef7" stop-opacity="1"/><stop id="stop897" offset="1" stop-color="#a56de2" stop-opacity="1"/></linearGradient><radialGradient id="radialGradient3129" cx="24.837" cy="36.421" r="15.645" fx="24.837" fy="36.421" gradientTransform="matrix(-0.18401958,0,0,-0.19761511,12.570517,20.105731)" gradientUnits="userSpaceOnUse" xlink:href="#linearGradient3688-5"/><linearGradient id="linearGradient3688-5"><stop id="stop3690-8" offset="0" stop-color="#000" stop-opacity="1"/><stop id="stop3692-6" offset="1" stop-color="#000" stop-opacity="0"/></linearGradient></defs><metadata id="metadata4162"/><circle id="path226-6" cx="-24.819" cy="3.484" r="0" fill="#9bdb4d" fill-opacity="1" stroke="#452981" stroke-dasharray="none" stroke-dashoffset="0" stroke-linecap="butt" stroke-linejoin="miter" stroke-miterlimit="4" stroke-opacity="1" stroke-width="1" opacity="1" vector-effect="none" style="marker:none"/><path id="path924" fill="none" fill-opacity="1" stroke="#555761" stroke-dasharray="none" stroke-dashoffset="0" stroke-linecap="round" stroke-linejoin="round" stroke-miterlimit="4" stroke-opacity="1" stroke-width="1" d="M 10,1.5 C 8.4162831,1.5021403 7.0313479,2.5674751 6.6230469,4.0976562 6.1703712,3.7116752 5.5948921,3.4997659 5,3.5 3.6192881,3.5 2.5,4.6192881 2.5,6 2.5009622,6.0841939 2.5061771,6.1682854 2.515625,6.2519531 1.2581201,7.084594 0.50134211,8.4918197 0.5,10 c 0,2.485281 2.0147186,4.5 4.5,4.5 h 6 c 2.485281,0 4.5,-2.014719 4.5,-4.5 C 15.498012,8.4169521 14.664361,6.951387 13.304688,6.140625 13.432632,5.773888 13.498638,5.3884119 13.5,5 13.5,3.0670034 11.932997,1.5 10,1.5 Z" opacity=".5" vector-effect="none" style="marker:none;font-variant-east_asian:normal"/><path id="path924-3" fill="url(#linearGradient1052)" fill-opacity="1" stroke="none" stroke-dasharray="none" stroke-dashoffset="0" stroke-linecap="round" stroke-linejoin="round" stroke-miterlimit="4" stroke-opacity="1" stroke-width="1.125" d="M 10 2 A 3 3 0 0 0 7.0742188 4.3496094 A 0.5 0.5 0 0 1 6.6445312 4.5976562 A 0.5 0.5 0 0 1 6.3613281 4.5097656 L 6.3496094 4.5273438 A 2 2 0 0 0 5 4 A 2 2 0 0 0 3 6 A 2 2 0 0 0 3.0214844 6.2695312 A 0.5 0.5 0 0 1 2.7773438 6.6835938 C 1.7080485 7.4014882 1 8.6152724 1 10 C 1 12.209139 2.790861 14 5 14 L 11 14 C 13.209139 14 15 12.209139 15 10 C 15 8.5281862 14.195643 7.2570799 13.011719 6.5625 L 13.021484 6.5507812 A 0.5 0.5 0 0 1 12.810547 6.1425781 A 0.5 0.5 0 0 1 12.826172 6.0195312 L 12.818359 6.0175781 A 3 3 0 0 0 13 5 A 3 3 0 0 0 10 2 z" opacity="1" vector-effect="none" style="marker:none"/><circle id="path924-8-75-2" cx="10" cy="5" r="3" fill="url(#radialGradient3164-2-9-0)" fill-opacity="1" stroke="none" stroke-dasharray="none" stroke-dashoffset="0" stroke-linecap="butt" stroke-linejoin="miter" stroke-miterlimit="4" stroke-opacity="1" stroke-width="1.879" opacity=".15" vector-effect="none" style="marker:none;font-variant-east_asian:normal"/><circle id="path924-8-7-3-7" cx="5" cy="6" r="2" fill="url(#radialGradient3182-5)" fill-opacity="1" stroke="none" stroke-dasharray="none" stroke-dashoffset="0" stroke-linecap="butt" stroke-linejoin="miter" stroke-miterlimit="4" stroke-opacity="1" stroke-width=".523" opacity=".15" vector-effect="none" style="marker:none;font-variant-east_asian:normal"/><path id="path924-3-0" fill="none" fill-opacity="1" stroke="url(#linearGradient4015-5-3)" stroke-dasharray="none" stroke-dashoffset="0" stroke-linecap="round" stroke-linejoin="round" stroke-miterlimit="4" stroke-opacity="1" stroke-width="1" d="M 9.8571425,2.5 C 8.5523372,2.501232 7.7889374,3.5220798 7.5060602,4.7795229 7.4232201,4.9197042 6.9971761,5.086187 6.8327788,5.0868992 6.7388849,5.0869117 6.6471936,5.1845349 6.5698045,5.1320471 L 6.3417796,5.1481601 C 5.9999337,4.8380578 5.5299718,4.4713111 5.0657141,4.4704762 c -1.0256717,0 -1.5485715,0.7636684 -1.5485714,1.7761905 9.966e-4,0.082707 0.00766,0.1652521 0.01995,0.2470703 -0.00497,0.1564307 -0.090446,0.2995463 -0.226702,0.3795573 C 2.3174735,7.5313642 1.5,8.5639997 1.5,9.8333334 1.5,11.858377 3.1629422,13.5 5.2142855,13.5 H 10.785714 C 12.837057,13.5 14.5,11.858377 14.5,9.8333334 14.5,8.4841707 13.524525,7.341847 12.425168,6.7051488 l 0.0091,-0.010742 c -0.122917,-0.085974 -0.19594,-0.2254748 -0.19587,-0.3741862 7.8e-5,-0.038047 0.005,-0.075936 0.01452,-0.112793 l -0.0073,-0.00179 C 12.356086,5.9066864 12.527441,5.4425043 12.52857,5.1242857 12.52857,3.6055029 11.39565,2.5000004 9.8571425,2.5 Z" opacity=".8" vector-effect="none" style="marker:none"/><path id="path3501" fill="url(#radialGradient3129)" fill-opacity="1" fill-rule="evenodd" stroke="none" stroke-width="1" d="m 5.1210621,12.908362 a 2.878938,3.091638 0 1 1 5.7578759,0 2.8789379,3.091638 0 0 1 -5.7578759,0 z" display="inline" opacity=".141" overflow="visible" visibility="visible" style="marker:none"/><path id="path3288-2-2" fill="url(#linearGradient901)" fill-opacity="1" fill-rule="nonzero" stroke="none" stroke-width=".964" d="M 4.5508505,11.499987 7.9970816,7.4999735 11.449149,11.499987 H 9.5 V 15.5 h -3 v -4.000013 z" color="#000" display="block" enable-background="accumulate" overflow="visible" visibility="visible" style="marker:none"/><path id="path3288-2-2-7" fill="none" fill-opacity="1" fill-rule="nonzero" stroke="#7239b3" stroke-dasharray="none" stroke-dashoffset="0" stroke-linecap="butt" stroke-linejoin="round" stroke-miterlimit="4" stroke-opacity="1" stroke-width="1" d="M 4.5508504,11.499987 7.9970815,7.4999735 11.44915,11.499987 H 9.4999998 V 15.5 h -3 v -4.000013 z" clip-rule="nonzero" color="#000" color-interpolation="sRGB" color-interpolation-filters="linearRGB" color-rendering="auto" display="inline" enable-background="accumulate" image-rendering="auto" opacity=".5" overflow="visible" shape-rendering="auto" text-rendering="auto" visibility="visible" style="isolation:auto;mix-blend-mode:normal;solid-color:#000;solid-opacity:1;marker:none"/><path id="path3288-2-2-8" fill="none" stroke="url(#linearGradient3149-7)" stroke-dasharray="none" stroke-dashoffset="0" stroke-linecap="butt" stroke-linejoin="miter" stroke-miterlimit="7" stroke-opacity="1" stroke-width=".964" d="M 6.7005405,10.5 7.9838788,9 9.3009308,10.5 H 8.5 v 4 h -1 v -4 z" color="#000" display="block" enable-background="accumulate" opacity=".401" overflow="visible" visibility="visible" style="marker:none"/></svg>