<svg xmlns="http://www.w3.org/2000/svg" xmlns:svg="http://www.w3.org/2000/svg" xmlns:xlink="http://www.w3.org/1999/xlink" id="svg5400" width="16" height="16" version="1.1"><defs id="defs5402"><linearGradient id="linearGradient3821"><stop id="stop3823" offset="0" stop-color="#555" stop-opacity="1"/><stop id="stop3825" offset="1" stop-color="#666" stop-opacity="1"/></linearGradient><linearGradient id="linearGradient4710" x1="8" x2="8" y1="16" y2="0" gradientUnits="userSpaceOnUse" xlink:href="#linearGradient3821"/><linearGradient id="linearGradient4715" x1="8" x2="8" y1="16" y2="0" gradientTransform="translate(0,2)" gradientUnits="userSpaceOnUse" xlink:href="#linearGradient3821"/><linearGradient id="linearGradient4720" x1="8" x2="8" y1="16" y2="0" gradientTransform="translate(0,2)" gradientUnits="userSpaceOnUse" xlink:href="#linearGradient3821"/><linearGradient id="linearGradient4725" x1="8" x2="8" y1="16" y2="0" gradientTransform="translate(0,2)" gradientUnits="userSpaceOnUse" xlink:href="#linearGradient3821"/></defs><metadata id="metadata5405"/><g id="layer1"><path id="path4545" fill="url(#linearGradient4725)" fill-opacity="1" stroke="none" stroke-width="1" d="m 14,6.5 0.5,0 0,0.5 0,1 0,0.5 -0.5,0 c 0,0 -6.996916,0 -12,0 l -0.5,0 0,-0.5 0,-1 0,-0.5 0.5,0 c 0,0 6.996916,0 12,0 z" baseline-shift="baseline" color="#bebebe" direction="ltr" display="inline" enable-background="accumulate" font-family="Sans" font-size="medium" font-stretch="normal" font-style="normal" font-variant="normal" font-weight="normal" letter-spacing="normal" overflow="visible" text-anchor="start" text-decoration="none" visibility="visible" word-spacing="normal" writing-mode="lr-tb" style="text-indent:0;text-align:start;line-height:normal;text-transform:none;block-progression:tb;marker:none;-inkscape-font-specification:Sans"/><path id="rect31992" fill="#bebebe" fill-opacity="1" stroke="none" stroke-width="1" d="M 10,7 10,7.5 8,7.5 8,7 z m 4,0 0,0.5 -4,0 L 10,7 z M 8,7 8,7.5 2,7.5 2,7 z" color="#bebebe" display="inline" opacity=".2" overflow="visible" visibility="visible" style="marker:none"/><path font-stretch="normal" style="text-indent:0;text-align:start;line-height:normal;text-transform:none;block-progression:tb;marker:none;-inkscape-font-specification:Sans" id="path4559" fill="none" stroke="#000" stroke-opacity="1" stroke-width="1" d="m 14,6.5 0.5,0 0,0.5 0,1 0,0.5 -0.5,0 c 0,0 -6.996916,0 -12,0 l -0.5,0 0,-0.5 0,-1 0,-0.5 0.5,0 c 0,0 6.996916,0 12,0 z" baseline-shift="baseline" color="#bebebe" direction="ltr" display="inline" enable-background="accumulate" font-family="Sans" font-size="medium" font-style="normal" font-variant="normal" font-weight="normal" letter-spacing="normal" opacity=".61" overflow="visible" text-anchor="start" text-decoration="none" visibility="visible" word-spacing="normal" writing-mode="lr-tb"/><path id="path4623" fill="url(#linearGradient4720)" fill-opacity="1" stroke="none" stroke-width="1" d="m 12,2.5 0.5,0 0,0.5 0,1 0,0.5 -0.5,0 c 0,0 -2.996916,0 -8,0 l -0.5,0 0,-0.5 0,-1 0,-0.5 0.5,0 c 0,0 2.996916,0 8,0 z" baseline-shift="baseline" color="#bebebe" direction="ltr" display="inline" enable-background="accumulate" font-family="Sans" font-size="medium" font-stretch="normal" font-style="normal" font-variant="normal" font-weight="normal" letter-spacing="normal" overflow="visible" text-anchor="start" text-decoration="none" visibility="visible" word-spacing="normal" writing-mode="lr-tb" style="text-indent:0;text-align:start;line-height:normal;text-transform:none;block-progression:tb;marker:none;-inkscape-font-specification:Sans"/><path id="path4625" fill="#bebebe" fill-opacity="1" stroke="none" stroke-width="1" d="M 8,3 8,3.5 6,3.5 6,3 z m 4,0 0,0.5 -4,0 L 8,3 z M 6,3 6,3.5 4,3.5 4,3 z" color="#bebebe" display="inline" opacity=".2" overflow="visible" visibility="visible" style="marker:none"/><path font-stretch="normal" style="text-indent:0;text-align:start;line-height:normal;text-transform:none;block-progression:tb;marker:none;-inkscape-font-specification:Sans" id="path4627" fill="none" stroke="#000" stroke-opacity="1" stroke-width="1" d="m 12,2.5 0.5,0 0,0.5 0,1 0,0.5 -0.5,0 c 0,0 -2.996916,0 -8,0 l -0.5,0 0,-0.5 0,-1 0,-0.5 0.5,0 c 0,0 2.996916,0 8,0 z" baseline-shift="baseline" color="#bebebe" direction="ltr" display="inline" enable-background="accumulate" font-family="Sans" font-size="medium" font-style="normal" font-variant="normal" font-weight="normal" letter-spacing="normal" opacity=".61" overflow="visible" text-anchor="start" text-decoration="none" visibility="visible" word-spacing="normal" writing-mode="lr-tb"/><path id="path4631" fill="url(#linearGradient4715)" fill-opacity="1" stroke="none" stroke-width="1" d="m 13,10.5 0.5,0 0,0.5 0,1 0,0.5 -0.5,0 c 0,0 -4.996916,0 -10,0 l -0.5,0 0,-0.5 0,-1 0,-0.5 0.5,0 c 0,0 4.996916,0 10,0 z" baseline-shift="baseline" color="#bebebe" direction="ltr" display="inline" enable-background="accumulate" font-family="Sans" font-size="medium" font-stretch="normal" font-style="normal" font-variant="normal" font-weight="normal" letter-spacing="normal" overflow="visible" text-anchor="start" text-decoration="none" visibility="visible" word-spacing="normal" writing-mode="lr-tb" style="text-indent:0;text-align:start;line-height:normal;text-transform:none;block-progression:tb;marker:none;-inkscape-font-specification:Sans"/><path id="path4633" fill="#bebebe" fill-opacity="1" stroke="none" stroke-width="1" d="m 9,11 0,0.5 -2,0 0,-0.5 z m 4,0 0,0.5 -4,0 0,-0.5 z m -6,0 0,0.5 -4,0 0,-0.5 z" color="#bebebe" display="inline" opacity=".2" overflow="visible" visibility="visible" style="marker:none"/><path font-stretch="normal" style="text-indent:0;text-align:start;line-height:normal;text-transform:none;block-progression:tb;marker:none;-inkscape-font-specification:Sans" id="path4635" fill="none" stroke="#000" stroke-opacity="1" stroke-width="1" d="m 13,10.5 0.5,0 0,0.5 0,1 0,0.5 -0.5,0 c 0,0 -4.996916,0 -10,0 l -0.5,0 0,-0.5 0,-1 0,-0.5 0.5,0 c 0,0 4.996916,0 10,0 z" baseline-shift="baseline" color="#bebebe" direction="ltr" display="inline" enable-background="accumulate" font-family="Sans" font-size="medium" font-style="normal" font-variant="normal" font-weight="normal" letter-spacing="normal" opacity=".61" overflow="visible" text-anchor="start" text-decoration="none" visibility="visible" word-spacing="normal" writing-mode="lr-tb"/></g></svg>