<svg xmlns="http://www.w3.org/2000/svg" xmlns:osb="http://www.openswatchbook.org/uri/2009/osb" xmlns:svg="http://www.w3.org/2000/svg" xmlns:xlink="http://www.w3.org/1999/xlink" id="svg3001" width="16" height="16" enable-background="new" version="1.1"><metadata id="metadata90"/><defs id="defs7386"><linearGradient id="linearGradient5153"><stop id="stop5155" offset="0" stop-color="#555" stop-opacity="1"/><stop id="stop5157" offset="1" stop-color="#666" stop-opacity="1"/></linearGradient><linearGradient id="linearGradient5606" osb:paint="solid"><stop id="stop5608"/></linearGradient><linearGradient id="linearGradient5159" x1="8" x2="8" y1="16" y2="0" gradientUnits="userSpaceOnUse" xlink:href="#linearGradient5153"/><linearGradient id="linearGradient5175" x1="8" x2="8" y1="16" y2="0" gradientTransform="translate(401.00061,71.00002)" gradientUnits="userSpaceOnUse" xlink:href="#linearGradient5153"/><linearGradient id="linearGradient5188" x1="8" x2="8" y1="16" y2="0" gradientUnits="userSpaceOnUse" xlink:href="#linearGradient5153"/><linearGradient id="linearGradient5889" x1="8" x2="8" y1="16" y2="0" gradientTransform="translate(401.00061,63.00002)" gradientUnits="userSpaceOnUse" xlink:href="#linearGradient5153"/></defs><g id="layer12" transform="translate(-401.00061,-69.00002)"><path id="path5883" fill="url(#linearGradient5175)" fill-opacity="1" stroke="none" d="m 404.50061,71.50002 0,0.5 0,2 0,0.5 0.5,0 6,0 c -0.025,0 0.17547,0.07803 0.3125,0.21875 0.13703,0.14072 0.1875,0.335318 0.1875,0.28125 l 0,0.5 -4.5,0 c -1.0585,0 -2.00902,0.424732 -2.625,1.125 -0.59855,0.680457 -0.88241,1.53948 -0.875,2.375 0.007,0.83941 0.31143,1.703294 0.90625,2.375 0.60922,0.687962 1.54227,1.125 2.59375,1.125 l 5,0 1,0 1,0 0.5,0 0,-0.5 0,-0.75 0,-0.09375 c 0.001,-0.07041 0.006,-0.115038 0,-0.15625 l 0,-0.125 0,-0.875 0,-5 c 0,-1.903521 -1.54887,-3.5 -3.5,-3.5 l -6,0 z m 2.5,7 4.5,0 0,1 -4.5,0 c -0.30589,0 -0.24379,-0.01212 -0.34375,-0.125 -0.0722,-0.08147 -0.15509,-0.244207 -0.15625,-0.375 -6.6e-4,-0.09212 0.0127,-0.198091 0.0312,-0.25 0.0186,-0.05191 0.0554,-0.08134 0.0937,-0.125 0.0851,-0.09669 0.0442,-0.125 0.375,-0.125 z" color="#000"/><path id="path5885" fill="none" stroke="#000" stroke-dasharray="none" stroke-miterlimit="4" stroke-opacity="1" stroke-width="1" d="m 404.50061,71.50002 0,0.5 0,2 0,0.5 0.5,0 6,0 c -0.025,0 0.17547,0.07803 0.3125,0.21875 0.13703,0.14072 0.1875,0.335318 0.1875,0.28125 l 0,0.5 -4.5,0 c -1.0585,0 -2.00902,0.424732 -2.625,1.125 -0.59855,0.680457 -0.88241,1.53948 -0.875,2.375 0.007,0.83941 0.31143,1.703294 0.90625,2.375 0.60922,0.687962 1.54227,1.125 2.59375,1.125 l 5,0 1,0 1,0 0.5,0 0,-0.5 0,-0.75 0,-0.09375 c 0.001,-0.07041 0.006,-0.115038 0,-0.15625 l 0,-0.125 0,-0.875 0,-5 c 0,-1.903521 -1.54887,-3.5 -3.5,-3.5 l -6,0 z m 2.5,7 4.5,0 0,1 -4.5,0 c -0.30589,0 -0.24379,-0.01212 -0.34375,-0.125 -0.0722,-0.08147 -0.15509,-0.244207 -0.15625,-0.375 -6.6e-4,-0.09212 0.0127,-0.198091 0.0312,-0.25 0.0186,-0.05191 0.0554,-0.08134 0.0937,-0.125 0.0851,-0.09669 0.0442,-0.125 0.375,-0.125 z" color="#000" opacity=".61"/><path id="path5887" fill="#fff" fill-opacity="1" stroke="none" d="m 405.00061,72.00002 0,1 6,0 c 1.67839,0 3,1.367708 3,3 l 0,-1 c 0,-1.632292 -1.32161,-3 -3,-3 z m 2,4 c -0.92475,0 -1.73627,0.384729 -2.25,0.96875 -0.5125,0.582629 -0.756,1.312003 -0.75,2.03125 0.001,0.138493 0.0423,0.268033 0.0625,0.40625 0.0976,-0.512286 0.31904,-1.018619 0.6875,-1.4375 0.51373,-0.584021 1.32525,-0.96875 2.25,-0.96875 l 4.5,0 0.5,0 0,-0.5 0,-0.46875 c 0.002,-0.02014 0,-0.01984 0,-0.03125 l -0.5,0 z m -0.875,3.46875 c -0.0224,0.04041 -0.0434,0.07175 -0.0625,0.125 -0.0655,0.184028 -0.0635,0.263225 -0.0625,0.40625 0.003,0.33834 0.11583,0.532094 0.28125,0.71875 0.005,0.0057 0.004,-0.0045 0.0312,0.03125 0.0274,0.03578 0.10948,0.1343 0.21875,0.1875 0.21855,0.1064 0.3092,0.0625 0.46875,0.0625 l 4.5,0 0.5,0 0,-0.5 0,-0.5 -0.5,0 -4.5,0 c -0.15955,0 -0.2502,0.0439 -0.46875,-0.0625 -0.10927,-0.0532 -0.19135,-0.15172 -0.21875,-0.1875 -0.0272,-0.03575 -0.0263,-0.02555 -0.0312,-0.03125 -0.0669,-0.07549 -0.11034,-0.163099 -0.15625,-0.25 z" color="#000" opacity=".2"/><g id="g5891"><path id="path11643-3-2" fill="url(#linearGradient5889)" fill-opacity="1" stroke="none" d="m 402.50061,75.50002 0,0.5 0,2 0,0.5 0.5,0 12,0 0.5,0 0,-0.5 0,-2 0,-0.5 -0.5,0 -12,0 z" color="#000"/><path id="path5178" fill="none" stroke="#000" stroke-dasharray="none" stroke-miterlimit="4" stroke-opacity="1" stroke-width="1" d="m 402.50061,75.50002 0,0.5 0,2 0,0.5 0.5,0 12,0 0.5,0 0,-0.5 0,-2 0,-0.5 -0.5,0 -12,0 z" color="#000" opacity=".61"/><path id="path5180" fill="#fff" fill-opacity="1" stroke="none" d="m 403.00061,76.00002 0,1 12,0 0,-1 z" color="#000" opacity=".2"/></g></g></svg>