<svg xmlns="http://www.w3.org/2000/svg" xmlns:svg="http://www.w3.org/2000/svg" xmlns:xlink="http://www.w3.org/1999/xlink" id="svg3803" width="16" height="16" version="1.1"><metadata id="metadata25386"/><defs id="defs3805"><radialGradient id="radialGradient3259" cx="64.575" cy="48.605" r="31" fx="64.575" fy="48.605" gradientTransform="matrix(0,0.38528829,-0.41958841,0,32.389496,-16.793007)" gradientUnits="userSpaceOnUse" xlink:href="#linearGradient3242-7-3-8-0-4-58-06"/><linearGradient id="linearGradient3242-7-3-8-0-4-58-06"><stop id="stop3244-5-8-5-6-4-3-8" offset="0" stop-color="#cdf87e" stop-opacity="1"/><stop id="stop3246-9-5-1-5-3-0-7" offset=".262" stop-color="#a2e34f" stop-opacity="1"/><stop id="stop3248-7-2-0-7-5-35-9" offset=".661" stop-color="#68b723" stop-opacity="1"/><stop id="stop3250-8-2-8-5-6-40-4" offset="1" stop-color="#1d7e0d" stop-opacity="1"/></linearGradient><linearGradient id="linearGradient6201"><stop id="stop6203" offset="0" stop-color="#000" stop-opacity="1"/><stop id="stop6205" offset="1" stop-color="#fff" stop-opacity="1"/></linearGradient><linearGradient id="linearGradient1116" x1="58.695" x2="62.695" y1="-43.664" y2="-43.664" gradientTransform="translate(12.804933,56.413844)" gradientUnits="userSpaceOnUse" xlink:href="#linearGradient6201"/><linearGradient id="linearGradient3541" x1="65.5" x2="73.25" y1="12.75" y2="12.75" gradientUnits="userSpaceOnUse" xlink:href="#linearGradient6201"/><linearGradient id="linearGradient3551" x1="75.75" x2="83.5" y1="12.75" y2="12.75" gradientUnits="userSpaceOnUse" xlink:href="#linearGradient6201"/></defs><g id="g1146" transform="rotate(-45,35.516346,90.64785)"><path id="rect1112" fill="#d4d4d4" fill-opacity="1" stroke="#000" stroke-linecap="round" stroke-linejoin="bevel" stroke-opacity=".427" stroke-width="1" d="M 67.449219,9.9999996 C 66.368919,9.9999999 65.5,10.868919 65.5,11.949219 l 0,1.601562 c 0,1.0803 0.868919,1.949219 1.949219,1.949219 l 3.851562,0 C 72.381082,15.5 73.25,14.631081 73.25,13.550781 V 11.949219 C 73.25,10.868918 72.381082,10 71.300781,10 Z M 67.75,11.75 l 3.25,0 c 0.277,0 0.500001,0.223 0.5,0.5 v 1 c 10e-7,0.277 -0.223,0.5 -0.5,0.5 l -3.25,0 c -0.277,0 -0.5,-0.223 -0.5,-0.5 l 0,-1 c 0,-0.277 0.223,-0.5 0.5,-0.5 z" opacity="1"/><path id="rect1116" fill="#d4d4d4" fill-opacity="1" stroke="#000" stroke-linecap="round" stroke-linejoin="bevel" stroke-opacity=".427" stroke-width="1" d="m 77.699219,10 c -1.0803,-6e-7 -1.949219,0.868918 -1.949219,1.949219 l 0,1.601562 c 0,1.0803 0.868919,1.949219 1.949219,1.949219 l 3.851562,0 C 82.631082,15.5 83.5,14.631081 83.5,13.550781 v -1.601563 c 0,-1.080299 -0.868918,-1.9492186 -1.949219,-1.9492186 z M 78,11.75 l 3.25,0 c 0.277,0 0.5,0.223 0.500001,0.5 L 81.75,13.249999 C 81.75,13.527 81.527,13.75 81.25,13.75 H 78 c -0.277,0 -0.5,-0.223 -0.5,-0.5 l 0,-1 c 0,-0.277 0.223,-0.5 0.5,-0.5 z" opacity="1"/><path id="path2990" fill="url(#linearGradient3541)" fill-opacity="1" stroke="none" stroke-linecap="round" stroke-linejoin="bevel" stroke-opacity=".427" stroke-width="1" d="M 67.449219,9.9999996 C 66.368919,9.9999999 65.5,10.868919 65.5,11.949219 l 0,1.601562 c 0,1.0803 0.868919,1.949219 1.949219,1.949219 l 3.851562,0 C 72.381082,15.5 73.25,14.631081 73.25,13.550781 V 11.949219 C 73.25,10.868918 72.381082,10 71.300781,10 Z M 67.75,11.75 l 3.25,0 c 0.277,0 0.500001,0.223 0.5,0.5 v 1 c 10e-7,0.277 -0.223,0.5 -0.5,0.5 l -3.25,0 c -0.277,0 -0.5,-0.223 -0.5,-0.5 l 0,-1 c 0,-0.277 0.223,-0.5 0.5,-0.5 z" opacity=".2"/><path id="path1139" fill="none" fill-opacity="1" stroke="#fff" stroke-linecap="round" stroke-linejoin="bevel" stroke-opacity="1" stroke-width="1" d="M 71.25,14.5 H 67.5 c -0.554,0 -1,-0.446 -1,-1 V 12 m 1,-1 h 3.75 c 0.554,0 1,0.446 1,1" opacity=".4"/><path id="path3543" fill="url(#linearGradient3551)" fill-opacity="1" stroke="none" stroke-linecap="round" stroke-linejoin="bevel" stroke-opacity=".427" stroke-width="1" d="m 77.699219,10 c -1.0803,-6e-7 -1.949219,0.868918 -1.949219,1.949219 l 0,1.601562 c 0,1.0803 0.868919,1.949219 1.949219,1.949219 l 3.851562,0 C 82.631082,15.5 83.5,14.631081 83.5,13.550781 v -1.601563 c 0,-1.080299 -0.868918,-1.9492186 -1.949219,-1.9492186 z M 78,11.75 l 3.25,0 c 0.277,0 0.5,0.223 0.500001,0.5 L 81.75,13.249999 C 81.75,13.527 81.527,13.75 81.25,13.75 H 78 c -0.277,0 -0.5,-0.223 -0.5,-0.5 l 0,-1 c 0,-0.277 0.223,-0.5 0.5,-0.5 z" opacity=".2"/><path id="rect1136" fill="none" fill-opacity="1" stroke="#fff" stroke-linecap="round" stroke-linejoin="bevel" stroke-opacity="1" stroke-width="1" d="m 77.75,11 h 3.75 c 0.554,0 1,0.446 1,1 v 1.5 m -1,1 h -3.75 c -0.554,0 -1,-0.446 -1,-1" opacity=".4"/><rect id="rect1120" width="8" height="1.75" x="70.5" y="11.875" fill="#d4d4d4" fill-opacity="1" stroke="#000" stroke-linecap="round" stroke-linejoin="bevel" stroke-opacity=".404" stroke-width="1" opacity="1" rx=".875" ry=".875"/><rect id="rect303" width="7" height=".75" x="71" y="12.375" fill="url(#linearGradient1116)" fill-opacity="1" stroke="none" stroke-linecap="round" stroke-linejoin="bevel" stroke-opacity="1" stroke-width="1" opacity=".2" rx=".5" ry=".5"/><rect id="rect1118" width="7" height=".75" x="71" y="12.375" fill="#fff" fill-opacity="1" stroke="none" stroke-linecap="round" stroke-linejoin="bevel" stroke-opacity="1" stroke-width="1" opacity=".4" rx=".5" ry=".5"/></g><path id="path2262" fill="url(#radialGradient3259)" fill-opacity="1" fill-rule="nonzero" stroke="none" stroke-dasharray="none" stroke-dashoffset="0" stroke-linecap="round" stroke-linejoin="round" stroke-miterlimit="4" stroke-opacity="1" stroke-width=".985" d="M 10.5,10.5 V 8.4927137 h 3 V 10.5 h 2.007286 v 3 H 13.5 v 2.007286 h -3 V 13.5 H 8.4927137 v -3 z" color="#000" display="inline" enable-background="accumulate" opacity="1" overflow="visible" visibility="visible" style="marker:none"/><path clip-rule="nonzero" style="isolation:auto;mix-blend-mode:normal;solid-color:#000;solid-opacity:1;marker:none" id="path2262-5" fill="none" fill-opacity="1" fill-rule="nonzero" stroke="#0f5a00" stroke-dasharray="none" stroke-dashoffset="0" stroke-linecap="round" stroke-linejoin="round" stroke-miterlimit="4" stroke-opacity="1" stroke-width="1" d="M 10.5,10.5 V 8.4927137 h 3 V 10.5 h 2.007286 v 3 H 13.5 v 2.007286 h -3 V 13.5 H 8.4927137 v -3 z" color="#000" color-interpolation="sRGB" color-interpolation-filters="linearRGB" color-rendering="auto" display="inline" enable-background="accumulate" image-rendering="auto" opacity=".5" overflow="visible" shape-rendering="auto" text-rendering="auto" visibility="visible"/><rect id="rect4304" width="2" height="1" x="11" y="9" fill="#fff" fill-opacity="1" fill-rule="nonzero" stroke="none" stroke-dasharray="none" stroke-dashoffset="0" stroke-linecap="round" stroke-linejoin="round" stroke-miterlimit="4" stroke-opacity="1" stroke-width="1" clip-rule="nonzero" color="#000" color-interpolation="sRGB" color-interpolation-filters="linearRGB" color-rendering="auto" display="inline" enable-background="accumulate" image-rendering="auto" opacity=".5" overflow="visible" shape-rendering="auto" text-rendering="auto" visibility="visible" style="isolation:auto;mix-blend-mode:normal;solid-color:#000;solid-opacity:1;marker:none"/><rect id="rect4304-6" width="2" height="1" x="11" y="14" fill="#fff" fill-opacity="1" fill-rule="nonzero" stroke="none" stroke-dasharray="none" stroke-dashoffset="0" stroke-linecap="round" stroke-linejoin="round" stroke-miterlimit="4" stroke-opacity="1" stroke-width="1" clip-rule="nonzero" color="#000" color-interpolation="sRGB" color-interpolation-filters="linearRGB" color-rendering="auto" display="inline" enable-background="accumulate" image-rendering="auto" opacity=".2" overflow="visible" shape-rendering="auto" text-rendering="auto" visibility="visible" style="isolation:auto;mix-blend-mode:normal;solid-color:#000;solid-opacity:1;marker:none"/><path id="rect4304-6-2" fill="#fff" fill-opacity="1" fill-rule="nonzero" stroke="none" stroke-dasharray="none" stroke-dashoffset="0" stroke-linecap="round" stroke-linejoin="round" stroke-miterlimit="4" stroke-opacity="1" stroke-width="1" d="m 9,11 v 1 h 2 v -1 z m 4,0 v 1 h 2 v -1 z" clip-rule="nonzero" color="#000" color-interpolation="sRGB" color-interpolation-filters="linearRGB" color-rendering="auto" display="inline" enable-background="accumulate" image-rendering="auto" opacity=".4" overflow="visible" shape-rendering="auto" text-rendering="auto" visibility="visible" style="isolation:auto;mix-blend-mode:normal;solid-color:#000;solid-opacity:1;marker:none"/></svg>