<svg xmlns="http://www.w3.org/2000/svg" xmlns:svg="http://www.w3.org/2000/svg" xmlns:xlink="http://www.w3.org/1999/xlink" id="svg4524" width="16" height="16" version="1.1"><defs id="defs4526"><linearGradient id="linearGradient2867-449-88-871-390-598-476-591-434-148-57-177-641-289-620-227-114-444-680-744-4-1"><stop id="stop5430-5-0" offset="0" stop-color="#737373" stop-opacity="1"/><stop id="stop5432-2-0" offset=".262" stop-color="#636363" stop-opacity="1"/><stop id="stop5434-9-6" offset=".705" stop-color="#4b4b4b" stop-opacity="1"/><stop id="stop5436-2-7" offset="1" stop-color="#3f3f3f" stop-opacity="1"/></linearGradient><radialGradient id="radialGradient3769" cx="16.202" cy="-19.005" r="20" fx="16.202" fy="-19.005" gradientTransform="matrix(0,1.5000006,-1.5241254,0,-16.959842,-23.077676)" gradientUnits="userSpaceOnUse" xlink:href="#linearGradient2867-449-88-871-390-598-476-591-434-148-57-177-641-289-620-227-114-444-680-744-4-1"/><radialGradient id="radialGradient3896" cx="16.202" cy="-19.005" r="20" fx="16.202" fy="-19.005" gradientTransform="matrix(0,1.5000006,-1.5241254,0,-17.131885,-23.077676)" gradientUnits="userSpaceOnUse" xlink:href="#linearGradient2867-449-88-871-390-598-476-591-434-148-57-177-641-289-620-227-114-444-680-744-4-1"/><radialGradient id="radialGradient3896-0" cx="22.652" cy="-40.142" r="20" fx="22.652" fy="-40.142" gradientTransform="matrix(-1.4583908,0,0,-1.5241254,45.582541,-59.323023)" gradientUnits="userSpaceOnUse" xlink:href="#linearGradient2867-449-88-871-390-598-476-591-434-148-57-177-641-289-620-227-114-444-680-744-4-1-5"/><linearGradient id="linearGradient2867-449-88-871-390-598-476-591-434-148-57-177-641-289-620-227-114-444-680-744-4-1-5"><stop id="stop5430-5-0-9" offset="0" stop-color="#737373" stop-opacity="1"/><stop id="stop5432-2-0-0" offset=".262" stop-color="#636363" stop-opacity="1"/><stop id="stop5434-9-6-8" offset=".705" stop-color="#4b4b4b" stop-opacity="1"/><stop id="stop5436-2-7-0" offset="1" stop-color="#3f3f3f" stop-opacity="1"/></linearGradient><radialGradient id="radialGradient4168" cx="12" cy="3" r="8" fx="12" fy="3" gradientTransform="matrix(1.5646867e-7,3.7500001,-3.8749999,1.625e-7,20.624999,-46)" gradientUnits="userSpaceOnUse" xlink:href="#linearGradient2867-449-88-871-390-598-476-591-434-148-57-177-641-289-620-227-114-444-680-744-4-1-5"/><clipPath id="clipPath4415" clipPathUnits="userSpaceOnUse"><path id="path4417" fill="url(#radialGradient4419)" fill-opacity="1" fill-rule="evenodd" stroke="none" stroke-linecap="butt" stroke-linejoin="miter" stroke-opacity="1" stroke-width="1" d="m 5,10 c -0.554,0 -1,0.446 -1,1 l 0,2 c 0,0.554 0.446,1 1,1 l 12,0 c 0.554,0 1,-0.446 1,-1 l 0,-2 c 0,-0.554 -0.446,-1 -1,-1 z"/></clipPath><radialGradient id="radialGradient4419" cx="12" cy="3" r="8" fx="12" fy="3" gradientTransform="matrix(1.5646867e-7,3.7500001,-3.8749999,1.625e-7,23.624999,-42)" gradientUnits="userSpaceOnUse" xlink:href="#linearGradient2867-449-88-871-390-598-476-591-434-148-57-177-641-289-620-227-114-444-680-744-4-1-5"/></defs><metadata id="metadata4529"/><path id="path4197" fill="#fff" fill-opacity="1" fill-rule="evenodd" stroke="none" stroke-linecap="butt" stroke-linejoin="miter" stroke-opacity="1" stroke-width="1" d="M 2,7 C 1.446,7 1,7.446 1,8 l 0,2 c 0,0.554 0.446,1 1,1 l 12,0 c 0.554,0 1,-0.446 1,-1 L 15,8 C 15,7.446 14.554,7 14,7 Z" clip-path="none" opacity=".35"/><path id="rect3352" fill="url(#radialGradient4168)" fill-opacity="1" fill-rule="evenodd" stroke="none" stroke-linecap="butt" stroke-linejoin="miter" stroke-opacity="1" stroke-width="1" d="M 2,6 C 1.446,6 1,6.446 1,7 l 0,2 c 0,0.554 0.446,1 1,1 l 12,0 c 0.554,0 1,-0.446 1,-1 L 15,7 C 15,6.446 14.554,6 14,6 Z" clip-path="none"/><path id="path4173" fill="none" fill-opacity="1" fill-rule="evenodd" stroke="#000" stroke-dasharray="none" stroke-linecap="butt" stroke-linejoin="miter" stroke-miterlimit="4" stroke-opacity="1" stroke-width="2" d="m 5,10 c -0.554,0 -1,0.446 -1,1 l 0,2 c 0,0.554 0.446,1 1,1 l 12,0 c 0.554,0 1,-0.446 1,-1 l 0,-2 c 0,-0.554 -0.446,-1 -1,-1 z" clip-path="url(#clipPath4415)" opacity=".1" transform="translate(-3,-4)"/></svg>