<svg xmlns="http://www.w3.org/2000/svg" xmlns:svg="http://www.w3.org/2000/svg" xmlns:xlink="http://www.w3.org/1999/xlink" id="svg3033" width="16" height="16" version="1.1"><defs id="defs3035"><linearGradient id="linearGradient3280" x1="71.204" x2="71.204" y1="6.238" y2="44.341" gradientTransform="matrix(0.35135136,0,0,0.35135136,-17.203671,-0.90930025)" gradientUnits="userSpaceOnUse"><stop id="stop4013" offset="0" stop-color="#fff" stop-opacity="1"/><stop id="stop4015" offset=".508" stop-color="#fff" stop-opacity=".235"/><stop id="stop4017" offset=".835" stop-color="#fff" stop-opacity=".157"/><stop id="stop4019" offset="1" stop-color="#fff" stop-opacity=".392"/></linearGradient><linearGradient id="linearGradient3076" x1="71.204" x2="71.204" y1="6.238" y2="44.341" gradientTransform="matrix(0.18918919,0,0,-0.18918919,-5.571206,12.797424)" gradientUnits="userSpaceOnUse"><stop id="stop4013-2" offset="0" stop-color="#fff" stop-opacity="1"/><stop id="stop4015-4" offset=".508" stop-color="#fff" stop-opacity=".235"/><stop id="stop4017-9" offset=".835" stop-color="#fff" stop-opacity=".157"/><stop id="stop4019-0" offset="1" stop-color="#fff" stop-opacity=".392"/></linearGradient><radialGradient id="radialGradient3079" cx="23.896" cy="3.99" r="20.397" gradientTransform="matrix(0,0.29307547,-0.38685444,0,9.5435496,-1.6900315)" gradientUnits="userSpaceOnUse"><stop id="stop3244-4" offset="0" stop-color="#f8b17e" stop-opacity="1"/><stop id="stop3246-5" offset=".262" stop-color="#e35d4f" stop-opacity="1"/><stop id="stop3248-0" offset=".661" stop-color="#c6262e" stop-opacity="1"/><stop id="stop3250-3" offset="1" stop-color="#690b54" stop-opacity="1"/></radialGradient><linearGradient id="linearGradient3081" x1="7.078" x2="7.078" y1="3.082" y2="45.369" gradientTransform="matrix(0.12279747,0,0,0.12279748,5.0528597,5.0527696)" gradientUnits="userSpaceOnUse"><stop id="stop2492-0" offset="0" stop-color="#791235" stop-opacity="1"/><stop id="stop2494-6" offset="1" stop-color="#c7321f" stop-opacity="1"/></linearGradient><radialGradient id="radialGradient3087" cx="23.896" cy="3.99" r="20.397" gradientTransform="matrix(0,0.87967058,-1.1611496,0,12.63299,-21.084396)" gradientUnits="userSpaceOnUse"><stop id="stop3244-9" offset="0" stop-color="#fff" stop-opacity="1"/><stop id="stop3246-3" offset=".262" stop-color="#ddd" stop-opacity="1"/><stop id="stop3248-1" offset=".661" stop-color="#abacae" stop-opacity="1"/><stop id="stop3250-9" offset="1" stop-color="#89898b" stop-opacity="1"/></radialGradient><linearGradient id="linearGradient3089" x1="18.379" x2="18.379" y1="44.98" y2="3.082" gradientTransform="matrix(0.36857849,0,0,0.36857855,-0.84588394,-0.84577376)" gradientUnits="userSpaceOnUse"><stop id="stop2492-4" offset="0" stop-color="#505050" stop-opacity="1"/><stop id="stop2494-7" offset="1" stop-color="#aaa" stop-opacity="1"/></linearGradient><linearGradient id="linearGradient3014" x1="71.204" x2="71.204" y1="6.238" y2="44.341" gradientTransform="matrix(0.35135136,0,0,0.35135136,-17.203671,-0.90930025)" gradientUnits="userSpaceOnUse" xlink:href="#linearGradient3280"/><linearGradient id="linearGradient3017" x1="71.204" x2="71.204" y1="6.238" y2="44.341" gradientTransform="matrix(0.24324325,0,0,-0.24324327,-9.4486935,14.168118)" gradientUnits="userSpaceOnUse" xlink:href="#linearGradient3076"/><radialGradient id="radialGradient3020" cx="23.896" cy="3.99" r="20.397" gradientTransform="matrix(0,0.41038696,-0.54170353,0,10.161398,-5.5687319)" gradientUnits="userSpaceOnUse" xlink:href="#radialGradient3079"/><linearGradient id="linearGradient3022" x1="7.078" x2="7.078" y1="3.082" y2="45.369" gradientTransform="matrix(0.17195052,0,0,0.17195054,3.8731861,3.8730601)" gradientUnits="userSpaceOnUse" xlink:href="#linearGradient3081"/><radialGradient id="radialGradient3025" cx="23.896" cy="3.99" r="20.397" gradientTransform="matrix(0,0.87967058,-1.1611496,0,12.63299,-21.084396)" gradientUnits="userSpaceOnUse" xlink:href="#radialGradient3087"/><linearGradient id="linearGradient3027" x1="18.379" x2="18.379" y1="44.98" y2="3.082" gradientTransform="matrix(0.36857849,0,0,0.36857855,-0.84588394,-0.84577376)" gradientUnits="userSpaceOnUse" xlink:href="#linearGradient3089"/><linearGradient id="linearGradient3280-2" x1="71.204" x2="71.204" y1="6.238" y2="44.341" gradientTransform="matrix(0.35135136,0,0,0.35135136,-17.203671,-0.90930025)" gradientUnits="userSpaceOnUse"><stop id="stop4013-9" offset="0" stop-color="#fff" stop-opacity="1"/><stop id="stop4015-3" offset=".508" stop-color="#fff" stop-opacity=".235"/><stop id="stop4017-1" offset=".835" stop-color="#fff" stop-opacity=".157"/><stop id="stop4019-9" offset="1" stop-color="#fff" stop-opacity=".392"/></linearGradient><linearGradient id="linearGradient3046" x1="71.204" x2="71.204" y1="6.238" y2="44.341" gradientTransform="matrix(0.13513513,0,0,0.13513513,-1.6937191,4.5733462)" gradientUnits="userSpaceOnUse" xlink:href="#linearGradient3280-2"/></defs><metadata id="metadata3038"/><path id="path2555-4" fill="url(#radialGradient3025)" stroke="url(#linearGradient3027)" stroke-dasharray="none" stroke-dashoffset="0" stroke-linecap="round" stroke-linejoin="round" stroke-miterlimit="4" stroke-width="1.004" d="m 8,0.50183 c -4.1373,0 -7.4982,3.361 -7.4982,7.4982 0,4.1373 3.361,7.4982 7.4982,7.4982 4.1373,0 7.4982,-3.361 7.4982,-7.4982 0,-4.1373 -3.361,-7.4982 -7.4982,-7.4982 z"/><path id="path2555-3" fill="url(#radialGradient3020)" stroke="url(#linearGradient3022)" stroke-dasharray="none" stroke-dashoffset="0" stroke-linecap="round" stroke-linejoin="round" stroke-miterlimit="4" stroke-width="1.004" d="m 8.0000001,4.5018272 c -1.9301424,0 -3.498173,1.5680306 -3.498173,3.498173 0,1.9301424 1.5680306,3.4981728 3.498173,3.4981728 1.9301419,0 3.4981729,-1.5680304 3.4981729,-3.4981728 0,-1.9301424 -1.568031,-3.498173 -3.4981729,-3.498173 z"/><path id="path8655-6-1" fill="none" stroke="url(#linearGradient3017)" stroke-dasharray="none" stroke-dashoffset="0" stroke-linecap="round" stroke-linejoin="round" stroke-miterlimit="4" stroke-width="1" d="M 12.5,8.0001291 C 12.5,5.5147145 10.485157,3.5000001 8.0001287,3.5000001 5.5147144,3.5000001 3.5,5.5148431 3.5,8.0001291 3.5,10.485415 5.5147144,12.5 8.0001287,12.5 10.485157,12.5 12.5,10.485415 12.5,8.0001291 z" color="#000" enable-background="accumulate" opacity=".5"/><path id="path8655-6" fill="none" stroke="url(#linearGradient3014)" stroke-dasharray="none" stroke-dashoffset="0" stroke-linecap="round" stroke-linejoin="round" stroke-miterlimit="4" stroke-width="1" d="M 14.5,7.9998 C 14.5,11.59 11.59,14.5 8.0001,14.5 4.4102,14.5 1.5,11.59 1.5,7.9998 1.5,4.41 4.4102,1.5 8.0001,1.5 11.59,1.5 14.5,4.41 14.5,7.9998 z" color="#000" enable-background="accumulate" opacity=".8"/><path id="path8655-6-4" fill="none" stroke="url(#linearGradient3046)" stroke-dasharray="none" stroke-dashoffset="0" stroke-linecap="round" stroke-linejoin="round" stroke-miterlimit="4" stroke-width="1" d="M 10.5,7.999923 C 10.5,9.3807691 9.3807691,10.5 8.0000383,10.5 6.6193076,10.5 5.5,9.3807691 5.5,7.999923 5.5,6.6192307 6.6193076,5.5 8.0000383,5.5 9.3807691,5.5 10.5,6.6192307 10.5,7.999923 z" color="#000" enable-background="accumulate" opacity=".5"/></svg>