<svg xmlns="http://www.w3.org/2000/svg" xmlns:svg="http://www.w3.org/2000/svg" xmlns:xlink="http://www.w3.org/1999/xlink" id="svg8472" width="16" height="16" version="1.0"><defs id="defs8474"><linearGradient id="linearGradient10457"><stop id="stop10459" offset="0" stop-color="#d3d7cf" stop-opacity="1"/><stop id="stop10461" offset="1" stop-color="#d3d7cf" stop-opacity="0"/></linearGradient><linearGradient id="linearGradient10449"><stop id="stop10451" offset="0" stop-color="#555753" stop-opacity="1"/><stop id="stop10453" offset="1" stop-color="#555753" stop-opacity="0"/></linearGradient><linearGradient id="linearGradient2968"><stop id="stop8612" offset="0" stop-color="#ce5c00" stop-opacity="1"/><stop id="stop2972" offset="1" stop-color="#ce5c00" stop-opacity="0"/></linearGradient><linearGradient id="linearGradient2986"><stop id="stop8606" offset="0" stop-color="#ce5c00" stop-opacity="1"/><stop id="stop2990" offset="1" stop-color="#ce5c00" stop-opacity="0"/></linearGradient><linearGradient id="linearGradient2980"><stop id="stop2982" offset="0" stop-color="#fcaf3e" stop-opacity="1"/><stop id="stop2984" offset="1" stop-color="#fcaf3e" stop-opacity="0"/></linearGradient><linearGradient id="linearGradient5948" x1="775.469" x2="772.063" y1="493.531" y2="494.344" gradientUnits="userSpaceOnUse" xlink:href="#linearGradient10449"/><linearGradient id="linearGradient5950" x1="773.25" x2="772.188" y1="493.188" y2="493.156" gradientUnits="userSpaceOnUse" xlink:href="#linearGradient10457"/><linearGradient id="linearGradient5966" x1="776.094" x2="772.813" y1="493.612" y2="494.196" gradientTransform="matrix(0,-1,-0.7777795,0,386.33419,789.00192)" gradientUnits="userSpaceOnUse" xlink:href="#linearGradient10449"/><linearGradient id="linearGradient5968" x1="774.25" x2="772.875" y1="492.862" y2="493.165" gradientTransform="matrix(0,-1,-0.7777795,0,386.33419,789.00192)" gradientUnits="userSpaceOnUse" xlink:href="#linearGradient10457"/><linearGradient id="linearGradient5970" x1="187.816" x2="187.172" y1="489.547" y2="489.547" gradientUnits="userSpaceOnUse" xlink:href="#linearGradient2980"/><linearGradient id="linearGradient5972" x1="187.609" x2="186.937" y1="489.359" y2="489.359" gradientUnits="userSpaceOnUse" xlink:href="#linearGradient2986"/><linearGradient id="linearGradient5974" x1="187.816" x2="187.172" y1="489.547" y2="489.547" gradientTransform="translate(-395.9999,-981)" gradientUnits="userSpaceOnUse" xlink:href="#linearGradient2980"/><linearGradient id="linearGradient5976" x1="187.609" x2="186.937" y1="489.359" y2="489.359" gradientTransform="translate(-395.9999,-981)" gradientUnits="userSpaceOnUse" xlink:href="#linearGradient2968"/><linearGradient id="linearGradient6940" x1="773.25" x2="772.188" y1="493.188" y2="493.156" gradientTransform="matrix(0,-1,-1,0,496.00001,787.99808)" gradientUnits="userSpaceOnUse" xlink:href="#linearGradient10457"/><linearGradient id="linearGradient6950" x1="774.25" x2="772.875" y1="492.862" y2="493.165" gradientTransform="matrix(0,-1,-0.7777795,0,387.33419,789.00192)" gradientUnits="userSpaceOnUse" xlink:href="#linearGradient10457"/><linearGradient id="linearGradient6957" x1="187.816" x2="187.172" y1="489.547" y2="489.547" gradientTransform="matrix(0,-1,-1,0,499.01481,203.99998)" gradientUnits="userSpaceOnUse" xlink:href="#linearGradient2980"/><linearGradient id="linearGradient6959" x1="187.609" x2="186.937" y1="489.359" y2="489.359" gradientTransform="matrix(0,-1,-1,0,499.01481,203.99998)" gradientUnits="userSpaceOnUse" xlink:href="#linearGradient2986"/><linearGradient id="linearGradient6962" x1="773.25" x2="772.188" y1="493.188" y2="493.156" gradientTransform="matrix(0,1,-1,0,496.00001,-771.99808)" gradientUnits="userSpaceOnUse" xlink:href="#linearGradient10457"/><linearGradient id="linearGradient6972" x1="773.25" x2="772.188" y1="493.188" y2="493.156" gradientTransform="matrix(0,-1,-1,0,496.00001,787.99808)" gradientUnits="userSpaceOnUse" xlink:href="#linearGradient10457"/></defs><metadata id="metadata8477"/><g id="layer1"><g id="g10523" transform="matrix(0,1,-1,0,611.00001,-253.99808)"><path id="path10525" fill="url(#linearGradient5970)" fill-opacity="1" stroke="url(#linearGradient5972)" stroke-dashoffset="0" stroke-linecap="butt" stroke-linejoin="round" stroke-miterlimit="0" stroke-opacity="1" stroke-width="1" d="m 198.49998,491.5 -12.00009,0 0,-2 12.00009,0" display="inline" transform="translate(65.9981,111.9852)"/><path id="path10527" fill="url(#linearGradient5974)" fill-opacity="1" stroke="url(#linearGradient5976)" stroke-dashoffset="0" stroke-linecap="butt" stroke-linejoin="round" stroke-miterlimit="0" stroke-opacity="1" stroke-width="1" d="m -197.49989,-489.5 -12.00009,0 0,-2 12.00009,0" display="inline" transform="matrix(-1,0,0,-1,65.9981,111.9852)"/></g><g id="g10529" transform="matrix(0,1,-1,0,496.00001,-771.99808)"><path id="path10531" fill="none" stroke="url(#linearGradient5948)" stroke-dashoffset="0" stroke-linecap="square" stroke-linejoin="miter" stroke-miterlimit="4" stroke-opacity="1" stroke-width="3" d="m 776.5,489.00002 c 0,2.48399 -2.01599,4.49999 -4.49998,4.49999"/><path id="path10533" fill="none" stroke="url(#linearGradient5950)" stroke-dasharray="none" stroke-dashoffset="0" stroke-linecap="square" stroke-linejoin="miter" stroke-miterlimit="4" stroke-opacity="1" stroke-width="1" d="m 776.5,489.00002 c 0,2.48399 -2.01599,4.49999 -4.49998,4.49999"/></g><path id="path10537" fill="none" stroke="#555753" stroke-dashoffset="0" stroke-linecap="square" stroke-linejoin="miter" stroke-miterlimit="4" stroke-opacity="1" stroke-width="3" d="m 8,4.5 c 3.036,0 5.50001,1.7919999 5.50001,3.9999964 C 13.50001,10.708 11.036,12.5 8,12.5"/><path id="path10539" fill="none" stroke="#d3d7cf" stroke-dasharray="none" stroke-dashoffset="0" stroke-linecap="square" stroke-linejoin="miter" stroke-miterlimit="4" stroke-opacity="1" stroke-width="1" d="m 8.9999998,4.4999999 c 2.4839952,0 4.5000002,1.7928665 4.5000002,4.001931 0,2.2090721 -2.016005,4.0019381 -4.5000002,4.0019381"/><g id="g5962" transform="translate(1,0)"><path id="path10543" fill="none" stroke="url(#linearGradient5966)" stroke-dashoffset="0" stroke-linecap="square" stroke-linejoin="miter" stroke-miterlimit="4" stroke-opacity="1" stroke-width="3" d="m 6.0000001,12.50192 c -1.9319965,0 -3.5,2.01599 -3.5,4.49998"/><path id="path10545" fill="none" stroke="url(#linearGradient5968)" stroke-dasharray="none" stroke-dashoffset="0" stroke-linecap="square" stroke-linejoin="miter" stroke-miterlimit="4" stroke-opacity="1" stroke-width="1" d="m 6,12.50192 c -1.9319965,0 -3.5,2.01599 -3.5,4.49998"/></g><path id="path6930" fill="#fff" fill-opacity="1" stroke="#fff" stroke-dasharray="none" stroke-dashoffset="0" stroke-linecap="square" stroke-linejoin="miter" stroke-miterlimit="4" stroke-opacity="1" stroke-width="1" d="M 7.5,1.53125 7.5,3.5 7,3.5 C 6.4737074,3.5 5.9776435,3.3614719 5.53125,3.15625 l 0,2.125 C 6.0024216,5.4137291 6.4879748,5.5 7,5.5 l 0.5,0 0,1.96875 2,0 0,-1.9375 c 0.762156,0.093423 1.425477,0.4132616 1.9375,0.84375 0.023,-0.1006662 0.03125,-0.2049963 0.03125,-0.3125 l 0,-2 C 10.860629,3.7838071 10.202394,3.5886359 9.5,3.53125 l 0,-2 -2,0 z m 0,8 0,0.96875 0,1 -0.5,0 c -0.5183193,0 -1.013522,0.116766 -1.46875,0.3125 l 0,2.25 c 0,0.04254 -0.00372,0.08341 0,0.125 C 5.9664355,13.738068 6.4746514,13.5 7,13.5 l 0.5,0 0,1.96875 2,0 0,-2 c 0.702394,-0.05739 1.360629,-0.252557 1.96875,-0.53125 l 0,-2 c 0,-0.107504 -0.0082,-0.211834 -0.03125,-0.3125 -0.512023,0.430487 -1.175344,0.750327 -1.9375,0.84375 l 0,-0.96875 0,-0.96875 -2,0 z" opacity=".5"/><g id="g9996" transform="translate(4.9936,6.0139066)"><rect id="rect9998" width="3.994" height="4.001" x="1.506" y="4.499" fill="#babdb6" fill-opacity="1" stroke="#888a85" stroke-dasharray="none" stroke-dashoffset="0" stroke-linecap="round" stroke-linejoin="round" stroke-miterlimit="4" stroke-opacity="1" stroke-width="1" rx=".432" ry=".433"/><path id="path10000" fill="none" stroke="#fff" stroke-linecap="round" stroke-linejoin="miter" stroke-miterlimit="4" stroke-opacity="1" stroke-width="1" d="m 2.5064069,5.4990098 1.9935926,0 0,2.0009896 -1.9935926,0 0,-2.0009896 z"/></g><g id="g6010" transform="translate(4.9936,-1.9860934)"><rect id="rect6012" width="3.994" height="4.001" x="1.506" y="4.499" fill="#babdb6" fill-opacity="1" stroke="#888a85" stroke-dasharray="none" stroke-dashoffset="0" stroke-linecap="round" stroke-linejoin="round" stroke-miterlimit="4" stroke-opacity="1" stroke-width="1" rx=".432" ry=".433"/><path id="path6014" fill="none" stroke="#fff" stroke-linecap="round" stroke-linejoin="miter" stroke-miterlimit="4" stroke-opacity="1" stroke-width="1" d="m 2.5064069,5.4990098 1.9935926,0 0,2.0009896 -1.9935926,0 0,-2.0009896 z"/></g></g></svg>