<svg xmlns="http://www.w3.org/2000/svg" xmlns:svg="http://www.w3.org/2000/svg" xmlns:xlink="http://www.w3.org/1999/xlink" id="svg8472" width="16" height="16" version="1.0"><defs id="defs8474"><linearGradient id="linearGradient7653"><stop id="stop7655" offset="0" stop-color="#babdb6" stop-opacity="1"/><stop id="stop7657" offset="1" stop-color="#eeeeec" stop-opacity="0"/></linearGradient><linearGradient id="linearGradient7669"><stop id="stop7671" offset="0" stop-color="#555753" stop-opacity="1"/><stop id="stop7673" offset="1" stop-color="#555753" stop-opacity="0"/></linearGradient><linearGradient id="linearGradient10014" x1="336.386" x2="336.386" y1="426.564" y2="424.161" gradientTransform="matrix(0.6619286,0,0,0.5541422,-220.7756,-231.45665)" gradientUnits="userSpaceOnUse" xlink:href="#linearGradient7653"/><linearGradient id="linearGradient10017" x1="336.386" x2="336.386" y1="427.767" y2="424.161" gradientTransform="matrix(0.6626178,0,0,0.5383127,-221.02566,-224.64401)" gradientUnits="userSpaceOnUse" xlink:href="#linearGradient7669"/></defs><metadata id="metadata8477"/><g id="layer1"><path id="path7726" fill="none" stroke="url(#linearGradient10017)" stroke-dasharray="none" stroke-dashoffset="0" stroke-linecap="square" stroke-linejoin="miter" stroke-miterlimit="4" stroke-opacity="1" stroke-width="3" d="M 13.375382,3.5 C 14.110469,7.331631 11.522115,10.565002 7.494647,10.565002 3.421506,10.565002 0.924766,7.377961 1.613912,3.5"/><path id="path7728" fill="none" stroke="url(#linearGradient10014)" stroke-dashoffset="0" stroke-linecap="square" stroke-linejoin="miter" stroke-miterlimit="4" stroke-opacity="1" stroke-width="1" d="m 13.381626,3.396124 c 0.711376,3.985287 -1.851338,7.272754 -5.87462,7.272754 -4.068908,0 -6.63189,-3.239775 -5.874613,-7.272754"/><g id="g7630" stroke="#204a87" transform="translate(-333.99999,-423)"><path id="path7621" fill="#729fcf" fill-rule="evenodd" stroke="#3465a4" stroke-dasharray="none" stroke-linecap="butt" stroke-linejoin="miter" stroke-miterlimit="4" stroke-opacity="1" stroke-width="3" d="m 338.5,433.5 6,0"/><path id="path7623" fill="none" stroke="#3465a4" stroke-dasharray="none" stroke-dashoffset="0" stroke-linecap="square" stroke-linejoin="round" stroke-miterlimit="4" stroke-opacity="1" stroke-width="3.115" d="m 352.53691,433.53482 a 1.016466,1.0606601 0 1 1 -2.03293,0 1.016466,1.0606601 0 1 1 2.03293,0 z" transform="matrix(0.9838007,0,0,0.9428091,0.673922,24.759433)"/><path id="path7625" fill="none" stroke="#3465a4" stroke-dasharray="none" stroke-dashoffset="0" stroke-linecap="square" stroke-linejoin="round" stroke-miterlimit="4" stroke-opacity="1" stroke-width="3.115" d="m 352.53691,433.53482 a 1.016466,1.0606601 0 1 1 -2.03293,0 1.016466,1.0606601 0 1 1 2.03293,0 z" transform="matrix(0.9838007,0,0,0.9428091,-9.326078,24.759433)"/></g><g id="g7611" stroke="#e5edf7" stroke-opacity="1" transform="translate(-333.99999,-423)"><path id="path6634" fill="#729fcf" fill-rule="evenodd" stroke="#e5edf7" stroke-linecap="butt" stroke-linejoin="miter" stroke-opacity="1" stroke-width="1" d="m 337.5,433.5 8,0"/><path id="path6636" fill="none" stroke="#e5edf7" stroke-dasharray="none" stroke-dashoffset="0" stroke-linecap="square" stroke-linejoin="round" stroke-miterlimit="4" stroke-opacity="1" stroke-width="1.038" d="m 352.53691,433.53482 a 1.016466,1.0606601 0 1 1 -2.03293,0 1.016466,1.0606601 0 1 1 2.03293,0 z" transform="matrix(0.9838007,0,0,0.9428091,0.673922,24.759433)"/><path id="path6640" fill="none" stroke="#e5edf7" stroke-dasharray="none" stroke-dashoffset="0" stroke-linecap="square" stroke-linejoin="round" stroke-miterlimit="4" stroke-opacity="1" stroke-width="1.038" d="m 352.53691,433.53482 a 1.016466,1.0606601 0 1 1 -2.03293,0 1.016466,1.0606601 0 1 1 2.03293,0 z" transform="matrix(0.9838007,0,0,0.9428091,-9.326078,24.759433)"/></g><g id="g10019"><path id="path7747" fill="#d3d7cf" fill-opacity="1" stroke="#888a85" stroke-linecap="round" stroke-linejoin="round" stroke-miterlimit="4" stroke-opacity="1" stroke-width="1" d="m 5.500005,8.578001 4,0 0,3.99994 -4,0 0,-3.99994 z"/><path id="path7749" fill="none" stroke="#fff" stroke-linecap="round" stroke-linejoin="miter" stroke-miterlimit="4" stroke-opacity="1" stroke-width="1" d="m 6.500005,9.578011 2,0 0,2.00008 -2,0 0,-2.00008 z"/></g></g></svg>