<svg xmlns="http://www.w3.org/2000/svg" xmlns:svg="http://www.w3.org/2000/svg" xmlns:xlink="http://www.w3.org/1999/xlink" id="svg8472" width="16" height="16" version="1.0"><defs id="defs8474"><linearGradient id="linearGradient2986"><stop id="stop8606" offset="0" stop-color="#ce5c00" stop-opacity="1"/><stop id="stop2990" offset="1" stop-color="#ce5c00" stop-opacity="0"/></linearGradient><linearGradient id="linearGradient2980"><stop id="stop2982" offset="0" stop-color="#fcaf3e" stop-opacity="1"/><stop id="stop2984" offset="1" stop-color="#fcaf3e" stop-opacity="0"/></linearGradient><linearGradient id="linearGradient10039" x1="188.192" x2="187.873" y1="489.547" y2="489.547" gradientTransform="translate(-188.0138,-473.0064)" gradientUnits="userSpaceOnUse" xlink:href="#linearGradient2980"/><linearGradient id="linearGradient10041" x1="188.164" x2="187.826" y1="489.359" y2="489.359" gradientTransform="translate(-188.0138,-473.0064)" gradientUnits="userSpaceOnUse" xlink:href="#linearGradient2986"/><linearGradient id="linearGradient10051" x1="187.816" x2="187.172" y1="489.547" y2="489.547" gradientTransform="translate(-202.98608,-507.9936)" gradientUnits="userSpaceOnUse" xlink:href="#linearGradient2980"/><linearGradient id="linearGradient10053" x1="187.609" x2="186.937" y1="489.359" y2="489.359" gradientTransform="translate(-202.98608,-507.9936)" gradientUnits="userSpaceOnUse" xlink:href="#linearGradient2986"/><linearGradient id="linearGradient10055" x1="187.816" x2="187.172" y1="489.547" y2="489.547" gradientTransform="translate(-202.98608,-516.9936)" gradientUnits="userSpaceOnUse" xlink:href="#linearGradient2980"/><linearGradient id="linearGradient10057" x1="187.609" x2="186.937" y1="489.359" y2="489.359" gradientTransform="translate(-202.98608,-516.9936)" gradientUnits="userSpaceOnUse" xlink:href="#linearGradient2986"/><linearGradient id="linearGradient10069" x1="188.192" x2="187.873" y1="489.547" y2="489.547" gradientTransform="translate(-188.0138,-464.0064)" gradientUnits="userSpaceOnUse" xlink:href="#linearGradient2980"/><linearGradient id="linearGradient10071" x1="188.164" x2="187.826" y1="489.359" y2="489.359" gradientTransform="translate(-188.0138,-464.0064)" gradientUnits="userSpaceOnUse" xlink:href="#linearGradient2986"/></defs><metadata id="metadata8477"/><g id="layer1"><g id="g10147" transform="matrix(0,-1,1,0,0.0139066,-13.9936)"><rect id="rect9968" width="3" height="2" x="3.486" y="25.494" fill="#fcaf3e" fill-opacity="1" stroke="#ce5c00" stroke-dasharray="none" stroke-dashoffset="0" stroke-linecap="butt" stroke-linejoin="round" stroke-miterlimit="0" stroke-opacity="1" stroke-width="1" transform="matrix(0,1,-1,0,0,0)"/><rect id="rect9970" width="3" height="2" x="8.486" y="25.494" fill="#fcaf3e" fill-opacity="1" stroke="#ce5c00" stroke-dasharray="none" stroke-dashoffset="0" stroke-linecap="butt" stroke-linejoin="round" stroke-miterlimit="0" stroke-opacity="1" stroke-width="1" transform="matrix(0,1,-1,0,0,0)"/><rect id="rect9986" width="3" height="2" x="-1.514" y="16.494" fill="url(#linearGradient10039)" fill-opacity="1" stroke="url(#linearGradient10041)" stroke-dasharray="none" stroke-dashoffset="0" stroke-linecap="butt" stroke-linejoin="round" stroke-miterlimit="0" stroke-opacity="1" stroke-width="1" transform="matrix(0,1,-1,0,0,0)"/><path id="path10065" fill="none" stroke="#555753" stroke-dasharray="none" stroke-linecap="square" stroke-linejoin="miter" stroke-miterlimit="4" stroke-opacity="1" stroke-width="3" d="m -28.4936,5.499 2,0 c 5.94378,0 3.06059,5 9,5 l 2,0"/><rect id="rect9988" width="3" height="2" x="3.486" y="16.494" fill="#fcaf3e" fill-opacity="1" stroke="#ce5c00" stroke-dasharray="none" stroke-dashoffset="0" stroke-linecap="butt" stroke-linejoin="round" stroke-miterlimit="0" stroke-opacity="1" stroke-width="1" transform="matrix(0,1,-1,0,0,0)"/><rect id="rect9990" width="3" height="2" x="8.486" y="16.494" fill="#fcaf3e" fill-opacity="1" stroke="#ce5c00" stroke-dasharray="none" stroke-dashoffset="0" stroke-linecap="butt" stroke-linejoin="round" stroke-miterlimit="0" stroke-opacity="1" stroke-width="1" transform="matrix(0,1,-1,0,0,0)"/><rect id="rect10047" width="3" height="2" x="-16.486" y="-18.494" fill="url(#linearGradient10051)" fill-opacity="1" stroke="url(#linearGradient10053)" stroke-dasharray="none" stroke-dashoffset="0" stroke-linecap="butt" stroke-linejoin="round" stroke-miterlimit="0" stroke-opacity="1" stroke-width="1" transform="matrix(0,-1,1,0,0,0)"/><rect id="rect10049" width="3" height="2" x="-16.486" y="-27.494" fill="url(#linearGradient10055)" fill-opacity="1" stroke="url(#linearGradient10057)" stroke-dasharray="none" stroke-dashoffset="0" stroke-linecap="butt" stroke-linejoin="round" stroke-miterlimit="0" stroke-opacity="1" stroke-width="1" transform="matrix(0,-1,1,0,0,0)"/><path id="path10061" fill="none" stroke="#d3d7cf" stroke-linecap="square" stroke-linejoin="miter" stroke-opacity="1" stroke-width="1" d="m -29.4936,5.499 3,0 c 5.94378,0 3.06059,5 9,5 l 3,0"/><g id="g9960" transform="translate(-30,-1)"><rect id="rect9946" width="3.994" height="4.001" x="1.506" y="4.499" fill="#babdb6" fill-opacity="1" stroke="#888a85" stroke-dasharray="none" stroke-dashoffset="0" stroke-linecap="round" stroke-linejoin="round" stroke-miterlimit="4" stroke-opacity="1" stroke-width="1" rx=".432" ry=".433"/><path id="path9948" fill="none" stroke="#fff" stroke-linecap="round" stroke-linejoin="miter" stroke-miterlimit="4" stroke-opacity="1" stroke-width="1" d="m 2.5064069,5.4990098 1.9935926,0 0,2.0009896 -1.9935926,0 0,-2.0009896 z"/></g><g id="g9996" transform="translate(-21,4)"><rect id="rect9998" width="3.994" height="4.001" x="1.506" y="4.499" fill="#babdb6" fill-opacity="1" stroke="#888a85" stroke-dasharray="none" stroke-dashoffset="0" stroke-linecap="round" stroke-linejoin="round" stroke-miterlimit="4" stroke-opacity="1" stroke-width="1" rx=".432" ry=".433"/><path id="path10000" fill="none" stroke="#fff" stroke-linecap="round" stroke-linejoin="miter" stroke-miterlimit="4" stroke-opacity="1" stroke-width="1" d="m 2.5064069,5.4990098 1.9935926,0 0,2.0009896 -1.9935926,0 0,-2.0009896 z"/></g><rect id="rect10067" width="3" height="2" x="-1.514" y="25.494" fill="url(#linearGradient10069)" fill-opacity="1" stroke="url(#linearGradient10071)" stroke-dasharray="none" stroke-dashoffset="0" stroke-linecap="butt" stroke-linejoin="round" stroke-miterlimit="0" stroke-opacity="1" stroke-width="1" transform="matrix(0,1,-1,0,0,0)"/></g></g></svg>