<svg xmlns="http://www.w3.org/2000/svg" xmlns:svg="http://www.w3.org/2000/svg" xmlns:xlink="http://www.w3.org/1999/xlink" id="svg4876" width="16" height="16" version="1.0"><defs id="defs4878"><linearGradient id="linearGradient7442"><stop id="stop7444" offset="0" stop-color="#fff" stop-opacity="1"/><stop id="stop7446" offset="1" stop-color="#fff" stop-opacity="0"/></linearGradient><linearGradient id="linearGradient7430"><stop id="stop7432" offset="0" stop-color="#d3d7cf" stop-opacity="1"/><stop id="stop7434" offset="1" stop-color="#fafbfa" stop-opacity="1"/></linearGradient><linearGradient id="linearGradient4989" x1="12.198" x2="15.699" y1="401.096" y2="404.598" gradientTransform="matrix(0.933332,0,0,0.933329,-21.09995,49.83527)" gradientUnits="userSpaceOnUse" xlink:href="#linearGradient7430"/><linearGradient id="linearGradient4991" x1="12.816" x2="12.816" y1="400.389" y2="406.511" gradientTransform="matrix(0.699998,0,0,0.699999,-17.94997,143.7502)" gradientUnits="userSpaceOnUse" xlink:href="#linearGradient7442"/><linearGradient id="linearGradient5028" x1="12.198" x2="15.699" y1="401.096" y2="404.598" gradientTransform="matrix(0.777779,0,0,0.777776,-18.41666,111.8616)" gradientUnits="userSpaceOnUse" xlink:href="#linearGradient7430"/><linearGradient id="linearGradient5030" x1="12.816" x2="12.816" y1="400.389" y2="406.511" gradientTransform="matrix(0.583335,0,0,0.583399,-15.79168,190.0984)" gradientUnits="userSpaceOnUse" xlink:href="#linearGradient7442"/><linearGradient id="linearGradient5032" x1="12.198" x2="15.699" y1="401.096" y2="404.598" gradientTransform="matrix(0.777775,0,0,0.777775,-19.58328,111.8623)" gradientUnits="userSpaceOnUse" xlink:href="#linearGradient7430"/><linearGradient id="linearGradient5034" x1="12.816" x2="12.816" y1="400.389" y2="406.511" gradientTransform="matrix(0.583327,0,0,0.583397,-16.95824,190.0994)" gradientUnits="userSpaceOnUse" xlink:href="#linearGradient7442"/></defs><metadata id="metadata4881"/><g id="layer1"><g id="g2822" opacity=".5"><rect id="rect2834" width="7" height="2" x="-1.5" y="2.5" fill="#d3d7cf" fill-opacity="1" stroke="#555753" stroke-dasharray="none" stroke-dashoffset="0" stroke-linecap="round" stroke-linejoin="round" stroke-miterlimit="4" stroke-opacity="1" stroke-width="1"/><g id="g17518" transform="matrix(0.857143,0,0,0.857143,11.2857,-360.7143)"><path id="path17520" fill="url(#linearGradient5028)" fill-opacity="1" stroke="#888a85" stroke-linecap="round" stroke-linejoin="round" stroke-miterlimit="4" stroke-opacity="1" stroke-width="1.167" d="m -10.249987,422.58317 4.6666733,0 0,4.66666 -4.6666733,0 0,-4.66666 z"/><path id="path17522" fill="none" stroke="url(#linearGradient5030)" stroke-linecap="round" stroke-linejoin="miter" stroke-miterlimit="4" stroke-opacity="1" stroke-width="1.167" d="m -9.0833255,423.74964 2.3333435,0 0,2.33351 -2.3333435,0 0,-2.33351 z"/></g><rect id="rect2820" width="7" height="2" x="10.5" y="2.5" fill="#d3d7cf" fill-opacity="1" stroke="#555753" stroke-dasharray="none" stroke-dashoffset="0" stroke-linecap="round" stroke-linejoin="round" stroke-miterlimit="4" stroke-opacity="1" stroke-width="1"/><g id="g17524" transform="matrix(0.857143,0,0,0.857143,19.2857,-360.7143)"><path id="path17526" fill="url(#linearGradient5032)" fill-opacity="1" stroke="#888a85" stroke-linecap="round" stroke-linejoin="round" stroke-miterlimit="4" stroke-opacity="1" stroke-width="1.167" d="m -11.416653,422.58351 4.6666437,0 0,4.66665 -4.6666437,0 0,-4.66665 z"/><path id="path17528" fill="none" stroke="url(#linearGradient5034)" stroke-linecap="round" stroke-linejoin="miter" stroke-miterlimit="4" stroke-opacity="1" stroke-width="1.167" d="m -10.249984,423.75 2.3333077,0 0,2.3335 -2.3333077,0 0,-2.3335 z"/></g></g><rect id="rect5932" width="19" height="2" x="-1.5" y="11.5" fill="#d3d7cf" fill-opacity="1" stroke="#555753" stroke-dasharray="none" stroke-dashoffset="0" stroke-linecap="round" stroke-linejoin="round" stroke-miterlimit="4" stroke-opacity="1" stroke-width="1"/><g id="g17538" transform="matrix(0.714287,0,0,0.714285,13.57143,-291.4282)"><path id="path17540" fill="url(#linearGradient4989)" fill-opacity="1" stroke="#888a85" stroke-linecap="round" stroke-linejoin="round" stroke-miterlimit="4" stroke-opacity="1" stroke-width="1.4" d="m -11.299976,422.69982 5.5999843,0 0,5.59997 -5.5999843,0 0,-5.59997 z"/><path id="path17542" fill="none" stroke="url(#linearGradient4991)" stroke-linecap="round" stroke-linejoin="miter" stroke-miterlimit="4" stroke-opacity="1" stroke-width="1.4" d="m -9.8999854,424.09971 2.7999967,0 0,2.79989 -2.7999967,0 0,-2.79989 z"/></g></g></svg>