<svg xmlns="http://www.w3.org/2000/svg" xmlns:svg="http://www.w3.org/2000/svg" xmlns:xlink="http://www.w3.org/1999/xlink" id="svg8472" width="16" height="16" version="1.0"><defs id="defs8474"><linearGradient id="linearGradient10457"><stop id="stop10459" offset="0" stop-color="#d3d7cf" stop-opacity="1"/><stop id="stop10461" offset="1" stop-color="#d3d7cf" stop-opacity="0"/></linearGradient><linearGradient id="linearGradient10449"><stop id="stop10451" offset="0" stop-color="#555753" stop-opacity="1"/><stop id="stop10453" offset="1" stop-color="#555753" stop-opacity="0"/></linearGradient><linearGradient id="linearGradient2968"><stop id="stop8612" offset="0" stop-color="#ce5c00" stop-opacity="1"/><stop id="stop2972" offset="1" stop-color="#ce5c00" stop-opacity="0"/></linearGradient><linearGradient id="linearGradient2986"><stop id="stop8606" offset="0" stop-color="#ce5c00" stop-opacity="1"/><stop id="stop2990" offset="1" stop-color="#ce5c00" stop-opacity="0"/></linearGradient><linearGradient id="linearGradient2980"><stop id="stop2982" offset="0" stop-color="#fcaf3e" stop-opacity="1"/><stop id="stop2984" offset="1" stop-color="#fcaf3e" stop-opacity="0"/></linearGradient><linearGradient id="linearGradient6053" x1="187.816" x2="187.172" y1="489.547" y2="489.547" gradientUnits="userSpaceOnUse" xlink:href="#linearGradient2980"/><linearGradient id="linearGradient6055" x1="187.609" x2="186.937" y1="489.359" y2="489.359" gradientUnits="userSpaceOnUse" xlink:href="#linearGradient2986"/><linearGradient id="linearGradient6057" x1="187.816" x2="187.172" y1="489.547" y2="489.547" gradientTransform="translate(-395.9999,-981)" gradientUnits="userSpaceOnUse" xlink:href="#linearGradient2980"/><linearGradient id="linearGradient6059" x1="187.609" x2="186.937" y1="489.359" y2="489.359" gradientTransform="translate(-395.9999,-981)" gradientUnits="userSpaceOnUse" xlink:href="#linearGradient2968"/><linearGradient id="linearGradient6061" x1="775.469" x2="772.063" y1="493.531" y2="494.344" gradientUnits="userSpaceOnUse" xlink:href="#linearGradient10449"/><linearGradient id="linearGradient6063" x1="773.25" x2="772.188" y1="493.188" y2="493.156" gradientUnits="userSpaceOnUse" xlink:href="#linearGradient10457"/><linearGradient id="linearGradient6065" x1="776.094" x2="772.813" y1="493.612" y2="494.196" gradientTransform="matrix(0,-1,-0.7777795,0,386.33419,789.00192)" gradientUnits="userSpaceOnUse" xlink:href="#linearGradient10449"/><linearGradient id="linearGradient6067" x1="774.25" x2="772.875" y1="492.862" y2="493.165" gradientTransform="matrix(0,-1,-0.7777795,0,386.33419,789.00192)" gradientUnits="userSpaceOnUse" xlink:href="#linearGradient10457"/><linearGradient id="linearGradient6964" x1="773.25" x2="772.188" y1="493.188" y2="493.156" gradientTransform="matrix(1,0,0,-1,-771.99808,496)" gradientUnits="userSpaceOnUse" xlink:href="#linearGradient10457"/><linearGradient id="linearGradient6974" x1="774.25" x2="772.875" y1="492.862" y2="493.165" gradientTransform="matrix(-1,0,0,0.7777795,789.00192,-371.33418)" gradientUnits="userSpaceOnUse" xlink:href="#linearGradient10457"/><linearGradient id="linearGradient6981" x1="187.816" x2="187.172" y1="489.547" y2="489.547" gradientTransform="matrix(1,0,0,-1,-187.99998,499.0148)" gradientUnits="userSpaceOnUse" xlink:href="#linearGradient2980"/><linearGradient id="linearGradient6983" x1="187.609" x2="186.937" y1="489.359" y2="489.359" gradientTransform="matrix(1,0,0,-1,-187.99998,499.0148)" gradientUnits="userSpaceOnUse" xlink:href="#linearGradient2986"/><linearGradient id="linearGradient6986" x1="773.25" x2="772.188" y1="493.188" y2="493.156" gradientTransform="translate(-771.99808,-480)" gradientUnits="userSpaceOnUse" xlink:href="#linearGradient10457"/></defs><metadata id="metadata8477"/><g id="layer1"><g id="g10523" transform="translate(-253.99808,-595)"><path id="path10525" fill="url(#linearGradient6053)" fill-opacity="1" stroke="url(#linearGradient6055)" stroke-dashoffset="0" stroke-linecap="butt" stroke-linejoin="round" stroke-miterlimit="0" stroke-opacity="1" stroke-width="1" d="m 198.49998,491.5 -12.00009,0 0,-2 12.00009,0" display="inline" transform="translate(65.9981,111.9852)"/><path id="path10527" fill="url(#linearGradient6057)" fill-opacity="1" stroke="url(#linearGradient6059)" stroke-dashoffset="0" stroke-linecap="butt" stroke-linejoin="round" stroke-miterlimit="0" stroke-opacity="1" stroke-width="1" d="m -197.49989,-489.5 -12.00009,0 0,-2 12.00009,0" display="inline" transform="matrix(-1,0,0,-1,65.9981,111.9852)"/></g><g id="g10529" transform="translate(-771.99808,-480)"><path id="path10531" fill="none" stroke="url(#linearGradient6061)" stroke-dashoffset="0" stroke-linecap="square" stroke-linejoin="miter" stroke-miterlimit="4" stroke-opacity="1" stroke-width="3" d="m 776.5,489.00002 c 0,2.48399 -2.01599,4.49999 -4.49998,4.49999"/><path id="path10533" fill="none" stroke="url(#linearGradient6063)" stroke-dasharray="none" stroke-dashoffset="0" stroke-linecap="square" stroke-linejoin="miter" stroke-miterlimit="4" stroke-opacity="1" stroke-width="1" d="m 776.5,489.00002 c 0,2.48399 -2.01599,4.49999 -4.49998,4.49999"/></g><path id="path10537" fill="none" stroke="#555753" stroke-dashoffset="0" stroke-linecap="square" stroke-linejoin="miter" stroke-miterlimit="4" stroke-opacity="1" stroke-width="3" d="M 4.5000001,8.00001 C 4.5000001,4.96401 6.292,2.5 8.4999965,2.5 10.708,2.5 12.5,4.96401 12.5,8.00001"/><path id="path10539" fill="none" stroke="#d3d7cf" stroke-dasharray="none" stroke-dashoffset="0" stroke-linecap="square" stroke-linejoin="miter" stroke-miterlimit="4" stroke-opacity="1" stroke-width="1" d="M 4.5,7.0000102 C 4.5,4.516015 6.2928665,2.50001 8.501931,2.50001 c 2.209072,0 4.001938,2.016005 4.001938,4.5000002"/><g id="g5962" transform="matrix(0,-1,1,0,1.192093e-7,15.00001)"><path id="path10543" fill="none" stroke="url(#linearGradient6065)" stroke-dashoffset="0" stroke-linecap="square" stroke-linejoin="miter" stroke-miterlimit="4" stroke-opacity="1" stroke-width="3" d="m 6.0000001,12.50192 c -1.9319965,0 -3.5,2.01599 -3.5,4.49998"/><path id="path10545" fill="none" stroke="url(#linearGradient6067)" stroke-dasharray="none" stroke-dashoffset="0" stroke-linecap="square" stroke-linejoin="miter" stroke-miterlimit="4" stroke-opacity="1" stroke-width="1" d="m 6,12.50192 c -1.9319965,0 -3.5,2.01599 -3.5,4.49998"/></g><path id="path6933" fill="#fff" fill-opacity="1" stroke="#fff" stroke-dasharray="none" stroke-dashoffset="0" stroke-linecap="round" stroke-linejoin="round" stroke-miterlimit="4" stroke-opacity="1" stroke-width="1" d="M 4.0625,4.53125 C 3.783807,5.1393707 3.5886359,5.7976058 3.53125,6.5 l -2,0 0,2 1.96875,0 0,0.5 c 0,0.5262926 -0.1385281,1.022357 -0.34375,1.46875 l 2.125,0 C 5.4137291,9.9975784 5.5,9.5120252 5.5,9 l 0,-0.5 1.96875,0 0,-2 -1.9375,0 C 5.6246734,5.7378435 5.9445116,5.0745233 6.375,4.5625 6.2750717,4.5399081 6.169198,4.53125 6.0625,4.53125 l -2,0 z m 6.875,0 c -0.106698,0 -0.212572,0.00866 -0.3125,0.03125 0.430487,0.5120233 0.750327,1.1753434 0.84375,1.9375 l -0.96875,0 -0.96875,0 0,2 0.96875,0 1,0 0,0.5 c 0,0.5183192 0.116766,1.013522 0.3125,1.46875 l 2.25,0 c 0.04259,0 0.08337,0.0037 0.125,0 C 13.738068,10.033564 13.5,9.5253486 13.5,9 l 0,-0.5 1.96875,0 0,-2 -2,0 C 13.411364,5.7976058 13.216193,5.1393707 12.9375,4.53125 l -2,0 z" opacity=".5"/><g id="g9996" transform="matrix(0,-1,1,0,6.0139067,11.00641)"><rect id="rect9998" width="3.994" height="4.001" x="1.506" y="4.499" fill="#babdb6" fill-opacity="1" stroke="#888a85" stroke-dasharray="none" stroke-dashoffset="0" stroke-linecap="round" stroke-linejoin="round" stroke-miterlimit="4" stroke-opacity="1" stroke-width="1" rx=".432" ry=".433"/><path id="path10000" fill="none" stroke="#fff" stroke-linecap="round" stroke-linejoin="miter" stroke-miterlimit="4" stroke-opacity="1" stroke-width="1" d="m 2.5064069,5.4990098 1.9935926,0 0,2.0009896 -1.9935926,0 0,-2.0009896 z"/></g><g id="g6010" transform="matrix(0,-1,1,0,-1.9860933,11.00641)"><rect id="rect6012" width="3.994" height="4.001" x="1.506" y="4.499" fill="#babdb6" fill-opacity="1" stroke="#888a85" stroke-dasharray="none" stroke-dashoffset="0" stroke-linecap="round" stroke-linejoin="round" stroke-miterlimit="4" stroke-opacity="1" stroke-width="1" rx=".432" ry=".433"/><path id="path6014" fill="none" stroke="#fff" stroke-linecap="round" stroke-linejoin="miter" stroke-miterlimit="4" stroke-opacity="1" stroke-width="1" d="m 2.5064069,5.4990098 1.9935926,0 0,2.0009896 -1.9935926,0 0,-2.0009896 z"/></g></g></svg>