<svg xmlns="http://www.w3.org/2000/svg" xmlns:svg="http://www.w3.org/2000/svg" id="svg7404" width="16" height="16" version="1.1"><metadata id="metadata7409"/><g id="layer1"><g id="selection_ungroup" transform="translate(-4.560529e-6,0)"><rect id="rect10980" width="10" height="9" x="1.5" y="5.5" fill="#eeeeec" fill-opacity="1" stroke="#888a85" stroke-dasharray="none" stroke-dashoffset="0" stroke-linecap="butt" stroke-linejoin="round" stroke-miterlimit="0" stroke-opacity="1" stroke-width="1"/><rect id="rect10073" width="8" height="7" x="2.5" y="6.5" fill="none" stroke="#fff" stroke-dasharray="none" stroke-dashoffset="0" stroke-linecap="butt" stroke-linejoin="miter" stroke-miterlimit="0" stroke-opacity="1" stroke-width="1"/><path id="path10031" fill="#729fcf" fill-opacity="1" stroke="#204a87" stroke-dasharray="none" stroke-dashoffset="0" stroke-linecap="butt" stroke-linejoin="round" stroke-miterlimit="0" stroke-opacity="1" stroke-width=".973" d="m 15.136634,5.4358912 a 4.2346536,4.5274755 0 1 1 -8.4693071,0 4.2346536,4.5274755 0 1 1 8.4693071,0 z" transform="matrix(1.062661,0,0,0.993932,-0.585106,-0.402903)"/><rect id="rect10059" width="1" height="1" x="15" y="9" fill="#555753" fill-opacity="1" stroke="none"/><rect id="rect10061" width="1" height="1" x="15" y="0" fill="#555753" fill-opacity="1" stroke="none"/><rect id="rect10063" width="1" height="1" x="6" y="9" fill="#555753" fill-opacity="1" stroke="none"/><rect id="rect10065" width="1" height="1" x="6" y="0" fill="#555753" fill-opacity="1" stroke="none"/><rect id="rect10067" width="1" height="1" x="0" y="15" fill="#555753" fill-opacity="1" stroke="none"/><rect id="rect10069" width="1" height="1" x="0" y="4" fill="#555753" fill-opacity="1" stroke="none"/><rect id="rect10071" width="1" height="1" x="12" y="15" fill="#555753" fill-opacity="1" stroke="none"/><path id="path10075" fill="none" stroke="#fff" stroke-dasharray="none" stroke-dashoffset="0" stroke-linecap="butt" stroke-linejoin="round" stroke-miterlimit="0" stroke-opacity="1" stroke-width="1.251" d="m 15.136634,5.4358912 a 4.2346536,4.5274755 0 1 1 -8.4693071,0 4.2346536,4.5274755 0 1 1 8.4693071,0 z" opacity=".4" transform="matrix(0.826514,0,0,0.773058,1.989357,0.797742)"/></g></g></svg>