<svg xmlns="http://www.w3.org/2000/svg" xmlns:svg="http://www.w3.org/2000/svg" xmlns:xlink="http://www.w3.org/1999/xlink" id="svg2528" width="16" height="16" version="1.0"><metadata id="metadata26"/><defs id="defs2530"><linearGradient id="linearGradient4011"><stop id="stop4013" offset="0" stop-color="#fff" stop-opacity="1"/><stop id="stop4015" offset=".508" stop-color="#fff" stop-opacity=".235"/><stop id="stop4017" offset=".835" stop-color="#fff" stop-opacity=".157"/><stop id="stop4019" offset="1" stop-color="#fff" stop-opacity=".392"/></linearGradient><linearGradient id="linearGradient947"><stop id="stop943" offset="0" stop-color="#ed5353" stop-opacity="1"/><stop id="stop945" offset="1" stop-color="#c6262e" stop-opacity="1"/></linearGradient><linearGradient id="linearGradient12398-3" x1="71.204" x2="71.204" y1="6.238" y2="44.341" gradientTransform="matrix(0.35135153,0,0,0.35135153,-17.203685,-0.90930504)" gradientUnits="userSpaceOnUse" xlink:href="#linearGradient4011"/><linearGradient id="linearGradient11527-6-5" x1="2035.165" x2="2035.165" y1="3208.074" y2="3241.997" gradientTransform="matrix(0.57484957,0,0,0.4297553,-1164.0142,-1377.7717)" gradientUnits="userSpaceOnUse" xlink:href="#linearGradient947"/></defs><path id="path2555-7-8-5-0-9" fill="url(#linearGradient11527-6-5)" fill-opacity="1" fill-rule="nonzero" stroke="none" stroke-width="1" d="m 7.9999999,0.50000026 c -4.138243,0 -7.49999996,3.36175724 -7.49999996,7.49999984 C 0.49999994,12.138243 3.8617569,15.5 7.9999999,15.5 12.138243,15.5 15.500007,12.138243 15.5,8.0000001 15.5,3.8617575 12.138243,0.50000026 7.9999999,0.50000026 Z" color="#000" display="inline" enable-background="accumulate" opacity=".99" overflow="visible" visibility="visible" style="marker:none"/><path id="path2555-7-8-5-1" fill="none" stroke="#7a0000" stroke-dasharray="none" stroke-dashoffset="0" stroke-linecap="round" stroke-linejoin="round" stroke-miterlimit="4" stroke-opacity="1" stroke-width="1" d="m 7.9999999,0.50000016 c -4.138243,0 -7.49999996,3.36175724 -7.49999996,7.49999994 C 0.49999994,12.138243 3.8617569,15.5 7.9999999,15.5 12.138243,15.5 15.500007,12.138243 15.5,8.0000001 15.5,3.8617574 12.138243,0.50000016 7.9999999,0.50000016 Z" color="#000" display="inline" enable-background="accumulate" opacity=".5" overflow="visible" visibility="visible" style="marker:none"/><path id="path8655-6-0-9-5-0" fill="none" stroke="url(#linearGradient12398-3)" stroke-dasharray="none" stroke-dashoffset="0" stroke-linecap="round" stroke-linejoin="round" stroke-miterlimit="4" stroke-opacity="1" stroke-width="1" d="M 14.5,7.9997641 C 14.5,11.589736 11.589634,14.5 8.0000789,14.5 c -3.589884,0 -6.500079,-2.910298 -6.500079,-6.5002359 0,-3.5898015 2.910195,-6.4997709 6.500079,-6.4997709 3.5895551,0 6.4999211,2.9099694 6.4999211,6.4997709 z" color="#000" display="inline" enable-background="accumulate" opacity=".4" overflow="visible" visibility="visible" style="marker:none"/><path id="path2-7-5" fill="#7a0000" fill-opacity="1" stroke="none" stroke-dasharray="none" stroke-dashoffset="0" stroke-linecap="butt" stroke-linejoin="miter" stroke-miterlimit="4" stroke-opacity="1" stroke-width=".838" d="M 5.4941406,5.0195312 C 4.9106748,5.0195057 4.3457647,5.4005237 4.1269531,5.9414062 3.9081416,6.4822888 4.0493839,7.149022 4.46875,7.5546875 L 5.9140625,9 4.4570312,10.457031 a 0.9754565,0.9754565 0 0 0 -0.025391,0.02539 c -0.5139078,0.552747 -0.4965713,1.515147 0.037109,2.048828 0.5336807,0.533681 1.4960802,0.551017 2.0488281,0.03711 a 0.9754565,0.9754565 0 0 0 0.025391,-0.02539 L 8,11.085938 l 1.4316406,1.43164 c 0.5382917,0.578957 1.5660064,0.598057 2.1250004,0.03906 0.558994,-0.558994 0.539894,-1.586709 -0.03906,-2.125 L 10.085938,9 11.535156,7.5507812 C 11.956437,7.1391214 12.093068,6.4622678 11.863281,5.9199219 11.633494,5.3775759 11.051682,5.0051855 10.462891,5.0214844 10.084733,5.0319956 9.7135895,5.194249 9.4492188,5.4648438 L 8,6.9140625 6.5546875,5.46875 C 6.2804529,5.1852882 5.8885455,5.0195145 5.4941406,5.0195312 Z" color="#000" font-family="sans-serif" font-weight="400" opacity=".05" overflow="visible" text-decoration="none" transform="matrix(1.0063871,0,0,1.0069747,-0.05050119,-0.05454064)" vector-effect="none" style="line-height:normal;font-variant-ligatures:normal;font-variant-position:normal;font-variant-caps:normal;font-variant-numeric:normal;font-variant-alternates:normal;font-feature-settings:normal;text-indent:0;text-align:start;text-decoration-line:none;text-decoration-style:solid;text-decoration-color:#000;text-transform:none;text-orientation:mixed;white-space:normal;shape-padding:0;isolation:auto;mix-blend-mode:normal;marker:none;font-variant-east_asian:normal"/><path id="path2-7" fill="#7a0000" fill-opacity="1" stroke="none" stroke-dasharray="none" stroke-dashoffset="0" stroke-linecap="butt" stroke-linejoin="miter" stroke-miterlimit="4" stroke-opacity="1" stroke-width=".843" d="m 5.494,5.9937218 a 0.5,0.5 0 0 0 -0.347,0.86 l 2.146,2.146 -2.146,2.1460002 a 0.50027817,0.50027817 0 1 0 0.707,0.708 L 8,9.7067218 10.147,11.853722 a 0.50027817,0.50027817 0 1 0 0.707,-0.708 l -2.147,-2.1460002 2.147,-2.146 a 0.5,0.5 0 0 0 -0.364,-0.858 0.5,0.5 0 0 0 -0.343,0.15 l -2.147,2.147 -2.146,-2.147 a 0.5,0.5 0 0 0 -0.36,-0.152 z" color="#000" font-family="sans-serif" font-weight="400" opacity=".15" overflow="visible" text-decoration="none" vector-effect="none" style="line-height:normal;font-variant-ligatures:normal;font-variant-position:normal;font-variant-caps:normal;font-variant-numeric:normal;font-variant-alternates:normal;font-feature-settings:normal;text-indent:0;text-align:start;text-decoration-line:none;text-decoration-style:solid;text-decoration-color:#000;text-transform:none;text-orientation:mixed;white-space:normal;shape-padding:0;isolation:auto;mix-blend-mode:normal;marker:none;font-variant-east_asian:normal"/><path id="path2" fill="#fff" fill-opacity="1" stroke="none" stroke-dasharray="none" stroke-dashoffset="0" stroke-linecap="butt" stroke-linejoin="miter" stroke-miterlimit="4" stroke-opacity="1" stroke-width=".843" d="M 5.494,4.994 A 0.5,0.5 0 0 0 5.147,5.854 L 7.293,8 5.147,10.146 a 0.50027817,0.50027817 0 1 0 0.707,0.708 L 8,8.707 l 2.147,2.147 a 0.50027817,0.50027817 0 1 0 0.707,-0.708 L 8.707,8 10.854,5.854 A 0.5,0.5 0 0 0 10.49,4.996 0.5,0.5 0 0 0 10.147,5.146 L 8,7.293 5.854,5.146 A 0.5,0.5 0 0 0 5.494,4.994 Z" color="#000" font-family="sans-serif" font-weight="400" opacity="1" overflow="visible" text-decoration="none" vector-effect="none" style="line-height:normal;font-variant-ligatures:normal;font-variant-position:normal;font-variant-caps:normal;font-variant-numeric:normal;font-variant-alternates:normal;font-feature-settings:normal;text-indent:0;text-align:start;text-decoration-line:none;text-decoration-style:solid;text-decoration-color:#000;text-transform:none;text-orientation:mixed;white-space:normal;shape-padding:0;isolation:auto;mix-blend-mode:normal;font-variant-east_asian:normal;marker:none"/></svg>