<svg xmlns="http://www.w3.org/2000/svg" xmlns:svg="http://www.w3.org/2000/svg" id="svg8472" width="16" height="16" version="1.0"><metadata id="metadata8477"/><g id="layer1"><path id="path7877" fill="none" stroke="#204a87" stroke-dasharray="none" stroke-linecap="butt" stroke-linejoin="miter" stroke-miterlimit="4" stroke-opacity="1" stroke-width="3" d="m 2.5000001,15.50005 0,-3.5 c 0,-5.5000001 4,-9.5000001 9.4999999,-9.5000001 l 3.5,0"/><path id="path7859" fill="none" stroke="#90b4dd" stroke-dasharray="none" stroke-linecap="butt" stroke-linejoin="miter" stroke-miterlimit="4" stroke-opacity="1" stroke-width="1.2" d="m 2.5000001,15.50005 0,-3.5 c 0,-5.5000001 4,-9.5000001 9.4999999,-9.5000001 l 3.5,0"/><g id="g7861" transform="translate(-338,-420.99995)"><path id="path7863" fill="#babdb6" fill-opacity="1" stroke="#888a85" stroke-linecap="round" stroke-linejoin="round" stroke-miterlimit="4" stroke-opacity="1" stroke-width="1" d="m 349.5,421.50001 4,0 0,3.99994 -4,0 0,-3.99994 z"/><path id="path7865" fill="none" stroke="#fff" stroke-linecap="round" stroke-linejoin="miter" stroke-miterlimit="4" stroke-opacity="1" stroke-width="1" d="m 350.5,422.50002 2,0 0,2.00008 -2,0 0,-2.00008 z"/></g><g id="g7867" transform="translate(-336,-422.99995)"><path id="path7869" fill="#babdb6" fill-opacity="1" stroke="#888a85" stroke-linecap="round" stroke-linejoin="round" stroke-miterlimit="4" stroke-opacity="1" stroke-width="1" d="m 336.5,434.50001 4,0 0,3.99994 -4,0 0,-3.99994 z"/><path id="path7871" fill="none" stroke="#fff" stroke-linecap="round" stroke-linejoin="miter" stroke-miterlimit="4" stroke-opacity="1" stroke-width="1" d="m 337.5,435.50002 2,0 0,2.00008 -2,0 0,-2.00008 z"/></g></g></svg>