<svg xmlns="http://www.w3.org/2000/svg" xmlns:svg="http://www.w3.org/2000/svg" xmlns:xlink="http://www.w3.org/1999/xlink" id="svg2" width="16" height="16" version="1.2"><defs id="defs4"><linearGradient id="linearGradient4011-0-8-22"><stop id="stop4013-2-3-3" offset="0" stop-color="#fff" stop-opacity="1"/><stop id="stop4015-7-1-6" offset=".508" stop-color="#fff" stop-opacity=".235"/><stop id="stop4017-13-5-7" offset=".835" stop-color="#fff" stop-opacity=".157"/><stop id="stop4019-92-5-5" offset="1" stop-color="#fff" stop-opacity=".392"/></linearGradient><linearGradient id="linearGradient6118" x1="71.204" x2="71.204" y1="6.238" y2="44.341" gradientTransform="matrix(0.35135135,0,0,0.35135135,78.586417,-0.9092972)" gradientUnits="userSpaceOnUse" xlink:href="#linearGradient4011-0-8-22"/></defs><metadata id="metadata7"/><path id="path2555-7-8-5-0-7" fill="#ccc" fill-opacity="1" fill-rule="nonzero" stroke="none" stroke-width="1" d="M 8,0.4999998 C 3.8617571,0.4999998 0.5,3.861757 0.5,8 c 0,4.138243 3.3617571,7.5 7.5,7.5 4.138243,0 7.500007,-3.361757 7.5,-7.5 C 15.5,3.861757 12.138243,0.4999998 8,0.4999998 z" color="#000" display="inline" enable-background="accumulate" opacity=".99" overflow="visible" visibility="visible" style="marker:none"/><path id="path2555-7-8-5-3" fill="none" stroke="#434343" stroke-dasharray="none" stroke-dashoffset="0" stroke-linecap="round" stroke-linejoin="round" stroke-miterlimit="4" stroke-opacity="1" stroke-width="1" d="M 8.0000001,0.4999998 C 3.8617572,0.4999998 0.5,3.861757 0.5,8 c 0,4.138243 3.3617572,7.5 7.5000001,7.5 C 12.138243,15.5 15.500007,12.138243 15.5,8 15.5,3.861757 12.138243,0.4999998 8.0000001,0.4999998 z" color="#000" display="inline" enable-background="accumulate" opacity=".3" overflow="visible" visibility="visible" style="marker:none"/><path id="path8655-6-0-9-6" fill="none" stroke="url(#linearGradient6118)" stroke-dasharray="none" stroke-dashoffset="0" stroke-linecap="round" stroke-linejoin="round" stroke-miterlimit="4" stroke-opacity="1" stroke-width="1" d="M 14.5,7.999767 C 14.5,11.589738 11.589636,14.5 8.0000823,14.5 4.4102006,14.5 1.4999999,11.589704 1.4999999,7.999767 c 0,-3.589799 2.9102007,-6.4997673 6.5000824,-6.4997673 C 11.589636,1.4999997 14.5,4.409968 14.5,7.999767 l 0,0 z" color="#000" display="inline" enable-background="accumulate" opacity=".5" overflow="visible" visibility="visible" style="marker:none"/><path id="path2922-6-6-0-9-4-6" fill="#000" fill-opacity="1" fill-rule="nonzero" stroke="none" stroke-width="1" d="M 10.847543,4.820228 12.2857,6.114578 7.4534786,12.5 3.7142714,9.278528 4.9510857,7.639021 l 2.186,1.898372 3.7104573,-4.717165 z" color="#bebebe" display="inline" enable-background="accumulate" opacity=".2" overflow="visible" visibility="visible" style="marker:none"/><path d="M 10.847543,3.820228 12.2857,5.114578 7.4534786,11.5 3.7142714,8.278528 4.9510857,6.639021 l 2.186,1.898372 3.7104573,-4.717165 z" style="marker:none" id="path2922-6-6-0-9-2" fill="#fff" fill-opacity="1" fill-rule="nonzero" stroke="none" stroke-width="1" color="#bebebe" display="inline" enable-background="accumulate" overflow="visible" visibility="visible"/></svg>