<svg xmlns="http://www.w3.org/2000/svg" xmlns:svg="http://www.w3.org/2000/svg" xmlns:xlink="http://www.w3.org/1999/xlink" id="svg8472" width="16" height="16" version="1.0"><defs id="defs8474"><linearGradient id="linearGradient6929"><stop id="stop6931" offset="0" stop-color="#204a87" stop-opacity="0"/><stop id="stop6939" offset=".146" stop-color="#204a87" stop-opacity=".976"/><stop id="stop6937" offset=".893" stop-color="#204a87" stop-opacity=".953"/><stop id="stop6933" offset="1" stop-color="#204a87" stop-opacity="0"/></linearGradient><linearGradient id="linearGradient6957"><stop id="stop6959" offset="0" stop-color="#fff" stop-opacity="0"/><stop id="stop6961" offset=".146" stop-color="#fff" stop-opacity=".976"/><stop id="stop6963" offset=".893" stop-color="#fff" stop-opacity=".957"/><stop id="stop6965" offset="1" stop-color="#fff" stop-opacity="0"/></linearGradient><linearGradient id="linearGradient6919"><stop id="stop6921" offset="0" stop-color="#729fcf" stop-opacity="1"/><stop id="stop6923" offset="1" stop-color="#729fcf" stop-opacity="0"/></linearGradient><linearGradient id="linearGradient6911"><stop id="stop6913" offset="0" stop-color="#729fcf" stop-opacity="1"/><stop id="stop6915" offset="1" stop-color="#729fcf" stop-opacity="0"/></linearGradient><linearGradient id="linearGradient9708" x1="394.991" x2="415.975" y1="441.95" y2="420.997" gradientTransform="matrix(0.6931841,0,0,0.6969486,-271.50067,-291.16796)" gradientUnits="userSpaceOnUse" xlink:href="#linearGradient6957"/><linearGradient id="linearGradient9711" x1="394.991" x2="415.975" y1="441.95" y2="420.997" gradientTransform="matrix(0.7507992,0,0,0.7519697,-295.43831,-315.45703)" gradientUnits="userSpaceOnUse" xlink:href="#linearGradient6929"/><linearGradient id="linearGradient9714" x1="402.521" x2="415.514" y1="441.95" y2="428.541" gradientTransform="matrix(0.754383,0,0,0.7688085,-297.09913,-322.89279)" gradientUnits="userSpaceOnUse" xlink:href="#linearGradient6929"/><linearGradient id="linearGradient9717" x1="402.521" x2="415.514" y1="441.95" y2="428.541" gradientTransform="matrix(0.8473141,0,0,0.8391184,-335.53787,-353.92881)" gradientUnits="userSpaceOnUse" xlink:href="#linearGradient6957"/><linearGradient id="linearGradient9720" x1="400.037" x2="400.265" y1="436.53" y2="441.04" gradientTransform="matrix(0.7206433,0,0,0.7205339,-283.51865,-302.20696)" gradientUnits="userSpaceOnUse" xlink:href="#linearGradient6919"/><linearGradient id="linearGradient9723" x1="410.812" x2="415.204" y1="424.762" y2="424.733" gradientTransform="matrix(0.7206433,0,0,0.7205339,-283.51865,-302.20696)" gradientUnits="userSpaceOnUse" xlink:href="#linearGradient6911"/></defs><metadata id="metadata8477"/><g id="layer1"><rect id="rect6840" width="15.854" height="15.852" x="1.135" y="1.138" fill="none" stroke="none"/><path id="path6842" fill="url(#linearGradient9723)" fill-opacity="1" stroke="none" d="m 15.886118,1.4980827 c -4.145335,0 -7.8827137,1.7698766 -10.5168884,4.5934079 L 8.9274059,9.649123 C 10.63435,7.7429661 13.103282,6.5418255 15.886118,6.5418255 l 0,-5.0437428 z"/><path id="path6899" fill="url(#linearGradient9720)" fill-opacity="1" stroke="none" d="M 5.7295512,5.7312211 C 3.1259174,8.3362616 1.4957646,11.916508 1.4957719,15.863732 l 5.0445031,0 c 0,-2.589654 1.0373155,-4.912658 2.7249324,-6.5973912 L 5.7295512,5.7312211 z"/><path id="path6967" fill="none" stroke="url(#linearGradient9717)" stroke-dasharray="none" stroke-dashoffset="0" stroke-linecap="square" stroke-linejoin="miter" stroke-miterlimit="4" stroke-opacity="1" stroke-width="1" d="M 16.5,5.6361361 C 10.399871,5.6361361 5.5129184,10.468284 5.5129184,16.5" opacity=".509"/><path id="path6941" fill="none" stroke="url(#linearGradient9714)" stroke-dasharray="none" stroke-dashoffset="0" stroke-linecap="square" stroke-linejoin="miter" stroke-miterlimit="4" stroke-opacity="1" stroke-width="1" d="m 16.328123,6.5441747 c -5.431083,0 -9.7820467,4.4272573 -9.7820467,9.9535803"/><path id="path6927" fill="none" stroke="url(#linearGradient9711)" stroke-dasharray="none" stroke-dashoffset="0" stroke-linecap="square" stroke-linejoin="miter" stroke-miterlimit="4" stroke-opacity="1" stroke-width="1" d="m 1.4957647,16.5 c 0,-8.2510928 6.7531376,-15.0042378 15.0042363,-15.0042378"/><path id="path6953" fill="none" stroke="url(#linearGradient9708)" stroke-dasharray="none" stroke-dashoffset="0" stroke-linecap="square" stroke-linejoin="miter" stroke-miterlimit="4" stroke-opacity="1" stroke-width="1" d="M 2.6471628,16.5 C 2.6471628,8.85263 8.8820786,2.5936069 16.5,2.5936069" opacity=".509"/><path id="path9751" fill="#fff" fill-opacity="1" stroke="#fff" stroke-dasharray="none" stroke-dashoffset="0" stroke-linecap="square" stroke-linejoin="round" stroke-miterlimit="4" stroke-opacity="1" stroke-width="1" d="M 11.375,2.4375 A 0.56255625,0.56255625 0 0 0 11.3125,2.46875 C 10.196802,2.860803 9.1316191,3.3859445 8.15625,4.03125 a 0.56255625,0.56255625 0 0 0 0.3125,1.03125 l 1.65625,0 A 0.56255625,0.56255625 0 0 0 9.9375,5.5 l 0,2.46875 a 0.56255625,0.56255625 0 0 0 0.875,0.46875 c 1.102507,-0.7602117 2.387036,-1.2752964 3.78125,-1.5 A 0.56255625,0.56255625 0 0 0 15.0625,6.375 l 0,-0.875 A 0.56255625,0.56255625 0 0 0 14.5,4.9375 l -2.625,0 A 0.56255625,0.56255625 0 0 0 12.0625,4.5 l 0,-1.5 A 0.56255625,0.56255625 0 0 0 11.375,2.4375 z m -7,5.46875 a 0.56255625,0.56255625 0 0 0 -0.34375,0.25 c -0.6404463,0.9855722 -1.1197927,2.04959 -1.5,3.15625 a 0.56255625,0.56255625 0 0 0 0.53125,0.75 l 1.4375,0 a 0.56255625,0.56255625 0 0 0 0.4375,-0.21875 l 0,2.65625 A 0.56255625,0.56255625 0 0 0 5.5,15.0625 l 0.9375,0 A 0.56255625,0.56255625 0 0 0 7,14.59375 C 7.2131781,13.19722 7.7146834,11.922681 8.46875,10.8125 A 0.56255625,0.56255625 0 0 0 8,9.9375 l -2.5,0 a 0.56255625,0.56255625 0 0 0 -0.4375,0.21875 l 0,-1.6875 A 0.56255625,0.56255625 0 0 0 4.375,7.90625 z" opacity=".478" transform="translate(-0.21875,-0.34375)"/><g id="g6852" transform="matrix(1,0,0,0.9998532,-373.00002,-427.93525)"><path id="path6848" fill="#babdb6" fill-opacity="1" stroke="#888a85" stroke-linecap="round" stroke-linejoin="round" stroke-miterlimit="4" stroke-opacity="1" stroke-width="1" d="m 384.49997,428.49998 0,4 -3.99994,0 0,-4 3.99994,0 z"/><path id="path6850" fill="none" stroke="#fff" stroke-linecap="round" stroke-linejoin="miter" stroke-miterlimit="4" stroke-opacity="1" stroke-width="1" d="m 383.49996,429.49998 0,2 -2.00008,0 0,-2 2.00008,0 z"/></g><g id="g6859" transform="matrix(1,0,0,0.9998532,-368.99999,-422.93395)"><path id="path6861" fill="#babdb6" fill-opacity="1" stroke="#888a85" stroke-linecap="round" stroke-linejoin="round" stroke-miterlimit="4" stroke-opacity="1" stroke-width="1" d="m 383.49997,428.49998 0,4 -3.99994,0 0,-4 3.99994,0 z"/><path id="path6863" fill="none" stroke="#fff" stroke-linecap="round" stroke-linejoin="miter" stroke-miterlimit="4" stroke-opacity="1" stroke-width="1" d="m 382.49996,429.49998 0,2 -2.00008,0 0,-2 2.00008,0 z"/></g><g id="g6865" transform="matrix(1,0,0,0.9998532,-374.99999,-417.93483)"><path id="path6867" fill="#babdb6" fill-opacity="1" stroke="#888a85" stroke-linecap="round" stroke-linejoin="round" stroke-miterlimit="4" stroke-opacity="1" stroke-width="1" d="m 389.5,435.50001 4,0 0,3.99994 -4,0 0,-3.99994 z" transform="matrix(0,1,-1,0,819.99998,38.99998)"/><path id="path6869" fill="none" stroke="#fff" stroke-linecap="round" stroke-linejoin="miter" stroke-miterlimit="4" stroke-opacity="1" stroke-width="1" d="m 390.5,436.50002 2,0 0,2.00008 -2,0 0,-2.00008 z" transform="matrix(0,1,-1,0,819.99998,38.99998)"/></g><g id="g6871" transform="matrix(1,0,0,0.9998532,-379.99999,-420.93586)"><path id="path6873" fill="#babdb6" fill-opacity="1" stroke="#888a85" stroke-linecap="round" stroke-linejoin="round" stroke-miterlimit="4" stroke-opacity="1" stroke-width="1" d="m 389.5,435.50001 4,0 0,3.99994 -4,0 0,-3.99994 z" transform="matrix(0,1,-1,0,819.99998,38.99998)"/><path id="path6876" fill="none" stroke="#fff" stroke-linecap="round" stroke-linejoin="miter" stroke-miterlimit="4" stroke-opacity="1" stroke-width="1" d="m 390.5,436.50002 2,0 0,2.00008 -2,0 0,-2.00008 z" transform="matrix(0,1,-1,0,819.99998,38.99998)"/></g></g></svg>