<svg xmlns="http://www.w3.org/2000/svg" xmlns:svg="http://www.w3.org/2000/svg" xmlns:xlink="http://www.w3.org/1999/xlink" id="svg3279" width="16" height="16" version="1.1"><defs id="defs3281"><linearGradient id="linearGradient4261"><stop id="stop4263" offset="0" stop-color="#fff" stop-opacity="1"/><stop id="stop4265" offset=".033" stop-color="#fff" stop-opacity=".235"/><stop id="stop4267" offset=".499" stop-color="#fff" stop-opacity=".157"/><stop id="stop4269" offset="1" stop-color="#fff" stop-opacity=".392"/></linearGradient><linearGradient id="linearGradient4222"><stop id="stop4224" offset="0" stop-color="#fff" stop-opacity="1"/><stop id="stop4226" offset="1" stop-color="#fff" stop-opacity="0"/></linearGradient><linearGradient id="linearGradient3243"><stop id="stop3245" offset="0" stop-color="#fff4e9" stop-opacity="1"/><stop id="stop3247" offset="1" stop-color="#e7d6c5" stop-opacity="1"/></linearGradient><linearGradient id="linearGradient3029" x1="40.007" x2="40.007" y1="11.782" y2="10.518" gradientTransform="matrix(0.82996661,0,0,0.83014725,-23.704279,-2.8028554)" gradientUnits="userSpaceOnUse" xlink:href="#linearGradient4222"/><linearGradient id="linearGradient3032" x1="41.051" x2="41.051" y1="6.967" y2="20.055" gradientTransform="matrix(0.63241105,0,0,0.63366331,-16.06917,-0.5594047)" gradientUnits="userSpaceOnUse" xlink:href="#linearGradient4261"/><linearGradient id="linearGradient3035" x1="39.906" x2="39.906" y1="6.123" y2="24.034" gradientTransform="matrix(0.6666711,0,0,0.6666711,-17.166785,-1.1667711)" gradientUnits="userSpaceOnUse" xlink:href="#linearGradient3243"/><radialGradient id="radialGradient3259" cx="64.575" cy="48.605" r="31" fx="64.575" fy="48.605" gradientTransform="matrix(0,0.38528829,-0.41958841,0,32.389496,-16.793007)" gradientUnits="userSpaceOnUse" xlink:href="#linearGradient3242-7-3-8-0-4-58-06"/><linearGradient id="linearGradient3242-7-3-8-0-4-58-06"><stop id="stop3244-5-8-5-6-4-3-8" offset="0" stop-color="#cdf87e" stop-opacity="1"/><stop id="stop3246-9-5-1-5-3-0-7" offset=".262" stop-color="#a2e34f" stop-opacity="1"/><stop id="stop3248-7-2-0-7-5-35-9" offset=".661" stop-color="#68b723" stop-opacity="1"/><stop id="stop3250-8-2-8-5-6-40-4" offset="1" stop-color="#1d7e0d" stop-opacity="1"/></linearGradient></defs><metadata id="metadata3284"/><path id="path2463" fill="url(#linearGradient3035)" fill-opacity="1" fill-rule="evenodd" stroke="none" d="M 6.8333755,2.4999192 0.50000006,9.0624632 6.0000368,14.5 12.500078,8.1666242 l 0,-5.666705 -5.6667025,0 z m 2.6666849,2.000014 c 0.5520026,0 1.0000066,0.448002 1.0000066,1.000006 0,0.552004 -0.448004,1.000007 -1.0000066,1.000007 -0.5520042,0 -1.0000072,-0.448003 -1.0000072,-1.000007 0,-0.552004 0.448003,-1.000006 1.0000072,-1.000006 z"/><path id="path3265" fill="none" stroke="url(#linearGradient3032)" stroke-linecap="butt" stroke-linejoin="miter" stroke-opacity="1" stroke-width="1" d="m 7.3435443,3.5000004 c 0,0 -5.4055851,5.4975779 -5.4055851,5.4975779 0,0 4.1443391,4.3564347 4.1443391,4.3564347 0,0 5.3593077,-5.5623316 5.3593077,-5.5623316 0,0 0.05839,-4.291681 0.05839,-4.291681 0,0 -4.1564557,0 -4.1564557,0 z" opacity=".7"/><path id="path3294" fill="none" stroke="url(#linearGradient3029)" stroke-linecap="butt" stroke-linejoin="miter" stroke-opacity="1" stroke-width="1" d="M 9.4943871,3.5010736 C 10.750366,3.4567938 11.785978,4.7909532 11.428498,5.9971782 11.163042,7.1808175 9.7058904,7.86295 8.6294138,7.298845 7.5214098,6.8093158 7.1351849,5.250799 7.8946109,4.3042992 8.263526,3.8049752 8.8728487,3.4962646 9.4943871,3.5010736 z" opacity=".6"/><path id="path3298" fill="none" stroke="#5d3c1e" stroke-dasharray="none" stroke-dashoffset="0" stroke-linecap="butt" stroke-linejoin="miter" stroke-miterlimit="4" stroke-opacity="1" stroke-width="1" d="m 10.333402,4.9995634 c 0.73935,-0.391482 1.702694,-0.511416 2.617932,-0.53183 0.411434,-0.0092 0.8273,0.0746 1.231029,-0.02143 0.513831,-0.122222 0.863993,-0.498679 0.812771,-0.842839 -0.06877,-0.461979 -0.68935,-0.803021 -1.271382,-1.047072 -0.516276,-0.216476 -0.913636,-0.6022352 -1.123633,-1.0097466 -0.106098,-0.20589 0.07919,-0.4220767 0.376399,-0.4884432 0.269998,-0.060291 0.552791,-0.084123 0.827535,-0.022904 0.418164,0.093175 0.911794,0.2068481 1.106321,0.5031098" color="#000" display="inline" enable-background="accumulate" opacity=".5" overflow="visible" visibility="visible" style="marker:none"/><path id="path2463-3" fill="none" stroke="#5c432c" stroke-linecap="butt" stroke-linejoin="miter" stroke-opacity="1" stroke-width="1" d="M 6.8333755,2.4999191 0.50000006,9.0624631 6.0000368,14.5 12.500078,8.1666241 l 0,-5.666705 -5.6667025,0 z m 2.6666849,2.000014 c 0.5520026,0 1.0000066,0.448002 1.0000066,1.000006 0,0.552004 -0.448004,1.000007 -1.0000066,1.000007 -0.5520042,0 -1.0000072,-0.448003 -1.0000072,-1.000007 0,-0.552004 0.448003,-1.000006 1.0000072,-1.000006 z" opacity=".5"/><path id="path2262" fill="url(#radialGradient3259)" fill-opacity="1" fill-rule="nonzero" stroke="none" stroke-dasharray="none" stroke-dashoffset="0" stroke-linecap="round" stroke-linejoin="round" stroke-miterlimit="4" stroke-opacity="1" stroke-width=".985" d="m 10.5,10.5 0,-2.0072863 3,0 0,2.0072863 2.007286,0 0,3 -2.007286,0 0,2.007286 -3,0 0,-2.007286 -2.0072863,0 0,-3 2.0072863,0 z" color="#000" display="inline" enable-background="accumulate" overflow="visible" visibility="visible" style="marker:none"/><path clip-rule="nonzero" style="isolation:auto;mix-blend-mode:normal;solid-color:#000;solid-opacity:1;marker:none" id="path2262-5" fill="none" fill-opacity="1" fill-rule="nonzero" stroke="#0f5a00" stroke-dasharray="none" stroke-dashoffset="0" stroke-linecap="round" stroke-linejoin="round" stroke-miterlimit="4" stroke-opacity="1" stroke-width="1" d="m 10.5,10.5 0,-2.0072863 3,0 0,2.0072863 2.007286,0 0,3 -2.007286,0 0,2.007286 -3,0 0,-2.007286 -2.0072863,0 0,-3 2.0072863,0 z" color="#000" color-interpolation="sRGB" color-interpolation-filters="linearRGB" color-rendering="auto" display="inline" enable-background="accumulate" image-rendering="auto" opacity=".5" overflow="visible" shape-rendering="auto" text-rendering="auto" visibility="visible"/><rect id="rect4304" width="2" height="1" x="11" y="9" fill="#fff" fill-opacity="1" fill-rule="nonzero" stroke="none" stroke-dasharray="none" stroke-dashoffset="0" stroke-linecap="round" stroke-linejoin="round" stroke-miterlimit="4" stroke-opacity="1" stroke-width="1" clip-rule="nonzero" color="#000" color-interpolation="sRGB" color-interpolation-filters="linearRGB" color-rendering="auto" display="inline" enable-background="accumulate" image-rendering="auto" opacity=".5" overflow="visible" shape-rendering="auto" text-rendering="auto" visibility="visible" style="isolation:auto;mix-blend-mode:normal;solid-color:#000;solid-opacity:1;marker:none"/><rect id="rect4304-6" width="2" height="1" x="11" y="14" fill="#fff" fill-opacity="1" fill-rule="nonzero" stroke="none" stroke-dasharray="none" stroke-dashoffset="0" stroke-linecap="round" stroke-linejoin="round" stroke-miterlimit="4" stroke-opacity="1" stroke-width="1" clip-rule="nonzero" color="#000" color-interpolation="sRGB" color-interpolation-filters="linearRGB" color-rendering="auto" display="inline" enable-background="accumulate" image-rendering="auto" opacity=".2" overflow="visible" shape-rendering="auto" text-rendering="auto" visibility="visible" style="isolation:auto;mix-blend-mode:normal;solid-color:#000;solid-opacity:1;marker:none"/><path id="rect4304-6-2" fill="#fff" fill-opacity="1" fill-rule="nonzero" stroke="none" stroke-dasharray="none" stroke-dashoffset="0" stroke-linecap="round" stroke-linejoin="round" stroke-miterlimit="4" stroke-opacity="1" stroke-width="1" d="m 9,11 0,1 2,0 0,-1 -2,0 z m 4,0 0,1 2,0 0,-1 -2,0 z" clip-rule="nonzero" color="#000" color-interpolation="sRGB" color-interpolation-filters="linearRGB" color-rendering="auto" display="inline" enable-background="accumulate" image-rendering="auto" opacity=".4" overflow="visible" shape-rendering="auto" text-rendering="auto" visibility="visible" style="isolation:auto;mix-blend-mode:normal;solid-color:#000;solid-opacity:1;marker:none"/></svg>