<svg xmlns="http://www.w3.org/2000/svg" xmlns:svg="http://www.w3.org/2000/svg" xmlns:xlink="http://www.w3.org/1999/xlink" id="svg3286" width="16" height="16" version="1.0"><metadata id="metadata37"/><defs id="defs3288"><linearGradient id="linearGradient2867-449-88-871-390-598-476-591-434-148-57-177-641-289-620-227-114-444-680-744-4-1-5-6-9"><stop id="stop5430-5-0-9-4-2" offset="0" stop-color="#737373" stop-opacity="1"/><stop id="stop5432-2-0-0-4-4" offset=".262" stop-color="#636363" stop-opacity="1"/><stop id="stop5434-9-6-8-5-0" offset=".705" stop-color="#4b4b4b" stop-opacity="1"/><stop id="stop5436-2-7-0-0-5" offset="1" stop-color="#3f3f3f" stop-opacity="1"/></linearGradient><radialGradient id="radialGradient4194" cx="8" cy="-2" r="6" fx="8" fy="-2" gradientTransform="matrix(-4.6666667,7.7777782e-8,-7.7777782e-8,-4.6666666,45.333333,-10.333334)" gradientUnits="userSpaceOnUse" xlink:href="#linearGradient2867-449-88-871-390-598-476-591-434-148-57-177-641-289-620-227-114-444-680-744-4-1-5-6-9"/><clipPath id="clipPath4203" clipPathUnits="userSpaceOnUse"><path id="path4205" fill="#000" fill-opacity="1" fill-rule="evenodd" stroke="none" stroke-dasharray="none" stroke-linecap="butt" stroke-linejoin="miter" stroke-miterlimit="4" stroke-opacity="1" stroke-width="2" d="M 8.4355469,0.97851563 C 8.1887511,0.97851563 8,1.1860759 8,1.4394531 L 8,2.5957031 8,3 A 6,6 0 0 0 2,9 6,6 0 0 0 8,15 6,6 0 0 0 14,9 L 12,9 A 4,4 0 0 1 8,13 4,4 0 0 1 4,9 4,4 0 0 1 8,5 l 0,0.3261719 0,1.1914062 c 0,0.2533773 0.1887511,0.4609375 0.4355469,0.4609375 0.061705,0 0.1242724,-0.0022 0.1777343,-0.025391 L 12.632812,4.5 c 0.160388,-0.069655 0.281251,-0.2474671 0.28125,-0.4375 0,-0.190032 -0.120863,-0.3659009 -0.28125,-0.4355469 L 8.6132812,1.0039062 C 8.5598222,0.98069425 8.4972495,0.97851563 8.4355469,0.97851563 Z" opacity=".1"/></clipPath></defs><path id="path3369" fill="url(#radialGradient4194)" fill-opacity="1" fill-rule="evenodd" stroke="none" stroke-linecap="butt" stroke-linejoin="miter" stroke-opacity="1" stroke-width="1" d="M 8.4355469,0.97851563 C 8.1887511,0.97851563 8,1.1860759 8,1.4394531 L 8,2.5957031 8,3 A 6,6 0 0 0 2,9 6,6 0 0 0 8,15 6,6 0 0 0 14,9 L 12,9 A 4,4 0 0 1 8,13 4,4 0 0 1 4,9 4,4 0 0 1 8,5 l 0,0.3261719 0,1.1914062 c 0,0.2533773 0.1887511,0.4609375 0.4355469,0.4609375 0.061705,0 0.1242724,-0.0022 0.1777343,-0.025391 L 12.632812,4.5 c 0.160388,-0.069655 0.281251,-0.2474671 0.28125,-0.4375 0,-0.190032 -0.120863,-0.3659009 -0.28125,-0.4355469 L 8.6132812,1.0039062 C 8.5598222,0.98069425 8.4972495,0.97851563 8.4355469,0.97851563 Z"/><path id="path4199" fill="none" fill-opacity="1" fill-rule="evenodd" stroke="#000" stroke-dasharray="none" stroke-linecap="butt" stroke-linejoin="miter" stroke-miterlimit="4" stroke-opacity="1" stroke-width="2" d="M 8.4355469,0.97851563 C 8.1887511,0.97851563 8,1.1860759 8,1.4394531 L 8,2.5957031 8,3 A 6,6 0 0 0 2,9 6,6 0 0 0 8,15 6,6 0 0 0 14,9 L 12,9 A 4,4 0 0 1 8,13 4,4 0 0 1 4,9 4,4 0 0 1 8,5 l 0,0.3261719 0,1.1914062 c 0,0.2533773 0.1887511,0.4609375 0.4355469,0.4609375 0.061705,0 0.1242724,-0.0022 0.1777343,-0.025391 L 12.632812,4.5 c 0.160388,-0.069655 0.281251,-0.2474671 0.28125,-0.4375 0,-0.190032 -0.120863,-0.3659009 -0.28125,-0.4355469 L 8.6132812,1.0039062 C 8.5598222,0.98069425 8.4972495,0.97851563 8.4355469,0.97851563 Z" clip-path="url(#clipPath4203)" opacity=".1"/></svg>