<svg xmlns="http://www.w3.org/2000/svg" xmlns:svg="http://www.w3.org/2000/svg" xmlns:xlink="http://www.w3.org/1999/xlink" id="svg3216" width="16" height="16" version="1.1"><defs id="defs3218"><linearGradient id="linearGradient3072" x1="24" x2="24" y1="7.182" y2="40.818" gradientTransform="matrix(0.24324326,0,0,0.29729733,2.1621626,1.8648682)" gradientUnits="userSpaceOnUse" xlink:href="#linearGradient3098"/><linearGradient id="linearGradient3098"><stop id="stop3100" offset="0" stop-color="#fff" stop-opacity="1"/><stop id="stop3102" offset="0" stop-color="#fff" stop-opacity=".235"/><stop id="stop3104" offset="1" stop-color="#fff" stop-opacity=".157"/><stop id="stop3106" offset="1" stop-color="#fff" stop-opacity=".392"/></linearGradient><radialGradient id="radialGradient3075" cx="7.496" cy="8.45" r="20" fx="7.496" fy="8.45" gradientTransform="matrix(0,0.77899668,-0.98890282,-1.4352093e-8,18.656045,-3.1449331)" gradientUnits="userSpaceOnUse" xlink:href="#linearGradient2867-449-88-871-390-598-476-591-434-148-57-177-641-289-620-227-114-444-680-744-8"/><linearGradient id="linearGradient2867-449-88-871-390-598-476-591-434-148-57-177-641-289-620-227-114-444-680-744-8"><stop id="stop5430-8" offset="0" stop-color="#5f5f5f" stop-opacity="1"/><stop id="stop5432-3" offset=".262" stop-color="#4f4f4f" stop-opacity="1"/><stop id="stop5434-1" offset=".705" stop-color="#3b3b3b" stop-opacity="1"/><stop id="stop5436-8" offset="1" stop-color="#2b2b2b" stop-opacity="1"/></linearGradient><linearGradient id="linearGradient3077" x1="24" x2="24" y1="44" y2="3.899" gradientTransform="matrix(0.40000006,0,0,0.33333333,0.7000001,1.0000001)" gradientUnits="userSpaceOnUse" xlink:href="#linearGradient3707-319-631-407-324-616-674-812-821-107-178-392-400-6"/><linearGradient id="linearGradient3707-319-631-407-324-616-674-812-821-107-178-392-400-6"><stop id="stop5440-4" offset="0" stop-color="#272727" stop-opacity="1"/><stop id="stop5442-3" offset="1" stop-color="#454545" stop-opacity="1"/></linearGradient><linearGradient id="linearGradient3087" x1="24" x2="24" y1="44" y2="3.899" gradientTransform="matrix(0.40000003,0,0,0.05128184,0.7000002,0.26923851)" gradientUnits="userSpaceOnUse" xlink:href="#linearGradient3707-319-631-407-324-616-674-812-821-107-178-392-400-6-2"/><linearGradient id="linearGradient3707-319-631-407-324-616-674-812-821-107-178-392-400-6-2"><stop id="stop5440-4-8" offset="0" stop-color="#272727" stop-opacity="1"/><stop id="stop5442-3-8" offset="1" stop-color="#454545" stop-opacity="1"/></linearGradient><linearGradient id="linearGradient4280"><stop id="stop4282" offset="0" stop-color="#9bdb4d" stop-opacity="1"/><stop id="stop4284" offset="1" stop-color="#68b723" stop-opacity="1"/></linearGradient><linearGradient id="linearGradient4323"><stop id="stop4325" offset="0" stop-color="#fafafa" stop-opacity="1"/><stop id="stop4327" offset="1" stop-color="#d4d4d4" stop-opacity="1"/></linearGradient><linearGradient id="linearGradient4418" x1="70.766" x2="70.766" y1="30.632" y2="44.038" gradientTransform="matrix(1.0019077,0,0,1.0014668,-62.741262,-28.482373)" gradientUnits="userSpaceOnUse" xlink:href="#linearGradient4280"/><linearGradient id="linearGradient4476" x1="51.829" x2="51.829" y1="17.115" y2="17.605" gradientTransform="matrix(1.3484995,0,0,2.0418357,-61.320844,-33.945807)" gradientUnits="userSpaceOnUse" xlink:href="#linearGradient4323"/></defs><metadata id="metadata3221"/><path clip-rule="nonzero" style="isolation:auto;mix-blend-mode:normal;solid-color:#000;solid-opacity:1;filter-blend-mode:normal;filter-gaussianBlur-deviation:0" id="path2723" fill="url(#linearGradient4476)" fill-opacity="1" fill-rule="nonzero" stroke="#206b00" stroke-dasharray="none" stroke-dashoffset="0" stroke-linecap="butt" stroke-linejoin="round" stroke-miterlimit="0" stroke-opacity=".498" stroke-width="1.017" d="M 13.491301,2.3043766 C 13.39467,1.6493144 13.45489,1.1334488 13.401512,0.50869876 l -9.8928133,0 0.058388,1.98260254" color="#000" color-interpolation="sRGB" color-interpolation-filters="linearRGB" color-rendering="auto" display="inline" enable-background="accumulate" image-rendering="auto" opacity="1" overflow="visible" shape-rendering="auto" text-rendering="auto" visibility="visible"/><path id="rect5505-21-3-9" fill="#e9e9e9" fill-opacity="1" fill-rule="nonzero" stroke="url(#linearGradient3087)" stroke-dasharray="none" stroke-dashoffset="0" stroke-linecap="round" stroke-linejoin="round" stroke-miterlimit="4" stroke-opacity="1" stroke-width="1" d="m 4.4999999,2.5 -1.6000002,0 C 2.6716605,2.5 2.4999999,2.478829 2.4999999,2.451214 l 0,-1.3982157 c 0,-0.4439613 0.2236128,-0.55299825 0.5163576,-0.55299825 l 1.4836424,0" color="#000" display="inline" enable-background="accumulate" overflow="visible" visibility="visible" style="marker:none"/><rect id="rect2719" width="10" height="13" x="3.5" y="2.5" fill="url(#linearGradient4418)" fill-opacity="1" fill-rule="nonzero" stroke="#206b00" stroke-dasharray="none" stroke-dashoffset="0" stroke-linecap="round" stroke-linejoin="round" stroke-miterlimit="0" stroke-opacity=".498" stroke-width="1" clip-rule="nonzero" color="#000" color-interpolation="sRGB" color-interpolation-filters="linearRGB" color-rendering="auto" display="inline" enable-background="accumulate" image-rendering="auto" opacity="1" overflow="visible" shape-rendering="auto" text-rendering="auto" visibility="visible" style="isolation:auto;mix-blend-mode:normal;solid-color:#000;solid-opacity:1"/><path id="rect5505-21-3" fill="url(#radialGradient3075)" fill-opacity="1" fill-rule="nonzero" stroke="url(#linearGradient3077)" stroke-dasharray="none" stroke-dashoffset="0" stroke-linecap="round" stroke-linejoin="round" stroke-miterlimit="4" stroke-opacity="1" stroke-width="1" d="m 4.4999999,2.5 c 0,0 0,9.039476 0,13 L 2.9,15.5 c -0.2283394,0 -0.4000001,-0.137593 -0.4000001,-0.317074 l 0,-12.682926 z" color="#000" display="inline" enable-background="accumulate" overflow="visible" visibility="visible" style="marker:none"/><rect id="rect6741-0" width="9" height="11" x="3.5" y="3.5" fill="none" stroke="url(#linearGradient3072)" stroke-dasharray="none" stroke-dashoffset="0" stroke-linecap="round" stroke-linejoin="miter" stroke-miterlimit="4" stroke-opacity="1" stroke-width="1" opacity=".3"/><path color="#000" style="isolation:auto;mix-blend-mode:normal;solid-color:#000;solid-opacity:1" id="path4451" fill="#206b00" fill-opacity="1" fill-rule="nonzero" stroke-dasharray="none" stroke-dashoffset="0" stroke-linecap="butt" stroke-linejoin="miter" stroke-miterlimit="4" stroke-opacity="1" stroke-width="1" d="M 9,5.0253906 C 8.6298222,5.0253767 8.2594895,5.1643392 7.9824219,5.4414062 L 4.4414062,8.9824219 c -0.5543038,0.5543038 -0.5538219,1.4808601 0,2.0351561 l 3.5410157,3.541016 c 0.554135,0.554135 1.4810139,0.554615 2.0351561,0 l 3.541016,-3.541016 c 0.553822,-0.554296 0.554304,-1.4808524 0,-2.0351561 L 13.044922,8.46875 a 0.98023095,0.98023095 0 0 0 -0.560547,-0.2753906 0.98023095,0.98023095 0 0 0 -0.277344,-0.5625 L 10.017578,5.4414062 C 9.7405069,5.1640982 9.3701778,5.0254046 9,5.0253906 Z" clip-rule="nonzero" color-interpolation="sRGB" color-interpolation-filters="linearRGB" color-rendering="auto" display="inline" enable-background="accumulate" image-rendering="auto" opacity=".15" overflow="visible" shape-rendering="auto" text-rendering="auto" visibility="visible"/><path color="#000" style="isolation:auto;mix-blend-mode:normal;solid-color:#000;solid-opacity:1;filter-blend-mode:normal;filter-gaussianBlur-deviation:0" id="path3988" fill="#206b00" fill-opacity="1" fill-rule="nonzero" stroke-dasharray="none" stroke-dashoffset="0" stroke-linecap="butt" stroke-linejoin="miter" stroke-miterlimit="4" stroke-opacity="1" stroke-width="1" d="M 8.9999236,12.513908 6.4860296,9.999808 8.9999236,7.4860668 9.8379562,8.3239467 8.161891,9.999808 8.9998728,10.837841 11.513766,8.3240995 9.323871,6.1342041 c -0.178821,-0.1789738 -0.4688698,-0.1789738 -0.647844,0 L 5.1341157,9.6761154 c -0.1788209,0.1788209 -0.1788209,0.4688696 0,0.6478436 l 3.5419625,3.541811 c 0.1789738,0.178974 0.4690226,0.178974 0.647844,0 l 3.5419618,-3.541811 c 0.178821,-0.178974 0.178821,-0.4690227 0,-0.6478436 L 12.351697,9.1620813 8.9999236,12.513908 Z" clip-rule="nonzero" color-interpolation="sRGB" color-interpolation-filters="linearRGB" color-rendering="auto" display="inline" enable-background="accumulate" image-rendering="auto" opacity=".15" overflow="visible" shape-rendering="auto" text-rendering="auto" visibility="visible"/><path id="path10" fill="#fff" fill-opacity="1" d="M 8.9999236,11.513908 6.4860296,8.9998085 8.9999236,6.4860673 9.8379562,7.3239472 8.161891,8.9998085 8.9998728,9.8378412 11.513766,7.3241 9.323871,5.1342046 c -0.178821,-0.1789738 -0.4688698,-0.1789738 -0.647844,0 L 5.1341157,8.6761159 c -0.1788209,0.1788209 -0.1788209,0.4688699 0,0.647844 L 8.6760782,12.86577 c 0.1789738,0.178974 0.4690226,0.178974 0.647844,0 L 12.865884,9.3239599 c 0.178821,-0.1789741 0.178821,-0.4690231 0,-0.647844 L 12.351697,8.1620818 8.9999236,11.513908 Z"/></svg>