<svg xmlns="http://www.w3.org/2000/svg" xmlns:svg="http://www.w3.org/2000/svg" xmlns:xlink="http://www.w3.org/1999/xlink" id="svg3810" width="16" height="16" version="1.1"><defs id="defs3812"><linearGradient id="linearGradient3988" x1="24" x2="24" y1="6.923" y2="41.077" gradientTransform="matrix(0.24324324,0,0,0.35135133,2.1621636,-0.43242804)" gradientUnits="userSpaceOnUse" xlink:href="#linearGradient3977"/><linearGradient id="linearGradient3977"><stop id="stop3979" offset="0" stop-color="#fff" stop-opacity="1"/><stop id="stop3981" offset="0" stop-color="#fff" stop-opacity=".235"/><stop id="stop3983" offset="1" stop-color="#fff" stop-opacity=".157"/><stop id="stop3985" offset="1" stop-color="#fff" stop-opacity=".392"/></linearGradient><linearGradient id="linearGradient3600"><stop id="stop3602" offset="0" stop-color="#f4f4f4" stop-opacity="1"/><stop id="stop3604" offset="1" stop-color="#dbdbdb" stop-opacity="1"/></linearGradient><linearGradient id="linearGradient3806" x1="25.132" x2="25.132" y1=".985" y2="47.013" gradientTransform="matrix(0.28571361,0,0,0.30419701,1.1428727,0.2326048)" gradientUnits="userSpaceOnUse" xlink:href="#linearGradient3600"/><linearGradient id="linearGradient3104-9"><stop id="stop3106-5" offset="0" stop-color="#000" stop-opacity=".34"/><stop id="stop3108-5" offset="1" stop-color="#000" stop-opacity=".247"/></linearGradient><linearGradient id="linearGradient3019" x1="-51.786" x2="-51.786" y1="50.786" y2="2.906" gradientTransform="matrix(0.25378586,0,0,0.30501865,19.128979,-0.68547704)" gradientUnits="userSpaceOnUse" xlink:href="#linearGradient3104-9"/><radialGradient id="radialGradient3858" cx="7.806" cy="9.957" r="12.672" fx="7.276" fy="9.957" gradientTransform="matrix(-5.0813118e-8,2.2503718,-2.543345,-6.7550105e-8,33.320987,-20.146566)" gradientUnits="userSpaceOnUse" xlink:href="#linearGradient2867-449-88-871-390-598-476-591-434-148-57-177-8-3"/><linearGradient id="linearGradient2867-449-88-871-390-598-476-591-434-148-57-177-8-3"><stop id="stop3750-1-0" offset="0" stop-color="#ffcd7d" stop-opacity="1"/><stop id="stop3752-3-7" offset=".262" stop-color="#fc8f36" stop-opacity="1"/><stop id="stop3754-1-8" offset=".705" stop-color="#e23a0e" stop-opacity="1"/><stop id="stop3756-1-6" offset="1" stop-color="#ac441f" stop-opacity="1"/></linearGradient></defs><metadata id="metadata3815"/><path id="path4160" fill="url(#linearGradient3806)" fill-opacity="1" stroke="none" d="m 3,1 c 2.2915074,0 9.999988,8.904e-4 9.999988,8.904e-4 L 13,15 C 13,15 6.3333332,15 3,15 3,10.333334 3,5.6666664 3,1 Z" display="inline"/><path id="rect6741-1" fill="none" stroke="url(#linearGradient3988)" stroke-dasharray="none" stroke-dashoffset="0" stroke-linecap="round" stroke-linejoin="miter" stroke-miterlimit="4" stroke-opacity="1" stroke-width="1" d="m 12.5,14.5 -9.0000001,0 0,-13 L 12.5,1.5 Z"/><path id="path4160-8" fill="none" stroke="url(#linearGradient3019)" stroke-dasharray="none" stroke-dashoffset="0" stroke-linecap="butt" stroke-linejoin="round" stroke-miterlimit="4" stroke-opacity="1" stroke-width="1" d="m 2.4999621,0.49997396 c 2.5206756,0 11.0000629,9.54e-4 11.0000629,9.54e-4 l 1.3e-5,14.99909804 c 0,0 -7.3333841,0 -11.000076,0 0,-5.000017 0,-10.000035 0,-15.00005204 z" display="inline"/><path id="rect3029" fill="url(#radialGradient3858)" fill-opacity="1" fill-rule="nonzero" stroke="none" stroke-dasharray="none" stroke-dashoffset="0" stroke-linecap="butt" stroke-linejoin="round" stroke-miterlimit="4" stroke-opacity="1" stroke-width="1" d="m 10.580012,4.6703083 c -10e-7,-0.1289568 0.01949,-0.2354261 0.05849,-0.3194086 0.03898,-0.086968 0.09147,-0.1559489 0.157454,-0.2069411 0.06898,-0.053978 0.148457,-0.091467 0.238431,-0.112468 C 11.127355,4.0105035 11.22483,4.0000081 11.326803,4 c 0.101969,6.9e-6 0.197941,0.010504 0.287917,0.031491 0.08997,0.021003 0.167951,0.05849 0.233933,0.112468 0.06898,0.050992 0.122963,0.1199726 0.161954,0.2069411 0.04198,0.083983 0.06298,0.1904518 0.06298,0.3194086 -2e-6,0.1259701 -0.021,0.2324394 -0.06298,0.3194088 -0.039,0.086981 -0.09298,0.157461 -0.161954,0.2114394 -0.06598,0.050991 -0.143961,0.08848 -0.233933,0.1124679 -0.08997,0.020998 -0.185948,0.031498 -0.287917,0.031491 -0.101973,5.7e-6 -0.199445,-0.010492 -0.292418,-0.031491 C 10.944415,5.2896388 10.864934,5.2521478 10.795954,5.2011565 10.729974,5.1471785 10.677487,5.0766981 10.6385,4.9897171 10.5995,4.9027481 10.58001,4.7962784 10.58001,4.6703083 M 12.010604,11 l -1.372109,0 0,-5.0295631 1.372109,0 0,5.0295631 m -3.5044995,0 -0.4498716,-1.565553 -2.2673518,0 L 5.3345112,11 3.9264131,11 6.0633023,4.3958866 l 1.7050127,0 L 9.9142018,11 8.5061045,11 M 7.7323258,8.2647812 7.3094468,6.8251926 C 7.2914518,6.7712125 7.2644541,6.6827378 7.228464,6.5597685 7.1924738,6.4368081 7.1534794,6.3018468 7.1114981,6.154884 7.0725037,6.0049318 7.0350165,5.8549751 6.9990304,5.7050124 6.9630403,5.5550607 6.9375396,5.4275975 6.9225488,5.3226221 c -0.011997,0.065986 -0.028494,0.1439642 -0.049484,0.2339331 -0.017995,0.089979 -0.040491,0.1859519 -0.067478,0.2879177 -0.023993,0.098977 -0.049484,0.199448 -0.076481,0.3014139 -0.026998,0.1019754 -0.052489,0.1979479 -0.076482,0.2879177 -0.023993,0.089978 -0.04649,0.1694561 -0.067479,0.238432 -0.017995,0.068984 -0.031489,0.1199699 -0.040491,0.1529561 l -0.4183796,1.4395886 1.6060408,0" clip-rule="nonzero" color="#000" color-interpolation="sRGB" color-interpolation-filters="linearRGB" color-rendering="auto" display="inline" enable-background="accumulate" image-rendering="auto" opacity="1" overflow="visible" shape-rendering="auto" text-rendering="auto" visibility="visible" style="isolation:auto;mix-blend-mode:normal;solid-color:#000;solid-opacity:1;marker:none"/></svg>