<svg xmlns="http://www.w3.org/2000/svg" xmlns:svg="http://www.w3.org/2000/svg" xmlns:xlink="http://www.w3.org/1999/xlink" id="svg11300" width="16" height="17" display="inline" enable-background="new" version="1.0" viewBox="0 0 16 17"><metadata id="metadata155"/><title id="title4162">elementary Icon Template</title><defs id="defs3"><linearGradient id="linearGradient3988" x1="24" x2="24" y1="6.923" y2="41.077" gradientTransform="matrix(0.24324324,0,0,0.35135133,10.162164,191.56757)" gradientUnits="userSpaceOnUse" xlink:href="#linearGradient3977"/><linearGradient id="linearGradient3977"><stop id="stop3979" offset="0" stop-color="#fff" stop-opacity="1"/><stop id="stop3981" offset="0" stop-color="#fff" stop-opacity=".235"/><stop id="stop3983" offset="1" stop-color="#fff" stop-opacity=".157"/><stop id="stop3985" offset="1" stop-color="#fff" stop-opacity=".392"/></linearGradient><linearGradient id="linearGradient3600"><stop id="stop3602" offset="0" stop-color="#f4f4f4" stop-opacity="1"/><stop id="stop3604" offset="1" stop-color="#dbdbdb" stop-opacity="1"/></linearGradient><linearGradient id="linearGradient3806" x1="25.132" x2="25.132" y1=".985" y2="47.013" gradientTransform="matrix(0.28571361,0,0,0.30419701,9.1428727,192.2326)" gradientUnits="userSpaceOnUse" xlink:href="#linearGradient3600"/><linearGradient id="linearGradient3104-9"><stop id="stop3106-5" offset="0" stop-color="#000" stop-opacity=".34"/><stop id="stop3108-5" offset="1" stop-color="#000" stop-opacity=".247"/></linearGradient><linearGradient id="linearGradient3019" x1="-51.786" x2="-51.786" y1="50.786" y2="2.906" gradientTransform="matrix(0.25378586,0,0,0.30501865,27.128979,191.31452)" gradientUnits="userSpaceOnUse" xlink:href="#linearGradient3104-9"/></defs><g id="g153" transform="translate(-8,-192.00001)"><path id="path4160" fill="url(#linearGradient3806)" fill-opacity="1" stroke="none" d="m 11,193 c 2.291507,0 9.999988,8.9e-4 9.999988,8.9e-4 L 21,207 H 11 Z" display="inline"/><path id="rect6741-1" fill="none" stroke="url(#linearGradient3988)" stroke-dasharray="none" stroke-dashoffset="0" stroke-linecap="round" stroke-linejoin="miter" stroke-miterlimit="4" stroke-opacity="1" stroke-width="1" d="m 20.5,206.5 h -9 v -13 h 9 z"/><path id="path4160-8" fill="none" stroke="url(#linearGradient3019)" stroke-dasharray="none" stroke-dashoffset="0" stroke-linecap="butt" stroke-linejoin="round" stroke-miterlimit="4" stroke-opacity="1" stroke-width="1" d="m 10.499962,192.49997 c 2.520676,0 11.000063,9.6e-4 11.000063,9.6e-4 l 1.3e-5,14.9991 H 10.499962 Z" display="inline"/><path id="path26667-3" fill="#3689e6" fill-opacity="1" fill-rule="nonzero" stroke="none" stroke-width="1" d="m 12,201 4,5 4,-5.00043 L 18,201 v -1.50043 c 0,0.5 -0.704505,0.50043 -0.704505,0.50043 0,0 -0.720971,0 -0.720971,-0.5 0,-0.5 -0.588388,-0.5 -0.588388,-0.5 0,0 -0.588389,0 -0.588389,0.5 0,0.5 -0.588388,0.5 -0.588388,0.5 0,0 -0.809359,0 -0.809359,-0.50043 V 201 Z" color="#bebebe" display="inline" enable-background="accumulate" overflow="visible" visibility="visible" style="marker:none"/><path id="path10362-6" fill="#3689e6" fill-opacity="1" fill-rule="nonzero" stroke="none" stroke-width="1" d="m 15.986136,194 c 0,0 -0.588389,0 -0.588389,0.5 0,0.5 -0.588388,0.5 -0.588388,0.5 0,0 -0.809359,4.2e-4 -0.809359,-0.5 v 7 l 4,-4.3e-4 v -7 c 0,0.5 -0.704505,0.50043 -0.704505,0.50043 0,0 -0.720971,0 -0.720971,-0.5 0,-0.5 -0.588388,-0.5 -0.588388,-0.5 z" color="#bebebe" display="inline" enable-background="accumulate" opacity=".2" overflow="visible" visibility="visible" style="marker:none"/><path id="path10323-1" fill="#3689e6" fill-opacity="1" fill-rule="nonzero" stroke="none" stroke-width="1" d="m 14.809359,197 c 0,0 -0.809359,-4.3e-4 -0.809359,0.5 v 3 l 4,-4.3e-4 v -3 C 18,196.99957 17.295495,197 17.295495,197 c 0,0 -0.720971,0 -0.720971,0.5 0,0.5 -0.588388,0.5 -0.588388,0.5 0,0 -0.588389,0 -0.588389,-0.5 0,-0.5 -0.588388,-0.5 -0.588388,-0.5 z" color="#bebebe" display="inline" enable-background="accumulate" opacity=".5" overflow="visible" visibility="visible" style="marker:none"/></g></svg>