<svg xmlns="http://www.w3.org/2000/svg" xmlns:svg="http://www.w3.org/2000/svg" xmlns:xlink="http://www.w3.org/1999/xlink" id="svg3810" width="16" height="16" version="1.1"><defs id="defs3812"><linearGradient id="linearGradient3988" x1="24" x2="24" y1="6.923" y2="41.077" gradientTransform="matrix(0.24324324,0,0,0.35135133,2.1621636,-0.43242804)" gradientUnits="userSpaceOnUse" xlink:href="#linearGradient3977"/><linearGradient id="linearGradient3977"><stop id="stop3979" offset="0" stop-color="#fff" stop-opacity="1"/><stop id="stop3981" offset="0" stop-color="#fff" stop-opacity=".235"/><stop id="stop3983" offset="1" stop-color="#fff" stop-opacity=".157"/><stop id="stop3985" offset="1" stop-color="#fff" stop-opacity=".392"/></linearGradient><linearGradient id="linearGradient3600"><stop id="stop3602" offset="0" stop-color="#f4f4f4" stop-opacity="1"/><stop id="stop3604" offset="1" stop-color="#dbdbdb" stop-opacity="1"/></linearGradient><linearGradient id="linearGradient3806" x1="25.132" x2="25.132" y1=".985" y2="47.013" gradientTransform="matrix(0.28571361,0,0,0.30419701,1.1428727,0.2326048)" gradientUnits="userSpaceOnUse" xlink:href="#linearGradient3600"/><linearGradient id="linearGradient3104-9"><stop id="stop3106-5" offset="0" stop-color="#000" stop-opacity=".34"/><stop id="stop3108-5" offset="1" stop-color="#000" stop-opacity=".247"/></linearGradient><linearGradient id="linearGradient3019" x1="-51.786" x2="-51.786" y1="50.786" y2="2.906" gradientTransform="matrix(0.25378586,0,0,0.30501865,19.128979,-0.68547704)" gradientUnits="userSpaceOnUse" xlink:href="#linearGradient3104-9"/><radialGradient id="radialGradient3441" cx="5.649" cy="9.957" r="12.672" fx="5.119" fy="9.957" gradientTransform="matrix(-5.1086766e-8,2.3603657,-2.5570421,-7.085182e-8,32.987014,-21.789244)" gradientUnits="userSpaceOnUse" xlink:href="#linearGradient2867-449-88-871-390-598-476-591-434-148-57-177-8-3"/><linearGradient id="linearGradient2867-449-88-871-390-598-476-591-434-148-57-177-8-3"><stop id="stop3750-1-0" offset="0" stop-color="#90dbec" stop-opacity="1"/><stop id="stop3752-3-7" offset=".262" stop-color="#55c1ec" stop-opacity="1"/><stop id="stop3754-1-8" offset=".705" stop-color="#3689e6" stop-opacity="1"/><stop id="stop3756-1-6" offset="1" stop-color="#2b63a0" stop-opacity="1"/></linearGradient></defs><metadata id="metadata3815"/><path id="path4160" fill="url(#linearGradient3806)" fill-opacity="1" stroke="none" d="m 3,1 c 2.2915074,0 9.999988,8.904e-4 9.999988,8.904e-4 L 13,15 C 13,15 6.3333332,15 3,15 3,10.333334 3,5.6666664 3,1 Z" display="inline"/><path id="rect6741-1" fill="none" stroke="url(#linearGradient3988)" stroke-dasharray="none" stroke-dashoffset="0" stroke-linecap="round" stroke-linejoin="miter" stroke-miterlimit="4" stroke-opacity="1" stroke-width="1" d="m 12.5,14.5 -9.0000001,0 0,-13 L 12.5,1.5 Z"/><path id="path4160-8" fill="none" stroke="url(#linearGradient3019)" stroke-dasharray="none" stroke-dashoffset="0" stroke-linecap="butt" stroke-linejoin="round" stroke-miterlimit="4" stroke-opacity="1" stroke-width="1" d="m 2.4999621,0.49997396 c 2.5206756,0 11.0000629,9.54e-4 11.0000629,9.54e-4 l 1.3e-5,14.99909804 c 0,0 -7.3333841,0 -11.000076,0 0,-5.000017 0,-10.000035 0,-15.00005204 z" display="inline"/><path id="path3439" fill="url(#radialGradient3441)" fill-opacity="1" fill-rule="nonzero" stroke="none" stroke-dasharray="none" stroke-dashoffset="0" stroke-linecap="butt" stroke-linejoin="miter" stroke-miterlimit="4" stroke-opacity="1" stroke-width="1" d="M 8,4 4,5.066406 v 5.867187 L 8,12 Z m 1,1.066406 v 0.8190104 h 2.166667 V 6.1575519 H 9 v 0.5455728 h 2.166667 V 6.9752601 H 9 v 0.5455733 h 2.166667 V 7.7942707 H 9 v 0.5442705 h 2.166667 v 0.273438 H 9 v 0.545573 h 2.166667 v 0.272135 H 9 v 0.545573 h 2.166667 V 10.247395 H 9 v 0.819011 h 3 v -6 z M 6.8541667,6.6419267 h 0.2265627 c 0.2090786,0 0.2216873,0.015327 0.1979166,0.1328127 C 7.264493,6.8446864 7.146458,7.4658301 7.0156254,8.1575522 L 6.779948,9.4166662 H 6.5364584 c -0.1323202,0 -0.2396518,-0.0092 -0.2421876,-0.01693 C 6.2917042,9.3919662 6.2155887,8.9804902 6.125,8.4830732 6.0344125,7.9856527 5.9482764,7.6109194 5.9335938,7.6575521 5.9189091,7.7041854 5.8428205,8.1141874 5.765625,8.5585932 L 5.625,9.3671872 5.404948,9.3489582 5.1770833,9.3333332 4.9934896,8.2239582 C 4.8909196,7.6177307 4.7938118,7.0562174 4.7799479,6.9739581 c -0.022937,-0.1360954 -0.008,-0.1530934 0.1536458,-0.1744794 0.2252215,-0.029793 0.2343784,-0.00313 0.3671876,0.9752607 0.056735,0.4180028 0.1042825,0.7660178 0.1119791,0.7747398 0.00769,0.0087 0.086556,-0.387655 0.1744792,-0.8750005 0.087924,-0.4873453 0.1874598,-0.9000813 0.2213542,-0.9244786 0.09755,-0.070217 0.3716194,-0.05306 0.3971354,0.02474 0.012743,0.03886 0.091966,0.4594926 0.1692708,0.933594 0.1293352,0.7932021 0.2209624,1.0813191 0.2213542,0.6992191 1.51e-4,-0.152607 0.1032612,-0.8807385 0.2057292,-1.4661465 z" clip-rule="nonzero" color="#000" color-interpolation="sRGB" color-interpolation-filters="linearRGB" color-rendering="auto" display="inline" enable-background="accumulate" image-rendering="auto" opacity="1" overflow="visible" shape-rendering="auto" text-rendering="auto" visibility="visible" style="isolation:auto;mix-blend-mode:normal;solid-color:#000;solid-opacity:1;marker:none"/></svg>