<svg xmlns="http://www.w3.org/2000/svg" xmlns:svg="http://www.w3.org/2000/svg" xmlns:xlink="http://www.w3.org/1999/xlink" id="svg3810" width="16" height="16" version="1.1"><defs id="defs3812"><linearGradient id="linearGradient3988" x1="24" x2="24" y1="6.923" y2="41.077" gradientTransform="matrix(0.24324324,0,0,0.35135133,2.1621636,-0.43242804)" gradientUnits="userSpaceOnUse" xlink:href="#linearGradient3977"/><linearGradient id="linearGradient3977"><stop id="stop3979" offset="0" stop-color="#fff" stop-opacity="1"/><stop id="stop3981" offset="0" stop-color="#fff" stop-opacity=".235"/><stop id="stop3983" offset="1" stop-color="#fff" stop-opacity=".157"/><stop id="stop3985" offset="1" stop-color="#fff" stop-opacity=".392"/></linearGradient><linearGradient id="linearGradient3600"><stop id="stop3602" offset="0" stop-color="#f4f4f4" stop-opacity="1"/><stop id="stop3604" offset="1" stop-color="#dbdbdb" stop-opacity="1"/></linearGradient><linearGradient id="linearGradient3806" x1="25.132" x2="25.132" y1=".985" y2="47.013" gradientTransform="matrix(0.28571361,0,0,0.30419701,1.1428727,0.2326048)" gradientUnits="userSpaceOnUse" xlink:href="#linearGradient3600"/><linearGradient id="linearGradient3104-9"><stop id="stop3106-5" offset="0" stop-color="#000" stop-opacity=".34"/><stop id="stop3108-5" offset="1" stop-color="#000" stop-opacity=".247"/></linearGradient><linearGradient id="linearGradient3019" x1="-51.786" x2="-51.786" y1="50.786" y2="2.906" gradientTransform="matrix(0.25378586,0,0,0.30501865,19.128979,-0.68547704)" gradientUnits="userSpaceOnUse" xlink:href="#linearGradient3104-9"/><radialGradient id="radialGradient3411" cx="8.276" cy="9.994" r="12.672" fx="8.276" fy="9.994" gradientTransform="matrix(0,2.5645243,-2.8983276,0,36.991821,-24.485687)" gradientUnits="userSpaceOnUse" xlink:href="#linearGradient3242-4-8"/><linearGradient id="linearGradient3242-4-8"><stop id="stop3244-7-5" offset="0" stop-color="#f89b7e" stop-opacity="1"/><stop id="stop3246-1-3" offset=".262" stop-color="#e35d4f" stop-opacity="1"/><stop id="stop3248-5-7" offset=".661" stop-color="#c6262e" stop-opacity="1"/><stop id="stop3250-7-0" offset="1" stop-color="#690b2c" stop-opacity="1"/></linearGradient><linearGradient id="linearGradient3132" x1="24" x2="24" y1="6.185" y2="41.815" gradientTransform="matrix(0.24324054,0,0,0.35134798,2.1614594,-0.43236222)" gradientUnits="userSpaceOnUse" xlink:href="#linearGradient3977"/></defs><metadata id="metadata3815"/><path id="path4160" fill="url(#linearGradient3806)" fill-opacity="1" stroke="none" d="m 3,1 c 2.2915074,0 9.999988,8.904e-4 9.999988,8.904e-4 L 13,15 C 13,15 6.3333332,15 3,15 3,10.333334 3,5.6666664 3,1 Z" display="inline"/><path id="rect6741-1" fill="none" stroke="url(#linearGradient3988)" stroke-dasharray="none" stroke-dashoffset="0" stroke-linecap="round" stroke-linejoin="miter" stroke-miterlimit="4" stroke-opacity="1" stroke-width="1" d="m 12.5,14.5 -9.0000001,0 0,-13 L 12.5,1.5 Z"/><path id="path4160-8" fill="none" stroke="url(#linearGradient3019)" stroke-dasharray="none" stroke-dashoffset="0" stroke-linecap="butt" stroke-linejoin="round" stroke-miterlimit="4" stroke-opacity="1" stroke-width="1" d="m 2.4999621,0.49997396 c 2.5206756,0 11.0000629,9.54e-4 11.0000629,9.54e-4 l 1.3e-5,14.99909804 c 0,0 -7.3333841,0 -11.000076,0 0,-5.000017 0,-10.000035 0,-15.00005204 z" display="inline"/><path id="path6711" fill="url(#radialGradient3411)" fill-opacity="1" fill-rule="nonzero" stroke="none" stroke-dasharray="none" stroke-dashoffset="0" stroke-linecap="butt" stroke-linejoin="miter" stroke-miterlimit="4" stroke-opacity="1" stroke-width="1" d="M 9.277174,1.0000001 C 6.353579,3.7854151 4.28485,4.9423591 3,5.4202591 l 0,1.478448 C 3.714076,6.6652361 4.599342,6.2795431 5.52038,5.6390091 7.63942,4.1653251 10.16712,1.3696131 10.16712,1.3696131 9.472334,2.8828601 9.270219,8.0997831 9.256794,15 L 13,15 13,9.6821121 c -0.164185,-0.811487 -0.310692,-1.632538 -0.441576,-2.421336 -0.344776,-2.905015 0.164509,-5.442462 0.353261,-6.260776 -0.04911,-5.04e-6 -2.209655,1.65e-4 -3.634511,0 z M 3,8.6864221 3,10.112069 C 4.631445,10.859778 6.523823,12.787464 7.558424,15 l 1.11413,0 C 8.182243,12.971298 5.004634,9.9112921 3,8.6864221 Z" clip-rule="nonzero" color="#000" color-interpolation="sRGB" color-interpolation-filters="linearRGB" color-rendering="auto" display="inline" enable-background="accumulate" image-rendering="auto" opacity="1" overflow="visible" shape-rendering="auto" text-rendering="auto" visibility="visible" style="isolation:auto;mix-blend-mode:normal;solid-color:#000;solid-opacity:1;marker:none"/><path id="path6713-2" fill="#8c0000" fill-opacity="1" fill-rule="evenodd" stroke="none" stroke-dasharray="none" stroke-dashoffset="0" stroke-linecap="butt" stroke-linejoin="miter" stroke-miterlimit="4" stroke-opacity="1" stroke-width="1" d="M 12.3125,1.03125 C 10.933385,2.1738909 6.4091137,5.6283908 3,5.1875 l 0,3.15625 c 0,0 7.072543,1.4589543 10,-1.1875 l 0,-6.0625 C 12.92583,1.042119 12.839385,1.03125 12.75,1.03125 l -0.4375,0 z m 0.65625,7.5625 c -1.305828,1.793247 -2.608733,4.060196 -3.5,6.40625 l 1.125,0 c 0.690809,-1.542126 1.561646,-3.227005 2.375,-4.40625 l 0,-2 z" clip-rule="nonzero" color="#000" color-interpolation="sRGB" color-interpolation-filters="linearRGB" color-rendering="auto" display="inline" enable-background="accumulate" image-rendering="auto" opacity=".1" overflow="visible" shape-rendering="auto" text-rendering="auto" visibility="visible" style="marker:none;isolation:auto;mix-blend-mode:normal;solid-color:#000;solid-opacity:1;filter-blend-mode:normal;filter-gaussianBlur-deviation:0"/><path id="rect6741-1-8-0" fill="none" stroke="url(#linearGradient3132)" stroke-dasharray="none" stroke-dashoffset="0" stroke-linecap="round" stroke-linejoin="miter" stroke-miterlimit="4" stroke-opacity="1" stroke-width="1" d="m 3.4992804,5.5202017 0,1.401819 m 5.656969,7.5779293 3.3429306,0 0,-5.4478063 m -0.0055,-7.5520934 -3.4382436,0 m -5.556188,7.2148914 0,1.3318833 m 4.038627,4.453125 1.049207,0" opacity=".3"/><path id="path4160-6-1-0" fill="none" stroke="#410000" stroke-dasharray="none" stroke-dashoffset="0" stroke-linecap="butt" stroke-linejoin="round" stroke-miterlimit="4" stroke-opacity="1" stroke-width="1" d="m 2.5,5.315775 0,1.50405 M 9.331371,15.5 13.5,15.5 13.5,9.722472 M 13.15532,0.50050798 9.337904,0.49999998 M 2.5,8.749359 l 0,1.434608 m 5.05633,5.306092 1.149386,0.0099" color="#000" display="inline" enable-background="accumulate" opacity=".2" overflow="visible" visibility="visible" style="marker:none"/></svg>