<svg xmlns="http://www.w3.org/2000/svg" xmlns:svg="http://www.w3.org/2000/svg" xmlns:xlink="http://www.w3.org/1999/xlink" id="svg3783" width="16" height="16" version="1.0"><metadata id="metadata43"/><defs id="defs3785"><radialGradient id="radialGradient2492" cx="-3.927" cy="12.495" r="20" fx="-3.927" fy="12.495" gradientTransform="matrix(4.2510737e-7,2.4425732,-2.867104,0,42.325685,3.8133179)" gradientUnits="userSpaceOnUse" xlink:href="#linearGradient4223"/><linearGradient id="linearGradient4223"><stop id="stop4225" offset="0" stop-color="#cdf87e" stop-opacity="1"/><stop id="stop4227" offset=".262" stop-color="#a2e34f" stop-opacity="1"/><stop id="stop4229" offset=".661" stop-color="#68b723" stop-opacity="1"/><stop id="stop4231" offset="1" stop-color="#1d7e0d" stop-opacity="1"/></linearGradient><linearGradient id="linearGradient3020" x1="106.219" x2="106.219" y1="-3.557" y2="38.482" gradientTransform="matrix(0.19216985,0,0,0.18943039,-13.033619,6.719988)" gradientUnits="userSpaceOnUse" xlink:href="#linearGradient4374"/><linearGradient id="linearGradient4374"><stop id="stop4376" offset="0" stop-color="#fff" stop-opacity="1"/><stop id="stop4378" offset=".034" stop-color="#fff" stop-opacity=".235"/><stop id="stop4380" offset="1" stop-color="#fff" stop-opacity=".157"/><stop id="stop4382" offset="1" stop-color="#fff" stop-opacity=".392"/></linearGradient></defs><path id="rect3558" fill="url(#radialGradient2492)" fill-opacity="1" stroke="none" stroke-dasharray="none" stroke-dashoffset="0" stroke-linecap="round" stroke-linejoin="round" stroke-miterlimit="4" stroke-opacity="1" stroke-width="1" d="m 6.5,0.50000031 c -0.980526,0 -2,0.79578939 -2,1.77631569 0,0.612829 0.527473,1.2043637 1,1.523684 l 0,0.7524572 -4.2105262,0 c -0.43736839,0 -0.78947374,0.3521053 -0.78947374,0.7894737 l 0,3.3365233 C 0.82554001,8.2699485 1.3190131,8.0000002 1.881579,8.0000002 c 0.9805263,0 1.7763158,0.7957895 1.7763158,1.7763158 0,0.980526 -0.7957895,1.776316 -1.7763158,1.776316 -0.5625659,0 -1.05603899,-0.269948 -1.38157894,-0.678454 l 0,3.836348 c 0,0.437369 0.35210535,0.789474 0.78947374,0.789474 L 5,15.5 C 4.591495,15.17446 4.223684,14.680987 4.223684,14.118421 c 0,-0.980526 0.79579,-1.776315 1.776316,-1.776315 0.980527,0 1.776316,0.795789 1.776316,1.776315 C 7.776316,14.680987 7.408506,15.17446 7,15.5 l 3.705263,0 C 11.142631,15.5 11.5,15.147895 11.5,14.710526 l 0,-4.223684 0.755757,0 c 0.31932,0.472528 0.215751,1.054122 1.744243,1.054122 0.980527,0 1.5,-0.855619 1.5,-2.0409641 0,-1.1853455 -0.519473,-1.9891565 -1.5,-1.9891565 -1.528492,0 -1.424923,0.5297868 -1.744243,1.0023144 l -0.755757,0 0,-3.1712269 C 11.5,4.9045625 11.142631,4.5524572 10.705263,4.5524572 L 7.5,4.5524572 7.5,3.8 c 0.472528,-0.3193203 1,-0.910855 1,-1.523684 0,-0.9805263 -1.019473,-1.77631569 -2,-1.77631569 z"/><path id="path4079" fill="none" stroke="url(#linearGradient3020)" stroke-dasharray="none" stroke-dashoffset="0" stroke-linecap="butt" stroke-linejoin="round" stroke-miterlimit="4" stroke-opacity="1" stroke-width="1" d="m 5.5,5.5 h -4 L 1.4928,7.323425 c 0,-0.204114 0.01364,-0.34375 0.02131,-0.34375 2.166192,0 3.162798,1.409649 3.162798,2.88285 0,1.4732 -1.209943,2.673041 -3.137374,2.673041 -0.0077,0 -0.01368,7.3e-5 -0.02131,0 v 1.953869 c 0,0.02446 -0.0033,0.02113 0.02131,0.02113 h 1.669407 c -7.5e-5,-0.0076 0,-0.01353 0,-0.02113 0,-1.959336 1.309379,-3.130221 2.794869,-3.130221 1.485489,0 2.783821,1.104594 2.783821,3.130221 0,0.0076 7.4e-5,0.01356 0,0.02113 l 1.712345,-0.01056 V 9.90374 c -0.008,-0.508907 1.419595,-0.397707 1.992816,-0.397707 0.374143,0 0.682251,1.088492 1.214378,1.088492 0.663801,0 0.766488,-0.395944 0.766488,-1.163824 0,-0.767882 -0.04744,-0.987049 -0.876973,-0.987049 -0.377449,0 -0.530134,1.044295 -1.192581,1.044295 -0.496631,0 -1.906753,0.188538 -1.898802,-0.320366 L 10.494652,5.547775 7.499976,5.500005" color="#000" display="inline" enable-background="accumulate" opacity=".6" overflow="visible" visibility="visible" style="marker:none"/><path id="path932" fill="none" fill-opacity="1" stroke="#0a3600" stroke-dasharray="none" stroke-dashoffset="0" stroke-linecap="round" stroke-linejoin="round" stroke-miterlimit="4" stroke-opacity="1" stroke-width="1" d="m 6.5,0.50000031 c -0.980526,0 -2,0.79578939 -2,1.77631569 0,0.612829 0.527473,1.2043637 1,1.523684 l 0,0.7524572 -4.2105262,0 c -0.43736839,0 -0.78947374,0.3521053 -0.78947374,0.7894737 l 0,3.3365233 C 0.82554001,8.2699485 1.3190131,8.0000002 1.881579,8.0000002 c 0.9805263,0 1.7763158,0.7957895 1.7763158,1.7763158 0,0.980526 -0.7957895,1.776316 -1.7763158,1.776316 -0.5625659,0 -1.05603899,-0.269948 -1.38157894,-0.678454 l 0,3.836348 c 0,0.437369 0.35210535,0.789474 0.78947374,0.789474 L 5,15.5 C 4.591495,15.17446 4.223684,14.680987 4.223684,14.118421 c 0,-0.980526 0.79579,-1.776315 1.776316,-1.776315 0.980527,0 1.776316,0.795789 1.776316,1.776315 C 7.776316,14.680987 7.408506,15.17446 7,15.5 l 3.705263,0 C 11.142631,15.5 11.5,15.147895 11.5,14.710526 l 0,-4.223684 0.755757,0 c 0.31932,0.472528 0.215751,1.054122 1.744243,1.054122 0.980527,0 1.5,-0.855619 1.5,-2.0409641 0,-1.1853455 -0.519473,-1.9891565 -1.5,-1.9891565 -1.528492,0 -1.424923,0.5297868 -1.744243,1.0023144 l -0.755757,0 0,-3.1712269 C 11.5,4.9045625 11.142631,4.5524572 10.705263,4.5524572 L 7.5,4.5524572 7.5,3.8 c 0.472528,-0.3193203 1,-0.910855 1,-1.523684 0,-0.9805263 -1.019473,-1.77631569 -2,-1.77631569 z" opacity=".4"/></svg>