<svg xmlns="http://www.w3.org/2000/svg" xmlns:svg="http://www.w3.org/2000/svg" xmlns:xlink="http://www.w3.org/1999/xlink" id="svg3810" width="16" height="16" version="1.1"><defs id="defs3812"><linearGradient id="linearGradient3988" x1="24" x2="24" y1="6.923" y2="41.077" gradientTransform="matrix(0.24324324,0,0,0.35135133,2.1621636,-0.43242804)" gradientUnits="userSpaceOnUse" xlink:href="#linearGradient3977"/><linearGradient id="linearGradient3977"><stop id="stop3979" offset="0" stop-color="#fff" stop-opacity="1"/><stop id="stop3981" offset="0" stop-color="#fff" stop-opacity=".235"/><stop id="stop3983" offset="1" stop-color="#fff" stop-opacity=".157"/><stop id="stop3985" offset="1" stop-color="#fff" stop-opacity=".392"/></linearGradient><linearGradient id="linearGradient3600"><stop id="stop3602" offset="0" stop-color="#f4f4f4" stop-opacity="1"/><stop id="stop3604" offset="1" stop-color="#dbdbdb" stop-opacity="1"/></linearGradient><linearGradient id="linearGradient3806" x1="25.132" x2="25.132" y1=".985" y2="47.013" gradientTransform="matrix(0.28571361,0,0,0.30419701,1.1428727,0.2326048)" gradientUnits="userSpaceOnUse" xlink:href="#linearGradient3600"/><linearGradient id="linearGradient3104-9"><stop id="stop3106-5" offset="0" stop-color="#000" stop-opacity=".34"/><stop id="stop3108-5" offset="1" stop-color="#000" stop-opacity=".247"/></linearGradient><linearGradient id="linearGradient3019" x1="-51.786" x2="-51.786" y1="50.786" y2="2.906" gradientTransform="matrix(0.25378586,0,0,0.30501865,19.128979,-0.68547704)" gradientUnits="userSpaceOnUse" xlink:href="#linearGradient3104-9"/><linearGradient id="linearGradient1063" x1="-17.375" x2="-17.375" y1="-2.721" y2="39.569" gradientTransform="matrix(0.26398086,0,0,0.26010927,11.766914,1.7076502)" gradientUnits="userSpaceOnUse" xlink:href="#linearGradient1061"/><linearGradient id="linearGradient1061"><stop id="stop1057" offset="0" stop-color="#4d4d4d" stop-opacity="1"/><stop id="stop1059" offset="1" stop-color="#333" stop-opacity="1"/></linearGradient><linearGradient id="linearGradient1071" x1="44" x2="44" y1="0" y2="44.5" gradientTransform="matrix(0.26248216,0,0,0.26248216,-0.25251211,0.70073987)" gradientUnits="userSpaceOnUse" xlink:href="#linearGradient1069"/><linearGradient id="linearGradient1069"><stop id="stop1065" offset="0" stop-color="#ed5353" stop-opacity="1"/><stop id="stop1067" offset="1" stop-color="#c6262e" stop-opacity="1"/></linearGradient></defs><metadata id="metadata3815"/><g id="layer1"><path id="path4160" fill="url(#linearGradient3806)" fill-opacity="1" stroke="none" d="m 3,1 c 2.2915074,0 9.999988,8.904e-4 9.999988,8.904e-4 L 13,15 C 13,15 6.3333332,15 3,15 3,10.333334 3,5.6666664 3,1 z" display="inline"/><path id="rect6741-1" fill="none" stroke="url(#linearGradient3988)" stroke-dasharray="none" stroke-dashoffset="0" stroke-linecap="round" stroke-linejoin="miter" stroke-miterlimit="4" stroke-opacity="1" stroke-width="1" d="m 12.5,14.5 -9.0000001,0 0,-13 L 12.5,1.5 z"/><path id="path4160-8" fill="none" stroke="url(#linearGradient3019)" stroke-dasharray="none" stroke-dashoffset="0" stroke-linecap="butt" stroke-linejoin="round" stroke-miterlimit="4" stroke-opacity="1" stroke-width="1" d="m 2.4999621,0.49997396 c 2.5206756,0 11.0000629,9.54e-4 11.0000629,9.54e-4 l 1.3e-5,14.99909804 c 0,0 -7.3333841,0 -11.000076,0 0,-5.000017 0,-10.000035 0,-15.00005204 z" display="inline"/></g><path font-family="sans-serif" style="line-height:1.25" id="text942" fill="url(#linearGradient1071)" fill-opacity="1" stroke="none" stroke-width="1" d="M 10.387244,6.9490459 C 9.8130635,6.9490456 9.3226184,7.1455654 8.9159078,7.5386052 8.5091969,7.9316449 8.1964742,8.4289255 7.9777392,9.0304472 7.8786248,9.3038662 7.8051434,9.578994 7.757295,9.8558306 7.7094471,10.12925 7.6855231,10.404377 7.6855231,10.681215 c 0,0.273419 0.039303,0.517786 0.1179117,0.733104 0.2187353,0.598103 0.6391168,0.897156 1.2611449,0.897156 0.6220279,0 1.1500673,-0.324685 1.5841203,-0.974056 0.04101,0.311015 0.150381,0.551965 0.328103,0.722852 0.177722,0.167469 0.405002,0.251204 0.681839,0.251204 0.280253,0 0.510951,-0.09912 0.69209,-0.297343 0.102533,-0.116203 0.22728,-0.370825 0.374243,-0.763865 -0.06152,0.03076 -0.138419,0.04614 -0.230698,0.04614 -0.287089,0 -0.430634,-0.119621 -0.430634,-0.358862 0,-0.126457 0.01538,-0.249495 0.04614,-0.369116 l 0.753611,-3.5681173 h -1.512348 l -0.112785,0.5587999 v -0.076898 c 0,-0.1537983 -0.06665,-0.2802546 -0.199937,-0.3793689 -0.133293,-0.102533 -0.35032,-0.1537988 -0.65108,-0.1537988 z m 0.281963,0.6510785 c 0.194811,0 0.321267,0.051266 0.379369,0.1537983 0.06152,0.099114 0.09228,0.18114 0.09228,0.246077 l -0.502407,2.3684913 c -0.06494,0.28709 -0.182849,0.51437 -0.353736,0.681839 -0.170886,0.164051 -0.3605711,0.246077 -0.5690531,0.246077 -0.1127851,0 -0.206773,-0.03759 -0.2819631,-0.112786 -0.129874,-0.123039 -0.1948111,-0.340064 -0.1948111,-0.651079 0,-0.160633 0.00854,-0.312723 0.025633,-0.456268 C 9.3773067,9.1363971 9.6558522,8.4152546 10.100158,7.9128473 10.284716,7.7043656 10.474401,7.6001244 10.66921,7.6001244 Z" font-size="40" font-style="normal" font-weight="normal" letter-spacing="0" word-spacing="0"/><path id="text68" fill="url(#linearGradient1063)" fill-opacity="1" stroke="none" stroke-dasharray="none" stroke-dashoffset="0" stroke-linecap="butt" stroke-linejoin="miter" stroke-miterlimit="4" stroke-opacity="1" stroke-width="1" d="m 5.8222656,5 -2.5195312,7 h 1.6308594 l 0.6775781,-2 h 2.2472768 l 0.7118638,2 H 10.201172 L 7.671875,5 Z M 6.7539062,6.0820312 7.6914062,9 h -1.859375 z" font-family="Open Sans" font-size="9.882" font-stretch="normal" font-style="normal" font-variant="normal" font-weight="bold" letter-spacing="0" opacity="1" vector-effect="none" word-spacing="0" style="line-height:1.25;-inkscape-font-specification:'Open Sans Bold'"/></svg>