<svg xmlns="http://www.w3.org/2000/svg" xmlns:svg="http://www.w3.org/2000/svg" xmlns:xlink="http://www.w3.org/1999/xlink" id="svg3810" width="16" height="16" version="1.1"><defs id="defs3812"><linearGradient id="linearGradient3988" x1="24" x2="24" y1="6.205" y2="41.59" gradientTransform="matrix(0.24324324,0,0,0.35135133,2.1621636,-0.43242804)" gradientUnits="userSpaceOnUse" xlink:href="#linearGradient3977"/><linearGradient id="linearGradient3977"><stop id="stop3979" offset="0" stop-color="#fff" stop-opacity="1"/><stop id="stop3981" offset=".029" stop-color="#fff" stop-opacity=".235"/><stop id="stop3983" offset=".972" stop-color="#fff" stop-opacity=".157"/><stop id="stop3985" offset="1" stop-color="#fff" stop-opacity=".392"/></linearGradient><linearGradient id="linearGradient3600"><stop id="stop3602" offset="0" stop-color="#f4f4f4" stop-opacity="1"/><stop id="stop3604" offset="1" stop-color="#dbdbdb" stop-opacity="1"/></linearGradient><linearGradient id="linearGradient3806" x1="25.132" x2="25.132" y1=".985" y2="47.013" gradientTransform="matrix(0.28571361,0,0,0.30419701,1.1428727,0.2326048)" gradientUnits="userSpaceOnUse" xlink:href="#linearGradient3600"/><linearGradient id="linearGradient3104-9"><stop id="stop3106-5" offset="0" stop-color="#000" stop-opacity=".34"/><stop id="stop3108-5" offset="1" stop-color="#000" stop-opacity=".247"/></linearGradient><linearGradient id="linearGradient3019" x1="-51.786" x2="-51.786" y1="50.786" y2="2.906" gradientTransform="matrix(0.25378586,0,0,0.30501865,19.128979,-0.68547704)" gradientUnits="userSpaceOnUse" xlink:href="#linearGradient3104-9"/><radialGradient id="radialGradient3140" cx="10.904" cy="8.45" r="20" fx="10.904" fy="8.45" gradientTransform="matrix(0,0.44731149,-0.37711817,0,11.188238,0.2914362)" gradientUnits="userSpaceOnUse" xlink:href="#linearGradient2867-449-88-871-390-598-476-591-434-148-57-177-641-289-620-227-114-444-680-744-8-7"/><linearGradient id="linearGradient2867-449-88-871-390-598-476-591-434-148-57-177-641-289-620-227-114-444-680-744-8-7"><stop id="stop5430-8-6" offset="0" stop-color="#5f5f5f" stop-opacity="1"/><stop id="stop5432-3-5" offset=".262" stop-color="#4f4f4f" stop-opacity="1"/><stop id="stop5434-1-6" offset=".705" stop-color="#3b3b3b" stop-opacity="1"/><stop id="stop5436-8-9" offset="1" stop-color="#2b2b2b" stop-opacity="1"/></linearGradient><linearGradient id="linearGradient3143" x1="24" x2="24" y1="44" y2="3.899" gradientTransform="matrix(0.29830664,0,0,0.31813165,0.8422856,1.017944)" gradientUnits="userSpaceOnUse" xlink:href="#linearGradient3707-319-631-407-324-616-674-812-821-107-178-392-400-6-7"/><linearGradient id="linearGradient3707-319-631-407-324-616-674-812-821-107-178-392-400-6-7"><stop id="stop5440-4-4" offset="0" stop-color="#272727" stop-opacity="1"/><stop id="stop5442-3-5" offset="1" stop-color="#454545" stop-opacity="1"/></linearGradient></defs><metadata id="metadata3815"/><g id="layer1"><path id="path4160" fill="url(#linearGradient3806)" fill-opacity="1" stroke="none" d="m 3,1 c 2.2915074,0 9.999988,8.904e-4 9.999988,8.904e-4 L 13,15 C 13,15 6.3333332,15 3,15 3,10.333334 3,5.6666664 3,1 z" display="inline"/><path id="rect6741-1" fill="none" stroke="url(#linearGradient3988)" stroke-dasharray="none" stroke-dashoffset="0" stroke-linecap="round" stroke-linejoin="miter" stroke-miterlimit="4" stroke-opacity="1" stroke-width="1" d="m 12.5,14.5 -9.0000001,0 0,-13 L 12.5,1.5 z"/><path id="path4160-8" fill="none" stroke="url(#linearGradient3019)" stroke-dasharray="none" stroke-dashoffset="0" stroke-linecap="butt" stroke-linejoin="round" stroke-miterlimit="4" stroke-opacity="1" stroke-width="1" d="m 2.4999621,0.49997396 c 2.5206756,0 11.0000629,9.54e-4 11.0000629,9.54e-4 l 1.3e-5,14.99909804 c 0,0 -7.3333841,0 -11.000076,0 0,-5.000017 0,-10.000035 0,-15.00005204 z" display="inline"/></g><path id="rect2382-1" fill="#fff" fill-opacity="1" fill-rule="evenodd" stroke="none" stroke-width="1.002" d="m 7.9710241,6.0000285 c -0.2159651,-0.00127 -0.4055978,0.040109 -0.534671,0.125864 -0.1665228,0.1106434 -0.239943,0.1246866 -0.2864322,0.048409 -0.044482,-0.072976 -0.084931,-0.064823 -0.124119,0.038729 -0.033149,0.087579 -0.1024181,0.1275553 -0.181407,0.096819 -0.075317,-0.029304 -0.1061946,-0.019869 -0.076378,0.02904 0.028639,0.04701 0.014633,0.087139 -0.028639,0.087139 -0.043283,0 -0.1819121,0.1483001 -0.305527,0.3291829 -0.1970531,0.2883413 -0.2291962,0.4201239 -0.2291452,1.0262749 2.75e-5,0.380312 0.037584,0.7506221 -0.076379,0.7745478 -0.066839,0.014035 -0.060473,0.2783707 -0.028639,0.5518663 0.041638,0.357641 0.1038082,0.532847 0.2768824,0.697091 0.269583,0.2558196 0.5155765,0.6986476 0.5155765,0.9391396 0,0.32944 -0.7581257,0.905997 -1.8921808,1.432399 l 0,0.823471 5.9994332,0 5.67e-4,-0.909239 c -0.941596,-0.43428 -1.7208792,-1.035188 -1.7208792,-1.346633 0,-0.239911 0.236715,-0.683577 0.506027,-0.9391393 0.173078,-0.164244 0.2448052,-0.33945 0.2864322,-0.697091 0.03182,-0.2734956 0.03613,-0.530041 -0.02864,-0.5518663 C 9.953646,8.5259654 9.956966,8.1586773 9.956966,7.7814846 9.956965,7.2408094 9.923036,7.0396008 9.785108,6.8133008 9.5106608,6.3629989 8.6189441,6.0039093 7.9710433,6.0000246 z" display="inline" enable-background="accumulate" opacity=".4" overflow="visible" visibility="visible" style="marker:none"/><path id="path3107" fill="url(#radialGradient3140)" fill-opacity="1" fill-rule="nonzero" stroke="url(#linearGradient3143)" stroke-dasharray="none" stroke-dashoffset="0" stroke-linecap="round" stroke-linejoin="round" stroke-miterlimit="4" stroke-opacity="1" stroke-width="1" d="M 7.9736781,5.5134934 C 7.4892365,5.4815558 7.0166035,5.7619615 6.734785,6.1418136 6.4605709,6.6316038 6.6844869,7.2150579 6.5132852,7.7320756 6.4091517,8.1022002 6.5120429,8.4968528 6.7853304,8.7657415 7.0179072,9.0564835 7.3043388,9.4353534 7.1448971,9.8259352 6.9141284,10.265576 6.4543203,10.522958 6.0355545,10.757543 c -0.271372,0.109443 -0.7940598,0.383962 -0.4501728,0.709984 0.1560121,0.101982 0.3382908,-0.01026 0.5123215,0.02257 1.4674209,0 2.9348416,0 4.4022628,0 0,-0.176524 0,-0.353049 0,-0.529573 C 9.9407128,10.65933 9.3090248,10.36914 8.9946323,9.7829776 8.888063,9.3224911 9.2161028,8.9190674 9.5031288,8.5993209 9.7859368,8.2429598 9.6727548,7.773055 9.5740148,7.3747488 9.5322558,6.9340823 9.6760318,6.4136996 9.3445978,6.0525857 8.9862587,5.6922785 8.4683724,5.5454886 7.9736781,5.5134934 z" color="#000" display="inline" enable-background="accumulate" overflow="visible" visibility="visible" style="marker:none"/></svg>