<svg xmlns="http://www.w3.org/2000/svg" xmlns:svg="http://www.w3.org/2000/svg" xmlns:xlink="http://www.w3.org/1999/xlink" id="svg2526" width="16" height="16" version="1.0"><metadata id="metadata58"/><defs id="defs2528"><linearGradient id="linearGradient863"><stop id="stop859" offset="0" stop-color="#fafafa" stop-opacity="1"/><stop id="stop861" offset="1" stop-color="#d4d4d4" stop-opacity="1"/></linearGradient><linearGradient id="linearGradient3462"><stop id="stop3464" offset="0" stop-color="#fff" stop-opacity="1"/><stop id="stop3466" offset="0" stop-color="#fff" stop-opacity=".235"/><stop id="stop3468" offset="1" stop-color="#fff" stop-opacity=".157"/><stop id="stop3470" offset="1" stop-color="#fff" stop-opacity=".392"/></linearGradient><linearGradient id="linearGradient3880"><stop id="stop3883" offset="0" stop-color="#fff" stop-opacity="1"/><stop id="stop3885" offset="1" stop-color="#fff" stop-opacity="0"/></linearGradient><linearGradient id="linearGradient865-3" x1="12.063" x2="12.063" y1="2.464" y2="13.439" gradientTransform="translate(0,2.0298023e-6)" gradientUnits="userSpaceOnUse" xlink:href="#linearGradient863"/><linearGradient id="linearGradient3217-2" x1="40.29" x2="40.29" y1="7.556" y2="40.444" gradientTransform="matrix(0.35135134,0,0,0.24324327,-0.43243397,2.162164)" gradientUnits="userSpaceOnUse" xlink:href="#linearGradient3462"/><linearGradient id="linearGradient3887-0" x1="10" x2="20" y1="-3" y2="12" gradientTransform="matrix(0.35777784,0,0,0.34425124,0.48666581,5.606475)" gradientUnits="userSpaceOnUse" xlink:href="#linearGradient3880"/></defs><rect stroke-miterlimit="4" style="marker:none" id="rect5505-21-3-8-5-2-6" width="15" height="11" x=".5" y="2.5" fill="url(#linearGradient865-3)" fill-opacity="1" fill-rule="nonzero" stroke="none" stroke-dasharray="none" stroke-dashoffset="0" stroke-linecap="butt" stroke-linejoin="miter" stroke-opacity="1" stroke-width=".696" color="#000" display="inline" enable-background="accumulate" opacity="1" overflow="visible" rx="1" ry="1" vector-effect="none" visibility="visible"/><rect id="rect5505-21-3-8-9-1-1-0" width="15" height="11" x=".5" y="2.5" fill="none" fill-opacity="1" stroke="#555761" stroke-dasharray="none" stroke-dashoffset="0" stroke-linecap="round" stroke-linejoin="round" stroke-miterlimit="4" stroke-opacity="1" stroke-width="1" color="#000" display="inline" enable-background="accumulate" opacity=".5" overflow="visible" rx="1" ry="1" vector-effect="none" visibility="visible" style="marker:none"/><path id="path911" fill="#0079be" fill-opacity="1" stroke-width="1" d="M 7.0332031 4 C 4.820518 3.9992063 3 5.6494723 3 8.0351562 C 3 10.217667 4.820518 12.010476 7.0332031 12 L 8.8320312 12 C 11.018526 12.01046 13.013672 10.21719 13.013672 8.0351562 C 13.013672 5.6489803 11.018526 3.9992063 8.8320312 4 L 7.0332031 4 z M 7.0429688 5 C 8.6956711 5.0005188 10.034909 6.3392128 10.035156 7.9921875 C 10.034923 9.6448768 8.6956711 10.983856 7.0429688 10.984375 C 5.3906425 10.983856 4.0511703 9.6448768 4.0507812 7.9921875 C 4.0511703 6.3392128 5.3906554 5.0005188 7.0429688 5 z M 6.3632812 6.2226562 C 5.6519227 6.4963685 5.1480444 7.1844505 5.1464844 7.9921875 C 5.148028 8.8000413 5.6519228 9.4881619 6.3632812 9.7617188 L 6.3632812 6.2226562 z M 7.7207031 6.2226562 L 7.7207031 9.7636719 C 8.4323211 9.4901023 8.9381531 8.8005602 8.9394531 7.9921875 C 8.9381559 7.1840614 8.4323211 6.4957069 7.7207031 6.2226562 z" opacity="1"/><rect id="rect6741-5-0-2-3-8" width="13" height="9" x="1.5" y="3.5" fill="none" stroke="url(#linearGradient3217-2)" stroke-dasharray="none" stroke-dashoffset="0" stroke-linecap="round" stroke-linejoin="round" stroke-miterlimit="4" stroke-opacity="1" stroke-width="1" opacity="1"/><path id="rect3872-7" fill="url(#linearGradient3887-0)" fill-opacity="1" stroke="none" stroke-width=".696" d="M 1.9333336,3.000002 C 1.4162668,3.000002 1,3.394808 1,3.885219 V 9.0000012 L 15,4.579677 V 3.885219 C 15,3.394808 14.583733,3.000002 14.066667,3.000002 Z" display="inline" opacity=".3"/></svg>