<svg xmlns="http://www.w3.org/2000/svg" xmlns:svg="http://www.w3.org/2000/svg" xmlns:xlink="http://www.w3.org/1999/xlink" id="svg2526" width="16" height="16" version="1.0"><metadata id="metadata58"/><defs id="defs2528"><linearGradient id="linearGradient863"><stop id="stop859" offset="0" stop-color="#fafafa" stop-opacity="1"/><stop id="stop861" offset="1" stop-color="#d4d4d4" stop-opacity="1"/></linearGradient><linearGradient id="linearGradient3462"><stop id="stop3464" offset="0" stop-color="#fff" stop-opacity="1"/><stop id="stop3466" offset="0" stop-color="#fff" stop-opacity=".235"/><stop id="stop3468" offset="1" stop-color="#fff" stop-opacity=".157"/><stop id="stop3470" offset="1" stop-color="#fff" stop-opacity=".392"/></linearGradient><linearGradient id="linearGradient3880"><stop id="stop3883" offset="0" stop-color="#fff" stop-opacity="1"/><stop id="stop3885" offset="1" stop-color="#fff" stop-opacity="0"/></linearGradient><linearGradient id="linearGradient865-3" x1="12.063" x2="12.063" y1="2.464" y2="13.439" gradientTransform="translate(0,2.0298023e-6)" gradientUnits="userSpaceOnUse" xlink:href="#linearGradient863"/><linearGradient id="linearGradient3217-2" x1="40.29" x2="40.29" y1="7.556" y2="40.444" gradientTransform="matrix(0.35135134,0,0,0.24324327,-0.43243397,2.162164)" gradientUnits="userSpaceOnUse" xlink:href="#linearGradient3462"/><linearGradient id="linearGradient3887-0" x1="10" x2="20" y1="-3" y2="12" gradientTransform="matrix(0.35777784,0,0,0.34425124,0.48666581,5.606475)" gradientUnits="userSpaceOnUse" xlink:href="#linearGradient3880"/><linearGradient id="SVGID_4_" x1="27.959" x2="68.522" y1="75.171" y2="75.171" gradientTransform="matrix(0.06890312,0,0,0.06192661,1.0783375,3.3452375)" gradientUnits="userSpaceOnUse"><stop id="stop6363" offset="0" stop-color="#1F286F"/><stop id="stop6365" offset=".475" stop-color="#004E94"/><stop id="stop6367" offset=".826" stop-color="#0066B1"/><stop id="stop6369" offset="1" stop-color="#006FBC"/></linearGradient><linearGradient id="SVGID_5_" x1="72.46" x2="111.855" y1="75.171" y2="75.171" gradientTransform="matrix(0.06890312,0,0,0.06181318,1.5916855,3.3482693)" gradientUnits="userSpaceOnUse"><stop id="stop6374" offset="0" stop-color="#6C2C2F"/><stop id="stop6376" offset=".173" stop-color="#882730"/><stop id="stop6378" offset=".573" stop-color="#BE1833"/><stop id="stop6380" offset=".859" stop-color="#DC0436"/><stop id="stop6382" offset="1" stop-color="#E60039"/></linearGradient><linearGradient id="SVGID_1_" x1="117.386" x2="157.33" y1="81.399" y2="81.399" gradientTransform="matrix(0.06890972,0,0,0.06187357,2.1159049,3.3388486)" gradientUnits="userSpaceOnUse"><stop id="stop6330" offset="0" stop-color="#007940"/><stop id="stop6332" offset=".229" stop-color="#00873F"/><stop id="stop6334" offset=".743" stop-color="#40A737"/><stop id="stop6336" offset="1" stop-color="#5CB531"/></linearGradient><linearGradient id="SVGID_2_" x1="117.384" x2="157.332" y1="75.171" y2="75.171" gradientTransform="matrix(0.08241758,0,0,0.08241758,0.37175856,1.7976932)" gradientUnits="userSpaceOnUse"><stop id="stop6341" offset="0" stop-color="#007940"/><stop id="stop6343" offset=".229" stop-color="#00873F"/><stop id="stop6345" offset=".743" stop-color="#40A737"/><stop id="stop6347" offset="1" stop-color="#5CB531"/></linearGradient><linearGradient id="SVGID_3_" x1="117.385" x2="157.331" y1="68.399" y2="68.399" gradientTransform="matrix(0.08241758,0,0,0.08241758,0.37175856,1.7976932)" gradientUnits="userSpaceOnUse"><stop id="stop6352" offset="0" stop-color="#007940"/><stop id="stop6354" offset=".229" stop-color="#00873F"/><stop id="stop6356" offset=".743" stop-color="#40A737"/><stop id="stop6358" offset="1" stop-color="#5CB531"/></linearGradient></defs><rect stroke-miterlimit="4" style="marker:none" id="rect5505-21-3-8-5-2-6" width="15" height="11" x=".5" y="2.5" fill="url(#linearGradient865-3)" fill-opacity="1" fill-rule="nonzero" stroke="none" stroke-dasharray="none" stroke-dashoffset="0" stroke-linecap="butt" stroke-linejoin="miter" stroke-opacity="1" stroke-width=".696" color="#000" display="inline" enable-background="accumulate" opacity="1" overflow="visible" rx="1" ry="1" vector-effect="none" visibility="visible"/><rect id="rect5505-21-3-8-9-1-1-0" width="15" height="11" x=".5" y="2.5" fill="none" fill-opacity="1" stroke="#555761" stroke-dasharray="none" stroke-dashoffset="0" stroke-linecap="round" stroke-linejoin="round" stroke-miterlimit="4" stroke-opacity="1" stroke-width="1" color="#000" display="inline" enable-background="accumulate" opacity=".5" overflow="visible" rx="1" ry="1" vector-effect="none" visibility="visible" style="marker:none"/><style id="style6319" type="text/css">.st4{fill:url(#SVGID_4_)}.st5{fill:url(#SVGID_5_)}</style><path id="path6338" fill="url(#SVGID_1_)" stroke-width="1.822" d="m 11.320666,4.9921921 c -0.612533,0 -1.115351,0.4459785 -1.115351,1.0014655 v 1.0395887 h 1.574228 c 0.03675,0 0.08042,-0.00109 0.111045,0.0044 0.355268,0.0165 0.618914,0.1817481 0.618914,0.4677415 0,0.2254948 -0.178737,0.4175124 -0.509502,0.4560115 v 0.01173 c 0.361392,0.022 0.636876,0.2033772 0.636876,0.4838706 0,0.302493 -0.306091,0.4999996 -0.710361,0.4999996 H 10.200416 V 10.99219 h 1.63465 c 0.61253,0 1.11535,-0.444513 1.11535,-1 V 4.9921921 Z m -0.569924,2.3372416 v 0.4838707 h 0.582988 c 0.01838,0 0.0543,-3.698e-4 0.06043,-0.00587 0.122499,-0.016499 0.226988,-0.1040733 0.226988,-0.2360703 0,-0.1319969 -0.104489,-0.2195705 -0.226988,-0.2360702 -0.01223,0 -0.04205,-0.00587 -0.06043,-0.00587 z m 0,0.7815245 V 8.638817 h 0.643409 c 0.01838,0 0.06164,-0.00587 0.08001,-0.00587 0.122513,-0.022 0.22699,-0.1205675 0.22699,-0.2580643 0,-0.131997 -0.104489,-0.2305651 -0.22699,-0.2580644 -0.01838,-0.0055 -0.05551,-0.00587 -0.08001,-0.00587 z" opacity="1"/><path id="path6371" fill="url(#SVGID_4_)" stroke-width="1.822" d="m 4.120824,4.999999 c -0.6124718,0 -1.1146988,0.4458716 -1.1146988,1.0018349 v 2.4715597 c 0.3123606,0.1376147 0.6369706,0.2256881 0.9615806,0.2256881 0.385858,0 0.594098,-0.2091743 0.594098,-0.4954129 V 7.0366963 h 0.9554564 v 1.161468 c 0,0.4513761 -0.3123606,0.8201837 -1.3719374,0.8201837 C 3.502227,9.018348 3,8.8917422 3,8.8917422 V 10.999999 H 4.6353003 C 5.247773,10.999999 5.75,10.554128 5.75,9.998164 V 4.999999 Z" class="st4" opacity="1"/><path id="path6384" fill="url(#SVGID_5_)" stroke-width="1.822" d="M 7.7149071,5 C 7.1024348,5 6.6002078,5.445055 6.6002078,6 V 7.3076923 C 6.881945,7.0934065 7.371923,6.956044 8.1620118,6.989011 8.5846177,7.0054942 9.0378472,7.10989 9.0378472,7.10989 V 7.532967 C 8.8112324,7.4285713 8.5417444,7.3351648 8.1926353,7.3131868 7.5924128,7.274725 7.231054,7.5384615 7.231054,7.9999999 c 0,0.467033 0.3613588,0.7307693 0.9615813,0.6868132 C 8.5417444,8.6648351 8.8112324,8.565934 9.0378472,8.4670329 v 0.4230769 c 0,0 -0.4471047,0.1043956 -0.8758354,0.1208792 C 7.371923,9.043956 6.881945,8.9065933 6.6002078,8.6923076 V 11 h 1.6353008 c 0.6124723,0 1.1146992,-0.445055 1.1146992,-1 V 5 Z" class="st5" opacity="1"/><rect id="rect6741-5-0-2-3-8" width="13" height="9" x="1.5" y="3.5" fill="none" stroke="url(#linearGradient3217-2)" stroke-dasharray="none" stroke-dashoffset="0" stroke-linecap="round" stroke-linejoin="round" stroke-miterlimit="4" stroke-opacity="1" stroke-width="1" opacity="1"/><path id="rect3872-7" fill="url(#linearGradient3887-0)" fill-opacity="1" stroke="none" stroke-width=".696" d="M 1.9333336,3.000002 C 1.4162668,3.000002 1,3.394808 1,3.885219 V 9.0000012 L 15,4.579677 V 3.885219 C 15,3.394808 14.583733,3.000002 14.066667,3.000002 Z" display="inline" opacity=".3"/></svg>