<svg xmlns="http://www.w3.org/2000/svg" xmlns:svg="http://www.w3.org/2000/svg" xmlns:xlink="http://www.w3.org/1999/xlink" id="svg3810" width="16" height="16" version="1.1"><defs id="defs3812"><linearGradient id="linearGradient3988" x1="24" x2="24" y1="6.923" y2="41.077" gradientTransform="matrix(0.24324324,0,0,0.35135133,2.1621636,-0.43242804)" gradientUnits="userSpaceOnUse" xlink:href="#linearGradient3977"/><linearGradient id="linearGradient3977"><stop id="stop3979" offset="0" stop-color="#fff" stop-opacity="1"/><stop id="stop3981" offset="0" stop-color="#fff" stop-opacity=".235"/><stop id="stop3983" offset="1" stop-color="#fff" stop-opacity=".157"/><stop id="stop3985" offset="1" stop-color="#fff" stop-opacity=".392"/></linearGradient><linearGradient id="linearGradient3600"><stop id="stop3602" offset="0" stop-color="#f4f4f4" stop-opacity="1"/><stop id="stop3604" offset="1" stop-color="#dbdbdb" stop-opacity="1"/></linearGradient><linearGradient id="linearGradient3806" x1="25.132" x2="25.132" y1=".985" y2="47.013" gradientTransform="matrix(0.28571361,0,0,0.30419701,1.1428727,0.2326048)" gradientUnits="userSpaceOnUse" xlink:href="#linearGradient3600"/><linearGradient id="linearGradient3104-9"><stop id="stop3106-5" offset="0" stop-color="#000" stop-opacity=".34"/><stop id="stop3108-5" offset="1" stop-color="#000" stop-opacity=".247"/></linearGradient><linearGradient id="linearGradient3019" x1="-51.786" x2="-51.786" y1="50.786" y2="2.906" gradientTransform="matrix(0.25378586,0,0,0.30501865,19.128979,-0.68547704)" gradientUnits="userSpaceOnUse" xlink:href="#linearGradient3104-9"/></defs><metadata id="metadata3815"/><g id="layer1"><path id="path4160" fill="url(#linearGradient3806)" fill-opacity="1" stroke="none" d="m 3,1 c 2.2915074,0 9.999988,8.904e-4 9.999988,8.904e-4 L 13,15 C 13,15 6.3333332,15 3,15 3,10.333334 3,5.6666664 3,1 z" display="inline"/><path id="rect6741-1" fill="none" stroke="url(#linearGradient3988)" stroke-dasharray="none" stroke-dashoffset="0" stroke-linecap="round" stroke-linejoin="miter" stroke-miterlimit="4" stroke-opacity="1" stroke-width="1" d="m 12.5,14.5 -9.0000001,0 0,-13 L 12.5,1.5 z"/><path id="path4160-8" fill="none" stroke="url(#linearGradient3019)" stroke-dasharray="none" stroke-dashoffset="0" stroke-linecap="butt" stroke-linejoin="round" stroke-miterlimit="4" stroke-opacity="1" stroke-width="1" d="m 2.4999621,0.49997396 c 2.5206756,0 11.0000629,9.54e-4 11.0000629,9.54e-4 l 1.3e-5,14.99909804 c 0,0 -7.3333841,0 -11.000076,0 0,-5.000017 0,-10.000035 0,-15.00005204 z" display="inline"/></g><path font-stretch="normal" style="line-height:100%;-inkscape-font-specification:'URW Palladio L Bold';text-align:start" id="text3482" fill="#7e8087" fill-opacity="1" stroke="none" d="M 5.5888528,7.8725538 C 5.7035865,8.1844526 5.8327279,8.4372703 6.1078116,8.0915769 6.4488541,7.8886647 7.5915623,6.9992394 7.4772203,7.8704521 7.1113259,9.4825761 6.6659512,11.077747 6.3254118,12.694838 5.9693299,13.580268 6.7779231,14.381177 7.6221529,13.805377 8.5195161,13.435448 9.2916937,12.832897 10.08056,12.280147 9.9729248,12.016177 9.9011837,11.636986 9.6037759,11.982199 9.2132643,12.159447 8.3603422,12.995108 8.2018856,12.305875 8.5299124,10.560235 9.1376712,8.8792156 9.5261617,7.1474951 9.8836731,6.3512532 9.299786,5.3451734 8.4257739,6.0038345 7.3786849,6.4598755 6.5030443,7.2048379 5.5888528,7.8725538 Z M 9.4749362,2.0013689 C 8.4065962,1.944669 7.8480314,3.6668675 8.8632681,4.1381374 9.6869222,4.4759262 10.583733,3.6311632 10.382518,2.7870508 10.320075,2.3475149 9.9254537,1.9865841 9.4749371,2.0013689 Z" font-family="URW Palladio L" font-size="40" font-style="normal" font-variant="normal" font-weight="bold" opacity="1" text-anchor="start" writing-mode="lr-tb"/></svg>