<svg xmlns="http://www.w3.org/2000/svg" xmlns:svg="http://www.w3.org/2000/svg" xmlns:xlink="http://www.w3.org/1999/xlink" id="svg3810" width="16" height="16" version="1.1"><defs id="defs3812"><linearGradient id="linearGradient3988" x1="24" x2="24" y1="6.923" y2="41.077" gradientTransform="matrix(0.24324324,0,0,0.35135133,2.1621636,-0.43242804)" gradientUnits="userSpaceOnUse" xlink:href="#linearGradient3977"/><linearGradient id="linearGradient3977"><stop id="stop3979" offset="0" stop-color="#fff" stop-opacity="1"/><stop id="stop3981" offset="0" stop-color="#fff" stop-opacity=".235"/><stop id="stop3983" offset="1" stop-color="#fff" stop-opacity=".157"/><stop id="stop3985" offset="1" stop-color="#fff" stop-opacity=".392"/></linearGradient><linearGradient id="linearGradient3600"><stop id="stop3602" offset="0" stop-color="#f4f4f4" stop-opacity="1"/><stop id="stop3604" offset="1" stop-color="#dbdbdb" stop-opacity="1"/></linearGradient><linearGradient id="linearGradient3806" x1="25.132" x2="25.132" y1=".985" y2="47.013" gradientTransform="matrix(0.28571361,0,0,0.30419701,1.1428727,0.2326048)" gradientUnits="userSpaceOnUse" xlink:href="#linearGradient3600"/><linearGradient id="linearGradient3104-9"><stop id="stop3106-5" offset="0" stop-color="#000" stop-opacity=".34"/><stop id="stop3108-5" offset="1" stop-color="#000" stop-opacity=".247"/></linearGradient><linearGradient id="linearGradient3019" x1="-51.786" x2="-51.786" y1="50.786" y2="2.906" gradientTransform="matrix(0.25378586,0,0,0.30501865,19.128979,-0.68547704)" gradientUnits="userSpaceOnUse" xlink:href="#linearGradient3104-9"/></defs><metadata id="metadata3815"/><g id="layer1"><path id="path4160" fill="url(#linearGradient3806)" fill-opacity="1" stroke="none" d="m 3,1 c 2.2915074,0 9.999988,8.904e-4 9.999988,8.904e-4 L 13,15 C 13,15 6.3333332,15 3,15 3,10.333334 3,5.6666664 3,1 z" display="inline"/><path id="rect6741-1" fill="none" stroke="url(#linearGradient3988)" stroke-dasharray="none" stroke-dashoffset="0" stroke-linecap="round" stroke-linejoin="miter" stroke-miterlimit="4" stroke-opacity="1" stroke-width="1" d="m 12.5,14.5 -9.0000001,0 0,-13 L 12.5,1.5 z"/><path id="path4160-8" fill="none" stroke="url(#linearGradient3019)" stroke-dasharray="none" stroke-dashoffset="0" stroke-linecap="butt" stroke-linejoin="round" stroke-miterlimit="4" stroke-opacity="1" stroke-width="1" d="m 2.4999621,0.49997396 c 2.5206756,0 11.0000629,9.54e-4 11.0000629,9.54e-4 l 1.3e-5,14.99909804 c 0,0 -7.3333841,0 -11.000076,0 0,-5.000017 0,-10.000035 0,-15.00005204 z" display="inline"/></g><path id="path3402" fill="#cd4a9c" fill-opacity="1" fill-rule="nonzero" stroke="none" d="m 6.7505963,10.103478 c 0.091589,0.338816 0.081544,0.654766 -0.013062,0.940898 -0.010506,0.03177 -0.022092,0.06322 -0.034657,0.09429 -0.01257,0.03102 -0.02617,0.0617 -0.040752,0.09198 -0.072973,0.151383 -0.1708829,0.293084 -0.2907889,0.423873 -0.3657883,0.399056 -0.8768493,0.54996 -1.0959936,0.422805 C 5.0387026,11.940166 5.1572358,11.377517 5.58133,10.929245 6.0375804,10.446917 6.6940191,10.136829 6.6940191,10.136829 l -0.00104,-0.0019 c 0.018904,-0.01019 0.038127,-0.02065 0.057575,-0.03139 z M 11.950745,4.4054136 C 11.665657,3.2873027 9.8116903,2.9197419 8.0570245,3.5431192 7.0127909,3.9140804 5.8823251,4.4963359 5.0695032,5.2566408 4.1030539,6.1606018 3.9489315,6.9473798 4.0124591,7.2761397 4.2365256,8.4361725 5.826008,9.1944282 6.4794138,9.7570052 l 0,0.00336 c -0.1926666,0.094847 -1.6028548,0.808501 -1.932866,1.538101 -0.3482163,0.769705 0.055424,1.32205 0.3226605,1.3964 0.8279945,0.230361 1.6776609,-0.183989 2.1342658,-0.865077 0.4406443,-0.657272 0.4039611,-1.506022 0.2124671,-1.9282215 0.2641552,-0.069678 0.5721104,-0.1009063 0.9634713,-0.05519 1.1043614,0.1289956 1.3210501,0.8185667 1.2796165,1.1070887 -0.041401,0.288605 -0.2730438,0.44729 -0.3504884,0.495188 -0.077472,0.04793 -0.1010947,0.0645 -0.094567,0.100122 0.00938,0.05178 0.04523,0.04986 0.1112724,0.03867 C 9.216134,11.572117 9.7051348,11.352712 9.72604,10.820007 9.7526673,10.143668 9.1045289,9.3871087 7.9569014,9.4068744 7.4842688,9.4149797 7.1870691,9.4599781 6.972402,9.5398692 6.9565288,9.5217953 6.9403723,9.5038053 6.9236772,9.4859923 6.2141885,8.7290345 4.9026057,8.1935738 4.9582337,7.1759462 4.9784571,6.8059963 5.1070448,5.8318246 7.4784431,4.6501581 9.4210322,3.6822026 10.976144,3.9485641 11.244899,4.5389137 11.628794,5.3822916 10.413777,6.9498517 8.3963877,7.1759462 7.6277764,7.2621241 7.2230772,6.9642182 7.12241,6.8532852 7.0164163,6.736496 7.0006274,6.731229 6.9610664,6.753135 c -0.064483,0.035703 -0.02363,0.1388221 0,0.2003003 0.060217,0.156749 0.3073993,0.4347279 0.728799,0.5729996 0.3706842,0.1216603 1.2731171,0.1884935 2.3644766,-0.2336393 1.222273,-0.4728222 2.176745,-1.7880434 1.896406,-2.8874317"/></svg>