<svg xmlns="http://www.w3.org/2000/svg" xmlns:svg="http://www.w3.org/2000/svg" xmlns:xlink="http://www.w3.org/1999/xlink" id="svg3810" width="16" height="16" version="1.1"><defs id="defs3812"><linearGradient id="linearGradient3988" x1="24" x2="24" y1="6.923" y2="41.077" gradientTransform="matrix(0.24324324,0,0,0.35135133,2.1621636,-0.43242804)" gradientUnits="userSpaceOnUse" xlink:href="#linearGradient3977"/><linearGradient id="linearGradient3977"><stop id="stop3979" offset="0" stop-color="#fff" stop-opacity="1"/><stop id="stop3981" offset="0" stop-color="#fff" stop-opacity=".235"/><stop id="stop3983" offset="1" stop-color="#fff" stop-opacity=".157"/><stop id="stop3985" offset="1" stop-color="#fff" stop-opacity=".392"/></linearGradient><linearGradient id="linearGradient3600"><stop id="stop3602" offset="0" stop-color="#f4f4f4" stop-opacity="1"/><stop id="stop3604" offset="1" stop-color="#dbdbdb" stop-opacity="1"/></linearGradient><linearGradient id="linearGradient3806" x1="25.132" x2="25.132" y1=".985" y2="47.013" gradientTransform="matrix(0.28571361,0,0,0.30419701,1.1428727,0.2326048)" gradientUnits="userSpaceOnUse" xlink:href="#linearGradient3600"/><linearGradient id="linearGradient3104-9"><stop id="stop3106-5" offset="0" stop-color="#000" stop-opacity=".34"/><stop id="stop3108-5" offset="1" stop-color="#000" stop-opacity=".247"/></linearGradient><linearGradient id="linearGradient3019" x1="-51.786" x2="-51.786" y1="50.786" y2="2.906" gradientTransform="matrix(0.25378586,0,0,0.30501865,19.128979,-0.68547704)" gradientUnits="userSpaceOnUse" xlink:href="#linearGradient3104-9"/><linearGradient id="linearGradient917" x1="29.944" x2="29.944" y1=".575" y2="34.109" gradientTransform="matrix(0.25,0,0,0.25,0,0.4999998)" gradientUnits="userSpaceOnUse" xlink:href="#linearGradient890"/><linearGradient id="linearGradient890"><stop id="stop886" offset="0" stop-color="#64baff" stop-opacity="1"/><stop id="stop888" offset="1" stop-color="#3689e6" stop-opacity="1"/></linearGradient><linearGradient id="linearGradient1108" x1="21.073" x2="21.073" y1="46.197" y2="1.417" gradientTransform="matrix(0.25,0,0,0.25,0,0.4999998)" gradientUnits="userSpaceOnUse" xlink:href="#linearGradient1106"/><linearGradient id="linearGradient1106"><stop id="stop1102" offset="0" stop-color="#abacae" stop-opacity="1"/><stop id="stop1104" offset="1" stop-color="#d4d4d4" stop-opacity="1"/></linearGradient></defs><metadata id="metadata3815"/><g id="layer1"><path id="path4160" fill="url(#linearGradient3806)" fill-opacity="1" stroke="none" d="m 3,1 c 2.2915074,0 9.999988,8.904e-4 9.999988,8.904e-4 L 13,15 C 13,15 6.3333332,15 3,15 3,10.333334 3,5.6666664 3,1 z" display="inline"/><path id="rect6741-1" fill="none" stroke="url(#linearGradient3988)" stroke-dasharray="none" stroke-dashoffset="0" stroke-linecap="round" stroke-linejoin="miter" stroke-miterlimit="4" stroke-opacity="1" stroke-width="1" d="m 12.5,14.5 -9.0000001,0 0,-13 L 12.5,1.5 z"/><path id="path4160-8" fill="none" stroke="url(#linearGradient3019)" stroke-dasharray="none" stroke-dashoffset="0" stroke-linecap="butt" stroke-linejoin="round" stroke-miterlimit="4" stroke-opacity="1" stroke-width="1" d="m 2.4999621,0.49997396 c 2.5206756,0 11.0000629,9.54e-4 11.0000629,9.54e-4 l 1.3e-5,14.99909804 c 0,0 -7.3333841,0 -11.000076,0 0,-5.000017 0,-10.000035 0,-15.00005204 z" display="inline"/></g><path id="rect1016" fill="url(#linearGradient1108)" fill-opacity="1" stroke="none" stroke-dasharray="none" stroke-dashoffset="0" stroke-linecap="butt" stroke-linejoin="round" stroke-miterlimit="4" stroke-opacity="1" stroke-width="1" d="m 4.5,7 h 4 C 8.777,7 9,7.223 9,7.5 v 4 C 9,11.777 8.777,12 8.5,12 h -4 C 4.223,12 4,11.777 4,11.5 v -4 C 4,7.223 4.223,7 4.5,7 Z" opacity="1" vector-effect="none" style="font-variation-settings:normal;marker:none"/><path id="path1033" fill="#555761" fill-opacity="1" stroke="none" stroke-dasharray="none" stroke-dashoffset="0" stroke-linecap="butt" stroke-linejoin="round" stroke-miterlimit="4" stroke-opacity="1" stroke-width="1" d="m 5.9418848,7.741049 a 0.07882672,0.07925188 0 0 0 -0.075984,0.07292 c -0.00112,0.01333 -0.00528,0.05242 -0.01184,0.113101 -0.0118,0.09628 -0.021,0.178544 -0.027632,0.246544 a 0.07882672,0.07925188 0 0 0 0,5e-4 l -0.01184,0.126993 a 0.07882672,0.07925188 0 0 0 0,5e-4 l -0.002,0.01985 c -0.1269664,0.0076 -0.2564584,0.0129 -0.3932424,0.0129 -0.105968,0 -0.2134872,-0.0036 -0.322192,-0.01141 a 0.07882672,0.07925188 0 0 0 -0.083878,0.08582 l 0.025656,0.283748 a 0.07882672,0.07925188 0 0 0 0.07352,0.07193 c 0.044864,0.0028 0.1026416,0.0045 0.174664,0.0045 0.156752,0 0.323256,-0.0089 0.4929096,-0.02034 C 5.76613,8.930253 5.755434,9.099505 5.75141,9.24715 5.638454,9.31051 5.5379084,9.370365 5.46573,9.423253 a 0.07882672,0.07925188 0 0 0 -9.6e-4,5e-4 c -0.419072,0.317704 -0.6414232,0.688735 -0.6414232,1.099277 0,0.152167 0.03232,0.278299 0.1090416,0.368576 0.076728,0.09028 0.1939936,0.133441 0.3291,0.133441 0.1861848,0 0.3788112,-0.07635 0.5753072,-0.196938 0.00942,0.0585 0.022064,0.136216 0.026152,0.159237 a 0.07882672,0.07925188 0 0 0 0.1050952,0.06052 L 6.260136,10.938701 a 0.07882672,0.07925188 0 0 0 0.048352,-0.09475 C 6.278296,10.729531 6.259944,10.619705 6.2478,10.512582 6.5667168,10.202023 6.8239568,9.813694 7.0254024,9.356257 c 0.1369792,0.02158 0.255572,0.05886 0.350316,0.117071 a 0.07882672,0.07925188 0 0 0 5e-4,5e-4 c 0.2154312,0.130199 0.3128176,0.301238 0.3128176,0.545174 0,0.236308 -0.105828,0.415667 -0.341928,0.564025 -0.184732,0.116849 -0.4389592,0.195321 -0.763788,0.230174 a 0.07882672,0.07925188 0 0 0 -0.057728,0.122031 l 0.1736776,0.269859 a 0.07882672,0.07925188 0 0 0 0.076968,0.03522 c 0.389024,-0.05549 0.7013848,-0.167001 0.9340112,-0.340299 0.2963568,-0.221018 0.4524504,-0.521359 0.4524504,-0.877041 0,-0.323461 -0.1305584,-0.597373 -0.3809072,-0.798167 a 0.07882672,0.07925188 0 0 0 -9.6e-4,-5e-4 C 7.6225992,9.100858 7.4117992,9.026391 7.166052,8.983718 7.18062,8.93927 7.198988,8.887243 7.205524,8.857221 A 0.07882672,0.07925188 0 0 0 7.146316,8.762969 L 6.8483,8.693521 a 0.07882672,0.07925188 0 0 0 -0.094239,0.05804 c -0.021336,0.08471 -0.040264,0.150402 -0.058712,0.212315 -0.1797256,0.01944 -0.3405984,0.05258 -0.4874816,0.09624 0.00512,-0.121972 0.011792,-0.239755 0.0222,-0.348237 0.413848,-0.04539 0.800928,-0.111387 1.156536,-0.201402 a 0.07882672,0.07925188 0 0 0 0.0592,-0.0858 L 7.4142274,8.144897 A 0.07882672,0.07925188 0 0 0 7.3150534,8.077437 C 6.9675814,8.173147 6.620131,8.238228 6.2729862,8.280328 6.2871222,8.14791 6.3021542,8.011408 6.3223302,7.85024 A 0.07882672,0.07925188 0 0 0 6.2493062,7.76144 L 5.9493174,7.7416 a 0.07882672,0.07925188 0 0 0 -0.00744,-5e-4 z m 0.5758008,1.647924 c -0.091925,0.191969 -0.1978968,0.365649 -0.3167648,0.522851 -0.00488,-0.130014 -0.00977,-0.25665 -0.01036,-0.434056 0.10428,-0.04014 0.2156088,-0.06459 0.3271264,-0.0888 z M 5.7519248,9.735226 c 0.00528,0.234432 0.012816,0.45355 0.027136,0.619584 -0.1733352,0.152688 -0.3294216,0.227692 -0.464292,0.227692 -0.02412,0 -0.026608,-0.0037 -0.028616,-0.0059 -0.002,-0.0022 -0.00888,-0.01379 -0.00888,-0.04564 0,-0.01718 -0.00328,-0.03362 -0.0064,-0.0501 0.002,-0.01278 0.0064,-0.02621 0.0064,-0.03919 l -5e-4,0.0059 C 5.2906448,10.267437 5.3916512,10.074184 5.5940312,9.86817 a 0.07882672,0.07925188 0 0 0 9.6e-4,-9.6e-4 C 5.6503352,9.80859 5.70002,9.77683 5.7518936,9.735257 Z" font-family="Open Sans" font-size="16" font-stretch="normal" font-style="normal" font-variant="normal" font-weight="bold" letter-spacing="0" opacity="1" vector-effect="none" word-spacing="0" style="line-height:1.25;-inkscape-font-specification:'Open Sans Bold';font-variation-settings:normal;marker:none"/><path id="path4" fill="url(#linearGradient917)" fill-opacity="1" stroke="none" stroke-dasharray="none" stroke-dashoffset="0" stroke-linecap="butt" stroke-linejoin="round" stroke-miterlimit="4" stroke-opacity="1" stroke-width="1" d="m 7.5,3.999987 c -0.277,0 -0.5,0.223 -0.5,0.5 v 4 c 0,0.277 0.223,0.5 0.5,0.5 h 4 c 0.277,0 0.5,-0.223 0.5,-0.5 v -4 c 0,-0.277 -0.223,-0.5 -0.5,-0.5 z" color="#000" opacity="1" vector-effect="none" style="font-variation-settings:normal;marker:none"/><path id="path1020" fill="#fff" fill-opacity="1" stroke="none" stroke-dasharray="none" stroke-dashoffset="0" stroke-linecap="butt" stroke-linejoin="round" stroke-miterlimit="4" stroke-opacity="1" stroke-width="1" d="M 9.2343752,5 8.1166992,8 H 8.631348 L 8.9414064,7.100098 H 10.049805 L 10.36377,8 h 0.520019 L 9.7656248,5 Z M 9.5,5.495117 9.9472656,6.799805 h -0.90332 z" color="#000" opacity="1" vector-effect="none" style="font-variation-settings:normal;marker:none"/></svg>