<svg xmlns="http://www.w3.org/2000/svg" xmlns:svg="http://www.w3.org/2000/svg" xmlns:xlink="http://www.w3.org/1999/xlink" id="svg3810" width="16" height="16" version="1.1"><defs id="defs3812"><linearGradient id="linearGradient875"><stop id="stop871" offset="0" stop-color="#cc3b02" stop-opacity="1"/><stop id="stop873" offset="1" stop-color="#f37329" stop-opacity="1"/></linearGradient><linearGradient id="linearGradient3988" x1="24" x2="24" y1="6.923" y2="41.077" gradientTransform="matrix(0.24324324,0,0,0.35135133,2.1621636,-0.43242804)" gradientUnits="userSpaceOnUse" xlink:href="#linearGradient3977"/><linearGradient id="linearGradient3977"><stop id="stop3979" offset="0" stop-color="#fff" stop-opacity="1"/><stop id="stop3981" offset="0" stop-color="#fff" stop-opacity=".235"/><stop id="stop3983" offset="1" stop-color="#fff" stop-opacity=".157"/><stop id="stop3985" offset="1" stop-color="#fff" stop-opacity=".392"/></linearGradient><linearGradient id="linearGradient3600"><stop id="stop3602" offset="0" stop-color="#f4f4f4" stop-opacity="1"/><stop id="stop3604" offset="1" stop-color="#dbdbdb" stop-opacity="1"/></linearGradient><linearGradient id="linearGradient3806" x1="25.132" x2="25.132" y1=".985" y2="47.013" gradientTransform="matrix(0.28571361,0,0,0.30419701,1.1428727,0.2326048)" gradientUnits="userSpaceOnUse" xlink:href="#linearGradient3600"/><linearGradient id="linearGradient3104-9"><stop id="stop3106-5" offset="0" stop-color="#000" stop-opacity=".34"/><stop id="stop3108-5" offset="1" stop-color="#000" stop-opacity=".247"/></linearGradient><linearGradient id="linearGradient3019" x1="-51.786" x2="-51.786" y1="50.786" y2="2.906" gradientTransform="matrix(0.25378586,0,0,0.30501865,19.128979,-0.68547704)" gradientUnits="userSpaceOnUse" xlink:href="#linearGradient3104-9"/><linearGradient id="linearGradient877" x1="7.596" x2="7.596" y1="14.844" y2="4.988" gradientUnits="userSpaceOnUse" xlink:href="#linearGradient875"/></defs><metadata id="metadata3815"/><g id="layer1"><path id="path4160" fill="url(#linearGradient3806)" fill-opacity="1" stroke="none" d="m 3,1 c 2.2915074,0 9.999988,8.904e-4 9.999988,8.904e-4 L 13,15 C 13,15 6.3333332,15 3,15 3,10.333334 3,5.6666664 3,1 z" display="inline"/><path id="rect6741-1" fill="none" stroke="url(#linearGradient3988)" stroke-dasharray="none" stroke-dashoffset="0" stroke-linecap="round" stroke-linejoin="miter" stroke-miterlimit="4" stroke-opacity="1" stroke-width="1" d="m 12.5,14.5 -9.0000001,0 0,-13 L 12.5,1.5 z"/><path id="path4160-8" fill="none" stroke="url(#linearGradient3019)" stroke-dasharray="none" stroke-dashoffset="0" stroke-linecap="butt" stroke-linejoin="round" stroke-miterlimit="4" stroke-opacity="1" stroke-width="1" d="m 2.4999621,0.49997396 c 2.5206756,0 11.0000629,9.54e-4 11.0000629,9.54e-4 l 1.3e-5,14.99909804 c 0,0 -7.3333841,0 -11.000076,0 0,-5.000017 0,-10.000035 0,-15.00005204 z" display="inline"/></g><path id="path848" fill="url(#linearGradient877)" fill-opacity="1" stroke-width=".655" d="M 8.4042969 5 L 6.6953125 11 L 7.5957031 11 L 9.3046875 5 L 8.4042969 5 z M 6 6 L 4 7.25 L 4 8.75 L 6 10 L 6 9 L 4.5 8.0019531 L 6 7 L 6 6 z M 10 6 L 10 7 L 11.5 8.0019531 L 10 9 L 10 10 L 12 8.75 L 12 7.25 L 10 6 z" color="#bebebe" opacity="1" style="isolation:auto;mix-blend-mode:normal;marker:none"/></svg>