<svg xmlns="http://www.w3.org/2000/svg" xmlns:svg="http://www.w3.org/2000/svg" xmlns:xlink="http://www.w3.org/1999/xlink" id="svg3810" width="16" height="16" version="1.1"><defs id="defs3812"><linearGradient id="linearGradient3988" x1="24" x2="24" y1="6.923" y2="41.077" gradientTransform="matrix(0.24324324,0,0,0.35135133,2.1621636,-0.43242804)" gradientUnits="userSpaceOnUse" xlink:href="#linearGradient3977"/><linearGradient id="linearGradient3977"><stop id="stop3979" offset="0" stop-color="#fff" stop-opacity="1"/><stop id="stop3981" offset="0" stop-color="#fff" stop-opacity=".235"/><stop id="stop3983" offset="1" stop-color="#fff" stop-opacity=".157"/><stop id="stop3985" offset="1" stop-color="#fff" stop-opacity=".392"/></linearGradient><linearGradient id="linearGradient3600"><stop id="stop3602" offset="0" stop-color="#f4f4f4" stop-opacity="1"/><stop id="stop3604" offset="1" stop-color="#dbdbdb" stop-opacity="1"/></linearGradient><linearGradient id="linearGradient3806" x1="25.132" x2="25.132" y1=".985" y2="47.013" gradientTransform="matrix(0.28571361,0,0,0.30419701,1.1428727,0.2326048)" gradientUnits="userSpaceOnUse" xlink:href="#linearGradient3600"/><linearGradient id="linearGradient3104-9"><stop id="stop3106-5" offset="0" stop-color="#000" stop-opacity=".34"/><stop id="stop3108-5" offset="1" stop-color="#000" stop-opacity=".247"/></linearGradient><linearGradient id="linearGradient3019" x1="-51.786" x2="-51.786" y1="50.786" y2="2.906" gradientTransform="matrix(0.25378586,0,0,0.30501865,19.128979,-0.68547704)" gradientUnits="userSpaceOnUse" xlink:href="#linearGradient3104-9"/><linearGradient id="linearGradient3192-0-3" x1="16.79" x2="27.857" y1="-4.424" y2="63.892" gradientTransform="matrix(0.34025771,0.09076733,-0.05512078,0.20481361,1.2325009,-0.0196912)" gradientUnits="userSpaceOnUse" xlink:href="#linearGradient5736"/><linearGradient id="linearGradient5736"><stop id="stop5738" offset="0" stop-color="#64baff" stop-opacity="1"/><stop id="stop5740" offset="1" stop-color="#0d52bf" stop-opacity="1"/></linearGradient></defs><metadata id="metadata3815"/><path id="path4160" fill="url(#linearGradient3806)" fill-opacity="1" stroke="none" d="m 3,1 c 2.2915074,0 9.999988,8.904e-4 9.999988,8.904e-4 L 13,15 C 13,15 6.3333332,15 3,15 3,10.333334 3,5.6666664 3,1 Z" display="inline"/><path id="rect6741-1" fill="none" stroke="url(#linearGradient3988)" stroke-dasharray="none" stroke-dashoffset="0" stroke-linecap="round" stroke-linejoin="miter" stroke-miterlimit="4" stroke-opacity="1" stroke-width="1" d="m 12.5,14.5 -9.0000001,0 0,-13 L 12.5,1.5 Z"/><path id="path4160-8" fill="none" stroke="url(#linearGradient3019)" stroke-dasharray="none" stroke-dashoffset="0" stroke-linecap="butt" stroke-linejoin="round" stroke-miterlimit="4" stroke-opacity="1" stroke-width="1" d="m 2.4999621,0.49997396 c 2.5206756,0 11.0000629,9.54e-4 11.0000629,9.54e-4 l 1.3e-5,14.99909804 c 0,0 -7.3333841,0 -11.000076,0 0,-5.000017 0,-10.000035 0,-15.00005204 z" display="inline"/><path display="inline" style="line-height:125%;-inkscape-font-specification:'Open Sans Semi-Bold';text-align:start;isolation:auto;mix-blend-mode:normal;solid-color:#000;solid-opacity:1;marker:none" id="path3873-9" fill="url(#linearGradient3192-0-3)" fill-opacity="1" fill-rule="nonzero" stroke="none" stroke-dasharray="none" stroke-dashoffset="0" stroke-linecap="butt" stroke-linejoin="miter" stroke-miterlimit="4" stroke-opacity="1" stroke-width="1" d="m 7.0117188,5.001953 c -0.4445433,4.4e-6 -1.4583473,0.06519 -1.6816407,0.2011719 -0.2212475,0.1341521 -0.328125,0.5766115 -0.328125,0.8632812 l 0,0.7519532 c 0,0.1709036 -0.075732,0.2904709 -0.2109375,0.375 C 4.6578569,7.2760563 4.278511,7.5117206 4.0019531,7.5117187 l 0,0.9550781 c 0.5449213,1.3e-6 1,0.3535115 1,0.6953121 l 0,0.705079 c 0,0.3142371 0.1016857,0.7470571 0.3085938,0.8867181 0.2089542,0.141498 1.2279482,0.207262 1.7011719,0.210938 l 0,-0.962891 C 6.7761303,9.9982629 6.2490065,9.9541369 6.1445312,9.8769529 6.0400516,9.7997729 5.9902344,9.6917029 5.9902344,9.5410159 l 0,-0.6210941 c 0,-0.369366 -0.5562674,-0.8518123 -1.0253906,-0.9179688 l 0,-0.039063 C 5.433967,7.8912249 5.9902344,7.449678 5.9902344,7.0839843 l 0,-0.6113282 c 0,-0.1506844 0.049818,-0.2508247 0.1542968,-0.3261718 0.1065245,-0.077177 0.633648,-0.1255737 0.8671876,-0.1347656 z M 9,5.001953 9,6.0117187 c 0.23354,0.00919 0.7606635,0.057589 0.8671875,0.1347656 0.104482,0.075347 0.1542965,0.1754874 0.1542965,0.3261718 l 0,0.6113282 c 0,0.3656937 0.558221,0.8072406 1.027344,0.8789062 l 0,0.039063 c -0.469123,0.066156 -1.027344,0.5486028 -1.027344,0.9179688 l 0,0.6210936 c 0,0.150687 -0.049816,0.258757 -0.1542965,0.335937 C 9.7627125,9.9541409 9.235589,9.9982529 9,10.001953 l 0,0.962891 c 0.473224,-0.0037 1.49417,-0.06944 1.703125,-0.210938 0.206908,-0.139661 0.306641,-0.572481 0.306641,-0.8867181 l 0,-0.705079 c 0,-0.3418006 0.457032,-0.6953108 1.001953,-0.6953121 l 0,-0.9550781 c -0.276558,1.9e-6 -0.657857,-0.2356624 -0.791016,-0.3183594 -0.1352,-0.084529 -0.210937,-0.2040964 -0.210937,-0.375 l 0,-0.7519532 c 0,-0.2866697 -0.104925,-0.7291291 -0.326172,-0.8632812 C 10.4603,5.067143 9.444543,5.0019574 9,5.001953 Z" clip-rule="nonzero" color="#000" color-interpolation="sRGB" color-interpolation-filters="linearRGB" color-rendering="auto" enable-background="accumulate" font-family="Open Sans" font-size="19" font-stretch="normal" font-style="normal" font-variant="normal" font-weight="600" image-rendering="auto" letter-spacing="0" opacity="1" overflow="visible" shape-rendering="auto" text-anchor="start" text-rendering="auto" visibility="visible" word-spacing="0" writing-mode="lr-tb"/></svg>