<svg xmlns="http://www.w3.org/2000/svg" xmlns:svg="http://www.w3.org/2000/svg" xmlns:xlink="http://www.w3.org/1999/xlink" id="svg3810" width="16" height="16" version="1.1"><defs id="defs3812"><linearGradient id="linearGradient880"><stop id="stop876" offset="0" stop-color="#3689e6" stop-opacity="1"/><stop id="stop878" offset="1" stop-color="#0d52bf" stop-opacity="1"/></linearGradient><linearGradient id="linearGradient872"><stop id="stop868" offset="0" stop-color="#f9c440" stop-opacity="1"/><stop id="stop870" offset="1" stop-color="#d48e15" stop-opacity="1"/></linearGradient><linearGradient id="linearGradient3988" x1="24" x2="24" y1="6.923" y2="41.077" gradientTransform="matrix(0.24324324,0,0,0.35135133,2.1621636,-0.43242804)" gradientUnits="userSpaceOnUse" xlink:href="#linearGradient3977"/><linearGradient id="linearGradient3977"><stop id="stop3979" offset="0" stop-color="#fff" stop-opacity="1"/><stop id="stop3981" offset="0" stop-color="#fff" stop-opacity=".235"/><stop id="stop3983" offset="1" stop-color="#fff" stop-opacity=".157"/><stop id="stop3985" offset="1" stop-color="#fff" stop-opacity=".392"/></linearGradient><linearGradient id="linearGradient3600"><stop id="stop3602" offset="0" stop-color="#f4f4f4" stop-opacity="1"/><stop id="stop3604" offset="1" stop-color="#dbdbdb" stop-opacity="1"/></linearGradient><linearGradient id="linearGradient3806" x1="25.132" x2="25.132" y1=".985" y2="47.013" gradientTransform="matrix(0.28571361,0,0,0.30419701,1.1428727,0.2326048)" gradientUnits="userSpaceOnUse" xlink:href="#linearGradient3600"/><linearGradient id="linearGradient3104-9"><stop id="stop3106-5" offset="0" stop-color="#000" stop-opacity=".34"/><stop id="stop3108-5" offset="1" stop-color="#000" stop-opacity=".247"/></linearGradient><linearGradient id="linearGradient3019" x1="-51.786" x2="-51.786" y1="50.786" y2="2.906" gradientTransform="matrix(0.25378586,0,0,0.30501865,19.128979,-0.68547704)" gradientUnits="userSpaceOnUse" xlink:href="#linearGradient3104-9"/><linearGradient id="linearGradient874" x1="8.98" x2="8.98" y1="6" y2="14.969" gradientUnits="userSpaceOnUse" xlink:href="#linearGradient872"/><linearGradient id="linearGradient882" x1="7.393" x2="7.393" y1="4" y2="14.939" gradientUnits="userSpaceOnUse" xlink:href="#linearGradient880"/></defs><metadata id="metadata3815"/><g id="layer1"><path id="path4160" fill="url(#linearGradient3806)" fill-opacity="1" stroke="none" d="m 3,1 c 2.2915074,0 9.999988,8.904e-4 9.999988,8.904e-4 L 13,15 C 13,15 6.3333332,15 3,15 3,10.333334 3,5.6666664 3,1 z" display="inline"/><path id="rect6741-1" fill="none" stroke="url(#linearGradient3988)" stroke-dasharray="none" stroke-dashoffset="0" stroke-linecap="round" stroke-linejoin="miter" stroke-miterlimit="4" stroke-opacity="1" stroke-width="1" d="m 12.5,14.5 -9.0000001,0 0,-13 L 12.5,1.5 z"/><path id="path4160-8" fill="none" stroke="url(#linearGradient3019)" stroke-dasharray="none" stroke-dashoffset="0" stroke-linecap="butt" stroke-linejoin="round" stroke-miterlimit="4" stroke-opacity="1" stroke-width="1" d="m 2.4999621,0.49997396 c 2.5206756,0 11.0000629,9.54e-4 11.0000629,9.54e-4 l 1.3e-5,14.99909804 c 0,0 -7.3333841,0 -11.000076,0 0,-5.000017 0,-10.000035 0,-15.00005204 z" display="inline"/></g><path id="path1948" fill="url(#linearGradient882)" fill-opacity="1" fill-rule="nonzero" stroke="none" stroke-dasharray="none" stroke-dashoffset="0" stroke-linecap="butt" stroke-linejoin="miter" stroke-miterlimit="4" stroke-opacity="1" stroke-width=".329" d="M 7.9523652,4.0000654 C 7.6224915,4.0016052 7.3074694,4.0294062 7.0302823,4.0779201 6.2137239,4.2206034 6.0654688,4.5192517 6.0654685,5.0700102 V 5.7973944 H 7.995096 V 6.0398558 H 6.0654685 5.3412961 c -0.5608034,0 -1.051859,0.3333933 -1.2054548,0.9676214 -0.1771713,0.7269728 -0.1850297,1.1806153 0,1.9396916 0.1371648,0.5650269 0.4647329,0.9676211 1.025536,0.9676214 H 5.8248275 V 9.0428187 c 0,-0.6299479 0.551065,-1.185614 1.2054548,-1.1856143 h 1.9273785 c 0.536514,0 0.9648137,-0.4369226 0.9648137,-0.9698456 V 5.0700102 c 0,-0.5172279 -0.4411589,-0.905767 -0.9648137,-0.9920901 C 8.6261796,4.0233434 8.2822393,3.9985495 7.9523652,4.0000654 Z M 6.9088372,4.585087 c 0.1993173,0 0.3620861,0.1636209 0.3620861,0.3648047 0,0.2004702 -0.1627688,0.3625799 -0.3620861,0.3625799 -0.2000317,0 -0.3620863,-0.1621097 -0.3620863,-0.3625799 0,-0.2011838 0.1620546,-0.3648047 0.3620863,-0.3648047 z" clip-rule="nonzero" color="#000" color-interpolation="sRGB" color-interpolation-filters="linearRGB" color-rendering="auto" display="inline" enable-background="accumulate" image-rendering="auto" opacity="1" overflow="visible" shape-rendering="auto" text-rendering="auto" visibility="visible" style="isolation:auto;mix-blend-mode:normal;solid-color:#000;solid-opacity:1;marker:none"/><path id="path1950-4-1" fill="url(#linearGradient874)" fill-opacity="1" fill-rule="nonzero" stroke="none" stroke-dasharray="none" stroke-dashoffset="0" stroke-linecap="butt" stroke-linejoin="miter" stroke-miterlimit="4" stroke-opacity="1" stroke-width=".329" d="m 10.163116,6.0398554 v 0.847505 c 0,0.6570563 -0.5632116,1.2100812 -1.2054562,1.2100812 H 7.0302826 c -0.5279425,0 -0.9648141,0.4469115 -0.9648144,0.969845 v 1.8173504 c 0,0.517228 0.4547317,0.821454 0.9648144,0.969844 0.6108117,0.177642 1.1965467,0.209746 1.9273772,0 0.4857917,-0.139115 0.9648137,-0.419088 0.9648137,-0.969844 V 10.157251 H 7.995096 V 9.9147916 h 1.9273775 0.9648135 c 0.560805,0 0.769782,-0.3869001 0.964814,-0.9676218 0.201461,-0.5978444 0.19289,-1.172769 0,-1.9396922 C 11.713508,6.4552927 11.448805,6.0398554 10.887287,6.0398554 Z M 9.0791058,10.642175 c 0.2000314,0 0.362086,0.16211 0.362086,0.362581 0,0.201183 -0.1620546,0.364804 -0.362086,0.364804 -0.1993186,0 -0.3620857,-0.163621 -0.3620857,-0.364804 0,-0.200471 0.1627671,-0.362581 0.3620857,-0.362581 z" clip-rule="nonzero" color="#000" color-interpolation="sRGB" color-interpolation-filters="linearRGB" color-rendering="auto" display="inline" enable-background="accumulate" image-rendering="auto" opacity="1" overflow="visible" shape-rendering="auto" text-rendering="auto" visibility="visible" style="isolation:auto;mix-blend-mode:normal;solid-color:#000;solid-opacity:1;marker:none"/></svg>