<svg xmlns="http://www.w3.org/2000/svg" xmlns:svg="http://www.w3.org/2000/svg" xmlns:xlink="http://www.w3.org/1999/xlink" id="svg3810" width="16" height="16" version="1.1"><defs id="defs3812"><linearGradient id="linearGradient3988" x1="24" x2="24" y1="6.923" y2="41.077" gradientTransform="matrix(0.24324324,0,0,0.35135133,2.1621636,-0.43242804)" gradientUnits="userSpaceOnUse" xlink:href="#linearGradient3977"/><linearGradient id="linearGradient3977"><stop id="stop3979" offset="0" stop-color="#fff" stop-opacity="1"/><stop id="stop3981" offset="0" stop-color="#fff" stop-opacity=".235"/><stop id="stop3983" offset="1" stop-color="#fff" stop-opacity=".157"/><stop id="stop3985" offset="1" stop-color="#fff" stop-opacity=".392"/></linearGradient><linearGradient id="linearGradient3600"><stop id="stop3602" offset="0" stop-color="#f4f4f4" stop-opacity="1"/><stop id="stop3604" offset="1" stop-color="#dbdbdb" stop-opacity="1"/></linearGradient><linearGradient id="linearGradient3806" x1="25.132" x2="25.132" y1=".985" y2="47.013" gradientTransform="matrix(0.28571361,0,0,0.30419701,1.1428727,0.2326048)" gradientUnits="userSpaceOnUse" xlink:href="#linearGradient3600"/><linearGradient id="linearGradient3104-9"><stop id="stop3106-5" offset="0" stop-color="#000" stop-opacity=".34"/><stop id="stop3108-5" offset="1" stop-color="#000" stop-opacity=".247"/></linearGradient><linearGradient id="linearGradient3019" x1="-51.786" x2="-51.786" y1="50.786" y2="2.906" gradientTransform="matrix(0.25378586,0,0,0.30501865,19.128979,-0.68547704)" gradientUnits="userSpaceOnUse" xlink:href="#linearGradient3104-9"/></defs><metadata id="metadata3815"/><g id="layer1"><path id="path4160" fill="url(#linearGradient3806)" fill-opacity="1" stroke="none" d="m 3,1 c 2.2915074,0 9.999988,8.904e-4 9.999988,8.904e-4 L 13,15 C 13,15 6.3333332,15 3,15 3,10.333334 3,5.6666664 3,1 z" display="inline"/><path id="rect6741-1" fill="none" stroke="url(#linearGradient3988)" stroke-dasharray="none" stroke-dashoffset="0" stroke-linecap="round" stroke-linejoin="miter" stroke-miterlimit="4" stroke-opacity="1" stroke-width="1" d="m 12.5,14.5 -9.0000001,0 0,-13 L 12.5,1.5 z"/><path id="path4160-8" fill="none" stroke="url(#linearGradient3019)" stroke-dasharray="none" stroke-dashoffset="0" stroke-linecap="butt" stroke-linejoin="round" stroke-miterlimit="4" stroke-opacity="1" stroke-width="1" d="m 2.4999621,0.49997396 c 2.5206756,0 11.0000629,9.54e-4 11.0000629,9.54e-4 l 1.3e-5,14.99909804 c 0,0 -7.3333841,0 -11.000076,0 0,-5.000017 0,-10.000035 0,-15.00005204 z" display="inline"/></g><path id="path9053" fill="#7e8087" fill-opacity="1" stroke="none" d="M 8.4334458,10.400863 C 8.4027917,9.3066593 8.6479358,8.244423 9.681711,7.4920002 10.773645,6.6410583 11.825256,5.5764126 11.714109,4.3214377 11.689861,3.1111277 10.279668,2.1627179 8.7602866,2.0263539 7.0512357,1.7895921 4.9832977,2.3750753 4.4106057,3.7097771 4.1201498,4.358931 4.3895012,5.5235877 5.3642638,5.5235877 c 0.5701424,0 0.8320123,-0.3682965 0.8750336,-0.7052014 C 6.2718428,4.5634734 6.1671906,4.3358381 6.1053898,4.1252783 6.0349705,3.8853587 6.3355935,3.4203697 6.6630211,3.2309147 6.9366224,3.0726024 7.2228805,3.0195172 7.2650761,3.0093763 8.2476595,2.7732362 9.2271529,3.2948378 9.635812,3.9296903 10.044476,4.5645423 9.594662,5.5274908 8.947936,6.4639218 8.301207,7.4003524 7.6071521,8.4639463 7.6099246,9.5936567 c 0,0.4300803 -0.038319,0.5761943 -0.011117,0.7501943 0.021764,0.139022 0.4820849,0.122225 0.834614,0.05699 z m -0.4484197,1.472748 c -0.9395048,-0.05098 -1.5897723,1.014052 -1.025364,1.692644 0.5040432,0.749232 1.9172613,0.564272 2.1594873,-0.284158 0.2518269,-0.65975 -0.3541993,-1.419501 -1.1341233,-1.408486 z" font-family="Standard Symbols L" font-size="72" font-style="normal" font-weight="bold" opacity="1"/></svg>