<svg xmlns="http://www.w3.org/2000/svg" xmlns:svg="http://www.w3.org/2000/svg" xmlns:xlink="http://www.w3.org/1999/xlink" id="svg3810" width="16" height="16" version="1.1"><defs id="defs3812"><linearGradient id="linearGradient3988" x1="24" x2="24" y1="6.923" y2="41.077" gradientTransform="matrix(0.24324324,0,0,0.35135133,2.1621636,-0.43242804)" gradientUnits="userSpaceOnUse" xlink:href="#linearGradient3977"/><linearGradient id="linearGradient3977"><stop id="stop3979" offset="0" stop-color="#fff" stop-opacity="1"/><stop id="stop3981" offset="0" stop-color="#fff" stop-opacity=".235"/><stop id="stop3983" offset="1" stop-color="#fff" stop-opacity=".157"/><stop id="stop3985" offset="1" stop-color="#fff" stop-opacity=".392"/></linearGradient><linearGradient id="linearGradient3600"><stop id="stop3602" offset="0" stop-color="#f4f4f4" stop-opacity="1"/><stop id="stop3604" offset="1" stop-color="#dbdbdb" stop-opacity="1"/></linearGradient><linearGradient id="linearGradient3806" x1="25.132" x2="25.132" y1=".985" y2="47.013" gradientTransform="matrix(0.28571361,0,0,0.30419701,1.1428727,0.2326048)" gradientUnits="userSpaceOnUse" xlink:href="#linearGradient3600"/><linearGradient id="linearGradient3104-9"><stop id="stop3106-5" offset="0" stop-color="#000" stop-opacity=".34"/><stop id="stop3108-5" offset="1" stop-color="#000" stop-opacity=".247"/></linearGradient><linearGradient id="linearGradient3019" x1="-51.786" x2="-51.786" y1="50.786" y2="2.906" gradientTransform="matrix(0.25378586,0,0,0.30501865,19.128979,-0.68547704)" gradientUnits="userSpaceOnUse" xlink:href="#linearGradient3104-9"/><radialGradient id="radialGradient3062" cx="7.806" cy="9.957" r="12.672" fx="7.276" fy="9.957" gradientTransform="matrix(-7.3617649e-8,2.251132,-3.6847783,-6.7572924e-8,47.15124,-20.156075)" gradientUnits="userSpaceOnUse" xlink:href="#linearGradient2867-449-88-871-390-598-476-591-434-148-57-177-8"/><linearGradient id="linearGradient2867-449-88-871-390-598-476-591-434-148-57-177-8"><stop id="stop3750-1" offset="0" stop-color="#90dbec" stop-opacity="1"/><stop id="stop3752-3" offset=".262" stop-color="#55c1ec" stop-opacity="1"/><stop id="stop3754-1" offset=".705" stop-color="#3689e6" stop-opacity="1"/><stop id="stop3756-1" offset="1" stop-color="#2b63a0" stop-opacity="1"/></linearGradient><linearGradient id="linearGradient3052" x1="22.004" x2="22.004" y1="47.813" y2="3.364" gradientTransform="matrix(0.32160807,0,0,0.3333374,1.824853,-0.34907704)" gradientUnits="userSpaceOnUse" xlink:href="#linearGradient3104-5"/><linearGradient id="linearGradient3104-5"><stop id="stop3106-2" offset="0" stop-color="#aaa" stop-opacity="1"/><stop id="stop3108-5-3" offset="1" stop-color="#c8c8c8" stop-opacity="1"/></linearGradient><linearGradient id="linearGradient3052-2" x1="22.004" x2="22.004" y1="47.813" y2="3.364" gradientTransform="matrix(-0.32160807,0,0,0.3333374,16.152323,-0.3490771)" gradientUnits="userSpaceOnUse" xlink:href="#linearGradient3104-5"/><linearGradient id="linearGradient3085" x1="33.877" x2="44.119" y1="19.948" y2="30.191" gradientTransform="matrix(0,0.6,0.6,0,5.8976269,-12.49769)" gradientUnits="userSpaceOnUse" xlink:href="#linearGradient3412"/><linearGradient id="linearGradient3412"><stop id="stop3414" offset="0" stop-color="#fcfcfc" stop-opacity="1"/><stop id="stop3416" offset="1" stop-color="#cbcdd9" stop-opacity="1"/></linearGradient></defs><metadata id="metadata3815"/><path id="path4160" fill="url(#linearGradient3806)" fill-opacity="1" stroke="none" d="m 3,1 c 2.2915074,0 9.999988,8.904e-4 9.999988,8.904e-4 L 13,15 C 13,15 6.3333332,15 3,15 3,10.333334 3,5.6666664 3,1 Z" display="inline"/><path id="rect6741-1" fill="none" stroke="url(#linearGradient3988)" stroke-dasharray="none" stroke-dashoffset="0" stroke-linecap="round" stroke-linejoin="miter" stroke-miterlimit="4" stroke-opacity="1" stroke-width="1" d="M 12.5,14.5 H 3.4999999 V 1.5 H 12.5 Z"/><path id="path4160-8" fill="none" stroke="url(#linearGradient3019)" stroke-dasharray="none" stroke-dashoffset="0" stroke-linecap="butt" stroke-linejoin="round" stroke-miterlimit="4" stroke-opacity="1" stroke-width="1" d="m 5.0000001,0.49997396 8.5000249,9.54e-4 1.3e-5,14.99909804 H 4.9999999" display="inline"/><path id="path4530" fill="url(#radialGradient3062)" fill-opacity="1" fill-rule="nonzero" stroke="none" stroke-width="1" d="m 4.9999997,15.5 c -0.7988458,0 -1.5976936,0 -2.3965433,0 -0.194166,-0.177608 -0.046516,-0.530231 -0.092649,-0.781669 0,-4.710715 0,-9.4214287 0,-14.1321415 L 2.5378874,0.5251887 2.6034564,0.5 v 0 c 0.8314375,0 1.53252,0 2.3639536,0" color="#000" display="inline" enable-background="accumulate" overflow="visible" visibility="visible" style="marker:none"/><path id="rect6741-1-5" fill="none" fill-opacity="1" stroke="url(#linearGradient3988)" stroke-dasharray="none" stroke-dashoffset="0" stroke-linecap="square" stroke-linejoin="miter" stroke-miterlimit="4" stroke-opacity="1" stroke-width="1" d="m 4.5000001,14.5 h -1 v -13 h 1" opacity=".5" vector-effect="none" style="font-variant-east_asian:normal"/><path id="path4160-8-9" fill="none" stroke="#0d52bf" stroke-dasharray="none" stroke-dashoffset="0" stroke-linecap="butt" stroke-linejoin="round" stroke-miterlimit="4" stroke-opacity="1" stroke-width="1" d="M 5.0000065,15.500026 H 2.499962 L 2.4999621,0.49997396 4.9999935,0.5" display="inline" opacity=".5"/><path id="path3475" fill="none" stroke="url(#linearGradient3052-2)" stroke-linecap="butt" stroke-linejoin="miter" stroke-opacity="1" stroke-width="1" d="m 11.977176,3.499995 h -0.753769 z m -0.864322,0 h -0.703517 z m -0.81407,0 H 9.6756667 Z m -0.7236203,0 H 9.3038071 Z m -0.3819095,0 h -0.603015 z m -0.7236186,0 H 6.881696 Z m 3.5075404,0.994817 h -0.994975 z m -1.095477,0 H 9.2535561 Z m -1.728646,0 H 8.3590828 Z m -0.8944722,0 H 7.514862 Z m -0.8442218,0 H 6.781194 Z M 11.977176,5.5 h -0.512563 z m -0.673367,0 h -1.8995 z m 0.673367,1.9947954 h -0.994975 z m -1.095477,0 H 9.2535561 Z m -1.728646,0 H 8.3590828 Z m -0.8944722,0 H 7.514862 Z m -0.8442218,0 H 6.781194 Z M 11.977176,8.5 h -0.753769 z m -0.864322,0 h -0.693467 z m -0.81407,0 H 9.6756667 Z m -0.7236203,0 H 9.3038071 Z m -0.3819095,0 h -0.603015 z m -0.7236186,0 H 6.891747 Z m 3.5075404,1 h -1.17588 z m -1.306533,0 h -0.562815 z m -0.663318,0 H 9.7259177 Z m -0.3919601,0 H 9.102802 Z m -0.6231157,0 H 8.4696356 Z m -0.6231156,0 H 7.534962 Z M 7.424409,9.5 H 6.338983 Z m 4.552767,1.994804 h -0.994975 z m -1.095477,0 H 9.2535561 Z m -1.728646,0 H 8.3590828 Z m -0.8944722,0 H 7.514862 Z m -0.8442218,0 H 6.781194 Z M 11.977176,12.5 h -1.246231 z m -1.356784,0 h -0.391961 z m -0.492464,0 H 9.2334555 Z m -0.9949756,0 H 7.816369 Z m -1.4271354,0 H 6.811344 Z m -0.984925,0 H 6.529937 Z m 5.256284,1 h -1.246231 z m -1.356784,0 h -0.562816 z m -0.6633189,0 H 9.0726516 Z m -0.9849245,0 h -0.954774 z m -1.0653266,0 h -0.38191 z m -0.482413,0 H 7.213354 Z m -0.321607,0 H 6.509836 Z"/><g id="g3082" transform="matrix(-1,0,0,1,31.497627,0.69769011)"><path id="path3410" fill="url(#linearGradient3085)" fill-opacity="1" fill-rule="evenodd" stroke="#83899a" stroke-linecap="butt" stroke-linejoin="miter" stroke-opacity="1" stroke-width="1" d="m 16.997627,5.8023097 9,9.0000003 h -9 z m 2,5.0000003 v 2 h 2 z" opacity=".8"/></g></svg>