<svg xmlns="http://www.w3.org/2000/svg" xmlns:svg="http://www.w3.org/2000/svg" xmlns:xlink="http://www.w3.org/1999/xlink" id="svg3810" width="16" height="16" version="1.1"><defs id="defs3812"><linearGradient id="linearGradient3988" x1="24" x2="24" y1="6.923" y2="41.077" gradientTransform="matrix(0.24324324,0,0,0.35135133,2.1621636,-0.43242804)" gradientUnits="userSpaceOnUse" xlink:href="#linearGradient3977"/><linearGradient id="linearGradient3977"><stop id="stop3979" offset="0" stop-color="#fff" stop-opacity="1"/><stop id="stop3981" offset="0" stop-color="#fff" stop-opacity=".235"/><stop id="stop3983" offset="1" stop-color="#fff" stop-opacity=".157"/><stop id="stop3985" offset="1" stop-color="#fff" stop-opacity=".392"/></linearGradient><linearGradient id="linearGradient3600"><stop id="stop3602" offset="0" stop-color="#f4f4f4" stop-opacity="1"/><stop id="stop3604" offset="1" stop-color="#dbdbdb" stop-opacity="1"/></linearGradient><linearGradient id="linearGradient3806" x1="25.132" x2="25.132" y1=".985" y2="47.013" gradientTransform="matrix(0.28571361,0,0,0.30419701,1.1428727,0.2326048)" gradientUnits="userSpaceOnUse" xlink:href="#linearGradient3600"/><linearGradient id="linearGradient3104-9"><stop id="stop3106-5" offset="0" stop-color="#000" stop-opacity=".34"/><stop id="stop3108-5" offset="1" stop-color="#000" stop-opacity=".247"/></linearGradient><linearGradient id="linearGradient3019" x1="-51.786" x2="-51.786" y1="50.786" y2="2.906" gradientTransform="matrix(0.25378586,0,0,0.30501865,19.128979,-0.68547704)" gradientUnits="userSpaceOnUse" xlink:href="#linearGradient3104-9"/><linearGradient id="linearGradient3064" x1="20.454" x2="14.006" y1="16.387" y2="8.654" gradientTransform="matrix(0.65942749,0,0,0.64652213,-4.0326729,-3.5947163)" gradientUnits="userSpaceOnUse" xlink:href="#linearGradient4102"/><linearGradient id="linearGradient4102"><stop id="stop4104" offset="0" stop-color="#fda852" stop-opacity="1"/><stop id="stop4106" offset="1" stop-color="#fff" stop-opacity="0"/></linearGradient><linearGradient id="linearGradient3116" x1="33.877" x2="44.119" y1="19.948" y2="30.191" gradientTransform="matrix(0,0.6,0.6,0,5.8976269,-12.49769)" gradientUnits="userSpaceOnUse" xlink:href="#linearGradient3412"/><linearGradient id="linearGradient3412"><stop id="stop3414" offset="0" stop-color="#fcfcfc" stop-opacity="1"/><stop id="stop3416" offset="1" stop-color="#cbcdd9" stop-opacity="1"/></linearGradient></defs><metadata id="metadata3815"/><g id="layer1"><path id="path4160" fill="url(#linearGradient3806)" fill-opacity="1" stroke="none" d="m 3,1 c 2.2915074,0 9.999988,8.904e-4 9.999988,8.904e-4 L 13,15 C 13,15 6.3333332,15 3,15 3,10.333334 3,5.6666664 3,1 z" display="inline"/><path id="rect6741-1" fill="none" stroke="url(#linearGradient3988)" stroke-dasharray="none" stroke-dashoffset="0" stroke-linecap="round" stroke-linejoin="miter" stroke-miterlimit="4" stroke-opacity="1" stroke-width="1" d="m 12.5,14.5 -9.0000001,0 0,-13 L 12.5,1.5 z"/><path id="path4160-8" fill="none" stroke="url(#linearGradient3019)" stroke-dasharray="none" stroke-dashoffset="0" stroke-linecap="butt" stroke-linejoin="round" stroke-miterlimit="4" stroke-opacity="1" stroke-width="1" d="m 2.4999621,0.49997396 c 2.5206756,0 11.0000629,9.54e-4 11.0000629,9.54e-4 l 1.3e-5,14.99909804 c 0,0 -7.3333841,0 -11.000076,0 0,-5.000017 0,-10.000035 0,-15.00005204 z" display="inline"/></g><g id="g4258"><path id="path2783" fill="url(#linearGradient3064)" fill-opacity="1" fill-rule="evenodd" stroke="#ea541a" stroke-linecap="butt" stroke-linejoin="miter" stroke-opacity="1" stroke-width="1" d="m 5.0000026,11 c 1.7284353,2.817675 4.9593062,0.424509 3,-2.9999999 -1.8807679,-3.2872389 2.0000004,-5.860683 3.0000004,-2"/><rect id="rect3565-6" width="2" height="2" x="4" y="10" fill="#ea541a" fill-opacity="1" stroke="none"/><rect id="rect3567-9" width="2" height="2" x="10" y="5" fill="#ea541a" fill-opacity="1" stroke="none"/><path id="path3571" fill="none" stroke="#ea541a" stroke-linecap="butt" stroke-linejoin="miter" stroke-opacity="1" stroke-width="1" d="m 5.997024,4.1092653 5.082184,8.8854897"/><path id="path3573" fill="#e6e6e6" fill-opacity="1" stroke="#ea541a" stroke-dasharray="none" stroke-linecap="butt" stroke-miterlimit="4" stroke-opacity="1" stroke-width="1" d="m 6.4999976,3.5 c 3.72e-4,0.552176 -0.447453,1 -1,1 -0.552547,0 -1.000372,-0.447824 -1,-1 -3.72e-4,-0.552176 0.447453,-1 1,-1 0.552547,0 1.000372,0.447824 1,1 l 0,0 z"/><path id="path3575" fill="#e6e6e6" fill-opacity="1" stroke="#ea541a" stroke-dasharray="none" stroke-linecap="butt" stroke-miterlimit="4" stroke-opacity="1" stroke-width="1" d="m 11.500002,12.5 c 3.73e-4,0.552177 -0.447452,1 -1,1 -0.5525461,0 -1.0003711,-0.447823 -0.9999991,-1 -3.72e-4,-0.552175 0.447453,-1 0.9999991,-1 0.552548,0 1.000373,0.447825 1,1 l 0,0 z"/><rect id="rect3569-2" width="2" height="2" x="7" y="7" fill="#ea541a" fill-opacity="1" stroke="none"/></g><g id="g3082" transform="matrix(-1,0,0,1,31.497627,0.69769011)"><path id="path3410" fill="url(#linearGradient3116)" fill-opacity="1" fill-rule="evenodd" stroke="#83899a" stroke-linecap="butt" stroke-linejoin="miter" stroke-opacity="1" stroke-width="1" d="m 16.997627,5.8023097 9,9.0000003 h -9 z m 2,5.0000003 v 2 h 2 z" opacity=".8"/></g></svg>