<svg xmlns="http://www.w3.org/2000/svg" xmlns:svg="http://www.w3.org/2000/svg" xmlns:xlink="http://www.w3.org/1999/xlink" id="svg4505" width="32" height="32" version="1.1"><defs id="defs4507"><linearGradient id="linearGradient4806-9"><stop id="stop4808-49" offset="0" stop-color="#fff" stop-opacity="1"/><stop id="stop4810-05" offset=".424" stop-color="#fff" stop-opacity=".235"/><stop id="stop4812-6" offset=".821" stop-color="#fff" stop-opacity=".157"/><stop id="stop4814-7" offset="1" stop-color="#fff" stop-opacity=".392"/></linearGradient><linearGradient id="linearGradient3820-7-2-2"><stop id="stop3822-2-6-36" offset="0" stop-color="#3d3d3d" stop-opacity="1"/><stop id="stop3864-8-7-6" offset=".5" stop-color="#686868" stop-opacity=".498"/><stop id="stop3824-1-2-4" offset="1" stop-color="#686868" stop-opacity="0"/></linearGradient><linearGradient id="linearGradient3028" x1="71.204" x2="71.204" y1="15.369" y2="40.496" gradientTransform="matrix(1.1022033,0,0,1.1022038,-63.55275,-14.715001)" gradientUnits="userSpaceOnUse" xlink:href="#linearGradient4806-9"/><radialGradient id="radialGradient3043" cx="99.157" cy="186.171" r="62.769" fx="99.157" fy="186.171" gradientTransform="matrix(0.17524541,0,0,0.05575992,-1.37681,18.119145)" gradientUnits="userSpaceOnUse" xlink:href="#linearGradient3820-7-2-2"/><linearGradient id="linearGradient27416-1-2-0-1"><stop id="stop27420-2-0-8-7" offset="0" stop-color="#55c1ec" stop-opacity="1"/><stop id="stop27422-3-5-3-3" offset="1" stop-color="#3689e6" stop-opacity="1"/></linearGradient><linearGradient id="linearGradient3836" x1="30.271" x2="30.271" y1="10.029" y2="55.053" gradientTransform="matrix(0.47931255,0,0,0.87248699,41.615559,-34.624372)" gradientUnits="userSpaceOnUse" xlink:href="#linearGradient27416-1-2-0-1"/></defs><metadata id="metadata4510"/><path id="path3818-0-2" fill="url(#radialGradient3043)" fill-opacity="1" stroke="none" d="m 27.000001,28.499999 a 11,3.4999999 0 1 1 -21.9999996,0 11,3.4999999 0 1 1 21.9999996,0 z"/><path id="path3029" fill="url(#linearGradient3836)" fill-opacity="1" fill-rule="nonzero" stroke="none" stroke-width="1.546" d="M 30.5,16 A 14.5,14.5 0 0 1 1.5000001,16 14.5,14.5 0 1 1 30.5,16 z" color="#000" display="inline" enable-background="accumulate" overflow="visible" visibility="visible" style="marker:none"/><path id="path2555-7-1-7" fill="none" stroke="#003651" stroke-dasharray="none" stroke-dashoffset="0" stroke-linecap="round" stroke-linejoin="round" stroke-miterlimit="4" stroke-opacity="1" stroke-width="1" d="m 16,1.4999996 c -8.0006,0 -14.5,6.499399 -14.5,14.4999994 C 1.5,24.0006 7.9994,30.500003 16,30.5 24.0006,30.5 30.50001,24.0006 30.5,15.999999 30.5,7.9993986 24.0006,1.4999996 16,1.4999996 z" color="#000" display="inline" enable-background="accumulate" opacity=".5" overflow="visible" visibility="visible" style="marker:none"/><path id="path3421" fill="none" stroke="url(#linearGradient3028)" stroke-dasharray="none" stroke-dashoffset="0" stroke-linecap="round" stroke-linejoin="round" stroke-miterlimit="4" stroke-opacity="1" stroke-width="1" d="M 29.5,16 C 29.5,23.455845 23.45583,29.5 16,29.5 8.54417,29.5 2.5,23.455845 2.5,16 2.5,8.5441566 8.54417,2.4999996 16,2.4999996 c 7.45583,0 13.5,6.044157 13.5,13.5000004 z" color="#000" display="inline" enable-background="accumulate" opacity=".5" overflow="visible" visibility="visible" style="marker:none"/><path id="path3840" fill="#000" fill-opacity="1" fill-rule="nonzero" stroke="#000" stroke-dasharray="none" stroke-miterlimit="4" stroke-opacity="1" stroke-width="2" d="m 16,8.6843084 c -3.332651,0 -6.034298,2.5977386 -6.034298,5.8022106 0,3.204472 2.701647,5.80221 6.034298,5.80221 3.332651,0 6.034299,-2.597738 6.034299,-5.80221 0,-3.204472 -2.701648,-5.8022106 -6.034299,-5.8022106 z M 13.787908,21.260599 c -2.716455,0 -5.06611,1.59814 -6.2518825,3.945503 C 9.6532546,27.46441 12.660166,28.876 16,28.876 c 3.339835,0 6.346746,-1.41159 8.463975,-3.669898 -1.185773,-2.347363 -3.535427,-3.945503 -6.251882,-3.945503 l -4.424185,0 z" color="#000" display="inline" enable-background="accumulate" opacity=".07" overflow="visible" visibility="visible" style="marker:none"/><path id="path3070" fill="#000" fill-opacity="1" fill-rule="nonzero" stroke="none" stroke-width="2" d="m 16,8.3711214 c -3.332651,0 -6.034298,2.5977386 -6.034298,5.8022106 0,3.204472 2.701647,5.80221 6.034298,5.80221 3.332651,0 6.034299,-2.597738 6.034299,-5.80221 C 22.034299,10.96886 19.332651,8.3711214 16,8.3711214 z M 13.787908,20.947412 c -2.716455,0 -5.06611,1.59814 -6.2518825,3.945503 2.1172291,2.258308 5.1241405,3.669898 8.4639745,3.669898 3.339835,0 6.346746,-1.41159 8.463975,-3.669898 -1.185773,-2.347363 -3.535427,-3.945503 -6.251882,-3.945503 l -4.424185,0 z" color="#000" display="inline" enable-background="accumulate" opacity=".15" overflow="visible" visibility="visible" style="marker:none"/><path id="rect3049" fill="#fff" fill-opacity="1" fill-rule="nonzero" stroke="none" stroke-width="2" d="m 16,7.3711214 c -3.332651,0 -6.034298,2.5977386 -6.034298,5.8022106 0,3.204472 2.701647,5.80221 6.034298,5.80221 3.332651,0 6.034299,-2.597738 6.034299,-5.80221 C 22.034299,9.96886 19.332651,7.3711214 16,7.3711214 z M 13.787908,19.947412 c -2.716455,0 -5.06611,1.59814 -6.2518825,3.945503 2.1172291,2.258308 5.1241405,3.669898 8.4639745,3.669898 3.339835,0 6.346746,-1.41159 8.463975,-3.669898 -1.185773,-2.347363 -3.535427,-3.945503 -6.251882,-3.945503 l -4.424185,0 z" color="#000" display="inline" enable-background="accumulate" overflow="visible" visibility="visible" style="marker:none"/></svg>