<svg xmlns="http://www.w3.org/2000/svg" xmlns:svg="http://www.w3.org/2000/svg" xmlns:xlink="http://www.w3.org/1999/xlink" id="svg2485" width="32" height="32" version="1.0" viewBox="0 0 32 32"><metadata id="metadata71"/><defs id="defs2487"><linearGradient id="linearGradient5126"><stop id="stop5128" offset="0" stop-color="#fff" stop-opacity="1"/><stop id="stop5130" offset="1" stop-color="#fff" stop-opacity="0"/></linearGradient><linearGradient id="linearGradient5118"><stop id="stop5120" offset="0" stop-color="#9d9d9d" stop-opacity="1"/><stop id="stop5122" offset="1" stop-color="#fff" stop-opacity="1"/></linearGradient><linearGradient id="linearGradient4762"><stop id="stop4764" offset="0" stop-color="#fff" stop-opacity="1"/><stop id="stop4766" offset=".05" stop-color="#fff" stop-opacity=".235"/><stop id="stop4768" offset=".95" stop-color="#fff" stop-opacity=".157"/><stop id="stop4770" offset="1" stop-color="#fff" stop-opacity=".392"/></linearGradient><linearGradient id="linearGradient3254-3-182-8-5"><stop id="stop4663-8-7" offset="0" stop-color="#fff" stop-opacity="1"/><stop id="stop4665-7-6" offset="1" stop-color="#fff" stop-opacity="0"/></linearGradient><linearGradient id="linearGradient4760" x1="30" x2="30" y1="7" y2="43" gradientTransform="matrix(0.51999998,0,0,0.64864864,3.5200001,0.28378406)" gradientUnits="userSpaceOnUse" xlink:href="#linearGradient4762"/><linearGradient id="linearGradient3457-7-6" x1="-20.447" x2="-48.479" y1="-93.092" y2="-93.092" gradientTransform="matrix(0.12740271,0,0,0.15113872,19.319255,17.024284)" gradientUnits="userSpaceOnUse" spreadMethod="reflect" xlink:href="#linearGradient2793-2-0-669-94-2"/><linearGradient id="linearGradient2793-2-0-669-94-2"><stop id="stop4681-3-1" offset="0" stop-color="#b4b4b4" stop-opacity="1"/><stop id="stop4683-67-4" offset="1" stop-color="#fff" stop-opacity="1"/></linearGradient><linearGradient id="linearGradient5066-8" x1="-17.121" x2="-45.762" y1="-93.092" y2="-93.092" gradientTransform="matrix(0.36855189,0,0,0.13359585,25.643284,15.699275)" gradientUnits="userSpaceOnUse" spreadMethod="reflect" xlink:href="#linearGradient5118"/><radialGradient id="radialGradient5132" cx="16.5" cy="7.5" r="3.5" fx="16.5" fy="7.5" gradientTransform="matrix(0.53450479,0,0,0.5901873,2.7689069,0.07629)" gradientUnits="userSpaceOnUse" xlink:href="#linearGradient5126"/><linearGradient id="linearGradient3820-7-2-1-2-6"><stop id="stop3822-2-6-3-3-7" offset="0" stop-color="#3d3d3d" stop-opacity="1"/><stop id="stop3864-8-7-7-9-1" offset=".5" stop-color="#686868" stop-opacity=".498"/><stop id="stop3824-1-2-5-0-3" offset="1" stop-color="#686868" stop-opacity="0"/></linearGradient><radialGradient id="radialGradient5362" cx="99.157" cy="186.171" r="62.769" fx="99.157" fy="186.171" gradientTransform="matrix(0.15931399,0,0,0.03982852,0.20289978,21.085354)" gradientUnits="userSpaceOnUse" xlink:href="#linearGradient3820-7-2-1-2-6"/><linearGradient id="linearGradient5508" x1="13.682" x2="17.773" y1="17.458" y2="35.717" gradientTransform="matrix(0.9777772,0,0,1.3941434,-2.3777703,-20.567459)" gradientUnits="userSpaceOnUse" xlink:href="#linearGradient3254-3-182-8-5"/><linearGradient id="linearGradient5510" x1="25.273" x2="27.318" y1="17.458" y2="35.717" gradientTransform="matrix(0.9777772,0,0,1.4146455,-5.7111039,-21.112568)" gradientUnits="userSpaceOnUse" xlink:href="#linearGradient3254-3-182-8-5"/><linearGradient id="linearGradient3821"><stop id="stop3823" offset="0" stop-color="#000" stop-opacity="1"/><stop id="stop3825" offset="1" stop-color="#000" stop-opacity="0"/></linearGradient><linearGradient id="linearGradient3941" x1="12.029" x2="36.609" y1="25" y2="25" gradientTransform="matrix(0.60000002,0,0,0.66666667,-30.399999,-0.16666603)" gradientUnits="userSpaceOnUse" xlink:href="#linearGradient3821"/><linearGradient id="linearGradient4271"><stop id="stop4273" offset="0" stop-color="#fff" stop-opacity="1"/><stop id="stop4275" offset=".256" stop-color="#fff" stop-opacity=".235"/><stop id="stop4277" offset=".909" stop-color="#fff" stop-opacity=".157"/><stop id="stop4279" offset="1" stop-color="#fff" stop-opacity=".392"/></linearGradient><linearGradient id="linearGradient4393-7" x1="-5.001" x2="46.68" y1="35" y2="35" gradientTransform="matrix(0.55555556,0,0,0.42105263,2.6666661,10.763159)" gradientUnits="userSpaceOnUse" xlink:href="#linearGradient3846-7"/><linearGradient id="linearGradient3846-7"><stop id="stop3848-7" offset="0" stop-color="#fff3cb" stop-opacity="1"/><stop id="stop3850-5" offset=".262" stop-color="#fdde76" stop-opacity="1"/><stop id="stop3852-9" offset=".661" stop-color="#f9c440" stop-opacity="1"/><stop id="stop3854-2" offset="1" stop-color="#e48b20" stop-opacity="1"/></linearGradient><linearGradient id="linearGradient4760-7" x1="30" x2="30" y1="32.586" y2="43" gradientTransform="matrix(0.56521739,0,0,0.49999961,2.4347826,6.7500113)" gradientUnits="userSpaceOnUse" xlink:href="#linearGradient4271"/></defs><rect color="#000" style="marker:none" id="rect3268-4" width="15" height="26" x="-23.5" y="3.5" fill="url(#linearGradient3941)" fill-opacity="1" stroke="none" stroke-width="1" display="block" enable-background="accumulate" opacity=".1" overflow="visible" rx="9" ry="1" transform="scale(-1,1)" visibility="visible"/><path id="path3818-0-5" fill="url(#radialGradient5362)" fill-opacity="1" stroke="none" stroke-width="1" d="m 26,28.50025 a 10,2.5 0 0 1 -19.9999999,0 10,2.5 0 1 1 19.9999999,0 z"/><rect id="rect3268-0-1-7" width="15" height="8" x="8.5" y="21.5" fill="url(#linearGradient4393-7)" fill-opacity="1" fill-rule="nonzero" stroke="none" stroke-width="1" color="#000" display="inline" enable-background="accumulate" overflow="visible" rx="13.5" ry="1.5" visibility="visible" style="marker:none"/><path id="rect3268-0-8" fill="none" stroke="#7d3400" stroke-dasharray="none" stroke-dashoffset="0" stroke-linecap="butt" stroke-linejoin="round" stroke-miterlimit="4" stroke-opacity="1" stroke-width="1" d="m 23.5,22.500002 c 0,-0.554 -3.345,-1 -7.5,-1 -4.155,0 -7.5000002,0.446 -7.5000002,1" color="#000" display="inline" enable-background="accumulate" opacity=".5" overflow="visible" visibility="visible" style="marker:none"/><path id="path4230" fill="none" stroke="url(#linearGradient4760-7)" stroke-dasharray="none" stroke-dashoffset="0" stroke-linecap="butt" stroke-linejoin="miter" stroke-miterlimit="7" stroke-opacity="1" stroke-width="1" d="m 16,22.499999 c -1.938645,0 -3.685271,0.08683 -4.927989,0.218749 -0.621359,0.06596 -1.1270747,0.142293 -1.4307066,0.218751 -0.08027,0.02022 -0.092941,0.02993 -0.1413044,0.04688 v 5.031246 c 0.048364,0.01696 0.061034,0.02665 0.1413044,0.04688 0.3036319,0.07645 0.8093476,0.15279 1.4307066,0.21875 1.242718,0.131907 2.989344,0.218736 4.927989,0.218736 1.938646,0 3.685271,-0.08683 4.927989,-0.218749 0.62136,-0.06596 1.127075,-0.142292 1.430707,-0.21875 0.08027,-0.02022 0.09294,-0.02993 0.141304,-0.04688 V 22.98437 C 22.45164,22.96741 22.43897,22.95771 22.358696,22.93749 22.055064,22.86104 21.549349,22.784698 20.927989,22.718739 19.685271,22.586829 17.938646,22.499999 16,22.499999 Z" color="#000" display="block" enable-background="accumulate" opacity=".5" overflow="visible" visibility="visible" style="marker:none"/><path id="rect3268-0-7-1" fill="none" stroke="#fff" stroke-dasharray="none" stroke-dashoffset="0" stroke-linecap="butt" stroke-linejoin="miter" stroke-miterlimit="7" stroke-opacity="1" stroke-width="1" d="m 23.175384,23.790373 c -0.928851,0.411517 -3.784419,0.709629 -7.181402,0.709629 -3.385603,0 -6.2334128,-0.296118 -7.1720028,-0.705497" color="#000" display="block" enable-background="accumulate" opacity=".4" overflow="visible" visibility="visible" style="marker:none"/><path id="rect3268-0-3" fill="none" stroke="#7d3400" stroke-dasharray="none" stroke-dashoffset="0" stroke-linecap="butt" stroke-linejoin="round" stroke-miterlimit="4" stroke-opacity="1" stroke-width="1" d="m 23.5,22.500002 c 0,0.554 -3.345,1 -7.5,1 -4.155,0 -7.5000002,-0.446 -7.5000002,-1" color="#000" display="inline" enable-background="accumulate" opacity=".15" overflow="visible" visibility="visible" style="marker:none"/><path id="rect3268-0-7-8" fill="none" stroke="#fff" stroke-dasharray="none" stroke-dashoffset="0" stroke-linecap="butt" stroke-linejoin="miter" stroke-miterlimit="7" stroke-opacity="1" stroke-width="1" d="m 23.175384,22.45704 c -0.928851,0.411517 -3.784419,0.709629 -7.181402,0.709629 -3.385603,0 -6.2334128,-0.296118 -7.1720028,-0.705497" color="#000" display="block" enable-background="accumulate" opacity=".2" overflow="visible" visibility="visible" style="marker:none"/><path id="rect3268-6-4" fill="url(#linearGradient5066-8)" fill-opacity="1" fill-rule="nonzero" stroke="none" stroke-width="1" d="M 15.999999,3.5 C 11.844999,3.5 8.5,4.0734287 8.5,4.7857145 V 6.5 c 0,-0.7122858 3.344999,-1.2857145 7.499999,-1.2857145 4.155001,0 7.5,0.5734287 7.5,1.2857145 V 4.7857145 C 23.499999,4.0734287 20.155,3.5 15.999999,3.5 Z" color="#000" display="inline" enable-background="accumulate" overflow="visible" visibility="visible" style="marker:none"/><path id="rect3268-6" fill="none" stroke="#000" stroke-dasharray="none" stroke-dashoffset="0" stroke-linecap="butt" stroke-linejoin="miter" stroke-miterlimit="7" stroke-opacity="1" stroke-width="1" d="m 8.9411767,6.0260193 c 0,-0.5649851 3.1482353,-1.0198286 7.0588233,-1.0198286 3.910589,0 7.058823,0.4548435 7.058823,1.0198286" color="#000" display="block" enable-background="accumulate" opacity=".3" overflow="visible" visibility="visible" style="marker:none"/><path id="rect3268-3-9" fill="url(#linearGradient3457-7-6)" fill-opacity="1" fill-rule="nonzero" stroke="none" stroke-width="1" d="M 18.5,3.5 V 2.3181818 c 0,-0.4546401 -1.115,-0.8181819 -2.5,-0.8181819 -1.385,0 -2.5,0.3635418 -2.5,0.8181819 V 3.5" color="#000" display="inline" enable-background="accumulate" overflow="visible" visibility="visible" style="marker:none"/><path id="rect3268-3" fill="none" stroke="#000" stroke-dasharray="none" stroke-dashoffset="0" stroke-linecap="butt" stroke-linejoin="miter" stroke-miterlimit="7" stroke-opacity="1" stroke-width="1" d="M 18.499999,2.9999999 V 2.1136363 c 0,-0.34098 -1.114999,-0.6136364 -2.5,-0.6136364 -1.385,0 -2.499999,0.2726564 -2.499999,0.6136364 v 0.8863636" color="#000" display="block" enable-background="accumulate" opacity=".3" overflow="visible" visibility="visible" style="marker:none"/><path id="path4752" fill="none" stroke="url(#linearGradient4760)" stroke-dasharray="none" stroke-dashoffset="0" stroke-linecap="butt" stroke-linejoin="miter" stroke-miterlimit="7" stroke-opacity="1" stroke-width="1" d="m 16,4.4999999 c -1.929142,0 -3.667413,0.1119074 -4.907499,0.2837841 -0.620045,0.085943 -1.1206868,0.182088 -1.4300011,0.2837841 -0.085062,0.027963 -0.1108557,0.036885 -0.1625,0.060811 V 27.871622 c 0.051646,0.02393 0.077438,0.03284 0.1625,0.06081 0.3093143,0.101695 0.8099561,0.197845 1.4300011,0.283783 C 12.332587,28.388092 14.070858,28.5 16,28.5 c 1.929142,0 3.667413,-0.111908 4.907499,-0.283784 0.620045,-0.08594 1.120687,-0.182088 1.430001,-0.283783 0.08506,-0.02797 0.110855,-0.03689 0.1625,-0.06081 V 5.1283789 C 22.448355,5.1044535 22.422562,5.0955342 22.3375,5.0675681 22.028186,4.965872 21.527544,4.8697218 20.907499,4.783784 19.667413,4.6119073 17.929142,4.4999999 16,4.4999999 Z" color="#000" display="block" enable-background="accumulate" opacity=".8" overflow="visible" visibility="visible" style="marker:none"/><rect id="rect3268" width="15" height="26" x="8.5" y="3.5" fill="none" stroke="#000" stroke-dasharray="none" stroke-dashoffset="0" stroke-linecap="butt" stroke-linejoin="miter" stroke-miterlimit="7" stroke-opacity="1" stroke-width="1" color="#000" display="block" enable-background="accumulate" opacity=".3" overflow="visible" rx="9.18" ry="1" visibility="visible" style="marker:none"/><path d="m 15,3.4999999 c -2.141789,0.08116 -3.004844,0.2414338 -4,0.4814808 V 29.018518 c 0.995156,0.240047 1.858211,0.40032 4,0.481481 z" style="marker:none" id="path5194" fill="url(#linearGradient5508)" fill-opacity="1" fill-rule="nonzero" stroke="none" stroke-width="1" display="inline" opacity=".3" overflow="visible" visibility="visible"/><path d="M 19,3.4999998 V 29.499999 c 0.757782,-0.08406 1.536192,-0.183863 2,-0.297386 V 3.7973848 C 20.536192,3.6838626 19.757782,3.5840522 19,3.4999998 Z" style="marker:none" id="rect3244" fill="url(#linearGradient5510)" fill-opacity="1" fill-rule="nonzero" stroke="none" stroke-width="1" display="inline" opacity=".1" overflow="visible" visibility="visible"/><path id="path5124" fill="url(#radialGradient5132)" fill-opacity="1" fill-rule="nonzero" stroke="none" stroke-width="1.37" d="m 13.459003,4.502695 a 1.8707668,2.0656556 0 1 1 -3.7415337,0 1.8707669,2.0656556 0 1 1 3.7415337,0 z" color="#000" display="inline" enable-background="accumulate" opacity=".2" overflow="visible" visibility="visible" style="marker:none"/><g id="g5672" stroke-width="1.5" opacity=".4" transform="scale(0.66666667)"><path stroke-opacity="1" style="marker:none;font-variant-east_asian:normal" id="path2911-3" fill="#fff" fill-opacity="1" fill-rule="nonzero" stroke="none" stroke-dasharray="none" stroke-dashoffset="0" stroke-linecap="butt" stroke-linejoin="miter" stroke-miterlimit="4" stroke-width="1.5" d="M 28.769428,16.499999 24,24.000001 h 7.5 L 21,39 24,27 h -7.5 l 4.206427,-10.500001 z" color="#000" display="inline" enable-background="accumulate" opacity="1" overflow="visible" visibility="visible"/><path id="path2911" fill="#000" fill-opacity="1" fill-rule="nonzero" stroke="none" stroke-width="3" d="M 28.769428,14.999999 24,22.5 h 7.5 L 21,37.5 24,25.500001 h -7.5 l 4.206427,-10.500002 z" color="#000" display="inline" enable-background="accumulate" overflow="visible" visibility="visible" style="marker:none"/></g></svg>