<svg xmlns="http://www.w3.org/2000/svg" xmlns:svg="http://www.w3.org/2000/svg" xmlns:xlink="http://www.w3.org/1999/xlink" id="svg2485" width="32" height="32" version="1.0" viewBox="0 0 32 32"><metadata id="metadata71"/><defs id="defs2487"><linearGradient id="linearGradient5126"><stop id="stop5128" offset="0" stop-color="#fff" stop-opacity="1"/><stop id="stop5130" offset="1" stop-color="#fff" stop-opacity="0"/></linearGradient><linearGradient id="linearGradient5118"><stop id="stop5120" offset="0" stop-color="#9d9d9d" stop-opacity="1"/><stop id="stop5122" offset="1" stop-color="#fff" stop-opacity="1"/></linearGradient><linearGradient id="linearGradient4762"><stop id="stop4764" offset="0" stop-color="#fff" stop-opacity="1"/><stop id="stop4766" offset=".05" stop-color="#fff" stop-opacity=".235"/><stop id="stop4768" offset=".95" stop-color="#fff" stop-opacity=".157"/><stop id="stop4770" offset="1" stop-color="#fff" stop-opacity=".392"/></linearGradient><linearGradient id="linearGradient4393" x1="16.498" x2="16.498" y1="8.794" y2="65.258" gradientTransform="matrix(0.55555556,0,0,0.18421053,2.666667,21.302631)" gradientUnits="userSpaceOnUse" xlink:href="#linearGradient3242-4-2"/><linearGradient id="linearGradient3254-3-182-8-5"><stop id="stop4663-8-7" offset="0" stop-color="#fff" stop-opacity="1"/><stop id="stop4665-7-6" offset="1" stop-color="#fff" stop-opacity="0"/></linearGradient><linearGradient id="linearGradient4760" x1="30" x2="30" y1="7" y2="43" gradientTransform="matrix(0.51999998,0,0,0.64864864,3.5200001,0.28378406)" gradientUnits="userSpaceOnUse" xlink:href="#linearGradient4762"/><linearGradient id="linearGradient3457-7-6" x1="-20.447" x2="-48.479" y1="-93.092" y2="-93.092" gradientTransform="matrix(0.12740271,0,0,0.15113872,19.319255,17.024284)" gradientUnits="userSpaceOnUse" spreadMethod="reflect" xlink:href="#linearGradient2793-2-0-669-94-2"/><linearGradient id="linearGradient2793-2-0-669-94-2"><stop id="stop4681-3-1" offset="0" stop-color="#b4b4b4" stop-opacity="1"/><stop id="stop4683-67-4" offset="1" stop-color="#fff" stop-opacity="1"/></linearGradient><linearGradient id="linearGradient5066-8" x1="-17.121" x2="-45.762" y1="-93.092" y2="-93.092" gradientTransform="matrix(0.36855189,0,0,0.13359585,25.643284,15.699275)" gradientUnits="userSpaceOnUse" spreadMethod="reflect" xlink:href="#linearGradient5118"/><radialGradient id="radialGradient5132" cx="16.5" cy="7.5" r="3.5" fx="16.5" fy="7.5" gradientTransform="matrix(0.53450479,0,0,0.5901873,2.7689069,0.07629)" gradientUnits="userSpaceOnUse" xlink:href="#linearGradient5126"/><linearGradient id="linearGradient3820-7-2-1-2-6"><stop id="stop3822-2-6-3-3-7" offset="0" stop-color="#3d3d3d" stop-opacity="1"/><stop id="stop3864-8-7-7-9-1" offset=".5" stop-color="#686868" stop-opacity=".498"/><stop id="stop3824-1-2-5-0-3" offset="1" stop-color="#686868" stop-opacity="0"/></linearGradient><radialGradient id="radialGradient5362" cx="99.157" cy="186.171" r="62.769" fx="99.157" fy="186.171" gradientTransform="matrix(0.15931399,0,0,0.03982852,0.20289978,21.085354)" gradientUnits="userSpaceOnUse" xlink:href="#linearGradient3820-7-2-1-2-6"/><linearGradient id="linearGradient5508" x1="13.682" x2="17.773" y1="17.458" y2="35.717" gradientTransform="matrix(0.9777772,0,0,1.3941434,-2.3777703,-20.567459)" gradientUnits="userSpaceOnUse" xlink:href="#linearGradient3254-3-182-8-5"/><linearGradient id="linearGradient5510" x1="25.273" x2="27.318" y1="17.458" y2="35.717" gradientTransform="matrix(0.9777772,0,0,1.4146455,-5.7111039,-21.112568)" gradientUnits="userSpaceOnUse" xlink:href="#linearGradient3254-3-182-8-5"/><linearGradient id="linearGradient3821"><stop id="stop3823" offset="0" stop-color="#000" stop-opacity="1"/><stop id="stop3825" offset="1" stop-color="#000" stop-opacity="0"/></linearGradient><linearGradient id="linearGradient3941" x1="12.029" x2="36.609" y1="25" y2="25" gradientTransform="matrix(0.60000002,0,0,0.66666667,-30.399999,-0.16666603)" gradientUnits="userSpaceOnUse" xlink:href="#linearGradient3821"/><linearGradient id="linearGradient3242-4-2"><stop id="stop3244-8-8" offset="0" stop-color="#f89b7e" stop-opacity="1"/><stop id="stop3246-2-8" offset=".262" stop-color="#e35d4f" stop-opacity="1"/><stop id="stop3248-8-0" offset=".661" stop-color="#c6262e" stop-opacity="1"/><stop id="stop3250-3-0" offset="1" stop-color="#690b2c" stop-opacity="1"/></linearGradient><linearGradient id="linearGradient3117"><stop id="stop3119" offset="0" stop-color="#fff" stop-opacity="1"/><stop id="stop3121" offset=".569" stop-color="#fff" stop-opacity=".235"/><stop id="stop3123" offset=".933" stop-color="#fff" stop-opacity=".157"/><stop id="stop3125" offset="1" stop-color="#fff" stop-opacity=".392"/></linearGradient><linearGradient id="linearGradient3039" x1="29.127" x2="29.291" y1="19.788" y2="57.567" gradientTransform="matrix(0.3209283,0,-0.00139699,0.29826454,14.687308,13.463913)" gradientUnits="userSpaceOnUse" xlink:href="#linearGradient3117"/><linearGradient id="linearGradient3042" x1="24" x2="24" y1="1.73" y2="43.828" gradientTransform="matrix(0.3333471,0,0,0.32559732,16.006923,16.994947)" gradientUnits="userSpaceOnUse" xlink:href="#linearGradient4171"/><linearGradient id="linearGradient4171"><stop id="stop4173" offset="0" stop-color="#ffe16b" stop-opacity="1"/><stop id="stop4175" offset="1" stop-color="#f9c440" stop-opacity="1"/></linearGradient></defs><rect color="#000" style="marker:none" id="rect3268-4" width="15" height="26" x="-23.5" y="3.5" fill="url(#linearGradient3941)" fill-opacity="1" stroke="none" stroke-width="1" display="block" enable-background="accumulate" opacity=".1" overflow="visible" rx="9" ry="1" transform="scale(-1,1)" visibility="visible"/><path id="path3818-0-5" fill="url(#radialGradient5362)" fill-opacity="1" stroke="none" stroke-width="1" d="m 26,28.50025 a 10,2.5 0 0 1 -19.9999999,0 10,2.5 0 1 1 19.9999999,0 z"/><rect id="rect3268-0-1" width="15" height="3.5" x="8.5" y="26" fill="url(#linearGradient4393)" fill-opacity="1" fill-rule="nonzero" stroke="none" stroke-width="1" color="#000" display="inline" enable-background="accumulate" overflow="visible" rx="9.18" ry="1.01" visibility="visible" style="marker:none"/><path id="rect3268-0" fill="none" fill-opacity="1" fill-rule="nonzero" stroke="#6f0000" stroke-dasharray="none" stroke-dashoffset="0" stroke-linecap="round" stroke-linejoin="round" stroke-miterlimit="4" stroke-opacity="1" stroke-width="1" d="m 23,27.028685 c 0,-0.569723 -3.122,-1.028379 -7,-1.028379 -3.878001,0 -7,0.458656 -7,1.028379" color="#000" display="inline" enable-background="accumulate" opacity=".5" overflow="visible" visibility="visible" style="marker:none"/><path id="rect3268-6-4" fill="url(#linearGradient5066-8)" fill-opacity="1" fill-rule="nonzero" stroke="none" stroke-width="1" d="M 15.999999,3.5 C 11.844999,3.5 8.5,4.0734287 8.5,4.7857145 V 6.5 c 0,-0.7122858 3.344999,-1.2857145 7.499999,-1.2857145 4.155001,0 7.5,0.5734287 7.5,1.2857145 V 4.7857145 C 23.499999,4.0734287 20.155,3.5 15.999999,3.5 Z" color="#000" display="inline" enable-background="accumulate" overflow="visible" visibility="visible" style="marker:none"/><path id="rect3268-6" fill="none" stroke="#000" stroke-dasharray="none" stroke-dashoffset="0" stroke-linecap="butt" stroke-linejoin="miter" stroke-miterlimit="7" stroke-opacity="1" stroke-width="1" d="m 8.9411767,6.0260193 c 0,-0.5649851 3.1482353,-1.0198286 7.0588233,-1.0198286 3.910589,0 7.058823,0.4548435 7.058823,1.0198286" color="#000" display="block" enable-background="accumulate" opacity=".3" overflow="visible" visibility="visible" style="marker:none"/><path id="rect3268-3-9" fill="url(#linearGradient3457-7-6)" fill-opacity="1" fill-rule="nonzero" stroke="none" stroke-width="1" d="M 18.5,3.5 V 2.3181818 c 0,-0.4546401 -1.115,-0.8181819 -2.5,-0.8181819 -1.385,0 -2.5,0.3635418 -2.5,0.8181819 V 3.5" color="#000" display="inline" enable-background="accumulate" overflow="visible" visibility="visible" style="marker:none"/><path id="rect3268-3" fill="none" stroke="#000" stroke-dasharray="none" stroke-dashoffset="0" stroke-linecap="butt" stroke-linejoin="miter" stroke-miterlimit="7" stroke-opacity="1" stroke-width="1" d="M 18.499999,2.9999999 V 2.1136363 c 0,-0.34098 -1.114999,-0.6136364 -2.5,-0.6136364 -1.385,0 -2.499999,0.2726564 -2.499999,0.6136364 v 0.8863636" color="#000" display="block" enable-background="accumulate" opacity=".3" overflow="visible" visibility="visible" style="marker:none"/><path id="path4752" fill="none" stroke="url(#linearGradient4760)" stroke-dasharray="none" stroke-dashoffset="0" stroke-linecap="butt" stroke-linejoin="miter" stroke-miterlimit="7" stroke-opacity="1" stroke-width="1" d="m 16,4.4999999 c -1.929142,0 -3.667413,0.1119074 -4.907499,0.2837841 -0.620045,0.085943 -1.1206868,0.182088 -1.4300011,0.2837841 -0.085062,0.027963 -0.1108557,0.036885 -0.1625,0.060811 V 27.871622 c 0.051646,0.02393 0.077438,0.03284 0.1625,0.06081 0.3093143,0.101695 0.8099561,0.197845 1.4300011,0.283783 C 12.332587,28.388092 14.070858,28.5 16,28.5 c 1.929142,0 3.667413,-0.111908 4.907499,-0.283784 0.620045,-0.08594 1.120687,-0.182088 1.430001,-0.283783 0.08506,-0.02797 0.110855,-0.03689 0.1625,-0.06081 V 5.1283789 C 22.448355,5.1044535 22.422562,5.0955342 22.3375,5.0675681 22.028186,4.965872 21.527544,4.8697218 20.907499,4.783784 19.667413,4.6119073 17.929142,4.4999999 16,4.4999999 Z" color="#000" display="block" enable-background="accumulate" opacity=".8" overflow="visible" visibility="visible" style="marker:none"/><rect id="rect3268" width="15" height="26" x="8.5" y="3.5" fill="none" stroke="#000" stroke-dasharray="none" stroke-dashoffset="0" stroke-linecap="butt" stroke-linejoin="miter" stroke-miterlimit="7" stroke-opacity="1" stroke-width="1" color="#000" display="block" enable-background="accumulate" opacity=".3" overflow="visible" rx="9.18" ry="1" visibility="visible" style="marker:none"/><path d="m 15,3.4999999 c -2.141789,0.08116 -3.004844,0.2414338 -4,0.4814808 V 29.018518 c 0.995156,0.240047 1.858211,0.40032 4,0.481481 z" style="marker:none" id="path5194" fill="url(#linearGradient5508)" fill-opacity="1" fill-rule="nonzero" stroke="none" stroke-width="1" display="inline" opacity=".3" overflow="visible" visibility="visible"/><path d="M 19,3.4999998 V 29.499999 c 0.757782,-0.08406 1.536192,-0.183863 2,-0.297386 V 3.7973848 C 20.536192,3.6838626 19.757782,3.5840522 19,3.4999998 Z" style="marker:none" id="rect3244" fill="url(#linearGradient5510)" fill-opacity="1" fill-rule="nonzero" stroke="none" stroke-width="1" display="inline" opacity=".1" overflow="visible" visibility="visible"/><path id="path5124" fill="url(#radialGradient5132)" fill-opacity="1" fill-rule="nonzero" stroke="none" stroke-width="1.37" d="m 13.459003,4.502695 a 1.8707668,2.0656556 0 1 1 -3.7415337,0 1.8707669,2.0656556 0 1 1 3.7415337,0 z" color="#000" display="inline" enable-background="accumulate" opacity=".2" overflow="visible" visibility="visible" style="marker:none"/><path id="rect3268-0-7" fill="none" stroke="#fff" stroke-dasharray="none" stroke-dashoffset="0" stroke-linecap="butt" stroke-linejoin="miter" stroke-miterlimit="7" stroke-opacity="1" stroke-width="1" d="M 22.981918,27.795166 C 22.078868,27.334046 19.302622,27 16,27 12.708443,27 9.9397386,27.331812 9.0272201,27.790536" color="#000" display="block" enable-background="accumulate" opacity=".2" overflow="visible" visibility="visible" style="marker:none"/><path id="path11155" fill="url(#linearGradient3042)" fill-opacity="1" fill-rule="nonzero" stroke="none" d="m 31.400506,30.018518 -6.510339,-12 C 24.703041,17.685185 24.364442,17.5 23.987342,17.5 c -0.377097,0 -0.717434,0.22222 -0.907403,0.555555 l -6.461858,12 c -0.152102,0.296297 -0.153841,0.703705 0.03345,1 C 16.83881,31.351852 17.139858,31.5 17.516958,31.5 l 12.972191,0 c 0.3771,0 0.717277,-0.185186 0.869382,-0.481483 0.189811,-0.296295 0.191393,-0.666665 0.04198,-0.999999 z"/><path id="path11159" fill="none" stroke="url(#linearGradient3039)" stroke-dasharray="none" stroke-linejoin="round" stroke-miterlimit="4" stroke-opacity="1" stroke-width="1" d="M 30.007255,29.518301 C 28.052793,26.046889 26.007255,22 23.982397,18.5 c -1.975142,3.5 -3.870689,7.445761 -5.975142,11.013164 -0.318952,0.522763 -0.632907,0.692927 -0.479386,0.923014 0.153519,0.230089 0.418429,0.04807 1.146742,0.06307 l 10.795596,0 c 0.678046,0.0075 0.864678,0.10371 0.989435,-0.126372 0.155674,-0.230085 -0.154842,-0.3856 -0.452387,-0.854575 z" opacity=".6"/><path id="path11155-59" fill="none" fill-opacity="1" fill-rule="nonzero" stroke="#ad5f00" stroke-dasharray="none" stroke-dashoffset="0" stroke-linecap="butt" stroke-linejoin="miter" stroke-miterlimit="4" stroke-opacity="1" stroke-width="1" d="m 31.400506,30.018518 -6.510339,-12 C 24.703041,17.685185 24.364443,17.5 23.987343,17.5 c -0.377098,0 -0.717435,0.22222 -0.907403,0.555555 l -6.461859,12.000001 c -0.152102,0.296297 -0.153841,0.703704 0.03345,0.999999 C 16.83881,31.351852 17.139858,31.5 17.516958,31.5 l 12.972191,0 c 0.3771,0 0.717278,-0.185185 0.869383,-0.481481 0.189811,-0.296296 0.191392,-0.666666 0.04198,-1.000001 z" clip-rule="nonzero" color="#000" color-interpolation="sRGB" color-interpolation-filters="linearRGB" color-rendering="auto" display="inline" enable-background="accumulate" image-rendering="auto" opacity=".5" overflow="visible" shape-rendering="auto" text-rendering="auto" visibility="visible" style="marker:none;isolation:auto;mix-blend-mode:normal;solid-color:#000;solid-opacity:1;filter-blend-mode:normal;filter-gaussianBlur-deviation:0"/><path id="path4231" fill="#fff" fill-opacity="1" stroke="none" stroke-dasharray="none" stroke-linecap="butt" stroke-linejoin="round" stroke-miterlimit="4" stroke-opacity="1" stroke-width="2" d="m 23.007255,22 0,4 0.5,2 1,0 0.5,-2 0,-4 z m 1,7 c -0.552285,0 -1,0.447715 -1,1 0,0.552285 0.447715,1 1,1 0.552285,0 1,-0.447715 1,-1 0,-0.552285 -0.447715,-1 -1,-1 z" opacity=".15"/><path id="path4156" fill="#7a0000" fill-opacity="1" fill-rule="nonzero" stroke="none" stroke-dasharray="none" stroke-dashoffset="0" stroke-linecap="butt" stroke-linejoin="round" stroke-miterlimit="4" stroke-opacity=".498" stroke-width="1" d="m 23.007255,21 0,4 0.5,2 1,0 0.5,-2 0,-4 z m 1,7 c -0.552285,0 -1,0.447715 -1,1 0,0.552285 0.447715,1 1,1 0.552285,0 1,-0.447715 1,-1 0,-0.552285 -0.447715,-1 -1,-1 z" clip-rule="nonzero" color="#000" color-interpolation="sRGB" color-interpolation-filters="linearRGB" color-rendering="auto" display="inline" enable-background="accumulate" image-rendering="auto" opacity="1" overflow="visible" shape-rendering="auto" text-rendering="auto" visibility="visible" style="isolation:auto;mix-blend-mode:normal;solid-color:#000;solid-opacity:1;filter-blend-mode:normal;filter-gaussianBlur-deviation:0"/></svg>