<svg xmlns="http://www.w3.org/2000/svg" xmlns:svg="http://www.w3.org/2000/svg" xmlns:xlink="http://www.w3.org/1999/xlink" id="svg4057" width="32" height="32" version="1.1"><defs id="defs4059"><linearGradient id="linearGradient3117"><stop id="stop3119" offset="0" stop-color="#fff" stop-opacity="1"/><stop id="stop3121" offset=".569" stop-color="#fff" stop-opacity=".235"/><stop id="stop3123" offset=".933" stop-color="#fff" stop-opacity=".157"/><stop id="stop3125" offset="1" stop-color="#fff" stop-opacity=".392"/></linearGradient><linearGradient id="linearGradient3039" x1="29.127" x2="29.291" y1="19.788" y2="57.567" gradientTransform="matrix(0.6665434,0,-0.00290144,0.6778742,-3.3568127,-10.21839)" gradientUnits="userSpaceOnUse" xlink:href="#linearGradient3117"/><linearGradient id="linearGradient3042" x1="24" x2="24" y1="1.429" y2="44.745" gradientTransform="matrix(0.64447106,0,0,0.6279377,0.53269162,1.5259712)" gradientUnits="userSpaceOnUse" xlink:href="#linearGradient4171"/><linearGradient id="linearGradient5048-4"><stop id="stop5050-6" offset="0" stop-color="#000" stop-opacity="0"/><stop id="stop5056-9" offset=".5" stop-color="#000" stop-opacity="1"/><stop id="stop5052-3" offset="1" stop-color="#000" stop-opacity="0"/></linearGradient><linearGradient id="linearGradient5060-3"><stop id="stop5062-9" offset="0" stop-color="#000" stop-opacity="1"/><stop id="stop5064-4" offset="1" stop-color="#000" stop-opacity="0"/></linearGradient><linearGradient id="linearGradient3196" x1="302.857" x2="302.857" y1="366.648" y2="609.505" gradientTransform="matrix(0.08449704,0,0,0.01235294,-6.5396456,38.470822)" gradientUnits="userSpaceOnUse" xlink:href="#linearGradient5048-4"/><radialGradient id="radialGradient3198" cx="605.714" cy="486.648" r="117.143" fx="605.714" fy="486.648" gradientTransform="matrix(-0.0289166,0,0,0.01235294,21.026894,38.470848)" gradientUnits="userSpaceOnUse" xlink:href="#linearGradient5060-3"/><radialGradient id="radialGradient3200" cx="605.714" cy="486.648" r="117.143" fx="605.714" fy="486.648" gradientTransform="matrix(0.02891661,0,0,0.01235294,26.973101,38.470848)" gradientUnits="userSpaceOnUse" xlink:href="#linearGradient5060-3"/><linearGradient id="linearGradient4171"><stop id="stop4173" offset="0" stop-color="#ffe16b" stop-opacity="1"/><stop id="stop4175" offset="1" stop-color="#f9c440" stop-opacity="1"/></linearGradient></defs><metadata id="metadata4062"/><g id="g3257" opacity=".4" transform="matrix(0.6666592,0,0,1.3333333,0,-30.333332)"><rect id="rect2879" width="40.8" height="3" x="3.6" y="43" fill="url(#linearGradient3196)" fill-opacity="1" fill-rule="nonzero" stroke="none" stroke-width="1" display="inline" overflow="visible" visibility="visible" style="marker:none"/><path id="path2881" fill="url(#radialGradient3198)" fill-opacity="1" fill-rule="nonzero" stroke="none" stroke-width="1" d="m 3.6,43.00013 c 0,0 0,2.999835 0,2.999835 C 2.1108662,46.005612 0,45.327854 0,44.499854 0,43.671856 1.6617608,43.000131 3.6,43.00013 z" display="inline" overflow="visible" visibility="visible" style="marker:none"/><path id="path2883" fill="url(#radialGradient3200)" fill-opacity="1" fill-rule="nonzero" stroke="none" stroke-width="1" d="m 44.4,43.00013 c 0,0 0,2.999835 0,2.999835 1.489133,0.0056 3.6,-0.672111 3.6,-1.500111 0,-0.827998 -1.661761,-1.499723 -3.6,-1.499724 z" display="inline" overflow="visible" visibility="visible" style="marker:none"/></g><path id="path11155" fill="url(#linearGradient3042)" fill-opacity="1" fill-rule="nonzero" stroke="none" d="M 30.293619,26.642856 17.706964,3.4999991 c -0.361777,-0.6428555 -1.016401,-0.999998 -1.745461,-0.999998 -0.729055,0 -1.38704,0.4285671 -1.754313,1.0714275 L 1.7142647,26.714286 c -0.2940649,0.571431 -0.2974269,1.357145 0.06466,1.928571 0.3620822,0.571431 0.9441073,0.857144 1.6731674,0.857144 l 25.0795699,0 c 0.72906,0 1.386736,-0.357143 1.680806,-0.928573 0.366968,-0.571426 0.370025,-1.285711 0.08115,-1.928572 z"/><path id="path11159" fill="none" stroke="url(#linearGradient3039)" stroke-dasharray="none" stroke-miterlimit="4" stroke-opacity="1" stroke-width="1" d="M 28.898533,25.883662 17.362546,4.7050685 C 16.871241,3.7927166 16.695021,3.499999 15.948372,3.499999 c -0.642174,0 -0.978182,0.4263056 -1.44225,1.2874908 L 3.0981813,25.949028 c -0.6624379,1.188097 -0.73341,1.497791 -0.4145589,2.020717 0.3188463,0.522931 0.7282373,0.494449 2.2408862,0.528561 l 22.4216234,0 c 1.408249,0.01704 1.725466,-0.08806 1.984576,-0.610982 0.323323,-0.522931 0.185798,-0.93781 -0.432175,-2.003662 z" opacity=".6"/><path id="path11155-59" fill="none" fill-opacity="1" fill-rule="nonzero" stroke="#ad5f00" stroke-dasharray="none" stroke-dashoffset="0" stroke-linecap="butt" stroke-linejoin="miter" stroke-miterlimit="4" stroke-opacity="1" stroke-width="1" d="M 30.293619,26.642855 17.706964,3.499998 c -0.361777,-0.6428556 -1.0164,-0.9999981 -1.74546,-0.9999981 -0.729056,0 -1.387041,0.4285672 -1.754314,1.0714276 L 1.7142647,26.714286 c -0.2940649,0.571429 -0.297427,1.357144 0.06466,1.92857 C 2.1410069,29.214287 2.723032,29.5 3.452092,29.5 l 25.07957,0 c 0.72906,0 1.386736,-0.357142 1.680806,-0.928572 0.366968,-0.571427 0.370025,-1.285713 0.08115,-1.928573 z" clip-rule="nonzero" color="#000" color-interpolation="sRGB" color-interpolation-filters="linearRGB" color-rendering="auto" display="inline" enable-background="accumulate" image-rendering="auto" opacity=".5" overflow="visible" shape-rendering="auto" text-rendering="auto" visibility="visible" style="marker:none;isolation:auto;mix-blend-mode:normal;solid-color:#000;solid-opacity:1;filter-blend-mode:normal;filter-gaussianBlur-deviation:0"/><path id="path4238" fill="#fff" fill-opacity="1" stroke="none" stroke-dasharray="none" stroke-linejoin="round" stroke-miterlimit="4" stroke-opacity=".498" stroke-width="1" d="m 16,10 c -1.104569,0 -2,0.895431 -2,2 0,2 0.666667,4.666667 1.333333,10 l 1.333334,0 C 17.333333,16.666667 18,14 18,12 18,10.895431 17.104569,10 16,10 Z m 0,14 c -1.104569,0 -2,0.895431 -2,2 0,1.104569 0.895431,2 2,2 1.104569,0 2,-0.895431 2,-2 0,-1.104569 -0.895431,-2 -2,-2 z" opacity=".3"/><path id="path4159-3" fill="#7a0000" fill-opacity="1" fill-rule="nonzero" stroke="none" stroke-dasharray="none" stroke-dashoffset="0" stroke-linecap="butt" stroke-linejoin="round" stroke-miterlimit="4" stroke-opacity=".498" stroke-width="1" d="m 16,9.0000003 c -1.104569,0 -2,0.895431 -2,1.9999997 0,2 0.666667,4.666667 1.333333,10 l 1.333334,0 C 17.333333,15.666667 18,13 18,11 18,9.8954313 17.104569,9.0000003 16,9.0000003 Z M 16,23 c -1.104569,0 -2,0.895431 -2,2 0,1.104569 0.895431,2 2,2 1.104569,0 2,-0.895431 2,-2 0,-1.104569 -0.895431,-2 -2,-2 z" clip-rule="nonzero" color="#000" color-interpolation="sRGB" color-interpolation-filters="linearRGB" color-rendering="auto" display="inline" enable-background="accumulate" image-rendering="auto" opacity="1" overflow="visible" shape-rendering="auto" text-rendering="auto" visibility="visible" style="isolation:auto;mix-blend-mode:normal;solid-color:#000;solid-opacity:1;filter-blend-mode:normal;filter-gaussianBlur-deviation:0"/></svg>