<svg xmlns="http://www.w3.org/2000/svg" xmlns:svg="http://www.w3.org/2000/svg" id="svg3804" width="32" height="32" version="1.1"><metadata id="metadata3809"/><g id="layer1"><path id="path3609-6" fill="#fff" fill-opacity="1" fill-rule="evenodd" stroke="none" d="m 16.437608,12.666618 -0.666671,0 -0.66667,4.666697 L 18.437622,20 l 10e-7,-0.66667 -2.000014,-2.666686 -10e-7,-4.000026 z" opacity=".3"/><path id="path3607-6" fill="#fff" fill-opacity="1" fill-rule="evenodd" stroke="none" d="M 16,8.9999996 C 11.584001,8.9999996 8,12.584 8,17 c 0,4.415999 3.584001,8 8,8 4.416,0 8,-3.584001 8,-8 0,-4.416 -3.584,-8.0000004 -8,-8.0000004 z M 16,11 c 3.312022,0 6,2.687978 6,6 0,3.312022 -2.687978,6 -6,6 -3.312022,0 -6,-2.687978 -6,-6 0,-3.312022 2.687978,-6 6,-6 z" opacity=".3"/><path id="path3318-9" fill="#fff" fill-opacity="1" fill-rule="evenodd" stroke="none" d="m 9,1.9999996 0,2 5,0 0,-2 -5,0 z m 9,0 0,2 5,0 0,-2 -5,0 z M 1,10 l 0,5 2,0 0,-5 -2,0 z m 28,0 0,5 2,0 0,-5 -2,0 z m -28,9 0,5 2,0 0,-5 -2,0 z m 28,0 0,5 2,0 0,-5 -2,0 z m -20,11 0,2 5,0 0,-2 -5,0 z m 9,0 0,2 5,0 0,-2 -5,0 z" opacity=".3"/><path id="path2387" fill="none" stroke="#fff" stroke-dasharray="none" stroke-linecap="butt" stroke-linejoin="miter" stroke-miterlimit="4" stroke-opacity="1" stroke-width="2" d="m 27.333515,31 c 2.666684,0 2.666684,0 2.666684,-2.666685 m 0,-22.666818 c 0,-2.666684 0,-2.666684 -2.666684,-2.666684 M 2.0000132,28.333315 C 2.0000132,31 2.0000132,31 4.6666978,31 m 0,-28.000187 c -2.6666847,0 -2.6666846,0 -2.6666846,2.666684" opacity=".3"/><path id="path3609" fill="#000" fill-opacity="1" fill-rule="evenodd" stroke="none" d="m 16.437608,11.666533 -0.666671,0 -0.66667,4.666697 3.333355,2.666685 10e-7,-0.66667 -2.000014,-2.666686 -10e-7,-4.000026 z" opacity=".5"/><path id="path3607" fill="#000" fill-opacity="1" fill-rule="evenodd" stroke="none" d="m 16,7.99979 c -4.415999,0 -8,3.584 -8,8 0,4.415999 3.584001,8 8,8 4.416,0 8,-3.584001 8,-8 0,-4.416 -3.584,-8 -8,-8 z m 0,2 c 3.312022,0 6,2.687978 6,6 0,3.312022 -2.687978,6 -6,6 -3.312022,0 -6,-2.687978 -6,-6 0,-3.312022 2.687978,-6 6,-6 z" opacity=".5"/><path id="path3318" fill="#000" fill-opacity="1" fill-rule="evenodd" stroke="none" d="m 9,0.99979 0,2 5,0 0,-2 -5,0 z m 9,0 0,2 5,0 0,-2 -5,0 z m -17,8 0,5 2,0 0,-5 -2,0 z m 28,0 0,5 2,0 0,-5 -2,0 z m -28,9 0,5 2,0 0,-5 -2,0 z m 28,0 0,5 2,0 0,-5 -2,0 z m -20,11 0,2 5,0 0,-2 -5,0 z m 9,0 0,2 5,0 0,-2 -5,0 z" opacity=".5"/><path id="path6300" fill="none" stroke="#000" stroke-dasharray="none" stroke-linecap="butt" stroke-linejoin="miter" stroke-miterlimit="4" stroke-opacity="1" stroke-width="2" d="m 27.333515,29.99999 c 2.666684,0 2.666684,0 2.666684,-2.666685 m 0,-22.6668167 c 0,-2.666684 0,-2.666684 -2.666684,-2.666684 M 2.0000132,27.333305 c 0,2.666685 0,2.666685 2.6666846,2.666685 m 0,-28.0001857 c -2.6666847,0 -2.6666846,0 -2.6666846,2.666684" opacity=".5"/></g></svg>