<svg xmlns="http://www.w3.org/2000/svg" xmlns:svg="http://www.w3.org/2000/svg" xmlns:xlink="http://www.w3.org/1999/xlink" id="svg2526" width="32" height="32" version="1.0"><metadata id="metadata58"/><defs id="defs2528"><linearGradient id="linearGradient5060"><stop id="stop5062" offset="0" stop-color="#000" stop-opacity="1"/><stop id="stop5064" offset="1" stop-color="#000" stop-opacity="0"/></linearGradient><linearGradient id="linearGradient5048"><stop id="stop5050" offset="0" stop-color="#000" stop-opacity="0"/><stop id="stop5056" offset=".5" stop-color="#000" stop-opacity="1"/><stop id="stop5052" offset="1" stop-color="#000" stop-opacity="0"/></linearGradient><linearGradient id="linearGradient3188" x1="302.857" x2="302.857" y1="366.648" y2="609.505" gradientTransform="matrix(0.08449704,0,0,0.01235294,-6.5396456,38.470822)" gradientUnits="userSpaceOnUse" xlink:href="#linearGradient5048"/><radialGradient id="radialGradient3190" cx="605.714" cy="486.648" r="117.143" fx="605.714" fy="486.648" gradientTransform="matrix(-0.0289166,0,0,0.01235294,21.026894,38.470848)" gradientUnits="userSpaceOnUse" xlink:href="#linearGradient5060"/><radialGradient id="radialGradient3192" cx="605.714" cy="486.648" r="117.143" fx="605.714" fy="486.648" gradientTransform="matrix(0.02891661,0,0,0.01235294,26.973101,38.470848)" gradientUnits="userSpaceOnUse" xlink:href="#linearGradient5060"/><linearGradient id="linearGradient3104-6"><stop id="stop3106-3" offset="0" stop-color="#000" stop-opacity=".318"/><stop id="stop3108-9" offset="1" stop-color="#000" stop-opacity=".24"/></linearGradient><linearGradient id="linearGradient3610-302-9-7-2"><stop id="stop3796-3-8-61" offset="0" stop-color="#1d1d1d" stop-opacity="1"/><stop id="stop3798-1-9-2" offset="1" stop-color="#000" stop-opacity="1"/></linearGradient><linearGradient id="linearGradient4785-3-5"><stop id="stop4787-5-0" offset="0" stop-color="#262626" stop-opacity="1"/><stop id="stop4789-1-3" offset="1" stop-color="#4d4d4d" stop-opacity="1"/></linearGradient><linearGradient id="linearGradient3977-8"><stop id="stop3979-4" offset="0" stop-color="#fff" stop-opacity="1"/><stop id="stop3981-7" offset=".036" stop-color="#fff" stop-opacity=".235"/><stop id="stop3983-56" offset=".951" stop-color="#fff" stop-opacity=".157"/><stop id="stop3985-7" offset="1" stop-color="#fff" stop-opacity=".392"/></linearGradient><linearGradient id="linearGradient3600-7"><stop id="stop3602-2" offset="0" stop-color="#f4f4f4" stop-opacity="1"/><stop id="stop3604-8" offset="1" stop-color="#dbdbdb" stop-opacity="1"/></linearGradient><linearGradient id="linearGradient3285" x1="-51.786" x2="-51.786" y1="50.786" y2="2.906" gradientTransform="matrix(0.71521168,0,0,0.50836186,47.363354,2.5242162)" gradientUnits="userSpaceOnUse" xlink:href="#linearGradient3104-6"/><linearGradient id="linearGradient3291" x1="45.414" x2="45.567" y1="15.27" y2="96.253" gradientTransform="matrix(-0.33920298,4.8907845e-4,0.00125558,-0.26704325,38.935255,32.236618)" gradientUnits="userSpaceOnUse" xlink:href="#linearGradient4785-3-5"/><linearGradient id="linearGradient3293" x1="-24.032" x2="-24.098" y1="-13.091" y2="-40.164" gradientTransform="matrix(-0.7700459,0.00111029,0.00366806,-0.78014046,-2.4326501,-4.1078402)" gradientUnits="userSpaceOnUse" xlink:href="#linearGradient3610-302-9-7-2"/><linearGradient id="linearGradient3296" x1="24" x2="24" y1="5.564" y2="43" gradientTransform="matrix(0.7837838,0,0,0.6216216,-2.8108094,2.081085)" gradientUnits="userSpaceOnUse" xlink:href="#linearGradient3977-8"/><linearGradient id="linearGradient3299" x1="25.132" x2="25.132" y1=".985" y2="47.013" gradientTransform="matrix(0.85714084,0,0,0.52148059,-4.5713851,3.6844634)" gradientUnits="userSpaceOnUse" xlink:href="#linearGradient3600-7"/><linearGradient id="linearGradient3242-59-5"><stop id="stop3244-9-4" offset="0" stop-color="#f8b17e" stop-opacity="1"/><stop id="stop3246-7-4" offset=".262" stop-color="#e35d4f" stop-opacity="1"/><stop id="stop3248-87-0" offset=".661" stop-color="#c6262e" stop-opacity="1"/><stop id="stop3250-2-0" offset="1" stop-color="#690b54" stop-opacity="1"/></linearGradient><linearGradient id="linearGradient4421" x1="229.01" x2="229.01" y1="600.009" y2="635.009" gradientUnits="userSpaceOnUse" xlink:href="#linearGradient3242-59-5"/><linearGradient id="linearGradient4423" x1="229.01" x2="229.01" y1="600.009" y2="635.009" gradientTransform="translate(-0.1031,-0.1286)" gradientUnits="userSpaceOnUse" xlink:href="#linearGradient3242-59-5"/><linearGradient id="linearGradient4425" x1="229.01" x2="229.01" y1="600.009" y2="635.009" gradientUnits="userSpaceOnUse" xlink:href="#linearGradient3242-59-5"/></defs><g id="g3257" opacity=".4" transform="matrix(0.6666592,0,0,1.3333333,1.792e-4,-30.333332)"><rect id="rect2879" width="40.8" height="3" x="3.6" y="43" fill="url(#linearGradient3188)" fill-opacity="1" fill-rule="nonzero" stroke="none" stroke-width="1" display="inline" overflow="visible" visibility="visible" style="marker:none"/><path id="path2881" fill="url(#radialGradient3190)" fill-opacity="1" fill-rule="nonzero" stroke="none" stroke-width="1" d="m 3.6,43.00013 c 0,0 0,2.999835 0,2.999835 C 2.1108662,46.005612 0,45.327854 0,44.499854 0,43.671856 1.6617608,43.000131 3.6,43.00013 z" display="inline" overflow="visible" visibility="visible" style="marker:none"/><path id="path2883" fill="url(#radialGradient3192)" fill-opacity="1" fill-rule="nonzero" stroke="none" stroke-width="1" d="m 44.4,43.00013 c 0,0 0,2.999835 0,2.999835 1.489133,0.0056 3.6,-0.672111 3.6,-1.500111 0,-0.827998 -1.661761,-1.499723 -3.6,-1.499724 z" display="inline" overflow="visible" visibility="visible" style="marker:none"/></g><path id="path4160" fill="url(#linearGradient3299)" fill-opacity="1" stroke="none" d="m 0.99999685,4.9999981 c 6.87452305,0 29.99996415,0.00153 29.99996415,0.00153 l 3.6e-5,23.9984699 c 0,0 -19.999999,0 -30.00000015,0 0,-8 0,-16 0,-24.0000001 z" display="inline"/><path id="rect6741-1" fill="none" stroke="url(#linearGradient3296)" stroke-dasharray="none" stroke-dashoffset="0" stroke-linecap="round" stroke-linejoin="round" stroke-miterlimit="4" stroke-opacity="1" stroke-width="1" d="m 30.499996,28.499998 -28.9999985,0 0,-23 28.9999985,0 z"/><path id="rect3582-50-4-3" fill="url(#linearGradient3291)" fill-opacity="1" stroke="url(#linearGradient3293)" stroke-dasharray="none" stroke-linecap="round" stroke-linejoin="miter" stroke-miterlimit="4" stroke-opacity="1" stroke-width="1" d="m 29.499997,27.499997 -27.0000001,0 2e-6,-20.9999986 26.9999951,2e-6 z"/><path id="path4160-6-1" fill="none" stroke="url(#linearGradient3285)" stroke-dasharray="none" stroke-dashoffset="0" stroke-linecap="butt" stroke-linejoin="round" stroke-miterlimit="4" stroke-opacity="1" stroke-width="1" d="m 0.4999577,4.499957 c 7.103685,0 31.0000463,0.00174 31.0000463,0.00174 l 3.2e-5,24.998342 c 0,0 -20.666718,0 -31.0000783,0 0,-8.33337 0,-16.666657 0,-24.9999301 z" display="inline"/><g id="g4249" fill="#000" fill-opacity="1" fill-rule="nonzero" stroke="none" color="#000" display="inline" opacity=".3" transform="matrix(-0.85624991,0,0,0.85624991,211.23354,-507.74986)" visibility="visible" style="marker:none"><path id="path4251" fill="#000" fill-opacity="1" fill-rule="nonzero" stroke="none" d="m 228.01,607.02 c -3.86,0 -7.0073,3.166 -7.0073,7.0103 0,3.8443 3.1472,6.9787 7.0073,6.9787 3.86,0 7.0073,-3.1344 7.0073,-6.9787 0,-3.8443 -3.1472,-7.0103 -7.0073,-7.0103 z m 0,2.021 c 2.7769,0 5.0097,2.2237 5.0097,4.9893 0,2.7656 -2.2328,4.9577 -5.0097,4.9577 -2.777,0 -5.0097,-2.1921 -5.0097,-4.9577 0,-2.7656 2.2328,-4.9893 5.0097,-4.9893 z" color="#000" display="inline" enable-background="accumulate" overflow="visible" visibility="visible" style="text-indent:0;text-transform:none;block-progression:tb;marker:none"/><path id="path4253" fill="#000" fill-opacity="1" fill-rule="nonzero" stroke="none" d="m 231.3069,609.3114 -8,8 1.4062,1.4062 8,-8 -1.4062,-1.4062 z" color="#000" display="inline" enable-background="accumulate" overflow="visible" visibility="visible" style="text-indent:0;text-transform:none;block-progression:tb;marker:none"/></g><g stroke-opacity="1" style="marker:none" id="g4261" fill="#000" fill-opacity="1" fill-rule="nonzero" stroke="#000" stroke-dasharray="none" stroke-miterlimit="4" stroke-width="2.336" color="#000" display="inline" opacity=".15" transform="matrix(-0.85624991,0,0,0.85624991,211.23354,-507.74986)" visibility="visible"><path id="path4263" fill="#000" fill-opacity="1" fill-rule="nonzero" stroke="#000" stroke-dasharray="none" stroke-miterlimit="4" stroke-opacity="1" stroke-width="2.336" d="m 228.01,607.02 c -3.86,0 -7.0073,3.166 -7.0073,7.0103 0,3.8443 3.1472,6.9787 7.0073,6.9787 3.86,0 7.0073,-3.1344 7.0073,-6.9787 0,-3.8443 -3.1472,-7.0103 -7.0073,-7.0103 z m 0,2.021 c 2.7769,0 5.0097,2.2237 5.0097,4.9893 0,2.7656 -2.2328,4.9577 -5.0097,4.9577 -2.777,0 -5.0097,-2.1921 -5.0097,-4.9577 0,-2.7656 2.2328,-4.9893 5.0097,-4.9893 z" color="#000" display="inline" enable-background="accumulate" overflow="visible" visibility="visible" style="text-indent:0;text-transform:none;block-progression:tb;marker:none"/><path id="path4265" fill="#000" fill-opacity="1" fill-rule="nonzero" stroke="#000" stroke-dasharray="none" stroke-miterlimit="4" stroke-opacity="1" stroke-width="2.336" d="m 231.3069,609.3114 -8,8 1.4062,1.4062 8,-8 -1.4062,-1.4062 z" color="#000" display="inline" enable-background="accumulate" overflow="visible" visibility="visible" style="text-indent:0;text-transform:none;block-progression:tb;marker:none"/></g><g id="layer12" fill="url(#linearGradient4425)" fill-opacity="1" fill-rule="nonzero" stroke="none" color="#000" display="inline" transform="matrix(-0.85624991,0,0,0.85624991,211.23354,-508.74986)" visibility="visible" style="marker:none"><path id="path4222" fill="url(#linearGradient4421)" fill-opacity="1" fill-rule="nonzero" stroke="none" d="m 228.01,607.02 c -3.86,0 -7.0073,3.166 -7.0073,7.0103 0,3.8443 3.1472,6.9787 7.0073,6.9787 3.86,0 7.0073,-3.1344 7.0073,-6.9787 0,-3.8443 -3.1472,-7.0103 -7.0073,-7.0103 z m 0,2.021 c 2.7769,0 5.0097,2.2237 5.0097,4.9893 0,2.7656 -2.2328,4.9577 -5.0097,4.9577 -2.777,0 -5.0097,-2.1921 -5.0097,-4.9577 0,-2.7656 2.2328,-4.9893 5.0097,-4.9893 z" color="#000" display="inline" enable-background="accumulate" overflow="visible" visibility="visible" style="text-indent:0;text-transform:none;block-progression:tb;marker:none"/><path id="path4992" fill="url(#linearGradient4423)" fill-opacity="1" fill-rule="nonzero" stroke="none" d="m 231.3069,609.3114 -8,8 1.4062,1.4062 8,-8 -1.4062,-1.4062 z" color="#000" display="inline" enable-background="accumulate" overflow="visible" visibility="visible" style="text-indent:0;text-transform:none;block-progression:tb;marker:none"/></g></svg>