<svg xmlns="http://www.w3.org/2000/svg" xmlns:osb="http://www.openswatchbook.org/uri/2009/osb" xmlns:svg="http://www.w3.org/2000/svg" xmlns:xlink="http://www.w3.org/1999/xlink" id="svg3489" width="32" height="32" version="1.1"><defs id="defs3491"><linearGradient id="linearGradient4330"><stop id="stop4332" offset="0" stop-color="#fff" stop-opacity="1"/><stop id="stop4334" offset="1" stop-color="#fff" stop-opacity="0"/></linearGradient><linearGradient id="linearGradient4320"><stop id="stop4322" offset="0" stop-color="#fff" stop-opacity="1"/><stop id="stop4324" offset=".006" stop-color="#fff" stop-opacity=".235"/><stop id="stop4326" offset=".796" stop-color="#fff" stop-opacity=".157"/><stop id="stop4328" offset="1" stop-color="#fff" stop-opacity=".392"/></linearGradient><linearGradient id="linearGradient23419"><stop id="stop23421" offset="0" stop-color="#000" stop-opacity="1"/><stop id="stop23423" offset="1" stop-color="#000" stop-opacity="0"/></linearGradient><radialGradient id="radialGradient3300-9" cx="99.189" cy="185.297" r="62.769" fx="99.189" fy="185.297" gradientTransform="matrix(0.3823536,7.5555777e-8,-1.8372241e-8,0.1115198,-5.9254271,36.335849)" gradientUnits="userSpaceOnUse" xlink:href="#linearGradient23419"/><radialGradient id="radialGradient4192" cx="99.189" cy="185.297" r="62.769" fx="99.189" fy="185.297" gradientTransform="matrix(0.2549024,5.3967361e-8,-1.2248161e-8,0.07965545,6.7163816,44.240666)" gradientUnits="userSpaceOnUse" xlink:href="#linearGradient23419"/><linearGradient id="linearGradient2793-2-0-669-94-2"><stop id="stop4681-3-1" offset="0" stop-color="#b4b4b4" stop-opacity="1"/><stop id="stop4683-67-4" offset="1" stop-color="#fff" stop-opacity="1"/></linearGradient><linearGradient id="linearGradient4260" x1="34.57" x2="34.57" y1="8.7" y2="55.547" gradientTransform="matrix(0.49993019,0,0,0.5,0.00270542,-0.50000112)" gradientUnits="userSpaceOnUse" xlink:href="#linearGradient5362"/><linearGradient id="linearGradient4318" x1="47.381" x2="47.381" y1="18.936" y2="40.217" gradientTransform="matrix(1.1387416,0,0,1.1471933,-27.038994,-16.44272)" gradientUnits="userSpaceOnUse" xlink:href="#linearGradient4320"/><linearGradient id="linearGradient4336" x1="32.007" x2="7.752" y1="29.056" y2="29.056" gradientTransform="matrix(0.48978112,0,0,0.49152542,0.32700383,-0.15201271)" gradientUnits="userSpaceOnUse" xlink:href="#linearGradient4330"/><linearGradient id="linearGradient4378" x1="51.117" x2="51.117" y1="9.192" y2="64.026" gradientTransform="matrix(0.45983921,0,0,0.46638406,1.2851458,0.58324131)" gradientUnits="userSpaceOnUse" xlink:href="#linearGradient5668"/><linearGradient id="linearGradient4663-2" x1="56.41" x2="-113.564" y1="-6.986" y2="-6.986" gradientTransform="matrix(0.08921681,0,0,0.07809922,14.080919,1.3632038)" gradientUnits="userSpaceOnUse" spreadMethod="reflect" xlink:href="#linearGradient2793-2-0-669-94-2"/><linearGradient id="linearGradient5362"><stop id="stop5364" offset="0" stop-color="#ffe16b" stop-opacity="1"/><stop id="stop5366" offset="1" stop-color="#f9c440" stop-opacity="1"/></linearGradient><linearGradient id="linearGradient5668"><stop id="stop5670" offset="0" stop-color="#ad5f00" stop-opacity="1"/><stop id="stop5672" offset="1" stop-color="#ad5f00" stop-opacity="0"/></linearGradient><linearGradient id="linearGradient4526" osb:paint="solid"><stop id="stop4528" offset="0" stop-color="#fff" stop-opacity="1"/></linearGradient></defs><metadata id="metadata3494"/><g id="g4198" transform="matrix(0.5,0,0,0.5,7.75e-7,-9.16e-4)"><path id="path3818-0" fill="url(#radialGradient3300-9)" fill-opacity="1" stroke="none" d="m 55.999998,57.0017 a 24,6.9985714 0 1 1 -47.9999991,0 24,6.9985714 0 1 1 47.9999991,0 z" opacity=".2"/><path id="path4190" fill="url(#radialGradient4192)" fill-opacity="1" stroke="none" d="m 47.999998,59.0017 a 16,4.9988822 0 1 1 -31.999999,0 16,4.9988822 0 1 1 31.999999,0 z" opacity=".4"/></g><path clip-rule="nonzero" style="isolation:auto;mix-blend-mode:normal;solid-color:#000;solid-opacity:1;marker:none" id="path4417" fill="url(#linearGradient4663-2)" fill-opacity="1" fill-rule="nonzero" stroke="none" stroke-dasharray="none" stroke-dashoffset="0" stroke-linecap="butt" stroke-linejoin="miter" stroke-miterlimit="4" stroke-opacity="1" stroke-width="1" d="M 16,1 4.0001876,4.925452 c -6.897e-4,8.26343 -0.037482,12.79351 1.4155931,16.072726 C 6.8695275,24.27891 9.8528691,26.438084 16,30 c 6.14713,-3.561916 9.130473,-5.72109 10.58422,-9.001822 1.453074,-3.279216 1.416282,-7.809296 1.415592,-16.072726 L 16,1 Z" color="#000" color-interpolation="sRGB" color-interpolation-filters="linearRGB" color-rendering="auto" display="inline" enable-background="accumulate" image-rendering="auto" opacity="1" overflow="visible" shape-rendering="auto" text-rendering="auto" visibility="visible"/><path id="path8119" fill="url(#linearGradient4260)" fill-opacity="1" fill-rule="nonzero" stroke="none" stroke-dasharray="none" stroke-dashoffset="0" stroke-linecap="butt" stroke-linejoin="miter" stroke-miterlimit="4" stroke-opacity="1" stroke-width="1" d="m 6.0018677,6.9999988 9.9986043,-3.5 9.998603,3.5 c 0,13.4742122 0.301775,14.5467162 -9.998603,20.5000002 C 5.6144148,21.502769 6.0018677,20.469294 6.0018677,6.9999988 Z" clip-rule="nonzero" color="#000" color-interpolation="sRGB" color-interpolation-filters="linearRGB" color-rendering="auto" display="inline" enable-background="accumulate" image-rendering="auto" opacity="1" overflow="visible" shape-rendering="auto" text-rendering="auto" visibility="visible" style="isolation:auto;mix-blend-mode:normal;solid-color:#000;solid-opacity:1;marker:none"/><path id="path8169" fill="url(#linearGradient4336)" fill-opacity="1" fill-rule="nonzero" stroke="none" stroke-dasharray="none" stroke-dashoffset="0" stroke-linecap="butt" stroke-linejoin="miter" stroke-miterlimit="4" stroke-opacity="1" stroke-width="1" d="M 4.0003622,4.9322034 16,1 c 0,11.550847 0,19.415254 0,29 C 3.7554717,22.905442 4.0003622,21.398305 4.0003622,4.9322034 Z" clip-rule="nonzero" color="#000" color-interpolation="sRGB" color-interpolation-filters="linearRGB" color-rendering="auto" display="inline" enable-background="accumulate" image-rendering="auto" opacity=".2" overflow="visible" shape-rendering="auto" text-rendering="auto" visibility="visible" style="isolation:auto;mix-blend-mode:normal;solid-color:#000;solid-opacity:1;marker:none"/><path id="path8117" fill="none" fill-opacity="1" fill-rule="nonzero" stroke="#555761" stroke-dasharray="none" stroke-dashoffset="0" stroke-linecap="round" stroke-linejoin="round" stroke-miterlimit="4" stroke-opacity="1" stroke-width="1" d="M 3.5000234,4.5677954 15.999999,0.49999737 28.499975,4.5677954 c 0,17.0339056 0,18.7397966 -12.499976,25.9322126 C 3.5000234,23.307592 3.5000234,21.601701 3.5000234,4.5677954 Z" clip-rule="nonzero" color="#000" color-interpolation="sRGB" color-interpolation-filters="linearRGB" color-rendering="auto" display="inline" enable-background="accumulate" image-rendering="auto" opacity=".5" overflow="visible" shape-rendering="auto" text-rendering="auto" visibility="visible" style="isolation:auto;mix-blend-mode:normal;solid-color:#000;solid-opacity:1"/><path id="path8128" fill="none" fill-opacity="1" stroke="#555761" stroke-linecap="round" stroke-linejoin="round" stroke-opacity="1" stroke-width="1" d="M 6.5009191,7.354165 16,3.999996 25.499081,7.354165 C 25.499081,20.413493 25.692647,21.373287 16,27.000008 6.3073532,21.373287 6.5009191,20.413493 6.5009191,7.354165 Z" opacity=".5"/><path id="path8211" fill="none" fill-opacity="1" fill-rule="nonzero" stroke="url(#linearGradient4318)" stroke-dasharray="none" stroke-dashoffset="0" stroke-linecap="round" stroke-linejoin="round" stroke-miterlimit="4" stroke-opacity="1" stroke-width="1" d="M 4.5,5.2815463 16,1.4999971 27.5,5.2835391 C 27.5,21.239808 27.255895,22.905624 16,29.500008 4.7441054,22.905624 4.5,21.237816 4.5,5.2815463 Z" clip-rule="nonzero" color="#000" color-interpolation="sRGB" color-interpolation-filters="linearRGB" color-rendering="auto" display="inline" enable-background="accumulate" image-rendering="auto" opacity=".7" overflow="visible" shape-rendering="auto" text-rendering="auto" visibility="visible" style="isolation:auto;mix-blend-mode:normal;solid-color:#000;solid-opacity:1;marker:none"/><path clip-rule="nonzero" style="isolation:auto;mix-blend-mode:normal;solid-color:#000;solid-opacity:1;marker:none" id="path4353" fill="none" fill-opacity="0" fill-rule="nonzero" stroke="url(#linearGradient4378)" stroke-dasharray="none" stroke-dashoffset="0" stroke-linecap="round" stroke-linejoin="miter" stroke-miterlimit="4" stroke-opacity="1" stroke-width="1" d="M 16,5.0430389 7.50016,8.0727136 C 7.499817,14.032762 7.49713,17.315574 8.5051597,19.569263 9.5162891,21.829774 11.616123,23.342009 16,25.921924 c 4.383876,-2.579915 6.48371,-4.09215 7.49484,-6.352661 1.008077,-2.253689 1.005343,-5.536501 1.005,-11.4965494 L 16,5.0430389 Z" color="#000" color-interpolation="sRGB" color-interpolation-filters="linearRGB" color-rendering="auto" display="inline" enable-background="accumulate" image-rendering="auto" opacity=".15" overflow="visible" shape-rendering="auto" text-rendering="auto" visibility="visible"/><path id="path4159-3-6-7" fill="#fff" fill-opacity="1" fill-rule="nonzero" stroke="none" stroke-dasharray="none" stroke-dashoffset="0" stroke-linecap="butt" stroke-linejoin="miter" stroke-miterlimit="4" stroke-opacity="1" stroke-width=".843" d="m 16.000003,11 c -0.55981,0 -1.01362,0.447715 -1.01362,1 0,1 0.33787,3.333334 0.67574,6 l 0.67575,0 c 0.33787,-2.666666 0.67575,-5 0.67575,-6 0,-0.552285 -0.45382,-1 -1.01362,-1 z m 0,8 c -0.55981,0 -1.01362,0.447716 -1.01362,1 0,0.552285 0.45381,1 1.01362,1 0.5598,0 1.01362,-0.447715 1.01362,-1 0,-0.552284 -0.45382,-1 -1.01362,-1 z" clip-rule="nonzero" color="#000" color-interpolation="sRGB" color-interpolation-filters="linearRGB" color-rendering="auto" display="inline" enable-background="accumulate" image-rendering="auto" opacity=".3" overflow="visible" shape-rendering="auto" text-rendering="auto" visibility="visible" style="isolation:auto;mix-blend-mode:normal;solid-color:#000;solid-opacity:1;marker:none;filter-blend-mode:normal;filter-gaussianBlur-deviation:0"/><path id="path4159-3-6" fill="#7a0000" fill-opacity="1" fill-rule="nonzero" stroke="none" stroke-dasharray="none" stroke-dashoffset="0" stroke-linecap="butt" stroke-linejoin="miter" stroke-miterlimit="4" stroke-opacity="1" stroke-width=".843" d="m 16.000003,10 c -0.55981,0 -1.01362,0.447715 -1.01362,1 0,1 0.33787,3.333334 0.67574,6 l 0.67575,0 c 0.33787,-2.666666 0.67575,-5 0.67575,-6 0,-0.552285 -0.45382,-1 -1.01362,-1 z m 0,8 c -0.55981,0 -1.01362,0.447716 -1.01362,1 0,0.552285 0.45381,1 1.01362,1 0.5598,0 1.01362,-0.447715 1.01362,-1 0,-0.552284 -0.45382,-1 -1.01362,-1 z" clip-rule="nonzero" color="#000" color-interpolation="sRGB" color-interpolation-filters="linearRGB" color-rendering="auto" display="inline" enable-background="accumulate" image-rendering="auto" opacity="1" overflow="visible" shape-rendering="auto" text-rendering="auto" visibility="visible" style="isolation:auto;mix-blend-mode:normal;solid-color:#000;solid-opacity:1;marker:none"/></svg>