<svg xmlns="http://www.w3.org/2000/svg" xmlns:svg="http://www.w3.org/2000/svg" xmlns:xlink="http://www.w3.org/1999/xlink" id="svg3508" width="16" height="16" version="1.1"><defs id="defs3510"><linearGradient id="linearGradient3125-0" x1="71.204" x2="71.204" y1="6.238" y2="44.341" gradientTransform="matrix(0.13513513,0,0,0.13513507,2.3075663,8.5733088)" gradientUnits="userSpaceOnUse" xlink:href="#linearGradient3101-46"/><linearGradient id="linearGradient3101-46" x1="71.204" x2="71.204" y1="6.238" y2="44.341" gradientTransform="matrix(0.5135135,0,0,0.5135135,-24.836132,-1.021284)" gradientUnits="userSpaceOnUse"><stop id="stop4013-8-6" offset="0" stop-color="#fff" stop-opacity="1"/><stop id="stop4015-11-8" offset=".508" stop-color="#fff" stop-opacity=".235"/><stop id="stop4017-4-7" offset=".835" stop-color="#fff" stop-opacity=".157"/><stop id="stop4019-3-8" offset="1" stop-color="#fff" stop-opacity=".392"/></linearGradient><linearGradient id="linearGradient3166-5" x1="19.759" x2="19.759" y1="24.735" y2="46.702" gradientTransform="matrix(0.36363634,0,0,0.36363634,6.0903963,-0.98144076)" gradientUnits="userSpaceOnUse" xlink:href="#linearGradient4270-7-5-1"/><linearGradient id="linearGradient4270-7-5-1"><stop id="stop4272-8-7-3" offset="0" stop-color="#000" stop-opacity=".328"/><stop id="stop4274-6-3-6" offset="1" stop-color="#000" stop-opacity=".68"/></linearGradient><linearGradient id="linearGradient3131-6" x1="16.626" x2="20.055" y1="15.298" y2="24.628" gradientTransform="matrix(0.1363452,0,0,0.18378386,8.7206963,8.0022988)" gradientUnits="userSpaceOnUse" xlink:href="#linearGradient8265-821-176-38-919-66-249-7-7-1-5-7-842-3"/><linearGradient id="linearGradient8265-821-176-38-919-66-249-7-7-1-5-7-842-3"><stop id="stop5135-1" offset="0" stop-color="#fff" stop-opacity="1"/><stop id="stop5137-8" offset="1" stop-color="#fff" stop-opacity="0"/></linearGradient><linearGradient id="linearGradient3134-8" x1="79" x2="122.714" y1="32" y2="32" gradientTransform="matrix(0,-0.0909091,0.0909091,0,9.0922063,20.72727)" gradientUnits="userSpaceOnUse" xlink:href="#linearGradient4174-396-4"/><linearGradient id="linearGradient4174-396-4"><stop id="stop5101-1" offset="0" stop-color="#000" stop-opacity=".736"/><stop id="stop5103-2" offset="1" stop-color="#000" stop-opacity=".096"/></linearGradient><linearGradient id="linearGradient3137-5" x1="68.313" x2="68.313" y1="52.925" y2="65.922" gradientTransform="matrix(0.04376593,0,0,0.03282445,9.0727163,9.4576488)" gradientUnits="userSpaceOnUse" xlink:href="#linearGradient3990-3-968-6"/><linearGradient id="linearGradient3990-3-968-6"><stop id="stop5069-2" offset="0" stop-color="#fff" stop-opacity="1"/><stop id="stop5071-8" offset="1" stop-color="#fff" stop-opacity="0"/></linearGradient><radialGradient id="radialGradient3140-6" cx="95.838" cy="95.388" r="9.498" fx="95.838" fy="95.388" gradientTransform="matrix(0.13501499,-2.0132531e-8,1.8916035e-8,0.12685679,-0.95926362,-0.15043076)" gradientUnits="userSpaceOnUse" xlink:href="#linearGradient4278-757-5"/><linearGradient id="linearGradient4278-757-5"><stop id="stop5107-6" offset="0" stop-color="#000" stop-opacity="0"/><stop id="stop5109-76" offset=".5" stop-color="#000" stop-opacity="0"/><stop id="stop5111-8" offset="1" stop-color="#000" stop-opacity="1"/></linearGradient><radialGradient id="radialGradient3143-4" cx="23.896" cy="3.99" r="20.397" gradientTransform="matrix(0,0.11731521,-0.15485401,0,12.619156,8.1211788)" gradientUnits="userSpaceOnUse" xlink:href="#linearGradient2867-449-88-871-390-598-476-591-434-148-57-177-691-923-3"/><linearGradient id="linearGradient2867-449-88-871-390-598-476-591-434-148-57-177-691-923-3"><stop id="stop5181-3" offset="0" stop-color="#432f91" stop-opacity="1"/><stop id="stop5183-3" offset="1" stop-color="#1972a2" stop-opacity="1"/></linearGradient><linearGradient id="linearGradient3146-2-5" x1="-166.576" x2="-166.576" y1="49.332" y2="73.351" gradientTransform="matrix(0.09879011,0,0,0.09995268,28.493296,5.7924988)" gradientUnits="userSpaceOnUse" xlink:href="#linearGradient3087-408-4-672-8-5-2"/><linearGradient id="linearGradient3087-408-4-672-8-5-2" x1="7.078" x2="7.078" y1="3.082" y2="45.369" gradientTransform="matrix(0.22110724,0,0,0.22110728,6.6934256,6.693263)" gradientUnits="userSpaceOnUse"><stop id="stop5153-9-6-3" offset="0" stop-color="#232323" stop-opacity="1"/><stop id="stop5155-8-8-9" offset="1" stop-color="#747474" stop-opacity="1"/></linearGradient><radialGradient id="radialGradient3149-8" cx="24.78" cy="4.077" r="20.397" fx="24.78" fy="4.077" gradientTransform="matrix(0,0.19508946,-0.25751464,0,13.024246,5.2222488)" gradientUnits="userSpaceOnUse" xlink:href="#linearGradient3707-319-631-407-324-616-79-9"/><linearGradient id="linearGradient3707-319-631-407-324-616-79-9"><stop id="stop5194-0" offset="0" stop-color="#787878" stop-opacity="1"/><stop id="stop5196-7" offset="1" stop-color="#474747" stop-opacity="1"/></linearGradient><linearGradient id="linearGradient3152-9" x1="71.204" x2="71.204" y1="6.238" y2="44.341" gradientTransform="matrix(0.13513513,0,0,0.13513726,2.3075663,8.5732488)" gradientUnits="userSpaceOnUse" xlink:href="#linearGradient3101-4-766-6"/><linearGradient id="linearGradient3101-4-766-6" x1="71.204" x2="71.204" y1="6.238" y2="44.341" gradientTransform="matrix(0.5135135,0,0,0.5135135,-24.836132,-1.021284)" gradientUnits="userSpaceOnUse"><stop id="stop5091-0" offset="0" stop-color="#fff" stop-opacity="1"/><stop id="stop5093-26" offset=".508" stop-color="#fff" stop-opacity=".235"/><stop id="stop5095-96" offset=".835" stop-color="#fff" stop-opacity=".157"/><stop id="stop5097-7" offset="1" stop-color="#fff" stop-opacity=".392"/></linearGradient><radialGradient id="radialGradient3155-3" cx="10.229" cy="22.955" r="20" fx="10.229" fy="22.955" gradientTransform="matrix(0,0.14982901,-0.17475775,0,16.025876,8.9813488)" gradientUnits="userSpaceOnUse" xlink:href="#linearGradient2867-449-88-871-390-598-476-591-434-148-57-177-641-289-620-227-114-444-680-744-921-551-3-685-166-313-25"/><linearGradient id="linearGradient2867-449-88-871-390-598-476-591-434-148-57-177-641-289-620-227-114-444-680-744-921-551-3-685-166-313-25"><stop id="stop5075-6" offset="0" stop-color="#3e3e3e" stop-opacity="1"/><stop id="stop5077-2" offset=".262" stop-color="#343434" stop-opacity="1"/><stop id="stop5079-4" offset=".705" stop-color="#272727" stop-opacity="1"/><stop id="stop5081-3" offset="1" stop-color="#1d1d1d" stop-opacity="1"/></linearGradient><linearGradient id="linearGradient3157-8" x1="83.59" x2="83.59" y1="73.439" y2="118.827" gradientTransform="matrix(0.06666669,0,0,0.06666669,5.6012863,5.5999988)" gradientUnits="userSpaceOnUse" xlink:href="#linearGradient4077-488-880-992-3"/><linearGradient id="linearGradient4077-488-880-992-3"><stop id="stop5085-9" offset="0" stop-color="#1b1b1b" stop-opacity="1"/><stop id="stop5087-8" offset="1" stop-color="#000" stop-opacity="1"/></linearGradient><radialGradient id="radialGradient3160-7" cx="23.896" cy="3.99" r="20.397" gradientTransform="matrix(0,0.35196648,-0.46458952,0,13.855056,0.36310924)" gradientUnits="userSpaceOnUse" xlink:href="#radialGradient3093-718-5"/><radialGradient id="radialGradient3093-718-5" cx="23.896" cy="3.99" r="20.397" gradientTransform="matrix(0,1.2316483,-1.625754,0,18.486966,-28.721977)" gradientUnits="userSpaceOnUse"><stop id="stop5115-1" offset="0" stop-color="#fff" stop-opacity="1"/><stop id="stop5117-2" offset=".262" stop-color="#ddd" stop-opacity="1"/><stop id="stop5119-0" offset=".661" stop-color="#abacae" stop-opacity="1"/><stop id="stop5121-3" offset="1" stop-color="#89898b" stop-opacity="1"/></radialGradient><radialGradient id="radialGradient3169-1" cx="62.625" cy="4.625" r="10.625" gradientTransform="matrix(0.30037568,0,0,0.0750938,-6.9799537,14.5144)" gradientUnits="userSpaceOnUse" xlink:href="#radialGradient3109-1"/><radialGradient id="radialGradient3109-1" cx="62.625" cy="4.625" r="10.625" gradientTransform="matrix(1.1294118,0,0,0.2823525,-58.729414,19.694118)" gradientUnits="userSpaceOnUse"><stop id="stop8840-3-5" offset="0" stop-color="#000" stop-opacity="1"/><stop id="stop8842-5-9" offset="1" stop-color="#000" stop-opacity="0"/></radialGradient><linearGradient id="linearGradient6549" x1="-107.456" x2="-107.456" y1="-37.385" y2="38.561" gradientTransform="matrix(0.0657842,0,0,0.06827881,16.561056,6.4975778)" gradientUnits="userSpaceOnUse" xlink:href="#linearGradient3871-6-7"/><linearGradient id="linearGradient3871-6-7"><stop id="stop3873-3-2" offset="0" stop-color="#0b85e9" stop-opacity="1"/><stop id="stop3875-4-0" offset="1" stop-color="#69d1ef" stop-opacity="1"/></linearGradient><linearGradient id="linearGradient6554" x1="-96.557" x2="-96.557" y1="110.925" y2="39.992" gradientTransform="matrix(0.0657842,0,0,0.06827881,16.561056,6.4975778)" gradientUnits="userSpaceOnUse" xlink:href="#linearGradient3825-5-8-3"/><linearGradient id="linearGradient3825-5-8-3"><stop id="stop3827-2-3-1" offset="0" stop-color="#e89c42" stop-opacity="1"/><stop id="stop3829-5-0-9" offset="1" stop-color="#faca67" stop-opacity="1"/></linearGradient><linearGradient id="linearGradient3174-3" x1="24" x2="24" y1="5.564" y2="43" gradientTransform="matrix(0.29729729,0,0,0.24324323,0.86615638,3.1621588)" gradientUnits="userSpaceOnUse" xlink:href="#linearGradient3977-7-7"/><linearGradient id="linearGradient3977-7-7"><stop id="stop3979-6-6" offset="0" stop-color="#fff" stop-opacity="1"/><stop id="stop3981-3-44" offset=".036" stop-color="#fff" stop-opacity=".235"/><stop id="stop3983-8-5" offset=".951" stop-color="#fff" stop-opacity=".157"/><stop id="stop3985-2-08" offset="1" stop-color="#fff" stop-opacity=".392"/></linearGradient><linearGradient id="linearGradient3182-5" x1="25.132" x2="25.132" y1=".985" y2="47.013" gradientTransform="matrix(0.34285637,0,0,0.2172834,-0.22726362,3.4518588)" gradientUnits="userSpaceOnUse" xlink:href="#linearGradient3600-9-29"/><linearGradient id="linearGradient3600-9-29"><stop id="stop3602-0-00" offset="0" stop-color="#f4f4f4" stop-opacity="1"/><stop id="stop3604-9-14" offset="1" stop-color="#dbdbdb" stop-opacity="1"/></linearGradient><linearGradient id="linearGradient3185-6" x1="-76.835" x2="-76.844" y1="6.681" y2="52.888" gradientTransform="matrix(0.31606802,1.8694201e-4,6.4779015e-5,0.23894327,38.785246,1.9477188)" gradientUnits="userSpaceOnUse" xlink:href="#linearGradient4623-7-4"/><linearGradient id="linearGradient4623-7-4"><stop id="stop4625-3-72" offset="0" stop-color="#000" stop-opacity=".271"/><stop id="stop4627-1-421" offset="1" stop-color="#000" stop-opacity=".368"/></linearGradient><linearGradient id="linearGradient4054-9" x1="-76.835" x2="-76.844" y1="6.681" y2="52.888" gradientTransform="matrix(0.31606802,1.8694201e-4,6.4779015e-5,0.23894327,33.450626,-13.765542)" gradientUnits="userSpaceOnUse" xlink:href="#linearGradient4623-7-6-0"/><linearGradient id="linearGradient4623-7-6-0"><stop id="stop4625-3-2-8" offset="0" stop-color="#000" stop-opacity=".271"/><stop id="stop4627-1-97-2" offset="1" stop-color="#000" stop-opacity=".368"/></linearGradient><linearGradient id="linearGradient4056-1" x1="25.132" x2="25.132" y1=".985" y2="47.013" gradientTransform="matrix(0.34285637,0,0,0.2172834,-5.5618863,-12.261401)" gradientUnits="userSpaceOnUse" xlink:href="#linearGradient3600-9-2-4"/><linearGradient id="linearGradient3600-9-2-4"><stop id="stop3602-0-80-8" offset="0" stop-color="#f4f4f4" stop-opacity="1"/><stop id="stop3604-9-1-5" offset="1" stop-color="#dbdbdb" stop-opacity="1"/></linearGradient><linearGradient id="linearGradient3977-7-1-5"><stop id="stop3979-6-5-4" offset="0" stop-color="#fff" stop-opacity="1"/><stop id="stop3981-3-4-5" offset=".036" stop-color="#fff" stop-opacity=".235"/><stop id="stop3983-8-3-2" offset=".951" stop-color="#fff" stop-opacity=".157"/><stop id="stop3985-2-1-0" offset="1" stop-color="#fff" stop-opacity=".392"/></linearGradient><linearGradient id="linearGradient3506" x1="24" x2="24" y1="5.564" y2="43" gradientTransform="matrix(0.29729729,0,0,0.24324323,-4.4684666,-12.551097)" gradientUnits="userSpaceOnUse" xlink:href="#linearGradient3977-7-1-5"/></defs><metadata id="metadata3513"/><g id="layer1"><g id="g4048" transform="matrix(0.77529172,0.44761488,-0.44761488,0.77529172,2.9288863,11.68471)"><path id="rect6741-1-2-0-0" fill="none" stroke="url(#linearGradient4054-9)" stroke-dasharray="none" stroke-dashoffset="0" stroke-linecap="butt" stroke-linejoin="round" stroke-miterlimit="4" stroke-opacity="1" stroke-width="1.117" d="m 9.1667057,-1.2132226 -13.0000781,0 0,-11.0000784 13.0000781,0 z" color="#000" display="inline" enable-background="accumulate" overflow="visible" visibility="visible" style="marker:none"/><path id="path4160-9-79" fill="url(#linearGradient4056-1)" fill-opacity="1" stroke="none" d="m -3.3333333,-11.713262 c 2.74980887,0 11.999986,6.25e-4 11.999986,6.25e-4 l 1.4e-5,9.9993754 c 0,0 -7.99999973,0 -12,0 0,-3.333331 0,-6.6666614 0,-9.9999924 z" display="inline"/><path id="path4160-62-0-7" fill="#49bdea" fill-opacity="1" fill-rule="nonzero" stroke="#158bb9" stroke-dasharray="none" stroke-dashoffset="0" stroke-linecap="butt" stroke-linejoin="miter" stroke-miterlimit="4" stroke-opacity="1" stroke-width="1.117" d="m -1.8333334,-10.213262 c 2.06235697,0 8.9999891,4.41e-4 8.9999891,4.41e-4 l 1.1e-5,6.9995594 c 0,0 -5.9999992,0 -9.0000001,0 0,-2.333333 0,-4.6666652 0,-6.9999984 z" color="#000" display="inline" enable-background="accumulate" overflow="visible" visibility="visible" style="marker:none"/><path id="rect6741-1-2-7" fill="none" stroke="url(#linearGradient3506)" stroke-dasharray="none" stroke-dashoffset="0" stroke-linecap="round" stroke-linejoin="miter" stroke-miterlimit="4" stroke-opacity="1" stroke-width="1.117" d="m 8.1666667,-2.2132616 -11,0 0,-9.0000004 11,0 z"/></g><path id="rect6741-1-2-0-7" fill="none" stroke="url(#linearGradient3185-6)" stroke-dasharray="none" stroke-dashoffset="0" stroke-linecap="butt" stroke-linejoin="round" stroke-miterlimit="4" stroke-opacity="1" stroke-width="1" d="m 14.501326,14.50004 -13.0000797,0 0,-11.0000812 13.0000797,0 z" color="#000" display="inline" enable-background="accumulate" overflow="visible" visibility="visible" style="marker:none"/><path id="path4160-9-97" fill="url(#linearGradient3182-5)" fill-opacity="1" stroke="none" d="m 2.0012863,3.9999988 c 2.74981,0 11.9999897,6.2e-4 11.9999897,6.2e-4 L 14.001286,14 c 0,0 -7.9999997,0 -11.9999997,0 0,-3.33333 0,-6.6666612 0,-9.9999912 z" display="inline"/><path id="rect6741-1-2-2" fill="none" stroke="url(#linearGradient3174-3)" stroke-dasharray="none" stroke-dashoffset="0" stroke-linecap="round" stroke-linejoin="miter" stroke-miterlimit="4" stroke-opacity="1" stroke-width="1" d="m 13.501286,13.5 -10.9999997,0 0,-9.0000012 10.9999997,0 z"/><path d="m 3.0012863,4.9999988 0,8.0000012 9.9999997,0 0,-8.0000012 z" style="marker:none" id="rect3055-2-9-6" fill="url(#linearGradient6554)" fill-opacity="1" fill-rule="nonzero" stroke="none" stroke-width="10" color="#000" display="inline" enable-background="accumulate" overflow="visible" visibility="visible"/><path id="path3867-3-5-9" fill="url(#linearGradient6549)" fill-opacity="1" stroke="none" d="m 3.0012863,4.9999988 0,4.082555 c 0.14848,0.07106 0.33651,0.135627 0.53977,0.135627 0.46418,0 0.91812,-0.389189 1.69318,-0.389189 0.77506,0 1.35801,0.489434 2.33523,0.489434 0.97722,0 1.19716,-0.707616 2.4431797,-0.707616 1.24602,0 1.12886,0.448157 1.90909,0.448157 0.53744,0 0.76696,-0.194811 1.07955,-0.318427 l 0,-3.740541 z"/><path d="m 10.012646,8.3501218 c -1.2460197,0 -1.4659597,0.707616 -2.4431797,0.707616 -0.97722,0 -1.56017,-0.489434 -2.33523,-0.489434 -0.77506,0 -1.229,0.389189 -1.69318,0.389189 -0.20326,0 -0.39129,-0.06457 -0.53977,-0.135627 l 0,0.871499 c 0.22336,0.06164 0.51301,0.112039 0.85795,0.112039 0.8795,0 0.75402,-0.306634 1.51137,-0.306634 0.75734,0 1.20343,0.501229 2.22727,0.501229 1.26814,0 1.55916,-0.807863 2.5624997,-0.807863 0.78346,0 0.84229,0.442261 1.70454,0.442261 0.5825,0 0.77595,-0.232336 1.13637,-0.383293 l 0,-0.771252 c -0.31259,0.123616 -0.54211,0.318427 -1.07955,0.318427 -0.78023,0 -0.66307,-0.448157 -1.90909,-0.448157 z" style="marker:none" id="rect3055-2-6-8-1" fill="#fff" fill-opacity="1" fill-rule="nonzero" stroke="none" stroke-width="10" color="#000" display="inline" enable-background="accumulate" overflow="visible" visibility="visible"/><path id="path4160-62-4" fill="none" stroke="#000" stroke-dasharray="none" stroke-dashoffset="0" stroke-linecap="butt" stroke-linejoin="miter" stroke-miterlimit="4" stroke-opacity="1" stroke-width="1" d="m 3.5012863,5.5002098 c 2.06237,0 9.0000597,4.47e-4 9.0000597,4.47e-4 L 12.501356,12.5 c 0,0 -6.0000397,0 -9.0000697,0 0,-2.333263 0,-4.6665262 0,-6.9997882 z" color="#000" display="inline" enable-background="accumulate" opacity=".3" overflow="visible" visibility="visible" style="marker:none"/><path id="path8836-6" fill="url(#radialGradient3169-1)" fill-rule="evenodd" d="m 15.022566,14.86171 c 0,0.44066 -1.42888,0.79787 -3.19149,0.79787 -1.76261,0 -3.1914897,-0.35718 -3.1914897,-0.79787 0,-0.4407 1.4288797,-0.79788 3.1914897,-0.79788 1.76261,0 3.19149,0.35721 3.19149,0.79788 z" opacity=".4"/><path id="path2555-36-9-2" fill="url(#radialGradient3160-7)" stroke="none" d="m 12.001286,8.9999988 c -1.65537,0 -2.9999997,1.3447712 -2.9999997,3.0000012 0,1.65537 1.3447697,3 2.9999997,3 1.65537,0 3,-1.34477 3,-3 0,-1.65537 -1.34477,-3.0000012 -3,-3.0000012 z"/><path d="m 12.001286,10.5 c -0.82769,0 -1.5,0.67239 -1.5,1.5 0,0.82769 0.67239,1.5 1.5,1.5 0.82769,0 1.5,-0.67238 1.5,-1.5 0,-0.82769 -0.67239,-1.5 -1.5,-1.5 z" style="marker:none" id="path2555-36-4-3-8" fill="url(#radialGradient3155-3)" fill-opacity="1" fill-rule="nonzero" stroke="url(#linearGradient3157-8)" stroke-opacity="1" stroke-width="1" color="#000" display="inline" enable-background="accumulate" overflow="visible" visibility="visible"/><path id="path8655-6-38-42" fill="none" stroke="url(#linearGradient3152-9)" stroke-dasharray="none" stroke-dashoffset="0" stroke-linecap="round" stroke-linejoin="round" stroke-miterlimit="4" stroke-width="1" d="m 14.501286,11.99996 c 0,1.38081 -1.11947,2.50004 -2.5,2.50004 -1.38068,0 -2.4999997,-1.11949 -2.4999997,-2.50004 0,-1.38071 1.1193197,-2.4999612 2.5000297,-2.4999612 1.3806,0 2.49997,1.1192312 2.49997,2.4999612 z" color="#000" enable-background="accumulate" opacity=".3"/><path id="path2555-36-5-6" fill="url(#radialGradient3149-8)" fill-opacity="1" stroke="none" d="m 12.001286,9.9999988 c -1.10358,0 -2,0.8965112 -2,2.0000012 0,1.10358 0.89651,2 2,2 1.10358,0 2,-0.89651 2,-2 0,-1.10358 -0.89651,-2.0000012 -2,-2.0000012 z"/><path d="m 13.277886,12 a 1.2766,1.2766 0 0 1 -2.5532,0 1.2766,1.2766 0 1 1 2.5532,0 z" style="marker:none" id="path3200-9" fill="url(#linearGradient3146-2-5)" fill-opacity="1" fill-rule="nonzero" stroke="none" stroke-width="2.136" color="#000" display="inline" enable-background="accumulate" overflow="visible" visibility="visible"/><path id="path2555-3-4-6" fill="url(#radialGradient3143-4)" fill-opacity="1" stroke="none" d="m 12.001286,11 c -0.55175,0 -1,0.44822 -1,1 0,0.55175 0.44825,1 1,1 0.55175,0 1,-0.44822 1,-1 0,-0.55175 -0.44822,-1 -1,-1 z"/><path id="path2555-3-3-5" fill="url(#radialGradient3140-6)" fill-opacity="1" stroke="none" d="m 12.001286,11 c -0.55175,0 -1,0.44823 -1,1 0,0.55175 0.44825,1 1,1 0.55175,0 1,-0.44822 1,-1 0,-0.55175 -0.44822,-1 -1,-1 z" opacity=".5"/><path id="path3220-7-0" fill="url(#linearGradient3137-5)" fill-opacity="1" stroke="none" stroke-width="1" d="m 12.501286,11.56989 a 0.5,0.37500011 0 0 1 -1,0 0.5,0.37500011 0 1 1 1,0 z" color="#000" display="inline" enable-background="accumulate" opacity=".5" overflow="visible" visibility="visible" style="marker:none"/><path id="path8655-6-38-7-6" fill="none" stroke="url(#linearGradient3134-8)" stroke-dasharray="none" stroke-dashoffset="0" stroke-linecap="round" stroke-linejoin="round" stroke-miterlimit="4" stroke-opacity="1" stroke-width="1" d="m 12.001266,10.5 c 0.82848,0 1.50002,0.67168 1.50002,1.5 0,0.82841 -0.67169,1.5 -1.50002,1.5 -0.82843,0 -1.49998,-0.67159 -1.49998,-1.50002 0,-0.82836 0.67154,-1.49998 1.49998,-1.49998 z" color="#000" enable-background="accumulate" opacity=".9"/><path id="path3333-5-1-4-8" fill="url(#linearGradient3131-6)" fill-opacity="1" fill-rule="evenodd" stroke="none" d="m 11.999376,9.0521088 c -1.66354,0 -3.0147997,1.3514112 -3.0147997,3.0148012 0,0.1181 0.007,0.23535 0.0202,0.34993 0.67242,-0.11508 4.8460297,-0.98427 5.8815497,-1.22139 -0.37464,-1.2389712 -1.52677,-2.1433412 -2.88694,-2.1433412 z" opacity=".3"/><path id="path4681-1" fill="url(#linearGradient3166-5)" fill-opacity="1" stroke="none" stroke-width="1" d="m 12.001286,7.9999988 c -2.2091397,0 -3.9999997,1.79086 -3.9999997,4.0000012 0,2.20914 1.79086,4 3.9999997,4 2.20914,0 4,-1.79086 4,-4 0,-2.2091412 -1.79086,-4.0000012 -4,-4.0000012 z" color="#000" display="inline" enable-background="accumulate" opacity=".8" overflow="visible" visibility="visible" style="marker:none"/><path id="path8655-6-6" fill="none" stroke="url(#linearGradient3125-0)" stroke-dasharray="none" stroke-dashoffset="0" stroke-linecap="round" stroke-linejoin="round" stroke-miterlimit="4" stroke-width="1" d="m 14.501286,11.99996 c 0,1.38079 -1.11947,2.5 -2.5,2.5 -1.38068,0 -2.4999997,-1.11947 -2.4999997,-2.5 0,-1.38068 1.1193197,-2.4999212 2.5000297,-2.4999212 1.3806,0 2.49997,1.1192112 2.49997,2.4999212 z" color="#000" enable-background="accumulate" opacity=".8"/></g></svg>