<svg xmlns="http://www.w3.org/2000/svg" xmlns:svg="http://www.w3.org/2000/svg" id="svg3021" width="16" height="16" version="1.1"><metadata id="metadata3026"/><g id="layer1" transform="translate(2.3384945e-6,-47.999998)"><path id="path3029" fill="#333" fill-opacity="1" fill-rule="nonzero" stroke="none" stroke-width="1.546" d="M 8,0 C 3.5817218,0 0,3.581722 0,8 c 0,4.418278 3.5817218,8 8,8 4.418278,0 8,-3.581722 8,-8 C 16,3.581722 12.418278,0 8,0 z m 0,1 c 3.865993,0 7,3.1340066 7,7 0,1.9721789 -0.843959,3.727686 -2.15625,5 C 12.400465,11.273103 10.868974,10 9,10 L 7,10 C 5.1310259,10 3.5995352,11.273103 3.15625,13 1.8439594,11.727686 1,9.9721789 1,8 1,4.1340066 4.1340066,1 8,1 z" color="#000" display="inline" enable-background="accumulate" overflow="visible" transform="translate(-2.3384945e-6,47.999998)" visibility="visible" style="marker:none"/><path d="m 7.9999979,51.249998 c -1.7949253,0 -3.2499999,1.39911 -3.2499999,3.125 0,1.72589 1.4550746,3.125 3.2499999,3.125 1.7949253,0 3.2500001,-1.39911 3.2500001,-3.125 0,-1.72589 -1.4550748,-3.125 -3.2500001,-3.125 z" style="marker:none" id="rect3049" fill="#333" fill-opacity="1" fill-rule="nonzero" stroke="none" stroke-width="2" color="#000" display="inline" enable-background="accumulate" overflow="visible" visibility="visible"/></g></svg>