<svg xmlns="http://www.w3.org/2000/svg" xmlns:svg="http://www.w3.org/2000/svg" xmlns:xlink="http://www.w3.org/1999/xlink" id="svg2528" width="16" height="16" version="1.0"><metadata id="metadata26"/><defs id="defs2530"><linearGradient id="linearGradient4011"><stop id="stop4013" offset="0" stop-color="#fff" stop-opacity="1"/><stop id="stop4015" offset=".508" stop-color="#fff" stop-opacity=".235"/><stop id="stop4017" offset=".835" stop-color="#fff" stop-opacity=".157"/><stop id="stop4019" offset="1" stop-color="#fff" stop-opacity=".392"/></linearGradient><linearGradient id="linearGradient947"><stop id="stop943" offset="0" stop-color="#ed5353" stop-opacity="1"/><stop id="stop945" offset="1" stop-color="#c6262e" stop-opacity="1"/></linearGradient><linearGradient id="linearGradient12398-3" x1="71.204" x2="71.204" y1="6.238" y2="44.341" gradientTransform="matrix(0.35135153,0,0,0.35135153,-17.203685,-0.90930504)" gradientUnits="userSpaceOnUse" xlink:href="#linearGradient4011"/><linearGradient id="linearGradient11527-6-5" x1="2035.165" x2="2035.165" y1="3208.074" y2="3241.997" gradientTransform="matrix(0.57484957,0,0,0.4297553,-1164.0142,-1377.7717)" gradientUnits="userSpaceOnUse" xlink:href="#linearGradient947"/></defs><path id="path2555-7-8-5-0-9" fill="url(#linearGradient11527-6-5)" fill-opacity="1" fill-rule="nonzero" stroke="none" stroke-width="1" d="m 7.9999999,0.50000026 c -4.138243,0 -7.49999996,3.36175724 -7.49999996,7.49999984 C 0.49999994,12.138243 3.8617569,15.5 7.9999999,15.5 12.138243,15.5 15.500007,12.138243 15.5,8.0000001 15.5,3.8617575 12.138243,0.50000026 7.9999999,0.50000026 Z" color="#000" display="inline" enable-background="accumulate" opacity=".99" overflow="visible" visibility="visible" style="marker:none"/><path id="path2555-7-8-5-1" fill="none" stroke="#7a0000" stroke-dasharray="none" stroke-dashoffset="0" stroke-linecap="round" stroke-linejoin="round" stroke-miterlimit="4" stroke-opacity="1" stroke-width="1" d="m 7.9999999,0.50000016 c -4.138243,0 -7.49999996,3.36175724 -7.49999996,7.49999994 C 0.49999994,12.138243 3.8617569,15.5 7.9999999,15.5 12.138243,15.5 15.500007,12.138243 15.5,8.0000001 15.5,3.8617574 12.138243,0.50000016 7.9999999,0.50000016 Z" color="#000" display="inline" enable-background="accumulate" opacity=".5" overflow="visible" visibility="visible" style="marker:none"/><path id="path8655-6-0-9-5-0" fill="none" stroke="url(#linearGradient12398-3)" stroke-dasharray="none" stroke-dashoffset="0" stroke-linecap="round" stroke-linejoin="round" stroke-miterlimit="4" stroke-opacity="1" stroke-width="1" d="M 14.5,7.9997641 C 14.5,11.589736 11.589634,14.5 8.0000789,14.5 c -3.589884,0 -6.500079,-2.910298 -6.500079,-6.5002359 0,-3.5898015 2.910195,-6.4997709 6.500079,-6.4997709 3.5895551,0 6.4999211,2.9099694 6.4999211,6.4997709 z" color="#000" display="inline" enable-background="accumulate" opacity=".4" overflow="visible" visibility="visible" style="marker:none"/><path id="path4156-3-6" fill="#7a0000" fill-opacity="1" stroke="none" stroke-dasharray="none" stroke-dashoffset="0" stroke-linecap="butt" stroke-linejoin="miter" stroke-miterlimit="4" stroke-opacity="1" stroke-width=".843" d="M 7,3 A 1.0001,1.0001 0 0 0 6,4 v 4 a 1.0001,1.0001 0 0 0 0.013672,0.1640625 l 0.5,2.9999995 a 1.0001,1.0001 0 0 0 0.1699219,0.410157 C 6.2795432,11.948066 6,12.447764 6,13 c 0,1.047198 0.9528024,2 2,2 1.0471976,0 2,-0.952802 2,-2 0,-0.552236 -0.2795432,-1.051934 -0.6835938,-1.425781 a 1.0001,1.0001 0 0 0 0.1699219,-0.410157 l 0.5,-2.9999995 A 1.0001,1.0001 0 0 0 10,8 V 4 A 1.0001,1.0001 0 0 0 9,3 Z" opacity=".05" vector-effect="none" style="marker:none;font-variant-east_asian:normal"/><path stroke-linejoin="miter" style="font-variant-east_asian:normal;marker:none" id="path4156-3" fill="#7a0000" fill-opacity="1" stroke="none" stroke-dasharray="none" stroke-dashoffset="0" stroke-linecap="butt" stroke-miterlimit="4" stroke-opacity="1" stroke-width=".843" d="m 7,4 v 4 l 0.5,3 h 1 L 9,8 V 4 Z m 1,8 a 1,1 0 0 0 -1,1 1,1 0 0 0 1,1 1,1 0 0 0 1,-1 1,1 0 0 0 -1,-1 z" opacity=".15" vector-effect="none"/><path id="path4156" fill="#fff" fill-opacity="1" stroke="none" stroke-dasharray="none" stroke-linecap="butt" stroke-linejoin="round" stroke-miterlimit="4" stroke-opacity="1" stroke-width="2" d="m 7,3 v 4 l 0.5,3 h 1 L 9,7 V 3 Z m 1,8 a 1,1 0 0 0 -1,1 1,1 0 0 0 1,1 1,1 0 0 0 1,-1 1,1 0 0 0 -1,-1 z" opacity="1"/></svg>