<svg xmlns="http://www.w3.org/2000/svg" xmlns:svg="http://www.w3.org/2000/svg" xmlns:xlink="http://www.w3.org/1999/xlink" id="svg2403" width="16" height="16" version="1.0"><metadata id="metadata43"/><defs id="defs2405"><linearGradient id="linearGradient259-942"><stop id="stop3802" offset="0" stop-color="#fff" stop-opacity="1"/><stop id="stop3804" offset="1" stop-color="#e0e0e0" stop-opacity="1"/></linearGradient><linearGradient id="linearGradient2401" x1="108.265" x2="25.818" y1="110.281" y2="14.029" gradientTransform="matrix(0.15762017,0,0,0.11708281,-18.683711,-15.529654)" gradientUnits="userSpaceOnUse" xlink:href="#linearGradient259-942"/><linearGradient id="linearGradient3610-302"><stop id="stop3796" offset="0" stop-color="#333" stop-opacity="1"/><stop id="stop3798" offset="1" stop-color="#292929" stop-opacity="1"/></linearGradient><linearGradient id="linearGradient2398" x1="-24.032" x2="-24.098" y1="-13.091" y2="-40.164" gradientTransform="matrix(0.31428599,0,0,0.33333321,-0.45486079,0.99818463)" gradientUnits="userSpaceOnUse" xlink:href="#linearGradient3610-302"/><linearGradient id="linearGradient4157-401-351"><stop id="stop3790" offset="0" stop-color="#262626" stop-opacity="1"/><stop id="stop3792" offset="1" stop-color="#828282" stop-opacity="1"/></linearGradient><linearGradient id="linearGradient2396" x1="28.938" x2="105.365" y1="17.333" y2="92.824" gradientTransform="matrix(0.138442,0,0,0.1141004,-17.408582,-14.556432)" gradientUnits="userSpaceOnUse" xlink:href="#linearGradient4157-401-351"/><linearGradient id="linearGradient3242"><stop id="stop3244" offset="0" stop-color="#f8b17e" stop-opacity="1"/><stop id="stop3246" offset=".262" stop-color="#e35d4f" stop-opacity="1"/><stop id="stop3248" offset=".661" stop-color="#c6262e" stop-opacity="1"/><stop id="stop3250" offset="1" stop-color="#690b54" stop-opacity="1"/></linearGradient><linearGradient id="linearGradient4425" x1="229.01" x2="229.01" y1="600.009" y2="635.009" gradientTransform="matrix(-1,0,0,-1,456.02,1228.029)" gradientUnits="userSpaceOnUse" xlink:href="#linearGradient3242"/><linearGradient id="linearGradient4421" x1="229.01" x2="229.01" y1="600.009" y2="635.009" gradientTransform="matrix(-1,0,0,-1,456.02,1228.029)" gradientUnits="userSpaceOnUse" xlink:href="#linearGradient3242"/><linearGradient id="linearGradient4423" x1="229.01" x2="229.01" y1="600.009" y2="635.009" gradientTransform="matrix(-1,0,0,-1,456.02,1228.029)" gradientUnits="userSpaceOnUse" xlink:href="#linearGradient3242"/></defs><rect id="rect3580" width="13.989" height="11.974" x="-14.987" y="-14.002" fill="url(#linearGradient2401)" fill-opacity="1" stroke="none" stroke-dasharray="none" stroke-linecap="round" stroke-linejoin="miter" stroke-miterlimit="4" stroke-opacity=".312" stroke-width="1" transform="matrix(-0.99999828,0.00185697,-8.9649108e-4,-0.9999996,0,0)"/><rect id="rect3582" width="10.98" height="8.956" x="-13.508" y="-12.51" fill="url(#linearGradient2396)" fill-opacity="1" stroke="url(#linearGradient2398)" stroke-dasharray="none" stroke-linecap="round" stroke-linejoin="miter" stroke-miterlimit="4" stroke-opacity="1" stroke-width="1" rx="0" ry="0" transform="matrix(-0.99999202,0.0039942,0.0022949,-0.99999737,0,0)"/><g id="layer12-9" fill="#000" fill-opacity="1" fill-rule="nonzero" stroke="none" stroke-width=".979" color="#000" display="inline" opacity=".3" transform="matrix(-0.57083315,0,0,0.57083315,138.1465,-341.49253)" visibility="visible" style="marker:none"><path id="path4222-68" fill="#000" fill-opacity="1" fill-rule="nonzero" stroke="none" stroke-width=".979" d="m 228.01,607.02 c -3.86,0 -7.0073,3.166 -7.0073,7.0103 0,3.8443 3.1472,6.9787 7.0073,6.9787 3.86,0 7.0073,-3.1344 7.0073,-6.9787 0,-3.8443 -3.1472,-7.0103 -7.0073,-7.0103 z m 0,2.021 c 2.7769,0 5.0097,2.2237 5.0097,4.9893 0,2.7656 -2.2328,4.9577 -5.0097,4.9577 -2.777,0 -5.0097,-2.1921 -5.0097,-4.9577 0,-2.7656 2.2328,-4.9893 5.0097,-4.9893 z" color="#000" display="inline" enable-background="accumulate" overflow="visible" visibility="visible" style="text-indent:0;text-transform:none;block-progression:tb;marker:none"/><path id="path4992-7" fill="#000" fill-opacity="1" fill-rule="nonzero" stroke="none" stroke-width=".979" d="m 231.3069,609.3114 -8,8 1.4062,1.4062 8,-8 -1.4062,-1.4062 z" color="#000" display="inline" enable-background="accumulate" overflow="visible" visibility="visible" style="text-indent:0;text-transform:none;block-progression:tb;marker:none"/></g><g id="layer12" fill="url(#linearGradient4425)" fill-opacity="1" fill-rule="nonzero" stroke="none" color="#000" display="inline" transform="matrix(0.57083315,0,0,-0.57083315,-122.16483,358.50714)" visibility="visible" style="marker:none"><path id="path4222" fill="url(#linearGradient4421)" fill-opacity="1" fill-rule="nonzero" stroke="none" d="m 228.01,607.02 c -3.86,0 -7.0073,3.166 -7.0073,7.0103 0,3.8443 3.1472,6.9787 7.0073,6.9787 3.86,0 7.0073,-3.1344 7.0073,-6.9787 0,-3.8443 -3.1472,-7.0103 -7.0073,-7.0103 z m 0,2.021 c 2.7769,0 5.0097,2.2237 5.0097,4.9893 0,2.7656 -2.2328,4.9577 -5.0097,4.9577 -2.777,0 -5.0097,-2.1921 -5.0097,-4.9577 0,-2.7656 2.2328,-4.9893 5.0097,-4.9893 z" color="#000" display="inline" enable-background="accumulate" overflow="visible" visibility="visible" style="text-indent:0;text-transform:none;block-progression:tb;marker:none"/><path id="path4992" fill="url(#linearGradient4423)" fill-opacity="1" fill-rule="nonzero" stroke="none" d="m 231.3069,609.3114 -8,8 1.4062,1.4062 8,-8 -1.4062,-1.4062 z" color="#000" display="inline" enable-background="accumulate" overflow="visible" visibility="visible" style="text-indent:0;text-transform:none;block-progression:tb;marker:none"/></g><rect id="rect4164" width="14.989" height="12.971" x="-15.487" y="-14.501" fill="none" fill-opacity="1" stroke="#000" stroke-dasharray="none" stroke-linecap="round" stroke-linejoin="round" stroke-miterlimit="4" stroke-opacity=".302" stroke-width="1" transform="matrix(-0.99999824,0.00187754,-8.8667e-4,-0.99999961,0,0)"/></svg>