<svg xmlns="http://www.w3.org/2000/svg" xmlns:svg="http://www.w3.org/2000/svg" id="svg3773" width="16" height="16" version="1.1"><metadata id="metadata3778"/><g id="layer1" fill="#333"><path id="path4391" fill="#333" fill-opacity="1" fill-rule="nonzero" stroke="none" stroke-width="1" d="m 8,3.03125 c -2.8534221,0 -5.468321,1.111063 -7.5,2.9375 l 1.28125,1.4375 C 3.5929659,5.8178024 5.5135772,5.03125 8,5.03125 c 2.486423,0 4.320271,0.7394634 6.21875,2.40625 L 15.5,5.96875 C 13.468321,4.142313 10.853421,3.03125 8,3.03125 z" color="#000" display="inline" enable-background="accumulate" opacity=".4" overflow="visible" visibility="visible" style="marker:none"/><path d="m 8,7.03125 c -1.8478881,0 -3.514191,0.750325 -4.875,1.875 L 4.46875,10.3125 C 5.37512,9.6633276 6.7673879,9.03125 7.9375,9.03125 c 1.198417,0 2.67452,0.6342656 3.59375,1.3125 L 12.90625,8.875 C 11.545441,7.750325 9.847888,7.03125 8,7.03125 z m 0,4 c -0.883784,0 -1.764803,0.477309 -2.125,0.875 L 8,14.1875 10.125,11.90625 C 9.7648031,11.487997 8.883784,11.03125 8,11.03125 z" style="marker:none" id="path3838" fill="#333" fill-opacity="1" fill-rule="nonzero" stroke="none" stroke-width="1" color="#000" display="inline" enable-background="accumulate" overflow="visible" visibility="visible"/></g><path d="m 13.5,9.5968504 c -0.923333,0 -1.666667,0.7289696 -1.666667,1.6258006 l 0,0.77538 C 11.371667,11.998031 11,12.355007 11,12.798425 l 0,2.401181 C 11,15.643024 11.371667,16 11.833333,16 l 3.333334,0 C 15.628333,16 16,15.643024 16,15.199606 l 0,-2.401181 c 0,-0.443418 -0.371667,-0.800394 -0.833333,-0.800394 l 0,-0.77538 c 0,-0.896831 -0.743334,-1.6258006 -1.666667,-1.6258006 z m 0,0.8003936 c 0.461667,0 0.833333,0.354065 0.833333,0.800394 l 0,0.800393 -1.666666,0 0,-0.800393 c 0,-0.446329 0.371666,-0.800394 0.833333,-0.800394 z" style="marker:none" id="rect2822" fill="#333" fill-opacity="1" fill-rule="nonzero" stroke="none" stroke-width="1" color="#000" display="inline" enable-background="accumulate" overflow="visible" visibility="visible"/></svg>