<svg xmlns="http://www.w3.org/2000/svg" xmlns:svg="http://www.w3.org/2000/svg" xmlns:xlink="http://www.w3.org/1999/xlink" id="svg5808" width="16" height="16" version="1.1"><defs id="defs5810"><linearGradient id="linearGradient4838"><stop id="stop4840" offset="0" stop-color="#000" stop-opacity="1"/><stop id="stop4842" offset="1" stop-color="#000" stop-opacity="0"/></linearGradient><linearGradient id="linearGradient4832"><stop id="stop4834" offset="0" stop-color="#fff" stop-opacity="1"/><stop id="stop4836" offset="1" stop-color="#fff" stop-opacity="1"/></linearGradient><linearGradient id="linearGradient4826"><stop id="stop4828" offset="0" stop-color="#fff" stop-opacity="1"/><stop id="stop4830" offset="1" stop-color="#fff" stop-opacity="1"/></linearGradient><linearGradient id="linearGradient6807" x1="223.511" x2="223.511" y1="1199.033" y2="1190.897" gradientTransform="matrix(0.88366288,0,0,0.88184313,-190.93578,-1041.3961)" gradientUnits="userSpaceOnUse" xlink:href="#linearGradient6801"/><linearGradient id="linearGradient6801"><stop id="stop6803" offset="0" stop-color="#fff" stop-opacity="1"/><stop id="stop6805" offset="1" stop-color="#fff" stop-opacity="0"/></linearGradient><linearGradient id="linearGradient6455" x1="16.646" x2="1.036" y1="-33.686" y2="-33.686" gradientTransform="matrix(0,-0.48414005,-0.46524241,0,-10.763163,10.845084)" gradientUnits="userSpaceOnUse" xlink:href="#linearGradient4222-8-1-7-8-1-5-9"/><linearGradient id="linearGradient4222-8-1-7-8-1-5-9"><stop id="stop4224-4-3-2-5-0-2-7" offset="0" stop-color="#000" stop-opacity="1"/><stop id="stop4226-8-1-6-0-5-2-0" offset="1" stop-color="#000" stop-opacity="0"/></linearGradient><linearGradient id="linearGradient4781" x1="30.946" x2="30.946" y1="-2.96" y2="13.473" gradientTransform="matrix(0.63076428,0,0,0.63059955,-9.4732049,3.2618991)" gradientUnits="userSpaceOnUse" xlink:href="#linearGradient4838"/><linearGradient id="linearGradient3838"><stop id="stop3840" offset="0" stop-color="#ffe880" stop-opacity="1"/><stop id="stop3842" offset="1" stop-color="#fff69c" stop-opacity="1"/></linearGradient><linearGradient id="linearGradient6728-5"><stop id="stop6730-4" offset="0" stop-color="#c8a100" stop-opacity="1"/><stop id="stop6732-0" offset="1" stop-color="#bc9000" stop-opacity="1"/></linearGradient><linearGradient id="linearGradient4890" x1="8" x2="8" y1="15" y2="0" gradientTransform="translate(-8.2871149e-5,1.0047489)" gradientUnits="userSpaceOnUse" xlink:href="#linearGradient4832"/><linearGradient id="linearGradient4898" x1="8" x2="8" y1="15" y2="0" gradientTransform="translate(-8.2871149e-5,1.0047489)" gradientUnits="userSpaceOnUse" xlink:href="#linearGradient4826"/></defs><metadata id="metadata5813"/><path id="path4793" fill="url(#linearGradient4890)" fill-opacity="1" stroke="url(#linearGradient4898)" stroke-dasharray="none" stroke-linejoin="round" stroke-miterlimit="4" stroke-opacity="1" stroke-width="2" d="m 8.2185841,2.318278 -0.46875,1.1875 -1.1875,3.0625 -0.09375,0.3125 -0.34375,0 -3.34375,0.1875 -1.28125,0.062 1,0.8125 2.59375,2.0938 0,0.031 0.28125,0.2188 -0.09375,0.25 0,0.031 -0.84375,3.1875 -0.34375,1.25 1.09375,-0.7187 2.78125,-1.8125 0.25,-0.1563 0.25,0.1563 2.7812499,1.8125 1.09375,0.7187 -0.34375,-1.25 -0.84375,-3.1875 0,-0.031 -0.09375,-0.25 0.28125,-0.2188 0,-0.031 2.59375,-2.0938 1,-0.8125 -1.28125,-0.062 -3.34375,-0.1875 -0.3437499,0 -0.09375,-0.3125 -1.1875,-3.0625 -0.46875,-1.1875 z" baseline-shift="baseline" color="#000" direction="ltr" display="inline" enable-background="accumulate" font-family="sans-serif" font-stretch="normal" font-style="normal" font-variant="normal" font-weight="normal" letter-spacing="normal" opacity=".1" overflow="visible" text-anchor="start" text-decoration="none" visibility="visible" word-spacing="normal" writing-mode="lr-tb" style="line-height:normal;-inkscape-font-specification:sans-serif;text-indent:0;text-align:start;text-decoration-line:none;text-transform:none;block-progression:tb;marker:none"/><path id="path4806" fill="#000" fill-opacity="1" fill-rule="nonzero" stroke="none" stroke-dasharray="none" stroke-dashoffset="0" stroke-linecap="butt" stroke-linejoin="round" stroke-miterlimit="4" stroke-opacity="1" stroke-width="1" d="m 8.2185841,3.1766239 0.0039,0.00977 1.179688,3.0429688 0.08789,0.2949218 c 0.06373,0.2110023 0.258105,0.3553899 0.478522,0.3554644 l 0.3300779,0 3.308594,0.1855469 -2.578125,2.0820312 C 10.911799,9.242246 10.843612,9.38508 10.843584,9.5359989 l 0,-0.2148438 -0.08789,0.070313 c -0.173065,0.1341134 -0.238756,0.3652186 -0.16211,0.570312 l 0.0625,0.1640629 0,-0.05859 c 3.9e-4,0.0429 0.0063,0.08556 0.01758,0.126953 l 0.837891,3.164063 -2.7695309,-1.804688 -0.0078,-0.0059 -0.25,-0.15625 c -0.16244,-0.101845 -0.36881,-0.101845 -0.53125,0 l -0.25,0.15625 -0.0078,0.0059 -2.769531,1.804688 0.837891,-3.164063 c 0.0091,-0.03189 0.01497,-0.0646 0.01758,-0.09766 l 0,0.0293 0.0625,-0.1640629 c 0.07664,-0.2051006 0.01094,-0.4362092 -0.162139,-0.5703154 l -0.08789,-0.070313 0,0.2148438 c -2.8e-5,-0.150919 -0.06822,-0.2937524 -0.185548,-0.3886715 l -2.578125,-2.0820312 3.308594,-0.1855469 0.330078,0 c 0.220416,-7.77e-5 0.414786,-0.1444669 0.478516,-0.3554688 l 0.08789,-0.2949218 1.179688,-3.0429688 z" baseline-shift="baseline" clip-rule="nonzero" color="#000" color-interpolation="sRGB" color-interpolation-filters="linearRGB" color-rendering="auto" direction="ltr" display="inline" enable-background="accumulate" font-family="sans-serif" font-size="medium" font-stretch="normal" font-style="normal" font-variant="normal" font-weight="normal" image-rendering="auto" letter-spacing="normal" opacity=".05" overflow="visible" shape-rendering="auto" text-anchor="start" text-decoration="none" text-rendering="auto" visibility="visible" word-spacing="normal" writing-mode="lr-tb" style="line-height:normal;-inkscape-font-specification:sans-serif;text-indent:0;text-align:start;text-decoration-line:none;text-decoration-style:solid;text-decoration-color:#000;text-transform:none;block-progression:tb;white-space:normal;isolation:auto;mix-blend-mode:normal;solid-color:#000;solid-opacity:1;marker:none"/><path font-family="sans-serif" style="line-height:normal;-inkscape-font-specification:sans-serif;text-indent:0;text-align:start;text-decoration-line:none;text-transform:none;block-progression:tb;marker:none" id="path3813" fill="none" fill-opacity="1" stroke="#000" stroke-dasharray="none" stroke-linejoin="round" stroke-miterlimit="4" stroke-width="1" d="m 8.2185841,1.8171989 -0.46875,1.1875 -1.1875,3.0625 -0.09375,0.3125 -0.34375,0 -3.34375,0.1875 -1.28125,0.062 1,0.8125 2.59375,2.0938 0,0.031 0.28125,0.2188 -0.09375,0.2500001 0,0.031 -0.84375,3.1875 -0.34375,1.25 1.09375,-0.7187 2.78125,-1.8125 0.25,-0.1563 0.25,0.1563 2.7812499,1.8125 1.09375,0.7187 -0.34375,-1.25 -0.84375,-3.1875 0,-0.031 -0.09375,-0.2500001 0.28125,-0.2188 0,-0.031 2.59375,-2.0938 1,-0.8125 -1.28125,-0.062 -3.34375,-0.1875 -0.3437499,0 -0.09375,-0.3125 -1.1875,-3.0625 -0.46875,-1.1875 z" baseline-shift="baseline" color="#000" direction="ltr" display="inline" enable-background="accumulate" font-stretch="normal" font-style="normal" font-variant="normal" font-weight="normal" letter-spacing="normal" opacity=".3" overflow="visible" text-anchor="start" text-decoration="none" visibility="visible" word-spacing="normal" writing-mode="lr-tb"/><path font-family="sans-serif" style="line-height:normal;-inkscape-font-specification:sans-serif;text-indent:0;text-align:start;text-decoration-line:none;text-transform:none;block-progression:tb;marker:none" id="path4777" fill="none" fill-opacity="1" stroke="url(#linearGradient4781)" stroke-dasharray="none" stroke-linejoin="round" stroke-miterlimit="4" stroke-width="1" d="m 8.1881951,4.4048292 -0.295671,0.748837 -0.749033,1.9312111 -0.05914,0.1970624 -0.216826,0 -2.109117,0.1182375 -0.808167,0.039097 0.630764,0.5123621 1.636045,1.3203497 0,0.019548 0.177403,0.1379751 -0.05914,0.1576503 0,0.019548 -0.532207,2.0100356 -0.216826,0.78825 0.689899,-0.453212 1.754313,-1.142962 0.157691,-0.09856 0.157691,0.09856 1.7543139,1.142962 0.689899,0.453212 -0.216826,-0.78825 -0.532207,-2.0100356 0,-0.019548 -0.05914,-0.1576503 0.177403,-0.1379751 0,-0.019548 1.636044,-1.3203497 0.630764,-0.5123621 -0.808167,-0.039097 -2.109117,-0.1182375 -0.216826,0 L 9.232875,7.0848773 8.483842,5.1536662 8.188171,4.4048292 Z" baseline-shift="baseline" color="#000" direction="ltr" display="inline" enable-background="accumulate" font-stretch="normal" font-style="normal" font-variant="normal" font-weight="normal" letter-spacing="normal" opacity=".1" overflow="visible" text-anchor="start" text-decoration="none" visibility="visible" word-spacing="normal" writing-mode="lr-tb"/></svg>