<svg xmlns="http://www.w3.org/2000/svg" xmlns:svg="http://www.w3.org/2000/svg" xmlns:xlink="http://www.w3.org/1999/xlink" id="svg5808" width="16" height="16" version="1.1"><defs id="defs5810"><linearGradient id="linearGradient4547"><stop id="stop4549" offset="0" stop-color="#fff" stop-opacity="1"/><stop id="stop4551" offset=".268" stop-color="#fff" stop-opacity=".235"/><stop id="stop4553" offset=".694" stop-color="#fff" stop-opacity=".157"/><stop id="stop4555" offset="1" stop-color="#fff" stop-opacity=".392"/></linearGradient><linearGradient id="linearGradient4892"><stop id="stop4894" offset="0" stop-color="#000" stop-opacity="1"/><stop id="stop4896" offset="1" stop-color="#000" stop-opacity="0"/></linearGradient><linearGradient id="linearGradient4898" x1="8" x2="8" y1="15" y2="1" gradientTransform="translate(0,1.4999357)" gradientUnits="userSpaceOnUse" xlink:href="#linearGradient4892"/><linearGradient id="linearGradient3846"><stop id="stop3848" offset="0" stop-color="#fff3cb" stop-opacity="1"/><stop id="stop3850" offset=".262" stop-color="#fdde76" stop-opacity="1"/><stop id="stop3852" offset=".661" stop-color="#f9c440" stop-opacity="1"/><stop id="stop3854" offset="1" stop-color="#e48b20" stop-opacity="1"/></linearGradient><linearGradient id="linearGradient3275-0" x1="27.084" x2="49.414" y1="2.711" y2="25.042" gradientTransform="matrix(0.47140766,0.47021236,-0.47140766,0.47021236,-3.6019461,-15.164327)" gradientUnits="userSpaceOnUse" xlink:href="#linearGradient3846"/><linearGradient id="linearGradient4498" x1="7.624" x2="7.624" y1="6.727" y2="12.225" gradientUnits="userSpaceOnUse" xlink:href="#linearGradient4547"/></defs><metadata id="metadata5813"/><path display="inline" style="line-height:normal;-inkscape-font-specification:sans-serif;text-indent:0;text-align:start;text-decoration-line:none;text-decoration-style:solid;text-decoration-color:#000;text-transform:none;block-progression:tb;white-space:normal;isolation:auto;mix-blend-mode:normal;solid-color:#000;solid-opacity:1;marker:none" id="path4793" fill="url(#linearGradient4898)" fill-opacity="1" fill-rule="nonzero" stroke="none" stroke-dasharray="none" stroke-dashoffset="0" stroke-linecap="butt" stroke-linejoin="round" stroke-miterlimit="4" stroke-opacity="1" stroke-width="1" d="m 8.216797,2.3144531 c -0.203993,5.88e-4 -0.387178,0.12503 -0.462891,0.3144531 l -0.46875,1.1875 -0.002,0.00391 L 6.099609,6.875 l 0.02539,0 c -0.0091,4.001e-4 -0.01825,0.00105 -0.02734,0.00195 l -0.002,0.00586 c -0.0044,0.012213 -0.0083,0.024592 -0.01172,0.037109 L 6.095659,6.87695 2.755815,7.06445 1.476518,7.12695 C 1.019446,7.150087 0.83103,7.7241887 1.185503,8.0136688 l 1,0.8125 2.408203,1.9453122 0,-0.208984 c 1.37e-4,0.149909 0.06752,0.291849 0.183594,0.386719 l 0.03516,-0.09375 c -0.01199,0.03287 -0.0205,0.06691 -0.02539,0.101562 -0.0026,0.01488 -0.0046,0.02987 -0.0059,0.04492 l -0.826172,3.117188 -0.34375,1.248047 c -0.123779,0.445745 0.372047,0.806112 0.757813,0.550781 l 1.091797,-0.71875 2.757812,-1.794922 2.757812,1.794922 1.091797,0.71875 c 0.385767,0.255331 0.881591,-0.105036 0.757813,-0.550781 l -0.34375,-1.248047 -0.826172,-3.121094 0,0.0332 c -1.06e-4,-0.02485 -0.0021,-0.04966 -0.0059,-0.07422 -0.0034,-0.02444 -0.0086,-0.04859 -0.01563,-0.07226 l 0.02539,0.06445 c 0.114498,-0.09356 0.181716,-0.233006 0.183594,-0.38086 l 0,0.203125 2.408203,-1.9453122 1,-0.8125 C 15.60631,7.7242087 15.417963,7.1501636 14.960938,7.1269531 l -1.279297,-0.0625 -3.341797,-0.1875 C 10.330749,6.8760523 10.321631,6.875401 10.3125,6.875 l 0.02539,0 -1.183594,-3.0546875 -0.002,-0.00391 -0.46875,-1.1875 C 8.607307,2.4381549 8.422168,2.3134376 8.21675,2.3144494 Z" baseline-shift="baseline" clip-rule="nonzero" color="#000" color-interpolation="sRGB" color-interpolation-filters="linearRGB" color-rendering="auto" direction="ltr" enable-background="accumulate" font-family="sans-serif" font-size="medium" font-stretch="normal" font-style="normal" font-variant="normal" font-weight="normal" image-rendering="auto" letter-spacing="normal" opacity=".1" overflow="visible" shape-rendering="auto" text-anchor="start" text-decoration="none" text-rendering="auto" visibility="visible" word-spacing="normal" writing-mode="lr-tb"/><path direction="ltr" style="line-height:normal;-inkscape-font-specification:sans-serif;text-indent:0;text-align:start;text-decoration-line:none;text-transform:none;block-progression:tb;marker:none;isolation:auto;mix-blend-mode:normal;solid-color:#000;solid-opacity:1;filter-blend-mode:normal;filter-gaussianBlur-deviation:0" id="path3813-7" fill="url(#linearGradient3275-0)" fill-opacity="1" fill-rule="evenodd" stroke="none" stroke-dasharray="none" stroke-dashoffset="0" stroke-linecap="butt" stroke-linejoin="miter" stroke-miterlimit="4" stroke-opacity="1" stroke-width="1" d="m 8.2186671,1.8124499 -1.75,4.5625 -4.96875,0.2495 3.875,3.1561 -1.28125,4.7185001 4.125,-2.6875 4.1249999,2.6875 -1.28125,-4.7185001 3.875,-3.1561 -4.9687499,-0.2495 z" baseline-shift="baseline" clip-rule="nonzero" color="#000" color-interpolation="sRGB" color-interpolation-filters="linearRGB" color-rendering="auto" display="inline" enable-background="accumulate" font-family="sans-serif" font-stretch="normal" font-style="normal" font-variant="normal" font-weight="normal" image-rendering="auto" letter-spacing="normal" opacity="1" overflow="visible" shape-rendering="auto" text-anchor="start" text-decoration="none" text-rendering="auto" visibility="visible" word-spacing="normal" writing-mode="lr-tb"/><path direction="ltr" style="line-height:normal;-inkscape-font-specification:sans-serif;text-indent:0;text-align:start;text-decoration-line:none;text-transform:none;block-progression:tb;marker:none;isolation:auto;mix-blend-mode:normal;solid-color:#000;solid-opacity:1;filter-blend-mode:normal;filter-gaussianBlur-deviation:0" id="path3813-7-0" fill="none" fill-opacity="1" fill-rule="evenodd" stroke="#906200" stroke-dasharray="none" stroke-dashoffset="0" stroke-linecap="butt" stroke-linejoin="round" stroke-miterlimit="4" stroke-opacity="1" stroke-width="1" d="m 8.2186671,1.81245 -1.75,4.5625 -4.96875,0.2495 3.875,3.1561 -1.28125,4.7185 4.125,-2.6875 4.1249999,2.6875 -1.28125,-4.7185 3.875,-3.1561 -4.9687499,-0.2495 z" baseline-shift="baseline" clip-rule="nonzero" color="#000" color-interpolation="sRGB" color-interpolation-filters="linearRGB" color-rendering="auto" display="inline" enable-background="accumulate" font-family="sans-serif" font-stretch="normal" font-style="normal" font-variant="normal" font-weight="normal" image-rendering="auto" letter-spacing="normal" opacity=".5" overflow="visible" shape-rendering="auto" text-anchor="start" text-decoration="none" text-rendering="auto" visibility="visible" word-spacing="normal" writing-mode="lr-tb"/><path direction="ltr" style="line-height:normal;-inkscape-font-specification:sans-serif;text-indent:0;text-align:start;text-decoration-line:none;text-transform:none;block-progression:tb;isolation:auto;mix-blend-mode:normal;solid-color:#000;solid-opacity:1;marker:none" id="path4466" fill="none" fill-opacity="1" fill-rule="evenodd" stroke="url(#linearGradient4498)" stroke-dasharray="none" stroke-dashoffset="0" stroke-linecap="butt" stroke-linejoin="miter" stroke-miterlimit="4" stroke-opacity="1" stroke-width="1" d="M 8.21875,4.5996094 7.4003906,6.7324219 A 0.99781954,0.99781954 0 0 1 6.5195312,7.3710938 L 4.1425781,7.4902344 6.0058594,9.0078125 a 0.99781954,0.99781954 0 0 1 0.3320312,1.0351565 l -0.5957031,2.191406 1.9316406,-1.257813 a 0.99781954,0.99781954 0 0 1 1.0898438,0 l 1.9316401,1.257813 -0.595703,-2.191406 A 0.99781954,0.99781954 0 0 1 10.431641,9.0078125 L 12.294922,7.4902344 9.9179688,7.3710938 A 0.99781954,0.99781954 0 0 1 9.0371094,6.7324219 L 8.21875,4.5996094 Z" baseline-shift="baseline" clip-rule="nonzero" color="#000" color-interpolation="sRGB" color-interpolation-filters="linearRGB" color-rendering="auto" display="inline" enable-background="accumulate" font-family="sans-serif" font-stretch="normal" font-style="normal" font-variant="normal" font-weight="normal" image-rendering="auto" letter-spacing="normal" opacity=".5" overflow="visible" shape-rendering="auto" text-anchor="start" text-decoration="none" text-rendering="auto" visibility="visible" word-spacing="normal" writing-mode="lr-tb"/></svg>