<svg xmlns="http://www.w3.org/2000/svg" xmlns:svg="http://www.w3.org/2000/svg" xmlns:xlink="http://www.w3.org/1999/xlink" id="svg4998" width="16" height="16" version="1.1"><defs id="defs5000"><radialGradient id="radialGradient5076" cx="184.385" cy="835.83" r="1.825" fx="184.385" fy="835.83" gradientTransform="matrix(0.67909252,0.62844382,-0.83721186,0.90468598,586.80447,-870.66845)" gradientUnits="userSpaceOnUse" xlink:href="#linearGradient5068"/><linearGradient id="linearGradient5068"><stop id="stop5070" offset="0" stop-color="#e40f0d" stop-opacity="1"/><stop id="stop5072" offset="1" stop-color="#940a09" stop-opacity="1"/></linearGradient><linearGradient id="linearGradient5726-5-4-8-8" x1="71.204" x2="71.204" y1="6.238" y2="44.341" gradientTransform="matrix(0.35135133,0,0,0.35135133,-17.203618,-0.90927544)" gradientUnits="userSpaceOnUse" xlink:href="#linearGradient4011-7-0-0-5-6"/><linearGradient id="linearGradient4011-7-0-0-5-6"><stop id="stop4013-1-0-0-8-0" offset="0" stop-color="#fff" stop-opacity="1"/><stop id="stop4015-6-1-4-5-4" offset=".508" stop-color="#fff" stop-opacity=".235"/><stop id="stop4017-5-2-7-7-4" offset=".835" stop-color="#fff" stop-opacity=".157"/><stop id="stop4019-1-1-5-0-6" offset="1" stop-color="#fff" stop-opacity=".392"/></linearGradient><linearGradient id="linearGradient4438-2" x1="78" x2="82.5" y1="909.362" y2="909.362" gradientTransform="translate(-69.999988,-898.36218)" gradientUnits="userSpaceOnUse" spreadMethod="reflect" xlink:href="#linearGradient4432-9"/><linearGradient id="linearGradient4432-9"><stop id="stop4434-5" offset="0" stop-color="#fffefe" stop-opacity="1"/><stop id="stop4440-5" offset=".664" stop-color="#fff" stop-opacity="1"/><stop id="stop4436-8" offset="1" stop-color="#929292" stop-opacity="1"/></linearGradient><linearGradient id="linearGradient4044-1-0-1-6-95"><stop id="stop4046-5-15-6-5-8" offset="0" stop-color="#fff3cb" stop-opacity="1"/><stop id="stop4048-7-8-1-9-4" offset=".433" stop-color="#fdde76" stop-opacity="1"/><stop id="stop4050-0-5-9-1-2" offset=".692" stop-color="#f9c440" stop-opacity="1"/><stop id="stop4052-2-7-1-8-3" offset="1" stop-color="#e48b20" stop-opacity="1"/></linearGradient><radialGradient id="radialGradient4996" cx="282.788" cy="533.112" r="6.83" fx="277.665" fy="533.112" gradientTransform="matrix(0,0.91915984,-0.99587439,0,814.28776,272.60038)" gradientUnits="userSpaceOnUse" xlink:href="#linearGradient4044-1-0-1-6-95"/></defs><metadata id="metadata5003"/><g id="layer1"><path id="path3009-1-5-0-2-7" fill="url(#radialGradient4996)" fill-opacity="1" fill-rule="nonzero" stroke="none" stroke-width=".911" d="m 289.75,533.11218 a 6.375,6.375 0 1 1 -12.75,0 6.375,6.375 0 1 1 12.75,0 z" color="#000" display="inline" enable-background="accumulate" overflow="visible" transform="matrix(1.1764706,0,0,1.1764706,-325.38236,-619.19081)" visibility="visible" style="marker:none"/><path d="m 3.5280018,8.5000042 c -0.009,0.11982 -0.028,0.23495 -0.028,0.35714 0,2.5641798 2.01473,4.6428598 4.5,4.6428598 2.4852802,0 4.5000002,-2.07868 4.5000002,-4.6428598 0,-0.12219 -0.0193,-0.23731 -0.028,-0.35714 l -8.9437502,0 z" style="marker:none" id="path3348-0-7" fill="url(#linearGradient4438-2)" fill-opacity="1" fill-rule="nonzero" stroke="none" stroke-width="1.357" color="#000" display="inline" enable-background="accumulate" overflow="visible" visibility="visible"/><path id="path3348-0-9-3" fill="#fff" fill-opacity="1" fill-rule="nonzero" stroke="none" stroke-width="1.357" d="m 3.5280018,10.000004 c -0.009,0.11982 -0.028,0.23495 -0.028,0.35714 0,2.56418 2.01473,4.64286 4.5,4.64286 2.4852802,0 4.5000002,-2.07868 4.5000002,-4.64286 0,-0.12219 -0.0193,-0.23731 -0.028,-0.35714 l -8.9437502,0 z" color="#000" display="inline" enable-background="accumulate" opacity=".3" overflow="visible" visibility="visible" style="marker:none"/><path d="m 3.5280018,8.5000042 c -0.009,0.11982 -0.028,0.23495 -0.028,0.35714 0,2.5641798 2.01473,4.6428598 4.5,4.6428598 2.4852802,0 4.5000002,-2.07868 4.5000002,-4.6428598 0,-0.12219 -0.0193,-0.23731 -0.028,-0.35714 l -8.9437502,0 z" style="marker:none" id="path3348-0-0-4" fill="none" stroke="#000" stroke-dasharray="none" stroke-miterlimit="4" stroke-opacity="1" stroke-width="1" color="#000" display="inline" enable-background="accumulate" opacity=".3" overflow="visible" visibility="visible"/><path id="path4430-7" fill="none" stroke="#000" stroke-linecap="butt" stroke-linejoin="miter" stroke-opacity="1" stroke-width="1" d="m 4.0000118,10.437504 c 0,0 4.01562,2.39024 8.0000002,0" opacity=".2"/><path id="path8655-6-3-8-4-4-95" fill="none" stroke="url(#linearGradient5726-5-4-8-8)" stroke-dasharray="none" stroke-dashoffset="0" stroke-linecap="round" stroke-linejoin="round" stroke-miterlimit="4" stroke-opacity="1" stroke-width="1" d="m 14.500052,7.9997242 c 0,3.5899998 -2.91036,6.5002998 -6.4999102,6.5002998 -3.58989,0 -6.50009,-2.9103 -6.50009,-6.5002998 0,-3.5898 2.9102,-6.4997 6.50009,-6.4997 3.5895502,0 6.4999102,2.9099 6.4999102,6.4997 l 0,0 z" color="#000" display="inline" enable-background="accumulate" overflow="visible" visibility="visible" style="marker:none"/><path id="path3009-5-8-4-1-5-26" fill="none" stroke="#a53400" stroke-dasharray="none" stroke-miterlimit="4" stroke-opacity="1" stroke-width=".85" d="m 289.75,533.11218 a 6.375,6.375 0 1 1 -12.75,0 6.375,6.375 0 1 1 12.75,0 z" color="#000" display="inline" enable-background="accumulate" opacity=".5" overflow="visible" transform="matrix(1.1764706,0,0,1.1764706,-325.38236,-619.19081)" visibility="visible" style="marker:none"/><path id="path5002" fill="#aa0b0a" fill-opacity="1" stroke="none" d="m 3.0000118,4.5000042 c -1.72357,-1.03412 -1,-4.4999996449767 -1,-4.4999996449767 0,0 1.53102,1.9999996449767 3.5,1.9999996449767 0,0.9911 -1.50498,2.5 -2.5,2.5 z"/><path id="path10766-9-9-6-3" fill="none" stroke="#fff" stroke-dasharray="none" stroke-dashoffset="0" stroke-linecap="round" stroke-linejoin="miter" stroke-miterlimit="4" stroke-opacity="1" stroke-width="1" d="m 3.5000318,7.5000042 c 0,0 0.275,-1 1.45001,-1 1.17499,0 1.54999,1 1.54999,1" color="#000" display="inline" enable-background="accumulate" opacity=".3" overflow="visible" visibility="visible" style="marker:none"/><path id="path10766-3-7-4" fill="none" stroke="#5e4506" stroke-dasharray="none" stroke-dashoffset="0" stroke-linecap="round" stroke-linejoin="miter" stroke-miterlimit="4" stroke-opacity="1" stroke-width="1" d="m 3.5000318,6.5000042 c 0,0 0.275,-1 1.45001,-1 1.17499,0 1.54999,1 1.54999,1" color="#000" display="inline" enable-background="accumulate" overflow="visible" visibility="visible" style="marker:none"/><path id="path10766-9-9-6-3-0" fill="none" stroke="#fff" stroke-dasharray="none" stroke-dashoffset="0" stroke-linecap="round" stroke-linejoin="miter" stroke-miterlimit="4" stroke-opacity="1" stroke-width="1" d="m 12.484252,7.5000042 c 0,0 -0.275,-1 -1.45001,-1 -1.1749902,0 -1.5499902,1 -1.5499902,1" color="#000" display="inline" enable-background="accumulate" opacity=".3" overflow="visible" visibility="visible" style="marker:none"/><path id="path10766-3-7-4-7" fill="none" stroke="#5e4506" stroke-dasharray="none" stroke-dashoffset="0" stroke-linecap="round" stroke-linejoin="miter" stroke-miterlimit="4" stroke-opacity="1" stroke-width="1" d="m 12.484252,6.5000042 c 0,0 -0.275,-1 -1.45001,-1 -1.1749902,0 -1.5499902,1 -1.5499902,1" color="#000" display="inline" enable-background="accumulate" overflow="visible" visibility="visible" style="marker:none"/><path id="path5002-0" fill="url(#radialGradient5076)" fill-opacity="1" stroke="none" d="m 13.000012,4.5000042 c 1.72357,-1.03412 1,-4.4999996449767 1,-4.4999996449767 0,0 -1.53102,1.9999996449767 -3.5,1.9999996449767 0,0.9911 1.50498,2.5 2.5,2.5 z"/></g></svg>