<svg xmlns="http://www.w3.org/2000/svg" xmlns:svg="http://www.w3.org/2000/svg" xmlns:xlink="http://www.w3.org/1999/xlink" id="svg5507" width="16" height="16" version="1.1"><defs id="defs5509"><linearGradient id="linearGradient5726-5-4" x1="71.204" x2="71.204" y1="6.238" y2="44.341" gradientTransform="matrix(0.35135133,0,0,0.35135133,-17.20364,-0.90927844)" gradientUnits="userSpaceOnUse" xlink:href="#linearGradient4011-7-0-0"/><linearGradient id="linearGradient4011-7-0-0"><stop id="stop4013-1-0-0" offset="0" stop-color="#fff" stop-opacity="1"/><stop id="stop4015-6-1-4" offset=".508" stop-color="#fff" stop-opacity=".235"/><stop id="stop4017-5-2-7" offset=".835" stop-color="#fff" stop-opacity=".157"/><stop id="stop4019-1-1-5" offset="1" stop-color="#fff" stop-opacity=".392"/></linearGradient><linearGradient id="linearGradient4260" x1="316" x2="316" y1="911.362" y2="909.362" gradientTransform="matrix(1.500025,0,0,1,-466.00787,-898.36218)" gradientUnits="userSpaceOnUse" xlink:href="#linearGradient4254"/><linearGradient id="linearGradient4254"><stop id="stop4256" offset="0" stop-color="#e84b00" stop-opacity="1"/><stop id="stop4258" offset="1" stop-color="#e44a00" stop-opacity=".799"/></linearGradient><linearGradient id="linearGradient4195" x1="316" x2="319" y1="155.5" y2="155.5" gradientTransform="matrix(1.3333333,0,0,1,-413.33333,-146)" gradientUnits="userSpaceOnUse" spreadMethod="reflect" xlink:href="#linearGradient4189"/><linearGradient id="linearGradient4189"><stop id="stop4191" offset="0" stop-color="#fff" stop-opacity="1"/><stop id="stop4197" offset=".5" stop-color="#fff" stop-opacity="1"/><stop id="stop4193" offset="1" stop-color="#fff" stop-opacity="0"/></linearGradient><linearGradient id="linearGradient11244-6-6" x1="318.42" x2="318.42" y1="906.384" y2="912.357" gradientTransform="matrix(1.25,0,0,1,-387,-898.36218)" gradientUnits="userSpaceOnUse" xlink:href="#linearGradient11238-5-4"/><linearGradient id="linearGradient11238-5-4"><stop id="stop11240-9-6" offset="0" stop-color="#60170a" stop-opacity="1"/><stop id="stop11242-4-1" offset="1" stop-color="#29140a" stop-opacity="1"/></linearGradient><linearGradient id="linearGradient4044-1-0-1"><stop id="stop4046-5-15-6" offset="0" stop-color="#fff3cb" stop-opacity="1"/><stop id="stop4048-7-8-1" offset=".433" stop-color="#fdde76" stop-opacity="1"/><stop id="stop4050-0-5-9" offset=".692" stop-color="#f9c440" stop-opacity="1"/><stop id="stop4052-2-7-1" offset="1" stop-color="#e48b20" stop-opacity="1"/></linearGradient><radialGradient id="radialGradient5505" cx="282.788" cy="533.112" r="6.83" fx="277.665" fy="533.112" gradientTransform="matrix(0,0.91915984,-0.99587439,0,814.28776,272.60038)" gradientUnits="userSpaceOnUse" xlink:href="#linearGradient4044-1-0-1"/></defs><metadata id="metadata5512"/><g id="layer1"><path id="path3009-1-5-0" fill="url(#radialGradient5505)" fill-opacity="1" fill-rule="nonzero" stroke="none" stroke-width=".911" d="m 289.75,533.11218 a 6.375,6.375 0 1 1 -12.75,0 6.375,6.375 0 1 1 12.75,0 z" color="#000" display="inline" enable-background="accumulate" overflow="visible" transform="matrix(1.1764706,0,0,1.1764706,-325.38236,-619.19081)" visibility="visible" style="marker:none"/><path id="path10766-9-9" fill="none" stroke="#fff" stroke-dasharray="none" stroke-dashoffset="0" stroke-linecap="round" stroke-linejoin="miter" stroke-miterlimit="4" stroke-opacity="1" stroke-width="1" d="m 3.5000101,6.5000215 c 0,0 0.275,-1 1.45001,-1 1.17499,0 1.54999,1 1.54999,1" color="#000" display="inline" enable-background="accumulate" opacity=".3" overflow="visible" visibility="visible" style="marker:none"/><path id="path10766-0-2-4" fill="none" stroke="#fff" stroke-dasharray="none" stroke-dashoffset="0" stroke-linecap="round" stroke-linejoin="miter" stroke-miterlimit="4" stroke-opacity="1" stroke-width="1" d="m 9.5000101,6.5000215 c 0,0 0.275,-1 1.4500099,-1 1.17499,0 1.54999,1 1.54999,1" color="#000" display="inline" enable-background="accumulate" opacity=".3" overflow="visible" visibility="visible" style="marker:none"/><path id="path10766-3" fill="none" stroke="#5e4506" stroke-dasharray="none" stroke-dashoffset="0" stroke-linecap="round" stroke-linejoin="miter" stroke-miterlimit="4" stroke-opacity="1" stroke-width="1" d="m 3.5000101,5.5000215 c 0,0 0.275,-1 1.45001,-1 1.17499,0 1.54999,1 1.54999,1" color="#000" display="inline" enable-background="accumulate" overflow="visible" visibility="visible" style="marker:none"/><path id="path10766-0-3" fill="none" stroke="#5e4506" stroke-dasharray="none" stroke-dashoffset="0" stroke-linecap="round" stroke-linejoin="miter" stroke-miterlimit="4" stroke-opacity="1" stroke-width="1" d="m 9.5000101,5.5000215 c 0,0 0.275,-1 1.4500099,-1 1.17499,0 1.54999,1 1.54999,1" color="#000" display="inline" enable-background="accumulate" overflow="visible" visibility="visible" style="marker:none"/><path id="path10931-9" fill="none" stroke="#5e4506" stroke-dasharray="none" stroke-dashoffset="0" stroke-linecap="butt" stroke-linejoin="miter" stroke-miterlimit="4" stroke-opacity="1" stroke-width="1" d="m 2.9358301,3.1564615 c 0,0 1.06419,-2.15646 3.06419,-1.65646" color="#000" display="inline" enable-background="accumulate" overflow="visible" visibility="visible" style="marker:none"/><path id="path10931-6-10" fill="none" stroke="#5e4506" stroke-dasharray="none" stroke-dashoffset="0" stroke-linecap="butt" stroke-linejoin="miter" stroke-miterlimit="4" stroke-opacity="1" stroke-width="1" d="m 13.00021,3.1564615 c 0,0 -1.06419,-2.15646 -3.0641899,-1.65646" color="#000" display="inline" enable-background="accumulate" overflow="visible" visibility="visible" style="marker:none"/><path id="path10931-3-6" fill="#fff" stroke="#fff" stroke-dasharray="none" stroke-dashoffset="0" stroke-linecap="butt" stroke-linejoin="miter" stroke-miterlimit="4" stroke-opacity="1" stroke-width="1" d="m 2.9358301,4.1560015 c 0,0 1.06419,-2.15646 3.06419,-1.65646" color="#000" display="inline" enable-background="accumulate" opacity=".3" overflow="visible" visibility="visible" style="marker:none"/><path id="path10931-6-2-6" fill="#fff" stroke="#fff" stroke-dasharray="none" stroke-dashoffset="0" stroke-linecap="butt" stroke-linejoin="miter" stroke-miterlimit="4" stroke-opacity="1" stroke-width="1" d="m 13.00021,4.1560015 c 0,0 -1.06419,-2.15646 -3.0641899,-1.65646" color="#000" display="inline" enable-background="accumulate" opacity=".3" overflow="visible" visibility="visible" style="marker:none"/><path id="path3348-2" fill="#fff" fill-opacity="1" fill-rule="nonzero" stroke="none" stroke-width="1.357" d="m 3.0311301,9.0000015 c -0.01,0.14379 -0.0311,0.28194 -0.0311,0.42857 0,3.0770205 2.23858,5.5714305 5,5.5714305 2.7614199,0 4.9999999,-2.49441 4.9999999,-5.5714305 0,-0.14663 -0.0214,-0.28478 -0.0311,-0.42857 l -9.9374999,0 z" color="#000" display="inline" enable-background="accumulate" opacity=".2" overflow="visible" visibility="visible" style="marker:none"/><path d="m 3.0311301,8.0000015 c -0.01,0.14379 -0.0311,0.28194 -0.0311,0.42857 0,3.0770205 2.23858,5.5714305 5,5.5714305 2.7614199,0 4.9999999,-2.49441 4.9999999,-5.5714305 0,-0.14663 -0.0214,-0.28478 -0.0311,-0.42857 l -9.9374999,0 z" style="marker:none" id="path3348" fill="url(#linearGradient11244-6-6)" fill-opacity="1" fill-rule="nonzero" stroke="none" stroke-width="1.357" color="#000" display="inline" enable-background="accumulate" overflow="visible" visibility="visible"/><rect id="rect4187" width="8" height="1" x="4" y="9" fill="url(#linearGradient4195)" fill-opacity="1" fill-rule="nonzero" stroke="none" stroke-width="1.357" color="#000" display="inline" enable-background="accumulate" overflow="visible" visibility="visible" style="marker:none"/><rect id="rect4199" width="4" height="1" x="6" y="10" fill="#000" fill-opacity="1" fill-rule="nonzero" stroke="none" stroke-width="1.357" color="#000" display="inline" enable-background="accumulate" overflow="visible" visibility="visible" style="marker:none"/><path d="m 5.0186601,11.000002 c -0.006,0.0479 -0.0187,0.094 -0.0187,0.14286 0,1.02567 1.34317,1.85714 3.00005,1.85714 1.65688,0 3.0000499,-0.83147 3.0000499,-1.85714 0,-0.0489 -0.0135,-0.0949 -0.0188,-0.14286 l -5.9625999,0 z" style="marker:none" id="path3348-1" fill="url(#linearGradient4260)" fill-opacity="1" fill-rule="nonzero" stroke="none" stroke-width="1.357" color="#000" display="inline" enable-background="accumulate" overflow="visible" visibility="visible"/><path id="path8655-6-3-8-4" fill="none" stroke="url(#linearGradient5726-5-4)" stroke-dasharray="none" stroke-dashoffset="0" stroke-linecap="round" stroke-linejoin="round" stroke-miterlimit="4" stroke-opacity="1" stroke-width="1" d="m 14.50003,7.9997215 c 0,3.5900005 -2.91036,6.5003005 -6.4999099,6.5003005 -3.58989,0 -6.50009,-2.9103 -6.50009,-6.5003005 0,-3.5898 2.9102,-6.4997 6.50009,-6.4997 3.5895499,0 6.4999099,2.9099 6.4999099,6.4997 l 0,0 z" color="#000" display="inline" enable-background="accumulate" overflow="visible" visibility="visible" style="marker:none"/><path id="path3009-5-8-4-1" fill="none" stroke="#a53400" stroke-dasharray="none" stroke-miterlimit="4" stroke-opacity="1" stroke-width=".85" d="m 289.75,533.11218 a 6.375,6.375 0 1 1 -12.75,0 6.375,6.375 0 1 1 12.75,0 z" color="#000" display="inline" enable-background="accumulate" opacity=".5" overflow="visible" transform="matrix(1.1764706,0,0,1.1764706,-325.38236,-619.19081)" visibility="visible" style="marker:none"/></g></svg>