<svg xmlns="http://www.w3.org/2000/svg" xmlns:svg="http://www.w3.org/2000/svg" xmlns:xlink="http://www.w3.org/1999/xlink" id="svg5141" width="16" height="16" version="1.1"><defs id="defs5143"><linearGradient id="linearGradient11244" x1="112.274" x2="112.274" y1="218.741" y2="222.785" gradientUnits="userSpaceOnUse" xlink:href="#linearGradient11238"/><linearGradient id="linearGradient11238"><stop id="stop11240" offset="0" stop-color="#60170a" stop-opacity="1"/><stop id="stop11242" offset="1" stop-color="#29140a" stop-opacity="1"/></linearGradient><linearGradient id="linearGradient5726-0" x1="71.204" x2="71.204" y1="6.238" y2="44.341" gradientTransform="matrix(0.35135133,0,0,0.35135133,-17.203654,-0.90927454)" gradientUnits="userSpaceOnUse" xlink:href="#linearGradient4011-7-5"/><linearGradient id="linearGradient4011-7-5"><stop id="stop4013-1-2" offset="0" stop-color="#fff" stop-opacity="1"/><stop id="stop4015-6-2" offset=".508" stop-color="#fff" stop-opacity=".235"/><stop id="stop4017-5-5" offset=".835" stop-color="#fff" stop-opacity=".157"/><stop id="stop4019-1-13" offset="1" stop-color="#fff" stop-opacity=".392"/></linearGradient><linearGradient id="linearGradient4044-1-5"><stop id="stop4046-5-11" offset="0" stop-color="#fff3cb" stop-opacity="1"/><stop id="stop4048-7-0" offset=".433" stop-color="#fdde76" stop-opacity="1"/><stop id="stop4050-0-0" offset=".692" stop-color="#f9c440" stop-opacity="1"/><stop id="stop4052-2-9" offset="1" stop-color="#e48b20" stop-opacity="1"/></linearGradient><radialGradient id="radialGradient5139" cx="282.788" cy="533.112" r="6.83" fx="277.665" fy="533.112" gradientTransform="matrix(0,0.91915984,-0.99587439,0,814.28776,272.60038)" gradientUnits="userSpaceOnUse" xlink:href="#linearGradient4044-1-5"/></defs><metadata id="metadata5146"/><g id="layer1"><path id="path3009-1-2" fill="url(#radialGradient5139)" fill-opacity="1" fill-rule="nonzero" stroke="none" stroke-width=".911" d="m 289.75,533.11218 a 6.375,6.375 0 1 1 -12.75,0 6.375,6.375 0 1 1 12.75,0 z" color="#000" display="inline" enable-background="accumulate" overflow="visible" transform="matrix(1.1764706,0,0,1.1764706,-325.38236,-619.19081)" visibility="visible" style="marker:none"/><path id="path8655-6-3-23" fill="none" stroke="url(#linearGradient5726-0)" stroke-dasharray="none" stroke-dashoffset="0" stroke-linecap="round" stroke-linejoin="round" stroke-miterlimit="4" stroke-opacity="1" stroke-width="1" d="m 14.500016,7.9997255 c 0,3.5900005 -2.91036,6.5003005 -6.4999105,6.5003005 -3.58989,0 -6.50009,-2.9103 -6.50009,-6.5003005 0,-3.5898 2.9102,-6.4997 6.50009,-6.4997 3.5895505,0 6.4999105,2.9099 6.4999105,6.4997 l 0,0 z" color="#000" display="inline" enable-background="accumulate" overflow="visible" visibility="visible" style="marker:none"/><path id="path11236-6" fill="#fff" fill-opacity="1" fill-rule="nonzero" stroke="none" stroke-width="1" d="m 113.2041,220.75713 a 1.0855188,1.8608894 0 1 1 -2.17104,0 1.0855188,1.8608894 0 1 1 2.17104,0 z" color="#000" display="inline" enable-background="accumulate" opacity=".5" overflow="visible" transform="matrix(1.8424369,0,0,1,-198.5714,-208.61802)" visibility="visible" style="marker:none"/><path id="path11236" fill="url(#linearGradient11244)" fill-opacity="1" fill-rule="nonzero" stroke="none" stroke-width="1" d="m 113.2041,220.75713 a 1.0855188,1.8608894 0 1 1 -2.17104,0 1.0855188,1.8608894 0 1 1 2.17104,0 z" color="#000" display="inline" enable-background="accumulate" overflow="visible" transform="matrix(1.8424369,0,0,1,-198.5714,-209.618)" visibility="visible" style="marker:none"/><path id="path11280" fill="#fff" fill-opacity="1" fill-rule="nonzero" stroke="none" stroke-width="1.226" d="m -323.87141,168.55 a 3.0642858,3.0642858 0 1 1 -6.12858,0 3.0642858,3.0642858 0 1 1 6.12858,0 z" color="#000" display="inline" enable-background="accumulate" overflow="visible" transform="matrix(0.8158508,0,0,0.8158508,270.73075,-131.51165)" visibility="visible" style="marker:none"/><path id="path3964-7-4" fill="#000" fill-opacity="1" stroke="none" stroke-width="1" d="m 267.67143,512.297 a 0.8419643,1.7205358 0 1 1 -1.68393,0 0.8419643,1.7205358 0 1 1 1.68393,0 z" color="#000" display="inline" enable-background="accumulate" overflow="visible" transform="matrix(1.0392365,0,0,0.50856252,-273.29892,-254.53505)" visibility="visible" style="marker:none"/><path id="path11280-1" fill="#fff" fill-opacity="1" fill-rule="nonzero" stroke="none" stroke-width="1.226" d="m -323.87141,168.55 a 3.0642858,3.0642858 0 1 1 -6.12858,0 3.0642858,3.0642858 0 1 1 6.12858,0 z" color="#000" display="inline" enable-background="accumulate" overflow="visible" transform="matrix(0.8158508,0,0,0.8158508,278.73075,-131.51165)" visibility="visible" style="marker:none"/><path id="path3964-7-4-0" fill="#000" fill-opacity="1" stroke="none" stroke-width="1" d="m 267.67143,512.297 a 0.8419643,1.7205358 0 1 1 -1.68393,0 0.8419643,1.7205358 0 1 1 1.68393,0 z" color="#000" display="inline" enable-background="accumulate" overflow="visible" transform="matrix(1.0392365,0,0,0.50856252,-265.29892,-254.53505)" visibility="visible" style="marker:none"/><path display="inline" style="marker:none" id="path11280-2" fill="none" stroke="#000" stroke-opacity="1" stroke-width="1.226" d="m -323.87141,168.55 a 3.0642858,3.0642858 0 1 1 -6.12858,0 3.0642858,3.0642858 0 1 1 6.12858,0 z" color="#000" enable-background="accumulate" opacity=".3" overflow="visible" transform="matrix(0.8158508,0,0,0.8158508,270.73075,-131.51165)" visibility="visible"/><path display="inline" style="marker:none" id="path11280-1-9" fill="none" stroke="#000" stroke-opacity="1" stroke-width="1.226" d="m -323.87141,168.55 a 3.0642858,3.0642858 0 1 1 -6.12858,0 3.0642858,3.0642858 0 1 1 6.12858,0 z" color="#000" enable-background="accumulate" opacity=".3" overflow="visible" transform="matrix(0.8158508,0,0,0.8158508,278.73075,-131.51165)" visibility="visible"/><path id="path3009-5-8-3" fill="none" stroke="#a53400" stroke-dasharray="none" stroke-miterlimit="4" stroke-opacity="1" stroke-width=".85" d="m 289.75,533.11218 a 6.375,6.375 0 1 1 -12.75,0 6.375,6.375 0 1 1 12.75,0 z" color="#000" display="inline" enable-background="accumulate" opacity=".5" overflow="visible" transform="matrix(1.1764706,0,0,1.1764706,-325.38236,-619.19081)" visibility="visible" style="marker:none"/><path id="path10931-2" fill="none" stroke="#5e4506" stroke-dasharray="none" stroke-dashoffset="0" stroke-linecap="butt" stroke-linejoin="miter" stroke-miterlimit="4" stroke-opacity="1" stroke-width="1" d="m 2.7081655,2.2744155 c 0,0 1.99985,-1.33545004 3.4819,0.0976" color="#000" display="inline" enable-background="accumulate" overflow="visible" visibility="visible" style="marker:none"/><path id="path10931-6-1" fill="none" stroke="#5e4506" stroke-dasharray="none" stroke-dashoffset="0" stroke-linecap="butt" stroke-linejoin="miter" stroke-miterlimit="4" stroke-opacity="1" stroke-width="1" d="m 13.227866,2.2744155 c 0,0 -1.99985,-1.33545004 -3.4819005,0.0976" color="#000" display="inline" enable-background="accumulate" overflow="visible" visibility="visible" style="marker:none"/></g></svg>