<svg xmlns="http://www.w3.org/2000/svg" xmlns:svg="http://www.w3.org/2000/svg" xmlns:xlink="http://www.w3.org/1999/xlink" id="svg5654" width="16" height="16" version="1.1"><defs id="defs5656"><linearGradient id="linearGradient5726-4" x1="71.204" x2="71.204" y1="6.238" y2="44.341" gradientTransform="matrix(0.35135133,0,0,0.35135133,-17.203663,-0.90927504)" gradientUnits="userSpaceOnUse" xlink:href="#linearGradient4011-7-06"/><linearGradient id="linearGradient4011-7-06"><stop id="stop4013-1-21" offset="0" stop-color="#fff" stop-opacity="1"/><stop id="stop4015-6-9" offset=".508" stop-color="#fff" stop-opacity=".235"/><stop id="stop4017-5-32" offset=".835" stop-color="#fff" stop-opacity=".157"/><stop id="stop4019-1-0" offset="1" stop-color="#fff" stop-opacity=".392"/></linearGradient><linearGradient id="linearGradient4044-1-2"><stop id="stop4046-5-9" offset="0" stop-color="#fff3cb" stop-opacity="1"/><stop id="stop4048-7-9" offset=".433" stop-color="#fdde76" stop-opacity="1"/><stop id="stop4050-0-82" offset=".692" stop-color="#f9c440" stop-opacity="1"/><stop id="stop4052-2-93" offset="1" stop-color="#e48b20" stop-opacity="1"/></linearGradient><radialGradient id="radialGradient5652" cx="282.788" cy="533.112" r="6.83" fx="277.665" fy="533.112" gradientTransform="matrix(0,0.91915984,-0.99587439,0,814.28776,272.60038)" gradientUnits="userSpaceOnUse" xlink:href="#linearGradient4044-1-2"/></defs><metadata id="metadata5659"/><g id="layer1"><path id="path3009-1-3" fill="url(#radialGradient5652)" fill-opacity="1" fill-rule="nonzero" stroke="none" stroke-width=".911" d="m 289.75,533.11218 a 6.375,6.375 0 1 1 -12.75,0 6.375,6.375 0 1 1 12.75,0 z" color="#000" display="inline" enable-background="accumulate" overflow="visible" transform="matrix(1.1764706,0,0,1.1764706,-325.38236,-619.19081)" visibility="visible" style="marker:none"/><path id="path3009-5-8-2" fill="none" stroke="#a53400" stroke-dasharray="none" stroke-miterlimit="4" stroke-opacity="1" stroke-width=".85" d="m 289.75,533.11218 a 6.375,6.375 0 1 1 -12.75,0 6.375,6.375 0 1 1 12.75,0 z" color="#000" display="inline" enable-background="accumulate" opacity=".5" overflow="visible" transform="matrix(1.1764706,0,0,1.1764706,-325.38236,-619.19081)" visibility="visible" style="marker:none"/><path id="path8655-6-3-29" fill="none" stroke="url(#linearGradient5726-4)" stroke-dasharray="none" stroke-dashoffset="0" stroke-linecap="round" stroke-linejoin="round" stroke-miterlimit="4" stroke-opacity="1" stroke-width="1" d="m 14.500007,7.999725 c 0,3.59 -2.91036,6.500301 -6.49991,6.500301 -3.58989,0 -6.50009,-2.910301 -6.50009,-6.500301 0,-3.5898 2.9102,-6.4997 6.50009,-6.4997 3.58955,0 6.49991,2.9099 6.49991,6.4997 l 0,0 z" color="#000" display="inline" enable-background="accumulate" overflow="visible" visibility="visible" style="marker:none"/><path id="path3964-7-8" fill="#43340d" fill-opacity="1" stroke="none" stroke-width="1" d="m 267.67143,512.297 a 0.8419643,1.7205358 0 1 1 -1.68393,0 0.8419643,1.7205358 0 1 1 1.68393,0 z" color="#000" display="inline" enable-background="accumulate" overflow="visible" transform="matrix(0.89077411,0,0,1.1624286,-231.68478,-590.24569)" visibility="visible" style="marker:none"/><path id="path3964-7-7-3" fill="#43340d" fill-opacity="1" stroke="none" stroke-width="1" d="m 267.67143,512.297 a 0.8419643,1.7205358 0 1 1 -1.68393,0 0.8419643,1.7205358 0 1 1 1.68393,0 z" color="#000" display="inline" enable-background="accumulate" overflow="visible" transform="matrix(-0.89077411,0,0,1.1624286,247.68478,-590.24569)" visibility="visible" style="marker:none"/><path id="path4639-4" fill="none" stroke="#fff" stroke-dasharray="none" stroke-dashoffset="0" stroke-linecap="butt" stroke-linejoin="miter" stroke-miterlimit="4" stroke-opacity="1" stroke-width="1" d="m 4.385187,12.468005 c 2.25359,-2.31064 2.22363,0 3.6509,0 1.42727,0 1.64647,-2.34316 3.36568,0" color="#000" display="inline" enable-background="accumulate" opacity=".3" overflow="visible" visibility="visible" style="marker:none"/><path id="path4639" fill="none" stroke="#5e4506" stroke-dasharray="none" stroke-dashoffset="0" stroke-linecap="butt" stroke-linejoin="miter" stroke-miterlimit="4" stroke-opacity="1" stroke-width="1" d="m 4.385187,11.468065 c 2.25359,-2.31064 2.22363,0 3.6509,0 1.42727,0 1.64647,-2.34316 3.36568,0" color="#000" display="inline" enable-background="accumulate" overflow="visible" visibility="visible" style="marker:none"/></g></svg>