<svg xmlns="http://www.w3.org/2000/svg" xmlns:svg="http://www.w3.org/2000/svg" xmlns:xlink="http://www.w3.org/1999/xlink" id="svg5988" width="16" height="16" version="1.1"><defs id="defs5990"><linearGradient id="linearGradient3841"><stop id="stop3843" offset="0" stop-color="#ef4d00" stop-opacity="1"/><stop id="stop3845" offset="1" stop-color="#ff9764" stop-opacity="1"/></linearGradient><linearGradient id="linearGradient10851" x1="184.276" x2="185.272" y1="910.774" y2="909.951" gradientTransform="matrix(0.68349899,0.36267172,-0.39461833,0.62816585,242.98375,-628.89137)" gradientUnits="userSpaceOnUse" xlink:href="#linearGradient10845"/><linearGradient id="linearGradient10845"><stop id="stop10847" offset="0" stop-color="#fff" stop-opacity=".16"/><stop id="stop10849" offset="1" stop-color="#fff" stop-opacity="1"/></linearGradient><linearGradient id="linearGradient5726-5" x1="71.204" x2="71.204" y1="6.238" y2="44.341" gradientTransform="matrix(0.35135133,0,0,0.35135133,-17.203646,-0.90931329)" gradientUnits="userSpaceOnUse" xlink:href="#linearGradient4011-7-0"/><linearGradient id="linearGradient4011-7-0"><stop id="stop4013-1-0" offset="0" stop-color="#fff" stop-opacity="1"/><stop id="stop4015-6-1" offset=".508" stop-color="#fff" stop-opacity=".235"/><stop id="stop4017-5-2" offset=".835" stop-color="#fff" stop-opacity=".157"/><stop id="stop4019-1-1" offset="1" stop-color="#fff" stop-opacity=".392"/></linearGradient><linearGradient id="linearGradient4044-1-0"><stop id="stop4046-5-15" offset="0" stop-color="#fff3cb" stop-opacity="1"/><stop id="stop4048-7-8" offset=".433" stop-color="#fdde76" stop-opacity="1"/><stop id="stop4050-0-5" offset=".692" stop-color="#f9c440" stop-opacity="1"/><stop id="stop4052-2-7" offset="1" stop-color="#e48b20" stop-opacity="1"/></linearGradient><radialGradient id="radialGradient5986" cx="282.788" cy="533.112" r="6.83" fx="277.665" fy="533.112" gradientTransform="matrix(0,0.91915984,-0.99587439,0,814.28776,272.60038)" gradientUnits="userSpaceOnUse" xlink:href="#linearGradient4044-1-0"/><linearGradient id="linearGradient3847" x1="9" x2="12" y1="11" y2="11" gradientUnits="userSpaceOnUse" xlink:href="#linearGradient3841"/></defs><metadata id="metadata5993"/><g id="layer1"><path id="path3009-1-5" fill="url(#radialGradient5986)" fill-opacity="1" fill-rule="nonzero" stroke="none" stroke-width=".911" d="m 289.75,533.11218 a 6.375,6.375 0 1 1 -12.75,0 6.375,6.375 0 1 1 12.75,0 z" color="#000" display="inline" enable-background="accumulate" overflow="visible" transform="matrix(1.1764706,0,0,1.1764706,-325.38236,-619.19084)" visibility="visible" style="marker:none"/><path id="path8655-6-3-8" fill="none" stroke="url(#linearGradient5726-5)" stroke-dasharray="none" stroke-dashoffset="0" stroke-linecap="round" stroke-linejoin="round" stroke-miterlimit="4" stroke-opacity="1" stroke-width="1" d="m 14.500024,7.9996867 c 0,3.5900013 -2.91036,6.5003013 -6.4999102,6.5003013 -3.58989,0 -6.50009,-2.9103 -6.50009,-6.5003013 0,-3.5898 2.9102,-6.4997 6.50009,-6.4997 3.5895502,0 6.4999102,2.9099 6.4999102,6.4997 l 0,0 z" color="#000" display="inline" enable-background="accumulate" overflow="visible" visibility="visible" style="marker:none"/><path id="path3009-5-8-4" fill="none" stroke="#a53400" stroke-dasharray="none" stroke-miterlimit="4" stroke-opacity="1" stroke-width=".85" d="m 289.75,533.11218 a 6.375,6.375 0 1 1 -12.75,0 6.375,6.375 0 1 1 12.75,0 z" color="#000" display="inline" enable-background="accumulate" opacity=".5" overflow="visible" transform="matrix(1.1764706,0,0,1.1764706,-325.38236,-619.19084)" visibility="visible" style="marker:none"/><path id="path10786-7" fill="none" stroke="#fff" stroke-dasharray="none" stroke-dashoffset="0" stroke-linecap="butt" stroke-linejoin="miter" stroke-miterlimit="4" stroke-opacity="1" stroke-width="1" d="M 11.245157,10.194608 5.5,10.499969" color="#000" display="inline" enable-background="accumulate" opacity=".3" overflow="visible" visibility="visible" style="marker:none"/><path id="path10786" fill="none" stroke="#5e4506" stroke-dasharray="none" stroke-dashoffset="0" stroke-linecap="butt" stroke-linejoin="miter" stroke-miterlimit="4" stroke-opacity="1" stroke-width="1" d="M 11.3023,9.4517507 5.5,9.4999707" color="#000" display="inline" enable-background="accumulate" overflow="visible" visibility="visible" style="marker:none"/><path id="path3964-7-71-6" fill="#43340d" fill-opacity="1" stroke="none" stroke-width="1" d="m 267.67143,512.297 a 0.8419643,1.7205358 0 1 1 -1.68393,0 0.8419643,1.7205358 0 1 1 1.68393,0 z" color="#000" display="inline" enable-background="accumulate" overflow="visible" transform="matrix(0.89077411,0,0,1.1624286,-231.68477,-589.24568)" visibility="visible" style="marker:none"/><path id="path3964-7-7-2-8" fill="#43340d" fill-opacity="1" stroke="none" stroke-width="1" d="m 267.67143,512.297 a 0.8419643,1.7205358 0 1 1 -1.68393,0 0.8419643,1.7205358 0 1 1 1.68393,0 z" color="#000" display="inline" enable-background="accumulate" overflow="visible" transform="matrix(-0.89077411,0,0,1.1624286,247.68478,-589.24568)" visibility="visible" style="marker:none"/><path id="path3802" fill="url(#linearGradient3847)" fill-opacity="1" stroke="#ae3800" stroke-linecap="butt" stroke-linejoin="miter" stroke-opacity="1" stroke-width="1" d="m 7,9.4999999 4,0 c 0,0 0.97259,0.6716421 0.97259,1.6119401 0,0 0.03076,1.38806 -1.97259,1.38806 0,0 -1.5,-0.08955 -1.5,-1.208955 0,0 0.037454,-1.7910451 -1.5,-1.7910451 z"/></g></svg>