<svg xmlns="http://www.w3.org/2000/svg" xmlns:svg="http://www.w3.org/2000/svg" xmlns:xlink="http://www.w3.org/1999/xlink" id="svg6117" width="16" height="16" version="1.1"><defs id="defs6119"><linearGradient id="linearGradient10680" x1="71.204" x2="71.204" y1="6.238" y2="44.341" gradientTransform="matrix(0.35135133,0,0,0.35135133,-17.203659,-0.90927844)" gradientUnits="userSpaceOnUse" xlink:href="#linearGradient4011-7-3"/><linearGradient id="linearGradient4011-7-3"><stop id="stop4013-1-4" offset="0" stop-color="#fff" stop-opacity="1"/><stop id="stop4015-6-5" offset=".508" stop-color="#fff" stop-opacity=".235"/><stop id="stop4017-5-3" offset=".835" stop-color="#fff" stop-opacity=".157"/><stop id="stop4019-1-06" offset="1" stop-color="#fff" stop-opacity=".392"/></linearGradient><linearGradient id="linearGradient4044-1-8"><stop id="stop4046-5-1" offset="0" stop-color="#fff3cb" stop-opacity="1"/><stop id="stop4048-7-6" offset=".433" stop-color="#fdde76" stop-opacity="1"/><stop id="stop4050-0-8" offset=".692" stop-color="#f9c440" stop-opacity="1"/><stop id="stop4052-2-0" offset="1" stop-color="#e48b20" stop-opacity="1"/></linearGradient><radialGradient id="radialGradient6115" cx="282.788" cy="533.112" r="6.83" fx="277.665" fy="533.112" gradientTransform="matrix(0,0.91915984,-0.99587439,0,814.28776,272.60038)" gradientUnits="userSpaceOnUse" xlink:href="#linearGradient4044-1-8"/></defs><metadata id="metadata6122"/><g id="layer1"><path id="path3009-1-6" fill="url(#radialGradient6115)" fill-opacity="1" fill-rule="nonzero" stroke="none" stroke-width=".911" d="m 289.75,533.11218 a 6.375,6.375 0 1 1 -12.75,0 6.375,6.375 0 1 1 12.75,0 z" color="#000" display="inline" enable-background="accumulate" overflow="visible" transform="matrix(1.1764706,0,0,1.1764706,-325.38236,-619.19081)" visibility="visible" style="marker:none"/><path id="path3009-5-8-6" fill="none" stroke="#a53400" stroke-dasharray="none" stroke-miterlimit="4" stroke-opacity="1" stroke-width=".85" d="m 289.75,533.11218 a 6.375,6.375 0 1 1 -12.75,0 6.375,6.375 0 1 1 12.75,0 z" color="#000" display="inline" enable-background="accumulate" opacity=".5" overflow="visible" transform="matrix(1.1764706,0,0,1.1764706,-325.38236,-619.19081)" visibility="visible" style="marker:none"/><path id="path8655-6-3-2" fill="none" stroke="url(#linearGradient10680)" stroke-dasharray="none" stroke-dashoffset="0" stroke-linecap="round" stroke-linejoin="round" stroke-miterlimit="4" stroke-opacity="1" stroke-width="1" d="m 14.500011,7.9997215 c 0,3.5900005 -2.91036,6.5003005 -6.4999105,6.5003005 -3.58989,0 -6.50009,-2.9103 -6.50009,-6.5003005 0,-3.5898 2.9102,-6.4997 6.50009,-6.4997 3.5895505,0 6.4999105,2.9099 6.4999105,6.4997 l 0,0 z" color="#000" display="inline" enable-background="accumulate" overflow="visible" visibility="visible" style="marker:none"/><path id="path3964-7-71" fill="#43340d" fill-opacity="1" stroke="none" stroke-width="1" d="m 267.67143,512.297 a 0.8419643,1.7205358 0 1 1 -1.68393,0 0.8419643,1.7205358 0 1 1 1.68393,0 z" color="#000" display="inline" enable-background="accumulate" overflow="visible" transform="matrix(0.89077411,0,0,1.1624286,-231.68478,-589.24539)" visibility="visible" style="marker:none"/><path id="path3964-7-7-2" fill="#43340d" fill-opacity="1" stroke="none" stroke-width="1" d="m 267.67143,512.297 a 0.8419643,1.7205358 0 1 1 -1.68393,0 0.8419643,1.7205358 0 1 1 1.68393,0 z" color="#000" display="inline" enable-background="accumulate" overflow="visible" transform="matrix(-0.89077411,0,0,1.1624286,247.68478,-589.24539)" visibility="visible" style="marker:none"/><rect id="rect5605-1-2" width="8" height="2" x="4" y="10" fill="#fff" fill-opacity="1" fill-rule="nonzero" stroke="none" stroke-width="1" color="#000" display="inline" enable-background="accumulate" opacity=".3" overflow="visible" rx="3" ry="1" visibility="visible" style="marker:none"/><rect id="rect5605-10" width="8" height="1" x="4" y="10" fill="#5e4506" fill-opacity="1" fill-rule="nonzero" stroke="none" stroke-width="1" color="#000" display="inline" enable-background="accumulate" overflow="visible" rx="3" ry="1" visibility="visible" style="marker:none"/></g></svg>